<?xml version="1.0" encoding="UTF-8" standalone="no"?>
<!DOCTYPE svg PUBLIC "-//W3C//DTD SVG 1.1//EN"
 "http://www.w3.org/Graphics/SVG/1.1/DTD/svg11.dtd">
<!-- Generated by graphviz version 2.50.0 (20211204.2007)
 -->
<!-- Title: G Pages: 1 -->
<svg width="316pt" height="234pt"
 viewBox="0.00 0.00 316.50 234.00" xmlns="http://www.w3.org/2000/svg" xmlns:xlink="http://www.w3.org/1999/xlink">
<g id="graph0" class="graph" transform="scale(1 1) rotate(0) translate(4 230)">
<title>G</title>
<polygon fill="#fffacd" stroke="transparent" points="-4,4 -4,-230 312.5,-230 312.5,4 -4,4"/>
<g id="clust1" class="cluster">
<title>cluster_1</title>
<polygon fill="#fffacd" stroke="black" points="8,-8 8,-147 138,-147 138,-8 8,-8"/>
</g>
<!-- Node1_1 -->
<g id="node1" class="node">
<title>Node1_1</title>
<ellipse fill="#00bfff" stroke="#00bfff" cx="73" cy="-34" rx="40.09" ry="18"/>
<text text-anchor="middle" x="73" y="-30.3" font-family="Times,serif" font-size="14.00">परम्(1.1)</text>
</g>
<!-- Node2_1 -->
<g id="node2" class="node">
<title>Node2_1</title>
<ellipse fill="#00bfff" stroke="#00bfff" cx="73" cy="-121" rx="57.39" ry="18"/>
<text text-anchor="middle" x="73" y="-117.3" font-family="Times,serif" font-size="14.00">कौतूहलम्(2.1)</text>
</g>
<!-- Node1_1&#45;&gt;Node2_1 -->
<g id="edge1" class="edge">
<title>Node1_1&#45;&gt;Node2_1</title>
<path fill="none" stroke="black" d="M73,-62.27C73,-75.58 73,-91.19 73,-102.82"/>
<polygon fill="black" stroke="black" points="76.5,-62.2 73,-52.2 69.5,-62.2 76.5,-62.2"/>
<text text-anchor="middle" x="96.5" y="-73.8" font-family="Times,serif" font-size="14.00">विशेषणम्</text>
</g>
<!-- Node5_1 -->
<g id="node3" class="node">
<title>Node5_1</title>
<ellipse fill="#ff1975" stroke="#ff1975" cx="183" cy="-208" rx="50.89" ry="18"/>
<text text-anchor="middle" x="183" y="-204.3" font-family="Times,serif" font-size="14.00">(अस्ति)(5.1)</text>
</g>
<!-- Node2_1&#45;&gt;Node5_1 -->
<g id="edge2" class="edge">
<title>Node2_1&#45;&gt;Node5_1</title>
<path fill="none" stroke="black" d="M101.79,-144.25C120.96,-159.06 145.67,-178.15 162.77,-191.37"/>
<polygon fill="black" stroke="black" points="103.74,-141.33 93.69,-137.99 99.46,-146.87 103.74,-141.33"/>
<text text-anchor="middle" x="146" y="-160.8" font-family="Times,serif" font-size="14.00">कर्ता</text>
</g>
<!-- Node3_1 -->
<g id="node4" class="node">
<title>Node3_1</title>
<ellipse fill="#ff99ff" stroke="#ff99ff" cx="183" cy="-121" rx="34.39" ry="18"/>
<text text-anchor="middle" x="183" y="-117.3" font-family="Times,serif" font-size="14.00">हि(3.1)</text>
</g>
<!-- Node3_1&#45;&gt;Node5_1 -->
<g id="edge3" class="edge">
<title>Node3_1&#45;&gt;Node5_1</title>
<path fill="none" stroke="black" d="M183,-149.27C183,-162.58 183,-178.19 183,-189.82"/>
<polygon fill="black" stroke="black" points="186.5,-149.2 183,-139.2 179.5,-149.2 186.5,-149.2"/>
<text text-anchor="middle" x="218" y="-160.8" font-family="Times,serif" font-size="14.00">कारण_द्योतकः</text>
</g>
<!-- Node4_1 -->
<g id="node5" class="node">
<title>Node4_1</title>
<ellipse fill="#b0e2ff" stroke="#b0e2ff" cx="276" cy="-121" rx="32.49" ry="18"/>
<text text-anchor="middle" x="276" y="-117.3" font-family="Times,serif" font-size="14.00">मे(4.1)</text>
</g>
<!-- Node4_1&#45;&gt;Node5_1 -->
<g id="edge4" class="edge">
<title>Node4_1&#45;&gt;Node5_1</title>
<path fill="none" stroke="black" d="M268.26,-148.66C264.89,-156.88 260.25,-165.47 254,-172 244.4,-182.03 231.32,-189.59 219.01,-195.07"/>
<polygon fill="black" stroke="black" points="271.65,-149.58 271.76,-138.99 265.07,-147.2 271.65,-149.58"/>
<text text-anchor="middle" x="286" y="-160.8" font-family="Times,serif" font-size="14.00">प्रयोजनम्</text>
</g>
</g>
</svg>
