<?xml version="1.0" encoding="UTF-8" standalone="no"?>
<!DOCTYPE svg PUBLIC "-//W3C//DTD SVG 1.1//EN"
 "http://www.w3.org/Graphics/SVG/1.1/DTD/svg11.dtd">
<!-- Generated by graphviz version 2.50.0 (20211204.2007)
 -->
<!-- Title: G Pages: 1 -->
<svg width="335pt" height="234pt"
 viewBox="0.00 0.00 335.30 234.00" xmlns="http://www.w3.org/2000/svg" xmlns:xlink="http://www.w3.org/1999/xlink">
<g id="graph0" class="graph" transform="scale(1 1) rotate(0) translate(4 230)">
<title>G</title>
<polygon fill="#fffacd" stroke="transparent" points="-4,4 -4,-230 331.3,-230 331.3,4 -4,4"/>
<g id="clust1" class="cluster">
<title>cluster_1</title>
<polygon fill="#fffacd" stroke="black" points="8,-8 8,-147 122,-147 122,-8 8,-8"/>
</g>
<!-- Node3_1 -->
<g id="node1" class="node">
<title>Node3_1</title>
<ellipse fill="#c6e2eb" stroke="#c6e2eb" cx="65" cy="-34" rx="49.29" ry="18"/>
<text text-anchor="middle" x="65" y="-30.3" font-family="Times,serif" font-size="14.00">अस्मिन्(3.1)</text>
</g>
<!-- Node5_1 -->
<g id="node2" class="node">
<title>Node5_1</title>
<ellipse fill="#c6e2eb" stroke="#c6e2eb" cx="67" cy="-121" rx="42.79" ry="18"/>
<text text-anchor="middle" x="67" y="-117.3" font-family="Times,serif" font-size="14.00">लोके(5.1)</text>
</g>
<!-- Node3_1&#45;&gt;Node5_1 -->
<g id="edge3" class="edge">
<title>Node3_1&#45;&gt;Node5_1</title>
<path fill="none" stroke="black" d="M65.64,-62.27C65.95,-75.58 66.32,-91.19 66.6,-102.82"/>
<polygon fill="black" stroke="black" points="69.14,-62.12 65.4,-52.2 62.14,-62.28 69.14,-62.12"/>
<text text-anchor="middle" x="90.5" y="-73.8" font-family="Times,serif" font-size="14.00">विशेषणम्</text>
</g>
<!-- Node7_1 -->
<g id="node4" class="node">
<title>Node7_1</title>
<ellipse fill="#ff1975" stroke="#ff1975" cx="166" cy="-208" rx="50.89" ry="18"/>
<text text-anchor="middle" x="166" y="-204.3" font-family="Times,serif" font-size="14.00">(अस्ति)(7.1)</text>
</g>
<!-- Node5_1&#45;&gt;Node7_1 -->
<g id="edge5" class="edge">
<title>Node5_1&#45;&gt;Node7_1</title>
<path fill="none" stroke="black" d="M84.01,-146.82C90.59,-155.39 98.57,-164.67 107,-172 116.17,-179.97 127.4,-187.15 137.59,-192.9"/>
<polygon fill="black" stroke="black" points="86.69,-144.55 77.94,-138.58 81.06,-148.71 86.69,-144.55"/>
<text text-anchor="middle" x="134.5" y="-160.8" font-family="Times,serif" font-size="14.00">अधिकरणम्</text>
</g>
<!-- Node1_1 -->
<g id="node3" class="node">
<title>Node1_1</title>
<ellipse fill="#00bfff" stroke="#00bfff" cx="166" cy="-121" rx="36.29" ry="18"/>
<text text-anchor="middle" x="166" y="-117.3" font-family="Times,serif" font-size="14.00">कः(1.1)</text>
</g>
<!-- Node1_1&#45;&gt;Node7_1 -->
<g id="edge1" class="edge">
<title>Node1_1&#45;&gt;Node7_1</title>
<path fill="none" stroke="black" d="M166,-149.27C166,-162.58 166,-178.19 166,-189.82"/>
<polygon fill="black" stroke="black" points="169.5,-149.2 166,-139.2 162.5,-149.2 169.5,-149.2"/>
<text text-anchor="middle" x="177" y="-160.8" font-family="Times,serif" font-size="14.00">कर्ता</text>
</g>
<!-- Node2_1 -->
<g id="node5" class="node">
<title>Node2_1</title>
<ellipse fill="#ff99ff" stroke="#ff99ff" cx="165" cy="-34" rx="32.49" ry="18"/>
<text text-anchor="middle" x="165" y="-30.3" font-family="Times,serif" font-size="14.00">नु(2.1)</text>
</g>
<!-- Node2_1&#45;&gt;Node1_1 -->
<g id="edge2" class="edge">
<title>Node2_1&#45;&gt;Node1_1</title>
<path fill="none" stroke="black" d="M165.32,-62.27C165.48,-75.58 165.66,-91.19 165.8,-102.82"/>
<polygon fill="black" stroke="black" points="168.82,-62.16 165.2,-52.2 161.82,-62.24 168.82,-62.16"/>
<text text-anchor="middle" x="184.5" y="-73.8" font-family="Times,serif" font-size="14.00">सम्बन्धः</text>
</g>
<!-- Node4_1 -->
<g id="node6" class="node">
<title>Node4_1</title>
<ellipse fill="#ff99ff" stroke="#ff99ff" cx="274" cy="-121" rx="53.09" ry="18"/>
<text text-anchor="middle" x="274" y="-117.3" font-family="Times,serif" font-size="14.00">साम्प्रतम्(4.1)</text>
</g>
<!-- Node4_1&#45;&gt;Node7_1 -->
<g id="edge4" class="edge">
<title>Node4_1&#45;&gt;Node7_1</title>
<path fill="none" stroke="black" d="M245.99,-144.05C227.17,-158.86 202.82,-178.02 185.95,-191.3"/>
<polygon fill="black" stroke="black" points="248.25,-146.72 253.94,-137.79 243.92,-141.22 248.25,-146.72"/>
<text text-anchor="middle" x="262.5" y="-160.8" font-family="Times,serif" font-size="14.00">कालाधिकरणम्</text>
</g>
<!-- Node6_1 -->
<g id="node7" class="node">
<title>Node6_1</title>
<ellipse fill="#00bfff" stroke="#00bfff" cx="267" cy="-34" rx="51.19" ry="18"/>
<text text-anchor="middle" x="267" y="-30.3" font-family="Times,serif" font-size="14.00">गुणवान्(6.1)</text>
</g>
<!-- Node6_1&#45;&gt;Node1_1 -->
<g id="edge6" class="edge">
<title>Node6_1&#45;&gt;Node1_1</title>
<path fill="none" stroke="black" d="M240.17,-57.58C222.25,-72.66 199.18,-92.08 183.56,-105.22"/>
<polygon fill="black" stroke="black" points="242.61,-60.1 248,-50.99 238.1,-54.75 242.61,-60.1"/>
<text text-anchor="middle" x="263" y="-73.8" font-family="Times,serif" font-size="14.00">विधेय_विशेषणम्</text>
</g>
</g>
</svg>
