<svg width="214pt" height="321pt"
 viewBox="0.00 0.00 214.00 321.00" xmlns="http://www.w3.org/2000/svg" xmlns:xlink="http://www.w3.org/1999/xlink">
<g id="graph0" class="graph" transform="scale(1 1) rotate(0) translate(4 317)">
<title>G</title>
<polygon fill="#fffacd" stroke="transparent" points="-4,4 -4,-317 210,-317 210,4 -4,4"/>
<g id="clust1" class="cluster">
<title>cluster_1</title>
<polygon fill="#fffacd" stroke="black" points="8,-8 8,-147 118,-147 118,-8 8,-8"/>
</g>
<!-- Node2_1 -->
<style>
 .hidden { display: none; }
 .node { cursor: pointer; }
 </style>
<script>
     function toggleChildren(id) {
      const children = document.getElementById(id);
      if (children.classList.contains('hidden')) {
        children.classList.remove('hidden');
      } else {
        children.classList.add('hidden');
      }
    }
</script>

<g id="node1" class="node">
<title>Node2_1</title>
<ellipse fill="#00bfff" stroke="#00bfff" cx="62" cy="-34" rx="46.29" ry="18"/>
<text text-anchor="middle" x="62" y="-30.3" font-family="Times,serif" font-size="14.00">बुद्धिमान्(2)</text>
</g>
<!-- Node3_1 -->
<g id="node2" class="node">
<title>Node3_1</title>
<ellipse fill="#00bfff" stroke="#00bfff" cx="63" cy="-121" rx="46.59" ry="18"/>
<text text-anchor="middle" x="63" y="-117.3" font-family="Times,serif" font-size="14.00">नीतिमान्(3)</text>
</g>
<!-- Node2_1&#45;&gt;Node3_1 -->
<g id="edge2" class="edge">
<title>Node2_1&#45;&gt;Node3_1</title>
<path fill="none" stroke="black" d="M62.32,-62.27C62.48,-75.58 62.66,-91.19 62.8,-102.82"/>
<polygon fill="black" stroke="black" points="65.82,-62.16 62.2,-52.2 58.82,-62.24 65.82,-62.16"/>
<text text-anchor="middle" x="85.5" y="-73.8" font-family="Times,serif" font-size="14.00">समुच्चितः</text>
</g>
<!-- Node1_1 -->
<g id="node3" class="node">
<title>Node1_1</title>
<ellipse fill="#00bfff" stroke="#00bfff" cx="63" cy="-208" rx="34.39" ry="18"/>
<text text-anchor="middle" x="63" y="-204.3" font-family="Times,serif" font-size="14.00">(सः)(1)</text>
</g>
<!-- Node3_1&#45;&gt;Node1_1 -->
<g id="edge3" class="edge">
<title>Node3_1&#45;&gt;Node1_1</title>
<path fill="none" stroke="black" d="M63,-149.27C63,-162.58 63,-178.19 63,-189.82"/>
<polygon fill="black" stroke="black" points="66.5,-149.2 63,-139.2 59.5,-149.2 66.5,-149.2"/>
<text text-anchor="middle" x="104" y="-160.8" font-family="Times,serif" font-size="14.00">विधेय_विशेषणम्</text>
</g>
<!-- Node5_1 -->
<g id="node4" class="node">
<title>Node5_1</title>
<ellipse fill="#ff1975" stroke="#ff1975" cx="63" cy="-295" rx="44.39" ry="18"/>
<text text-anchor="middle" x="63" y="-291.3" font-family="Times,serif" font-size="14.00">(अस्ति)(5)</text>
</g>
<!-- Node1_1&#45;&gt;Node5_1 -->
<g id="edge1" class="edge">
<title>Node1_1&#45;&gt;Node5_1</title>
<path fill="none" stroke="black" d="M63,-236.27C63,-249.58 63,-265.19 63,-276.82"/>
<polygon fill="black" stroke="black" points="66.5,-236.2 63,-226.2 59.5,-236.2 66.5,-236.2"/>
<text text-anchor="middle" x="74" y="-247.8" font-family="Times,serif" font-size="14.00">कर्ता</text>
</g>
<!-- Node4_1 -->
<g id="node5" class="node">
<title>Node4_1</title>
<ellipse fill="#ff99ff" stroke="#ff99ff" cx="159" cy="-34" rx="32.49" ry="18"/>
<text text-anchor="middle" x="159" y="-30.3" font-family="Times,serif" font-size="14.00">(च)(4)</text>
</g>
<!-- Node4_1&#45;&gt;Node3_1 -->
<g id="edge4" class="edge">
<title>Node4_1&#45;&gt;Node3_1</title>
<path fill="none" stroke="black" d="M138.86,-58.29C130.86,-67.04 121.34,-76.84 112,-85 103.81,-92.16 94.19,-99.27 85.65,-105.2"/>
<polygon fill="black" stroke="black" points="141.67,-60.41 145.74,-50.63 136.46,-55.73 141.67,-60.41"/>
<text text-anchor="middle" x="166.5" y="-73.8" font-family="Times,serif" font-size="14.00">समुच्चय_द्योतकः</text>
</g>
</g>
</svg>
