<svg width="176pt" height="218pt"
 viewBox="0.00 0.00 176.39 218.00" xmlns="http://www.w3.org/2000/svg" xmlns:xlink="http://www.w3.org/1999/xlink">
<g id="graph0" class="graph" transform="scale(1 1) rotate(0) translate(4 214)">
<title>G</title>
<polygon fill="#fffacd" stroke="transparent" points="-4,4 -4,-214 172.39,-214 172.39,4 -4,4"/>
<!-- Node1_1 -->
<style>
 .hidden { display: none; }
 .node { cursor: pointer; }
 </style>
<script>
     function toggleChildren(id) {
      const children = document.getElementById(id);
      if (children.classList.contains('hidden')) {
        children.classList.remove('hidden');
      } else {
        children.classList.add('hidden');
      }
    }
</script>

<g id="node1" class="node">
<title>Node1_1</title>
<ellipse fill="#93db70" stroke="#93db70" cx="39" cy="-18" rx="36" ry="18"/>
<text text-anchor="middle" x="39" y="-14.3" font-family="Times,serif" font-size="14.00">एतत्(1)</text>
</g>
<!-- Node4_1 -->
<g id="node2" class="node">
<title>Node4_1</title>
<ellipse fill="#ff99ff" stroke="#ff99ff" cx="39" cy="-105" rx="38.99" ry="18"/>
<text text-anchor="middle" x="39" y="-101.3" font-family="Times,serif" font-size="14.00">श्रोतुम्(4)</text>
</g>
<!-- Node1_1&#45;&gt;Node4_1 -->
<g id="edge1" class="edge">
<title>Node1_1&#45;&gt;Node4_1</title>
<path fill="none" stroke="black" d="M39,-46.27C39,-59.58 39,-75.19 39,-86.82"/>
<polygon fill="black" stroke="black" points="42.5,-46.2 39,-36.2 35.5,-46.2 42.5,-46.2"/>
<text text-anchor="middle" x="48" y="-57.8" font-family="Times,serif" font-size="14.00">कर्म</text>
</g>
<!-- Node2_1 -->
<g id="node3" class="node">
<title>Node2_1</title>
<ellipse fill="#ff1975" stroke="#ff1975" cx="98" cy="-192" rx="44.69" ry="18"/>
<text text-anchor="middle" x="98" y="-188.3" font-family="Times,serif" font-size="14.00">इच्छामि(2)</text>
</g>
<!-- Node4_1&#45;&gt;Node2_1 -->
<g id="edge3" class="edge">
<title>Node4_1&#45;&gt;Node2_1</title>
<path fill="none" stroke="black" d="M56.11,-130.65C65.86,-144.7 77.82,-161.92 86.45,-174.37"/>
<polygon fill="black" stroke="black" points="58.95,-128.61 50.37,-122.39 53.2,-132.6 58.95,-128.61"/>
<text text-anchor="middle" x="82" y="-144.8" font-family="Times,serif" font-size="14.00">कर्म</text>
</g>
<!-- Node3_1 -->
<g id="node4" class="node">
<title>Node3_1</title>
<ellipse fill="#00bfff" stroke="#00bfff" cx="132" cy="-105" rx="36.29" ry="18"/>
<text text-anchor="middle" x="132" y="-101.3" font-family="Times,serif" font-size="14.00">अहम्(3)</text>
</g>
<!-- Node3_1&#45;&gt;Node2_1 -->
<g id="edge2" class="edge">
<title>Node3_1&#45;&gt;Node2_1</title>
<path fill="none" stroke="black" d="M121.54,-132.13C116.1,-145.73 109.61,-161.98 104.82,-173.95"/>
<polygon fill="black" stroke="black" points="124.81,-133.38 125.28,-122.79 118.32,-130.78 124.81,-133.38"/>
<text text-anchor="middle" x="128" y="-144.8" font-family="Times,serif" font-size="14.00">कर्ता</text>
</g>
</g>
</svg>
