<?xml version="1.0" encoding="UTF-8" standalone="no"?>
<!DOCTYPE svg PUBLIC "-//W3C//DTD SVG 1.1//EN"
 "http://www.w3.org/Graphics/SVG/1.1/DTD/svg11.dtd">
<!-- Generated by graphviz version 2.50.0 (20211204.2007)
 -->
<!-- Title: G Pages: 1 -->
<svg width="304pt" height="392pt"
 viewBox="0.00 0.00 303.89 392.00" xmlns="http://www.w3.org/2000/svg" xmlns:xlink="http://www.w3.org/1999/xlink">
<g id="graph0" class="graph" transform="scale(1 1) rotate(0) translate(4 388)">
<title>G</title>
<polygon fill="#fffacd" stroke="transparent" points="-4,4 -4,-388 299.89,-388 299.89,4 -4,4"/>
<g id="clust1" class="cluster">
<title>cluster_1</title>
<polygon fill="#fffacd" stroke="black" points="92.25,-79 92.25,-218 208.25,-218 208.25,-79 92.25,-79"/>
</g>
<!-- Node2_2 -->
<g id="node1" class="node">
<title>Node2_2</title>
<ellipse fill="#00bfff" stroke="#00bfff" cx="150.25" cy="-105" rx="47.39" ry="18"/>
<text text-anchor="middle" x="150.25" y="-101.3" font-family="Times,serif" font-size="14.00">उरस्कः(2.2)</text>
</g>
<!-- Node3_2 -->
<g id="node2" class="node">
<title>Node3_2</title>
<ellipse fill="#00bfff" stroke="#00bfff" cx="150.25" cy="-192" rx="50.09" ry="18"/>
<text text-anchor="middle" x="150.25" y="-188.3" font-family="Times,serif" font-size="14.00">ईष्वासः(3.2)</text>
</g>
<!-- Node2_2&#45;&gt;Node3_2 -->
<g id="edge3" class="edge">
<title>Node2_2&#45;&gt;Node3_2</title>
<path fill="none" stroke="black" d="M150.25,-133.27C150.25,-146.58 150.25,-162.19 150.25,-173.82"/>
<polygon fill="black" stroke="black" points="153.75,-133.2 150.25,-123.2 146.75,-133.2 153.75,-133.2"/>
<text text-anchor="middle" x="172.75" y="-144.8" font-family="Times,serif" font-size="14.00">समुच्चितः</text>
</g>
<!-- Node1_1 -->
<g id="node3" class="node">
<title>Node1_1</title>
<ellipse fill="#00bfff" stroke="#00bfff" cx="150.25" cy="-279" rx="41.69" ry="18"/>
<text text-anchor="middle" x="150.25" y="-275.3" font-family="Times,serif" font-size="14.00">(सः)(1.1)</text>
</g>
<!-- Node3_2&#45;&gt;Node1_1 -->
<g id="edge5" class="edge">
<title>Node3_2&#45;&gt;Node1_1</title>
<path fill="none" stroke="black" d="M150.25,-220.27C150.25,-233.58 150.25,-249.19 150.25,-260.82"/>
<polygon fill="black" stroke="black" points="153.75,-220.2 150.25,-210.2 146.75,-220.2 153.75,-220.2"/>
<text text-anchor="middle" x="191.25" y="-231.8" font-family="Times,serif" font-size="14.00">विधेय_विशेषणम्</text>
</g>
<!-- Node5_1 -->
<g id="node4" class="node">
<title>Node5_1</title>
<ellipse fill="#ff1975" stroke="#ff1975" cx="150.25" cy="-366" rx="50.89" ry="18"/>
<text text-anchor="middle" x="150.25" y="-362.3" font-family="Times,serif" font-size="14.00">(अस्ति)(5.1)</text>
</g>
<!-- Node1_1&#45;&gt;Node5_1 -->
<g id="edge1" class="edge">
<title>Node1_1&#45;&gt;Node5_1</title>
<path fill="none" stroke="black" d="M150.25,-307.27C150.25,-320.58 150.25,-336.19 150.25,-347.82"/>
<polygon fill="black" stroke="black" points="153.75,-307.2 150.25,-297.2 146.75,-307.2 153.75,-307.2"/>
<text text-anchor="middle" x="161.25" y="-318.8" font-family="Times,serif" font-size="14.00">कर्ता</text>
</g>
<!-- Node2_1 -->
<g id="node5" class="node">
<title>Node2_1</title>
<ellipse fill="#ffff00" stroke="#ffff00" cx="150.25" cy="-18" rx="42.49" ry="18"/>
<text text-anchor="middle" x="150.25" y="-14.3" font-family="Times,serif" font-size="14.00">महा&#45;(2.1)</text>
</g>
<!-- Node2_1&#45;&gt;Node2_2 -->
<g id="edge2" class="edge">
<title>Node2_1&#45;&gt;Node2_2</title>
<path fill="none" stroke="black" d="M150.25,-46.27C150.25,-59.58 150.25,-75.19 150.25,-86.82"/>
<polygon fill="black" stroke="black" points="153.75,-46.2 150.25,-36.2 146.75,-46.2 153.75,-46.2"/>
<text text-anchor="middle" x="182.25" y="-57.8" font-family="Times,serif" font-size="14.00">षष्ठी&#45;बहुव्रीहिः</text>
</g>
<!-- Node3_1 -->
<g id="node6" class="node">
<title>Node3_1</title>
<ellipse fill="#ffff00" stroke="#ffff00" cx="42.25" cy="-105" rx="42.49" ry="18"/>
<text text-anchor="middle" x="42.25" y="-101.3" font-family="Times,serif" font-size="14.00">महा&#45;(3.1)</text>
</g>
<!-- Node3_1&#45;&gt;Node3_2 -->
<g id="edge4" class="edge">
<title>Node3_1&#45;&gt;Node3_2</title>
<path fill="none" stroke="black" d="M59.02,-131.1C65.58,-139.7 73.6,-148.93 82.25,-156 93.04,-164.83 106.42,-172.3 118.44,-178.05"/>
<polygon fill="black" stroke="black" points="61.7,-128.84 52.99,-122.82 56.04,-132.96 61.7,-128.84"/>
<text text-anchor="middle" x="114.25" y="-144.8" font-family="Times,serif" font-size="14.00">षष्ठी&#45;बहुव्रीहिः</text>
</g>
<!-- Node4_1 -->
<g id="node7" class="node">
<title>Node4_1</title>
<ellipse fill="#ff99ff" stroke="#ff99ff" cx="256.25" cy="-105" rx="39.79" ry="18"/>
<text text-anchor="middle" x="256.25" y="-101.3" font-family="Times,serif" font-size="14.00">(च)(4.1)</text>
</g>
<!-- Node4_1&#45;&gt;Node3_2 -->
<g id="edge6" class="edge">
<title>Node4_1&#45;&gt;Node3_2</title>
<path fill="none" stroke="black" d="M231.88,-128.33C221.95,-137.17 210.24,-147.29 199.25,-156 190.73,-162.75 181.04,-169.8 172.54,-175.78"/>
<polygon fill="black" stroke="black" points="234.32,-130.84 239.42,-121.55 229.64,-125.63 234.32,-130.84"/>
<text text-anchor="middle" x="255.75" y="-144.8" font-family="Times,serif" font-size="14.00">समुच्चय_द्योतकः</text>
</g>
</g>
</svg>
