<?xml version="1.0" encoding="UTF-8" standalone="no"?>
<!DOCTYPE svg PUBLIC "-//W3C//DTD SVG 1.1//EN"
 "http://www.w3.org/Graphics/SVG/1.1/DTD/svg11.dtd">
<!-- Generated by graphviz version 2.50.0 (20211204.2007)
 -->
<!-- Title: G Pages: 1 -->
<svg width="320pt" height="479pt"
 viewBox="0.00 0.00 319.65 479.00" xmlns="http://www.w3.org/2000/svg" xmlns:xlink="http://www.w3.org/1999/xlink">
<g id="graph0" class="graph" transform="scale(1 1) rotate(0) translate(4 475)">
<title>G</title>
<polygon fill="#fffacd" stroke="transparent" points="-4,4 -4,-475 315.65,-475 315.65,4 -4,4"/>
<g id="clust1" class="cluster">
<title>cluster_1</title>
<polygon fill="#fffacd" stroke="black" points="89.65,-166 89.65,-305 303.65,-305 303.65,-166 89.65,-166"/>
</g>
<!-- Node2_1 -->
<g id="node1" class="node">
<title>Node2_1</title>
<ellipse fill="#00bfff" stroke="#00bfff" cx="251.65" cy="-192" rx="44.39" ry="18"/>
<text text-anchor="middle" x="251.65" y="-188.3" font-family="Times,serif" font-size="14.00">साधुः(2.1)</text>
</g>
<!-- Node4_1 -->
<g id="node2" class="node">
<title>Node4_1</title>
<ellipse fill="#00bfff" stroke="#00bfff" cx="154.65" cy="-279" rx="57.39" ry="18"/>
<text text-anchor="middle" x="154.65" y="-275.3" font-family="Times,serif" font-size="14.00">विचक्षणः(4.1)</text>
</g>
<!-- Node2_1&#45;&gt;Node4_1 -->
<g id="edge2" class="edge">
<title>Node2_1&#45;&gt;Node4_1</title>
<path fill="none" stroke="black" d="M227.79,-216.31C218.81,-224.88 208.41,-234.54 198.65,-243 191.27,-249.39 182.94,-256.13 175.53,-261.97"/>
<polygon fill="black" stroke="black" points="230.48,-218.58 235.27,-209.13 225.63,-213.54 230.48,-218.58"/>
<text text-anchor="middle" x="237.15" y="-231.8" font-family="Times,serif" font-size="14.00">समुच्चितः</text>
</g>
<!-- Node1_1 -->
<g id="node4" class="node">
<title>Node1_1</title>
<ellipse fill="#00bfff" stroke="#00bfff" cx="154.65" cy="-366" rx="41.69" ry="18"/>
<text text-anchor="middle" x="154.65" y="-362.3" font-family="Times,serif" font-size="14.00">(सः)(1.1)</text>
</g>
<!-- Node4_1&#45;&gt;Node1_1 -->
<g id="edge6" class="edge">
<title>Node4_1&#45;&gt;Node1_1</title>
<path fill="none" stroke="black" d="M154.65,-307.27C154.65,-320.58 154.65,-336.19 154.65,-347.82"/>
<polygon fill="black" stroke="black" points="158.15,-307.2 154.65,-297.2 151.15,-307.2 158.15,-307.2"/>
<text text-anchor="middle" x="195.65" y="-318.8" font-family="Times,serif" font-size="14.00">विधेय_विशेषणम्</text>
</g>
<!-- Node3_3 -->
<g id="node3" class="node">
<title>Node3_3</title>
<ellipse fill="#00bfff" stroke="#00bfff" cx="143.65" cy="-192" rx="46.29" ry="18"/>
<text text-anchor="middle" x="143.65" y="-188.3" font-family="Times,serif" font-size="14.00">आत्मा(3.3)</text>
</g>
<!-- Node3_3&#45;&gt;Node4_1 -->
<g id="edge5" class="edge">
<title>Node3_3&#45;&gt;Node4_1</title>
<path fill="none" stroke="black" d="M147.18,-220.27C148.9,-233.58 150.92,-249.19 152.42,-260.82"/>
<polygon fill="black" stroke="black" points="150.63,-219.67 145.87,-210.2 143.68,-220.57 150.63,-219.67"/>
<text text-anchor="middle" x="172.15" y="-231.8" font-family="Times,serif" font-size="14.00">समुच्चितः</text>
</g>
<!-- Node6_1 -->
<g id="node5" class="node">
<title>Node6_1</title>
<ellipse fill="#ff1975" stroke="#ff1975" cx="154.65" cy="-453" rx="50.89" ry="18"/>
<text text-anchor="middle" x="154.65" y="-449.3" font-family="Times,serif" font-size="14.00">(अस्ति)(6.1)</text>
</g>
<!-- Node1_1&#45;&gt;Node6_1 -->
<g id="edge1" class="edge">
<title>Node1_1&#45;&gt;Node6_1</title>
<path fill="none" stroke="black" d="M154.65,-394.27C154.65,-407.58 154.65,-423.19 154.65,-434.82"/>
<polygon fill="black" stroke="black" points="158.15,-394.2 154.65,-384.2 151.15,-394.2 158.15,-394.2"/>
<text text-anchor="middle" x="165.65" y="-405.8" font-family="Times,serif" font-size="14.00">कर्ता</text>
</g>
<!-- Node3_1 -->
<g id="node6" class="node">
<title>Node3_1</title>
<ellipse fill="#ffff00" stroke="#ffff00" cx="143.65" cy="-18" rx="37.09" ry="18"/>
<text text-anchor="middle" x="143.65" y="-14.3" font-family="Times,serif" font-size="14.00">अ&#45;(3.1)</text>
</g>
<!-- Node3_2 -->
<g id="node7" class="node">
<title>Node3_2</title>
<ellipse fill="#ffff00" stroke="#ffff00" cx="143.65" cy="-105" rx="42.49" ry="18"/>
<text text-anchor="middle" x="143.65" y="-101.3" font-family="Times,serif" font-size="14.00">दीन&#45;(3.2)</text>
</g>
<!-- Node3_1&#45;&gt;Node3_2 -->
<g id="edge3" class="edge">
<title>Node3_1&#45;&gt;Node3_2</title>
<path fill="none" stroke="black" d="M143.65,-46.27C143.65,-59.58 143.65,-75.19 143.65,-86.82"/>
<polygon fill="black" stroke="black" points="147.15,-46.2 143.65,-36.2 140.15,-46.2 147.15,-46.2"/>
<text text-anchor="middle" x="172.65" y="-57.8" font-family="Times,serif" font-size="14.00">नञ्&#45;तत्पुरुषः</text>
</g>
<!-- Node3_2&#45;&gt;Node3_3 -->
<g id="edge4" class="edge">
<title>Node3_2&#45;&gt;Node3_3</title>
<path fill="none" stroke="black" d="M143.65,-133.27C143.65,-146.58 143.65,-162.19 143.65,-173.82"/>
<polygon fill="black" stroke="black" points="147.15,-133.2 143.65,-123.2 140.15,-133.2 147.15,-133.2"/>
<text text-anchor="middle" x="175.65" y="-144.8" font-family="Times,serif" font-size="14.00">षष्ठी&#45;बहुव्रीहिः</text>
</g>
<!-- Node5_1 -->
<g id="node8" class="node">
<title>Node5_1</title>
<ellipse fill="#ff99ff" stroke="#ff99ff" cx="39.65" cy="-192" rx="39.79" ry="18"/>
<text text-anchor="middle" x="39.65" y="-188.3" font-family="Times,serif" font-size="14.00">(च)(5.1)</text>
</g>
<!-- Node5_1&#45;&gt;Node4_1 -->
<g id="edge7" class="edge">
<title>Node5_1&#45;&gt;Node4_1</title>
<path fill="none" stroke="black" d="M48.63,-219.74C52.49,-228.07 57.74,-236.7 64.65,-243 77.29,-254.52 94.14,-262.41 109.85,-267.75"/>
<polygon fill="black" stroke="black" points="51.77,-218.18 44.72,-210.28 45.3,-220.85 51.77,-218.18"/>
<text text-anchor="middle" x="104.15" y="-231.8" font-family="Times,serif" font-size="14.00">समुच्चय_द्योतकः</text>
</g>
</g>
</svg>
