<svg width="457pt" height="524pt"
 viewBox="0.00 0.00 456.93 524.00" xmlns="http://www.w3.org/2000/svg" xmlns:xlink="http://www.w3.org/1999/xlink">
<g id="graph0" class="graph" transform="scale(1 1) rotate(0) translate(4 520)">
<title>G</title>
<polygon fill="#fffacd" stroke="transparent" points="-4,4 -4,-520 452.93,-520 452.93,4 -4,4"/>
<g id="clust1" class="cluster">
<title>cluster_1</title>
<polygon fill="#fffacd" stroke="black" points="247.93,-211 247.93,-350 363.93,-350 363.93,-211 247.93,-211"/>
</g>
<!-- Node3_1 -->
<style>
 .hidden { display: none; }
 .node { cursor: pointer; }
 </style>
<script>
     function toggleChildren(id) {
      const children = document.getElementById(id);
      if (children.classList.contains('hidden')) {
        children.classList.remove('hidden');
      } else {
        children.classList.add('hidden');
      }
    }
</script>
<g id="children_node1" class="hidden">
    <g class="node" onclick="toggleChildren('children_node1');">

<g id="node1" class="node">
<title>Node3_1</title>
<ellipse fill="#ffff00" stroke="#ffff00" cx="49.93" cy="-18" rx="27" ry="18"/>
<text text-anchor="middle" x="49.93" y="-14.3" font-family="Times,serif" font-size="14.00">अ&#45;</text>
</g>
<!-- Node3_2 -->
<g id="node2" class="node">
<title>Node3_2</title>
<ellipse fill="#ffff00" stroke="#ffff00" cx="139.93" cy="-18" rx="27" ry="18"/>
<text text-anchor="middle" x="139.93" y="-14.3" font-family="Times,serif" font-size="14.00">दीन&#45;</text>
</g>
<!-- Node3_1&#45;&gt;Node3_2 -->
<!-- Node3_2_1 -->
<g id="node3" class="node">
<title>Node3_2_1</title>
<ellipse fill="#ffff00" stroke="#ffff00" cx="93.93" cy="-91" rx="90.98" ry="18"/>
<text text-anchor="middle" x="93.93" y="-87.3" font-family="Times,serif" font-size="14.00">&lt;अ&#45;&#45;दीन&#45;&gt;(नञ्&#45;तत्पुरुषः)</text>
</g>
<!-- Node3_1&#45;&gt;Node3_2_1 -->
<g id="edge2" class="edge">
<title>Node3_1&#45;&gt;Node3_2_1</title>
<path fill="none" stroke="black" d="M65.35,-43.88C71.31,-53.49 77.98,-64.25 83.38,-72.96"/>
<polygon fill="black" stroke="black" points="68.16,-41.77 59.92,-35.11 62.21,-45.45 68.16,-41.77"/>
</g>
<!-- Node3_2&#45;&gt;Node3_2_1 -->
<g id="edge1" class="edge">
<title>Node3_2&#45;&gt;Node3_2_1</title>
<path fill="none" stroke="black" d="M124.19,-43.3C117.85,-53.09 110.68,-64.15 104.92,-73.05"/>
<polygon fill="black" stroke="black" points="127.23,-45.05 129.73,-34.76 121.35,-41.25 127.23,-45.05"/>
</g>
<!-- Node3_3 -->
<g id="node4" class="node">
<title>Node3_3</title>
<ellipse fill="#ffff00" stroke="#ffff00" cx="249.93" cy="-91" rx="29.5" ry="18"/>
<text text-anchor="middle" x="249.93" y="-87.3" font-family="Times,serif" font-size="14.00">आत्मा</text>
</g>
<!-- Node3_2_1&#45;&gt;Node3_3 -->
<!-- Node3_3_2 -->
<g id="node5" class="node">
<title>Node3_3_2</title>
<ellipse fill="#ffff00" stroke="#ffff00" cx="170.93" cy="-164" rx="170.87" ry="18"/>
<text text-anchor="middle" x="170.93" y="-160.3" font-family="Times,serif" font-size="14.00">&lt;&lt;अ&#45;&#45;दीन&#45;&gt;(नञ्&#45;तत्पुरुषः)&#45;आत्मा&gt;(षष्ठी&#45;बहुव्रीहिः)</text>
</g>
<!-- Node3_2_1&#45;&gt;Node3_3_2 -->
<g id="edge5" class="edge">
<title>Node3_2_1&#45;&gt;Node3_3_2</title>
<path fill="none" stroke="black" d="M119.7,-115.76C130.46,-125.68 142.72,-136.99 152.55,-146.05"/>
<polygon fill="black" stroke="black" points="121.91,-113.03 112.18,-108.83 117.16,-118.18 121.91,-113.03"/>
</g>
<!-- Node3_3&#45;&gt;Node3_3_2 -->
<g id="edge4" class="edge">
<title>Node3_3&#45;&gt;Node3_3_2</title>
<path fill="none" stroke="black" d="M226.32,-113.22C214.7,-123.66 200.89,-136.08 189.96,-145.9"/>
<polygon fill="black" stroke="black" points="228.85,-115.66 233.95,-106.37 224.17,-110.45 228.85,-115.66"/>
</g>
<!-- Node3_3_2&#45;&gt;Node3_3_2c -->
<g id="edge7" class="edge">
<title>Node3_3_2&#45;&gt;Node3_3_2c</title>
<path fill="none" stroke="black" d="M170.93,-192.25C170.93,-201.23 170.93,-210.97 170.93,-218.97"/>
<polygon fill="black" stroke="black" points="174.43,-192.19 170.93,-182.19 167.43,-192.19 174.43,-192.19"/>
</g>
</g>
</g>
<!-- Node3_3_2c -->
<g class="node6" onclick="toggleChildren('children_node1');">
<title>Node3_3_2c</title>
<ellipse fill="#00bfff" stroke="#00bfff" cx="170.93" cy="-237" rx="68.79" ry="18"/>
<text text-anchor="middle" x="170.93" y="-233.3" font-family="Times,serif" font-size="14.00">अ&#45;&#45;दीन&#45;&#45;आत्मा(3)</text>
</g>
<!-- Node4_1 -->
<g id="node8" class="node">
<title>Node4_1</title>
<ellipse fill="#00bfff" stroke="#00bfff" cx="305.93" cy="-324" rx="50.09" ry="18"/>
<text text-anchor="middle" x="305.93" y="-320.3" font-family="Times,serif" font-size="14.00">विचक्षणः(4)</text>
</g>
<!-- Node3_3_2c&#45;&gt;Node4_1 -->
<g id="edge8" class="edge">
<title>Node3_3_2c&#45;&gt;Node4_1</title>
<path fill="none" stroke="black" d="M204.49,-259.12C228.53,-274.27 260.36,-294.3 281.9,-307.87"/>
<polygon fill="black" stroke="black" points="206.34,-256.16 196.01,-253.79 202.61,-262.08 206.34,-256.16"/>
<text text-anchor="middle" x="268.43" y="-276.8" font-family="Times,serif" font-size="14.00">समुच्चितः</text>
</g>
<!-- Node2_1 -->
<g id="node7" class="node">
<title>Node2_1</title>
<ellipse fill="#00bfff" stroke="#00bfff" cx="305.93" cy="-237" rx="37.09" ry="18"/>
<text text-anchor="middle" x="305.93" y="-233.3" font-family="Times,serif" font-size="14.00">साधुः(2)</text>
</g>
<!-- Node2_1&#45;&gt;Node4_1 -->
<g id="edge10" class="edge">
<title>Node2_1&#45;&gt;Node4_1</title>
<path fill="none" stroke="black" d="M305.93,-265.27C305.93,-278.58 305.93,-294.19 305.93,-305.82"/>
<polygon fill="black" stroke="black" points="309.43,-265.2 305.93,-255.2 302.43,-265.2 309.43,-265.2"/>
<text text-anchor="middle" x="328.43" y="-276.8" font-family="Times,serif" font-size="14.00">समुच्चितः</text>
</g>
<!-- Node1_1 -->
<g id="node9" class="node">
<title>Node1_1</title>
<ellipse fill="#00bfff" stroke="#00bfff" cx="305.93" cy="-411" rx="34.39" ry="18"/>
<text text-anchor="middle" x="305.93" y="-407.3" font-family="Times,serif" font-size="14.00">(सः)(1)</text>
</g>
<!-- Node4_1&#45;&gt;Node1_1 -->
<g id="edge11" class="edge">
<title>Node4_1&#45;&gt;Node1_1</title>
<path fill="none" stroke="black" d="M305.93,-352.27C305.93,-365.58 305.93,-381.19 305.93,-392.82"/>
<polygon fill="black" stroke="black" points="309.43,-352.2 305.93,-342.2 302.43,-352.2 309.43,-352.2"/>
<text text-anchor="middle" x="346.93" y="-363.8" font-family="Times,serif" font-size="14.00">विधेय_विशेषणम्</text>
</g>
<!-- Node6_1 -->
<g id="node10" class="node">
<title>Node6_1</title>
<ellipse fill="#ff1975" stroke="#ff1975" cx="305.93" cy="-498" rx="44.39" ry="18"/>
<text text-anchor="middle" x="305.93" y="-494.3" font-family="Times,serif" font-size="14.00">(अस्ति)(6)</text>
</g>
<!-- Node1_1&#45;&gt;Node6_1 -->
<g id="edge9" class="edge">
<title>Node1_1&#45;&gt;Node6_1</title>
<path fill="none" stroke="black" d="M305.93,-439.27C305.93,-452.58 305.93,-468.19 305.93,-479.82"/>
<polygon fill="black" stroke="black" points="309.43,-439.2 305.93,-429.2 302.43,-439.2 309.43,-439.2"/>
<text text-anchor="middle" x="316.93" y="-450.8" font-family="Times,serif" font-size="14.00">कर्ता</text>
</g>
<!-- Node3_3_2c -->
<g class="node6" onclick="toggleChildren('children_node1');">
<title>Node3_3_2c</title>
<ellipse fill="#00bfff" stroke="#00bfff" cx="170.93" cy="-237" rx="68.79" ry="18"/>
<text text-anchor="middle" x="170.93" y="-233.3" font-family="Times,serif" font-size="14.00">अ&#45;&#45;दीन&#45;&#45;आत्मा(3)</text>
</g>
<!-- Node5_1 -->
<g id="node11" class="node">
<title>Node5_1</title>
<ellipse fill="#ff99ff" stroke="#ff99ff" cx="403.93" cy="-237" rx="32.49" ry="18"/>
<text text-anchor="middle" x="403.93" y="-233.3" font-family="Times,serif" font-size="14.00">(च)(5)</text>
</g>
<!-- Node5_1&#45;&gt;Node4_1 -->
<g id="edge12" class="edge">
<title>Node5_1&#45;&gt;Node4_1</title>
<path fill="none" stroke="black" d="M383.07,-260.96C374.65,-269.76 364.65,-279.69 354.93,-288 346.83,-294.93 337.41,-301.9 329,-307.77"/>
<polygon fill="black" stroke="black" points="385.71,-263.26 390.01,-253.57 380.61,-258.46 385.71,-263.26"/>
<text text-anchor="middle" x="409.43" y="-276.8" font-family="Times,serif" font-size="14.00">समुच्चय_द्योतकः</text>
</g>
</g>
</svg>
