<?xml version="1.0" encoding="UTF-8" standalone="no"?>
<!DOCTYPE svg PUBLIC "-//W3C//DTD SVG 1.1//EN"
 "http://www.w3.org/Graphics/SVG/1.1/DTD/svg11.dtd">
<!-- Generated by graphviz version 2.50.0 (20211204.2007)
 -->
<!-- Title: G Pages: 1 -->
<svg width="327pt" height="392pt"
 viewBox="0.00 0.00 326.65 392.00" xmlns="http://www.w3.org/2000/svg" xmlns:xlink="http://www.w3.org/1999/xlink">
<g id="graph0" class="graph" transform="scale(1 1) rotate(0) translate(4 388)">
<title>G</title>
<polygon fill="#fffacd" stroke="transparent" points="-4,4 -4,-388 322.65,-388 322.65,4 -4,4"/>
<g id="clust1" class="cluster">
<title>cluster_1</title>
<polygon fill="#fffacd" stroke="black" points="8,-79 8,-218 108,-218 108,-79 8,-79"/>
</g>
<!-- Node2_1 -->
<g id="node1" class="node">
<title>Node2_1</title>
<ellipse fill="#00bfff" stroke="#00bfff" cx="56" cy="-105" rx="40.09" ry="18"/>
<text text-anchor="middle" x="56" y="-101.3" font-family="Times,serif" font-size="14.00">समः(2.1)</text>
</g>
<!-- Node3_3 -->
<g id="node2" class="node">
<title>Node3_3</title>
<ellipse fill="#00bfff" stroke="#00bfff" cx="58" cy="-192" rx="42.49" ry="18"/>
<text text-anchor="middle" x="58" y="-188.3" font-family="Times,serif" font-size="14.00">अङ्गः(3.3)</text>
</g>
<!-- Node2_1&#45;&gt;Node3_3 -->
<g id="edge2" class="edge">
<title>Node2_1&#45;&gt;Node3_3</title>
<path fill="none" stroke="black" d="M56.64,-133.27C56.95,-146.58 57.32,-162.19 57.6,-173.82"/>
<polygon fill="black" stroke="black" points="60.14,-133.12 56.4,-123.2 53.14,-133.28 60.14,-133.12"/>
<text text-anchor="middle" x="80.5" y="-144.8" font-family="Times,serif" font-size="14.00">समुच्चितः</text>
</g>
<!-- Node1_1 -->
<g id="node3" class="node">
<title>Node1_1</title>
<ellipse fill="#00bfff" stroke="#00bfff" cx="58" cy="-279" rx="41.69" ry="18"/>
<text text-anchor="middle" x="58" y="-275.3" font-family="Times,serif" font-size="14.00">(सः)(1.1)</text>
</g>
<!-- Node3_3&#45;&gt;Node1_1 -->
<g id="edge5" class="edge">
<title>Node3_3&#45;&gt;Node1_1</title>
<path fill="none" stroke="black" d="M58,-220.27C58,-233.58 58,-249.19 58,-260.82"/>
<polygon fill="black" stroke="black" points="61.5,-220.2 58,-210.2 54.5,-220.2 61.5,-220.2"/>
<text text-anchor="middle" x="99" y="-231.8" font-family="Times,serif" font-size="14.00">विधेय_विशेषणम्</text>
</g>
<!-- Node5_1 -->
<g id="node4" class="node">
<title>Node5_1</title>
<ellipse fill="#ff1975" stroke="#ff1975" cx="58" cy="-366" rx="50.89" ry="18"/>
<text text-anchor="middle" x="58" y="-362.3" font-family="Times,serif" font-size="14.00">(अस्ति)(5.1)</text>
</g>
<!-- Node1_1&#45;&gt;Node5_1 -->
<g id="edge1" class="edge">
<title>Node1_1&#45;&gt;Node5_1</title>
<path fill="none" stroke="black" d="M58,-307.27C58,-320.58 58,-336.19 58,-347.82"/>
<polygon fill="black" stroke="black" points="61.5,-307.2 58,-297.2 54.5,-307.2 61.5,-307.2"/>
<text text-anchor="middle" x="69" y="-318.8" font-family="Times,serif" font-size="14.00">कर्ता</text>
</g>
<!-- Node3_1 -->
<g id="node5" class="node">
<title>Node3_1</title>
<ellipse fill="#ffff00" stroke="#ffff00" cx="169" cy="-18" rx="40.89" ry="18"/>
<text text-anchor="middle" x="169" y="-14.3" font-family="Times,serif" font-size="14.00">सम&#45;(3.1)</text>
</g>
<!-- Node3_2 -->
<g id="node6" class="node">
<title>Node3_2</title>
<ellipse fill="#ffff00" stroke="#ffff00" cx="169" cy="-105" rx="52.79" ry="18"/>
<text text-anchor="middle" x="169" y="-101.3" font-family="Times,serif" font-size="14.00">विभक्त&#45;(3.2)</text>
</g>
<!-- Node3_1&#45;&gt;Node3_2 -->
<g id="edge3" class="edge">
<title>Node3_1&#45;&gt;Node3_2</title>
<path fill="none" stroke="black" d="M169,-46.27C169,-59.58 169,-75.19 169,-86.82"/>
<polygon fill="black" stroke="black" points="172.5,-46.2 169,-36.2 165.5,-46.2 172.5,-46.2"/>
<text text-anchor="middle" x="205.5" y="-57.8" font-family="Times,serif" font-size="14.00">बहुपद&#45;बहुव्रीहिः</text>
</g>
<!-- Node3_2&#45;&gt;Node3_3 -->
<g id="edge4" class="edge">
<title>Node3_2&#45;&gt;Node3_3</title>
<path fill="none" stroke="black" d="M142.11,-128.26C131.31,-137.04 118.67,-147.14 107,-156 98.01,-162.83 87.88,-170.12 79.18,-176.28"/>
<polygon fill="black" stroke="black" points="144.43,-130.87 149.96,-121.83 140,-125.45 144.43,-130.87"/>
<text text-anchor="middle" x="163.5" y="-144.8" font-family="Times,serif" font-size="14.00">बहुपद&#45;बहुव्रीहिः</text>
</g>
<!-- Node4_1 -->
<g id="node7" class="node">
<title>Node4_1</title>
<ellipse fill="#ff99ff" stroke="#ff99ff" cx="279" cy="-105" rx="39.79" ry="18"/>
<text text-anchor="middle" x="279" y="-101.3" font-family="Times,serif" font-size="14.00">(च)(4.1)</text>
</g>
<!-- Node4_1&#45;&gt;Node3_3 -->
<g id="edge6" class="edge">
<title>Node4_1&#45;&gt;Node3_3</title>
<path fill="none" stroke="black" d="M252.3,-127.17C238.55,-137.17 221.1,-148.53 204,-156 169.6,-171.02 127.71,-180.22 97.63,-185.39"/>
<polygon fill="black" stroke="black" points="254.43,-129.94 260.35,-121.16 250.25,-124.33 254.43,-129.94"/>
<text text-anchor="middle" x="269.5" y="-144.8" font-family="Times,serif" font-size="14.00">समुच्चय_द्योतकः</text>
</g>
</g>
</svg>
