<?xml version="1.0" encoding="UTF-8" standalone="no"?>
<!DOCTYPE svg PUBLIC "-//W3C//DTD SVG 1.1//EN"
 "http://www.w3.org/Graphics/SVG/1.1/DTD/svg11.dtd">
<!-- Generated by graphviz version 2.50.0 (20211204.2007)
 -->
<!-- Title: G Pages: 1 -->
<svg width="233pt" height="305pt"
 viewBox="0.00 0.00 233.15 305.00" xmlns="http://www.w3.org/2000/svg" xmlns:xlink="http://www.w3.org/1999/xlink">
<g id="graph0" class="graph" transform="scale(1 1) rotate(0) translate(4 301)">
<title>G</title>
<polygon fill="#fffacd" stroke="transparent" points="-4,4 -4,-301 229.15,-301 229.15,4 -4,4"/>
<!-- Node1_1 -->
<g id="node1" class="node">
<title>Node1_1</title>
<ellipse fill="#00bfff" stroke="#00bfff" cx="152.15" cy="-192" rx="41.69" ry="18"/>
<text text-anchor="middle" x="152.15" y="-188.3" font-family="Times,serif" font-size="14.00">(सः)(1.1)</text>
</g>
<!-- Node5_1 -->
<g id="node2" class="node">
<title>Node5_1</title>
<ellipse fill="#ff1975" stroke="#ff1975" cx="61.15" cy="-279" rx="50.89" ry="18"/>
<text text-anchor="middle" x="61.15" y="-275.3" font-family="Times,serif" font-size="14.00">(अस्ति)(5.1)</text>
</g>
<!-- Node1_1&#45;&gt;Node5_1 -->
<g id="edge1" class="edge">
<title>Node1_1&#45;&gt;Node5_1</title>
<path fill="none" stroke="black" d="M127.74,-215.8C112.14,-230.36 92.3,-248.9 78.35,-261.93"/>
<polygon fill="black" stroke="black" points="130.54,-217.97 135.46,-208.59 125.76,-212.86 130.54,-217.97"/>
<text text-anchor="middle" x="122.15" y="-231.8" font-family="Times,serif" font-size="14.00">कर्ता</text>
</g>
<!-- Node2_1 -->
<g id="node3" class="node">
<title>Node2_1</title>
<ellipse fill="#40e0d0" stroke="#40e0d0" cx="46.15" cy="-192" rx="46.29" ry="18"/>
<text text-anchor="middle" x="46.15" y="-188.3" font-family="Times,serif" font-size="14.00">धैर्येण(2.1)</text>
</g>
<!-- Node2_1&#45;&gt;Node5_1 -->
<g id="edge2" class="edge">
<title>Node2_1&#45;&gt;Node5_1</title>
<path fill="none" stroke="black" d="M50.96,-220.27C53.31,-233.58 56.06,-249.19 58.11,-260.82"/>
<polygon fill="black" stroke="black" points="54.37,-219.44 49.18,-210.2 47.47,-220.66 54.37,-219.44"/>
<text text-anchor="middle" x="57.65" y="-231.8" font-family="Times,serif" font-size="14.00">?</text>
</g>
<!-- Node3_1 -->
<g id="node4" class="node">
<title>Node3_1</title>
<ellipse fill="#00bfff" stroke="#00bfff" cx="152.15" cy="-105" rx="51.19" ry="18"/>
<text text-anchor="middle" x="152.15" y="-101.3" font-family="Times,serif" font-size="14.00">हिमवान्(3.1)</text>
</g>
<!-- Node3_1&#45;&gt;Node1_1 -->
<g id="edge3" class="edge">
<title>Node3_1&#45;&gt;Node1_1</title>
<path fill="none" stroke="black" d="M152.15,-133.27C152.15,-146.58 152.15,-162.19 152.15,-173.82"/>
<polygon fill="black" stroke="black" points="155.65,-133.2 152.15,-123.2 148.65,-133.2 155.65,-133.2"/>
<text text-anchor="middle" x="172.15" y="-144.8" font-family="Times,serif" font-size="14.00">उपमानम्</text>
</g>
<!-- Node4_1 -->
<g id="node5" class="node">
<title>Node4_1</title>
<ellipse fill="#ff99ff" stroke="#ff99ff" cx="152.15" cy="-18" rx="37.09" ry="18"/>
<text text-anchor="middle" x="152.15" y="-14.3" font-family="Times,serif" font-size="14.00">इव(4.1)</text>
</g>
<!-- Node4_1&#45;&gt;Node3_1 -->
<g id="edge4" class="edge">
<title>Node4_1&#45;&gt;Node3_1</title>
<path fill="none" stroke="black" d="M152.15,-46.27C152.15,-59.58 152.15,-75.19 152.15,-86.82"/>
<polygon fill="black" stroke="black" points="155.65,-46.2 152.15,-36.2 148.65,-46.2 155.65,-46.2"/>
<text text-anchor="middle" x="188.65" y="-57.8" font-family="Times,serif" font-size="14.00">उपमान_द्योतकः</text>
</g>
</g>
</svg>
