<?xml version="1.0" encoding="UTF-8" standalone="no"?>
<!DOCTYPE svg PUBLIC "-//W3C//DTD SVG 1.1//EN"
 "http://www.w3.org/Graphics/SVG/1.1/DTD/svg11.dtd">
<!-- Generated by graphviz version 2.50.0 (20211204.2007)
 -->
<!-- Title: G Pages: 1 -->
<svg width="242pt" height="305pt"
 viewBox="0.00 0.00 241.70 305.00" xmlns="http://www.w3.org/2000/svg" xmlns:xlink="http://www.w3.org/1999/xlink">
<g id="graph0" class="graph" transform="scale(1 1) rotate(0) translate(4 301)">
<title>G</title>
<polygon fill="#fffacd" stroke="transparent" points="-4,4 -4,-301 237.7,-301 237.7,4 -4,4"/>
<!-- Node1_1 -->
<g id="node1" class="node">
<title>Node1_1</title>
<ellipse fill="#00bfff" stroke="#00bfff" cx="160.7" cy="-192" rx="41.69" ry="18"/>
<text text-anchor="middle" x="160.7" y="-188.3" font-family="Times,serif" font-size="14.00">(सः)(1.1)</text>
</g>
<!-- Node5_1 -->
<g id="node2" class="node">
<title>Node5_1</title>
<ellipse fill="#ff1975" stroke="#ff1975" cx="89.7" cy="-279" rx="50.89" ry="18"/>
<text text-anchor="middle" x="89.7" y="-275.3" font-family="Times,serif" font-size="14.00">(अस्ति)(5.1)</text>
</g>
<!-- Node1_1&#45;&gt;Node5_1 -->
<g id="edge1" class="edge">
<title>Node1_1&#45;&gt;Node5_1</title>
<path fill="none" stroke="black" d="M142.74,-217.7C136.57,-225.9 129.5,-234.97 122.7,-243 117.4,-249.24 111.33,-255.84 105.84,-261.6"/>
<polygon fill="black" stroke="black" points="145.64,-219.67 148.8,-209.56 140.02,-215.49 145.64,-219.67"/>
<text text-anchor="middle" x="144.7" y="-231.8" font-family="Times,serif" font-size="14.00">कर्ता</text>
</g>
<!-- Node2_1 -->
<g id="node3" class="node">
<title>Node2_1</title>
<ellipse fill="#00bfff" stroke="#00bfff" cx="160.7" cy="-105" rx="45.49" ry="18"/>
<text text-anchor="middle" x="160.7" y="-101.3" font-family="Times,serif" font-size="14.00">समुद्रः(2.1)</text>
</g>
<!-- Node2_1&#45;&gt;Node1_1 -->
<g id="edge2" class="edge">
<title>Node2_1&#45;&gt;Node1_1</title>
<path fill="none" stroke="black" d="M160.7,-133.27C160.7,-146.58 160.7,-162.19 160.7,-173.82"/>
<polygon fill="black" stroke="black" points="164.2,-133.2 160.7,-123.2 157.2,-133.2 164.2,-133.2"/>
<text text-anchor="middle" x="180.7" y="-144.8" font-family="Times,serif" font-size="14.00">उपमानम्</text>
</g>
<!-- Node3_1 -->
<g id="node4" class="node">
<title>Node3_1</title>
<ellipse fill="#ff99ff" stroke="#ff99ff" cx="160.7" cy="-18" rx="37.09" ry="18"/>
<text text-anchor="middle" x="160.7" y="-14.3" font-family="Times,serif" font-size="14.00">इव(3.1)</text>
</g>
<!-- Node3_1&#45;&gt;Node2_1 -->
<g id="edge3" class="edge">
<title>Node3_1&#45;&gt;Node2_1</title>
<path fill="none" stroke="black" d="M160.7,-46.27C160.7,-59.58 160.7,-75.19 160.7,-86.82"/>
<polygon fill="black" stroke="black" points="164.2,-46.2 160.7,-36.2 157.2,-46.2 164.2,-46.2"/>
<text text-anchor="middle" x="197.2" y="-57.8" font-family="Times,serif" font-size="14.00">उपमान_द्योतकः</text>
</g>
<!-- Node4_1 -->
<g id="node5" class="node">
<title>Node4_1</title>
<ellipse fill="#c6e2eb" stroke="#c6e2eb" cx="50.7" cy="-192" rx="50.89" ry="18"/>
<text text-anchor="middle" x="50.7" y="-188.3" font-family="Times,serif" font-size="14.00">गाम्भीर्ये(4.1)</text>
</g>
<!-- Node4_1&#45;&gt;Node5_1 -->
<g id="edge4" class="edge">
<title>Node4_1&#45;&gt;Node5_1</title>
<path fill="none" stroke="black" d="M58.48,-219.67C61.06,-227.34 64.19,-235.63 67.7,-243 70.66,-249.22 74.49,-255.7 78.13,-261.36"/>
<polygon fill="black" stroke="black" points="61.79,-218.51 55.41,-210.05 55.12,-220.64 61.79,-218.51"/>
<text text-anchor="middle" x="95.2" y="-231.8" font-family="Times,serif" font-size="14.00">अधिकरणम्</text>
</g>
</g>
</svg>
