<svg width="290pt" height="321pt"
 viewBox="0.00 0.00 290.00 321.00" xmlns="http://www.w3.org/2000/svg" xmlns:xlink="http://www.w3.org/1999/xlink">
<g id="graph0" class="graph" transform="scale(1 1) rotate(0) translate(4 317)">
<title>G</title>
<polygon fill="#fffacd" stroke="transparent" points="-4,4 -4,-317 286,-317 286,4 -4,4"/>
<g id="clust1" class="cluster">
<title>cluster_1</title>
<polygon fill="#fffacd" stroke="black" points="8,-8 8,-147 192,-147 192,-8 8,-8"/>
</g>
<!-- Node2_1 -->
<style>
 .hidden { display: none; }
 .node { cursor: pointer; }
 </style>
<script>
     function toggleChildren(id) {
      const children = document.getElementById(id);
      if (children.classList.contains('hidden')) {
        children.classList.remove('hidden');
      } else {
        children.classList.add('hidden');
      }
    }
</script>

<g id="node1" class="node">
<title>Node2_1</title>
<ellipse fill="#00bfff" stroke="#00bfff" cx="146" cy="-34" rx="38.19" ry="18"/>
<text text-anchor="middle" x="146" y="-30.3" font-family="Times,serif" font-size="14.00">शुचिः(2)</text>
</g>
<!-- Node4_1 -->
<g id="node2" class="node">
<title>Node4_1</title>
<ellipse fill="#00bfff" stroke="#00bfff" cx="130" cy="-121" rx="53.89" ry="18"/>
<text text-anchor="middle" x="130" y="-117.3" font-family="Times,serif" font-size="14.00">समाधिमान्(4)</text>
</g>
<!-- Node2_1&#45;&gt;Node4_1 -->
<g id="edge2" class="edge">
<title>Node2_1&#45;&gt;Node4_1</title>
<path fill="none" stroke="black" d="M140.87,-62.27C138.36,-75.58 135.42,-91.19 133.23,-102.82"/>
<polygon fill="black" stroke="black" points="144.35,-62.68 142.76,-52.2 137.47,-61.38 144.35,-62.68"/>
<text text-anchor="middle" x="161.5" y="-73.8" font-family="Times,serif" font-size="14.00">समुच्चितः</text>
</g>
<!-- Node1_1 -->
<g id="node4" class="node">
<title>Node1_1</title>
<ellipse fill="#00bfff" stroke="#00bfff" cx="130" cy="-208" rx="34.39" ry="18"/>
<text text-anchor="middle" x="130" y="-204.3" font-family="Times,serif" font-size="14.00">(सः)(1)</text>
</g>
<!-- Node4_1&#45;&gt;Node1_1 -->
<g id="edge4" class="edge">
<title>Node4_1&#45;&gt;Node1_1</title>
<path fill="none" stroke="black" d="M130,-149.27C130,-162.58 130,-178.19 130,-189.82"/>
<polygon fill="black" stroke="black" points="133.5,-149.2 130,-139.2 126.5,-149.2 133.5,-149.2"/>
<text text-anchor="middle" x="171" y="-160.8" font-family="Times,serif" font-size="14.00">विधेय_विशेषणम्</text>
</g>
<!-- Node3_1 -->
<g id="node3" class="node">
<title>Node3_1</title>
<ellipse fill="#00bfff" stroke="#00bfff" cx="53" cy="-34" rx="37.09" ry="18"/>
<text text-anchor="middle" x="53" y="-30.3" font-family="Times,serif" font-size="14.00">वश्यः(3)</text>
</g>
<!-- Node3_1&#45;&gt;Node4_1 -->
<g id="edge3" class="edge">
<title>Node3_1&#45;&gt;Node4_1</title>
<path fill="none" stroke="black" d="M69.1,-59.82C74.96,-68.16 81.9,-77.29 89,-85 95.21,-91.75 102.68,-98.46 109.52,-104.17"/>
<polygon fill="black" stroke="black" points="71.96,-57.8 63.43,-51.52 66.18,-61.75 71.96,-57.8"/>
<text text-anchor="middle" x="111.5" y="-73.8" font-family="Times,serif" font-size="14.00">समुच्चितः</text>
</g>
<!-- Node6_1 -->
<g id="node5" class="node">
<title>Node6_1</title>
<ellipse fill="#ff1975" stroke="#ff1975" cx="130" cy="-295" rx="44.39" ry="18"/>
<text text-anchor="middle" x="130" y="-291.3" font-family="Times,serif" font-size="14.00">(अस्ति)(6)</text>
</g>
<!-- Node1_1&#45;&gt;Node6_1 -->
<g id="edge1" class="edge">
<title>Node1_1&#45;&gt;Node6_1</title>
<path fill="none" stroke="black" d="M130,-236.27C130,-249.58 130,-265.19 130,-276.82"/>
<polygon fill="black" stroke="black" points="133.5,-236.2 130,-226.2 126.5,-236.2 133.5,-236.2"/>
<text text-anchor="middle" x="141" y="-247.8" font-family="Times,serif" font-size="14.00">कर्ता</text>
</g>
<!-- Node5_1 -->
<g id="node6" class="node">
<title>Node5_1</title>
<ellipse fill="#ff99ff" stroke="#ff99ff" cx="235" cy="-34" rx="32.49" ry="18"/>
<text text-anchor="middle" x="235" y="-30.3" font-family="Times,serif" font-size="14.00">(च)(5)</text>
</g>
<!-- Node5_1&#45;&gt;Node4_1 -->
<g id="edge5" class="edge">
<title>Node5_1&#45;&gt;Node4_1</title>
<path fill="none" stroke="black" d="M215.19,-58.68C207.22,-67.48 197.65,-77.2 188,-85 178.67,-92.54 167.57,-99.63 157.58,-105.43"/>
<polygon fill="black" stroke="black" points="218.02,-60.76 222.01,-50.95 212.77,-56.13 218.02,-60.76"/>
<text text-anchor="middle" x="242.5" y="-73.8" font-family="Times,serif" font-size="14.00">समुच्चय_द्योतकः</text>
</g>
</g>
</svg>
