<svg width="354pt" height="378pt"
 viewBox="0.00 0.00 353.84 378.00" xmlns="http://www.w3.org/2000/svg" xmlns:xlink="http://www.w3.org/1999/xlink">
<g id="graph0" class="graph" transform="scale(1 1) rotate(0) translate(4 374)">
<title>G</title>
<polygon fill="#fffacd" stroke="transparent" points="-4,4 -4,-374 349.84,-374 349.84,4 -4,4"/>
<!-- Node3_1 -->
<style>
 .hidden { display: none; }
 .node { cursor: pointer; }
 </style>
<script>
     function toggleChildren(id) {
      const children = document.getElementById(id);
      if (children.classList.contains('hidden')) {
        children.classList.remove('hidden');
      } else {
        children.classList.add('hidden');
      }
    }
</script>
<g id="children_node1" class="hidden">
    <g class="node" onclick="toggleChildren('children_node1');">

<g id="node1" class="node">
<title>Node3_1</title>
<ellipse fill="#ffff00" stroke="#ffff00" cx="60.29" cy="-18" rx="27" ry="18"/>
<text text-anchor="middle" x="60.29" y="-14.3" font-family="Times,serif" font-size="14.00">प्रिय&#45;</text>
</g>
<!-- Node3_2 -->
<g id="node2" class="node">
<title>Node3_2</title>
<ellipse fill="#ffff00" stroke="#ffff00" cx="151.29" cy="-18" rx="28.7" ry="18"/>
<text text-anchor="middle" x="151.29" y="-14.3" font-family="Times,serif" font-size="14.00">दर्शनः</text>
</g>
<!-- Node3_1&#45;&gt;Node3_2 -->
<!-- Node3_2_1 -->
<g id="node3" class="node">
<title>Node3_2_1</title>
<ellipse fill="#ffff00" stroke="#ffff00" cx="105.29" cy="-91" rx="105.08" ry="18"/>
<text text-anchor="middle" x="105.29" y="-87.3" font-family="Times,serif" font-size="14.00">&lt;प्रिय&#45;&#45;दर्शनः&gt;(षष्ठी&#45;बहुव्रीहिः)</text>
</g>
<!-- Node3_1&#45;&gt;Node3_2_1 -->
<g id="edge2" class="edge">
<title>Node3_1&#45;&gt;Node3_2_1</title>
<path fill="none" stroke="black" d="M75.69,-43.3C81.9,-53.09 88.91,-64.15 94.55,-73.05"/>
<polygon fill="black" stroke="black" points="78.59,-41.33 70.28,-34.76 72.67,-45.08 78.59,-41.33"/>
</g>
<!-- Node3_2&#45;&gt;Node3_2_1 -->
<g id="edge1" class="edge">
<title>Node3_2&#45;&gt;Node3_2_1</title>
<path fill="none" stroke="black" d="M135.37,-43.58C129.09,-53.27 122.03,-64.16 116.33,-72.96"/>
<polygon fill="black" stroke="black" points="138.35,-45.41 140.85,-35.11 132.48,-41.6 138.35,-45.41"/>
</g>
<!-- Node3_2_1&#45;&gt;Node3_2_1c -->
<g id="edge4" class="edge">
<title>Node3_2_1&#45;&gt;Node3_2_1c</title>
<path fill="none" stroke="black" d="M127.9,-116.63C140.8,-130.7 156.63,-147.95 168.06,-160.4"/>
<polygon fill="black" stroke="black" points="130.42,-114.2 121.08,-109.2 125.26,-118.94 130.42,-114.2"/>
</g>
</g>
</g>
<!-- Node3_2_1c -->
<g class="node4" onclick="toggleChildren('children_node1');">
<title>Node3_2_1c</title>
<ellipse fill="#00bfff" stroke="#00bfff" cx="183.29" cy="-178" rx="57.69" ry="18"/>
<text text-anchor="middle" x="183.29" y="-174.3" font-family="Times,serif" font-size="14.00">प्रिय&#45;&#45;दर्शनः(3)</text>
</g>
<!-- Node1_1 -->
<g id="node5" class="node">
<title>Node1_1</title>
<ellipse fill="#00bfff" stroke="#00bfff" cx="242.29" cy="-265" rx="34.39" ry="18"/>
<text text-anchor="middle" x="242.29" y="-261.3" font-family="Times,serif" font-size="14.00">(सः)(1)</text>
</g>
<!-- Node3_2_1c&#45;&gt;Node1_1 -->
<g id="edge5" class="edge">
<title>Node3_2_1c&#45;&gt;Node1_1</title>
<path fill="none" stroke="black" d="M188.24,-206.18C190.48,-213.99 193.7,-222.22 198.29,-229 204.09,-237.57 212.63,-245.04 220.65,-250.86"/>
<polygon fill="black" stroke="black" points="191.6,-205.2 185.81,-196.32 184.8,-206.87 191.6,-205.2"/>
<text text-anchor="middle" x="239.29" y="-217.8" font-family="Times,serif" font-size="14.00">विधेय_विशेषणम्</text>
</g>
<!-- Node5_1 -->
<g id="node6" class="node">
<title>Node5_1</title>
<ellipse fill="#ff1975" stroke="#ff1975" cx="242.29" cy="-352" rx="44.39" ry="18"/>
<text text-anchor="middle" x="242.29" y="-348.3" font-family="Times,serif" font-size="14.00">(अस्ति)(5)</text>
</g>
<!-- Node1_1&#45;&gt;Node5_1 -->
<g id="edge6" class="edge">
<title>Node1_1&#45;&gt;Node5_1</title>
<path fill="none" stroke="black" d="M242.29,-293.27C242.29,-306.58 242.29,-322.19 242.29,-333.82"/>
<polygon fill="black" stroke="black" points="245.79,-293.2 242.29,-283.2 238.79,-293.2 245.79,-293.2"/>
<text text-anchor="middle" x="253.29" y="-304.8" font-family="Times,serif" font-size="14.00">कर्ता</text>
</g>
<!-- Node2_1 -->
<g id="node7" class="node">
<title>Node2_1</title>
<ellipse fill="#00bfff" stroke="#00bfff" cx="302.29" cy="-178" rx="43.59" ry="18"/>
<text text-anchor="middle" x="302.29" y="-174.3" font-family="Times,serif" font-size="14.00">सोमवत्(2)</text>
</g>
<!-- Node2_1&#45;&gt;Node1_1 -->
<g id="edge7" class="edge">
<title>Node2_1&#45;&gt;Node1_1</title>
<path fill="none" stroke="black" d="M293.06,-205.42C289.67,-213.37 285.39,-221.87 280.29,-229 274.87,-236.59 267.58,-243.79 260.84,-249.66"/>
<polygon fill="black" stroke="black" points="296.32,-206.71 296.76,-196.12 289.81,-204.13 296.32,-206.71"/>
<text text-anchor="middle" x="304.79" y="-217.8" font-family="Times,serif" font-size="14.00">उपमान</text>
</g>
<!-- Node3_2_1c -->
<g class="node4" onclick="toggleChildren('children_node1');">
<title>Node3_2_1c</title>
<ellipse fill="#00bfff" stroke="#00bfff" cx="183.29" cy="-178" rx="57.69" ry="18"/>
<text text-anchor="middle" x="183.29" y="-174.3" font-family="Times,serif" font-size="14.00">प्रिय&#45;&#45;दर्शनः(3)</text>
</g>
<!-- Node4_1 -->
<g id="node8" class="node">
<title>Node4_1</title>
<ellipse fill="#ff99ff" stroke="#ff99ff" cx="261.29" cy="-91" rx="32.49" ry="18"/>
<text text-anchor="middle" x="261.29" y="-87.3" font-family="Times,serif" font-size="14.00">(च)(4)</text>
</g>
<!-- Node4_1&#45;&gt;Node3_2_1c -->
<g id="edge8" class="edge">
<title>Node4_1&#45;&gt;Node3_2_1c</title>
<path fill="none" stroke="black" d="M240.1,-115.1C226.97,-129.4 210.42,-147.44 198.57,-160.35"/>
<polygon fill="black" stroke="black" points="242.8,-117.32 246.98,-107.59 237.64,-112.59 242.8,-117.32"/>
<text text-anchor="middle" x="265.79" y="-130.8" font-family="Times,serif" font-size="14.00">समुच्चय_द्योतकः</text>
</g>
</g>
</svg>
