<?xml version="1.0" encoding="UTF-8" standalone="no"?>
<!DOCTYPE svg PUBLIC "-//W3C//DTD SVG 1.1//EN"
 "http://www.w3.org/Graphics/SVG/1.1/DTD/svg11.dtd">
<!-- Generated by graphviz version 2.50.0 (20211204.2007)
 -->
<!-- Title: G Pages: 1 -->
<svg width="235pt" height="305pt"
 viewBox="0.00 0.00 234.90 305.00" xmlns="http://www.w3.org/2000/svg" xmlns:xlink="http://www.w3.org/1999/xlink">
<g id="graph0" class="graph" transform="scale(1 1) rotate(0) translate(4 301)">
<title>G</title>
<polygon fill="#fffacd" stroke="transparent" points="-4,4 -4,-301 230.9,-301 230.9,4 -4,4"/>
<!-- Node1_1 -->
<g id="node1" class="node">
<title>Node1_1</title>
<ellipse fill="#00bfff" stroke="#00bfff" cx="144.9" cy="-192" rx="41.69" ry="18"/>
<text text-anchor="middle" x="144.9" y="-188.3" font-family="Times,serif" font-size="14.00">(सः)(1.1)</text>
</g>
<!-- Node5_1 -->
<g id="node2" class="node">
<title>Node5_1</title>
<ellipse fill="#ff1975" stroke="#ff1975" cx="81.9" cy="-279" rx="50.89" ry="18"/>
<text text-anchor="middle" x="81.9" y="-275.3" font-family="Times,serif" font-size="14.00">(अस्ति)(5.1)</text>
</g>
<!-- Node1_1&#45;&gt;Node5_1 -->
<g id="edge1" class="edge">
<title>Node1_1&#45;&gt;Node5_1</title>
<path fill="none" stroke="black" d="M128.66,-217.88C123.18,-226 116.92,-234.99 110.9,-243 106.25,-249.18 100.91,-255.76 96.09,-261.52"/>
<polygon fill="black" stroke="black" points="131.62,-219.75 134.25,-209.49 125.79,-215.86 131.62,-219.75"/>
<text text-anchor="middle" x="131.9" y="-231.8" font-family="Times,serif" font-size="14.00">कर्ता</text>
</g>
<!-- Node2_1 -->
<g id="node3" class="node">
<title>Node2_1</title>
<ellipse fill="#40e0d0" stroke="#40e0d0" cx="144.9" cy="-18" rx="46.59" ry="18"/>
<text text-anchor="middle" x="144.9" y="-14.3" font-family="Times,serif" font-size="14.00">धनदेन(2.1)</text>
</g>
<!-- Node3_1 -->
<g id="node4" class="node">
<title>Node3_1</title>
<ellipse fill="#00bfff" stroke="#00bfff" cx="144.9" cy="-105" rx="40.09" ry="18"/>
<text text-anchor="middle" x="144.9" y="-101.3" font-family="Times,serif" font-size="14.00">समः(3.1)</text>
</g>
<!-- Node2_1&#45;&gt;Node3_1 -->
<g id="edge2" class="edge">
<title>Node2_1&#45;&gt;Node3_1</title>
<path fill="none" stroke="black" d="M144.9,-46.27C144.9,-59.58 144.9,-75.19 144.9,-86.82"/>
<polygon fill="black" stroke="black" points="148.4,-46.2 144.9,-36.2 141.4,-46.2 148.4,-46.2"/>
<text text-anchor="middle" x="175.4" y="-57.8" font-family="Times,serif" font-size="14.00">तुलना_बिन्दुः</text>
</g>
<!-- Node3_1&#45;&gt;Node1_1 -->
<g id="edge3" class="edge">
<title>Node3_1&#45;&gt;Node1_1</title>
<path fill="none" stroke="black" d="M144.9,-133.27C144.9,-146.58 144.9,-162.19 144.9,-173.82"/>
<polygon fill="black" stroke="black" points="148.4,-133.2 144.9,-123.2 141.4,-133.2 148.4,-133.2"/>
<text text-anchor="middle" x="185.9" y="-144.8" font-family="Times,serif" font-size="14.00">विधेय_विशेषणम्</text>
</g>
<!-- Node4_1 -->
<g id="node5" class="node">
<title>Node4_1</title>
<ellipse fill="#c6e2eb" stroke="#c6e2eb" cx="42.9" cy="-192" rx="42.79" ry="18"/>
<text text-anchor="middle" x="42.9" y="-188.3" font-family="Times,serif" font-size="14.00">त्यागे(4.1)</text>
</g>
<!-- Node4_1&#45;&gt;Node5_1 -->
<g id="edge4" class="edge">
<title>Node4_1&#45;&gt;Node5_1</title>
<path fill="none" stroke="black" d="M47.94,-220.14C49.89,-227.75 52.49,-235.88 55.9,-243 58.97,-249.42 63.29,-255.84 67.53,-261.4"/>
<polygon fill="black" stroke="black" points="51.32,-219.2 45.68,-210.23 44.49,-220.76 51.32,-219.2"/>
<text text-anchor="middle" x="83.4" y="-231.8" font-family="Times,serif" font-size="14.00">अधिकरणम्</text>
</g>
</g>
</svg>
