<svg width="528pt" height="611pt"
 viewBox="0.00 0.00 527.74 611.00" xmlns="http://www.w3.org/2000/svg" xmlns:xlink="http://www.w3.org/1999/xlink">
<g id="graph0" class="graph" transform="scale(1 1) rotate(0) translate(4 607)">
<title>G</title>
<polygon fill="#fffacd" stroke="transparent" points="-4,4 -4,-607 523.74,-607 523.74,4 -4,4"/>
<g id="clust1" class="cluster">
<title>cluster_1</title>
<polygon fill="#fffacd" stroke="black" points="316.74,-298 316.74,-350 434.74,-350 434.74,-298 316.74,-298"/>
</g>
<!-- Node2_1 -->
<style>
 .hidden { display: none; }
 .node { cursor: pointer; }
 </style>
<script>
     function toggleChildren(id) {
      const children = document.getElementById(id);
      if (children.classList.contains('hidden')) {
        children.classList.remove('hidden');
      } else {
        children.classList.add('hidden');
      }
    }
</script>
<g id="children_node1" class="hidden">
    <g class="node" onclick="toggleChildren('children_node1');">

<g id="node1" class="node">
<title>Node2_1</title>
<ellipse fill="#ffff00" stroke="#ffff00" cx="33.74" cy="-18" rx="27" ry="18"/>
<text text-anchor="middle" x="33.74" y="-14.3" font-family="Times,serif" font-size="14.00">पीन&#45;</text>
</g>
<!-- Node2_2 -->
<g id="node2" class="node">
<title>Node2_2</title>
<ellipse fill="#ffff00" stroke="#ffff00" cx="123.74" cy="-18" rx="27" ry="18"/>
<text text-anchor="middle" x="123.74" y="-14.3" font-family="Times,serif" font-size="14.00">वक्षः</text>
</g>
<!-- Node2_1&#45;&gt;Node2_2 -->
<!-- Node2_2_1 -->
<g id="node3" class="node">
<title>Node2_2_1</title>
<ellipse fill="#ffff00" stroke="#ffff00" cx="100.74" cy="-91" rx="100.98" ry="18"/>
<text text-anchor="middle" x="100.74" y="-87.3" font-family="Times,serif" font-size="14.00">&lt;पीन&#45;&#45;वक्षः&gt;(षष्ठी&#45;बहुव्रीहिः)</text>
</g>
<!-- Node2_1&#45;&gt;Node2_2_1 -->
<g id="edge2" class="edge">
<title>Node2_1&#45;&gt;Node2_2_1</title>
<path fill="none" stroke="black" d="M54.66,-41.17C64.38,-51.47 75.75,-63.51 84.76,-73.06"/>
<polygon fill="black" stroke="black" points="57.03,-38.58 47.62,-33.71 51.94,-43.39 57.03,-38.58"/>
</g>
<!-- Node2_2&#45;&gt;Node2_2_1 -->
<g id="edge1" class="edge">
<title>Node2_2&#45;&gt;Node2_2_1</title>
<path fill="none" stroke="black" d="M115.12,-45.61C112.17,-54.71 108.96,-64.64 106.31,-72.8"/>
<polygon fill="black" stroke="black" points="118.54,-46.42 118.29,-35.83 111.88,-44.26 118.54,-46.42"/>
</g>
<!-- Node2_2_1&#45;&gt;Node2_2_1c -->
<g id="edge4" class="edge">
<title>Node2_2_1&#45;&gt;Node2_2_1c</title>
<path fill="none" stroke="black" d="M124.66,-115.92C134.81,-126.07 146.39,-137.65 155.52,-146.78"/>
<polygon fill="black" stroke="black" points="127.11,-113.42 117.57,-108.83 122.16,-118.37 127.11,-113.42"/>
</g>
</g>
</g>
<!-- Node2_2_1c -->
<g class="node4" onclick="toggleChildren('children_node1');">
<title>Node2_2_1c</title>
<ellipse fill="#00bfff" stroke="#00bfff" cx="171.74" cy="-164" rx="52.79" ry="18"/>
<text text-anchor="middle" x="171.74" y="-160.3" font-family="Times,serif" font-size="14.00">पीन&#45;&#45;वक्षः(2)</text>
</g>
<!-- Node4_3 -->
<g id="node10" class="node">
<title>Node4_3</title>
<ellipse fill="#ffff00" stroke="#ffff00" cx="247.74" cy="-251" rx="33.29" ry="18"/>
<text text-anchor="middle" x="247.74" y="-247.3" font-family="Times,serif" font-size="14.00">लक्षणः</text>
</g>
<!-- Node2_2_1c&#45;&gt;Node4_3 -->
<g id="edge5" class="edge">
<title>Node2_2_1c&#45;&gt;Node4_3</title>
<path fill="none" stroke="black" d="M193.26,-189.07C206.3,-203.65 222.56,-221.83 233.9,-234.52"/>
<polygon fill="black" stroke="black" points="195.67,-186.51 186.39,-181.39 190.45,-191.18 195.67,-186.51"/>
<text text-anchor="middle" x="237.24" y="-203.8" font-family="Times,serif" font-size="14.00">समुच्चितः</text>
</g>
<g id="children_node2" class="hidden">
    <g class="node" onclick="toggleChildren('children_node2');">
<!-- Node3_1 -->
<g id="node5" class="node">
<title>Node3_1</title>
<ellipse fill="#ffff00" stroke="#ffff00" cx="282.74" cy="-18" rx="36.29" ry="18"/>
<text text-anchor="middle" x="282.74" y="-14.3" font-family="Times,serif" font-size="14.00">विशाल&#45;</text>
</g>
<!-- Node3_2 -->
<g id="node6" class="node">
<title>Node3_2</title>
<ellipse fill="#ffff00" stroke="#ffff00" cx="381.74" cy="-18" rx="27" ry="18"/>
<text text-anchor="middle" x="381.74" y="-14.3" font-family="Times,serif" font-size="14.00">अक्षः</text>
</g>
<!-- Node3_1&#45;&gt;Node3_2 -->
<!-- Node3_2_1 -->
<g id="node7" class="node">
<title>Node3_2_1</title>
<ellipse fill="#ffff00" stroke="#ffff00" cx="331.74" cy="-91" rx="112.38" ry="18"/>
<text text-anchor="middle" x="331.74" y="-87.3" font-family="Times,serif" font-size="14.00">&lt;विशाल&#45;&#45;अक्षः&gt;(षष्ठी&#45;बहुव्रीहिः)</text>
</g>
<!-- Node3_1&#45;&gt;Node3_2_1 -->
<g id="edge7" class="edge">
<title>Node3_1&#45;&gt;Node3_2_1</title>
<path fill="none" stroke="black" d="M299.86,-43.8C306.42,-53.31 313.77,-63.96 319.75,-72.63"/>
<polygon fill="black" stroke="black" points="302.67,-41.71 294.11,-35.47 296.91,-45.69 302.67,-41.71"/>
</g>
<!-- Node3_2&#45;&gt;Node3_2_1 -->
<g id="edge6" class="edge">
<title>Node3_2&#45;&gt;Node3_2_1</title>
<path fill="none" stroke="black" d="M364.84,-43C357.89,-52.86 350.01,-64.06 343.68,-73.05"/>
<polygon fill="black" stroke="black" points="367.75,-44.95 370.64,-34.76 362.02,-40.92 367.75,-44.95"/>
</g>
<!-- Node3_2_1&#45;&gt;Node3_2_1c -->
<g id="edge9" class="edge">
<title>Node3_2_1&#45;&gt;Node3_2_1c</title>
<path fill="none" stroke="black" d="M327.14,-119.25C325.62,-128.23 323.97,-137.97 322.62,-145.97"/>
<polygon fill="black" stroke="black" points="330.62,-119.63 328.84,-109.19 323.72,-118.46 330.62,-119.63"/>
</g>
</g>
</g>
<!-- Node3_2_1c -->
<g class="node8" onclick="toggleChildren('children_node2');">
<title>Node3_2_1c</title>
<ellipse fill="#00bfff" stroke="#00bfff" cx="319.74" cy="-164" rx="64.99" ry="18"/>
<text text-anchor="middle" x="319.74" y="-160.3" font-family="Times,serif" font-size="14.00">विशाल&#45;&#45;अक्षः(3)</text>
</g>
<!-- Node3_2_1c&#45;&gt;Node4_3 -->
<g id="edge10" class="edge">
<title>Node3_2_1c&#45;&gt;Node4_3</title>
<path fill="none" stroke="black" d="M299.05,-189.42C286.79,-203.9 271.62,-221.81 260.97,-234.39"/>
<polygon fill="black" stroke="black" points="301.72,-191.69 305.52,-181.79 296.38,-187.16 301.72,-191.69"/>
<text text-anchor="middle" x="311.24" y="-203.8" font-family="Times,serif" font-size="14.00">समुच्चितः</text>
</g>
<g id="children_node3" class="hidden">
    <g class="node" onclick="toggleChildren('children_node3');">
<!-- Node4_2 -->
<g id="node9" class="node">
<title>Node4_2</title>
<ellipse fill="#ffff00" stroke="#ffff00" cx="151.74" cy="-251" rx="27" ry="18"/>
<text text-anchor="middle" x="151.74" y="-247.3" font-family="Times,serif" font-size="14.00">शुभ&#45;</text>
</g>
<!-- Node4_2&#45;&gt;Node4_3 -->
<!-- Node4_3_1 -->
<g id="node11" class="node">
<title>Node4_3_1</title>
<ellipse fill="#ffff00" stroke="#ffff00" cx="198.74" cy="-324" rx="108.58" ry="18"/>
<text text-anchor="middle" x="198.74" y="-320.3" font-family="Times,serif" font-size="14.00">&lt;शुभ&#45;&#45;लक्षणः&gt;(षष्ठी&#45;बहुव्रीहिः)</text>
</g>
<!-- Node4_2&#45;&gt;Node4_3_1 -->
<g id="edge12" class="edge">
<title>Node4_2&#45;&gt;Node4_3_1</title>
<path fill="none" stroke="black" d="M167.82,-276.3C174.31,-286.09 181.63,-297.15 187.52,-306.05"/>
<polygon fill="black" stroke="black" points="170.61,-274.16 162.17,-267.76 164.77,-278.03 170.61,-274.16"/>
</g>
<!-- Node4_3&#45;&gt;Node4_3_1 -->
<g id="edge11" class="edge">
<title>Node4_3&#45;&gt;Node4_3_1</title>
<path fill="none" stroke="black" d="M230.78,-276.58C224.09,-286.27 216.57,-297.16 210.5,-305.96"/>
<polygon fill="black" stroke="black" points="233.82,-278.33 236.62,-268.11 228.06,-274.35 233.82,-278.33"/>
</g>
<!-- Node4_3_1&#45;&gt;Node4_3_1c -->
<g id="edge14" class="edge">
<title>Node4_3_1&#45;&gt;Node4_3_1c</title>
<path fill="none" stroke="black" d="M241.58,-345.57C273.57,-360.93 316.52,-381.56 345.12,-395.29"/>
<polygon fill="black" stroke="black" points="242.98,-342.36 232.45,-341.19 239.95,-348.67 242.98,-342.36"/>
</g>
</g>
</g>
<!-- Node4_3_1c -->
<g class="node12" onclick="toggleChildren('children_node3');">
<title>Node4_3_1c</title>
<ellipse fill="#00bfff" stroke="#00bfff" cx="375.74" cy="-411" rx="60.39" ry="18"/>
<text text-anchor="middle" x="375.74" y="-407.3" font-family="Times,serif" font-size="14.00">शुभ&#45;&#45;लक्षणः(4)</text>
</g>
<!-- Node1_1 -->
<g id="node14" class="node">
<title>Node1_1</title>
<ellipse fill="#00bfff" stroke="#00bfff" cx="375.74" cy="-498" rx="34.39" ry="18"/>
<text text-anchor="middle" x="375.74" y="-494.3" font-family="Times,serif" font-size="14.00">(सः)(1)</text>
</g>
<!-- Node4_3_1c&#45;&gt;Node1_1 -->
<g id="edge15" class="edge">
<title>Node4_3_1c&#45;&gt;Node1_1</title>
<path fill="none" stroke="black" d="M375.74,-439.27C375.74,-452.58 375.74,-468.19 375.74,-479.82"/>
<polygon fill="black" stroke="black" points="379.24,-439.2 375.74,-429.2 372.24,-439.2 379.24,-439.2"/>
<text text-anchor="middle" x="416.74" y="-450.8" font-family="Times,serif" font-size="14.00">विधेय_विशेषणम्</text>
</g>
<!-- Node4_1 -->
<g id="node13" class="node">
<title>Node4_1</title>
<ellipse fill="#ffff00" stroke="#ffff00" cx="375.74" cy="-324" rx="50.89" ry="18"/>
<text text-anchor="middle" x="375.74" y="-320.3" font-family="Times,serif" font-size="14.00">लक्ष्मीवान्(4)</text>
</g>
<!-- Node4_1&#45;&gt;Node4_3_1c -->
<g id="edge17" class="edge">
<title>Node4_1&#45;&gt;Node4_3_1c</title>
<path fill="none" stroke="black" d="M375.74,-352.27C375.74,-365.58 375.74,-381.19 375.74,-392.82"/>
<polygon fill="black" stroke="black" points="379.24,-352.2 375.74,-342.2 372.24,-352.2 379.24,-352.2"/>
<text text-anchor="middle" x="398.24" y="-363.8" font-family="Times,serif" font-size="14.00">समुच्चितः</text>
</g>
<!-- Node6_1 -->
<g id="node15" class="node">
<title>Node6_1</title>
<ellipse fill="#ff1975" stroke="#ff1975" cx="375.74" cy="-585" rx="44.39" ry="18"/>
<text text-anchor="middle" x="375.74" y="-581.3" font-family="Times,serif" font-size="14.00">(अस्ति)(6)</text>
</g>
<!-- Node1_1&#45;&gt;Node6_1 -->
<g id="edge16" class="edge">
<title>Node1_1&#45;&gt;Node6_1</title>
<path fill="none" stroke="black" d="M375.74,-526.27C375.74,-539.58 375.74,-555.19 375.74,-566.82"/>
<polygon fill="black" stroke="black" points="379.24,-526.2 375.74,-516.2 372.24,-526.2 379.24,-526.2"/>
<text text-anchor="middle" x="386.74" y="-537.8" font-family="Times,serif" font-size="14.00">कर्ता</text>
</g>
<!-- Node4_3_1c -->
<g class="node12" onclick="toggleChildren('children_node3');">
<title>Node4_3_1c</title>
<ellipse fill="#00bfff" stroke="#00bfff" cx="375.74" cy="-411" rx="60.39" ry="18"/>
<text text-anchor="middle" x="375.74" y="-407.3" font-family="Times,serif" font-size="14.00">शुभ&#45;&#45;लक्षणः(4)</text>
</g>
<!-- Node5_1 -->
<g id="node16" class="node">
<title>Node5_1</title>
<ellipse fill="#ff99ff" stroke="#ff99ff" cx="476.74" cy="-324" rx="32.49" ry="18"/>
<text text-anchor="middle" x="476.74" y="-320.3" font-family="Times,serif" font-size="14.00">(च)(5)</text>
</g>
<!-- Node5_1&#45;&gt;Node4_3_1c -->
<g id="edge18" class="edge">
<title>Node5_1&#45;&gt;Node4_3_1c</title>
<path fill="none" stroke="black" d="M454.69,-347.58C445.68,-356.44 434.98,-366.5 424.74,-375 416.7,-381.68 407.46,-388.48 399.19,-394.29"/>
<polygon fill="black" stroke="black" points="457.2,-350.02 461.81,-340.49 452.26,-345.06 457.2,-350.02"/>
<text text-anchor="middle" x="480.24" y="-363.8" font-family="Times,serif" font-size="14.00">समुच्चय_द्योतकः</text>
</g>
</g>
</svg>
