<svg width="600pt" height="451pt"
 viewBox="0.00 0.00 599.69 451.00" xmlns="http://www.w3.org/2000/svg" xmlns:xlink="http://www.w3.org/1999/xlink">
<g id="graph0" class="graph" transform="scale(1 1) rotate(0) translate(4 447)">
<title>G</title>
<polygon fill="#fffacd" stroke="transparent" points="-4,4 -4,-447 595.69,-447 595.69,4 -4,4"/>
<g id="clust1" class="cluster">
<title>cluster_1</title>
<polygon fill="#fffacd" stroke="black" points="409.69,-138 409.69,-190 493.69,-190 493.69,-138 409.69,-138"/>
</g>
<!-- Node3_1 -->
<style>
 .hidden { display: none; }
 .node { cursor: pointer; }
 </style>
<script>
     function toggleChildren(id) {
      const children = document.getElementById(id);
      if (children.classList.contains('hidden')) {
        children.classList.remove('hidden');
      } else {
        children.classList.add('hidden');
      }
    }
</script>
<g id="children_node1" class="hidden">
    <g class="node" onclick="toggleChildren('children_node1');">

<g id="node1" class="node">
<title>Node3_1</title>
<ellipse fill="#ffff00" stroke="#ffff00" cx="67.69" cy="-18" rx="27" ry="18"/>
<text text-anchor="middle" x="67.69" y="-14.3" font-family="Times,serif" font-size="14.00">सम&#45;</text>
</g>
<!-- Node3_2 -->
<g id="node2" class="node">
<title>Node3_2</title>
<ellipse fill="#ffff00" stroke="#ffff00" cx="165.69" cy="-18" rx="36" ry="18"/>
<text text-anchor="middle" x="165.69" y="-14.3" font-family="Times,serif" font-size="14.00">विभक्त&#45;</text>
</g>
<!-- Node3_1&#45;&gt;Node3_2 -->
<!-- Node3_2_1 -->
<g id="node3" class="node">
<title>Node3_2_1</title>
<ellipse fill="#ffff00" stroke="#ffff00" cx="115.69" cy="-91" rx="115.88" ry="18"/>
<text text-anchor="middle" x="115.69" y="-87.3" font-family="Times,serif" font-size="14.00">&lt;सम&#45;&#45;विभक्त&#45;&gt;(बहुपद&#45;बहुव्रीहिः)</text>
</g>
<!-- Node3_1&#45;&gt;Node3_2_1 -->
<g id="edge2" class="edge">
<title>Node3_1&#45;&gt;Node3_2_1</title>
<path fill="none" stroke="black" d="M84.12,-43.3C90.74,-53.09 98.21,-64.15 104.23,-73.05"/>
<polygon fill="black" stroke="black" points="86.84,-41.08 78.34,-34.76 81.04,-45 86.84,-41.08"/>
</g>
<!-- Node3_2&#45;&gt;Node3_2_1 -->
<g id="edge1" class="edge">
<title>Node3_2&#45;&gt;Node3_2_1</title>
<path fill="none" stroke="black" d="M148.38,-43.58C141.56,-53.27 133.88,-64.16 127.69,-72.96"/>
<polygon fill="black" stroke="black" points="151.45,-45.3 154.34,-35.11 145.72,-41.27 151.45,-45.3"/>
</g>
<!-- Node3_3 -->
<g id="node4" class="node">
<title>Node3_3</title>
<ellipse fill="#ffff00" stroke="#ffff00" cx="293.69" cy="-91" rx="27" ry="18"/>
<text text-anchor="middle" x="293.69" y="-87.3" font-family="Times,serif" font-size="14.00">अङ्गः</text>
</g>
<!-- Node3_2_1&#45;&gt;Node3_3 -->
<!-- Node3_3_2 -->
<g id="node5" class="node">
<title>Node3_3_2</title>
<ellipse fill="#ffff00" stroke="#ffff00" cx="203.69" cy="-164" rx="196.07" ry="18"/>
<text text-anchor="middle" x="203.69" y="-160.3" font-family="Times,serif" font-size="14.00">&lt;&lt;सम&#45;&#45;विभक्त&#45;&gt;(बहुपद&#45;बहुव्रीहिः)&#45;अङ्गः&gt;(बहुपद&#45;बहुव्रीहिः)</text>
</g>
<!-- Node3_2_1&#45;&gt;Node3_3_2 -->
<g id="edge5" class="edge">
<title>Node3_2_1&#45;&gt;Node3_3_2</title>
<path fill="none" stroke="black" d="M144.42,-115.18C156.89,-125.24 171.23,-136.81 182.68,-146.05"/>
<polygon fill="black" stroke="black" points="146.53,-112.38 136.54,-108.83 142.13,-117.83 146.53,-112.38"/>
</g>
<!-- Node3_3&#45;&gt;Node3_3_2 -->
<g id="edge4" class="edge">
<title>Node3_3&#45;&gt;Node3_3_2</title>
<path fill="none" stroke="black" d="M268.73,-111.69C255.1,-122.44 238.39,-135.62 225.32,-145.94"/>
<polygon fill="black" stroke="black" points="271.08,-114.3 276.76,-105.35 266.74,-108.8 271.08,-114.3"/>
</g>
<!-- Node3_3_2&#45;&gt;Node3_3_2c -->
<g id="edge7" class="edge">
<title>Node3_3_2&#45;&gt;Node3_3_2c</title>
<path fill="none" stroke="black" d="M261.52,-184.82C306.97,-200.4 369.19,-221.72 409.9,-235.68"/>
<polygon fill="black" stroke="black" points="262.4,-181.42 251.8,-181.49 260.13,-188.04 262.4,-181.42"/>
</g>
</g>
</g>
<!-- Node3_3_2c -->
<g class="node6" onclick="toggleChildren('children_node1');">
<title>Node3_3_2c</title>
<ellipse fill="#00bfff" stroke="#00bfff" cx="451.69" cy="-251" rx="79.09" ry="18"/>
<text text-anchor="middle" x="451.69" y="-247.3" font-family="Times,serif" font-size="14.00">सम&#45;&#45;विभक्त&#45;&#45;अङ्गः(3)</text>
</g>
<!-- Node1_1 -->
<g id="node8" class="node">
<title>Node1_1</title>
<ellipse fill="#00bfff" stroke="#00bfff" cx="451.69" cy="-338" rx="34.39" ry="18"/>
<text text-anchor="middle" x="451.69" y="-334.3" font-family="Times,serif" font-size="14.00">(सः)(1)</text>
</g>
<!-- Node3_3_2c&#45;&gt;Node1_1 -->
<g id="edge8" class="edge">
<title>Node3_3_2c&#45;&gt;Node1_1</title>
<path fill="none" stroke="black" d="M451.69,-279.27C451.69,-292.58 451.69,-308.19 451.69,-319.82"/>
<polygon fill="black" stroke="black" points="455.19,-279.2 451.69,-269.2 448.19,-279.2 455.19,-279.2"/>
<text text-anchor="middle" x="492.69" y="-290.8" font-family="Times,serif" font-size="14.00">विधेय_विशेषणम्</text>
</g>
<!-- Node2_1 -->
<g id="node7" class="node">
<title>Node2_1</title>
<ellipse fill="#00bfff" stroke="#00bfff" cx="451.69" cy="-164" rx="33.6" ry="18"/>
<text text-anchor="middle" x="451.69" y="-160.3" font-family="Times,serif" font-size="14.00">समः(2)</text>
</g>
<!-- Node2_1&#45;&gt;Node3_3_2c -->
<g id="edge10" class="edge">
<title>Node2_1&#45;&gt;Node3_3_2c</title>
<path fill="none" stroke="black" d="M451.69,-192.27C451.69,-205.58 451.69,-221.19 451.69,-232.82"/>
<polygon fill="black" stroke="black" points="455.19,-192.2 451.69,-182.2 448.19,-192.2 455.19,-192.2"/>
<text text-anchor="middle" x="474.19" y="-203.8" font-family="Times,serif" font-size="14.00">समुच्चितः</text>
</g>
<!-- Node5_1 -->
<g id="node9" class="node">
<title>Node5_1</title>
<ellipse fill="#ff1975" stroke="#ff1975" cx="451.69" cy="-425" rx="44.39" ry="18"/>
<text text-anchor="middle" x="451.69" y="-421.3" font-family="Times,serif" font-size="14.00">(अस्ति)(5)</text>
</g>
<!-- Node1_1&#45;&gt;Node5_1 -->
<g id="edge9" class="edge">
<title>Node1_1&#45;&gt;Node5_1</title>
<path fill="none" stroke="black" d="M451.69,-366.27C451.69,-379.58 451.69,-395.19 451.69,-406.82"/>
<polygon fill="black" stroke="black" points="455.19,-366.2 451.69,-356.2 448.19,-366.2 455.19,-366.2"/>
<text text-anchor="middle" x="462.69" y="-377.8" font-family="Times,serif" font-size="14.00">कर्ता</text>
</g>
<!-- Node3_3_2c -->
<g class="node6" onclick="toggleChildren('children_node1');">
<title>Node3_3_2c</title>
<ellipse fill="#00bfff" stroke="#00bfff" cx="451.69" cy="-251" rx="79.09" ry="18"/>
<text text-anchor="middle" x="451.69" y="-247.3" font-family="Times,serif" font-size="14.00">सम&#45;&#45;विभक्त&#45;&#45;अङ्गः(3)</text>
</g>
<!-- Node4_1 -->
<g id="node10" class="node">
<title>Node4_1</title>
<ellipse fill="#ff99ff" stroke="#ff99ff" cx="535.69" cy="-164" rx="32.49" ry="18"/>
<text text-anchor="middle" x="535.69" y="-160.3" font-family="Times,serif" font-size="14.00">(च)(4)</text>
</g>
<!-- Node4_1&#45;&gt;Node3_3_2c -->
<g id="edge11" class="edge">
<title>Node4_1&#45;&gt;Node3_3_2c</title>
<path fill="none" stroke="black" d="M520.75,-189.83C515.04,-198.3 508.11,-207.51 500.69,-215 493.85,-221.91 485.51,-228.42 477.67,-233.9"/>
<polygon fill="black" stroke="black" points="523.73,-191.67 526.23,-181.37 517.85,-187.86 523.73,-191.67"/>
<text text-anchor="middle" x="552.19" y="-203.8" font-family="Times,serif" font-size="14.00">समुच्चय_द्योतकः</text>
</g>
</g>
</svg>
