<?xml version="1.0" encoding="UTF-8" standalone="no"?>
<!DOCTYPE svg PUBLIC "-//W3C//DTD SVG 1.1//EN"
 "http://www.w3.org/Graphics/SVG/1.1/DTD/svg11.dtd">
<!-- Generated by graphviz version 2.50.0 (20211204.2007)
 -->
<!-- Title: G Pages: 1 -->
<svg width="317pt" height="321pt"
 viewBox="0.00 0.00 316.65 321.00" xmlns="http://www.w3.org/2000/svg" xmlns:xlink="http://www.w3.org/1999/xlink">
<g id="graph0" class="graph" transform="scale(1 1) rotate(0) translate(4 317)">
<title>G</title>
<polygon fill="#fffacd" stroke="transparent" points="-4,4 -4,-317 312.65,-317 312.65,4 -4,4"/>
<g id="clust1" class="cluster">
<title>cluster_1</title>
<polygon fill="#fffacd" stroke="black" points="8,-8 8,-147 220,-147 220,-8 8,-8"/>
</g>
<!-- Node2_1 -->
<g id="node1" class="node">
<title>Node2_1</title>
<ellipse fill="#00bfff" stroke="#00bfff" cx="167" cy="-34" rx="44.69" ry="18"/>
<text text-anchor="middle" x="167" y="-30.3" font-family="Times,serif" font-size="14.00">शुचिः(2.1)</text>
</g>
<!-- Node4_1 -->
<g id="node2" class="node">
<title>Node4_1</title>
<ellipse fill="#00bfff" stroke="#00bfff" cx="152" cy="-121" rx="60.39" ry="18"/>
<text text-anchor="middle" x="152" y="-117.3" font-family="Times,serif" font-size="14.00">समाधिमान्(4.1)</text>
</g>
<!-- Node2_1&#45;&gt;Node4_1 -->
<g id="edge2" class="edge">
<title>Node2_1&#45;&gt;Node4_1</title>
<path fill="none" stroke="black" d="M162.19,-62.27C159.84,-75.58 157.08,-91.19 155.03,-102.82"/>
<polygon fill="black" stroke="black" points="165.67,-62.66 163.96,-52.2 158.78,-61.44 165.67,-62.66"/>
<text text-anchor="middle" x="183.5" y="-73.8" font-family="Times,serif" font-size="14.00">समुच्चितः</text>
</g>
<!-- Node1_1 -->
<g id="node4" class="node">
<title>Node1_1</title>
<ellipse fill="#00bfff" stroke="#00bfff" cx="152" cy="-208" rx="41.69" ry="18"/>
<text text-anchor="middle" x="152" y="-204.3" font-family="Times,serif" font-size="14.00">(सः)(1.1)</text>
</g>
<!-- Node4_1&#45;&gt;Node1_1 -->
<g id="edge4" class="edge">
<title>Node4_1&#45;&gt;Node1_1</title>
<path fill="none" stroke="black" d="M152,-149.27C152,-162.58 152,-178.19 152,-189.82"/>
<polygon fill="black" stroke="black" points="155.5,-149.2 152,-139.2 148.5,-149.2 155.5,-149.2"/>
<text text-anchor="middle" x="193" y="-160.8" font-family="Times,serif" font-size="14.00">विधेय_विशेषणम्</text>
</g>
<!-- Node3_1 -->
<g id="node3" class="node">
<title>Node3_1</title>
<ellipse fill="#00bfff" stroke="#00bfff" cx="60" cy="-34" rx="44.39" ry="18"/>
<text text-anchor="middle" x="60" y="-30.3" font-family="Times,serif" font-size="14.00">वश्यः(3.1)</text>
</g>
<!-- Node3_1&#45;&gt;Node4_1 -->
<g id="edge3" class="edge">
<title>Node3_1&#45;&gt;Node4_1</title>
<path fill="none" stroke="black" d="M82.45,-58.32C90.92,-66.89 100.75,-76.55 110,-85 117.01,-91.4 124.95,-98.14 132.03,-103.98"/>
<polygon fill="black" stroke="black" points="84.91,-55.83 75.41,-51.14 79.91,-60.73 84.91,-55.83"/>
<text text-anchor="middle" x="132.5" y="-73.8" font-family="Times,serif" font-size="14.00">समुच्चितः</text>
</g>
<!-- Node6_1 -->
<g id="node5" class="node">
<title>Node6_1</title>
<ellipse fill="#ff1975" stroke="#ff1975" cx="152" cy="-295" rx="50.89" ry="18"/>
<text text-anchor="middle" x="152" y="-291.3" font-family="Times,serif" font-size="14.00">(अस्ति)(6.1)</text>
</g>
<!-- Node1_1&#45;&gt;Node6_1 -->
<g id="edge1" class="edge">
<title>Node1_1&#45;&gt;Node6_1</title>
<path fill="none" stroke="black" d="M152,-236.27C152,-249.58 152,-265.19 152,-276.82"/>
<polygon fill="black" stroke="black" points="155.5,-236.2 152,-226.2 148.5,-236.2 155.5,-236.2"/>
<text text-anchor="middle" x="163" y="-247.8" font-family="Times,serif" font-size="14.00">कर्ता</text>
</g>
<!-- Node5_1 -->
<g id="node6" class="node">
<title>Node5_1</title>
<ellipse fill="#ff99ff" stroke="#ff99ff" cx="269" cy="-34" rx="39.79" ry="18"/>
<text text-anchor="middle" x="269" y="-30.3" font-family="Times,serif" font-size="14.00">(च)(5.1)</text>
</g>
<!-- Node5_1&#45;&gt;Node4_1 -->
<g id="edge5" class="edge">
<title>Node5_1&#45;&gt;Node4_1</title>
<path fill="none" stroke="black" d="M244.25,-57.5C233.96,-66.45 221.7,-76.59 210,-85 200.26,-92 189.07,-98.98 179.14,-104.84"/>
<polygon fill="black" stroke="black" points="246.85,-59.88 252.04,-50.64 242.22,-54.62 246.85,-59.88"/>
<text text-anchor="middle" x="267.5" y="-73.8" font-family="Times,serif" font-size="14.00">समुच्चय_द्योतकः</text>
</g>
</g>
</svg>
