<svg width="531pt" height="684pt"
 viewBox="0.00 0.00 531.12 684.00" xmlns="http://www.w3.org/2000/svg" xmlns:xlink="http://www.w3.org/1999/xlink">
<g id="graph0" class="graph" transform="scale(1 1) rotate(0) translate(4 680)">
<title>G</title>
<polygon fill="#fffacd" stroke="transparent" points="-4,4 -4,-680 527.12,-680 527.12,4 -4,4"/>
<g id="clust1" class="cluster">
<title>cluster_1</title>
<polygon fill="#fffacd" stroke="black" points="227.94,-371 227.94,-510 339.94,-510 339.94,-371 227.94,-371"/>
</g>
<!-- Node2_1 -->
<style>
 .hidden { display: none; }
 .node { cursor: pointer; }
 </style>
<script>
     function toggleChildren(id) {
      const children = document.getElementById(id);
      if (children.classList.contains('hidden')) {
        children.classList.remove('hidden');
      } else {
        children.classList.add('hidden');
      }
    }
</script>
<g id="children_node1" class="hidden">
    <g class="node" onclick="toggleChildren('children_node1');">

<g id="node1" class="node">
<title>Node2_1</title>
<ellipse fill="#ffff00" stroke="#ffff00" cx="46.94" cy="-18" rx="27" ry="18"/>
<text text-anchor="middle" x="46.94" y="-14.3" font-family="Times,serif" font-size="14.00">सर्व&#45;</text>
</g>
<!-- Node2_2 -->
<g id="node2" class="node">
<title>Node2_2</title>
<ellipse fill="#ffff00" stroke="#ffff00" cx="139.94" cy="-18" rx="30.59" ry="18"/>
<text text-anchor="middle" x="139.94" y="-14.3" font-family="Times,serif" font-size="14.00">शास्त्र&#45;</text>
</g>
<!-- Node2_1&#45;&gt;Node2_2 -->
<!-- Node2_2_1 -->
<g id="node3" class="node">
<title>Node2_2_1</title>
<ellipse fill="#ffff00" stroke="#ffff00" cx="92.94" cy="-91" rx="92.88" ry="18"/>
<text text-anchor="middle" x="92.94" y="-87.3" font-family="Times,serif" font-size="14.00">&lt;सर्व&#45;&#45;शास्त्र&#45;&gt;(कर्मधारयः)</text>
</g>
<!-- Node2_1&#45;&gt;Node2_2_1 -->
<g id="edge2" class="edge">
<title>Node2_1&#45;&gt;Node2_2_1</title>
<path fill="none" stroke="black" d="M62.68,-43.3C69.03,-53.09 76.19,-64.15 81.96,-73.05"/>
<polygon fill="black" stroke="black" points="65.53,-41.25 57.15,-34.76 59.65,-45.05 65.53,-41.25"/>
</g>
<!-- Node2_2&#45;&gt;Node2_2_1 -->
<g id="edge1" class="edge">
<title>Node2_2&#45;&gt;Node2_2_1</title>
<path fill="none" stroke="black" d="M123.67,-43.58C117.26,-53.27 110.04,-64.16 104.22,-72.96"/>
<polygon fill="black" stroke="black" points="126.68,-45.38 129.28,-35.11 120.84,-41.52 126.68,-45.38"/>
</g>
<!-- Node2_3 -->
<g id="node4" class="node">
<title>Node2_3</title>
<ellipse fill="#ffff00" stroke="#ffff00" cx="247.94" cy="-91" rx="27" ry="18"/>
<text text-anchor="middle" x="247.94" y="-87.3" font-family="Times,serif" font-size="14.00">अर्थ&#45;</text>
</g>
<!-- Node2_2_1&#45;&gt;Node2_3 -->
<!-- Node2_3_2 -->
<g id="node5" class="node">
<title>Node2_3_2</title>
<ellipse fill="#ffff00" stroke="#ffff00" cx="169.94" cy="-164" rx="167.07" ry="18"/>
<text text-anchor="middle" x="169.94" y="-160.3" font-family="Times,serif" font-size="14.00">&lt;&lt;सर्व&#45;&#45;शास्त्र&#45;&gt;(कर्मधारयः)&#45;अर्थ&#45;&gt;(षष्ठी&#45;तत्पुरुषः)</text>
</g>
<!-- Node2_2_1&#45;&gt;Node2_3_2 -->
<g id="edge5" class="edge">
<title>Node2_2_1&#45;&gt;Node2_3_2</title>
<path fill="none" stroke="black" d="M118.71,-115.76C129.47,-125.68 141.73,-136.99 151.56,-146.05"/>
<polygon fill="black" stroke="black" points="120.91,-113.03 111.19,-108.83 116.17,-118.18 120.91,-113.03"/>
</g>
<!-- Node2_3&#45;&gt;Node2_3_2 -->
<g id="edge4" class="edge">
<title>Node2_3&#45;&gt;Node2_3_2</title>
<path fill="none" stroke="black" d="M224.95,-112.93C213.37,-123.46 199.53,-136.07 188.62,-146"/>
<polygon fill="black" stroke="black" points="227.49,-115.35 232.53,-106.03 222.78,-110.17 227.49,-115.35"/>
</g>
<!-- Node2_4 -->
<g id="node6" class="node">
<title>Node2_4</title>
<ellipse fill="#ffff00" stroke="#ffff00" cx="399.94" cy="-164" rx="27" ry="18"/>
<text text-anchor="middle" x="399.94" y="-160.3" font-family="Times,serif" font-size="14.00">तत्त्व</text>
</g>
<!-- Node2_3_2&#45;&gt;Node2_4 -->
<!-- Node2_4_3 -->
<g id="node7" class="node">
<title>Node2_4_3</title>
<ellipse fill="#ffff00" stroke="#ffff00" cx="283.94" cy="-237" rx="239.36" ry="18"/>
<text text-anchor="middle" x="283.94" y="-233.3" font-family="Times,serif" font-size="14.00">&lt;&lt;&lt;सर्व&#45;&#45;शास्त्र&#45;&gt;(कर्मधारयः)&#45;अर्थ&#45;&gt;(षष्ठी&#45;तत्पुरुषः)&#45;तत्त्व&gt;(षष्ठी&#45;तत्पुरुषः)</text>
</g>
<!-- Node2_3_2&#45;&gt;Node2_4_3 -->
<g id="edge8" class="edge">
<title>Node2_3_2&#45;&gt;Node2_4_3</title>
<path fill="none" stroke="black" d="M205.78,-187.32C222.25,-197.58 241.47,-209.55 256.72,-219.05"/>
<polygon fill="black" stroke="black" points="207.3,-184.14 196.96,-181.83 203.6,-190.08 207.3,-184.14"/>
</g>
<!-- Node2_4&#45;&gt;Node2_4_3 -->
<g id="edge7" class="edge">
<title>Node2_4&#45;&gt;Node2_4_3</title>
<path fill="none" stroke="black" d="M371.81,-182.22C353.6,-193.37 329.97,-207.83 311.81,-218.94"/>
<polygon fill="black" stroke="black" points="374.08,-184.93 380.79,-176.72 370.43,-178.96 374.08,-184.93"/>
</g>
<!-- Node2_4_3&#45;&gt;Node2_4_3c -->
<g id="edge10" class="edge">
<title>Node2_4_3&#45;&gt;Node2_4_3c</title>
<path fill="none" stroke="black" d="M283.94,-265.25C283.94,-274.23 283.94,-283.97 283.94,-291.97"/>
<polygon fill="black" stroke="black" points="287.44,-265.19 283.94,-255.19 280.44,-265.19 287.44,-265.19"/>
</g>
</g>
</g>
<!-- Node2_4_3c -->
<g class="node8" onclick="toggleChildren('children_node1');">
<title>Node2_4_3c</title>
<ellipse fill="#00bfff" stroke="#00bfff" cx="283.94" cy="-310" rx="90.18" ry="18"/>
<text text-anchor="middle" x="283.94" y="-306.3" font-family="Times,serif" font-size="14.00">सर्व&#45;&#45;शास्त्र&#45;&#45;अर्थ&#45;&#45;तत्त्व(2)</text>
</g>
<!-- Node2_5 -->
<g id="node9" class="node">
<title>Node2_5</title>
<ellipse fill="#00bfff" stroke="#00bfff" cx="283.94" cy="-397" rx="29.5" ry="18"/>
<text text-anchor="middle" x="283.94" y="-393.3" font-family="Times,serif" font-size="14.00">ज्ञः(2)</text>
</g>
<!-- Node2_4_3c&#45;&gt;Node2_5 -->
<g id="edge11" class="edge">
<title>Node2_4_3c&#45;&gt;Node2_5</title>
<path fill="none" stroke="black" d="M283.94,-338.27C283.94,-351.58 283.94,-367.19 283.94,-378.82"/>
<polygon fill="black" stroke="black" points="287.44,-338.2 283.94,-328.2 280.44,-338.2 287.44,-338.2"/>
<text text-anchor="middle" x="318.94" y="-349.8" font-family="Times,serif" font-size="14.00">उपपद&#45;तत्पुरुषः</text>
</g>
<!-- Node3_1 -->
<g id="node10" class="node">
<title>Node3_1</title>
<ellipse fill="#00bfff" stroke="#00bfff" cx="283.94" cy="-484" rx="48.19" ry="18"/>
<text text-anchor="middle" x="283.94" y="-480.3" font-family="Times,serif" font-size="14.00">स्मृतिमान्(3)</text>
</g>
<!-- Node2_5&#45;&gt;Node3_1 -->
<g id="edge13" class="edge">
<title>Node2_5&#45;&gt;Node3_1</title>
<path fill="none" stroke="black" d="M283.94,-425.27C283.94,-438.58 283.94,-454.19 283.94,-465.82"/>
<polygon fill="black" stroke="black" points="287.44,-425.2 283.94,-415.2 280.44,-425.2 287.44,-425.2"/>
<text text-anchor="middle" x="306.44" y="-436.8" font-family="Times,serif" font-size="14.00">समुच्चितः</text>
</g>
<!-- Node1_1 -->
<g id="node11" class="node">
<title>Node1_1</title>
<ellipse fill="#00bfff" stroke="#00bfff" cx="283.94" cy="-571" rx="34.39" ry="18"/>
<text text-anchor="middle" x="283.94" y="-567.3" font-family="Times,serif" font-size="14.00">(सः)(1)</text>
</g>
<!-- Node3_1&#45;&gt;Node1_1 -->
<g id="edge14" class="edge">
<title>Node3_1&#45;&gt;Node1_1</title>
<path fill="none" stroke="black" d="M283.94,-512.27C283.94,-525.58 283.94,-541.19 283.94,-552.82"/>
<polygon fill="black" stroke="black" points="287.44,-512.2 283.94,-502.2 280.44,-512.2 287.44,-512.2"/>
<text text-anchor="middle" x="324.94" y="-523.8" font-family="Times,serif" font-size="14.00">विधेय_विशेषणम्</text>
</g>
<!-- Node5_1 -->
<g id="node12" class="node">
<title>Node5_1</title>
<ellipse fill="#ff1975" stroke="#ff1975" cx="283.94" cy="-658" rx="44.39" ry="18"/>
<text text-anchor="middle" x="283.94" y="-654.3" font-family="Times,serif" font-size="14.00">(अस्ति)(5)</text>
</g>
<!-- Node1_1&#45;&gt;Node5_1 -->
<g id="edge12" class="edge">
<title>Node1_1&#45;&gt;Node5_1</title>
<path fill="none" stroke="black" d="M283.94,-599.27C283.94,-612.58 283.94,-628.19 283.94,-639.82"/>
<polygon fill="black" stroke="black" points="287.44,-599.2 283.94,-589.2 280.44,-599.2 287.44,-599.2"/>
<text text-anchor="middle" x="294.94" y="-610.8" font-family="Times,serif" font-size="14.00">कर्ता</text>
</g>
<!-- Node2_4_3c -->
<g class="node8" onclick="toggleChildren('children_node1');">
<title>Node2_4_3c</title>
<ellipse fill="#00bfff" stroke="#00bfff" cx="283.94" cy="-310" rx="90.18" ry="18"/>
<text text-anchor="middle" x="283.94" y="-306.3" font-family="Times,serif" font-size="14.00">सर्व&#45;&#45;शास्त्र&#45;&#45;अर्थ&#45;&#45;तत्त्व(2)</text>
</g>
<!-- Node4_1 -->
<g id="node13" class="node">
<title>Node4_1</title>
<ellipse fill="#ff99ff" stroke="#ff99ff" cx="379.94" cy="-397" rx="32.49" ry="18"/>
<text text-anchor="middle" x="379.94" y="-393.3" font-family="Times,serif" font-size="14.00">(च)(4)</text>
</g>
<!-- Node4_1&#45;&gt;Node3_1 -->
<g id="edge15" class="edge">
<title>Node4_1&#45;&gt;Node3_1</title>
<path fill="none" stroke="black" d="M359.81,-421.29C351.8,-430.04 342.28,-439.84 332.94,-448 324.91,-455.02 315.5,-462 307.09,-467.86"/>
<polygon fill="black" stroke="black" points="362.61,-423.41 366.68,-413.63 357.4,-418.73 362.61,-423.41"/>
<text text-anchor="middle" x="387.44" y="-436.8" font-family="Times,serif" font-size="14.00">समुच्चय_द्योतकः</text>
</g>
</g>
</svg>
