<?xml version="1.0" encoding="UTF-8" standalone="no"?>
<!DOCTYPE svg PUBLIC "-//W3C//DTD SVG 1.1//EN"
 "http://www.w3.org/Graphics/SVG/1.1/DTD/svg11.dtd">
<!-- Generated by graphviz version 2.50.0 (20211204.2007)
 -->
<!-- Title: G Pages: 1 -->
<svg width="234pt" height="305pt"
 viewBox="0.00 0.00 234.25 305.00" xmlns="http://www.w3.org/2000/svg" xmlns:xlink="http://www.w3.org/1999/xlink">
<g id="graph0" class="graph" transform="scale(1 1) rotate(0) translate(4 301)">
<title>G</title>
<polygon fill="#fffacd" stroke="transparent" points="-4,4 -4,-301 230.25,-301 230.25,4 -4,4"/>
<!-- Node1_1 -->
<g id="node1" class="node">
<title>Node1_1</title>
<ellipse fill="#00bfff" stroke="#00bfff" cx="144.25" cy="-192" rx="41.69" ry="18"/>
<text text-anchor="middle" x="144.25" y="-188.3" font-family="Times,serif" font-size="14.00">(सः)(1.1)</text>
</g>
<!-- Node4_1 -->
<g id="node2" class="node">
<title>Node4_1</title>
<ellipse fill="#ff1975" stroke="#ff1975" cx="81.25" cy="-279" rx="50.89" ry="18"/>
<text text-anchor="middle" x="81.25" y="-275.3" font-family="Times,serif" font-size="14.00">(अस्ति)(4.1)</text>
</g>
<!-- Node1_1&#45;&gt;Node4_1 -->
<g id="edge1" class="edge">
<title>Node1_1&#45;&gt;Node4_1</title>
<path fill="none" stroke="black" d="M128.01,-217.88C122.53,-226 116.27,-234.99 110.25,-243 105.6,-249.18 100.26,-255.76 95.44,-261.52"/>
<polygon fill="black" stroke="black" points="130.97,-219.75 133.6,-209.49 125.14,-215.86 130.97,-219.75"/>
<text text-anchor="middle" x="131.25" y="-231.8" font-family="Times,serif" font-size="14.00">कर्ता</text>
</g>
<!-- Node2_1 -->
<g id="node3" class="node">
<title>Node2_1</title>
<ellipse fill="#ffff00" stroke="#ffff00" cx="144.25" cy="-18" rx="57.69" ry="18"/>
<text text-anchor="middle" x="144.25" y="-14.3" font-family="Times,serif" font-size="14.00">कालाग्नि&#45;(2.1)</text>
</g>
<!-- Node2_2 -->
<g id="node4" class="node">
<title>Node2_2</title>
<ellipse fill="#00bfff" stroke="#00bfff" cx="144.25" cy="-105" rx="46.29" ry="18"/>
<text text-anchor="middle" x="144.25" y="-101.3" font-family="Times,serif" font-size="14.00">सदृशः(2.2)</text>
</g>
<!-- Node2_1&#45;&gt;Node2_2 -->
<g id="edge2" class="edge">
<title>Node2_1&#45;&gt;Node2_2</title>
<path fill="none" stroke="black" d="M144.25,-46.27C144.25,-59.58 144.25,-75.19 144.25,-86.82"/>
<polygon fill="black" stroke="black" points="147.75,-46.2 144.25,-36.2 140.75,-46.2 147.75,-46.2"/>
<text text-anchor="middle" x="167.75" y="-57.8" font-family="Times,serif" font-size="14.00">कर्मधारयः</text>
</g>
<!-- Node2_2&#45;&gt;Node1_1 -->
<g id="edge3" class="edge">
<title>Node2_2&#45;&gt;Node1_1</title>
<path fill="none" stroke="black" d="M144.25,-133.27C144.25,-146.58 144.25,-162.19 144.25,-173.82"/>
<polygon fill="black" stroke="black" points="147.75,-133.2 144.25,-123.2 140.75,-133.2 147.75,-133.2"/>
<text text-anchor="middle" x="185.25" y="-144.8" font-family="Times,serif" font-size="14.00">विधेय_विशेषणम्</text>
</g>
<!-- Node3_1 -->
<g id="node5" class="node">
<title>Node3_1</title>
<ellipse fill="#c6e2eb" stroke="#c6e2eb" cx="42.25" cy="-192" rx="42.49" ry="18"/>
<text text-anchor="middle" x="42.25" y="-188.3" font-family="Times,serif" font-size="14.00">क्रोधे(3.1)</text>
</g>
<!-- Node3_1&#45;&gt;Node4_1 -->
<g id="edge4" class="edge">
<title>Node3_1&#45;&gt;Node4_1</title>
<path fill="none" stroke="black" d="M47.29,-220.14C49.24,-227.75 51.84,-235.88 55.25,-243 58.32,-249.42 62.64,-255.84 66.88,-261.4"/>
<polygon fill="black" stroke="black" points="50.67,-219.2 45.03,-210.23 43.84,-220.76 50.67,-219.2"/>
<text text-anchor="middle" x="82.75" y="-231.8" font-family="Times,serif" font-size="14.00">अधिकरणम्</text>
</g>
</g>
</svg>
