<?xml version="1.0" encoding="UTF-8" standalone="no"?>
<!DOCTYPE svg PUBLIC "-//W3C//DTD SVG 1.1//EN"
 "http://www.w3.org/Graphics/SVG/1.1/DTD/svg11.dtd">
<!-- Generated by graphviz version 2.50.0 (20211204.2007)
 -->
<!-- Title: G Pages: 1 -->
<svg width="256pt" height="479pt"
 viewBox="0.00 0.00 256.34 479.00" xmlns="http://www.w3.org/2000/svg" xmlns:xlink="http://www.w3.org/1999/xlink">
<g id="graph0" class="graph" transform="scale(1 1) rotate(0) translate(4 475)">
<title>G</title>
<polygon fill="#fffacd" stroke="transparent" points="-4,4 -4,-475 252.34,-475 252.34,4 -4,4"/>
<g id="clust1" class="cluster">
<title>cluster_1</title>
<polygon fill="#fffacd" stroke="black" points="113.05,-253 113.05,-392 213.05,-392 213.05,-253 113.05,-253"/>
</g>
<!-- Node2_5 -->
<g id="node1" class="node">
<title>Node2_5</title>
<ellipse fill="#00bfff" stroke="#00bfff" cx="158.05" cy="-279" rx="36.29" ry="18"/>
<text text-anchor="middle" x="158.05" y="-275.3" font-family="Times,serif" font-size="14.00">ज्ञः(2.5)</text>
</g>
<!-- Node1_1 -->
<g id="node2" class="node">
<title>Node1_1</title>
<ellipse fill="#00bfff" stroke="#00bfff" cx="163.05" cy="-366" rx="41.69" ry="18"/>
<text text-anchor="middle" x="163.05" y="-362.3" font-family="Times,serif" font-size="14.00">(सः)(1.1)</text>
</g>
<!-- Node2_5&#45;&gt;Node1_1 -->
<g id="edge6" class="edge">
<title>Node2_5&#45;&gt;Node1_1</title>
<path fill="none" stroke="black" d="M159.65,-307.27C160.43,-320.58 161.35,-336.19 162.04,-347.82"/>
<polygon fill="black" stroke="black" points="163.14,-306.98 159.06,-297.2 156.15,-307.39 163.14,-306.98"/>
<text text-anchor="middle" x="183.55" y="-318.8" font-family="Times,serif" font-size="14.00">विशेषणम्</text>
</g>
<!-- Node6_1 -->
<g id="node3" class="node">
<title>Node6_1</title>
<ellipse fill="#ff1975" stroke="#ff1975" cx="163.05" cy="-453" rx="50.89" ry="18"/>
<text text-anchor="middle" x="163.05" y="-449.3" font-family="Times,serif" font-size="14.00">(अस्ति)(6.1)</text>
</g>
<!-- Node1_1&#45;&gt;Node6_1 -->
<g id="edge1" class="edge">
<title>Node1_1&#45;&gt;Node6_1</title>
<path fill="none" stroke="black" d="M163.05,-394.27C163.05,-407.58 163.05,-423.19 163.05,-434.82"/>
<polygon fill="black" stroke="black" points="166.55,-394.2 163.05,-384.2 159.55,-394.2 166.55,-394.2"/>
<text text-anchor="middle" x="174.05" y="-405.8" font-family="Times,serif" font-size="14.00">कर्ता</text>
</g>
<!-- Node2_1 -->
<g id="node4" class="node">
<title>Node2_1</title>
<ellipse fill="#ffff00" stroke="#ffff00" cx="109.05" cy="-18" rx="40.09" ry="18"/>
<text text-anchor="middle" x="109.05" y="-14.3" font-family="Times,serif" font-size="14.00">वेद&#45;(2.1)</text>
</g>
<!-- Node2_3 -->
<g id="node5" class="node">
<title>Node2_3</title>
<ellipse fill="#ffff00" stroke="#ffff00" cx="159.05" cy="-105" rx="42.49" ry="18"/>
<text text-anchor="middle" x="159.05" y="-101.3" font-family="Times,serif" font-size="14.00">अङ्ग&#45;(2.3)</text>
</g>
<!-- Node2_1&#45;&gt;Node2_3 -->
<g id="edge2" class="edge">
<title>Node2_1&#45;&gt;Node2_3</title>
<path fill="none" stroke="black" d="M110.53,-46.28C111.84,-54.01 114.12,-62.16 118.05,-69 122.61,-76.95 129.69,-83.95 136.69,-89.55"/>
<polygon fill="black" stroke="black" points="113.99,-45.69 109.29,-36.19 107.04,-46.54 113.99,-45.69"/>
<text text-anchor="middle" x="147.05" y="-57.8" font-family="Times,serif" font-size="14.00">इतरेतर&#45;द्वन्द्वः</text>
</g>
<!-- Node2_4 -->
<g id="node7" class="node">
<title>Node2_4</title>
<ellipse fill="#ffff00" stroke="#ffff00" cx="159.05" cy="-192" rx="43.59" ry="18"/>
<text text-anchor="middle" x="159.05" y="-188.3" font-family="Times,serif" font-size="14.00">तत्त्व&#45;(2.4)</text>
</g>
<!-- Node2_3&#45;&gt;Node2_4 -->
<g id="edge4" class="edge">
<title>Node2_3&#45;&gt;Node2_4</title>
<path fill="none" stroke="black" d="M159.05,-133.27C159.05,-146.58 159.05,-162.19 159.05,-173.82"/>
<polygon fill="black" stroke="black" points="162.55,-133.2 159.05,-123.2 155.55,-133.2 162.55,-133.2"/>
<text text-anchor="middle" x="189.55" y="-144.8" font-family="Times,serif" font-size="14.00">षष्ठी&#45;तत्पुरुषः</text>
</g>
<!-- Node2_2 -->
<g id="node6" class="node">
<title>Node2_2</title>
<ellipse fill="#ffff00" stroke="#ffff00" cx="208.05" cy="-18" rx="40.09" ry="18"/>
<text text-anchor="middle" x="208.05" y="-14.3" font-family="Times,serif" font-size="14.00">वेद&#45;(2.2)</text>
</g>
<!-- Node2_2&#45;&gt;Node2_3 -->
<g id="edge3" class="edge">
<title>Node2_2&#45;&gt;Node2_3</title>
<path fill="none" stroke="black" d="M193.17,-44.8C185.23,-58.58 175.68,-75.14 168.71,-87.24"/>
<polygon fill="black" stroke="black" points="196.4,-46.2 198.36,-35.79 190.34,-42.71 196.4,-46.2"/>
<text text-anchor="middle" x="216.55" y="-57.8" font-family="Times,serif" font-size="14.00">षष्ठी&#45;तत्पुरुषः</text>
</g>
<!-- Node2_4&#45;&gt;Node2_5 -->
<g id="edge5" class="edge">
<title>Node2_4&#45;&gt;Node2_5</title>
<path fill="none" stroke="black" d="M158.72,-220.27C158.57,-233.58 158.38,-249.19 158.25,-260.82"/>
<polygon fill="black" stroke="black" points="162.23,-220.24 158.84,-210.2 155.23,-220.16 162.23,-220.24"/>
<text text-anchor="middle" x="193.05" y="-231.8" font-family="Times,serif" font-size="14.00">उपपद&#45;तत्पुरुषः</text>
</g>
<!-- Node3_1 -->
<g id="node8" class="node">
<title>Node3_1</title>
<ellipse fill="#c6e2eb" stroke="#c6e2eb" cx="50.05" cy="-192" rx="47.39" ry="18"/>
<text text-anchor="middle" x="50.05" y="-188.3" font-family="Times,serif" font-size="14.00">धनुर्वेदे(3.1)</text>
</g>
<!-- Node5_1 -->
<g id="node9" class="node">
<title>Node5_1</title>
<ellipse fill="#00bfff" stroke="#00bfff" cx="50.05" cy="-279" rx="50.09" ry="18"/>
<text text-anchor="middle" x="50.05" y="-275.3" font-family="Times,serif" font-size="14.00">निष्ठितः(5.1)</text>
</g>
<!-- Node3_1&#45;&gt;Node5_1 -->
<g id="edge7" class="edge">
<title>Node3_1&#45;&gt;Node5_1</title>
<path fill="none" stroke="black" d="M50.05,-220.27C50.05,-233.58 50.05,-249.19 50.05,-260.82"/>
<polygon fill="black" stroke="black" points="53.55,-220.2 50.05,-210.2 46.55,-220.2 53.55,-220.2"/>
<text text-anchor="middle" x="77.55" y="-231.8" font-family="Times,serif" font-size="14.00">अधिकरणम्</text>
</g>
<!-- Node5_1&#45;&gt;Node1_1 -->
<g id="edge9" class="edge">
<title>Node5_1&#45;&gt;Node1_1</title>
<path fill="none" stroke="black" d="M58.48,-306.72C62.18,-315.05 67.25,-323.69 74.05,-330 88.52,-343.45 108.76,-351.96 126.29,-357.22"/>
<polygon fill="black" stroke="black" points="61.68,-305.29 54.76,-297.26 55.16,-307.85 61.68,-305.29"/>
<text text-anchor="middle" x="115.05" y="-318.8" font-family="Times,serif" font-size="14.00">विधेय_विशेषणम्</text>
</g>
<!-- Node4_1 -->
<g id="node10" class="node">
<title>Node4_1</title>
<ellipse fill="#ff99ff" stroke="#ff99ff" cx="50.05" cy="-105" rx="33.6" ry="18"/>
<text text-anchor="middle" x="50.05" y="-101.3" font-family="Times,serif" font-size="14.00">च(4.1)</text>
</g>
<!-- Node4_1&#45;&gt;Node3_1 -->
<g id="edge8" class="edge">
<title>Node4_1&#45;&gt;Node3_1</title>
<path fill="none" stroke="black" d="M50.05,-133.27C50.05,-146.58 50.05,-162.19 50.05,-173.82"/>
<polygon fill="black" stroke="black" points="53.55,-133.2 50.05,-123.2 46.55,-133.2 53.55,-133.2"/>
<text text-anchor="middle" x="68.55" y="-144.8" font-family="Times,serif" font-size="14.00">सम्बन्धः</text>
</g>
</g>
</svg>
