<svg width="486pt" height="392pt"
 viewBox="0.00 0.00 485.99 392.00" xmlns="http://www.w3.org/2000/svg" xmlns:xlink="http://www.w3.org/1999/xlink">
<g id="graph0" class="graph" transform="scale(1 1) rotate(0) translate(4 388)">
<title>G</title>
<polygon fill="#fffacd" stroke="transparent" points="-4,4 -4,-388 481.99,-388 481.99,4 -4,4"/>
<g id="clust1" class="cluster">
<title>cluster_1</title>
<polygon fill="#fffacd" stroke="black" points="22.15,-166 22.15,-305 110.15,-305 110.15,-166 22.15,-166"/>
</g>
<!-- Node5_1 -->
<style>
 .hidden { display: none; }
 .node { cursor: pointer; }
 </style>
<script>
     function toggleChildren(id) {
      const children = document.getElementById(id);
      if (children.classList.contains('hidden')) {
        children.classList.remove('hidden');
      } else {
        children.classList.add('hidden');
      }
    }
</script>
<g id="children_node1" class="hidden">
    <g class="node" onclick="toggleChildren('children_node1');">

<g id="node1" class="node">
<title>Node5_1</title>
<ellipse fill="#ffff00" stroke="#ffff00" cx="336.15" cy="-18" rx="27" ry="18"/>
<text text-anchor="middle" x="336.15" y="-14.3" font-family="Times,serif" font-size="14.00">देव&#45;</text>
</g>
<!-- Node5_2 -->
<g id="node2" class="node">
<title>Node5_2</title>
<ellipse fill="#ffff00" stroke="#ffff00" cx="426.15" cy="-18" rx="27" ry="18"/>
<text text-anchor="middle" x="426.15" y="-14.3" font-family="Times,serif" font-size="14.00">माया</text>
</g>
<!-- Node5_1&#45;&gt;Node5_2 -->
<!-- Node5_2_1 -->
<g id="node3" class="node">
<title>Node5_2_1</title>
<ellipse fill="#ffff00" stroke="#ffff00" cx="381.15" cy="-105" rx="96.68" ry="18"/>
<text text-anchor="middle" x="381.15" y="-101.3" font-family="Times,serif" font-size="14.00">&lt;देव&#45;&#45;माया&gt;(षष्ठी&#45;तत्पुरुषः)</text>
</g>
<!-- Node5_1&#45;&gt;Node5_2_1 -->
<g id="edge2" class="edge">
<title>Node5_1&#45;&gt;Node5_2_1</title>
<path fill="none" stroke="black" d="M349.55,-44.33C356.81,-58.03 365.58,-74.59 372.03,-86.79"/>
<polygon fill="black" stroke="black" points="352.59,-42.59 344.82,-35.39 346.41,-45.86 352.59,-42.59"/>
</g>
<!-- Node5_2&#45;&gt;Node5_2_1 -->
<g id="edge1" class="edge">
<title>Node5_2&#45;&gt;Node5_2_1</title>
<path fill="none" stroke="black" d="M412.74,-44.33C405.48,-58.03 396.72,-74.59 390.26,-86.79"/>
<polygon fill="black" stroke="black" points="415.88,-45.86 417.47,-35.39 409.7,-42.59 415.88,-45.86"/>
</g>
<!-- Node5_2_1&#45;&gt;Node5_2_1c -->
<g id="edge4" class="edge">
<title>Node5_2_1&#45;&gt;Node5_2_1c</title>
<path fill="none" stroke="black" d="M349.37,-128.31C335.3,-137.6 318.31,-148.05 302.15,-156 283.36,-165.24 261.5,-173.39 243.38,-179.5"/>
<polygon fill="black" stroke="black" points="351.37,-131.18 357.72,-122.71 347.47,-125.37 351.37,-131.18"/>
</g>
</g>
</g>
<!-- Node5_2_1c -->
<g class="node4" onclick="toggleChildren('children_node1');">
<title>Node5_2_1c</title>
<ellipse fill="#00bfff" stroke="#00bfff" cx="206.15" cy="-192" rx="51.19" ry="18"/>
<text text-anchor="middle" x="206.15" y="-188.3" font-family="Times,serif" font-size="14.00">देव&#45;&#45;माया(5)</text>
</g>
<!-- Node4_1 -->
<g id="node6" class="node">
<title>Node4_1</title>
<ellipse fill="#00bfff" stroke="#00bfff" cx="66.15" cy="-279" rx="28.7" ry="18"/>
<text text-anchor="middle" x="66.15" y="-275.3" font-family="Times,serif" font-size="14.00">सा(4)</text>
</g>
<!-- Node5_2_1c&#45;&gt;Node4_1 -->
<g id="edge5" class="edge">
<title>Node5_2_1c&#45;&gt;Node4_1</title>
<path fill="none" stroke="black" d="M172.71,-213.3C145.71,-229.69 108.63,-252.21 86.08,-265.9"/>
<polygon fill="black" stroke="black" points="174.71,-216.18 181.44,-208 171.07,-210.2 174.71,-216.18"/>
<text text-anchor="middle" x="165.15" y="-231.8" font-family="Times,serif" font-size="14.00">उपमानम्</text>
</g>
<!-- Node3_1 -->
<g id="node5" class="node">
<title>Node3_1</title>
<ellipse fill="#00bfff" stroke="#00bfff" cx="66.15" cy="-192" rx="36.29" ry="18"/>
<text text-anchor="middle" x="66.15" y="-188.3" font-family="Times,serif" font-size="14.00">जाता(3)</text>
</g>
<!-- Node3_1&#45;&gt;Node4_1 -->
<g id="edge8" class="edge">
<title>Node3_1&#45;&gt;Node4_1</title>
<path fill="none" stroke="black" d="M66.15,-220.27C66.15,-233.58 66.15,-249.19 66.15,-260.82"/>
<polygon fill="black" stroke="black" points="69.65,-220.2 66.15,-210.2 62.65,-220.2 69.65,-220.2"/>
<text text-anchor="middle" x="89.65" y="-231.8" font-family="Times,serif" font-size="14.00">विशेषणम्</text>
</g>
<!-- Node8_1 -->
<g id="node9" class="node">
<title>Node8_1</title>
<ellipse fill="#ff1975" stroke="#ff1975" cx="66.15" cy="-366" rx="38.19" ry="18"/>
<text text-anchor="middle" x="66.15" y="-362.3" font-family="Times,serif" font-size="14.00">अस्ति(8)</text>
</g>
<!-- Node4_1&#45;&gt;Node8_1 -->
<g id="edge9" class="edge">
<title>Node4_1&#45;&gt;Node8_1</title>
<path fill="none" stroke="black" d="M66.15,-307.27C66.15,-320.58 66.15,-336.19 66.15,-347.82"/>
<polygon fill="black" stroke="black" points="69.65,-307.2 66.15,-297.2 62.65,-307.2 69.65,-307.2"/>
<text text-anchor="middle" x="77.15" y="-318.8" font-family="Times,serif" font-size="14.00">कर्ता</text>
</g>
<!-- Node1_1 -->
<g id="node7" class="node">
<title>Node1_1</title>
<ellipse fill="#87ceeb" stroke="#87ceeb" cx="46.15" cy="-18" rx="46.29" ry="18"/>
<text text-anchor="middle" x="46.15" y="-14.3" font-family="Times,serif" font-size="14.00">जनकस्य(1)</text>
</g>
<!-- Node2_1 -->
<g id="node8" class="node">
<title>Node2_1</title>
<ellipse fill="#c6e2eb" stroke="#c6e2eb" cx="46.15" cy="-105" rx="33.6" ry="18"/>
<text text-anchor="middle" x="46.15" y="-101.3" font-family="Times,serif" font-size="14.00">कुले(2)</text>
</g>
<!-- Node1_1&#45;&gt;Node2_1 -->
<g id="edge6" class="edge">
<title>Node1_1&#45;&gt;Node2_1</title>
<path fill="none" stroke="black" d="M46.15,-46.27C46.15,-59.58 46.15,-75.19 46.15,-86.82"/>
<polygon fill="black" stroke="black" points="49.65,-46.2 46.15,-36.2 42.65,-46.2 49.65,-46.2"/>
<text text-anchor="middle" x="74.15" y="-57.8" font-family="Times,serif" font-size="14.00">षष्ठीसम्बन्धः</text>
</g>
<!-- Node2_1&#45;&gt;Node3_1 -->
<g id="edge7" class="edge">
<title>Node2_1&#45;&gt;Node3_1</title>
<path fill="none" stroke="black" d="M47.36,-133.35C48.1,-140.78 49.28,-148.77 51.15,-156 52.73,-162.15 55.24,-168.6 57.75,-174.28"/>
<polygon fill="black" stroke="black" points="50.85,-133.05 46.58,-123.35 43.87,-133.59 50.85,-133.05"/>
<text text-anchor="middle" x="78.65" y="-144.8" font-family="Times,serif" font-size="14.00">अधिकरणम्</text>
</g>
<!-- Node6_1 -->
<g id="node10" class="node">
<title>Node6_1</title>
<ellipse fill="#ff99ff" stroke="#ff99ff" cx="128.15" cy="-105" rx="30.59" ry="18"/>
<text text-anchor="middle" x="128.15" y="-101.3" font-family="Times,serif" font-size="14.00">इव(6)</text>
</g>
<!-- Node6_1&#45;&gt;Node5_2_1c -->
<g id="edge10" class="edge">
<title>Node6_1&#45;&gt;Node5_2_1c</title>
<path fill="none" stroke="black" d="M127.91,-133.3C128.99,-141.23 131.37,-149.49 136.15,-156 144.02,-166.74 156.13,-174.38 168.07,-179.73"/>
<polygon fill="black" stroke="black" points="131.39,-132.94 127.13,-123.24 124.41,-133.48 131.39,-132.94"/>
<text text-anchor="middle" x="172.65" y="-144.8" font-family="Times,serif" font-size="14.00">उपमान_द्योतकः</text>
</g>
<!-- Node5_2_1c -->
<g class="node4" onclick="toggleChildren('children_node1');">
<title>Node5_2_1c</title>
<ellipse fill="#00bfff" stroke="#00bfff" cx="206.15" cy="-192" rx="51.19" ry="18"/>
<text text-anchor="middle" x="206.15" y="-188.3" font-family="Times,serif" font-size="14.00">देव&#45;&#45;माया(5)</text>
</g>
<!-- Node7_1 -->
<g id="node11" class="node">
<title>Node7_1</title>
<ellipse fill="#00bfff" stroke="#00bfff" cx="224.15" cy="-105" rx="42.49" ry="18"/>
<text text-anchor="middle" x="224.15" y="-101.3" font-family="Times,serif" font-size="14.00">निर्मिता(7)</text>
</g>
<!-- Node7_1&#45;&gt;Node5_2_1c -->
<g id="edge11" class="edge">
<title>Node7_1&#45;&gt;Node5_2_1c</title>
<path fill="none" stroke="black" d="M218.37,-133.27C215.55,-146.58 212.25,-162.19 209.78,-173.82"/>
<polygon fill="black" stroke="black" points="221.86,-133.71 220.5,-123.2 215.01,-132.26 221.86,-133.71"/>
<text text-anchor="middle" x="257.15" y="-144.8" font-family="Times,serif" font-size="14.00">विधेय_विशेषणम्</text>
</g>
</g>
</svg>
