<svg width="867pt" height="378pt"
 viewBox="0.00 0.00 867.13 378.00" xmlns="http://www.w3.org/2000/svg" xmlns:xlink="http://www.w3.org/1999/xlink">
<g id="graph0" class="graph" transform="scale(1 1) rotate(0) translate(4 374)">
<title>G</title>
<polygon fill="#fffacd" stroke="transparent" points="-4,4 -4,-374 863.13,-374 863.13,4 -4,4"/>
<g id="clust1" class="cluster">
<title>cluster_1</title>
<polygon fill="#fffacd" stroke="black" points="341.69,-152 341.69,-291 425.69,-291 425.69,-152 341.69,-152"/>
</g>
<!-- Node8_1 -->
<style>
 .hidden { display: none; }
 .node { cursor: pointer; }
 </style>
<script>
     function toggleChildren(id) {
      const children = document.getElementById(id);
      if (children.classList.contains('hidden')) {
        children.classList.remove('hidden');
      } else {
        children.classList.add('hidden');
      }
    }
</script>
<g id="children_node1" class="hidden">
    <g class="node" onclick="toggleChildren('children_node1');">

<g id="node1" class="node">
<title>Node8_1</title>
<ellipse fill="#ffff00" stroke="#ffff00" cx="696.69" cy="-105" rx="28.7" ry="18"/>
<text text-anchor="middle" x="696.69" y="-101.3" font-family="Times,serif" font-size="14.00">वचन&#45;</text>
</g>
<!-- Node8_2 -->
<g id="node2" class="node">
<title>Node8_2</title>
<ellipse fill="#ffff00" stroke="#ffff00" cx="796.69" cy="-105" rx="36" ry="18"/>
<text text-anchor="middle" x="796.69" y="-101.3" font-family="Times,serif" font-size="14.00">निर्देशात्</text>
</g>
<!-- Node8_1&#45;&gt;Node8_2 -->
<!-- Node8_2_1 -->
<g id="node3" class="node">
<title>Node8_2_1</title>
<ellipse fill="#ffff00" stroke="#ffff00" cx="746.69" cy="-178" rx="112.38" ry="18"/>
<text text-anchor="middle" x="746.69" y="-174.3" font-family="Times,serif" font-size="14.00">&lt;वचन&#45;&#45;निर्देशात्&gt;(षष्ठी&#45;तत्पुरुषः)</text>
</g>
<!-- Node8_1&#45;&gt;Node8_2_1 -->
<g id="edge2" class="edge">
<title>Node8_1&#45;&gt;Node8_2_1</title>
<path fill="none" stroke="black" d="M713.59,-130C720.54,-139.86 728.42,-151.06 734.75,-160.05"/>
<polygon fill="black" stroke="black" points="716.41,-127.92 707.79,-121.76 710.68,-131.95 716.41,-127.92"/>
</g>
<!-- Node8_2&#45;&gt;Node8_2_1 -->
<g id="edge1" class="edge">
<title>Node8_2&#45;&gt;Node8_2_1</title>
<path fill="none" stroke="black" d="M779.38,-130.58C772.56,-140.27 764.88,-151.16 758.69,-159.96"/>
<polygon fill="black" stroke="black" points="782.45,-132.3 785.35,-122.11 776.73,-128.27 782.45,-132.3"/>
</g>
<!-- Node8_2_1&#45;&gt;Node8_2_1c -->
<g id="edge4" class="edge">
<title>Node8_2_1&#45;&gt;Node8_2_1c</title>
<path fill="none" stroke="black" d="M743.48,-206.27C741.92,-219.58 740.08,-235.19 738.71,-246.82"/>
<polygon fill="black" stroke="black" points="746.97,-206.54 744.67,-196.2 740.02,-205.72 746.97,-206.54"/>
</g>
</g>
</g>
<!-- Node8_2_1c -->
<g class="node4" onclick="toggleChildren('children_node1');">
<title>Node8_2_1c</title>
<ellipse fill="#b4ffb4" stroke="#b4ffb4" cx="736.69" cy="-265" rx="66.89" ry="18"/>
<text text-anchor="middle" x="736.69" y="-261.3" font-family="Times,serif" font-size="14.00">वचन&#45;&#45;निर्देशात्(8)</text>
</g>
<!-- Node2_1 -->
<g id="node11" class="node">
<title>Node2_1</title>
<ellipse fill="#ff1975" stroke="#ff1975" cx="470.69" cy="-352" rx="38.99" ry="18"/>
<text text-anchor="middle" x="470.69" y="-348.3" font-family="Times,serif" font-size="14.00">जगाम(2)</text>
</g>
<!-- Node8_2_1c&#45;&gt;Node2_1 -->
<g id="edge5" class="edge">
<title>Node8_2_1c&#45;&gt;Node2_1</title>
<path fill="none" stroke="black" d="M696.78,-285.49C674.97,-295.6 647.26,-307.56 621.69,-316 583.11,-328.74 537.5,-338.63 506.59,-344.6"/>
<polygon fill="black" stroke="black" points="698.48,-288.56 706.05,-281.15 695.51,-282.22 698.48,-288.56"/>
<text text-anchor="middle" x="669.19" y="-304.8" font-family="Times,serif" font-size="14.00">हेतुः</text>
</g>
<g id="children_node2" class="hidden">
    <g class="node" onclick="toggleChildren('children_node2');">
<!-- Node10_1 -->
<g id="node5" class="node">
<title>Node10_1</title>
<ellipse fill="#ffff00" stroke="#ffff00" cx="28.69" cy="-105" rx="27" ry="18"/>
<text text-anchor="middle" x="28.69" y="-101.3" font-family="Times,serif" font-size="14.00">प्रिय&#45;</text>
</g>
<!-- Node10_2 -->
<g id="node6" class="node">
<title>Node10_2</title>
<ellipse fill="#ffff00" stroke="#ffff00" cx="127.69" cy="-105" rx="36.29" ry="18"/>
<text text-anchor="middle" x="127.69" y="-101.3" font-family="Times,serif" font-size="14.00">कारणात्</text>
</g>
<!-- Node10_1&#45;&gt;Node10_2 -->
<!-- Node10_2_1 -->
<g id="node7" class="node">
<title>Node10_2_1</title>
<ellipse fill="#ffff00" stroke="#ffff00" cx="102.69" cy="-178" rx="102.88" ry="18"/>
<text text-anchor="middle" x="102.69" y="-174.3" font-family="Times,serif" font-size="14.00">&lt;प्रिय&#45;&#45;कारणात्&gt;(कर्मधारयः)</text>
</g>
<!-- Node10_1&#45;&gt;Node10_2_1 -->
<g id="edge7" class="edge">
<title>Node10_1&#45;&gt;Node10_2_1</title>
<path fill="none" stroke="black" d="M51.18,-127.58C62.08,-138.04 74.98,-150.41 85.14,-160.16"/>
<polygon fill="black" stroke="black" points="53.3,-124.77 43.67,-120.37 48.46,-129.82 53.3,-124.77"/>
</g>
<!-- Node10_2&#45;&gt;Node10_2_1 -->
<g id="edge6" class="edge">
<title>Node10_2&#45;&gt;Node10_2_1</title>
<path fill="none" stroke="black" d="M118.43,-132.31C115.19,-141.49 111.65,-151.55 108.75,-159.8"/>
<polygon fill="black" stroke="black" points="121.75,-133.42 121.77,-122.83 115.14,-131.1 121.75,-133.42"/>
</g>
<!-- Node10_2_1&#45;&gt;Node10_2_1c -->
<g id="edge9" class="edge">
<title>Node10_2_1&#45;&gt;Node10_2_1c</title>
<path fill="none" stroke="black" d="M142.49,-200.28C170.54,-215.27 207.46,-235.01 232.74,-248.52"/>
<polygon fill="black" stroke="black" points="143.82,-197.02 133.35,-195.39 140.52,-203.19 143.82,-197.02"/>
</g>
</g>
</g>
<!-- Node10_2_1c -->
<g class="node8" onclick="toggleChildren('children_node2');">
<title>Node10_2_1c</title>
<ellipse fill="#b4ffb4" stroke="#b4ffb4" cx="261.69" cy="-265" rx="70.39" ry="18"/>
<text text-anchor="middle" x="261.69" y="-261.3" font-family="Times,serif" font-size="14.00">प्रिय&#45;&#45;कारणात्(10)</text>
</g>
<!-- Node10_2_1c&#45;&gt;Node2_1 -->
<g id="edge10" class="edge">
<title>Node10_2_1c&#45;&gt;Node2_1</title>
<path fill="none" stroke="black" d="M307.13,-284.48C348.24,-301.2 407.51,-325.3 442.27,-339.44"/>
<polygon fill="black" stroke="black" points="308.2,-281.14 297.62,-280.61 305.56,-287.62 308.2,-281.14"/>
<text text-anchor="middle" x="388.19" y="-304.8" font-family="Times,serif" font-size="14.00">हेतुः</text>
</g>
<!-- Node1_1 -->
<g id="node9" class="node">
<title>Node1_1</title>
<ellipse fill="#00bfff" stroke="#00bfff" cx="378.69" cy="-178" rx="28.7" ry="18"/>
<text text-anchor="middle" x="378.69" y="-174.3" font-family="Times,serif" font-size="14.00">सः(1)</text>
</g>
<!-- Node4_1 -->
<g id="node10" class="node">
<title>Node4_1</title>
<ellipse fill="#00bfff" stroke="#00bfff" cx="383.69" cy="-265" rx="33.6" ry="18"/>
<text text-anchor="middle" x="383.69" y="-261.3" font-family="Times,serif" font-size="14.00">वीरः(4)</text>
</g>
<!-- Node1_1&#45;&gt;Node4_1 -->
<g id="edge11" class="edge">
<title>Node1_1&#45;&gt;Node4_1</title>
<path fill="none" stroke="black" d="M380.29,-206.27C381.08,-219.58 382,-235.19 382.68,-246.82"/>
<polygon fill="black" stroke="black" points="383.78,-205.98 379.7,-196.2 376.8,-206.39 383.78,-205.98"/>
<text text-anchor="middle" x="404.19" y="-217.8" font-family="Times,serif" font-size="14.00">विशेषणम्</text>
</g>
<!-- Node4_1&#45;&gt;Node2_1 -->
<g id="edge13" class="edge">
<title>Node4_1&#45;&gt;Node2_1</title>
<path fill="none" stroke="black" d="M406.71,-288.49C421.83,-303.26 441.23,-322.22 454.68,-335.36"/>
<polygon fill="black" stroke="black" points="408.84,-285.68 399.24,-281.2 403.95,-290.69 408.84,-285.68"/>
<text text-anchor="middle" x="442.69" y="-304.8" font-family="Times,serif" font-size="14.00">कर्ता</text>
</g>
<!-- Node3_1 -->
<g id="node12" class="node">
<title>Node3_1</title>
<ellipse fill="#93db70" stroke="#93db70" cx="470.69" cy="-265" rx="35.19" ry="18"/>
<text text-anchor="middle" x="470.69" y="-261.3" font-family="Times,serif" font-size="14.00">वनम्(3)</text>
</g>
<!-- Node3_1&#45;&gt;Node2_1 -->
<g id="edge12" class="edge">
<title>Node3_1&#45;&gt;Node2_1</title>
<path fill="none" stroke="black" d="M470.69,-293.27C470.69,-306.58 470.69,-322.19 470.69,-333.82"/>
<polygon fill="black" stroke="black" points="474.19,-293.2 470.69,-283.2 467.19,-293.2 474.19,-293.2"/>
<text text-anchor="middle" x="479.69" y="-304.8" font-family="Times,serif" font-size="14.00">कर्म</text>
</g>
<!-- Node5_1 -->
<g id="node13" class="node">
<title>Node5_1</title>
<ellipse fill="#93db70" stroke="#93db70" cx="569.69" cy="-178" rx="46.59" ry="18"/>
<text text-anchor="middle" x="569.69" y="-174.3" font-family="Times,serif" font-size="14.00">प्रतिज्ञाम्(5)</text>
</g>
<!-- Node6_1 -->
<g id="node14" class="node">
<title>Node6_1</title>
<ellipse fill="#00bfff" stroke="#00bfff" cx="578.69" cy="-265" rx="55.49" ry="18"/>
<text text-anchor="middle" x="578.69" y="-261.3" font-family="Times,serif" font-size="14.00">अनुपालयन्(6)</text>
</g>
<!-- Node5_1&#45;&gt;Node6_1 -->
<g id="edge14" class="edge">
<title>Node5_1&#45;&gt;Node6_1</title>
<path fill="none" stroke="black" d="M572.58,-206.27C573.99,-219.58 575.64,-235.19 576.87,-246.82"/>
<polygon fill="black" stroke="black" points="576.05,-205.78 571.51,-196.2 569.08,-206.51 576.05,-205.78"/>
<text text-anchor="middle" x="583.69" y="-217.8" font-family="Times,serif" font-size="14.00">कर्म</text>
</g>
<!-- Node6_1&#45;&gt;Node2_1 -->
<g id="edge15" class="edge">
<title>Node6_1&#45;&gt;Node2_1</title>
<path fill="none" stroke="black" d="M550.52,-288.17C531.32,-303.29 506.41,-322.89 489.56,-336.15"/>
<polygon fill="black" stroke="black" points="552.94,-290.72 558.63,-281.79 548.61,-285.22 552.94,-290.72"/>
<text text-anchor="middle" x="574.19" y="-304.8" font-family="Times,serif" font-size="14.00">वर्तमानसमानकालः</text>
</g>
<!-- Node7_1 -->
<g id="node15" class="node">
<title>Node7_1</title>
<ellipse fill="#87ceeb" stroke="#87ceeb" cx="696.69" cy="-18" rx="36" ry="18"/>
<text text-anchor="middle" x="696.69" y="-14.3" font-family="Times,serif" font-size="14.00">पितुः(7)</text>
</g>
<!-- Node7_1&#45;&gt;Node8_1 -->
<g id="edge16" class="edge">
<title>Node7_1&#45;&gt;Node8_1</title>
<path fill="none" stroke="black" d="M696.69,-46.27C696.69,-59.58 696.69,-75.19 696.69,-86.82"/>
<polygon fill="black" stroke="black" points="700.19,-46.2 696.69,-36.2 693.19,-46.2 700.19,-46.2"/>
<text text-anchor="middle" x="724.69" y="-57.8" font-family="Times,serif" font-size="14.00">षष्ठीसम्बन्धः</text>
</g>
<!-- Node10_2_1c -->
<g class="node8" onclick="toggleChildren('children_node2');">
<title>Node10_2_1c</title>
<ellipse fill="#b4ffb4" stroke="#b4ffb4" cx="261.69" cy="-265" rx="70.39" ry="18"/>
<text text-anchor="middle" x="261.69" y="-261.3" font-family="Times,serif" font-size="14.00">प्रिय&#45;&#45;कारणात्(10)</text>
</g>
<!-- Node9_1 -->
<g id="node16" class="node">
<title>Node9_1</title>
<ellipse fill="#87ceeb" stroke="#87ceeb" cx="269.69" cy="-178" rx="46.59" ry="18"/>
<text text-anchor="middle" x="269.69" y="-174.3" font-family="Times,serif" font-size="14.00">कैकेय्याः(9)</text>
</g>
<!-- Node9_1&#45;&gt;Node10_2_1c -->
<g id="edge17" class="edge">
<title>Node9_1&#45;&gt;Node10_2_1c</title>
<path fill="none" stroke="black" d="M267.12,-206.27C265.87,-219.58 264.4,-235.19 263.31,-246.82"/>
<polygon fill="black" stroke="black" points="270.62,-206.49 268.07,-196.2 263.65,-205.83 270.62,-206.49"/>
<text text-anchor="middle" x="294.69" y="-217.8" font-family="Times,serif" font-size="14.00">षष्ठीसम्बन्धः</text>
</g>
</g>
</svg>
