<svg width="453pt" height="465pt"
 viewBox="0.00 0.00 453.24 465.00" xmlns="http://www.w3.org/2000/svg" xmlns:xlink="http://www.w3.org/1999/xlink">
<g id="graph0" class="graph" transform="scale(1 1) rotate(0) translate(4 461)">
<title>G</title>
<polygon fill="#fffacd" stroke="transparent" points="-4,4 -4,-461 449.24,-461 449.24,4 -4,4"/>
<g id="clust1" class="cluster">
<title>cluster_1</title>
<polygon fill="#fffacd" stroke="black" points="250.24,-239 250.24,-378 346.24,-378 346.24,-239 250.24,-239"/>
</g>
<!-- Node5_1 -->
<style>
 .hidden { display: none; }
 .node { cursor: pointer; }
 </style>
<script>
     function toggleChildren(id) {
      const children = document.getElementById(id);
      if (children.classList.contains('hidden')) {
        children.classList.remove('hidden');
      } else {
        children.classList.add('hidden');
      }
    }
</script>
<g id="children_node1" class="hidden">
    <g class="node" onclick="toggleChildren('children_node1');">

<g id="node1" class="node">
<title>Node5_1</title>
<ellipse fill="#ffff00" stroke="#ffff00" cx="62.24" cy="-18" rx="28.7" ry="18"/>
<text text-anchor="middle" x="62.24" y="-14.3" font-family="Times,serif" font-size="14.00">प्राण&#45;</text>
</g>
<!-- Node5_2 -->
<g id="node2" class="node">
<title>Node5_2</title>
<ellipse fill="#ffff00" stroke="#ffff00" cx="153.24" cy="-18" rx="27" ry="18"/>
<text text-anchor="middle" x="153.24" y="-14.3" font-family="Times,serif" font-size="14.00">समा</text>
</g>
<!-- Node5_1&#45;&gt;Node5_2 -->
<!-- Node5_2_1 -->
<g id="node3" class="node">
<title>Node5_2_1</title>
<ellipse fill="#ffff00" stroke="#ffff00" cx="107.24" cy="-91" rx="107.48" ry="18"/>
<text text-anchor="middle" x="107.24" y="-87.3" font-family="Times,serif" font-size="14.00">&lt;प्राण&#45;&#45;समा&gt;(तृतीया&#45;तत्पुरुषः)</text>
</g>
<!-- Node5_1&#45;&gt;Node5_2_1 -->
<g id="edge2" class="edge">
<title>Node5_1&#45;&gt;Node5_2_1</title>
<path fill="none" stroke="black" d="M77.82,-43.58C83.96,-53.27 90.87,-64.16 96.44,-72.96"/>
<polygon fill="black" stroke="black" points="80.76,-41.68 72.45,-35.11 74.85,-45.43 80.76,-41.68"/>
</g>
<!-- Node5_2&#45;&gt;Node5_2_1 -->
<g id="edge1" class="edge">
<title>Node5_2&#45;&gt;Node5_2_1</title>
<path fill="none" stroke="black" d="M137.5,-43.3C131.15,-53.09 123.99,-64.15 118.22,-73.05"/>
<polygon fill="black" stroke="black" points="140.53,-45.05 143.03,-34.76 134.66,-41.25 140.53,-45.05"/>
</g>
<!-- Node5_2_1&#45;&gt;Node5_2_1c -->
<g id="edge4" class="edge">
<title>Node5_2_1&#45;&gt;Node5_2_1c</title>
<path fill="none" stroke="black" d="M130.18,-116.69C143.34,-130.85 159.5,-148.23 171.08,-160.69"/>
<polygon fill="black" stroke="black" points="132.6,-114.14 123.23,-109.2 127.47,-118.91 132.6,-114.14"/>
</g>
</g>
</g>
<!-- Node5_2_1c -->
<g class="node4" onclick="toggleChildren('children_node1');">
<title>Node5_2_1c</title>
<ellipse fill="#00bfff" stroke="#00bfff" cx="186.24" cy="-178" rx="53.89" ry="18"/>
<text text-anchor="middle" x="186.24" y="-174.3" font-family="Times,serif" font-size="14.00">प्राण&#45;&#45;समा(5)</text>
</g>
<!-- Node7_1 -->
<g id="node11" class="node">
<title>Node7_1</title>
<ellipse fill="#00bfff" stroke="#00bfff" cx="186.24" cy="-265" rx="35.19" ry="18"/>
<text text-anchor="middle" x="186.24" y="-261.3" font-family="Times,serif" font-size="14.00">हिता(7)</text>
</g>
<!-- Node5_2_1c&#45;&gt;Node7_1 -->
<g id="edge5" class="edge">
<title>Node5_2_1c&#45;&gt;Node7_1</title>
<path fill="none" stroke="black" d="M186.24,-206.27C186.24,-219.58 186.24,-235.19 186.24,-246.82"/>
<polygon fill="black" stroke="black" points="189.74,-206.2 186.24,-196.2 182.74,-206.2 189.74,-206.2"/>
<text text-anchor="middle" x="208.74" y="-217.8" font-family="Times,serif" font-size="14.00">समुच्चितः</text>
</g>
<!-- Node2_1 -->
<g id="node5" class="node">
<title>Node2_1</title>
<ellipse fill="#00bfff" stroke="#00bfff" cx="298.24" cy="-265" rx="40.09" ry="18"/>
<text text-anchor="middle" x="298.24" y="-261.3" font-family="Times,serif" font-size="14.00">दयिता(2)</text>
</g>
<!-- Node3_1 -->
<g id="node6" class="node">
<title>Node3_1</title>
<ellipse fill="#00bfff" stroke="#00bfff" cx="297.24" cy="-352" rx="36.29" ry="18"/>
<text text-anchor="middle" x="297.24" y="-348.3" font-family="Times,serif" font-size="14.00">भार्या(3)</text>
</g>
<!-- Node2_1&#45;&gt;Node3_1 -->
<g id="edge7" class="edge">
<title>Node2_1&#45;&gt;Node3_1</title>
<path fill="none" stroke="black" d="M297.92,-293.27C297.76,-306.58 297.58,-322.19 297.44,-333.82"/>
<polygon fill="black" stroke="black" points="301.42,-293.24 298.04,-283.2 294.42,-293.16 301.42,-293.24"/>
<text text-anchor="middle" x="320.74" y="-304.8" font-family="Times,serif" font-size="14.00">विशेषणम्</text>
</g>
<!-- Node8_1 -->
<g id="node8" class="node">
<title>Node8_1</title>
<ellipse fill="#ff1975" stroke="#ff1975" cx="345.24" cy="-439" rx="44.39" ry="18"/>
<text text-anchor="middle" x="345.24" y="-435.3" font-family="Times,serif" font-size="14.00">(अस्ति)(8)</text>
</g>
<!-- Node3_1&#45;&gt;Node8_1 -->
<g id="edge8" class="edge">
<title>Node3_1&#45;&gt;Node8_1</title>
<path fill="none" stroke="black" d="M311.81,-378.8C319.59,-392.58 328.94,-409.14 335.78,-421.24"/>
<polygon fill="black" stroke="black" points="314.69,-376.78 306.72,-369.79 308.59,-380.22 314.69,-376.78"/>
<text text-anchor="middle" x="334.24" y="-391.8" font-family="Times,serif" font-size="14.00">कर्ता</text>
</g>
<!-- Node1_1 -->
<g id="node7" class="node">
<title>Node1_1</title>
<ellipse fill="#87ceeb" stroke="#87ceeb" cx="396.24" cy="-265" rx="39.79" ry="18"/>
<text text-anchor="middle" x="396.24" y="-261.3" font-family="Times,serif" font-size="14.00">रामस्य(1)</text>
</g>
<!-- Node1_1&#45;&gt;Node3_1 -->
<g id="edge6" class="edge">
<title>Node1_1&#45;&gt;Node3_1</title>
<path fill="none" stroke="black" d="M375.33,-289.74C367.23,-298.4 357.65,-308.01 348.24,-316 339.15,-323.71 328.36,-331.32 319.04,-337.46"/>
<polygon fill="black" stroke="black" points="378.12,-291.87 382.3,-282.14 372.97,-287.14 378.12,-291.87"/>
<text text-anchor="middle" x="391.24" y="-304.8" font-family="Times,serif" font-size="14.00">षष्ठीसम्बन्धः</text>
</g>
<!-- Node4_1 -->
<g id="node9" class="node">
<title>Node4_1</title>
<ellipse fill="#00bfff" stroke="#00bfff" cx="394.24" cy="-352" rx="40.09" ry="18"/>
<text text-anchor="middle" x="394.24" y="-348.3" font-family="Times,serif" font-size="14.00">नित्यम्(4)</text>
</g>
<!-- Node4_1&#45;&gt;Node8_1 -->
<g id="edge9" class="edge">
<title>Node4_1&#45;&gt;Node8_1</title>
<path fill="none" stroke="black" d="M379.37,-378.8C371.42,-392.58 361.88,-409.14 354.9,-421.24"/>
<polygon fill="black" stroke="black" points="382.6,-380.2 384.56,-369.79 376.53,-376.71 382.6,-380.2"/>
<text text-anchor="middle" x="408.74" y="-391.8" font-family="Times,serif" font-size="14.00">क्रियाविशेषणम्</text>
</g>
<!-- Node6_1 -->
<g id="node10" class="node">
<title>Node6_1</title>
<ellipse fill="#ff99ff" stroke="#ff99ff" cx="265.24" cy="-91" rx="32.49" ry="18"/>
<text text-anchor="middle" x="265.24" y="-87.3" font-family="Times,serif" font-size="14.00">(च)(6)</text>
</g>
<!-- Node6_1&#45;&gt;Node5_2_1c -->
<g id="edge10" class="edge">
<title>Node6_1&#45;&gt;Node5_2_1c</title>
<path fill="none" stroke="black" d="M243.73,-115.15C230.34,-129.55 213.45,-147.73 201.45,-160.64"/>
<polygon fill="black" stroke="black" points="246.51,-117.3 250.75,-107.59 241.38,-112.53 246.51,-117.3"/>
<text text-anchor="middle" x="269.74" y="-130.8" font-family="Times,serif" font-size="14.00">समुच्चय_द्योतकः</text>
</g>
<!-- Node5_2_1c -->
<g class="node4" onclick="toggleChildren('children_node1');">
<title>Node5_2_1c</title>
<ellipse fill="#00bfff" stroke="#00bfff" cx="186.24" cy="-178" rx="53.89" ry="18"/>
<text text-anchor="middle" x="186.24" y="-174.3" font-family="Times,serif" font-size="14.00">प्राण&#45;&#45;समा(5)</text>
</g>
<!-- Node7_1&#45;&gt;Node3_1 -->
<g id="edge11" class="edge">
<title>Node7_1&#45;&gt;Node3_1</title>
<path fill="none" stroke="black" d="M195.28,-292.68C199.14,-301 204.38,-309.65 211.24,-316 226.15,-329.8 247.21,-338.49 264.76,-343.76"/>
<polygon fill="black" stroke="black" points="198.42,-291.12 191.36,-283.22 191.96,-293.8 198.42,-291.12"/>
<text text-anchor="middle" x="252.24" y="-304.8" font-family="Times,serif" font-size="14.00">विधेय_विशेषणम्</text>
</g>
</g>
</svg>
