<?xml version="1.0" encoding="UTF-8" standalone="no"?>
<!DOCTYPE svg PUBLIC "-//W3C//DTD SVG 1.1//EN"
 "http://www.w3.org/Graphics/SVG/1.1/DTD/svg11.dtd">
<!-- Generated by graphviz version 2.50.0 (20211204.2007)
 -->
<!-- Title: G Pages: 1 -->
<svg width="921pt" height="392pt"
 viewBox="0.00 0.00 920.69 392.00" xmlns="http://www.w3.org/2000/svg" xmlns:xlink="http://www.w3.org/1999/xlink">
<g id="graph0" class="graph" transform="scale(1 1) rotate(0) translate(4 388)">
<title>G</title>
<polygon fill="#fffacd" stroke="transparent" points="-4,4 -4,-388 916.69,-388 916.69,4 -4,4"/>
<g id="clust1" class="cluster">
<title>cluster_1</title>
<polygon fill="#fffacd" stroke="black" points="8,-166 8,-305 218,-305 218,-166 8,-166"/>
</g>
<g id="clust2" class="cluster">
<title>cluster_2</title>
<polygon fill="#fffacd" stroke="black" points="590,-79 590,-218 694,-218 694,-79 590,-79"/>
</g>
<g id="clust3" class="cluster">
<title>cluster_3</title>
<polygon fill="#fffacd" stroke="black" points="226,-166 226,-305 582,-305 582,-166 226,-166"/>
</g>
<!-- Node1_1 -->
<g id="node1" class="node">
<title>Node1_1</title>
<ellipse fill="#93db70" stroke="#93db70" cx="172" cy="-192" rx="37.89" ry="18"/>
<text text-anchor="middle" x="172" y="-188.3" font-family="Times,serif" font-size="14.00">तम्(1.1)</text>
</g>
<!-- Node11_1 -->
<g id="node2" class="node">
<title>Node11_1</title>
<ellipse fill="#93db70" stroke="#93db70" cx="158" cy="-279" rx="51.99" ry="18"/>
<text text-anchor="middle" x="158" y="-275.3" font-family="Times,serif" font-size="14.00">भ्रातरम्(11.1)</text>
</g>
<!-- Node1_1&#45;&gt;Node11_1 -->
<g id="edge1" class="edge">
<title>Node1_1&#45;&gt;Node11_1</title>
<path fill="none" stroke="black" d="M167.51,-220.27C165.32,-233.58 162.74,-249.19 160.83,-260.82"/>
<polygon fill="black" stroke="black" points="171,-220.64 169.17,-210.2 164.09,-219.5 171,-220.64"/>
<text text-anchor="middle" x="189.5" y="-231.8" font-family="Times,serif" font-size="14.00">विशेषणम्</text>
</g>
<!-- Node6_2 -->
<g id="node10" class="node">
<title>Node6_2</title>
<ellipse fill="#ff1975" stroke="#ff1975" cx="622" cy="-366" rx="56.59" ry="18"/>
<text text-anchor="middle" x="622" y="-362.3" font-family="Times,serif" font-size="14.00">अनुजगाम(6.2)</text>
</g>
<!-- Node11_1&#45;&gt;Node6_2 -->
<g id="edge13" class="edge">
<title>Node11_1&#45;&gt;Node6_2</title>
<path fill="none" stroke="black" d="M198.34,-297.33C206.09,-300.21 214.22,-302.93 222,-305 343.28,-337.35 490.21,-353.77 567.84,-360.74"/>
<polygon fill="black" stroke="black" points="199.37,-293.97 188.78,-293.63 196.85,-300.5 199.37,-293.97"/>
<text text-anchor="middle" x="340" y="-318.8" font-family="Times,serif" font-size="14.00">कर्म</text>
</g>
<!-- Node2_1 -->
<g id="node3" class="node">
<title>Node2_1</title>
<ellipse fill="#93db70" stroke="#93db70" cx="66" cy="-192" rx="50.09" ry="18"/>
<text text-anchor="middle" x="66" y="-188.3" font-family="Times,serif" font-size="14.00">व्रजन्तम्(2.1)</text>
</g>
<!-- Node2_1&#45;&gt;Node11_1 -->
<g id="edge2" class="edge">
<title>Node2_1&#45;&gt;Node11_1</title>
<path fill="none" stroke="black" d="M87.59,-216.78C95.64,-225.29 105.01,-234.81 114,-243 121.22,-249.57 129.51,-256.35 136.93,-262.17"/>
<polygon fill="black" stroke="black" points="89.99,-214.22 80.61,-209.3 84.87,-219 89.99,-214.22"/>
<text text-anchor="middle" x="137.5" y="-231.8" font-family="Times,serif" font-size="14.00">विशेषणम्</text>
</g>
<!-- Node3_1 -->
<g id="node4" class="node">
<title>Node3_1</title>
<ellipse fill="#00bfff" stroke="#00bfff" cx="642" cy="-105" rx="43.59" ry="18"/>
<text text-anchor="middle" x="642" y="-101.3" font-family="Times,serif" font-size="14.00">प्रियः(3.1)</text>
</g>
<!-- Node4_1 -->
<g id="node5" class="node">
<title>Node4_1</title>
<ellipse fill="#00bfff" stroke="#00bfff" cx="640" cy="-192" rx="42.49" ry="18"/>
<text text-anchor="middle" x="640" y="-188.3" font-family="Times,serif" font-size="14.00">भ्राता(4.1)</text>
</g>
<!-- Node3_1&#45;&gt;Node4_1 -->
<g id="edge3" class="edge">
<title>Node3_1&#45;&gt;Node4_1</title>
<path fill="none" stroke="black" d="M641.36,-133.27C641.05,-146.58 640.68,-162.19 640.4,-173.82"/>
<polygon fill="black" stroke="black" points="644.86,-133.28 641.6,-123.2 637.86,-133.12 644.86,-133.28"/>
<text text-anchor="middle" x="664.5" y="-144.8" font-family="Times,serif" font-size="14.00">विशेषणम्</text>
</g>
<!-- Node5_1 -->
<g id="node7" class="node">
<title>Node5_1</title>
<ellipse fill="#00bfff" stroke="#00bfff" cx="519" cy="-279" rx="52.79" ry="18"/>
<text text-anchor="middle" x="519" y="-275.3" font-family="Times,serif" font-size="14.00">लक्ष्मणः(5.1)</text>
</g>
<!-- Node4_1&#45;&gt;Node5_1 -->
<g id="edge4" class="edge">
<title>Node4_1&#45;&gt;Node5_1</title>
<path fill="none" stroke="black" d="M612.21,-213.92C599.98,-223 585.38,-233.67 572,-243 562.5,-249.62 551.88,-256.7 542.65,-262.75"/>
<polygon fill="black" stroke="black" points="614.33,-216.71 620.26,-207.93 610.15,-211.1 614.33,-216.71"/>
<text text-anchor="middle" x="607" y="-231.8" font-family="Times,serif" font-size="14.00">अभेदः</text>
</g>
<!-- Node9_2 -->
<g id="node6" class="node">
<title>Node9_2</title>
<ellipse fill="#00bfff" stroke="#00bfff" cx="284" cy="-192" rx="50.09" ry="18"/>
<text text-anchor="middle" x="284" y="-188.3" font-family="Times,serif" font-size="14.00">सम्पन्नः(9.2)</text>
</g>
<!-- Node9_2&#45;&gt;Node5_1 -->
<g id="edge9" class="edge">
<title>Node9_2&#45;&gt;Node5_1</title>
<path fill="none" stroke="black" d="M322.68,-210.87C345.27,-220.96 374.45,-233.43 401,-243 426.53,-252.21 455.77,-260.89 478.76,-267.31"/>
<polygon fill="black" stroke="black" points="323.99,-207.62 313.44,-206.7 321.12,-214 323.99,-207.62"/>
<text text-anchor="middle" x="424.5" y="-231.8" font-family="Times,serif" font-size="14.00">विशेषणम्</text>
</g>
<!-- Node5_1&#45;&gt;Node6_2 -->
<g id="edge5" class="edge">
<title>Node5_1&#45;&gt;Node6_2</title>
<path fill="none" stroke="black" d="M546.1,-302.36C563.77,-316.94 586.42,-335.64 602.36,-348.79"/>
<polygon fill="black" stroke="black" points="548.31,-299.65 538.37,-295.99 543.86,-305.05 548.31,-299.65"/>
<text text-anchor="middle" x="588" y="-318.8" font-family="Times,serif" font-size="14.00">कर्ता</text>
</g>
<!-- Node10_3 -->
<g id="node8" class="node">
<title>Node10_3</title>
<ellipse fill="#00bfff" stroke="#00bfff" cx="402" cy="-192" rx="50.09" ry="18"/>
<text text-anchor="middle" x="402" y="-188.3" font-family="Times,serif" font-size="14.00">वर्धनः(10.3)</text>
</g>
<!-- Node10_3&#45;&gt;Node5_1 -->
<g id="edge12" class="edge">
<title>Node10_3&#45;&gt;Node5_1</title>
<path fill="none" stroke="black" d="M431.11,-214.54C443.13,-223.4 457.21,-233.73 470,-243 478.8,-249.38 488.54,-256.35 497,-262.38"/>
<polygon fill="black" stroke="black" points="432.9,-211.51 422.78,-208.39 428.75,-217.15 432.9,-211.51"/>
<text text-anchor="middle" x="493.5" y="-231.8" font-family="Times,serif" font-size="14.00">विशेषणम्</text>
</g>
<!-- Node12_1 -->
<g id="node9" class="node">
<title>Node12_1</title>
<ellipse fill="#00bfff" stroke="#00bfff" cx="522" cy="-192" rx="51.99" ry="18"/>
<text text-anchor="middle" x="522" y="-188.3" font-family="Times,serif" font-size="14.00">दयितः(12.1)</text>
</g>
<!-- Node12_1&#45;&gt;Node5_1 -->
<g id="edge14" class="edge">
<title>Node12_1&#45;&gt;Node5_1</title>
<path fill="none" stroke="black" d="M521.04,-220.27C520.57,-233.58 520.02,-249.19 519.61,-260.82"/>
<polygon fill="black" stroke="black" points="524.54,-220.32 521.39,-210.2 517.54,-220.07 524.54,-220.32"/>
<text text-anchor="middle" x="544.5" y="-231.8" font-family="Times,serif" font-size="14.00">विशेषणम्</text>
</g>
<!-- Node7_1 -->
<g id="node11" class="node">
<title>Node7_1</title>
<ellipse fill="#ff99ff" stroke="#ff99ff" cx="622" cy="-279" rx="32.49" ry="18"/>
<text text-anchor="middle" x="622" y="-275.3" font-family="Times,serif" font-size="14.00">ह(7.1)</text>
</g>
<!-- Node7_1&#45;&gt;Node6_2 -->
<g id="edge6" class="edge">
<title>Node7_1&#45;&gt;Node6_2</title>
<path fill="none" stroke="black" d="M622,-307.27C622,-320.58 622,-336.19 622,-347.82"/>
<polygon fill="black" stroke="black" points="625.5,-307.2 622,-297.2 618.5,-307.2 625.5,-307.2"/>
<text text-anchor="middle" x="640.5" y="-318.8" font-family="Times,serif" font-size="14.00">सम्बन्धः</text>
</g>
<!-- Node8_1 -->
<g id="node12" class="node">
<title>Node8_1</title>
<ellipse fill="#b4ffb4" stroke="#b4ffb4" cx="720" cy="-279" rx="47.39" ry="18"/>
<text text-anchor="middle" x="720" y="-275.3" font-family="Times,serif" font-size="14.00">स्नेहात्(8.1)</text>
</g>
<!-- Node8_1&#45;&gt;Node6_2 -->
<g id="edge7" class="edge">
<title>Node8_1&#45;&gt;Node6_2</title>
<path fill="none" stroke="black" d="M694.57,-302.44C684.73,-311.08 673.37,-321.03 663,-330 655.78,-336.25 647.81,-343.07 640.82,-349.02"/>
<polygon fill="black" stroke="black" points="696.89,-305.06 702.08,-295.83 692.26,-299.8 696.89,-305.06"/>
<text text-anchor="middle" x="687.5" y="-318.8" font-family="Times,serif" font-size="14.00">हेतुः</text>
</g>
<!-- Node9_1 -->
<g id="node13" class="node">
<title>Node9_1</title>
<ellipse fill="#ffff00" stroke="#ffff00" cx="281" cy="-105" rx="48.19" ry="18"/>
<text text-anchor="middle" x="281" y="-101.3" font-family="Times,serif" font-size="14.00">विनय&#45;(9.1)</text>
</g>
<!-- Node9_1&#45;&gt;Node9_2 -->
<g id="edge8" class="edge">
<title>Node9_1&#45;&gt;Node9_2</title>
<path fill="none" stroke="black" d="M281.96,-133.27C282.43,-146.58 282.98,-162.19 283.39,-173.82"/>
<polygon fill="black" stroke="black" points="285.46,-133.07 281.61,-123.2 278.46,-133.32 285.46,-133.07"/>
<text text-anchor="middle" x="319.5" y="-144.8" font-family="Times,serif" font-size="14.00">तृतीया&#45;तत्पुरुषः</text>
</g>
<!-- Node10_1 -->
<g id="node14" class="node">
<title>Node10_1</title>
<ellipse fill="#ffff00" stroke="#ffff00" cx="402" cy="-18" rx="54.69" ry="18"/>
<text text-anchor="middle" x="402" y="-14.3" font-family="Times,serif" font-size="14.00">सुमित्रा&#45;(10.1)</text>
</g>
<!-- Node10_2 -->
<g id="node15" class="node">
<title>Node10_2</title>
<ellipse fill="#ffff00" stroke="#ffff00" cx="402" cy="-105" rx="55.49" ry="18"/>
<text text-anchor="middle" x="402" y="-101.3" font-family="Times,serif" font-size="14.00">आनन्द&#45;(10.2)</text>
</g>
<!-- Node10_1&#45;&gt;Node10_2 -->
<g id="edge10" class="edge">
<title>Node10_1&#45;&gt;Node10_2</title>
<path fill="none" stroke="black" d="M402,-46.27C402,-59.58 402,-75.19 402,-86.82"/>
<polygon fill="black" stroke="black" points="405.5,-46.2 402,-36.2 398.5,-46.2 405.5,-46.2"/>
<text text-anchor="middle" x="432.5" y="-57.8" font-family="Times,serif" font-size="14.00">षष्ठी&#45;तत्पुरुषः</text>
</g>
<!-- Node10_2&#45;&gt;Node10_3 -->
<g id="edge11" class="edge">
<title>Node10_2&#45;&gt;Node10_3</title>
<path fill="none" stroke="black" d="M402,-133.27C402,-146.58 402,-162.19 402,-173.82"/>
<polygon fill="black" stroke="black" points="405.5,-133.2 402,-123.2 398.5,-133.2 405.5,-133.2"/>
<text text-anchor="middle" x="432.5" y="-144.8" font-family="Times,serif" font-size="14.00">षष्ठी&#45;तत्पुरुषः</text>
</g>
<!-- Node13_1 -->
<g id="node16" class="node">
<title>Node13_1</title>
<ellipse fill="#87ceeb" stroke="#87ceeb" cx="522" cy="-105" rx="46.59" ry="18"/>
<text text-anchor="middle" x="522" y="-101.3" font-family="Times,serif" font-size="14.00">भ्रातुः(13.1)</text>
</g>
<!-- Node13_1&#45;&gt;Node12_1 -->
<g id="edge15" class="edge">
<title>Node13_1&#45;&gt;Node12_1</title>
<path fill="none" stroke="black" d="M522,-133.27C522,-146.58 522,-162.19 522,-173.82"/>
<polygon fill="black" stroke="black" points="525.5,-133.2 522,-123.2 518.5,-133.2 525.5,-133.2"/>
<text text-anchor="middle" x="550" y="-144.8" font-family="Times,serif" font-size="14.00">षष्ठीसम्बन्धः</text>
</g>
<!-- Node14_1 -->
<g id="node17" class="node">
<title>Node14_1</title>
<ellipse fill="#93db70" stroke="#93db70" cx="849" cy="-192" rx="56.59" ry="18"/>
<text text-anchor="middle" x="849" y="-188.3" font-family="Times,serif" font-size="14.00">सौभ्रात्रम्(14.1)</text>
</g>
<!-- Node15_1 -->
<g id="node18" class="node">
<title>Node15_1</title>
<ellipse fill="#00bfff" stroke="#00bfff" cx="849" cy="-279" rx="63.89" ry="18"/>
<text text-anchor="middle" x="849" y="-275.3" font-family="Times,serif" font-size="14.00">अनुदर्शयन्(15.1)</text>
</g>
<!-- Node14_1&#45;&gt;Node15_1 -->
<g id="edge16" class="edge">
<title>Node14_1&#45;&gt;Node15_1</title>
<path fill="none" stroke="black" d="M849,-220.27C849,-233.58 849,-249.19 849,-260.82"/>
<polygon fill="black" stroke="black" points="852.5,-220.2 849,-210.2 845.5,-220.2 852.5,-220.2"/>
<text text-anchor="middle" x="858" y="-231.8" font-family="Times,serif" font-size="14.00">कर्म</text>
</g>
<!-- Node15_1&#45;&gt;Node6_2 -->
<g id="edge17" class="edge">
<title>Node15_1&#45;&gt;Node6_2</title>
<path fill="none" stroke="black" d="M802.86,-297.28C759.76,-313.42 696.33,-337.17 657.18,-351.83"/>
<polygon fill="black" stroke="black" points="804.14,-300.54 812.28,-293.75 801.68,-293.98 804.14,-300.54"/>
<text text-anchor="middle" x="792.5" y="-318.8" font-family="Times,serif" font-size="14.00">वर्तमानसमानकालः</text>
</g>
</g>
</svg>
