<svg width="822pt" height="437pt"
 viewBox="0.00 0.00 822.33 437.00" xmlns="http://www.w3.org/2000/svg" xmlns:xlink="http://www.w3.org/1999/xlink">
<g id="graph0" class="graph" transform="scale(1 1) rotate(0) translate(4 433)">
<title>G</title>
<polygon fill="#fffacd" stroke="transparent" points="-4,4 -4,-433 818.33,-433 818.33,4 -4,4"/>
<g id="clust1" class="cluster">
<title>cluster_1</title>
<polygon fill="#fffacd" stroke="black" points="269.23,-211 269.23,-350 371.23,-350 371.23,-211 269.23,-211"/>
</g>
<!-- Node4_1 -->
<style>
 .hidden { display: none; }
 .node { cursor: pointer; }
 </style>
<script>
     function toggleChildren(id) {
      const children = document.getElementById(id);
      if (children.classList.contains('hidden')) {
        children.classList.remove('hidden');
      } else {
        children.classList.add('hidden');
      }
    }
</script>
<g id="children_node1" class="hidden">
    <g class="node" onclick="toggleChildren('children_node1');">

<g id="node1" class="node">
<title>Node4_1</title>
<ellipse fill="#ffff00" stroke="#ffff00" cx="58.23" cy="-18" rx="27" ry="18"/>
<text text-anchor="middle" x="58.23" y="-14.3" font-family="Times,serif" font-size="14.00">पुत्र&#45;</text>
</g>
<!-- Node4_2 -->
<g id="node2" class="node">
<title>Node4_2</title>
<ellipse fill="#ffff00" stroke="#ffff00" cx="149.23" cy="-18" rx="28.7" ry="18"/>
<text text-anchor="middle" x="149.23" y="-14.3" font-family="Times,serif" font-size="14.00">शोक&#45;</text>
</g>
<!-- Node4_1&#45;&gt;Node4_2 -->
<!-- Node4_2_1 -->
<g id="node3" class="node">
<title>Node4_2_1</title>
<ellipse fill="#ffff00" stroke="#ffff00" cx="103.23" cy="-91" rx="100.18" ry="18"/>
<text text-anchor="middle" x="103.23" y="-87.3" font-family="Times,serif" font-size="14.00">&lt;पुत्र&#45;&#45;शोक&#45;&gt;(षष्ठी&#45;तत्पुरुषः)</text>
</g>
<!-- Node4_1&#45;&gt;Node4_2_1 -->
<g id="edge2" class="edge">
<title>Node4_1&#45;&gt;Node4_2_1</title>
<path fill="none" stroke="black" d="M73.63,-43.3C79.84,-53.09 86.85,-64.15 92.49,-73.05"/>
<polygon fill="black" stroke="black" points="76.53,-41.33 68.22,-34.76 70.62,-45.08 76.53,-41.33"/>
</g>
<!-- Node4_2&#45;&gt;Node4_2_1 -->
<g id="edge1" class="edge">
<title>Node4_2&#45;&gt;Node4_2_1</title>
<path fill="none" stroke="black" d="M133.31,-43.58C127.03,-53.27 119.97,-64.16 114.27,-72.96"/>
<polygon fill="black" stroke="black" points="136.3,-45.41 138.8,-35.11 130.42,-41.6 136.3,-45.41"/>
</g>
<!-- Node4_3 -->
<g id="node4" class="node">
<title>Node4_3</title>
<ellipse fill="#ffff00" stroke="#ffff00" cx="268.23" cy="-91" rx="29.8" ry="18"/>
<text text-anchor="middle" x="268.23" y="-87.3" font-family="Times,serif" font-size="14.00">आतुरः</text>
</g>
<!-- Node4_2_1&#45;&gt;Node4_3 -->
<!-- Node4_3_2 -->
<g id="node5" class="node">
<title>Node4_3_2</title>
<ellipse fill="#ffff00" stroke="#ffff00" cx="185.23" cy="-164" rx="185.47" ry="18"/>
<text text-anchor="middle" x="185.23" y="-160.3" font-family="Times,serif" font-size="14.00">&lt;&lt;पुत्र&#45;&#45;शोक&#45;&gt;(षष्ठी&#45;तत्पुरुषः)&#45;आतुरः&gt;(तृतीया&#45;तत्पुरुषः)</text>
</g>
<!-- Node4_2_1&#45;&gt;Node4_3_2 -->
<g id="edge5" class="edge">
<title>Node4_2_1&#45;&gt;Node4_3_2</title>
<path fill="none" stroke="black" d="M130.34,-115.47C141.88,-125.46 155.09,-136.9 165.66,-146.05"/>
<polygon fill="black" stroke="black" points="132.52,-112.73 122.67,-108.83 127.94,-118.02 132.52,-112.73"/>
</g>
<!-- Node4_3&#45;&gt;Node4_3_2 -->
<g id="edge4" class="edge">
<title>Node4_3&#45;&gt;Node4_3_2</title>
<path fill="none" stroke="black" d="M243.77,-112.92C231.5,-123.42 216.81,-135.99 205.22,-145.9"/>
<polygon fill="black" stroke="black" points="246.11,-115.53 251.44,-106.37 241.56,-110.21 246.11,-115.53"/>
</g>
<!-- Node4_3_2&#45;&gt;Node4_3_2c -->
<g id="edge7" class="edge">
<title>Node4_3_2&#45;&gt;Node4_3_2c</title>
<path fill="none" stroke="black" d="M185.23,-192.25C185.23,-201.23 185.23,-210.97 185.23,-218.97"/>
<polygon fill="black" stroke="black" points="188.73,-192.19 185.23,-182.19 181.73,-192.19 188.73,-192.19"/>
</g>
</g>
</g>
<!-- Node4_3_2c -->
<g class="node6" onclick="toggleChildren('children_node1');">
<title>Node4_3_2c</title>
<ellipse fill="#00bfff" stroke="#00bfff" cx="185.23" cy="-237" rx="76.09" ry="18"/>
<text text-anchor="middle" x="185.23" y="-233.3" font-family="Times,serif" font-size="14.00">पुत्र&#45;&#45;शोक&#45;&#45;आतुरः(4)</text>
</g>
<!-- Node7_1 -->
<g id="node8" class="node">
<title>Node7_1</title>
<ellipse fill="#00bfff" stroke="#00bfff" cx="320.23" cy="-324" rx="42.79" ry="18"/>
<text text-anchor="middle" x="320.23" y="-320.3" font-family="Times,serif" font-size="14.00">दशरथः(7)</text>
</g>
<!-- Node4_3_2c&#45;&gt;Node7_1 -->
<g id="edge8" class="edge">
<title>Node4_3_2c&#45;&gt;Node7_1</title>
<path fill="none" stroke="black" d="M219.22,-259.4C243.59,-274.75 275.78,-295.01 297.21,-308.5"/>
<polygon fill="black" stroke="black" points="220.95,-256.35 210.63,-253.99 217.22,-262.28 220.95,-256.35"/>
<text text-anchor="middle" x="284.73" y="-276.8" font-family="Times,serif" font-size="14.00">विशेषणम्</text>
</g>
<!-- Node6_1 -->
<g id="node7" class="node">
<title>Node6_1</title>
<ellipse fill="#00bfff" stroke="#00bfff" cx="316.23" cy="-237" rx="34.39" ry="18"/>
<text text-anchor="middle" x="316.23" y="-233.3" font-family="Times,serif" font-size="14.00">राजा(6)</text>
</g>
<!-- Node6_1&#45;&gt;Node7_1 -->
<g id="edge13" class="edge">
<title>Node6_1&#45;&gt;Node7_1</title>
<path fill="none" stroke="black" d="M317.52,-265.27C318.14,-278.58 318.88,-294.19 319.43,-305.82"/>
<polygon fill="black" stroke="black" points="321.01,-265.03 317.04,-255.2 314.02,-265.35 321.01,-265.03"/>
<text text-anchor="middle" x="341.73" y="-276.8" font-family="Times,serif" font-size="14.00">विशेषणम्</text>
</g>
<!-- Node9_1 -->
<g id="node11" class="node">
<title>Node9_1</title>
<ellipse fill="#ff1975" stroke="#ff1975" cx="565.23" cy="-411" rx="38.99" ry="18"/>
<text text-anchor="middle" x="565.23" y="-407.3" font-family="Times,serif" font-size="14.00">जगाम(9)</text>
</g>
<!-- Node7_1&#45;&gt;Node9_1 -->
<g id="edge14" class="edge">
<title>Node7_1&#45;&gt;Node9_1</title>
<path fill="none" stroke="black" d="M348.03,-346.34C362.34,-356.39 380.48,-367.74 398.23,-375 440.73,-392.39 492.99,-401.55 527.61,-406.07"/>
<polygon fill="black" stroke="black" points="349.81,-343.31 339.65,-340.3 345.71,-348.99 349.81,-343.31"/>
<text text-anchor="middle" x="409.23" y="-363.8" font-family="Times,serif" font-size="14.00">कर्ता</text>
</g>
<!-- Node1_1 -->
<g id="node9" class="node">
<title>Node1_1</title>
<ellipse fill="#93db70" stroke="#93db70" cx="428.23" cy="-237" rx="48.99" ry="18"/>
<text text-anchor="middle" x="428.23" y="-233.3" font-family="Times,serif" font-size="14.00">चित्रकूटम्(1)</text>
</g>
<!-- Node2_1 -->
<g id="node10" class="node">
<title>Node2_1</title>
<ellipse fill="#c6e2eb" stroke="#c6e2eb" cx="428.23" cy="-324" rx="30.59" ry="18"/>
<text text-anchor="middle" x="428.23" y="-320.3" font-family="Times,serif" font-size="14.00">गते(2)</text>
</g>
<!-- Node1_1&#45;&gt;Node2_1 -->
<g id="edge9" class="edge">
<title>Node1_1&#45;&gt;Node2_1</title>
<path fill="none" stroke="black" d="M428.23,-265.27C428.23,-278.58 428.23,-294.19 428.23,-305.82"/>
<polygon fill="black" stroke="black" points="431.73,-265.2 428.23,-255.2 424.73,-265.2 431.73,-265.2"/>
<text text-anchor="middle" x="437.23" y="-276.8" font-family="Times,serif" font-size="14.00">कर्म</text>
</g>
<!-- Node2_1&#45;&gt;Node9_1 -->
<g id="edge10" class="edge">
<title>Node2_1&#45;&gt;Node9_1</title>
<path fill="none" stroke="black" d="M424.09,-352.35C424.29,-360.41 426.09,-368.74 431.23,-375 443.44,-389.86 492.73,-399.82 527.99,-405.2"/>
<polygon fill="black" stroke="black" points="427.6,-352.27 424.59,-342.11 420.61,-351.93 427.6,-352.27"/>
<text text-anchor="middle" x="496.23" y="-363.8" font-family="Times,serif" font-size="14.00">भावलक्षणसप्तमी_पूर्वकालः</text>
</g>
<!-- Node3_1 -->
<g id="node12" class="node">
<title>Node3_1</title>
<ellipse fill="#c6e2eb" stroke="#c6e2eb" cx="526.23" cy="-237" rx="31.4" ry="18"/>
<text text-anchor="middle" x="526.23" y="-233.3" font-family="Times,serif" font-size="14.00">रामे(3)</text>
</g>
<!-- Node3_1&#45;&gt;Node2_1 -->
<g id="edge11" class="edge">
<title>Node3_1&#45;&gt;Node2_1</title>
<path fill="none" stroke="black" d="M501.87,-259.13C484.01,-274.62 460.25,-295.23 444.61,-308.79"/>
<polygon fill="black" stroke="black" points="504.35,-261.62 509.61,-252.42 499.76,-256.33 504.35,-261.62"/>
<text text-anchor="middle" x="509.73" y="-276.8" font-family="Times,serif" font-size="14.00">अधिकरणम्</text>
</g>
<!-- Node5_1 -->
<g id="node13" class="node">
<title>Node5_1</title>
<ellipse fill="#ff99ff" stroke="#ff99ff" cx="565.23" cy="-324" rx="34.39" ry="18"/>
<text text-anchor="middle" x="565.23" y="-320.3" font-family="Times,serif" font-size="14.00">तथा(5)</text>
</g>
<!-- Node5_1&#45;&gt;Node9_1 -->
<g id="edge12" class="edge">
<title>Node5_1&#45;&gt;Node9_1</title>
<path fill="none" stroke="black" d="M565.23,-352.27C565.23,-365.58 565.23,-381.19 565.23,-392.82"/>
<polygon fill="black" stroke="black" points="568.73,-352.2 565.23,-342.2 561.73,-352.2 568.73,-352.2"/>
<text text-anchor="middle" x="601.73" y="-363.8" font-family="Times,serif" font-size="14.00">क्रियाविशेषणम्</text>
</g>
<!-- Node8_1 -->
<g id="node14" class="node">
<title>Node8_1</title>
<ellipse fill="#93db70" stroke="#93db70" cx="661.23" cy="-324" rx="38.99" ry="18"/>
<text text-anchor="middle" x="661.23" y="-320.3" font-family="Times,serif" font-size="14.00">स्वर्गम्(8)</text>
</g>
<!-- Node8_1&#45;&gt;Node9_1 -->
<g id="edge15" class="edge">
<title>Node8_1&#45;&gt;Node9_1</title>
<path fill="none" stroke="black" d="M653.67,-351.45C650.29,-359.76 645.6,-368.45 639.23,-375 627.84,-386.71 611.75,-394.97 597.48,-400.5"/>
<polygon fill="black" stroke="black" points="656.96,-352.63 657.04,-342.04 650.37,-350.27 656.96,-352.63"/>
<text text-anchor="middle" x="658.23" y="-363.8" font-family="Times,serif" font-size="14.00">कर्म</text>
</g>
<!-- Node10_1 -->
<g id="node15" class="node">
<title>Node10_1</title>
<ellipse fill="#00bfff" stroke="#00bfff" cx="766.23" cy="-324" rx="48.19" ry="18"/>
<text text-anchor="middle" x="766.23" y="-320.3" font-family="Times,serif" font-size="14.00">विलपन्(10)</text>
</g>
<!-- Node10_1&#45;&gt;Node9_1 -->
<g id="edge16" class="edge">
<title>Node10_1&#45;&gt;Node9_1</title>
<path fill="none" stroke="black" d="M732.5,-344.5C714.63,-354.38 692.12,-366.13 671.23,-375 647.15,-385.23 618.99,-394.4 597.75,-400.79"/>
<polygon fill="black" stroke="black" points="734.36,-347.47 741.38,-339.53 730.95,-341.36 734.36,-347.47"/>
<text text-anchor="middle" x="743.73" y="-363.8" font-family="Times,serif" font-size="14.00">वर्तमानसमानकालः</text>
</g>
<!-- Node4_3_2c -->
<g class="node6" onclick="toggleChildren('children_node1');">
<title>Node4_3_2c</title>
<ellipse fill="#00bfff" stroke="#00bfff" cx="185.23" cy="-237" rx="76.09" ry="18"/>
<text text-anchor="middle" x="185.23" y="-233.3" font-family="Times,serif" font-size="14.00">पुत्र&#45;&#45;शोक&#45;&#45;आतुरः(4)</text>
</g>
<!-- Node11_1 -->
<g id="node16" class="node">
<title>Node11_1</title>
<ellipse fill="#93db70" stroke="#93db70" cx="766.23" cy="-237" rx="40.09" ry="18"/>
<text text-anchor="middle" x="766.23" y="-233.3" font-family="Times,serif" font-size="14.00">सुतम्(11)</text>
</g>
<!-- Node11_1&#45;&gt;Node10_1 -->
<g id="edge17" class="edge">
<title>Node11_1&#45;&gt;Node10_1</title>
<path fill="none" stroke="black" d="M766.23,-265.27C766.23,-278.58 766.23,-294.19 766.23,-305.82"/>
<polygon fill="black" stroke="black" points="769.73,-265.2 766.23,-255.2 762.73,-265.2 769.73,-265.2"/>
<text text-anchor="middle" x="775.23" y="-276.8" font-family="Times,serif" font-size="14.00">कर्म</text>
</g>
</g>
</svg>
