<?xml version="1.0" encoding="UTF-8" standalone="no"?>
<!DOCTYPE svg PUBLIC "-//W3C//DTD SVG 1.1//EN"
 "http://www.w3.org/Graphics/SVG/1.1/DTD/svg11.dtd">
<!-- Generated by graphviz version 2.50.0 (20211204.2007)
 -->
<!-- Title: G Pages: 1 -->
<svg width="804pt" height="305pt"
 viewBox="0.00 0.00 803.75 305.00" xmlns="http://www.w3.org/2000/svg" xmlns:xlink="http://www.w3.org/1999/xlink">
<g id="graph0" class="graph" transform="scale(1 1) rotate(0) translate(4 301)">
<title>G</title>
<polygon fill="#fffacd" stroke="transparent" points="-4,4 -4,-301 799.75,-301 799.75,4 -4,4"/>
<!-- Node1_1 -->
<g id="node1" class="node">
<title>Node1_1</title>
<ellipse fill="#00bfff" stroke="#00bfff" cx="35.75" cy="-105" rx="36" ry="18"/>
<text text-anchor="middle" x="35.75" y="-101.3" font-family="Times,serif" font-size="14.00">सः(1.1)</text>
</g>
<!-- Node8_1 -->
<g id="node2" class="node">
<title>Node8_1</title>
<ellipse fill="#ff1975" stroke="#ff1975" cx="447.75" cy="-279" rx="50.89" ry="18"/>
<text text-anchor="middle" x="447.75" y="-275.3" font-family="Times,serif" font-size="14.00">अकरोत्(8.1)</text>
</g>
<!-- Node1_1&#45;&gt;Node8_1 -->
<g id="edge1" class="edge">
<title>Node1_1&#45;&gt;Node8_1</title>
<path fill="none" stroke="black" d="M57.02,-128.91C80.43,-152.73 120.27,-189.36 161.75,-210 239.65,-248.77 340.65,-266.06 399.42,-273.28"/>
<polygon fill="black" stroke="black" points="59.49,-126.42 50.02,-121.66 54.45,-131.28 59.49,-126.42"/>
<text text-anchor="middle" x="172.75" y="-188.3" font-family="Times,serif" font-size="14.00">कर्ता</text>
</g>
<!-- Node3_2 -->
<g id="node3" class="node">
<title>Node3_2</title>
<ellipse fill="#ff99ff" stroke="#ff99ff" cx="241.75" cy="-192" rx="49.29" ry="18"/>
<text text-anchor="middle" x="241.75" y="-188.3" font-family="Times,serif" font-size="14.00">अवाप्य(3.2)</text>
</g>
<!-- Node1_1&#45;&gt;Node3_2 -->
<g id="edge2" class="edge">
<title>Node1_1&#45;&gt;Node3_2</title>
<path fill="none" stroke="black" stroke-dasharray="1,5" d="M72.09,-121.03C96.12,-130.97 128.31,-144.27 156.75,-156 174.45,-163.3 194.23,-171.45 210.26,-178.04"/>
<polygon fill="black" stroke="black" points="73.23,-117.72 62.66,-117.13 70.56,-124.19 73.23,-117.72"/>
<text text-anchor="middle" x="167.75" y="-144.8" font-family="Times,serif" font-size="14.00">कर्ता</text>
</g>
<!-- Node3_2&#45;&gt;Node8_1 -->
<g id="edge5" class="edge">
<title>Node3_2&#45;&gt;Node8_1</title>
<path fill="none" stroke="black" d="M277.24,-212.07C296.35,-221.96 320.51,-233.84 342.75,-243 364.6,-252 389.69,-260.43 409.87,-266.76"/>
<polygon fill="black" stroke="black" points="278.77,-208.92 268.29,-207.4 275.53,-215.13 278.77,-208.92"/>
<text text-anchor="middle" x="364.25" y="-231.8" font-family="Times,serif" font-size="14.00">पूर्वकालः</text>
</g>
<!-- Node2_1 -->
<g id="node4" class="node">
<title>Node2_1</title>
<ellipse fill="#93db70" stroke="#93db70" cx="135.75" cy="-105" rx="46.29" ry="18"/>
<text text-anchor="middle" x="135.75" y="-101.3" font-family="Times,serif" font-size="14.00">कामम्(2.1)</text>
</g>
<!-- Node2_1&#45;&gt;Node3_2 -->
<g id="edge3" class="edge">
<title>Node2_1&#45;&gt;Node3_2</title>
<path fill="none" stroke="black" d="M163.23,-128.04C181.67,-142.83 205.52,-161.95 222.07,-175.22"/>
<polygon fill="black" stroke="black" points="165.18,-125.12 155.19,-121.59 160.8,-130.58 165.18,-125.12"/>
<text text-anchor="middle" x="204.75" y="-144.8" font-family="Times,serif" font-size="14.00">कर्म</text>
</g>
<!-- Node3_1 -->
<g id="node5" class="node">
<title>Node3_1</title>
<ellipse fill="#ffff00" stroke="#ffff00" cx="241.75" cy="-105" rx="41.69" ry="18"/>
<text text-anchor="middle" x="241.75" y="-101.3" font-family="Times,serif" font-size="14.00">अन्&#45;(3.1)</text>
</g>
<!-- Node3_1&#45;&gt;Node3_2 -->
<g id="edge4" class="edge">
<title>Node3_1&#45;&gt;Node3_2</title>
<path fill="none" stroke="black" d="M241.75,-133.27C241.75,-146.58 241.75,-162.19 241.75,-173.82"/>
<polygon fill="black" stroke="black" points="245.25,-133.2 241.75,-123.2 238.25,-133.2 245.25,-133.2"/>
<text text-anchor="middle" x="270.75" y="-144.8" font-family="Times,serif" font-size="14.00">नञ्&#45;तत्पुरुषः</text>
</g>
<!-- Node4_1 -->
<g id="node6" class="node">
<title>Node4_1</title>
<ellipse fill="#ff99ff" stroke="#ff99ff" cx="338.75" cy="-105" rx="37.89" ry="18"/>
<text text-anchor="middle" x="338.75" y="-101.3" font-family="Times,serif" font-size="14.00">एव(4.1)</text>
</g>
<!-- Node4_1&#45;&gt;Node3_2 -->
<g id="edge6" class="edge">
<title>Node4_1&#45;&gt;Node3_2</title>
<path fill="none" stroke="black" d="M324.24,-131.28C318.57,-139.79 311.55,-148.92 303.75,-156 294.32,-164.56 282.44,-171.89 271.61,-177.61"/>
<polygon fill="black" stroke="black" points="327.26,-133.06 329.64,-122.74 321.34,-129.32 327.26,-133.06"/>
<text text-anchor="middle" x="336.25" y="-144.8" font-family="Times,serif" font-size="14.00">सम्बन्धः</text>
</g>
<!-- Node5_1 -->
<g id="node7" class="node">
<title>Node5_1</title>
<ellipse fill="#ffff00" stroke="#ffff00" cx="436.75" cy="-18" rx="40.89" ry="18"/>
<text text-anchor="middle" x="436.75" y="-14.3" font-family="Times,serif" font-size="14.00">राम&#45;(5.1)</text>
</g>
<!-- Node5_2 -->
<g id="node8" class="node">
<title>Node5_2</title>
<ellipse fill="#93db70" stroke="#93db70" cx="436.75" cy="-105" rx="42.49" ry="18"/>
<text text-anchor="middle" x="436.75" y="-101.3" font-family="Times,serif" font-size="14.00">पादौ(5.2)</text>
</g>
<!-- Node5_1&#45;&gt;Node5_2 -->
<g id="edge7" class="edge">
<title>Node5_1&#45;&gt;Node5_2</title>
<path fill="none" stroke="black" d="M436.75,-46.27C436.75,-59.58 436.75,-75.19 436.75,-86.82"/>
<polygon fill="black" stroke="black" points="440.25,-46.2 436.75,-36.2 433.25,-46.2 440.25,-46.2"/>
<text text-anchor="middle" x="467.25" y="-57.8" font-family="Times,serif" font-size="14.00">षष्ठी&#45;तत्पुरुषः</text>
</g>
<!-- Node6_1 -->
<g id="node9" class="node">
<title>Node6_1</title>
<ellipse fill="#00bfff" stroke="#00bfff" cx="390.75" cy="-192" rx="55.79" ry="18"/>
<text text-anchor="middle" x="390.75" y="-188.3" font-family="Times,serif" font-size="14.00">उपस्पृशन्(6.1)</text>
</g>
<!-- Node5_2&#45;&gt;Node6_1 -->
<g id="edge8" class="edge">
<title>Node5_2&#45;&gt;Node6_1</title>
<path fill="none" stroke="black" d="M422.82,-131.74C415.41,-145.42 406.52,-161.86 399.97,-173.95"/>
<polygon fill="black" stroke="black" points="425.98,-133.25 427.66,-122.79 419.82,-129.92 425.98,-133.25"/>
<text text-anchor="middle" x="425.75" y="-144.8" font-family="Times,serif" font-size="14.00">कर्म</text>
</g>
<!-- Node6_1&#45;&gt;Node8_1 -->
<g id="edge9" class="edge">
<title>Node6_1&#45;&gt;Node8_1</title>
<path fill="none" stroke="black" d="M387.93,-220.44C388.29,-228.17 389.83,-236.29 393.75,-243 399.04,-252.07 407.72,-259.2 416.6,-264.59"/>
<polygon fill="black" stroke="black" points="391.43,-220.37 388.07,-210.32 384.43,-220.27 391.43,-220.37"/>
<text text-anchor="middle" x="437.25" y="-231.8" font-family="Times,serif" font-size="14.00">वर्तमानसमानकालः</text>
</g>
<!-- Node7_1 -->
<g id="node10" class="node">
<title>Node7_1</title>
<ellipse fill="#ffff00" stroke="#ffff00" cx="540.75" cy="-105" rx="44.39" ry="18"/>
<text text-anchor="middle" x="540.75" y="-101.3" font-family="Times,serif" font-size="14.00">नन्दि&#45;(7.1)</text>
</g>
<!-- Node7_2 -->
<g id="node11" class="node">
<title>Node7_2</title>
<ellipse fill="#c6e2eb" stroke="#c6e2eb" cx="504.75" cy="-192" rx="40.09" ry="18"/>
<text text-anchor="middle" x="504.75" y="-188.3" font-family="Times,serif" font-size="14.00">ग्रामे(7.2)</text>
</g>
<!-- Node7_1&#45;&gt;Node7_2 -->
<g id="edge10" class="edge">
<title>Node7_1&#45;&gt;Node7_2</title>
<path fill="none" stroke="black" d="M529.65,-132.2C523.85,-145.9 516.92,-162.26 511.84,-174.24"/>
<polygon fill="black" stroke="black" points="532.96,-133.37 533.63,-122.79 526.51,-130.64 532.96,-133.37"/>
<text text-anchor="middle" x="547.25" y="-144.8" font-family="Times,serif" font-size="14.00">कर्मधारय</text>
</g>
<!-- Node7_2&#45;&gt;Node8_1 -->
<g id="edge11" class="edge">
<title>Node7_2&#45;&gt;Node8_1</title>
<path fill="none" stroke="black" d="M494.04,-219.17C490.31,-227.11 485.78,-235.66 480.75,-243 476.21,-249.61 470.43,-256.18 464.99,-261.82"/>
<polygon fill="black" stroke="black" points="497.29,-220.47 498.18,-209.92 490.9,-217.62 497.29,-220.47"/>
<text text-anchor="middle" x="517.25" y="-231.8" font-family="Times,serif" font-size="14.00">अधिकरणम्</text>
</g>
<!-- Node9_1 -->
<g id="node12" class="node">
<title>Node9_1</title>
<ellipse fill="#93db70" stroke="#93db70" cx="609.75" cy="-192" rx="46.59" ry="18"/>
<text text-anchor="middle" x="609.75" y="-188.3" font-family="Times,serif" font-size="14.00">राज्यम्(9.1)</text>
</g>
<!-- Node9_1&#45;&gt;Node8_1 -->
<g id="edge12" class="edge">
<title>Node9_1&#45;&gt;Node8_1</title>
<path fill="none" stroke="black" d="M585.9,-215.87C575.19,-225.24 561.98,-235.59 548.75,-243 529.64,-253.69 506.68,-261.96 487.49,-267.77"/>
<polygon fill="black" stroke="black" points="588.49,-218.25 593.58,-208.96 583.8,-213.05 588.49,-218.25"/>
<text text-anchor="middle" x="579.75" y="-231.8" font-family="Times,serif" font-size="14.00">कर्म</text>
</g>
<!-- Node10_1 -->
<g id="node13" class="node">
<title>Node10_1</title>
<ellipse fill="#ffff00" stroke="#ffff00" cx="734.75" cy="-18" rx="45.49" ry="18"/>
<text text-anchor="middle" x="734.75" y="-14.3" font-family="Times,serif" font-size="14.00">राम&#45;(10.1)</text>
</g>
<!-- Node10_2 -->
<g id="node14" class="node">
<title>Node10_2</title>
<ellipse fill="#ffff00" stroke="#ffff00" cx="734.75" cy="-105" rx="57.69" ry="18"/>
<text text-anchor="middle" x="734.75" y="-101.3" font-family="Times,serif" font-size="14.00">आगमन&#45;(10.2)</text>
</g>
<!-- Node10_1&#45;&gt;Node10_2 -->
<g id="edge13" class="edge">
<title>Node10_1&#45;&gt;Node10_2</title>
<path fill="none" stroke="black" d="M734.75,-46.27C734.75,-59.58 734.75,-75.19 734.75,-86.82"/>
<polygon fill="black" stroke="black" points="738.25,-46.2 734.75,-36.2 731.25,-46.2 738.25,-46.2"/>
<text text-anchor="middle" x="765.25" y="-57.8" font-family="Times,serif" font-size="14.00">षष्ठी&#45;तत्पुरुषः</text>
</g>
<!-- Node10_3 -->
<g id="node15" class="node">
<title>Node10_3</title>
<ellipse fill="#40e0d0" stroke="#40e0d0" cx="734.75" cy="-192" rx="60.39" ry="18"/>
<text text-anchor="middle" x="734.75" y="-188.3" font-family="Times,serif" font-size="14.00">काङ्क्षया(10.3)</text>
</g>
<!-- Node10_2&#45;&gt;Node10_3 -->
<g id="edge14" class="edge">
<title>Node10_2&#45;&gt;Node10_3</title>
<path fill="none" stroke="black" d="M734.75,-133.27C734.75,-146.58 734.75,-162.19 734.75,-173.82"/>
<polygon fill="black" stroke="black" points="738.25,-133.2 734.75,-123.2 731.25,-133.2 738.25,-133.2"/>
<text text-anchor="middle" x="765.25" y="-144.8" font-family="Times,serif" font-size="14.00">षष्ठी&#45;तत्पुरुषः</text>
</g>
<!-- Node10_3&#45;&gt;Node8_1 -->
<g id="edge15" class="edge">
<title>Node10_3&#45;&gt;Node8_1</title>
<path fill="none" stroke="black" d="M689.76,-210.16C662.02,-220.41 625.59,-233.28 592.75,-243 558.48,-253.14 519.02,-262.52 489.93,-269.01"/>
<polygon fill="black" stroke="black" points="691.03,-213.42 699.18,-206.65 688.59,-206.86 691.03,-213.42"/>
<text text-anchor="middle" x="646.25" y="-231.8" font-family="Times,serif" font-size="14.00">हेतुः</text>
</g>
</g>
</svg>
