<svg width="270pt" height="408pt"
 viewBox="0.00 0.00 270.30 408.00" xmlns="http://www.w3.org/2000/svg" xmlns:xlink="http://www.w3.org/1999/xlink">
<g id="graph0" class="graph" transform="scale(1 1) rotate(0) translate(4 404)">
<title>G</title>
<polygon fill="#fffacd" stroke="transparent" points="-4,4 -4,-404 266.3,-404 266.3,4 -4,4"/>
<g id="clust1" class="cluster">
<title>cluster_1</title>
<polygon fill="#fffacd" stroke="black" points="8,-8 8,-147 92,-147 92,-8 8,-8"/>
</g>
<!-- Node3_1 -->
<style>
 .hidden { display: none; }
 .node { cursor: pointer; }
 </style>
<script>
     function toggleChildren(id) {
      const children = document.getElementById(id);
      if (children.classList.contains('hidden')) {
        children.classList.remove('hidden');
      } else {
        children.classList.add('hidden');
      }
    }
</script>

<g id="node1" class="node">
<title>Node3_1</title>
<ellipse fill="#00bfff" stroke="#00bfff" cx="50" cy="-34" rx="34.39" ry="18"/>
<text text-anchor="middle" x="50" y="-30.3" font-family="Times,serif" font-size="14.00">राजा(3)</text>
</g>
<!-- Node1_1 -->
<g id="node2" class="node">
<title>Node1_1</title>
<ellipse fill="#00bfff" stroke="#00bfff" cx="51" cy="-121" rx="33.29" ry="18"/>
<text text-anchor="middle" x="51" y="-117.3" font-family="Times,serif" font-size="14.00">त्वम्(1)</text>
</g>
<!-- Node3_1&#45;&gt;Node1_1 -->
<g id="edge3" class="edge">
<title>Node3_1&#45;&gt;Node1_1</title>
<path fill="none" stroke="black" d="M50.32,-62.27C50.48,-75.58 50.66,-91.19 50.8,-102.82"/>
<polygon fill="black" stroke="black" points="53.82,-62.16 50.2,-52.2 46.82,-62.24 53.82,-62.16"/>
<text text-anchor="middle" x="74.5" y="-73.8" font-family="Times,serif" font-size="14.00">विशेषणम्</text>
</g>
<!-- Node5_1 -->
<g id="node3" class="node">
<title>Node5_1</title>
<ellipse fill="#ff1975" stroke="#ff1975" cx="93" cy="-208" rx="40.89" ry="18"/>
<text text-anchor="middle" x="93" y="-204.3" font-family="Times,serif" font-size="14.00">(असि)(5)</text>
</g>
<!-- Node1_1&#45;&gt;Node5_1 -->
<g id="edge1" class="edge">
<title>Node1_1&#45;&gt;Node5_1</title>
<path fill="none" stroke="black" d="M63.75,-147.8C70.56,-161.58 78.74,-178.14 84.72,-190.24"/>
<polygon fill="black" stroke="black" points="66.87,-146.21 59.3,-138.79 60.59,-149.31 66.87,-146.21"/>
<text text-anchor="middle" x="86" y="-160.8" font-family="Times,serif" font-size="14.00">कर्ता</text>
</g>
<!-- Node8_1 -->
<g id="node6" class="node">
<title>Node8_1</title>
<ellipse fill="#93db70" stroke="#93db70" cx="93" cy="-295" rx="34.39" ry="18"/>
<text text-anchor="middle" x="93" y="-291.3" font-family="Times,serif" font-size="14.00">वचः(8)</text>
</g>
<!-- Node5_1&#45;&gt;Node8_1 -->
<g id="edge5" class="edge">
<title>Node5_1&#45;&gt;Node8_1</title>
<path fill="none" stroke="black" d="M93,-236.27C93,-249.58 93,-265.19 93,-276.82"/>
<polygon fill="black" stroke="black" points="96.5,-236.2 93,-226.2 89.5,-236.2 96.5,-236.2"/>
<text text-anchor="middle" x="114.5" y="-247.8" font-family="Times,serif" font-size="14.00">वाक्यार्थः</text>
</g>
<!-- Node2_1 -->
<g id="node4" class="node">
<title>Node2_1</title>
<ellipse fill="#ff99ff" stroke="#ff99ff" cx="133" cy="-34" rx="30.59" ry="18"/>
<text text-anchor="middle" x="133" y="-30.3" font-family="Times,serif" font-size="14.00">एव(2)</text>
</g>
<!-- Node2_1&#45;&gt;Node1_1 -->
<g id="edge2" class="edge">
<title>Node2_1&#45;&gt;Node1_1</title>
<path fill="none" stroke="black" d="M120.11,-60.25C115.13,-68.66 108.94,-77.73 102,-85 93.7,-93.7 82.9,-101.49 73.37,-107.49"/>
<polygon fill="black" stroke="black" points="123.18,-61.93 125.03,-51.5 117.08,-58.5 123.18,-61.93"/>
<text text-anchor="middle" x="132.5" y="-73.8" font-family="Times,serif" font-size="14.00">सम्बन्धः</text>
</g>
<!-- Node4_1 -->
<g id="node5" class="node">
<title>Node4_1</title>
<ellipse fill="#00bfff" stroke="#00bfff" cx="222" cy="-34" rx="40.09" ry="18"/>
<text text-anchor="middle" x="222" y="-30.3" font-family="Times,serif" font-size="14.00">धर्मज्ञः(4)</text>
</g>
<!-- Node4_1&#45;&gt;Node1_1 -->
<g id="edge4" class="edge">
<title>Node4_1&#45;&gt;Node1_1</title>
<path fill="none" stroke="black" d="M197.12,-56.9C185.06,-66.61 169.97,-77.51 155,-85 129.72,-97.65 120.73,-93.79 94,-103 88.38,-104.93 82.42,-107.17 76.78,-109.37"/>
<polygon fill="black" stroke="black" points="199.47,-59.5 204.94,-50.43 195,-54.11 199.47,-59.5"/>
<text text-anchor="middle" x="219" y="-73.8" font-family="Times,serif" font-size="14.00">विधेय_विशेषणम्</text>
</g>
<!-- Node9_1 -->
<g id="node9" class="node">
<title>Node9_1</title>
<ellipse fill="#ff1975" stroke="#ff1975" cx="138" cy="-382" rx="44.69" ry="18"/>
<text text-anchor="middle" x="138" y="-378.3" font-family="Times,serif" font-size="14.00">अब्रवीत्(9)</text>
</g>
<!-- Node8_1&#45;&gt;Node9_1 -->
<g id="edge8" class="edge">
<title>Node8_1&#45;&gt;Node9_1</title>
<path fill="none" stroke="black" d="M102.23,-322.49C105.29,-330.25 108.96,-338.62 113,-346 116.44,-352.29 120.81,-358.78 124.94,-364.45"/>
<polygon fill="black" stroke="black" points="105.5,-321.24 98.69,-313.13 98.95,-323.72 105.5,-321.24"/>
<text text-anchor="middle" x="133.5" y="-334.8" font-family="Times,serif" font-size="14.00">मुख्यकर्म</text>
</g>
<!-- Node6_1 -->
<g id="node7" class="node">
<title>Node6_1</title>
<ellipse fill="#ff99ff" stroke="#ff99ff" cx="135" cy="-121" rx="32.49" ry="18"/>
<text text-anchor="middle" x="135" y="-117.3" font-family="Times,serif" font-size="14.00">इति(6)</text>
</g>
<!-- Node6_1&#45;&gt;Node5_1 -->
<g id="edge6" class="edge">
<title>Node6_1&#45;&gt;Node5_1</title>
<path fill="none" stroke="black" d="M122.25,-147.8C115.44,-161.58 107.26,-178.14 101.28,-190.24"/>
<polygon fill="black" stroke="black" points="125.41,-149.31 126.7,-138.79 119.13,-146.21 125.41,-149.31"/>
<text text-anchor="middle" x="157" y="-160.8" font-family="Times,serif" font-size="14.00">वाक्यार्थ_द्योतकः</text>
</g>
<!-- Node7_1 -->
<g id="node8" class="node">
<title>Node7_1</title>
<ellipse fill="#93db70" stroke="#93db70" cx="182" cy="-295" rx="36.29" ry="18"/>
<text text-anchor="middle" x="182" y="-291.3" font-family="Times,serif" font-size="14.00">रामम्(7)</text>
</g>
<!-- Node7_1&#45;&gt;Node9_1 -->
<g id="edge7" class="edge">
<title>Node7_1&#45;&gt;Node9_1</title>
<path fill="none" stroke="black" d="M168.65,-321.8C161.51,-335.58 152.94,-352.14 146.67,-364.24"/>
<polygon fill="black" stroke="black" points="171.82,-323.28 173.31,-312.79 165.6,-320.06 171.82,-323.28"/>
<text text-anchor="middle" x="172" y="-334.8" font-family="Times,serif" font-size="14.00">कर्म</text>
</g>
</g>
</svg>
