<?xml version="1.0" encoding="UTF-8" standalone="no"?>
<!DOCTYPE svg PUBLIC "-//W3C//DTD SVG 1.1//EN"
 "http://www.w3.org/Graphics/SVG/1.1/DTD/svg11.dtd">
<!-- Generated by graphviz version 2.50.0 (20211204.2007)
 -->
<!-- Title: G Pages: 1 -->
<svg width="943pt" height="392pt"
 viewBox="0.00 0.00 943.30 392.00" xmlns="http://www.w3.org/2000/svg" xmlns:xlink="http://www.w3.org/1999/xlink">
<g id="graph0" class="graph" transform="scale(1 1) rotate(0) translate(4 388)">
<title>G</title>
<polygon fill="#fffacd" stroke="transparent" points="-4,4 -4,-388 939.3,-388 939.3,4 -4,4"/>
<g id="clust1" class="cluster">
<title>cluster_1</title>
<polygon fill="#fffacd" stroke="black" points="413.3,-79 413.3,-305 725.3,-305 725.3,-79 413.3,-79"/>
</g>
<!-- Node5_1 -->
<g id="node1" class="node">
<title>Node5_1</title>
<ellipse fill="#93db70" stroke="#93db70" cx="461.3" cy="-192" rx="39.79" ry="18"/>
<text text-anchor="middle" x="461.3" y="-188.3" font-family="Times,serif" font-size="14.00">ऐन्द्रं(5.1)</text>
</g>
<!-- Node6_2 -->
<g id="node2" class="node">
<title>Node6_2</title>
<ellipse fill="#93db70" stroke="#93db70" cx="472.3" cy="-279" rx="51.19" ry="18"/>
<text text-anchor="middle" x="472.3" y="-275.3" font-family="Times,serif" font-size="14.00">आसनम्(6.2)</text>
</g>
<!-- Node5_1&#45;&gt;Node6_2 -->
<g id="edge5" class="edge">
<title>Node5_1&#45;&gt;Node6_2</title>
<path fill="none" stroke="black" d="M464.82,-220.27C466.55,-233.58 468.57,-249.19 470.07,-260.82"/>
<polygon fill="black" stroke="black" points="468.28,-219.67 463.52,-210.2 461.33,-220.57 468.28,-219.67"/>
<text text-anchor="middle" x="490.8" y="-231.8" font-family="Times,serif" font-size="14.00">विशेषणम्</text>
</g>
<!-- Node4_1 -->
<g id="node8" class="node">
<title>Node4_1</title>
<ellipse fill="#ff1975" stroke="#ff1975" cx="263.3" cy="-366" rx="45.49" ry="18"/>
<text text-anchor="middle" x="263.3" y="-362.3" font-family="Times,serif" font-size="14.00">जग्राह(4.1)</text>
</g>
<!-- Node6_2&#45;&gt;Node4_1 -->
<g id="edge7" class="edge">
<title>Node6_2&#45;&gt;Node4_1</title>
<path fill="none" stroke="black" d="M430.79,-296.88C390.41,-313.3 329.99,-337.87 293.83,-352.58"/>
<polygon fill="black" stroke="black" points="432.15,-300.1 440.1,-293.09 429.52,-293.62 432.15,-300.1"/>
<text text-anchor="middle" x="390.3" y="-318.8" font-family="Times,serif" font-size="14.00">कर्म</text>
</g>
<!-- Node7_1 -->
<g id="node3" class="node">
<title>Node7_1</title>
<ellipse fill="#93db70" stroke="#93db70" cx="673.3" cy="-192" rx="44.39" ry="18"/>
<text text-anchor="middle" x="673.3" y="-188.3" font-family="Times,serif" font-size="14.00">खड्गं(7.1)</text>
</g>
<!-- Node7_1&#45;&gt;Node6_2 -->
<g id="edge8" class="edge">
<title>Node7_1&#45;&gt;Node6_2</title>
<path fill="none" stroke="black" d="M640.61,-212.71C623.36,-222.61 601.6,-234.31 581.3,-243 558.73,-252.65 532.57,-261.14 511.53,-267.34"/>
<polygon fill="black" stroke="black" points="642.81,-215.48 649.7,-207.42 639.29,-209.43 642.81,-215.48"/>
<text text-anchor="middle" x="634.8" y="-231.8" font-family="Times,serif" font-size="14.00">समुच्चितः</text>
</g>
<!-- Node10_1 -->
<g id="node4" class="node">
<title>Node10_1</title>
<ellipse fill="#93db70" stroke="#93db70" cx="565.3" cy="-192" rx="46.29" ry="18"/>
<text text-anchor="middle" x="565.3" y="-188.3" font-family="Times,serif" font-size="14.00">तूणी(10.1)</text>
</g>
<!-- Node10_1&#45;&gt;Node6_2 -->
<g id="edge12" class="edge">
<title>Node10_1&#45;&gt;Node6_2</title>
<path fill="none" stroke="black" d="M544.32,-216.92C536.45,-225.45 527.24,-234.94 518.3,-243 510.84,-249.72 502.19,-256.53 494.42,-262.33"/>
<polygon fill="black" stroke="black" points="546.99,-219.18 551.12,-209.42 541.81,-214.47 546.99,-219.18"/>
<text text-anchor="middle" x="554.8" y="-231.8" font-family="Times,serif" font-size="14.00">समुच्चितः</text>
</g>
<!-- Node12_2 -->
<g id="node5" class="node">
<title>Node12_2</title>
<ellipse fill="#93db70" stroke="#93db70" cx="565.3" cy="-105" rx="53.89" ry="18"/>
<text text-anchor="middle" x="565.3" y="-101.3" font-family="Times,serif" font-size="14.00">सायकौ(12.2)</text>
</g>
<!-- Node12_2&#45;&gt;Node10_1 -->
<g id="edge15" class="edge">
<title>Node12_2&#45;&gt;Node10_1</title>
<path fill="none" stroke="black" d="M565.3,-133.27C565.3,-146.58 565.3,-162.19 565.3,-173.82"/>
<polygon fill="black" stroke="black" points="568.8,-133.2 565.3,-123.2 561.8,-133.2 568.8,-133.2"/>
<text text-anchor="middle" x="588.8" y="-144.8" font-family="Times,serif" font-size="14.00">विशेषणम्</text>
</g>
<!-- Node1_1 -->
<g id="node6" class="node">
<title>Node1_1</title>
<ellipse fill="#ffff00" stroke="#ffff00" cx="53.3" cy="-192" rx="53.09" ry="18"/>
<text text-anchor="middle" x="53.3" y="-188.3" font-family="Times,serif" font-size="14.00">अगस्त्य&#45;(1.1)</text>
</g>
<!-- Node1_2 -->
<g id="node7" class="node">
<title>Node1_2</title>
<ellipse fill="#b4ffb4" stroke="#b4ffb4" cx="152.3" cy="-279" rx="50.09" ry="18"/>
<text text-anchor="middle" x="152.3" y="-275.3" font-family="Times,serif" font-size="14.00">वचनात्(1.2)</text>
</g>
<!-- Node1_1&#45;&gt;Node1_2 -->
<g id="edge1" class="edge">
<title>Node1_1&#45;&gt;Node1_2</title>
<path fill="none" stroke="black" d="M68.85,-218.25C74.87,-226.76 82.25,-235.89 90.3,-243 99.83,-251.43 111.73,-258.74 122.55,-264.47"/>
<polygon fill="black" stroke="black" points="71.6,-216.05 63.11,-209.71 65.79,-219.96 71.6,-216.05"/>
<text text-anchor="middle" x="120.8" y="-231.8" font-family="Times,serif" font-size="14.00">षष्ठी&#45;तत्पुरुषः</text>
</g>
<!-- Node1_2&#45;&gt;Node4_1 -->
<g id="edge2" class="edge">
<title>Node1_2&#45;&gt;Node4_1</title>
<path fill="none" stroke="black" d="M180.66,-301.72C200.3,-316.76 225.96,-336.41 243.44,-349.79"/>
<polygon fill="black" stroke="black" points="182.72,-298.89 172.65,-295.59 178.47,-304.45 182.72,-298.89"/>
<text text-anchor="middle" x="227.8" y="-318.8" font-family="Times,serif" font-size="14.00">हेतुः5</text>
</g>
<!-- Node2_1 -->
<g id="node9" class="node">
<title>Node2_1</title>
<ellipse fill="#ff99ff" stroke="#ff99ff" cx="158.3" cy="-192" rx="33.6" ry="18"/>
<text text-anchor="middle" x="158.3" y="-188.3" font-family="Times,serif" font-size="14.00">च(2.1)</text>
</g>
<!-- Node2_1&#45;&gt;Node1_2 -->
<g id="edge3" class="edge">
<title>Node2_1&#45;&gt;Node1_2</title>
<path fill="none" stroke="black" d="M156.37,-220.27C155.43,-233.58 154.33,-249.19 153.51,-260.82"/>
<polygon fill="black" stroke="black" points="159.87,-220.42 157.08,-210.2 152.89,-219.93 159.87,-220.42"/>
<text text-anchor="middle" x="174.8" y="-231.8" font-family="Times,serif" font-size="14.00">सम्बन्धः</text>
</g>
<!-- Node3_1 -->
<g id="node10" class="node">
<title>Node3_1</title>
<ellipse fill="#ff99ff" stroke="#ff99ff" cx="158.3" cy="-105" rx="37.89" ry="18"/>
<text text-anchor="middle" x="158.3" y="-101.3" font-family="Times,serif" font-size="14.00">एव(3.1)</text>
</g>
<!-- Node3_1&#45;&gt;Node2_1 -->
<g id="edge4" class="edge">
<title>Node3_1&#45;&gt;Node2_1</title>
<path fill="none" stroke="black" d="M158.3,-133.27C158.3,-146.58 158.3,-162.19 158.3,-173.82"/>
<polygon fill="black" stroke="black" points="161.8,-133.2 158.3,-123.2 154.8,-133.2 161.8,-133.2"/>
<text text-anchor="middle" x="176.8" y="-144.8" font-family="Times,serif" font-size="14.00">सम्बन्धः</text>
</g>
<!-- Node6_1 -->
<g id="node11" class="node">
<title>Node6_1</title>
<ellipse fill="#ffff00" stroke="#ffff00" cx="363.3" cy="-192" rx="40.09" ry="18"/>
<text text-anchor="middle" x="363.3" y="-188.3" font-family="Times,serif" font-size="14.00">शर&#45;(6.1)</text>
</g>
<!-- Node6_1&#45;&gt;Node6_2 -->
<g id="edge6" class="edge">
<title>Node6_1&#45;&gt;Node6_2</title>
<path fill="none" stroke="black" d="M378.61,-218.53C384.61,-227.06 392.03,-236.14 400.3,-243 411.41,-252.24 425.38,-259.74 438.05,-265.4"/>
<polygon fill="black" stroke="black" points="381.36,-216.34 372.91,-209.94 375.53,-220.21 381.36,-216.34"/>
<text text-anchor="middle" x="430.8" y="-231.8" font-family="Times,serif" font-size="14.00">षष्ठी&#45;तत्पुरुषः</text>
</g>
<!-- Node8_1 -->
<g id="node12" class="node">
<title>Node8_1</title>
<ellipse fill="#ff99ff" stroke="#ff99ff" cx="867.3" cy="-105" rx="33.6" ry="18"/>
<text text-anchor="middle" x="867.3" y="-101.3" font-family="Times,serif" font-size="14.00">च(8.1)</text>
</g>
<!-- Node8_1&#45;&gt;Node7_1 -->
<g id="edge9" class="edge">
<title>Node8_1&#45;&gt;Node7_1</title>
<path fill="none" stroke="black" d="M860.74,-133.03C857.43,-141.52 852.51,-150.18 845.3,-156 825.78,-171.73 760.33,-181.7 716.03,-186.81"/>
<polygon fill="black" stroke="black" points="864.13,-133.92 863.94,-123.32 857.49,-131.72 864.13,-133.92"/>
<text text-anchor="middle" x="895.8" y="-144.8" font-family="Times,serif" font-size="14.00">समुच्चय_द्योतकः</text>
</g>
<!-- Node9_1 -->
<g id="node13" class="node">
<title>Node9_1</title>
<ellipse fill="#ffff00" stroke="#ffff00" cx="261.3" cy="-192" rx="43.59" ry="18"/>
<text text-anchor="middle" x="261.3" y="-188.3" font-family="Times,serif" font-size="14.00">परम&#45;(9.1)</text>
</g>
<!-- Node9_2 -->
<g id="node14" class="node">
<title>Node9_2</title>
<ellipse fill="#00bfff" stroke="#00bfff" cx="263.3" cy="-279" rx="42.79" ry="18"/>
<text text-anchor="middle" x="263.3" y="-275.3" font-family="Times,serif" font-size="14.00">प्रीतः(9.2)</text>
</g>
<!-- Node9_1&#45;&gt;Node9_2 -->
<g id="edge10" class="edge">
<title>Node9_1&#45;&gt;Node9_2</title>
<path fill="none" stroke="black" d="M261.94,-220.27C262.25,-233.58 262.62,-249.19 262.89,-260.82"/>
<polygon fill="black" stroke="black" points="265.43,-220.12 261.7,-210.2 258.44,-220.28 265.43,-220.12"/>
<text text-anchor="middle" x="286.8" y="-231.8" font-family="Times,serif" font-size="14.00">कर्मधारयः</text>
</g>
<!-- Node9_2&#45;&gt;Node4_1 -->
<g id="edge11" class="edge">
<title>Node9_2&#45;&gt;Node4_1</title>
<path fill="none" stroke="black" d="M263.3,-307.27C263.3,-320.58 263.3,-336.19 263.3,-347.82"/>
<polygon fill="black" stroke="black" points="266.8,-307.2 263.3,-297.2 259.8,-307.2 266.8,-307.2"/>
<text text-anchor="middle" x="274.3" y="-318.8" font-family="Times,serif" font-size="14.00">कर्ता</text>
</g>
<!-- Node11_1 -->
<g id="node15" class="node">
<title>Node11_1</title>
<ellipse fill="#ff99ff" stroke="#ff99ff" cx="771.3" cy="-105" rx="38.19" ry="18"/>
<text text-anchor="middle" x="771.3" y="-101.3" font-family="Times,serif" font-size="14.00">च(11.1)</text>
</g>
<!-- Node11_1&#45;&gt;Node10_1 -->
<g id="edge13" class="edge">
<title>Node11_1&#45;&gt;Node10_1</title>
<path fill="none" stroke="black" d="M733.97,-121.4C694.45,-137.71 632.79,-163.15 595.99,-178.34"/>
<polygon fill="black" stroke="black" points="735.6,-124.51 743.51,-117.46 732.93,-118.04 735.6,-124.51"/>
<text text-anchor="middle" x="719.8" y="-144.8" font-family="Times,serif" font-size="14.00">समुच्चय_द्योतकः</text>
</g>
<!-- Node12_1 -->
<g id="node16" class="node">
<title>Node12_1</title>
<ellipse fill="#ffff00" stroke="#ffff00" cx="565.3" cy="-18" rx="53.89" ry="18"/>
<text text-anchor="middle" x="565.3" y="-14.3" font-family="Times,serif" font-size="14.00">अक्षय&#45;(12.1)</text>
</g>
<!-- Node12_1&#45;&gt;Node12_2 -->
<g id="edge14" class="edge">
<title>Node12_1&#45;&gt;Node12_2</title>
<path fill="none" stroke="black" d="M565.3,-46.27C565.3,-59.58 565.3,-75.19 565.3,-86.82"/>
<polygon fill="black" stroke="black" points="568.8,-46.2 565.3,-36.2 561.8,-46.2 568.8,-46.2"/>
<text text-anchor="middle" x="597.3" y="-57.8" font-family="Times,serif" font-size="14.00">षष्ठी&#45;बहुव्रीहिः</text>
</g>
</g>
</svg>
