<?xml version="1.0" encoding="UTF-8" standalone="no"?>
<!DOCTYPE svg PUBLIC "-//W3C//DTD SVG 1.1//EN"
 "http://www.w3.org/Graphics/SVG/1.1/DTD/svg11.dtd">
<!-- Generated by graphviz version 2.50.0 (20211204.2007)
 -->
<!-- Title: G Pages: 1 -->
<svg width="575pt" height="479pt"
 viewBox="0.00 0.00 574.80 479.00" xmlns="http://www.w3.org/2000/svg" xmlns:xlink="http://www.w3.org/1999/xlink">
<g id="graph0" class="graph" transform="scale(1 1) rotate(0) translate(4 475)">
<title>G</title>
<polygon fill="#fffacd" stroke="transparent" points="-4,4 -4,-475 570.8,-475 570.8,4 -4,4"/>
<g id="clust1" class="cluster">
<title>cluster_1</title>
<polygon fill="#fffacd" stroke="black" points="292.8,-166 292.8,-305 558.8,-305 558.8,-166 292.8,-166"/>
</g>
<!-- Node9_2 -->
<g id="node1" class="node">
<title>Node9_2</title>
<ellipse fill="#87ceeb" stroke="#87ceeb" cx="357.8" cy="-192" rx="57.39" ry="18"/>
<text text-anchor="middle" x="357.8" y="-188.3" font-family="Times,serif" font-size="14.00">कल्पानाम्(9.2)</text>
</g>
<!-- Node8_1 -->
<g id="node2" class="node">
<title>Node8_1</title>
<ellipse fill="#87ceeb" stroke="#87ceeb" cx="358.8" cy="-279" rx="55.79" ry="18"/>
<text text-anchor="middle" x="358.8" y="-275.3" font-family="Times,serif" font-size="14.00">ऋषीणाम्(8.1)</text>
</g>
<!-- Node9_2&#45;&gt;Node8_1 -->
<g id="edge9" class="edge">
<title>Node9_2&#45;&gt;Node8_1</title>
<path fill="none" stroke="black" d="M358.12,-220.27C358.27,-233.58 358.46,-249.19 358.59,-260.82"/>
<polygon fill="black" stroke="black" points="361.62,-220.16 358,-210.2 354.62,-220.24 361.62,-220.16"/>
<text text-anchor="middle" x="381.3" y="-231.8" font-family="Times,serif" font-size="14.00">विशेषणम्</text>
</g>
<!-- Node7_1 -->
<g id="node10" class="node">
<title>Node7_1</title>
<ellipse fill="#c6e2eb" stroke="#c6e2eb" cx="353.8" cy="-366" rx="56.59" ry="18"/>
<text text-anchor="middle" x="353.8" y="-362.3" font-family="Times,serif" font-size="14.00">(सन्निधौ)(7.1)</text>
</g>
<!-- Node8_1&#45;&gt;Node7_1 -->
<g id="edge7" class="edge">
<title>Node8_1&#45;&gt;Node7_1</title>
<path fill="none" stroke="black" d="M357.19,-307.27C356.41,-320.58 355.49,-336.19 354.81,-347.82"/>
<polygon fill="black" stroke="black" points="360.69,-307.39 357.79,-297.2 353.7,-306.98 360.69,-307.39"/>
<text text-anchor="middle" x="383.8" y="-318.8" font-family="Times,serif" font-size="14.00">षष्ठीसम्बन्धः</text>
</g>
<!-- Node10_3 -->
<g id="node3" class="node">
<title>Node10_3</title>
<ellipse fill="#87ceeb" stroke="#87ceeb" cx="491.8" cy="-192" rx="59.29" ry="18"/>
<text text-anchor="middle" x="491.8" y="-188.3" font-family="Times,serif" font-size="14.00">वासिनाम्(10.3)</text>
</g>
<!-- Node10_3&#45;&gt;Node8_1 -->
<g id="edge12" class="edge">
<title>Node10_3&#45;&gt;Node8_1</title>
<path fill="none" stroke="black" d="M458.81,-214.09C435.31,-229.1 404.27,-248.94 383.04,-262.51"/>
<polygon fill="black" stroke="black" points="460.86,-216.92 467.4,-208.59 457.09,-211.03 460.86,-216.92"/>
<text text-anchor="middle" x="456.3" y="-231.8" font-family="Times,serif" font-size="14.00">विशेषणम्</text>
</g>
<!-- Node1_1 -->
<g id="node4" class="node">
<title>Node1_1</title>
<ellipse fill="#00bfff" stroke="#00bfff" cx="167.8" cy="-453" rx="55.79" ry="18"/>
<text text-anchor="middle" x="167.8" y="-449.3" font-family="Times,serif" font-size="14.00">प्रतिज्ञातः(1.1)</text>
</g>
<!-- Node2_1 -->
<g id="node5" class="node">
<title>Node2_1</title>
<ellipse fill="#ff99ff" stroke="#ff99ff" cx="33.8" cy="-366" rx="33.6" ry="18"/>
<text text-anchor="middle" x="33.8" y="-362.3" font-family="Times,serif" font-size="14.00">च(2.1)</text>
</g>
<!-- Node2_1&#45;&gt;Node1_1 -->
<g id="edge1" class="edge">
<title>Node2_1&#45;&gt;Node1_1</title>
<path fill="none" stroke="black" d="M61.71,-386.89C75.17,-396.28 91.64,-407.48 106.8,-417 117.76,-423.88 130.1,-431.07 140.8,-437.12"/>
<polygon fill="black" stroke="black" points="63.54,-383.9 53.34,-381.01 59.52,-389.62 63.54,-383.9"/>
<text text-anchor="middle" x="125.3" y="-405.8" font-family="Times,serif" font-size="14.00">सम्बन्धः</text>
</g>
<!-- Node3_1 -->
<g id="node6" class="node">
<title>Node3_1</title>
<ellipse fill="#40e0d0" stroke="#40e0d0" cx="130.8" cy="-366" rx="44.69" ry="18"/>
<text text-anchor="middle" x="130.8" y="-362.3" font-family="Times,serif" font-size="14.00">रामेण(3.1)</text>
</g>
<!-- Node3_1&#45;&gt;Node1_1 -->
<g id="edge2" class="edge">
<title>Node3_1&#45;&gt;Node1_1</title>
<path fill="none" stroke="black" d="M142.17,-393.13C148.09,-406.73 155.16,-422.98 160.38,-434.95"/>
<polygon fill="black" stroke="black" points="145.31,-391.57 138.11,-383.79 138.89,-394.36 145.31,-391.57"/>
<text text-anchor="middle" x="162.8" y="-405.8" font-family="Times,serif" font-size="14.00">कर्ता</text>
</g>
<!-- Node4_1 -->
<g id="node7" class="node">
<title>Node4_1</title>
<ellipse fill="#00bfff" stroke="#00bfff" cx="234.8" cy="-366" rx="40.89" ry="18"/>
<text text-anchor="middle" x="234.8" y="-362.3" font-family="Times,serif" font-size="14.00">वधः(4.1)</text>
</g>
<!-- Node4_1&#45;&gt;Node1_1 -->
<g id="edge3" class="edge">
<title>Node4_1&#45;&gt;Node1_1</title>
<path fill="none" stroke="black" d="M215.68,-391.26C204.55,-405.37 190.81,-422.81 180.9,-435.37"/>
<polygon fill="black" stroke="black" points="218.44,-393.41 221.88,-383.39 212.94,-389.08 218.44,-393.41"/>
<text text-anchor="middle" x="214.8" y="-405.8" font-family="Times,serif" font-size="14.00">कर्म</text>
</g>
<!-- Node5_1 -->
<g id="node8" class="node">
<title>Node5_1</title>
<ellipse fill="#c6e2eb" stroke="#c6e2eb" cx="120.8" cy="-279" rx="46.29" ry="18"/>
<text text-anchor="middle" x="120.8" y="-275.3" font-family="Times,serif" font-size="14.00">संयति(5.1)</text>
</g>
<!-- Node5_1&#45;&gt;Node4_1 -->
<g id="edge4" class="edge">
<title>Node5_1&#45;&gt;Node4_1</title>
<path fill="none" stroke="black" d="M144.34,-303.34C153.76,-312.14 164.93,-321.97 175.8,-330 186.43,-337.86 198.93,-345.48 209.69,-351.6"/>
<polygon fill="black" stroke="black" points="146.55,-300.6 136.89,-296.24 141.72,-305.67 146.55,-300.6"/>
<text text-anchor="middle" x="203.3" y="-318.8" font-family="Times,serif" font-size="14.00">अधिकरणम्</text>
</g>
<!-- Node6_1 -->
<g id="node9" class="node">
<title>Node6_1</title>
<ellipse fill="#87ceeb" stroke="#87ceeb" cx="234.8" cy="-279" rx="50.09" ry="18"/>
<text text-anchor="middle" x="234.8" y="-275.3" font-family="Times,serif" font-size="14.00">रक्षसाम्(6.1)</text>
</g>
<!-- Node6_1&#45;&gt;Node4_1 -->
<g id="edge5" class="edge">
<title>Node6_1&#45;&gt;Node4_1</title>
<path fill="none" stroke="black" d="M234.8,-307.27C234.8,-320.58 234.8,-336.19 234.8,-347.82"/>
<polygon fill="black" stroke="black" points="238.3,-307.2 234.8,-297.2 231.3,-307.2 238.3,-307.2"/>
<text text-anchor="middle" x="243.8" y="-318.8" font-family="Times,serif" font-size="14.00">कर्म</text>
</g>
<!-- Node7_1&#45;&gt;Node1_1 -->
<g id="edge6" class="edge">
<title>Node7_1&#45;&gt;Node1_1</title>
<path fill="none" stroke="black" d="M313.35,-385.48C278.9,-401.23 230.12,-423.52 198.72,-437.87"/>
<polygon fill="black" stroke="black" points="315.02,-388.57 322.66,-381.23 312.11,-382.2 315.02,-388.57"/>
<text text-anchor="middle" x="300.3" y="-405.8" font-family="Times,serif" font-size="14.00">अधिकरणम्</text>
</g>
<!-- Node9_1 -->
<g id="node11" class="node">
<title>Node9_1</title>
<ellipse fill="#ffff00" stroke="#ffff00" cx="357.8" cy="-105" rx="46.59" ry="18"/>
<text text-anchor="middle" x="357.8" y="-101.3" font-family="Times,serif" font-size="14.00">अग्नि&#45;(9.1)</text>
</g>
<!-- Node9_1&#45;&gt;Node9_2 -->
<g id="edge8" class="edge">
<title>Node9_1&#45;&gt;Node9_2</title>
<path fill="none" stroke="black" d="M357.8,-133.27C357.8,-146.58 357.8,-162.19 357.8,-173.82"/>
<polygon fill="black" stroke="black" points="361.3,-133.2 357.8,-123.2 354.3,-133.2 361.3,-133.2"/>
<text text-anchor="middle" x="389.8" y="-144.8" font-family="Times,serif" font-size="14.00">षष्ठी&#45;बहुव्रीहिः</text>
</g>
<!-- Node10_1 -->
<g id="node12" class="node">
<title>Node10_1</title>
<ellipse fill="#ffff00" stroke="#ffff00" cx="491.8" cy="-18" rx="54.69" ry="18"/>
<text text-anchor="middle" x="491.8" y="-14.3" font-family="Times,serif" font-size="14.00">दण्डक&#45;(10.1)</text>
</g>
<!-- Node10_2 -->
<g id="node13" class="node">
<title>Node10_2</title>
<ellipse fill="#ffff00" stroke="#ffff00" cx="491.8" cy="-105" rx="53.89" ry="18"/>
<text text-anchor="middle" x="491.8" y="-101.3" font-family="Times,serif" font-size="14.00">अरण्य&#45;(10.2)</text>
</g>
<!-- Node10_1&#45;&gt;Node10_2 -->
<g id="edge10" class="edge">
<title>Node10_1&#45;&gt;Node10_2</title>
<path fill="none" stroke="black" d="M491.8,-46.27C491.8,-59.58 491.8,-75.19 491.8,-86.82"/>
<polygon fill="black" stroke="black" points="495.3,-46.2 491.8,-36.2 488.3,-46.2 495.3,-46.2"/>
<text text-anchor="middle" x="513.3" y="-57.8" font-family="Times,serif" font-size="14.00">कर्मधारय</text>
</g>
<!-- Node10_2&#45;&gt;Node10_3 -->
<g id="edge11" class="edge">
<title>Node10_2&#45;&gt;Node10_3</title>
<path fill="none" stroke="black" d="M491.8,-133.27C491.8,-146.58 491.8,-162.19 491.8,-173.82"/>
<polygon fill="black" stroke="black" points="495.3,-133.2 491.8,-123.2 488.3,-133.2 495.3,-133.2"/>
<text text-anchor="middle" x="522.3" y="-144.8" font-family="Times,serif" font-size="14.00">षष्ठी&#45;तत्पुरुषः</text>
</g>
</g>
</svg>
