<?xml version="1.0" encoding="UTF-8" standalone="no"?>
<!DOCTYPE svg PUBLIC "-//W3C//DTD SVG 1.1//EN"
 "http://www.w3.org/Graphics/SVG/1.1/DTD/svg11.dtd">
<!-- Generated by graphviz version 2.50.0 (20211204.2007)
 -->
<!-- Title: G Pages: 1 -->
<svg width="349pt" height="321pt"
 viewBox="0.00 0.00 348.70 321.00" xmlns="http://www.w3.org/2000/svg" xmlns:xlink="http://www.w3.org/1999/xlink">
<g id="graph0" class="graph" transform="scale(1 1) rotate(0) translate(4 317)">
<title>G</title>
<polygon fill="#fffacd" stroke="transparent" points="-4,4 -4,-317 344.7,-317 344.7,4 -4,4"/>
<g id="clust1" class="cluster">
<title>cluster_1</title>
<polygon fill="#fffacd" stroke="black" points="8,-8 8,-147 118,-147 118,-8 8,-8"/>
</g>
<!-- Node4_1 -->
<g id="node1" class="node">
<title>Node4_1</title>
<ellipse fill="#00bfff" stroke="#00bfff" cx="63" cy="-34" rx="36" ry="18"/>
<text text-anchor="middle" x="63" y="-30.3" font-family="Times,serif" font-size="14.00">सः(4.1)</text>
</g>
<!-- Node5_1 -->
<g id="node2" class="node">
<title>Node5_1</title>
<ellipse fill="#00bfff" stroke="#00bfff" cx="63" cy="-121" rx="47.39" ry="18"/>
<text text-anchor="middle" x="63" y="-117.3" font-family="Times,serif" font-size="14.00">रावणः(5.1)</text>
</g>
<!-- Node4_1&#45;&gt;Node5_1 -->
<g id="edge5" class="edge">
<title>Node4_1&#45;&gt;Node5_1</title>
<path fill="none" stroke="black" d="M63,-62.27C63,-75.58 63,-91.19 63,-102.82"/>
<polygon fill="black" stroke="black" points="66.5,-62.2 63,-52.2 59.5,-62.2 66.5,-62.2"/>
<text text-anchor="middle" x="86.5" y="-73.8" font-family="Times,serif" font-size="14.00">विशेषणम्</text>
</g>
<!-- Node1_1 -->
<g id="node3" class="node">
<title>Node1_1</title>
<ellipse fill="#00bfff" stroke="#00bfff" cx="175" cy="-208" rx="57.39" ry="18"/>
<text text-anchor="middle" x="175" y="-204.3" font-family="Times,serif" font-size="14.00">वार्यमाणः(1.1)</text>
</g>
<!-- Node5_1&#45;&gt;Node1_1 -->
<g id="edge6" class="edge">
<title>Node5_1&#45;&gt;Node1_1</title>
<path fill="none" stroke="black" d="M85.58,-145.4C94.64,-154.22 105.42,-164.03 116,-172 125.7,-179.31 137.04,-186.35 147.17,-192.18"/>
<polygon fill="black" stroke="black" points="87.98,-142.85 78.42,-138.29 83.05,-147.82 87.98,-142.85"/>
<text text-anchor="middle" x="143.5" y="-160.8" font-family="Times,serif" font-size="14.00">प्रयोज्यकर्ता</text>
</g>
<!-- Node6_1 -->
<g id="node4" class="node">
<title>Node6_1</title>
<ellipse fill="#ff1975" stroke="#ff1975" cx="175" cy="-295" rx="55.49" ry="18"/>
<text text-anchor="middle" x="175" y="-291.3" font-family="Times,serif" font-size="14.00">(आसीत्)(6.1)</text>
</g>
<!-- Node1_1&#45;&gt;Node6_1 -->
<g id="edge1" class="edge">
<title>Node1_1&#45;&gt;Node6_1</title>
<path fill="none" stroke="black" d="M175,-236.27C175,-249.58 175,-265.19 175,-276.82"/>
<polygon fill="black" stroke="black" points="178.5,-236.2 175,-226.2 171.5,-236.2 178.5,-236.2"/>
<text text-anchor="middle" x="186" y="-247.8" font-family="Times,serif" font-size="14.00">कर्ता</text>
</g>
<!-- Node2_1 -->
<g id="node5" class="node">
<title>Node2_1</title>
<ellipse fill="#ffff00" stroke="#ffff00" cx="175" cy="-34" rx="36.29" ry="18"/>
<text text-anchor="middle" x="175" y="-30.3" font-family="Times,serif" font-size="14.00">सु&#45;(2.1)</text>
</g>
<!-- Node2_2 -->
<g id="node6" class="node">
<title>Node2_2</title>
<ellipse fill="#ff99ff" stroke="#ff99ff" cx="175" cy="-121" rx="46.29" ry="18"/>
<text text-anchor="middle" x="175" y="-117.3" font-family="Times,serif" font-size="14.00">बहुशः(2.2)</text>
</g>
<!-- Node2_1&#45;&gt;Node2_2 -->
<g id="edge2" class="edge">
<title>Node2_1&#45;&gt;Node2_2</title>
<path fill="none" stroke="black" d="M175,-62.27C175,-75.58 175,-91.19 175,-102.82"/>
<polygon fill="black" stroke="black" points="178.5,-62.2 175,-52.2 171.5,-62.2 178.5,-62.2"/>
<text text-anchor="middle" x="204" y="-73.8" font-family="Times,serif" font-size="14.00">अव्ययीभावः</text>
</g>
<!-- Node2_2&#45;&gt;Node1_1 -->
<g id="edge3" class="edge">
<title>Node2_2&#45;&gt;Node1_1</title>
<path fill="none" stroke="black" d="M175,-149.27C175,-162.58 175,-178.19 175,-189.82"/>
<polygon fill="black" stroke="black" points="178.5,-149.2 175,-139.2 171.5,-149.2 178.5,-149.2"/>
<text text-anchor="middle" x="211.5" y="-160.8" font-family="Times,serif" font-size="14.00">क्रियाविशेषणम्</text>
</g>
<!-- Node3_1 -->
<g id="node7" class="node">
<title>Node3_1</title>
<ellipse fill="#40e0d0" stroke="#40e0d0" cx="290" cy="-121" rx="50.89" ry="18"/>
<text text-anchor="middle" x="290" y="-117.3" font-family="Times,serif" font-size="14.00">मारीचेन(3.1)</text>
</g>
<!-- Node3_1&#45;&gt;Node1_1 -->
<g id="edge4" class="edge">
<title>Node3_1&#45;&gt;Node1_1</title>
<path fill="none" stroke="black" d="M274.45,-147.37C268.26,-155.99 260.56,-165.16 252,-172 240.41,-181.25 225.98,-188.65 212.75,-194.22"/>
<polygon fill="black" stroke="black" points="277.39,-149.27 280.11,-139.03 271.6,-145.33 277.39,-149.27"/>
<text text-anchor="middle" x="296.5" y="-160.8" font-family="Times,serif" font-size="14.00">प्रयोजककर्ता</text>
</g>
</g>
</svg>
