<?xml version="1.0" encoding="UTF-8" standalone="no"?>
<!DOCTYPE svg PUBLIC "-//W3C//DTD SVG 1.1//EN"
 "http://www.w3.org/Graphics/SVG/1.1/DTD/svg11.dtd">
<!-- Generated by graphviz version 2.50.0 (20211204.2007)
 -->
<!-- Title: G Pages: 1 -->
<svg width="284pt" height="653pt"
 viewBox="0.00 0.00 284.00 653.00" xmlns="http://www.w3.org/2000/svg" xmlns:xlink="http://www.w3.org/1999/xlink">
<g id="graph0" class="graph" transform="scale(1 1) rotate(0) translate(4 649)">
<title>G</title>
<polygon fill="#fffacd" stroke="transparent" points="-4,4 -4,-649 280,-649 280,4 -4,4"/>
<g id="clust1" class="cluster">
<title>cluster_1</title>
<polygon fill="#fffacd" stroke="black" points="8,-253 8,-392 120,-392 120,-253 8,-253"/>
</g>
<g id="clust2" class="cluster">
<title>cluster_2</title>
<polygon fill="#fffacd" stroke="black" points="128,-166 128,-305 268,-305 268,-166 128,-166"/>
</g>
<g id="clust3" class="cluster">
<title>cluster_3</title>
<polygon fill="#fffacd" stroke="black" points="131,-340 131,-479 259,-479 259,-340 131,-340"/>
</g>
<!-- Node2_1 -->
<g id="node1" class="node">
<title>Node2_1</title>
<ellipse fill="#c6e2eb" stroke="#c6e2eb" cx="64" cy="-279" rx="48.19" ry="18"/>
<text text-anchor="middle" x="64" y="-275.3" font-family="Times,serif" font-size="14.00">तस्मिन्(2.1)</text>
</g>
<!-- Node1_1 -->
<g id="node2" class="node">
<title>Node1_1</title>
<ellipse fill="#c6e2eb" stroke="#c6e2eb" cx="64" cy="-366" rx="37.09" ry="18"/>
<text text-anchor="middle" x="64" y="-362.3" font-family="Times,serif" font-size="14.00">वने(1.1)</text>
</g>
<!-- Node2_1&#45;&gt;Node1_1 -->
<g id="edge2" class="edge">
<title>Node2_1&#45;&gt;Node1_1</title>
<path fill="none" stroke="black" d="M64,-307.27C64,-320.58 64,-336.19 64,-347.82"/>
<polygon fill="black" stroke="black" points="67.5,-307.2 64,-297.2 60.5,-307.2 67.5,-307.2"/>
<text text-anchor="middle" x="87.5" y="-318.8" font-family="Times,serif" font-size="14.00">विशेषणम्</text>
</g>
<!-- Node3_1 -->
<g id="node7" class="node">
<title>Node3_1</title>
<ellipse fill="#40e0d0" stroke="#40e0d0" cx="67" cy="-453" rx="51.99" ry="18"/>
<text text-anchor="middle" x="67" y="-449.3" font-family="Times,serif" font-size="14.00">निवसता(3.1)</text>
</g>
<!-- Node1_1&#45;&gt;Node3_1 -->
<g id="edge1" class="edge">
<title>Node1_1&#45;&gt;Node3_1</title>
<path fill="none" stroke="black" d="M64.96,-394.27C65.43,-407.58 65.98,-423.19 66.39,-434.82"/>
<polygon fill="black" stroke="black" points="68.46,-394.07 64.61,-384.2 61.46,-394.32 68.46,-394.07"/>
<text text-anchor="middle" x="92.5" y="-405.8" font-family="Times,serif" font-size="14.00">अधिकरणम्</text>
</g>
<!-- Node4_3 -->
<g id="node3" class="node">
<title>Node4_3</title>
<ellipse fill="#87ceeb" stroke="#87ceeb" cx="198" cy="-192" rx="61.99" ry="18"/>
<text text-anchor="middle" x="198" y="-188.3" font-family="Times,serif" font-size="14.00">निवासिनाम्(4.3)</text>
</g>
<!-- Node5_1 -->
<g id="node4" class="node">
<title>Node5_1</title>
<ellipse fill="#87ceeb" stroke="#87ceeb" cx="197" cy="-279" rx="50.09" ry="18"/>
<text text-anchor="middle" x="197" y="-275.3" font-family="Times,serif" font-size="14.00">रक्षसाम्(5.1)</text>
</g>
<!-- Node4_3&#45;&gt;Node5_1 -->
<g id="edge6" class="edge">
<title>Node4_3&#45;&gt;Node5_1</title>
<path fill="none" stroke="black" d="M197.68,-220.27C197.52,-233.58 197.34,-249.19 197.2,-260.82"/>
<polygon fill="black" stroke="black" points="201.18,-220.24 197.8,-210.2 194.18,-220.16 201.18,-220.24"/>
<text text-anchor="middle" x="220.5" y="-231.8" font-family="Times,serif" font-size="14.00">विशेषणम्</text>
</g>
<!-- Node9_1 -->
<g id="node5" class="node">
<title>Node9_1</title>
<ellipse fill="#00bfff" stroke="#00bfff" cx="196" cy="-366" rx="49.29" ry="18"/>
<text text-anchor="middle" x="196" y="-362.3" font-family="Times,serif" font-size="14.00">चतुर्दश(9.1)</text>
</g>
<!-- Node5_1&#45;&gt;Node9_1 -->
<g id="edge7" class="edge">
<title>Node5_1&#45;&gt;Node9_1</title>
<path fill="none" stroke="black" d="M196.68,-307.27C196.52,-320.58 196.34,-336.19 196.2,-347.82"/>
<polygon fill="black" stroke="black" points="200.18,-307.24 196.8,-297.2 193.18,-307.16 200.18,-307.24"/>
<text text-anchor="middle" x="224" y="-318.8" font-family="Times,serif" font-size="14.00">षष्ठीसम्बन्धः</text>
</g>
<!-- Node8_1 -->
<g id="node6" class="node">
<title>Node8_1</title>
<ellipse fill="#00bfff" stroke="#00bfff" cx="195" cy="-453" rx="55.79" ry="18"/>
<text text-anchor="middle" x="195" y="-449.3" font-family="Times,serif" font-size="14.00">सहस्राणि(8.1)</text>
</g>
<!-- Node9_1&#45;&gt;Node8_1 -->
<g id="edge10" class="edge">
<title>Node9_1&#45;&gt;Node8_1</title>
<path fill="none" stroke="black" d="M195.68,-394.27C195.52,-407.58 195.34,-423.19 195.2,-434.82"/>
<polygon fill="black" stroke="black" points="199.18,-394.24 195.8,-384.2 192.18,-394.16 199.18,-394.24"/>
<text text-anchor="middle" x="218.5" y="-405.8" font-family="Times,serif" font-size="14.00">विशेषणम्</text>
</g>
<!-- Node6_1 -->
<g id="node8" class="node">
<title>Node6_1</title>
<ellipse fill="#00bfff" stroke="#00bfff" cx="132" cy="-540" rx="53.09" ry="18"/>
<text text-anchor="middle" x="132" y="-536.3" font-family="Times,serif" font-size="14.00">निहतानि(6.1)</text>
</g>
<!-- Node8_1&#45;&gt;Node6_1 -->
<g id="edge9" class="edge">
<title>Node8_1&#45;&gt;Node6_1</title>
<path fill="none" stroke="black" d="M176.47,-479.01C166.14,-492.94 153.56,-509.91 144.42,-522.24"/>
<polygon fill="black" stroke="black" points="179.41,-480.91 182.55,-470.79 173.79,-476.74 179.41,-480.91"/>
<text text-anchor="middle" x="176" y="-492.8" font-family="Times,serif" font-size="14.00">कर्म</text>
</g>
<!-- Node3_1&#45;&gt;Node6_1 -->
<g id="edge3" class="edge">
<title>Node3_1&#45;&gt;Node6_1</title>
<path fill="none" stroke="black" d="M86.12,-479.01C96.78,-492.94 109.75,-509.91 119.18,-522.24"/>
<polygon fill="black" stroke="black" points="88.7,-476.61 79.84,-470.79 83.14,-480.86 88.7,-476.61"/>
<text text-anchor="middle" x="114" y="-492.8" font-family="Times,serif" font-size="14.00">कर्ता</text>
</g>
<!-- Node7_1 -->
<g id="node11" class="node">
<title>Node7_1</title>
<ellipse fill="#ff1975" stroke="#ff1975" cx="132" cy="-627" rx="46.29" ry="18"/>
<text text-anchor="middle" x="132" y="-623.3" font-family="Times,serif" font-size="14.00">आसन्(7.1)</text>
</g>
<!-- Node6_1&#45;&gt;Node7_1 -->
<g id="edge8" class="edge">
<title>Node6_1&#45;&gt;Node7_1</title>
<path fill="none" stroke="black" d="M132,-568.27C132,-581.58 132,-597.19 132,-608.82"/>
<polygon fill="black" stroke="black" points="135.5,-568.2 132,-558.2 128.5,-568.2 135.5,-568.2"/>
<text text-anchor="middle" x="143" y="-579.8" font-family="Times,serif" font-size="14.00">कर्ता</text>
</g>
<!-- Node4_1 -->
<g id="node9" class="node">
<title>Node4_1</title>
<ellipse fill="#ffff00" stroke="#ffff00" cx="198" cy="-18" rx="40.89" ry="18"/>
<text text-anchor="middle" x="198" y="-14.3" font-family="Times,serif" font-size="14.00">जन&#45;(4.1)</text>
</g>
<!-- Node4_2 -->
<g id="node10" class="node">
<title>Node4_2</title>
<ellipse fill="#ffff00" stroke="#ffff00" cx="198" cy="-105" rx="46.29" ry="18"/>
<text text-anchor="middle" x="198" y="-101.3" font-family="Times,serif" font-size="14.00">स्थान&#45;(4.2)</text>
</g>
<!-- Node4_1&#45;&gt;Node4_2 -->
<g id="edge4" class="edge">
<title>Node4_1&#45;&gt;Node4_2</title>
<path fill="none" stroke="black" d="M198,-46.27C198,-59.58 198,-75.19 198,-86.82"/>
<polygon fill="black" stroke="black" points="201.5,-46.2 198,-36.2 194.5,-46.2 201.5,-46.2"/>
<text text-anchor="middle" x="228.5" y="-57.8" font-family="Times,serif" font-size="14.00">षष्ठी&#45;तत्पुरुषः</text>
</g>
<!-- Node4_2&#45;&gt;Node4_3 -->
<g id="edge5" class="edge">
<title>Node4_2&#45;&gt;Node4_3</title>
<path fill="none" stroke="black" d="M198,-133.27C198,-146.58 198,-162.19 198,-173.82"/>
<polygon fill="black" stroke="black" points="201.5,-133.2 198,-123.2 194.5,-133.2 201.5,-133.2"/>
<text text-anchor="middle" x="233" y="-144.8" font-family="Times,serif" font-size="14.00">उपपद&#45;तत्पुरुषः</text>
</g>
</g>
</svg>
