<svg width="325pt" height="305pt"
 viewBox="0.00 0.00 324.59 305.00" xmlns="http://www.w3.org/2000/svg" xmlns:xlink="http://www.w3.org/1999/xlink">
<g id="graph0" class="graph" transform="scale(1 1) rotate(0) translate(4 301)">
<title>G</title>
<polygon fill="#fffacd" stroke="transparent" points="-4,4 -4,-301 320.59,-301 320.59,4 -4,4"/>
<!-- Node1_1 -->
<style>
 .hidden { display: none; }
 .node { cursor: pointer; }
 </style>
<script>
     function toggleChildren(id) {
      const children = document.getElementById(id);
      if (children.classList.contains('hidden')) {
        children.classList.remove('hidden');
      } else {
        children.classList.add('hidden');
      }
    }
</script>
<g id="children_node1" class="hidden">
    <g class="node" onclick="toggleChildren('children_node1');">

<g id="node1" class="node">
<title>Node1_1</title>
<ellipse fill="#ffff00" stroke="#ffff00" cx="55.09" cy="-18" rx="31.7" ry="18"/>
<text text-anchor="middle" x="55.09" y="-14.3" font-family="Times,serif" font-size="14.00">हनुमद्&#45;</text>
</g>
<!-- Node1_2 -->
<g id="node2" class="node">
<title>Node1_2</title>
<ellipse fill="#ffff00" stroke="#ffff00" cx="155.09" cy="-18" rx="33.29" ry="18"/>
<text text-anchor="middle" x="155.09" y="-14.3" font-family="Times,serif" font-size="14.00">वचनात्</text>
</g>
<!-- Node1_1&#45;&gt;Node1_2 -->
<!-- Node1_2_1 -->
<g id="node3" class="node">
<title>Node1_2_1</title>
<ellipse fill="#ffff00" stroke="#ffff00" cx="113.09" cy="-105" rx="113.18" ry="18"/>
<text text-anchor="middle" x="113.09" y="-101.3" font-family="Times,serif" font-size="14.00">&lt;हनुमद्&#45;&#45;वचनात्&gt;(षष्ठी&#45;तत्पुरुषः)</text>
</g>
<!-- Node1_1&#45;&gt;Node1_2_1 -->
<g id="edge2" class="edge">
<title>Node1_1&#45;&gt;Node1_2_1</title>
<path fill="none" stroke="black" d="M71.87,-43.58C81.34,-57.47 92.95,-74.49 101.43,-86.92"/>
<polygon fill="black" stroke="black" points="74.53,-41.28 66,-34.99 68.74,-45.22 74.53,-41.28"/>
</g>
<!-- Node1_2&#45;&gt;Node1_2_1 -->
<g id="edge1" class="edge">
<title>Node1_2&#45;&gt;Node1_2_1</title>
<path fill="none" stroke="black" d="M142.18,-45.13C135.46,-58.73 127.43,-74.98 121.51,-86.95"/>
<polygon fill="black" stroke="black" points="145.5,-46.31 146.79,-35.79 139.22,-43.21 145.5,-46.31"/>
</g>
<!-- Node1_2_1&#45;&gt;Node1_2_1c -->
<g id="edge4" class="edge">
<title>Node1_2_1&#45;&gt;Node1_2_1c</title>
<path fill="none" stroke="black" d="M120.36,-132.87C123.99,-146.27 128.26,-162.08 131.44,-173.82"/>
<polygon fill="black" stroke="black" points="123.73,-131.94 117.74,-123.2 116.98,-133.77 123.73,-131.94"/>
</g>
</g>
</g>
<!-- Node1_2_1c -->
<g class="node4" onclick="toggleChildren('children_node1');">
<title>Node1_2_1c</title>
<ellipse fill="#b4ffb4" stroke="#b4ffb4" cx="136.09" cy="-192" rx="67.69" ry="18"/>
<text text-anchor="middle" x="136.09" y="-188.3" font-family="Times,serif" font-size="14.00">हनुमद्&#45;&#45;वचनात्(1)</text>
</g>
<!-- Node5_1 -->
<g id="node8" class="node">
<title>Node5_1</title>
<ellipse fill="#00bfff" stroke="#00bfff" cx="201.09" cy="-279" rx="46.29" ry="18"/>
<text text-anchor="middle" x="201.09" y="-275.3" font-family="Times,serif" font-size="14.00">समागतः(5)</text>
</g>
<!-- Node1_2_1c&#45;&gt;Node5_1 -->
<g id="edge5" class="edge">
<title>Node1_2_1c&#45;&gt;Node5_1</title>
<path fill="none" stroke="black" d="M155.26,-218.06C165.99,-232.09 179.06,-249.19 188.5,-261.53"/>
<polygon fill="black" stroke="black" points="157.79,-215.61 148.93,-209.79 152.23,-219.86 157.79,-215.61"/>
<text text-anchor="middle" x="181.59" y="-231.8" font-family="Times,serif" font-size="14.00">हेतुः</text>
</g>
<!-- Node2_1 -->
<g id="node5" class="node">
<title>Node2_1</title>
<ellipse fill="#ff99ff" stroke="#ff99ff" cx="275.09" cy="-18" rx="27" ry="18"/>
<text text-anchor="middle" x="275.09" y="-14.3" font-family="Times,serif" font-size="14.00">च(2)</text>
</g>
<!-- Node3_1 -->
<g id="node6" class="node">
<title>Node3_1</title>
<ellipse fill="#ff99ff" stroke="#ff99ff" cx="275.09" cy="-105" rx="30.59" ry="18"/>
<text text-anchor="middle" x="275.09" y="-101.3" font-family="Times,serif" font-size="14.00">एव(3)</text>
</g>
<!-- Node2_1&#45;&gt;Node3_1 -->
<g id="edge6" class="edge">
<title>Node2_1&#45;&gt;Node3_1</title>
<path fill="none" stroke="black" d="M275.09,-46.27C275.09,-59.58 275.09,-75.19 275.09,-86.82"/>
<polygon fill="black" stroke="black" points="278.59,-46.2 275.09,-36.2 271.59,-46.2 278.59,-46.2"/>
<text text-anchor="middle" x="293.59" y="-57.8" font-family="Times,serif" font-size="14.00">सम्बन्धः</text>
</g>
<!-- Node4_1 -->
<g id="node7" class="node">
<title>Node4_1</title>
<ellipse fill="#40e0d0" stroke="#40e0d0" cx="271.09" cy="-192" rx="45.49" ry="18"/>
<text text-anchor="middle" x="271.09" y="-188.3" font-family="Times,serif" font-size="14.00">सुग्रीवेण(4)</text>
</g>
<!-- Node3_1&#45;&gt;Node4_1 -->
<g id="edge7" class="edge">
<title>Node3_1&#45;&gt;Node4_1</title>
<path fill="none" stroke="black" d="M273.81,-133.27C273.18,-146.58 272.45,-162.19 271.9,-173.82"/>
<polygon fill="black" stroke="black" points="277.31,-133.35 274.28,-123.2 270.31,-133.03 277.31,-133.35"/>
<text text-anchor="middle" x="291.59" y="-144.8" font-family="Times,serif" font-size="14.00">सम्बन्धः</text>
</g>
<!-- Node1_2_1c -->
<g class="node4" onclick="toggleChildren('children_node1');">
<title>Node1_2_1c</title>
<ellipse fill="#b4ffb4" stroke="#b4ffb4" cx="136.09" cy="-192" rx="67.69" ry="18"/>
<text text-anchor="middle" x="136.09" y="-188.3" font-family="Times,serif" font-size="14.00">हनुमद्&#45;&#45;वचनात्(1)</text>
</g>
<!-- Node4_1&#45;&gt;Node5_1 -->
<g id="edge8" class="edge">
<title>Node4_1&#45;&gt;Node5_1</title>
<path fill="none" stroke="black" d="M251.07,-217.31C239.36,-231.53 224.9,-249.09 214.55,-261.66"/>
<polygon fill="black" stroke="black" points="253.94,-219.33 257.59,-209.39 248.53,-214.88 253.94,-219.33"/>
<text text-anchor="middle" x="256.09" y="-231.8" font-family="Times,serif" font-size="14.00">सहार्थः</text>
</g>
</g>
</svg>
