<?xml version="1.0" encoding="UTF-8" standalone="no"?>
<!DOCTYPE svg PUBLIC "-//W3C//DTD SVG 1.1//EN"
 "http://www.w3.org/Graphics/SVG/1.1/DTD/svg11.dtd">
<!-- Generated by graphviz version 2.50.0 (20211204.2007)
 -->
<!-- Title: G Pages: 1 -->
<svg width="750pt" height="392pt"
 viewBox="0.00 0.00 750.19 392.00" xmlns="http://www.w3.org/2000/svg" xmlns:xlink="http://www.w3.org/1999/xlink">
<g id="graph0" class="graph" transform="scale(1 1) rotate(0) translate(4 388)">
<title>G</title>
<polygon fill="#fffacd" stroke="transparent" points="-4,4 -4,-388 746.19,-388 746.19,4 -4,4"/>
<g id="clust1" class="cluster">
<title>cluster_1</title>
<polygon fill="#fffacd" stroke="black" points="532.6,-79 532.6,-218 648.6,-218 648.6,-79 532.6,-79"/>
</g>
<g id="clust2" class="cluster">
<title>cluster_2</title>
<polygon fill="#fffacd" stroke="black" points="217.6,-79 217.6,-218 449.6,-218 449.6,-79 217.6,-79"/>
</g>
<!-- Node3_1 -->
<g id="node1" class="node">
<title>Node3_1</title>
<ellipse fill="#93db70" stroke="#93db70" cx="590.6" cy="-105" rx="37.89" ry="18"/>
<text text-anchor="middle" x="590.6" y="-101.3" font-family="Times,serif" font-size="14.00">तत्(3.1)</text>
</g>
<!-- Node4_1 -->
<g id="node2" class="node">
<title>Node4_1</title>
<ellipse fill="#93db70" stroke="#93db70" cx="590.6" cy="-192" rx="50.09" ry="18"/>
<text text-anchor="middle" x="590.6" y="-188.3" font-family="Times,serif" font-size="14.00">वाक्यम्(4.1)</text>
</g>
<!-- Node3_1&#45;&gt;Node4_1 -->
<g id="edge4" class="edge">
<title>Node3_1&#45;&gt;Node4_1</title>
<path fill="none" stroke="black" d="M590.6,-133.27C590.6,-146.58 590.6,-162.19 590.6,-173.82"/>
<polygon fill="black" stroke="black" points="594.1,-133.2 590.6,-123.2 587.1,-133.2 594.1,-133.2"/>
<text text-anchor="middle" x="614.1" y="-144.8" font-family="Times,serif" font-size="14.00">विशेषणम्</text>
</g>
<!-- Node1_2 -->
<g id="node7" class="node">
<title>Node1_2</title>
<ellipse fill="#ff99ff" stroke="#ff99ff" cx="486.6" cy="-279" rx="48.99" ry="18"/>
<text text-anchor="middle" x="486.6" y="-275.3" font-family="Times,serif" font-size="14.00">आदृत्य(1.2)</text>
</g>
<!-- Node4_1&#45;&gt;Node1_2 -->
<g id="edge5" class="edge">
<title>Node4_1&#45;&gt;Node1_2</title>
<path fill="none" stroke="black" d="M563.13,-215.45C545.04,-230.23 521.82,-249.21 505.72,-262.37"/>
<polygon fill="black" stroke="black" points="565.51,-218.03 571.03,-208.99 561.08,-212.61 565.51,-218.03"/>
<text text-anchor="middle" x="553.6" y="-231.8" font-family="Times,serif" font-size="14.00">कर्म</text>
</g>
<!-- Node6_2 -->
<g id="node3" class="node">
<title>Node6_2</title>
<ellipse fill="#00bfff" stroke="#00bfff" cx="275.6" cy="-105" rx="50.09" ry="18"/>
<text text-anchor="middle" x="275.6" y="-101.3" font-family="Times,serif" font-size="14.00">चोदितः(6.2)</text>
</g>
<!-- Node5_1 -->
<g id="node4" class="node">
<title>Node5_1</title>
<ellipse fill="#00bfff" stroke="#00bfff" cx="391.6" cy="-192" rx="47.39" ry="18"/>
<text text-anchor="middle" x="391.6" y="-188.3" font-family="Times,serif" font-size="14.00">रावणः(5.1)</text>
</g>
<!-- Node6_2&#45;&gt;Node5_1 -->
<g id="edge9" class="edge">
<title>Node6_2&#45;&gt;Node5_1</title>
<path fill="none" stroke="black" d="M303.23,-127.79C314.69,-136.68 328.18,-146.97 340.6,-156 349.89,-162.76 360.32,-169.98 369.32,-176.1"/>
<polygon fill="black" stroke="black" points="305.34,-124.99 295.3,-121.6 301.03,-130.51 305.34,-124.99"/>
<text text-anchor="middle" x="364.1" y="-144.8" font-family="Times,serif" font-size="14.00">विशेषणम्</text>
</g>
<!-- Node5_1&#45;&gt;Node1_2 -->
<g id="edge7" class="edge">
<title>Node5_1&#45;&gt;Node1_2</title>
<path fill="none" stroke="black" stroke-dasharray="1,5" d="M417.08,-215.8C433.43,-230.43 454.23,-249.04 468.81,-262.08"/>
<polygon fill="black" stroke="black" points="419.25,-213.05 409.46,-208.99 414.58,-218.26 419.25,-213.05"/>
<text text-anchor="middle" x="455.6" y="-231.8" font-family="Times,serif" font-size="14.00">कर्ता</text>
</g>
<!-- Node7_1 -->
<g id="node8" class="node">
<title>Node7_1</title>
<ellipse fill="#ff1975" stroke="#ff1975" cx="437.6" cy="-366" rx="46.29" ry="18"/>
<text text-anchor="middle" x="437.6" y="-362.3" font-family="Times,serif" font-size="14.00">जगाम(7.1)</text>
</g>
<!-- Node5_1&#45;&gt;Node7_1 -->
<g id="edge6" class="edge">
<title>Node5_1&#45;&gt;Node7_1</title>
<path fill="none" stroke="black" d="M393.42,-220.49C395.34,-241.72 399.16,-271.66 406.6,-297 411.93,-315.18 421.26,-334.74 428.3,-348.19"/>
<polygon fill="black" stroke="black" points="396.88,-219.93 392.58,-210.25 389.91,-220.5 396.88,-219.93"/>
<text text-anchor="middle" x="417.6" y="-275.3" font-family="Times,serif" font-size="14.00">कर्ता</text>
</g>
<!-- Node8_2 -->
<g id="node5" class="node">
<title>Node8_2</title>
<ellipse fill="#00bfff" stroke="#00bfff" cx="392.6" cy="-105" rx="48.99" ry="18"/>
<text text-anchor="middle" x="392.6" y="-101.3" font-family="Times,serif" font-size="14.00">मारीचः(8.2)</text>
</g>
<!-- Node8_2&#45;&gt;Node5_1 -->
<g id="edge11" class="edge">
<title>Node8_2&#45;&gt;Node5_1</title>
<path fill="none" stroke="black" d="M392.27,-133.27C392.12,-146.58 391.93,-162.19 391.8,-173.82"/>
<polygon fill="black" stroke="black" points="395.77,-133.24 392.39,-123.2 388.78,-133.16 395.77,-133.24"/>
<text text-anchor="middle" x="415.1" y="-144.8" font-family="Times,serif" font-size="14.00">विशेषणम्</text>
</g>
<!-- Node1_1 -->
<g id="node6" class="node">
<title>Node1_1</title>
<ellipse fill="#ffff00" stroke="#ffff00" cx="700.6" cy="-192" rx="41.69" ry="18"/>
<text text-anchor="middle" x="700.6" y="-188.3" font-family="Times,serif" font-size="14.00">अन्&#45;(1.1)</text>
</g>
<!-- Node1_1&#45;&gt;Node1_2 -->
<g id="edge1" class="edge">
<title>Node1_1&#45;&gt;Node1_2</title>
<path fill="none" stroke="black" d="M667,-211.21C662.21,-213.6 657.31,-215.93 652.6,-218 608.68,-237.27 556.42,-255.4 522.43,-266.59"/>
<polygon fill="black" stroke="black" points="668.68,-214.29 675.99,-206.62 665.49,-208.05 668.68,-214.29"/>
<text text-anchor="middle" x="654.6" y="-231.8" font-family="Times,serif" font-size="14.00">नञ्&#45;तत्पुरुषः</text>
</g>
<!-- Node1_2&#45;&gt;Node7_1 -->
<g id="edge2" class="edge">
<title>Node1_2&#45;&gt;Node7_1</title>
<path fill="none" stroke="black" d="M471.72,-305.8C463.78,-319.58 454.23,-336.14 447.26,-348.24"/>
<polygon fill="black" stroke="black" points="474.95,-307.2 476.91,-296.79 468.89,-303.71 474.95,-307.2"/>
<text text-anchor="middle" x="486.1" y="-318.8" font-family="Times,serif" font-size="14.00">पूर्वकालः</text>
</g>
<!-- Node2_1 -->
<g id="node9" class="node">
<title>Node2_1</title>
<ellipse fill="#ff99ff" stroke="#ff99ff" cx="489.6" cy="-192" rx="32.49" ry="18"/>
<text text-anchor="middle" x="489.6" y="-188.3" font-family="Times,serif" font-size="14.00">तु(2.1)</text>
</g>
<!-- Node2_1&#45;&gt;Node1_2 -->
<g id="edge3" class="edge">
<title>Node2_1&#45;&gt;Node1_2</title>
<path fill="none" stroke="black" d="M488.63,-220.27C488.16,-233.58 487.61,-249.19 487.2,-260.82"/>
<polygon fill="black" stroke="black" points="492.13,-220.32 488.99,-210.2 485.14,-220.07 492.13,-220.32"/>
<text text-anchor="middle" x="506.1" y="-231.8" font-family="Times,serif" font-size="14.00">सम्बन्धः</text>
</g>
<!-- Node6_1 -->
<g id="node10" class="node">
<title>Node6_1</title>
<ellipse fill="#ffff00" stroke="#ffff00" cx="275.6" cy="-18" rx="46.29" ry="18"/>
<text text-anchor="middle" x="275.6" y="-14.3" font-family="Times,serif" font-size="14.00">काल&#45;(6.1)</text>
</g>
<!-- Node6_1&#45;&gt;Node6_2 -->
<g id="edge8" class="edge">
<title>Node6_1&#45;&gt;Node6_2</title>
<path fill="none" stroke="black" d="M275.6,-46.27C275.6,-59.58 275.6,-75.19 275.6,-86.82"/>
<polygon fill="black" stroke="black" points="279.1,-46.2 275.6,-36.2 272.1,-46.2 279.1,-46.2"/>
<text text-anchor="middle" x="312.1" y="-57.8" font-family="Times,serif" font-size="14.00">तृतीया&#45;तत्पुरुषः</text>
</g>
<!-- Node8_1 -->
<g id="node11" class="node">
<title>Node8_1</title>
<ellipse fill="#ffff00" stroke="#ffff00" cx="392.6" cy="-18" rx="40.09" ry="18"/>
<text text-anchor="middle" x="392.6" y="-14.3" font-family="Times,serif" font-size="14.00">सह&#45;(8.1)</text>
</g>
<!-- Node8_1&#45;&gt;Node8_2 -->
<g id="edge10" class="edge">
<title>Node8_1&#45;&gt;Node8_2</title>
<path fill="none" stroke="black" d="M392.6,-46.27C392.6,-59.58 392.6,-75.19 392.6,-86.82"/>
<polygon fill="black" stroke="black" points="396.1,-46.2 392.6,-36.2 389.1,-46.2 396.1,-46.2"/>
<text text-anchor="middle" x="464.6" y="-57.8" font-family="Times,serif" font-size="14.00">सहपूर्वपद&#45;व्यधिकरण&#45;बहुव्रीहिः</text>
</g>
<!-- Node9_1 -->
<g id="node12" class="node">
<title>Node9_1</title>
<ellipse fill="#87ceeb" stroke="#87ceeb" cx="168.6" cy="-192" rx="40.89" ry="18"/>
<text text-anchor="middle" x="168.6" y="-188.3" font-family="Times,serif" font-size="14.00">तस्य(9.1)</text>
</g>
<!-- Node10_2 -->
<g id="node13" class="node">
<title>Node10_2</title>
<ellipse fill="#93db70" stroke="#93db70" cx="168.6" cy="-279" rx="46.29" ry="18"/>
<text text-anchor="middle" x="168.6" y="-275.3" font-family="Times,serif" font-size="14.00">पदम्(10.2)</text>
</g>
<!-- Node9_1&#45;&gt;Node10_2 -->
<g id="edge12" class="edge">
<title>Node9_1&#45;&gt;Node10_2</title>
<path fill="none" stroke="black" d="M168.6,-220.27C168.6,-233.58 168.6,-249.19 168.6,-260.82"/>
<polygon fill="black" stroke="black" points="172.1,-220.2 168.6,-210.2 165.1,-220.2 172.1,-220.2"/>
<text text-anchor="middle" x="196.6" y="-231.8" font-family="Times,serif" font-size="14.00">षष्ठीसम्बन्धः</text>
</g>
<!-- Node10_2&#45;&gt;Node7_1 -->
<g id="edge14" class="edge">
<title>Node10_2&#45;&gt;Node7_1</title>
<path fill="none" stroke="black" d="M213.04,-294.04C266.22,-310.85 354.14,-338.63 402.69,-353.97"/>
<polygon fill="black" stroke="black" points="213.8,-290.61 203.21,-290.94 211.69,-297.29 213.8,-290.61"/>
<text text-anchor="middle" x="327.6" y="-318.8" font-family="Times,serif" font-size="14.00">कर्म</text>
</g>
<!-- Node10_1 -->
<g id="node14" class="node">
<title>Node10_1</title>
<ellipse fill="#ffff00" stroke="#ffff00" cx="54.6" cy="-192" rx="54.69" ry="18"/>
<text text-anchor="middle" x="54.6" y="-188.3" font-family="Times,serif" font-size="14.00">आश्रम&#45;(10.1)</text>
</g>
<!-- Node10_1&#45;&gt;Node10_2 -->
<g id="edge13" class="edge">
<title>Node10_1&#45;&gt;Node10_2</title>
<path fill="none" stroke="black" d="M81.88,-215.33C92.85,-224.13 105.69,-234.21 117.6,-243 126.84,-249.83 137.26,-257.06 146.27,-263.17"/>
<polygon fill="black" stroke="black" points="83.88,-212.45 73.9,-208.89 79.49,-217.9 83.88,-212.45"/>
<text text-anchor="middle" x="141.1" y="-231.8" font-family="Times,serif" font-size="14.00">कर्मधारयः</text>
</g>
<!-- Node11_1 -->
<g id="node15" class="node">
<title>Node11_1</title>
<ellipse fill="#ff99ff" stroke="#ff99ff" cx="597.6" cy="-279" rx="44.39" ry="18"/>
<text text-anchor="middle" x="597.6" y="-275.3" font-family="Times,serif" font-size="14.00">तदा(11.1)</text>
</g>
<!-- Node11_1&#45;&gt;Node7_1 -->
<g id="edge15" class="edge">
<title>Node11_1&#45;&gt;Node7_1</title>
<path fill="none" stroke="black" d="M565.24,-299.69C549.27,-309.17 529.61,-320.52 511.6,-330 497,-337.67 480.44,-345.58 466.69,-351.93"/>
<polygon fill="black" stroke="black" points="567.39,-302.48 574.17,-294.34 563.79,-296.47 567.39,-302.48"/>
<text text-anchor="middle" x="574.1" y="-318.8" font-family="Times,serif" font-size="14.00">कालाधिकरणम्</text>
</g>
</g>
</svg>
