<?xml version="1.0" encoding="UTF-8" standalone="no"?>
<!DOCTYPE svg PUBLIC "-//W3C//DTD SVG 1.1//EN"
 "http://www.w3.org/Graphics/SVG/1.1/DTD/svg11.dtd">
<!-- Generated by graphviz version 2.50.0 (20211204.2007)
 -->
<!-- Title: G Pages: 1 -->
<svg width="262pt" height="131pt"
 viewBox="0.00 0.00 261.74 131.00" xmlns="http://www.w3.org/2000/svg" xmlns:xlink="http://www.w3.org/1999/xlink">
<g id="graph0" class="graph" transform="scale(1 1) rotate(0) translate(4 127)">
<title>G</title>
<polygon fill="#fffacd" stroke="transparent" points="-4,4 -4,-127 257.74,-127 257.74,4 -4,4"/>
<!-- Node1_1 -->
<g id="node1" class="node">
<title>Node1_1</title>
<ellipse fill="#ff99ff" stroke="#ff99ff" cx="39" cy="-18" rx="38.99" ry="18"/>
<text text-anchor="middle" x="39" y="-14.3" font-family="Times,serif" font-size="14.00">स्वर्(1.1)</text>
</g>
<!-- Node2_1 -->
<g id="node2" class="node">
<title>Node2_1</title>
<ellipse fill="#00bfff" stroke="#00bfff" cx="130" cy="-105" rx="40.09" ry="18"/>
<text text-anchor="middle" x="130" y="-101.3" font-family="Times,serif" font-size="14.00">गतः(2.1)</text>
</g>
<!-- Node1_1&#45;&gt;Node2_1 -->
<g id="edge1" class="edge">
<title>Node1_1&#45;&gt;Node2_1</title>
<path fill="none" stroke="black" d="M63.07,-41.49C78.95,-56.32 99.33,-75.36 113.41,-88.51"/>
<polygon fill="black" stroke="black" points="65.38,-38.86 55.69,-34.59 60.61,-43.97 65.38,-38.86"/>
<text text-anchor="middle" x="99" y="-57.8" font-family="Times,serif" font-size="14.00">कर्म</text>
</g>
<!-- Node3_1 -->
<g id="node3" class="node">
<title>Node3_1</title>
<ellipse fill="#ff99ff" stroke="#ff99ff" cx="130" cy="-18" rx="33.6" ry="18"/>
<text text-anchor="middle" x="130" y="-14.3" font-family="Times,serif" font-size="14.00">च(3.1)</text>
</g>
<!-- Node3_1&#45;&gt;Node2_1 -->
<g id="edge2" class="edge">
<title>Node3_1&#45;&gt;Node2_1</title>
<path fill="none" stroke="black" d="M130,-46.27C130,-59.58 130,-75.19 130,-86.82"/>
<polygon fill="black" stroke="black" points="133.5,-46.2 130,-36.2 126.5,-46.2 133.5,-46.2"/>
<text text-anchor="middle" x="148.5" y="-57.8" font-family="Times,serif" font-size="14.00">सम्बन्धः</text>
</g>
<!-- Node4_1 -->
<g id="node4" class="node">
<title>Node4_1</title>
<ellipse fill="#00bfff" stroke="#00bfff" cx="218" cy="-18" rx="36" ry="18"/>
<text text-anchor="middle" x="218" y="-14.3" font-family="Times,serif" font-size="14.00">सः(4.1)</text>
</g>
<!-- Node4_1&#45;&gt;Node2_1 -->
<g id="edge3" class="edge">
<title>Node4_1&#45;&gt;Node2_1</title>
<path fill="none" stroke="black" d="M197.12,-42.26C189.15,-50.86 179.84,-60.57 171,-69 163.95,-75.72 155.86,-82.75 148.74,-88.74"/>
<polygon fill="black" stroke="black" points="199.84,-44.47 204.02,-34.74 194.68,-39.74 199.84,-44.47"/>
<text text-anchor="middle" x="196" y="-57.8" font-family="Times,serif" font-size="14.00">कर्ता</text>
</g>
</g>
</svg>
