<svg width="519pt" height="451pt"
 viewBox="0.00 0.00 519.00 451.00" xmlns="http://www.w3.org/2000/svg" xmlns:xlink="http://www.w3.org/1999/xlink">
<g id="graph0" class="graph" transform="scale(1 1) rotate(0) translate(4 447)">
<title>G</title>
<polygon fill="#fffacd" stroke="transparent" points="-4,4 -4,-447 515,-447 515,4 -4,4"/>
<g id="clust1" class="cluster">
<title>cluster_1</title>
<polygon fill="#fffacd" stroke="black" points="267,-138 267,-277 503,-277 503,-138 267,-138"/>
</g>
<!-- Node8_1 -->
<style>
 .hidden { display: none; }
 .node { cursor: pointer; }
 </style>
<script>
     function toggleChildren(id) {
      const children = document.getElementById(id);
      if (children.classList.contains('hidden')) {
        children.classList.remove('hidden');
      } else {
        children.classList.add('hidden');
      }
    }
</script>
<g id="children_node1" class="hidden">
    <g class="node" onclick="toggleChildren('children_node1');">

<g id="node1" class="node">
<title>Node8_1</title>
<ellipse fill="#ffff00" stroke="#ffff00" cx="144" cy="-18" rx="27" ry="18"/>
<text text-anchor="middle" x="144" y="-14.3" font-family="Times,serif" font-size="14.00">धर्म&#45;</text>
</g>
<!-- Node8_2 -->
<g id="node2" class="node">
<title>Node8_2</title>
<ellipse fill="#ffff00" stroke="#ffff00" cx="243" cy="-18" rx="36.29" ry="18"/>
<text text-anchor="middle" x="243" y="-14.3" font-family="Times,serif" font-size="14.00">निपुणाम्</text>
</g>
<!-- Node8_1&#45;&gt;Node8_2 -->
<!-- Node8_2_1 -->
<g id="node3" class="node">
<title>Node8_2_1</title>
<ellipse fill="#ffff00" stroke="#ffff00" cx="193" cy="-91" rx="116.98" ry="18"/>
<text text-anchor="middle" x="193" y="-87.3" font-family="Times,serif" font-size="14.00">&lt;धर्म&#45;&#45;निपुणाम्&gt;(सप्तमी&#45;तत्पुरुषः)</text>
</g>
<!-- Node8_1&#45;&gt;Node8_2_1 -->
<g id="edge2" class="edge">
<title>Node8_1&#45;&gt;Node8_2_1</title>
<path fill="none" stroke="black" d="M160.56,-43C167.37,-52.86 175.1,-64.06 181.3,-73.05"/>
<polygon fill="black" stroke="black" points="163.44,-41 154.87,-34.76 157.67,-44.98 163.44,-41"/>
</g>
<!-- Node8_2&#45;&gt;Node8_2_1 -->
<g id="edge1" class="edge">
<title>Node8_2&#45;&gt;Node8_2_1</title>
<path fill="none" stroke="black" d="M225.69,-43.58C218.87,-53.27 211.19,-64.16 205,-72.96"/>
<polygon fill="black" stroke="black" points="228.76,-45.3 231.65,-35.11 223.03,-41.27 228.76,-45.3"/>
</g>
<!-- Node8_2_1&#45;&gt;Node8_2_1c -->
<g id="edge4" class="edge">
<title>Node8_2_1&#45;&gt;Node8_2_1c</title>
<path fill="none" stroke="black" d="M193,-119.25C193,-128.23 193,-137.97 193,-145.97"/>
<polygon fill="black" stroke="black" points="196.5,-119.19 193,-109.19 189.5,-119.19 196.5,-119.19"/>
</g>
</g>
</g>
<!-- Node8_2_1c -->
<g class="node4" onclick="toggleChildren('children_node1');">
<title>Node8_2_1c</title>
<ellipse fill="#93db70" stroke="#93db70" cx="193" cy="-164" rx="63.89" ry="18"/>
<text text-anchor="middle" x="193" y="-160.3" font-family="Times,serif" font-size="14.00">धर्म&#45;&#45;निपुणाम्(8)</text>
</g>
<!-- Node5_1 -->
<g id="node6" class="node">
<title>Node5_1</title>
<ellipse fill="#93db70" stroke="#93db70" cx="315" cy="-251" rx="37.89" ry="18"/>
<text text-anchor="middle" x="315" y="-247.3" font-family="Times,serif" font-size="14.00">शबरीं(5)</text>
</g>
<!-- Node8_2_1c&#45;&gt;Node5_1 -->
<g id="edge5" class="edge">
<title>Node8_2_1c&#45;&gt;Node5_1</title>
<path fill="none" stroke="black" d="M223.89,-186.88C236.33,-195.65 250.82,-205.84 264,-215 273.88,-221.87 284.87,-229.42 294.12,-235.75"/>
<polygon fill="black" stroke="black" points="225.84,-183.97 215.65,-181.06 221.8,-189.69 225.84,-183.97"/>
<text text-anchor="middle" x="287.5" y="-203.8" font-family="Times,serif" font-size="14.00">विशेषणम्</text>
</g>
<!-- Node6_1 -->
<g id="node5" class="node">
<title>Node6_1</title>
<ellipse fill="#93db70" stroke="#93db70" cx="435" cy="-164" rx="59.59" ry="18"/>
<text text-anchor="middle" x="435" y="-160.3" font-family="Times,serif" font-size="14.00">धर्मचारिणीम्(6)</text>
</g>
<!-- Node6_1&#45;&gt;Node5_1 -->
<g id="edge10" class="edge">
<title>Node6_1&#45;&gt;Node5_1</title>
<path fill="none" stroke="black" d="M404.97,-187.02C392.91,-195.79 378.84,-205.94 366,-215 356.17,-221.93 345.18,-229.5 335.93,-235.82"/>
<polygon fill="black" stroke="black" points="407.33,-189.63 413.35,-180.91 403.21,-183.97 407.33,-189.63"/>
<text text-anchor="middle" x="409.5" y="-203.8" font-family="Times,serif" font-size="14.00">विशेषणम्</text>
</g>
<!-- Node9_1 -->
<g id="node12" class="node">
<title>Node9_1</title>
<ellipse fill="#ff1975" stroke="#ff1975" cx="193" cy="-338" rx="49.29" ry="18"/>
<text text-anchor="middle" x="193" y="-334.3" font-family="Times,serif" font-size="14.00">अभिगच्छ(9)</text>
</g>
<!-- Node5_1&#45;&gt;Node9_1 -->
<g id="edge9" class="edge">
<title>Node5_1&#45;&gt;Node9_1</title>
<path fill="none" stroke="black" d="M289.72,-273.82C278.73,-282.93 265.52,-293.37 253,-302 242.37,-309.32 230.15,-316.64 219.52,-322.67"/>
<polygon fill="black" stroke="black" points="292.23,-276.28 297.64,-267.17 287.73,-270.92 292.23,-276.28"/>
<text text-anchor="middle" x="281" y="-290.8" font-family="Times,serif" font-size="14.00">कर्म</text>
</g>
<!-- Node7_1 -->
<g id="node7" class="node">
<title>Node7_1</title>
<ellipse fill="#93db70" stroke="#93db70" cx="316" cy="-164" rx="40.89" ry="18"/>
<text text-anchor="middle" x="316" y="-160.3" font-family="Times,serif" font-size="14.00">श्रमणां(7)</text>
</g>
<!-- Node7_1&#45;&gt;Node5_1 -->
<g id="edge11" class="edge">
<title>Node7_1&#45;&gt;Node5_1</title>
<path fill="none" stroke="black" d="M315.68,-192.27C315.52,-205.58 315.34,-221.19 315.2,-232.82"/>
<polygon fill="black" stroke="black" points="319.18,-192.24 315.8,-182.2 312.18,-192.16 319.18,-192.24"/>
<text text-anchor="middle" x="338.5" y="-203.8" font-family="Times,serif" font-size="14.00">विशेषणम्</text>
</g>
<!-- Node1_1 -->
<g id="node8" class="node">
<title>Node1_1</title>
<ellipse fill="#00bfff" stroke="#00bfff" cx="74" cy="-338" rx="28.7" ry="18"/>
<text text-anchor="middle" x="74" y="-334.3" font-family="Times,serif" font-size="14.00">सः(1)</text>
</g>
<!-- Node4_1 -->
<g id="node9" class="node">
<title>Node4_1</title>
<ellipse fill="#ff1975" stroke="#ff1975" cx="193" cy="-425" rx="53.89" ry="18"/>
<text text-anchor="middle" x="193" y="-421.3" font-family="Times,serif" font-size="14.00">कथयामास(4)</text>
</g>
<!-- Node1_1&#45;&gt;Node4_1 -->
<g id="edge6" class="edge">
<title>Node1_1&#45;&gt;Node4_1</title>
<path fill="none" stroke="black" d="M100.61,-358.01C121.88,-373.2 151.33,-394.23 171.21,-408.44"/>
<polygon fill="black" stroke="black" points="102.5,-355.06 92.33,-352.09 98.44,-360.76 102.5,-355.06"/>
<text text-anchor="middle" x="152" y="-377.8" font-family="Times,serif" font-size="14.00">कर्ता</text>
</g>
<!-- Node2_1 -->
<g id="node10" class="node">
<title>Node2_1</title>
<ellipse fill="#ff99ff" stroke="#ff99ff" cx="27" cy="-251" rx="27" ry="18"/>
<text text-anchor="middle" x="27" y="-247.3" font-family="Times,serif" font-size="14.00">च(2)</text>
</g>
<!-- Node2_1&#45;&gt;Node1_1 -->
<g id="edge7" class="edge">
<title>Node2_1&#45;&gt;Node1_1</title>
<path fill="none" stroke="black" d="M37.83,-277.75C41.43,-285.67 45.64,-294.32 50,-302 53.71,-308.54 58.27,-315.42 62.42,-321.34"/>
<polygon fill="black" stroke="black" points="41.02,-276.3 33.78,-268.56 34.62,-279.12 41.02,-276.3"/>
<text text-anchor="middle" x="68.5" y="-290.8" font-family="Times,serif" font-size="14.00">सम्बन्धः</text>
</g>
<!-- Node3_1 -->
<g id="node11" class="node">
<title>Node3_1</title>
<ellipse fill="#87ceeb" stroke="#87ceeb" cx="296" cy="-338" rx="36" ry="18"/>
<text text-anchor="middle" x="296" y="-334.3" font-family="Times,serif" font-size="14.00">अस्य(3)</text>
</g>
<!-- Node3_1&#45;&gt;Node4_1 -->
<g id="edge8" class="edge">
<title>Node3_1&#45;&gt;Node4_1</title>
<path fill="none" stroke="black" d="M272.47,-361.42C262.91,-370.25 251.63,-380.34 241,-389 232.85,-395.65 223.57,-402.55 215.36,-408.46"/>
<polygon fill="black" stroke="black" points="275.12,-363.73 280.04,-354.35 270.34,-358.61 275.12,-363.73"/>
<text text-anchor="middle" x="268" y="-377.8" font-family="Times,serif" font-size="14.00">कर्म</text>
</g>
<!-- Node9_1&#45;&gt;Node4_1 -->
<g id="edge12" class="edge">
<title>Node9_1&#45;&gt;Node4_1</title>
<path fill="none" stroke="black" d="M193,-366.27C193,-379.58 193,-395.19 193,-406.82"/>
<polygon fill="black" stroke="black" points="196.5,-366.2 193,-356.2 189.5,-366.2 196.5,-366.2"/>
<text text-anchor="middle" x="215" y="-377.8" font-family="Times,serif" font-size="14.00">वाक्यकर्म</text>
</g>
<!-- Node10_1 -->
<g id="node13" class="node">
<title>Node10_1</title>
<ellipse fill="#ff99ff" stroke="#ff99ff" cx="109" cy="-251" rx="37.09" ry="18"/>
<text text-anchor="middle" x="109" y="-247.3" font-family="Times,serif" font-size="14.00">इति(10)</text>
</g>
<!-- Node10_1&#45;&gt;Node9_1 -->
<g id="edge13" class="edge">
<title>Node10_1&#45;&gt;Node9_1</title>
<path fill="none" stroke="black" d="M107.37,-279.35C108.13,-287.28 110.25,-295.54 115,-302 124.06,-314.31 138.45,-322.39 152.43,-327.63"/>
<polygon fill="black" stroke="black" points="110.87,-279.17 107.05,-269.29 103.87,-279.39 110.87,-279.17"/>
<text text-anchor="middle" x="157.5" y="-290.8" font-family="Times,serif" font-size="14.00">वाक्यकर्म_द्योतकः</text>
</g>
<!-- Node8_2_1c -->
<g class="node4" onclick="toggleChildren('children_node1');">
<title>Node8_2_1c</title>
<ellipse fill="#93db70" stroke="#93db70" cx="193" cy="-164" rx="63.89" ry="18"/>
<text text-anchor="middle" x="193" y="-160.3" font-family="Times,serif" font-size="14.00">धर्म&#45;&#45;निपुणाम्(8)</text>
</g>
<!-- Node11_1 -->
<g id="node14" class="node">
<title>Node11_1</title>
<ellipse fill="#6fffc3" stroke="#6fffc3" cx="217" cy="-251" rx="41.69" ry="18"/>
<text text-anchor="middle" x="217" y="-247.3" font-family="Times,serif" font-size="14.00">राघव(11)</text>
</g>
<!-- Node11_1&#45;&gt;Node9_1 -->
<g id="edge14" class="edge">
<title>Node11_1&#45;&gt;Node9_1</title>
<path fill="none" stroke="black" d="M209.41,-278.87C205.63,-292.27 201.17,-308.08 197.85,-319.82"/>
<polygon fill="black" stroke="black" points="212.79,-279.78 212.14,-269.2 206.06,-277.87 212.79,-279.78"/>
<text text-anchor="middle" x="228" y="-290.8" font-family="Times,serif" font-size="14.00">सम्बोध्यः</text>
</g>
</g>
</svg>
