<?xml version="1.0" encoding="UTF-8" standalone="no"?>
<!DOCTYPE svg PUBLIC "-//W3C//DTD SVG 1.1//EN"
 "http://www.w3.org/Graphics/SVG/1.1/DTD/svg11.dtd">
<!-- Generated by graphviz version 2.50.0 (20211204.2007)
 -->
<!-- Title: G Pages: 1 -->
<svg width="570pt" height="479pt"
 viewBox="0.00 0.00 570.00 479.00" xmlns="http://www.w3.org/2000/svg" xmlns:xlink="http://www.w3.org/1999/xlink">
<g id="graph0" class="graph" transform="scale(1 1) rotate(0) translate(4 475)">
<title>G</title>
<polygon fill="#fffacd" stroke="transparent" points="-4,4 -4,-475 566,-475 566,4 -4,4"/>
<g id="clust1" class="cluster">
<title>cluster_1</title>
<polygon fill="#fffacd" stroke="black" points="368,-253 368,-392 472,-392 472,-253 368,-253"/>
</g>
<g id="clust2" class="cluster">
<title>cluster_2</title>
<polygon fill="#fffacd" stroke="black" points="8,-166 8,-305 256,-305 256,-166 8,-166"/>
</g>
<!-- Node4_1 -->
<g id="node1" class="node">
<title>Node4_1</title>
<ellipse fill="#ff99ff" stroke="#ff99ff" cx="420" cy="-279" rx="40.09" ry="18"/>
<text text-anchor="middle" x="420" y="-275.3" font-family="Times,serif" font-size="14.00">दृष्ट्वा(4.1)</text>
</g>
<!-- Node6_1 -->
<g id="node2" class="node">
<title>Node6_1</title>
<ellipse fill="#ff99ff" stroke="#ff99ff" cx="420" cy="-366" rx="43.59" ry="18"/>
<text text-anchor="middle" x="420" y="-362.3" font-family="Times,serif" font-size="14.00">श्रुत्वा(6.1)</text>
</g>
<!-- Node4_1&#45;&gt;Node6_1 -->
<g id="edge4" class="edge">
<title>Node4_1&#45;&gt;Node6_1</title>
<path fill="none" stroke="black" d="M420,-307.27C420,-320.58 420,-336.19 420,-347.82"/>
<polygon fill="black" stroke="black" points="423.5,-307.2 420,-297.2 416.5,-307.2 423.5,-307.2"/>
<text text-anchor="middle" x="442.5" y="-318.8" font-family="Times,serif" font-size="14.00">समुच्चितः</text>
</g>
<!-- Node11_1 -->
<g id="node10" class="node">
<title>Node11_1</title>
<ellipse fill="#ff1975" stroke="#ff1975" cx="252" cy="-453" rx="59.59" ry="18"/>
<text text-anchor="middle" x="252" y="-449.3" font-family="Times,serif" font-size="14.00">विललाप(11.1)</text>
</g>
<!-- Node6_1&#45;&gt;Node11_1 -->
<g id="edge6" class="edge">
<title>Node6_1&#45;&gt;Node11_1</title>
<path fill="none" stroke="black" d="M384.31,-385.06C353.65,-400.57 309.98,-422.67 281.32,-437.17"/>
<polygon fill="black" stroke="black" points="386.04,-388.11 393.38,-380.47 382.88,-381.86 386.04,-388.11"/>
<text text-anchor="middle" x="367.5" y="-405.8" font-family="Times,serif" font-size="14.00">पूर्वकालः</text>
</g>
<!-- Node10_2 -->
<g id="node3" class="node">
<title>Node10_2</title>
<ellipse fill="#00bfff" stroke="#00bfff" cx="69" cy="-192" rx="52.79" ry="18"/>
<text text-anchor="middle" x="69" y="-188.3" font-family="Times,serif" font-size="14.00">संतप्तः(10.2)</text>
</g>
<!-- Node9_1 -->
<g id="node4" class="node">
<title>Node9_1</title>
<ellipse fill="#00bfff" stroke="#00bfff" cx="200" cy="-279" rx="46.29" ry="18"/>
<text text-anchor="middle" x="200" y="-275.3" font-family="Times,serif" font-size="14.00">राघवः(9.1)</text>
</g>
<!-- Node10_2&#45;&gt;Node9_1 -->
<g id="edge12" class="edge">
<title>Node10_2&#45;&gt;Node9_1</title>
<path fill="none" stroke="black" d="M101.24,-213.95C115.03,-222.9 131.3,-233.46 146,-243 156.22,-249.63 167.52,-256.96 177.14,-263.19"/>
<polygon fill="black" stroke="black" points="102.88,-210.84 92.59,-208.32 99.07,-216.71 102.88,-210.84"/>
<text text-anchor="middle" x="169.5" y="-231.8" font-family="Times,serif" font-size="14.00">विशेषणम्</text>
</g>
<!-- Node9_1&#45;&gt;Node6_1 -->
<g id="edge10" class="edge">
<title>Node9_1&#45;&gt;Node6_1</title>
<path fill="none" stroke="black" stroke-dasharray="1,5" d="M239.76,-296.48C246.82,-299.36 254.12,-302.29 261,-305 305.07,-322.34 356.37,-341.52 388.52,-353.42"/>
<polygon fill="black" stroke="black" points="240.92,-293.18 230.34,-292.63 238.27,-299.66 240.92,-293.18"/>
<text text-anchor="middle" x="333" y="-318.8" font-family="Times,serif" font-size="14.00">कर्ता</text>
</g>
<!-- Node9_1&#45;&gt;Node11_1 -->
<g id="edge9" class="edge">
<title>Node9_1&#45;&gt;Node11_1</title>
<path fill="none" stroke="black" d="M208.13,-306.89C218.96,-342.7 237.79,-404.99 246.84,-434.95"/>
<polygon fill="black" stroke="black" points="211.42,-305.68 205.18,-297.12 204.72,-307.71 211.42,-305.68"/>
<text text-anchor="middle" x="245" y="-362.3" font-family="Times,serif" font-size="14.00">कर्ता</text>
</g>
<!-- Node12_2 -->
<g id="node5" class="node">
<title>Node12_2</title>
<ellipse fill="#00bfff" stroke="#00bfff" cx="194" cy="-192" rx="53.89" ry="18"/>
<text text-anchor="middle" x="194" y="-188.3" font-family="Times,serif" font-size="14.00">इन्द्रियः(12.2)</text>
</g>
<!-- Node12_2&#45;&gt;Node9_1 -->
<g id="edge14" class="edge">
<title>Node12_2&#45;&gt;Node9_1</title>
<path fill="none" stroke="black" d="M195.92,-220.27C196.86,-233.58 197.97,-249.19 198.79,-260.82"/>
<polygon fill="black" stroke="black" points="199.41,-219.93 195.21,-210.2 192.43,-220.42 199.41,-219.93"/>
<text text-anchor="middle" x="221.5" y="-231.8" font-family="Times,serif" font-size="14.00">विशेषणम्</text>
</g>
<!-- Node1_1 -->
<g id="node6" class="node">
<title>Node1_1</title>
<ellipse fill="#93db70" stroke="#93db70" cx="442" cy="-105" rx="43.59" ry="18"/>
<text text-anchor="middle" x="442" y="-101.3" font-family="Times,serif" font-size="14.00">गृध्रम्(1.1)</text>
</g>
<!-- Node3_1 -->
<g id="node7" class="node">
<title>Node3_1</title>
<ellipse fill="#93db70" stroke="#93db70" cx="442" cy="-192" rx="48.99" ry="18"/>
<text text-anchor="middle" x="442" y="-188.3" font-family="Times,serif" font-size="14.00">निहतम्(3.1)</text>
</g>
<!-- Node1_1&#45;&gt;Node3_1 -->
<g id="edge1" class="edge">
<title>Node1_1&#45;&gt;Node3_1</title>
<path fill="none" stroke="black" d="M442,-133.27C442,-146.58 442,-162.19 442,-173.82"/>
<polygon fill="black" stroke="black" points="445.5,-133.2 442,-123.2 438.5,-133.2 445.5,-133.2"/>
<text text-anchor="middle" x="451" y="-144.8" font-family="Times,serif" font-size="14.00">कर्म</text>
</g>
<!-- Node3_1&#45;&gt;Node4_1 -->
<g id="edge3" class="edge">
<title>Node3_1&#45;&gt;Node4_1</title>
<path fill="none" stroke="black" d="M434.94,-220.27C431.5,-233.58 427.46,-249.19 424.45,-260.82"/>
<polygon fill="black" stroke="black" points="438.43,-220.76 437.55,-210.2 431.65,-219.01 438.43,-220.76"/>
<text text-anchor="middle" x="441" y="-231.8" font-family="Times,serif" font-size="14.00">कर्म</text>
</g>
<!-- Node2_1 -->
<g id="node8" class="node">
<title>Node2_1</title>
<ellipse fill="#ff99ff" stroke="#ff99ff" cx="442" cy="-18" rx="33.6" ry="18"/>
<text text-anchor="middle" x="442" y="-14.3" font-family="Times,serif" font-size="14.00">च(2.1)</text>
</g>
<!-- Node2_1&#45;&gt;Node1_1 -->
<g id="edge2" class="edge">
<title>Node2_1&#45;&gt;Node1_1</title>
<path fill="none" stroke="black" d="M442,-46.27C442,-59.58 442,-75.19 442,-86.82"/>
<polygon fill="black" stroke="black" points="445.5,-46.2 442,-36.2 438.5,-46.2 445.5,-46.2"/>
<text text-anchor="middle" x="460.5" y="-57.8" font-family="Times,serif" font-size="14.00">सम्बन्धः</text>
</g>
<!-- Node5_1 -->
<g id="node9" class="node">
<title>Node5_1</title>
<ellipse fill="#93db70" stroke="#93db70" cx="315" cy="-279" rx="44.69" ry="18"/>
<text text-anchor="middle" x="315" y="-275.3" font-family="Times,serif" font-size="14.00">हृताम्(5.1)</text>
</g>
<!-- Node5_1&#45;&gt;Node6_1 -->
<g id="edge5" class="edge">
<title>Node5_1&#45;&gt;Node6_1</title>
<path fill="none" stroke="black" d="M342.28,-302.08C360.67,-316.97 384.47,-336.24 400.86,-349.51"/>
<polygon fill="black" stroke="black" points="344.23,-299.16 334.26,-295.59 339.83,-304.6 344.23,-299.16"/>
<text text-anchor="middle" x="382" y="-318.8" font-family="Times,serif" font-size="14.00">कर्म</text>
</g>
<!-- Node7_1 -->
<g id="node11" class="node">
<title>Node7_1</title>
<ellipse fill="#ff99ff" stroke="#ff99ff" cx="514" cy="-279" rx="33.6" ry="18"/>
<text text-anchor="middle" x="514" y="-275.3" font-family="Times,serif" font-size="14.00">च(7.1)</text>
</g>
<!-- Node7_1&#45;&gt;Node6_1 -->
<g id="edge7" class="edge">
<title>Node7_1&#45;&gt;Node6_1</title>
<path fill="none" stroke="black" d="M494.51,-303.75C486.94,-312.4 477.94,-322.02 469,-330 460.89,-337.24 451.28,-344.38 442.73,-350.3"/>
<polygon fill="black" stroke="black" points="497.18,-306.01 501.03,-296.14 491.87,-301.46 497.18,-306.01"/>
<text text-anchor="middle" x="522.5" y="-318.8" font-family="Times,serif" font-size="14.00">समुच्चय_द्योतकः</text>
</g>
<!-- Node8_1 -->
<g id="node12" class="node">
<title>Node8_1</title>
<ellipse fill="#93db70" stroke="#93db70" cx="321" cy="-192" rx="54.69" ry="18"/>
<text text-anchor="middle" x="321" y="-188.3" font-family="Times,serif" font-size="14.00">मैथिलीम्(8.1)</text>
</g>
<!-- Node8_1&#45;&gt;Node5_1 -->
<g id="edge8" class="edge">
<title>Node8_1&#45;&gt;Node5_1</title>
<path fill="none" stroke="black" d="M319.08,-220.27C318.14,-233.58 317.03,-249.19 316.21,-260.82"/>
<polygon fill="black" stroke="black" points="322.57,-220.42 319.79,-210.2 315.59,-219.93 322.57,-220.42"/>
<text text-anchor="middle" x="327" y="-231.8" font-family="Times,serif" font-size="14.00">कर्म</text>
</g>
<!-- Node10_1 -->
<g id="node13" class="node">
<title>Node10_1</title>
<ellipse fill="#ffff00" stroke="#ffff00" cx="69" cy="-105" rx="50.09" ry="18"/>
<text text-anchor="middle" x="69" y="-101.3" font-family="Times,serif" font-size="14.00">शोक&#45;(10.1)</text>
</g>
<!-- Node10_1&#45;&gt;Node10_2 -->
<g id="edge11" class="edge">
<title>Node10_1&#45;&gt;Node10_2</title>
<path fill="none" stroke="black" d="M69,-133.27C69,-146.58 69,-162.19 69,-173.82"/>
<polygon fill="black" stroke="black" points="72.5,-133.2 69,-123.2 65.5,-133.2 72.5,-133.2"/>
<text text-anchor="middle" x="105.5" y="-144.8" font-family="Times,serif" font-size="14.00">तृतीया&#45;तत्पुरुषः</text>
</g>
<!-- Node12_1 -->
<g id="node14" class="node">
<title>Node12_1</title>
<ellipse fill="#ffff00" stroke="#ffff00" cx="194" cy="-105" rx="56.59" ry="18"/>
<text text-anchor="middle" x="194" y="-101.3" font-family="Times,serif" font-size="14.00">आकुल&#45;(12.1)</text>
</g>
<!-- Node12_1&#45;&gt;Node12_2 -->
<g id="edge13" class="edge">
<title>Node12_1&#45;&gt;Node12_2</title>
<path fill="none" stroke="black" d="M194,-133.27C194,-146.58 194,-162.19 194,-173.82"/>
<polygon fill="black" stroke="black" points="197.5,-133.2 194,-123.2 190.5,-133.2 197.5,-133.2"/>
<text text-anchor="middle" x="226" y="-144.8" font-family="Times,serif" font-size="14.00">षष्ठी&#45;बहुव्रीहिः</text>
</g>
</g>
</svg>
