<svg width="815pt" height="451pt"
 viewBox="0.00 0.00 815.15 451.00" xmlns="http://www.w3.org/2000/svg" xmlns:xlink="http://www.w3.org/1999/xlink">
<g id="graph0" class="graph" transform="scale(1 1) rotate(0) translate(4 447)">
<title>G</title>
<polygon fill="#fffacd" stroke="transparent" points="-4,4 -4,-447 811.15,-447 811.15,4 -4,4"/>
<g id="clust1" class="cluster">
<title>cluster_1</title>
<polygon fill="#fffacd" stroke="black" points="697.15,-138 697.15,-277 799.15,-277 799.15,-138 697.15,-138"/>
</g>
<!-- Node1_1 -->
<style>
 .hidden { display: none; }
 .node { cursor: pointer; }
 </style>
<script>
     function toggleChildren(id) {
      const children = document.getElementById(id);
      if (children.classList.contains('hidden')) {
        children.classList.remove('hidden');
      } else {
        children.classList.add('hidden');
      }
    }
</script>
<g id="children_node1" class="hidden">
    <g class="node" onclick="toggleChildren('children_node1');">

<g id="node1" class="node">
<title>Node1_1</title>
<ellipse fill="#ffff00" stroke="#ffff00" cx="553.15" cy="-164" rx="27" ry="18"/>
<text text-anchor="middle" x="553.15" y="-160.3" font-family="Times,serif" font-size="14.00">अन्&#45;</text>
</g>
<!-- Node1_2 -->
<g id="node2" class="node">
<title>Node1_2</title>
<ellipse fill="#ffff00" stroke="#ffff00" cx="647.15" cy="-164" rx="31.7" ry="18"/>
<text text-anchor="middle" x="647.15" y="-160.3" font-family="Times,serif" font-size="14.00">आदृत्य</text>
</g>
<!-- Node1_1&#45;&gt;Node1_2 -->
<!-- Node1_2_1 -->
<g id="node3" class="node">
<title>Node1_2_1</title>
<ellipse fill="#ffff00" stroke="#ffff00" cx="584.15" cy="-251" rx="102.88" ry="18"/>
<text text-anchor="middle" x="584.15" y="-247.3" font-family="Times,serif" font-size="14.00">&lt;अन्&#45;&#45;आदृत्य&gt;(नञ्&#45;तत्पुरुषः)</text>
</g>
<!-- Node1_1&#45;&gt;Node1_2_1 -->
<g id="edge2" class="edge">
<title>Node1_1&#45;&gt;Node1_2_1</title>
<path fill="none" stroke="black" d="M562.82,-191.53C567.75,-205.05 573.6,-221.09 577.93,-232.95"/>
<polygon fill="black" stroke="black" points="565.99,-189.99 559.27,-181.79 559.41,-192.39 565.99,-189.99"/>
</g>
<!-- Node1_2&#45;&gt;Node1_2_1 -->
<g id="edge1" class="edge">
<title>Node1_2&#45;&gt;Node1_2_1</title>
<path fill="none" stroke="black" d="M629.22,-189.19C618.87,-203.15 606.11,-220.37 596.81,-232.92"/>
<polygon fill="black" stroke="black" points="632.15,-191.11 635.3,-180.99 626.53,-186.94 632.15,-191.11"/>
</g>
<!-- Node1_2_1&#45;&gt;Node1_2_1c -->
<g id="edge4" class="edge">
<title>Node1_2_1&#45;&gt;Node1_2_1c</title>
<path fill="none" stroke="black" d="M549.09,-274.07C525.4,-288.99 494.7,-308.32 473.61,-321.6"/>
<polygon fill="black" stroke="black" points="551.2,-276.88 557.8,-268.59 547.47,-270.96 551.2,-276.88"/>
</g>
</g>
</g>
<!-- Node1_2_1c -->
<g class="node4" onclick="toggleChildren('children_node1');">
<title>Node1_2_1c</title>
<ellipse fill="#ff99ff" stroke="#ff99ff" cx="449.15" cy="-338" rx="58.49" ry="18"/>
<text text-anchor="middle" x="449.15" y="-334.3" font-family="Times,serif" font-size="14.00">अन्&#45;&#45;आदृत्य(1)</text>
</g>
<!-- Node7_1 -->
<g id="node21" class="node">
<title>Node7_1</title>
<ellipse fill="#ff1975" stroke="#ff1975" cx="400.15" cy="-425" rx="38.99" ry="18"/>
<text text-anchor="middle" x="400.15" y="-421.3" font-family="Times,serif" font-size="14.00">जगाम(7)</text>
</g>
<!-- Node1_2_1c&#45;&gt;Node7_1 -->
<g id="edge5" class="edge">
<title>Node1_2_1c&#45;&gt;Node7_1</title>
<path fill="none" stroke="black" d="M434.47,-364.46C426.42,-378.42 416.69,-395.31 409.64,-407.53"/>
<polygon fill="black" stroke="black" points="437.5,-366.2 439.47,-355.79 431.44,-362.71 437.5,-366.2"/>
<text text-anchor="middle" x="449.65" y="-377.8" font-family="Times,serif" font-size="14.00">पूर्वकालः</text>
</g>
<g id="children_node2" class="hidden">
    <g class="node" onclick="toggleChildren('children_node2');">
<!-- Node6_1 -->
<g id="node5" class="node">
<title>Node6_1</title>
<ellipse fill="#ffff00" stroke="#ffff00" cx="419.15" cy="-18" rx="28.7" ry="18"/>
<text text-anchor="middle" x="419.15" y="-14.3" font-family="Times,serif" font-size="14.00">काल&#45;</text>
</g>
<!-- Node6_2 -->
<g id="node6" class="node">
<title>Node6_2</title>
<ellipse fill="#ffff00" stroke="#ffff00" cx="516.15" cy="-18" rx="33.29" ry="18"/>
<text text-anchor="middle" x="516.15" y="-14.3" font-family="Times,serif" font-size="14.00">चोदितः</text>
</g>
<!-- Node6_1&#45;&gt;Node6_2 -->
<!-- Node6_2_1 -->
<g id="node7" class="node">
<title>Node6_2_1</title>
<ellipse fill="#ffff00" stroke="#ffff00" cx="468.15" cy="-91" rx="117.78" ry="18"/>
<text text-anchor="middle" x="468.15" y="-87.3" font-family="Times,serif" font-size="14.00">&lt;काल&#45;&#45;चोदितः&gt;(तृतीया&#45;तत्पुरुषः)</text>
</g>
<!-- Node6_1&#45;&gt;Node6_2_1 -->
<g id="edge7" class="edge">
<title>Node6_1&#45;&gt;Node6_2_1</title>
<path fill="none" stroke="black" d="M435.71,-43C442.52,-52.86 450.24,-64.06 456.45,-73.05"/>
<polygon fill="black" stroke="black" points="438.58,-41 430.02,-34.76 432.82,-44.98 438.58,-41"/>
</g>
<!-- Node6_2&#45;&gt;Node6_2_1 -->
<g id="edge6" class="edge">
<title>Node6_2&#45;&gt;Node6_2_1</title>
<path fill="none" stroke="black" d="M499.53,-43.58C492.98,-53.27 485.61,-64.16 479.67,-72.96"/>
<polygon fill="black" stroke="black" points="502.55,-45.36 505.26,-35.11 496.75,-41.44 502.55,-45.36"/>
</g>
<!-- Node6_2_1&#45;&gt;Node6_2_1c -->
<g id="edge9" class="edge">
<title>Node6_2_1&#45;&gt;Node6_2_1c</title>
<path fill="none" stroke="black" d="M452.53,-117.79C446.85,-127.17 440.57,-137.54 435.46,-145.97"/>
<polygon fill="black" stroke="black" points="455.55,-119.55 457.74,-109.19 449.56,-115.93 455.55,-119.55"/>
</g>
</g>
</g>
<!-- Node6_2_1c -->
<g class="node8" onclick="toggleChildren('children_node2');">
<title>Node6_2_1c</title>
<ellipse fill="#00bfff" stroke="#00bfff" cx="425.15" cy="-164" rx="64.19" ry="18"/>
<text text-anchor="middle" x="425.15" y="-160.3" font-family="Times,serif" font-size="14.00">काल&#45;&#45;चोदितः(6)</text>
</g>
<!-- Node5_1 -->
<g id="node20" class="node">
<title>Node5_1</title>
<ellipse fill="#00bfff" stroke="#00bfff" cx="351.15" cy="-251" rx="40.09" ry="18"/>
<text text-anchor="middle" x="351.15" y="-247.3" font-family="Times,serif" font-size="14.00">रावणः(5)</text>
</g>
<!-- Node6_2_1c&#45;&gt;Node5_1 -->
<g id="edge10" class="edge">
<title>Node6_2_1c&#45;&gt;Node5_1</title>
<path fill="none" stroke="black" d="M403.63,-189.72C391.26,-203.92 376.08,-221.36 365.23,-233.82"/>
<polygon fill="black" stroke="black" points="406.6,-191.63 410.53,-181.79 401.32,-187.04 406.6,-191.63"/>
<text text-anchor="middle" x="416.65" y="-203.8" font-family="Times,serif" font-size="14.00">विशेषणम्</text>
</g>
<g id="children_node3" class="hidden">
    <g class="node" onclick="toggleChildren('children_node3');">
<!-- Node8_1 -->
<g id="node9" class="node">
<title>Node8_1</title>
<ellipse fill="#ffff00" stroke="#ffff00" cx="105.15" cy="-18" rx="27" ry="18"/>
<text text-anchor="middle" x="105.15" y="-14.3" font-family="Times,serif" font-size="14.00">सह&#45;</text>
</g>
<!-- Node8_2 -->
<g id="node10" class="node">
<title>Node8_2</title>
<ellipse fill="#ffff00" stroke="#ffff00" cx="199.15" cy="-18" rx="31.7" ry="18"/>
<text text-anchor="middle" x="199.15" y="-14.3" font-family="Times,serif" font-size="14.00">मारीचः</text>
</g>
<!-- Node8_1&#45;&gt;Node8_2 -->
<!-- Node8_2_1 -->
<g id="node11" class="node">
<title>Node8_2_1</title>
<ellipse fill="#ffff00" stroke="#ffff00" cx="175.15" cy="-91" rx="157.07" ry="18"/>
<text text-anchor="middle" x="175.15" y="-87.3" font-family="Times,serif" font-size="14.00">&lt;सह&#45;&#45;मारीचः&gt;(सहपूर्वपद&#45;व्यधिकरण&#45;बहुव्रीहिः)</text>
</g>
<!-- Node8_1&#45;&gt;Node8_2_1 -->
<g id="edge12" class="edge">
<title>Node8_1&#45;&gt;Node8_2_1</title>
<path fill="none" stroke="black" d="M126.37,-40.53C136.6,-50.9 148.7,-63.17 158.29,-72.9"/>
<polygon fill="black" stroke="black" points="128.83,-38.03 119.31,-33.37 123.84,-42.95 128.83,-38.03"/>
</g>
<!-- Node8_2&#45;&gt;Node8_2_1 -->
<g id="edge11" class="edge">
<title>Node8_2&#45;&gt;Node8_2_1</title>
<path fill="none" stroke="black" d="M190.25,-45.31C187.15,-54.49 183.75,-64.55 180.96,-72.8"/>
<polygon fill="black" stroke="black" points="193.57,-46.42 193.46,-35.83 186.94,-44.18 193.57,-46.42"/>
</g>
<!-- Node8_2_1&#45;&gt;Node8_2_1c -->
<g id="edge14" class="edge">
<title>Node8_2_1&#45;&gt;Node8_2_1c</title>
<path fill="none" stroke="black" d="M199.6,-116.46C209.51,-126.36 220.69,-137.54 229.61,-146.46"/>
<polygon fill="black" stroke="black" points="201.88,-113.78 192.33,-109.19 196.93,-118.73 201.88,-113.78"/>
</g>
</g>
</g>
<!-- Node8_2_1c -->
<g class="node12" onclick="toggleChildren('children_node3');">
<title>Node8_2_1c</title>
<ellipse fill="#00bfff" stroke="#00bfff" cx="246.15" cy="-164" rx="57.69" ry="18"/>
<text text-anchor="middle" x="246.15" y="-160.3" font-family="Times,serif" font-size="14.00">सह&#45;&#45;मारीचः(8)</text>
</g>
<!-- Node8_2_1c&#45;&gt;Node5_1 -->
<g id="edge15" class="edge">
<title>Node8_2_1c&#45;&gt;Node5_1</title>
<path fill="none" stroke="black" d="M273.73,-187.33C292.28,-202.35 316.23,-221.73 332.54,-234.94"/>
<polygon fill="black" stroke="black" points="275.87,-184.56 265.9,-180.99 271.47,-190 275.87,-184.56"/>
<text text-anchor="middle" x="328.65" y="-203.8" font-family="Times,serif" font-size="14.00">विशेषणम्</text>
</g>
<g id="children_node4" class="hidden">
    <g class="node" onclick="toggleChildren('children_node4');">
<!-- Node10_1 -->
<g id="node13" class="node">
<title>Node10_1</title>
<ellipse fill="#ffff00" stroke="#ffff00" cx="33.15" cy="-164" rx="33.29" ry="18"/>
<text text-anchor="middle" x="33.15" y="-160.3" font-family="Times,serif" font-size="14.00">आश्रम&#45;</text>
</g>
<!-- Node10_2 -->
<g id="node14" class="node">
<title>Node10_2</title>
<ellipse fill="#ffff00" stroke="#ffff00" cx="129.15" cy="-164" rx="27" ry="18"/>
<text text-anchor="middle" x="129.15" y="-160.3" font-family="Times,serif" font-size="14.00">पदम्</text>
</g>
<!-- Node10_1&#45;&gt;Node10_2 -->
<!-- Node10_2_1 -->
<g id="node15" class="node">
<title>Node10_2_1</title>
<ellipse fill="#ffff00" stroke="#ffff00" cx="105.15" cy="-251" rx="96.68" ry="18"/>
<text text-anchor="middle" x="105.15" y="-247.3" font-family="Times,serif" font-size="14.00">&lt;आश्रम&#45;&#45;पदम्&gt;(कर्मधारयः)</text>
</g>
<!-- Node10_1&#45;&gt;Node10_2_1 -->
<g id="edge17" class="edge">
<title>Node10_1&#45;&gt;Node10_2_1</title>
<path fill="none" stroke="black" d="M53,-188.44C64.98,-202.58 79.96,-220.27 90.79,-233.05"/>
<polygon fill="black" stroke="black" points="55.49,-185.96 46.35,-180.59 50.15,-190.48 55.49,-185.96"/>
</g>
<!-- Node10_2&#45;&gt;Node10_2_1 -->
<g id="edge16" class="edge">
<title>Node10_2&#45;&gt;Node10_2_1</title>
<path fill="none" stroke="black" d="M121.66,-191.53C117.84,-205.05 113.31,-221.09 109.96,-232.95"/>
<polygon fill="black" stroke="black" points="125.06,-192.37 124.41,-181.79 118.32,-190.47 125.06,-192.37"/>
</g>
<!-- Node10_2_1&#45;&gt;Node10_2_1c -->
<g id="edge19" class="edge">
<title>Node10_2_1&#45;&gt;Node10_2_1c</title>
<path fill="none" stroke="black" d="M141.78,-273.47C167.32,-288.44 200.79,-308.07 223.74,-321.52"/>
<polygon fill="black" stroke="black" points="143.5,-270.43 133.1,-268.39 139.96,-276.47 143.5,-270.43"/>
</g>
</g>
</g>
<!-- Node10_2_1c -->
<g class="node16" onclick="toggleChildren('children_node4');">
<title>Node10_2_1c</title>
<ellipse fill="#93db70" stroke="#93db70" cx="250.15" cy="-338" rx="64.99" ry="18"/>
<text text-anchor="middle" x="250.15" y="-334.3" font-family="Times,serif" font-size="14.00">आश्रम&#45;&#45;पदम्(10)</text>
</g>
<!-- Node10_2_1c&#45;&gt;Node7_1 -->
<g id="edge20" class="edge">
<title>Node10_2_1c&#45;&gt;Node7_1</title>
<path fill="none" stroke="black" d="M278.18,-361.46C290.36,-370.65 305.04,-380.97 319.15,-389 335.52,-398.32 354.86,-406.76 370.54,-413.02"/>
<polygon fill="black" stroke="black" points="280.25,-358.64 270.19,-355.33 275.99,-364.19 280.25,-358.64"/>
<text text-anchor="middle" x="328.15" y="-377.8" font-family="Times,serif" font-size="14.00">कर्म</text>
</g>
<!-- Node3_1 -->
<g id="node17" class="node">
<title>Node3_1</title>
<ellipse fill="#93db70" stroke="#93db70" cx="744.15" cy="-164" rx="30.59" ry="18"/>
<text text-anchor="middle" x="744.15" y="-160.3" font-family="Times,serif" font-size="14.00">तत्(3)</text>
</g>
<!-- Node4_1 -->
<g id="node18" class="node">
<title>Node4_1</title>
<ellipse fill="#93db70" stroke="#93db70" cx="748.15" cy="-251" rx="42.79" ry="18"/>
<text text-anchor="middle" x="748.15" y="-247.3" font-family="Times,serif" font-size="14.00">वाक्यम्(4)</text>
</g>
<!-- Node3_1&#45;&gt;Node4_1 -->
<g id="edge22" class="edge">
<title>Node3_1&#45;&gt;Node4_1</title>
<path fill="none" stroke="black" d="M745.43,-192.27C746.06,-205.58 746.79,-221.19 747.34,-232.82"/>
<polygon fill="black" stroke="black" points="748.92,-192.03 744.96,-182.2 741.93,-192.35 748.92,-192.03"/>
<text text-anchor="middle" x="769.65" y="-203.8" font-family="Times,serif" font-size="14.00">विशेषणम्</text>
</g>
<!-- Node4_1&#45;&gt;Node1_2_1c -->
<g id="edge23" class="edge">
<title>Node4_1&#45;&gt;Node1_2_1c</title>
<path fill="none" stroke="black" d="M713.4,-269.95C707.72,-272.52 701.83,-274.98 696.15,-277 619.07,-304.44 596.61,-300.52 517.15,-320 509.35,-321.91 501.05,-323.97 493.03,-325.97"/>
<polygon fill="black" stroke="black" points="715.14,-273 722.69,-265.57 712.15,-266.67 715.14,-273"/>
<text text-anchor="middle" x="672.15" y="-290.8" font-family="Times,serif" font-size="14.00">कर्म</text>
</g>
<!-- Node2_1 -->
<g id="node19" class="node">
<title>Node2_1</title>
<ellipse fill="#ff99ff" stroke="#ff99ff" cx="436.15" cy="-251" rx="27" ry="18"/>
<text text-anchor="middle" x="436.15" y="-247.3" font-family="Times,serif" font-size="14.00">तु(2)</text>
</g>
<!-- Node2_1&#45;&gt;Node1_2_1c -->
<g id="edge21" class="edge">
<title>Node2_1&#45;&gt;Node1_2_1c</title>
<path fill="none" stroke="black" d="M440.32,-279.27C442.35,-292.58 444.74,-308.19 446.52,-319.82"/>
<polygon fill="black" stroke="black" points="443.75,-278.56 438.78,-269.2 436.83,-279.62 443.75,-278.56"/>
<text text-anchor="middle" x="462.65" y="-290.8" font-family="Times,serif" font-size="14.00">सम्बन्धः</text>
</g>
<!-- Node5_1&#45;&gt;Node1_2_1c -->
<g id="edge25" class="edge">
<title>Node5_1&#45;&gt;Node1_2_1c</title>
<path fill="none" stroke="black" stroke-dasharray="1,5" d="M376.92,-274.35C393.66,-288.88 415.12,-307.49 430.28,-320.64"/>
<polygon fill="black" stroke="black" points="378.97,-271.5 369.12,-267.59 374.38,-276.79 378.97,-271.5"/>
<text text-anchor="middle" x="417.15" y="-290.8" font-family="Times,serif" font-size="14.00">कर्ता</text>
</g>
<!-- Node5_1&#45;&gt;Node7_1 -->
<g id="edge24" class="edge">
<title>Node5_1&#45;&gt;Node7_1</title>
<path fill="none" stroke="black" d="M350.25,-279.31C350.31,-300.67 352.12,-330.86 360.15,-356 366.23,-375.05 378.38,-394.49 387.71,-407.68"/>
<polygon fill="black" stroke="black" points="353.75,-279.05 350.35,-269.02 346.75,-278.98 353.75,-279.05"/>
<text text-anchor="middle" x="371.15" y="-334.3" font-family="Times,serif" font-size="14.00">कर्ता</text>
</g>
<!-- Node9_1 -->
<g id="node22" class="node">
<title>Node9_1</title>
<ellipse fill="#87ceeb" stroke="#87ceeb" cx="254.15" cy="-251" rx="34.39" ry="18"/>
<text text-anchor="middle" x="254.15" y="-247.3" font-family="Times,serif" font-size="14.00">तस्य(9)</text>
</g>
<!-- Node9_1&#45;&gt;Node10_2_1c -->
<g id="edge26" class="edge">
<title>Node9_1&#45;&gt;Node10_2_1c</title>
<path fill="none" stroke="black" d="M252.86,-279.27C252.24,-292.58 251.5,-308.19 250.96,-319.82"/>
<polygon fill="black" stroke="black" points="256.36,-279.35 253.34,-269.2 249.37,-279.03 256.36,-279.35"/>
<text text-anchor="middle" x="281.15" y="-290.8" font-family="Times,serif" font-size="14.00">षष्ठीसम्बन्धः</text>
</g>
<!-- Node10_2_1c -->
<g class="node16" onclick="toggleChildren('children_node4');">
<title>Node10_2_1c</title>
<ellipse fill="#93db70" stroke="#93db70" cx="250.15" cy="-338" rx="64.99" ry="18"/>
<text text-anchor="middle" x="250.15" y="-334.3" font-family="Times,serif" font-size="14.00">आश्रम&#45;&#45;पदम्(10)</text>
</g>
<!-- Node11_1 -->
<g id="node23" class="node">
<title>Node11_1</title>
<ellipse fill="#ff99ff" stroke="#ff99ff" cx="563.15" cy="-338" rx="37.09" ry="18"/>
<text text-anchor="middle" x="563.15" y="-334.3" font-family="Times,serif" font-size="14.00">तदा(11)</text>
</g>
<!-- Node11_1&#45;&gt;Node7_1 -->
<g id="edge27" class="edge">
<title>Node11_1&#45;&gt;Node7_1</title>
<path fill="none" stroke="black" d="M531.85,-357.59C515.19,-367.28 494.25,-379.14 475.15,-389 459.57,-397.04 441.81,-405.37 427.48,-411.88"/>
<polygon fill="black" stroke="black" points="533.77,-360.53 540.63,-352.46 530.23,-354.48 533.77,-360.53"/>
<text text-anchor="middle" x="538.65" y="-377.8" font-family="Times,serif" font-size="14.00">कालाधिकरणम्</text>
</g>
</g>
</svg>
