<?xml version="1.0" encoding="UTF-8" standalone="no"?>
<!DOCTYPE svg PUBLIC "-//W3C//DTD SVG 1.1//EN"
 "http://www.w3.org/Graphics/SVG/1.1/DTD/svg11.dtd">
<!-- Generated by graphviz version 2.50.0 (20211204.2007)
 -->
<!-- Title: G Pages: 1 -->
<svg width="720pt" height="305pt"
 viewBox="0.00 0.00 720.00 305.00" xmlns="http://www.w3.org/2000/svg" xmlns:xlink="http://www.w3.org/1999/xlink">
<g id="graph0" class="graph" transform="scale(1 1) rotate(0) translate(4 301)">
<title>G</title>
<polygon fill="#fffacd" stroke="transparent" points="-4,4 -4,-301 716,-301 716,4 -4,4"/>
<g id="clust1" class="cluster">
<title>cluster_1</title>
<polygon fill="#fffacd" stroke="black" points="508,-79 508,-218 704,-218 704,-79 508,-79"/>
</g>
<g id="clust2" class="cluster">
<title>cluster_2</title>
<polygon fill="#fffacd" stroke="black" points="8,-79 8,-218 130,-218 130,-79 8,-79"/>
</g>
<!-- Node3_2 -->
<g id="node1" class="node">
<title>Node3_2</title>
<ellipse fill="#93db70" stroke="#93db70" cx="653" cy="-105" rx="42.79" ry="18"/>
<text text-anchor="middle" x="653" y="-101.3" font-family="Times,serif" font-size="14.00">सर्वम्(3.2)</text>
</g>
<!-- Node9_2 -->
<g id="node2" class="node">
<title>Node9_2</title>
<ellipse fill="#93db70" stroke="#93db70" cx="558" cy="-192" rx="42.49" ry="18"/>
<text text-anchor="middle" x="558" y="-188.3" font-family="Times,serif" font-size="14.00">वृत्तम्(9.2)</text>
</g>
<!-- Node3_2&#45;&gt;Node9_2 -->
<g id="edge4" class="edge">
<title>Node3_2&#45;&gt;Node9_2</title>
<path fill="none" stroke="black" d="M633.01,-129.71C625.26,-138.37 616.07,-147.99 607,-156 598.7,-163.34 588.87,-170.6 580.2,-176.59"/>
<polygon fill="black" stroke="black" points="635.72,-131.94 639.69,-122.11 630.46,-127.32 635.72,-131.94"/>
<text text-anchor="middle" x="644.5" y="-144.8" font-family="Times,serif" font-size="14.00">विशेषणम्</text>
</g>
<!-- Node4_1 -->
<g id="node7" class="node">
<title>Node4_1</title>
<ellipse fill="#ff1975" stroke="#ff1975" cx="313" cy="-279" rx="56.59" ry="18"/>
<text text-anchor="middle" x="313" y="-275.3" font-family="Times,serif" font-size="14.00">(अ)शंसत्(4.1)</text>
</g>
<!-- Node9_2&#45;&gt;Node4_1 -->
<g id="edge10" class="edge">
<title>Node9_2&#45;&gt;Node4_1</title>
<path fill="none" stroke="black" d="M529.74,-213.78C514.73,-223.93 495.59,-235.54 477,-243 440.93,-257.48 397.88,-266.37 364.94,-271.57"/>
<polygon fill="black" stroke="black" points="531.84,-216.59 538.06,-208.02 527.85,-210.83 531.84,-216.59"/>
<text text-anchor="middle" x="514" y="-231.8" font-family="Times,serif" font-size="14.00">कर्म</text>
</g>
<!-- Node8_1 -->
<g id="node3" class="node">
<title>Node8_1</title>
<ellipse fill="#93db70" stroke="#93db70" cx="554" cy="-105" rx="37.89" ry="18"/>
<text text-anchor="middle" x="554" y="-101.3" font-family="Times,serif" font-size="14.00">तत्(8.1)</text>
</g>
<!-- Node8_1&#45;&gt;Node9_2 -->
<g id="edge8" class="edge">
<title>Node8_1&#45;&gt;Node9_2</title>
<path fill="none" stroke="black" d="M555.28,-133.27C555.91,-146.58 556.64,-162.19 557.19,-173.82"/>
<polygon fill="black" stroke="black" points="558.78,-133.03 554.81,-123.2 551.78,-133.35 558.78,-133.03"/>
<text text-anchor="middle" x="579.5" y="-144.8" font-family="Times,serif" font-size="14.00">विशेषणम्</text>
</g>
<!-- Node6_1 -->
<g id="node4" class="node">
<title>Node6_1</title>
<ellipse fill="#00bfff" stroke="#00bfff" cx="69" cy="-105" rx="53.09" ry="18"/>
<text text-anchor="middle" x="69" y="-101.3" font-family="Times,serif" font-size="14.00">महाबलः(6.1)</text>
</g>
<!-- Node5_1 -->
<g id="node5" class="node">
<title>Node5_1</title>
<ellipse fill="#00bfff" stroke="#00bfff" cx="74" cy="-192" rx="40.09" ry="18"/>
<text text-anchor="middle" x="74" y="-188.3" font-family="Times,serif" font-size="14.00">रामः(5.1)</text>
</g>
<!-- Node6_1&#45;&gt;Node5_1 -->
<g id="edge6" class="edge">
<title>Node6_1&#45;&gt;Node5_1</title>
<path fill="none" stroke="black" d="M70.6,-133.27C71.39,-146.58 72.31,-162.19 72.99,-173.82"/>
<polygon fill="black" stroke="black" points="74.09,-132.98 70.01,-123.2 67.11,-133.39 74.09,-132.98"/>
<text text-anchor="middle" x="95.5" y="-144.8" font-family="Times,serif" font-size="14.00">विशेषणम्</text>
</g>
<!-- Node5_1&#45;&gt;Node4_1 -->
<g id="edge5" class="edge">
<title>Node5_1&#45;&gt;Node4_1</title>
<path fill="none" stroke="black" d="M109.5,-209.83C115.94,-212.69 122.63,-215.52 129,-218 177.69,-236.94 235.12,-255.01 272.71,-266.28"/>
<polygon fill="black" stroke="black" points="110.88,-206.61 100.32,-205.68 107.99,-212.99 110.88,-206.61"/>
<text text-anchor="middle" x="206" y="-231.8" font-family="Times,serif" font-size="14.00">कर्ता</text>
</g>
<!-- Node1_1 -->
<g id="node6" class="node">
<title>Node1_1</title>
<ellipse fill="#b0e2ff" stroke="#b0e2ff" cx="191" cy="-192" rx="53.09" ry="18"/>
<text text-anchor="middle" x="191" y="-188.3" font-family="Times,serif" font-size="14.00">सुग्रीवाय(1.1)</text>
</g>
<!-- Node1_1&#45;&gt;Node4_1 -->
<g id="edge1" class="edge">
<title>Node1_1&#45;&gt;Node4_1</title>
<path fill="none" stroke="black" d="M221.54,-214.28C243.02,-229.24 271.27,-248.93 290.66,-262.43"/>
<polygon fill="black" stroke="black" points="223.3,-211.24 213.09,-208.39 219.3,-216.98 223.3,-211.24"/>
<text text-anchor="middle" x="282" y="-231.8" font-family="Times,serif" font-size="14.00">प्रयोजनम्</text>
</g>
<!-- Node2_1 -->
<g id="node8" class="node">
<title>Node2_1</title>
<ellipse fill="#ff99ff" stroke="#ff99ff" cx="191" cy="-105" rx="33.6" ry="18"/>
<text text-anchor="middle" x="191" y="-101.3" font-family="Times,serif" font-size="14.00">च(2.1)</text>
</g>
<!-- Node2_1&#45;&gt;Node1_1 -->
<g id="edge2" class="edge">
<title>Node2_1&#45;&gt;Node1_1</title>
<path fill="none" stroke="black" d="M191,-133.27C191,-146.58 191,-162.19 191,-173.82"/>
<polygon fill="black" stroke="black" points="194.5,-133.2 191,-123.2 187.5,-133.2 194.5,-133.2"/>
<text text-anchor="middle" x="209.5" y="-144.8" font-family="Times,serif" font-size="14.00">सम्बन्धः</text>
</g>
<!-- Node3_1 -->
<g id="node9" class="node">
<title>Node3_1</title>
<ellipse fill="#ffff00" stroke="#ffff00" cx="653" cy="-18" rx="40.09" ry="18"/>
<text text-anchor="middle" x="653" y="-14.3" font-family="Times,serif" font-size="14.00">तत्&#45;(3.1)</text>
</g>
<!-- Node3_1&#45;&gt;Node3_2 -->
<g id="edge3" class="edge">
<title>Node3_1&#45;&gt;Node3_2</title>
<path fill="none" stroke="black" d="M653,-46.27C653,-59.58 653,-75.19 653,-86.82"/>
<polygon fill="black" stroke="black" points="656.5,-46.2 653,-36.2 649.5,-46.2 656.5,-46.2"/>
<text text-anchor="middle" x="676.5" y="-57.8" font-family="Times,serif" font-size="14.00">कर्मधारयः</text>
</g>
<!-- Node7_1 -->
<g id="node10" class="node">
<title>Node7_1</title>
<ellipse fill="#ff99ff" stroke="#ff99ff" cx="313" cy="-192" rx="50.89" ry="18"/>
<text text-anchor="middle" x="313" y="-188.3" font-family="Times,serif" font-size="14.00">आदितः(7.1)</text>
</g>
<!-- Node7_1&#45;&gt;Node4_1 -->
<g id="edge7" class="edge">
<title>Node7_1&#45;&gt;Node4_1</title>
<path fill="none" stroke="black" d="M313,-220.27C313,-233.58 313,-249.19 313,-260.82"/>
<polygon fill="black" stroke="black" points="316.5,-220.2 313,-210.2 309.5,-220.2 316.5,-220.2"/>
<text text-anchor="middle" x="344.5" y="-231.8" font-family="Times,serif" font-size="14.00">आरम्भ_बिन्दुः</text>
</g>
<!-- Node9_1 -->
<g id="node11" class="node">
<title>Node9_1</title>
<ellipse fill="#ffff00" stroke="#ffff00" cx="320" cy="-105" rx="44.39" ry="18"/>
<text text-anchor="middle" x="320" y="-101.3" font-family="Times,serif" font-size="14.00">यथा&#45;(9.1)</text>
</g>
<!-- Node9_1&#45;&gt;Node9_2 -->
<g id="edge9" class="edge">
<title>Node9_1&#45;&gt;Node9_2</title>
<path fill="none" stroke="black" d="M351.83,-125.75C369.8,-136.12 393,-148.24 415,-156 454.3,-169.85 466.71,-163.39 507,-174 513.41,-175.69 520.18,-177.75 526.63,-179.84"/>
<polygon fill="black" stroke="black" points="353.34,-122.58 342.95,-120.52 349.79,-128.61 353.34,-122.58"/>
<text text-anchor="middle" x="444" y="-144.8" font-family="Times,serif" font-size="14.00">अव्ययीभावः</text>
</g>
<!-- Node10_1 -->
<g id="node12" class="node">
<title>Node10_1</title>
<ellipse fill="#87ceeb" stroke="#87ceeb" cx="440" cy="-105" rx="57.69" ry="18"/>
<text text-anchor="middle" x="440" y="-101.3" font-family="Times,serif" font-size="14.00">सीतायाः(10.1)</text>
</g>
<!-- Node10_1&#45;&gt;Node9_2 -->
<g id="edge11" class="edge">
<title>Node10_1&#45;&gt;Node9_2</title>
<path fill="none" stroke="black" d="M463.43,-129.5C472.83,-138.33 484.02,-148.12 495,-156 506.39,-164.17 519.87,-171.89 531.43,-177.99"/>
<polygon fill="black" stroke="black" points="465.64,-126.77 456,-122.37 460.79,-131.82 465.64,-126.77"/>
<text text-anchor="middle" x="523" y="-144.8" font-family="Times,serif" font-size="14.00">षष्ठीसम्बन्धः</text>
</g>
<!-- Node11_1 -->
<g id="node13" class="node">
<title>Node11_1</title>
<ellipse fill="#ff99ff" stroke="#ff99ff" cx="440" cy="-18" rx="38.19" ry="18"/>
<text text-anchor="middle" x="440" y="-14.3" font-family="Times,serif" font-size="14.00">च(11.1)</text>
</g>
<!-- Node11_1&#45;&gt;Node10_1 -->
<g id="edge12" class="edge">
<title>Node11_1&#45;&gt;Node10_1</title>
<path fill="none" stroke="black" d="M440,-46.27C440,-59.58 440,-75.19 440,-86.82"/>
<polygon fill="black" stroke="black" points="443.5,-46.2 440,-36.2 436.5,-46.2 443.5,-46.2"/>
<text text-anchor="middle" x="458.5" y="-57.8" font-family="Times,serif" font-size="14.00">सम्बन्धः</text>
</g>
<!-- Node12_1 -->
<g id="node14" class="node">
<title>Node12_1</title>
<ellipse fill="#ff99ff" stroke="#ff99ff" cx="440" cy="-192" rx="57.69" ry="18"/>
<text text-anchor="middle" x="440" y="-188.3" font-family="Times,serif" font-size="14.00">विशेषतः(12.1)</text>
</g>
<!-- Node12_1&#45;&gt;Node4_1 -->
<g id="edge13" class="edge">
<title>Node12_1&#45;&gt;Node4_1</title>
<path fill="none" stroke="black" d="M414.89,-215.97C404.48,-224.94 392.05,-234.97 380,-243 368.54,-250.64 355.2,-257.91 343.47,-263.81"/>
<polygon fill="black" stroke="black" points="417.2,-218.6 422.41,-209.38 412.58,-213.34 417.2,-218.6"/>
<text text-anchor="middle" x="436.5" y="-231.8" font-family="Times,serif" font-size="14.00">क्रियाविशेषणम्</text>
</g>
</g>
</svg>
