<?xml version="1.0" encoding="UTF-8" standalone="no"?>
<!DOCTYPE svg PUBLIC "-//W3C//DTD SVG 1.1//EN"
 "http://www.w3.org/Graphics/SVG/1.1/DTD/svg11.dtd">
<!-- Generated by graphviz version 2.50.0 (20211204.2007)
 -->
<!-- Title: G Pages: 1 -->
<svg width="325pt" height="218pt"
 viewBox="0.00 0.00 324.54 218.00" xmlns="http://www.w3.org/2000/svg" xmlns:xlink="http://www.w3.org/1999/xlink">
<g id="graph0" class="graph" transform="scale(1 1) rotate(0) translate(4 214)">
<title>G</title>
<polygon fill="#fffacd" stroke="transparent" points="-4,4 -4,-214 320.54,-214 320.54,4 -4,4"/>
<!-- Node1_1 -->
<g id="node1" class="node">
<title>Node1_1</title>
<ellipse fill="#ffff00" stroke="#ffff00" cx="46.15" cy="-18" rx="46.29" ry="18"/>
<text text-anchor="middle" x="46.15" y="-14.3" font-family="Times,serif" font-size="14.00">पम्पा&#45;(1.1)</text>
</g>
<!-- Node1_2 -->
<g id="node2" class="node">
<title>Node1_2</title>
<ellipse fill="#93db70" stroke="#93db70" cx="46.15" cy="-105" rx="38.19" ry="18"/>
<text text-anchor="middle" x="46.15" y="-101.3" font-family="Times,serif" font-size="14.00">तीरे(1.2)</text>
</g>
<!-- Node1_1&#45;&gt;Node1_2 -->
<g id="edge1" class="edge">
<title>Node1_1&#45;&gt;Node1_2</title>
<path fill="none" stroke="black" d="M46.15,-46.27C46.15,-59.58 46.15,-75.19 46.15,-86.82"/>
<polygon fill="black" stroke="black" points="49.65,-46.2 46.15,-36.2 42.65,-46.2 49.65,-46.2"/>
<text text-anchor="middle" x="62.15" y="-57.8" font-family="Times,serif" font-size="14.00">समासः</text>
</g>
<!-- Node3_1 -->
<g id="node3" class="node">
<title>Node3_1</title>
<ellipse fill="#00bfff" stroke="#00bfff" cx="151.15" cy="-192" rx="46.29" ry="18"/>
<text text-anchor="middle" x="151.15" y="-188.3" font-family="Times,serif" font-size="14.00">सङ्गतः(3.1)</text>
</g>
<!-- Node1_2&#45;&gt;Node3_1 -->
<g id="edge2" class="edge">
<title>Node1_2&#45;&gt;Node3_1</title>
<path fill="none" stroke="black" d="M72.93,-127.68C91.31,-142.56 115.29,-161.97 131.83,-175.36"/>
<polygon fill="black" stroke="black" points="74.89,-124.77 64.92,-121.2 70.49,-130.21 74.89,-124.77"/>
<text text-anchor="middle" x="114.15" y="-144.8" font-family="Times,serif" font-size="14.00">कर्म</text>
</g>
<!-- Node2_1 -->
<g id="node4" class="node">
<title>Node2_1</title>
<ellipse fill="#40e0d0" stroke="#40e0d0" cx="151.15" cy="-105" rx="48.99" ry="18"/>
<text text-anchor="middle" x="151.15" y="-101.3" font-family="Times,serif" font-size="14.00">हनुमता(2.1)</text>
</g>
<!-- Node2_1&#45;&gt;Node3_1 -->
<g id="edge3" class="edge">
<title>Node2_1&#45;&gt;Node3_1</title>
<path fill="none" stroke="black" d="M151.15,-133.27C151.15,-146.58 151.15,-162.19 151.15,-173.82"/>
<polygon fill="black" stroke="black" points="154.65,-133.2 151.15,-123.2 147.65,-133.2 154.65,-133.2"/>
<text text-anchor="middle" x="160.65" y="-144.8" font-family="Times,serif" font-size="14.00">हेतुः</text>
</g>
<!-- Node4_1 -->
<g id="node5" class="node">
<title>Node4_1</title>
<ellipse fill="#40e0d0" stroke="#40e0d0" cx="267.15" cy="-105" rx="49.29" ry="18"/>
<text text-anchor="middle" x="267.15" y="-101.3" font-family="Times,serif" font-size="14.00">वानरेण(4.1)</text>
</g>
<!-- Node4_1&#45;&gt;Node3_1 -->
<g id="edge4" class="edge">
<title>Node4_1&#45;&gt;Node3_1</title>
<path fill="none" stroke="black" d="M238.05,-127.32C217.49,-142.38 190.43,-162.22 172,-175.72"/>
<polygon fill="black" stroke="black" points="240.14,-130.13 246.14,-121.39 236,-124.48 240.14,-130.13"/>
<text text-anchor="middle" x="232.15" y="-144.8" font-family="Times,serif" font-size="14.00">सहार्थः</text>
</g>
<!-- Node5_1 -->
<g id="node6" class="node">
<title>Node5_1</title>
<ellipse fill="#ff99ff" stroke="#ff99ff" cx="267.15" cy="-18" rx="32.49" ry="18"/>
<text text-anchor="middle" x="267.15" y="-14.3" font-family="Times,serif" font-size="14.00">ह(5.1)</text>
</g>
<!-- Node5_1&#45;&gt;Node4_1 -->
<g id="edge5" class="edge">
<title>Node5_1&#45;&gt;Node4_1</title>
<path fill="none" stroke="black" d="M267.15,-46.27C267.15,-59.58 267.15,-75.19 267.15,-86.82"/>
<polygon fill="black" stroke="black" points="270.65,-46.2 267.15,-36.2 263.65,-46.2 270.65,-46.2"/>
<text text-anchor="middle" x="285.65" y="-57.8" font-family="Times,serif" font-size="14.00">सम्बन्धः</text>
</g>
</g>
</svg>
