<svg width="533pt" height="277pt"
 viewBox="0.00 0.00 532.64 277.00" xmlns="http://www.w3.org/2000/svg" xmlns:xlink="http://www.w3.org/1999/xlink">
<g id="graph0" class="graph" transform="scale(1 1) rotate(0) translate(4 273)">
<title>G</title>
<polygon fill="#fffacd" stroke="transparent" points="-4,4 -4,-273 528.64,-273 528.64,4 -4,4"/>
<!-- Node5_1 -->
<style>
 .hidden { display: none; }
 .node { cursor: pointer; }
 </style>
<script>
     function toggleChildren(id) {
      const children = document.getElementById(id);
      if (children.classList.contains('hidden')) {
        children.classList.remove('hidden');
      } else {
        children.classList.add('hidden');
      }
    }
</script>
<g id="children_node1" class="hidden">
    <g class="node" onclick="toggleChildren('children_node1');">

<g id="node1" class="node">
<title>Node5_1</title>
<ellipse fill="#ffff00" stroke="#ffff00" cx="59.64" cy="-18" rx="29.8" ry="18"/>
<text text-anchor="middle" x="59.64" y="-14.3" font-family="Times,serif" font-size="14.00">वालि&#45;</text>
</g>
<!-- Node5_2 -->
<g id="node2" class="node">
<title>Node5_2</title>
<ellipse fill="#ffff00" stroke="#ffff00" cx="151.64" cy="-18" rx="27" ry="18"/>
<text text-anchor="middle" x="151.64" y="-14.3" font-family="Times,serif" font-size="14.00">वधम्</text>
</g>
<!-- Node5_1&#45;&gt;Node5_2 -->
<!-- Node5_2_1 -->
<g id="node3" class="node">
<title>Node5_2_1</title>
<ellipse fill="#ffff00" stroke="#ffff00" cx="104.64" cy="-91" rx="104.78" ry="18"/>
<text text-anchor="middle" x="104.64" y="-87.3" font-family="Times,serif" font-size="14.00">&lt;वालि&#45;&#45;वधम्&gt;(षष्ठी&#45;तत्पुरुषः)</text>
</g>
<!-- Node5_1&#45;&gt;Node5_2_1 -->
<g id="edge2" class="edge">
<title>Node5_1&#45;&gt;Node5_2_1</title>
<path fill="none" stroke="black" d="M75.22,-43.58C81.36,-53.27 88.27,-64.16 93.84,-72.96"/>
<polygon fill="black" stroke="black" points="78.16,-41.68 69.85,-35.11 72.25,-45.43 78.16,-41.68"/>
</g>
<!-- Node5_2&#45;&gt;Node5_2_1 -->
<g id="edge1" class="edge">
<title>Node5_2&#45;&gt;Node5_2_1</title>
<path fill="none" stroke="black" d="M135.56,-43.3C129.07,-53.09 121.75,-64.15 115.86,-73.05"/>
<polygon fill="black" stroke="black" points="138.61,-45.03 141.21,-34.76 132.77,-41.16 138.61,-45.03"/>
</g>
<!-- Node5_2_1&#45;&gt;Node5_2_1c -->
<g id="edge4" class="edge">
<title>Node5_2_1&#45;&gt;Node5_2_1c</title>
<path fill="none" stroke="black" d="M104.64,-119.25C104.64,-128.23 104.64,-137.97 104.64,-145.97"/>
<polygon fill="black" stroke="black" points="108.14,-119.19 104.64,-109.19 101.14,-119.19 108.14,-119.19"/>
</g>
</g>
</g>
<!-- Node5_2_1c -->
<g class="node4" onclick="toggleChildren('children_node1');">
<title>Node5_2_1c</title>
<ellipse fill="#93db70" stroke="#93db70" cx="104.64" cy="-164" rx="58.49" ry="18"/>
<text text-anchor="middle" x="104.64" y="-160.3" font-family="Times,serif" font-size="14.00">वालि&#45;&#45;वधम्(5)</text>
</g>
<!-- Node1_1 -->
<g id="node6" class="node">
<title>Node1_1</title>
<ellipse fill="#93db70" stroke="#93db70" cx="290.64" cy="-251" rx="51.99" ry="18"/>
<text text-anchor="middle" x="290.64" y="-247.3" font-family="Times,serif" font-size="14.00">प्रतिज्ञातम्(1)</text>
</g>
<!-- Node5_2_1c&#45;&gt;Node1_1 -->
<g id="edge5" class="edge">
<title>Node5_2_1c&#45;&gt;Node1_1</title>
<path fill="none" stroke="black" d="M132.05,-187.39C144.72,-196.91 160.34,-207.53 175.64,-215 198.61,-226.22 225.93,-234.72 248.18,-240.53"/>
<polygon fill="black" stroke="black" points="133.84,-184.35 123.78,-181.02 129.56,-189.9 133.84,-184.35"/>
<text text-anchor="middle" x="203.64" y="-203.8" font-family="Times,serif" font-size="14.00">आभिमुख्यम्</text>
</g>
<!-- Node2_1 -->
<g id="node5" class="node">
<title>Node2_1</title>
<ellipse fill="#ff99ff" stroke="#ff99ff" cx="207.64" cy="-164" rx="27" ry="18"/>
<text text-anchor="middle" x="207.64" y="-160.3" font-family="Times,serif" font-size="14.00">च(2)</text>
</g>
<!-- Node2_1&#45;&gt;Node1_1 -->
<g id="edge6" class="edge">
<title>Node2_1&#45;&gt;Node1_1</title>
<path fill="none" stroke="black" d="M225.89,-188.33C233,-196.99 241.41,-206.71 249.64,-215 256.23,-221.64 263.93,-228.44 270.86,-234.25"/>
<polygon fill="black" stroke="black" points="228.52,-186.02 219.52,-180.44 223.08,-190.42 228.52,-186.02"/>
<text text-anchor="middle" x="268.14" y="-203.8" font-family="Times,serif" font-size="14.00">सम्बन्धः</text>
</g>
<!-- Node3_1 -->
<g id="node7" class="node">
<title>Node3_1</title>
<ellipse fill="#40e0d0" stroke="#40e0d0" cx="290.64" cy="-164" rx="38.19" ry="18"/>
<text text-anchor="middle" x="290.64" y="-160.3" font-family="Times,serif" font-size="14.00">रामेण(3)</text>
</g>
<!-- Node3_1&#45;&gt;Node1_1 -->
<g id="edge7" class="edge">
<title>Node3_1&#45;&gt;Node1_1</title>
<path fill="none" stroke="black" d="M290.64,-192.27C290.64,-205.58 290.64,-221.19 290.64,-232.82"/>
<polygon fill="black" stroke="black" points="294.14,-192.2 290.64,-182.2 287.14,-192.2 294.14,-192.2"/>
<text text-anchor="middle" x="301.64" y="-203.8" font-family="Times,serif" font-size="14.00">कर्ता</text>
</g>
<!-- Node4_1 -->
<g id="node8" class="node">
<title>Node4_1</title>
<ellipse fill="#ff99ff" stroke="#ff99ff" cx="379.64" cy="-164" rx="32.49" ry="18"/>
<text text-anchor="middle" x="379.64" y="-160.3" font-family="Times,serif" font-size="14.00">तदा(4)</text>
</g>
<!-- Node4_1&#45;&gt;Node1_1 -->
<g id="edge8" class="edge">
<title>Node4_1&#45;&gt;Node1_1</title>
<path fill="none" stroke="black" d="M356.2,-187.39C340.94,-201.96 321.39,-220.63 307.63,-233.78"/>
<polygon fill="black" stroke="black" points="358.91,-189.63 363.73,-180.2 354.08,-184.57 358.91,-189.63"/>
<text text-anchor="middle" x="376.14" y="-203.8" font-family="Times,serif" font-size="14.00">कालाधिकरणम्</text>
</g>
<!-- Node5_2_1c -->
<g class="node4" onclick="toggleChildren('children_node1');">
<title>Node5_2_1c</title>
<ellipse fill="#93db70" stroke="#93db70" cx="104.64" cy="-164" rx="58.49" ry="18"/>
<text text-anchor="middle" x="104.64" y="-160.3" font-family="Times,serif" font-size="14.00">वालि&#45;&#45;वधम्(5)</text>
</g>
<!-- Node6_1 -->
<g id="node9" class="node">
<title>Node6_1</title>
<ellipse fill="#ff99ff" stroke="#ff99ff" cx="469.64" cy="-164" rx="33.6" ry="18"/>
<text text-anchor="middle" x="469.64" y="-160.3" font-family="Times,serif" font-size="14.00">प्रति(6)</text>
</g>
<!-- Node6_1&#45;&gt;Node1_1 -->
<g id="edge9" class="edge">
<title>Node6_1&#45;&gt;Node1_1</title>
<path fill="none" stroke="black" d="M449.92,-188.04C440.68,-197.59 428.99,-208.04 416.64,-215 392.12,-228.83 361.79,-237.48 337.04,-242.71"/>
<polygon fill="black" stroke="black" points="452.54,-190.37 456.78,-180.66 447.41,-185.61 452.54,-190.37"/>
<text text-anchor="middle" x="480.14" y="-203.8" font-family="Times,serif" font-size="14.00">आभिमुख्य_द्योतकः</text>
</g>
</g>
</svg>
