<svg width="959pt" height="538pt"
 viewBox="0.00 0.00 959.29 538.00" xmlns="http://www.w3.org/2000/svg" xmlns:xlink="http://www.w3.org/1999/xlink">
<g id="graph0" class="graph" transform="scale(1 1) rotate(0) translate(4 534)">
<title>G</title>
<polygon fill="#fffacd" stroke="transparent" points="-4,4 -4,-534 955.29,-534 955.29,4 -4,4"/>
<g id="clust1" class="cluster">
<title>cluster_1</title>
<polygon fill="#fffacd" stroke="black" points="759.94,-312 759.94,-451 883.94,-451 883.94,-312 759.94,-312"/>
</g>
<g id="clust2" class="cluster">
<title>cluster_2</title>
<polygon fill="#fffacd" stroke="black" points="439.94,-312 439.94,-364 547.94,-364 547.94,-312 439.94,-312"/>
</g>
<!-- Node2_1 -->
<style>
 .hidden { display: none; }
 .node { cursor: pointer; }
 </style>
<script>
     function toggleChildren(id) {
      const children = document.getElementById(id);
      if (children.classList.contains('hidden')) {
        children.classList.remove('hidden');
      } else {
        children.classList.add('hidden');
      }
    }
</script>
<g id="children_node1" class="hidden">
    <g class="node" onclick="toggleChildren('children_node1');">

<g id="node1" class="node">
<title>Node2_1</title>
<ellipse fill="#ffff00" stroke="#ffff00" cx="330.94" cy="-18" rx="27" ry="18"/>
<text text-anchor="middle" x="330.94" y="-14.3" font-family="Times,serif" font-size="14.00">महा&#45;</text>
</g>
<!-- Node2_2 -->
<g id="node2" class="node">
<title>Node2_2</title>
<ellipse fill="#ffff00" stroke="#ffff00" cx="420.94" cy="-18" rx="27" ry="18"/>
<text text-anchor="middle" x="420.94" y="-14.3" font-family="Times,serif" font-size="14.00">बाहुः</text>
</g>
<!-- Node2_1&#45;&gt;Node2_2 -->
<!-- Node2_2_1 -->
<g id="node3" class="node">
<title>Node2_2_1</title>
<ellipse fill="#ffff00" stroke="#ffff00" cx="374.94" cy="-91" rx="100.98" ry="18"/>
<text text-anchor="middle" x="374.94" y="-87.3" font-family="Times,serif" font-size="14.00">&lt;महा&#45;&#45;बाहुः&gt;(षष्ठी&#45;बहुव्रीहिः)</text>
</g>
<!-- Node2_1&#45;&gt;Node2_2_1 -->
<g id="edge2" class="edge">
<title>Node2_1&#45;&gt;Node2_2_1</title>
<path fill="none" stroke="black" d="M346.36,-43.88C352.32,-53.49 358.99,-64.25 364.38,-72.96"/>
<polygon fill="black" stroke="black" points="349.17,-41.77 340.92,-35.11 343.22,-45.45 349.17,-41.77"/>
</g>
<!-- Node2_2&#45;&gt;Node2_2_1 -->
<g id="edge1" class="edge">
<title>Node2_2&#45;&gt;Node2_2_1</title>
<path fill="none" stroke="black" d="M405.2,-43.3C398.85,-53.09 391.69,-64.15 385.92,-73.05"/>
<polygon fill="black" stroke="black" points="408.23,-45.05 410.73,-34.76 402.36,-41.25 408.23,-45.05"/>
</g>
<!-- Node2_2_1&#45;&gt;Node2_2_1c -->
<g id="edge4" class="edge">
<title>Node2_2_1&#45;&gt;Node2_2_1c</title>
<path fill="none" stroke="black" d="M374.94,-119.25C374.94,-128.23 374.94,-137.97 374.94,-145.97"/>
<polygon fill="black" stroke="black" points="378.44,-119.19 374.94,-109.19 371.44,-119.19 378.44,-119.19"/>
</g>
</g>
</g>
<!-- Node2_2_1c -->
<g class="node4" onclick="toggleChildren('children_node1');">
<title>Node2_2_1c</title>
<ellipse fill="#00bfff" stroke="#00bfff" cx="374.94" cy="-164" rx="52.79" ry="18"/>
<text text-anchor="middle" x="374.94" y="-160.3" font-family="Times,serif" font-size="14.00">महा&#45;&#45;बाहुः(2)</text>
</g>
<!-- Node6_2 -->
<g id="node6" class="node">
<title>Node6_2</title>
<ellipse fill="#ffff00" stroke="#ffff00" cx="374.94" cy="-251" rx="27" ry="18"/>
<text text-anchor="middle" x="374.94" y="-247.3" font-family="Times,serif" font-size="14.00">बलः</text>
</g>
<!-- Node2_2_1c&#45;&gt;Node6_2 -->
<g id="edge5" class="edge">
<title>Node2_2_1c&#45;&gt;Node6_2</title>
<path fill="none" stroke="black" d="M374.94,-192.27C374.94,-205.58 374.94,-221.19 374.94,-232.82"/>
<polygon fill="black" stroke="black" points="378.44,-192.2 374.94,-182.2 371.44,-192.2 378.44,-192.2"/>
<text text-anchor="middle" x="398.44" y="-203.8" font-family="Times,serif" font-size="14.00">विशेषणम्</text>
</g>
<g id="children_node2" class="hidden">
    <g class="node" onclick="toggleChildren('children_node2');">
<!-- Node6_1 -->
<g id="node5" class="node">
<title>Node6_1</title>
<ellipse fill="#ffff00" stroke="#ffff00" cx="284.94" cy="-251" rx="27" ry="18"/>
<text text-anchor="middle" x="284.94" y="-247.3" font-family="Times,serif" font-size="14.00">महा&#45;</text>
</g>
<!-- Node6_1&#45;&gt;Node6_2 -->
<!-- Node6_2_1 -->
<g id="node7" class="node">
<title>Node6_2_1</title>
<ellipse fill="#ffff00" stroke="#ffff00" cx="329.94" cy="-338" rx="100.18" ry="18"/>
<text text-anchor="middle" x="329.94" y="-334.3" font-family="Times,serif" font-size="14.00">&lt;महा&#45;&#45;बलः&gt;(षष्ठी&#45;बहुव्रीहिः)</text>
</g>
<!-- Node6_1&#45;&gt;Node6_2_1 -->
<g id="edge7" class="edge">
<title>Node6_1&#45;&gt;Node6_2_1</title>
<path fill="none" stroke="black" d="M298.35,-277.33C305.6,-291.03 314.37,-307.59 320.83,-319.79"/>
<polygon fill="black" stroke="black" points="301.39,-275.59 293.62,-268.39 295.2,-278.86 301.39,-275.59"/>
</g>
<!-- Node6_2&#45;&gt;Node6_2_1 -->
<g id="edge6" class="edge">
<title>Node6_2&#45;&gt;Node6_2_1</title>
<path fill="none" stroke="black" d="M361.53,-277.33C354.28,-291.03 345.51,-307.59 339.05,-319.79"/>
<polygon fill="black" stroke="black" points="364.68,-278.86 366.26,-268.39 358.49,-275.59 364.68,-278.86"/>
</g>
<!-- Node6_2_1&#45;&gt;Node6_2_1c -->
<g id="edge9" class="edge">
<title>Node6_2_1&#45;&gt;Node6_2_1c</title>
<path fill="none" stroke="black" d="M336.68,-366.27C339.97,-379.58 343.82,-395.19 346.7,-406.82"/>
<polygon fill="black" stroke="black" points="339.99,-365.07 334.19,-356.2 333.19,-366.75 339.99,-365.07"/>
</g>
</g>
</g>
<!-- Node6_2_1c -->
<g class="node8" onclick="toggleChildren('children_node2');">
<title>Node6_2_1c</title>
<ellipse fill="#00bfff" stroke="#00bfff" cx="350.94" cy="-425" rx="51.99" ry="18"/>
<text text-anchor="middle" x="350.94" y="-421.3" font-family="Times,serif" font-size="14.00">महा&#45;&#45;बलः(6)</text>
</g>
<!-- Node8_1 -->
<g id="node20" class="node">
<title>Node8_1</title>
<ellipse fill="#ff1975" stroke="#ff1975" cx="391.94" cy="-512" rx="40.89" ry="18"/>
<text text-anchor="middle" x="391.94" y="-508.3" font-family="Times,serif" font-size="14.00">चिक्षेप(8)</text>
</g>
<!-- Node6_2_1c&#45;&gt;Node8_1 -->
<g id="edge10" class="edge">
<title>Node6_2_1c&#45;&gt;Node8_1</title>
<path fill="none" stroke="black" d="M363.58,-452.2C370.18,-465.9 378.08,-482.26 383.86,-494.24"/>
<polygon fill="black" stroke="black" points="366.54,-450.28 359.04,-442.79 360.23,-453.32 366.54,-450.28"/>
<text text-anchor="middle" x="384.94" y="-464.8" font-family="Times,serif" font-size="14.00">कर्ता</text>
</g>
<g id="children_node3" class="hidden">
    <g class="node" onclick="toggleChildren('children_node3');">
<!-- Node7_1 -->
<g id="node9" class="node">
<title>Node7_1</title>
<ellipse fill="#ffff00" stroke="#ffff00" cx="34.94" cy="-251" rx="27" ry="18"/>
<text text-anchor="middle" x="34.94" y="-247.3" font-family="Times,serif" font-size="14.00">पाद&#45;</text>
</g>
<!-- Node7_2 -->
<g id="node10" class="node">
<title>Node7_2</title>
<ellipse fill="#ffff00" stroke="#ffff00" cx="129.94" cy="-251" rx="32.49" ry="18"/>
<text text-anchor="middle" x="129.94" y="-247.3" font-family="Times,serif" font-size="14.00">अङ्गुष्ठेन</text>
</g>
<!-- Node7_1&#45;&gt;Node7_2 -->
<!-- Node7_2_1 -->
<g id="node11" class="node">
<title>Node7_2_1</title>
<ellipse fill="#ffff00" stroke="#ffff00" cx="105.94" cy="-338" rx="105.88" ry="18"/>
<text text-anchor="middle" x="105.94" y="-334.3" font-family="Times,serif" font-size="14.00">&lt;पाद&#45;&#45;अङ्गुष्ठेन&gt;(षष्ठी&#45;तत्पुरुषः)</text>
</g>
<!-- Node7_1&#45;&gt;Node7_2_1 -->
<g id="edge12" class="edge">
<title>Node7_1&#45;&gt;Node7_2_1</title>
<path fill="none" stroke="black" d="M54.18,-275.04C66,-289.18 80.88,-307 91.65,-319.89"/>
<polygon fill="black" stroke="black" points="56.73,-272.63 47.63,-267.2 51.36,-277.11 56.73,-272.63"/>
</g>
<!-- Node7_2&#45;&gt;Node7_2_1 -->
<g id="edge11" class="edge">
<title>Node7_2&#45;&gt;Node7_2_1</title>
<path fill="none" stroke="black" d="M122.35,-278.87C118.57,-292.27 114.11,-308.08 110.79,-319.82"/>
<polygon fill="black" stroke="black" points="125.73,-279.78 125.08,-269.2 119,-277.87 125.73,-279.78"/>
</g>
<!-- Node7_2_1&#45;&gt;Node7_2_1c -->
<g id="edge14" class="edge">
<title>Node7_2_1&#45;&gt;Node7_2_1c</title>
<path fill="none" stroke="black" d="M131.79,-362.88C147.2,-377.12 166.38,-394.84 180.12,-407.53"/>
<polygon fill="black" stroke="black" points="133.84,-360.01 124.12,-355.79 129.09,-365.15 133.84,-360.01"/>
</g>
</g>
</g>
<!-- Node7_2_1c -->
<g class="node12" onclick="toggleChildren('children_node3');">
<title>Node7_2_1c</title>
<ellipse fill="#40e0d0" stroke="#40e0d0" cx="197.94" cy="-425" rx="59.59" ry="18"/>
<text text-anchor="middle" x="197.94" y="-421.3" font-family="Times,serif" font-size="14.00">पाद&#45;&#45;अङ्गुष्ठेन(7)</text>
</g>
<!-- Node7_2_1c&#45;&gt;Node8_1 -->
<g id="edge15" class="edge">
<title>Node7_2_1c&#45;&gt;Node8_1</title>
<path fill="none" stroke="black" d="M239.59,-444.25C277.2,-460.73 331.49,-484.52 364.09,-498.8"/>
<polygon fill="black" stroke="black" points="240.98,-441.03 230.41,-440.23 238.17,-447.45 240.98,-441.03"/>
<text text-anchor="middle" x="323.44" y="-464.8" font-family="Times,serif" font-size="14.00">करणम्</text>
</g>
<g id="children_node4" class="hidden">
    <g class="node" onclick="toggleChildren('children_node4');">
<!-- Node10_1 -->
<g id="node13" class="node">
<title>Node10_1</title>
<ellipse fill="#ffff00" stroke="#ffff00" cx="591.94" cy="-251" rx="27" ry="18"/>
<text text-anchor="middle" x="591.94" y="-247.3" font-family="Times,serif" font-size="14.00">दश&#45;</text>
</g>
<!-- Node10_2 -->
<g id="node14" class="node">
<title>Node10_2</title>
<ellipse fill="#ffff00" stroke="#ffff00" cx="687.94" cy="-251" rx="33.6" ry="18"/>
<text text-anchor="middle" x="687.94" y="-247.3" font-family="Times,serif" font-size="14.00">योजनम्</text>
</g>
<!-- Node10_1&#45;&gt;Node10_2 -->
<!-- Node10_2_1 -->
<g id="node15" class="node">
<title>Node10_2_1</title>
<ellipse fill="#ffff00" stroke="#ffff00" cx="654.94" cy="-338" rx="96.68" ry="18"/>
<text text-anchor="middle" x="654.94" y="-334.3" font-family="Times,serif" font-size="14.00">&lt;दश&#45;&#45;योजनम्&gt;(कर्मधारयः)</text>
</g>
<!-- Node10_1&#45;&gt;Node10_2_1 -->
<g id="edge17" class="edge">
<title>Node10_1&#45;&gt;Node10_2_1</title>
<path fill="none" stroke="black" d="M609.61,-275.84C620.04,-289.91 632.99,-307.39 642.38,-320.05"/>
<polygon fill="black" stroke="black" points="612.26,-273.54 603.5,-267.59 606.64,-277.71 612.26,-273.54"/>
</g>
<!-- Node10_2&#45;&gt;Node10_2_1 -->
<g id="edge16" class="edge">
<title>Node10_2&#45;&gt;Node10_2_1</title>
<path fill="none" stroke="black" d="M677.8,-278.13C672.51,-291.73 666.21,-307.98 661.56,-319.95"/>
<polygon fill="black" stroke="black" points="681.06,-279.38 681.42,-268.79 674.54,-276.85 681.06,-279.38"/>
</g>
<!-- Node10_2_1&#45;&gt;Node10_2_1c -->
<g id="edge19" class="edge">
<title>Node10_2_1&#45;&gt;Node10_2_1c</title>
<path fill="none" stroke="black" d="M615.34,-359.91C586.71,-375.02 548.68,-395.1 522.86,-408.73"/>
<polygon fill="black" stroke="black" points="617.07,-362.95 624.28,-355.19 613.8,-356.76 617.07,-362.95"/>
</g>
</g>
</g>
<!-- Node10_2_1c -->
<g class="node16" onclick="toggleChildren('children_node4');">
<title>Node10_2_1c</title>
<ellipse fill="#93db70" stroke="#93db70" cx="493.94" cy="-425" rx="64.99" ry="18"/>
<text text-anchor="middle" x="493.94" y="-421.3" font-family="Times,serif" font-size="14.00">दश&#45;&#45;योजनम्(10)</text>
</g>
<!-- Node10_2_1c&#45;&gt;Node8_1 -->
<g id="edge20" class="edge">
<title>Node10_2_1c&#45;&gt;Node8_1</title>
<path fill="none" stroke="black" d="M466.46,-448.9C448.6,-463.78 425.82,-482.77 410.18,-495.8"/>
<polygon fill="black" stroke="black" points="468.83,-451.48 474.27,-442.39 464.35,-446.1 468.83,-451.48"/>
<text text-anchor="middle" x="459.94" y="-464.8" font-family="Times,serif" font-size="14.00">कर्ता</text>
</g>
<!-- Node3_1 -->
<g id="node17" class="node">
<title>Node3_1</title>
<ellipse fill="#ff99ff" stroke="#ff99ff" cx="821.94" cy="-338" rx="36" ry="18"/>
<text text-anchor="middle" x="821.94" y="-334.3" font-family="Times,serif" font-size="14.00">प्रेक्ष्य(3)</text>
</g>
<!-- Node1_1 -->
<g id="node18" class="node">
<title>Node1_1</title>
<ellipse fill="#ff99ff" stroke="#ff99ff" cx="821.94" cy="-425" rx="53.89" ry="18"/>
<text text-anchor="middle" x="821.94" y="-421.3" font-family="Times,serif" font-size="14.00">उत्स्मयित्वा(1)</text>
</g>
<!-- Node3_1&#45;&gt;Node1_1 -->
<g id="edge22" class="edge">
<title>Node3_1&#45;&gt;Node1_1</title>
<path fill="none" stroke="black" d="M821.94,-366.27C821.94,-379.58 821.94,-395.19 821.94,-406.82"/>
<polygon fill="black" stroke="black" points="825.44,-366.2 821.94,-356.2 818.44,-366.2 825.44,-366.2"/>
<text text-anchor="middle" x="844.44" y="-377.8" font-family="Times,serif" font-size="14.00">समुच्चितः</text>
</g>
<!-- Node1_1&#45;&gt;Node8_1 -->
<g id="edge21" class="edge">
<title>Node1_1&#45;&gt;Node8_1</title>
<path fill="none" stroke="black" d="M766.81,-436.9C677.61,-454.53 504.02,-488.84 428.5,-503.77"/>
<polygon fill="black" stroke="black" points="767.6,-440.31 776.74,-434.94 766.25,-433.44 767.6,-440.31"/>
<text text-anchor="middle" x="653.44" y="-464.8" font-family="Times,serif" font-size="14.00">पूर्वकालः</text>
</g>
<!-- Node9_1 -->
<g id="node19" class="node">
<title>Node9_1</title>
<ellipse fill="#93db70" stroke="#93db70" cx="493.94" cy="-338" rx="46.29" ry="18"/>
<text text-anchor="middle" x="493.94" y="-334.3" font-family="Times,serif" font-size="14.00">सम्पूर्णम्(9)</text>
</g>
<!-- Node9_1&#45;&gt;Node10_2_1c -->
<g id="edge25" class="edge">
<title>Node9_1&#45;&gt;Node10_2_1c</title>
<path fill="none" stroke="black" d="M493.94,-366.27C493.94,-379.58 493.94,-395.19 493.94,-406.82"/>
<polygon fill="black" stroke="black" points="497.44,-366.2 493.94,-356.2 490.44,-366.2 497.44,-366.2"/>
<text text-anchor="middle" x="517.44" y="-377.8" font-family="Times,serif" font-size="14.00">विशेषणम्</text>
</g>
<!-- Node4_1 -->
<g id="node21" class="node">
<title>Node4_1</title>
<ellipse fill="#ff99ff" stroke="#ff99ff" cx="810.94" cy="-251" rx="27" ry="18"/>
<text text-anchor="middle" x="810.94" y="-247.3" font-family="Times,serif" font-size="14.00">च(4)</text>
</g>
<!-- Node4_1&#45;&gt;Node3_1 -->
<g id="edge23" class="edge">
<title>Node4_1&#45;&gt;Node3_1</title>
<path fill="none" stroke="black" d="M810.22,-279.44C810.37,-286.8 810.85,-294.73 811.94,-302 812.84,-308 814.47,-314.42 816.16,-320.1"/>
<polygon fill="black" stroke="black" points="813.72,-279.21 810.19,-269.22 806.72,-279.22 813.72,-279.21"/>
<text text-anchor="middle" x="851.44" y="-290.8" font-family="Times,serif" font-size="14.00">समुच्चय_द्योतकः</text>
</g>
<!-- Node10_2_1c -->
<g class="node16" onclick="toggleChildren('children_node4');">
<title>Node10_2_1c</title>
<ellipse fill="#93db70" stroke="#93db70" cx="493.94" cy="-425" rx="64.99" ry="18"/>
<text text-anchor="middle" x="493.94" y="-421.3" font-family="Times,serif" font-size="14.00">दश&#45;&#45;योजनम्(10)</text>
</g>
<!-- Node5_1 -->
<g id="node22" class="node">
<title>Node5_1</title>
<ellipse fill="#93db70" stroke="#93db70" cx="912.94" cy="-251" rx="38.19" ry="18"/>
<text text-anchor="middle" x="912.94" y="-247.3" font-family="Times,serif" font-size="14.00">अस्थि(5)</text>
</g>
<!-- Node5_1&#45;&gt;Node3_1 -->
<g id="edge24" class="edge">
<title>Node5_1&#45;&gt;Node3_1</title>
<path fill="none" stroke="black" d="M905.16,-278.62C901.79,-286.84 897.15,-295.44 890.94,-302 880.04,-313.51 864.53,-321.85 850.98,-327.49"/>
<polygon fill="black" stroke="black" points="908.54,-279.55 908.67,-268.96 901.96,-277.16 908.54,-279.55"/>
<text text-anchor="middle" x="909.94" y="-290.8" font-family="Times,serif" font-size="14.00">कर्म</text>
</g>
</g>
</svg>
