<svg width="948pt" height="378pt"
 viewBox="0.00 0.00 947.74 378.00" xmlns="http://www.w3.org/2000/svg" xmlns:xlink="http://www.w3.org/1999/xlink">
<g id="graph0" class="graph" transform="scale(1 1) rotate(0) translate(4 374)">
<title>G</title>
<polygon fill="#fffacd" stroke="transparent" points="-4,4 -4,-374 943.74,-374 943.74,4 -4,4"/>
<g id="clust1" class="cluster">
<title>cluster_1</title>
<polygon fill="#fffacd" stroke="black" points="72.55,-152 72.55,-291 178.55,-291 178.55,-152 72.55,-152"/>
</g>
<g id="clust2" class="cluster">
<title>cluster_2</title>
<polygon fill="#fffacd" stroke="black" points="564.55,-152 564.55,-291 694.55,-291 694.55,-152 564.55,-152"/>
</g>
<!-- Node2_1 -->
<style>
 .hidden { display: none; }
 .node { cursor: pointer; }
 </style>
<script>
     function toggleChildren(id) {
      const children = document.getElementById(id);
      if (children.classList.contains('hidden')) {
        children.classList.remove('hidden');
      } else {
        children.classList.add('hidden');
      }
    }
</script>
<g id="children_node1" class="hidden">
    <g class="node" onclick="toggleChildren('children_node1');">

<g id="node1" class="node">
<title>Node2_1</title>
<ellipse fill="#ffff00" stroke="#ffff00" cx="127.55" cy="-18" rx="27" ry="18"/>
<text text-anchor="middle" x="127.55" y="-14.3" font-family="Times,serif" font-size="14.00">प्रीत&#45;</text>
</g>
<!-- Node2_2 -->
<g id="node2" class="node">
<title>Node2_2</title>
<ellipse fill="#ffff00" stroke="#ffff00" cx="217.55" cy="-18" rx="27" ry="18"/>
<text text-anchor="middle" x="217.55" y="-14.3" font-family="Times,serif" font-size="14.00">मनाः</text>
</g>
<!-- Node2_1&#45;&gt;Node2_2 -->
<!-- Node2_2_1 -->
<g id="node3" class="node">
<title>Node2_2_1</title>
<ellipse fill="#ffff00" stroke="#ffff00" cx="180.55" cy="-91" rx="101.28" ry="18"/>
<text text-anchor="middle" x="180.55" y="-87.3" font-family="Times,serif" font-size="14.00">&lt;प्रीत&#45;&#45;मनाः&gt;(षष्ठी&#45;बहुव्रीहिः)</text>
</g>
<!-- Node2_1&#45;&gt;Node2_2_1 -->
<g id="edge2" class="edge">
<title>Node2_1&#45;&gt;Node2_2_1</title>
<path fill="none" stroke="black" d="M145.25,-42.71C152.69,-52.68 161.17,-64.04 167.96,-73.13"/>
<polygon fill="black" stroke="black" points="147.83,-40.33 139.05,-34.41 142.22,-44.51 147.83,-40.33"/>
</g>
<!-- Node2_2&#45;&gt;Node2_2_1 -->
<g id="edge1" class="edge">
<title>Node2_2&#45;&gt;Node2_2_1</title>
<path fill="none" stroke="black" d="M204.43,-44.17C199.46,-53.71 193.92,-64.34 189.43,-72.96"/>
<polygon fill="black" stroke="black" points="207.63,-45.6 209.15,-35.11 201.43,-42.36 207.63,-45.6"/>
</g>
<!-- Node2_2_1&#45;&gt;Node2_2_1c -->
<g id="edge4" class="edge">
<title>Node2_2_1&#45;&gt;Node2_2_1c</title>
<path fill="none" stroke="black" d="M199.09,-117.42C209.24,-131.33 221.53,-148.18 230.44,-160.4"/>
<polygon fill="black" stroke="black" points="201.81,-115.22 193.09,-109.2 196.16,-119.34 201.81,-115.22"/>
</g>
</g>
</g>
<!-- Node2_2_1c -->
<g class="node4" onclick="toggleChildren('children_node1');">
<title>Node2_2_1c</title>
<ellipse fill="#00bfff" stroke="#00bfff" cx="242.55" cy="-178" rx="53.89" ry="18"/>
<text text-anchor="middle" x="242.55" y="-174.3" font-family="Times,serif" font-size="14.00">प्रीत&#45;&#45;मनाः(2)</text>
</g>
<!-- Node5_1 -->
<g id="node14" class="node">
<title>Node5_1</title>
<ellipse fill="#00bfff" stroke="#00bfff" cx="141.55" cy="-265" rx="28.7" ry="18"/>
<text text-anchor="middle" x="141.55" y="-261.3" font-family="Times,serif" font-size="14.00">सः(5)</text>
</g>
<!-- Node2_2_1c&#45;&gt;Node5_1 -->
<g id="edge5" class="edge">
<title>Node2_2_1c&#45;&gt;Node5_1</title>
<path fill="none" stroke="black" d="M216.77,-202.08C207.07,-210.64 195.89,-220.36 185.55,-229 176.86,-236.26 167.01,-244.13 158.84,-250.56"/>
<polygon fill="black" stroke="black" points="219.35,-204.47 224.51,-195.21 214.71,-199.23 219.35,-204.47"/>
<text text-anchor="middle" x="227.05" y="-217.8" font-family="Times,serif" font-size="14.00">विशेषणम्</text>
</g>
<g id="children_node2" class="hidden">
    <g class="node" onclick="toggleChildren('children_node2');">
<!-- Node6_1 -->
<g id="node5" class="node">
<title>Node6_1</title>
<ellipse fill="#ffff00" stroke="#ffff00" cx="345.55" cy="-18" rx="27" ry="18"/>
<text text-anchor="middle" x="345.55" y="-14.3" font-family="Times,serif" font-size="14.00">महा&#45;</text>
</g>
<!-- Node6_2 -->
<g id="node6" class="node">
<title>Node6_2</title>
<ellipse fill="#ffff00" stroke="#ffff00" cx="435.55" cy="-18" rx="27" ry="18"/>
<text text-anchor="middle" x="435.55" y="-14.3" font-family="Times,serif" font-size="14.00">कपिः</text>
</g>
<!-- Node6_1&#45;&gt;Node6_2 -->
<!-- Node6_2_1 -->
<g id="node7" class="node">
<title>Node6_2_1</title>
<ellipse fill="#ffff00" stroke="#ffff00" cx="390.55" cy="-91" rx="90.98" ry="18"/>
<text text-anchor="middle" x="390.55" y="-87.3" font-family="Times,serif" font-size="14.00">&lt;महा&#45;&#45;कपिः&gt;(कर्मधारयः)</text>
</g>
<!-- Node6_1&#45;&gt;Node6_2_1 -->
<g id="edge7" class="edge">
<title>Node6_1&#45;&gt;Node6_2_1</title>
<path fill="none" stroke="black" d="M360.95,-43.3C367.15,-53.09 374.16,-64.15 379.8,-73.05"/>
<polygon fill="black" stroke="black" points="363.84,-41.33 355.53,-34.76 357.93,-45.08 363.84,-41.33"/>
</g>
<!-- Node6_2&#45;&gt;Node6_2_1 -->
<g id="edge6" class="edge">
<title>Node6_2&#45;&gt;Node6_2_1</title>
<path fill="none" stroke="black" d="M420.15,-43.3C413.94,-53.09 406.93,-64.15 401.29,-73.05"/>
<polygon fill="black" stroke="black" points="423.16,-45.08 425.56,-34.76 417.25,-41.33 423.16,-45.08"/>
</g>
<!-- Node6_2_1&#45;&gt;Node6_2_1c -->
<g id="edge9" class="edge">
<title>Node6_2_1&#45;&gt;Node6_2_1c</title>
<path fill="none" stroke="black" d="M383.81,-119.27C380.52,-132.58 376.66,-148.19 373.79,-159.82"/>
<polygon fill="black" stroke="black" points="387.3,-119.75 386.3,-109.2 380.5,-118.07 387.3,-119.75"/>
</g>
</g>
</g>
<!-- Node6_2_1c -->
<g class="node8" onclick="toggleChildren('children_node2');">
<title>Node6_2_1c</title>
<ellipse fill="#00bfff" stroke="#00bfff" cx="369.55" cy="-178" rx="54.69" ry="18"/>
<text text-anchor="middle" x="369.55" y="-174.3" font-family="Times,serif" font-size="14.00">महा&#45;&#45;कपिः(6)</text>
</g>
<!-- Node6_2_1c&#45;&gt;Node5_1 -->
<g id="edge10" class="edge">
<title>Node6_2_1c&#45;&gt;Node5_1</title>
<path fill="none" stroke="black" d="M330.3,-197.34C308.27,-207.31 280.15,-219.5 254.55,-229 225.09,-239.93 190.48,-250.3 167.4,-256.87"/>
<polygon fill="black" stroke="black" points="332,-200.41 339.65,-193.08 329.1,-194.04 332,-200.41"/>
<text text-anchor="middle" x="313.05" y="-217.8" font-family="Times,serif" font-size="14.00">विशेषणम्</text>
</g>
<g id="children_node3" class="hidden">
    <g class="node" onclick="toggleChildren('children_node3');">
<!-- Node8_1 -->
<g id="node9" class="node">
<title>Node8_1</title>
<ellipse fill="#ffff00" stroke="#ffff00" cx="562.55" cy="-18" rx="27" ry="18"/>
<text text-anchor="middle" x="562.55" y="-14.3" font-family="Times,serif" font-size="14.00">राम&#45;</text>
</g>
<!-- Node8_2 -->
<g id="node10" class="node">
<title>Node8_2</title>
<ellipse fill="#ffff00" stroke="#ffff00" cx="655.55" cy="-18" rx="30.59" ry="18"/>
<text text-anchor="middle" x="655.55" y="-14.3" font-family="Times,serif" font-size="14.00">सहितः</text>
</g>
<!-- Node8_1&#45;&gt;Node8_2 -->
<!-- Node8_2_1 -->
<g id="node11" class="node">
<title>Node8_2_1</title>
<ellipse fill="#ffff00" stroke="#ffff00" cx="609.55" cy="-91" rx="109.68" ry="18"/>
<text text-anchor="middle" x="609.55" y="-87.3" font-family="Times,serif" font-size="14.00">&lt;राम&#45;&#45;सहितः&gt;(तृतीया&#45;तत्पुरुषः)</text>
</g>
<!-- Node8_1&#45;&gt;Node8_2_1 -->
<g id="edge12" class="edge">
<title>Node8_1&#45;&gt;Node8_2_1</title>
<path fill="none" stroke="black" d="M578.63,-43.3C585.11,-53.09 592.43,-64.15 598.33,-73.05"/>
<polygon fill="black" stroke="black" points="581.42,-41.16 572.98,-34.76 575.58,-45.03 581.42,-41.16"/>
</g>
<!-- Node8_2&#45;&gt;Node8_2_1 -->
<g id="edge11" class="edge">
<title>Node8_2&#45;&gt;Node8_2_1</title>
<path fill="none" stroke="black" d="M639.62,-43.58C633.34,-53.27 626.29,-64.16 620.59,-72.96"/>
<polygon fill="black" stroke="black" points="642.61,-45.41 645.11,-35.11 636.73,-41.6 642.61,-45.41"/>
</g>
<!-- Node8_2_1&#45;&gt;Node8_2_1c -->
<g id="edge14" class="edge">
<title>Node8_2_1&#45;&gt;Node8_2_1c</title>
<path fill="none" stroke="black" d="M579.53,-114.99C560.46,-129.59 536.26,-148.12 519.31,-161.1"/>
<polygon fill="black" stroke="black" points="581.81,-117.65 587.62,-108.79 577.55,-112.09 581.81,-117.65"/>
</g>
</g>
</g>
<!-- Node8_2_1c -->
<g class="node12" onclick="toggleChildren('children_node3');">
<title>Node8_2_1c</title>
<ellipse fill="#00bfff" stroke="#00bfff" cx="498.55" cy="-178" rx="56.59" ry="18"/>
<text text-anchor="middle" x="498.55" y="-174.3" font-family="Times,serif" font-size="14.00">राम&#45;&#45;सहितः(8)</text>
</g>
<!-- Node8_2_1c&#45;&gt;Node5_1 -->
<g id="edge15" class="edge">
<title>Node8_2_1c&#45;&gt;Node5_1</title>
<path fill="none" stroke="black" d="M452.79,-195.25C421.49,-205.93 378.88,-219.61 340.55,-229 280.24,-243.78 208.2,-254.85 169.47,-260.28"/>
<polygon fill="black" stroke="black" points="454.22,-198.46 462.54,-191.9 451.94,-191.84 454.22,-198.46"/>
<text text-anchor="middle" x="416.05" y="-217.8" font-family="Times,serif" font-size="14.00">विशेषणम्</text>
</g>
<!-- Node4_1 -->
<g id="node13" class="node">
<title>Node4_1</title>
<ellipse fill="#00bfff" stroke="#00bfff" cx="125.55" cy="-178" rx="44.69" ry="18"/>
<text text-anchor="middle" x="125.55" y="-174.3" font-family="Times,serif" font-size="14.00">विश्वस्तः(4)</text>
</g>
<!-- Node4_1&#45;&gt;Node5_1 -->
<g id="edge18" class="edge">
<title>Node4_1&#45;&gt;Node5_1</title>
<path fill="none" stroke="black" d="M130.68,-206.27C133.19,-219.58 136.12,-235.19 138.31,-246.82"/>
<polygon fill="black" stroke="black" points="134.07,-205.38 128.79,-196.2 127.2,-206.68 134.07,-205.38"/>
<text text-anchor="middle" x="158.05" y="-217.8" font-family="Times,serif" font-size="14.00">विशेषणम्</text>
</g>
<!-- Node11_1 -->
<g id="node18" class="node">
<title>Node11_1</title>
<ellipse fill="#ff1975" stroke="#ff1975" cx="735.55" cy="-352" rx="43.59" ry="18"/>
<text text-anchor="middle" x="735.55" y="-348.3" font-family="Times,serif" font-size="14.00">जगाम(11)</text>
</g>
<!-- Node5_1&#45;&gt;Node11_1 -->
<g id="edge19" class="edge">
<title>Node5_1&#45;&gt;Node11_1</title>
<path fill="none" stroke="black" d="M179.34,-271.41C285.48,-286.6 585.6,-329.54 695,-345.2"/>
<polygon fill="black" stroke="black" points="179.8,-267.94 169.4,-269.99 178.8,-274.87 179.8,-267.94"/>
<text text-anchor="middle" x="484.55" y="-304.8" font-family="Times,serif" font-size="14.00">कर्ता</text>
</g>
<!-- Node9_1 -->
<g id="node15" class="node">
<title>Node9_1</title>
<ellipse fill="#93db70" stroke="#93db70" cx="629.55" cy="-178" rx="56.59" ry="18"/>
<text text-anchor="middle" x="629.55" y="-174.3" font-family="Times,serif" font-size="14.00">किष्किन्धाम्(9)</text>
</g>
<!-- Node10_1 -->
<g id="node16" class="node">
<title>Node10_1</title>
<ellipse fill="#93db70" stroke="#93db70" cx="636.55" cy="-265" rx="42.49" ry="18"/>
<text text-anchor="middle" x="636.55" y="-261.3" font-family="Times,serif" font-size="14.00">गुहाम्(10)</text>
</g>
<!-- Node9_1&#45;&gt;Node10_1 -->
<g id="edge21" class="edge">
<title>Node9_1&#45;&gt;Node10_1</title>
<path fill="none" stroke="black" d="M631.79,-206.27C632.89,-219.58 634.18,-235.19 635.13,-246.82"/>
<polygon fill="black" stroke="black" points="635.27,-205.88 630.96,-196.2 628.3,-206.45 635.27,-205.88"/>
<text text-anchor="middle" x="656.05" y="-217.8" font-family="Times,serif" font-size="14.00">विशेषणम्</text>
</g>
<!-- Node10_1&#45;&gt;Node11_1 -->
<g id="edge22" class="edge">
<title>Node10_1&#45;&gt;Node11_1</title>
<path fill="none" stroke="black" d="M662.74,-288.49C680.01,-303.32 702.19,-322.36 717.5,-335.51"/>
<polygon fill="black" stroke="black" points="664.57,-285.45 654.71,-281.59 660.01,-290.76 664.57,-285.45"/>
<text text-anchor="middle" x="700.55" y="-304.8" font-family="Times,serif" font-size="14.00">कर्म</text>
</g>
<!-- Node1_1 -->
<g id="node17" class="node">
<title>Node1_1</title>
<ellipse fill="#ff99ff" stroke="#ff99ff" cx="735.55" cy="-265" rx="33.29" ry="18"/>
<text text-anchor="middle" x="735.55" y="-261.3" font-family="Times,serif" font-size="14.00">ततः(1)</text>
</g>
<!-- Node1_1&#45;&gt;Node11_1 -->
<g id="edge16" class="edge">
<title>Node1_1&#45;&gt;Node11_1</title>
<path fill="none" stroke="black" d="M735.55,-293.27C735.55,-306.58 735.55,-322.19 735.55,-333.82"/>
<polygon fill="black" stroke="black" points="739.05,-293.2 735.55,-283.2 732.05,-293.2 739.05,-293.2"/>
<text text-anchor="middle" x="754.05" y="-304.8" font-family="Times,serif" font-size="14.00">सम्बन्धः</text>
</g>
<!-- Node3_1 -->
<g id="node19" class="node">
<title>Node3_1</title>
<ellipse fill="#40e0d0" stroke="#40e0d0" cx="30.55" cy="-91" rx="30.59" ry="18"/>
<text text-anchor="middle" x="30.55" y="-87.3" font-family="Times,serif" font-size="14.00">तेन(3)</text>
</g>
<!-- Node3_1&#45;&gt;Node4_1 -->
<g id="edge17" class="edge">
<title>Node3_1&#45;&gt;Node4_1</title>
<path fill="none" stroke="black" d="M54.38,-113.32C71.06,-128.25 92.98,-147.86 108.06,-161.36"/>
<polygon fill="black" stroke="black" points="56.45,-110.48 46.66,-106.42 51.78,-115.7 56.45,-110.48"/>
<text text-anchor="middle" x="95.55" y="-130.8" font-family="Times,serif" font-size="14.00">कर्ता</text>
</g>
<!-- Node7_1 -->
<g id="node20" class="node">
<title>Node7_1</title>
<ellipse fill="#ff99ff" stroke="#ff99ff" cx="819.55" cy="-265" rx="32.49" ry="18"/>
<text text-anchor="middle" x="819.55" y="-261.3" font-family="Times,serif" font-size="14.00">तदा(7)</text>
</g>
<!-- Node7_1&#45;&gt;Node11_1 -->
<g id="edge20" class="edge">
<title>Node7_1&#45;&gt;Node11_1</title>
<path fill="none" stroke="black" d="M800.47,-289.68C793.25,-298.23 784.78,-307.79 776.55,-316 769.78,-322.74 761.9,-329.66 754.87,-335.56"/>
<polygon fill="black" stroke="black" points="803.26,-291.79 806.96,-281.87 797.88,-287.32 803.26,-291.79"/>
<text text-anchor="middle" x="826.05" y="-304.8" font-family="Times,serif" font-size="14.00">कालाधिकरणम्</text>
</g>
<!-- Node8_2_1c -->
<g class="node12" onclick="toggleChildren('children_node3');">
<title>Node8_2_1c</title>
<ellipse fill="#00bfff" stroke="#00bfff" cx="498.55" cy="-178" rx="56.59" ry="18"/>
<text text-anchor="middle" x="498.55" y="-174.3" font-family="Times,serif" font-size="14.00">राम&#45;&#45;सहितः(8)</text>
</g>
<!-- Node12_1 -->
<g id="node21" class="node">
<title>Node12_1</title>
<ellipse fill="#ff99ff" stroke="#ff99ff" cx="908.55" cy="-265" rx="31.4" ry="18"/>
<text text-anchor="middle" x="908.55" y="-261.3" font-family="Times,serif" font-size="14.00">च(12)</text>
</g>
<!-- Node12_1&#45;&gt;Node11_1 -->
<g id="edge23" class="edge">
<title>Node12_1&#45;&gt;Node11_1</title>
<path fill="none" stroke="black" d="M892.86,-290.43C885.83,-299.65 876.8,-309.48 866.55,-316 839.53,-333.19 804.25,-341.99 777.11,-346.47"/>
<polygon fill="black" stroke="black" points="895.75,-292.41 898.74,-282.25 890.06,-288.33 895.75,-292.41"/>
<text text-anchor="middle" x="901.05" y="-304.8" font-family="Times,serif" font-size="14.00">सम्बन्धः</text>
</g>
</g>
</svg>
