<svg width="859pt" height="451pt"
 viewBox="0.00 0.00 858.79 451.00" xmlns="http://www.w3.org/2000/svg" xmlns:xlink="http://www.w3.org/1999/xlink">
<g id="graph0" class="graph" transform="scale(1 1) rotate(0) translate(4 447)">
<title>G</title>
<polygon fill="#fffacd" stroke="transparent" points="-4,4 -4,-447 854.79,-447 854.79,4 -4,4"/>
<g id="clust1" class="cluster">
<title>cluster_1</title>
<polygon fill="#fffacd" stroke="black" points="351.79,-225 351.79,-277 425.79,-277 425.79,-225 351.79,-225"/>
</g>
<!-- Node3_1 -->
<style>
 .hidden { display: none; }
 .node { cursor: pointer; }
 </style>
<script>
     function toggleChildren(id) {
      const children = document.getElementById(id);
      if (children.classList.contains('hidden')) {
        children.classList.remove('hidden');
      } else {
        children.classList.add('hidden');
      }
    }
</script>
<g id="children_node1" class="hidden">
    <g class="node" onclick="toggleChildren('children_node1');">

<g id="node1" class="node">
<title>Node3_1</title>
<ellipse fill="#ffff00" stroke="#ffff00" cx="48.79" cy="-18" rx="27" ry="18"/>
<text text-anchor="middle" x="48.79" y="-14.3" font-family="Times,serif" font-size="14.00">महा&#45;</text>
</g>
<!-- Node3_2 -->
<g id="node2" class="node">
<title>Node3_2</title>
<ellipse fill="#ffff00" stroke="#ffff00" cx="149.79" cy="-18" rx="38.19" ry="18"/>
<text text-anchor="middle" x="149.79" y="-14.3" font-family="Times,serif" font-size="14.00">आत्मानम्</text>
</g>
<!-- Node3_1&#45;&gt;Node3_2 -->
<!-- Node3_2_1 -->
<g id="node3" class="node">
<title>Node3_2_1</title>
<ellipse fill="#ffff00" stroke="#ffff00" cx="98.79" cy="-91" rx="98.58" ry="18"/>
<text text-anchor="middle" x="98.79" y="-87.3" font-family="Times,serif" font-size="14.00">&lt;महा&#45;&#45;आत्मानम्&gt;(बहुव्रीहिः)</text>
</g>
<!-- Node3_1&#45;&gt;Node3_2_1 -->
<g id="edge2" class="edge">
<title>Node3_1&#45;&gt;Node3_2_1</title>
<path fill="none" stroke="black" d="M65.69,-43C72.64,-52.86 80.52,-64.06 86.85,-73.05"/>
<polygon fill="black" stroke="black" points="68.51,-40.92 59.89,-34.76 62.78,-44.95 68.51,-40.92"/>
</g>
<!-- Node3_2&#45;&gt;Node3_2_1 -->
<g id="edge1" class="edge">
<title>Node3_2&#45;&gt;Node3_2_1</title>
<path fill="none" stroke="black" d="M132.1,-43.63C125.1,-53.37 117.24,-64.32 110.91,-73.13"/>
<polygon fill="black" stroke="black" points="134.97,-45.63 137.96,-35.47 129.29,-41.55 134.97,-45.63"/>
</g>
<!-- Node3_2_1&#45;&gt;Node3_2_1c -->
<g id="edge4" class="edge">
<title>Node3_2_1&#45;&gt;Node3_2_1c</title>
<path fill="none" stroke="black" d="M98.79,-119.25C98.79,-128.23 98.79,-137.97 98.79,-145.97"/>
<polygon fill="black" stroke="black" points="102.29,-119.19 98.79,-109.19 95.29,-119.19 102.29,-119.19"/>
</g>
</g>
</g>
<!-- Node3_2_1c -->
<g class="node4" onclick="toggleChildren('children_node1');">
<title>Node3_2_1c</title>
<ellipse fill="#93db70" stroke="#93db70" cx="98.79" cy="-164" rx="66.09" ry="18"/>
<text text-anchor="middle" x="98.79" y="-160.3" font-family="Times,serif" font-size="14.00">महा&#45;&#45;आत्मानम्(3)</text>
</g>
<!-- Node5_1 -->
<g id="node13" class="node">
<title>Node5_1</title>
<ellipse fill="#93db70" stroke="#93db70" cx="98.79" cy="-251" rx="36.29" ry="18"/>
<text text-anchor="middle" x="98.79" y="-247.3" font-family="Times,serif" font-size="14.00">रामम्(5)</text>
</g>
<!-- Node3_2_1c&#45;&gt;Node5_1 -->
<g id="edge5" class="edge">
<title>Node3_2_1c&#45;&gt;Node5_1</title>
<path fill="none" stroke="black" d="M98.79,-192.27C98.79,-205.58 98.79,-221.19 98.79,-232.82"/>
<polygon fill="black" stroke="black" points="102.29,-192.2 98.79,-182.2 95.29,-192.2 102.29,-192.2"/>
<text text-anchor="middle" x="122.29" y="-203.8" font-family="Times,serif" font-size="14.00">विशेषणम्</text>
</g>
<g id="children_node2" class="hidden">
    <g class="node" onclick="toggleChildren('children_node2');">
<!-- Node8_1 -->
<g id="node5" class="node">
<title>Node8_1</title>
<ellipse fill="#ffff00" stroke="#ffff00" cx="230.79" cy="-164" rx="30.59" ry="18"/>
<text text-anchor="middle" x="230.79" y="-160.3" font-family="Times,serif" font-size="14.00">अमेय&#45;</text>
</g>
<!-- Node8_2 -->
<g id="node6" class="node">
<title>Node8_2</title>
<ellipse fill="#ffff00" stroke="#ffff00" cx="325.79" cy="-164" rx="29.5" ry="18"/>
<text text-anchor="middle" x="325.79" y="-160.3" font-family="Times,serif" font-size="14.00">आत्मा</text>
</g>
<!-- Node8_1&#45;&gt;Node8_2 -->
<!-- Node8_2_1 -->
<g id="node7" class="node">
<title>Node8_2_1</title>
<ellipse fill="#ffff00" stroke="#ffff00" cx="247.79" cy="-251" rx="94.48" ry="18"/>
<text text-anchor="middle" x="247.79" y="-247.3" font-family="Times,serif" font-size="14.00">&lt;अमेय&#45;&#45;आत्मा&gt;(बहुव्रीहिः)</text>
</g>
<!-- Node8_1&#45;&gt;Node8_2_1 -->
<g id="edge7" class="edge">
<title>Node8_1&#45;&gt;Node8_2_1</title>
<path fill="none" stroke="black" d="M236.24,-192.27C238.91,-205.58 242.03,-221.19 244.36,-232.82"/>
<polygon fill="black" stroke="black" points="239.62,-191.32 234.23,-182.2 232.76,-192.69 239.62,-191.32"/>
</g>
<!-- Node8_2&#45;&gt;Node8_2_1 -->
<g id="edge6" class="edge">
<title>Node8_2&#45;&gt;Node8_2_1</title>
<path fill="none" stroke="black" d="M304.97,-187.69C291.84,-202 275.17,-220.17 263.22,-233.19"/>
<polygon fill="black" stroke="black" points="307.66,-189.93 311.85,-180.2 302.51,-185.2 307.66,-189.93"/>
</g>
<!-- Node8_2_1&#45;&gt;Node8_2_1c -->
<g id="edge9" class="edge">
<title>Node8_2_1&#45;&gt;Node8_2_1c</title>
<path fill="none" stroke="black" d="M280.19,-274.39C301.41,-289.05 328.63,-307.87 347.68,-321.03"/>
<polygon fill="black" stroke="black" points="282.02,-271.4 271.8,-268.59 278.04,-277.16 282.02,-271.4"/>
</g>
</g>
</g>
<!-- Node8_2_1c -->
<g class="node8" onclick="toggleChildren('children_node2');">
<title>Node8_2_1c</title>
<ellipse fill="#00bfff" stroke="#00bfff" cx="370.79" cy="-338" rx="61.99" ry="18"/>
<text text-anchor="middle" x="370.79" y="-334.3" font-family="Times,serif" font-size="14.00">अमेय&#45;&#45;आत्मा(8)</text>
</g>
<!-- Node7_1 -->
<g id="node11" class="node">
<title>Node7_1</title>
<ellipse fill="#ff1975" stroke="#ff1975" cx="410.79" cy="-425" rx="48.19" ry="18"/>
<text text-anchor="middle" x="410.79" y="-421.3" font-family="Times,serif" font-size="14.00">न्यवेदयत्(7)</text>
</g>
<!-- Node8_2_1c&#45;&gt;Node7_1 -->
<g id="edge10" class="edge">
<title>Node8_2_1c&#45;&gt;Node7_1</title>
<path fill="none" stroke="black" d="M383.28,-365.54C389.67,-379.12 397.26,-395.24 402.85,-407.11"/>
<polygon fill="black" stroke="black" points="386.31,-363.76 378.89,-356.2 379.98,-366.74 386.31,-363.76"/>
<text text-anchor="middle" x="403.79" y="-377.8" font-family="Times,serif" font-size="14.00">कर्ता</text>
</g>
<!-- Node1_1 -->
<g id="node9" class="node">
<title>Node1_1</title>
<ellipse fill="#00bfff" stroke="#00bfff" cx="388.79" cy="-251" rx="28.7" ry="18"/>
<text text-anchor="middle" x="388.79" y="-247.3" font-family="Times,serif" font-size="14.00">सः(1)</text>
</g>
<!-- Node1_1&#45;&gt;Node8_2_1c -->
<g id="edge11" class="edge">
<title>Node1_1&#45;&gt;Node8_2_1c</title>
<path fill="none" stroke="black" d="M383.02,-279.27C380.2,-292.58 376.89,-308.19 374.43,-319.82"/>
<polygon fill="black" stroke="black" points="386.5,-279.71 385.15,-269.2 379.65,-278.26 386.5,-279.71"/>
<text text-anchor="middle" x="404.29" y="-290.8" font-family="Times,serif" font-size="14.00">विशेषणम्</text>
</g>
<!-- Node2_1 -->
<g id="node10" class="node">
<title>Node2_1</title>
<ellipse fill="#ff99ff" stroke="#ff99ff" cx="207.79" cy="-338" rx="47.39" ry="18"/>
<text text-anchor="middle" x="207.79" y="-334.3" font-family="Times,serif" font-size="14.00">अभिगम्य(2)</text>
</g>
<!-- Node2_1&#45;&gt;Node7_1 -->
<g id="edge12" class="edge">
<title>Node2_1&#45;&gt;Node7_1</title>
<path fill="none" stroke="black" d="M248.05,-355.86C286.86,-372.11 344.75,-396.35 380,-411.11"/>
<polygon fill="black" stroke="black" points="249.2,-352.54 238.62,-351.91 246.49,-359 249.2,-352.54"/>
<text text-anchor="middle" x="343.29" y="-377.8" font-family="Times,serif" font-size="14.00">पूर्वकालः</text>
</g>
<!-- Node4_1 -->
<g id="node12" class="node">
<title>Node4_1</title>
<ellipse fill="#ff99ff" stroke="#ff99ff" cx="487.79" cy="-338" rx="37.09" ry="18"/>
<text text-anchor="middle" x="487.79" y="-334.3" font-family="Times,serif" font-size="14.00">कृत्वा(4)</text>
</g>
<!-- Node4_1&#45;&gt;Node7_1 -->
<g id="edge13" class="edge">
<title>Node4_1&#45;&gt;Node7_1</title>
<path fill="none" stroke="black" d="M466.45,-362.55C453.41,-376.95 437.07,-394.99 425.47,-407.79"/>
<polygon fill="black" stroke="black" points="469.19,-364.75 473.31,-354.99 464,-360.05 469.19,-364.75"/>
<text text-anchor="middle" x="475.29" y="-377.8" font-family="Times,serif" font-size="14.00">पूर्वकालः</text>
</g>
<!-- Node5_1&#45;&gt;Node2_1 -->
<g id="edge14" class="edge">
<title>Node5_1&#45;&gt;Node2_1</title>
<path fill="none" stroke="black" d="M125.87,-273.12C145.12,-288.12 170.53,-307.94 187.92,-321.5"/>
<polygon fill="black" stroke="black" points="127.82,-270.2 117.78,-266.81 123.51,-275.72 127.82,-270.2"/>
<text text-anchor="middle" x="169.79" y="-290.8" font-family="Times,serif" font-size="14.00">कर्म</text>
</g>
<!-- Node6_1 -->
<g id="node14" class="node">
<title>Node6_1</title>
<ellipse fill="#93db70" stroke="#93db70" cx="487.79" cy="-251" rx="51.99" ry="18"/>
<text text-anchor="middle" x="487.79" y="-247.3" font-family="Times,serif" font-size="14.00">प्रदक्षिणम्(6)</text>
</g>
<!-- Node6_1&#45;&gt;Node4_1 -->
<g id="edge15" class="edge">
<title>Node6_1&#45;&gt;Node4_1</title>
<path fill="none" stroke="black" d="M487.79,-279.27C487.79,-292.58 487.79,-308.19 487.79,-319.82"/>
<polygon fill="black" stroke="black" points="491.29,-279.2 487.79,-269.2 484.29,-279.2 491.29,-279.2"/>
<text text-anchor="middle" x="496.79" y="-290.8" font-family="Times,serif" font-size="14.00">कर्म</text>
</g>
<!-- Node9_1 -->
<g id="node15" class="node">
<title>Node9_1</title>
<ellipse fill="#00bfff" stroke="#00bfff" cx="654.79" cy="-338" rx="33.29" ry="18"/>
<text text-anchor="middle" x="654.79" y="-334.3" font-family="Times,serif" font-size="14.00">दृष्टा(9)</text>
</g>
<!-- Node9_1&#45;&gt;Node7_1 -->
<g id="edge16" class="edge">
<title>Node9_1&#45;&gt;Node7_1</title>
<path fill="none" stroke="black" d="M618.28,-351.72C571.42,-368.04 490.71,-396.16 444.99,-412.09"/>
<polygon fill="black" stroke="black" points="619.45,-355.02 627.75,-348.42 617.15,-348.41 619.45,-355.02"/>
<text text-anchor="middle" x="568.79" y="-377.8" font-family="Times,serif" font-size="14.00">वाक्यकर्म</text>
</g>
<!-- Node10_1 -->
<g id="node16" class="node">
<title>Node10_1</title>
<ellipse fill="#00bfff" stroke="#00bfff" cx="597.79" cy="-251" rx="40.09" ry="18"/>
<text text-anchor="middle" x="597.79" y="-247.3" font-family="Times,serif" font-size="14.00">सीता(10)</text>
</g>
<!-- Node10_1&#45;&gt;Node9_1 -->
<g id="edge17" class="edge">
<title>Node10_1&#45;&gt;Node9_1</title>
<path fill="none" stroke="black" d="M614.4,-276.77C623.95,-291.01 635.68,-308.5 644.03,-320.95"/>
<polygon fill="black" stroke="black" points="617.26,-274.74 608.78,-268.39 611.44,-278.64 617.26,-274.74"/>
<text text-anchor="middle" x="637.79" y="-290.8" font-family="Times,serif" font-size="14.00">कर्म</text>
</g>
<!-- Node11_1 -->
<g id="node17" class="node">
<title>Node11_1</title>
<ellipse fill="#ff99ff" stroke="#ff99ff" cx="692.79" cy="-251" rx="37.09" ry="18"/>
<text text-anchor="middle" x="692.79" y="-247.3" font-family="Times,serif" font-size="14.00">इति(11)</text>
</g>
<!-- Node11_1&#45;&gt;Node9_1 -->
<g id="edge18" class="edge">
<title>Node11_1&#45;&gt;Node9_1</title>
<path fill="none" stroke="black" d="M681.08,-278.2C674.96,-291.9 667.64,-308.26 662.28,-320.24"/>
<polygon fill="black" stroke="black" points="684.4,-279.35 685.28,-268.79 678.01,-276.49 684.4,-279.35"/>
<text text-anchor="middle" x="718.29" y="-290.8" font-family="Times,serif" font-size="14.00">वाक्यकर्म_द्योतकः</text>
</g>
<!-- Node8_2_1c -->
<g class="node8" onclick="toggleChildren('children_node2');">
<title>Node8_2_1c</title>
<ellipse fill="#00bfff" stroke="#00bfff" cx="370.79" cy="-338" rx="61.99" ry="18"/>
<text text-anchor="middle" x="370.79" y="-334.3" font-family="Times,serif" font-size="14.00">अमेय&#45;&#45;आत्मा(8)</text>
</g>
<!-- Node12_1 -->
<g id="node18" class="node">
<title>Node12_1</title>
<ellipse fill="#ff99ff" stroke="#ff99ff" cx="796.79" cy="-251" rx="45.49" ry="18"/>
<text text-anchor="middle" x="796.79" y="-247.3" font-family="Times,serif" font-size="14.00">तत्त्वतः(12)</text>
</g>
<!-- Node12_1&#45;&gt;Node9_1 -->
<g id="edge19" class="edge">
<title>Node12_1&#45;&gt;Node9_1</title>
<path fill="none" stroke="black" d="M784.87,-277.84C779.76,-286.55 773.04,-295.66 764.79,-302 742.06,-319.45 710.4,-328.33 686.88,-332.76"/>
<polygon fill="black" stroke="black" points="787.96,-279.5 789.62,-269.03 781.79,-276.18 787.96,-279.5"/>
<text text-anchor="middle" x="814.29" y="-290.8" font-family="Times,serif" font-size="14.00">क्रियाविशेषणम्</text>
</g>
</g>
</svg>
