<?xml version="1.0" encoding="UTF-8" standalone="no"?>
<!DOCTYPE svg PUBLIC "-//W3C//DTD SVG 1.1//EN"
 "http://www.w3.org/Graphics/SVG/1.1/DTD/svg11.dtd">
<!-- Generated by graphviz version 2.50.0 (20211204.2007)
 -->
<!-- Title: G Pages: 1 -->
<svg width="552pt" height="321pt"
 viewBox="0.00 0.00 552.29 321.00" xmlns="http://www.w3.org/2000/svg" xmlns:xlink="http://www.w3.org/1999/xlink">
<g id="graph0" class="graph" transform="scale(1 1) rotate(0) translate(4 317)">
<title>G</title>
<polygon fill="#fffacd" stroke="transparent" points="-4,4 -4,-317 548.29,-317 548.29,4 -4,4"/>
<g id="clust1" class="cluster">
<title>cluster_1</title>
<polygon fill="#fffacd" stroke="black" points="104.1,-8 104.1,-147 214.1,-147 214.1,-8 104.1,-8"/>
</g>
<!-- Node6_1 -->
<g id="node1" class="node">
<title>Node6_1</title>
<ellipse fill="#00bfff" stroke="#00bfff" cx="159.1" cy="-34" rx="46.59" ry="18"/>
<text text-anchor="middle" x="159.1" y="-30.3" font-family="Times,serif" font-size="14.00">अनघः(6.1)</text>
</g>
<!-- Node7_1 -->
<g id="node2" class="node">
<title>Node7_1</title>
<ellipse fill="#00bfff" stroke="#00bfff" cx="162.1" cy="-121" rx="40.09" ry="18"/>
<text text-anchor="middle" x="162.1" y="-117.3" font-family="Times,serif" font-size="14.00">रामः(7.1)</text>
</g>
<!-- Node6_1&#45;&gt;Node7_1 -->
<g id="edge7" class="edge">
<title>Node6_1&#45;&gt;Node7_1</title>
<path fill="none" stroke="black" d="M160.06,-62.27C160.53,-75.58 161.08,-91.19 161.49,-102.82"/>
<polygon fill="black" stroke="black" points="163.55,-62.07 159.7,-52.2 156.56,-62.32 163.55,-62.07"/>
<text text-anchor="middle" x="183.6" y="-73.8" font-family="Times,serif" font-size="14.00">विशेषणम्</text>
</g>
<!-- Node3_1 -->
<g id="node5" class="node">
<title>Node3_1</title>
<ellipse fill="#ff99ff" stroke="#ff99ff" cx="272.1" cy="-208" rx="44.39" ry="18"/>
<text text-anchor="middle" x="272.1" y="-204.3" font-family="Times,serif" font-size="14.00">हित्वा(3.1)</text>
</g>
<!-- Node7_1&#45;&gt;Node3_1 -->
<g id="edge10" class="edge">
<title>Node7_1&#45;&gt;Node3_1</title>
<path fill="none" stroke="black" stroke-dasharray="1,5" d="M189.47,-143.16C209.06,-158.29 234.97,-178.31 252.51,-191.86"/>
<polygon fill="black" stroke="black" points="191.56,-140.35 181.51,-137 187.28,-145.88 191.56,-140.35"/>
<text text-anchor="middle" x="234.1" y="-160.8" font-family="Times,serif" font-size="14.00">कर्ता</text>
</g>
<!-- Node12_1 -->
<g id="node7" class="node">
<title>Node12_1</title>
<ellipse fill="#00bfff" stroke="#00bfff" cx="272.1" cy="-295" rx="65.79" ry="18"/>
<text text-anchor="middle" x="272.1" y="-291.3" font-family="Times,serif" font-size="14.00">अवाप्तवान्(12.1)</text>
</g>
<!-- Node7_1&#45;&gt;Node12_1 -->
<g id="edge8" class="edge">
<title>Node7_1&#45;&gt;Node12_1</title>
<path fill="none" stroke="black" d="M167.22,-149.02C172.29,-171.05 181.59,-202.3 197.1,-226 210.76,-246.88 232.34,-265.52 248.85,-277.98"/>
<polygon fill="black" stroke="black" points="170.59,-148.05 165.06,-139.01 163.74,-149.52 170.59,-148.05"/>
<text text-anchor="middle" x="208.1" y="-204.3" font-family="Times,serif" font-size="14.00">कर्ता</text>
</g>
<!-- Node9_1 -->
<g id="node10" class="node">
<title>Node9_1</title>
<ellipse fill="#ff99ff" stroke="#ff99ff" cx="98.1" cy="-208" rx="53.89" ry="18"/>
<text text-anchor="middle" x="98.1" y="-204.3" font-family="Times,serif" font-size="14.00">अनुप्राप्य(9.1)</text>
</g>
<!-- Node7_1&#45;&gt;Node9_1 -->
<g id="edge9" class="edge">
<title>Node7_1&#45;&gt;Node9_1</title>
<path fill="none" stroke="black" stroke-dasharray="1,5" d="M143.53,-146.65C132.96,-160.7 119.99,-177.92 110.62,-190.37"/>
<polygon fill="black" stroke="black" points="146.54,-148.48 149.76,-138.39 140.94,-144.27 146.54,-148.48"/>
<text text-anchor="middle" x="144.1" y="-160.8" font-family="Times,serif" font-size="14.00">कर्ता</text>
</g>
<!-- Node1_1 -->
<g id="node3" class="node">
<title>Node1_1</title>
<ellipse fill="#ffff00" stroke="#ffff00" cx="381.1" cy="-34" rx="44.39" ry="18"/>
<text text-anchor="middle" x="381.1" y="-30.3" font-family="Times,serif" font-size="14.00">नन्दि&#45;(1.1)</text>
</g>
<!-- Node1_2 -->
<g id="node4" class="node">
<title>Node1_2</title>
<ellipse fill="#c6e2eb" stroke="#c6e2eb" cx="380.1" cy="-121" rx="40.09" ry="18"/>
<text text-anchor="middle" x="380.1" y="-117.3" font-family="Times,serif" font-size="14.00">ग्रामे(1.2)</text>
</g>
<!-- Node1_1&#45;&gt;Node1_2 -->
<g id="edge1" class="edge">
<title>Node1_1&#45;&gt;Node1_2</title>
<path fill="none" stroke="black" d="M380.77,-62.27C380.62,-75.58 380.43,-91.19 380.3,-102.82"/>
<polygon fill="black" stroke="black" points="384.28,-62.24 380.89,-52.2 377.28,-62.16 384.28,-62.24"/>
<text text-anchor="middle" x="401.6" y="-73.8" font-family="Times,serif" font-size="14.00">कर्मधारय</text>
</g>
<!-- Node1_2&#45;&gt;Node3_1 -->
<g id="edge2" class="edge">
<title>Node1_2&#45;&gt;Node3_1</title>
<path fill="none" stroke="black" d="M353.01,-143.32C333.94,-158.33 308.85,-178.07 291.69,-191.58"/>
<polygon fill="black" stroke="black" points="355.34,-145.94 361.04,-137 351.01,-140.43 355.34,-145.94"/>
<text text-anchor="middle" x="359.6" y="-160.8" font-family="Times,serif" font-size="14.00">अधिकरणम्</text>
</g>
<!-- Node3_1&#45;&gt;Node12_1 -->
<g id="edge4" class="edge">
<title>Node3_1&#45;&gt;Node12_1</title>
<path fill="none" stroke="black" d="M272.1,-236.27C272.1,-249.58 272.1,-265.19 272.1,-276.82"/>
<polygon fill="black" stroke="black" points="275.6,-236.2 272.1,-226.2 268.6,-236.2 275.6,-236.2"/>
<text text-anchor="middle" x="293.6" y="-247.8" font-family="Times,serif" font-size="14.00">पूर्वकालः</text>
</g>
<!-- Node2_1 -->
<g id="node6" class="node">
<title>Node2_1</title>
<ellipse fill="#93db70" stroke="#93db70" cx="483.1" cy="-121" rx="44.69" ry="18"/>
<text text-anchor="middle" x="483.1" y="-117.3" font-family="Times,serif" font-size="14.00">जटाम्(2.1)</text>
</g>
<!-- Node2_1&#45;&gt;Node3_1 -->
<g id="edge3" class="edge">
<title>Node2_1&#45;&gt;Node3_1</title>
<path fill="none" stroke="black" d="M450.91,-141.84C433.64,-151.88 411.72,-163.67 391.1,-172 363.3,-183.23 354.84,-181.5 326.1,-190 319.5,-191.95 312.47,-194.11 305.74,-196.21"/>
<polygon fill="black" stroke="black" points="453.16,-144.58 459.99,-136.48 449.6,-138.55 453.16,-144.58"/>
<text text-anchor="middle" x="431.1" y="-160.8" font-family="Times,serif" font-size="14.00">कर्म</text>
</g>
<!-- Node4_1 -->
<g id="node8" class="node">
<title>Node4_1</title>
<ellipse fill="#40e0d0" stroke="#40e0d0" cx="272.1" cy="-121" rx="50.09" ry="18"/>
<text text-anchor="middle" x="272.1" y="-117.3" font-family="Times,serif" font-size="14.00">भ्रातृभिः(4.1)</text>
</g>
<!-- Node4_1&#45;&gt;Node3_1 -->
<g id="edge5" class="edge">
<title>Node4_1&#45;&gt;Node3_1</title>
<path fill="none" stroke="black" d="M272.1,-149.27C272.1,-162.58 272.1,-178.19 272.1,-189.82"/>
<polygon fill="black" stroke="black" points="275.6,-149.2 272.1,-139.2 268.6,-149.2 275.6,-149.2"/>
<text text-anchor="middle" x="288.1" y="-160.8" font-family="Times,serif" font-size="14.00">सहार्थः</text>
</g>
<!-- Node5_1 -->
<g id="node9" class="node">
<title>Node5_1</title>
<ellipse fill="#00bfff" stroke="#00bfff" cx="271.1" cy="-34" rx="47.39" ry="18"/>
<text text-anchor="middle" x="271.1" y="-30.3" font-family="Times,serif" font-size="14.00">सहितः(5.1)</text>
</g>
<!-- Node5_1&#45;&gt;Node4_1 -->
<g id="edge6" class="edge">
<title>Node5_1&#45;&gt;Node4_1</title>
<path fill="none" stroke="black" d="M271.42,-62.27C271.57,-75.58 271.76,-91.19 271.89,-102.82"/>
<polygon fill="black" stroke="black" points="274.92,-62.16 271.3,-52.2 267.92,-62.24 274.92,-62.16"/>
<text text-anchor="middle" x="305.6" y="-73.8" font-family="Times,serif" font-size="14.00">सहार्थ_द्योतकः</text>
</g>
<!-- Node9_1&#45;&gt;Node12_1 -->
<g id="edge12" class="edge">
<title>Node9_1&#45;&gt;Node12_1</title>
<path fill="none" stroke="black" d="M110.32,-235.14C115.58,-243.89 122.52,-252.94 131.1,-259 154.16,-275.31 184.03,-284.04 210.34,-288.71"/>
<polygon fill="black" stroke="black" points="113.33,-233.35 105.44,-226.28 107.19,-236.73 113.33,-233.35"/>
<text text-anchor="middle" x="152.6" y="-247.8" font-family="Times,serif" font-size="14.00">पूर्वकालः</text>
</g>
<!-- Node8_1 -->
<g id="node11" class="node">
<title>Node8_1</title>
<ellipse fill="#93db70" stroke="#93db70" cx="48.1" cy="-121" rx="48.19" ry="18"/>
<text text-anchor="middle" x="48.1" y="-117.3" font-family="Times,serif" font-size="14.00">सीताम्(8.1)</text>
</g>
<!-- Node8_1&#45;&gt;Node9_1 -->
<g id="edge11" class="edge">
<title>Node8_1&#45;&gt;Node9_1</title>
<path fill="none" stroke="black" d="M63.27,-147.8C71.38,-161.58 81.12,-178.14 88.24,-190.24"/>
<polygon fill="black" stroke="black" points="66.06,-145.64 57.97,-138.79 60.03,-149.19 66.06,-145.64"/>
<text text-anchor="middle" x="85.1" y="-160.8" font-family="Times,serif" font-size="14.00">कर्म</text>
</g>
<!-- Node10_1 -->
<g id="node12" class="node">
<title>Node10_1</title>
<ellipse fill="#93db70" stroke="#93db70" cx="386.1" cy="-208" rx="51.19" ry="18"/>
<text text-anchor="middle" x="386.1" y="-204.3" font-family="Times,serif" font-size="14.00">राज्यम्(10.1)</text>
</g>
<!-- Node10_1&#45;&gt;Node12_1 -->
<g id="edge13" class="edge">
<title>Node10_1&#45;&gt;Node12_1</title>
<path fill="none" stroke="black" d="M357.09,-230.66C345.3,-239.46 331.55,-249.72 319.1,-259 310.78,-265.2 301.62,-272.02 293.63,-277.97"/>
<polygon fill="black" stroke="black" points="359.36,-233.33 365.28,-224.55 355.17,-227.72 359.36,-233.33"/>
<text text-anchor="middle" x="346.1" y="-247.8" font-family="Times,serif" font-size="14.00">कर्म</text>
</g>
<!-- Node11_1 -->
<g id="node13" class="node">
<title>Node11_1</title>
<ellipse fill="#ff99ff" stroke="#ff99ff" cx="500.1" cy="-208" rx="44.39" ry="18"/>
<text text-anchor="middle" x="500.1" y="-204.3" font-family="Times,serif" font-size="14.00">पुनः(11.1)</text>
</g>
<!-- Node11_1&#45;&gt;Node12_1 -->
<g id="edge14" class="edge">
<title>Node11_1&#45;&gt;Node12_1</title>
<path fill="none" stroke="black" d="M458.91,-224.36C416.4,-240.2 350.68,-264.7 309.59,-280.02"/>
<polygon fill="black" stroke="black" points="460.25,-227.59 468.39,-220.82 457.8,-221.03 460.25,-227.59"/>
<text text-anchor="middle" x="435.6" y="-247.8" font-family="Times,serif" font-size="14.00">क्रियाविशेषणम्</text>
</g>
</g>
</svg>
