<svg width="1311pt" height="597pt"
 viewBox="0.00 0.00 1310.72 597.00" xmlns="http://www.w3.org/2000/svg" xmlns:xlink="http://www.w3.org/1999/xlink">
<g id="graph0" class="graph" transform="scale(1 1) rotate(0) translate(4 593)">
<title>G</title>
<polygon fill="#fffacd" stroke="transparent" points="-4,4 -4,-593 1306.72,-593 1306.72,4 -4,4"/>
<g id="clust1" class="cluster">
<title>cluster_1</title>
<polygon fill="#fffacd" stroke="black" points="217.25,-284 217.25,-423 301.25,-423 301.25,-284 217.25,-284"/>
</g>
<!-- Node1_1 -->
<style>
 .hidden { display: none; }
 .node { cursor: pointer; }
 </style>
<script>
     function toggleChildren(id) {
      const children = document.getElementById(id);
      if (children.classList.contains('hidden')) {
        children.classList.remove('hidden');
      } else {
        children.classList.add('hidden');
      }
    }
</script>
<g id="children_node1" class="hidden">
    <g class="node" onclick="toggleChildren('children_node1');">

<g id="node1" class="node">
<title>Node1_1</title>
<ellipse fill="#ffff00" stroke="#ffff00" cx="29.25" cy="-237" rx="29.5" ry="18"/>
<text text-anchor="middle" x="29.25" y="-233.3" font-family="Times,serif" font-size="14.00">प्रहृष्ट&#45;</text>
</g>
<!-- Node1_2 -->
<g id="node2" class="node">
<title>Node1_2</title>
<ellipse fill="#ffff00" stroke="#ffff00" cx="124.25" cy="-237" rx="29.8" ry="18"/>
<text text-anchor="middle" x="124.25" y="-233.3" font-family="Times,serif" font-size="14.00">मुदितः</text>
</g>
<!-- Node1_1&#45;&gt;Node1_2 -->
<!-- Node1_2_1 -->
<g id="node3" class="node">
<title>Node1_2_1</title>
<ellipse fill="#ffff00" stroke="#ffff00" cx="109.25" cy="-310" rx="98.28" ry="18"/>
<text text-anchor="middle" x="109.25" y="-306.3" font-family="Times,serif" font-size="14.00">&lt;प्रहृष्ट&#45;&#45;मुदितः&gt;(कर्मधारयः)</text>
</g>
<!-- Node1_1&#45;&gt;Node1_2_1 -->
<g id="edge2" class="edge">
<title>Node1_1&#45;&gt;Node1_2_1</title>
<path fill="none" stroke="black" d="M53.22,-259.27C65.07,-269.8 79.18,-282.31 90.27,-292.16"/>
<polygon fill="black" stroke="black" points="55.24,-256.39 45.44,-252.37 50.59,-261.62 55.24,-256.39"/>
</g>
<!-- Node1_2&#45;&gt;Node1_2_1 -->
<g id="edge1" class="edge">
<title>Node1_2&#45;&gt;Node1_2_1</title>
<path fill="none" stroke="black" d="M118.49,-265.25C116.59,-274.23 114.54,-283.97 112.85,-291.97"/>
<polygon fill="black" stroke="black" points="121.97,-265.69 120.62,-255.19 115.12,-264.25 121.97,-265.69"/>
</g>
<!-- Node1_2_1&#45;&gt;Node1_2_1c -->
<g id="edge4" class="edge">
<title>Node1_2_1&#45;&gt;Node1_2_1c</title>
<path fill="none" stroke="black" d="M117.78,-337.87C122.04,-351.27 127.06,-367.08 130.79,-378.82"/>
<polygon fill="black" stroke="black" points="121.07,-336.67 114.71,-328.2 114.4,-338.79 121.07,-336.67"/>
</g>
</g>
</g>
<!-- Node1_2_1c -->
<g class="node4" onclick="toggleChildren('children_node1');">
<title>Node1_2_1c</title>
<ellipse fill="#00bfff" stroke="#00bfff" cx="136.25" cy="-397" rx="61.99" ry="18"/>
<text text-anchor="middle" x="136.25" y="-393.3" font-family="Times,serif" font-size="14.00">प्रहृष्ट&#45;&#45;मुदितः(1)</text>
</g>
<!-- Node2_1 -->
<g id="node27" class="node">
<title>Node2_1</title>
<ellipse fill="#00bfff" stroke="#00bfff" cx="197.25" cy="-484" rx="38.19" ry="18"/>
<text text-anchor="middle" x="197.25" y="-480.3" font-family="Times,serif" font-size="14.00">लोकः(2)</text>
</g>
<!-- Node1_2_1c&#45;&gt;Node2_1 -->
<g id="edge5" class="edge">
<title>Node1_2_1c&#45;&gt;Node2_1</title>
<path fill="none" stroke="black" d="M154.27,-423.12C164.41,-437.25 176.78,-454.48 185.63,-466.82"/>
<polygon fill="black" stroke="black" points="156.97,-420.88 148.3,-414.79 151.29,-424.96 156.97,-420.88"/>
<text text-anchor="middle" x="194.75" y="-436.8" font-family="Times,serif" font-size="14.00">विशेषणम्</text>
</g>
<g id="children_node2" class="hidden">
    <g class="node" onclick="toggleChildren('children_node2');">
<!-- Node5_1 -->
<g id="node5" class="node">
<title>Node5_1</title>
<ellipse fill="#ffff00" stroke="#ffff00" cx="231.25" cy="-164" rx="27" ry="18"/>
<text text-anchor="middle" x="231.25" y="-160.3" font-family="Times,serif" font-size="14.00">सु&#45;</text>
</g>
<!-- Node5_2 -->
<g id="node6" class="node">
<title>Node5_2</title>
<ellipse fill="#ffff00" stroke="#ffff00" cx="329.25" cy="-164" rx="35.19" ry="18"/>
<text text-anchor="middle" x="329.25" y="-160.3" font-family="Times,serif" font-size="14.00">धार्मिकः</text>
</g>
<!-- Node5_1&#45;&gt;Node5_2 -->
<!-- Node5_2_1 -->
<g id="node7" class="node">
<title>Node5_2_1</title>
<ellipse fill="#ffff00" stroke="#ffff00" cx="289.25" cy="-237" rx="92.88" ry="18"/>
<text text-anchor="middle" x="289.25" y="-233.3" font-family="Times,serif" font-size="14.00">&lt;सु&#45;&#45;धार्मिकः&gt;(कर्मधारयः)</text>
</g>
<!-- Node5_1&#45;&gt;Node5_2_1 -->
<g id="edge7" class="edge">
<title>Node5_1&#45;&gt;Node5_2_1</title>
<path fill="none" stroke="black" d="M250.09,-188.06C258.31,-198.12 267.77,-209.71 275.34,-218.97"/>
<polygon fill="black" stroke="black" points="252.58,-185.59 243.55,-180.06 247.16,-190.02 252.58,-185.59"/>
</g>
<!-- Node5_2&#45;&gt;Node5_2_1 -->
<g id="edge6" class="edge">
<title>Node5_2&#45;&gt;Node5_2_1</title>
<path fill="none" stroke="black" d="M314.95,-190.38C309.67,-199.75 303.82,-210.14 299.03,-218.63"/>
<polygon fill="black" stroke="black" points="318.11,-191.9 319.97,-181.47 312.01,-188.46 318.11,-191.9"/>
</g>
<!-- Node5_2_1&#45;&gt;Node5_2_1c -->
<g id="edge9" class="edge">
<title>Node5_2_1&#45;&gt;Node5_2_1c</title>
<path fill="none" stroke="black" d="M315.2,-261.62C326.43,-271.85 339.3,-283.56 349.43,-292.78"/>
<polygon fill="black" stroke="black" points="317.48,-258.97 307.73,-254.83 312.77,-264.15 317.48,-258.97"/>
</g>
</g>
</g>
<!-- Node5_2_1c -->
<g class="node8" onclick="toggleChildren('children_node2');">
<title>Node5_2_1c</title>
<ellipse fill="#00bfff" stroke="#00bfff" cx="367.25" cy="-310" rx="56.59" ry="18"/>
<text text-anchor="middle" x="367.25" y="-306.3" font-family="Times,serif" font-size="14.00">सु&#45;&#45;धार्मिकः(5)</text>
</g>
<!-- Node3_1 -->
<g id="node26" class="node">
<title>Node3_1</title>
<ellipse fill="#00bfff" stroke="#00bfff" cx="259.25" cy="-397" rx="33.6" ry="18"/>
<text text-anchor="middle" x="259.25" y="-393.3" font-family="Times,serif" font-size="14.00">तुष्टः(3)</text>
</g>
<!-- Node5_2_1c&#45;&gt;Node3_1 -->
<g id="edge10" class="edge">
<title>Node5_2_1c&#45;&gt;Node3_1</title>
<path fill="none" stroke="black" d="M341.25,-333.84C331.1,-342.53 319.28,-352.41 308.25,-361 298.84,-368.32 288.1,-376.06 279.07,-382.4"/>
<polygon fill="black" stroke="black" points="343.69,-336.35 348.97,-327.16 339.12,-331.05 343.69,-336.35"/>
<text text-anchor="middle" x="348.75" y="-349.8" font-family="Times,serif" font-size="14.00">समुच्चितः</text>
</g>
<g id="children_node3" class="hidden">
    <g class="node" onclick="toggleChildren('children_node3');">
<!-- Node6_1 -->
<g id="node9" class="node">
<title>Node6_1</title>
<ellipse fill="#ffff00" stroke="#ffff00" cx="450.25" cy="-164" rx="27" ry="18"/>
<text text-anchor="middle" x="450.25" y="-160.3" font-family="Times,serif" font-size="14.00">निर्&#45;</text>
</g>
<!-- Node6_2 -->
<g id="node10" class="node">
<title>Node6_2</title>
<ellipse fill="#ffff00" stroke="#ffff00" cx="545.25" cy="-164" rx="32.49" ry="18"/>
<text text-anchor="middle" x="545.25" y="-160.3" font-family="Times,serif" font-size="14.00">आमयः</text>
</g>
<!-- Node6_1&#45;&gt;Node6_2 -->
<!-- Node6_2_1 -->
<g id="node11" class="node">
<title>Node6_2_1</title>
<ellipse fill="#ffff00" stroke="#ffff00" cx="490.25" cy="-237" rx="90.18" ry="18"/>
<text text-anchor="middle" x="490.25" y="-233.3" font-family="Times,serif" font-size="14.00">&lt;निर्&#45;&#45;आमयः&gt;(बहुव्रीहिः)</text>
</g>
<!-- Node6_1&#45;&gt;Node6_2_1 -->
<g id="edge12" class="edge">
<title>Node6_1&#45;&gt;Node6_2_1</title>
<path fill="none" stroke="black" d="M464.26,-189.88C469.68,-199.49 475.74,-210.25 480.65,-218.96"/>
<polygon fill="black" stroke="black" points="467.28,-188.11 459.32,-181.11 461.18,-191.54 467.28,-188.11"/>
</g>
<!-- Node6_2&#45;&gt;Node6_2_1 -->
<g id="edge11" class="edge">
<title>Node6_2&#45;&gt;Node6_2_1</title>
<path fill="none" stroke="black" d="M526.89,-188.7C519.19,-198.64 510.41,-209.97 503.38,-219.05"/>
<polygon fill="black" stroke="black" points="529.68,-190.81 533.04,-180.76 524.15,-186.52 529.68,-190.81"/>
</g>
<!-- Node6_2_1&#45;&gt;Node6_2_1c -->
<g id="edge14" class="edge">
<title>Node6_2_1&#45;&gt;Node6_2_1c</title>
<path fill="none" stroke="black" d="M493.7,-265.25C494.84,-274.23 496.07,-283.97 497.09,-291.97"/>
<polygon fill="black" stroke="black" points="497.16,-264.67 492.43,-255.19 490.21,-265.55 497.16,-264.67"/>
</g>
</g>
</g>
<!-- Node6_2_1c -->
<g class="node12" onclick="toggleChildren('children_node3');">
<title>Node6_2_1c</title>
<ellipse fill="#00bfff" stroke="#00bfff" cx="499.25" cy="-310" rx="57.69" ry="18"/>
<text text-anchor="middle" x="499.25" y="-306.3" font-family="Times,serif" font-size="14.00">निर्&#45;&#45;आमयः(6)</text>
</g>
<!-- Node6_2_1c&#45;&gt;Node3_1 -->
<g id="edge15" class="edge">
<title>Node6_2_1c&#45;&gt;Node3_1</title>
<path fill="none" stroke="black" d="M457.46,-328.95C433.58,-338.92 402.96,-351.25 375.25,-361 346.08,-371.26 312.16,-381.28 288.56,-387.95"/>
<polygon fill="black" stroke="black" points="459.06,-332.07 466.92,-324.97 456.34,-325.62 459.06,-332.07"/>
<text text-anchor="middle" x="434.75" y="-349.8" font-family="Times,serif" font-size="14.00">समुच्चितः</text>
</g>
<g id="children_node4" class="hidden">
    <g class="node" onclick="toggleChildren('children_node4');">
<!-- Node8_1 -->
<g id="node13" class="node">
<title>Node8_1</title>
<ellipse fill="#ffff00" stroke="#ffff00" cx="655.25" cy="-164" rx="27" ry="18"/>
<text text-anchor="middle" x="655.25" y="-160.3" font-family="Times,serif" font-size="14.00">अ&#45;</text>
</g>
<!-- Node8_2 -->
<g id="node14" class="node">
<title>Node8_2</title>
<ellipse fill="#ffff00" stroke="#ffff00" cx="745.25" cy="-164" rx="27" ry="18"/>
<text text-anchor="middle" x="745.25" y="-160.3" font-family="Times,serif" font-size="14.00">रोगः</text>
</g>
<!-- Node8_1&#45;&gt;Node8_2 -->
<!-- Node8_2_1 -->
<g id="node15" class="node">
<title>Node8_2_1</title>
<ellipse fill="#ffff00" stroke="#ffff00" cx="688.25" cy="-237" rx="89.88" ry="18"/>
<text text-anchor="middle" x="688.25" y="-233.3" font-family="Times,serif" font-size="14.00">&lt;अ&#45;&#45;रोगः&gt;(नञ्&#45;तत्पुरुषः)</text>
</g>
<!-- Node8_1&#45;&gt;Node8_2_1 -->
<g id="edge17" class="edge">
<title>Node8_1&#45;&gt;Node8_2_1</title>
<path fill="none" stroke="black" d="M667.18,-190.67C671.5,-199.96 676.27,-210.22 680.17,-218.63"/>
<polygon fill="black" stroke="black" points="670.29,-189.06 662.9,-181.47 663.94,-192.01 670.29,-189.06"/>
</g>
<!-- Node8_2&#45;&gt;Node8_2_1 -->
<g id="edge16" class="edge">
<title>Node8_2&#45;&gt;Node8_2_1</title>
<path fill="none" stroke="black" d="M726.45,-188.41C718.39,-198.45 709.16,-209.95 701.79,-219.13"/>
<polygon fill="black" stroke="black" points="729.35,-190.4 732.88,-180.41 723.89,-186.01 729.35,-190.4"/>
</g>
<!-- Node8_2_1&#45;&gt;Node8_2_1c -->
<g id="edge19" class="edge">
<title>Node8_2_1&#45;&gt;Node8_2_1c</title>
<path fill="none" stroke="black" d="M665.4,-262.21C655.88,-272.3 645.09,-283.74 636.55,-292.78"/>
<polygon fill="black" stroke="black" points="668.05,-264.5 672.37,-254.83 662.96,-259.7 668.05,-264.5"/>
</g>
</g>
</g>
<!-- Node8_2_1c -->
<g class="node16" onclick="toggleChildren('children_node4');">
<title>Node8_2_1c</title>
<ellipse fill="#00bfff" stroke="#00bfff" cx="621.25" cy="-310" rx="46.29" ry="18"/>
<text text-anchor="middle" x="621.25" y="-306.3" font-family="Times,serif" font-size="14.00">अ&#45;&#45;रोगः(8)</text>
</g>
<!-- Node8_2_1c&#45;&gt;Node3_1 -->
<g id="edge20" class="edge">
<title>Node8_2_1c&#45;&gt;Node3_1</title>
<path fill="none" stroke="black" d="M578.71,-325.97C546.71,-336.82 501.62,-351.24 461.25,-361 402.09,-375.3 331.83,-386.11 291.7,-391.72"/>
<polygon fill="black" stroke="black" points="579.87,-329.27 588.2,-322.73 577.61,-322.65 579.87,-329.27"/>
<text text-anchor="middle" x="536.75" y="-349.8" font-family="Times,serif" font-size="14.00">समुच्चितः</text>
</g>
<g id="children_node5" class="hidden">
    <g class="node" onclick="toggleChildren('children_node5');">
<!-- Node10_1 -->
<g id="node17" class="node">
<title>Node10_1</title>
<ellipse fill="#ffff00" stroke="#ffff00" cx="864.25" cy="-18" rx="27" ry="18"/>
<text text-anchor="middle" x="864.25" y="-14.3" font-family="Times,serif" font-size="14.00">दुर्&#45;</text>
</g>
<!-- Node10_2 -->
<g id="node18" class="node">
<title>Node10_2</title>
<ellipse fill="#ffff00" stroke="#ffff00" cx="954.25" cy="-18" rx="27.9" ry="18"/>
<text text-anchor="middle" x="954.25" y="-14.3" font-family="Times,serif" font-size="14.00">भिक्ष&#45;</text>
</g>
<!-- Node10_1&#45;&gt;Node10_2 -->
<!-- Node10_2_1 -->
<g id="node19" class="node">
<title>Node10_2_1</title>
<ellipse fill="#ffff00" stroke="#ffff00" cx="908.25" cy="-91" rx="94.78" ry="18"/>
<text text-anchor="middle" x="908.25" y="-87.3" font-family="Times,serif" font-size="14.00">&lt;दुर्&#45;&#45;भिक्ष&#45;&gt;(अव्ययीभावः)</text>
</g>
<!-- Node10_1&#45;&gt;Node10_2_1 -->
<g id="edge22" class="edge">
<title>Node10_1&#45;&gt;Node10_2_1</title>
<path fill="none" stroke="black" d="M879.66,-43.88C885.62,-53.49 892.29,-64.25 897.69,-72.96"/>
<polygon fill="black" stroke="black" points="882.47,-41.77 874.23,-35.11 876.52,-45.45 882.47,-41.77"/>
</g>
<!-- Node10_2&#45;&gt;Node10_2_1 -->
<g id="edge21" class="edge">
<title>Node10_2&#45;&gt;Node10_2_1</title>
<path fill="none" stroke="black" d="M938.51,-43.3C932.16,-53.09 925,-64.15 919.23,-73.05"/>
<polygon fill="black" stroke="black" points="941.54,-45.05 944.04,-34.76 935.66,-41.25 941.54,-45.05"/>
</g>
<!-- Node10_3 -->
<g id="node20" class="node">
<title>Node10_3</title>
<ellipse fill="#ffff00" stroke="#ffff00" cx="1065.25" cy="-91" rx="27" ry="18"/>
<text text-anchor="middle" x="1065.25" y="-87.3" font-family="Times,serif" font-size="14.00">भय&#45;</text>
</g>
<!-- Node10_2_1&#45;&gt;Node10_3 -->
<!-- Node10_3_2 -->
<g id="node21" class="node">
<title>Node10_3_2</title>
<ellipse fill="#ffff00" stroke="#ffff00" cx="1003.25" cy="-164" rx="167.07" ry="18"/>
<text text-anchor="middle" x="1003.25" y="-160.3" font-family="Times,serif" font-size="14.00">&lt;&lt;दुर्&#45;&#45;भिक्ष&#45;&gt;(अव्ययीभावः)&#45;भय&#45;&gt;(षष्ठी&#45;तत्पुरुषः)</text>
</g>
<!-- Node10_2_1&#45;&gt;Node10_3_2 -->
<g id="edge25" class="edge">
<title>Node10_2_1&#45;&gt;Node10_3_2</title>
<path fill="none" stroke="black" d="M938.88,-114.89C952.43,-125.02 968.09,-136.72 980.57,-146.05"/>
<polygon fill="black" stroke="black" points="940.87,-112.01 930.76,-108.83 936.68,-117.62 940.87,-112.01"/>
</g>
<!-- Node10_3&#45;&gt;Node10_3_2 -->
<g id="edge24" class="edge">
<title>Node10_3&#45;&gt;Node10_3_2</title>
<path fill="none" stroke="black" d="M1045.37,-114.76C1036.52,-124.89 1026.29,-136.62 1018.12,-145.97"/>
<polygon fill="black" stroke="black" points="1048.16,-116.89 1052.1,-107.06 1042.88,-112.29 1048.16,-116.89"/>
</g>
<!-- Node10_4 -->
<g id="node22" class="node">
<title>Node10_4</title>
<ellipse fill="#ffff00" stroke="#ffff00" cx="1237.25" cy="-164" rx="31.4" ry="18"/>
<text text-anchor="middle" x="1237.25" y="-160.3" font-family="Times,serif" font-size="14.00">वर्जितः</text>
</g>
<!-- Node10_3_2&#45;&gt;Node10_4 -->
<!-- Node10_4_3 -->
<g id="node23" class="node">
<title>Node10_4_3</title>
<ellipse fill="#ffff00" stroke="#ffff00" cx="1049.25" cy="-237" rx="253.46" ry="18"/>
<text text-anchor="middle" x="1049.25" y="-233.3" font-family="Times,serif" font-size="14.00">&lt;&lt;&lt;दुर्&#45;&#45;भिक्ष&#45;&gt;(अव्ययीभावः)&#45;भय&#45;&gt;(षष्ठी&#45;तत्पुरुषः)&#45;वर्जितः&gt;(तृतीया&#45;तत्पुरुषः)</text>
</g>
<!-- Node10_3_2&#45;&gt;Node10_4_3 -->
<g id="edge28" class="edge">
<title>Node10_3_2&#45;&gt;Node10_4_3</title>
<path fill="none" stroke="black" d="M1019.96,-190.79C1026.03,-200.17 1032.75,-210.54 1038.21,-218.97"/>
<polygon fill="black" stroke="black" points="1022.76,-188.68 1014.38,-182.19 1016.88,-192.48 1022.76,-188.68"/>
</g>
<!-- Node10_4&#45;&gt;Node10_4_3 -->
<g id="edge27" class="edge">
<title>Node10_4&#45;&gt;Node10_4_3</title>
<path fill="none" stroke="black" d="M1202.46,-178.14C1171.77,-189.73 1126.88,-206.68 1093.61,-219.25"/>
<polygon fill="black" stroke="black" points="1203.77,-181.38 1211.89,-174.58 1201.3,-174.83 1203.77,-181.38"/>
</g>
<!-- Node10_4_3&#45;&gt;Node10_4_3c -->
<g id="edge30" class="edge">
<title>Node10_4_3&#45;&gt;Node10_4_3c</title>
<path fill="none" stroke="black" d="M977.09,-257.05C931.78,-269 874.35,-284.16 833.23,-295.02"/>
<polygon fill="black" stroke="black" points="978.08,-260.4 986.86,-254.47 976.3,-253.64 978.08,-260.4"/>
</g>
</g>
</g>
<!-- Node10_4_3c -->
<g class="node24" onclick="toggleChildren('children_node5');">
<title>Node10_4_3c</title>
<ellipse fill="#00bfff" stroke="#00bfff" cx="780.25" cy="-310" rx="94.78" ry="18"/>
<text text-anchor="middle" x="780.25" y="-306.3" font-family="Times,serif" font-size="14.00">दुर्&#45;&#45;भिक्ष&#45;&#45;भय&#45;&#45;वर्जितः(10)</text>
</g>
<!-- Node10_4_3c&#45;&gt;Node3_1 -->
<g id="edge31" class="edge">
<title>Node10_4_3c&#45;&gt;Node3_1</title>
<path fill="none" stroke="black" d="M717.3,-327.47C674.18,-338.26 615.56,-351.99 563.25,-361 465.6,-377.82 348.89,-388.71 292.71,-393.38"/>
<polygon fill="black" stroke="black" points="718.24,-330.84 727.08,-325 716.53,-324.05 718.24,-330.84"/>
<text text-anchor="middle" x="657.75" y="-349.8" font-family="Times,serif" font-size="14.00">समुच्चितः</text>
</g>
<!-- Node4_1 -->
<g id="node25" class="node">
<title>Node4_1</title>
<ellipse fill="#00bfff" stroke="#00bfff" cx="259.25" cy="-310" rx="33.6" ry="18"/>
<text text-anchor="middle" x="259.25" y="-306.3" font-family="Times,serif" font-size="14.00">पुष्टः(4)</text>
</g>
<!-- Node4_1&#45;&gt;Node3_1 -->
<g id="edge34" class="edge">
<title>Node4_1&#45;&gt;Node3_1</title>
<path fill="none" stroke="black" d="M259.25,-338.27C259.25,-351.58 259.25,-367.19 259.25,-378.82"/>
<polygon fill="black" stroke="black" points="262.75,-338.2 259.25,-328.2 255.75,-338.2 262.75,-338.2"/>
<text text-anchor="middle" x="281.75" y="-349.8" font-family="Times,serif" font-size="14.00">समुच्चितः</text>
</g>
<!-- Node3_1&#45;&gt;Node2_1 -->
<g id="edge33" class="edge">
<title>Node3_1&#45;&gt;Node2_1</title>
<path fill="none" stroke="black" d="M241.48,-422.36C231.08,-436.62 218.23,-454.23 209.07,-466.79"/>
<polygon fill="black" stroke="black" points="244.52,-424.13 247.59,-413.99 238.86,-420 244.52,-424.13"/>
<text text-anchor="middle" x="272.25" y="-436.8" font-family="Times,serif" font-size="14.00">विधेय_विशेषणम्</text>
</g>
<!-- Node11_1 -->
<g id="node28" class="node">
<title>Node11_1</title>
<ellipse fill="#ff1975" stroke="#ff1975" cx="239.25" cy="-571" rx="59.29" ry="18"/>
<text text-anchor="middle" x="239.25" y="-567.3" font-family="Times,serif" font-size="14.00">(भविष्यति)(11)</text>
</g>
<!-- Node2_1&#45;&gt;Node11_1 -->
<g id="edge32" class="edge">
<title>Node2_1&#45;&gt;Node11_1</title>
<path fill="none" stroke="black" d="M210.16,-511.13C216.88,-524.73 224.91,-540.98 230.82,-552.95"/>
<polygon fill="black" stroke="black" points="213.11,-509.21 205.55,-501.79 206.84,-512.31 213.11,-509.21"/>
<text text-anchor="middle" x="231.25" y="-523.8" font-family="Times,serif" font-size="14.00">कर्ता</text>
</g>
<!-- Node7_1 -->
<g id="node29" class="node">
<title>Node7_1</title>
<ellipse fill="#ff99ff" stroke="#ff99ff" cx="281.25" cy="-484" rx="27.9" ry="18"/>
<text text-anchor="middle" x="281.25" y="-480.3" font-family="Times,serif" font-size="14.00">हि(7)</text>
</g>
<!-- Node7_1&#45;&gt;Node11_1 -->
<g id="edge35" class="edge">
<title>Node7_1&#45;&gt;Node11_1</title>
<path fill="none" stroke="black" d="M268.7,-510.39C261.88,-524.19 253.64,-540.87 247.61,-553.08"/>
<polygon fill="black" stroke="black" points="271.86,-511.9 273.15,-501.39 265.58,-508.8 271.86,-511.9"/>
<text text-anchor="middle" x="280.75" y="-523.8" font-family="Times,serif" font-size="14.00">सम्बन्धः</text>
</g>
<!-- Node10_4_3c -->
<g class="node24" onclick="toggleChildren('children_node5');">
<title>Node10_4_3c</title>
<ellipse fill="#00bfff" stroke="#00bfff" cx="780.25" cy="-310" rx="94.78" ry="18"/>
<text text-anchor="middle" x="780.25" y="-306.3" font-family="Times,serif" font-size="14.00">दुर्&#45;&#45;भिक्ष&#45;&#45;भय&#45;&#45;वर्जितः(10)</text>
</g>
<!-- Node9_1 -->
<g id="node30" class="node">
<title>Node9_1</title>
<ellipse fill="#ff99ff" stroke="#ff99ff" cx="920.25" cy="-310" rx="27" ry="18"/>
<text text-anchor="middle" x="920.25" y="-306.3" font-family="Times,serif" font-size="14.00">च(9)</text>
</g>
<!-- Node9_1&#45;&gt;Node3_1 -->
<g id="edge36" class="edge">
<title>Node9_1&#45;&gt;Node3_1</title>
<path fill="none" stroke="black" d="M890.09,-325.97C888.14,-326.71 886.18,-327.4 884.25,-328 798.24,-354.83 773.66,-349.96 684.25,-361 538.95,-378.94 364.53,-390.05 292.68,-394.17"/>
<polygon fill="black" stroke="black" points="891.86,-329.02 899.7,-321.9 889.13,-322.58 891.86,-329.02"/>
<text text-anchor="middle" x="851.75" y="-349.8" font-family="Times,serif" font-size="14.00">समुच्चय_द्योतकः</text>
</g>
</g>
</svg>
