<?xml version="1.0" encoding="UTF-8" standalone="no"?>
<!DOCTYPE svg PUBLIC "-//W3C//DTD SVG 1.1//EN"
 "http://www.w3.org/Graphics/SVG/1.1/DTD/svg11.dtd">
<!-- Generated by graphviz version 2.50.0 (20211204.2007)
 -->
<!-- Title: G Pages: 1 -->
<svg width="522pt" height="218pt"
 viewBox="0.00 0.00 522.30 218.00" xmlns="http://www.w3.org/2000/svg" xmlns:xlink="http://www.w3.org/1999/xlink">
<g id="graph0" class="graph" transform="scale(1 1) rotate(0) translate(4 214)">
<title>G</title>
<polygon fill="#fffacd" stroke="transparent" points="-4,4 -4,-214 518.3,-214 518.3,4 -4,4"/>
<!-- Node1_1 -->
<g id="node1" class="node">
<title>Node1_1</title>
<ellipse fill="#93db70" stroke="#93db70" cx="40.3" cy="-105" rx="40.09" ry="18"/>
<text text-anchor="middle" x="40.3" y="-101.3" font-family="Times,serif" font-size="14.00">ताम्(1.1)</text>
</g>
<!-- Node2_1 -->
<g id="node2" class="node">
<title>Node2_1</title>
<ellipse fill="#ff1975" stroke="#ff1975" cx="238.3" cy="-192" rx="45.49" ry="18"/>
<text text-anchor="middle" x="238.3" y="-188.3" font-family="Times,serif" font-size="14.00">उवाच(2.1)</text>
</g>
<!-- Node1_1&#45;&gt;Node2_1 -->
<g id="edge1" class="edge">
<title>Node1_1&#45;&gt;Node2_1</title>
<path fill="none" stroke="black" d="M77.91,-122.15C115.86,-138.44 173.69,-163.26 208.55,-178.23"/>
<polygon fill="black" stroke="black" points="78.81,-118.73 68.25,-118 76.05,-125.16 78.81,-118.73"/>
<text text-anchor="middle" x="160.3" y="-144.8" font-family="Times,serif" font-size="14.00">कर्म</text>
</g>
<!-- Node4_1 -->
<g id="node3" class="node">
<title>Node4_1</title>
<ellipse fill="#00bfff" stroke="#00bfff" cx="139.3" cy="-105" rx="40.09" ry="18"/>
<text text-anchor="middle" x="139.3" y="-101.3" font-family="Times,serif" font-size="14.00">रामः(4.1)</text>
</g>
<!-- Node4_1&#45;&gt;Node2_1 -->
<g id="edge3" class="edge">
<title>Node4_1&#45;&gt;Node2_1</title>
<path fill="none" stroke="black" d="M165.02,-128.08C182.29,-142.91 204.63,-162.09 220.08,-175.36"/>
<polygon fill="black" stroke="black" points="166.86,-125.06 157,-121.2 162.3,-130.37 166.86,-125.06"/>
<text text-anchor="middle" x="206.3" y="-144.8" font-family="Times,serif" font-size="14.00">कर्ता</text>
</g>
<!-- Node3_1 -->
<g id="node4" class="node">
<title>Node3_1</title>
<ellipse fill="#ff99ff" stroke="#ff99ff" cx="238.3" cy="-105" rx="40.09" ry="18"/>
<text text-anchor="middle" x="238.3" y="-101.3" font-family="Times,serif" font-size="14.00">ततः(3.1)</text>
</g>
<!-- Node3_1&#45;&gt;Node2_1 -->
<g id="edge2" class="edge">
<title>Node3_1&#45;&gt;Node2_1</title>
<path fill="none" stroke="black" d="M238.3,-133.27C238.3,-146.58 238.3,-162.19 238.3,-173.82"/>
<polygon fill="black" stroke="black" points="241.8,-133.2 238.3,-123.2 234.8,-133.2 241.8,-133.2"/>
<text text-anchor="middle" x="256.8" y="-144.8" font-family="Times,serif" font-size="14.00">सम्बन्धः</text>
</g>
<!-- Node5_1 -->
<g id="node5" class="node">
<title>Node5_1</title>
<ellipse fill="#93db70" stroke="#93db70" cx="343.3" cy="-105" rx="46.59" ry="18"/>
<text text-anchor="middle" x="343.3" y="-101.3" font-family="Times,serif" font-size="14.00">परुषम्(5.1)</text>
</g>
<!-- Node5_1&#45;&gt;Node2_1 -->
<g id="edge4" class="edge">
<title>Node5_1&#45;&gt;Node2_1</title>
<path fill="none" stroke="black" d="M316.02,-128.08C297.63,-142.97 273.83,-162.24 257.43,-175.51"/>
<polygon fill="black" stroke="black" points="318.47,-130.6 324.04,-121.59 314.06,-125.16 318.47,-130.6"/>
<text text-anchor="middle" x="305.3" y="-144.8" font-family="Times,serif" font-size="14.00">कर्म</text>
</g>
<!-- Node6_1 -->
<g id="node6" class="node">
<title>Node6_1</title>
<ellipse fill="#ffff00" stroke="#ffff00" cx="453.3" cy="-18" rx="40.89" ry="18"/>
<text text-anchor="middle" x="453.3" y="-14.3" font-family="Times,serif" font-size="14.00">जन&#45;(6.1)</text>
</g>
<!-- Node6_2 -->
<g id="node7" class="node">
<title>Node6_2</title>
<ellipse fill="#c6e2eb" stroke="#c6e2eb" cx="453.3" cy="-105" rx="45.49" ry="18"/>
<text text-anchor="middle" x="453.3" y="-101.3" font-family="Times,serif" font-size="14.00">संसदि(6.2)</text>
</g>
<!-- Node6_1&#45;&gt;Node6_2 -->
<g id="edge5" class="edge">
<title>Node6_1&#45;&gt;Node6_2</title>
<path fill="none" stroke="black" d="M453.3,-46.27C453.3,-59.58 453.3,-75.19 453.3,-86.82"/>
<polygon fill="black" stroke="black" points="456.8,-46.2 453.3,-36.2 449.8,-46.2 456.8,-46.2"/>
<text text-anchor="middle" x="483.8" y="-57.8" font-family="Times,serif" font-size="14.00">षष्ठी&#45;तत्पुरुषः</text>
</g>
<!-- Node6_2&#45;&gt;Node2_1 -->
<g id="edge6" class="edge">
<title>Node6_2&#45;&gt;Node2_1</title>
<path fill="none" stroke="black" d="M412.72,-122.04C371.03,-138.53 307.03,-163.83 269.25,-178.76"/>
<polygon fill="black" stroke="black" points="414.02,-125.29 422.03,-118.36 411.45,-118.78 414.02,-125.29"/>
<text text-anchor="middle" x="385.8" y="-144.8" font-family="Times,serif" font-size="14.00">अधिकरणम्</text>
</g>
</g>
</svg>
