<?xml version="1.0" encoding="UTF-8" standalone="no"?>
<!DOCTYPE svg PUBLIC "-//W3C//DTD SVG 1.1//EN"
 "http://www.w3.org/Graphics/SVG/1.1/DTD/svg11.dtd">
<!-- Generated by graphviz version 2.50.0 (20211204.2007)
 -->
<!-- Title: G Pages: 1 -->
<svg width="375pt" height="566pt"
 viewBox="0.00 0.00 374.75 566.00" xmlns="http://www.w3.org/2000/svg" xmlns:xlink="http://www.w3.org/1999/xlink">
<g id="graph0" class="graph" transform="scale(1 1) rotate(0) translate(4 562)">
<title>G</title>
<polygon fill="#fffacd" stroke="transparent" points="-4,4 -4,-562 370.75,-562 370.75,4 -4,4"/>
<g id="clust1" class="cluster">
<title>cluster_1</title>
<polygon fill="#fffacd" stroke="black" points="106.75,-340 106.75,-479 230.75,-479 230.75,-340 106.75,-340"/>
</g>
<!-- Node8_1 -->
<g id="node1" class="node">
<title>Node8_1</title>
<ellipse fill="#00bfff" stroke="#00bfff" cx="168.75" cy="-366" rx="53.89" ry="18"/>
<text text-anchor="middle" x="168.75" y="-362.3" font-family="Times,serif" font-size="14.00">सम्प्रहृष्टः(8.1)</text>
</g>
<!-- Node7_1 -->
<g id="node2" class="node">
<title>Node7_1</title>
<ellipse fill="#00bfff" stroke="#00bfff" cx="155.75" cy="-453" rx="40.09" ry="18"/>
<text text-anchor="middle" x="155.75" y="-449.3" font-family="Times,serif" font-size="14.00">रामः(7.1)</text>
</g>
<!-- Node8_1&#45;&gt;Node7_1 -->
<g id="edge9" class="edge">
<title>Node8_1&#45;&gt;Node7_1</title>
<path fill="none" stroke="black" d="M164.58,-394.27C162.54,-407.58 160.15,-423.19 158.37,-434.82"/>
<polygon fill="black" stroke="black" points="168.06,-394.62 166.11,-384.2 161.14,-393.56 168.06,-394.62"/>
<text text-anchor="middle" x="186.25" y="-405.8" font-family="Times,serif" font-size="14.00">विशेषणम्</text>
</g>
<!-- Node6_1 -->
<g id="node4" class="node">
<title>Node6_1</title>
<ellipse fill="#ff1975" stroke="#ff1975" cx="86.75" cy="-540" rx="40.09" ry="18"/>
<text text-anchor="middle" x="86.75" y="-536.3" font-family="Times,serif" font-size="14.00">बभौ(6.1)</text>
</g>
<!-- Node7_1&#45;&gt;Node6_1 -->
<g id="edge8" class="edge">
<title>Node7_1&#45;&gt;Node6_1</title>
<path fill="none" stroke="black" d="M135.97,-478.36C124.35,-492.68 109.98,-510.38 99.77,-522.95"/>
<polygon fill="black" stroke="black" points="138.86,-480.36 142.44,-470.39 133.42,-475.95 138.86,-480.36"/>
<text text-anchor="middle" x="135.75" y="-492.8" font-family="Times,serif" font-size="14.00">कर्ता</text>
</g>
<!-- Node1_1 -->
<g id="node3" class="node">
<title>Node1_1</title>
<ellipse fill="#ff99ff" stroke="#ff99ff" cx="56.75" cy="-453" rx="40.09" ry="18"/>
<text text-anchor="middle" x="56.75" y="-449.3" font-family="Times,serif" font-size="14.00">ततः(1.1)</text>
</g>
<!-- Node1_1&#45;&gt;Node6_1 -->
<g id="edge1" class="edge">
<title>Node1_1&#45;&gt;Node6_1</title>
<path fill="none" stroke="black" d="M66.25,-480.94C71.02,-494.43 76.64,-510.36 80.79,-522.11"/>
<polygon fill="black" stroke="black" points="69.45,-479.47 62.82,-471.2 62.84,-481.8 69.45,-479.47"/>
<text text-anchor="middle" x="92.25" y="-492.8" font-family="Times,serif" font-size="14.00">सम्बन्धः</text>
</g>
<!-- Node2_1 -->
<g id="node5" class="node">
<title>Node2_1</title>
<ellipse fill="#ffff00" stroke="#ffff00" cx="164.75" cy="-105" rx="46.59" ry="18"/>
<text text-anchor="middle" x="164.75" y="-101.3" font-family="Times,serif" font-size="14.00">अग्नि&#45;(2.1)</text>
</g>
<!-- Node2_2 -->
<g id="node6" class="node">
<title>Node2_2</title>
<ellipse fill="#b4ffb4" stroke="#b4ffb4" cx="165.75" cy="-192" rx="50.09" ry="18"/>
<text text-anchor="middle" x="165.75" y="-188.3" font-family="Times,serif" font-size="14.00">वचनात्(2.2)</text>
</g>
<!-- Node2_1&#45;&gt;Node2_2 -->
<g id="edge2" class="edge">
<title>Node2_1&#45;&gt;Node2_2</title>
<path fill="none" stroke="black" d="M165.07,-133.27C165.22,-146.58 165.41,-162.19 165.54,-173.82"/>
<polygon fill="black" stroke="black" points="168.57,-133.16 164.95,-123.2 161.57,-133.24 168.57,-133.16"/>
<text text-anchor="middle" x="195.25" y="-144.8" font-family="Times,serif" font-size="14.00">षष्ठी&#45;तत्पुरुषः</text>
</g>
<!-- Node4_1 -->
<g id="node7" class="node">
<title>Node4_1</title>
<ellipse fill="#ff99ff" stroke="#ff99ff" cx="168.75" cy="-279" rx="46.29" ry="18"/>
<text text-anchor="middle" x="168.75" y="-275.3" font-family="Times,serif" font-size="14.00">ज्ञात्वा(4.1)</text>
</g>
<!-- Node2_2&#45;&gt;Node4_1 -->
<g id="edge3" class="edge">
<title>Node2_2&#45;&gt;Node4_1</title>
<path fill="none" stroke="black" d="M166.71,-220.27C167.18,-233.58 167.73,-249.19 168.14,-260.82"/>
<polygon fill="black" stroke="black" points="170.2,-220.07 166.35,-210.2 163.21,-220.32 170.2,-220.07"/>
<text text-anchor="middle" x="176.25" y="-231.8" font-family="Times,serif" font-size="14.00">हेतुः</text>
</g>
<!-- Node4_1&#45;&gt;Node8_1 -->
<g id="edge5" class="edge">
<title>Node4_1&#45;&gt;Node8_1</title>
<path fill="none" stroke="black" d="M168.75,-307.27C168.75,-320.58 168.75,-336.19 168.75,-347.82"/>
<polygon fill="black" stroke="black" points="172.25,-307.2 168.75,-297.2 165.25,-307.2 172.25,-307.2"/>
<text text-anchor="middle" x="190.25" y="-318.8" font-family="Times,serif" font-size="14.00">पूर्वकालः</text>
</g>
<!-- Node3_1 -->
<g id="node8" class="node">
<title>Node3_1</title>
<ellipse fill="#93db70" stroke="#93db70" cx="283.75" cy="-192" rx="48.19" ry="18"/>
<text text-anchor="middle" x="283.75" y="-188.3" font-family="Times,serif" font-size="14.00">सीताम्(3.1)</text>
</g>
<!-- Node3_1&#45;&gt;Node4_1 -->
<g id="edge4" class="edge">
<title>Node3_1&#45;&gt;Node4_1</title>
<path fill="none" stroke="black" d="M254.63,-214.52C234.28,-229.56 207.6,-249.28 189.42,-262.72"/>
<polygon fill="black" stroke="black" points="256.96,-217.15 262.92,-208.39 252.8,-211.52 256.96,-217.15"/>
<text text-anchor="middle" x="241.75" y="-231.8" font-family="Times,serif" font-size="14.00">कर्म</text>
</g>
<!-- Node5_1 -->
<g id="node9" class="node">
<title>Node5_1</title>
<ellipse fill="#ffff00" stroke="#ffff00" cx="285.75" cy="-18" rx="48.19" ry="18"/>
<text text-anchor="middle" x="285.75" y="-14.3" font-family="Times,serif" font-size="14.00">विगत&#45;(5.1)</text>
</g>
<!-- Node5_2 -->
<g id="node10" class="node">
<title>Node5_2</title>
<ellipse fill="#93db70" stroke="#93db70" cx="285.75" cy="-105" rx="55.79" ry="18"/>
<text text-anchor="middle" x="285.75" y="-101.3" font-family="Times,serif" font-size="14.00">कल्मषाम्(5.2)</text>
</g>
<!-- Node5_1&#45;&gt;Node5_2 -->
<g id="edge6" class="edge">
<title>Node5_1&#45;&gt;Node5_2</title>
<path fill="none" stroke="black" d="M285.75,-46.27C285.75,-59.58 285.75,-75.19 285.75,-86.82"/>
<polygon fill="black" stroke="black" points="289.25,-46.2 285.75,-36.2 282.25,-46.2 289.25,-46.2"/>
<text text-anchor="middle" x="305.75" y="-57.8" font-family="Times,serif" font-size="14.00">बहुव्रीहिः</text>
</g>
<!-- Node5_2&#45;&gt;Node3_1 -->
<g id="edge7" class="edge">
<title>Node5_2&#45;&gt;Node3_1</title>
<path fill="none" stroke="black" d="M285.1,-133.27C284.79,-146.58 284.42,-162.19 284.15,-173.82"/>
<polygon fill="black" stroke="black" points="288.6,-133.28 285.34,-123.2 281.61,-133.12 288.6,-133.28"/>
<text text-anchor="middle" x="325.75" y="-144.8" font-family="Times,serif" font-size="14.00">विधेय_विशेषणम्</text>
</g>
<!-- Node9_1 -->
<g id="node11" class="node">
<title>Node9_1</title>
<ellipse fill="#00bfff" stroke="#00bfff" cx="48.75" cy="-366" rx="48.19" ry="18"/>
<text text-anchor="middle" x="48.75" y="-362.3" font-family="Times,serif" font-size="14.00">पूजितः(9.1)</text>
</g>
<!-- Node9_1&#45;&gt;Node7_1 -->
<g id="edge10" class="edge">
<title>Node9_1&#45;&gt;Node7_1</title>
<path fill="none" stroke="black" d="M58.29,-393.33C62.34,-401.72 67.77,-410.51 74.75,-417 82.48,-424.2 105.42,-433.81 124.91,-441.14"/>
<polygon fill="black" stroke="black" points="61.5,-391.93 54.29,-384.16 55.08,-394.72 61.5,-391.93"/>
<text text-anchor="middle" x="115.75" y="-405.8" font-family="Times,serif" font-size="14.00">विधेय_विशेषणम्</text>
</g>
<!-- Node10_1 -->
<g id="node12" class="node">
<title>Node10_1</title>
<ellipse fill="#ffff00" stroke="#ffff00" cx="48.75" cy="-192" rx="45.49" ry="18"/>
<text text-anchor="middle" x="48.75" y="-188.3" font-family="Times,serif" font-size="14.00">सर्व&#45;(10.1)</text>
</g>
<!-- Node10_2 -->
<g id="node13" class="node">
<title>Node10_2</title>
<ellipse fill="#40e0d0" stroke="#40e0d0" cx="48.75" cy="-279" rx="48.99" ry="18"/>
<text text-anchor="middle" x="48.75" y="-275.3" font-family="Times,serif" font-size="14.00">दैवतैः(10.2)</text>
</g>
<!-- Node10_1&#45;&gt;Node10_2 -->
<g id="edge11" class="edge">
<title>Node10_1&#45;&gt;Node10_2</title>
<path fill="none" stroke="black" d="M48.75,-220.27C48.75,-233.58 48.75,-249.19 48.75,-260.82"/>
<polygon fill="black" stroke="black" points="52.25,-220.2 48.75,-210.2 45.25,-220.2 52.25,-220.2"/>
<text text-anchor="middle" x="72.25" y="-231.8" font-family="Times,serif" font-size="14.00">कर्मधारयः</text>
</g>
<!-- Node10_2&#45;&gt;Node9_1 -->
<g id="edge12" class="edge">
<title>Node10_2&#45;&gt;Node9_1</title>
<path fill="none" stroke="black" d="M48.75,-307.27C48.75,-320.58 48.75,-336.19 48.75,-347.82"/>
<polygon fill="black" stroke="black" points="52.25,-307.2 48.75,-297.2 45.25,-307.2 52.25,-307.2"/>
<text text-anchor="middle" x="59.75" y="-318.8" font-family="Times,serif" font-size="14.00">कर्ता</text>
</g>
</g>
</svg>
