<?xml version="1.0" encoding="UTF-8" standalone="no"?>
<!DOCTYPE svg PUBLIC "-//W3C//DTD SVG 1.1//EN"
 "http://www.w3.org/Graphics/SVG/1.1/DTD/svg11.dtd">
<!-- Generated by graphviz version 2.50.0 (20211204.2007)
 -->
<!-- Title: G Pages: 1 -->
<svg width="427pt" height="305pt"
 viewBox="0.00 0.00 427.04 305.00" xmlns="http://www.w3.org/2000/svg" xmlns:xlink="http://www.w3.org/1999/xlink">
<g id="graph0" class="graph" transform="scale(1 1) rotate(0) translate(4 301)">
<title>G</title>
<polygon fill="#fffacd" stroke="transparent" points="-4,4 -4,-301 423.04,-301 423.04,4 -4,4"/>
<!-- Node1_1 -->
<g id="node1" class="node">
<title>Node1_1</title>
<ellipse fill="#00bfff" stroke="#00bfff" cx="46.15" cy="-192" rx="46.29" ry="18"/>
<text text-anchor="middle" x="46.15" y="-188.3" font-family="Times,serif" font-size="14.00">(रामः)(1.1)</text>
</g>
<!-- Node7_1 -->
<g id="node2" class="node">
<title>Node7_1</title>
<ellipse fill="#ff1975" stroke="#ff1975" cx="244.15" cy="-279" rx="55.79" ry="18"/>
<text text-anchor="middle" x="244.15" y="-275.3" font-family="Times,serif" font-size="14.00">अकारयत्(7.1)</text>
</g>
<!-- Node1_1&#45;&gt;Node7_1 -->
<g id="edge1" class="edge">
<title>Node1_1&#45;&gt;Node7_1</title>
<path fill="none" stroke="black" d="M77.3,-213.38C93.25,-223.23 113.25,-234.68 132.15,-243 154.52,-252.85 180.53,-261.16 201.85,-267.2"/>
<polygon fill="black" stroke="black" points="78.74,-210.16 68.41,-207.81 75.02,-216.09 78.74,-210.16"/>
<text text-anchor="middle" x="162.65" y="-231.8" font-family="Times,serif" font-size="14.00">प्रयोजककर्ता</text>
</g>
<!-- Node2_1 -->
<g id="node3" class="node">
<title>Node2_1</title>
<ellipse fill="#ffff00" stroke="#ffff00" cx="114.15" cy="-105" rx="46.29" ry="18"/>
<text text-anchor="middle" x="114.15" y="-101.3" font-family="Times,serif" font-size="14.00">समुद्र&#45;(2.1)</text>
</g>
<!-- Node2_2 -->
<g id="node4" class="node">
<title>Node2_2</title>
<ellipse fill="#b4ffb4" stroke="#b4ffb4" cx="160.15" cy="-192" rx="50.09" ry="18"/>
<text text-anchor="middle" x="160.15" y="-188.3" font-family="Times,serif" font-size="14.00">वचनात्(2.2)</text>
</g>
<!-- Node2_1&#45;&gt;Node2_2 -->
<g id="edge2" class="edge">
<title>Node2_1&#45;&gt;Node2_2</title>
<path fill="none" stroke="black" d="M115.18,-133.17C116.33,-140.89 118.43,-149.08 122.15,-156 126.13,-163.43 132.32,-170.12 138.54,-175.62"/>
<polygon fill="black" stroke="black" points="118.65,-132.68 114.12,-123.1 111.68,-133.41 118.65,-132.68"/>
<text text-anchor="middle" x="152.65" y="-144.8" font-family="Times,serif" font-size="14.00">षष्ठी&#45;तत्पुरुषः</text>
</g>
<!-- Node2_2&#45;&gt;Node7_1 -->
<g id="edge3" class="edge">
<title>Node2_2&#45;&gt;Node7_1</title>
<path fill="none" stroke="black" d="M183.39,-216.52C197.57,-230.87 215.35,-248.86 228,-261.66"/>
<polygon fill="black" stroke="black" points="185.86,-214.04 176.34,-209.39 180.88,-218.96 185.86,-214.04"/>
<text text-anchor="middle" x="217.65" y="-231.8" font-family="Times,serif" font-size="14.00">हेतुः</text>
</g>
<!-- Node3_1 -->
<g id="node5" class="node">
<title>Node3_1</title>
<ellipse fill="#ff99ff" stroke="#ff99ff" cx="212.15" cy="-105" rx="33.6" ry="18"/>
<text text-anchor="middle" x="212.15" y="-101.3" font-family="Times,serif" font-size="14.00">च(3.1)</text>
</g>
<!-- Node3_1&#45;&gt;Node2_2 -->
<g id="edge4" class="edge">
<title>Node3_1&#45;&gt;Node2_2</title>
<path fill="none" stroke="black" d="M197.88,-131.23C193.27,-139.21 188.07,-148.02 183.15,-156 179.4,-162.06 175.15,-168.61 171.33,-174.39"/>
<polygon fill="black" stroke="black" points="201.03,-132.77 202.97,-122.35 194.96,-129.28 201.03,-132.77"/>
<text text-anchor="middle" x="211.65" y="-144.8" font-family="Times,serif" font-size="14.00">सम्बन्धः</text>
</g>
<!-- Node4_1 -->
<g id="node6" class="node">
<title>Node4_1</title>
<ellipse fill="#ff99ff" stroke="#ff99ff" cx="212.15" cy="-18" rx="37.89" ry="18"/>
<text text-anchor="middle" x="212.15" y="-14.3" font-family="Times,serif" font-size="14.00">एव(4.1)</text>
</g>
<!-- Node4_1&#45;&gt;Node3_1 -->
<g id="edge5" class="edge">
<title>Node4_1&#45;&gt;Node3_1</title>
<path fill="none" stroke="black" d="M212.15,-46.27C212.15,-59.58 212.15,-75.19 212.15,-86.82"/>
<polygon fill="black" stroke="black" points="215.65,-46.2 212.15,-36.2 208.65,-46.2 215.65,-46.2"/>
<text text-anchor="middle" x="230.65" y="-57.8" font-family="Times,serif" font-size="14.00">सम्बन्धः</text>
</g>
<!-- Node5_1 -->
<g id="node7" class="node">
<title>Node5_1</title>
<ellipse fill="#93db70" stroke="#93db70" cx="272.15" cy="-192" rx="43.59" ry="18"/>
<text text-anchor="middle" x="272.15" y="-188.3" font-family="Times,serif" font-size="14.00">नलम्(5.1)</text>
</g>
<!-- Node5_1&#45;&gt;Node7_1 -->
<g id="edge6" class="edge">
<title>Node5_1&#45;&gt;Node7_1</title>
<path fill="none" stroke="black" d="M263.29,-219.87C258.88,-233.27 253.67,-249.08 249.8,-260.82"/>
<polygon fill="black" stroke="black" points="266.68,-220.79 266.48,-210.2 260.03,-218.6 266.68,-220.79"/>
<text text-anchor="middle" x="287.65" y="-231.8" font-family="Times,serif" font-size="14.00">प्रयोज्यकर्ता</text>
</g>
<!-- Node6_1 -->
<g id="node8" class="node">
<title>Node6_1</title>
<ellipse fill="#93db70" stroke="#93db70" cx="376.15" cy="-192" rx="42.79" ry="18"/>
<text text-anchor="middle" x="376.15" y="-188.3" font-family="Times,serif" font-size="14.00">सेतुम्(6.1)</text>
</g>
<!-- Node6_1&#45;&gt;Node7_1 -->
<g id="edge7" class="edge">
<title>Node6_1&#45;&gt;Node7_1</title>
<path fill="none" stroke="black" d="M352.77,-216.19C342.9,-225.24 330.97,-235.28 319.15,-243 306.39,-251.33 291.34,-258.76 278.08,-264.61"/>
<polygon fill="black" stroke="black" points="355.31,-218.61 360.2,-209.21 350.51,-213.51 355.31,-218.61"/>
<text text-anchor="middle" x="348.15" y="-231.8" font-family="Times,serif" font-size="14.00">कर्म</text>
</g>
</g>
</svg>
