<?xml version="1.0" encoding="UTF-8" standalone="no"?>
<!DOCTYPE svg PUBLIC "-//W3C//DTD SVG 1.1//EN"
 "http://www.w3.org/Graphics/SVG/1.1/DTD/svg11.dtd">
<!-- Generated by graphviz version 2.50.0 (20211204.2007)
 -->
<!-- Title: G Pages: 1 -->
<svg width="774pt" height="321pt"
 viewBox="0.00 0.00 774.49 321.00" xmlns="http://www.w3.org/2000/svg" xmlns:xlink="http://www.w3.org/1999/xlink">
<g id="graph0" class="graph" transform="scale(1 1) rotate(0) translate(4 317)">
<title>G</title>
<polygon fill="#fffacd" stroke="transparent" points="-4,4 -4,-317 770.49,-317 770.49,4 -4,4"/>
<g id="clust1" class="cluster">
<title>cluster_1</title>
<polygon fill="#fffacd" stroke="black" points="134,-8 134,-147 242,-147 242,-8 134,-8"/>
</g>
<g id="clust2" class="cluster">
<title>cluster_2</title>
<polygon fill="#fffacd" stroke="black" points="8,-95 8,-234 126,-234 126,-95 8,-95"/>
</g>
<!-- Node4_1 -->
<g id="node1" class="node">
<title>Node4_1</title>
<ellipse fill="#93db70" stroke="#93db70" cx="188" cy="-34" rx="46.29" ry="18"/>
<text text-anchor="middle" x="188" y="-30.3" font-family="Times,serif" font-size="14.00">लङ्काम्(4.1)</text>
</g>
<!-- Node3_1 -->
<g id="node2" class="node">
<title>Node3_1</title>
<ellipse fill="#93db70" stroke="#93db70" cx="188" cy="-121" rx="42.79" ry="18"/>
<text text-anchor="middle" x="188" y="-117.3" font-family="Times,serif" font-size="14.00">पुरीम्(3.1)</text>
</g>
<!-- Node4_1&#45;&gt;Node3_1 -->
<g id="edge4" class="edge">
<title>Node4_1&#45;&gt;Node3_1</title>
<path fill="none" stroke="black" d="M188,-62.27C188,-75.58 188,-91.19 188,-102.82"/>
<polygon fill="black" stroke="black" points="191.5,-62.2 188,-52.2 184.5,-62.2 191.5,-62.2"/>
<text text-anchor="middle" x="211.5" y="-73.8" font-family="Times,serif" font-size="14.00">विशेषणम्</text>
</g>
<!-- Node2_1 -->
<g id="node6" class="node">
<title>Node2_1</title>
<ellipse fill="#ff99ff" stroke="#ff99ff" cx="336" cy="-208" rx="42.49" ry="18"/>
<text text-anchor="middle" x="336" y="-204.3" font-family="Times,serif" font-size="14.00">गत्वा(2.1)</text>
</g>
<!-- Node3_1&#45;&gt;Node2_1 -->
<g id="edge3" class="edge">
<title>Node3_1&#45;&gt;Node2_1</title>
<path fill="none" stroke="black" d="M221.28,-141.11C248.67,-156.85 286.87,-178.79 311.52,-192.94"/>
<polygon fill="black" stroke="black" points="222.85,-137.98 212.44,-136.04 219.37,-144.05 222.85,-137.98"/>
<text text-anchor="middle" x="279" y="-160.8" font-family="Times,serif" font-size="14.00">कर्म</text>
</g>
<!-- Node11_1 -->
<g id="node3" class="node">
<title>Node11_1</title>
<ellipse fill="#93db70" stroke="#93db70" cx="67" cy="-121" rx="47.39" ry="18"/>
<text text-anchor="middle" x="67" y="-117.3" font-family="Times,serif" font-size="14.00">पराम्(11.1)</text>
</g>
<!-- Node12_1 -->
<g id="node4" class="node">
<title>Node12_1</title>
<ellipse fill="#93db70" stroke="#93db70" cx="67" cy="-208" rx="51.19" ry="18"/>
<text text-anchor="middle" x="67" y="-204.3" font-family="Times,serif" font-size="14.00">व्रीडाम्(12.1)</text>
</g>
<!-- Node11_1&#45;&gt;Node12_1 -->
<g id="edge14" class="edge">
<title>Node11_1&#45;&gt;Node12_1</title>
<path fill="none" stroke="black" d="M67,-149.27C67,-162.58 67,-178.19 67,-189.82"/>
<polygon fill="black" stroke="black" points="70.5,-149.2 67,-139.2 63.5,-149.2 70.5,-149.2"/>
<text text-anchor="middle" x="90.5" y="-160.8" font-family="Times,serif" font-size="14.00">विशेषणम्</text>
</g>
<!-- Node13_1 -->
<g id="node7" class="node">
<title>Node13_1</title>
<ellipse fill="#ff1975" stroke="#ff1975" cx="487" cy="-295" rx="58.49" ry="18"/>
<text text-anchor="middle" x="487" y="-291.3" font-family="Times,serif" font-size="14.00">उपागमत्(13.1)</text>
</g>
<!-- Node12_1&#45;&gt;Node13_1 -->
<g id="edge15" class="edge">
<title>Node12_1&#45;&gt;Node13_1</title>
<path fill="none" stroke="black" d="M120.3,-219.79C202.87,-236.5 360.42,-268.38 439.39,-284.36"/>
<polygon fill="black" stroke="black" points="120.86,-216.33 110.37,-217.78 119.47,-223.19 120.86,-216.33"/>
<text text-anchor="middle" x="311" y="-247.8" font-family="Times,serif" font-size="14.00">कर्म</text>
</g>
<!-- Node1_1 -->
<g id="node5" class="node">
<title>Node1_1</title>
<ellipse fill="#40e0d0" stroke="#40e0d0" cx="287" cy="-121" rx="37.09" ry="18"/>
<text text-anchor="middle" x="287" y="-117.3" font-family="Times,serif" font-size="14.00">तेन(1.1)</text>
</g>
<!-- Node1_1&#45;&gt;Node2_1 -->
<g id="edge1" class="edge">
<title>Node1_1&#45;&gt;Node2_1</title>
<path fill="none" stroke="black" d="M301.87,-147.8C309.82,-161.58 319.36,-178.14 326.34,-190.24"/>
<polygon fill="black" stroke="black" points="304.71,-145.71 296.68,-138.79 298.64,-149.2 304.71,-145.71"/>
<text text-anchor="middle" x="330.5" y="-160.8" font-family="Times,serif" font-size="14.00">करणम्</text>
</g>
<!-- Node2_1&#45;&gt;Node13_1 -->
<g id="edge2" class="edge">
<title>Node2_1&#45;&gt;Node13_1</title>
<path fill="none" stroke="black" d="M369.4,-227.8C396.7,-243.17 434.77,-264.6 460.12,-278.87"/>
<polygon fill="black" stroke="black" points="371.03,-224.7 360.6,-222.85 367.59,-230.8 371.03,-224.7"/>
<text text-anchor="middle" x="441.5" y="-247.8" font-family="Times,serif" font-size="14.00">पूर्वकालः</text>
</g>
<!-- Node5_1 -->
<g id="node8" class="node">
<title>Node5_1</title>
<ellipse fill="#ff99ff" stroke="#ff99ff" cx="487" cy="-208" rx="42.49" ry="18"/>
<text text-anchor="middle" x="487" y="-204.3" font-family="Times,serif" font-size="14.00">हत्वा(5.1)</text>
</g>
<!-- Node5_1&#45;&gt;Node13_1 -->
<g id="edge5" class="edge">
<title>Node5_1&#45;&gt;Node13_1</title>
<path fill="none" stroke="black" d="M487,-236.27C487,-249.58 487,-265.19 487,-276.82"/>
<polygon fill="black" stroke="black" points="490.5,-236.2 487,-226.2 483.5,-236.2 490.5,-236.2"/>
<text text-anchor="middle" x="508.5" y="-247.8" font-family="Times,serif" font-size="14.00">पूर्वकालः</text>
</g>
<!-- Node6_1 -->
<g id="node9" class="node">
<title>Node6_1</title>
<ellipse fill="#93db70" stroke="#93db70" cx="502" cy="-121" rx="50.09" ry="18"/>
<text text-anchor="middle" x="502" y="-117.3" font-family="Times,serif" font-size="14.00">रावणम्(6.1)</text>
</g>
<!-- Node6_1&#45;&gt;Node5_1 -->
<g id="edge6" class="edge">
<title>Node6_1&#45;&gt;Node5_1</title>
<path fill="none" stroke="black" d="M490.19,-148.72C489.31,-151.48 488.55,-154.27 488,-157 485.82,-167.72 485.55,-180 485.83,-189.71"/>
<polygon fill="black" stroke="black" points="493.57,-149.66 493.75,-139.07 487.01,-147.24 493.57,-149.66"/>
<text text-anchor="middle" x="497" y="-160.8" font-family="Times,serif" font-size="14.00">कर्म</text>
</g>
<!-- Node7_1 -->
<g id="node10" class="node">
<title>Node7_1</title>
<ellipse fill="#c6e2eb" stroke="#c6e2eb" cx="388" cy="-121" rx="46.29" ry="18"/>
<text text-anchor="middle" x="388" y="-117.3" font-family="Times,serif" font-size="14.00">आहवे(7.1)</text>
</g>
<!-- Node7_1&#45;&gt;Node5_1 -->
<g id="edge7" class="edge">
<title>Node7_1&#45;&gt;Node5_1</title>
<path fill="none" stroke="black" d="M404.47,-146.87C410.87,-155.45 418.67,-164.72 427,-172 436.81,-180.57 449.02,-188.14 459.86,-194.03"/>
<polygon fill="black" stroke="black" points="407.23,-144.72 398.56,-138.63 401.54,-148.8 407.23,-144.72"/>
<text text-anchor="middle" x="454.5" y="-160.8" font-family="Times,serif" font-size="14.00">अधिकरणम्</text>
</g>
<!-- Node8_1 -->
<g id="node11" class="node">
<title>Node8_1</title>
<ellipse fill="#00bfff" stroke="#00bfff" cx="610" cy="-121" rx="40.09" ry="18"/>
<text text-anchor="middle" x="610" y="-117.3" font-family="Times,serif" font-size="14.00">रामः(8.1)</text>
</g>
<!-- Node8_1&#45;&gt;Node2_1 -->
<g id="edge11" class="edge">
<title>Node8_1&#45;&gt;Node2_1</title>
<path fill="none" stroke="black" stroke-dasharray="1,5" d="M576.7,-140.11C571.52,-142.6 566.17,-144.99 561,-147 545.53,-153.03 539.81,-149.49 525,-157 515.41,-161.87 515.75,-167.46 506,-172 494.18,-177.5 420.7,-191.55 374.3,-200.08"/>
<polygon fill="black" stroke="black" points="578.39,-143.18 585.77,-135.58 575.26,-136.92 578.39,-143.18"/>
<text text-anchor="middle" x="536" y="-160.8" font-family="Times,serif" font-size="14.00">कर्ता</text>
</g>
<!-- Node8_1&#45;&gt;Node13_1 -->
<g id="edge8" class="edge">
<title>Node8_1&#45;&gt;Node13_1</title>
<path fill="none" stroke="black" d="M603.59,-149.07C601.34,-156.67 598.48,-164.82 595,-172 574.4,-214.49 566.91,-225.13 534,-259 527.19,-266 518.88,-272.68 511.15,-278.28"/>
<polygon fill="black" stroke="black" points="607.04,-149.74 606.3,-139.17 600.29,-147.9 607.04,-149.74"/>
<text text-anchor="middle" x="596" y="-204.3" font-family="Times,serif" font-size="14.00">कर्ता</text>
</g>
<!-- Node8_1&#45;&gt;Node5_1 -->
<g id="edge10" class="edge">
<title>Node8_1&#45;&gt;Node5_1</title>
<path fill="none" stroke="black" stroke-dasharray="1,5" d="M585.43,-144.75C575.16,-153.74 562.88,-163.84 551,-172 539.31,-180.03 525.6,-187.73 513.87,-193.86"/>
<polygon fill="black" stroke="black" points="588.05,-147.11 593.18,-137.85 583.39,-141.88 588.05,-147.11"/>
<text text-anchor="middle" x="580" y="-160.8" font-family="Times,serif" font-size="14.00">कर्ता</text>
</g>
<!-- Node10_1 -->
<g id="node12" class="node">
<title>Node10_1</title>
<ellipse fill="#ff99ff" stroke="#ff99ff" cx="708" cy="-208" rx="58.49" ry="18"/>
<text text-anchor="middle" x="708" y="-204.3" font-family="Times,serif" font-size="14.00">अनुप्राप्य(10.1)</text>
</g>
<!-- Node8_1&#45;&gt;Node10_1 -->
<g id="edge9" class="edge">
<title>Node8_1&#45;&gt;Node10_1</title>
<path fill="none" stroke="black" stroke-dasharray="1,5" d="M635.77,-144.35C652.52,-158.88 673.97,-177.49 689.14,-190.64"/>
<polygon fill="black" stroke="black" points="637.82,-141.5 627.97,-137.59 633.24,-146.79 637.82,-141.5"/>
<text text-anchor="middle" x="675" y="-160.8" font-family="Times,serif" font-size="14.00">कर्ता</text>
</g>
<!-- Node10_1&#45;&gt;Node13_1 -->
<g id="edge13" class="edge">
<title>Node10_1&#45;&gt;Node13_1</title>
<path fill="none" stroke="black" d="M677.16,-230.26C661.74,-240.12 642.47,-251.33 624,-259 595.77,-270.72 562.6,-279.32 535.97,-285.06"/>
<polygon fill="black" stroke="black" points="679.3,-233.05 685.76,-224.65 675.47,-227.19 679.3,-233.05"/>
<text text-anchor="middle" x="673.5" y="-247.8" font-family="Times,serif" font-size="14.00">पूर्वकालः</text>
</g>
<!-- Node9_1 -->
<g id="node13" class="node">
<title>Node9_1</title>
<ellipse fill="#93db70" stroke="#93db70" cx="716" cy="-121" rx="48.19" ry="18"/>
<text text-anchor="middle" x="716" y="-117.3" font-family="Times,serif" font-size="14.00">सीताम्(9.1)</text>
</g>
<!-- Node9_1&#45;&gt;Node10_1 -->
<g id="edge12" class="edge">
<title>Node9_1&#45;&gt;Node10_1</title>
<path fill="none" stroke="black" d="M713.43,-149.27C712.18,-162.58 710.71,-178.19 709.62,-189.82"/>
<polygon fill="black" stroke="black" points="716.93,-149.49 714.38,-139.2 709.96,-148.83 716.93,-149.49"/>
<text text-anchor="middle" x="721" y="-160.8" font-family="Times,serif" font-size="14.00">कर्म</text>
</g>
</g>
</svg>
