<svg width="339pt" height="364pt"
 viewBox="0.00 0.00 338.79 364.00" xmlns="http://www.w3.org/2000/svg" xmlns:xlink="http://www.w3.org/1999/xlink">
<g id="graph0" class="graph" transform="scale(1 1) rotate(0) translate(4 360)">
<title>G</title>
<polygon fill="#fffacd" stroke="transparent" points="-4,4 -4,-360 334.79,-360 334.79,4 -4,4"/>
<!-- Node6_1 -->
<style>
 .hidden { display: none; }
 .node { cursor: pointer; }
 </style>
<script>
     function toggleChildren(id) {
      const children = document.getElementById(id);
      if (children.classList.contains('hidden')) {
        children.classList.remove('hidden');
      } else {
        children.classList.add('hidden');
      }
    }
</script>
<g id="children_node1" class="hidden">
    <g class="node" onclick="toggleChildren('children_node1');">

<g id="node1" class="node">
<title>Node6_1</title>
<ellipse fill="#ffff00" stroke="#ffff00" cx="41.79" cy="-18" rx="27" ry="18"/>
<text text-anchor="middle" x="41.79" y="-14.3" font-family="Times,serif" font-size="14.00">पति&#45;</text>
</g>
<!-- Node6_2 -->
<g id="node2" class="node">
<title>Node6_2</title>
<ellipse fill="#ffff00" stroke="#ffff00" cx="131.79" cy="-18" rx="27" ry="18"/>
<text text-anchor="middle" x="131.79" y="-14.3" font-family="Times,serif" font-size="14.00">व्रताः</text>
</g>
<!-- Node6_1&#45;&gt;Node6_2 -->
<!-- Node6_2_1 -->
<g id="node3" class="node">
<title>Node6_2_1</title>
<ellipse fill="#ffff00" stroke="#ffff00" cx="85.79" cy="-91" rx="85.59" ry="18"/>
<text text-anchor="middle" x="85.79" y="-87.3" font-family="Times,serif" font-size="14.00">&lt;पति&#45;&#45;व्रताः&gt;(बहुव्रीहिः)</text>
</g>
<!-- Node6_1&#45;&gt;Node6_2_1 -->
<g id="edge2" class="edge">
<title>Node6_1&#45;&gt;Node6_2_1</title>
<path fill="none" stroke="black" d="M57.21,-43.88C63.17,-53.49 69.84,-64.25 75.23,-72.96"/>
<polygon fill="black" stroke="black" points="60.02,-41.77 51.78,-35.11 54.07,-45.45 60.02,-41.77"/>
</g>
<!-- Node6_2&#45;&gt;Node6_2_1 -->
<g id="edge1" class="edge">
<title>Node6_2&#45;&gt;Node6_2_1</title>
<path fill="none" stroke="black" d="M116.05,-43.3C109.71,-53.09 102.54,-64.15 96.78,-73.05"/>
<polygon fill="black" stroke="black" points="119.08,-45.05 121.58,-34.76 113.21,-41.25 119.08,-45.05"/>
</g>
<!-- Node6_2_1&#45;&gt;Node6_2_1c -->
<g id="edge4" class="edge">
<title>Node6_2_1&#45;&gt;Node6_2_1c</title>
<path fill="none" stroke="black" d="M85.79,-119.25C85.79,-128.23 85.79,-137.97 85.79,-145.97"/>
<polygon fill="black" stroke="black" points="89.29,-119.19 85.79,-109.19 82.29,-119.19 89.29,-119.19"/>
</g>
</g>
</g>
<!-- Node6_2_1c -->
<g class="node4" onclick="toggleChildren('children_node1');">
<title>Node6_2_1c</title>
<ellipse fill="#00bfff" stroke="#00bfff" cx="85.79" cy="-164" rx="53.89" ry="18"/>
<text text-anchor="middle" x="85.79" y="-160.3" font-family="Times,serif" font-size="14.00">पति&#45;&#45;व्रताः(6)</text>
</g>
<!-- Node1_1 -->
<g id="node5" class="node">
<title>Node1_1</title>
<ellipse fill="#00bfff" stroke="#00bfff" cx="184.79" cy="-251" rx="36" ry="18"/>
<text text-anchor="middle" x="184.79" y="-247.3" font-family="Times,serif" font-size="14.00">नार्यः(1)</text>
</g>
<!-- Node6_2_1c&#45;&gt;Node1_1 -->
<g id="edge5" class="edge">
<title>Node6_2_1c&#45;&gt;Node1_1</title>
<path fill="none" stroke="black" d="M107.07,-189.13C115.09,-197.68 124.52,-207.13 133.79,-215 142.96,-222.78 153.87,-230.45 163.24,-236.62"/>
<polygon fill="black" stroke="black" points="109.49,-186.59 100.14,-181.6 104.33,-191.33 109.49,-186.59"/>
<text text-anchor="middle" x="157.29" y="-203.8" font-family="Times,serif" font-size="14.00">विशेषणम्</text>
</g>
<!-- Node5_1 -->
<g id="node6" class="node">
<title>Node5_1</title>
<ellipse fill="#ff1975" stroke="#ff1975" cx="231.79" cy="-338" rx="50.89" ry="18"/>
<text text-anchor="middle" x="231.79" y="-334.3" font-family="Times,serif" font-size="14.00">भविष्यन्ति(5)</text>
</g>
<!-- Node1_1&#45;&gt;Node5_1 -->
<g id="edge6" class="edge">
<title>Node1_1&#45;&gt;Node5_1</title>
<path fill="none" stroke="black" d="M199.06,-277.8C206.68,-291.58 215.84,-308.14 222.53,-320.24"/>
<polygon fill="black" stroke="black" points="201.98,-275.85 194.08,-268.79 195.85,-279.24 201.98,-275.85"/>
<text text-anchor="middle" x="221.79" y="-290.8" font-family="Times,serif" font-size="14.00">कर्ता</text>
</g>
<!-- Node2_1 -->
<g id="node7" class="node">
<title>Node2_1</title>
<ellipse fill="#ff99ff" stroke="#ff99ff" cx="184.79" cy="-164" rx="27" ry="18"/>
<text text-anchor="middle" x="184.79" y="-160.3" font-family="Times,serif" font-size="14.00">च(2)</text>
</g>
<!-- Node2_1&#45;&gt;Node1_1 -->
<g id="edge7" class="edge">
<title>Node2_1&#45;&gt;Node1_1</title>
<path fill="none" stroke="black" d="M184.79,-192.27C184.79,-205.58 184.79,-221.19 184.79,-232.82"/>
<polygon fill="black" stroke="black" points="188.29,-192.2 184.79,-182.2 181.29,-192.2 188.29,-192.2"/>
<text text-anchor="middle" x="203.29" y="-203.8" font-family="Times,serif" font-size="14.00">सम्बन्धः</text>
</g>
<!-- Node3_1 -->
<g id="node8" class="node">
<title>Node3_1</title>
<ellipse fill="#00bfff" stroke="#00bfff" cx="279.79" cy="-164" rx="50.09" ry="18"/>
<text text-anchor="middle" x="279.79" y="-160.3" font-family="Times,serif" font-size="14.00">अविधवाः(3)</text>
</g>
<!-- Node3_1&#45;&gt;Node1_1 -->
<g id="edge8" class="edge">
<title>Node3_1&#45;&gt;Node1_1</title>
<path fill="none" stroke="black" d="M255.13,-188.22C245.99,-196.73 235.49,-206.38 225.79,-215 218.24,-221.72 209.76,-228.99 202.48,-235.17"/>
<polygon fill="black" stroke="black" points="257.53,-190.78 262.45,-181.39 252.75,-185.66 257.53,-190.78"/>
<text text-anchor="middle" x="282.79" y="-203.8" font-family="Times,serif" font-size="14.00">विधेय_विशेषणम्</text>
</g>
<!-- Node6_2_1c -->
<g class="node4" onclick="toggleChildren('children_node1');">
<title>Node6_2_1c</title>
<ellipse fill="#00bfff" stroke="#00bfff" cx="85.79" cy="-164" rx="53.89" ry="18"/>
<text text-anchor="middle" x="85.79" y="-160.3" font-family="Times,serif" font-size="14.00">पति&#45;&#45;व्रताः(6)</text>
</g>
<!-- Node4_1 -->
<g id="node9" class="node">
<title>Node4_1</title>
<ellipse fill="#93db70" stroke="#93db70" cx="278.79" cy="-251" rx="40.09" ry="18"/>
<text text-anchor="middle" x="278.79" y="-247.3" font-family="Times,serif" font-size="14.00">नित्यम्(4)</text>
</g>
<!-- Node4_1&#45;&gt;Node5_1 -->
<g id="edge9" class="edge">
<title>Node4_1&#45;&gt;Node5_1</title>
<path fill="none" stroke="black" d="M264.53,-277.8C256.91,-291.58 247.75,-308.14 241.06,-320.24"/>
<polygon fill="black" stroke="black" points="267.73,-279.24 269.51,-268.79 261.6,-275.85 267.73,-279.24"/>
<text text-anchor="middle" x="294.29" y="-290.8" font-family="Times,serif" font-size="14.00">क्रियाविशेषणम्</text>
</g>
</g>
</svg>
