<?xml version="1.0" encoding="UTF-8" standalone="no"?>
<!DOCTYPE svg PUBLIC "-//W3C//DTD SVG 1.1//EN"
 "http://www.w3.org/Graphics/SVG/1.1/DTD/svg11.dtd">
<!-- Generated by graphviz version 2.50.0 (20211204.2007)
 -->
<!-- Title: G Pages: 1 -->
<svg width="525pt" height="218pt"
 viewBox="0.00 0.00 525.35 218.00" xmlns="http://www.w3.org/2000/svg" xmlns:xlink="http://www.w3.org/1999/xlink">
<g id="graph0" class="graph" transform="scale(1 1) rotate(0) translate(4 214)">
<title>G</title>
<polygon fill="#fffacd" stroke="transparent" points="-4,4 -4,-214 521.35,-214 521.35,4 -4,4"/>
<!-- Node1_1 -->
<g id="node1" class="node">
<title>Node1_1</title>
<ellipse fill="#93db70" stroke="#93db70" cx="243.35" cy="-105" rx="47.39" ry="18"/>
<text text-anchor="middle" x="243.35" y="-101.3" font-family="Times,serif" font-size="14.00">नित्यम्(1.1)</text>
</g>
<!-- Node2_1 -->
<g id="node2" class="node">
<title>Node2_1</title>
<ellipse fill="#00bfff" stroke="#00bfff" cx="190.35" cy="-192" rx="54.69" ry="18"/>
<text text-anchor="middle" x="190.35" y="-188.3" font-family="Times,serif" font-size="14.00">प्रमुदिताः(2.1)</text>
</g>
<!-- Node1_1&#45;&gt;Node2_1 -->
<g id="edge1" class="edge">
<title>Node1_1&#45;&gt;Node2_1</title>
<path fill="none" stroke="black" d="M231.51,-132.27C227.64,-140.09 223.11,-148.56 218.35,-156 214.32,-162.29 209.38,-168.79 204.77,-174.45"/>
<polygon fill="black" stroke="black" points="234.71,-133.68 235.87,-123.15 228.4,-130.66 234.71,-133.68"/>
<text text-anchor="middle" x="263.85" y="-144.8" font-family="Times,serif" font-size="14.00">क्रियाविशेषणम्</text>
</g>
<!-- Node3_1 -->
<g id="node3" class="node">
<title>Node3_1</title>
<ellipse fill="#00bfff" stroke="#00bfff" cx="38.35" cy="-105" rx="38.19" ry="18"/>
<text text-anchor="middle" x="38.35" y="-101.3" font-family="Times,serif" font-size="14.00">सर्वे(3.1)</text>
</g>
<!-- Node3_1&#45;&gt;Node2_1 -->
<g id="edge2" class="edge">
<title>Node3_1&#45;&gt;Node2_1</title>
<path fill="none" stroke="black" d="M65.68,-126.86C78.8,-136.38 94.98,-147.41 110.35,-156 124.9,-164.14 141.72,-171.74 156.17,-177.77"/>
<polygon fill="black" stroke="black" points="67.67,-123.98 57.54,-120.87 63.52,-129.61 67.67,-123.98"/>
<text text-anchor="middle" x="121.35" y="-144.8" font-family="Times,serif" font-size="14.00">कर्ता</text>
</g>
<!-- Node4_1 -->
<g id="node4" class="node">
<title>Node4_1</title>
<ellipse fill="#ff99ff" stroke="#ff99ff" cx="136.35" cy="-105" rx="41.69" ry="18"/>
<text text-anchor="middle" x="136.35" y="-101.3" font-family="Times,serif" font-size="14.00">यथा(4.1)</text>
</g>
<!-- Node4_1&#45;&gt;Node2_1 -->
<g id="edge3" class="edge">
<title>Node4_1&#45;&gt;Node2_1</title>
<path fill="none" stroke="black" d="M134.98,-133.4C135.65,-141.12 137.44,-149.25 141.35,-156 146.17,-164.32 153.85,-171.18 161.72,-176.56"/>
<polygon fill="black" stroke="black" points="138.47,-133.17 134.66,-123.28 131.47,-133.39 138.47,-133.17"/>
<text text-anchor="middle" x="177.85" y="-144.8" font-family="Times,serif" font-size="14.00">क्रियाविशेषणम्</text>
</g>
<!-- Node6_1 -->
<g id="node5" class="node">
<title>Node6_1</title>
<ellipse fill="#ff99ff" stroke="#ff99ff" cx="444.35" cy="-105" rx="40.89" ry="18"/>
<text text-anchor="middle" x="444.35" y="-101.3" font-family="Times,serif" font-size="14.00">तथा(6.1)</text>
</g>
<!-- Node4_1&#45;&gt;Node6_1 -->
<g id="edge4" class="edge">
<title>Node4_1&#45;&gt;Node6_1</title>
<path fill="none" stroke="red" stroke-dasharray="5,2" d="M168.81,-84.88C185.61,-75.63 206.85,-65.69 227.35,-61 290.22,-46.6 363.91,-69.98 407.22,-87.8"/>
<polygon fill="red" stroke="red" points="166.93,-81.92 159.96,-89.91 170.38,-88.01 166.93,-81.92"/>
<polygon fill="red" stroke="red" points="405.93,-91.06 416.5,-91.73 408.66,-84.61 405.93,-91.06"/>
<text text-anchor="middle" x="260.35" y="-57.8" font-family="Times,serif" font-size="14.00">नित्य_सम्बन्धः</text>
</g>
<!-- Node7_1 -->
<g id="node8" class="node">
<title>Node7_1</title>
<ellipse fill="#ff1975" stroke="#ff1975" cx="444.35" cy="-192" rx="63.89" ry="18"/>
<text text-anchor="middle" x="444.35" y="-188.3" font-family="Times,serif" font-size="14.00">(भविष्यन्ति)(7.1)</text>
</g>
<!-- Node6_1&#45;&gt;Node7_1 -->
<g id="edge7" class="edge">
<title>Node6_1&#45;&gt;Node7_1</title>
<path fill="none" stroke="black" d="M444.35,-133.27C444.35,-146.58 444.35,-162.19 444.35,-173.82"/>
<polygon fill="black" stroke="black" points="447.85,-133.2 444.35,-123.2 440.85,-133.2 447.85,-133.2"/>
<text text-anchor="middle" x="480.85" y="-144.8" font-family="Times,serif" font-size="14.00">क्रियाविशेषणम्</text>
</g>
<!-- Node5_1 -->
<g id="node6" class="node">
<title>Node5_1</title>
<ellipse fill="#ffff00" stroke="#ffff00" cx="347.35" cy="-18" rx="42.49" ry="18"/>
<text text-anchor="middle" x="347.35" y="-14.3" font-family="Times,serif" font-size="14.00">कृत&#45;(5.1)</text>
</g>
<!-- Node5_2 -->
<g id="node7" class="node">
<title>Node5_2</title>
<ellipse fill="#c6e2eb" stroke="#c6e2eb" cx="347.35" cy="-105" rx="38.19" ry="18"/>
<text text-anchor="middle" x="347.35" y="-101.3" font-family="Times,serif" font-size="14.00">युगे(5.2)</text>
</g>
<!-- Node5_1&#45;&gt;Node5_2 -->
<g id="edge5" class="edge">
<title>Node5_1&#45;&gt;Node5_2</title>
<path fill="none" stroke="black" d="M347.35,-46.27C347.35,-59.58 347.35,-75.19 347.35,-86.82"/>
<polygon fill="black" stroke="black" points="350.85,-46.2 347.35,-36.2 343.85,-46.2 350.85,-46.2"/>
<text text-anchor="middle" x="370.85" y="-57.8" font-family="Times,serif" font-size="14.00">कर्मधारयः</text>
</g>
<!-- Node5_2&#45;&gt;Node2_1 -->
<g id="edge6" class="edge">
<title>Node5_2&#45;&gt;Node2_1</title>
<path fill="none" stroke="black" d="M330.75,-130.63C323.56,-139.71 314.47,-149.38 304.35,-156 284.33,-169.09 259.17,-177.49 237.59,-182.77"/>
<polygon fill="black" stroke="black" points="333.6,-132.67 336.79,-122.56 327.99,-128.47 333.6,-132.67"/>
<text text-anchor="middle" x="348.85" y="-144.8" font-family="Times,serif" font-size="14.00">अधिकरणम्</text>
</g>
</g>
</svg>
