<svg width="353pt" height="364pt"
 viewBox="0.00 0.00 353.29 364.00" xmlns="http://www.w3.org/2000/svg" xmlns:xlink="http://www.w3.org/1999/xlink">
<g id="graph0" class="graph" transform="scale(1 1) rotate(0) translate(4 360)">
<title>G</title>
<polygon fill="#fffacd" stroke="transparent" points="-4,4 -4,-360 349.29,-360 349.29,4 -4,4"/>
<g id="clust1" class="cluster">
<title>cluster_1</title>
<polygon fill="#fffacd" stroke="black" points="168.29,-138 168.29,-277 272.29,-277 272.29,-138 168.29,-138"/>
</g>
<!-- Node3_1 -->
<style>
 .hidden { display: none; }
 .node { cursor: pointer; }
 </style>
<script>
     function toggleChildren(id) {
      const children = document.getElementById(id);
      if (children.classList.contains('hidden')) {
        children.classList.remove('hidden');
      } else {
        children.classList.add('hidden');
      }
    }
</script>
<g id="children_node1" class="hidden">
    <g class="node" onclick="toggleChildren('children_node1');">

<g id="node1" class="node">
<title>Node3_1</title>
<ellipse fill="#ffff00" stroke="#ffff00" cx="60.29" cy="-18" rx="29.8" ry="18"/>
<text text-anchor="middle" x="60.29" y="-14.3" font-family="Times,serif" font-size="14.00">अग्नि&#45;</text>
</g>
<!-- Node3_2 -->
<g id="node2" class="node">
<title>Node3_2</title>
<ellipse fill="#ffff00" stroke="#ffff00" cx="152.29" cy="-18" rx="27" ry="18"/>
<text text-anchor="middle" x="152.29" y="-14.3" font-family="Times,serif" font-size="14.00">जम्</text>
</g>
<!-- Node3_1&#45;&gt;Node3_2 -->
<!-- Node3_2_1 -->
<g id="node3" class="node">
<title>Node3_2_1</title>
<ellipse fill="#ffff00" stroke="#ffff00" cx="105.29" cy="-91" rx="105.08" ry="18"/>
<text text-anchor="middle" x="105.29" y="-87.3" font-family="Times,serif" font-size="14.00">&lt;अग्नि&#45;&#45;जम्&gt;(उपपद&#45;तत्पुरुषः)</text>
</g>
<!-- Node3_1&#45;&gt;Node3_2_1 -->
<g id="edge2" class="edge">
<title>Node3_1&#45;&gt;Node3_2_1</title>
<path fill="none" stroke="black" d="M75.87,-43.58C82.01,-53.27 88.92,-64.16 94.49,-72.96"/>
<polygon fill="black" stroke="black" points="78.81,-41.68 70.5,-35.11 72.9,-45.43 78.81,-41.68"/>
</g>
<!-- Node3_2&#45;&gt;Node3_2_1 -->
<g id="edge1" class="edge">
<title>Node3_2&#45;&gt;Node3_2_1</title>
<path fill="none" stroke="black" d="M136.21,-43.3C129.72,-53.09 122.4,-64.15 116.51,-73.05"/>
<polygon fill="black" stroke="black" points="139.26,-45.03 141.86,-34.76 133.42,-41.16 139.26,-45.03"/>
</g>
<!-- Node3_2_1&#45;&gt;Node3_2_1c -->
<g id="edge4" class="edge">
<title>Node3_2_1&#45;&gt;Node3_2_1c</title>
<path fill="none" stroke="black" d="M105.29,-119.25C105.29,-128.23 105.29,-137.97 105.29,-145.97"/>
<polygon fill="black" stroke="black" points="108.79,-119.19 105.29,-109.19 101.79,-119.19 108.79,-119.19"/>
</g>
</g>
</g>
<!-- Node3_2_1c -->
<g class="node4" onclick="toggleChildren('children_node1');">
<title>Node3_2_1c</title>
<ellipse fill="#00bfff" stroke="#00bfff" cx="105.29" cy="-164" rx="53.89" ry="18"/>
<text text-anchor="middle" x="105.29" y="-160.3" font-family="Times,serif" font-size="14.00">अग्नि&#45;&#45;जम्(3)</text>
</g>
<!-- Node4_1 -->
<g id="node6" class="node">
<title>Node4_1</title>
<ellipse fill="#00bfff" stroke="#00bfff" cx="217.29" cy="-251" rx="36.29" ry="18"/>
<text text-anchor="middle" x="217.29" y="-247.3" font-family="Times,serif" font-size="14.00">भयम्(4)</text>
</g>
<!-- Node3_2_1c&#45;&gt;Node4_1 -->
<g id="edge5" class="edge">
<title>Node3_2_1c&#45;&gt;Node4_1</title>
<path fill="none" stroke="black" d="M132.14,-187.31C142.94,-196.11 155.58,-206.19 167.29,-215 176.78,-222.13 187.53,-229.72 196.63,-236.01"/>
<polygon fill="black" stroke="black" points="134.25,-184.51 124.29,-180.88 129.81,-189.93 134.25,-184.51"/>
<text text-anchor="middle" x="190.79" y="-203.8" font-family="Times,serif" font-size="14.00">विशेषणम्</text>
</g>
<!-- Node5_1 -->
<g id="node5" class="node">
<title>Node5_1</title>
<ellipse fill="#00bfff" stroke="#00bfff" cx="220.29" cy="-164" rx="43.59" ry="18"/>
<text text-anchor="middle" x="220.29" y="-160.3" font-family="Times,serif" font-size="14.00">किञ्चित्(5)</text>
</g>
<!-- Node5_1&#45;&gt;Node4_1 -->
<g id="edge9" class="edge">
<title>Node5_1&#45;&gt;Node4_1</title>
<path fill="none" stroke="black" d="M219.33,-192.27C218.86,-205.58 218.31,-221.19 217.9,-232.82"/>
<polygon fill="black" stroke="black" points="222.83,-192.32 219.68,-182.2 215.83,-192.07 222.83,-192.32"/>
<text text-anchor="middle" x="241.79" y="-203.8" font-family="Times,serif" font-size="14.00">विशेषणम्</text>
</g>
<!-- Node6_1 -->
<g id="node8" class="node">
<title>Node6_1</title>
<ellipse fill="#ff1975" stroke="#ff1975" cx="262.29" cy="-338" rx="54.69" ry="18"/>
<text text-anchor="middle" x="262.29" y="-334.3" font-family="Times,serif" font-size="14.00">(भविष्यति)(6)</text>
</g>
<!-- Node4_1&#45;&gt;Node6_1 -->
<g id="edge8" class="edge">
<title>Node4_1&#45;&gt;Node6_1</title>
<path fill="none" stroke="black" d="M230.92,-277.74C238.16,-291.42 246.86,-307.86 253.26,-319.95"/>
<polygon fill="black" stroke="black" points="233.95,-275.99 226.18,-268.79 227.77,-279.27 233.95,-275.99"/>
<text text-anchor="middle" x="253.29" y="-290.8" font-family="Times,serif" font-size="14.00">कर्ता</text>
</g>
<!-- Node1_1 -->
<g id="node7" class="node">
<title>Node1_1</title>
<ellipse fill="#ff99ff" stroke="#ff99ff" cx="308.29" cy="-251" rx="27" ry="18"/>
<text text-anchor="middle" x="308.29" y="-247.3" font-family="Times,serif" font-size="14.00">न(1)</text>
</g>
<!-- Node1_1&#45;&gt;Node6_1 -->
<g id="edge6" class="edge">
<title>Node1_1&#45;&gt;Node6_1</title>
<path fill="none" stroke="black" d="M294.55,-277.39C287.08,-291.19 278.05,-307.87 271.45,-320.08"/>
<polygon fill="black" stroke="black" points="297.74,-278.85 299.42,-268.39 291.58,-275.52 297.74,-278.85"/>
<text text-anchor="middle" x="307.29" y="-290.8" font-family="Times,serif" font-size="14.00">प्रतिषेधः</text>
</g>
<!-- Node3_2_1c -->
<g class="node4" onclick="toggleChildren('children_node1');">
<title>Node3_2_1c</title>
<ellipse fill="#00bfff" stroke="#00bfff" cx="105.29" cy="-164" rx="53.89" ry="18"/>
<text text-anchor="middle" x="105.29" y="-160.3" font-family="Times,serif" font-size="14.00">अग्नि&#45;&#45;जम्(3)</text>
</g>
<!-- Node2_1 -->
<g id="node9" class="node">
<title>Node2_1</title>
<ellipse fill="#ff99ff" stroke="#ff99ff" cx="309.29" cy="-164" rx="27" ry="18"/>
<text text-anchor="middle" x="309.29" y="-160.3" font-family="Times,serif" font-size="14.00">च(2)</text>
</g>
<!-- Node2_1&#45;&gt;Node1_1 -->
<g id="edge7" class="edge">
<title>Node2_1&#45;&gt;Node1_1</title>
<path fill="none" stroke="black" d="M308.97,-192.27C308.81,-205.58 308.63,-221.19 308.49,-232.82"/>
<polygon fill="black" stroke="black" points="312.47,-192.24 309.09,-182.2 305.47,-192.16 312.47,-192.24"/>
<text text-anchor="middle" x="326.79" y="-203.8" font-family="Times,serif" font-size="14.00">सम्बन्धः</text>
</g>
</g>
</svg>
