<svg width="338pt" height="277pt"
 viewBox="0.00 0.00 337.59 277.00" xmlns="http://www.w3.org/2000/svg" xmlns:xlink="http://www.w3.org/1999/xlink">
<g id="graph0" class="graph" transform="scale(1 1) rotate(0) translate(4 273)">
<title>G</title>
<polygon fill="#fffacd" stroke="transparent" points="-4,4 -4,-273 333.59,-273 333.59,4 -4,4"/>
<!-- Node2_1 -->
<style>
 .hidden { display: none; }
 .node { cursor: pointer; }
 </style>
<script>
     function toggleChildren(id) {
      const children = document.getElementById(id);
      if (children.classList.contains('hidden')) {
        children.classList.remove('hidden');
      } else {
        children.classList.add('hidden');
      }
    }
</script>
<g id="children_node1" class="hidden">
    <g class="node" onclick="toggleChildren('children_node1');">

<g id="node1" class="node">
<title>Node2_1</title>
<ellipse fill="#ffff00" stroke="#ffff00" cx="65.14" cy="-18" rx="31.4" ry="18"/>
<text text-anchor="middle" x="65.14" y="-14.3" font-family="Times,serif" font-size="14.00">तस्कर&#45;</text>
</g>
<!-- Node2_2 -->
<g id="node2" class="node">
<title>Node2_2</title>
<ellipse fill="#ffff00" stroke="#ffff00" cx="159.14" cy="-18" rx="27" ry="18"/>
<text text-anchor="middle" x="159.14" y="-14.3" font-family="Times,serif" font-size="14.00">भयम्</text>
</g>
<!-- Node2_1&#45;&gt;Node2_2 -->
<!-- Node2_2_1 -->
<g id="node3" class="node">
<title>Node2_2_1</title>
<ellipse fill="#ffff00" stroke="#ffff00" cx="111.14" cy="-91" rx="111.28" ry="18"/>
<text text-anchor="middle" x="111.14" y="-87.3" font-family="Times,serif" font-size="14.00">&lt;तस्कर&#45;&#45;भयम्&gt;(पञ्चमी&#45;तत्पुरुषः)</text>
</g>
<!-- Node2_1&#45;&gt;Node2_2_1 -->
<g id="edge2" class="edge">
<title>Node2_1&#45;&gt;Node2_2_1</title>
<path fill="none" stroke="black" d="M81.06,-43.58C87.34,-53.27 94.4,-64.16 100.1,-72.96"/>
<polygon fill="black" stroke="black" points="83.95,-41.6 75.58,-35.11 78.08,-45.41 83.95,-41.6"/>
</g>
<!-- Node2_2&#45;&gt;Node2_2_1 -->
<g id="edge1" class="edge">
<title>Node2_2&#45;&gt;Node2_2_1</title>
<path fill="none" stroke="black" d="M142.71,-43.3C136.09,-53.09 128.62,-64.15 122.6,-73.05"/>
<polygon fill="black" stroke="black" points="145.79,-45 148.49,-34.76 139.99,-41.08 145.79,-45"/>
</g>
<!-- Node2_2_1&#45;&gt;Node2_2_1c -->
<g id="edge4" class="edge">
<title>Node2_2_1&#45;&gt;Node2_2_1c</title>
<path fill="none" stroke="black" d="M111.14,-119.25C111.14,-128.23 111.14,-137.97 111.14,-145.97"/>
<polygon fill="black" stroke="black" points="114.64,-119.19 111.14,-109.19 107.64,-119.19 114.64,-119.19"/>
</g>
</g>
</g>
<!-- Node2_2_1c -->
<g class="node4" onclick="toggleChildren('children_node1');">
<title>Node2_2_1c</title>
<ellipse fill="#00bfff" stroke="#00bfff" cx="111.14" cy="-164" rx="59.59" ry="18"/>
<text text-anchor="middle" x="111.14" y="-160.3" font-family="Times,serif" font-size="14.00">तस्कर&#45;&#45;भयम्(2)</text>
</g>
<!-- Node4_1 -->
<g id="node6" class="node">
<title>Node4_1</title>
<ellipse fill="#ff1975" stroke="#ff1975" cx="216.14" cy="-251" rx="38.19" ry="18"/>
<text text-anchor="middle" x="216.14" y="-247.3" font-family="Times,serif" font-size="14.00">अस्ति(4)</text>
</g>
<!-- Node2_2_1c&#45;&gt;Node4_1 -->
<g id="edge5" class="edge">
<title>Node2_2_1c&#45;&gt;Node4_1</title>
<path fill="none" stroke="black" d="M139.23,-187.74C157.78,-202.75 181.54,-221.99 197.72,-235.08"/>
<polygon fill="black" stroke="black" points="141.36,-184.96 131.39,-181.39 136.96,-190.4 141.36,-184.96"/>
<text text-anchor="middle" x="180.14" y="-203.8" font-family="Times,serif" font-size="14.00">कर्ता</text>
</g>
<!-- Node1_1 -->
<g id="node5" class="node">
<title>Node1_1</title>
<ellipse fill="#ff99ff" stroke="#ff99ff" cx="216.14" cy="-164" rx="27" ry="18"/>
<text text-anchor="middle" x="216.14" y="-160.3" font-family="Times,serif" font-size="14.00">न(1)</text>
</g>
<!-- Node1_1&#45;&gt;Node4_1 -->
<g id="edge6" class="edge">
<title>Node1_1&#45;&gt;Node4_1</title>
<path fill="none" stroke="black" d="M216.14,-192.27C216.14,-205.58 216.14,-221.19 216.14,-232.82"/>
<polygon fill="black" stroke="black" points="219.64,-192.2 216.14,-182.2 212.64,-192.2 219.64,-192.2"/>
<text text-anchor="middle" x="236.14" y="-203.8" font-family="Times,serif" font-size="14.00">प्रतिषेधः</text>
</g>
<!-- Node2_2_1c -->
<g class="node4" onclick="toggleChildren('children_node1');">
<title>Node2_2_1c</title>
<ellipse fill="#00bfff" stroke="#00bfff" cx="111.14" cy="-164" rx="59.59" ry="18"/>
<text text-anchor="middle" x="111.14" y="-160.3" font-family="Times,serif" font-size="14.00">तस्कर&#45;&#45;भयम्(2)</text>
</g>
<!-- Node3_1 -->
<g id="node7" class="node">
<title>Node3_1</title>
<ellipse fill="#ff99ff" stroke="#ff99ff" cx="295.14" cy="-164" rx="34.39" ry="18"/>
<text text-anchor="middle" x="295.14" y="-160.3" font-family="Times,serif" font-size="14.00">तथा(3)</text>
</g>
<!-- Node3_1&#45;&gt;Node4_1 -->
<g id="edge7" class="edge">
<title>Node3_1&#45;&gt;Node4_1</title>
<path fill="none" stroke="black" d="M279.55,-190.26C273.9,-198.53 267.18,-207.52 260.14,-215 253.19,-222.39 244.62,-229.56 236.9,-235.46"/>
<polygon fill="black" stroke="black" points="282.63,-191.93 285.21,-181.66 276.78,-188.09 282.63,-191.93"/>
<text text-anchor="middle" x="289.64" y="-203.8" font-family="Times,serif" font-size="14.00">सम्बन्धः</text>
</g>
</g>
</svg>
