<?xml version="1.0" encoding="UTF-8" standalone="no"?>
<!DOCTYPE svg PUBLIC "-//W3C//DTD SVG 1.1//EN"
 "http://www.w3.org/Graphics/SVG/1.1/DTD/svg11.dtd">
<!-- Generated by graphviz version 2.50.0 (20211204.2007)
 -->
<!-- Title: G Pages: 1 -->
<svg width="199pt" height="218pt"
 viewBox="0.00 0.00 198.60 218.00" xmlns="http://www.w3.org/2000/svg" xmlns:xlink="http://www.w3.org/1999/xlink">
<g id="graph0" class="graph" transform="scale(1 1) rotate(0) translate(4 214)">
<title>G</title>
<polygon fill="#fffacd" stroke="transparent" points="-4,4 -4,-214 194.6,-214 194.6,4 -4,4"/>
<!-- Node1_1 -->
<g id="node1" class="node">
<title>Node1_1</title>
<ellipse fill="#00bfff" stroke="#00bfff" cx="41.6" cy="-105" rx="41.69" ry="18"/>
<text text-anchor="middle" x="41.6" y="-101.3" font-family="Times,serif" font-size="14.00">(सः)(1.1)</text>
</g>
<!-- Node3_1 -->
<g id="node2" class="node">
<title>Node3_1</title>
<ellipse fill="#ff1975" stroke="#ff1975" cx="61.6" cy="-192" rx="51.99" ry="18"/>
<text text-anchor="middle" x="61.6" y="-188.3" font-family="Times,serif" font-size="14.00">प्रमुच्यते(3.1)</text>
</g>
<!-- Node1_1&#45;&gt;Node3_1 -->
<g id="edge1" class="edge">
<title>Node1_1&#45;&gt;Node3_1</title>
<path fill="none" stroke="black" d="M48.01,-133.27C51.14,-146.58 54.82,-162.19 57.56,-173.82"/>
<polygon fill="black" stroke="black" points="51.34,-132.13 45.64,-123.2 44.53,-133.74 51.34,-132.13"/>
<text text-anchor="middle" x="62.6" y="-144.8" font-family="Times,serif" font-size="14.00">कर्म</text>
</g>
<!-- Node2_1 -->
<g id="node3" class="node">
<title>Node2_1</title>
<ellipse fill="#ffff00" stroke="#ffff00" cx="143.6" cy="-18" rx="40.89" ry="18"/>
<text text-anchor="middle" x="143.6" y="-14.3" font-family="Times,serif" font-size="14.00">सर्व&#45;(2.1)</text>
</g>
<!-- Node2_2 -->
<g id="node4" class="node">
<title>Node2_2</title>
<ellipse fill="#40e0d0" stroke="#40e0d0" cx="143.6" cy="-105" rx="42.49" ry="18"/>
<text text-anchor="middle" x="143.6" y="-101.3" font-family="Times,serif" font-size="14.00">पापैः(2.2)</text>
</g>
<!-- Node2_1&#45;&gt;Node2_2 -->
<g id="edge2" class="edge">
<title>Node2_1&#45;&gt;Node2_2</title>
<path fill="none" stroke="black" d="M143.6,-46.27C143.6,-59.58 143.6,-75.19 143.6,-86.82"/>
<polygon fill="black" stroke="black" points="147.1,-46.2 143.6,-36.2 140.1,-46.2 147.1,-46.2"/>
<text text-anchor="middle" x="167.1" y="-57.8" font-family="Times,serif" font-size="14.00">कर्मधारयः</text>
</g>
<!-- Node2_2&#45;&gt;Node3_1 -->
<g id="edge3" class="edge">
<title>Node2_2&#45;&gt;Node3_1</title>
<path fill="none" stroke="black" d="M120.87,-129.55C106.98,-143.95 89.58,-161.99 77.23,-174.79"/>
<polygon fill="black" stroke="black" points="123.75,-131.61 128.17,-121.99 118.71,-126.75 123.75,-131.61"/>
<text text-anchor="middle" x="117.6" y="-144.8" font-family="Times,serif" font-size="14.00">कर्ता</text>
</g>
</g>
</svg>
