<svg width="660pt" height="684pt"
 viewBox="0.00 0.00 660.30 684.00" xmlns="http://www.w3.org/2000/svg" xmlns:xlink="http://www.w3.org/1999/xlink">
<g id="graph0" class="graph" transform="scale(1 1) rotate(0) translate(4 680)">
<title>G</title>
<polygon fill="#fffacd" stroke="transparent" points="-4,4 -4,-680 656.3,-680 656.3,4 -4,4"/>
<!-- Node1_1 -->
<style>
 .hidden { display: none; }
 .node { cursor: pointer; }
 </style>
<script>
     function toggleChildren(id) {
      const children = document.getElementById(id);
      if (children.classList.contains('hidden')) {
        children.classList.remove('hidden');
      } else {
        children.classList.add('hidden');
      }
    }
</script>
<g id="children_node1" class="hidden">
    <g class="node" onclick="toggleChildren('children_node1');">

<g id="node1" class="node">
<title>Node1_1</title>
<ellipse fill="#ffff00" stroke="#ffff00" cx="135" cy="-18" rx="27" ry="18"/>
<text text-anchor="middle" x="135" y="-14.3" font-family="Times,serif" font-size="14.00">दश&#45;</text>
</g>
<!-- Node1_2 -->
<g id="node2" class="node">
<title>Node1_2</title>
<ellipse fill="#ffff00" stroke="#ffff00" cx="225" cy="-18" rx="27" ry="18"/>
<text text-anchor="middle" x="225" y="-14.3" font-family="Times,serif" font-size="14.00">वर्ष&#45;</text>
</g>
<!-- Node1_1&#45;&gt;Node1_2 -->
<!-- Node1_2_1 -->
<g id="node3" class="node">
<title>Node1_2_1</title>
<ellipse fill="#ffff00" stroke="#ffff00" cx="179" cy="-91" rx="84.49" ry="18"/>
<text text-anchor="middle" x="179" y="-87.3" font-family="Times,serif" font-size="14.00">&lt;दश&#45;&#45;वर्ष&#45;&gt;(कर्मधारय)</text>
</g>
<!-- Node1_1&#45;&gt;Node1_2_1 -->
<g id="edge2" class="edge">
<title>Node1_1&#45;&gt;Node1_2_1</title>
<path fill="none" stroke="black" d="M150.42,-43.88C156.38,-53.49 163.04,-64.25 168.44,-72.96"/>
<polygon fill="black" stroke="black" points="153.23,-41.77 144.98,-35.11 147.28,-45.45 153.23,-41.77"/>
</g>
<!-- Node1_2&#45;&gt;Node1_2_1 -->
<g id="edge1" class="edge">
<title>Node1_2&#45;&gt;Node1_2_1</title>
<path fill="none" stroke="black" d="M209.26,-43.3C202.91,-53.09 195.75,-64.15 189.98,-73.05"/>
<polygon fill="black" stroke="black" points="212.29,-45.05 214.79,-34.76 206.42,-41.25 212.29,-45.05"/>
</g>
<!-- Node1_3 -->
<g id="node4" class="node">
<title>Node1_3</title>
<ellipse fill="#ffff00" stroke="#ffff00" cx="337" cy="-91" rx="38.19" ry="18"/>
<text text-anchor="middle" x="337" y="-87.3" font-family="Times,serif" font-size="14.00">सहस्राणि</text>
</g>
<!-- Node1_2_1&#45;&gt;Node1_3 -->
<!-- Node1_3_2 -->
<g id="node5" class="node">
<title>Node1_3_2</title>
<ellipse fill="#ffff00" stroke="#ffff00" cx="257" cy="-164" rx="170.87" ry="18"/>
<text text-anchor="middle" x="257" y="-160.3" font-family="Times,serif" font-size="14.00">&lt;&lt;दश&#45;&#45;वर्ष&#45;&gt;(कर्मधारय)&#45;सहस्राणि&gt;(षष्ठी&#45;तत्पुरुषः)</text>
</g>
<!-- Node1_2_1&#45;&gt;Node1_3_2 -->
<g id="edge5" class="edge">
<title>Node1_2_1&#45;&gt;Node1_3_2</title>
<path fill="none" stroke="black" d="M205.1,-115.76C216,-125.68 228.42,-136.99 238.38,-146.05"/>
<polygon fill="black" stroke="black" points="207.24,-112.97 197.48,-108.83 202.52,-118.15 207.24,-112.97"/>
</g>
<!-- Node1_3&#45;&gt;Node1_3_2 -->
<g id="edge4" class="edge">
<title>Node1_3&#45;&gt;Node1_3_2</title>
<path fill="none" stroke="black" d="M312.03,-114.16C300.5,-124.4 287.02,-136.36 276.29,-145.88"/>
<polygon fill="black" stroke="black" points="314.49,-116.66 319.64,-107.41 309.84,-111.43 314.49,-116.66"/>
</g>
<!-- Node1_3_2&#45;&gt;Node1_3_2c -->
<g id="edge7" class="edge">
<title>Node1_3_2&#45;&gt;Node1_3_2c</title>
<path fill="none" stroke="black" d="M257,-192.25C257,-201.23 257,-210.97 257,-218.97"/>
<polygon fill="black" stroke="black" points="260.5,-192.19 257,-182.19 253.5,-192.19 260.5,-192.19"/>
</g>
</g>
</g>
<!-- Node1_3_2c -->
<g class="node6" onclick="toggleChildren('children_node1');">
<title>Node1_3_2c</title>
<ellipse fill="#93db70" stroke="#93db70" cx="257" cy="-237" rx="81.49" ry="18"/>
<text text-anchor="middle" x="257" y="-233.3" font-family="Times,serif" font-size="14.00">दश&#45;&#45;वर्ष&#45;&#45;सहस्राणि(1)</text>
</g>
<!-- Node2_3 -->
<g id="node10" class="node">
<title>Node2_3</title>
<ellipse fill="#ffff00" stroke="#ffff00" cx="257" cy="-324" rx="31.4" ry="18"/>
<text text-anchor="middle" x="257" y="-320.3" font-family="Times,serif" font-size="14.00">शतानि</text>
</g>
<!-- Node1_3_2c&#45;&gt;Node2_3 -->
<g id="edge8" class="edge">
<title>Node1_3_2c&#45;&gt;Node2_3</title>
<path fill="none" stroke="black" d="M257,-265.27C257,-278.58 257,-294.19 257,-305.82"/>
<polygon fill="black" stroke="black" points="260.5,-265.2 257,-255.2 253.5,-265.2 260.5,-265.2"/>
<text text-anchor="middle" x="279.5" y="-276.8" font-family="Times,serif" font-size="14.00">समुच्चितः</text>
</g>
<g id="children_node2" class="hidden">
    <g class="node" onclick="toggleChildren('children_node2');">
<!-- Node2_1 -->
<g id="node7" class="node">
<title>Node2_1</title>
<ellipse fill="#ffff00" stroke="#ffff00" cx="27" cy="-237" rx="27" ry="18"/>
<text text-anchor="middle" x="27" y="-233.3" font-family="Times,serif" font-size="14.00">दश&#45;</text>
</g>
<!-- Node2_2 -->
<g id="node8" class="node">
<title>Node2_2</title>
<ellipse fill="#ffff00" stroke="#ffff00" cx="117" cy="-237" rx="27" ry="18"/>
<text text-anchor="middle" x="117" y="-233.3" font-family="Times,serif" font-size="14.00">वर्ष&#45;</text>
</g>
<!-- Node2_1&#45;&gt;Node2_2 -->
<!-- Node2_2_1 -->
<g id="node9" class="node">
<title>Node2_2_1</title>
<ellipse fill="#ffff00" stroke="#ffff00" cx="103" cy="-324" rx="87.18" ry="18"/>
<text text-anchor="middle" x="103" y="-320.3" font-family="Times,serif" font-size="14.00">&lt;दश&#45;&#45;वर्ष&#45;&gt;(कर्मधारयः)</text>
</g>
<!-- Node2_1&#45;&gt;Node2_2_1 -->
<g id="edge10" class="edge">
<title>Node2_1&#45;&gt;Node2_2_1</title>
<path fill="none" stroke="black" d="M46.93,-260.29C59.72,-274.6 76.08,-292.9 87.83,-306.03"/>
<polygon fill="black" stroke="black" points="49.51,-257.93 40.24,-252.81 44.29,-262.59 49.51,-257.93"/>
</g>
<!-- Node2_2&#45;&gt;Node2_2_1 -->
<g id="edge9" class="edge">
<title>Node2_2&#45;&gt;Node2_2_1</title>
<path fill="none" stroke="black" d="M112.51,-265.27C110.32,-278.58 107.74,-294.19 105.83,-305.82"/>
<polygon fill="black" stroke="black" points="116,-265.64 114.17,-255.2 109.09,-264.5 116,-265.64"/>
</g>
<!-- Node2_2_1&#45;&gt;Node2_3 -->
<!-- Node2_3_2 -->
<g id="node11" class="node">
<title>Node2_3_2</title>
<ellipse fill="#ffff00" stroke="#ffff00" cx="179" cy="-397" rx="166.27" ry="18"/>
<text text-anchor="middle" x="179" y="-393.3" font-family="Times,serif" font-size="14.00">&lt;&lt;दश&#45;&#45;वर्ष&#45;&gt;(कर्मधारयः)&#45;शतानि&gt;(षष्ठी&#45;तत्पुरुषः)</text>
</g>
<!-- Node2_2_1&#45;&gt;Node2_3_2 -->
<g id="edge13" class="edge">
<title>Node2_2_1&#45;&gt;Node2_3_2</title>
<path fill="none" stroke="black" d="M128.43,-348.76C139.05,-358.68 151.15,-369.99 160.85,-379.05"/>
<polygon fill="black" stroke="black" points="130.71,-346.1 121.01,-341.83 125.93,-351.21 130.71,-346.1"/>
</g>
<!-- Node2_3&#45;&gt;Node2_3_2 -->
<g id="edge12" class="edge">
<title>Node2_3&#45;&gt;Node2_3_2</title>
<path fill="none" stroke="black" d="M233.3,-346.57C221.85,-356.99 208.3,-369.33 197.61,-379.06"/>
<polygon fill="black" stroke="black" points="235.8,-349.03 240.84,-339.71 231.09,-343.85 235.8,-349.03"/>
</g>
<!-- Node2_3_2&#45;&gt;Node2_3_2c -->
<g id="edge15" class="edge">
<title>Node2_3_2&#45;&gt;Node2_3_2c</title>
<path fill="none" stroke="black" d="M207.79,-421.31C225.54,-435.67 247.86,-453.75 263.75,-466.61"/>
<polygon fill="black" stroke="black" points="209.97,-418.57 200,-415 205.57,-424.01 209.97,-418.57"/>
</g>
</g>
</g>
<!-- Node2_3_2c -->
<g class="node12" onclick="toggleChildren('children_node2');">
<title>Node2_3_2c</title>
<ellipse fill="#93db70" stroke="#93db70" cx="284" cy="-484" rx="73.39" ry="18"/>
<text text-anchor="middle" x="284" y="-480.3" font-family="Times,serif" font-size="14.00">दश&#45;&#45;वर्ष&#45;&#45;शतानि(2)</text>
</g>
<!-- Node6_1 -->
<g id="node16" class="node">
<title>Node6_1</title>
<ellipse fill="#ff99ff" stroke="#ff99ff" cx="419" cy="-571" rx="50.09" ry="18"/>
<text text-anchor="middle" x="419" y="-567.3" font-family="Times,serif" font-size="14.00">उपासित्वा(6)</text>
</g>
<!-- Node2_3_2c&#45;&gt;Node6_1 -->
<g id="edge16" class="edge">
<title>Node2_3_2c&#45;&gt;Node6_1</title>
<path fill="none" stroke="black" d="M293.01,-511.35C297.05,-519.89 302.61,-528.76 310,-535 327.77,-550 352.07,-558.6 373.21,-563.51"/>
<polygon fill="black" stroke="black" points="296.18,-509.86 289.08,-502 289.73,-512.58 296.18,-509.86"/>
<text text-anchor="middle" x="361.5" y="-523.8" font-family="Times,serif" font-size="14.00">अत्यन्तसंयोग_सम्बन्धः</text>
</g>
<!-- Node3_1 -->
<g id="node13" class="node">
<title>Node3_1</title>
<ellipse fill="#ff99ff" stroke="#ff99ff" cx="390" cy="-397" rx="27" ry="18"/>
<text text-anchor="middle" x="390" y="-393.3" font-family="Times,serif" font-size="14.00">च(3)</text>
</g>
<!-- Node3_1&#45;&gt;Node2_3_2c -->
<g id="edge17" class="edge">
<title>Node3_1&#45;&gt;Node2_3_2c</title>
<path fill="none" stroke="black" d="M365.45,-417.69C346.94,-432.53 321.86,-452.64 304.44,-466.61"/>
<polygon fill="black" stroke="black" points="367.83,-420.27 373.44,-411.28 363.45,-414.81 367.83,-420.27"/>
<text text-anchor="middle" x="382.5" y="-436.8" font-family="Times,serif" font-size="14.00">समुच्चय_द्योतकः</text>
</g>
<!-- Node4_1 -->
<g id="node14" class="node">
<title>Node4_1</title>
<ellipse fill="#00bfff" stroke="#00bfff" cx="508" cy="-484" rx="33.6" ry="18"/>
<text text-anchor="middle" x="508" y="-480.3" font-family="Times,serif" font-size="14.00">रामः(4)</text>
</g>
<!-- Node8_1 -->
<g id="node15" class="node">
<title>Node8_1</title>
<ellipse fill="#ff1975" stroke="#ff1975" cx="506" cy="-658" rx="50.09" ry="18"/>
<text text-anchor="middle" x="506" y="-654.3" font-family="Times,serif" font-size="14.00">प्रयास्यति(8)</text>
</g>
<!-- Node4_1&#45;&gt;Node8_1 -->
<g id="edge18" class="edge">
<title>Node4_1&#45;&gt;Node8_1</title>
<path fill="none" stroke="black" d="M507.68,-512.36C507.26,-548.24 506.55,-610.12 506.2,-639.95"/>
<polygon fill="black" stroke="black" points="511.18,-512.16 507.8,-502.12 504.18,-512.08 511.18,-512.16"/>
<text text-anchor="middle" x="518" y="-567.3" font-family="Times,serif" font-size="14.00">कर्ता</text>
</g>
<!-- Node4_1&#45;&gt;Node6_1 -->
<g id="edge19" class="edge">
<title>Node4_1&#45;&gt;Node6_1</title>
<path fill="none" stroke="black" stroke-dasharray="1,5" d="M484.01,-506.88C479.34,-511.2 474.5,-515.73 470,-520 458.32,-531.1 445.35,-543.82 435.41,-553.66"/>
<polygon fill="black" stroke="black" points="486.64,-509.23 491.62,-499.88 481.9,-504.07 486.64,-509.23"/>
<text text-anchor="middle" x="481" y="-523.8" font-family="Times,serif" font-size="14.00">कर्ता</text>
</g>
<!-- Node6_1&#45;&gt;Node8_1 -->
<g id="edge21" class="edge">
<title>Node6_1&#45;&gt;Node8_1</title>
<path fill="none" stroke="black" d="M431.51,-598.11C436.25,-606.35 442.17,-615.1 449,-622 457.17,-630.25 467.65,-637.4 477.4,-643.04"/>
<polygon fill="black" stroke="black" points="434.5,-596.29 426.68,-589.14 428.34,-599.61 434.5,-596.29"/>
<text text-anchor="middle" x="470.5" y="-610.8" font-family="Times,serif" font-size="14.00">पूर्वकालः</text>
</g>
<!-- Node5_1 -->
<g id="node17" class="node">
<title>Node5_1</title>
<ellipse fill="#93db70" stroke="#93db70" cx="416" cy="-484" rx="40.09" ry="18"/>
<text text-anchor="middle" x="416" y="-480.3" font-family="Times,serif" font-size="14.00">राज्यम्(5)</text>
</g>
<!-- Node5_1&#45;&gt;Node6_1 -->
<g id="edge20" class="edge">
<title>Node5_1&#45;&gt;Node6_1</title>
<path fill="none" stroke="black" d="M416.96,-512.27C417.43,-525.58 417.98,-541.19 418.39,-552.82"/>
<polygon fill="black" stroke="black" points="420.46,-512.07 416.61,-502.2 413.46,-512.32 420.46,-512.07"/>
<text text-anchor="middle" x="426" y="-523.8" font-family="Times,serif" font-size="14.00">कर्म</text>
</g>
<!-- Node2_3_2c -->
<g class="node12" onclick="toggleChildren('children_node2');">
<title>Node2_3_2c</title>
<ellipse fill="#93db70" stroke="#93db70" cx="284" cy="-484" rx="73.39" ry="18"/>
<text text-anchor="middle" x="284" y="-480.3" font-family="Times,serif" font-size="14.00">दश&#45;&#45;वर्ष&#45;&#45;शतानि(2)</text>
</g>
<!-- Node7_1 -->
<g id="node18" class="node">
<title>Node7_1</title>
<ellipse fill="#93db70" stroke="#93db70" cx="599" cy="-571" rx="53.09" ry="18"/>
<text text-anchor="middle" x="599" y="-567.3" font-family="Times,serif" font-size="14.00">ब्रह्मलोकम्(7)</text>
</g>
<!-- Node7_1&#45;&gt;Node8_1 -->
<g id="edge22" class="edge">
<title>Node7_1&#45;&gt;Node8_1</title>
<path fill="none" stroke="black" d="M573.65,-595.17C557.77,-609.68 537.7,-628.03 523.56,-640.95"/>
<polygon fill="black" stroke="black" points="576.05,-597.72 581.07,-588.39 571.33,-592.55 576.05,-597.72"/>
<text text-anchor="middle" x="567" y="-610.8" font-family="Times,serif" font-size="14.00">कर्म</text>
</g>
</g>
</svg>
