<?xml version="1.0" encoding="UTF-8" standalone="no"?>
<!DOCTYPE svg PUBLIC "-//W3C//DTD SVG 1.1//EN"
 "http://www.w3.org/Graphics/SVG/1.1/DTD/svg11.dtd">
<!-- Generated by graphviz version 2.50.0 (20211204.2007)
 -->
<!-- Title: G Pages: 1 -->
<svg width="1164pt" height="392pt"
 viewBox="0.00 0.00 1163.89 392.00" xmlns="http://www.w3.org/2000/svg" xmlns:xlink="http://www.w3.org/1999/xlink">
<g id="graph0" class="graph" transform="scale(1 1) rotate(0) translate(4 388)">
<title>G</title>
<polygon fill="#fffacd" stroke="transparent" points="-4,4 -4,-388 1159.89,-388 1159.89,4 -4,4"/>
<g id="clust1" class="cluster">
<title>cluster_1</title>
<polygon fill="#fffacd" stroke="black" points="742.75,-79 742.75,-218 866.75,-218 866.75,-79 742.75,-79"/>
</g>
<g id="clust2" class="cluster">
<title>cluster_2</title>
<polygon fill="#fffacd" stroke="black" points="349.75,-79 349.75,-218 471.75,-218 471.75,-79 349.75,-79"/>
</g>
<g id="clust3" class="cluster">
<title>cluster_3</title>
<polygon fill="#fffacd" stroke="black" points="616.75,-79 616.75,-218 734.75,-218 734.75,-79 616.75,-79"/>
</g>
<g id="clust4" class="cluster">
<title>cluster_4</title>
<polygon fill="#fffacd" stroke="black" points="935.75,-166 935.75,-305 1053.75,-305 1053.75,-166 935.75,-166"/>
</g>
<!-- Node4_2 -->
<g id="node1" class="node">
<title>Node4_2</title>
<ellipse fill="#40e0d0" stroke="#40e0d0" cx="804.75" cy="-105" rx="53.89" ry="18"/>
<text text-anchor="middle" x="804.75" y="-101.3" font-family="Times,serif" font-size="14.00">सुवर्णकैः(4.2)</text>
</g>
<!-- Node1_2 -->
<g id="node2" class="node">
<title>Node1_2</title>
<ellipse fill="#40e0d0" stroke="#40e0d0" cx="811.75" cy="-192" rx="41.69" ry="18"/>
<text text-anchor="middle" x="811.75" y="-188.3" font-family="Times,serif" font-size="14.00">शतैः(1.2)</text>
</g>
<!-- Node4_2&#45;&gt;Node1_2 -->
<g id="edge6" class="edge">
<title>Node4_2&#45;&gt;Node1_2</title>
<path fill="none" stroke="black" d="M806.99,-133.27C808.09,-146.58 809.37,-162.19 810.33,-173.82"/>
<polygon fill="black" stroke="black" points="810.47,-132.88 806.16,-123.2 803.49,-133.45 810.47,-132.88"/>
<text text-anchor="middle" x="830.25" y="-144.8" font-family="Times,serif" font-size="14.00">समुच्चितः</text>
</g>
<!-- Node2_1 -->
<g id="node10" class="node">
<title>Node2_1</title>
<ellipse fill="#ff99ff" stroke="#ff99ff" cx="811.75" cy="-279" rx="40.09" ry="18"/>
<text text-anchor="middle" x="811.75" y="-275.3" font-family="Times,serif" font-size="14.00">इष्ट्वा(2.1)</text>
</g>
<!-- Node1_2&#45;&gt;Node2_1 -->
<g id="edge2" class="edge">
<title>Node1_2&#45;&gt;Node2_1</title>
<path fill="none" stroke="black" d="M811.75,-220.27C811.75,-233.58 811.75,-249.19 811.75,-260.82"/>
<polygon fill="black" stroke="black" points="815.25,-220.2 811.75,-210.2 808.25,-220.2 815.25,-220.2"/>
<text text-anchor="middle" x="828.25" y="-231.8" font-family="Times,serif" font-size="14.00">करणम्</text>
</g>
<!-- Node10_2 -->
<g id="node3" class="node">
<title>Node10_2</title>
<ellipse fill="#93db70" stroke="#93db70" cx="410.75" cy="-105" rx="53.09" ry="18"/>
<text text-anchor="middle" x="410.75" y="-101.3" font-family="Times,serif" font-size="14.00">संख्येयं(10.2)</text>
</g>
<!-- Node11_1 -->
<g id="node4" class="node">
<title>Node11_1</title>
<ellipse fill="#93db70" stroke="#93db70" cx="413.75" cy="-192" rx="47.39" ry="18"/>
<text text-anchor="middle" x="413.75" y="-188.3" font-family="Times,serif" font-size="14.00">धनम्(11.1)</text>
</g>
<!-- Node10_2&#45;&gt;Node11_1 -->
<g id="edge15" class="edge">
<title>Node10_2&#45;&gt;Node11_1</title>
<path fill="none" stroke="black" d="M411.71,-133.27C412.18,-146.58 412.73,-162.19 413.14,-173.82"/>
<polygon fill="black" stroke="black" points="415.2,-133.07 411.35,-123.2 408.21,-133.32 415.2,-133.07"/>
<text text-anchor="middle" x="435.25" y="-144.8" font-family="Times,serif" font-size="14.00">विशेषणम्</text>
</g>
<!-- Node12_1 -->
<g id="node22" class="node">
<title>Node12_1</title>
<ellipse fill="#ff99ff" stroke="#ff99ff" cx="564.75" cy="-279" rx="46.59" ry="18"/>
<text text-anchor="middle" x="564.75" y="-275.3" font-family="Times,serif" font-size="14.00">दत्त्वा(12.1)</text>
</g>
<!-- Node11_1&#45;&gt;Node12_1 -->
<g id="edge16" class="edge">
<title>Node11_1&#45;&gt;Node12_1</title>
<path fill="none" stroke="black" d="M448.35,-212.48C476.15,-228.13 514.55,-249.74 539.51,-263.79"/>
<polygon fill="black" stroke="black" points="449.79,-209.27 439.36,-207.42 446.36,-215.37 449.79,-209.27"/>
<text text-anchor="middle" x="506.75" y="-231.8" font-family="Times,serif" font-size="14.00">कर्म</text>
</g>
<!-- Node14_2 -->
<g id="node5" class="node">
<title>Node14_2</title>
<ellipse fill="#00bfff" stroke="#00bfff" cx="675.75" cy="-105" rx="48.99" ry="18"/>
<text text-anchor="middle" x="675.75" y="-101.3" font-family="Times,serif" font-size="14.00">यशाः(14.2)</text>
</g>
<!-- Node18_1 -->
<g id="node6" class="node">
<title>Node18_1</title>
<ellipse fill="#00bfff" stroke="#00bfff" cx="675.75" cy="-192" rx="50.89" ry="18"/>
<text text-anchor="middle" x="675.75" y="-188.3" font-family="Times,serif" font-size="14.00">राघवः(18.1)</text>
</g>
<!-- Node14_2&#45;&gt;Node18_1 -->
<g id="edge20" class="edge">
<title>Node14_2&#45;&gt;Node18_1</title>
<path fill="none" stroke="black" d="M675.75,-133.27C675.75,-146.58 675.75,-162.19 675.75,-173.82"/>
<polygon fill="black" stroke="black" points="679.25,-133.2 675.75,-123.2 672.25,-133.2 679.25,-133.2"/>
<text text-anchor="middle" x="699.25" y="-144.8" font-family="Times,serif" font-size="14.00">विशेषणम्</text>
</g>
<!-- Node18_1&#45;&gt;Node2_1 -->
<g id="edge28" class="edge">
<title>Node18_1&#45;&gt;Node2_1</title>
<path fill="none" stroke="black" stroke-dasharray="1,5" d="M708.53,-213.49C733.54,-229.12 767.34,-250.25 789.34,-264"/>
<polygon fill="black" stroke="black" points="710.08,-210.33 699.75,-208 706.37,-216.27 710.08,-210.33"/>
<text text-anchor="middle" x="762.75" y="-231.8" font-family="Times,serif" font-size="14.00">कर्ता</text>
</g>
<!-- Node17_1 -->
<g id="node11" class="node">
<title>Node17_1</title>
<ellipse fill="#ff1975" stroke="#ff1975" cx="692.75" cy="-366" rx="71.49" ry="18"/>
<text text-anchor="middle" x="692.75" y="-362.3" font-family="Times,serif" font-size="14.00">स्थापयिष्यति(17.1)</text>
</g>
<!-- Node18_1&#45;&gt;Node17_1 -->
<g id="edge25" class="edge">
<title>Node18_1&#45;&gt;Node17_1</title>
<path fill="none" stroke="black" d="M678.45,-220.36C682,-256.24 688.11,-318.12 691.06,-347.95"/>
<polygon fill="black" stroke="black" points="681.9,-219.73 677.44,-210.12 674.94,-220.42 681.9,-219.73"/>
<text text-anchor="middle" x="717.25" y="-275.3" font-family="Times,serif" font-size="14.00">प्रयोजककर्ता</text>
</g>
<!-- Node7_1 -->
<g id="node17" class="node">
<title>Node7_1</title>
<ellipse fill="#ff99ff" stroke="#ff99ff" cx="286.75" cy="-279" rx="42.49" ry="18"/>
<text text-anchor="middle" x="286.75" y="-275.3" font-family="Times,serif" font-size="14.00">दत्त्वा(7.1)</text>
</g>
<!-- Node18_1&#45;&gt;Node7_1 -->
<g id="edge27" class="edge">
<title>Node18_1&#45;&gt;Node7_1</title>
<path fill="none" stroke="black" stroke-dasharray="1,5" d="M636.84,-211.39C627.13,-216.42 616.88,-222.12 607.75,-228 598.7,-233.82 598.69,-238.89 588.75,-243 542.65,-262.05 400.01,-272.05 328.5,-275.98"/>
<polygon fill="black" stroke="black" points="638.59,-214.43 645.93,-206.79 635.43,-208.18 638.59,-214.43"/>
<text text-anchor="middle" x="618.75" y="-231.8" font-family="Times,serif" font-size="14.00">कर्ता</text>
</g>
<!-- Node18_1&#45;&gt;Node12_1 -->
<g id="edge26" class="edge">
<title>Node18_1&#45;&gt;Node12_1</title>
<path fill="none" stroke="black" stroke-dasharray="1,5" d="M658.18,-217.83C651.24,-226.5 642.76,-235.84 633.75,-243 622.38,-252.02 608.33,-259.66 595.87,-265.47"/>
<polygon fill="black" stroke="black" points="661.02,-219.87 664.33,-209.81 655.46,-215.61 661.02,-219.87"/>
<text text-anchor="middle" x="659.75" y="-231.8" font-family="Times,serif" font-size="14.00">कर्ता</text>
</g>
<!-- Node16_2 -->
<g id="node7" class="node">
<title>Node16_2</title>
<ellipse fill="#93db70" stroke="#93db70" cx="994.75" cy="-192" rx="50.89" ry="18"/>
<text text-anchor="middle" x="994.75" y="-188.3" font-family="Times,serif" font-size="14.00">गुणान्(16.2)</text>
</g>
<!-- Node15_2 -->
<g id="node8" class="node">
<title>Node15_2</title>
<ellipse fill="#93db70" stroke="#93db70" cx="994.75" cy="-279" rx="50.09" ry="18"/>
<text text-anchor="middle" x="994.75" y="-275.3" font-family="Times,serif" font-size="14.00">वंशान्(15.2)</text>
</g>
<!-- Node16_2&#45;&gt;Node15_2 -->
<g id="edge24" class="edge">
<title>Node16_2&#45;&gt;Node15_2</title>
<path fill="none" stroke="black" d="M994.75,-220.27C994.75,-233.58 994.75,-249.19 994.75,-260.82"/>
<polygon fill="black" stroke="black" points="998.25,-220.2 994.75,-210.2 991.25,-220.2 998.25,-220.2"/>
<text text-anchor="middle" x="1018.25" y="-231.8" font-family="Times,serif" font-size="14.00">विशेषणम्</text>
</g>
<!-- Node15_2&#45;&gt;Node17_1 -->
<g id="edge22" class="edge">
<title>Node15_2&#45;&gt;Node17_1</title>
<path fill="none" stroke="black" d="M946.62,-293.55C889.43,-309.64 794.72,-336.3 738.57,-352.1"/>
<polygon fill="black" stroke="black" points="947.82,-296.84 956.5,-290.77 945.92,-290.11 947.82,-296.84"/>
<text text-anchor="middle" x="889.25" y="-318.8" font-family="Times,serif" font-size="14.00">प्रयोज्यकर्ता</text>
</g>
<!-- Node1_1 -->
<g id="node9" class="node">
<title>Node1_1</title>
<ellipse fill="#ffff00" stroke="#ffff00" cx="930.75" cy="-105" rx="53.89" ry="18"/>
<text text-anchor="middle" x="930.75" y="-101.3" font-family="Times,serif" font-size="14.00">अश्वमेध&#45;(1.1)</text>
</g>
<!-- Node1_1&#45;&gt;Node1_2 -->
<g id="edge1" class="edge">
<title>Node1_1&#45;&gt;Node1_2</title>
<path fill="none" stroke="black" d="M900.56,-127.56C879.33,-142.73 851.45,-162.64 832.64,-176.08"/>
<polygon fill="black" stroke="black" points="902.82,-130.25 908.92,-121.59 898.75,-124.55 902.82,-130.25"/>
<text text-anchor="middle" x="908.25" y="-144.8" font-family="Times,serif" font-size="14.00">षष्ठी&#45;तत्पुरुषः</text>
</g>
<!-- Node2_1&#45;&gt;Node17_1 -->
<g id="edge3" class="edge">
<title>Node2_1&#45;&gt;Node17_1</title>
<path fill="none" stroke="black" d="M783.13,-300.44C762.35,-315.28 734.61,-335.1 715.37,-348.84"/>
<polygon fill="black" stroke="black" points="785.19,-303.27 791.29,-294.61 781.12,-297.58 785.19,-303.27"/>
<text text-anchor="middle" x="780.25" y="-318.8" font-family="Times,serif" font-size="14.00">पूर्वकालः</text>
</g>
<!-- Node3_1 -->
<g id="node12" class="node">
<title>Node3_1</title>
<ellipse fill="#ff99ff" stroke="#ff99ff" cx="792.75" cy="-18" rx="40.89" ry="18"/>
<text text-anchor="middle" x="792.75" y="-14.3" font-family="Times,serif" font-size="14.00">तथा(3.1)</text>
</g>
<!-- Node3_1&#45;&gt;Node4_2 -->
<g id="edge4" class="edge">
<title>Node3_1&#45;&gt;Node4_2</title>
<path fill="none" stroke="black" d="M791.89,-46.46C792.05,-53.82 792.56,-61.75 793.75,-69 794.71,-74.91 796.45,-81.2 798.27,-86.79"/>
<polygon fill="black" stroke="black" points="795.39,-46.23 791.89,-36.23 788.39,-46.24 795.39,-46.23"/>
<text text-anchor="middle" x="833.25" y="-57.8" font-family="Times,serif" font-size="14.00">समुच्चय_द्योतकः</text>
</g>
<!-- Node4_1 -->
<g id="node13" class="node">
<title>Node4_1</title>
<ellipse fill="#ffff00" stroke="#ffff00" cx="894.75" cy="-18" rx="40.09" ry="18"/>
<text text-anchor="middle" x="894.75" y="-14.3" font-family="Times,serif" font-size="14.00">बहु&#45;(4.1)</text>
</g>
<!-- Node4_1&#45;&gt;Node4_2 -->
<g id="edge5" class="edge">
<title>Node4_1&#45;&gt;Node4_2</title>
<path fill="none" stroke="black" d="M886.94,-45.6C883.57,-53.81 878.94,-62.42 872.75,-69 863.83,-78.48 851.77,-85.83 840.29,-91.29"/>
<polygon fill="black" stroke="black" points="890.33,-46.53 890.45,-35.94 883.75,-44.14 890.33,-46.53"/>
<text text-anchor="middle" x="902.75" y="-57.8" font-family="Times,serif" font-size="14.00">बहुव्रीहिः</text>
</g>
<!-- Node5_1 -->
<g id="node14" class="node">
<title>Node5_1</title>
<ellipse fill="#87ceeb" stroke="#87ceeb" cx="265.75" cy="-105" rx="44.69" ry="18"/>
<text text-anchor="middle" x="265.75" y="-101.3" font-family="Times,serif" font-size="14.00">गवाम्(5.1)</text>
</g>
<!-- Node6_2 -->
<g id="node15" class="node">
<title>Node6_2</title>
<ellipse fill="#93db70" stroke="#93db70" cx="164.75" cy="-192" rx="49.29" ry="18"/>
<text text-anchor="middle" x="164.75" y="-188.3" font-family="Times,serif" font-size="14.00">अयुतम्(6.2)</text>
</g>
<!-- Node5_1&#45;&gt;Node6_2 -->
<g id="edge7" class="edge">
<title>Node5_1&#45;&gt;Node6_2</title>
<path fill="none" stroke="black" d="M249.88,-130.99C243.66,-139.58 236.03,-148.82 227.75,-156 217.91,-164.52 205.67,-171.9 194.6,-177.65"/>
<polygon fill="black" stroke="black" points="252.79,-132.94 255.6,-122.72 247.03,-128.96 252.79,-132.94"/>
<text text-anchor="middle" x="270.75" y="-144.8" font-family="Times,serif" font-size="14.00">षष्ठीसम्बन्धः</text>
</g>
<!-- Node6_2&#45;&gt;Node7_1 -->
<g id="edge9" class="edge">
<title>Node6_2&#45;&gt;Node7_1</title>
<path fill="none" stroke="black" d="M194.87,-213.99C216.82,-229.28 246,-249.61 265.53,-263.22"/>
<polygon fill="black" stroke="black" points="196.76,-211.04 186.56,-208.2 192.76,-216.78 196.76,-211.04"/>
<text text-anchor="middle" x="242.75" y="-231.8" font-family="Times,serif" font-size="14.00">कर्म</text>
</g>
<!-- Node6_1 -->
<g id="node16" class="node">
<title>Node6_1</title>
<ellipse fill="#ffff00" stroke="#ffff00" cx="159.75" cy="-105" rx="42.79" ry="18"/>
<text text-anchor="middle" x="159.75" y="-101.3" font-family="Times,serif" font-size="14.00">कोटि(6.1)</text>
</g>
<!-- Node6_1&#45;&gt;Node6_2 -->
<g id="edge8" class="edge">
<title>Node6_1&#45;&gt;Node6_2</title>
<path fill="none" stroke="black" d="M161.35,-133.27C162.13,-146.58 163.05,-162.19 163.74,-173.82"/>
<polygon fill="black" stroke="black" points="164.84,-132.98 160.76,-123.2 157.85,-133.39 164.84,-132.98"/>
<text text-anchor="middle" x="193.25" y="-144.8" font-family="Times,serif" font-size="14.00">षष्ठी&#45;तत्पुरुषः</text>
</g>
<!-- Node7_1&#45;&gt;Node17_1 -->
<g id="edge10" class="edge">
<title>Node7_1&#45;&gt;Node17_1</title>
<path fill="none" stroke="black" d="M333.65,-289.82C409.8,-305.76 559.83,-337.17 639.73,-353.9"/>
<polygon fill="black" stroke="black" points="334.36,-286.39 323.85,-287.77 332.92,-293.24 334.36,-286.39"/>
<text text-anchor="middle" x="535.25" y="-318.8" font-family="Times,serif" font-size="14.00">पूर्वकालः</text>
</g>
<!-- Node8_1 -->
<g id="node18" class="node">
<title>Node8_1</title>
<ellipse fill="#b0e2ff" stroke="#b0e2ff" cx="286.75" cy="-192" rx="54.69" ry="18"/>
<text text-anchor="middle" x="286.75" y="-188.3" font-family="Times,serif" font-size="14.00">विद्वद्भ्यः(8.1)</text>
</g>
<!-- Node8_1&#45;&gt;Node7_1 -->
<g id="edge11" class="edge">
<title>Node8_1&#45;&gt;Node7_1</title>
<path fill="none" stroke="black" d="M286.75,-220.27C286.75,-233.58 286.75,-249.19 286.75,-260.82"/>
<polygon fill="black" stroke="black" points="290.25,-220.2 286.75,-210.2 283.25,-220.2 290.25,-220.2"/>
<text text-anchor="middle" x="309.75" y="-231.8" font-family="Times,serif" font-size="14.00">सम्प्रदानम्</text>
</g>
<!-- Node9_1 -->
<g id="node19" class="node">
<title>Node9_1</title>
<ellipse fill="#ffff00" stroke="#ffff00" cx="48.75" cy="-105" rx="46.29" ry="18"/>
<text text-anchor="middle" x="48.75" y="-101.3" font-family="Times,serif" font-size="14.00">विधि&#45;(9.1)</text>
</g>
<!-- Node9_2 -->
<g id="node20" class="node">
<title>Node9_2</title>
<ellipse fill="#93db70" stroke="#93db70" cx="48.75" cy="-192" rx="48.99" ry="18"/>
<text text-anchor="middle" x="48.75" y="-188.3" font-family="Times,serif" font-size="14.00">पूर्वकम्(9.2)</text>
</g>
<!-- Node9_1&#45;&gt;Node9_2 -->
<g id="edge12" class="edge">
<title>Node9_1&#45;&gt;Node9_2</title>
<path fill="none" stroke="black" d="M48.75,-133.27C48.75,-146.58 48.75,-162.19 48.75,-173.82"/>
<polygon fill="black" stroke="black" points="52.25,-133.2 48.75,-123.2 45.25,-133.2 52.25,-133.2"/>
<text text-anchor="middle" x="68.75" y="-144.8" font-family="Times,serif" font-size="14.00">बहुव्रीहिः</text>
</g>
<!-- Node9_2&#45;&gt;Node7_1 -->
<g id="edge13" class="edge">
<title>Node9_2&#45;&gt;Node7_1</title>
<path fill="none" stroke="black" d="M81.07,-213.04C98.53,-223.17 120.75,-234.97 141.75,-243 176.7,-256.36 218.39,-265.79 248.08,-271.47"/>
<polygon fill="black" stroke="black" points="82.8,-210 72.41,-207.93 79.25,-216.02 82.8,-210"/>
<text text-anchor="middle" x="178.25" y="-231.8" font-family="Times,serif" font-size="14.00">क्रियाविशेषणम्</text>
</g>
<!-- Node10_1 -->
<g id="node21" class="node">
<title>Node10_1</title>
<ellipse fill="#ffff00" stroke="#ffff00" cx="410.75" cy="-18" rx="41.69" ry="18"/>
<text text-anchor="middle" x="410.75" y="-14.3" font-family="Times,serif" font-size="14.00">अ&#45;(10.1)</text>
</g>
<!-- Node10_1&#45;&gt;Node10_2 -->
<g id="edge14" class="edge">
<title>Node10_1&#45;&gt;Node10_2</title>
<path fill="none" stroke="black" d="M410.75,-46.27C410.75,-59.58 410.75,-75.19 410.75,-86.82"/>
<polygon fill="black" stroke="black" points="414.25,-46.2 410.75,-36.2 407.25,-46.2 414.25,-46.2"/>
<text text-anchor="middle" x="439.75" y="-57.8" font-family="Times,serif" font-size="14.00">नञ्&#45;तत्पुरुषः</text>
</g>
<!-- Node12_1&#45;&gt;Node17_1 -->
<g id="edge17" class="edge">
<title>Node12_1&#45;&gt;Node17_1</title>
<path fill="none" stroke="black" d="M594,-301.22C606.7,-310.27 621.83,-320.84 635.75,-330 645.54,-336.45 656.48,-343.26 666.14,-349.14"/>
<polygon fill="black" stroke="black" points="595.8,-298.21 585.63,-295.23 591.72,-303.9 595.8,-298.21"/>
<text text-anchor="middle" x="657.25" y="-318.8" font-family="Times,serif" font-size="14.00">पूर्वकालः</text>
</g>
<!-- Node13_1 -->
<g id="node23" class="node">
<title>Node13_1</title>
<ellipse fill="#b0e2ff" stroke="#b0e2ff" cx="543.75" cy="-192" rx="63.89" ry="18"/>
<text text-anchor="middle" x="543.75" y="-188.3" font-family="Times,serif" font-size="14.00">ब्राह्मणेभ्यः(13.1)</text>
</g>
<!-- Node13_1&#45;&gt;Node12_1 -->
<g id="edge18" class="edge">
<title>Node13_1&#45;&gt;Node12_1</title>
<path fill="none" stroke="black" d="M540.28,-220.11C540.1,-227.64 540.65,-235.74 542.75,-243 544.61,-249.48 548.08,-255.92 551.71,-261.48"/>
<polygon fill="black" stroke="black" points="543.78,-220.2 540.94,-209.99 536.8,-219.74 543.78,-220.2"/>
<text text-anchor="middle" x="565.75" y="-231.8" font-family="Times,serif" font-size="14.00">सम्प्रदानम्</text>
</g>
<!-- Node14_1 -->
<g id="node24" class="node">
<title>Node14_1</title>
<ellipse fill="#ffff00" stroke="#ffff00" cx="675.75" cy="-18" rx="46.59" ry="18"/>
<text text-anchor="middle" x="675.75" y="-14.3" font-family="Times,serif" font-size="14.00">महा&#45;(14.1)</text>
</g>
<!-- Node14_1&#45;&gt;Node14_2 -->
<g id="edge19" class="edge">
<title>Node14_1&#45;&gt;Node14_2</title>
<path fill="none" stroke="black" d="M675.75,-46.27C675.75,-59.58 675.75,-75.19 675.75,-86.82"/>
<polygon fill="black" stroke="black" points="679.25,-46.2 675.75,-36.2 672.25,-46.2 679.25,-46.2"/>
<text text-anchor="middle" x="707.75" y="-57.8" font-family="Times,serif" font-size="14.00">षष्ठी&#45;बहुव्रीहिः</text>
</g>
<!-- Node15_1 -->
<g id="node25" class="node">
<title>Node15_1</title>
<ellipse fill="#ffff00" stroke="#ffff00" cx="1109.75" cy="-192" rx="46.29" ry="18"/>
<text text-anchor="middle" x="1109.75" y="-188.3" font-family="Times,serif" font-size="14.00">राज&#45;(15.1)</text>
</g>
<!-- Node15_1&#45;&gt;Node15_2 -->
<g id="edge21" class="edge">
<title>Node15_1&#45;&gt;Node15_2</title>
<path fill="none" stroke="black" d="M1082.82,-214.63C1071.5,-223.57 1058.1,-233.95 1045.75,-243 1036.65,-249.66 1026.44,-256.75 1017.55,-262.79"/>
<polygon fill="black" stroke="black" points="1085,-217.37 1090.66,-208.41 1080.65,-211.89 1085,-217.37"/>
<text text-anchor="middle" x="1095.25" y="-231.8" font-family="Times,serif" font-size="14.00">षष्ठी&#45;तत्पुरुषः</text>
</g>
<!-- Node16_1 -->
<g id="node26" class="node">
<title>Node16_1</title>
<ellipse fill="#ffff00" stroke="#ffff00" cx="1048.75" cy="-105" rx="46.29" ry="18"/>
<text text-anchor="middle" x="1048.75" y="-101.3" font-family="Times,serif" font-size="14.00">शत&#45;(16.1)</text>
</g>
<!-- Node16_1&#45;&gt;Node16_2 -->
<g id="edge23" class="edge">
<title>Node16_1&#45;&gt;Node16_2</title>
<path fill="none" stroke="black" d="M1032.61,-131.4C1023.8,-145.26 1013.15,-162.03 1005.39,-174.24"/>
<polygon fill="black" stroke="black" points="1035.67,-133.11 1038.08,-122.79 1029.76,-129.36 1035.67,-133.11"/>
<text text-anchor="middle" x="1056.75" y="-144.8" font-family="Times,serif" font-size="14.00">षष्ठी&#45;बहुव्रीहिः</text>
</g>
</g>
</svg>
