<?xml version="1.0" encoding="UTF-8" standalone="no"?>
<!DOCTYPE svg PUBLIC "-//W3C//DTD SVG 1.1//EN"
 "http://www.w3.org/Graphics/SVG/1.1/DTD/svg11.dtd">
<!-- Generated by graphviz version 2.50.0 (20211204.2007)
 -->
<!-- Title: G Pages: 1 -->
<svg width="855pt" height="321pt"
 viewBox="0.00 0.00 855.25 321.00" xmlns="http://www.w3.org/2000/svg" xmlns:xlink="http://www.w3.org/1999/xlink">
<g id="graph0" class="graph" transform="scale(1 1) rotate(0) translate(4 317)">
<title>G</title>
<polygon fill="#fffacd" stroke="transparent" points="-4,4 -4,-317 851.25,-317 851.25,4 -4,4"/>
<g id="clust1" class="cluster">
<title>cluster_1</title>
<polygon fill="#fffacd" stroke="black" points="8,-8 8,-147 122,-147 122,-8 8,-8"/>
</g>
<!-- Node2_1 -->
<g id="node1" class="node">
<title>Node2_1</title>
<ellipse fill="#93db70" stroke="#93db70" cx="65" cy="-34" rx="42.49" ry="18"/>
<text text-anchor="middle" x="65" y="-30.3" font-family="Times,serif" font-size="14.00">अष्टौ(2.1)</text>
</g>
<!-- Node3_1 -->
<g id="node2" class="node">
<title>Node3_1</title>
<ellipse fill="#93db70" stroke="#93db70" cx="65" cy="-121" rx="48.99" ry="18"/>
<text text-anchor="middle" x="65" y="-117.3" font-family="Times,serif" font-size="14.00">अङ्गानि(3.1)</text>
</g>
<!-- Node2_1&#45;&gt;Node3_1 -->
<g id="edge10" class="edge">
<title>Node2_1&#45;&gt;Node3_1</title>
<path fill="none" stroke="black" d="M65,-62.27C65,-75.58 65,-91.19 65,-102.82"/>
<polygon fill="black" stroke="black" points="68.5,-62.2 65,-52.2 61.5,-62.2 68.5,-62.2"/>
<text text-anchor="middle" x="88.5" y="-73.8" font-family="Times,serif" font-size="14.00">विशेषणम्</text>
</g>
<!-- Node1_9 -->
<g id="node4" class="node">
<title>Node1_9</title>
<ellipse fill="#93db70" stroke="#93db70" cx="431" cy="-208" rx="44.39" ry="18"/>
<text text-anchor="middle" x="431" y="-204.3" font-family="Times,serif" font-size="14.00">वृषान्(1.9)</text>
</g>
<!-- Node3_1&#45;&gt;Node1_9 -->
<g id="edge11" class="edge">
<title>Node3_1&#45;&gt;Node1_9</title>
<path fill="none" stroke="black" d="M90.53,-144.34C103.57,-154.48 120.19,-165.62 137,-172 181.81,-189.01 317.37,-199.81 387.67,-204.42"/>
<polygon fill="black" stroke="black" points="92.5,-141.43 82.52,-137.87 88.1,-146.88 92.5,-141.43"/>
<text text-anchor="middle" x="178" y="-160.8" font-family="Times,serif" font-size="14.00">विधेय_विशेषणम्</text>
</g>
<!-- Node1_1 -->
<g id="node3" class="node">
<title>Node1_1</title>
<ellipse fill="#ffff00" stroke="#ffff00" cx="177" cy="-121" rx="44.69" ry="18"/>
<text text-anchor="middle" x="177" y="-117.3" font-family="Times,serif" font-size="14.00">काय&#45;(1.1)</text>
</g>
<!-- Node1_1&#45;&gt;Node1_9 -->
<g id="edge1" class="edge">
<title>Node1_1&#45;&gt;Node1_9</title>
<path fill="none" stroke="black" d="M203.83,-143.99C217.26,-153.95 234.2,-165.03 251,-172 295.7,-190.54 350.77,-199.4 388.15,-203.54"/>
<polygon fill="black" stroke="black" points="205.62,-140.95 195.55,-137.66 201.37,-146.52 205.62,-140.95"/>
<text text-anchor="middle" x="280" y="-160.8" font-family="Times,serif" font-size="14.00">इतरेतर&#45;द्वन्द्वः</text>
</g>
<!-- Node4_1 -->
<g id="node12" class="node">
<title>Node4_1</title>
<ellipse fill="#ff1975" stroke="#ff1975" cx="431" cy="-295" rx="43.59" ry="18"/>
<text text-anchor="middle" x="431" y="-291.3" font-family="Times,serif" font-size="14.00">आहुः(4.1)</text>
</g>
<!-- Node1_9&#45;&gt;Node4_1 -->
<g id="edge9" class="edge">
<title>Node1_9&#45;&gt;Node4_1</title>
<path fill="none" stroke="black" d="M431,-236.27C431,-249.58 431,-265.19 431,-276.82"/>
<polygon fill="black" stroke="black" points="434.5,-236.2 431,-226.2 427.5,-236.2 434.5,-236.2"/>
<text text-anchor="middle" x="440" y="-247.8" font-family="Times,serif" font-size="14.00">कर्म</text>
</g>
<!-- Node1_2 -->
<g id="node5" class="node">
<title>Node1_2</title>
<ellipse fill="#ffff00" stroke="#ffff00" cx="284" cy="-121" rx="44.39" ry="18"/>
<text text-anchor="middle" x="284" y="-117.3" font-family="Times,serif" font-size="14.00">बाल&#45;(1.2)</text>
</g>
<!-- Node1_2&#45;&gt;Node1_9 -->
<g id="edge2" class="edge">
<title>Node1_2&#45;&gt;Node1_9</title>
<path fill="none" stroke="black" d="M302.18,-146.41C309.92,-155.46 319.58,-165.17 330,-172 349.09,-184.52 373.15,-193.08 393,-198.61"/>
<polygon fill="black" stroke="black" points="304.67,-143.92 295.63,-138.39 299.24,-148.35 304.67,-143.92"/>
<text text-anchor="middle" x="359" y="-160.8" font-family="Times,serif" font-size="14.00">इतरेतर&#45;द्वन्द्वः</text>
</g>
<!-- Node1_3 -->
<g id="node6" class="node">
<title>Node1_3</title>
<ellipse fill="#ffff00" stroke="#ffff00" cx="386" cy="-121" rx="40.09" ry="18"/>
<text text-anchor="middle" x="386" y="-117.3" font-family="Times,serif" font-size="14.00">ग्रह&#45;(1.3)</text>
</g>
<!-- Node1_3&#45;&gt;Node1_9 -->
<g id="edge3" class="edge">
<title>Node1_3&#45;&gt;Node1_9</title>
<path fill="none" stroke="black" d="M389.13,-149.08C390.76,-156.8 393.24,-165 397,-172 400.85,-179.16 406.6,-185.87 412.27,-191.47"/>
<polygon fill="black" stroke="black" points="392.54,-148.28 387.39,-139.02 385.64,-149.47 392.54,-148.28"/>
<text text-anchor="middle" x="426" y="-160.8" font-family="Times,serif" font-size="14.00">इतरेतर&#45;द्वन्द्वः</text>
</g>
<!-- Node1_4 -->
<g id="node7" class="node">
<title>Node1_4</title>
<ellipse fill="#ffff00" stroke="#ffff00" cx="487" cy="-34" rx="46.29" ry="18"/>
<text text-anchor="middle" x="487" y="-30.3" font-family="Times,serif" font-size="14.00">ऊर्ध्व&#45;(1.4)</text>
</g>
<!-- Node1_5 -->
<g id="node8" class="node">
<title>Node1_5</title>
<ellipse fill="#ffff00" stroke="#ffff00" cx="487" cy="-121" rx="42.49" ry="18"/>
<text text-anchor="middle" x="487" y="-117.3" font-family="Times,serif" font-size="14.00">अङ्ग&#45;(1.5)</text>
</g>
<!-- Node1_4&#45;&gt;Node1_5 -->
<g id="edge4" class="edge">
<title>Node1_4&#45;&gt;Node1_5</title>
<path fill="none" stroke="black" d="M487,-62.27C487,-75.58 487,-91.19 487,-102.82"/>
<polygon fill="black" stroke="black" points="490.5,-62.2 487,-52.2 483.5,-62.2 490.5,-62.2"/>
<text text-anchor="middle" x="510.5" y="-73.8" font-family="Times,serif" font-size="14.00">कर्मधारयः</text>
</g>
<!-- Node1_5&#45;&gt;Node1_9 -->
<g id="edge5" class="edge">
<title>Node1_5&#45;&gt;Node1_9</title>
<path fill="none" stroke="black" d="M471.04,-147.28C465.96,-155.23 460.29,-164.01 455,-172 451.01,-178.02 446.56,-184.56 442.58,-190.34"/>
<polygon fill="black" stroke="black" points="474.05,-149.07 476.46,-138.75 468.14,-145.31 474.05,-149.07"/>
<text text-anchor="middle" x="493" y="-160.8" font-family="Times,serif" font-size="14.00">इतरेतर&#45;द्वन्द्वः</text>
</g>
<!-- Node1_6 -->
<g id="node9" class="node">
<title>Node1_6</title>
<ellipse fill="#ffff00" stroke="#ffff00" cx="594" cy="-121" rx="46.59" ry="18"/>
<text text-anchor="middle" x="594" y="-117.3" font-family="Times,serif" font-size="14.00">शल्य&#45;(1.6)</text>
</g>
<!-- Node1_6&#45;&gt;Node1_9 -->
<g id="edge6" class="edge">
<title>Node1_6&#45;&gt;Node1_9</title>
<path fill="none" stroke="black" d="M567.68,-144.05C555.52,-153.51 540.57,-164.16 526,-172 506.96,-182.24 484.29,-190.72 465.86,-196.77"/>
<polygon fill="black" stroke="black" points="569.96,-146.7 575.61,-137.74 565.61,-141.22 569.96,-146.7"/>
<text text-anchor="middle" x="579" y="-160.8" font-family="Times,serif" font-size="14.00">इतरेतर&#45;द्वन्द्वः</text>
</g>
<!-- Node1_7 -->
<g id="node10" class="node">
<title>Node1_7</title>
<ellipse fill="#ffff00" stroke="#ffff00" cx="702" cy="-121" rx="42.79" ry="18"/>
<text text-anchor="middle" x="702" y="-117.3" font-family="Times,serif" font-size="14.00">दंष्ट्रा&#45;(1.7)</text>
</g>
<!-- Node1_7&#45;&gt;Node1_9 -->
<g id="edge7" class="edge">
<title>Node1_7&#45;&gt;Node1_9</title>
<path fill="none" stroke="black" d="M671.52,-142.12C654.61,-152.45 632.83,-164.42 612,-172 566.13,-188.69 510.68,-197.92 473.34,-202.65"/>
<polygon fill="black" stroke="black" points="673.75,-144.85 680.37,-136.59 670.04,-138.91 673.75,-144.85"/>
<text text-anchor="middle" x="672" y="-160.8" font-family="Times,serif" font-size="14.00">इतरेतर&#45;द्वन्द्वः</text>
</g>
<!-- Node1_8 -->
<g id="node11" class="node">
<title>Node1_8</title>
<ellipse fill="#ffff00" stroke="#ffff00" cx="805" cy="-121" rx="42.49" ry="18"/>
<text text-anchor="middle" x="805" y="-117.3" font-family="Times,serif" font-size="14.00">जरा&#45;(1.8)</text>
</g>
<!-- Node1_8&#45;&gt;Node1_9 -->
<g id="edge8" class="edge">
<title>Node1_8&#45;&gt;Node1_9</title>
<path fill="none" stroke="black" d="M773.23,-141.35C754.12,-152.09 728.94,-164.72 705,-172 626.32,-195.94 530.09,-203.51 475.13,-205.9"/>
<polygon fill="black" stroke="black" points="775.16,-144.28 782.09,-136.26 771.68,-138.21 775.16,-144.28"/>
<text text-anchor="middle" x="771" y="-160.8" font-family="Times,serif" font-size="14.00">इतरेतर&#45;द्वन्द्वः</text>
</g>
</g>
</svg>
