<?xml version="1.0" encoding="UTF-8" standalone="no"?>
<!DOCTYPE svg PUBLIC "-//W3C//DTD SVG 1.1//EN"
 "http://www.w3.org/Graphics/SVG/1.1/DTD/svg11.dtd">
<!-- Generated by graphviz version 2.50.0 (20211204.2007)
 -->
<!-- Title: G Pages: 1 -->
<svg width="371pt" height="305pt"
 viewBox="0.00 0.00 371.25 305.00" xmlns="http://www.w3.org/2000/svg" xmlns:xlink="http://www.w3.org/1999/xlink">
<g id="graph0" class="graph" transform="scale(1 1) rotate(0) translate(4 301)">
<title>G</title>
<polygon fill="#fffacd" stroke="transparent" points="-4,4 -4,-301 367.25,-301 367.25,4 -4,4"/>
<g id="clust1" class="cluster">
<title>cluster_1</title>
<polygon fill="#fffacd" stroke="black" points="8,-79 8,-218 118,-218 118,-79 8,-79"/>
</g>
<!-- Node1_1 -->
<g id="node1" class="node">
<title>Node1_1</title>
<ellipse fill="#ff99ff" stroke="#ff99ff" cx="63" cy="-105" rx="47.39" ry="18"/>
<text text-anchor="middle" x="63" y="-101.3" font-family="Times,serif" font-size="14.00">सम्यक्(1.1)</text>
</g>
<!-- Node2_1 -->
<g id="node2" class="node">
<title>Node2_1</title>
<ellipse fill="#00bfff" stroke="#00bfff" cx="67" cy="-192" rx="42.79" ry="18"/>
<text text-anchor="middle" x="67" y="-188.3" font-family="Times,serif" font-size="14.00">योगः(2.1)</text>
</g>
<!-- Node1_1&#45;&gt;Node2_1 -->
<g id="edge1" class="edge">
<title>Node1_1&#45;&gt;Node2_1</title>
<path fill="none" stroke="black" d="M64.28,-133.27C64.91,-146.58 65.64,-162.19 66.19,-173.82"/>
<polygon fill="black" stroke="black" points="67.78,-133.03 63.81,-123.2 60.78,-133.35 67.78,-133.03"/>
<text text-anchor="middle" x="89.5" y="-144.8" font-family="Times,serif" font-size="14.00">विशेषणम्</text>
</g>
<!-- Node4_1 -->
<g id="node3" class="node">
<title>Node4_1</title>
<ellipse fill="#00bfff" stroke="#00bfff" cx="67" cy="-279" rx="48.99" ry="18"/>
<text text-anchor="middle" x="67" y="-275.3" font-family="Times,serif" font-size="14.00">विज्ञेयः(4.1)</text>
</g>
<!-- Node2_1&#45;&gt;Node4_1 -->
<g id="edge2" class="edge">
<title>Node2_1&#45;&gt;Node4_1</title>
<path fill="none" stroke="black" d="M67,-220.27C67,-233.58 67,-249.19 67,-260.82"/>
<polygon fill="black" stroke="black" points="70.5,-220.2 67,-210.2 63.5,-220.2 70.5,-220.2"/>
<text text-anchor="middle" x="76" y="-231.8" font-family="Times,serif" font-size="14.00">कर्म</text>
</g>
<!-- Node3_1 -->
<g id="node4" class="node">
<title>Node3_1</title>
<ellipse fill="#ff99ff" stroke="#ff99ff" cx="162" cy="-105" rx="33.6" ry="18"/>
<text text-anchor="middle" x="162" y="-101.3" font-family="Times,serif" font-size="14.00">च(3.1)</text>
</g>
<!-- Node3_1&#45;&gt;Node2_1 -->
<g id="edge3" class="edge">
<title>Node3_1&#45;&gt;Node2_1</title>
<path fill="none" stroke="black" d="M142.89,-129.41C135.25,-138.17 126.11,-147.94 117,-156 108.59,-163.44 98.57,-170.72 89.72,-176.7"/>
<polygon fill="black" stroke="black" points="145.62,-131.6 149.45,-121.72 140.3,-127.06 145.62,-131.6"/>
<text text-anchor="middle" x="150.5" y="-144.8" font-family="Times,serif" font-size="14.00">सम्बन्धः</text>
</g>
<!-- Node5_1 -->
<g id="node5" class="node">
<title>Node5_1</title>
<ellipse fill="#ffff00" stroke="#ffff00" cx="209" cy="-18" rx="51.99" ry="18"/>
<text text-anchor="middle" x="209" y="-14.3" font-family="Times,serif" font-size="14.00">आरोग्य&#45;(5.1)</text>
</g>
<!-- Node5_3 -->
<g id="node6" class="node">
<title>Node5_3</title>
<ellipse fill="#00bfff" stroke="#00bfff" cx="265" cy="-105" rx="51.19" ry="18"/>
<text text-anchor="middle" x="265" y="-101.3" font-family="Times,serif" font-size="14.00">कारणम्(5.3)</text>
</g>
<!-- Node5_1&#45;&gt;Node5_3 -->
<g id="edge4" class="edge">
<title>Node5_1&#45;&gt;Node5_3</title>
<path fill="none" stroke="black" d="M223.12,-44.83C227.66,-52.72 232.85,-61.34 238,-69 242.19,-75.24 247.13,-81.84 251.63,-87.6"/>
<polygon fill="black" stroke="black" points="226.1,-42.99 218.13,-36 220,-46.43 226.1,-42.99"/>
<text text-anchor="middle" x="268.5" y="-57.8" font-family="Times,serif" font-size="14.00">षष्ठी&#45;तत्पुरुषः</text>
</g>
<!-- Node5_3&#45;&gt;Node2_1 -->
<g id="edge6" class="edge">
<title>Node5_3&#45;&gt;Node2_1</title>
<path fill="none" stroke="black" d="M231.2,-126.26C214.12,-136.01 192.85,-147.41 173,-156 149.88,-166 122.9,-174.87 101.95,-181.18"/>
<polygon fill="black" stroke="black" points="233.32,-129.08 240.23,-121.04 229.82,-123.02 233.32,-129.08"/>
<text text-anchor="middle" x="246" y="-144.8" font-family="Times,serif" font-size="14.00">विधेय_विशेषणम्</text>
</g>
<!-- Node5_2 -->
<g id="node7" class="node">
<title>Node5_2</title>
<ellipse fill="#ffff00" stroke="#ffff00" cx="321" cy="-18" rx="42.49" ry="18"/>
<text text-anchor="middle" x="321" y="-14.3" font-family="Times,serif" font-size="14.00">एक&#45;(5.2)</text>
</g>
<!-- Node5_2&#45;&gt;Node5_3 -->
<g id="edge5" class="edge">
<title>Node5_2&#45;&gt;Node5_3</title>
<path fill="none" stroke="black" d="M311.42,-45.51C308.03,-53.38 303.84,-61.81 299,-69 294.46,-75.75 288.54,-82.35 282.92,-87.98"/>
<polygon fill="black" stroke="black" points="314.77,-46.57 315.26,-35.98 308.27,-43.95 314.77,-46.57"/>
<text text-anchor="middle" x="331.5" y="-57.8" font-family="Times,serif" font-size="14.00">कर्मधारयः</text>
</g>
</g>
</svg>
