<?xml version="1.0" encoding="UTF-8" standalone="no"?>
<!DOCTYPE svg PUBLIC "-//W3C//DTD SVG 1.1//EN"
 "http://www.w3.org/Graphics/SVG/1.1/DTD/svg11.dtd">
<!-- Generated by graphviz version 2.50.0 (20211204.2007)
 -->
<!-- Title: G Pages: 1 -->
<svg width="220pt" height="305pt"
 viewBox="0.00 0.00 220.20 305.00" xmlns="http://www.w3.org/2000/svg" xmlns:xlink="http://www.w3.org/1999/xlink">
<g id="graph0" class="graph" transform="scale(1 1) rotate(0) translate(4 301)">
<title>G</title>
<polygon fill="#fffacd" stroke="transparent" points="-4,4 -4,-301 216.2,-301 216.2,4 -4,4"/>
<g id="clust1" class="cluster">
<title>cluster_1</title>
<polygon fill="#fffacd" stroke="black" points="100.2,-79 100.2,-218 204.2,-218 204.2,-79 100.2,-79"/>
</g>
<!-- Node1_2 -->
<g id="node1" class="node">
<title>Node1_2</title>
<ellipse fill="#00bfff" stroke="#00bfff" cx="152.2" cy="-105" rx="44.39" ry="18"/>
<text text-anchor="middle" x="152.2" y="-101.3" font-family="Times,serif" font-size="14.00">एकम्(1.2)</text>
</g>
<!-- Node2_1 -->
<g id="node2" class="node">
<title>Node2_1</title>
<ellipse fill="#00bfff" stroke="#00bfff" cx="147.2" cy="-192" rx="37.89" ry="18"/>
<text text-anchor="middle" x="147.2" y="-188.3" font-family="Times,serif" font-size="14.00">तत्(2.1)</text>
</g>
<!-- Node1_2&#45;&gt;Node2_1 -->
<g id="edge2" class="edge">
<title>Node1_2&#45;&gt;Node2_1</title>
<path fill="none" stroke="black" d="M150.59,-133.27C149.81,-146.58 148.89,-162.19 148.21,-173.82"/>
<polygon fill="black" stroke="black" points="154.09,-133.39 151.18,-123.2 147.1,-132.98 154.09,-133.39"/>
<text text-anchor="middle" x="172.7" y="-144.8" font-family="Times,serif" font-size="14.00">विशेषणम्</text>
</g>
<!-- Node4_1 -->
<g id="node4" class="node">
<title>Node4_1</title>
<ellipse fill="#ff1975" stroke="#ff1975" cx="147.2" cy="-279" rx="50.89" ry="18"/>
<text text-anchor="middle" x="147.2" y="-275.3" font-family="Times,serif" font-size="14.00">(भवति)(4.1)</text>
</g>
<!-- Node2_1&#45;&gt;Node4_1 -->
<g id="edge3" class="edge">
<title>Node2_1&#45;&gt;Node4_1</title>
<path fill="none" stroke="black" d="M147.2,-220.27C147.2,-233.58 147.2,-249.19 147.2,-260.82"/>
<polygon fill="black" stroke="black" points="150.7,-220.2 147.2,-210.2 143.7,-220.2 150.7,-220.2"/>
<text text-anchor="middle" x="158.2" y="-231.8" font-family="Times,serif" font-size="14.00">कर्ता</text>
</g>
<!-- Node1_1 -->
<g id="node3" class="node">
<title>Node1_1</title>
<ellipse fill="#ffff00" stroke="#ffff00" cx="152.2" cy="-18" rx="43.59" ry="18"/>
<text text-anchor="middle" x="152.2" y="-14.3" font-family="Times,serif" font-size="14.00">प्रति&#45;(1.1)</text>
</g>
<!-- Node1_1&#45;&gt;Node1_2 -->
<g id="edge1" class="edge">
<title>Node1_1&#45;&gt;Node1_2</title>
<path fill="none" stroke="black" d="M152.2,-46.27C152.2,-59.58 152.2,-75.19 152.2,-86.82"/>
<polygon fill="black" stroke="black" points="155.7,-46.2 152.2,-36.2 148.7,-46.2 155.7,-46.2"/>
<text text-anchor="middle" x="181.2" y="-57.8" font-family="Times,serif" font-size="14.00">अव्ययीभावः</text>
</g>
<!-- Node3_1 -->
<g id="node5" class="node">
<title>Node3_1</title>
<ellipse fill="#ffff00" stroke="#ffff00" cx="44.2" cy="-18" rx="44.39" ry="18"/>
<text text-anchor="middle" x="44.2" y="-14.3" font-family="Times,serif" font-size="14.00">चतुः&#45;(3.1)</text>
</g>
<!-- Node3_2 -->
<g id="node6" class="node">
<title>Node3_2</title>
<ellipse fill="#00bfff" stroke="#00bfff" cx="44.2" cy="-105" rx="44.39" ry="18"/>
<text text-anchor="middle" x="44.2" y="-101.3" font-family="Times,serif" font-size="14.00">गुणम्(3.2)</text>
</g>
<!-- Node3_1&#45;&gt;Node3_2 -->
<g id="edge4" class="edge">
<title>Node3_1&#45;&gt;Node3_2</title>
<path fill="none" stroke="black" d="M44.2,-46.27C44.2,-59.58 44.2,-75.19 44.2,-86.82"/>
<polygon fill="black" stroke="black" points="47.7,-46.2 44.2,-36.2 40.7,-46.2 47.7,-46.2"/>
<text text-anchor="middle" x="80.7" y="-57.8" font-family="Times,serif" font-size="14.00">सप्तमी&#45;तत्पुरुषः</text>
</g>
<!-- Node3_2&#45;&gt;Node2_1 -->
<g id="edge5" class="edge">
<title>Node3_2&#45;&gt;Node2_1</title>
<path fill="none" stroke="black" d="M49.98,-132.87C52.84,-141.1 57.04,-149.65 63.2,-156 76.61,-169.84 96.31,-178.44 113.27,-183.65"/>
<polygon fill="black" stroke="black" points="53.3,-131.76 47.13,-123.15 46.59,-133.74 53.3,-131.76"/>
<text text-anchor="middle" x="104.2" y="-144.8" font-family="Times,serif" font-size="14.00">विधेय_विशेषणम्</text>
</g>
</g>
</svg>
