<?xml version="1.0" encoding="UTF-8" standalone="no"?>
<!DOCTYPE svg PUBLIC "-//W3C//DTD SVG 1.1//EN"
 "http://www.w3.org/Graphics/SVG/1.1/DTD/svg11.dtd">
<!-- Generated by graphviz version 2.50.0 (20211204.2007)
 -->
<!-- Title: G Pages: 1 -->
<svg width="444pt" height="408pt"
 viewBox="0.00 0.00 444.20 408.00" xmlns="http://www.w3.org/2000/svg" xmlns:xlink="http://www.w3.org/1999/xlink">
<g id="graph0" class="graph" transform="scale(1 1) rotate(0) translate(4 404)">
<title>G</title>
<polygon fill="#fffacd" stroke="transparent" points="-4,4 -4,-404 440.2,-404 440.2,4 -4,4"/>
<g id="clust1" class="cluster">
<title>cluster_1</title>
<polygon fill="#fffacd" stroke="black" points="17,-8 17,-147 125,-147 125,-8 17,-8"/>
</g>
<g id="clust2" class="cluster">
<title>cluster_2</title>
<polygon fill="#fffacd" stroke="black" points="8,-182 8,-321 134,-321 134,-182 8,-182"/>
</g>
<!-- Node1_1 -->
<g id="node1" class="node">
<title>Node1_1</title>
<ellipse fill="#93db70" stroke="#93db70" cx="70" cy="-34" rx="36.29" ry="18"/>
<text text-anchor="middle" x="70" y="-30.3" font-family="Times,serif" font-size="14.00">षट्(1.1)</text>
</g>
<!-- Node2_1 -->
<g id="node2" class="node">
<title>Node2_1</title>
<ellipse fill="#93db70" stroke="#93db70" cx="71" cy="-121" rx="46.29" ry="18"/>
<text text-anchor="middle" x="71" y="-117.3" font-family="Times,serif" font-size="14.00">द्रव्यम्(2.1)</text>
</g>
<!-- Node1_1&#45;&gt;Node2_1 -->
<g id="edge1" class="edge">
<title>Node1_1&#45;&gt;Node2_1</title>
<path fill="none" stroke="black" d="M70.32,-62.27C70.48,-75.58 70.66,-91.19 70.8,-102.82"/>
<polygon fill="black" stroke="black" points="73.82,-62.16 70.2,-52.2 66.82,-62.24 73.82,-62.16"/>
<text text-anchor="middle" x="94.5" y="-73.8" font-family="Times,serif" font-size="14.00">विशेषणम्</text>
</g>
<!-- Node3_1 -->
<g id="node3" class="node">
<title>Node3_1</title>
<ellipse fill="#00bfff" stroke="#00bfff" cx="71" cy="-208" rx="54.69" ry="18"/>
<text text-anchor="middle" x="71" y="-204.3" font-family="Times,serif" font-size="14.00">आश्रिताः(3.1)</text>
</g>
<!-- Node2_1&#45;&gt;Node3_1 -->
<g id="edge2" class="edge">
<title>Node2_1&#45;&gt;Node3_1</title>
<path fill="none" stroke="black" d="M71,-149.27C71,-162.58 71,-178.19 71,-189.82"/>
<polygon fill="black" stroke="black" points="74.5,-149.2 71,-139.2 67.5,-149.2 74.5,-149.2"/>
<text text-anchor="middle" x="80" y="-160.8" font-family="Times,serif" font-size="14.00">कर्म</text>
</g>
<!-- Node4_1 -->
<g id="node4" class="node">
<title>Node4_1</title>
<ellipse fill="#00bfff" stroke="#00bfff" cx="94" cy="-295" rx="32.49" ry="18"/>
<text text-anchor="middle" x="94" y="-291.3" font-family="Times,serif" font-size="14.00">ते(4.1)</text>
</g>
<!-- Node3_1&#45;&gt;Node4_1 -->
<g id="edge3" class="edge">
<title>Node3_1&#45;&gt;Node4_1</title>
<path fill="none" stroke="black" d="M78.29,-235.94C81.94,-249.43 86.25,-265.36 89.43,-277.11"/>
<polygon fill="black" stroke="black" points="81.64,-234.94 75.65,-226.2 74.89,-236.77 81.64,-234.94"/>
<text text-anchor="middle" x="107.5" y="-247.8" font-family="Times,serif" font-size="14.00">विशेषणम्</text>
</g>
<!-- Node8_1 -->
<g id="node5" class="node">
<title>Node8_1</title>
<ellipse fill="#ff1975" stroke="#ff1975" cx="191" cy="-382" rx="48.19" ry="18"/>
<text text-anchor="middle" x="191" y="-378.3" font-family="Times,serif" font-size="14.00">(सन्ति)(8.1)</text>
</g>
<!-- Node4_1&#45;&gt;Node8_1 -->
<g id="edge4" class="edge">
<title>Node4_1&#45;&gt;Node8_1</title>
<path fill="none" stroke="black" d="M118.74,-317.68C135.66,-332.51 157.71,-351.83 172.98,-365.21"/>
<polygon fill="black" stroke="black" points="120.72,-314.76 110.9,-310.81 116.11,-320.03 120.72,-314.76"/>
<text text-anchor="middle" x="159" y="-334.8" font-family="Times,serif" font-size="14.00">कर्ता</text>
</g>
<!-- Node5_1 -->
<g id="node6" class="node">
<title>Node5_1</title>
<ellipse fill="#ff99ff" stroke="#ff99ff" cx="177" cy="-208" rx="33.6" ry="18"/>
<text text-anchor="middle" x="177" y="-204.3" font-family="Times,serif" font-size="14.00">च(5.1)</text>
</g>
<!-- Node5_1&#45;&gt;Node4_1 -->
<g id="edge5" class="edge">
<title>Node5_1&#45;&gt;Node4_1</title>
<path fill="none" stroke="black" d="M158.44,-232.71C151.39,-241.27 143.11,-250.83 135,-259 127.88,-266.18 119.47,-273.53 112.13,-279.63"/>
<polygon fill="black" stroke="black" points="161.19,-234.87 164.77,-224.9 155.75,-230.47 161.19,-234.87"/>
<text text-anchor="middle" x="166.5" y="-247.8" font-family="Times,serif" font-size="14.00">सम्बन्धः</text>
</g>
<!-- Node6_1 -->
<g id="node7" class="node">
<title>Node6_1</title>
<ellipse fill="#ffff00" stroke="#ffff00" cx="392" cy="-208" rx="44.39" ry="18"/>
<text text-anchor="middle" x="392" y="-204.3" font-family="Times,serif" font-size="14.00">यथा&#45;(6.1)</text>
</g>
<!-- Node6_2 -->
<g id="node8" class="node">
<title>Node6_2</title>
<ellipse fill="#ff99ff" stroke="#ff99ff" cx="289" cy="-295" rx="42.49" ry="18"/>
<text text-anchor="middle" x="289" y="-291.3" font-family="Times,serif" font-size="14.00">पूर्वम्(6.2)</text>
</g>
<!-- Node6_1&#45;&gt;Node6_2 -->
<g id="edge6" class="edge">
<title>Node6_1&#45;&gt;Node6_2</title>
<path fill="none" stroke="black" d="M371.24,-232.92C363.16,-241.59 353.55,-251.18 344,-259 334.54,-266.75 323.28,-274.18 313.41,-280.2"/>
<polygon fill="black" stroke="black" points="374.04,-235.03 378.19,-225.28 368.87,-230.32 374.04,-235.03"/>
<text text-anchor="middle" x="388" y="-247.8" font-family="Times,serif" font-size="14.00">अव्ययीभावः</text>
</g>
<!-- Node6_2&#45;&gt;Node8_1 -->
<g id="edge7" class="edge">
<title>Node6_2&#45;&gt;Node8_1</title>
<path fill="none" stroke="black" d="M263.13,-318.44C246.15,-333.17 224.36,-352.07 209.19,-365.22"/>
<polygon fill="black" stroke="black" points="265.76,-320.79 271.03,-311.59 261.18,-315.5 265.76,-320.79"/>
<text text-anchor="middle" x="281.5" y="-334.8" font-family="Times,serif" font-size="14.00">क्रियाविशेषणम्</text>
</g>
<!-- Node7_1 -->
<g id="node9" class="node">
<title>Node7_1</title>
<ellipse fill="#ffff00" stroke="#ffff00" cx="279" cy="-121" rx="42.49" ry="18"/>
<text text-anchor="middle" x="279" y="-117.3" font-family="Times,serif" font-size="14.00">बल&#45;(7.1)</text>
</g>
<!-- Node7_2 -->
<g id="node10" class="node">
<title>Node7_2</title>
<ellipse fill="#00bfff" stroke="#00bfff" cx="279" cy="-208" rx="50.89" ry="18"/>
<text text-anchor="middle" x="279" y="-204.3" font-family="Times,serif" font-size="14.00">आवहाः(7.2)</text>
</g>
<!-- Node7_1&#45;&gt;Node7_2 -->
<g id="edge8" class="edge">
<title>Node7_1&#45;&gt;Node7_2</title>
<path fill="none" stroke="black" d="M279,-149.27C279,-162.58 279,-178.19 279,-189.82"/>
<polygon fill="black" stroke="black" points="282.5,-149.2 279,-139.2 275.5,-149.2 282.5,-149.2"/>
<text text-anchor="middle" x="314" y="-160.8" font-family="Times,serif" font-size="14.00">उपपद&#45;तत्पुरुषः</text>
</g>
<!-- Node7_2&#45;&gt;Node4_1 -->
<g id="edge9" class="edge">
<title>Node7_2&#45;&gt;Node4_1</title>
<path fill="none" stroke="black" d="M245.86,-229.02C229.13,-238.71 208.33,-250.13 189,-259 166.79,-269.19 140.69,-278.63 121.48,-285.13"/>
<polygon fill="black" stroke="black" points="247.84,-231.92 254.7,-223.84 244.3,-225.88 247.84,-231.92"/>
<text text-anchor="middle" x="257" y="-247.8" font-family="Times,serif" font-size="14.00">विधेय_विशेषणम्</text>
</g>
</g>
</svg>
