<svg width="159pt" height="131pt"
 viewBox="0.00 0.00 159.00 131.00" xmlns="http://www.w3.org/2000/svg" xmlns:xlink="http://www.w3.org/1999/xlink">
<g id="graph0" class="graph" transform="scale(1 1) rotate(0) translate(4 127)">
<title>G</title>
<polygon fill="#fffacd" stroke="transparent" points="-4,4 -4,-127 155,-127 155,4 -4,4"/>
<!-- Node1_1 -->
<style>
 .hidden { display: none; }
 .node { cursor: pointer; }
 </style>
<script>
     function toggleChildren(id) {
      const children = document.getElementById(id);
      if (children.classList.contains('hidden')) {
        children.classList.remove('hidden');
      } else {
        children.classList.add('hidden');
      }
    }
</script>

<g id="node1" class="node">
<title>Node1_1</title>
<polygon fill="#00bfff" stroke="#00bfff" points="100,-123 44,-123 44,-87 100,-87 100,-123"/>
<text text-anchor="middle" x="72" y="-101.3" font-family="Times,serif" font-size="14.00">वृद्धिः(1)</text>
</g>
<!-- Node2_1 -->
<g id="node2" class="node">
<title>Node2_1</title>
<polygon fill="#40e0d0" stroke="#40e0d0" points="62,-36 0,-36 0,0 62,0 62,-36"/>
<text text-anchor="middle" x="31" y="-14.3" font-family="Times,serif" font-size="14.00">समानैः(2)</text>
</g>
<!-- Node2_1&#45;&gt;Node1_1 -->
<g id="edge1" class="edge">
<title>Node2_1&#45;&gt;Node1_1</title>
<path fill="none" stroke="black" d="M43.77,-45.48C50.28,-58.96 57.99,-74.96 63.72,-86.82"/>
<polygon fill="black" stroke="black" points="46.79,-43.69 39.3,-36.2 40.49,-46.73 46.79,-43.69"/>
<text text-anchor="middle" x="63.5" y="-57.8" font-family="Times,serif" font-size="14.00">हेतुः</text>
</g>
<!-- Node3_1 -->
<g id="node3" class="node">
<title>Node3_1</title>
<polygon fill="#87ceeb" stroke="#87ceeb" points="147.5,-36 80.5,-36 80.5,0 147.5,0 147.5,-36"/>
<text text-anchor="middle" x="114" y="-14.3" font-family="Times,serif" font-size="14.00">सर्वेषाम्(3)</text>
</g>
<!-- Node3_1&#45;&gt;Node1_1 -->
<g id="edge2" class="edge">
<title>Node3_1&#45;&gt;Node1_1</title>
<path fill="none" stroke="black" d="M100.92,-45.48C94.25,-58.96 86.35,-74.96 80.49,-86.82"/>
<polygon fill="black" stroke="black" points="104.21,-46.72 105.5,-36.2 97.93,-43.62 104.21,-46.72"/>
<text text-anchor="middle" x="123" y="-57.8" font-family="Times,serif" font-size="14.00">षष्ठीसम्बन्धः</text>
</g>
</g>
</svg>
