<?xml version="1.0" encoding="UTF-8" standalone="no"?>
<!DOCTYPE svg PUBLIC "-//W3C//DTD SVG 1.1//EN"
 "http://www.w3.org/Graphics/SVG/1.1/DTD/svg11.dtd">
<!-- Generated by graphviz version 2.50.0 (20211204.2007)
 -->
<!-- Title: G Pages: 1 -->
<svg width="570pt" height="392pt"
 viewBox="0.00 0.00 569.75 392.00" xmlns="http://www.w3.org/2000/svg" xmlns:xlink="http://www.w3.org/1999/xlink">
<g id="graph0" class="graph" transform="scale(1 1) rotate(0) translate(4 388)">
<title>G</title>
<polygon fill="#fffacd" stroke="transparent" points="-4,4 -4,-388 565.75,-388 565.75,4 -4,4"/>
<g id="clust1" class="cluster">
<title>cluster_1</title>
<polygon fill="#fffacd" stroke="black" points="424.75,-79 424.75,-218 546.75,-218 546.75,-79 424.75,-79"/>
</g>
<g id="clust2" class="cluster">
<title>cluster_2</title>
<polygon fill="#fffacd" stroke="black" points="79.75,-79 79.75,-218 201.75,-218 201.75,-79 79.75,-79"/>
</g>
<g id="clust3" class="cluster">
<title>cluster_3</title>
<polygon fill="#fffacd" stroke="black" points="284.75,-79 284.75,-218 416.75,-218 416.75,-79 284.75,-79"/>
</g>
<!-- Node2_2 -->
<g id="node1" class="node">
<title>Node2_2</title>
<ellipse fill="#00bfff" stroke="#00bfff" cx="485.75" cy="-105" rx="50.89" ry="18"/>
<text text-anchor="middle" x="485.75" y="-101.3" font-family="Times,serif" font-size="14.00">भूयिष्ठम्(2.2)</text>
</g>
<!-- Node1_1 -->
<g id="node2" class="node">
<title>Node1_1</title>
<ellipse fill="#00bfff" stroke="#00bfff" cx="485.75" cy="-192" rx="52.79" ry="18"/>
<text text-anchor="middle" x="485.75" y="-188.3" font-family="Times,serif" font-size="14.00">जाङ्गलम्(1.1)</text>
</g>
<!-- Node2_2&#45;&gt;Node1_1 -->
<g id="edge3" class="edge">
<title>Node2_2&#45;&gt;Node1_1</title>
<path fill="none" stroke="black" d="M485.75,-133.27C485.75,-146.58 485.75,-162.19 485.75,-173.82"/>
<polygon fill="black" stroke="black" points="489.25,-133.2 485.75,-123.2 482.25,-133.2 489.25,-133.2"/>
<text text-anchor="middle" x="509.25" y="-144.8" font-family="Times,serif" font-size="14.00">विशेषणम्</text>
</g>
<!-- Node8_1 -->
<g id="node7" class="node">
<title>Node8_1</title>
<ellipse fill="#ff99ff" stroke="#ff99ff" cx="281.75" cy="-279" rx="42.79" ry="18"/>
<text text-anchor="middle" x="281.75" y="-275.3" font-family="Times,serif" font-size="14.00">त्रिधा(8.1)</text>
</g>
<!-- Node1_1&#45;&gt;Node8_1 -->
<g id="edge1" class="edge">
<title>Node1_1&#45;&gt;Node8_1</title>
<path fill="none" stroke="black" d="M443.81,-210.48C404.3,-226.94 346.11,-251.18 311.27,-265.7"/>
<polygon fill="black" stroke="black" points="445.54,-213.55 453.42,-206.47 442.85,-207.08 445.54,-213.55"/>
<text text-anchor="middle" x="410.25" y="-231.8" font-family="Times,serif" font-size="14.00">घटकः</text>
</g>
<!-- Node5_2 -->
<g id="node3" class="node">
<title>Node5_2</title>
<ellipse fill="#00bfff" stroke="#00bfff" cx="140.75" cy="-105" rx="53.09" ry="18"/>
<text text-anchor="middle" x="140.75" y="-101.3" font-family="Times,serif" font-size="14.00">उल्बणम्(5.2)</text>
</g>
<!-- Node3_1 -->
<g id="node4" class="node">
<title>Node3_1</title>
<ellipse fill="#00bfff" stroke="#00bfff" cx="145.75" cy="-192" rx="48.19" ry="18"/>
<text text-anchor="middle" x="145.75" y="-188.3" font-family="Times,serif" font-size="14.00">अनूपम्(3.1)</text>
</g>
<!-- Node5_2&#45;&gt;Node3_1 -->
<g id="edge7" class="edge">
<title>Node5_2&#45;&gt;Node3_1</title>
<path fill="none" stroke="black" d="M142.35,-133.27C143.13,-146.58 144.05,-162.19 144.74,-173.82"/>
<polygon fill="black" stroke="black" points="145.84,-132.98 141.76,-123.2 138.85,-133.39 145.84,-132.98"/>
<text text-anchor="middle" x="166.25" y="-144.8" font-family="Times,serif" font-size="14.00">विशेषणम्</text>
</g>
<!-- Node3_1&#45;&gt;Node8_1 -->
<g id="edge4" class="edge">
<title>Node3_1&#45;&gt;Node8_1</title>
<path fill="none" stroke="black" d="M186.03,-209.94C197.23,-215.21 209.21,-221.39 219.75,-228 235.91,-238.14 252.67,-251.88 264.68,-262.39"/>
<polygon fill="black" stroke="black" points="187.4,-206.72 176.85,-205.74 184.48,-213.08 187.4,-206.72"/>
<text text-anchor="middle" x="253.25" y="-231.8" font-family="Times,serif" font-size="14.00">घटकः</text>
</g>
<!-- Node7_2 -->
<g id="node5" class="node">
<title>Node7_2</title>
<ellipse fill="#00bfff" stroke="#00bfff" cx="350.75" cy="-105" rx="44.39" ry="18"/>
<text text-anchor="middle" x="350.75" y="-101.3" font-family="Times,serif" font-size="14.00">मलम्(7.2)</text>
</g>
<!-- Node6_1 -->
<g id="node6" class="node">
<title>Node6_1</title>
<ellipse fill="#00bfff" stroke="#00bfff" cx="350.75" cy="-192" rx="58.49" ry="18"/>
<text text-anchor="middle" x="350.75" y="-188.3" font-family="Times,serif" font-size="14.00">साधारणम्(6.1)</text>
</g>
<!-- Node7_2&#45;&gt;Node6_1 -->
<g id="edge10" class="edge">
<title>Node7_2&#45;&gt;Node6_1</title>
<path fill="none" stroke="black" d="M350.75,-133.27C350.75,-146.58 350.75,-162.19 350.75,-173.82"/>
<polygon fill="black" stroke="black" points="354.25,-133.2 350.75,-123.2 347.25,-133.2 354.25,-133.2"/>
<text text-anchor="middle" x="374.25" y="-144.8" font-family="Times,serif" font-size="14.00">विशेषणम्</text>
</g>
<!-- Node6_1&#45;&gt;Node8_1 -->
<g id="edge8" class="edge">
<title>Node6_1&#45;&gt;Node8_1</title>
<path fill="none" stroke="black" d="M330.68,-217.72C319.15,-231.92 305,-249.36 294.88,-261.82"/>
<polygon fill="black" stroke="black" points="333.53,-219.76 337.11,-209.79 328.09,-215.35 333.53,-219.76"/>
<text text-anchor="middle" x="334.25" y="-231.8" font-family="Times,serif" font-size="14.00">घटकः</text>
</g>
<!-- Node10_1 -->
<g id="node12" class="node">
<title>Node10_1</title>
<ellipse fill="#ff1975" stroke="#ff1975" cx="205.75" cy="-366" rx="59.29" ry="18"/>
<text text-anchor="middle" x="205.75" y="-362.3" font-family="Times,serif" font-size="14.00">आदिशेत्(10.1)</text>
</g>
<!-- Node8_1&#45;&gt;Node10_1 -->
<g id="edge11" class="edge">
<title>Node8_1&#45;&gt;Node10_1</title>
<path fill="none" stroke="black" d="M260.73,-303.5C247.95,-317.8 231.94,-335.71 220.5,-348.5"/>
<polygon fill="black" stroke="black" points="263.4,-305.78 267.45,-295.99 258.18,-301.11 263.4,-305.78"/>
<text text-anchor="middle" x="284.25" y="-318.8" font-family="Times,serif" font-size="14.00">क्रियाविशेषणम्</text>
</g>
<!-- Node2_1 -->
<g id="node8" class="node">
<title>Node2_1</title>
<ellipse fill="#ffff00" stroke="#ffff00" cx="485.75" cy="-18" rx="42.79" ry="18"/>
<text text-anchor="middle" x="485.75" y="-14.3" font-family="Times,serif" font-size="14.00">वात&#45;(2.1)</text>
</g>
<!-- Node2_1&#45;&gt;Node2_2 -->
<g id="edge2" class="edge">
<title>Node2_1&#45;&gt;Node2_2</title>
<path fill="none" stroke="black" d="M485.75,-46.27C485.75,-59.58 485.75,-75.19 485.75,-86.82"/>
<polygon fill="black" stroke="black" points="489.25,-46.2 485.75,-36.2 482.25,-46.2 489.25,-46.2"/>
<text text-anchor="middle" x="523.75" y="-57.8" font-family="Times,serif" font-size="14.00">सप्तमी&#45;बहुव्रीहिः</text>
</g>
<!-- Node4_1 -->
<g id="node9" class="node">
<title>Node4_1</title>
<ellipse fill="#ff99ff" stroke="#ff99ff" cx="244.75" cy="-105" rx="32.49" ry="18"/>
<text text-anchor="middle" x="244.75" y="-101.3" font-family="Times,serif" font-size="14.00">तु(4.1)</text>
</g>
<!-- Node4_1&#45;&gt;Node3_1 -->
<g id="edge5" class="edge">
<title>Node4_1&#45;&gt;Node3_1</title>
<path fill="none" stroke="black" d="M222.86,-128.84C214.08,-137.63 203.7,-147.57 193.75,-156 185.56,-162.93 176.11,-170.01 167.76,-175.97"/>
<polygon fill="black" stroke="black" points="225.59,-131.05 230.12,-121.47 220.6,-126.14 225.59,-131.05"/>
<text text-anchor="middle" x="228.25" y="-144.8" font-family="Times,serif" font-size="14.00">सम्बन्धः</text>
</g>
<!-- Node5_1 -->
<g id="node10" class="node">
<title>Node5_1</title>
<ellipse fill="#ffff00" stroke="#ffff00" cx="140.75" cy="-18" rx="44.39" ry="18"/>
<text text-anchor="middle" x="140.75" y="-14.3" font-family="Times,serif" font-size="14.00">कफ&#45;(5.1)</text>
</g>
<!-- Node5_1&#45;&gt;Node5_2 -->
<g id="edge6" class="edge">
<title>Node5_1&#45;&gt;Node5_2</title>
<path fill="none" stroke="black" d="M140.75,-46.27C140.75,-59.58 140.75,-75.19 140.75,-86.82"/>
<polygon fill="black" stroke="black" points="144.25,-46.2 140.75,-36.2 137.25,-46.2 144.25,-46.2"/>
<text text-anchor="middle" x="178.75" y="-57.8" font-family="Times,serif" font-size="14.00">सप्तमी&#45;बहुव्रीहिः</text>
</g>
<!-- Node7_1 -->
<g id="node11" class="node">
<title>Node7_1</title>
<ellipse fill="#ffff00" stroke="#ffff00" cx="350.75" cy="-18" rx="40.89" ry="18"/>
<text text-anchor="middle" x="350.75" y="-14.3" font-family="Times,serif" font-size="14.00">सम&#45;(7.1)</text>
</g>
<!-- Node7_1&#45;&gt;Node7_2 -->
<g id="edge9" class="edge">
<title>Node7_1&#45;&gt;Node7_2</title>
<path fill="none" stroke="black" d="M350.75,-46.27C350.75,-59.58 350.75,-75.19 350.75,-86.82"/>
<polygon fill="black" stroke="black" points="354.25,-46.2 350.75,-36.2 347.25,-46.2 354.25,-46.2"/>
<text text-anchor="middle" x="388.75" y="-57.8" font-family="Times,serif" font-size="14.00">सप्तमी&#45;बहुव्रीहिः</text>
</g>
<!-- Node9_1 -->
<g id="node13" class="node">
<title>Node9_1</title>
<ellipse fill="#ffff00" stroke="#ffff00" cx="35.75" cy="-192" rx="36" ry="18"/>
<text text-anchor="middle" x="35.75" y="-188.3" font-family="Times,serif" font-size="14.00">भू&#45;(9.1)</text>
</g>
<!-- Node9_2 -->
<g id="node14" class="node">
<title>Node9_2</title>
<ellipse fill="#00bfff" stroke="#00bfff" cx="154.75" cy="-279" rx="43.59" ry="18"/>
<text text-anchor="middle" x="154.75" y="-275.3" font-family="Times,serif" font-size="14.00">देशम्(9.2)</text>
</g>
<!-- Node9_1&#45;&gt;Node9_2 -->
<g id="edge12" class="edge">
<title>Node9_1&#45;&gt;Node9_2</title>
<path fill="none" stroke="black" d="M59,-215.34C69,-224.42 81.06,-234.71 92.75,-243 103.94,-250.94 117.08,-258.57 128.38,-264.67"/>
<polygon fill="black" stroke="black" points="61.19,-212.6 51.47,-208.38 56.44,-217.74 61.19,-212.6"/>
<text text-anchor="middle" x="156.25" y="-231.8" font-family="Times,serif" font-size="14.00">सम्भावना&#45;पूर्वपद&#45;कर्मधारयः</text>
</g>
<!-- Node9_2&#45;&gt;Node10_1 -->
<g id="edge13" class="edge">
<title>Node9_2&#45;&gt;Node10_1</title>
<path fill="none" stroke="black" d="M169.99,-305.4C178.3,-319.26 188.36,-336.03 195.69,-348.24"/>
<polygon fill="black" stroke="black" points="172.97,-303.57 164.82,-296.79 166.97,-307.17 172.97,-303.57"/>
<text text-anchor="middle" x="193.75" y="-318.8" font-family="Times,serif" font-size="14.00">कर्ता</text>
</g>
</g>
</svg>
