<svg width="320pt" height="350pt"
 viewBox="0.00 0.00 319.50 350.00" xmlns="http://www.w3.org/2000/svg" xmlns:xlink="http://www.w3.org/1999/xlink">
<g id="graph0" class="graph" transform="scale(1 1) rotate(0) translate(4 346)">
<title>G</title>
<polygon fill="#fffacd" stroke="transparent" points="-4,4 -4,-346 315.5,-346 315.5,4 -4,4"/>
<!-- Node2_2 -->
<style>
 .hidden { display: none; }
 .node { cursor: pointer; }
 </style>
<script>
     function toggleChildren(id) {
      const children = document.getElementById(id);
      if (children.classList.contains('hidden')) {
        children.classList.remove('hidden');
      } else {
        children.classList.add('hidden');
      }
    }
</script>
<g id="children_node0_65505" class="hidden">
    <g class="node" onclick="toggleChildren('children_node0_65505');">
</g>
</g>
<g id="children_node1_65505" class="hidden">
    <g class="node" onclick="toggleChildren('children_node1_65505');">

<g id="node1" class="node">
<title>Node2_2</title>
<polygon fill="#ffff00" stroke="#ffff00" points="199.5,-36 144.5,-36 144.5,0 199.5,0 199.5,-36"/>
<text text-anchor="middle" x="172" y="-14.3" font-family="Times,serif" font-size="14.00">सङ्क्षेप&#45;</text>
</g>
<!-- Node2_3 -->
<g id="node2" class="node">
<title>Node2_3</title>
<polygon fill="#ffff00" stroke="#ffff00" points="289,-36 235,-36 235,0 289,0 289,-36"/>
<text text-anchor="middle" x="262" y="-14.3" font-family="Times,serif" font-size="14.00">विस्तरम्</text>
</g>
<!-- Node2_2&#45;&gt;Node2_3 -->
<!-- Node2_3_1 -->
<g id="node3" class="node">
<title>Node2_3_1</title>
<polygon fill="#ffff00" stroke="#ffff00" points="311.5,-109 138.5,-109 138.5,-73 311.5,-73 311.5,-109"/>
<text text-anchor="middle" x="225" y="-87.3" font-family="Times,serif" font-size="14.00">&lt;सङ्क्षेप&#45;विस्तरम्&gt;(इतरेतर&#45;द्वन्द्वः)</text>
</g>
<!-- Node2_2&#45;&gt;Node2_3_1 -->
<g id="edge2" class="edge">
<title>Node2_2&#45;&gt;Node2_3_1</title>
<path fill="none" stroke="black" d="M190.82,-44.21C197.94,-53.74 205.86,-64.36 212.29,-72.97"/>
<polygon fill="black" stroke="black" points="193.62,-42.11 184.83,-36.19 188.01,-46.29 193.62,-42.11"/>
</g>
<!-- Node2_3&#45;&gt;Node2_3_1 -->
<g id="edge1" class="edge">
<title>Node2_3&#45;&gt;Node2_3_1</title>
<path fill="none" stroke="black" d="M248.41,-45.08C243.56,-54.39 238.22,-64.62 233.87,-72.97"/>
<polygon fill="black" stroke="black" points="251.53,-46.67 253.04,-36.19 245.32,-43.44 251.53,-46.67"/>
</g>
<!-- Node2_3_2 -->
<g id="node5" class="node">
<title>Node2_3_2</title>
<polygon fill="#ffff00" stroke="#ffff00" points="300,-182 0,-182 0,-146 300,-146 300,-182"/>
<text text-anchor="middle" x="150" y="-160.3" font-family="Times,serif" font-size="14.00">&lt;अति&#45;&lt;सङ्क्षेप&#45;विस्तरम्&gt;(इतरेतर&#45;द्वन्द्वः)&gt;(सप्तमी&#45;बहुव्रीहिः)</text>
</g>
<!-- Node2_3_1&#45;&gt;Node2_3_2 -->
<g id="edge4" class="edge">
<title>Node2_3_1&#45;&gt;Node2_3_2</title>
<path fill="none" stroke="black" d="M199.28,-116.35C188.98,-126.1 177.36,-137.1 167.99,-145.97"/>
<polygon fill="black" stroke="black" points="201.99,-118.6 206.84,-109.19 197.18,-113.52 201.99,-118.6"/>
</g>
<!-- Node2_1 -->
<g id="node4" class="node">
<title>Node2_1</title>
<polygon fill="#ffff00" stroke="#ffff00" points="103,-109 49,-109 49,-73 103,-73 103,-109"/>
<text text-anchor="middle" x="76" y="-87.3" font-family="Times,serif" font-size="14.00">अति&#45;</text>
</g>
<!-- Node2_1&#45;&gt;Node2_3_1 -->
<!-- Node2_1&#45;&gt;Node2_3_2 -->
<g id="edge5" class="edge">
<title>Node2_1&#45;&gt;Node2_3_2</title>
<path fill="none" stroke="black" d="M101.37,-116.35C111.54,-126.1 123.01,-137.1 132.25,-145.97"/>
<polygon fill="black" stroke="black" points="103.55,-113.58 93.91,-109.19 98.71,-118.64 103.55,-113.58"/>
</g>
<!-- Node2_3_2&#45;&gt;Node2_3_2c -->
<g id="edge7" class="edge">
<title>Node2_3_2&#45;&gt;Node2_3_2c</title>
<path fill="none" stroke="black" d="M150,-192.25C150,-201.23 150,-210.97 150,-218.97"/>
<polygon fill="black" stroke="black" points="153.5,-192.19 150,-182.19 146.5,-192.19 153.5,-192.19"/>
</g>
</g>
</g>
<!-- Node2_3_2c -->
<g class="node6" onclick="toggleChildren('children_node1_65505');">
<title>Node2_3_2c</title>
<polygon fill="#00bfff" stroke="#00bfff" points="216,-255 84,-255 84,-219 216,-219 216,-255"/>
<text text-anchor="middle" x="150" y="-233.3" font-family="Times,serif" font-size="14.00">अति&#45;सङ्क्षेप&#45;विस्तरम्(2)</text>
</g>
<!-- Node3_1 -->
<g id="node8" class="node">
<title>Node3_1</title>
<polygon fill="#ff1975" stroke="#ff1975" points="241.5,-342 170.5,-342 170.5,-306 241.5,-306 241.5,-342"/>
<text text-anchor="middle" x="206" y="-320.3" font-family="Times,serif" font-size="14.00">(क्रियते)(3)</text>
</g>
<!-- Node2_3_2c&#45;&gt;Node3_1 -->
<g id="edge8" class="edge">
<title>Node2_3_2c&#45;&gt;Node3_1</title>
<path fill="none" stroke="black" d="M150.54,-265.46C151.68,-273.18 153.9,-281.3 158,-288 162.2,-294.86 168.3,-300.79 174.75,-305.72"/>
<polygon fill="black" stroke="black" points="154.01,-264.95 149.57,-255.33 147.04,-265.62 154.01,-264.95"/>
<text text-anchor="middle" x="194.5" y="-276.8" font-family="Times,serif" font-size="14.00">क्रियाविशेषणम्</text>
</g>
<!-- Node1_1 -->
<g id="node7" class="node">
<title>Node1_1</title>
<polygon fill="#ff99ff" stroke="#ff99ff" points="288,-255 234,-255 234,-219 288,-219 288,-255"/>
<text text-anchor="middle" x="261" y="-233.3" font-family="Times,serif" font-size="14.00">न(1)</text>
</g>
<!-- Node1_1&#45;&gt;Node3_1 -->
<g id="edge9" class="edge">
<title>Node1_1&#45;&gt;Node3_1</title>
<path fill="none" stroke="black" d="M248.65,-264.29C244.63,-272.12 239.92,-280.58 235,-288 230.99,-294.05 226.11,-300.27 221.51,-305.76"/>
<polygon fill="black" stroke="black" points="251.87,-265.68 253.19,-255.17 245.6,-262.57 251.87,-265.68"/>
<text text-anchor="middle" x="264" y="-276.8" font-family="Times,serif" font-size="14.00">प्रतिषेधः</text>
</g>
</g>
</svg>
