<?xml version="1.0" encoding="UTF-8" standalone="no"?>
<!DOCTYPE svg PUBLIC "-//W3C//DTD SVG 1.1//EN"
 "http://www.w3.org/Graphics/SVG/1.1/DTD/svg11.dtd">
<!-- Generated by graphviz version 2.50.0 (20211204.2007)
 -->
<!-- Title: G Pages: 1 -->
<svg width="357pt" height="408pt"
 viewBox="0.00 0.00 357.35 408.00" xmlns="http://www.w3.org/2000/svg" xmlns:xlink="http://www.w3.org/1999/xlink">
<g id="graph0" class="graph" transform="scale(1 1) rotate(0) translate(4 404)">
<title>G</title>
<polygon fill="#fffacd" stroke="transparent" points="-4,4 -4,-404 353.35,-404 353.35,4 -4,4"/>
<g id="clust1" class="cluster">
<title>cluster_1</title>
<polygon fill="#fffacd" stroke="black" points="140.35,-253 140.35,-392 260.35,-392 260.35,-253 140.35,-253"/>
</g>
<!-- Node6_1 -->
<g id="node1" class="node">
<title>Node6_1</title>
<ellipse fill="#ff1975" stroke="#ff1975" cx="200.35" cy="-279" rx="51.99" ry="18"/>
<text text-anchor="middle" x="200.35" y="-275.3" font-family="Times,serif" font-size="14.00">वर्तयन्ति(6.1)</text>
</g>
<!-- Node4_1 -->
<g id="node2" class="node">
<title>Node4_1</title>
<ellipse fill="#ff1975" stroke="#ff1975" cx="193.35" cy="-366" rx="45.49" ry="18"/>
<text text-anchor="middle" x="193.35" y="-362.3" font-family="Times,serif" font-size="14.00">घ्नन्ति(4.1)</text>
</g>
<!-- Node6_1&#45;&gt;Node4_1 -->
<g id="edge9" class="edge">
<title>Node6_1&#45;&gt;Node4_1</title>
<path fill="none" stroke="black" d="M198.1,-307.27C197,-320.58 195.72,-336.19 194.76,-347.82"/>
<polygon fill="black" stroke="black" points="201.6,-307.45 198.93,-297.2 194.62,-306.88 201.6,-307.45"/>
<text text-anchor="middle" x="218.85" y="-318.8" font-family="Times,serif" font-size="14.00">समुच्चितः</text>
</g>
<!-- Node1_1 -->
<g id="node3" class="node">
<title>Node1_1</title>
<ellipse fill="#ffff00" stroke="#ffff00" cx="131.35" cy="-18" rx="49.29" ry="18"/>
<text text-anchor="middle" x="131.35" y="-14.3" font-family="Times,serif" font-size="14.00">विकृत&#45;(1.1)</text>
</g>
<!-- Node3_1 -->
<g id="node4" class="node">
<title>Node3_1</title>
<ellipse fill="#00bfff" stroke="#00bfff" cx="38.35" cy="-279" rx="38.19" ry="18"/>
<text text-anchor="middle" x="38.35" y="-275.3" font-family="Times,serif" font-size="14.00">(ते)(3.1)</text>
</g>
<!-- Node1_1&#45;&gt;Node3_1 -->
<g id="edge1" class="edge">
<title>Node1_1&#45;&gt;Node3_1</title>
<path fill="none" stroke="black" d="M117.43,-44.7C101.6,-74.89 75.93,-126.83 60.35,-174 50.51,-203.79 44.03,-239.88 40.8,-260.76"/>
<polygon fill="black" stroke="black" points="120.61,-46.18 122.2,-35.7 114.42,-42.9 120.61,-46.18"/>
<text text-anchor="middle" x="90.85" y="-144.8" font-family="Times,serif" font-size="14.00">परामर्शः</text>
</g>
<!-- Node1_3 -->
<g id="node5" class="node">
<title>Node1_3</title>
<ellipse fill="#00bfff" stroke="#00bfff" cx="240.35" cy="-105" rx="51.19" ry="18"/>
<text text-anchor="middle" x="240.35" y="-101.3" font-family="Times,serif" font-size="14.00">विकृताः(1.3)</text>
</g>
<!-- Node1_1&#45;&gt;Node1_3 -->
<g id="edge2" class="edge">
<title>Node1_1&#45;&gt;Node1_3</title>
<path fill="none" stroke="black" stroke-dasharray="1,5" d="M151.39,-43.22C159.27,-51.93 168.73,-61.46 178.35,-69 188.46,-76.93 200.59,-84.2 211.43,-90.03"/>
<polygon fill="black" stroke="black" points="153.87,-40.73 144.64,-35.53 148.61,-45.35 153.87,-40.73"/>
<text text-anchor="middle" x="207.35" y="-57.8" font-family="Times,serif" font-size="14.00">इतरेतर&#45;द्वन्द्वः</text>
</g>
<!-- Node3_1&#45;&gt;Node4_1 -->
<g id="edge7" class="edge">
<title>Node3_1&#45;&gt;Node4_1</title>
<path fill="none" stroke="black" d="M52.86,-305.25C59.08,-314.17 67.07,-323.57 76.35,-330 98.57,-345.39 127.68,-354.13 151.3,-359.03"/>
<polygon fill="black" stroke="black" points="55.63,-303.09 47.24,-296.62 49.76,-306.91 55.63,-303.09"/>
<text text-anchor="middle" x="87.35" y="-318.8" font-family="Times,serif" font-size="14.00">कर्ता</text>
</g>
<!-- Node5_1 -->
<g id="node7" class="node">
<title>Node5_1</title>
<ellipse fill="#00bfff" stroke="#00bfff" cx="295.35" cy="-192" rx="32.49" ry="18"/>
<text text-anchor="middle" x="295.35" y="-188.3" font-family="Times,serif" font-size="14.00">ते(5.1)</text>
</g>
<!-- Node1_3&#45;&gt;Node5_1 -->
<g id="edge4" class="edge">
<title>Node1_3&#45;&gt;Node5_1</title>
<path fill="none" stroke="black" d="M256.86,-131.52C265.95,-145.57 276.97,-162.59 284.88,-174.82"/>
<polygon fill="black" stroke="black" points="259.58,-129.29 251.21,-122.79 253.71,-133.09 259.58,-129.29"/>
<text text-anchor="middle" x="288.85" y="-144.8" font-family="Times,serif" font-size="14.00">परामर्शः</text>
</g>
<!-- Node1_2 -->
<g id="node6" class="node">
<title>Node1_2</title>
<ellipse fill="#ffff00" stroke="#ffff00" cx="240.35" cy="-18" rx="37.09" ry="18"/>
<text text-anchor="middle" x="240.35" y="-14.3" font-family="Times,serif" font-size="14.00">अ&#45;(1.2)</text>
</g>
<!-- Node1_2&#45;&gt;Node1_3 -->
<g id="edge3" class="edge">
<title>Node1_2&#45;&gt;Node1_3</title>
<path fill="none" stroke="black" d="M240.35,-46.27C240.35,-59.58 240.35,-75.19 240.35,-86.82"/>
<polygon fill="black" stroke="black" points="243.85,-46.2 240.35,-36.2 236.85,-46.2 243.85,-46.2"/>
<text text-anchor="middle" x="269.35" y="-57.8" font-family="Times,serif" font-size="14.00">नञ्&#45;तत्पुरुषः</text>
</g>
<!-- Node5_1&#45;&gt;Node6_1 -->
<g id="edge8" class="edge">
<title>Node5_1&#45;&gt;Node6_1</title>
<path fill="none" stroke="black" d="M291.73,-220.01C289.53,-228.15 286.01,-236.61 280.35,-243 270.09,-254.57 255.31,-262.48 241.24,-267.81"/>
<polygon fill="black" stroke="black" points="295.19,-220.56 293.86,-210.05 288.35,-219.1 295.19,-220.56"/>
<text text-anchor="middle" x="318.85" y="-231.8" font-family="Times,serif" font-size="14.00">प्रयोजककर्ता</text>
</g>
<!-- Node2_1 -->
<g id="node8" class="node">
<title>Node2_1</title>
<ellipse fill="#93db70" stroke="#93db70" cx="111.35" cy="-192" rx="41.69" ry="18"/>
<text text-anchor="middle" x="111.35" y="-188.3" font-family="Times,serif" font-size="14.00">देहम्(2.1)</text>
</g>
<!-- Node2_1&#45;&gt;Node6_1 -->
<g id="edge6" class="edge">
<title>Node2_1&#45;&gt;Node6_1</title>
<path fill="none" stroke="black" stroke-dasharray="1,5" d="M135.22,-215.8C150.47,-230.36 169.87,-248.9 183.52,-261.93"/>
<polygon fill="black" stroke="black" points="137.32,-212.97 127.67,-208.59 132.48,-218.03 137.32,-212.97"/>
<text text-anchor="middle" x="169.35" y="-231.8" font-family="Times,serif" font-size="14.00">कर्म</text>
</g>
<!-- Node2_1&#45;&gt;Node4_1 -->
<g id="edge5" class="edge">
<title>Node2_1&#45;&gt;Node4_1</title>
<path fill="none" stroke="black" d="M108.87,-220.42C108.07,-242.25 109.62,-273.02 121.35,-297 132.3,-319.4 153.94,-338.24 170.65,-350.36"/>
<polygon fill="black" stroke="black" points="112.38,-220.37 109.44,-210.19 105.39,-219.98 112.38,-220.37"/>
<text text-anchor="middle" x="130.35" y="-275.3" font-family="Times,serif" font-size="14.00">कर्म</text>
</g>
<!-- Node7_1 -->
<g id="node9" class="node">
<title>Node7_1</title>
<ellipse fill="#ff99ff" stroke="#ff99ff" cx="204.35" cy="-192" rx="33.6" ry="18"/>
<text text-anchor="middle" x="204.35" y="-188.3" font-family="Times,serif" font-size="14.00">च(7.1)</text>
</g>
<!-- Node7_1&#45;&gt;Node6_1 -->
<g id="edge10" class="edge">
<title>Node7_1&#45;&gt;Node6_1</title>
<path fill="none" stroke="black" d="M201.85,-220.12C201.65,-222.78 201.48,-225.44 201.35,-228 200.77,-238.92 200.52,-251.21 200.41,-260.87"/>
<polygon fill="black" stroke="black" points="205.34,-220.32 202.66,-210.07 198.36,-219.76 205.34,-220.32"/>
<text text-anchor="middle" x="240.85" y="-231.8" font-family="Times,serif" font-size="14.00">समुच्चय_द्योतकः</text>
</g>
</g>
</svg>
