<?xml version="1.0" encoding="UTF-8" standalone="no"?>
<!DOCTYPE svg PUBLIC "-//W3C//DTD SVG 1.1//EN"
 "http://www.w3.org/Graphics/SVG/1.1/DTD/svg11.dtd">
<!-- Generated by graphviz version 2.50.0 (20211204.2007)
 -->
<!-- Title: G Pages: 1 -->
<svg width="308pt" height="408pt"
 viewBox="0.00 0.00 308.30 408.00" xmlns="http://www.w3.org/2000/svg" xmlns:xlink="http://www.w3.org/1999/xlink">
<g id="graph0" class="graph" transform="scale(1 1) rotate(0) translate(4 404)">
<title>G</title>
<polygon fill="#fffacd" stroke="transparent" points="-4,4 -4,-404 304.3,-404 304.3,4 -4,4"/>
<g id="clust1" class="cluster">
<title>cluster_1</title>
<polygon fill="#fffacd" stroke="black" points="8,-8 8,-147 128,-147 128,-8 8,-8"/>
</g>
<!-- Node1_1 -->
<g id="node1" class="node">
<title>Node1_1</title>
<ellipse fill="#00bfff" stroke="#00bfff" cx="68" cy="-34" rx="51.99" ry="18"/>
<text text-anchor="middle" x="68" y="-30.3" font-family="Times,serif" font-size="14.00">शोधनम्(1.1)</text>
</g>
<!-- Node2_1 -->
<g id="node2" class="node">
<title>Node2_1</title>
<ellipse fill="#00bfff" stroke="#00bfff" cx="71" cy="-121" rx="48.19" ry="18"/>
<text text-anchor="middle" x="71" y="-117.3" font-family="Times,serif" font-size="14.00">शमनम्(2.1)</text>
</g>
<!-- Node1_1&#45;&gt;Node2_1 -->
<g id="edge1" class="edge">
<title>Node1_1&#45;&gt;Node2_1</title>
<path fill="none" stroke="black" d="M68.96,-62.27C69.43,-75.58 69.98,-91.19 70.39,-102.82"/>
<polygon fill="black" stroke="black" points="72.46,-62.07 68.61,-52.2 65.46,-62.32 72.46,-62.07"/>
<text text-anchor="middle" x="92.5" y="-73.8" font-family="Times,serif" font-size="14.00">समुच्चितः</text>
</g>
<!-- Node7_1 -->
<g id="node3" class="node">
<title>Node7_1</title>
<ellipse fill="#ff99ff" stroke="#ff99ff" cx="124" cy="-208" rx="43.59" ry="18"/>
<text text-anchor="middle" x="124" y="-204.3" font-family="Times,serif" font-size="14.00">द्विधा(7.1)</text>
</g>
<!-- Node2_1&#45;&gt;Node7_1 -->
<g id="edge2" class="edge">
<title>Node2_1&#45;&gt;Node7_1</title>
<path fill="none" stroke="black" d="M86.84,-147.4C95.48,-161.26 105.93,-178.03 113.55,-190.24"/>
<polygon fill="black" stroke="black" points="89.73,-145.43 81.47,-138.79 83.79,-149.13 89.73,-145.43"/>
<text text-anchor="middle" x="115.5" y="-160.8" font-family="Times,serif" font-size="14.00">घटकः</text>
</g>
<!-- Node6_1 -->
<g id="node8" class="node">
<title>Node6_1</title>
<ellipse fill="#00bfff" stroke="#00bfff" cx="124" cy="-295" rx="51.99" ry="18"/>
<text text-anchor="middle" x="124" y="-291.3" font-family="Times,serif" font-size="14.00">औषधम्(6.1)</text>
</g>
<!-- Node7_1&#45;&gt;Node6_1 -->
<g id="edge7" class="edge">
<title>Node7_1&#45;&gt;Node6_1</title>
<path fill="none" stroke="black" d="M124,-236.27C124,-249.58 124,-265.19 124,-276.82"/>
<polygon fill="black" stroke="black" points="127.5,-236.2 124,-226.2 120.5,-236.2 127.5,-236.2"/>
<text text-anchor="middle" x="165" y="-247.8" font-family="Times,serif" font-size="14.00">विधेय_विशेषणम्</text>
</g>
<!-- Node3_1 -->
<g id="node4" class="node">
<title>Node3_1</title>
<ellipse fill="#ff99ff" stroke="#ff99ff" cx="172" cy="-34" rx="33.6" ry="18"/>
<text text-anchor="middle" x="172" y="-30.3" font-family="Times,serif" font-size="14.00">च(3.1)</text>
</g>
<!-- Node3_1&#45;&gt;Node2_1 -->
<g id="edge3" class="edge">
<title>Node3_1&#45;&gt;Node2_1</title>
<path fill="none" stroke="black" d="M149.42,-57.49C140.23,-66.34 129.34,-76.41 119,-85 110.75,-91.85 101.28,-98.91 92.94,-104.88"/>
<polygon fill="black" stroke="black" points="151.98,-59.89 156.7,-50.41 147.1,-54.88 151.98,-59.89"/>
<text text-anchor="middle" x="174.5" y="-73.8" font-family="Times,serif" font-size="14.00">समुच्चय_द्योतकः</text>
</g>
<!-- Node4_1 -->
<g id="node5" class="node">
<title>Node4_1</title>
<ellipse fill="#ff99ff" stroke="#ff99ff" cx="177" cy="-121" rx="39.79" ry="18"/>
<text text-anchor="middle" x="177" y="-117.3" font-family="Times,serif" font-size="14.00">इति(4.1)</text>
</g>
<!-- Node4_1&#45;&gt;Node7_1 -->
<g id="edge4" class="edge">
<title>Node4_1&#45;&gt;Node7_1</title>
<path fill="none" stroke="black" d="M161.16,-147.4C152.52,-161.26 142.07,-178.03 134.45,-190.24"/>
<polygon fill="black" stroke="black" points="164.21,-149.13 166.53,-138.79 158.27,-145.43 164.21,-149.13"/>
<text text-anchor="middle" x="186" y="-160.8" font-family="Times,serif" font-size="14.00">घटक_द्योतकः</text>
</g>
<!-- Node5_1 -->
<g id="node6" class="node">
<title>Node5_1</title>
<ellipse fill="#b4ffb4" stroke="#b4ffb4" cx="247" cy="-295" rx="53.09" ry="18"/>
<text text-anchor="middle" x="247" y="-291.3" font-family="Times,serif" font-size="14.00">समासात्(5.1)</text>
</g>
<!-- Node8_1 -->
<g id="node7" class="node">
<title>Node8_1</title>
<ellipse fill="#ff1975" stroke="#ff1975" cx="185" cy="-382" rx="50.89" ry="18"/>
<text text-anchor="middle" x="185" y="-378.3" font-family="Times,serif" font-size="14.00">(अस्ति)(8.1)</text>
</g>
<!-- Node5_1&#45;&gt;Node8_1 -->
<g id="edge5" class="edge">
<title>Node5_1&#45;&gt;Node8_1</title>
<path fill="none" stroke="black" d="M228.76,-321.01C218.6,-334.94 206.22,-351.91 197.22,-364.24"/>
<polygon fill="black" stroke="black" points="231.69,-322.93 234.75,-312.79 226.03,-318.81 231.69,-322.93"/>
<text text-anchor="middle" x="255.5" y="-334.8" font-family="Times,serif" font-size="14.00">क्रियाविशेषणम्</text>
</g>
<!-- Node6_1&#45;&gt;Node8_1 -->
<g id="edge6" class="edge">
<title>Node6_1&#45;&gt;Node8_1</title>
<path fill="none" stroke="black" d="M141.95,-321.01C151.94,-334.94 164.12,-351.91 172.97,-364.24"/>
<polygon fill="black" stroke="black" points="144.73,-318.88 136.05,-312.79 139.04,-322.96 144.73,-318.88"/>
<text text-anchor="middle" x="169" y="-334.8" font-family="Times,serif" font-size="14.00">कर्ता</text>
</g>
</g>
</svg>
