<svg width="429pt" height="408pt"
 viewBox="0.00 0.00 428.50 408.00" xmlns="http://www.w3.org/2000/svg" xmlns:xlink="http://www.w3.org/1999/xlink">
<g id="graph0" class="graph" transform="scale(1 1) rotate(0) translate(4 404)">
<title>G</title>
<polygon fill="#fffacd" stroke="transparent" points="-4,4 -4,-404 424.5,-404 424.5,4 -4,4"/>
<g id="clust1" class="cluster">
<title>cluster_1</title>
<polygon fill="#fffacd" stroke="black" points="158.5,-8 158.5,-147 239.5,-147 239.5,-8 158.5,-8"/>
</g>
<g id="clust2" class="cluster">
<title>cluster_2</title>
<polygon fill="#fffacd" stroke="black" points="157.5,-182 157.5,-321 247.5,-321 247.5,-182 157.5,-182"/>
</g>
<!-- Node6_1 -->
<style>
 .hidden { display: none; }
 .node { cursor: pointer; }
 </style>
<script>
     function toggleChildren(id) {
      const children = document.getElementById(id);
      if (children.classList.contains('hidden')) {
        children.classList.remove('hidden');
      } else {
        children.classList.add('hidden');
      }
    }
</script>
<g id="children_node0_65702" class="hidden">
    <g class="node" onclick="toggleChildren('children_node0_65702');">
</g>
</g>
<g id="children_node1_65702" class="hidden">
    <g class="node" onclick="toggleChildren('children_node1_65702');">

<g id="node1" class="node">
<title>Node6_1</title>
<polygon fill="#ffff00" stroke="#ffff00" points="59.5,-139 5.5,-139 5.5,-103 59.5,-103 59.5,-139"/>
<text text-anchor="middle" x="32.5" y="-117.3" font-family="Times,serif" font-size="14.00">यथा&#45;</text>
</g>
<!-- Node6_2 -->
<g id="node2" class="node">
<title>Node6_2</title>
<polygon fill="#ffff00" stroke="#ffff00" points="149.5,-139 95.5,-139 95.5,-103 149.5,-103 149.5,-139"/>
<text text-anchor="middle" x="122.5" y="-117.3" font-family="Times,serif" font-size="14.00">पूर्वम्</text>
</g>
<!-- Node6_1&#45;&gt;Node6_2 -->
<!-- Node6_2_1 -->
<g id="node3" class="node">
<title>Node6_2_1</title>
<polygon fill="#ffff00" stroke="#ffff00" points="147,-226 0,-226 0,-190 147,-190 147,-226"/>
<text text-anchor="middle" x="73.5" y="-204.3" font-family="Times,serif" font-size="14.00">&lt;यथा&#45;पूर्वम्&gt;(अव्ययीभावः)</text>
</g>
<!-- Node6_1&#45;&gt;Node6_2_1 -->
<g id="edge2" class="edge">
<title>Node6_1&#45;&gt;Node6_2_1</title>
<path fill="none" stroke="black" d="M45.27,-148.48C51.78,-161.96 59.49,-177.96 65.22,-189.82"/>
<polygon fill="black" stroke="black" points="48.29,-146.69 40.8,-139.2 41.99,-149.73 48.29,-146.69"/>
</g>
<!-- Node6_2&#45;&gt;Node6_2_1 -->
<g id="edge1" class="edge">
<title>Node6_2&#45;&gt;Node6_2_1</title>
<path fill="none" stroke="black" d="M107.46,-148.09C99.64,-161.65 90.3,-177.85 83.4,-189.82"/>
<polygon fill="black" stroke="black" points="110.62,-149.61 112.58,-139.2 104.56,-146.12 110.62,-149.61"/>
</g>
<!-- Node6_2_1&#45;&gt;Node6_2_1c -->
<g id="edge4" class="edge">
<title>Node6_2_1&#45;&gt;Node6_2_1c</title>
<path fill="none" stroke="black" d="M78.95,-236.27C81.62,-249.58 84.74,-265.19 87.06,-276.82"/>
<polygon fill="black" stroke="black" points="82.33,-235.32 76.94,-226.2 75.47,-236.69 82.33,-235.32"/>
</g>
</g>
</g>
<!-- Node6_2_1c -->
<g class="node4" onclick="toggleChildren('children_node1_65702');">
<title>Node6_2_1c</title>
<polygon fill="#ff99ff" stroke="#ff99ff" points="130.5,-313 50.5,-313 50.5,-277 130.5,-277 130.5,-313"/>
<text text-anchor="middle" x="90.5" y="-291.3" font-family="Times,serif" font-size="14.00">यथा&#45;पूर्वम्(6)</text>
</g>
<g id="children_node2_65702" class="hidden">
    <g class="node" onclick="toggleChildren('children_node2_65702');">
<!-- Node7_1 -->
<g id="node5" class="node">
<title>Node7_1</title>
<polygon fill="#ffff00" stroke="#ffff00" points="330.5,-52 276.5,-52 276.5,-16 330.5,-16 330.5,-52"/>
<text text-anchor="middle" x="303.5" y="-30.3" font-family="Times,serif" font-size="14.00">बल&#45;</text>
</g>
<!-- Node7_2 -->
<g id="node6" class="node">
<title>Node7_2</title>
<polygon fill="#ffff00" stroke="#ffff00" points="420.5,-52 366.5,-52 366.5,-16 420.5,-16 420.5,-52"/>
<text text-anchor="middle" x="393.5" y="-30.3" font-family="Times,serif" font-size="14.00">आवहाः</text>
</g>
<!-- Node7_1&#45;&gt;Node7_2 -->
<!-- Node7_2_1 -->
<g id="node7" class="node">
<title>Node7_2_1</title>
<polygon fill="#ffff00" stroke="#ffff00" points="417,-139 248,-139 248,-103 417,-103 417,-139"/>
<text text-anchor="middle" x="332.5" y="-117.3" font-family="Times,serif" font-size="14.00">&lt;बल&#45;आवहाः&gt;(उपपद&#45;तत्पुरुषः)</text>
</g>
<!-- Node7_1&#45;&gt;Node7_2_1 -->
<g id="edge7" class="edge">
<title>Node7_1&#45;&gt;Node7_2_1</title>
<path fill="none" stroke="black" d="M312.67,-61.87C317.24,-75.27 322.63,-91.08 326.64,-102.82"/>
<polygon fill="black" stroke="black" points="315.91,-60.54 309.37,-52.2 309.29,-62.8 315.91,-60.54"/>
</g>
<!-- Node7_2&#45;&gt;Node7_2_1 -->
<g id="edge6" class="edge">
<title>Node7_2&#45;&gt;Node7_2_1</title>
<path fill="none" stroke="black" d="M375.06,-60.7C365.27,-74.34 353.5,-90.73 344.83,-102.82"/>
<polygon fill="black" stroke="black" points="378.17,-62.37 381.16,-52.2 372.48,-58.28 378.17,-62.37"/>
</g>
<!-- Node7_2_1&#45;&gt;Node7_2_1c -->
<g id="edge9" class="edge">
<title>Node7_2_1&#45;&gt;Node7_2_1c</title>
<path fill="none" stroke="black" d="M323.02,-148.87C318.29,-162.27 312.71,-178.08 308.56,-189.82"/>
<polygon fill="black" stroke="black" points="326.4,-149.8 326.43,-139.2 319.8,-147.47 326.4,-149.8"/>
</g>
</g>
</g>
<!-- Node7_2_1c -->
<g class="node8" onclick="toggleChildren('children_node2_65702');">
<title>Node7_2_1c</title>
<polygon fill="#00bfff" stroke="#00bfff" points="347,-226 258,-226 258,-190 347,-190 347,-226"/>
<text text-anchor="middle" x="302.5" y="-204.3" font-family="Times,serif" font-size="14.00">बल&#45;आवहाः(7)</text>
</g>
<!-- Node8_1 -->
<g id="node13" class="node">
<title>Node8_1</title>
<polygon fill="#ff1975" stroke="#ff1975" points="173.5,-400 109.5,-400 109.5,-364 173.5,-364 173.5,-400"/>
<text text-anchor="middle" x="141.5" y="-378.3" font-family="Times,serif" font-size="14.00">(सन्ति)(8)</text>
</g>
<!-- Node6_2_1c&#45;&gt;Node8_1 -->
<g id="edge5" class="edge">
<title>Node6_2_1c&#45;&gt;Node8_1</title>
<path fill="none" stroke="black" d="M89.26,-323.32C89.94,-331.05 91.69,-339.2 95.5,-346 99.32,-352.83 105.08,-358.75 111.25,-363.68"/>
<polygon fill="black" stroke="black" points="92.75,-323.1 88.92,-313.22 85.76,-323.33 92.75,-323.1"/>
<text text-anchor="middle" x="132" y="-334.8" font-family="Times,serif" font-size="14.00">क्रियाविशेषणम्</text>
</g>
<!-- Node4_1 -->
<g id="node12" class="node">
<title>Node4_1</title>
<polygon fill="#00bfff" stroke="#00bfff" points="229.5,-313 175.5,-313 175.5,-277 229.5,-277 229.5,-313"/>
<text text-anchor="middle" x="202.5" y="-291.3" font-family="Times,serif" font-size="14.00">ते(4)</text>
</g>
<!-- Node7_2_1c&#45;&gt;Node4_1 -->
<g id="edge10" class="edge">
<title>Node7_2_1c&#45;&gt;Node4_1</title>
<path fill="none" stroke="black" d="M280.34,-233.48C272.23,-241.93 262.76,-251.22 253.5,-259 246.02,-265.28 237.41,-271.52 229.42,-276.95"/>
<polygon fill="black" stroke="black" points="283.06,-235.71 287.37,-226.03 277.96,-230.91 283.06,-235.71"/>
<text text-anchor="middle" x="309.5" y="-247.8" font-family="Times,serif" font-size="14.00">विधेय_विशेषणम्</text>
</g>
<!-- Node1_1 -->
<g id="node9" class="node">
<title>Node1_1</title>
<polygon fill="#93db70" stroke="#93db70" points="220.5,-52 166.5,-52 166.5,-16 220.5,-16 220.5,-52"/>
<text text-anchor="middle" x="193.5" y="-30.3" font-family="Times,serif" font-size="14.00">षट्(1)</text>
</g>
<!-- Node2_1 -->
<g id="node10" class="node">
<title>Node2_1</title>
<polygon fill="#93db70" stroke="#93db70" points="228.5,-139 168.5,-139 168.5,-103 228.5,-103 228.5,-139"/>
<text text-anchor="middle" x="198.5" y="-117.3" font-family="Times,serif" font-size="14.00">द्रव्यम्(2)</text>
</g>
<!-- Node1_1&#45;&gt;Node2_1 -->
<g id="edge11" class="edge">
<title>Node1_1&#45;&gt;Node2_1</title>
<path fill="none" stroke="black" d="M195.1,-62.27C195.89,-75.58 196.81,-91.19 197.49,-102.82"/>
<polygon fill="black" stroke="black" points="198.59,-61.98 194.51,-52.2 191.61,-62.39 198.59,-61.98"/>
<text text-anchor="middle" x="219" y="-73.8" font-family="Times,serif" font-size="14.00">विशेषणम्</text>
</g>
<!-- Node3_1 -->
<g id="node11" class="node">
<title>Node3_1</title>
<polygon fill="#00bfff" stroke="#00bfff" points="239.5,-226 165.5,-226 165.5,-190 239.5,-190 239.5,-226"/>
<text text-anchor="middle" x="202.5" y="-204.3" font-family="Times,serif" font-size="14.00">आश्रिताः(3)</text>
</g>
<!-- Node2_1&#45;&gt;Node3_1 -->
<g id="edge12" class="edge">
<title>Node2_1&#45;&gt;Node3_1</title>
<path fill="none" stroke="black" d="M199.78,-149.27C200.41,-162.58 201.14,-178.19 201.69,-189.82"/>
<polygon fill="black" stroke="black" points="203.28,-149.03 199.31,-139.2 196.28,-149.35 203.28,-149.03"/>
<text text-anchor="middle" x="209.5" y="-160.8" font-family="Times,serif" font-size="14.00">कर्म</text>
</g>
<!-- Node3_1&#45;&gt;Node4_1 -->
<g id="edge13" class="edge">
<title>Node3_1&#45;&gt;Node4_1</title>
<path fill="none" stroke="black" d="M202.5,-236.27C202.5,-249.58 202.5,-265.19 202.5,-276.82"/>
<polygon fill="black" stroke="black" points="206,-236.2 202.5,-226.2 199,-236.2 206,-236.2"/>
<text text-anchor="middle" x="226" y="-247.8" font-family="Times,serif" font-size="14.00">विशेषणम्</text>
</g>
<!-- Node4_1&#45;&gt;Node8_1 -->
<g id="edge14" class="edge">
<title>Node4_1&#45;&gt;Node8_1</title>
<path fill="none" stroke="black" d="M185.42,-321.76C180.09,-329.61 174.14,-338.22 168.5,-346 164.27,-351.84 159.5,-358.11 155.17,-363.71"/>
<polygon fill="black" stroke="black" points="188.43,-323.55 191.11,-313.3 182.62,-319.64 188.43,-323.55"/>
<text text-anchor="middle" x="189.5" y="-334.8" font-family="Times,serif" font-size="14.00">कर्ता</text>
</g>
<!-- Node5_1 -->
<g id="node14" class="node">
<title>Node5_1</title>
<polygon fill="#ff99ff" stroke="#ff99ff" points="419.5,-226 365.5,-226 365.5,-190 419.5,-190 419.5,-226"/>
<text text-anchor="middle" x="392.5" y="-204.3" font-family="Times,serif" font-size="14.00">च(5)</text>
</g>
<!-- Node5_1&#45;&gt;Node4_1 -->
<g id="edge15" class="edge">
<title>Node5_1&#45;&gt;Node4_1</title>
<path fill="none" stroke="black" d="M377.93,-234.96C371.77,-243.8 363.84,-252.96 354.5,-259 315.95,-283.91 261.81,-291.18 229.63,-293.24"/>
<polygon fill="black" stroke="black" points="381,-236.65 383.49,-226.35 375.12,-232.86 381,-236.65"/>
<text text-anchor="middle" x="389" y="-247.8" font-family="Times,serif" font-size="14.00">सम्बन्धः</text>
</g>
</g>
</svg>
