<svg width="220pt" height="364pt"
 viewBox="0.00 0.00 220.00 364.00" xmlns="http://www.w3.org/2000/svg" xmlns:xlink="http://www.w3.org/1999/xlink">
<g id="graph0" class="graph" transform="scale(1 1) rotate(0) translate(4 360)">
<title>G</title>
<polygon fill="#fffacd" stroke="transparent" points="-4,4 -4,-360 216,-360 216,4 -4,4"/>
<!-- Node3_1 -->
<style>
 .hidden { display: none; }
 .node { cursor: pointer; }
 </style>
<script>
     function toggleChildren(id) {
      const children = document.getElementById(id);
      if (children.classList.contains('hidden')) {
        children.classList.remove('hidden');
      } else {
        children.classList.add('hidden');
      }
    }
</script>
<g id="children_node0_65790" class="hidden">
    <g class="node" onclick="toggleChildren('children_node0_65790');">
</g>
</g>
<g id="children_node1_65790" class="hidden">
    <g class="node" onclick="toggleChildren('children_node1_65790');">

<g id="node1" class="node">
<title>Node3_1</title>
<polygon fill="#ffff00" stroke="#ffff00" points="63,-36 9,-36 9,0 63,0 63,-36"/>
<text text-anchor="middle" x="36" y="-14.3" font-family="Times,serif" font-size="14.00">दोष&#45;</text>
</g>
<!-- Node3_2 -->
<g id="node2" class="node">
<title>Node3_2</title>
<polygon fill="#ffff00" stroke="#ffff00" points="153,-36 99,-36 99,0 153,0 153,-36"/>
<text text-anchor="middle" x="126" y="-14.3" font-family="Times,serif" font-size="14.00">वैषम्यम्</text>
</g>
<!-- Node3_1&#45;&gt;Node3_2 -->
<!-- Node3_2_1 -->
<g id="node3" class="node">
<title>Node3_2_1</title>
<polygon fill="#ffff00" stroke="#ffff00" points="160,-109 0,-109 0,-73 160,-73 160,-109"/>
<text text-anchor="middle" x="80" y="-87.3" font-family="Times,serif" font-size="14.00">&lt;दोष&#45;वैषम्यम्&gt;(षष्ठी&#45;तत्पुरुषः)</text>
</g>
<!-- Node3_1&#45;&gt;Node3_2_1 -->
<g id="edge2" class="edge">
<title>Node3_1&#45;&gt;Node3_2_1</title>
<path fill="none" stroke="black" d="M51.98,-44.79C57.8,-54.17 64.22,-64.54 69.45,-72.97"/>
<polygon fill="black" stroke="black" points="54.89,-42.84 46.65,-36.19 48.94,-46.53 54.89,-42.84"/>
</g>
<!-- Node3_2&#45;&gt;Node3_2_1 -->
<g id="edge1" class="edge">
<title>Node3_2&#45;&gt;Node3_2_1</title>
<path fill="none" stroke="black" d="M109.29,-44.79C103.21,-54.17 96.5,-64.54 91.03,-72.97"/>
<polygon fill="black" stroke="black" points="112.36,-46.48 114.86,-36.19 106.49,-42.68 112.36,-46.48"/>
</g>
<!-- Node3_2_1&#45;&gt;Node3_2_1c -->
<g id="edge4" class="edge">
<title>Node3_2_1&#45;&gt;Node3_2_1c</title>
<path fill="none" stroke="black" d="M80,-119.25C80,-128.23 80,-137.97 80,-145.97"/>
<polygon fill="black" stroke="black" points="83.5,-119.19 80,-109.19 76.5,-119.19 83.5,-119.19"/>
</g>
</g>
</g>
<!-- Node3_2_1c -->
<g class="node4" onclick="toggleChildren('children_node1_65790');">
<title>Node3_2_1c</title>
<polygon fill="#00bfff" stroke="#00bfff" points="124.5,-182 35.5,-182 35.5,-146 124.5,-146 124.5,-182"/>
<text text-anchor="middle" x="80" y="-160.3" font-family="Times,serif" font-size="14.00">दोष&#45;वैषम्यम्(3)</text>
</g>
<!-- Node1_1 -->
<g id="node5" class="node">
<title>Node1_1</title>
<polygon fill="#00bfff" stroke="#00bfff" points="159,-269 105,-269 105,-233 159,-233 159,-269"/>
<text text-anchor="middle" x="132" y="-247.3" font-family="Times,serif" font-size="14.00">रोगः(1)</text>
</g>
<!-- Node3_2_1c&#45;&gt;Node1_1 -->
<g id="edge5" class="edge">
<title>Node3_2_1c&#45;&gt;Node1_1</title>
<path fill="none" stroke="black" d="M76.04,-192.29C76.08,-200.02 77.32,-208.17 81,-215 86.25,-224.73 95.53,-232.3 104.75,-237.87"/>
<polygon fill="black" stroke="black" points="79.54,-192.37 76.59,-182.19 72.55,-191.99 79.54,-192.37"/>
<text text-anchor="middle" x="122" y="-203.8" font-family="Times,serif" font-size="14.00">विधेय_विशेषणम्</text>
</g>
<!-- Node4_1 -->
<g id="node6" class="node">
<title>Node4_1</title>
<polygon fill="#ff1975" stroke="#ff1975" points="166,-356 98,-356 98,-320 166,-320 166,-356"/>
<text text-anchor="middle" x="132" y="-334.3" font-family="Times,serif" font-size="14.00">(भवति)(4)</text>
</g>
<!-- Node1_1&#45;&gt;Node4_1 -->
<g id="edge6" class="edge">
<title>Node1_1&#45;&gt;Node4_1</title>
<path fill="none" stroke="black" d="M132,-279.27C132,-292.58 132,-308.19 132,-319.82"/>
<polygon fill="black" stroke="black" points="135.5,-279.2 132,-269.2 128.5,-279.2 135.5,-279.2"/>
<text text-anchor="middle" x="143" y="-290.8" font-family="Times,serif" font-size="14.00">कर्ता</text>
</g>
<!-- Node2_1 -->
<g id="node7" class="node">
<title>Node2_1</title>
<polygon fill="#ff99ff" stroke="#ff99ff" points="212,-182 158,-182 158,-146 212,-146 212,-182"/>
<text text-anchor="middle" x="185" y="-160.3" font-family="Times,serif" font-size="14.00">तु(2)</text>
</g>
<!-- Node2_1&#45;&gt;Node1_1 -->
<g id="edge7" class="edge">
<title>Node2_1&#45;&gt;Node1_1</title>
<path fill="none" stroke="black" d="M175.05,-191.74C171.69,-199.5 167.6,-207.81 163,-215 159.06,-221.15 154.06,-227.3 149.23,-232.7"/>
<polygon fill="black" stroke="black" points="178.35,-192.91 178.91,-182.33 171.88,-190.26 178.35,-192.91"/>
<text text-anchor="middle" x="188.5" y="-203.8" font-family="Times,serif" font-size="14.00">सम्बन्धः</text>
</g>
</g>
</svg>
