<svg width="336pt" height="321pt"
 viewBox="0.00 0.00 336.00 321.00" xmlns="http://www.w3.org/2000/svg" xmlns:xlink="http://www.w3.org/1999/xlink">
<g id="graph0" class="graph" transform="scale(1 1) rotate(0) translate(4 317)">
<title>G</title>
<polygon fill="#fffacd" stroke="transparent" points="-4,4 -4,-317 332,-317 332,4 -4,4"/>
<g id="clust1" class="cluster">
<title>cluster_1</title>
<polygon fill="#fffacd" stroke="black" points="8,-8 8,-147 246,-147 246,-8 8,-8"/>
</g>
<!-- Node1_1 -->
<style>
 .hidden { display: none; }
 .node { cursor: pointer; }
 </style>
<script>
     function toggleChildren(id) {
      const children = document.getElementById(id);
      if (children.classList.contains('hidden')) {
        children.classList.remove('hidden');
      } else {
        children.classList.add('hidden');
      }
    }
</script>

<g id="node1" class="node">
<title>Node1_1</title>
<polygon fill="#00bfff" stroke="#00bfff" points="238,-52 166,-52 166,-16 238,-16 238,-52"/>
<text text-anchor="middle" x="202" y="-30.3" font-family="Times,serif" font-size="14.00">अनुरक्तः(1)</text>
</g>
<!-- Node4_1 -->
<g id="node2" class="node">
<title>Node4_1</title>
<polygon fill="#00bfff" stroke="#00bfff" points="191.5,-139 120.5,-139 120.5,-103 191.5,-103 191.5,-139"/>
<text text-anchor="middle" x="156" y="-117.3" font-family="Times,serif" font-size="14.00">बुद्धिमान्(4)</text>
</g>
<!-- Node1_1&#45;&gt;Node4_1 -->
<g id="edge1" class="edge">
<title>Node1_1&#45;&gt;Node4_1</title>
<path fill="none" stroke="black" d="M187.88,-61.09C180.54,-74.65 171.78,-90.85 165.29,-102.82"/>
<polygon fill="black" stroke="black" points="191.01,-62.66 192.69,-52.2 184.85,-59.33 191.01,-62.66"/>
<text text-anchor="middle" x="204.5" y="-73.8" font-family="Times,serif" font-size="14.00">समुच्चितः</text>
</g>
<!-- Node6_1 -->
<g id="node5" class="node">
<title>Node6_1</title>
<polygon fill="#00bfff" stroke="#00bfff" points="195.5,-226 116.5,-226 116.5,-190 195.5,-190 195.5,-226"/>
<text text-anchor="middle" x="156" y="-204.3" font-family="Times,serif" font-size="14.00">परिचारकः(6)</text>
</g>
<!-- Node4_1&#45;&gt;Node6_1 -->
<g id="edge4" class="edge">
<title>Node4_1&#45;&gt;Node6_1</title>
<path fill="none" stroke="black" d="M156,-149.27C156,-162.58 156,-178.19 156,-189.82"/>
<polygon fill="black" stroke="black" points="159.5,-149.2 156,-139.2 152.5,-149.2 159.5,-149.2"/>
<text text-anchor="middle" x="197" y="-160.8" font-family="Times,serif" font-size="14.00">विधेय_विशेषणम्</text>
</g>
<!-- Node2_1 -->
<g id="node3" class="node">
<title>Node2_1</title>
<polygon fill="#00bfff" stroke="#00bfff" points="147.5,-52 88.5,-52 88.5,-16 147.5,-16 147.5,-52"/>
<text text-anchor="middle" x="118" y="-30.3" font-family="Times,serif" font-size="14.00">शुचिः(2)</text>
</g>
<!-- Node2_1&#45;&gt;Node4_1 -->
<g id="edge2" class="edge">
<title>Node2_1&#45;&gt;Node4_1</title>
<path fill="none" stroke="black" d="M117.54,-62.57C118.26,-70.11 119.85,-78.09 123,-85 125.98,-91.53 130.68,-97.63 135.61,-102.84"/>
<polygon fill="black" stroke="black" points="121.03,-62.19 117.03,-52.38 114.04,-62.54 121.03,-62.19"/>
<text text-anchor="middle" x="145.5" y="-73.8" font-family="Times,serif" font-size="14.00">समुच्चितः</text>
</g>
<!-- Node3_1 -->
<g id="node4" class="node">
<title>Node3_1</title>
<polygon fill="#00bfff" stroke="#00bfff" points="70,-52 16,-52 16,-16 70,-16 70,-52"/>
<text text-anchor="middle" x="43" y="-30.3" font-family="Times,serif" font-size="14.00">दक्षः(3)</text>
</g>
<!-- Node3_1&#45;&gt;Node4_1 -->
<g id="edge3" class="edge">
<title>Node3_1&#45;&gt;Node4_1</title>
<path fill="none" stroke="black" d="M53.02,-61.42C57.23,-69.82 62.85,-78.59 70,-85 84.16,-97.7 103.54,-106.13 120.32,-111.52"/>
<polygon fill="black" stroke="black" points="56.17,-59.89 48.85,-52.23 49.79,-62.78 56.17,-59.89"/>
<text text-anchor="middle" x="92.5" y="-73.8" font-family="Times,serif" font-size="14.00">समुच्चितः</text>
</g>
<!-- Node7_1 -->
<g id="node7" class="node">
<title>Node7_1</title>
<polygon fill="#ff1975" stroke="#ff1975" points="188,-313 124,-313 124,-277 188,-277 188,-313"/>
<text text-anchor="middle" x="156" y="-291.3" font-family="Times,serif" font-size="14.00">(भवेत्)(7)</text>
</g>
<!-- Node6_1&#45;&gt;Node7_1 -->
<g id="edge6" class="edge">
<title>Node6_1&#45;&gt;Node7_1</title>
<path fill="none" stroke="black" d="M156,-236.27C156,-249.58 156,-265.19 156,-276.82"/>
<polygon fill="black" stroke="black" points="159.5,-236.2 156,-226.2 152.5,-236.2 159.5,-236.2"/>
<text text-anchor="middle" x="167" y="-247.8" font-family="Times,serif" font-size="14.00">कर्ता</text>
</g>
<!-- Node5_1 -->
<g id="node6" class="node">
<title>Node5_1</title>
<polygon fill="#ff99ff" stroke="#ff99ff" points="310,-52 256,-52 256,-16 310,-16 310,-52"/>
<text text-anchor="middle" x="283" y="-30.3" font-family="Times,serif" font-size="14.00">(च)(5)</text>
</g>
<!-- Node5_1&#45;&gt;Node4_1 -->
<g id="edge5" class="edge">
<title>Node5_1&#45;&gt;Node4_1</title>
<path fill="none" stroke="black" d="M260.65,-59.64C251.95,-68.35 241.54,-77.77 231,-85 218.91,-93.29 204.55,-100.53 191.65,-106.24"/>
<polygon fill="black" stroke="black" points="263.37,-61.86 267.81,-52.25 258.34,-56.99 263.37,-61.86"/>
<text text-anchor="middle" x="288.5" y="-73.8" font-family="Times,serif" font-size="14.00">समुच्चय_द्योतकः</text>
</g>
</g>
</svg>
