<?xml version="1.0" encoding="UTF-8" standalone="no"?>
<!DOCTYPE svg PUBLIC "-//W3C//DTD SVG 1.1//EN"
 "http://www.w3.org/Graphics/SVG/1.1/DTD/svg11.dtd">
<!-- Generated by graphviz version 2.50.0 (20211204.2007)
 -->
<!-- Title: G Pages: 1 -->
<svg width="620pt" height="321pt"
 viewBox="0.00 0.00 619.65 321.00" xmlns="http://www.w3.org/2000/svg" xmlns:xlink="http://www.w3.org/1999/xlink">
<g id="graph0" class="graph" transform="scale(1 1) rotate(0) translate(4 317)">
<title>G</title>
<polygon fill="#fffacd" stroke="transparent" points="-4,4 -4,-317 615.65,-317 615.65,4 -4,4"/>
<g id="clust1" class="cluster">
<title>cluster_1</title>
<polygon fill="#fffacd" stroke="black" points="8,-8 8,-147 522,-147 522,-8 8,-8"/>
</g>
<!-- Node2_1 -->
<g id="node1" class="node">
<title>Node2_1</title>
<ellipse fill="#00bfff" stroke="#00bfff" cx="472" cy="-34" rx="42.49" ry="18"/>
<text text-anchor="middle" x="472" y="-30.3" font-family="Times,serif" font-size="14.00">रूक्षः(2.1)</text>
</g>
<!-- Node7_1 -->
<g id="node2" class="node">
<title>Node7_1</title>
<ellipse fill="#00bfff" stroke="#00bfff" cx="318" cy="-121" rx="42.49" ry="18"/>
<text text-anchor="middle" x="318" y="-117.3" font-family="Times,serif" font-size="14.00">चलः(7.1)</text>
</g>
<!-- Node2_1&#45;&gt;Node7_1 -->
<g id="edge2" class="edge">
<title>Node2_1&#45;&gt;Node7_1</title>
<path fill="none" stroke="black" d="M443.1,-55.95C429.46,-65.39 412.75,-76.34 397,-85 381.22,-93.67 362.88,-101.9 347.84,-108.2"/>
<polygon fill="black" stroke="black" points="445.41,-58.6 451.58,-49.99 441.39,-52.87 445.41,-58.6"/>
<text text-anchor="middle" x="442.5" y="-73.8" font-family="Times,serif" font-size="14.00">समुच्चितः</text>
</g>
<!-- Node9_1 -->
<g id="node9" class="node">
<title>Node9_1</title>
<ellipse fill="#00bfff" stroke="#00bfff" cx="318" cy="-208" rx="50.09" ry="18"/>
<text text-anchor="middle" x="318" y="-204.3" font-family="Times,serif" font-size="14.00">अनिलः(9.1)</text>
</g>
<!-- Node7_1&#45;&gt;Node9_1 -->
<g id="edge7" class="edge">
<title>Node7_1&#45;&gt;Node9_1</title>
<path fill="none" stroke="black" d="M318,-149.27C318,-162.58 318,-178.19 318,-189.82"/>
<polygon fill="black" stroke="black" points="321.5,-149.2 318,-139.2 314.5,-149.2 321.5,-149.2"/>
<text text-anchor="middle" x="359" y="-160.8" font-family="Times,serif" font-size="14.00">विधेय_विशेषणम्</text>
</g>
<!-- Node3_1 -->
<g id="node3" class="node">
<title>Node3_1</title>
<ellipse fill="#00bfff" stroke="#00bfff" cx="370" cy="-34" rx="42.49" ry="18"/>
<text text-anchor="middle" x="370" y="-30.3" font-family="Times,serif" font-size="14.00">लघुः(3.1)</text>
</g>
<!-- Node3_1&#45;&gt;Node7_1 -->
<g id="edge3" class="edge">
<title>Node3_1&#45;&gt;Node7_1</title>
<path fill="none" stroke="black" d="M354.46,-60.4C345.98,-74.26 335.73,-91.03 328.25,-103.24"/>
<polygon fill="black" stroke="black" points="357.49,-62.15 359.73,-51.79 351.52,-58.5 357.49,-62.15"/>
<text text-anchor="middle" x="370.5" y="-73.8" font-family="Times,serif" font-size="14.00">समुच्चितः</text>
</g>
<!-- Node4_1 -->
<g id="node4" class="node">
<title>Node4_1</title>
<ellipse fill="#00bfff" stroke="#00bfff" cx="266" cy="-34" rx="44.39" ry="18"/>
<text text-anchor="middle" x="266" y="-30.3" font-family="Times,serif" font-size="14.00">शीतः(4.1)</text>
</g>
<!-- Node4_1&#45;&gt;Node7_1 -->
<g id="edge4" class="edge">
<title>Node4_1&#45;&gt;Node7_1</title>
<path fill="none" stroke="black" d="M278.59,-61.13C282.63,-68.95 287.28,-77.45 292,-85 295.94,-91.29 300.67,-97.89 305.01,-103.65"/>
<polygon fill="black" stroke="black" points="281.64,-59.4 274.02,-52.04 275.39,-62.54 281.64,-59.4"/>
<text text-anchor="middle" x="314.5" y="-73.8" font-family="Times,serif" font-size="14.00">समुच्चितः</text>
</g>
<!-- Node5_1 -->
<g id="node5" class="node">
<title>Node5_1</title>
<ellipse fill="#00bfff" stroke="#00bfff" cx="164" cy="-34" rx="40.09" ry="18"/>
<text text-anchor="middle" x="164" y="-30.3" font-family="Times,serif" font-size="14.00">खरः(5.1)</text>
</g>
<!-- Node5_1&#45;&gt;Node7_1 -->
<g id="edge5" class="edge">
<title>Node5_1&#45;&gt;Node7_1</title>
<path fill="none" stroke="black" d="M190.87,-55.98C203.79,-65.52 219.75,-76.54 235,-85 251.55,-94.18 271,-102.5 286.91,-108.72"/>
<polygon fill="black" stroke="black" points="192.95,-53.17 182.86,-49.96 188.75,-58.77 192.95,-53.17"/>
<text text-anchor="middle" x="257.5" y="-73.8" font-family="Times,serif" font-size="14.00">समुच्चितः</text>
</g>
<!-- Node6_1 -->
<g id="node6" class="node">
<title>Node6_1</title>
<ellipse fill="#00bfff" stroke="#00bfff" cx="61" cy="-34" rx="44.69" ry="18"/>
<text text-anchor="middle" x="61" y="-30.3" font-family="Times,serif" font-size="14.00">सूक्ष्मः(6.1)</text>
</g>
<!-- Node6_1&#45;&gt;Node7_1 -->
<g id="edge6" class="edge">
<title>Node6_1&#45;&gt;Node7_1</title>
<path fill="none" stroke="black" d="M95,-53.95C114.69,-64.28 140.2,-76.64 164,-85 202.16,-98.4 247.47,-107.98 279.02,-113.69"/>
<polygon fill="black" stroke="black" points="96.59,-50.83 86.12,-49.21 93.3,-57 96.59,-50.83"/>
<text text-anchor="middle" x="186.5" y="-73.8" font-family="Times,serif" font-size="14.00">समुच्चितः</text>
</g>
<!-- Node1_1 -->
<g id="node7" class="node">
<title>Node1_1</title>
<ellipse fill="#ff99ff" stroke="#ff99ff" cx="423" cy="-208" rx="37.09" ry="18"/>
<text text-anchor="middle" x="423" y="-204.3" font-family="Times,serif" font-size="14.00">तत्र(1.1)</text>
</g>
<!-- Node10_1 -->
<g id="node8" class="node">
<title>Node10_1</title>
<ellipse fill="#ff1975" stroke="#ff1975" cx="370" cy="-295" rx="55.49" ry="18"/>
<text text-anchor="middle" x="370" y="-291.3" font-family="Times,serif" font-size="14.00">(अस्ति)(10.1)</text>
</g>
<!-- Node1_1&#45;&gt;Node10_1 -->
<g id="edge1" class="edge">
<title>Node1_1&#45;&gt;Node10_1</title>
<path fill="none" stroke="black" d="M407.42,-233.99C398.77,-247.87 388.23,-264.76 380.55,-277.08"/>
<polygon fill="black" stroke="black" points="410.46,-235.73 412.78,-225.39 404.52,-232.02 410.46,-235.73"/>
<text text-anchor="middle" x="432" y="-247.8" font-family="Times,serif" font-size="14.00">देशाधिकरणम्</text>
</g>
<!-- Node9_1&#45;&gt;Node10_1 -->
<g id="edge9" class="edge">
<title>Node9_1&#45;&gt;Node10_1</title>
<path fill="none" stroke="black" d="M333.54,-234.4C342.02,-248.26 352.27,-265.03 359.75,-277.24"/>
<polygon fill="black" stroke="black" points="336.48,-232.5 328.27,-225.79 330.51,-236.15 336.48,-232.5"/>
<text text-anchor="middle" x="359" y="-247.8" font-family="Times,serif" font-size="14.00">कर्ता</text>
</g>
<!-- Node8_1 -->
<g id="node10" class="node">
<title>Node8_1</title>
<ellipse fill="#ff99ff" stroke="#ff99ff" cx="572" cy="-34" rx="39.79" ry="18"/>
<text text-anchor="middle" x="572" y="-30.3" font-family="Times,serif" font-size="14.00">(च)(8.1)</text>
</g>
<!-- Node8_1&#45;&gt;Node7_1 -->
<g id="edge8" class="edge">
<title>Node8_1&#45;&gt;Node7_1</title>
<path fill="none" stroke="black" d="M539.18,-53.28C519.34,-63.73 493.27,-76.42 469,-85 431.7,-98.19 387.45,-107.77 356.53,-113.54"/>
<polygon fill="black" stroke="black" points="540.94,-56.31 548.11,-48.51 537.64,-50.13 540.94,-56.31"/>
<text text-anchor="middle" x="542.5" y="-73.8" font-family="Times,serif" font-size="14.00">समुच्चय_द्योतकः</text>
</g>
</g>
</svg>
