<svg width="624pt" height="364pt"
 viewBox="0.00 0.00 624.00 364.00" xmlns="http://www.w3.org/2000/svg" xmlns:xlink="http://www.w3.org/1999/xlink">
<g id="graph0" class="graph" transform="scale(1 1) rotate(0) translate(4 360)">
<title>G</title>
<polygon fill="#fffacd" stroke="transparent" points="-4,4 -4,-360 620,-360 620,4 -4,4"/>
<g id="clust1" class="cluster">
<title>cluster_1</title>
<polygon fill="#fffacd" stroke="black" points="88,-138 88,-277 182,-277 182,-138 88,-138"/>
</g>
<!-- Node4_2 -->
<style>
 .hidden { display: none; }
 .node { cursor: pointer; }
 </style>
<script>
     function toggleChildren(id) {
      const children = document.getElementById(id);
      if (children.classList.contains('hidden')) {
        children.classList.remove('hidden');
      } else {
        children.classList.add('hidden');
      }
    }
</script>
<g id="children_node0_65644" class="hidden">
    <g class="node" onclick="toggleChildren('children_node0_65644');">
</g>
</g>
<g id="children_node1_65644" class="hidden">
    <g class="node" onclick="toggleChildren('children_node1_65644');">

<g id="node1" class="node">
<title>Node4_2</title>
<polygon fill="#ffff00" stroke="#ffff00" points="239,-36 185,-36 185,0 239,0 239,-36"/>
<text text-anchor="middle" x="212" y="-14.3" font-family="Times,serif" font-size="14.00">द्वि&#45;</text>
</g>
<!-- Node4_3 -->
<g id="node2" class="node">
<title>Node4_3</title>
<polygon fill="#ffff00" stroke="#ffff00" points="329,-36 275,-36 275,0 329,0 329,-36"/>
<text text-anchor="middle" x="302" y="-14.3" font-family="Times,serif" font-size="14.00">त्रि&#45;</text>
</g>
<!-- Node4_2&#45;&gt;Node4_3 -->
<!-- Node4_3_1 -->
<g id="node3" class="node">
<title>Node4_3_1</title>
<polygon fill="#ffff00" stroke="#ffff00" points="324,-109 194,-109 194,-73 324,-73 324,-109"/>
<text text-anchor="middle" x="259" y="-87.3" font-family="Times,serif" font-size="14.00">&lt;द्वि&#45;त्रि&#45;&gt;(इतरेतर&#45;द्वन्द्वः)</text>
</g>
<!-- Node4_2&#45;&gt;Node4_3_1 -->
<g id="edge2" class="edge">
<title>Node4_2&#45;&gt;Node4_3_1</title>
<path fill="none" stroke="black" d="M229.07,-44.79C235.28,-54.17 242.14,-64.54 247.73,-72.97"/>
<polygon fill="black" stroke="black" points="231.82,-42.59 223.38,-36.19 225.98,-46.46 231.82,-42.59"/>
</g>
<!-- Node4_3&#45;&gt;Node4_3_1 -->
<g id="edge1" class="edge">
<title>Node4_3&#45;&gt;Node4_3_1</title>
<path fill="none" stroke="black" d="M286.38,-44.79C280.7,-54.17 274.42,-64.54 269.31,-72.97"/>
<polygon fill="black" stroke="black" points="289.4,-46.55 291.59,-36.19 283.42,-42.93 289.4,-46.55"/>
</g>
<!-- Node4_5_2 -->
<g id="node6" class="node">
<title>Node4_5_2</title>
<polygon fill="#ffff00" stroke="#ffff00" points="514.5,-109 359.5,-109 359.5,-73 514.5,-73 514.5,-109"/>
<text text-anchor="middle" x="437" y="-87.3" font-family="Times,serif" font-size="14.00">&lt;क्षय&#45;कोपतः&gt;(इतरेतर&#45;द्वन्द्वः)</text>
</g>
<!-- Node4_3_1&#45;&gt;Node4_5_2 -->
<!-- Node4_5_3 -->
<g id="node7" class="node">
<title>Node4_5_3</title>
<polygon fill="#ffff00" stroke="#ffff00" points="544,-182 190,-182 190,-146 544,-146 544,-182"/>
<text text-anchor="middle" x="367" y="-160.3" font-family="Times,serif" font-size="14.00">&lt;&lt;द्वि&#45;त्रि&#45;&gt;(इतरेतर&#45;द्वन्द्वः)&lt;क्षय&#45;कोपतः&gt;(इतरेतर&#45;द्वन्द्वः)&gt;(षष्ठी&#45;तत्पुरुषः)</text>
</g>
<!-- Node4_3_1&#45;&gt;Node4_5_3 -->
<g id="edge8" class="edge">
<title>Node4_3_1&#45;&gt;Node4_5_3</title>
<path fill="none" stroke="black" d="M293.59,-114.74C308.96,-124.85 326.75,-136.54 340.97,-145.89"/>
<polygon fill="black" stroke="black" points="295.15,-111.58 284.87,-109.01 291.3,-117.42 295.15,-111.58"/>
</g>
<!-- Node4_4 -->
<g id="node4" class="node">
<title>Node4_4</title>
<polygon fill="#ffff00" stroke="#ffff00" points="441,-36 387,-36 387,0 441,0 441,-36"/>
<text text-anchor="middle" x="414" y="-14.3" font-family="Times,serif" font-size="14.00">क्षय&#45;</text>
</g>
<!-- Node4_5 -->
<g id="node5" class="node">
<title>Node4_5</title>
<polygon fill="#ffff00" stroke="#ffff00" points="531,-36 477,-36 477,0 531,0 531,-36"/>
<text text-anchor="middle" x="504" y="-14.3" font-family="Times,serif" font-size="14.00">कोपतः</text>
</g>
<!-- Node4_4&#45;&gt;Node4_5 -->
<!-- Node4_4&#45;&gt;Node4_5_2 -->
<g id="edge5" class="edge">
<title>Node4_4&#45;&gt;Node4_5_2</title>
<path fill="none" stroke="black" d="M422.73,-45.95C425.67,-55.02 428.86,-64.88 431.48,-72.97"/>
<polygon fill="black" stroke="black" points="425.98,-44.62 419.57,-36.19 419.32,-46.78 425.98,-44.62"/>
</g>
<!-- Node4_5&#45;&gt;Node4_5_2 -->
<g id="edge4" class="edge">
<title>Node4_5&#45;&gt;Node4_5_2</title>
<path fill="none" stroke="black" d="M480.76,-43.63C471.62,-53.31 461.36,-64.19 453.07,-72.97"/>
<polygon fill="black" stroke="black" points="483.46,-45.86 487.78,-36.19 478.37,-41.06 483.46,-45.86"/>
</g>
<!-- Node4_5_2&#45;&gt;Node4_5_3 -->
<g id="edge7" class="edge">
<title>Node4_5_2&#45;&gt;Node4_5_3</title>
<path fill="none" stroke="black" d="M413,-116.35C403.38,-126.1 392.53,-137.1 383.79,-145.97"/>
<polygon fill="black" stroke="black" points="415.53,-118.77 420.05,-109.19 410.54,-113.85 415.53,-118.77"/>
</g>
<!-- Node4_5_3&#45;&gt;Node4_5_3c -->
<g id="edge10" class="edge">
<title>Node4_5_3&#45;&gt;Node4_5_3c</title>
<path fill="none" stroke="black" d="M367,-192.27C367,-205.58 367,-221.19 367,-232.82"/>
<polygon fill="black" stroke="black" points="370.5,-192.2 367,-182.2 363.5,-192.2 370.5,-192.2"/>
</g>
<!-- Node4_1 -->
<g id="node13" class="node">
<title>Node4_1</title>
<polygon fill="#ffff00" stroke="#ffff00" points="616,-182 562,-182 562,-146 616,-146 616,-182"/>
<text text-anchor="middle" x="589" y="-160.3" font-family="Times,serif" font-size="14.00">तत्(4)</text>
</g>
</g>
</g>
<!-- Node4_5_3c -->
<g class="node8" onclick="toggleChildren('children_node1_65644');">
<title>Node4_5_3c</title>
<polygon fill="#ff99ff" stroke="#ff99ff" points="426.5,-269 307.5,-269 307.5,-233 426.5,-233 426.5,-269"/>
<text text-anchor="middle" x="367" y="-247.3" font-family="Times,serif" font-size="14.00">द्वि&#45;त्रि&#45;क्षय&#45;कोपतः(4)</text>
</g>
<!-- Node6_1 -->
<g id="node11" class="node">
<title>Node6_1</title>
<polygon fill="#ff1975" stroke="#ff1975" points="401,-356 333,-356 333,-320 401,-320 401,-356"/>
<text text-anchor="middle" x="367" y="-334.3" font-family="Times,serif" font-size="14.00">(भवति)(6)</text>
</g>
<!-- Node4_5_3c&#45;&gt;Node6_1 -->
<g id="edge11" class="edge">
<title>Node4_5_3c&#45;&gt;Node6_1</title>
<path fill="none" stroke="black" d="M367,-279.27C367,-292.58 367,-308.19 367,-319.82"/>
<polygon fill="black" stroke="black" points="370.5,-279.2 367,-269.2 363.5,-279.2 370.5,-279.2"/>
<text text-anchor="middle" x="376.5" y="-290.8" font-family="Times,serif" font-size="14.00">हेतुः</text>
</g>
<!-- Node1_1 -->
<g id="node9" class="node">
<title>Node1_1</title>
<polygon fill="#00bfff" stroke="#00bfff" points="159,-182 99,-182 99,-146 159,-146 159,-182"/>
<text text-anchor="middle" x="129" y="-160.3" font-family="Times,serif" font-size="14.00">संसर्गः(1)</text>
</g>
<!-- Node2_1 -->
<g id="node10" class="node">
<title>Node2_1</title>
<polygon fill="#00bfff" stroke="#00bfff" points="173.5,-269 96.5,-269 96.5,-233 173.5,-233 173.5,-269"/>
<text text-anchor="middle" x="135" y="-247.3" font-family="Times,serif" font-size="14.00">सन्निपातः(2)</text>
</g>
<!-- Node1_1&#45;&gt;Node2_1 -->
<g id="edge12" class="edge">
<title>Node1_1&#45;&gt;Node2_1</title>
<path fill="none" stroke="black" d="M130.92,-192.27C131.86,-205.58 132.97,-221.19 133.79,-232.82"/>
<polygon fill="black" stroke="black" points="134.41,-191.93 130.21,-182.2 127.43,-192.42 134.41,-191.93"/>
<text text-anchor="middle" x="155.5" y="-203.8" font-family="Times,serif" font-size="14.00">समुच्चितः</text>
</g>
<!-- Node2_1&#45;&gt;Node6_1 -->
<g id="edge13" class="edge">
<title>Node2_1&#45;&gt;Node6_1</title>
<path fill="none" stroke="black" d="M183.06,-269.61C227.78,-285.99 293.3,-310 332.88,-324.5"/>
<polygon fill="black" stroke="black" points="184.16,-266.29 173.57,-266.13 181.76,-272.86 184.16,-266.29"/>
<text text-anchor="middle" x="276" y="-290.8" font-family="Times,serif" font-size="14.00">कर्ता</text>
</g>
<!-- Node3_1 -->
<g id="node12" class="node">
<title>Node3_1</title>
<polygon fill="#ff99ff" stroke="#ff99ff" points="54,-182 0,-182 0,-146 54,-146 54,-182"/>
<text text-anchor="middle" x="27" y="-160.3" font-family="Times,serif" font-size="14.00">च(3)</text>
</g>
<!-- Node3_1&#45;&gt;Node2_1 -->
<g id="edge14" class="edge">
<title>Node3_1&#45;&gt;Node2_1</title>
<path fill="none" stroke="black" d="M34.36,-191.66C37.72,-199.98 42.45,-208.63 49,-215 61.94,-227.59 80.02,-235.86 96.27,-241.18"/>
<polygon fill="black" stroke="black" points="37.65,-190.47 31.02,-182.21 31.05,-192.8 37.65,-190.47"/>
<text text-anchor="middle" x="88.5" y="-203.8" font-family="Times,serif" font-size="14.00">समुच्चय_द्योतकः</text>
</g>
<!-- Node4_1&#45;&gt;Node4_5_3c -->
<g id="edge15" class="edge">
<title>Node4_1&#45;&gt;Node4_5_3c</title>
<path fill="none" stroke="black" d="M552.48,-182.05C501.69,-203.09 453.08,-220.59 417.61,-232.89"/>
<polygon fill="black" stroke="black" points="554.11,-185.16 561.99,-178.08 551.42,-178.7 554.11,-185.16"/>
<text text-anchor="middle" x="537.5" y="-203.8" font-family="Times,serif" font-size="14.00">षष्ठी&#45;तत्पुरुषः</text>
</g>
<!-- Node5_1 -->
<g id="node14" class="node">
<title>Node5_1</title>
<polygon fill="#40e0d0" stroke="#40e0d0" points="513.5,-269 444.5,-269 444.5,-233 513.5,-233 513.5,-269"/>
<text text-anchor="middle" x="479" y="-247.3" font-family="Times,serif" font-size="14.00">(क्रमेण)(5)</text>
</g>
<!-- Node5_1&#45;&gt;Node6_1 -->
<g id="edge16" class="edge">
<title>Node5_1&#45;&gt;Node6_1</title>
<path fill="none" stroke="black" d="M448.19,-275.38C429.65,-289.45 406.47,-307.04 389.63,-319.82"/>
<polygon fill="black" stroke="black" points="450.49,-278.03 456.34,-269.2 446.25,-272.46 450.49,-278.03"/>
<text text-anchor="middle" x="465.5" y="-290.8" font-family="Times,serif" font-size="14.00">क्रियाविशेषणम्</text>
</g>
</g>
</svg>
