<svg width="709pt" height="291pt"
 viewBox="0.00 0.00 708.50 291.00" xmlns="http://www.w3.org/2000/svg" xmlns:xlink="http://www.w3.org/1999/xlink">
<g id="graph0" class="graph" transform="scale(1 1) rotate(0) translate(4 287)">
<title>G</title>
<polygon fill="#fffacd" stroke="transparent" points="-4,4 -4,-287 704.5,-287 704.5,4 -4,4"/>
<g id="clust1" class="cluster">
<title>cluster_1</title>
<polygon fill="#fffacd" stroke="black" points="176,-65 176,-117 262,-117 262,-65 176,-65"/>
</g>
<!-- Node5_1 -->
<style>
 .hidden { display: none; }
 .node { cursor: pointer; }
 </style>
<script>
     function toggleChildren(id) {
      const children = document.getElementById(id);
      if (children.classList.contains('hidden')) {
        children.classList.remove('hidden');
      } else {
        children.classList.add('hidden');
      }
    }
</script>
<g id="children_node0_65894" class="hidden">
    <g class="node" onclick="toggleChildren('children_node0_65894');">
</g>
</g>
<g id="children_node1_65894" class="hidden">
    <g class="node" onclick="toggleChildren('children_node1_65894');">

<g id="node1" class="node">
<title>Node5_1</title>
<polygon fill="#ffff00" stroke="#ffff00" points="65,-36 11,-36 11,0 65,0 65,-36"/>
<text text-anchor="middle" x="38" y="-14.3" font-family="Times,serif" font-size="14.00">पाद&#45;</text>
</g>
<!-- Node5_2 -->
<g id="node2" class="node">
<title>Node5_2</title>
<polygon fill="#ffff00" stroke="#ffff00" points="157.5,-36 100.5,-36 100.5,0 157.5,0 157.5,-36"/>
<text text-anchor="middle" x="129" y="-14.3" font-family="Times,serif" font-size="14.00">चतुष्टयम्</text>
</g>
<!-- Node5_1&#45;&gt;Node5_2 -->
<!-- Node5_2_1 -->
<g id="node3" class="node">
<title>Node5_2_1</title>
<polygon fill="#ffff00" stroke="#ffff00" points="166,-109 0,-109 0,-73 166,-73 166,-109"/>
<text text-anchor="middle" x="83" y="-87.3" font-family="Times,serif" font-size="14.00">&lt;पाद&#45;चतुष्टयम्&gt;(षष्ठी&#45;तत्पुरुषः)</text>
</g>
<!-- Node5_1&#45;&gt;Node5_2_1 -->
<g id="edge2" class="edge">
<title>Node5_1&#45;&gt;Node5_2_1</title>
<path fill="none" stroke="black" d="M54.34,-44.79C60.29,-54.17 66.86,-64.54 72.21,-72.97"/>
<polygon fill="black" stroke="black" points="57.2,-42.76 48.89,-36.19 51.29,-46.51 57.2,-42.76"/>
</g>
<!-- Node5_2&#45;&gt;Node5_2_1 -->
<g id="edge1" class="edge">
<title>Node5_2&#45;&gt;Node5_2_1</title>
<path fill="none" stroke="black" d="M112.29,-44.79C106.21,-54.17 99.5,-64.54 94.03,-72.97"/>
<polygon fill="black" stroke="black" points="115.36,-46.48 117.86,-36.19 109.49,-42.68 115.36,-46.48"/>
</g>
<!-- Node5_2_1&#45;&gt;Node5_2_1c -->
<g id="edge4" class="edge">
<title>Node5_2_1&#45;&gt;Node5_2_1c</title>
<path fill="none" stroke="black" d="M152.27,-111.81C184.67,-121.05 223.79,-132.15 259,-142 285.21,-149.33 314.49,-157.41 338.33,-163.96"/>
<polygon fill="black" stroke="black" points="153.01,-108.39 142.44,-109.01 151.09,-115.12 153.01,-108.39"/>
</g>
</g>
</g>
<!-- Node5_2_1c -->
<g class="node4" onclick="toggleChildren('children_node1_65894');">
<title>Node5_2_1c</title>
<polygon fill="#00bfff" stroke="#00bfff" points="433.5,-196 338.5,-196 338.5,-160 433.5,-160 433.5,-196"/>
<text text-anchor="middle" x="386" y="-174.3" font-family="Times,serif" font-size="14.00">पाद&#45;चतुष्टयम्(5)</text>
</g>
<!-- Node8_1 -->
<g id="node11" class="node">
<title>Node8_1</title>
<polygon fill="#ff1975" stroke="#ff1975" points="420,-283 352,-283 352,-247 420,-247 420,-283"/>
<text text-anchor="middle" x="386" y="-261.3" font-family="Times,serif" font-size="14.00">(भवति)(8)</text>
</g>
<!-- Node5_2_1c&#45;&gt;Node8_1 -->
<g id="edge5" class="edge">
<title>Node5_2_1c&#45;&gt;Node8_1</title>
<path fill="none" stroke="black" d="M386,-206.27C386,-219.58 386,-235.19 386,-246.82"/>
<polygon fill="black" stroke="black" points="389.5,-206.2 386,-196.2 382.5,-206.2 389.5,-206.2"/>
<text text-anchor="middle" x="397" y="-217.8" font-family="Times,serif" font-size="14.00">कर्ता</text>
</g>
<!-- Node7_1 -->
<g id="node5" class="node">
<title>Node7_1</title>
<polygon fill="#00bfff" stroke="#00bfff" points="253.5,-109 184.5,-109 184.5,-73 253.5,-73 253.5,-109"/>
<text text-anchor="middle" x="219" y="-87.3" font-family="Times,serif" font-size="14.00">निर्दिष्टम्(7)</text>
</g>
<!-- Node7_1&#45;&gt;Node5_2_1c -->
<g id="edge11" class="edge">
<title>Node7_1&#45;&gt;Node5_2_1c</title>
<path fill="none" stroke="black" d="M247.2,-115.64C258.98,-124.72 273.14,-134.66 287,-142 303.11,-150.53 321.74,-157.74 338.47,-163.35"/>
<polygon fill="black" stroke="black" points="249.1,-112.67 239.08,-109.22 244.76,-118.17 249.1,-112.67"/>
<text text-anchor="middle" x="310.5" y="-130.8" font-family="Times,serif" font-size="14.00">विशेषणम्</text>
</g>
<!-- Node1_1 -->
<g id="node6" class="node">
<title>Node1_1</title>
<polygon fill="#00bfff" stroke="#00bfff" points="332.5,-109 271.5,-109 271.5,-73 332.5,-73 332.5,-109"/>
<text text-anchor="middle" x="302" y="-87.3" font-family="Times,serif" font-size="14.00">भिषक्(1)</text>
</g>
<!-- Node1_1&#45;&gt;Node5_2_1c -->
<g id="edge6" class="edge">
<title>Node1_1&#45;&gt;Node5_2_1c</title>
<path fill="none" stroke="black" d="M326.24,-116.53C339.95,-130.4 356.74,-147.39 369.03,-159.82"/>
<polygon fill="black" stroke="black" points="328.52,-113.85 319,-109.2 323.54,-118.77 328.52,-113.85"/>
<text text-anchor="middle" x="363.5" y="-130.8" font-family="Times,serif" font-size="14.00">घटकः</text>
</g>
<!-- Node2_1 -->
<g id="node7" class="node">
<title>Node2_1</title>
<polygon fill="#00bfff" stroke="#00bfff" points="421.5,-109 350.5,-109 350.5,-73 421.5,-73 421.5,-109"/>
<text text-anchor="middle" x="386" y="-87.3" font-family="Times,serif" font-size="14.00">द्रव्याणि(2)</text>
</g>
<!-- Node2_1&#45;&gt;Node5_2_1c -->
<g id="edge7" class="edge">
<title>Node2_1&#45;&gt;Node5_2_1c</title>
<path fill="none" stroke="black" d="M386,-119.27C386,-132.58 386,-148.19 386,-159.82"/>
<polygon fill="black" stroke="black" points="389.5,-119.2 386,-109.2 382.5,-119.2 389.5,-119.2"/>
<text text-anchor="middle" x="400.5" y="-130.8" font-family="Times,serif" font-size="14.00">घटकः</text>
</g>
<!-- Node3_1 -->
<g id="node8" class="node">
<title>Node3_1</title>
<polygon fill="#00bfff" stroke="#00bfff" points="514.5,-109 439.5,-109 439.5,-73 514.5,-73 514.5,-109"/>
<text text-anchor="middle" x="477" y="-87.3" font-family="Times,serif" font-size="14.00">उपस्थाता(3)</text>
</g>
<!-- Node3_1&#45;&gt;Node5_2_1c -->
<g id="edge8" class="edge">
<title>Node3_1&#45;&gt;Node5_2_1c</title>
<path fill="none" stroke="black" d="M451.15,-116.15C436.23,-130.08 417.83,-147.27 404.39,-159.82"/>
<polygon fill="black" stroke="black" points="453.67,-118.58 458.58,-109.2 448.89,-113.47 453.67,-118.58"/>
<text text-anchor="middle" x="450.5" y="-130.8" font-family="Times,serif" font-size="14.00">घटकः</text>
</g>
<!-- Node4_1 -->
<g id="node9" class="node">
<title>Node4_1</title>
<polygon fill="#00bfff" stroke="#00bfff" points="587,-109 533,-109 533,-73 587,-73 587,-109"/>
<text text-anchor="middle" x="560" y="-87.3" font-family="Times,serif" font-size="14.00">रोगी(4)</text>
</g>
<!-- Node4_1&#45;&gt;Node5_2_1c -->
<g id="edge9" class="edge">
<title>Node4_1&#45;&gt;Node5_2_1c</title>
<path fill="none" stroke="black" d="M528,-114.65C526.66,-115.46 525.32,-116.25 524,-117 494.47,-133.78 459.35,-148.99 431.92,-159.9"/>
<polygon fill="black" stroke="black" points="530.23,-117.37 536.77,-109.03 526.46,-111.48 530.23,-117.37"/>
<text text-anchor="middle" x="516.5" y="-130.8" font-family="Times,serif" font-size="14.00">घटकः</text>
</g>
<!-- Node6_1 -->
<g id="node10" class="node">
<title>Node6_1</title>
<polygon fill="#87ceeb" stroke="#87ceeb" points="700.5,-109 605.5,-109 605.5,-73 700.5,-73 700.5,-109"/>
<text text-anchor="middle" x="653" y="-87.3" font-family="Times,serif" font-size="14.00">चिकित्सितस्य(6)</text>
</g>
<!-- Node6_1&#45;&gt;Node5_2_1c -->
<g id="edge10" class="edge">
<title>Node6_1&#45;&gt;Node5_2_1c</title>
<path fill="none" stroke="black" d="M605.14,-113.09C602.05,-114.42 598.98,-115.73 596,-117 569.03,-128.44 562.9,-133.07 535,-142 501.72,-152.65 463.32,-161.6 433.83,-167.78"/>
<polygon fill="black" stroke="black" points="606.64,-116.26 614.42,-109.07 603.85,-109.83 606.64,-116.26"/>
<text text-anchor="middle" x="600" y="-130.8" font-family="Times,serif" font-size="14.00">षष्ठीसम्बन्धः</text>
</g>
</g>
</svg>
