<svg width="677pt" height="465pt"
 viewBox="0.00 0.00 677.00 465.00" xmlns="http://www.w3.org/2000/svg" xmlns:xlink="http://www.w3.org/1999/xlink">
<g id="graph0" class="graph" transform="scale(1 1) rotate(0) translate(4 461)">
<title>G</title>
<polygon fill="#fffacd" stroke="transparent" points="-4,4 -4,-461 673,-461 673,4 -4,4"/>
<!-- Node1_1 -->
<style>
 .hidden { display: none; }
 .node { cursor: pointer; }
 </style>
<script>
     function toggleChildren(id) {
      const children = document.getElementById(id);
      if (children.classList.contains('hidden')) {
        children.classList.remove('hidden');
      } else {
        children.classList.add('hidden');
      }
    }
</script>
<g id="children_node0_65862" class="hidden">
    <g class="node" onclick="toggleChildren('children_node0_65862');">
</g>
</g>
<g id="children_node1_65862" class="hidden">
    <g class="node" onclick="toggleChildren('children_node1_65862');">

<g id="node1" class="node">
<title>Node1_1</title>
<polygon fill="#ffff00" stroke="#ffff00" points="54,-109 0,-109 0,-73 54,-73 54,-109"/>
<text text-anchor="middle" x="27" y="-87.3" font-family="Times,serif" font-size="14.00">क्षण&#45;</text>
</g>
<!-- Node1_2 -->
<g id="node2" class="node">
<title>Node1_2</title>
<polygon fill="#ffff00" stroke="#ffff00" points="144,-109 90,-109 90,-73 144,-73 144,-109"/>
<text text-anchor="middle" x="117" y="-87.3" font-family="Times,serif" font-size="14.00">आदिः</text>
</g>
<!-- Node1_1&#45;&gt;Node1_2 -->
<!-- Node1_2_1 -->
<g id="node3" class="node">
<title>Node1_2_1</title>
<polygon fill="#ffff00" stroke="#ffff00" points="184.5,-196 49.5,-196 49.5,-160 184.5,-160 184.5,-196"/>
<text text-anchor="middle" x="117" y="-174.3" font-family="Times,serif" font-size="14.00">&lt;क्षण&#45;आदिः&gt;(बहुव्रीहिः)</text>
</g>
<!-- Node1_1&#45;&gt;Node1_2_1 -->
<g id="edge2" class="edge">
<title>Node1_1&#45;&gt;Node1_2_1</title>
<path fill="none" stroke="black" d="M52.57,-116.15C67.32,-130.08 85.52,-147.27 98.81,-159.82"/>
<polygon fill="black" stroke="black" points="54.89,-113.52 45.21,-109.2 50.08,-118.61 54.89,-113.52"/>
</g>
<!-- Node1_2&#45;&gt;Node1_2_1 -->
<g id="edge1" class="edge">
<title>Node1_2&#45;&gt;Node1_2_1</title>
<path fill="none" stroke="black" d="M117,-119.27C117,-132.58 117,-148.19 117,-159.82"/>
<polygon fill="black" stroke="black" points="120.5,-119.2 117,-109.2 113.5,-119.2 120.5,-119.2"/>
</g>
<!-- Node1_2_1&#45;&gt;Node1_2_1c -->
<g id="edge4" class="edge">
<title>Node1_2_1&#45;&gt;Node1_2_1c</title>
<path fill="none" stroke="black" d="M158.31,-201.08C185.09,-215.4 219.47,-233.78 244.14,-246.97"/>
<polygon fill="black" stroke="black" points="159.65,-197.83 149.18,-196.2 156.34,-204 159.65,-197.83"/>
</g>
</g>
</g>
<!-- Node1_2_1c -->
<g class="node4" onclick="toggleChildren('children_node1_65862');">
<title>Node1_2_1c</title>
<polygon fill="#00bfff" stroke="#00bfff" points="319,-283 233,-283 233,-247 319,-247 319,-283"/>
<text text-anchor="middle" x="276" y="-261.3" font-family="Times,serif" font-size="14.00">क्षण&#45;आदिः(1)</text>
</g>
<g id="children_node2_65862" class="hidden">
    <g class="node" onclick="toggleChildren('children_node2_65862');">
<!-- Node2_1 -->
<g id="node5" class="node">
<title>Node2_1</title>
<polygon fill="#ffff00" stroke="#ffff00" points="222,-36 168,-36 168,0 222,0 222,-36"/>
<text text-anchor="middle" x="195" y="-14.3" font-family="Times,serif" font-size="14.00">व्याधि&#45;</text>
</g>
<!-- Node2_2 -->
<g id="node6" class="node">
<title>Node2_2</title>
<polygon fill="#ffff00" stroke="#ffff00" points="312,-36 258,-36 258,0 312,0 312,-36"/>
<text text-anchor="middle" x="285" y="-14.3" font-family="Times,serif" font-size="14.00">अवस्था</text>
</g>
<!-- Node2_1&#45;&gt;Node2_2 -->
<!-- Node2_2_1 -->
<g id="node7" class="node">
<title>Node2_2_1</title>
<polygon fill="#ffff00" stroke="#ffff00" points="333.5,-109 162.5,-109 162.5,-73 333.5,-73 333.5,-109"/>
<text text-anchor="middle" x="248" y="-87.3" font-family="Times,serif" font-size="14.00">&lt;व्याधि&#45;अवस्था&gt;(षष्ठी&#45;तत्पुरुषः)</text>
</g>
<!-- Node2_1&#45;&gt;Node2_2_1 -->
<g id="edge7" class="edge">
<title>Node2_1&#45;&gt;Node2_2_1</title>
<path fill="none" stroke="black" d="M213.82,-44.21C220.94,-53.74 228.86,-64.36 235.29,-72.97"/>
<polygon fill="black" stroke="black" points="216.62,-42.11 207.83,-36.19 211.01,-46.29 216.62,-42.11"/>
</g>
<!-- Node2_2&#45;&gt;Node2_2_1 -->
<g id="edge6" class="edge">
<title>Node2_2&#45;&gt;Node2_2_1</title>
<path fill="none" stroke="black" d="M271.41,-45.08C266.56,-54.39 261.22,-64.62 256.87,-72.97"/>
<polygon fill="black" stroke="black" points="274.53,-46.67 276.04,-36.19 268.32,-43.44 274.53,-46.67"/>
</g>
<!-- Node2_2_1&#45;&gt;Node2_2_1c -->
<g id="edge9" class="edge">
<title>Node2_2_1&#45;&gt;Node2_2_1c</title>
<path fill="none" stroke="black" d="M256.85,-118.87C261.27,-132.27 266.47,-148.08 270.34,-159.82"/>
<polygon fill="black" stroke="black" points="260.12,-117.6 253.67,-109.2 253.47,-119.79 260.12,-117.6"/>
</g>
</g>
</g>
<!-- Node2_2_1c -->
<g class="node8" onclick="toggleChildren('children_node2_65862');">
<title>Node2_2_1c</title>
<polygon fill="#00bfff" stroke="#00bfff" points="326.5,-196 225.5,-196 225.5,-160 326.5,-160 326.5,-196"/>
<text text-anchor="middle" x="276" y="-174.3" font-family="Times,serif" font-size="14.00">व्याधि&#45;अवस्था(2)</text>
</g>
<g id="children_node3_65862" class="hidden">
    <g class="node" onclick="toggleChildren('children_node3_65862');">
<!-- Node5_1 -->
<g id="node9" class="node">
<title>Node5_1</title>
<polygon fill="#ffff00" stroke="#ffff00" points="484,-36 430,-36 430,0 484,0 484,-36"/>
<text text-anchor="middle" x="457" y="-14.3" font-family="Times,serif" font-size="14.00">भेषज&#45;</text>
</g>
<!-- Node5_2 -->
<g id="node10" class="node">
<title>Node5_2</title>
<polygon fill="#ffff00" stroke="#ffff00" points="574,-36 520,-36 520,0 574,0 574,-36"/>
<text text-anchor="middle" x="547" y="-14.3" font-family="Times,serif" font-size="14.00">योग&#45;</text>
</g>
<!-- Node5_1&#45;&gt;Node5_2 -->
<!-- Node5_2_1 -->
<g id="node11" class="node">
<title>Node5_2_1</title>
<polygon fill="#ffff00" stroke="#ffff00" points="579.5,-109 424.5,-109 424.5,-73 579.5,-73 579.5,-109"/>
<text text-anchor="middle" x="502" y="-87.3" font-family="Times,serif" font-size="14.00">&lt;भेषज&#45;योग&#45;&gt;(षष्ठी&#45;तत्पुरुषः)</text>
</g>
<!-- Node5_1&#45;&gt;Node5_2_1 -->
<g id="edge12" class="edge">
<title>Node5_1&#45;&gt;Node5_2_1</title>
<path fill="none" stroke="black" d="M473.34,-44.79C479.29,-54.17 485.86,-64.54 491.21,-72.97"/>
<polygon fill="black" stroke="black" points="476.2,-42.76 467.89,-36.19 470.29,-46.51 476.2,-42.76"/>
</g>
<!-- Node5_2&#45;&gt;Node5_2_1 -->
<g id="edge11" class="edge">
<title>Node5_2&#45;&gt;Node5_2_1</title>
<path fill="none" stroke="black" d="M530.66,-44.79C524.71,-54.17 518.14,-64.54 512.79,-72.97"/>
<polygon fill="black" stroke="black" points="533.71,-46.51 536.11,-36.19 527.8,-42.76 533.71,-46.51"/>
</g>
<!-- Node5_3 -->
<g id="node12" class="node">
<title>Node5_3</title>
<polygon fill="#ffff00" stroke="#ffff00" points="669,-109 615,-109 615,-73 669,-73 669,-109"/>
<text text-anchor="middle" x="642" y="-87.3" font-family="Times,serif" font-size="14.00">कृत्</text>
</g>
<!-- Node5_2_1&#45;&gt;Node5_3 -->
<!-- Node5_3_2 -->
<g id="node13" class="node">
<title>Node5_3_2</title>
<polygon fill="#ffff00" stroke="#ffff00" points="636,-196 368,-196 368,-160 636,-160 636,-196"/>
<text text-anchor="middle" x="502" y="-174.3" font-family="Times,serif" font-size="14.00">&lt;&lt;भेषज&#45;योग&#45;&gt;(षष्ठी&#45;तत्पुरुषः)कृत्&gt;(उपपद&#45;तत्पुरुषः)</text>
</g>
<!-- Node5_2_1&#45;&gt;Node5_3_2 -->
<g id="edge15" class="edge">
<title>Node5_2_1&#45;&gt;Node5_3_2</title>
<path fill="none" stroke="black" d="M502,-119.27C502,-132.58 502,-148.19 502,-159.82"/>
<polygon fill="black" stroke="black" points="505.5,-119.2 502,-109.2 498.5,-119.2 505.5,-119.2"/>
</g>
<!-- Node5_3&#45;&gt;Node5_3_2 -->
<g id="edge14" class="edge">
<title>Node5_3&#45;&gt;Node5_3_2</title>
<path fill="none" stroke="black" d="M606,-113.86C582.42,-128.17 552.04,-146.62 530.22,-159.87"/>
<polygon fill="black" stroke="black" points="607.94,-116.77 614.67,-108.59 604.31,-110.79 607.94,-116.77"/>
</g>
<!-- Node5_3_2&#45;&gt;Node5_3_2c -->
<g id="edge17" class="edge">
<title>Node5_3_2&#45;&gt;Node5_3_2c</title>
<path fill="none" stroke="black" d="M481.46,-204.31C470.32,-218.02 456.85,-234.62 446.94,-246.82"/>
<polygon fill="black" stroke="black" points="484.45,-206.17 488.04,-196.2 479.02,-201.76 484.45,-206.17"/>
</g>
</g>
</g>
<!-- Node5_3_2c -->
<g class="node14" onclick="toggleChildren('children_node3_65862');">
<title>Node5_3_2c</title>
<polygon fill="#00bfff" stroke="#00bfff" points="484,-283 382,-283 382,-247 484,-247 484,-283"/>
<text text-anchor="middle" x="433" y="-261.3" font-family="Times,serif" font-size="14.00">भेषज&#45;योग&#45;कृत्(5)</text>
</g>
<!-- Node4_1 -->
<g id="node16" class="node">
<title>Node4_1</title>
<polygon fill="#00bfff" stroke="#00bfff" points="360.5,-370 301.5,-370 301.5,-334 360.5,-334 360.5,-370"/>
<text text-anchor="middle" x="331" y="-348.3" font-family="Times,serif" font-size="14.00">कालः(4)</text>
</g>
<!-- Node1_2_1c&#45;&gt;Node4_1 -->
<g id="edge5" class="edge">
<title>Node1_2_1c&#45;&gt;Node4_1</title>
<path fill="none" stroke="black" d="M275.25,-293.43C276.08,-301.16 278.02,-309.28 282,-316 286.69,-323.91 293.95,-330.52 301.45,-335.79"/>
<polygon fill="black" stroke="black" points="278.74,-293.11 274.72,-283.31 271.75,-293.48 278.74,-293.11"/>
<text text-anchor="middle" x="323" y="-304.8" font-family="Times,serif" font-size="14.00">विधेय_विशेषणम्</text>
</g>
<!-- Node2_2_1c&#45;&gt;Node1_2_1c -->
<g id="edge10" class="edge">
<title>Node2_2_1c&#45;&gt;Node1_2_1c</title>
<path fill="none" stroke="black" d="M276,-206.27C276,-219.58 276,-235.19 276,-246.82"/>
<polygon fill="black" stroke="black" points="279.5,-206.2 276,-196.2 272.5,-206.2 279.5,-206.2"/>
<text text-anchor="middle" x="298.5" y="-217.8" font-family="Times,serif" font-size="14.00">समुच्चितः</text>
</g>
<!-- Node5_3_2c&#45;&gt;Node4_1 -->
<g id="edge18" class="edge">
<title>Node5_3_2c&#45;&gt;Node4_1</title>
<path fill="none" stroke="black" d="M404.48,-289.77C387.68,-303.77 366.81,-321.16 351.61,-333.82"/>
<polygon fill="black" stroke="black" points="406.92,-292.29 412.36,-283.2 402.44,-286.91 406.92,-292.29"/>
<text text-anchor="middle" x="411.5" y="-304.8" font-family="Times,serif" font-size="14.00">विशेषणम्</text>
</g>
<!-- Node3_1 -->
<g id="node15" class="node">
<title>Node3_1</title>
<polygon fill="#ff99ff" stroke="#ff99ff" points="406,-109 352,-109 352,-73 406,-73 406,-109"/>
<text text-anchor="middle" x="379" y="-87.3" font-family="Times,serif" font-size="14.00">च(3)</text>
</g>
<!-- Node3_1&#45;&gt;Node2_2_1c -->
<g id="edge19" class="edge">
<title>Node3_1&#45;&gt;Node2_2_1c</title>
<path fill="none" stroke="black" d="M350.2,-115.77C333.24,-129.77 312.16,-147.16 296.81,-159.82"/>
<polygon fill="black" stroke="black" points="352.67,-118.27 358.16,-109.2 348.22,-112.87 352.67,-118.27"/>
<text text-anchor="middle" x="351.5" y="-130.8" font-family="Times,serif" font-size="14.00">सम्बन्धः</text>
</g>
<!-- Node6_1 -->
<g id="node17" class="node">
<title>Node6_1</title>
<polygon fill="#ff1975" stroke="#ff1975" points="365,-457 297,-457 297,-421 365,-421 365,-457"/>
<text text-anchor="middle" x="331" y="-435.3" font-family="Times,serif" font-size="14.00">(अस्ति)(6)</text>
</g>
<!-- Node4_1&#45;&gt;Node6_1 -->
<g id="edge20" class="edge">
<title>Node4_1&#45;&gt;Node6_1</title>
<path fill="none" stroke="black" d="M331,-380.27C331,-393.58 331,-409.19 331,-420.82"/>
<polygon fill="black" stroke="black" points="334.5,-380.2 331,-370.2 327.5,-380.2 334.5,-380.2"/>
<text text-anchor="middle" x="342" y="-391.8" font-family="Times,serif" font-size="14.00">कर्ता</text>
</g>
</g>
</svg>
