<?xml version="1.0" encoding="UTF-8" standalone="no"?>
<!DOCTYPE svg PUBLIC "-//W3C//DTD SVG 1.1//EN"
 "http://www.w3.org/Graphics/SVG/1.1/DTD/svg11.dtd">
<!-- Generated by graphviz version 2.50.0 (20211204.2007)
 -->
<!-- Title: G Pages: 1 -->
<svg width="448pt" height="305pt"
 viewBox="0.00 0.00 447.74 305.00" xmlns="http://www.w3.org/2000/svg" xmlns:xlink="http://www.w3.org/1999/xlink">
<g id="graph0" class="graph" transform="scale(1 1) rotate(0) translate(4 301)">
<title>G</title>
<polygon fill="#fffacd" stroke="transparent" points="-4,4 -4,-301 443.74,-301 443.74,4 -4,4"/>
<!-- Node1_1 -->
<g id="node1" class="node">
<title>Node1_1</title>
<ellipse fill="#93db70" stroke="#93db70" cx="108.75" cy="-192" rx="42.79" ry="18"/>
<text text-anchor="middle" x="108.75" y="-188.3" font-family="Times,serif" font-size="14.00">रोगम्(1.1)</text>
</g>
<!-- Node3_1 -->
<g id="node2" class="node">
<title>Node3_1</title>
<ellipse fill="#ff1975" stroke="#ff1975" cx="128.75" cy="-279" rx="55.79" ry="18"/>
<text text-anchor="middle" x="128.75" y="-275.3" font-family="Times,serif" font-size="14.00">(परीक्षेत)(3.1)</text>
</g>
<!-- Node1_1&#45;&gt;Node3_1 -->
<g id="edge1" class="edge">
<title>Node1_1&#45;&gt;Node3_1</title>
<path fill="none" stroke="black" d="M115.16,-220.27C118.29,-233.58 121.97,-249.19 124.7,-260.82"/>
<polygon fill="black" stroke="black" points="118.49,-219.13 112.79,-210.2 111.68,-220.74 118.49,-219.13"/>
<text text-anchor="middle" x="129.75" y="-231.8" font-family="Times,serif" font-size="14.00">कर्म</text>
</g>
<!-- Node2_1 -->
<g id="node3" class="node">
<title>Node2_1</title>
<ellipse fill="#ffff00" stroke="#ffff00" cx="48.75" cy="-105" rx="48.99" ry="18"/>
<text text-anchor="middle" x="48.75" y="-101.3" font-family="Times,serif" font-size="14.00">निदान&#45;(2.1)</text>
</g>
<!-- Node2_6 -->
<g id="node4" class="node">
<title>Node2_6</title>
<ellipse fill="#40e0d0" stroke="#40e0d0" cx="225.75" cy="-192" rx="56.59" ry="18"/>
<text text-anchor="middle" x="225.75" y="-188.3" font-family="Times,serif" font-size="14.00">आप्तिभिः(2.6)</text>
</g>
<!-- Node2_1&#45;&gt;Node2_6 -->
<g id="edge2" class="edge">
<title>Node2_1&#45;&gt;Node2_6</title>
<path fill="none" stroke="black" d="M72.45,-129.13C83.14,-138.54 96.36,-148.86 109.75,-156 122.65,-162.88 155.74,-172.61 183.29,-180.06"/>
<polygon fill="black" stroke="black" points="74.55,-126.31 64.8,-122.17 69.84,-131.49 74.55,-126.31"/>
<text text-anchor="middle" x="138.75" y="-144.8" font-family="Times,serif" font-size="14.00">इतरेतर&#45;द्वन्द्वः</text>
</g>
<!-- Node2_6&#45;&gt;Node3_1 -->
<g id="edge7" class="edge">
<title>Node2_6&#45;&gt;Node3_1</title>
<path fill="none" stroke="black" d="M199.31,-216.17C182.74,-230.68 161.81,-249.03 147.06,-261.95"/>
<polygon fill="black" stroke="black" points="201.83,-218.61 207.04,-209.39 197.22,-213.35 201.83,-218.61"/>
<text text-anchor="middle" x="192.25" y="-231.8" font-family="Times,serif" font-size="14.00">हेतुः</text>
</g>
<!-- Node2_2 -->
<g id="node5" class="node">
<title>Node2_2</title>
<ellipse fill="#ffff00" stroke="#ffff00" cx="156.75" cy="-18" rx="44.69" ry="18"/>
<text text-anchor="middle" x="156.75" y="-14.3" font-family="Times,serif" font-size="14.00">प्राक्&#45;(2.2)</text>
</g>
<!-- Node2_3 -->
<g id="node6" class="node">
<title>Node2_3</title>
<ellipse fill="#ffff00" stroke="#ffff00" cx="156.75" cy="-105" rx="40.89" ry="18"/>
<text text-anchor="middle" x="156.75" y="-101.3" font-family="Times,serif" font-size="14.00">रूप&#45;(2.3)</text>
</g>
<!-- Node2_2&#45;&gt;Node2_3 -->
<g id="edge3" class="edge">
<title>Node2_2&#45;&gt;Node2_3</title>
<path fill="none" stroke="black" d="M156.75,-46.27C156.75,-59.58 156.75,-75.19 156.75,-86.82"/>
<polygon fill="black" stroke="black" points="160.25,-46.2 156.75,-36.2 153.25,-46.2 160.25,-46.2"/>
<text text-anchor="middle" x="188.75" y="-57.8" font-family="Times,serif" font-size="14.00">केवल&#45;समासः</text>
</g>
<!-- Node2_3&#45;&gt;Node2_6 -->
<g id="edge4" class="edge">
<title>Node2_3&#45;&gt;Node2_6</title>
<path fill="none" stroke="black" d="M167.1,-131.99C171.01,-140.13 175.95,-148.85 181.75,-156 187.52,-163.13 194.99,-169.74 202.13,-175.25"/>
<polygon fill="black" stroke="black" points="170.27,-130.51 162.98,-122.82 163.89,-133.38 170.27,-130.51"/>
<text text-anchor="middle" x="210.75" y="-144.8" font-family="Times,serif" font-size="14.00">इतरेतर&#45;द्वन्द्वः</text>
</g>
<!-- Node2_4 -->
<g id="node7" class="node">
<title>Node2_4</title>
<ellipse fill="#ffff00" stroke="#ffff00" cx="266.75" cy="-105" rx="50.89" ry="18"/>
<text text-anchor="middle" x="266.75" y="-101.3" font-family="Times,serif" font-size="14.00">लक्षण&#45;(2.4)</text>
</g>
<!-- Node2_4&#45;&gt;Node2_6 -->
<g id="edge5" class="edge">
<title>Node2_4&#45;&gt;Node2_6</title>
<path fill="none" stroke="black" d="M254.14,-132.13C247.58,-145.73 239.75,-161.98 233.97,-173.95"/>
<polygon fill="black" stroke="black" points="257.45,-133.32 258.65,-122.79 251.15,-130.28 257.45,-133.32"/>
<text text-anchor="middle" x="276.75" y="-144.8" font-family="Times,serif" font-size="14.00">इतरेतर&#45;द्वन्द्वः</text>
</g>
<!-- Node2_5 -->
<g id="node8" class="node">
<title>Node2_5</title>
<ellipse fill="#ffff00" stroke="#ffff00" cx="387.75" cy="-105" rx="51.99" ry="18"/>
<text text-anchor="middle" x="387.75" y="-101.3" font-family="Times,serif" font-size="14.00">उपशय&#45;(2.5)</text>
</g>
<!-- Node2_5&#45;&gt;Node2_6 -->
<g id="edge6" class="edge">
<title>Node2_5&#45;&gt;Node2_6</title>
<path fill="none" stroke="black" d="M357.47,-127.16C343.32,-136.59 326.03,-147.47 309.75,-156 294.21,-164.14 276.35,-171.8 261.11,-177.86"/>
<polygon fill="black" stroke="black" points="359.51,-130.01 365.84,-121.51 355.59,-124.21 359.51,-130.01"/>
<text text-anchor="middle" x="362.75" y="-144.8" font-family="Times,serif" font-size="14.00">इतरेतर&#45;द्वन्द्वः</text>
</g>
</g>
</svg>
