<?xml version="1.0" encoding="UTF-8" standalone="no"?>
<!DOCTYPE svg PUBLIC "-//W3C//DTD SVG 1.1//EN"
 "http://www.w3.org/Graphics/SVG/1.1/DTD/svg11.dtd">
<!-- Generated by graphviz version 2.50.0 (20211204.2007)
 -->
<!-- Title: G Pages: 1 -->
<svg width="658pt" height="392pt"
 viewBox="0.00 0.00 658.44 392.00" xmlns="http://www.w3.org/2000/svg" xmlns:xlink="http://www.w3.org/1999/xlink">
<g id="graph0" class="graph" transform="scale(1 1) rotate(0) translate(4 388)">
<title>G</title>
<polygon fill="#fffacd" stroke="transparent" points="-4,4 -4,-388 654.44,-388 654.44,4 -4,4"/>
<g id="clust1" class="cluster">
<title>cluster_1</title>
<polygon fill="#fffacd" stroke="black" points="370.1,-79 370.1,-218 480.1,-218 480.1,-79 370.1,-79"/>
</g>
<g id="clust2" class="cluster">
<title>cluster_2</title>
<polygon fill="#fffacd" stroke="black" points="118.1,-79 118.1,-218 258.1,-218 258.1,-79 118.1,-79"/>
</g>
<!-- Node5_2 -->
<g id="node1" class="node">
<title>Node5_2</title>
<ellipse fill="#00bfff" stroke="#00bfff" cx="425.1" cy="-105" rx="46.59" ry="18"/>
<text text-anchor="middle" x="425.1" y="-101.3" font-family="Times,serif" font-size="14.00">साध्यः(5.2)</text>
</g>
<!-- Node6_2 -->
<g id="node2" class="node">
<title>Node6_2</title>
<ellipse fill="#00bfff" stroke="#00bfff" cx="425.1" cy="-192" rx="46.59" ry="18"/>
<text text-anchor="middle" x="425.1" y="-188.3" font-family="Times,serif" font-size="14.00">साध्यः(6.2)</text>
</g>
<!-- Node5_2&#45;&gt;Node6_2 -->
<g id="edge6" class="edge">
<title>Node5_2&#45;&gt;Node6_2</title>
<path fill="none" stroke="black" d="M425.1,-133.27C425.1,-146.58 425.1,-162.19 425.1,-173.82"/>
<polygon fill="black" stroke="black" points="428.6,-133.2 425.1,-123.2 421.6,-133.2 428.6,-133.2"/>
<text text-anchor="middle" x="447.6" y="-144.8" font-family="Times,serif" font-size="14.00">समुच्चितः</text>
</g>
<!-- Node4_1 -->
<g id="node9" class="node">
<title>Node4_1</title>
<ellipse fill="#ff99ff" stroke="#ff99ff" cx="229.1" cy="-279" rx="43.59" ry="18"/>
<text text-anchor="middle" x="229.1" y="-275.3" font-family="Times,serif" font-size="14.00">द्विधा(4.1)</text>
</g>
<!-- Node6_2&#45;&gt;Node4_1 -->
<g id="edge8" class="edge">
<title>Node6_2&#45;&gt;Node4_1</title>
<path fill="none" stroke="black" d="M385.69,-210.09C347.99,-226.44 292,-250.72 258.18,-265.39"/>
<polygon fill="black" stroke="black" points="387.55,-213.1 395.33,-205.91 384.76,-206.68 387.55,-213.1"/>
<text text-anchor="middle" x="352.6" y="-231.8" font-family="Times,serif" font-size="14.00">घटकः</text>
</g>
<!-- Node8_1 -->
<g id="node3" class="node">
<title>Node8_1</title>
<ellipse fill="#00bfff" stroke="#00bfff" cx="188.1" cy="-105" rx="46.29" ry="18"/>
<text text-anchor="middle" x="188.1" y="-101.3" font-family="Times,serif" font-size="14.00">याप्यः(8.1)</text>
</g>
<!-- Node11_1 -->
<g id="node4" class="node">
<title>Node11_1</title>
<ellipse fill="#00bfff" stroke="#00bfff" cx="188.1" cy="-192" rx="61.99" ry="18"/>
<text text-anchor="middle" x="188.1" y="-188.3" font-family="Times,serif" font-size="14.00">अनुपक्रमः(11.1)</text>
</g>
<!-- Node8_1&#45;&gt;Node11_1 -->
<g id="edge10" class="edge">
<title>Node8_1&#45;&gt;Node11_1</title>
<path fill="none" stroke="black" d="M188.1,-133.27C188.1,-146.58 188.1,-162.19 188.1,-173.82"/>
<polygon fill="black" stroke="black" points="191.6,-133.2 188.1,-123.2 184.6,-133.2 191.6,-133.2"/>
<text text-anchor="middle" x="210.6" y="-144.8" font-family="Times,serif" font-size="14.00">समुच्चितः</text>
</g>
<!-- Node11_1&#45;&gt;Node4_1 -->
<g id="edge12" class="edge">
<title>Node11_1&#45;&gt;Node4_1</title>
<path fill="none" stroke="black" d="M199.99,-219.42C203.5,-227.06 207.39,-235.39 211.1,-243 214.03,-249.02 217.35,-255.56 220.34,-261.34"/>
<polygon fill="black" stroke="black" points="203.12,-217.86 195.79,-210.21 196.75,-220.76 203.12,-217.86"/>
<text text-anchor="middle" x="225.6" y="-231.8" font-family="Times,serif" font-size="14.00">घटकः</text>
</g>
<!-- Node1_1 -->
<g id="node5" class="node">
<title>Node1_1</title>
<ellipse fill="#00bfff" stroke="#00bfff" cx="35.1" cy="-279" rx="35.19" ry="18"/>
<text text-anchor="middle" x="35.1" y="-275.3" font-family="Times,serif" font-size="14.00">तौ(1.1)</text>
</g>
<!-- Node12_1 -->
<g id="node6" class="node">
<title>Node12_1</title>
<ellipse fill="#ff1975" stroke="#ff1975" cx="128.1" cy="-366" rx="55.49" ry="18"/>
<text text-anchor="middle" x="128.1" y="-362.3" font-family="Times,serif" font-size="14.00">(भवतः)(12.1)</text>
</g>
<!-- Node1_1&#45;&gt;Node12_1 -->
<g id="edge1" class="edge">
<title>Node1_1&#45;&gt;Node12_1</title>
<path fill="none" stroke="black" d="M59.16,-301.99C75.16,-316.62 95.83,-335.51 110.35,-348.78"/>
<polygon fill="black" stroke="black" points="61.47,-299.36 51.72,-295.2 56.74,-304.53 61.47,-299.36"/>
<text text-anchor="middle" x="99.1" y="-318.8" font-family="Times,serif" font-size="14.00">कर्ता</text>
</g>
<!-- Node2_1 -->
<g id="node7" class="node">
<title>Node2_1</title>
<ellipse fill="#ff99ff" stroke="#ff99ff" cx="35.1" cy="-192" rx="32.49" ry="18"/>
<text text-anchor="middle" x="35.1" y="-188.3" font-family="Times,serif" font-size="14.00">तु(2.1)</text>
</g>
<!-- Node2_1&#45;&gt;Node1_1 -->
<g id="edge2" class="edge">
<title>Node2_1&#45;&gt;Node1_1</title>
<path fill="none" stroke="black" d="M35.1,-220.27C35.1,-233.58 35.1,-249.19 35.1,-260.82"/>
<polygon fill="black" stroke="black" points="38.6,-220.2 35.1,-210.2 31.6,-220.2 38.6,-220.2"/>
<text text-anchor="middle" x="53.6" y="-231.8" font-family="Times,serif" font-size="14.00">सम्बन्धः</text>
</g>
<!-- Node3_1 -->
<g id="node8" class="node">
<title>Node3_1</title>
<ellipse fill="#ff99ff" stroke="#ff99ff" cx="128.1" cy="-279" rx="39.79" ry="18"/>
<text text-anchor="middle" x="128.1" y="-275.3" font-family="Times,serif" font-size="14.00">पुनः(3.1)</text>
</g>
<!-- Node3_1&#45;&gt;Node12_1 -->
<g id="edge3" class="edge">
<title>Node3_1&#45;&gt;Node12_1</title>
<path fill="none" stroke="black" d="M128.1,-307.27C128.1,-320.58 128.1,-336.19 128.1,-347.82"/>
<polygon fill="black" stroke="black" points="131.6,-307.2 128.1,-297.2 124.6,-307.2 131.6,-307.2"/>
<text text-anchor="middle" x="164.6" y="-318.8" font-family="Times,serif" font-size="14.00">क्रियाविशेषणम्</text>
</g>
<!-- Node4_1&#45;&gt;Node12_1 -->
<g id="edge4" class="edge">
<title>Node4_1&#45;&gt;Node12_1</title>
<path fill="none" stroke="black" d="M219.89,-306.5C216.01,-314.81 210.81,-323.5 204.1,-330 193.66,-340.11 179.78,-347.66 166.74,-353.11"/>
<polygon fill="black" stroke="black" points="223.2,-307.65 223.84,-297.08 216.75,-304.95 223.2,-307.65"/>
<text text-anchor="middle" x="251.6" y="-318.8" font-family="Times,serif" font-size="14.00">क्रियाविशेषणम्</text>
</g>
<!-- Node5_1 -->
<g id="node10" class="node">
<title>Node5_1</title>
<ellipse fill="#ffff00" stroke="#ffff00" cx="425.1" cy="-18" rx="36.29" ry="18"/>
<text text-anchor="middle" x="425.1" y="-14.3" font-family="Times,serif" font-size="14.00">सु&#45;(5.1)</text>
</g>
<!-- Node5_1&#45;&gt;Node5_2 -->
<g id="edge5" class="edge">
<title>Node5_1&#45;&gt;Node5_2</title>
<path fill="none" stroke="black" d="M425.1,-46.27C425.1,-59.58 425.1,-75.19 425.1,-86.82"/>
<polygon fill="black" stroke="black" points="428.6,-46.2 425.1,-36.2 421.6,-46.2 428.6,-46.2"/>
<text text-anchor="middle" x="445.1" y="-57.8" font-family="Times,serif" font-size="14.00">बहुव्रीहिः</text>
</g>
<!-- Node6_1 -->
<g id="node11" class="node">
<title>Node6_1</title>
<ellipse fill="#ffff00" stroke="#ffff00" cx="313.1" cy="-105" rx="46.59" ry="18"/>
<text text-anchor="middle" x="313.1" y="-101.3" font-family="Times,serif" font-size="14.00">कृच्छ्र&#45;(6.1)</text>
</g>
<!-- Node6_1&#45;&gt;Node6_2 -->
<g id="edge7" class="edge">
<title>Node6_1&#45;&gt;Node6_2</title>
<path fill="none" stroke="black" d="M327.26,-131.67C332.9,-140.22 339.99,-149.26 348.1,-156 360.41,-166.23 376.19,-174.09 390.26,-179.75"/>
<polygon fill="black" stroke="black" points="330.17,-129.72 321.93,-123.06 324.22,-133.4 330.17,-129.72"/>
<text text-anchor="middle" x="384.6" y="-144.8" font-family="Times,serif" font-size="14.00">तृतीया&#45;तत्पुरुषः</text>
</g>
<!-- Node7_1 -->
<g id="node12" class="node">
<title>Node7_1</title>
<ellipse fill="#ff99ff" stroke="#ff99ff" cx="524.1" cy="-105" rx="33.6" ry="18"/>
<text text-anchor="middle" x="524.1" y="-101.3" font-family="Times,serif" font-size="14.00">च(7.1)</text>
</g>
<!-- Node7_1&#45;&gt;Node6_2 -->
<g id="edge9" class="edge">
<title>Node7_1&#45;&gt;Node6_2</title>
<path fill="none" stroke="black" d="M502.74,-128.92C494.15,-137.72 483.95,-147.65 474.1,-156 465.8,-163.03 456.16,-170.12 447.63,-176.07"/>
<polygon fill="black" stroke="black" points="505.43,-131.18 509.83,-121.55 500.38,-126.33 505.43,-131.18"/>
<text text-anchor="middle" x="528.6" y="-144.8" font-family="Times,serif" font-size="14.00">समुच्चय_द्योतकः</text>
</g>
<!-- Node9_1 -->
<g id="node13" class="node">
<title>Node9_1</title>
<ellipse fill="#00bfff" stroke="#00bfff" cx="612.1" cy="-105" rx="36" ry="18"/>
<text text-anchor="middle" x="612.1" y="-101.3" font-family="Times,serif" font-size="14.00">यः(9.1)</text>
</g>
<!-- Node10_1 -->
<g id="node14" class="node">
<title>Node10_1</title>
<ellipse fill="#ff99ff" stroke="#ff99ff" cx="612.1" cy="-18" rx="38.19" ry="18"/>
<text text-anchor="middle" x="612.1" y="-14.3" font-family="Times,serif" font-size="14.00">च(10.1)</text>
</g>
<!-- Node10_1&#45;&gt;Node9_1 -->
<g id="edge11" class="edge">
<title>Node10_1&#45;&gt;Node9_1</title>
<path fill="none" stroke="black" d="M612.1,-46.27C612.1,-59.58 612.1,-75.19 612.1,-86.82"/>
<polygon fill="black" stroke="black" points="615.6,-46.2 612.1,-36.2 608.6,-46.2 615.6,-46.2"/>
<text text-anchor="middle" x="630.6" y="-57.8" font-family="Times,serif" font-size="14.00">सम्बन्धः</text>
</g>
</g>
</svg>
