<?xml version="1.0" encoding="UTF-8" standalone="no"?>
<!DOCTYPE svg PUBLIC "-//W3C//DTD SVG 1.1//EN"
 "http://www.w3.org/Graphics/SVG/1.1/DTD/svg11.dtd">
<!-- Generated by graphviz version 2.50.0 (20211204.2007)
 -->
<!-- Title: G Pages: 1 -->
<svg width="831pt" height="392pt"
 viewBox="0.00 0.00 831.00 392.00" xmlns="http://www.w3.org/2000/svg" xmlns:xlink="http://www.w3.org/1999/xlink">
<g id="graph0" class="graph" transform="scale(1 1) rotate(0) translate(4 388)">
<title>G</title>
<polygon fill="#fffacd" stroke="transparent" points="-4,4 -4,-388 827,-388 827,4 -4,4"/>
<g id="clust1" class="cluster">
<title>cluster_1</title>
<polygon fill="#fffacd" stroke="black" points="8,-79 8,-218 552,-218 552,-79 8,-79"/>
</g>
<!-- Node5_1 -->
<g id="node1" class="node">
<title>Node5_1</title>
<ellipse fill="#00bfff" stroke="#00bfff" cx="498" cy="-105" rx="46.29" ry="18"/>
<text text-anchor="middle" x="498" y="-101.3" font-family="Times,serif" font-size="14.00">बस्तिः(5.1)</text>
</g>
<!-- Node7_1 -->
<g id="node2" class="node">
<title>Node7_1</title>
<ellipse fill="#00bfff" stroke="#00bfff" cx="387" cy="-192" rx="46.59" ry="18"/>
<text text-anchor="middle" x="387" y="-188.3" font-family="Times,serif" font-size="14.00">वमनम्(7.1)</text>
</g>
<!-- Node5_1&#45;&gt;Node7_1 -->
<g id="edge7" class="edge">
<title>Node5_1&#45;&gt;Node7_1</title>
<path fill="none" stroke="black" d="M471.35,-128.06C460.5,-136.89 447.76,-147.07 436,-156 427.17,-162.7 417.26,-169.85 408.66,-175.94"/>
<polygon fill="black" stroke="black" points="473.71,-130.65 479.23,-121.61 469.28,-125.23 473.71,-130.65"/>
<text text-anchor="middle" x="477.5" y="-144.8" font-family="Times,serif" font-size="14.00">समुच्चितः</text>
</g>
<!-- Node4_2 -->
<g id="node10" class="node">
<title>Node4_2</title>
<ellipse fill="#00bfff" stroke="#00bfff" cx="660" cy="-279" rx="51.99" ry="18"/>
<text text-anchor="middle" x="660" y="-275.3" font-family="Times,serif" font-size="14.00">औषधम्(4.2)</text>
</g>
<!-- Node7_1&#45;&gt;Node4_2 -->
<g id="edge9" class="edge">
<title>Node7_1&#45;&gt;Node4_2</title>
<path fill="none" stroke="black" d="M431.96,-207C485.12,-223.55 572.65,-250.8 622.38,-266.29"/>
<polygon fill="black" stroke="black" points="432.72,-203.57 422.13,-203.94 430.64,-210.25 432.72,-203.57"/>
<text text-anchor="middle" x="580" y="-231.8" font-family="Times,serif" font-size="14.00">विधेय_विशेषणम्</text>
</g>
<!-- Node6_1 -->
<g id="node3" class="node">
<title>Node6_1</title>
<ellipse fill="#00bfff" stroke="#00bfff" cx="387" cy="-105" rx="46.59" ry="18"/>
<text text-anchor="middle" x="387" y="-101.3" font-family="Times,serif" font-size="14.00">विरेकः(6.1)</text>
</g>
<!-- Node6_1&#45;&gt;Node7_1 -->
<g id="edge8" class="edge">
<title>Node6_1&#45;&gt;Node7_1</title>
<path fill="none" stroke="black" d="M387,-133.27C387,-146.58 387,-162.19 387,-173.82"/>
<polygon fill="black" stroke="black" points="390.5,-133.2 387,-123.2 383.5,-133.2 390.5,-133.2"/>
<text text-anchor="middle" x="409.5" y="-144.8" font-family="Times,serif" font-size="14.00">समुच्चितः</text>
</g>
<!-- Node9_1 -->
<g id="node4" class="node">
<title>Node9_1</title>
<ellipse fill="#00bfff" stroke="#00bfff" cx="278" cy="-105" rx="44.39" ry="18"/>
<text text-anchor="middle" x="278" y="-101.3" font-family="Times,serif" font-size="14.00">तैलम्(9.1)</text>
</g>
<!-- Node9_1&#45;&gt;Node7_1 -->
<g id="edge11" class="edge">
<title>Node9_1&#45;&gt;Node7_1</title>
<path fill="none" stroke="black" d="M304.02,-128.4C314.44,-137.18 326.65,-147.24 338,-156 346.77,-162.77 356.68,-169.94 365.28,-176.01"/>
<polygon fill="black" stroke="black" points="305.98,-125.48 296.09,-121.68 301.46,-130.82 305.98,-125.48"/>
<text text-anchor="middle" x="360.5" y="-144.8" font-family="Times,serif" font-size="14.00">समुच्चितः</text>
</g>
<!-- Node10_1 -->
<g id="node5" class="node">
<title>Node10_1</title>
<ellipse fill="#00bfff" stroke="#00bfff" cx="168" cy="-105" rx="48.19" ry="18"/>
<text text-anchor="middle" x="168" y="-101.3" font-family="Times,serif" font-size="14.00">घृतम्(10.1)</text>
</g>
<!-- Node10_1&#45;&gt;Node7_1 -->
<g id="edge12" class="edge">
<title>Node10_1&#45;&gt;Node7_1</title>
<path fill="none" stroke="black" d="M203.05,-124.73C222.69,-134.79 247.82,-146.94 271,-156 296.57,-165.99 326.21,-174.89 349.13,-181.22"/>
<polygon fill="black" stroke="black" points="204.65,-121.62 194.16,-120.13 201.43,-127.84 204.65,-121.62"/>
<text text-anchor="middle" x="293.5" y="-144.8" font-family="Times,serif" font-size="14.00">समुच्चितः</text>
</g>
<!-- Node11_1 -->
<g id="node6" class="node">
<title>Node11_1</title>
<ellipse fill="#00bfff" stroke="#00bfff" cx="59" cy="-105" rx="42.79" ry="18"/>
<text text-anchor="middle" x="59" y="-101.3" font-family="Times,serif" font-size="14.00">मधु(11.1)</text>
</g>
<!-- Node11_1&#45;&gt;Node7_1 -->
<g id="edge13" class="edge">
<title>Node11_1&#45;&gt;Node7_1</title>
<path fill="none" stroke="black" d="M96.41,-122.74C121.81,-133.55 156.41,-147.19 188,-156 240.37,-170.6 302.28,-180.35 342.97,-185.77"/>
<polygon fill="black" stroke="black" points="97.72,-119.5 87.15,-118.76 94.95,-125.93 97.72,-119.5"/>
<text text-anchor="middle" x="210.5" y="-144.8" font-family="Times,serif" font-size="14.00">समुच्चितः</text>
</g>
<!-- Node1_1 -->
<g id="node7" class="node">
<title>Node1_1</title>
<ellipse fill="#ffff00" stroke="#ffff00" cx="710" cy="-18" rx="45.49" ry="18"/>
<text text-anchor="middle" x="710" y="-14.3" font-family="Times,serif" font-size="14.00">शरीर&#45;(1.1)</text>
</g>
<!-- Node1_2 -->
<g id="node8" class="node">
<title>Node1_2</title>
<ellipse fill="#87ceeb" stroke="#87ceeb" cx="710" cy="-105" rx="48.19" ry="18"/>
<text text-anchor="middle" x="710" y="-101.3" font-family="Times,serif" font-size="14.00">जानाम्(1.2)</text>
</g>
<!-- Node1_1&#45;&gt;Node1_2 -->
<g id="edge1" class="edge">
<title>Node1_1&#45;&gt;Node1_2</title>
<path fill="none" stroke="black" d="M710,-46.27C710,-59.58 710,-75.19 710,-86.82"/>
<polygon fill="black" stroke="black" points="713.5,-46.2 710,-36.2 706.5,-46.2 713.5,-46.2"/>
<text text-anchor="middle" x="745" y="-57.8" font-family="Times,serif" font-size="14.00">उपपद&#45;तत्पुरुषः</text>
</g>
<!-- Node2_1 -->
<g id="node9" class="node">
<title>Node2_1</title>
<ellipse fill="#87ceeb" stroke="#87ceeb" cx="660" cy="-192" rx="55.79" ry="18"/>
<text text-anchor="middle" x="660" y="-188.3" font-family="Times,serif" font-size="14.00">दोषाणाम्(2.1)</text>
</g>
<!-- Node1_2&#45;&gt;Node2_1 -->
<g id="edge2" class="edge">
<title>Node1_2&#45;&gt;Node2_1</title>
<path fill="none" stroke="black" d="M697.91,-132.11C694.03,-139.93 689.56,-148.43 685,-156 681.3,-162.14 676.86,-168.6 672.76,-174.27"/>
<polygon fill="black" stroke="black" points="701.1,-133.54 702.31,-123.02 694.8,-130.5 701.1,-133.54"/>
<text text-anchor="middle" x="721" y="-144.8" font-family="Times,serif" font-size="14.00">षष्ठीसम्बन्धः</text>
</g>
<!-- Node2_1&#45;&gt;Node4_2 -->
<g id="edge3" class="edge">
<title>Node2_1&#45;&gt;Node4_2</title>
<path fill="none" stroke="black" d="M660,-220.27C660,-233.58 660,-249.19 660,-260.82"/>
<polygon fill="black" stroke="black" points="663.5,-220.2 660,-210.2 656.5,-220.2 663.5,-220.2"/>
<text text-anchor="middle" x="688" y="-231.8" font-family="Times,serif" font-size="14.00">षष्ठीसम्बन्धः</text>
</g>
<!-- Node12_1 -->
<g id="node12" class="node">
<title>Node12_1</title>
<ellipse fill="#ff1975" stroke="#ff1975" cx="718" cy="-366" rx="55.49" ry="18"/>
<text text-anchor="middle" x="718" y="-362.3" font-family="Times,serif" font-size="14.00">(भवति)(12.1)</text>
</g>
<!-- Node4_2&#45;&gt;Node12_1 -->
<g id="edge6" class="edge">
<title>Node4_2&#45;&gt;Node12_1</title>
<path fill="none" stroke="black" d="M677.33,-305.4C686.79,-319.26 698.23,-336.03 706.56,-348.24"/>
<polygon fill="black" stroke="black" points="679.99,-303.08 671.46,-296.79 674.2,-307.03 679.99,-303.08"/>
<text text-anchor="middle" x="703" y="-318.8" font-family="Times,serif" font-size="14.00">कर्ता</text>
</g>
<!-- Node3_1 -->
<g id="node11" class="node">
<title>Node3_1</title>
<ellipse fill="#40e0d0" stroke="#40e0d0" cx="776" cy="-279" rx="46.29" ry="18"/>
<text text-anchor="middle" x="776" y="-275.3" font-family="Times,serif" font-size="14.00">क्रमेण(3.1)</text>
</g>
<!-- Node3_1&#45;&gt;Node12_1 -->
<g id="edge4" class="edge">
<title>Node3_1&#45;&gt;Node12_1</title>
<path fill="none" stroke="black" d="M758.67,-305.4C749.21,-319.26 737.77,-336.03 729.44,-348.24"/>
<polygon fill="black" stroke="black" points="761.8,-307.03 764.54,-296.79 756.01,-303.08 761.8,-307.03"/>
<text text-anchor="middle" x="786.5" y="-318.8" font-family="Times,serif" font-size="14.00">क्रियाविशेषणम्</text>
</g>
<!-- Node4_1 -->
<g id="node13" class="node">
<title>Node4_1</title>
<ellipse fill="#ffff00" stroke="#ffff00" cx="777" cy="-192" rx="43.59" ry="18"/>
<text text-anchor="middle" x="777" y="-188.3" font-family="Times,serif" font-size="14.00">परम&#45;(4.1)</text>
</g>
<!-- Node4_1&#45;&gt;Node4_2 -->
<g id="edge5" class="edge">
<title>Node4_1&#45;&gt;Node4_2</title>
<path fill="none" stroke="black" d="M753.25,-215.65C743.33,-224.63 731.46,-234.75 720,-243 709.72,-250.4 697.78,-257.62 687.27,-263.56"/>
<polygon fill="black" stroke="black" points="755.75,-218.11 760.74,-208.76 751.02,-212.96 755.75,-218.11"/>
<text text-anchor="middle" x="761.5" y="-231.8" font-family="Times,serif" font-size="14.00">कर्मधारयः</text>
</g>
<!-- Node8_1 -->
<g id="node14" class="node">
<title>Node8_1</title>
<ellipse fill="#ff99ff" stroke="#ff99ff" cx="603" cy="-105" rx="40.89" ry="18"/>
<text text-anchor="middle" x="603" y="-101.3" font-family="Times,serif" font-size="14.00">तथा(8.1)</text>
</g>
<!-- Node8_1&#45;&gt;Node7_1 -->
<g id="edge10" class="edge">
<title>Node8_1&#45;&gt;Node7_1</title>
<path fill="none" stroke="black" d="M569.92,-124.56C551,-134.7 526.6,-147 504,-156 478.2,-166.28 448.17,-175.2 424.99,-181.47"/>
<polygon fill="black" stroke="black" points="571.62,-127.62 578.74,-119.78 568.28,-121.47 571.62,-127.62"/>
<text text-anchor="middle" x="576.5" y="-144.8" font-family="Times,serif" font-size="14.00">समुच्चय_द्योतकः</text>
</g>
</g>
</svg>
