<svg width="368pt" height="364pt"
 viewBox="0.00 0.00 368.00 364.00" xmlns="http://www.w3.org/2000/svg" xmlns:xlink="http://www.w3.org/1999/xlink">
<g id="graph0" class="graph" transform="scale(1 1) rotate(0) translate(4 360)">
<title>G</title>
<polygon fill="#fffacd" stroke="transparent" points="-4,4 -4,-360 364,-360 364,4 -4,4"/>
<!-- Node5_1 -->
<style>
 .hidden { display: none; }
 .node { cursor: pointer; }
 </style>
<script>
     function toggleChildren(id) {
      const children = document.getElementById(id);
      if (children.classList.contains('hidden')) {
        children.classList.remove('hidden');
      } else {
        children.classList.add('hidden');
      }
    }
</script>
<g id="children_node0_65432" class="hidden">
    <g class="node" onclick="toggleChildren('children_node0_65432');">
</g>
</g>
<g id="children_node1_65432" class="hidden">
    <g class="node" onclick="toggleChildren('children_node1_65432');">

<g id="node1" class="node">
<title>Node5_1</title>
<polygon fill="#ffff00" stroke="#ffff00" points="270,-109 216,-109 216,-73 270,-73 270,-109"/>
<text text-anchor="middle" x="243" y="-87.3" font-family="Times,serif" font-size="14.00">आत्रेय&#45;</text>
</g>
<!-- Node5_2 -->
<g id="node2" class="node">
<title>Node5_2</title>
<polygon fill="#ffff00" stroke="#ffff00" points="360,-109 306,-109 306,-73 360,-73 360,-109"/>
<text text-anchor="middle" x="333" y="-87.3" font-family="Times,serif" font-size="14.00">आदयः</text>
</g>
<!-- Node5_1&#45;&gt;Node5_2 -->
<!-- Node5_2_1 -->
<g id="node3" class="node">
<title>Node5_2_1</title>
<polygon fill="#ffff00" stroke="#ffff00" points="325.5,-182 178.5,-182 178.5,-146 325.5,-146 325.5,-182"/>
<text text-anchor="middle" x="252" y="-160.3" font-family="Times,serif" font-size="14.00">&lt;आत्रेय&#45;आदयः&gt;(बहुव्रीहिः)</text>
</g>
<!-- Node5_1&#45;&gt;Node5_2_1 -->
<g id="edge2" class="edge">
<title>Node5_1&#45;&gt;Node5_2_1</title>
<path fill="none" stroke="black" d="M246.45,-119.25C247.59,-128.23 248.83,-137.97 249.84,-145.97"/>
<polygon fill="black" stroke="black" points="249.91,-118.67 245.18,-109.19 242.96,-119.55 249.91,-118.67"/>
</g>
<!-- Node5_2&#45;&gt;Node5_2_1 -->
<g id="edge1" class="edge">
<title>Node5_2&#45;&gt;Node5_2_1</title>
<path fill="none" stroke="black" d="M305.55,-116.06C294.35,-125.88 281.65,-137.01 271.43,-145.97"/>
<polygon fill="black" stroke="black" points="308.18,-118.41 313.39,-109.19 303.57,-113.15 308.18,-118.41"/>
</g>
<!-- Node5_2_1&#45;&gt;Node5_2_1c -->
<g id="edge4" class="edge">
<title>Node5_2_1&#45;&gt;Node5_2_1c</title>
<path fill="none" stroke="black" d="M216.84,-187.82C195.02,-201.97 167.44,-219.87 147.47,-232.82"/>
<polygon fill="black" stroke="black" points="219.01,-190.58 225.49,-182.2 215.2,-184.71 219.01,-190.58"/>
</g>
</g>
</g>
<!-- Node5_2_1c -->
<g class="node4" onclick="toggleChildren('children_node1_65432');">
<title>Node5_2_1c</title>
<polygon fill="#00bfff" stroke="#00bfff" points="170,-269 72,-269 72,-233 170,-233 170,-269"/>
<text text-anchor="middle" x="121" y="-247.3" font-family="Times,serif" font-size="14.00">आत्रेय&#45;आदयः(5)</text>
</g>
<g id="children_node2_65432" class="hidden">
    <g class="node" onclick="toggleChildren('children_node2_65432');">
<!-- Node6_1 -->
<g id="node5" class="node">
<title>Node6_1</title>
<polygon fill="#ffff00" stroke="#ffff00" points="101,-36 47,-36 47,0 101,0 101,-36"/>
<text text-anchor="middle" x="74" y="-14.3" font-family="Times,serif" font-size="14.00">महा&#45;</text>
</g>
<!-- Node6_2 -->
<g id="node6" class="node">
<title>Node6_2</title>
<polygon fill="#ffff00" stroke="#ffff00" points="191,-36 137,-36 137,0 191,0 191,-36"/>
<text text-anchor="middle" x="164" y="-14.3" font-family="Times,serif" font-size="14.00">ऋषयः</text>
</g>
<!-- Node6_1&#45;&gt;Node6_2 -->
<!-- Node6_2_1 -->
<g id="node7" class="node">
<title>Node6_2_1</title>
<polygon fill="#ffff00" stroke="#ffff00" points="188.5,-109 47.5,-109 47.5,-73 188.5,-73 188.5,-109"/>
<text text-anchor="middle" x="118" y="-87.3" font-family="Times,serif" font-size="14.00">&lt;महा&#45;ऋषयः&gt;(कर्मधारयः)</text>
</g>
<!-- Node6_1&#45;&gt;Node6_2_1 -->
<g id="edge7" class="edge">
<title>Node6_1&#45;&gt;Node6_2_1</title>
<path fill="none" stroke="black" d="M89.98,-44.79C95.8,-54.17 102.22,-64.54 107.45,-72.97"/>
<polygon fill="black" stroke="black" points="92.89,-42.84 84.65,-36.19 86.94,-46.53 92.89,-42.84"/>
</g>
<!-- Node6_2&#45;&gt;Node6_2_1 -->
<g id="edge6" class="edge">
<title>Node6_2&#45;&gt;Node6_2_1</title>
<path fill="none" stroke="black" d="M147.29,-44.79C141.21,-54.17 134.5,-64.54 129.03,-72.97"/>
<polygon fill="black" stroke="black" points="150.36,-46.48 152.86,-36.19 144.49,-42.68 150.36,-46.48"/>
</g>
<!-- Node6_2_1&#45;&gt;Node6_2_1c -->
<g id="edge9" class="edge">
<title>Node6_2_1&#45;&gt;Node6_2_1c</title>
<path fill="none" stroke="black" d="M118,-119.25C118,-128.23 118,-137.97 118,-145.97"/>
<polygon fill="black" stroke="black" points="121.5,-119.19 118,-109.19 114.5,-119.19 121.5,-119.19"/>
</g>
</g>
</g>
<!-- Node6_2_1c -->
<g class="node8" onclick="toggleChildren('children_node2_65432');">
<title>Node6_2_1c</title>
<polygon fill="#00bfff" stroke="#00bfff" points="160.5,-182 75.5,-182 75.5,-146 160.5,-146 160.5,-182"/>
<text text-anchor="middle" x="118" y="-160.3" font-family="Times,serif" font-size="14.00">महा&#45;ऋषयः(6)</text>
</g>
<!-- Node4_1 -->
<g id="node10" class="node">
<title>Node4_1</title>
<polygon fill="#ff1975" stroke="#ff1975" points="149,-356 93,-356 93,-320 149,-320 149,-356"/>
<text text-anchor="middle" x="121" y="-334.3" font-family="Times,serif" font-size="14.00">आहुः(4)</text>
</g>
<!-- Node5_2_1c&#45;&gt;Node4_1 -->
<g id="edge5" class="edge">
<title>Node5_2_1c&#45;&gt;Node4_1</title>
<path fill="none" stroke="black" d="M121,-279.27C121,-292.58 121,-308.19 121,-319.82"/>
<polygon fill="black" stroke="black" points="124.5,-279.2 121,-269.2 117.5,-279.2 124.5,-279.2"/>
<text text-anchor="middle" x="132" y="-290.8" font-family="Times,serif" font-size="14.00">कर्ता</text>
</g>
<!-- Node6_2_1c&#45;&gt;Node5_2_1c -->
<g id="edge10" class="edge">
<title>Node6_2_1c&#45;&gt;Node5_2_1c</title>
<path fill="none" stroke="black" d="M118.96,-192.27C119.43,-205.58 119.98,-221.19 120.39,-232.82"/>
<polygon fill="black" stroke="black" points="122.46,-192.07 118.61,-182.2 115.46,-192.32 122.46,-192.07"/>
<text text-anchor="middle" x="143.5" y="-203.8" font-family="Times,serif" font-size="14.00">विशेषणम्</text>
</g>
<!-- Node1_1 -->
<g id="node9" class="node">
<title>Node1_1</title>
<polygon fill="#ff99ff" stroke="#ff99ff" points="54,-269 0,-269 0,-233 54,-233 54,-269"/>
<text text-anchor="middle" x="27" y="-247.3" font-family="Times,serif" font-size="14.00">इति(1)</text>
</g>
<!-- Node1_1&#45;&gt;Node4_1 -->
<g id="edge11" class="edge">
<title>Node1_1&#45;&gt;Node4_1</title>
<path fill="none" stroke="black" d="M52.25,-276.3C60.96,-284.55 70.83,-293.77 80,-302 86.55,-307.88 93.81,-314.16 100.39,-319.75"/>
<polygon fill="black" stroke="black" points="54.6,-273.71 44.94,-269.35 49.77,-278.78 54.6,-273.71"/>
<text text-anchor="middle" x="98.5" y="-290.8" font-family="Times,serif" font-size="14.00">सम्बन्धः</text>
</g>
<!-- Node2_1 -->
<g id="node11" class="node">
<title>Node2_1</title>
<polygon fill="#ff99ff" stroke="#ff99ff" points="54,-182 0,-182 0,-146 54,-146 54,-182"/>
<text text-anchor="middle" x="27" y="-160.3" font-family="Times,serif" font-size="14.00">ह(2)</text>
</g>
<!-- Node2_1&#45;&gt;Node1_1 -->
<g id="edge12" class="edge">
<title>Node2_1&#45;&gt;Node1_1</title>
<path fill="none" stroke="black" d="M27,-192.27C27,-205.58 27,-221.19 27,-232.82"/>
<polygon fill="black" stroke="black" points="30.5,-192.2 27,-182.2 23.5,-192.2 30.5,-192.2"/>
<text text-anchor="middle" x="45.5" y="-203.8" font-family="Times,serif" font-size="14.00">सम्बन्धः</text>
</g>
<!-- Node3_1 -->
<g id="node12" class="node">
<title>Node3_1</title>
<polygon fill="#ff99ff" stroke="#ff99ff" points="242,-269 188,-269 188,-233 242,-233 242,-269"/>
<text text-anchor="middle" x="215" y="-247.3" font-family="Times,serif" font-size="14.00">स्म(3)</text>
</g>
<!-- Node3_1&#45;&gt;Node4_1 -->
<g id="edge13" class="edge">
<title>Node3_1&#45;&gt;Node4_1</title>
<path fill="none" stroke="black" d="M188.29,-276.15C172.89,-290.08 153.87,-307.27 139.99,-319.82"/>
<polygon fill="black" stroke="black" points="190.91,-278.5 195.98,-269.2 186.21,-273.31 190.91,-278.5"/>
<text text-anchor="middle" x="192.5" y="-290.8" font-family="Times,serif" font-size="14.00">सम्बन्धः</text>
</g>
</g>
</svg>
