<?xml version="1.0" encoding="UTF-8" standalone="no"?>
<!DOCTYPE svg PUBLIC "-//W3C//DTD SVG 1.1//EN"
 "http://www.w3.org/Graphics/SVG/1.1/DTD/svg11.dtd">
<!-- Generated by graphviz version 2.50.0 (20211204.2007)
 -->
<!-- Title: G Pages: 1 -->
<svg width="255pt" height="305pt"
 viewBox="0.00 0.00 255.00 305.00" xmlns="http://www.w3.org/2000/svg" xmlns:xlink="http://www.w3.org/1999/xlink">
<g id="graph0" class="graph" transform="scale(1 1) rotate(0) translate(4 301)">
<title>G</title>
<polygon fill="#fffacd" stroke="transparent" points="-4,4 -4,-301 251,-301 251,4 -4,4"/>
<g id="clust1" class="cluster">
<title>cluster_1</title>
<polygon fill="#fffacd" stroke="black" points="8,-79 8,-218 138,-218 138,-79 8,-79"/>
</g>
<!-- Node3_1 -->
<g id="node1" class="node">
<title>Node3_1</title>
<ellipse fill="#93db70" stroke="#93db70" cx="73" cy="-105" rx="44.39" ry="18"/>
<text text-anchor="middle" x="73" y="-101.3" font-family="Times,serif" font-size="14.00">मुनीन्(3.1)</text>
</g>
<!-- Node2_3 -->
<g id="node2" class="node">
<title>Node2_3</title>
<ellipse fill="#93db70" stroke="#93db70" cx="73" cy="-192" rx="56.59" ry="18"/>
<text text-anchor="middle" x="73" y="-188.3" font-family="Times,serif" font-size="14.00">आदिकान्(2.3)</text>
</g>
<!-- Node3_1&#45;&gt;Node2_3 -->
<g id="edge5" class="edge">
<title>Node3_1&#45;&gt;Node2_3</title>
<path fill="none" stroke="black" d="M73,-133.27C73,-146.58 73,-162.19 73,-173.82"/>
<polygon fill="black" stroke="black" points="76.5,-133.2 73,-123.2 69.5,-133.2 76.5,-133.2"/>
<text text-anchor="middle" x="96.5" y="-144.8" font-family="Times,serif" font-size="14.00">विशेषणम्</text>
</g>
<!-- Node4_1 -->
<g id="node4" class="node">
<title>Node4_1</title>
<ellipse fill="#ff1975" stroke="#ff1975" cx="128" cy="-279" rx="62.29" ry="18"/>
<text text-anchor="middle" x="128" y="-275.3" font-family="Times,serif" font-size="14.00">(अजिग्रहत्)(4.1)</text>
</g>
<!-- Node2_3&#45;&gt;Node4_1 -->
<g id="edge4" class="edge">
<title>Node2_3&#45;&gt;Node4_1</title>
<path fill="none" stroke="black" d="M89.44,-218.4C98.4,-232.26 109.25,-249.03 117.16,-261.24"/>
<polygon fill="black" stroke="black" points="92.24,-216.29 83.87,-209.79 86.36,-220.09 92.24,-216.29"/>
<text text-anchor="middle" x="113" y="-231.8" font-family="Times,serif" font-size="14.00">कर्म</text>
</g>
<!-- Node1_1 -->
<g id="node3" class="node">
<title>Node1_1</title>
<ellipse fill="#00bfff" stroke="#00bfff" cx="183" cy="-192" rx="36" ry="18"/>
<text text-anchor="middle" x="183" y="-188.3" font-family="Times,serif" font-size="14.00">सः(1.1)</text>
</g>
<!-- Node1_1&#45;&gt;Node4_1 -->
<g id="edge1" class="edge">
<title>Node1_1&#45;&gt;Node4_1</title>
<path fill="none" stroke="black" d="M166.83,-217.99C157.85,-231.87 146.92,-248.76 138.95,-261.08"/>
<polygon fill="black" stroke="black" points="169.9,-219.69 172.4,-209.39 164.02,-215.88 169.9,-219.69"/>
<text text-anchor="middle" x="189.5" y="-231.8" font-family="Times,serif" font-size="14.00">प्रयोजककर्ता</text>
</g>
<!-- Node2_1 -->
<g id="node5" class="node">
<title>Node2_1</title>
<ellipse fill="#ffff00" stroke="#ffff00" cx="186" cy="-18" rx="44.39" ry="18"/>
<text text-anchor="middle" x="186" y="-14.3" font-family="Times,serif" font-size="14.00">अत्रि&#45;(2.1)</text>
</g>
<!-- Node2_2 -->
<g id="node6" class="node">
<title>Node2_2</title>
<ellipse fill="#ffff00" stroke="#ffff00" cx="186" cy="-105" rx="40.09" ry="18"/>
<text text-anchor="middle" x="186" y="-101.3" font-family="Times,serif" font-size="14.00">पुत्र&#45;(2.2)</text>
</g>
<!-- Node2_1&#45;&gt;Node2_2 -->
<g id="edge2" class="edge">
<title>Node2_1&#45;&gt;Node2_2</title>
<path fill="none" stroke="black" d="M186,-46.27C186,-59.58 186,-75.19 186,-86.82"/>
<polygon fill="black" stroke="black" points="189.5,-46.2 186,-36.2 182.5,-46.2 189.5,-46.2"/>
<text text-anchor="middle" x="216.5" y="-57.8" font-family="Times,serif" font-size="14.00">षष्ठी&#45;तत्पुरुषः</text>
</g>
<!-- Node2_2&#45;&gt;Node2_3 -->
<g id="edge3" class="edge">
<title>Node2_2&#45;&gt;Node2_3</title>
<path fill="none" stroke="black" d="M159.92,-127.78C148.97,-136.72 136.02,-147.05 124,-156 115.13,-162.61 105.14,-169.56 96.37,-175.52"/>
<polygon fill="black" stroke="black" points="162.34,-130.31 167.85,-121.26 157.9,-124.9 162.34,-130.31"/>
<text text-anchor="middle" x="164" y="-144.8" font-family="Times,serif" font-size="14.00">बहुव्रीहिः</text>
</g>
</g>
</svg>
