<?xml version="1.0" encoding="UTF-8" standalone="no"?>
<!DOCTYPE svg PUBLIC "-//W3C//DTD SVG 1.1//EN"
 "http://www.w3.org/Graphics/SVG/1.1/DTD/svg11.dtd">
<!-- Generated by graphviz version 2.50.0 (20211204.2007)
 -->
<!-- Title: G Pages: 1 -->
<svg width="564pt" height="392pt"
 viewBox="0.00 0.00 564.19 392.00" xmlns="http://www.w3.org/2000/svg" xmlns:xlink="http://www.w3.org/1999/xlink">
<g id="graph0" class="graph" transform="scale(1 1) rotate(0) translate(4 388)">
<title>G</title>
<polygon fill="#fffacd" stroke="transparent" points="-4,4 -4,-388 560.19,-388 560.19,4 -4,4"/>
<g id="clust1" class="cluster">
<title>cluster_1</title>
<polygon fill="#fffacd" stroke="black" points="124.19,-166 124.19,-305 542.19,-305 542.19,-166 124.19,-166"/>
</g>
<!-- Node4_1 -->
<g id="node1" class="node">
<title>Node4_1</title>
<ellipse fill="#00bfff" stroke="#00bfff" cx="178.19" cy="-192" rx="46.29" ry="18"/>
<text text-anchor="middle" x="178.19" y="-188.3" font-family="Times,serif" font-size="14.00">स्थितः(4.1)</text>
</g>
<!-- Node9_1 -->
<g id="node2" class="node">
<title>Node9_1</title>
<ellipse fill="#00bfff" stroke="#00bfff" cx="281.19" cy="-279" rx="45.49" ry="18"/>
<text text-anchor="middle" x="281.19" y="-275.3" font-family="Times,serif" font-size="14.00">(गदः)(9.1)</text>
</g>
<!-- Node4_1&#45;&gt;Node9_1 -->
<g id="edge3" class="edge">
<title>Node4_1&#45;&gt;Node9_1</title>
<path fill="none" stroke="black" d="M200.83,-216.34C209.69,-225.05 220.13,-234.8 230.19,-243 239.02,-250.19 249.28,-257.43 258.28,-263.44"/>
<polygon fill="black" stroke="black" points="203.05,-213.61 193.5,-209.02 198.11,-218.56 203.05,-213.61"/>
<text text-anchor="middle" x="253.69" y="-231.8" font-family="Times,serif" font-size="14.00">विशेषणम्</text>
</g>
<!-- Node3_1 -->
<g id="node8" class="node">
<title>Node3_1</title>
<ellipse fill="#ff1975" stroke="#ff1975" cx="281.19" cy="-366" rx="43.59" ry="18"/>
<text text-anchor="middle" x="281.19" y="-362.3" font-family="Times,serif" font-size="14.00">स्यात्(3.1)</text>
</g>
<!-- Node9_1&#45;&gt;Node3_1 -->
<g id="edge15" class="edge">
<title>Node9_1&#45;&gt;Node3_1</title>
<path fill="none" stroke="black" d="M281.19,-307.27C281.19,-320.58 281.19,-336.19 281.19,-347.82"/>
<polygon fill="black" stroke="black" points="284.7,-307.2 281.19,-297.2 277.7,-307.2 284.7,-307.2"/>
<text text-anchor="middle" x="292.19" y="-318.8" font-family="Times,serif" font-size="14.00">कर्ता</text>
</g>
<!-- Node6_5 -->
<g id="node3" class="node">
<title>Node6_5</title>
<ellipse fill="#00bfff" stroke="#00bfff" cx="281.19" cy="-192" rx="38.99" ry="18"/>
<text text-anchor="middle" x="281.19" y="-188.3" font-family="Times,serif" font-size="14.00">कृत्(6.5)</text>
</g>
<!-- Node6_5&#45;&gt;Node9_1 -->
<g id="edge10" class="edge">
<title>Node6_5&#45;&gt;Node9_1</title>
<path fill="none" stroke="black" d="M281.19,-220.27C281.19,-233.58 281.19,-249.19 281.19,-260.82"/>
<polygon fill="black" stroke="black" points="284.7,-220.2 281.19,-210.2 277.7,-220.2 284.7,-220.2"/>
<text text-anchor="middle" x="304.69" y="-231.8" font-family="Times,serif" font-size="14.00">विशेषणम्</text>
</g>
<!-- Node7_2 -->
<g id="node4" class="node">
<title>Node7_2</title>
<ellipse fill="#00bfff" stroke="#00bfff" cx="379.19" cy="-192" rx="40.89" ry="18"/>
<text text-anchor="middle" x="379.19" y="-188.3" font-family="Times,serif" font-size="14.00">रिष्टः(7.2)</text>
</g>
<!-- Node7_2&#45;&gt;Node9_1 -->
<g id="edge12" class="edge">
<title>Node7_2&#45;&gt;Node9_1</title>
<path fill="none" stroke="black" d="M358.79,-216.77C350.86,-225.43 341.47,-235.04 332.19,-243 323.64,-250.34 313.52,-257.55 304.56,-263.5"/>
<polygon fill="black" stroke="black" points="361.54,-218.95 365.6,-209.16 356.32,-214.28 361.54,-218.95"/>
<text text-anchor="middle" x="370.69" y="-231.8" font-family="Times,serif" font-size="14.00">विशेषणम्</text>
</g>
<!-- Node8_2 -->
<g id="node5" class="node">
<title>Node8_2</title>
<ellipse fill="#00bfff" stroke="#00bfff" cx="486.19" cy="-192" rx="48.19" ry="18"/>
<text text-anchor="middle" x="486.19" y="-188.3" font-family="Times,serif" font-size="14.00">नाशनः(8.2)</text>
</g>
<!-- Node8_2&#45;&gt;Node9_1 -->
<g id="edge14" class="edge">
<title>Node8_2&#45;&gt;Node9_1</title>
<path fill="none" stroke="black" d="M454.76,-213.17C438.36,-223.09 417.69,-234.67 398.19,-243 372.56,-253.95 342.39,-262.89 319.1,-268.99"/>
<polygon fill="black" stroke="black" points="456.71,-216.07 463.4,-207.86 453.05,-210.11 456.71,-216.07"/>
<text text-anchor="middle" x="450.69" y="-231.8" font-family="Times,serif" font-size="14.00">विशेषणम्</text>
</g>
<!-- Node1_1 -->
<g id="node6" class="node">
<title>Node1_1</title>
<ellipse fill="#00bfff" stroke="#00bfff" cx="57.19" cy="-192" rx="57.39" ry="18"/>
<text text-anchor="middle" x="57.19" y="-188.3" font-family="Times,serif" font-size="14.00">अनुपक्रमः(1.1)</text>
</g>
<!-- Node1_1&#45;&gt;Node9_1 -->
<g id="edge1" class="edge">
<title>Node1_1&#45;&gt;Node9_1</title>
<path fill="none" stroke="black" d="M83.66,-215.71C96.15,-225.4 111.7,-236.04 127.19,-243 162.84,-259 206.52,-268.03 238.24,-272.89"/>
<polygon fill="black" stroke="black" points="85.53,-212.73 75.54,-209.22 81.16,-218.2 85.53,-212.73"/>
<text text-anchor="middle" x="168.19" y="-231.8" font-family="Times,serif" font-size="14.00">विधेय_विशेषणम्</text>
</g>
<!-- Node2_1 -->
<g id="node7" class="node">
<title>Node2_1</title>
<ellipse fill="#ff99ff" stroke="#ff99ff" cx="57.19" cy="-105" rx="37.89" ry="18"/>
<text text-anchor="middle" x="57.19" y="-101.3" font-family="Times,serif" font-size="14.00">एव(2.1)</text>
</g>
<!-- Node2_1&#45;&gt;Node1_1 -->
<g id="edge2" class="edge">
<title>Node2_1&#45;&gt;Node1_1</title>
<path fill="none" stroke="black" d="M57.19,-133.27C57.19,-146.58 57.19,-162.19 57.19,-173.82"/>
<polygon fill="black" stroke="black" points="60.7,-133.2 57.19,-123.2 53.7,-133.2 60.7,-133.2"/>
<text text-anchor="middle" x="75.69" y="-144.8" font-family="Times,serif" font-size="14.00">सम्बन्धः</text>
</g>
<!-- Node5_1 -->
<g id="node9" class="node">
<title>Node5_1</title>
<ellipse fill="#ffff00" stroke="#ffff00" cx="94.19" cy="-18" rx="51.99" ry="18"/>
<text text-anchor="middle" x="94.19" y="-14.3" font-family="Times,serif" font-size="14.00">अत्यन्त&#45;(5.1)</text>
</g>
<!-- Node5_2 -->
<g id="node10" class="node">
<title>Node5_2</title>
<ellipse fill="#c6e2eb" stroke="#c6e2eb" cx="167.19" cy="-105" rx="50.89" ry="18"/>
<text text-anchor="middle" x="167.19" y="-101.3" font-family="Times,serif" font-size="14.00">विपर्यये(5.2)</text>
</g>
<!-- Node5_1&#45;&gt;Node5_2 -->
<g id="edge4" class="edge">
<title>Node5_1&#45;&gt;Node5_2</title>
<path fill="none" stroke="black" d="M115.07,-43.31C127.28,-57.53 142.37,-75.09 153.16,-87.66"/>
<polygon fill="black" stroke="black" points="117.44,-40.69 108.27,-35.39 112.13,-45.26 117.44,-40.69"/>
<text text-anchor="middle" x="150.19" y="-57.8" font-family="Times,serif" font-size="14.00">समासः</text>
</g>
<!-- Node5_2&#45;&gt;Node4_1 -->
<g id="edge5" class="edge">
<title>Node5_2&#45;&gt;Node4_1</title>
<path fill="none" stroke="black" d="M170.72,-133.27C172.45,-146.58 174.47,-162.19 175.97,-173.82"/>
<polygon fill="black" stroke="black" points="174.18,-132.67 169.42,-123.2 167.23,-133.57 174.18,-132.67"/>
<text text-anchor="middle" x="200.69" y="-144.8" font-family="Times,serif" font-size="14.00">अधिकरणम्</text>
</g>
<!-- Node6_1 -->
<g id="node11" class="node">
<title>Node6_1</title>
<ellipse fill="#ffff00" stroke="#ffff00" cx="222.19" cy="-18" rx="57.69" ry="18"/>
<text text-anchor="middle" x="222.19" y="-14.3" font-family="Times,serif" font-size="14.00">औत्सुक्य&#45;(6.1)</text>
</g>
<!-- Node6_4 -->
<g id="node12" class="node">
<title>Node6_4</title>
<ellipse fill="#ffff00" stroke="#ffff00" cx="281.19" cy="-105" rx="40.89" ry="18"/>
<text text-anchor="middle" x="281.19" y="-101.3" font-family="Times,serif" font-size="14.00">रति&#45;(6.4)</text>
</g>
<!-- Node6_1&#45;&gt;Node6_4 -->
<g id="edge6" class="edge">
<title>Node6_1&#45;&gt;Node6_4</title>
<path fill="none" stroke="black" d="M239.59,-44.06C249.33,-58.09 261.2,-75.19 269.76,-87.53"/>
<polygon fill="black" stroke="black" points="242.43,-42.01 233.85,-35.79 236.68,-46 242.43,-42.01"/>
<text text-anchor="middle" x="284.19" y="-57.8" font-family="Times,serif" font-size="14.00">इतरेतर&#45;द्वन्द्वः</text>
</g>
<!-- Node6_4&#45;&gt;Node6_5 -->
<g id="edge9" class="edge">
<title>Node6_4&#45;&gt;Node6_5</title>
<path fill="none" stroke="black" d="M281.19,-133.27C281.19,-146.58 281.19,-162.19 281.19,-173.82"/>
<polygon fill="black" stroke="black" points="284.7,-133.2 281.19,-123.2 277.7,-133.2 284.7,-133.2"/>
<text text-anchor="middle" x="316.19" y="-144.8" font-family="Times,serif" font-size="14.00">उपपद&#45;तत्पुरुषः</text>
</g>
<!-- Node6_2 -->
<g id="node13" class="node">
<title>Node6_2</title>
<ellipse fill="#ffff00" stroke="#ffff00" cx="340.19" cy="-18" rx="42.49" ry="18"/>
<text text-anchor="middle" x="340.19" y="-14.3" font-family="Times,serif" font-size="14.00">मोह&#45;(6.2)</text>
</g>
<!-- Node6_2&#45;&gt;Node6_4 -->
<g id="edge7" class="edge">
<title>Node6_2&#45;&gt;Node6_4</title>
<path fill="none" stroke="black" d="M330.27,-45.32C326.71,-53.27 322.29,-61.79 317.19,-69 312.16,-76.12 305.57,-83.02 299.4,-88.78"/>
<polygon fill="black" stroke="black" points="333.52,-46.62 334.18,-36.04 327.07,-43.9 333.52,-46.62"/>
<text text-anchor="middle" x="354.19" y="-57.8" font-family="Times,serif" font-size="14.00">इतरेतर&#45;द्वन्द्वः</text>
</g>
<!-- Node6_3 -->
<g id="node14" class="node">
<title>Node6_3</title>
<ellipse fill="#ffff00" stroke="#ffff00" cx="437.19" cy="-18" rx="37.09" ry="18"/>
<text text-anchor="middle" x="437.19" y="-14.3" font-family="Times,serif" font-size="14.00">अ&#45;(6.3)</text>
</g>
<!-- Node6_3&#45;&gt;Node6_4 -->
<g id="edge8" class="edge">
<title>Node6_3&#45;&gt;Node6_4</title>
<path fill="none" stroke="black" d="M418.05,-42.53C409.45,-51.86 398.65,-62 387.19,-69 364.88,-82.62 356.02,-78.79 331.19,-87 325.1,-89.02 318.6,-91.2 312.37,-93.31"/>
<polygon fill="black" stroke="black" points="420.73,-44.79 424.74,-34.98 415.49,-40.15 420.73,-44.79"/>
<text text-anchor="middle" x="434.19" y="-57.8" font-family="Times,serif" font-size="14.00">नञ्&#45;तत्पुरुषः</text>
</g>
<!-- Node7_1 -->
<g id="node15" class="node">
<title>Node7_1</title>
<ellipse fill="#ffff00" stroke="#ffff00" cx="380.19" cy="-105" rx="40.09" ry="18"/>
<text text-anchor="middle" x="380.19" y="-101.3" font-family="Times,serif" font-size="14.00">दृष्ट&#45;(7.1)</text>
</g>
<!-- Node7_1&#45;&gt;Node7_2 -->
<g id="edge11" class="edge">
<title>Node7_1&#45;&gt;Node7_2</title>
<path fill="none" stroke="black" d="M379.87,-133.27C379.72,-146.58 379.53,-162.19 379.4,-173.82"/>
<polygon fill="black" stroke="black" points="383.37,-133.24 379.99,-123.2 376.38,-133.16 383.37,-133.24"/>
<text text-anchor="middle" x="417.19" y="-144.8" font-family="Times,serif" font-size="14.00">सप्तमी&#45;बहुव्रीहिः</text>
</g>
<!-- Node8_1 -->
<g id="node16" class="node">
<title>Node8_1</title>
<ellipse fill="#ffff00" stroke="#ffff00" cx="486.19" cy="-105" rx="44.39" ry="18"/>
<text text-anchor="middle" x="486.19" y="-101.3" font-family="Times,serif" font-size="14.00">अक्ष&#45;(8.1)</text>
</g>
<!-- Node8_1&#45;&gt;Node8_2 -->
<g id="edge13" class="edge">
<title>Node8_1&#45;&gt;Node8_2</title>
<path fill="none" stroke="black" d="M486.19,-133.27C486.19,-146.58 486.19,-162.19 486.19,-173.82"/>
<polygon fill="black" stroke="black" points="489.7,-133.2 486.19,-123.2 482.7,-133.2 489.7,-133.2"/>
<text text-anchor="middle" x="521.19" y="-144.8" font-family="Times,serif" font-size="14.00">उपपद&#45;तत्पुरुषः</text>
</g>
</g>
</svg>
