<svg width="1605pt" height="583pt"
 viewBox="0.00 0.00 1605.00 583.00" xmlns="http://www.w3.org/2000/svg" xmlns:xlink="http://www.w3.org/1999/xlink">
<g id="graph0" class="graph" transform="scale(1 1) rotate(0) translate(4 579)">
<title>G</title>
<polygon fill="#fffacd" stroke="transparent" points="-4,4 -4,-579 1601,-579 1601,4 -4,4"/>
<!-- Node1_1 -->
<style>
 .hidden { display: none; }
 .node { cursor: pointer; }
 </style>
<script>
     function toggleChildren(id) {
      const children = document.getElementById(id);
      if (children.classList.contains('hidden')) {
        children.classList.remove('hidden');
      } else {
        children.classList.add('hidden');
      }
    }
</script>
<g id="children_node0_65408" class="hidden">
    <g class="node" onclick="toggleChildren('children_node0_65408');">
</g>
</g>
<g id="children_node1_65408" class="hidden">
    <g class="node" onclick="toggleChildren('children_node1_65408');">

<g id="node1" class="node">
<title>Node1_1</title>
<polygon fill="#ffff00" stroke="#ffff00" points="54,-255 0,-255 0,-219 54,-219 54,-255"/>
<text text-anchor="middle" x="27" y="-233.3" font-family="Times,serif" font-size="14.00">राग&#45;</text>
</g>
<!-- Node1_2 -->
<g id="node2" class="node">
<title>Node1_2</title>
<polygon fill="#ffff00" stroke="#ffff00" points="144,-255 90,-255 90,-219 144,-219 144,-255"/>
<text text-anchor="middle" x="117" y="-233.3" font-family="Times,serif" font-size="14.00">आदि&#45;</text>
</g>
<!-- Node1_1&#45;&gt;Node1_2 -->
<!-- Node1_2_1 -->
<g id="node3" class="node">
<title>Node1_2_1</title>
<polygon fill="#ffff00" stroke="#ffff00" points="159.5,-328 28.5,-328 28.5,-292 159.5,-292 159.5,-328"/>
<text text-anchor="middle" x="94" y="-306.3" font-family="Times,serif" font-size="14.00">&lt;राग&#45;आदि&#45;&gt;(बहुव्रीहिः)</text>
</g>
<!-- Node1_1&#45;&gt;Node1_2_1 -->
<g id="edge2" class="edge">
<title>Node1_1&#45;&gt;Node1_2_1</title>
<path fill="none" stroke="black" d="M50.24,-262.63C59.38,-272.31 69.64,-283.19 77.93,-291.97"/>
<polygon fill="black" stroke="black" points="52.63,-260.06 43.22,-255.19 47.54,-264.86 52.63,-260.06"/>
</g>
<!-- Node1_2&#45;&gt;Node1_2_1 -->
<g id="edge1" class="edge">
<title>Node1_2&#45;&gt;Node1_2_1</title>
<path fill="none" stroke="black" d="M108.27,-264.95C105.33,-274.02 102.14,-283.88 99.52,-291.97"/>
<polygon fill="black" stroke="black" points="111.68,-265.78 111.43,-255.19 105.02,-263.62 111.68,-265.78"/>
</g>
<!-- Node1_3 -->
<g id="node4" class="node">
<title>Node1_3</title>
<polygon fill="#ffff00" stroke="#ffff00" points="249,-328 195,-328 195,-292 249,-292 249,-328"/>
<text text-anchor="middle" x="222" y="-306.3" font-family="Times,serif" font-size="14.00">रोगान्</text>
</g>
<!-- Node1_2_1&#45;&gt;Node1_3 -->
<!-- Node1_3_2 -->
<g id="node5" class="node">
<title>Node1_3_2</title>
<polygon fill="#ffff00" stroke="#ffff00" points="336.5,-401 107.5,-401 107.5,-365 336.5,-365 336.5,-401"/>
<text text-anchor="middle" x="222" y="-379.3" font-family="Times,serif" font-size="14.00">&lt;&lt;राग&#45;आदि&#45;&gt;(बहुव्रीहिः)रोगान्&gt;(कर्मधारयः)</text>
</g>
<!-- Node1_2_1&#45;&gt;Node1_3_2 -->
<g id="edge5" class="edge">
<title>Node1_2_1&#45;&gt;Node1_3_2</title>
<path fill="none" stroke="black" d="M133.47,-332.9C152.03,-343.19 173.83,-355.28 191.15,-364.89"/>
<polygon fill="black" stroke="black" points="135.1,-329.8 124.66,-328.01 131.71,-335.92 135.1,-329.8"/>
</g>
<!-- Node1_3&#45;&gt;Node1_3_2 -->
<g id="edge4" class="edge">
<title>Node1_3&#45;&gt;Node1_3_2</title>
<path fill="none" stroke="black" d="M222,-338.25C222,-347.23 222,-356.97 222,-364.97"/>
<polygon fill="black" stroke="black" points="225.5,-338.19 222,-328.19 218.5,-338.19 225.5,-338.19"/>
</g>
<!-- Node1_3_2&#45;&gt;Node1_3_2c -->
<g id="edge7" class="edge">
<title>Node1_3_2&#45;&gt;Node1_3_2c</title>
<path fill="none" stroke="black" d="M314.91,-403.12C396.99,-420.01 513.81,-444.06 581.27,-457.94"/>
<polygon fill="black" stroke="black" points="315.58,-399.69 305.08,-401.1 314.17,-406.54 315.58,-399.69"/>
</g>
</g>
</g>
<!-- Node1_3_2c -->
<g class="node6" onclick="toggleChildren('children_node1_65408');">
<title>Node1_3_2c</title>
<polygon fill="#93db70" stroke="#93db70" points="688.5,-488 581.5,-488 581.5,-452 688.5,-452 688.5,-488"/>
<text text-anchor="middle" x="635" y="-466.3" font-family="Times,serif" font-size="14.00">राग&#45;आदि&#45;रोगान्(1)</text>
</g>
<g id="children_node2_65408" class="hidden">
    <g class="node" onclick="toggleChildren('children_node2_65408');">
<!-- Node2_1 -->
<g id="node7" class="node">
<title>Node2_1</title>
<polygon fill="#ffff00" stroke="#ffff00" points="347,-255 293,-255 293,-219 347,-219 347,-255"/>
<text text-anchor="middle" x="320" y="-233.3" font-family="Times,serif" font-size="14.00">सतत&#45;</text>
</g>
<!-- Node2_2 -->
<g id="node8" class="node">
<title>Node2_2</title>
<polygon fill="#ffff00" stroke="#ffff00" points="449,-255 383,-255 383,-219 449,-219 449,-255"/>
<text text-anchor="middle" x="416" y="-233.3" font-family="Times,serif" font-size="14.00">अनुषक्तान्</text>
</g>
<!-- Node2_1&#45;&gt;Node2_2 -->
<!-- Node2_2_1 -->
<g id="node9" class="node">
<title>Node2_2_1</title>
<polygon fill="#ffff00" stroke="#ffff00" points="433,-328 267,-328 267,-292 433,-292 433,-328"/>
<text text-anchor="middle" x="350" y="-306.3" font-family="Times,serif" font-size="14.00">&lt;सतत&#45;अनुषक्तान्&gt;(कर्मधारयः)</text>
</g>
<!-- Node2_1&#45;&gt;Node2_2_1 -->
<g id="edge10" class="edge">
<title>Node2_1&#45;&gt;Node2_2_1</title>
<path fill="none" stroke="black" d="M331.27,-264.66C335.13,-273.81 339.35,-283.8 342.8,-291.97"/>
<polygon fill="black" stroke="black" points="334.38,-263.04 327.26,-255.19 327.93,-265.76 334.38,-263.04"/>
</g>
<!-- Node2_2&#45;&gt;Node2_2_1 -->
<g id="edge9" class="edge">
<title>Node2_2&#45;&gt;Node2_2_1</title>
<path fill="none" stroke="black" d="M393.1,-262.63C384.1,-272.31 373.99,-283.19 365.83,-291.97"/>
<polygon fill="black" stroke="black" points="395.78,-264.89 400.02,-255.19 390.65,-260.13 395.78,-264.89"/>
</g>
<!-- Node2_2_1&#45;&gt;Node2_2_1c -->
<g id="edge12" class="edge">
<title>Node2_2_1&#45;&gt;Node2_2_1c</title>
<path fill="none" stroke="black" d="M383.31,-333.74C398.11,-343.85 415.24,-355.54 428.93,-364.89"/>
<polygon fill="black" stroke="black" points="385.14,-330.75 374.91,-328.01 381.2,-336.54 385.14,-330.75"/>
</g>
</g>
</g>
<!-- Node2_2_1c -->
<g class="node10" onclick="toggleChildren('children_node2_65408');">
<title>Node2_2_1c</title>
<polygon fill="#93db70" stroke="#93db70" points="509,-401 399,-401 399,-365 509,-365 509,-401"/>
<text text-anchor="middle" x="454" y="-379.3" font-family="Times,serif" font-size="14.00">सतत&#45;अनुषक्तान्(2)</text>
</g>
<g id="children_node3_65408" class="hidden">
    <g class="node" onclick="toggleChildren('children_node3_65408');">
<!-- Node3_1 -->
<g id="node11" class="node">
<title>Node3_1</title>
<polygon fill="#ffff00" stroke="#ffff00" points="489,-109 435,-109 435,-73 489,-73 489,-109"/>
<text text-anchor="middle" x="462" y="-87.3" font-family="Times,serif" font-size="14.00">अ&#45;</text>
</g>
<!-- Node3_2 -->
<g id="node12" class="node">
<title>Node3_2</title>
<polygon fill="#ffff00" stroke="#ffff00" points="579,-109 525,-109 525,-73 579,-73 579,-109"/>
<text text-anchor="middle" x="552" y="-87.3" font-family="Times,serif" font-size="14.00">शेष&#45;</text>
</g>
<!-- Node3_1&#45;&gt;Node3_2 -->
<!-- Node3_2_1 -->
<g id="node13" class="node">
<title>Node3_2_1</title>
<polygon fill="#ffff00" stroke="#ffff00" points="597,-182 461,-182 461,-146 597,-146 597,-182"/>
<text text-anchor="middle" x="529" y="-160.3" font-family="Times,serif" font-size="14.00">&lt;अ&#45;शेष&#45;&gt;(नञ्&#45;तत्पुरुषः)</text>
</g>
<!-- Node3_1&#45;&gt;Node3_2_1 -->
<g id="edge15" class="edge">
<title>Node3_1&#45;&gt;Node3_2_1</title>
<path fill="none" stroke="black" d="M485.24,-116.63C494.38,-126.31 504.64,-137.19 512.93,-145.97"/>
<polygon fill="black" stroke="black" points="487.63,-114.06 478.22,-109.19 482.54,-118.86 487.63,-114.06"/>
</g>
<!-- Node3_2&#45;&gt;Node3_2_1 -->
<g id="edge14" class="edge">
<title>Node3_2&#45;&gt;Node3_2_1</title>
<path fill="none" stroke="black" d="M543.27,-118.95C540.33,-128.02 537.14,-137.88 534.52,-145.97"/>
<polygon fill="black" stroke="black" points="546.68,-119.78 546.43,-109.19 540.02,-117.62 546.68,-119.78"/>
</g>
<!-- Node3_3 -->
<g id="node14" class="node">
<title>Node3_3</title>
<polygon fill="#ffff00" stroke="#ffff00" points="687,-182 633,-182 633,-146 687,-146 687,-182"/>
<text text-anchor="middle" x="660" y="-160.3" font-family="Times,serif" font-size="14.00">काय&#45;</text>
</g>
<!-- Node3_2_1&#45;&gt;Node3_3 -->
<!-- Node3_3_2 -->
<g id="node15" class="node">
<title>Node3_3_2</title>
<polygon fill="#ffff00" stroke="#ffff00" points="725,-255 491,-255 491,-219 725,-219 725,-255"/>
<text text-anchor="middle" x="608" y="-233.3" font-family="Times,serif" font-size="14.00">&lt;&lt;अ&#45;शेष&#45;&gt;(नञ्&#45;तत्पुरुषः)काय&#45;&gt;(कर्मधारयः)</text>
</g>
<!-- Node3_2_1&#45;&gt;Node3_3_2 -->
<g id="edge18" class="edge">
<title>Node3_2_1&#45;&gt;Node3_3_2</title>
<path fill="none" stroke="black" d="M555.77,-189.06C566.7,-198.88 579.09,-210.01 589.05,-218.97"/>
<polygon fill="black" stroke="black" points="557.9,-186.27 548.12,-182.19 553.22,-191.47 557.9,-186.27"/>
</g>
<!-- Node3_3&#45;&gt;Node3_3_2 -->
<g id="edge17" class="edge">
<title>Node3_3&#45;&gt;Node3_3_2</title>
<path fill="none" stroke="black" d="M641.33,-190.5C634.4,-199.96 626.71,-210.45 620.47,-218.97"/>
<polygon fill="black" stroke="black" points="644.33,-192.32 647.41,-182.19 638.68,-188.19 644.33,-192.32"/>
</g>
<!-- Node3_4 -->
<g id="node16" class="node">
<title>Node3_4</title>
<polygon fill="#ffff00" stroke="#ffff00" points="815,-255 761,-255 761,-219 815,-219 815,-255"/>
<text text-anchor="middle" x="788" y="-233.3" font-family="Times,serif" font-size="14.00">प्रसृतान्</text>
</g>
<!-- Node3_3_2&#45;&gt;Node3_4 -->
<!-- Node3_4_3 -->
<g id="node17" class="node">
<title>Node3_4_3</title>
<polygon fill="#ffff00" stroke="#ffff00" points="818.5,-328 451.5,-328 451.5,-292 818.5,-292 818.5,-328"/>
<text text-anchor="middle" x="635" y="-306.3" font-family="Times,serif" font-size="14.00">&lt;&lt;&lt;अ&#45;शेष&#45;&gt;(नञ्&#45;तत्पुरुषः)काय&#45;&gt;(कर्मधारयः)प्रसृतान्&gt;(सप्तमी&#45;तत्पुरुषः)</text>
</g>
<!-- Node3_3_2&#45;&gt;Node3_4_3 -->
<g id="edge21" class="edge">
<title>Node3_3_2&#45;&gt;Node3_4_3</title>
<path fill="none" stroke="black" d="M618.14,-264.66C621.62,-273.81 625.42,-283.8 628.52,-291.97"/>
<polygon fill="black" stroke="black" points="621.36,-263.29 614.54,-255.19 614.82,-265.78 621.36,-263.29"/>
</g>
<!-- Node3_4&#45;&gt;Node3_4_3 -->
<g id="edge20" class="edge">
<title>Node3_4&#45;&gt;Node3_4_3</title>
<path fill="none" stroke="black" d="M751.82,-254.79C727.68,-265.99 696.04,-280.68 671.78,-291.93"/>
<polygon fill="black" stroke="black" points="753.4,-257.91 761,-250.53 750.45,-251.56 753.4,-257.91"/>
</g>
<!-- Node3_4_3&#45;&gt;Node3_4_3c -->
<g id="edge23" class="edge">
<title>Node3_4_3&#45;&gt;Node3_4_3c</title>
<path fill="none" stroke="black" d="M635,-338.25C635,-347.23 635,-356.97 635,-364.97"/>
<polygon fill="black" stroke="black" points="638.5,-338.19 635,-328.19 631.5,-338.19 638.5,-338.19"/>
</g>
</g>
</g>
<!-- Node3_4_3c -->
<g class="node18" onclick="toggleChildren('children_node3_65408');">
<title>Node3_4_3c</title>
<polygon fill="#93db70" stroke="#93db70" points="699.5,-401 570.5,-401 570.5,-365 699.5,-365 699.5,-401"/>
<text text-anchor="middle" x="635" y="-379.3" font-family="Times,serif" font-size="14.00">अ&#45;शेष&#45;काय&#45;प्रसृतान्(3)</text>
</g>
<g id="children_node4_65408" class="hidden">
    <g class="node" onclick="toggleChildren('children_node4_65408');">
<!-- Node4_1 -->
<g id="node19" class="node">
<title>Node4_1</title>
<polygon fill="#ffff00" stroke="#ffff00" points="915,-255 861,-255 861,-219 915,-219 915,-255"/>
<text text-anchor="middle" x="888" y="-233.3" font-family="Times,serif" font-size="14.00">अ&#45;</text>
</g>
<!-- Node4_2 -->
<g id="node20" class="node">
<title>Node4_2</title>
<polygon fill="#ffff00" stroke="#ffff00" points="1005,-255 951,-255 951,-219 1005,-219 1005,-255"/>
<text text-anchor="middle" x="978" y="-233.3" font-family="Times,serif" font-size="14.00">शेषान्</text>
</g>
<!-- Node4_1&#45;&gt;Node4_2 -->
<!-- Node4_2_1 -->
<g id="node21" class="node">
<title>Node4_2_1</title>
<polygon fill="#ffff00" stroke="#ffff00" points="1099,-328 837,-328 837,-292 1099,-292 1099,-328"/>
<text text-anchor="middle" x="968" y="-306.3" font-family="Times,serif" font-size="14.00">&lt;अ&#45;शेषान्&gt;(अस्त्यर्थ&#45;मध्यमपदलोपी(नञ्)&#45;बहुव्रीहिः)</text>
</g>
<!-- Node4_1&#45;&gt;Node4_2_1 -->
<g id="edge26" class="edge">
<title>Node4_1&#45;&gt;Node4_2_1</title>
<path fill="none" stroke="black" d="M915.11,-262.06C926.18,-271.88 938.72,-283.01 948.81,-291.97"/>
<polygon fill="black" stroke="black" points="917.17,-259.21 907.37,-255.19 912.52,-264.44 917.17,-259.21"/>
</g>
<!-- Node4_2&#45;&gt;Node4_2_1 -->
<g id="edge25" class="edge">
<title>Node4_2&#45;&gt;Node4_2_1</title>
<path fill="none" stroke="black" d="M974.16,-265.25C972.9,-274.23 971.53,-283.97 970.4,-291.97"/>
<polygon fill="black" stroke="black" points="977.65,-265.58 975.58,-255.19 970.72,-264.6 977.65,-265.58"/>
</g>
<!-- Node4_2_1&#45;&gt;Node4_2_1c -->
<g id="edge28" class="edge">
<title>Node4_2_1&#45;&gt;Node4_2_1c</title>
<path fill="none" stroke="black" d="M936.95,-334.2C923.54,-344.23 908.12,-355.75 895.79,-364.97"/>
<polygon fill="black" stroke="black" points="939.09,-336.98 945,-328.19 934.9,-331.37 939.09,-336.98"/>
</g>
</g>
</g>
<!-- Node4_2_1c -->
<g class="node22" onclick="toggleChildren('children_node4_65408');">
<title>Node4_2_1c</title>
<polygon fill="#93db70" stroke="#93db70" points="934.5,-401 811.5,-401 811.5,-365 934.5,-365 934.5,-401"/>
<text text-anchor="middle" x="873" y="-379.3" font-family="Times,serif" font-size="14.00">अ&#45;शेषान्&#45;बहुव्रीहिः)(4)</text>
</g>
<g id="children_node5_65408" class="hidden">
    <g class="node" onclick="toggleChildren('children_node5_65408');">
<!-- Node5_3 -->
<g id="node23" class="node">
<title>Node5_3</title>
<polygon fill="#ffff00" stroke="#ffff00" points="1428,-36 1374,-36 1374,0 1428,0 1428,-36"/>
<text text-anchor="middle" x="1401" y="-14.3" font-family="Times,serif" font-size="14.00">अ&#45;</text>
</g>
<!-- Node5_4 -->
<g id="node24" class="node">
<title>Node5_4</title>
<polygon fill="#ffff00" stroke="#ffff00" points="1518,-36 1464,-36 1464,0 1518,0 1518,-36"/>
<text text-anchor="middle" x="1491" y="-14.3" font-family="Times,serif" font-size="14.00">रति&#45;</text>
</g>
<!-- Node5_3&#45;&gt;Node5_4 -->
<!-- Node5_4_1 -->
<g id="node25" class="node">
<title>Node5_4_1</title>
<polygon fill="#ffff00" stroke="#ffff00" points="1521,-109 1387,-109 1387,-73 1521,-73 1521,-109"/>
<text text-anchor="middle" x="1454" y="-87.3" font-family="Times,serif" font-size="14.00">&lt;अ&#45;रति&#45;&gt;(नञ्&#45;तत्पुरुषः)</text>
</g>
<!-- Node5_3&#45;&gt;Node5_4_1 -->
<g id="edge31" class="edge">
<title>Node5_3&#45;&gt;Node5_4_1</title>
<path fill="none" stroke="black" d="M1419.82,-44.21C1426.94,-53.74 1434.86,-64.36 1441.29,-72.97"/>
<polygon fill="black" stroke="black" points="1422.62,-42.11 1413.83,-36.19 1417.01,-46.29 1422.62,-42.11"/>
</g>
<!-- Node5_4&#45;&gt;Node5_4_1 -->
<g id="edge30" class="edge">
<title>Node5_4&#45;&gt;Node5_4_1</title>
<path fill="none" stroke="black" d="M1477.41,-45.08C1472.56,-54.39 1467.22,-64.62 1462.87,-72.97"/>
<polygon fill="black" stroke="black" points="1480.53,-46.67 1482.04,-36.19 1474.32,-43.44 1480.53,-46.67"/>
</g>
<!-- Node5_4_2 -->
<g id="node27" class="node">
<title>Node5_4_2</title>
<polygon fill="#ffff00" stroke="#ffff00" points="1508.5,-182 1269.5,-182 1269.5,-146 1508.5,-146 1508.5,-182"/>
<text text-anchor="middle" x="1389" y="-160.3" font-family="Times,serif" font-size="14.00">&lt;मोह&#45;&lt;अ&#45;रति&#45;&gt;(नञ्&#45;तत्पुरुषः)&gt;(इतरेतर&#45;द्वन्द्वः)</text>
</g>
<!-- Node5_4_1&#45;&gt;Node5_4_2 -->
<g id="edge33" class="edge">
<title>Node5_4_1&#45;&gt;Node5_4_2</title>
<path fill="none" stroke="black" d="M1431.45,-116.63C1422.59,-126.31 1412.63,-137.19 1404.59,-145.97"/>
<polygon fill="black" stroke="black" points="1434.09,-118.93 1438.27,-109.19 1428.93,-114.2 1434.09,-118.93"/>
</g>
<!-- Node5_2 -->
<g id="node26" class="node">
<title>Node5_2</title>
<polygon fill="#ffff00" stroke="#ffff00" points="1351,-109 1297,-109 1297,-73 1351,-73 1351,-109"/>
<text text-anchor="middle" x="1324" y="-87.3" font-family="Times,serif" font-size="14.00">मोह&#45;</text>
</g>
<!-- Node5_2&#45;&gt;Node5_4_1 -->
<!-- Node5_2&#45;&gt;Node5_4_2 -->
<g id="edge34" class="edge">
<title>Node5_2&#45;&gt;Node5_4_2</title>
<path fill="none" stroke="black" d="M1346.55,-116.63C1355.41,-126.31 1365.37,-137.19 1373.41,-145.97"/>
<polygon fill="black" stroke="black" points="1349.07,-114.2 1339.73,-109.19 1343.91,-118.93 1349.07,-114.2"/>
</g>
<!-- Node5_4_3 -->
<g id="node29" class="node">
<title>Node5_4_3</title>
<polygon fill="#ffff00" stroke="#ffff00" points="1440,-255 1072,-255 1072,-219 1440,-219 1440,-255"/>
<text text-anchor="middle" x="1256" y="-233.3" font-family="Times,serif" font-size="14.00">&lt;औत्सुक्य&#45;&lt;मोह&#45;&lt;अ&#45;रति&#45;&gt;(नञ्&#45;तत्पुरुषः)&gt;(इतरेतर&#45;द्वन्द्वः)&gt;(इतरेतर&#45;द्वन्द्वः)</text>
</g>
<!-- Node5_4_2&#45;&gt;Node5_4_3 -->
<g id="edge36" class="edge">
<title>Node5_4_2&#45;&gt;Node5_4_3</title>
<path fill="none" stroke="black" d="M1348.25,-186.76C1328.91,-197.08 1306.14,-209.23 1288.06,-218.89"/>
<polygon fill="black" stroke="black" points="1349.97,-189.8 1357.14,-182.01 1346.67,-183.63 1349.97,-189.8"/>
</g>
<!-- Node5_1 -->
<g id="node28" class="node">
<title>Node5_1</title>
<polygon fill="#ffff00" stroke="#ffff00" points="1234,-182 1172,-182 1172,-146 1234,-146 1234,-182"/>
<text text-anchor="middle" x="1203" y="-160.3" font-family="Times,serif" font-size="14.00">औत्सुक्य&#45;</text>
</g>
<!-- Node5_1&#45;&gt;Node5_4_2 -->
<!-- Node5_1&#45;&gt;Node5_4_3 -->
<g id="edge37" class="edge">
<title>Node5_1&#45;&gt;Node5_4_3</title>
<path fill="none" stroke="black" d="M1221.82,-190.21C1228.94,-199.74 1236.86,-210.36 1243.29,-218.97"/>
<polygon fill="black" stroke="black" points="1224.62,-188.11 1215.83,-182.19 1219.01,-192.29 1224.62,-188.11"/>
</g>
<!-- Node5_5 -->
<g id="node30" class="node">
<title>Node5_5</title>
<polygon fill="#ffff00" stroke="#ffff00" points="1530,-255 1476,-255 1476,-219 1530,-219 1530,-255"/>
<text text-anchor="middle" x="1503" y="-233.3" font-family="Times,serif" font-size="14.00">दान्</text>
</g>
<!-- Node5_4_3&#45;&gt;Node5_5 -->
<!-- Node5_5_4 -->
<g id="node31" class="node">
<title>Node5_5_4</title>
<polygon fill="#ffff00" stroke="#ffff00" points="1597,-328 1117,-328 1117,-292 1597,-292 1597,-328"/>
<text text-anchor="middle" x="1357" y="-306.3" font-family="Times,serif" font-size="14.00">&lt;&lt;औत्सुक्य&#45;&lt;मोह&#45;&lt;अ&#45;रति&#45;&gt;(नञ्&#45;तत्पुरुषः)&gt;(इतरेतर&#45;द्वन्द्वः)&gt;(इतरेतर&#45;द्वन्द्वः)दान्&gt;(उपपद&#45;तत्पुरुषः)</text>
</g>
<!-- Node5_4_3&#45;&gt;Node5_5_4 -->
<g id="edge40" class="edge">
<title>Node5_4_3&#45;&gt;Node5_5_4</title>
<path fill="none" stroke="black" d="M1288.75,-261.03C1303.04,-271.06 1319.48,-282.63 1332.66,-291.89"/>
<polygon fill="black" stroke="black" points="1290.39,-257.89 1280.19,-255.01 1286.36,-263.62 1290.39,-257.89"/>
</g>
<!-- Node5_5&#45;&gt;Node5_5_4 -->
<g id="edge39" class="edge">
<title>Node5_5&#45;&gt;Node5_5_4</title>
<path fill="none" stroke="black" d="M1466.84,-255.58C1443.99,-266.7 1414.61,-280.99 1391.98,-291.99"/>
<polygon fill="black" stroke="black" points="1468.42,-258.71 1475.88,-251.19 1465.36,-252.41 1468.42,-258.71"/>
</g>
<!-- Node5_5_4&#45;&gt;Node5_5_4c -->
<g id="edge42" class="edge">
<title>Node5_5_4&#45;&gt;Node5_5_4c</title>
<path fill="none" stroke="black" d="M1308.36,-332.06C1284.18,-342.53 1255.33,-355.02 1232.53,-364.89"/>
<polygon fill="black" stroke="black" points="1309.93,-335.19 1317.72,-328.01 1307.15,-328.77 1309.93,-335.19"/>
</g>
</g>
</g>
<!-- Node5_5_4c -->
<g class="node32" onclick="toggleChildren('children_node5_65408');">
<title>Node5_5_4c</title>
<polygon fill="#93db70" stroke="#93db70" points="1269,-401 1117,-401 1117,-365 1269,-365 1269,-401"/>
<text text-anchor="middle" x="1193" y="-379.3" font-family="Times,serif" font-size="14.00">औत्सुक्य&#45;मोह&#45;अ&#45;रति&#45;दान्(5)</text>
</g>
<!-- Node6_1 -->
<g id="node33" class="node">
<title>Node6_1</title>
<polygon fill="#ff1975" stroke="#ff1975" points="714.5,-575 653.5,-575 653.5,-539 714.5,-539 714.5,-575"/>
<text text-anchor="middle" x="684" y="-553.3" font-family="Times,serif" font-size="14.00">जघान(6)</text>
</g>
<!-- Node1_3_2c&#45;&gt;Node6_1 -->
<g id="edge8" class="edge">
<title>Node1_3_2c&#45;&gt;Node6_1</title>
<path fill="none" stroke="black" d="M650.04,-497.09C657.86,-510.65 667.2,-526.85 674.1,-538.82"/>
<polygon fill="black" stroke="black" points="652.94,-495.12 644.92,-488.2 646.88,-498.61 652.94,-495.12"/>
<text text-anchor="middle" x="671" y="-509.8" font-family="Times,serif" font-size="14.00">कर्म</text>
</g>
<!-- Node2_2_1c&#45;&gt;Node1_3_2c -->
<g id="edge13" class="edge">
<title>Node2_2_1c&#45;&gt;Node1_3_2c</title>
<path fill="none" stroke="black" d="M499.83,-405.52C530.49,-419.92 570.28,-438.61 598.74,-451.97"/>
<polygon fill="black" stroke="black" points="501.17,-402.28 490.63,-401.2 498.19,-408.62 501.17,-402.28"/>
<text text-anchor="middle" x="578.5" y="-422.8" font-family="Times,serif" font-size="14.00">विशेषणम्</text>
</g>
<!-- Node3_4_3c&#45;&gt;Node1_3_2c -->
<g id="edge24" class="edge">
<title>Node3_4_3c&#45;&gt;Node1_3_2c</title>
<path fill="none" stroke="black" d="M635,-411.27C635,-424.58 635,-440.19 635,-451.82"/>
<polygon fill="black" stroke="black" points="638.5,-411.2 635,-401.2 631.5,-411.2 638.5,-411.2"/>
<text text-anchor="middle" x="658.5" y="-422.8" font-family="Times,serif" font-size="14.00">विशेषणम्</text>
</g>
<!-- Node4_2_1c&#45;&gt;Node1_3_2c -->
<g id="edge29" class="edge">
<title>Node4_2_1c&#45;&gt;Node1_3_2c</title>
<path fill="none" stroke="black" d="M815.62,-404.49C774.98,-419.01 721.11,-438.25 682.8,-451.93"/>
<polygon fill="black" stroke="black" points="816.88,-407.76 825.12,-401.1 814.53,-401.17 816.88,-407.76"/>
<text text-anchor="middle" x="791.5" y="-422.8" font-family="Times,serif" font-size="14.00">विशेषणम्</text>
</g>
<!-- Node5_5_4c&#45;&gt;Node1_3_2c -->
<g id="edge43" class="edge">
<title>Node5_5_4c&#45;&gt;Node1_3_2c</title>
<path fill="none" stroke="black" d="M1106.85,-395.55C970.37,-413.88 717.78,-447.99 698,-452 694.89,-452.63 691.71,-453.33 688.51,-454.07"/>
<polygon fill="black" stroke="black" points="1107.43,-399 1116.87,-394.2 1106.49,-392.06 1107.43,-399"/>
<text text-anchor="middle" x="949.5" y="-422.8" font-family="Times,serif" font-size="14.00">विशेषणम्</text>
</g>
<!-- Node7_1 -->
<g id="node34" class="node">
<title>Node7_1</title>
<polygon fill="#00bfff" stroke="#00bfff" points="761,-488 707,-488 707,-452 761,-452 761,-488"/>
<text text-anchor="middle" x="734" y="-466.3" font-family="Times,serif" font-size="14.00">(यः)(7)</text>
</g>
<!-- Node7_1&#45;&gt;Node6_1 -->
<g id="edge44" class="edge">
<title>Node7_1&#45;&gt;Node6_1</title>
<path fill="none" stroke="black" d="M718.66,-497.09C710.68,-510.65 701.15,-526.85 694.1,-538.82"/>
<polygon fill="black" stroke="black" points="721.83,-498.59 723.88,-488.2 715.79,-495.05 721.83,-498.59"/>
<text text-anchor="middle" x="722" y="-509.8" font-family="Times,serif" font-size="14.00">कर्ता</text>
</g>
</g>
</svg>
