<svg width="379pt" height="378pt"
 viewBox="0.00 0.00 378.50 378.00" xmlns="http://www.w3.org/2000/svg" xmlns:xlink="http://www.w3.org/1999/xlink">
<g id="graph0" class="graph" transform="scale(1 1) rotate(0) translate(4 374)">
<title>G</title>
<polygon fill="#fffacd" stroke="transparent" points="-4,4 -4,-374 374.5,-374 374.5,4 -4,4"/>
<!-- Node3_1 -->
<style>
 .hidden { display: none; }
 .node { cursor: pointer; }
 </style>
<script>
     function toggleChildren(id) {
      const children = document.getElementById(id);
      if (children.classList.contains('hidden')) {
        children.classList.remove('hidden');
      } else {
        children.classList.add('hidden');
      }
    }
</script>
<g id="children_node0_65742" class="hidden">
    <g class="node" onclick="toggleChildren('children_node0_65742');">
</g>
</g>
<g id="children_node1_65742" class="hidden">
    <g class="node" onclick="toggleChildren('children_node1_65742');">

<g id="node1" class="node">
<title>Node3_1</title>
<polygon fill="#ffff00" stroke="#ffff00" points="67.5,-36 13.5,-36 13.5,0 67.5,0 67.5,-36"/>
<text text-anchor="middle" x="40.5" y="-14.3" font-family="Times,serif" font-size="14.00">स्वस्थ&#45;</text>
</g>
<!-- Node3_2 -->
<g id="node2" class="node">
<title>Node3_2</title>
<polygon fill="#ffff00" stroke="#ffff00" points="157.5,-36 103.5,-36 103.5,0 157.5,0 157.5,-36"/>
<text text-anchor="middle" x="130.5" y="-14.3" font-family="Times,serif" font-size="14.00">हितम्</text>
</g>
<!-- Node3_1&#45;&gt;Node3_2 -->
<!-- Node3_2_1 -->
<g id="node3" class="node">
<title>Node3_2_1</title>
<polygon fill="#ffff00" stroke="#ffff00" points="169,-109 0,-109 0,-73 169,-73 169,-109"/>
<text text-anchor="middle" x="84.5" y="-87.3" font-family="Times,serif" font-size="14.00">&lt;स्वस्थ&#45;हितम्&gt;(चतुर्थी&#45;तत्पुरुषः)</text>
</g>
<!-- Node3_1&#45;&gt;Node3_2_1 -->
<g id="edge2" class="edge">
<title>Node3_1&#45;&gt;Node3_2_1</title>
<path fill="none" stroke="black" d="M56.48,-44.79C62.3,-54.17 68.72,-64.54 73.95,-72.97"/>
<polygon fill="black" stroke="black" points="59.39,-42.84 51.15,-36.19 53.44,-46.53 59.39,-42.84"/>
</g>
<!-- Node3_2&#45;&gt;Node3_2_1 -->
<g id="edge1" class="edge">
<title>Node3_2&#45;&gt;Node3_2_1</title>
<path fill="none" stroke="black" d="M113.79,-44.79C107.71,-54.17 101,-64.54 95.53,-72.97"/>
<polygon fill="black" stroke="black" points="116.86,-46.48 119.36,-36.19 110.99,-42.68 116.86,-46.48"/>
</g>
<!-- Node3_2_1&#45;&gt;Node3_2_1c -->
<g id="edge4" class="edge">
<title>Node3_2_1&#45;&gt;Node3_2_1c</title>
<path fill="none" stroke="black" d="M103.85,-117.31C114.34,-131.02 127.03,-147.62 136.37,-159.82"/>
<polygon fill="black" stroke="black" points="106.51,-115.02 97.65,-109.2 100.95,-119.27 106.51,-115.02"/>
</g>
</g>
</g>
<!-- Node3_2_1c -->
<g class="node4" onclick="toggleChildren('children_node1_65742');">
<title>Node3_2_1c</title>
<polygon fill="#00bfff" stroke="#00bfff" points="194,-196 105,-196 105,-160 194,-160 194,-196"/>
<text text-anchor="middle" x="149.5" y="-174.3" font-family="Times,serif" font-size="14.00">स्वस्थ&#45;हितम्(3)</text>
</g>
<!-- Node6_1 -->
<g id="node6" class="node">
<title>Node6_1</title>
<polygon fill="#ff99ff" stroke="#ff99ff" points="272.5,-283 216.5,-283 216.5,-247 272.5,-247 272.5,-283"/>
<text text-anchor="middle" x="244.5" y="-261.3" font-family="Times,serif" font-size="14.00">त्रिधा(6)</text>
</g>
<!-- Node3_2_1c&#45;&gt;Node6_1 -->
<g id="edge5" class="edge">
<title>Node3_2_1c&#45;&gt;Node6_1</title>
<path fill="none" stroke="black" d="M176.49,-203.15C192.06,-217.08 211.28,-234.27 225.3,-246.82"/>
<polygon fill="black" stroke="black" points="178.51,-200.26 168.72,-196.2 173.84,-205.48 178.51,-200.26"/>
<text text-anchor="middle" x="217" y="-217.8" font-family="Times,serif" font-size="14.00">घटकः</text>
</g>
<!-- Node1_1 -->
<g id="node5" class="node">
<title>Node1_1</title>
<polygon fill="#00bfff" stroke="#00bfff" points="276.5,-196 212.5,-196 212.5,-160 276.5,-160 276.5,-196"/>
<text text-anchor="middle" x="244.5" y="-174.3" font-family="Times,serif" font-size="14.00">शमनम्(1)</text>
</g>
<!-- Node1_1&#45;&gt;Node6_1 -->
<g id="edge6" class="edge">
<title>Node1_1&#45;&gt;Node6_1</title>
<path fill="none" stroke="black" d="M244.5,-206.27C244.5,-219.58 244.5,-235.19 244.5,-246.82"/>
<polygon fill="black" stroke="black" points="248,-206.2 244.5,-196.2 241,-206.2 248,-206.2"/>
<text text-anchor="middle" x="259" y="-217.8" font-family="Times,serif" font-size="14.00">घटकः</text>
</g>
<!-- Node7_1 -->
<g id="node9" class="node">
<title>Node7_1</title>
<polygon fill="#ff1975" stroke="#ff1975" points="326.5,-370 258.5,-370 258.5,-334 326.5,-334 326.5,-370"/>
<text text-anchor="middle" x="292.5" y="-348.3" font-family="Times,serif" font-size="14.00">(अस्ति)(7)</text>
</g>
<!-- Node6_1&#45;&gt;Node7_1 -->
<g id="edge10" class="edge">
<title>Node6_1&#45;&gt;Node7_1</title>
<path fill="none" stroke="black" d="M237.74,-293.23C237.15,-300.95 237.88,-309.12 241.5,-316 245.4,-323.41 251.66,-329.56 258.48,-334.52"/>
<polygon fill="black" stroke="black" points="241.23,-293.54 239.21,-283.14 234.3,-292.54 241.23,-293.54"/>
<text text-anchor="middle" x="278" y="-304.8" font-family="Times,serif" font-size="14.00">क्रियाविशेषणम्</text>
</g>
<!-- Node2_1 -->
<g id="node7" class="node">
<title>Node2_1</title>
<polygon fill="#00bfff" stroke="#00bfff" points="362.5,-196 294.5,-196 294.5,-160 362.5,-160 362.5,-196"/>
<text text-anchor="middle" x="328.5" y="-174.3" font-family="Times,serif" font-size="14.00">कोपनम्(2)</text>
</g>
<!-- Node2_1&#45;&gt;Node6_1 -->
<g id="edge7" class="edge">
<title>Node2_1&#45;&gt;Node6_1</title>
<path fill="none" stroke="black" d="M304.26,-203.53C290.55,-217.4 273.76,-234.39 261.47,-246.82"/>
<polygon fill="black" stroke="black" points="306.96,-205.77 311.5,-196.2 301.98,-200.85 306.96,-205.77"/>
<text text-anchor="middle" x="306" y="-217.8" font-family="Times,serif" font-size="14.00">घटकः</text>
</g>
<!-- Node4_1 -->
<g id="node8" class="node">
<title>Node4_1</title>
<polygon fill="#00bfff" stroke="#00bfff" points="370.5,-283 310.5,-283 310.5,-247 370.5,-247 370.5,-283"/>
<text text-anchor="middle" x="340.5" y="-261.3" font-family="Times,serif" font-size="14.00">द्रव्यम्(4)</text>
</g>
<!-- Node4_1&#45;&gt;Node7_1 -->
<g id="edge8" class="edge">
<title>Node4_1&#45;&gt;Node7_1</title>
<path fill="none" stroke="black" d="M330.16,-292.5C326.78,-300.25 322.79,-308.62 318.5,-316 315,-322.02 310.66,-328.23 306.53,-333.72"/>
<polygon fill="black" stroke="black" points="333.45,-293.71 334.08,-283.13 326.99,-291 333.45,-293.71"/>
<text text-anchor="middle" x="336.5" y="-304.8" font-family="Times,serif" font-size="14.00">कर्ता</text>
</g>
<!-- Node5_1 -->
<g id="node10" class="node">
<title>Node5_1</title>
<polygon fill="#ff99ff" stroke="#ff99ff" points="241.5,-109 187.5,-109 187.5,-73 241.5,-73 241.5,-109"/>
<text text-anchor="middle" x="214.5" y="-87.3" font-family="Times,serif" font-size="14.00">इति(5)</text>
</g>
<!-- Node5_1&#45;&gt;Node3_2_1c -->
<g id="edge9" class="edge">
<title>Node5_1&#45;&gt;Node3_2_1c</title>
<path fill="none" stroke="black" d="M195.15,-117.31C184.66,-131.02 171.97,-147.62 162.63,-159.82"/>
<polygon fill="black" stroke="black" points="198.05,-119.27 201.35,-109.2 192.49,-115.02 198.05,-119.27"/>
<text text-anchor="middle" x="218.5" y="-130.8" font-family="Times,serif" font-size="14.00">घटक_द्योतकः</text>
</g>
</g>
</svg>
