<svg width="636pt" height="524pt"
 viewBox="0.00 0.00 636.00 524.00" xmlns="http://www.w3.org/2000/svg" xmlns:xlink="http://www.w3.org/1999/xlink">
<g id="graph0" class="graph" transform="scale(1 1) rotate(0) translate(4 520)">
<title>G</title>
<polygon fill="#fffacd" stroke="transparent" points="-4,4 -4,-520 632,-520 632,4 -4,4"/>
<g id="clust1" class="cluster">
<title>cluster_1</title>
<polygon fill="#fffacd" stroke="black" points="381,-211 381,-350 460,-350 460,-211 381,-211"/>
</g>
<!-- Node2_1 -->
<style>
 .hidden { display: none; }
 .node { cursor: pointer; }
 </style>
<script>
     function toggleChildren(id) {
      const children = document.getElementById(id);
      if (children.classList.contains('hidden')) {
        children.classList.remove('hidden');
      } else {
        children.classList.add('hidden');
      }
    }
</script>
<g id="children_node0_65910" class="hidden">
    <g class="node" onclick="toggleChildren('children_node0_65910');">
</g>
</g>
<g id="children_node1_65910" class="hidden">
    <g class="node" onclick="toggleChildren('children_node1_65910');">

<g id="node1" class="node">
<title>Node2_1</title>
<polygon fill="#ffff00" stroke="#ffff00" points="54,-36 0,-36 0,0 54,0 54,-36"/>
<text text-anchor="middle" x="27" y="-14.3" font-family="Times,serif" font-size="14.00">तीर्थ&#45;</text>
</g>
<!-- Node2_2 -->
<g id="node2" class="node">
<title>Node2_2</title>
<polygon fill="#ffff00" stroke="#ffff00" points="144,-36 90,-36 90,0 144,0 144,-36"/>
<text text-anchor="middle" x="117" y="-14.3" font-family="Times,serif" font-size="14.00">आत्त&#45;</text>
</g>
<!-- Node2_1&#45;&gt;Node2_2 -->
<!-- Node2_2_1 -->
<g id="node3" class="node">
<title>Node2_2_1</title>
<polygon fill="#ffff00" stroke="#ffff00" points="175,-109 13,-109 13,-73 175,-73 175,-109"/>
<text text-anchor="middle" x="94" y="-87.3" font-family="Times,serif" font-size="14.00">&lt;तीर्थ&#45;आत्त&#45;&gt;(पञ्चमी&#45;तत्पुरुषः)</text>
</g>
<!-- Node2_1&#45;&gt;Node2_2_1 -->
<g id="edge2" class="edge">
<title>Node2_1&#45;&gt;Node2_2_1</title>
<path fill="none" stroke="black" d="M50.24,-43.63C59.38,-53.31 69.64,-64.19 77.93,-72.97"/>
<polygon fill="black" stroke="black" points="52.63,-41.06 43.22,-36.19 47.54,-45.86 52.63,-41.06"/>
</g>
<!-- Node2_2&#45;&gt;Node2_2_1 -->
<g id="edge1" class="edge">
<title>Node2_2&#45;&gt;Node2_2_1</title>
<path fill="none" stroke="black" d="M108.27,-45.95C105.33,-55.02 102.14,-64.88 99.52,-72.97"/>
<polygon fill="black" stroke="black" points="111.68,-46.78 111.43,-36.19 105.02,-44.62 111.68,-46.78"/>
</g>
<!-- Node2_4_2 -->
<g id="node6" class="node">
<title>Node2_4_2</title>
<polygon fill="#ffff00" stroke="#ffff00" points="365.5,-109 210.5,-109 210.5,-73 365.5,-73 365.5,-109"/>
<text text-anchor="middle" x="288" y="-87.3" font-family="Times,serif" font-size="14.00">&lt;शास्त्र&#45;अर्थः&gt;(षष्ठी&#45;तत्पुरुषः)</text>
</g>
<!-- Node2_2_1&#45;&gt;Node2_4_2 -->
<!-- Node2_4_3 -->
<g id="node7" class="node">
<title>Node2_4_3</title>
<polygon fill="#ffff00" stroke="#ffff00" points="419.5,-182 18.5,-182 18.5,-146 419.5,-146 419.5,-182"/>
<text text-anchor="middle" x="219" y="-160.3" font-family="Times,serif" font-size="14.00">&lt;&lt;तीर्थ&#45;आत्त&#45;&gt;(पञ्चमी&#45;तत्पुरुषः)&lt;शास्त्र&#45;अर्थः&gt;(षष्ठी&#45;तत्पुरुषः)&gt;(तृतीया&#45;बहुव्रीहिः)</text>
</g>
<!-- Node2_2_1&#45;&gt;Node2_4_3 -->
<g id="edge8" class="edge">
<title>Node2_2_1&#45;&gt;Node2_4_3</title>
<path fill="none" stroke="black" d="M133.04,-114.18C151.06,-124.41 172.11,-136.37 188.87,-145.89"/>
<polygon fill="black" stroke="black" points="134.36,-110.9 123.94,-109.01 130.91,-116.99 134.36,-110.9"/>
</g>
<!-- Node2_3 -->
<g id="node4" class="node">
<title>Node2_3</title>
<polygon fill="#ffff00" stroke="#ffff00" points="270,-36 216,-36 216,0 270,0 270,-36"/>
<text text-anchor="middle" x="243" y="-14.3" font-family="Times,serif" font-size="14.00">शास्त्र&#45;</text>
</g>
<!-- Node2_4 -->
<g id="node5" class="node">
<title>Node2_4</title>
<polygon fill="#ffff00" stroke="#ffff00" points="360,-36 306,-36 306,0 360,0 360,-36"/>
<text text-anchor="middle" x="333" y="-14.3" font-family="Times,serif" font-size="14.00">अर्थः</text>
</g>
<!-- Node2_3&#45;&gt;Node2_4 -->
<!-- Node2_3&#45;&gt;Node2_4_2 -->
<g id="edge5" class="edge">
<title>Node2_3&#45;&gt;Node2_4_2</title>
<path fill="none" stroke="black" d="M259.34,-44.79C265.29,-54.17 271.86,-64.54 277.21,-72.97"/>
<polygon fill="black" stroke="black" points="262.2,-42.76 253.89,-36.19 256.29,-46.51 262.2,-42.76"/>
</g>
<!-- Node2_4&#45;&gt;Node2_4_2 -->
<g id="edge4" class="edge">
<title>Node2_4&#45;&gt;Node2_4_2</title>
<path fill="none" stroke="black" d="M316.66,-44.79C310.71,-54.17 304.14,-64.54 298.79,-72.97"/>
<polygon fill="black" stroke="black" points="319.71,-46.51 322.11,-36.19 313.8,-42.76 319.71,-46.51"/>
</g>
<!-- Node2_4_2&#45;&gt;Node2_4_3 -->
<g id="edge7" class="edge">
<title>Node2_4_2&#45;&gt;Node2_4_3</title>
<path fill="none" stroke="black" d="M264.06,-116.63C254.65,-126.31 244.09,-137.19 235.55,-145.97"/>
<polygon fill="black" stroke="black" points="266.84,-118.8 271.3,-109.19 261.82,-113.92 266.84,-118.8"/>
</g>
<!-- Node2_4_3&#45;&gt;Node2_4_3c -->
<g id="edge10" class="edge">
<title>Node2_4_3&#45;&gt;Node2_4_3c</title>
<path fill="none" stroke="black" d="M243.69,-189.35C253.58,-199.1 264.74,-210.1 273.73,-218.97"/>
<polygon fill="black" stroke="black" points="246.01,-186.72 236.43,-182.19 241.09,-191.7 246.01,-186.72"/>
</g>
</g>
</g>
<!-- Node2_4_3c -->
<g class="node8" onclick="toggleChildren('children_node1_65910');">
<title>Node2_4_3c</title>
<polygon fill="#00bfff" stroke="#00bfff" points="358.5,-255 223.5,-255 223.5,-219 358.5,-219 358.5,-255"/>
<text text-anchor="middle" x="291" y="-233.3" font-family="Times,serif" font-size="14.00">तीर्थ&#45;आत्त&#45;शास्त्र&#45;अर्थः(2)</text>
</g>
<g id="children_node2_65910" class="hidden">
    <g class="node" onclick="toggleChildren('children_node2_65910');">
<!-- Node3_1 -->
<g id="node9" class="node">
<title>Node3_1</title>
<polygon fill="#ffff00" stroke="#ffff00" points="513,-109 459,-109 459,-73 513,-73 513,-109"/>
<text text-anchor="middle" x="486" y="-87.3" font-family="Times,serif" font-size="14.00">दृष्ट&#45;</text>
</g>
<!-- Node3_2 -->
<g id="node10" class="node">
<title>Node3_2</title>
<polygon fill="#ffff00" stroke="#ffff00" points="603,-109 549,-109 549,-73 603,-73 603,-109"/>
<text text-anchor="middle" x="576" y="-87.3" font-family="Times,serif" font-size="14.00">कर्मा</text>
</g>
<!-- Node3_1&#45;&gt;Node3_2 -->
<!-- Node3_2_1 -->
<g id="node11" class="node">
<title>Node3_2_1</title>
<polygon fill="#ffff00" stroke="#ffff00" points="596,-182 438,-182 438,-146 596,-146 596,-182"/>
<text text-anchor="middle" x="517" y="-160.3" font-family="Times,serif" font-size="14.00">&lt;दृष्ट&#45;कर्मा&gt;(तृतीया&#45;बहुव्रीहिः)</text>
</g>
<!-- Node3_1&#45;&gt;Node3_2_1 -->
<g id="edge13" class="edge">
<title>Node3_1&#45;&gt;Node3_2_1</title>
<path fill="none" stroke="black" d="M497.51,-118.37C501.54,-127.6 505.96,-137.71 509.56,-145.97"/>
<polygon fill="black" stroke="black" points="500.71,-116.95 493.5,-109.19 494.3,-119.75 500.71,-116.95"/>
</g>
<!-- Node3_2&#45;&gt;Node3_2_1 -->
<g id="edge12" class="edge">
<title>Node3_2&#45;&gt;Node3_2_1</title>
<path fill="none" stroke="black" d="M555.29,-116.92C547.31,-126.53 538.38,-137.27 531.15,-145.97"/>
<polygon fill="black" stroke="black" points="558.02,-119.12 561.72,-109.19 552.63,-114.64 558.02,-119.12"/>
</g>
<!-- Node3_2_1&#45;&gt;Node3_2_1c -->
<g id="edge15" class="edge">
<title>Node3_2_1&#45;&gt;Node3_2_1c</title>
<path fill="none" stroke="black" d="M512.39,-192.25C510.88,-201.23 509.23,-210.97 507.88,-218.97"/>
<polygon fill="black" stroke="black" points="515.88,-192.63 514.1,-182.19 508.98,-191.46 515.88,-192.63"/>
</g>
</g>
</g>
<!-- Node3_2_1c -->
<g class="node12" onclick="toggleChildren('children_node2_65910');">
<title>Node3_2_1c</title>
<polygon fill="#00bfff" stroke="#00bfff" points="541.5,-255 468.5,-255 468.5,-219 541.5,-219 541.5,-255"/>
<text text-anchor="middle" x="505" y="-233.3" font-family="Times,serif" font-size="14.00">दृष्ट&#45;कर्मा(3)</text>
</g>
<!-- Node4_1 -->
<g id="node14" class="node">
<title>Node4_1</title>
<polygon fill="#00bfff" stroke="#00bfff" points="449.5,-342 390.5,-342 390.5,-306 449.5,-306 449.5,-342"/>
<text text-anchor="middle" x="420" y="-320.3" font-family="Times,serif" font-size="14.00">शुचिः(4)</text>
</g>
<!-- Node2_4_3c&#45;&gt;Node4_1 -->
<g id="edge11" class="edge">
<title>Node2_4_3c&#45;&gt;Node4_1</title>
<path fill="none" stroke="black" d="M325.63,-260.82C347.11,-274.97 374.27,-292.87 393.93,-305.82"/>
<polygon fill="black" stroke="black" points="327.38,-257.78 317.11,-255.2 323.53,-263.63 327.38,-257.78"/>
<text text-anchor="middle" x="386.5" y="-276.8" font-family="Times,serif" font-size="14.00">समुच्चितः</text>
</g>
<!-- Node3_2_1c&#45;&gt;Node4_1 -->
<g id="edge16" class="edge">
<title>Node3_2_1c&#45;&gt;Node4_1</title>
<path fill="none" stroke="black" d="M487.83,-263.42C481.71,-271.67 474.47,-280.6 467,-288 460.64,-294.3 453.1,-300.4 445.94,-305.7"/>
<polygon fill="black" stroke="black" points="490.77,-265.33 493.76,-255.17 485.09,-261.25 490.77,-265.33"/>
<text text-anchor="middle" x="501.5" y="-276.8" font-family="Times,serif" font-size="14.00">समुच्चितः</text>
</g>
<!-- Node1_1 -->
<g id="node13" class="node">
<title>Node1_1</title>
<polygon fill="#00bfff" stroke="#00bfff" points="443,-255 389,-255 389,-219 443,-219 443,-255"/>
<text text-anchor="middle" x="416" y="-233.3" font-family="Times,serif" font-size="14.00">दक्षः(1)</text>
</g>
<!-- Node1_1&#45;&gt;Node4_1 -->
<g id="edge17" class="edge">
<title>Node1_1&#45;&gt;Node4_1</title>
<path fill="none" stroke="black" d="M417.28,-265.27C417.91,-278.58 418.64,-294.19 419.19,-305.82"/>
<polygon fill="black" stroke="black" points="420.78,-265.03 416.81,-255.2 413.78,-265.35 420.78,-265.03"/>
<text text-anchor="middle" x="440.5" y="-276.8" font-family="Times,serif" font-size="14.00">समुच्चितः</text>
</g>
<!-- Node6_1 -->
<g id="node15" class="node">
<title>Node6_1</title>
<polygon fill="#00bfff" stroke="#00bfff" points="450.5,-429 389.5,-429 389.5,-393 450.5,-393 450.5,-429"/>
<text text-anchor="middle" x="420" y="-407.3" font-family="Times,serif" font-size="14.00">भिषक्(6)</text>
</g>
<!-- Node4_1&#45;&gt;Node6_1 -->
<g id="edge18" class="edge">
<title>Node4_1&#45;&gt;Node6_1</title>
<path fill="none" stroke="black" d="M420,-352.27C420,-365.58 420,-381.19 420,-392.82"/>
<polygon fill="black" stroke="black" points="423.5,-352.2 420,-342.2 416.5,-352.2 423.5,-352.2"/>
<text text-anchor="middle" x="461" y="-363.8" font-family="Times,serif" font-size="14.00">विधेय_विशेषणम्</text>
</g>
<!-- Node7_1 -->
<g id="node17" class="node">
<title>Node7_1</title>
<polygon fill="#ff1975" stroke="#ff1975" points="452,-516 388,-516 388,-480 452,-480 452,-516"/>
<text text-anchor="middle" x="420" y="-494.3" font-family="Times,serif" font-size="14.00">(भवेत्)(7)</text>
</g>
<!-- Node6_1&#45;&gt;Node7_1 -->
<g id="edge20" class="edge">
<title>Node6_1&#45;&gt;Node7_1</title>
<path fill="none" stroke="black" d="M420,-439.27C420,-452.58 420,-468.19 420,-479.82"/>
<polygon fill="black" stroke="black" points="423.5,-439.2 420,-429.2 416.5,-439.2 423.5,-439.2"/>
<text text-anchor="middle" x="431" y="-450.8" font-family="Times,serif" font-size="14.00">कर्ता</text>
</g>
<!-- Node5_1 -->
<g id="node16" class="node">
<title>Node5_1</title>
<polygon fill="#ff99ff" stroke="#ff99ff" points="614,-255 560,-255 560,-219 614,-219 614,-255"/>
<text text-anchor="middle" x="587" y="-233.3" font-family="Times,serif" font-size="14.00">(च)(5)</text>
</g>
<!-- Node5_1&#45;&gt;Node4_1 -->
<g id="edge19" class="edge">
<title>Node5_1&#45;&gt;Node4_1</title>
<path fill="none" stroke="black" d="M562.92,-262.11C552.81,-271.22 540.49,-281.04 528,-288 503.2,-301.81 472.13,-311.16 449.69,-316.69"/>
<polygon fill="black" stroke="black" points="565.59,-264.41 570.53,-255.04 560.82,-259.29 565.59,-264.41"/>
<text text-anchor="middle" x="588.5" y="-276.8" font-family="Times,serif" font-size="14.00">समुच्चय_द्योतकः</text>
</g>
</g>
</svg>
