<?xml version="1.0" encoding="UTF-8" standalone="no"?>
<!DOCTYPE svg PUBLIC "-//W3C//DTD SVG 1.1//EN"
 "http://www.w3.org/Graphics/SVG/1.1/DTD/svg11.dtd">
<!-- Generated by graphviz version 2.50.0 (20211204.2007)
 -->
<!-- Title: G Pages: 1 -->
<svg width="363pt" height="218pt"
 viewBox="0.00 0.00 363.14 218.00" xmlns="http://www.w3.org/2000/svg" xmlns:xlink="http://www.w3.org/1999/xlink">
<g id="graph0" class="graph" transform="scale(1 1) rotate(0) translate(4 214)">
<title>G</title>
<polygon fill="#fffacd" stroke="transparent" points="-4,4 -4,-214 359.14,-214 359.14,4 -4,4"/>
<!-- Node1_1 -->
<g id="node1" class="node">
<title>Node1_1</title>
<ellipse fill="#ffff00" stroke="#ffff00" cx="46.15" cy="-18" rx="46.29" ry="18"/>
<text text-anchor="middle" x="46.15" y="-14.3" font-family="Times,serif" font-size="14.00">दर्शन&#45;(1.1)</text>
</g>
<!-- Node1_3 -->
<g id="node2" class="node">
<title>Node1_3</title>
<ellipse fill="#40e0d0" stroke="#40e0d0" cx="103.15" cy="-105" rx="44.39" ry="18"/>
<text text-anchor="middle" x="103.15" y="-101.3" font-family="Times,serif" font-size="14.00">प्रश्नैः(1.3)</text>
</g>
<!-- Node1_1&#45;&gt;Node1_3 -->
<g id="edge1" class="edge">
<title>Node1_1&#45;&gt;Node1_3</title>
<path fill="none" stroke="black" d="M63.22,-44.46C72.58,-58.42 83.91,-75.31 92.1,-87.53"/>
<polygon fill="black" stroke="black" points="65.88,-42.15 57.41,-35.79 60.07,-46.05 65.88,-42.15"/>
<text text-anchor="middle" x="107.15" y="-57.8" font-family="Times,serif" font-size="14.00">इतरेतर&#45;द्वन्द्वः</text>
</g>
<!-- Node2_1 -->
<g id="node4" class="node">
<title>Node2_1</title>
<ellipse fill="#ff1975" stroke="#ff1975" cx="199.15" cy="-192" rx="50.09" ry="18"/>
<text text-anchor="middle" x="199.15" y="-188.3" font-family="Times,serif" font-size="14.00">परीक्षेत(2.1)</text>
</g>
<!-- Node1_3&#45;&gt;Node2_1 -->
<g id="edge3" class="edge">
<title>Node1_3&#45;&gt;Node2_1</title>
<path fill="none" stroke="black" d="M128.44,-128.4C144.96,-143.02 166.14,-161.78 181,-174.93"/>
<polygon fill="black" stroke="black" points="130.56,-125.6 120.75,-121.59 125.92,-130.84 130.56,-125.6"/>
<text text-anchor="middle" x="172.65" y="-144.8" font-family="Times,serif" font-size="14.00">करणम्</text>
</g>
<!-- Node1_2 -->
<g id="node3" class="node">
<title>Node1_2</title>
<ellipse fill="#ffff00" stroke="#ffff00" cx="160.15" cy="-18" rx="50.09" ry="18"/>
<text text-anchor="middle" x="160.15" y="-14.3" font-family="Times,serif" font-size="14.00">स्पर्शन&#45;(1.2)</text>
</g>
<!-- Node1_2&#45;&gt;Node1_3 -->
<g id="edge2" class="edge">
<title>Node1_2&#45;&gt;Node1_3</title>
<path fill="none" stroke="black" d="M150.63,-45.56C147.24,-53.43 143.04,-61.85 138.15,-69 133.39,-75.95 127.15,-82.71 121.25,-88.4"/>
<polygon fill="black" stroke="black" points="153.98,-46.6 154.46,-36.02 147.48,-43.99 153.98,-46.6"/>
<text text-anchor="middle" x="175.15" y="-57.8" font-family="Times,serif" font-size="14.00">इतरेतर&#45;द्वन्द्वः</text>
</g>
<!-- Node3_1 -->
<g id="node5" class="node">
<title>Node3_1</title>
<ellipse fill="#ff99ff" stroke="#ff99ff" cx="199.15" cy="-105" rx="33.6" ry="18"/>
<text text-anchor="middle" x="199.15" y="-101.3" font-family="Times,serif" font-size="14.00">च(3.1)</text>
</g>
<!-- Node3_1&#45;&gt;Node2_1 -->
<g id="edge4" class="edge">
<title>Node3_1&#45;&gt;Node2_1</title>
<path fill="none" stroke="black" d="M199.15,-133.27C199.15,-146.58 199.15,-162.19 199.15,-173.82"/>
<polygon fill="black" stroke="black" points="202.65,-133.2 199.15,-123.2 195.65,-133.2 202.65,-133.2"/>
<text text-anchor="middle" x="217.65" y="-144.8" font-family="Times,serif" font-size="14.00">सम्बन्धः</text>
</g>
<!-- Node4_1 -->
<g id="node6" class="node">
<title>Node4_1</title>
<ellipse fill="#93db70" stroke="#93db70" cx="303.15" cy="-105" rx="51.99" ry="18"/>
<text text-anchor="middle" x="303.15" y="-101.3" font-family="Times,serif" font-size="14.00">रोगिणम्(4.1)</text>
</g>
<!-- Node4_1&#45;&gt;Node2_1 -->
<g id="edge5" class="edge">
<title>Node4_1&#45;&gt;Node2_1</title>
<path fill="none" stroke="black" d="M275.73,-128.41C257.77,-143.09 234.72,-161.93 218.62,-175.08"/>
<polygon fill="black" stroke="black" points="278.06,-131.03 283.58,-121.99 273.63,-125.61 278.06,-131.03"/>
<text text-anchor="middle" x="266.15" y="-144.8" font-family="Times,serif" font-size="14.00">कर्म</text>
</g>
</g>
</svg>
