<svg width="704pt" height="597pt"
 viewBox="0.00 0.00 703.50 597.00" xmlns="http://www.w3.org/2000/svg" xmlns:xlink="http://www.w3.org/1999/xlink">
<g id="graph0" class="graph" transform="scale(1 1) rotate(0) translate(4 593)">
<title>G</title>
<polygon fill="#fffacd" stroke="transparent" points="-4,4 -4,-593 699.5,-593 699.5,4 -4,4"/>
<!-- Node3_2 -->
<style>
 .hidden { display: none; }
 .node { cursor: pointer; }
 </style>
<script>
     function toggleChildren(id) {
      const children = document.getElementById(id);
      if (children.classList.contains('hidden')) {
        children.classList.remove('hidden');
      } else {
        children.classList.add('hidden');
      }
    }
</script>
<g id="children_node0_65440" class="hidden">
    <g class="node" onclick="toggleChildren('children_node0_65440');">
</g>
</g>
<g id="children_node1_65440" class="hidden">
    <g class="node" onclick="toggleChildren('children_node1_65440');">

<g id="node1" class="node">
<title>Node3_2</title>
<polygon fill="#ffff00" stroke="#ffff00" points="123.5,-36 69.5,-36 69.5,0 123.5,0 123.5,-36"/>
<text text-anchor="middle" x="96.5" y="-14.3" font-family="Times,serif" font-size="14.00">अर्थ&#45;</text>
</g>
<!-- Node3_3 -->
<g id="node2" class="node">
<title>Node3_3</title>
<polygon fill="#ffff00" stroke="#ffff00" points="213.5,-36 159.5,-36 159.5,0 213.5,0 213.5,-36"/>
<text text-anchor="middle" x="186.5" y="-14.3" font-family="Times,serif" font-size="14.00">सुख&#45;</text>
</g>
<!-- Node3_2&#45;&gt;Node3_3 -->
<!-- Node3_3_1 -->
<g id="node3" class="node">
<title>Node3_3_1</title>
<polygon fill="#ffff00" stroke="#ffff00" points="204.5,-109 94.5,-109 94.5,-73 204.5,-73 204.5,-109"/>
<text text-anchor="middle" x="149.5" y="-87.3" font-family="Times,serif" font-size="14.00">&lt;अर्थ&#45;सुख&#45;&gt;(द्वन्द्वः)</text>
</g>
<!-- Node3_2&#45;&gt;Node3_3_1 -->
<g id="edge2" class="edge">
<title>Node3_2&#45;&gt;Node3_3_1</title>
<path fill="none" stroke="black" d="M115.32,-44.21C122.44,-53.74 130.36,-64.36 136.79,-72.97"/>
<polygon fill="black" stroke="black" points="118.12,-42.11 109.33,-36.19 112.51,-46.29 118.12,-42.11"/>
</g>
<!-- Node3_3&#45;&gt;Node3_3_1 -->
<g id="edge1" class="edge">
<title>Node3_3&#45;&gt;Node3_3_1</title>
<path fill="none" stroke="black" d="M172.91,-45.08C168.06,-54.39 162.72,-64.62 158.37,-72.97"/>
<polygon fill="black" stroke="black" points="176.03,-46.67 177.54,-36.19 169.82,-43.44 176.03,-46.67"/>
</g>
<!-- Node3_3_2 -->
<g id="node5" class="node">
<title>Node3_3_2</title>
<polygon fill="#ffff00" stroke="#ffff00" points="179,-182 0,-182 0,-146 179,-146 179,-182"/>
<text text-anchor="middle" x="89.5" y="-160.3" font-family="Times,serif" font-size="14.00">&lt;धर्म&#45;&lt;अर्थ&#45;सुख&#45;&gt;(द्वन्द्वः)&gt;(द्वन्द्वः)</text>
</g>
<!-- Node3_3_1&#45;&gt;Node3_3_2 -->
<g id="edge4" class="edge">
<title>Node3_3_1&#45;&gt;Node3_3_2</title>
<path fill="none" stroke="black" d="M128.44,-116.92C120.32,-126.53 111.24,-137.27 103.89,-145.97"/>
<polygon fill="black" stroke="black" points="131.19,-119.08 134.98,-109.19 125.85,-114.57 131.19,-119.08"/>
</g>
<!-- Node3_1 -->
<g id="node4" class="node">
<title>Node3_1</title>
<polygon fill="#ffff00" stroke="#ffff00" points="58.5,-109 4.5,-109 4.5,-73 58.5,-73 58.5,-109"/>
<text text-anchor="middle" x="31.5" y="-87.3" font-family="Times,serif" font-size="14.00">धर्म&#45;</text>
</g>
<!-- Node3_1&#45;&gt;Node3_3_1 -->
<!-- Node3_1&#45;&gt;Node3_3_2 -->
<g id="edge5" class="edge">
<title>Node3_1&#45;&gt;Node3_3_2</title>
<path fill="none" stroke="black" d="M52.09,-117.21C59.88,-126.74 68.56,-137.36 75.59,-145.97"/>
<polygon fill="black" stroke="black" points="54.58,-114.72 45.54,-109.19 49.16,-119.15 54.58,-114.72"/>
</g>
<!-- Node3_4 -->
<g id="node6" class="node">
<title>Node3_4</title>
<polygon fill="#ffff00" stroke="#ffff00" points="268.5,-182 214.5,-182 214.5,-146 268.5,-146 268.5,-182"/>
<text text-anchor="middle" x="241.5" y="-160.3" font-family="Times,serif" font-size="14.00">साधनम्</text>
</g>
<!-- Node3_3_2&#45;&gt;Node3_4 -->
<!-- Node3_4_3 -->
<g id="node7" class="node">
<title>Node3_4_3</title>
<polygon fill="#ffff00" stroke="#ffff00" points="314.5,-255 14.5,-255 14.5,-219 314.5,-219 314.5,-255"/>
<text text-anchor="middle" x="164.5" y="-233.3" font-family="Times,serif" font-size="14.00">&lt;&lt;धर्म&#45;&lt;अर्थ&#45;सुख&#45;&gt;(द्वन्द्वः)&gt;(द्वन्द्वः)साधनम्&gt;(षष्ठी&#45;तत्पुरुषः)</text>
</g>
<!-- Node3_3_2&#45;&gt;Node3_4_3 -->
<g id="edge8" class="edge">
<title>Node3_3_2&#45;&gt;Node3_4_3</title>
<path fill="none" stroke="black" d="M115.22,-189.35C125.52,-199.1 137.14,-210.1 146.51,-218.97"/>
<polygon fill="black" stroke="black" points="117.32,-186.52 107.66,-182.19 112.51,-191.6 117.32,-186.52"/>
</g>
<!-- Node3_4&#45;&gt;Node3_4_3 -->
<g id="edge7" class="edge">
<title>Node3_4&#45;&gt;Node3_4_3</title>
<path fill="none" stroke="black" d="M215.41,-189.06C204.75,-198.88 192.68,-210.01 182.97,-218.97"/>
<polygon fill="black" stroke="black" points="217.88,-191.54 222.86,-182.19 213.14,-186.39 217.88,-191.54"/>
</g>
<!-- Node3_4_3&#45;&gt;Node3_4_3c -->
<g id="edge10" class="edge">
<title>Node3_4_3&#45;&gt;Node3_4_3c</title>
<path fill="none" stroke="black" d="M166.8,-265.25C167.56,-274.23 168.38,-283.97 169.06,-291.97"/>
<polygon fill="black" stroke="black" points="170.28,-264.86 165.95,-255.19 163.31,-265.45 170.28,-264.86"/>
</g>
</g>
</g>
<!-- Node3_4_3c -->
<g class="node8" onclick="toggleChildren('children_node1_65440');">
<title>Node3_4_3c</title>
<polygon fill="#93db70" stroke="#93db70" points="238,-328 103,-328 103,-292 238,-292 238,-328"/>
<text text-anchor="middle" x="170.5" y="-306.3" font-family="Times,serif" font-size="14.00">धर्म&#45;अर्थ&#45;सुख&#45;साधनम्(3)</text>
</g>
<g id="children_node2_65440" class="hidden">
    <g class="node" onclick="toggleChildren('children_node2_65440');">
<!-- Node4_1 -->
<g id="node9" class="node">
<title>Node4_1</title>
<polygon fill="#ffff00" stroke="#ffff00" points="386.5,-255 332.5,-255 332.5,-219 386.5,-219 386.5,-255"/>
<text text-anchor="middle" x="359.5" y="-233.3" font-family="Times,serif" font-size="14.00">आयुः&#45;</text>
</g>
<!-- Node4_2 -->
<g id="node10" class="node">
<title>Node4_2</title>
<polygon fill="#ffff00" stroke="#ffff00" points="476.5,-255 422.5,-255 422.5,-219 476.5,-219 476.5,-255"/>
<text text-anchor="middle" x="449.5" y="-233.3" font-family="Times,serif" font-size="14.00">वेद&#45;</text>
</g>
<!-- Node4_1&#45;&gt;Node4_2 -->
<!-- Node4_2_1 -->
<g id="node11" class="node">
<title>Node4_2_1</title>
<polygon fill="#ffff00" stroke="#ffff00" points="435.5,-328 283.5,-328 283.5,-292 435.5,-292 435.5,-328"/>
<text text-anchor="middle" x="359.5" y="-306.3" font-family="Times,serif" font-size="14.00">&lt;आयुः&#45;वेद&#45;&gt;(षष्ठी&#45;तत्पुरुषः)</text>
</g>
<!-- Node4_1&#45;&gt;Node4_2_1 -->
<g id="edge13" class="edge">
<title>Node4_1&#45;&gt;Node4_2_1</title>
<path fill="none" stroke="black" d="M359.5,-265.25C359.5,-274.23 359.5,-283.97 359.5,-291.97"/>
<polygon fill="black" stroke="black" points="363,-265.19 359.5,-255.19 356,-265.19 363,-265.19"/>
</g>
<!-- Node4_2&#45;&gt;Node4_2_1 -->
<g id="edge12" class="edge">
<title>Node4_2&#45;&gt;Node4_2_1</title>
<path fill="none" stroke="black" d="M419.73,-261.49C407.1,-271.45 392.66,-282.84 381.09,-291.97"/>
<polygon fill="black" stroke="black" points="422.03,-264.13 427.71,-255.19 417.69,-258.63 422.03,-264.13"/>
</g>
<!-- Node4_3 -->
<g id="node12" class="node">
<title>Node4_3</title>
<polygon fill="#ffff00" stroke="#ffff00" points="526,-328 471,-328 471,-292 526,-292 526,-328"/>
<text text-anchor="middle" x="498.5" y="-306.3" font-family="Times,serif" font-size="14.00">उपदेशेषु</text>
</g>
<!-- Node4_2_1&#45;&gt;Node4_3 -->
<!-- Node4_3_2 -->
<g id="node13" class="node">
<title>Node4_3_2</title>
<polygon fill="#ffff00" stroke="#ffff00" points="497.5,-415 221.5,-415 221.5,-379 497.5,-379 497.5,-415"/>
<text text-anchor="middle" x="359.5" y="-393.3" font-family="Times,serif" font-size="14.00">&lt;&lt;आयुः&#45;वेद&#45;&gt;(षष्ठी&#45;तत्पुरुषः)उपदेशेषु&gt;(षष्ठी&#45;तत्पुरुषः)</text>
</g>
<!-- Node4_2_1&#45;&gt;Node4_3_2 -->
<g id="edge16" class="edge">
<title>Node4_2_1&#45;&gt;Node4_3_2</title>
<path fill="none" stroke="black" d="M359.5,-338.27C359.5,-351.58 359.5,-367.19 359.5,-378.82"/>
<polygon fill="black" stroke="black" points="363,-338.2 359.5,-328.2 356,-338.2 363,-338.2"/>
</g>
<!-- Node4_3&#45;&gt;Node4_3_2 -->
<g id="edge15" class="edge">
<title>Node4_3&#45;&gt;Node4_3_2</title>
<path fill="none" stroke="black" d="M462.14,-333.23C438.9,-347.45 409.19,-365.61 387.72,-378.74"/>
<polygon fill="black" stroke="black" points="464,-336.2 470.71,-328 460.35,-330.23 464,-336.2"/>
</g>
<!-- Node4_3_2&#45;&gt;Node4_3_2c -->
<g id="edge18" class="edge">
<title>Node4_3_2&#45;&gt;Node4_3_2c</title>
<path fill="none" stroke="black" d="M359.5,-425.27C359.5,-438.58 359.5,-454.19 359.5,-465.82"/>
<polygon fill="black" stroke="black" points="363,-425.2 359.5,-415.2 356,-425.2 363,-425.2"/>
</g>
</g>
</g>
<!-- Node4_3_2c -->
<g class="node14" onclick="toggleChildren('children_node2_65440');">
<title>Node4_3_2c</title>
<polygon fill="#c6e2eb" stroke="#c6e2eb" points="419,-502 300,-502 300,-466 419,-466 419,-502"/>
<text text-anchor="middle" x="359.5" y="-480.3" font-family="Times,serif" font-size="14.00">आयुः&#45;वेद&#45;उपदेशेषु(4)</text>
</g>
<g id="children_node3_65440" class="hidden">
    <g class="node" onclick="toggleChildren('children_node3_65440');">
<!-- Node6_1 -->
<g id="node15" class="node">
<title>Node6_1</title>
<polygon fill="#ffff00" stroke="#ffff00" points="605.5,-328 551.5,-328 551.5,-292 605.5,-292 605.5,-328"/>
<text text-anchor="middle" x="578.5" y="-306.3" font-family="Times,serif" font-size="14.00">परम&#45;</text>
</g>
<!-- Node6_2 -->
<g id="node16" class="node">
<title>Node6_2</title>
<polygon fill="#ffff00" stroke="#ffff00" points="695.5,-328 641.5,-328 641.5,-292 695.5,-292 695.5,-328"/>
<text text-anchor="middle" x="668.5" y="-306.3" font-family="Times,serif" font-size="14.00">आदरः</text>
</g>
<!-- Node6_1&#45;&gt;Node6_2 -->
<!-- Node6_2_1 -->
<g id="node17" class="node">
<title>Node6_2_1</title>
<polygon fill="#ffff00" stroke="#ffff00" points="657,-415 516,-415 516,-379 657,-379 657,-415"/>
<text text-anchor="middle" x="586.5" y="-393.3" font-family="Times,serif" font-size="14.00">&lt;परम&#45;आदरः&gt;(कर्मधारयः)</text>
</g>
<!-- Node6_1&#45;&gt;Node6_2_1 -->
<g id="edge21" class="edge">
<title>Node6_1&#45;&gt;Node6_2_1</title>
<path fill="none" stroke="black" d="M581.07,-338.27C582.32,-351.58 583.79,-367.19 584.88,-378.82"/>
<polygon fill="black" stroke="black" points="584.54,-337.83 580.12,-328.2 577.57,-338.49 584.54,-337.83"/>
</g>
<!-- Node6_2&#45;&gt;Node6_2_1 -->
<g id="edge20" class="edge">
<title>Node6_2&#45;&gt;Node6_2_1</title>
<path fill="none" stroke="black" d="M644.83,-335.53C631.46,-349.4 615.07,-366.39 603.07,-378.82"/>
<polygon fill="black" stroke="black" points="647.48,-337.83 651.91,-328.2 642.44,-332.97 647.48,-337.83"/>
</g>
<!-- Node6_2_1&#45;&gt;Node6_2_1c -->
<g id="edge23" class="edge">
<title>Node6_2_1&#45;&gt;Node6_2_1c</title>
<path fill="none" stroke="black" d="M570.18,-423.7C561.51,-437.34 551.09,-453.73 543.41,-465.82"/>
<polygon fill="black" stroke="black" points="573.16,-425.52 575.57,-415.2 567.26,-421.76 573.16,-425.52"/>
</g>
</g>
</g>
<!-- Node6_2_1c -->
<g class="node18" onclick="toggleChildren('children_node3_65440');">
<title>Node6_2_1c</title>
<polygon fill="#00bfff" stroke="#00bfff" points="575,-502 490,-502 490,-466 575,-466 575,-502"/>
<text text-anchor="middle" x="532.5" y="-480.3" font-family="Times,serif" font-size="14.00">परम&#45;आदरः(6)</text>
</g>
<!-- Node1_1 -->
<g id="node19" class="node">
<title>Node1_1</title>
<polygon fill="#93db70" stroke="#93db70" points="202.5,-415 144.5,-415 144.5,-379 202.5,-379 202.5,-415"/>
<text text-anchor="middle" x="173.5" y="-393.3" font-family="Times,serif" font-size="14.00">आयुः(1)</text>
</g>
<!-- Node3_4_3c&#45;&gt;Node1_1 -->
<g id="edge11" class="edge">
<title>Node3_4_3c&#45;&gt;Node1_1</title>
<path fill="none" stroke="black" d="M171.46,-338.27C171.93,-351.58 172.48,-367.19 172.89,-378.82"/>
<polygon fill="black" stroke="black" points="174.96,-338.07 171.11,-328.2 167.96,-338.32 174.96,-338.07"/>
<text text-anchor="middle" x="195" y="-349.8" font-family="Times,serif" font-size="14.00">विशेषणम्</text>
</g>
<!-- Node5_1 -->
<g id="node21" class="node">
<title>Node5_1</title>
<polygon fill="#00bfff" stroke="#00bfff" points="392,-589 327,-589 327,-553 392,-553 392,-589"/>
<text text-anchor="middle" x="359.5" y="-567.3" font-family="Times,serif" font-size="14.00">विधेयः(5)</text>
</g>
<!-- Node4_3_2c&#45;&gt;Node5_1 -->
<g id="edge19" class="edge">
<title>Node4_3_2c&#45;&gt;Node5_1</title>
<path fill="none" stroke="black" d="M359.5,-512.27C359.5,-525.58 359.5,-541.19 359.5,-552.82"/>
<polygon fill="black" stroke="black" points="363,-512.2 359.5,-502.2 356,-512.2 363,-512.2"/>
<text text-anchor="middle" x="387" y="-523.8" font-family="Times,serif" font-size="14.00">अधिकरणम्</text>
</g>
<!-- Node6_2_1c&#45;&gt;Node5_1 -->
<g id="edge24" class="edge">
<title>Node6_2_1c&#45;&gt;Node5_1</title>
<path fill="none" stroke="black" d="M488.49,-506.62C458.47,-521.37 419.36,-540.59 392.12,-553.97"/>
<polygon fill="black" stroke="black" points="490.06,-509.75 497.49,-502.2 486.97,-503.47 490.06,-509.75"/>
<text text-anchor="middle" x="464.5" y="-523.8" font-family="Times,serif" font-size="14.00">कर्म</text>
</g>
<!-- Node2_1 -->
<g id="node20" class="node">
<title>Node2_1</title>
<polygon fill="#40e0d0" stroke="#40e0d0" points="265.5,-502 179.5,-502 179.5,-466 265.5,-466 265.5,-502"/>
<text text-anchor="middle" x="222.5" y="-480.3" font-family="Times,serif" font-size="14.00">कामयमानेन(2)</text>
</g>
<!-- Node1_1&#45;&gt;Node2_1 -->
<g id="edge25" class="edge">
<title>Node1_1&#45;&gt;Node2_1</title>
<path fill="none" stroke="black" d="M188.54,-424.09C196.36,-437.65 205.7,-453.85 212.6,-465.82"/>
<polygon fill="black" stroke="black" points="191.44,-422.12 183.42,-415.2 185.38,-425.61 191.44,-422.12"/>
<text text-anchor="middle" x="209.5" y="-436.8" font-family="Times,serif" font-size="14.00">कर्म</text>
</g>
<!-- Node2_1&#45;&gt;Node5_1 -->
<g id="edge26" class="edge">
<title>Node2_1&#45;&gt;Node5_1</title>
<path fill="none" stroke="black" d="M258.97,-507.63C281.84,-521.81 310.84,-539.81 331.82,-552.82"/>
<polygon fill="black" stroke="black" points="260.57,-504.5 250.22,-502.2 256.88,-510.45 260.57,-504.5"/>
<text text-anchor="middle" x="309.5" y="-523.8" font-family="Times,serif" font-size="14.00">कर्ता</text>
</g>
</g>
</svg>
