<svg width="859pt" height="392pt"
 viewBox="0.00 0.00 858.50 392.00" xmlns="http://www.w3.org/2000/svg" xmlns:xlink="http://www.w3.org/1999/xlink">
<g id="graph0" class="graph" transform="scale(1 1) rotate(0) translate(4 388)">
<title>G</title>
<polygon fill="#fffacd" stroke="transparent" points="-4,4 -4,-388 854.5,-388 854.5,4 -4,4"/>
<!-- Node10_1 -->
<style>
 .hidden { display: none; }
 .node { cursor: pointer; }
 </style>
<script>
     function toggleChildren(id) {
      const children = document.getElementById(id);
      if (children.classList.contains('hidden')) {
        children.classList.remove('hidden');
      } else {
        children.classList.add('hidden');
      }
    }
</script>
<g id="children_node0_56406" class="hidden">
    <g class="node" onclick="toggleChildren('children_node0_56406');">
</g>
</g>
<g id="children_node1_56406" class="hidden">
    <g class="node" onclick="toggleChildren('children_node1_56406');">

<g id="node1" class="node">
<title>Node10_1</title>
<polygon fill="#ffff00" stroke="#ffff00" points="54,-36 0,-36 0,0 54,0 54,-36"/>
<text text-anchor="middle" x="27" y="-14.3" font-family="Times,serif" font-size="14.00">सप्त&#45;</text>
</g>
<!-- Node10_2 -->
<g id="node2" class="node">
<title>Node10_2</title>
<polygon fill="#ffff00" stroke="#ffff00" points="144,-36 90,-36 90,0 144,0 144,-36"/>
<text text-anchor="middle" x="117" y="-14.3" font-family="Times,serif" font-size="14.00">रात्रे</text>
</g>
<!-- Node10_1&#45;&gt;Node10_2 -->
<!-- Node10_2_1 -->
<g id="node3" class="node">
<title>Node10_2_1</title>
<polygon fill="#ffff00" stroke="#ffff00" points="165.5,-123 22.5,-123 22.5,-87 165.5,-87 165.5,-123"/>
<text text-anchor="middle" x="94" y="-101.3" font-family="Times,serif" font-size="14.00">&lt;सप्त&#45;रात्रे&gt;(समाहार&#45;द्विगुः)</text>
</g>
<!-- Node10_1&#45;&gt;Node10_2_1 -->
<g id="edge2" class="edge">
<title>Node10_1&#45;&gt;Node10_2_1</title>
<path fill="none" stroke="black" d="M46.95,-44.31C57.76,-58.02 70.84,-74.62 80.46,-86.82"/>
<polygon fill="black" stroke="black" points="49.5,-41.89 40.56,-36.2 44,-46.22 49.5,-41.89"/>
</g>
<!-- Node10_2&#45;&gt;Node10_2_1 -->
<g id="edge1" class="edge">
<title>Node10_2&#45;&gt;Node10_2_1</title>
<path fill="none" stroke="black" d="M109.73,-45.87C106.1,-59.27 101.83,-75.08 98.65,-86.82"/>
<polygon fill="black" stroke="black" points="113.11,-46.77 112.35,-36.2 106.36,-44.94 113.11,-46.77"/>
</g>
<!-- Node10_2_1&#45;&gt;Node10_2_1c -->
<g id="edge4" class="edge">
<title>Node10_2_1&#45;&gt;Node10_2_1c</title>
<path fill="none" stroke="black" d="M94,-133.27C94,-146.58 94,-162.19 94,-173.82"/>
<polygon fill="black" stroke="black" points="97.5,-133.2 94,-123.2 90.5,-133.2 97.5,-133.2"/>
</g>
</g>
</g>
<!-- Node10_2_1c -->
<g class="node4" onclick="toggleChildren('children_node1_56406');">
<title>Node10_2_1c</title>
<polygon fill="#c6e2eb" stroke="#c6e2eb" points="133.5,-210 54.5,-210 54.5,-174 133.5,-174 133.5,-210"/>
<text text-anchor="middle" x="94" y="-188.3" font-family="Times,serif" font-size="14.00">सप्त&#45;रात्रे(10)</text>
</g>
<g id="children_node2_56406" class="hidden">
    <g class="node" onclick="toggleChildren('children_node2_56406');">
<!-- Node13_1 -->
<g id="node5" class="node">
<title>Node13_1</title>
<polygon fill="#ffff00" stroke="#ffff00" points="239,-123 185,-123 185,-87 239,-87 239,-123"/>
<text text-anchor="middle" x="212" y="-101.3" font-family="Times,serif" font-size="14.00">स्रावण&#45;</text>
</g>
<!-- Node13_2 -->
<g id="node6" class="node">
<title>Node13_2</title>
<polygon fill="#ffff00" stroke="#ffff00" points="329,-123 275,-123 275,-87 329,-87 329,-123"/>
<text text-anchor="middle" x="302" y="-101.3" font-family="Times,serif" font-size="14.00">अर्थम्</text>
</g>
<!-- Node13_1&#45;&gt;Node13_2 -->
<!-- Node13_2_1 -->
<g id="node7" class="node">
<title>Node13_2_1</title>
<polygon fill="#ffff00" stroke="#ffff00" points="326.5,-210 151.5,-210 151.5,-174 326.5,-174 326.5,-210"/>
<text text-anchor="middle" x="239" y="-188.3" font-family="Times,serif" font-size="14.00">&lt;स्रावण&#45;अर्थम्&gt;(चतुर्थी&#45;तत्पुरुषः)</text>
</g>
<!-- Node13_1&#45;&gt;Node13_2_1 -->
<g id="edge7" class="edge">
<title>Node13_1&#45;&gt;Node13_2_1</title>
<path fill="none" stroke="black" d="M220.54,-132.87C224.79,-146.27 229.81,-162.08 233.54,-173.82"/>
<polygon fill="black" stroke="black" points="223.83,-131.67 217.46,-123.2 217.16,-133.79 223.83,-131.67"/>
</g>
<!-- Node13_2&#45;&gt;Node13_2_1 -->
<g id="edge6" class="edge">
<title>Node13_2&#45;&gt;Node13_2_1</title>
<path fill="none" stroke="black" d="M283.24,-131.31C273.08,-145.02 260.78,-161.62 251.73,-173.82"/>
<polygon fill="black" stroke="black" points="286.11,-133.32 289.25,-123.2 280.48,-129.15 286.11,-133.32"/>
</g>
<!-- Node13_2_1&#45;&gt;Node13_2_1c -->
<g id="edge9" class="edge">
<title>Node13_2_1&#45;&gt;Node13_2_1c</title>
<path fill="none" stroke="black" d="M239,-220.27C239,-233.58 239,-249.19 239,-260.82"/>
<polygon fill="black" stroke="black" points="242.5,-220.2 239,-210.2 235.5,-220.2 242.5,-220.2"/>
</g>
</g>
</g>
<!-- Node13_2_1c -->
<g class="node8" onclick="toggleChildren('children_node2_56406');">
<title>Node13_2_1c</title>
<polygon fill="#93db70" stroke="#93db70" points="289.5,-297 188.5,-297 188.5,-261 289.5,-261 289.5,-297"/>
<text text-anchor="middle" x="239" y="-275.3" font-family="Times,serif" font-size="14.00">स्रावण&#45;अर्थम्(13)</text>
</g>
<g id="children_node3_56406" class="hidden">
    <g class="node" onclick="toggleChildren('children_node3_56406');">
<!-- Node14_1 -->
<g id="node9" class="node">
<title>Node14_1</title>
<polygon fill="#ffff00" stroke="#ffff00" points="402,-123 348,-123 348,-87 402,-87 402,-123"/>
<text text-anchor="middle" x="375" y="-101.3" font-family="Times,serif" font-size="14.00">रस&#45;</text>
</g>
<!-- Node14_2 -->
<g id="node10" class="node">
<title>Node14_2</title>
<polygon fill="#ffff00" stroke="#ffff00" points="492,-123 438,-123 438,-87 492,-87 492,-123"/>
<text text-anchor="middle" x="465" y="-101.3" font-family="Times,serif" font-size="14.00">अञ्जनम्</text>
</g>
<!-- Node14_1&#45;&gt;Node14_2 -->
<!-- Node14_2_1 -->
<g id="node11" class="node">
<title>Node14_2_1</title>
<polygon fill="#ffff00" stroke="#ffff00" points="485,-210 345,-210 345,-174 485,-174 485,-210"/>
<text text-anchor="middle" x="415" y="-188.3" font-family="Times,serif" font-size="14.00">&lt;रस&#45;अञ्जनम्&gt;(कर्मधारयः)</text>
</g>
<!-- Node14_1&#45;&gt;Node14_2_1 -->
<g id="edge12" class="edge">
<title>Node14_1&#45;&gt;Node14_2_1</title>
<path fill="none" stroke="black" d="M387.46,-132.48C393.81,-145.96 401.34,-161.96 406.92,-173.82"/>
<polygon fill="black" stroke="black" points="390.52,-130.76 383.09,-123.2 384.19,-133.74 390.52,-130.76"/>
</g>
<!-- Node14_2&#45;&gt;Node14_2_1 -->
<g id="edge11" class="edge">
<title>Node14_2&#45;&gt;Node14_2_1</title>
<path fill="none" stroke="black" d="M449.66,-132.09C441.68,-145.65 432.15,-161.85 425.1,-173.82"/>
<polygon fill="black" stroke="black" points="452.83,-133.59 454.88,-123.2 446.79,-130.05 452.83,-133.59"/>
</g>
<!-- Node14_2_1&#45;&gt;Node14_2_1c -->
<g id="edge14" class="edge">
<title>Node14_2_1&#45;&gt;Node14_2_1c</title>
<path fill="none" stroke="black" d="M396.54,-218.31C386.53,-232.02 374.43,-248.62 365.53,-260.82"/>
<polygon fill="black" stroke="black" points="399.39,-220.34 402.45,-210.2 393.73,-216.22 399.39,-220.34"/>
</g>
</g>
</g>
<!-- Node14_2_1c -->
<g class="node12" onclick="toggleChildren('children_node3_56406');">
<title>Node14_2_1c</title>
<polygon fill="#93db70" stroke="#93db70" points="398,-297 308,-297 308,-261 398,-261 398,-297"/>
<text text-anchor="middle" x="353" y="-275.3" font-family="Times,serif" font-size="14.00">रस&#45;अञ्जनम्(14)</text>
</g>
<!-- Node11_1 -->
<g id="node22" class="node">
<title>Node11_1</title>
<polygon fill="#c6e2eb" stroke="#c6e2eb" points="142,-297 74,-297 74,-261 142,-261 142,-297"/>
<text text-anchor="middle" x="108" y="-275.3" font-family="Times,serif" font-size="14.00">(सति)(11)</text>
</g>
<!-- Node10_2_1c&#45;&gt;Node11_1 -->
<g id="edge5" class="edge">
<title>Node10_2_1c&#45;&gt;Node11_1</title>
<path fill="none" stroke="black" d="M98.49,-220.27C100.68,-233.58 103.26,-249.19 105.17,-260.82"/>
<polygon fill="black" stroke="black" points="101.91,-219.5 96.83,-210.2 95,-220.64 101.91,-219.5"/>
<text text-anchor="middle" x="113" y="-231.8" font-family="Times,serif" font-size="14.00">कर्ता</text>
</g>
<!-- Node9_1 -->
<g id="node21" class="node">
<title>Node9_1</title>
<polygon fill="#ff1975" stroke="#ff1975" points="350.5,-384 281.5,-384 281.5,-348 350.5,-348 350.5,-384"/>
<text text-anchor="middle" x="316" y="-362.3" font-family="Times,serif" font-size="14.00">योजयेत्(9)</text>
</g>
<!-- Node13_2_1c&#45;&gt;Node9_1 -->
<g id="edge10" class="edge">
<title>Node13_2_1c&#45;&gt;Node9_1</title>
<path fill="none" stroke="black" d="M261.57,-304.92C274.07,-318.71 289.28,-335.5 300.44,-347.82"/>
<polygon fill="black" stroke="black" points="263.89,-302.26 254.58,-297.2 258.7,-306.96 263.89,-302.26"/>
<text text-anchor="middle" x="305" y="-318.8" font-family="Times,serif" font-size="14.00">प्रयोजनम्</text>
</g>
<!-- Node14_2_1c&#45;&gt;Node9_1 -->
<g id="edge15" class="edge">
<title>Node14_2_1c&#45;&gt;Node9_1</title>
<path fill="none" stroke="black" d="M341.47,-306.48C335.61,-319.96 328.64,-335.96 323.48,-347.82"/>
<polygon fill="black" stroke="black" points="344.73,-307.77 345.51,-297.2 338.31,-304.97 344.73,-307.77"/>
<text text-anchor="middle" x="346" y="-318.8" font-family="Times,serif" font-size="14.00">कर्म</text>
</g>
<!-- Node1_1 -->
<g id="node13" class="node">
<title>Node1_1</title>
<polygon fill="#00bfff" stroke="#00bfff" points="566,-123 510,-123 510,-87 566,-87 566,-123"/>
<text text-anchor="middle" x="538" y="-101.3" font-family="Times,serif" font-size="14.00">चक्षुः(1)</text>
</g>
<!-- Node3_1 -->
<g id="node14" class="node">
<title>Node3_1</title>
<polygon fill="#ff1975" stroke="#ff1975" points="572,-210 504,-210 504,-174 572,-174 572,-210"/>
<text text-anchor="middle" x="538" y="-188.3" font-family="Times,serif" font-size="14.00">(अस्ति)(3)</text>
</g>
<!-- Node1_1&#45;&gt;Node3_1 -->
<g id="edge16" class="edge">
<title>Node1_1&#45;&gt;Node3_1</title>
<path fill="none" stroke="black" d="M538,-133.27C538,-146.58 538,-162.19 538,-173.82"/>
<polygon fill="black" stroke="black" points="541.5,-133.2 538,-123.2 534.5,-133.2 541.5,-133.2"/>
<text text-anchor="middle" x="549" y="-144.8" font-family="Times,serif" font-size="14.00">कर्ता</text>
</g>
<!-- Node2_1 -->
<g id="node15" class="node">
<title>Node2_1</title>
<polygon fill="#00bfff" stroke="#00bfff" points="576,-36 500,-36 500,0 576,0 576,-36"/>
<text text-anchor="middle" x="538" y="-14.3" font-family="Times,serif" font-size="14.00">तेजोमयम्(2)</text>
</g>
<!-- Node2_1&#45;&gt;Node1_1 -->
<g id="edge17" class="edge">
<title>Node2_1&#45;&gt;Node1_1</title>
<path fill="none" stroke="black" d="M538,-46.27C538,-59.58 538,-75.19 538,-86.82"/>
<polygon fill="black" stroke="black" points="541.5,-46.2 538,-36.2 534.5,-46.2 541.5,-46.2"/>
<text text-anchor="middle" x="579" y="-57.8" font-family="Times,serif" font-size="14.00">विधेय_विशेषणम्</text>
</g>
<!-- Node4_1 -->
<g id="node16" class="node">
<title>Node4_1</title>
<polygon fill="#87ceeb" stroke="#87ceeb" points="670,-36 616,-36 616,0 670,0 670,-36"/>
<text text-anchor="middle" x="643" y="-14.3" font-family="Times,serif" font-size="14.00">तस्य(4)</text>
</g>
<!-- Node7_1 -->
<g id="node17" class="node">
<title>Node7_1</title>
<polygon fill="#00bfff" stroke="#00bfff" points="671,-123 615,-123 615,-87 671,-87 671,-123"/>
<text text-anchor="middle" x="643" y="-101.3" font-family="Times,serif" font-size="14.00">भयम्(7)</text>
</g>
<!-- Node4_1&#45;&gt;Node7_1 -->
<g id="edge18" class="edge">
<title>Node4_1&#45;&gt;Node7_1</title>
<path fill="none" stroke="black" d="M643,-46.27C643,-59.58 643,-75.19 643,-86.82"/>
<polygon fill="black" stroke="black" points="646.5,-46.2 643,-36.2 639.5,-46.2 646.5,-46.2"/>
<text text-anchor="middle" x="671" y="-57.8" font-family="Times,serif" font-size="14.00">षष्ठीसम्बन्धः</text>
</g>
<!-- Node8_1 -->
<g id="node19" class="node">
<title>Node8_1</title>
<polygon fill="#ff1975" stroke="#ff1975" points="759,-210 691,-210 691,-174 759,-174 759,-210"/>
<text text-anchor="middle" x="725" y="-188.3" font-family="Times,serif" font-size="14.00">(अस्ति)(8)</text>
</g>
<!-- Node7_1&#45;&gt;Node8_1 -->
<g id="edge21" class="edge">
<title>Node7_1&#45;&gt;Node8_1</title>
<path fill="none" stroke="black" d="M666.67,-130.53C680.04,-144.4 696.43,-161.39 708.43,-173.82"/>
<polygon fill="black" stroke="black" points="669.06,-127.97 659.59,-123.2 664.02,-132.83 669.06,-127.97"/>
<text text-anchor="middle" x="700" y="-144.8" font-family="Times,serif" font-size="14.00">कर्ता</text>
</g>
<!-- Node5_1 -->
<g id="node18" class="node">
<title>Node5_1</title>
<polygon fill="#b4ffb4" stroke="#b4ffb4" points="761,-123 689,-123 689,-87 761,-87 761,-123"/>
<text text-anchor="middle" x="725" y="-101.3" font-family="Times,serif" font-size="14.00">विशेषात्(5)</text>
</g>
<!-- Node5_1&#45;&gt;Node8_1 -->
<g id="edge19" class="edge">
<title>Node5_1&#45;&gt;Node8_1</title>
<path fill="none" stroke="black" d="M725,-133.27C725,-146.58 725,-162.19 725,-173.82"/>
<polygon fill="black" stroke="black" points="728.5,-133.2 725,-123.2 721.5,-133.2 728.5,-133.2"/>
<text text-anchor="middle" x="734.5" y="-144.8" font-family="Times,serif" font-size="14.00">हेतुः</text>
</g>
<!-- Node6_1 -->
<g id="node20" class="node">
<title>Node6_1</title>
<polygon fill="#ff99ff" stroke="#ff99ff" points="850.5,-123 779.5,-123 779.5,-87 850.5,-87 850.5,-123"/>
<text text-anchor="middle" x="815" y="-101.3" font-family="Times,serif" font-size="14.00">श्लेष्मतः(6)</text>
</g>
<!-- Node6_1&#45;&gt;Node8_1 -->
<g id="edge20" class="edge">
<title>Node6_1&#45;&gt;Node8_1</title>
<path fill="none" stroke="black" d="M789.43,-130.15C774.68,-144.08 756.48,-161.27 743.19,-173.82"/>
<polygon fill="black" stroke="black" points="791.92,-132.61 796.79,-123.2 787.11,-127.52 791.92,-132.61"/>
<text text-anchor="middle" x="785.5" y="-144.8" font-family="Times,serif" font-size="14.00">हेतुः</text>
</g>
<!-- Node11_1&#45;&gt;Node9_1 -->
<g id="edge22" class="edge">
<title>Node11_1&#45;&gt;Node9_1</title>
<path fill="none" stroke="black" d="M112.82,-307.03C115.61,-315.52 120.03,-324.18 127,-330 149.93,-349.13 233.2,-358.62 281.21,-362.6"/>
<polygon fill="black" stroke="black" points="116.18,-306.08 110.22,-297.33 109.42,-307.89 116.18,-306.08"/>
<text text-anchor="middle" x="198" y="-318.8" font-family="Times,serif" font-size="14.00">भावलक्षणसप्तमी_समानकालः</text>
</g>
<!-- Node12_1 -->
<g id="node23" class="node">
<title>Node12_1</title>
<polygon fill="#b4ffb4" stroke="#b4ffb4" points="489.5,-297 416.5,-297 416.5,-261 489.5,-261 489.5,-297"/>
<text text-anchor="middle" x="453" y="-275.3" font-family="Times,serif" font-size="14.00">अस्मात्(12)</text>
</g>
<!-- Node12_1&#45;&gt;Node9_1 -->
<g id="edge23" class="edge">
<title>Node12_1&#45;&gt;Node9_1</title>
<path fill="none" stroke="black" d="M416.53,-302.63C393.66,-316.81 364.66,-334.81 343.68,-347.82"/>
<polygon fill="black" stroke="black" points="418.62,-305.45 425.28,-297.2 414.93,-299.5 418.62,-305.45"/>
<text text-anchor="middle" x="402.5" y="-318.8" font-family="Times,serif" font-size="14.00">हेतुः</text>
</g>
</g>
</svg>
