<svg width="912pt" height="131pt"
 viewBox="0.00 0.00 912.00 131.00" xmlns="http://www.w3.org/2000/svg" xmlns:xlink="http://www.w3.org/1999/xlink">
<g id="graph0" class="graph" transform="scale(1 1) rotate(0) translate(4 127)">
<title>G</title>
<polygon fill="#fffacd" stroke="transparent" points="-4,4 -4,-127 908,-127 908,4 -4,4"/>
<!-- Node1_1 -->
<style>
 .hidden { display: none; }
 .node { cursor: pointer; }
 </style>
<script>
     function toggleChildren(id) {
      const children = document.getElementById(id);
      if (children.classList.contains('hidden')) {
        children.classList.remove('hidden');
      } else {
        children.classList.add('hidden');
      }
    }
</script>

<g id="node1" class="node">
<title>Node1_1</title>
<polygon fill="#93db70" stroke="#93db70" points="76,-36 0,-36 0,0 76,0 76,-36"/>
<text text-anchor="middle" x="38" y="-14.3" font-family="Times,serif" font-size="14.00">नासिकाम्(1)</text>
</g>
<!-- Node3_1 -->
<g id="node2" class="node">
<title>Node3_1</title>
<polygon fill="#ff1975" stroke="#ff1975" points="125.5,-123 34.5,-123 34.5,-87 125.5,-87 125.5,-123"/>
<text text-anchor="middle" x="80" y="-101.3" font-family="Times,serif" font-size="14.00">विकुष्णीयात्(3)</text>
</g>
<!-- Node1_1&#45;&gt;Node3_1 -->
<g id="edge1" class="edge">
<title>Node1_1&#45;&gt;Node3_1</title>
<path fill="none" stroke="black" d="M51.08,-45.48C57.75,-58.96 65.65,-74.96 71.51,-86.82"/>
<polygon fill="black" stroke="black" points="54.07,-43.62 46.5,-36.2 47.79,-46.72 54.07,-43.62"/>
<text text-anchor="middle" x="71" y="-57.8" font-family="Times,serif" font-size="14.00">कर्म</text>
</g>
<!-- Node2_1 -->
<g id="node3" class="node">
<title>Node2_1</title>
<polygon fill="#ff99ff" stroke="#ff99ff" points="148,-36 94,-36 94,0 148,0 148,-36"/>
<text text-anchor="middle" x="121" y="-14.3" font-family="Times,serif" font-size="14.00">न(2)</text>
</g>
<!-- Node2_1&#45;&gt;Node3_1 -->
<g id="edge2" class="edge">
<title>Node2_1&#45;&gt;Node3_1</title>
<path fill="none" stroke="black" d="M108.23,-45.48C101.72,-58.96 94.01,-74.96 88.28,-86.82"/>
<polygon fill="black" stroke="black" points="111.51,-46.73 112.7,-36.2 105.21,-43.69 111.51,-46.73"/>
<text text-anchor="middle" x="123" y="-57.8" font-family="Times,serif" font-size="14.00">प्रतिषेधः</text>
</g>
<!-- Node4_1 -->
<g id="node4" class="node">
<title>Node4_1</title>
<polygon fill="#ff99ff" stroke="#ff99ff" points="220,-36 166,-36 166,0 220,0 220,-36"/>
<text text-anchor="middle" x="193" y="-14.3" font-family="Times,serif" font-size="14.00">न(4)</text>
</g>
<!-- Node6_1 -->
<g id="node5" class="node">
<title>Node6_1</title>
<polygon fill="#ff1975" stroke="#ff1975" points="313.5,-123 238.5,-123 238.5,-87 313.5,-87 313.5,-123"/>
<text text-anchor="middle" x="276" y="-101.3" font-family="Times,serif" font-size="14.00">विलिखेत्(6)</text>
</g>
<!-- Node4_1&#45;&gt;Node6_1 -->
<g id="edge3" class="edge">
<title>Node4_1&#45;&gt;Node6_1</title>
<path fill="none" stroke="black" d="M210.85,-44.26C217.14,-52.49 224.53,-61.45 232,-69 238.18,-75.24 245.46,-81.42 252.29,-86.81"/>
<polygon fill="black" stroke="black" points="213.5,-41.96 204.72,-36.02 207.89,-46.14 213.5,-41.96"/>
<text text-anchor="middle" x="252" y="-57.8" font-family="Times,serif" font-size="14.00">प्रतिषेधः</text>
</g>
<!-- Node5_1 -->
<g id="node6" class="node">
<title>Node5_1</title>
<polygon fill="#ff99ff" stroke="#ff99ff" points="314,-36 238,-36 238,0 314,0 314,-36"/>
<text text-anchor="middle" x="276" y="-14.3" font-family="Times,serif" font-size="14.00">अकस्मात्(5)</text>
</g>
<!-- Node5_1&#45;&gt;Node6_1 -->
<g id="edge4" class="edge">
<title>Node5_1&#45;&gt;Node6_1</title>
<path fill="none" stroke="black" d="M276,-46.27C276,-59.58 276,-75.19 276,-86.82"/>
<polygon fill="black" stroke="black" points="279.5,-46.2 276,-36.2 272.5,-46.2 279.5,-46.2"/>
<text text-anchor="middle" x="312.5" y="-57.8" font-family="Times,serif" font-size="14.00">क्रियाविशेषणम्</text>
</g>
<!-- Node7_1 -->
<g id="node7" class="node">
<title>Node7_1</title>
<polygon fill="#93db70" stroke="#93db70" points="399.5,-36 344.5,-36 344.5,0 399.5,0 399.5,-36"/>
<text text-anchor="middle" x="372" y="-14.3" font-family="Times,serif" font-size="14.00">भुवम्(7)</text>
</g>
<!-- Node7_1&#45;&gt;Node6_1 -->
<g id="edge5" class="edge">
<title>Node7_1&#45;&gt;Node6_1</title>
<path fill="none" stroke="black" d="M364.43,-45.45C361.06,-53.76 356.37,-62.45 350,-69 339.99,-79.29 326.36,-86.91 313.52,-92.36"/>
<polygon fill="black" stroke="black" points="367.73,-46.63 367.81,-36.04 361.14,-44.27 367.73,-46.63"/>
<text text-anchor="middle" x="370" y="-57.8" font-family="Times,serif" font-size="14.00">कर्म</text>
</g>
<!-- Node8_1 -->
<g id="node8" class="node">
<title>Node8_1</title>
<polygon fill="#ff99ff" stroke="#ff99ff" points="472,-36 418,-36 418,0 472,0 472,-36"/>
<text text-anchor="middle" x="445" y="-14.3" font-family="Times,serif" font-size="14.00">न(8)</text>
</g>
<!-- Node10_1 -->
<g id="node9" class="node">
<title>Node10_1</title>
<polygon fill="#ff1975" stroke="#ff1975" points="549,-123 485,-123 485,-87 549,-87 549,-123"/>
<text text-anchor="middle" x="517" y="-101.3" font-family="Times,serif" font-size="14.00">चेष्टेत(10)</text>
</g>
<!-- Node8_1&#45;&gt;Node10_1 -->
<g id="edge6" class="edge">
<title>Node8_1&#45;&gt;Node10_1</title>
<path fill="none" stroke="black" d="M457.25,-45.31C461.62,-53.34 466.98,-61.92 473,-69 478.44,-75.4 485.19,-81.44 491.75,-86.66"/>
<polygon fill="black" stroke="black" points="460.27,-43.54 452.58,-36.25 454.05,-46.75 460.27,-43.54"/>
<text text-anchor="middle" x="493" y="-57.8" font-family="Times,serif" font-size="14.00">प्रतिषेधः</text>
</g>
<!-- Node9_1 -->
<g id="node10" class="node">
<title>Node9_1</title>
<polygon fill="#40e0d0" stroke="#40e0d0" points="544,-36 490,-36 490,0 544,0 544,-36"/>
<text text-anchor="middle" x="517" y="-14.3" font-family="Times,serif" font-size="14.00">अङ्गैः(9)</text>
</g>
<!-- Node9_1&#45;&gt;Node10_1 -->
<g id="edge7" class="edge">
<title>Node9_1&#45;&gt;Node10_1</title>
<path fill="none" stroke="black" d="M517,-46.27C517,-59.58 517,-75.19 517,-86.82"/>
<polygon fill="black" stroke="black" points="520.5,-46.2 517,-36.2 513.5,-46.2 520.5,-46.2"/>
<text text-anchor="middle" x="533.5" y="-57.8" font-family="Times,serif" font-size="14.00">करणम्</text>
</g>
<!-- Node11_1 -->
<g id="node11" class="node">
<title>Node11_1</title>
<polygon fill="#00bfff" stroke="#00bfff" points="638,-36 562,-36 562,0 638,0 638,-36"/>
<text text-anchor="middle" x="600" y="-14.3" font-family="Times,serif" font-size="14.00">विगुणम्(11)</text>
</g>
<!-- Node11_1&#45;&gt;Node10_1 -->
<g id="edge8" class="edge">
<title>Node11_1&#45;&gt;Node10_1</title>
<path fill="none" stroke="black" d="M577.75,-43.86C570.32,-51.99 561.91,-60.98 554,-69 548.16,-74.92 541.62,-81.21 535.69,-86.8"/>
<polygon fill="black" stroke="black" points="580.4,-46.15 584.53,-36.4 575.22,-41.45 580.4,-46.15"/>
<text text-anchor="middle" x="604.5" y="-57.8" font-family="Times,serif" font-size="14.00">क्रियाविशेषणम्</text>
</g>
<!-- Node12_1 -->
<g id="node12" class="node">
<title>Node12_1</title>
<polygon fill="#ff99ff" stroke="#ff99ff" points="723,-36 669,-36 669,0 723,0 723,-36"/>
<text text-anchor="middle" x="696" y="-14.3" font-family="Times,serif" font-size="14.00">न(12)</text>
</g>
<!-- Node13_1 -->
<g id="node13" class="node">
<title>Node13_1</title>
<polygon fill="#ff1975" stroke="#ff1975" points="817,-123 745,-123 745,-87 817,-87 817,-123"/>
<text text-anchor="middle" x="781" y="-101.3" font-family="Times,serif" font-size="14.00">आसीत(13)</text>
</g>
<!-- Node12_1&#45;&gt;Node13_1 -->
<g id="edge9" class="edge">
<title>Node12_1&#45;&gt;Node13_1</title>
<path fill="none" stroke="black" d="M715.03,-44.32C721.64,-52.51 729.32,-61.44 737,-69 743.26,-75.17 750.55,-81.32 757.38,-86.71"/>
<polygon fill="black" stroke="black" points="717.76,-42.13 708.82,-36.44 712.26,-46.46 717.76,-42.13"/>
<text text-anchor="middle" x="757" y="-57.8" font-family="Times,serif" font-size="14.00">प्रतिषेधः</text>
</g>
<!-- Node14_1 -->
<g id="node14" class="node">
<title>Node14_1</title>
<polygon fill="#00bfff" stroke="#00bfff" points="820.5,-36 741.5,-36 741.5,0 820.5,0 820.5,-36"/>
<text text-anchor="middle" x="781" y="-14.3" font-family="Times,serif" font-size="14.00">उत्कटकः(14)</text>
</g>
<!-- Node14_1&#45;&gt;Node13_1 -->
<g id="edge10" class="edge">
<title>Node14_1&#45;&gt;Node13_1</title>
<path fill="none" stroke="black" d="M781,-46.27C781,-59.58 781,-75.19 781,-86.82"/>
<polygon fill="black" stroke="black" points="784.5,-46.2 781,-36.2 777.5,-46.2 784.5,-46.2"/>
<text text-anchor="middle" x="792" y="-57.8" font-family="Times,serif" font-size="14.00">कर्ता</text>
</g>
<!-- Node15_1 -->
<g id="node15" class="node">
<title>Node15_1</title>
<polygon fill="#ff99ff" stroke="#ff99ff" points="903,-36 839,-36 839,0 903,0 903,-36"/>
<text text-anchor="middle" x="871" y="-14.3" font-family="Times,serif" font-size="14.00">चिरम्(15)</text>
</g>
<!-- Node15_1&#45;&gt;Node13_1 -->
<g id="edge11" class="edge">
<title>Node15_1&#45;&gt;Node13_1</title>
<path fill="none" stroke="black" d="M845.43,-43.15C830.68,-57.08 812.48,-74.27 799.19,-86.82"/>
<polygon fill="black" stroke="black" points="847.92,-45.61 852.79,-36.2 843.11,-40.52 847.92,-45.61"/>
<text text-anchor="middle" x="867.5" y="-57.8" font-family="Times,serif" font-size="14.00">क्रियाविशेषणम्</text>
</g>
</g>
</svg>
