<svg width="767pt" height="569pt"
 viewBox="0.00 0.00 767.00 569.00" xmlns="http://www.w3.org/2000/svg" xmlns:xlink="http://www.w3.org/1999/xlink">
<g id="graph0" class="graph" transform="scale(1 1) rotate(0) translate(4 565)">
<title>G</title>
<polygon fill="#fffacd" stroke="transparent" points="-4,4 -4,-565 763,-565 763,4 -4,4"/>
<!-- Node2_5 -->
<style>
 .hidden { display: none; }
 .node { cursor: pointer; }
 </style>
<script>
     function toggleChildren(id) {
      const children = document.getElementById(id);
      if (children.classList.contains('hidden')) {
        children.classList.remove('hidden');
      } else {
        children.classList.add('hidden');
      }
    }
</script>
<g id="children_node0_56766" class="hidden">
    <g class="node" onclick="toggleChildren('children_node0_56766');">
</g>
</g>
<g id="children_node1_56766" class="hidden">
    <g class="node" onclick="toggleChildren('children_node1_56766');">

<g id="node1" class="node">
<title>Node2_5</title>
<polygon fill="#ffff00" stroke="#ffff00" points="655.5,-36 601.5,-36 601.5,0 655.5,0 655.5,-36"/>
<text text-anchor="middle" x="628.5" y="-14.3" font-family="Times,serif" font-size="14.00">अन्न&#45;</text>
</g>
<!-- Node2_6 -->
<g id="node2" class="node">
<title>Node2_6</title>
<polygon fill="#ffff00" stroke="#ffff00" points="745.5,-36 691.5,-36 691.5,0 745.5,0 745.5,-36"/>
<text text-anchor="middle" x="718.5" y="-14.3" font-family="Times,serif" font-size="14.00">मैथुनम्</text>
</g>
<!-- Node2_5&#45;&gt;Node2_6 -->
<!-- Node2_6_1 -->
<g id="node3" class="node">
<title>Node2_6_1</title>
<polygon fill="#ffff00" stroke="#ffff00" points="759,-109 604,-109 604,-73 759,-73 759,-109"/>
<text text-anchor="middle" x="681.5" y="-87.3" font-family="Times,serif" font-size="14.00">&lt;अन्न&#45;मैथुनम्&gt;(इतरेतर&#45;द्वन्द्वः)</text>
</g>
<!-- Node2_5&#45;&gt;Node2_6_1 -->
<g id="edge2" class="edge">
<title>Node2_5&#45;&gt;Node2_6_1</title>
<path fill="none" stroke="black" d="M647.32,-44.21C654.44,-53.74 662.36,-64.36 668.79,-72.97"/>
<polygon fill="black" stroke="black" points="650.12,-42.11 641.33,-36.19 644.51,-46.29 650.12,-42.11"/>
</g>
<!-- Node2_6&#45;&gt;Node2_6_1 -->
<g id="edge1" class="edge">
<title>Node2_6&#45;&gt;Node2_6_1</title>
<path fill="none" stroke="black" d="M704.91,-45.08C700.06,-54.39 694.72,-64.62 690.37,-72.97"/>
<polygon fill="black" stroke="black" points="708.03,-46.67 709.54,-36.19 701.82,-43.44 708.03,-46.67"/>
</g>
<!-- Node2_6_2 -->
<g id="node5" class="node">
<title>Node2_6_2</title>
<polygon fill="#ffff00" stroke="#ffff00" points="758.5,-182 492.5,-182 492.5,-146 758.5,-146 758.5,-182"/>
<text text-anchor="middle" x="625.5" y="-160.3" font-family="Times,serif" font-size="14.00">&lt;स्वप्न&#45;&lt;अन्न&#45;मैथुनम्&gt;(इतरेतर&#45;द्वन्द्वः)&gt;(इतरेतर&#45;द्वन्द्वः)</text>
</g>
<!-- Node2_6_1&#45;&gt;Node2_6_2 -->
<g id="edge4" class="edge">
<title>Node2_6_1&#45;&gt;Node2_6_2</title>
<path fill="none" stroke="black" d="M661.62,-117.21C654.1,-126.74 645.72,-137.36 638.93,-145.97"/>
<polygon fill="black" stroke="black" points="664.5,-119.21 667.94,-109.19 659,-114.87 664.5,-119.21"/>
</g>
<!-- Node2_4 -->
<g id="node4" class="node">
<title>Node2_4</title>
<polygon fill="#ffff00" stroke="#ffff00" points="568.5,-109 514.5,-109 514.5,-73 568.5,-73 568.5,-109"/>
<text text-anchor="middle" x="541.5" y="-87.3" font-family="Times,serif" font-size="14.00">स्वप्न&#45;</text>
</g>
<!-- Node2_4&#45;&gt;Node2_6_1 -->
<!-- Node2_4&#45;&gt;Node2_6_2 -->
<g id="edge5" class="edge">
<title>Node2_4&#45;&gt;Node2_6_2</title>
<path fill="none" stroke="black" d="M569.63,-115.77C581.33,-125.67 594.65,-136.93 605.35,-145.97"/>
<polygon fill="black" stroke="black" points="571.73,-112.97 561.83,-109.19 567.21,-118.32 571.73,-112.97"/>
</g>
<!-- Node2_6_3 -->
<g id="node7" class="node">
<title>Node2_6_3</title>
<polygon fill="#ffff00" stroke="#ffff00" points="735.5,-255 361.5,-255 361.5,-219 735.5,-219 735.5,-255"/>
<text text-anchor="middle" x="548.5" y="-233.3" font-family="Times,serif" font-size="14.00">&lt;कास&#45;&lt;स्वप्न&#45;&lt;अन्न&#45;मैथुनम्&gt;(इतरेतर&#45;द्वन्द्वः)&gt;(इतरेतर&#45;द्वन्द्वः)&gt;(इतरेतर&#45;द्वन्द्वः)</text>
</g>
<!-- Node2_6_2&#45;&gt;Node2_6_3 -->
<g id="edge7" class="edge">
<title>Node2_6_2&#45;&gt;Node2_6_3</title>
<path fill="none" stroke="black" d="M599.41,-189.06C588.75,-198.88 576.68,-210.01 566.97,-218.97"/>
<polygon fill="black" stroke="black" points="601.88,-191.54 606.86,-182.19 597.14,-186.39 601.88,-191.54"/>
</g>
<!-- Node2_3 -->
<g id="node6" class="node">
<title>Node2_3</title>
<polygon fill="#ffff00" stroke="#ffff00" points="456.5,-182 402.5,-182 402.5,-146 456.5,-146 456.5,-182"/>
<text text-anchor="middle" x="429.5" y="-160.3" font-family="Times,serif" font-size="14.00">कास&#45;</text>
</g>
<!-- Node2_3&#45;&gt;Node2_6_2 -->
<!-- Node2_3&#45;&gt;Node2_6_3 -->
<g id="edge8" class="edge">
<title>Node2_3&#45;&gt;Node2_6_3</title>
<path fill="none" stroke="black" d="M465.31,-186.37C482.79,-196.8 503.54,-209.18 519.94,-218.96"/>
<polygon fill="black" stroke="black" points="466.88,-183.23 456.5,-181.11 463.3,-189.24 466.88,-183.23"/>
</g>
<!-- Node2_6_4 -->
<g id="node9" class="node">
<title>Node2_6_4</title>
<polygon fill="#ffff00" stroke="#ffff00" points="693,-328 210,-328 210,-292 693,-292 693,-328"/>
<text text-anchor="middle" x="451.5" y="-306.3" font-family="Times,serif" font-size="14.00">&lt;उद्गार&#45;&lt;कास&#45;&lt;स्वप्न&#45;&lt;अन्न&#45;मैथुनम्&gt;(इतरेतर&#45;द्वन्द्वः)&gt;(इतरेतर&#45;द्वन्द्वः)&gt;(इतरेतर&#45;द्वन्द्वः)&gt;(इतरेतर&#45;द्वन्द्वः)</text>
</g>
<!-- Node2_6_3&#45;&gt;Node2_6_4 -->
<g id="edge10" class="edge">
<title>Node2_6_3&#45;&gt;Node2_6_4</title>
<path fill="none" stroke="black" d="M516.8,-261.2C503.1,-271.23 487.36,-282.75 474.76,-291.97"/>
<polygon fill="black" stroke="black" points="519.02,-263.92 525.02,-255.19 514.88,-258.27 519.02,-263.92"/>
</g>
<!-- Node2_2 -->
<g id="node8" class="node">
<title>Node2_2</title>
<polygon fill="#ffff00" stroke="#ffff00" points="325.5,-255 271.5,-255 271.5,-219 325.5,-219 325.5,-255"/>
<text text-anchor="middle" x="298.5" y="-233.3" font-family="Times,serif" font-size="14.00">उद्गार&#45;</text>
</g>
<!-- Node2_2&#45;&gt;Node2_6_3 -->
<!-- Node2_2&#45;&gt;Node2_6_4 -->
<g id="edge11" class="edge">
<title>Node2_2&#45;&gt;Node2_6_4</title>
<path fill="none" stroke="black" d="M334.68,-254.79C358.82,-265.99 390.46,-280.68 414.72,-291.93"/>
<polygon fill="black" stroke="black" points="336.05,-251.56 325.5,-250.53 333.1,-257.91 336.05,-251.56"/>
</g>
<!-- Node2_6_5 -->
<g id="node11" class="node">
<title>Node2_6_5</title>
<polygon fill="#ffff00" stroke="#ffff00" points="597,-401 0,-401 0,-365 597,-365 597,-401"/>
<text text-anchor="middle" x="298.5" y="-379.3" font-family="Times,serif" font-size="14.00">&lt;क्षवथु&#45;&lt;उद्गार&#45;&lt;कास&#45;&lt;स्वप्न&#45;&lt;अन्न&#45;मैथुनम्&gt;(इतरेतर&#45;द्वन्द्वः)&gt;(इतरेतर&#45;द्वन्द्वः)&gt;(इतरेतर&#45;द्वन्द्वः)&gt;(इतरेतर&#45;द्वन्द्वः)&gt;(इतरेतर&#45;द्वन्द्वः)</text>
</g>
<!-- Node2_6_4&#45;&gt;Node2_6_5 -->
<g id="edge13" class="edge">
<title>Node2_6_4&#45;&gt;Node2_6_5</title>
<path fill="none" stroke="black" d="M405.52,-332.34C383.09,-342.75 356.46,-355.1 335.38,-364.89"/>
<polygon fill="black" stroke="black" points="407.26,-335.39 414.85,-328.01 404.31,-329.04 407.26,-335.39"/>
</g>
<!-- Node2_1 -->
<g id="node10" class="node">
<title>Node2_1</title>
<polygon fill="#ffff00" stroke="#ffff00" points="174.5,-328 120.5,-328 120.5,-292 174.5,-292 174.5,-328"/>
<text text-anchor="middle" x="147.5" y="-306.3" font-family="Times,serif" font-size="14.00">क्षवथु&#45;</text>
</g>
<!-- Node2_1&#45;&gt;Node2_6_4 -->
<!-- Node2_1&#45;&gt;Node2_6_5 -->
<g id="edge14" class="edge">
<title>Node2_1&#45;&gt;Node2_6_5</title>
<path fill="none" stroke="black" d="M184.21,-328.26C207.92,-339.41 238.64,-353.85 262.26,-364.96"/>
<polygon fill="black" stroke="black" points="185.38,-324.95 174.84,-323.86 182.41,-331.28 185.38,-324.95"/>
</g>
<!-- Node2_6_5&#45;&gt;Node2_6_5c -->
<g id="edge16" class="edge">
<title>Node2_6_5&#45;&gt;Node2_6_5c</title>
<path fill="none" stroke="black" d="M298.5,-411.25C298.5,-420.23 298.5,-429.97 298.5,-437.97"/>
<polygon fill="black" stroke="black" points="302,-411.19 298.5,-401.19 295,-411.19 302,-411.19"/>
</g>
</g>
</g>
<!-- Node2_6_5c -->
<g class="node12" onclick="toggleChildren('children_node1_56766');">
<title>Node2_6_5c</title>
<polygon fill="#93db70" stroke="#93db70" points="398.5,-474 198.5,-474 198.5,-438 398.5,-438 398.5,-474"/>
<text text-anchor="middle" x="298.5" y="-452.3" font-family="Times,serif" font-size="14.00">क्षवथु&#45;उद्गार&#45;कास&#45;स्वप्न&#45;अन्न&#45;मैथुनम्(2)</text>
</g>
<!-- Node3_1 -->
<g id="node14" class="node">
<title>Node3_1</title>
<polygon fill="#ff1975" stroke="#ff1975" points="407.5,-561 337.5,-561 337.5,-525 407.5,-525 407.5,-561"/>
<text text-anchor="middle" x="372.5" y="-539.3" font-family="Times,serif" font-size="14.00">(त्यजेत्)(3)</text>
</g>
<!-- Node2_6_5c&#45;&gt;Node3_1 -->
<g id="edge17" class="edge">
<title>Node2_6_5c&#45;&gt;Node3_1</title>
<path fill="none" stroke="black" d="M320.19,-481.92C332.2,-495.71 346.82,-512.5 357.55,-524.82"/>
<polygon fill="black" stroke="black" points="322.68,-479.45 313.48,-474.2 317.4,-484.04 322.68,-479.45"/>
<text text-anchor="middle" x="349.5" y="-495.8" font-family="Times,serif" font-size="14.00">कर्म</text>
</g>
<!-- Node1_1 -->
<g id="node13" class="node">
<title>Node1_1</title>
<polygon fill="#00bfff" stroke="#00bfff" points="478.5,-474 416.5,-474 416.5,-438 478.5,-438 478.5,-474"/>
<text text-anchor="middle" x="447.5" y="-452.3" font-family="Times,serif" font-size="14.00">अनृजुः(1)</text>
</g>
<!-- Node1_1&#45;&gt;Node3_1 -->
<g id="edge18" class="edge">
<title>Node1_1&#45;&gt;Node3_1</title>
<path fill="none" stroke="black" d="M425.51,-481.92C413.34,-495.71 398.53,-512.5 387.65,-524.82"/>
<polygon fill="black" stroke="black" points="428.33,-484.02 432.32,-474.2 423.08,-479.38 428.33,-484.02"/>
<text text-anchor="middle" x="425.5" y="-495.8" font-family="Times,serif" font-size="14.00">कर्ता</text>
</g>
</g>
</svg>
