<svg width="235pt" height="305pt"
 viewBox="0.00 0.00 234.50 305.00" xmlns="http://www.w3.org/2000/svg" xmlns:xlink="http://www.w3.org/1999/xlink">
<g id="graph0" class="graph" transform="scale(1 1) rotate(0) translate(4 301)">
<title>G</title>
<polygon fill="#fffacd" stroke="transparent" points="-4,4 -4,-301 230.5,-301 230.5,4 -4,4"/>
<!-- Node1_1 -->
<style>
 .hidden { display: none; }
 .node { cursor: pointer; }
 </style>
<script>
     function toggleChildren(id) {
      const children = document.getElementById(id);
      if (children.classList.contains('hidden')) {
        children.classList.remove('hidden');
      } else {
        children.classList.add('hidden');
      }
    }
</script>

<g id="node1" class="node">
<title>Node1_1</title>
<polygon fill="#87ceeb" stroke="#87ceeb" points="66,-36 5,-36 5,0 66,0 66,-36"/>
<text text-anchor="middle" x="35.5" y="-14.3" font-family="Times,serif" font-size="14.00">जनस्य(1)</text>
</g>
<!-- Node2_1 -->
<g id="node2" class="node">
<title>Node2_1</title>
<polygon fill="#93db70" stroke="#93db70" points="71,-123 0,-123 0,-87 71,-87 71,-123"/>
<text text-anchor="middle" x="35.5" y="-101.3" font-family="Times,serif" font-size="14.00">आशयम्(2)</text>
</g>
<!-- Node1_1&#45;&gt;Node2_1 -->
<g id="edge1" class="edge">
<title>Node1_1&#45;&gt;Node2_1</title>
<path fill="none" stroke="black" d="M35.5,-46.27C35.5,-59.58 35.5,-75.19 35.5,-86.82"/>
<polygon fill="black" stroke="black" points="39,-46.2 35.5,-36.2 32,-46.2 39,-46.2"/>
<text text-anchor="middle" x="63.5" y="-57.8" font-family="Times,serif" font-size="14.00">षष्ठीसम्बन्धः</text>
</g>
<!-- Node3_1 -->
<g id="node3" class="node">
<title>Node3_1</title>
<polygon fill="#ff99ff" stroke="#ff99ff" points="80.5,-210 10.5,-210 10.5,-174 80.5,-174 80.5,-210"/>
<text text-anchor="middle" x="45.5" y="-188.3" font-family="Times,serif" font-size="14.00">आलक्ष्य(3)</text>
</g>
<!-- Node2_1&#45;&gt;Node3_1 -->
<g id="edge2" class="edge">
<title>Node2_1&#45;&gt;Node3_1</title>
<path fill="none" stroke="black" d="M36.46,-133.4C36.91,-140.76 37.56,-148.7 38.5,-156 39.26,-161.9 40.44,-168.3 41.61,-173.99"/>
<polygon fill="black" stroke="black" points="39.95,-132.99 35.95,-123.18 32.96,-133.34 39.95,-132.99"/>
<text text-anchor="middle" x="47.5" y="-144.8" font-family="Times,serif" font-size="14.00">कर्म</text>
</g>
<!-- Node6_1 -->
<g id="node4" class="node">
<title>Node6_1</title>
<polygon fill="#ff1975" stroke="#ff1975" points="156.5,-297 76.5,-297 76.5,-261 156.5,-261 156.5,-297"/>
<text text-anchor="middle" x="116.5" y="-275.3" font-family="Times,serif" font-size="14.00">परितुष्यति(6)</text>
</g>
<!-- Node3_1&#45;&gt;Node6_1 -->
<g id="edge3" class="edge">
<title>Node3_1&#45;&gt;Node6_1</title>
<path fill="none" stroke="black" d="M49.24,-220.18C51.31,-228.1 54.52,-236.4 59.5,-243 64.82,-250.04 72,-255.99 79.47,-260.87"/>
<polygon fill="black" stroke="black" points="52.61,-219.21 47.13,-210.14 45.76,-220.65 52.61,-219.21"/>
<text text-anchor="middle" x="81" y="-231.8" font-family="Times,serif" font-size="14.00">पूर्वकालः</text>
</g>
<!-- Node4_1 -->
<g id="node5" class="node">
<title>Node4_1</title>
<polygon fill="#00bfff" stroke="#00bfff" points="143.5,-123 89.5,-123 89.5,-87 143.5,-87 143.5,-123"/>
<text text-anchor="middle" x="116.5" y="-101.3" font-family="Times,serif" font-size="14.00">यः(4)</text>
</g>
<!-- Node4_1&#45;&gt;Node3_1 -->
<g id="edge5" class="edge">
<title>Node4_1&#45;&gt;Node3_1</title>
<path fill="none" stroke="black" stroke-dasharray="1,5" d="M90.17,-130.45C86.82,-133.89 83.5,-137.47 80.5,-141 71.71,-151.33 62.96,-163.83 56.41,-173.75"/>
<polygon fill="black" stroke="black" points="92.87,-132.7 97.51,-123.17 87.94,-127.73 92.87,-132.7"/>
<text text-anchor="middle" x="91.5" y="-144.8" font-family="Times,serif" font-size="14.00">कर्ता</text>
</g>
<!-- Node4_1&#45;&gt;Node6_1 -->
<g id="edge4" class="edge">
<title>Node4_1&#45;&gt;Node6_1</title>
<path fill="none" stroke="black" d="M116.5,-133.36C116.5,-169.24 116.5,-231.12 116.5,-260.95"/>
<polygon fill="black" stroke="black" points="120,-133.12 116.5,-123.12 113,-133.12 120,-133.12"/>
<text text-anchor="middle" x="127.5" y="-188.3" font-family="Times,serif" font-size="14.00">कर्ता</text>
</g>
<!-- Node5_1 -->
<g id="node6" class="node">
<title>Node5_1</title>
<polygon fill="#ff99ff" stroke="#ff99ff" points="210.5,-210 156.5,-210 156.5,-174 210.5,-174 210.5,-210"/>
<text text-anchor="middle" x="183.5" y="-188.3" font-family="Times,serif" font-size="14.00">यथा(5)</text>
</g>
<!-- Node5_1&#45;&gt;Node6_1 -->
<g id="edge6" class="edge">
<title>Node5_1&#45;&gt;Node6_1</title>
<path fill="none" stroke="black" d="M163.55,-218.31C152.74,-232.02 139.66,-248.62 130.04,-260.82"/>
<polygon fill="black" stroke="black" points="166.5,-220.22 169.94,-210.2 161,-215.89 166.5,-220.22"/>
<text text-anchor="middle" x="190" y="-231.8" font-family="Times,serif" font-size="14.00">क्रियाविशेषणम्</text>
</g>
</g>
</svg>
