<svg width="695pt" height="364pt"
 viewBox="0.00 0.00 695.00 364.00" xmlns="http://www.w3.org/2000/svg" xmlns:xlink="http://www.w3.org/1999/xlink">
<g id="graph0" class="graph" transform="scale(1 1) rotate(0) translate(4 360)">
<title>G</title>
<polygon fill="#fffacd" stroke="transparent" points="-4,4 -4,-360 691,-360 691,4 -4,4"/>
<!-- Node2_1 -->
<style>
 .hidden { display: none; }
 .node { cursor: pointer; }
 </style>
<script>
     function toggleChildren(id) {
      const children = document.getElementById(id);
      if (children.classList.contains('hidden')) {
        children.classList.remove('hidden');
      } else {
        children.classList.add('hidden');
      }
    }
</script>
<g id="children_node0_70340" class="hidden">
    <g class="node" onclick="toggleChildren('children_node0_70340');">
</g>
</g>
<g id="children_node1_70340" class="hidden">
    <g class="node" onclick="toggleChildren('children_node1_70340');">

<g id="node1" class="node">
<title>Node2_1</title>
<polygon fill="#ffff00" stroke="#ffff00" points="54,-36 0,-36 0,0 54,0 54,-36"/>
<text text-anchor="middle" x="27" y="-14.3" font-family="Times,serif" font-size="14.00">सर्व&#45;</text>
</g>
<!-- Node2_2 -->
<g id="node2" class="node">
<title>Node2_2</title>
<polygon fill="#ffff00" stroke="#ffff00" points="144,-36 90,-36 90,0 144,0 144,-36"/>
<text text-anchor="middle" x="117" y="-14.3" font-family="Times,serif" font-size="14.00">रस&#45;</text>
</g>
<!-- Node2_1&#45;&gt;Node2_2 -->
<!-- Node2_2_1 -->
<g id="node3" class="node">
<title>Node2_2_1</title>
<polygon fill="#ffff00" stroke="#ffff00" points="157,-109 31,-109 31,-73 157,-73 157,-109"/>
<text text-anchor="middle" x="94" y="-87.3" font-family="Times,serif" font-size="14.00">&lt;सर्व&#45;रस&#45;&gt;(कर्मधारयः)</text>
</g>
<!-- Node2_1&#45;&gt;Node2_2_1 -->
<g id="edge2" class="edge">
<title>Node2_1&#45;&gt;Node2_2_1</title>
<path fill="none" stroke="black" d="M50.24,-43.63C59.38,-53.31 69.64,-64.19 77.93,-72.97"/>
<polygon fill="black" stroke="black" points="52.63,-41.06 43.22,-36.19 47.54,-45.86 52.63,-41.06"/>
</g>
<!-- Node2_2&#45;&gt;Node2_2_1 -->
<g id="edge1" class="edge">
<title>Node2_2&#45;&gt;Node2_2_1</title>
<path fill="none" stroke="black" d="M108.27,-45.95C105.33,-55.02 102.14,-64.88 99.52,-72.97"/>
<polygon fill="black" stroke="black" points="111.68,-46.78 111.43,-36.19 105.02,-44.62 111.68,-46.78"/>
</g>
<!-- Node2_3 -->
<g id="node4" class="node">
<title>Node2_3</title>
<polygon fill="#ffff00" stroke="#ffff00" points="247,-109 193,-109 193,-73 247,-73 247,-109"/>
<text text-anchor="middle" x="220" y="-87.3" font-family="Times,serif" font-size="14.00">अभ्यासः</text>
</g>
<!-- Node2_2_1&#45;&gt;Node2_3 -->
<!-- Node2_3_2 -->
<g id="node5" class="node">
<title>Node2_3_2</title>
<polygon fill="#ffff00" stroke="#ffff00" points="290,-182 40,-182 40,-146 290,-146 290,-182"/>
<text text-anchor="middle" x="165" y="-160.3" font-family="Times,serif" font-size="14.00">&lt;&lt;सर्व&#45;रस&#45;&gt;(कर्मधारयः)अभ्यासः&gt;(षष्ठी&#45;तत्पुरुषः)</text>
</g>
<!-- Node2_2_1&#45;&gt;Node2_3_2 -->
<g id="edge5" class="edge">
<title>Node2_2_1&#45;&gt;Node2_3_2</title>
<path fill="none" stroke="black" d="M118.35,-116.35C128.1,-126.1 139.1,-137.1 147.97,-145.97"/>
<polygon fill="black" stroke="black" points="120.73,-113.78 111.19,-109.19 115.78,-118.73 120.73,-113.78"/>
</g>
<!-- Node2_3&#45;&gt;Node2_3_2 -->
<g id="edge4" class="edge">
<title>Node2_3&#45;&gt;Node2_3_2</title>
<path fill="none" stroke="black" d="M200.47,-117.21C193.09,-126.74 184.86,-137.36 178.19,-145.97"/>
<polygon fill="black" stroke="black" points="203.33,-119.24 206.69,-109.19 197.8,-114.95 203.33,-119.24"/>
</g>
<!-- Node2_3_2&#45;&gt;Node2_3_2c -->
<g id="edge7" class="edge">
<title>Node2_3_2&#45;&gt;Node2_3_2c</title>
<path fill="none" stroke="black" d="M194.36,-188.77C211.65,-202.77 233.14,-220.16 248.78,-232.82"/>
<polygon fill="black" stroke="black" points="196.22,-185.77 186.25,-182.2 191.82,-191.21 196.22,-185.77"/>
</g>
</g>
</g>
<!-- Node2_3_2c -->
<g class="node6" onclick="toggleChildren('children_node1_70340');">
<title>Node2_3_2c</title>
<polygon fill="#00bfff" stroke="#00bfff" points="323.5,-269 216.5,-269 216.5,-233 323.5,-233 323.5,-269"/>
<text text-anchor="middle" x="270" y="-247.3" font-family="Times,serif" font-size="14.00">सर्व&#45;रस&#45;अभ्यासः(2)</text>
</g>
<g id="children_node2_70340" class="hidden">
    <g class="node" onclick="toggleChildren('children_node2_70340');">
<!-- Node3_1 -->
<g id="node7" class="node">
<title>Node3_1</title>
<polygon fill="#ffff00" stroke="#ffff00" points="357,-36 303,-36 303,0 357,0 357,-36"/>
<text text-anchor="middle" x="330" y="-14.3" font-family="Times,serif" font-size="14.00">स्व&#45;</text>
</g>
<!-- Node3_2 -->
<g id="node8" class="node">
<title>Node3_2</title>
<polygon fill="#ffff00" stroke="#ffff00" points="447,-36 393,-36 393,0 447,0 447,-36"/>
<text text-anchor="middle" x="420" y="-14.3" font-family="Times,serif" font-size="14.00">स्व&#45;</text>
</g>
<!-- Node3_1&#45;&gt;Node3_2 -->
<!-- Node3_2_1 -->
<g id="node9" class="node">
<title>Node3_2_1</title>
<polygon fill="#ffff00" stroke="#ffff00" points="442,-109 308,-109 308,-73 442,-73 442,-109"/>
<text text-anchor="middle" x="375" y="-87.3" font-family="Times,serif" font-size="14.00">&lt;स्व&#45;स्व&#45;&gt;(इतरेतर&#45;द्वन्द्वः)</text>
</g>
<!-- Node3_1&#45;&gt;Node3_2_1 -->
<g id="edge10" class="edge">
<title>Node3_1&#45;&gt;Node3_2_1</title>
<path fill="none" stroke="black" d="M346.34,-44.79C352.29,-54.17 358.86,-64.54 364.21,-72.97"/>
<polygon fill="black" stroke="black" points="349.2,-42.76 340.89,-36.19 343.29,-46.51 349.2,-42.76"/>
</g>
<!-- Node3_2&#45;&gt;Node3_2_1 -->
<g id="edge9" class="edge">
<title>Node3_2&#45;&gt;Node3_2_1</title>
<path fill="none" stroke="black" d="M403.66,-44.79C397.71,-54.17 391.14,-64.54 385.79,-72.97"/>
<polygon fill="black" stroke="black" points="406.71,-46.51 409.11,-36.19 400.8,-42.76 406.71,-46.51"/>
</g>
<!-- Node3_3 -->
<g id="node10" class="node">
<title>Node3_3</title>
<polygon fill="#ffff00" stroke="#ffff00" points="542.5,-109 477.5,-109 477.5,-73 542.5,-73 542.5,-109"/>
<text text-anchor="middle" x="510" y="-87.3" font-family="Times,serif" font-size="14.00">आधिक्यम्</text>
</g>
<!-- Node3_2_1&#45;&gt;Node3_3 -->
<!-- Node3_3_2 -->
<g id="node11" class="node">
<title>Node3_3_2</title>
<polygon fill="#ffff00" stroke="#ffff00" points="577.5,-182 308.5,-182 308.5,-146 577.5,-146 577.5,-182"/>
<text text-anchor="middle" x="443" y="-160.3" font-family="Times,serif" font-size="14.00">&lt;&lt;स्व&#45;स्व&#45;&gt;(इतरेतर&#45;द्वन्द्वः)आधिक्यम्&gt;(षष्ठी&#45;तत्पुरुषः)</text>
</g>
<!-- Node3_2_1&#45;&gt;Node3_3_2 -->
<g id="edge13" class="edge">
<title>Node3_2_1&#45;&gt;Node3_3_2</title>
<path fill="none" stroke="black" d="M398.59,-116.63C407.86,-126.31 418.28,-137.19 426.69,-145.97"/>
<polygon fill="black" stroke="black" points="400.91,-113.99 391.46,-109.19 395.85,-118.83 400.91,-113.99"/>
</g>
<!-- Node3_3&#45;&gt;Node3_3_2 -->
<g id="edge12" class="edge">
<title>Node3_3&#45;&gt;Node3_3_2</title>
<path fill="none" stroke="black" d="M486.76,-116.63C477.62,-126.31 467.36,-137.19 459.07,-145.97"/>
<polygon fill="black" stroke="black" points="489.46,-118.86 493.78,-109.19 484.37,-114.06 489.46,-118.86"/>
</g>
<!-- Node3_3_2&#45;&gt;Node3_3_2c -->
<g id="edge15" class="edge">
<title>Node3_3_2&#45;&gt;Node3_3_2c</title>
<path fill="none" stroke="black" d="M440.75,-192.27C439.66,-205.58 438.37,-221.19 437.41,-232.82"/>
<polygon fill="black" stroke="black" points="444.25,-192.45 441.58,-182.2 437.27,-191.88 444.25,-192.45"/>
</g>
</g>
</g>
<!-- Node3_3_2c -->
<g class="node12" onclick="toggleChildren('children_node2_70340');">
<title>Node3_3_2c</title>
<polygon fill="#93db70" stroke="#93db70" points="494,-269 378,-269 378,-233 494,-233 494,-269"/>
<text text-anchor="middle" x="436" y="-247.3" font-family="Times,serif" font-size="14.00">स्व&#45;स्व&#45;आधिक्यम्(3)</text>
</g>
<!-- Node6_1 -->
<g id="node14" class="node">
<title>Node6_1</title>
<polygon fill="#ff1975" stroke="#ff1975" points="538.5,-356 473.5,-356 473.5,-320 538.5,-320 538.5,-356"/>
<text text-anchor="middle" x="506" y="-334.3" font-family="Times,serif" font-size="14.00">(भजेत्)(6)</text>
</g>
<!-- Node2_3_2c&#45;&gt;Node6_1 -->
<g id="edge8" class="edge">
<title>Node2_3_2c&#45;&gt;Node6_1</title>
<path fill="none" stroke="black" d="M326.99,-272.52C372.84,-289.04 435.65,-311.66 473.38,-325.25"/>
<polygon fill="black" stroke="black" points="328.07,-269.19 317.47,-269.1 325.7,-275.78 328.07,-269.19"/>
<text text-anchor="middle" x="413" y="-290.8" font-family="Times,serif" font-size="14.00">कर्ता</text>
</g>
<!-- Node3_3_2c&#45;&gt;Node6_1 -->
<g id="edge16" class="edge">
<title>Node3_3_2c&#45;&gt;Node6_1</title>
<path fill="none" stroke="black" d="M456.84,-277.31C468.14,-291.02 481.8,-307.62 491.86,-319.82"/>
<polygon fill="black" stroke="black" points="459.22,-274.7 450.17,-269.2 453.82,-279.15 459.22,-274.7"/>
<text text-anchor="middle" x="484" y="-290.8" font-family="Times,serif" font-size="14.00">कर्म</text>
</g>
<!-- Node1_1 -->
<g id="node13" class="node">
<title>Node1_1</title>
<polygon fill="#93db70" stroke="#93db70" points="574,-269 512,-269 512,-233 574,-233 574,-269"/>
<text text-anchor="middle" x="543" y="-247.3" font-family="Times,serif" font-size="14.00">नित्यम्(1)</text>
</g>
<!-- Node1_1&#45;&gt;Node6_1 -->
<g id="edge17" class="edge">
<title>Node1_1&#45;&gt;Node6_1</title>
<path fill="none" stroke="black" d="M531.47,-278.48C525.61,-291.96 518.64,-307.96 513.48,-319.82"/>
<polygon fill="black" stroke="black" points="534.73,-279.77 535.51,-269.2 528.31,-276.97 534.73,-279.77"/>
<text text-anchor="middle" x="562.5" y="-290.8" font-family="Times,serif" font-size="14.00">क्रियाविशेषणम्</text>
</g>
<!-- Node4_1 -->
<g id="node15" class="node">
<title>Node4_1</title>
<polygon fill="#c6e2eb" stroke="#c6e2eb" points="656,-182 602,-182 602,-146 656,-146 656,-182"/>
<text text-anchor="middle" x="629" y="-160.3" font-family="Times,serif" font-size="14.00">ऋतौ(4)</text>
</g>
<!-- Node5_1 -->
<g id="node16" class="node">
<title>Node5_1</title>
<polygon fill="#c6e2eb" stroke="#c6e2eb" points="656,-269 602,-269 602,-233 656,-233 656,-269"/>
<text text-anchor="middle" x="629" y="-247.3" font-family="Times,serif" font-size="14.00">ऋतौ(5)</text>
</g>
<!-- Node4_1&#45;&gt;Node5_1 -->
<g id="edge18" class="edge">
<title>Node4_1&#45;&gt;Node5_1</title>
<path fill="none" stroke="black" d="M629,-192.27C629,-205.58 629,-221.19 629,-232.82"/>
<polygon fill="black" stroke="black" points="632.5,-192.2 629,-182.2 625.5,-192.2 632.5,-192.2"/>
<text text-anchor="middle" x="643" y="-203.8" font-family="Times,serif" font-size="14.00">वीप्सा</text>
</g>
<!-- Node5_1&#45;&gt;Node6_1 -->
<g id="edge19" class="edge">
<title>Node5_1&#45;&gt;Node6_1</title>
<path fill="none" stroke="black" d="M619.68,-278.58C615.65,-286.99 610.17,-295.73 603,-302 584.94,-317.8 559.21,-326.65 538.79,-331.49"/>
<polygon fill="black" stroke="black" points="622.91,-279.93 623.64,-269.36 616.48,-277.17 622.91,-279.93"/>
<text text-anchor="middle" x="650.5" y="-290.8" font-family="Times,serif" font-size="14.00">कालाधिकरणम्</text>
</g>
</g>
</svg>
