<svg width="1593pt" height="510pt"
 viewBox="0.00 0.00 1593.00 510.00" xmlns="http://www.w3.org/2000/svg" xmlns:xlink="http://www.w3.org/1999/xlink">
<g id="graph0" class="graph" transform="scale(1 1) rotate(0) translate(4 506)">
<title>G</title>
<polygon fill="#fffacd" stroke="transparent" points="-4,4 -4,-506 1589,-506 1589,4 -4,4"/>
<g id="clust1" class="cluster">
<title>cluster_1</title>
<polygon fill="#fffacd" stroke="black" points="873,-284 873,-336 1402,-336 1402,-284 873,-284"/>
</g>
<!-- Node1_1 -->
<style>
 .hidden { display: none; }
 .node { cursor: pointer; }
 </style>
<script>
     function toggleChildren(id) {
      const children = document.getElementById(id);
      if (children.classList.contains('hidden')) {
        children.classList.remove('hidden');
      } else {
        children.classList.add('hidden');
      }
    }
</script>
<g id="children_node0_69980" class="hidden">
    <g class="node" onclick="toggleChildren('children_node0_69980');">
</g>
</g>
<g id="children_node1_69980" class="hidden">
    <g class="node" onclick="toggleChildren('children_node1_69980');">

<g id="node1" class="node">
<title>Node1_1</title>
<polygon fill="#ffff00" stroke="#ffff00" points="54,-182 0,-182 0,-146 54,-146 54,-182"/>
<text text-anchor="middle" x="27" y="-160.3" font-family="Times,serif" font-size="14.00">सौम्य&#45;</text>
</g>
<!-- Node1_2 -->
<g id="node2" class="node">
<title>Node1_2</title>
<polygon fill="#ffff00" stroke="#ffff00" points="144,-182 90,-182 90,-146 144,-146 144,-182"/>
<text text-anchor="middle" x="117" y="-160.3" font-family="Times,serif" font-size="14.00">नस्य&#45;</text>
</g>
<!-- Node1_1&#45;&gt;Node1_2 -->
<!-- Node1_2_1 -->
<g id="node3" class="node">
<title>Node1_2_1</title>
<polygon fill="#ffff00" stroke="#ffff00" points="170,-255 18,-255 18,-219 170,-219 170,-255"/>
<text text-anchor="middle" x="94" y="-233.3" font-family="Times,serif" font-size="14.00">&lt;सौम्य&#45;नस्य&#45;&gt;(इतरेतर&#45;द्वन्द्वः)</text>
</g>
<!-- Node1_1&#45;&gt;Node1_2_1 -->
<g id="edge2" class="edge">
<title>Node1_1&#45;&gt;Node1_2_1</title>
<path fill="none" stroke="black" d="M50.24,-189.63C59.38,-199.31 69.64,-210.19 77.93,-218.97"/>
<polygon fill="black" stroke="black" points="52.63,-187.06 43.22,-182.19 47.54,-191.86 52.63,-187.06"/>
</g>
<!-- Node1_2&#45;&gt;Node1_2_1 -->
<g id="edge1" class="edge">
<title>Node1_2&#45;&gt;Node1_2_1</title>
<path fill="none" stroke="black" d="M108.27,-191.95C105.33,-201.02 102.14,-210.88 99.52,-218.97"/>
<polygon fill="black" stroke="black" points="111.68,-192.78 111.43,-182.19 105.02,-190.62 111.68,-192.78"/>
</g>
<!-- Node1_3 -->
<g id="node4" class="node">
<title>Node1_3</title>
<polygon fill="#ffff00" stroke="#ffff00" points="260,-255 206,-255 206,-219 260,-219 260,-255"/>
<text text-anchor="middle" x="233" y="-233.3" font-family="Times,serif" font-size="14.00">कृतः</text>
</g>
<!-- Node1_2_1&#45;&gt;Node1_3 -->
<!-- Node1_3_2 -->
<g id="node5" class="node">
<title>Node1_3_2</title>
<polygon fill="#ffff00" stroke="#ffff00" points="333,-328 63,-328 63,-292 333,-292 333,-328"/>
<text text-anchor="middle" x="198" y="-306.3" font-family="Times,serif" font-size="14.00">&lt;&lt;सौम्य&#45;नस्य&#45;&gt;(इतरेतर&#45;द्वन्द्वः)कृतः&gt;(तृतीया&#45;तत्पुरुषः)</text>
</g>
<!-- Node1_2_1&#45;&gt;Node1_3_2 -->
<g id="edge5" class="edge">
<title>Node1_2_1&#45;&gt;Node1_3_2</title>
<path fill="none" stroke="black" d="M127.31,-260.74C142.11,-270.85 159.24,-282.54 172.93,-291.89"/>
<polygon fill="black" stroke="black" points="129.14,-257.75 118.91,-255.01 125.2,-263.54 129.14,-257.75"/>
</g>
<!-- Node1_3&#45;&gt;Node1_3_2 -->
<g id="edge4" class="edge">
<title>Node1_3&#45;&gt;Node1_3_2</title>
<path fill="none" stroke="black" d="M220,-264.37C215.45,-273.6 210.47,-283.71 206.39,-291.97"/>
<polygon fill="black" stroke="black" points="223.25,-265.7 224.53,-255.19 216.97,-262.61 223.25,-265.7"/>
</g>
<!-- Node1_3_2&#45;&gt;Node1_3_2c -->
<g id="edge7" class="edge">
<title>Node1_3_2&#45;&gt;Node1_3_2c</title>
<path fill="none" stroke="black" d="M300.19,-329.7C314.21,-331.98 328.44,-334.16 342,-336 546.76,-363.82 791.92,-384 897.9,-392.09"/>
<polygon fill="black" stroke="black" points="300.46,-326.2 290.03,-328.02 299.32,-333.1 300.46,-326.2"/>
</g>
</g>
</g>
<!-- Node1_3_2c -->
<g class="node6" onclick="toggleChildren('children_node1_69980');">
<title>Node1_3_2c</title>
<polygon fill="#00bfff" stroke="#00bfff" points="1004,-415 898,-415 898,-379 1004,-379 1004,-415"/>
<text text-anchor="middle" x="951" y="-393.3" font-family="Times,serif" font-size="14.00">सौम्य&#45;नस्य&#45;कृतः(1)</text>
</g>
<g id="children_node2_69980" class="hidden">
    <g class="node" onclick="toggleChildren('children_node2_69980');">
<!-- Node6_5 -->
<g id="node7" class="node">
<title>Node6_5</title>
<polygon fill="#ffff00" stroke="#ffff00" points="873,-36 819,-36 819,0 873,0 873,-36"/>
<text text-anchor="middle" x="846" y="-14.3" font-family="Times,serif" font-size="14.00">मार्द्वीक&#45;</text>
</g>
<!-- Node6_6 -->
<g id="node8" class="node">
<title>Node6_6</title>
<polygon fill="#ffff00" stroke="#ffff00" points="963.5,-36 908.5,-36 908.5,0 963.5,0 963.5,-36"/>
<text text-anchor="middle" x="936" y="-14.3" font-family="Times,serif" font-size="14.00">माधवान्</text>
</g>
<!-- Node6_5&#45;&gt;Node6_6 -->
<!-- Node6_6_1 -->
<g id="node9" class="node">
<title>Node6_6_1</title>
<polygon fill="#ffff00" stroke="#ffff00" points="986,-109 812,-109 812,-73 986,-73 986,-109"/>
<text text-anchor="middle" x="899" y="-87.3" font-family="Times,serif" font-size="14.00">&lt;मार्द्वीक&#45;माधवान्&gt;(इतरेतर&#45;द्वन्द्वः)</text>
</g>
<!-- Node6_5&#45;&gt;Node6_6_1 -->
<g id="edge10" class="edge">
<title>Node6_5&#45;&gt;Node6_6_1</title>
<path fill="none" stroke="black" d="M864.82,-44.21C871.94,-53.74 879.86,-64.36 886.29,-72.97"/>
<polygon fill="black" stroke="black" points="867.62,-42.11 858.83,-36.19 862.01,-46.29 867.62,-42.11"/>
</g>
<!-- Node6_6&#45;&gt;Node6_6_1 -->
<g id="edge9" class="edge">
<title>Node6_6&#45;&gt;Node6_6_1</title>
<path fill="none" stroke="black" d="M922.41,-45.08C917.56,-54.39 912.22,-64.62 907.87,-72.97"/>
<polygon fill="black" stroke="black" points="925.53,-46.67 927.04,-36.19 919.32,-43.44 925.53,-46.67"/>
</g>
<!-- Node6_6_2 -->
<g id="node11" class="node">
<title>Node6_6_2</title>
<polygon fill="#ffff00" stroke="#ffff00" points="980,-182 698,-182 698,-146 980,-146 980,-182"/>
<text text-anchor="middle" x="839" y="-160.3" font-family="Times,serif" font-size="14.00">&lt;सीधु&#45;&lt;मार्द्वीक&#45;माधवान्&gt;(इतरेतर&#45;द्वन्द्वः)&gt;(इतरेतर&#45;द्वन्द्वः)</text>
</g>
<!-- Node6_6_1&#45;&gt;Node6_6_2 -->
<g id="edge12" class="edge">
<title>Node6_6_1&#45;&gt;Node6_6_2</title>
<path fill="none" stroke="black" d="M877.94,-116.92C869.82,-126.53 860.74,-137.27 853.39,-145.97"/>
<polygon fill="black" stroke="black" points="880.69,-119.08 884.48,-109.19 875.35,-114.57 880.69,-119.08"/>
</g>
<!-- Node6_4 -->
<g id="node10" class="node">
<title>Node6_4</title>
<polygon fill="#ffff00" stroke="#ffff00" points="776,-109 722,-109 722,-73 776,-73 776,-109"/>
<text text-anchor="middle" x="749" y="-87.3" font-family="Times,serif" font-size="14.00">सीधु&#45;</text>
</g>
<!-- Node6_4&#45;&gt;Node6_6_1 -->
<!-- Node6_4&#45;&gt;Node6_6_2 -->
<g id="edge13" class="edge">
<title>Node6_4&#45;&gt;Node6_6_2</title>
<path fill="none" stroke="black" d="M778.77,-115.49C791.4,-125.45 805.84,-136.84 817.41,-145.97"/>
<polygon fill="black" stroke="black" points="780.81,-112.63 770.79,-109.19 776.47,-118.13 780.81,-112.63"/>
</g>
<!-- Node6_6_3 -->
<g id="node13" class="node">
<title>Node6_6_3</title>
<polygon fill="#ffff00" stroke="#ffff00" points="934.5,-255 539.5,-255 539.5,-219 934.5,-219 934.5,-255"/>
<text text-anchor="middle" x="737" y="-233.3" font-family="Times,serif" font-size="14.00">&lt;अरिष्ट&#45;&lt;सीधु&#45;&lt;मार्द्वीक&#45;माधवान्&gt;(इतरेतर&#45;द्वन्द्वः)&gt;(इतरेतर&#45;द्वन्द्वः)&gt;(इतरेतर&#45;द्वन्द्वः)</text>
</g>
<!-- Node6_6_2&#45;&gt;Node6_6_3 -->
<g id="edge15" class="edge">
<title>Node6_6_2&#45;&gt;Node6_6_3</title>
<path fill="none" stroke="black" d="M806.33,-187.74C791.81,-197.85 775.01,-209.54 761.59,-218.89"/>
<polygon fill="black" stroke="black" points="808.36,-190.59 814.57,-182.01 804.36,-184.85 808.36,-190.59"/>
</g>
<!-- Node6_3 -->
<g id="node12" class="node">
<title>Node6_3</title>
<polygon fill="#ffff00" stroke="#ffff00" points="662,-182 608,-182 608,-146 662,-146 662,-182"/>
<text text-anchor="middle" x="635" y="-160.3" font-family="Times,serif" font-size="14.00">अरिष्ट&#45;</text>
</g>
<!-- Node6_3&#45;&gt;Node6_6_2 -->
<!-- Node6_3&#45;&gt;Node6_6_3 -->
<g id="edge16" class="edge">
<title>Node6_3&#45;&gt;Node6_6_3</title>
<path fill="none" stroke="black" d="M667.67,-187.74C682.19,-197.85 698.99,-209.54 712.41,-218.89"/>
<polygon fill="black" stroke="black" points="669.64,-184.85 659.43,-182.01 665.64,-190.59 669.64,-184.85"/>
</g>
<!-- Node6_6_4 -->
<g id="node15" class="node">
<title>Node6_6_4</title>
<polygon fill="#ffff00" stroke="#ffff00" points="863,-328 351,-328 351,-292 863,-292 863,-328"/>
<text text-anchor="middle" x="607" y="-306.3" font-family="Times,serif" font-size="14.00">&lt;आसव&#45;&lt;अरिष्ट&#45;&lt;सीधु&#45;&lt;मार्द्वीक&#45;माधवान्&gt;(इतरेतर&#45;द्वन्द्वः)&gt;(इतरेतर&#45;द्वन्द्वः)&gt;(इतरेतर&#45;द्वन्द्वः)&gt;(इतरेतर&#45;द्वन्द्वः)</text>
</g>
<!-- Node6_6_3&#45;&gt;Node6_6_4 -->
<g id="edge18" class="edge">
<title>Node6_6_3&#45;&gt;Node6_6_4</title>
<path fill="none" stroke="black" d="M696.91,-259.9C678.06,-270.19 655.93,-282.28 638.33,-291.89"/>
<polygon fill="black" stroke="black" points="698.76,-262.87 705.86,-255.01 695.41,-256.73 698.76,-262.87"/>
</g>
<!-- Node6_2 -->
<g id="node14" class="node">
<title>Node6_2</title>
<polygon fill="#ffff00" stroke="#ffff00" points="504,-255 450,-255 450,-219 504,-219 504,-255"/>
<text text-anchor="middle" x="477" y="-233.3" font-family="Times,serif" font-size="14.00">आसव&#45;</text>
</g>
<!-- Node6_2&#45;&gt;Node6_6_3 -->
<!-- Node6_2&#45;&gt;Node6_6_4 -->
<g id="edge19" class="edge">
<title>Node6_2&#45;&gt;Node6_6_4</title>
<path fill="none" stroke="black" d="M513.21,-257.78C532.84,-268.5 556.85,-281.61 575.67,-291.89"/>
<polygon fill="black" stroke="black" points="514.71,-254.61 504.25,-252.88 511.35,-260.75 514.71,-254.61"/>
</g>
<!-- Node6_6_4&#45;&gt;Node6_6_4c -->
<g id="edge21" class="edge">
<title>Node6_6_4&#45;&gt;Node6_6_4c</title>
<path fill="none" stroke="black" d="M722.55,-329.67C815.89,-344.76 945.84,-365.76 1034.35,-380.06"/>
<polygon fill="black" stroke="black" points="722.93,-326.19 712.5,-328.05 721.81,-333.1 722.93,-326.19"/>
</g>
</g>
</g>
<!-- Node6_6_4c -->
<g class="node16" onclick="toggleChildren('children_node2_69980');">
<title>Node6_6_4c</title>
<polygon fill="#93db70" stroke="#93db70" points="1231.5,-415 1034.5,-415 1034.5,-379 1231.5,-379 1231.5,-415"/>
<text text-anchor="middle" x="1133" y="-393.3" font-family="Times,serif" font-size="14.00">आसव&#45;अरिष्ट&#45;सीधु&#45;मार्द्वीक&#45;माधवान्(6)</text>
</g>
<!-- Node5_1 -->
<g id="node24" class="node">
<title>Node5_1</title>
<polygon fill="#ff1975" stroke="#ff1975" points="1162.5,-502 1103.5,-502 1103.5,-466 1162.5,-466 1162.5,-502"/>
<text text-anchor="middle" x="1133" y="-480.3" font-family="Times,serif" font-size="14.00">पिबेत्(5)</text>
</g>
<!-- Node1_3_2c&#45;&gt;Node5_1 -->
<g id="edge8" class="edge">
<title>Node1_3_2c&#45;&gt;Node5_1</title>
<path fill="none" stroke="black" d="M996.94,-419.46C1030.36,-435.06 1074.61,-455.73 1103.43,-469.19"/>
<polygon fill="black" stroke="black" points="998.37,-416.26 987.83,-415.2 995.41,-422.6 998.37,-416.26"/>
<text text-anchor="middle" x="1063" y="-436.8" font-family="Times,serif" font-size="14.00">कर्ता</text>
</g>
<!-- Node6_6_4c&#45;&gt;Node5_1 -->
<g id="edge22" class="edge">
<title>Node6_6_4c&#45;&gt;Node5_1</title>
<path fill="none" stroke="black" d="M1133,-425.27C1133,-438.58 1133,-454.19 1133,-465.82"/>
<polygon fill="black" stroke="black" points="1136.5,-425.2 1133,-415.2 1129.5,-425.2 1136.5,-425.2"/>
<text text-anchor="middle" x="1142" y="-436.8" font-family="Times,serif" font-size="14.00">कर्म</text>
</g>
<!-- Node2_1 -->
<g id="node17" class="node">
<title>Node2_1</title>
<polygon fill="#93db70" stroke="#93db70" points="1122.5,-328 1063.5,-328 1063.5,-292 1122.5,-292 1122.5,-328"/>
<text text-anchor="middle" x="1093" y="-306.3" font-family="Times,serif" font-size="14.00">हृद्यान्(2)</text>
</g>
<!-- Node2_1&#45;&gt;Node6_6_4c -->
<g id="edge23" class="edge">
<title>Node2_1&#45;&gt;Node6_6_4c</title>
<path fill="none" stroke="black" d="M1095.86,-338.29C1097.34,-345.9 1099.59,-354 1103,-361 1106.08,-367.33 1110.59,-373.45 1115.18,-378.75"/>
<polygon fill="black" stroke="black" points="1099.31,-337.68 1094.28,-328.36 1092.4,-338.78 1099.31,-337.68"/>
<text text-anchor="middle" x="1125.5" y="-349.8" font-family="Times,serif" font-size="14.00">समुच्चितः</text>
</g>
<!-- Node12_1 -->
<g id="node18" class="node">
<title>Node12_1</title>
<polygon fill="#93db70" stroke="#93db70" points="1215,-328 1141,-328 1141,-292 1215,-292 1215,-328"/>
<text text-anchor="middle" x="1178" y="-306.3" font-family="Times,serif" font-size="14.00">निर्गदान्(12)</text>
</g>
<!-- Node12_1&#45;&gt;Node6_6_4c -->
<g id="edge26" class="edge">
<title>Node12_1&#45;&gt;Node6_6_4c</title>
<path fill="none" stroke="black" d="M1164.19,-337.09C1157.01,-350.65 1148.43,-366.85 1142.09,-378.82"/>
<polygon fill="black" stroke="black" points="1167.31,-338.68 1168.89,-328.2 1161.12,-335.4 1167.31,-338.68"/>
<text text-anchor="middle" x="1180.5" y="-349.8" font-family="Times,serif" font-size="14.00">समुच्चितः</text>
</g>
<!-- Node7_1 -->
<g id="node19" class="node">
<title>Node7_1</title>
<polygon fill="#93db70" stroke="#93db70" points="1310.5,-328 1233.5,-328 1233.5,-292 1310.5,-292 1310.5,-328"/>
<text text-anchor="middle" x="1272" y="-306.3" font-family="Times,serif" font-size="14.00">शृङ्गबेराम्बु(7)</text>
</g>
<!-- Node7_1&#45;&gt;Node6_6_4c -->
<g id="edge27" class="edge">
<title>Node7_1&#45;&gt;Node6_6_4c</title>
<path fill="none" stroke="black" d="M1243.95,-334.68C1232.83,-343.5 1219.68,-353.25 1207,-361 1196.33,-367.52 1184.25,-373.7 1172.99,-378.99"/>
<polygon fill="black" stroke="black" points="1246.44,-337.17 1252.02,-328.16 1242.04,-331.72 1246.44,-337.17"/>
<text text-anchor="middle" x="1249.5" y="-349.8" font-family="Times,serif" font-size="14.00">समुच्चितः</text>
</g>
<!-- Node8_1 -->
<g id="node20" class="node">
<title>Node8_1</title>
<polygon fill="#93db70" stroke="#93db70" points="1393.5,-328 1328.5,-328 1328.5,-292 1393.5,-292 1393.5,-328"/>
<text text-anchor="middle" x="1361" y="-306.3" font-family="Times,serif" font-size="14.00">साराम्बु(8)</text>
</g>
<!-- Node8_1&#45;&gt;Node6_6_4c -->
<g id="edge28" class="edge">
<title>Node8_1&#45;&gt;Node6_6_4c</title>
<path fill="none" stroke="black" d="M1324.51,-333.33C1322.99,-334.23 1321.48,-335.13 1320,-336 1300.62,-347.41 1296.9,-352.69 1276,-361 1258.07,-368.13 1238.27,-374.1 1219.28,-378.97"/>
<polygon fill="black" stroke="black" points="1326.51,-336.21 1333.28,-328.06 1322.91,-330.21 1326.51,-336.21"/>
<text text-anchor="middle" x="1325.5" y="-349.8" font-family="Times,serif" font-size="14.00">समुच्चितः</text>
</g>
<!-- Node9_1 -->
<g id="node21" class="node">
<title>Node9_1</title>
<polygon fill="#93db70" stroke="#93db70" points="946.5,-328 881.5,-328 881.5,-292 946.5,-292 946.5,-328"/>
<text text-anchor="middle" x="914" y="-306.3" font-family="Times,serif" font-size="14.00">मध्वम्बु(9)</text>
</g>
<!-- Node9_1&#45;&gt;Node6_6_4c -->
<g id="edge29" class="edge">
<title>Node9_1&#45;&gt;Node6_6_4c</title>
<path fill="none" stroke="black" d="M940.67,-334.54C952.61,-344 967.29,-354.24 982,-361 998.38,-368.53 1016.53,-374.52 1034.4,-379.25"/>
<polygon fill="black" stroke="black" points="942.84,-331.79 932.88,-328.17 938.41,-337.21 942.84,-331.79"/>
<text text-anchor="middle" x="1004.5" y="-349.8" font-family="Times,serif" font-size="14.00">समुच्चितः</text>
</g>
<!-- Node10_1 -->
<g id="node22" class="node">
<title>Node10_1</title>
<polygon fill="#93db70" stroke="#93db70" points="1045,-328 965,-328 965,-292 1045,-292 1045,-328"/>
<text text-anchor="middle" x="1005" y="-306.3" font-family="Times,serif" font-size="14.00">जलदाम्बु(10)</text>
</g>
<!-- Node10_1&#45;&gt;Node6_6_4c -->
<g id="edge30" class="edge">
<title>Node10_1&#45;&gt;Node6_6_4c</title>
<path fill="none" stroke="black" d="M1022.78,-336.21C1029.86,-344.92 1038.58,-354.19 1048,-361 1057.83,-368.1 1069.32,-374.07 1080.61,-378.96"/>
<polygon fill="black" stroke="black" points="1025.41,-333.88 1016.52,-328.12 1019.87,-338.17 1025.41,-333.88"/>
<text text-anchor="middle" x="1070.5" y="-349.8" font-family="Times,serif" font-size="14.00">समुच्चितः</text>
</g>
<!-- Node3_1 -->
<g id="node23" class="node">
<title>Node3_1</title>
<polygon fill="#40e0d0" stroke="#40e0d0" points="1450.5,-415 1385.5,-415 1385.5,-379 1450.5,-379 1450.5,-415"/>
<text text-anchor="middle" x="1418" y="-393.3" font-family="Times,serif" font-size="14.00">वयस्यैः(3)</text>
</g>
<!-- Node3_1&#45;&gt;Node5_1 -->
<g id="edge24" class="edge">
<title>Node3_1&#45;&gt;Node5_1</title>
<path fill="none" stroke="black" d="M1375.65,-410.63C1317.28,-428.04 1213.56,-458.97 1162.74,-474.13"/>
<polygon fill="black" stroke="black" points="1376.72,-413.96 1385.31,-407.75 1374.72,-407.25 1376.72,-413.96"/>
<text text-anchor="middle" x="1308" y="-436.8" font-family="Times,serif" font-size="14.00">सहार्थः</text>
</g>
<!-- Node4_1 -->
<g id="node25" class="node">
<title>Node4_1</title>
<polygon fill="#00bfff" stroke="#00bfff" points="1559,-328 1497,-328 1497,-292 1559,-292 1559,-328"/>
<text text-anchor="middle" x="1528" y="-306.3" font-family="Times,serif" font-size="14.00">सहितः(4)</text>
</g>
<!-- Node4_1&#45;&gt;Node3_1 -->
<g id="edge25" class="edge">
<title>Node4_1&#45;&gt;Node3_1</title>
<path fill="none" stroke="black" d="M1520.67,-337.69C1517.32,-346.01 1512.57,-354.66 1506,-361 1490.85,-375.61 1468.85,-384.36 1450.64,-389.46"/>
<polygon fill="black" stroke="black" points="1523.98,-338.83 1524,-328.23 1517.38,-336.5 1523.98,-338.83"/>
<text text-anchor="middle" x="1550.5" y="-349.8" font-family="Times,serif" font-size="14.00">सहार्थ_द्योतकः</text>
</g>
<!-- Node11_1 -->
<g id="node26" class="node">
<title>Node11_1</title>
<polygon fill="#ff99ff" stroke="#ff99ff" points="1466,-328 1412,-328 1412,-292 1466,-292 1466,-328"/>
<text text-anchor="middle" x="1439" y="-306.3" font-family="Times,serif" font-size="14.00">च(11)</text>
</g>
<!-- Node11_1&#45;&gt;Node6_6_4c -->
<g id="edge31" class="edge">
<title>Node11_1&#45;&gt;Node6_6_4c</title>
<path fill="none" stroke="black" d="M1409.34,-333.92C1408.23,-334.64 1407.11,-335.33 1406,-336 1383.33,-349.62 1377.3,-353.28 1352,-361 1313.42,-372.77 1269.75,-380.76 1231.61,-386.11"/>
<polygon fill="black" stroke="black" points="1411.55,-336.65 1417.81,-328.1 1407.59,-330.88 1411.55,-336.65"/>
<text text-anchor="middle" x="1427.5" y="-349.8" font-family="Times,serif" font-size="14.00">समुच्चय_द्योतकः</text>
</g>
</g>
</svg>
