<svg width="1545pt" height="625pt"
 viewBox="0.00 0.00 1545.00 625.00" xmlns="http://www.w3.org/2000/svg" xmlns:xlink="http://www.w3.org/1999/xlink">
<g id="graph0" class="graph" transform="scale(1 1) rotate(0) translate(4 621)">
<title>G</title>
<polygon fill="#fffacd" stroke="transparent" points="-4,4 -4,-621 1541,-621 1541,4 -4,4"/>
<g id="clust1" class="cluster">
<title>cluster_1</title>
<polygon fill="#fffacd" stroke="black" points="975,-312 975,-364 1295,-364 1295,-312 975,-312"/>
</g>
<!-- Node2_2 -->
<style>
 .hidden { display: none; }
 .node { cursor: pointer; }
 </style>
<script>
     function toggleChildren(id) {
      const children = document.getElementById(id);
      if (children.classList.contains('hidden')) {
        children.classList.remove('hidden');
      } else {
        children.classList.add('hidden');
      }
    }
</script>
<g id="children_node0_88126" class="hidden">
    <g class="node" onclick="toggleChildren('children_node0_88126');">
</g>
</g>
<g id="children_node1_88126" class="hidden">
    <g class="node" onclick="toggleChildren('children_node1_88126');">

<g id="node1" class="node">
<title>Node2_2</title>
<polygon fill="#ffff00" stroke="#ffff00" points="145,-36 91,-36 91,0 145,0 145,-36"/>
<text text-anchor="middle" x="118" y="-14.3" font-family="Times,serif" font-size="14.00">आहार&#45;</text>
</g>
<!-- Node2_3 -->
<g id="node2" class="node">
<title>Node2_3</title>
<polygon fill="#ffff00" stroke="#ffff00" points="235,-36 181,-36 181,0 235,0 235,-36"/>
<text text-anchor="middle" x="208" y="-14.3" font-family="Times,serif" font-size="14.00">विहार&#45;</text>
</g>
<!-- Node2_2&#45;&gt;Node2_3 -->
<!-- Node2_3_1 -->
<g id="node3" class="node">
<title>Node2_3_1</title>
<polygon fill="#ffff00" stroke="#ffff00" points="252.5,-109 89.5,-109 89.5,-73 252.5,-73 252.5,-109"/>
<text text-anchor="middle" x="171" y="-87.3" font-family="Times,serif" font-size="14.00">&lt;आहार&#45;विहार&#45;&gt;(इतरेतर&#45;द्वन्द्वः)</text>
</g>
<!-- Node2_2&#45;&gt;Node2_3_1 -->
<g id="edge2" class="edge">
<title>Node2_2&#45;&gt;Node2_3_1</title>
<path fill="none" stroke="black" d="M136.82,-44.21C143.94,-53.74 151.86,-64.36 158.29,-72.97"/>
<polygon fill="black" stroke="black" points="139.62,-42.11 130.83,-36.19 134.01,-46.29 139.62,-42.11"/>
</g>
<!-- Node2_3&#45;&gt;Node2_3_1 -->
<g id="edge1" class="edge">
<title>Node2_3&#45;&gt;Node2_3_1</title>
<path fill="none" stroke="black" d="M194.41,-45.08C189.56,-54.39 184.22,-64.62 179.87,-72.97"/>
<polygon fill="black" stroke="black" points="197.53,-46.67 199.04,-36.19 191.32,-43.44 197.53,-46.67"/>
</g>
<!-- Node2_3_2 -->
<g id="node5" class="node">
<title>Node2_3_2</title>
<polygon fill="#ffff00" stroke="#ffff00" points="263.5,-182 6.5,-182 6.5,-146 263.5,-146 263.5,-182"/>
<text text-anchor="middle" x="135" y="-160.3" font-family="Times,serif" font-size="14.00">&lt;हित&#45;&lt;आहार&#45;विहार&#45;&gt;(इतरेतर&#45;द्वन्द्वः)&gt;(कर्मधारयः)</text>
</g>
<!-- Node2_3_1&#45;&gt;Node2_3_2 -->
<g id="edge4" class="edge">
<title>Node2_3_1&#45;&gt;Node2_3_2</title>
<path fill="none" stroke="black" d="M157.63,-118.37C152.95,-127.6 147.82,-137.71 143.63,-145.97"/>
<polygon fill="black" stroke="black" points="160.88,-119.69 162.29,-109.19 154.64,-116.52 160.88,-119.69"/>
</g>
<!-- Node2_1 -->
<g id="node4" class="node">
<title>Node2_1</title>
<polygon fill="#ffff00" stroke="#ffff00" points="54,-109 0,-109 0,-73 54,-73 54,-109"/>
<text text-anchor="middle" x="27" y="-87.3" font-family="Times,serif" font-size="14.00">हित&#45;</text>
</g>
<!-- Node2_1&#45;&gt;Node2_3_1 -->
<!-- Node2_1&#45;&gt;Node2_3_2 -->
<g id="edge5" class="edge">
<title>Node2_1&#45;&gt;Node2_3_2</title>
<path fill="none" stroke="black" d="M61.59,-114.74C76.96,-124.85 94.75,-136.54 108.97,-145.89"/>
<polygon fill="black" stroke="black" points="63.15,-111.58 52.87,-109.01 59.3,-117.42 63.15,-111.58"/>
</g>
<!-- Node2_4 -->
<g id="node6" class="node">
<title>Node2_4</title>
<polygon fill="#ffff00" stroke="#ffff00" points="353,-182 299,-182 299,-146 353,-146 353,-182"/>
<text text-anchor="middle" x="326" y="-160.3" font-family="Times,serif" font-size="14.00">सेवी</text>
</g>
<!-- Node2_3_2&#45;&gt;Node2_4 -->
<!-- Node2_4_3 -->
<g id="node7" class="node">
<title>Node2_4_3</title>
<polygon fill="#ffff00" stroke="#ffff00" points="464,-269 92,-269 92,-233 464,-233 464,-269"/>
<text text-anchor="middle" x="278" y="-247.3" font-family="Times,serif" font-size="14.00">&lt;&lt;हित&#45;&lt;आहार&#45;विहार&#45;&gt;(इतरेतर&#45;द्वन्द्वः)&gt;(कर्मधारयः)सेवी&gt;(उपपद&#45;तत्पुरुषः)</text>
</g>
<!-- Node2_3_2&#45;&gt;Node2_4_3 -->
<g id="edge8" class="edge">
<title>Node2_3_2&#45;&gt;Node2_4_3</title>
<path fill="none" stroke="black" d="M172.75,-187.44C196.67,-201.65 227.12,-219.75 249.1,-232.82"/>
<polygon fill="black" stroke="black" points="174.32,-184.3 163.94,-182.2 170.75,-190.32 174.32,-184.3"/>
</g>
<!-- Node2_4&#45;&gt;Node2_4_3 -->
<g id="edge7" class="edge">
<title>Node2_4&#45;&gt;Node2_4_3</title>
<path fill="none" stroke="black" d="M311.27,-191.09C303.61,-204.65 294.46,-220.85 287.7,-232.82"/>
<polygon fill="black" stroke="black" points="314.42,-192.63 316.29,-182.2 308.32,-189.19 314.42,-192.63"/>
</g>
<!-- Node2_4_3&#45;&gt;Node2_4_3c -->
<g id="edge10" class="edge">
<title>Node2_4_3&#45;&gt;Node2_4_3c</title>
<path fill="none" stroke="black" d="M315.49,-274.44C339.24,-288.65 369.47,-306.75 391.31,-319.82"/>
<polygon fill="black" stroke="black" points="317.11,-271.33 306.74,-269.2 313.52,-277.34 317.11,-271.33"/>
</g>
</g>
</g>
<!-- Node2_4_3c -->
<g class="node8" onclick="toggleChildren('children_node1_88126');">
<title>Node2_4_3c</title>
<polygon fill="#00bfff" stroke="#00bfff" points="489,-356 351,-356 351,-320 489,-320 489,-356"/>
<text text-anchor="middle" x="420" y="-334.3" font-family="Times,serif" font-size="14.00">हित&#45;आहार&#45;विहार&#45;सेवी(2)</text>
</g>
<g id="children_node2_88126" class="hidden">
    <g class="node" onclick="toggleChildren('children_node2_88126');">
<!-- Node10_1 -->
<g id="node17" class="node">
<title>Node10_1</title>
<polygon fill="#ffff00" stroke="#ffff00" points="904,-269 850,-269 850,-233 904,-233 904,-269"/>
<text text-anchor="middle" x="877" y="-247.3" font-family="Times,serif" font-size="14.00">आप्त&#45;</text>
</g>
<!-- Node10_2 -->
<g id="node18" class="node">
<title>Node10_2</title>
<polygon fill="#ffff00" stroke="#ffff00" points="994,-269 940,-269 940,-233 994,-233 994,-269"/>
<text text-anchor="middle" x="967" y="-247.3" font-family="Times,serif" font-size="14.00">उपसेवी</text>
</g>
<!-- Node10_1&#45;&gt;Node10_2 -->
<!-- Node10_2_1 -->
<g id="node19" class="node">
<title>Node10_2_1</title>
<polygon fill="#ffff00" stroke="#ffff00" points="965,-356 789,-356 789,-320 965,-320 965,-356"/>
<text text-anchor="middle" x="877" y="-334.3" font-family="Times,serif" font-size="14.00">&lt;आप्त&#45;उपसेवी&gt;(उपपद&#45;तत्पुरुषः)</text>
</g>
<!-- Node10_1&#45;&gt;Node10_2_1 -->
<g id="edge23" class="edge">
<title>Node10_1&#45;&gt;Node10_2_1</title>
<path fill="none" stroke="black" d="M877,-279.27C877,-292.58 877,-308.19 877,-319.82"/>
<polygon fill="black" stroke="black" points="880.5,-279.2 877,-269.2 873.5,-279.2 880.5,-279.2"/>
</g>
<!-- Node10_2&#45;&gt;Node10_2_1 -->
<g id="edge22" class="edge">
<title>Node10_2&#45;&gt;Node10_2_1</title>
<path fill="none" stroke="black" d="M941.43,-276.15C926.68,-290.08 908.48,-307.27 895.19,-319.82"/>
<polygon fill="black" stroke="black" points="943.92,-278.61 948.79,-269.2 939.11,-273.52 943.92,-278.61"/>
</g>
<!-- Node10_2_1&#45;&gt;Node10_2_1c -->
<g id="edge25" class="edge">
<title>Node10_2_1&#45;&gt;Node10_2_1c</title>
<path fill="none" stroke="black" d="M912.41,-361.63C934.6,-375.81 962.76,-393.81 983.13,-406.82"/>
<polygon fill="black" stroke="black" points="914.23,-358.64 903.91,-356.2 910.46,-364.54 914.23,-358.64"/>
</g>
</g>
</g>
<!-- Node10_2_1c -->
<g class="node20" onclick="toggleChildren('children_node2_88126');">
<title>Node10_2_1c</title>
<polygon fill="#00bfff" stroke="#00bfff" points="1061.5,-443 958.5,-443 958.5,-407 1061.5,-407 1061.5,-443"/>
<text text-anchor="middle" x="1010" y="-421.3" font-family="Times,serif" font-size="14.00">आप्त&#45;उपसेवी(10)</text>
</g>
<g id="children_node3_88126" class="hidden">
    <g class="node" onclick="toggleChildren('children_node3_88126');">
<!-- Node3_1 -->
<g id="node9" class="node">
<title>Node3_1</title>
<polygon fill="#ffff00" stroke="#ffff00" points="556.5,-182 501.5,-182 501.5,-146 556.5,-146 556.5,-182"/>
<text text-anchor="middle" x="529" y="-160.3" font-family="Times,serif" font-size="14.00">समीक्ष्य&#45;</text>
</g>
<!-- Node3_2 -->
<g id="node10" class="node">
<title>Node3_2</title>
<polygon fill="#ffff00" stroke="#ffff00" points="646,-182 592,-182 592,-146 646,-146 646,-182"/>
<text text-anchor="middle" x="619" y="-160.3" font-family="Times,serif" font-size="14.00">कारी</text>
</g>
<!-- Node3_1&#45;&gt;Node3_2 -->
<!-- Node3_2_1 -->
<g id="node11" class="node">
<title>Node3_2_1</title>
<polygon fill="#ffff00" stroke="#ffff00" points="654,-269 482,-269 482,-233 654,-233 654,-269"/>
<text text-anchor="middle" x="568" y="-247.3" font-family="Times,serif" font-size="14.00">&lt;समीक्ष्य&#45;कारी&gt;(उपपद&#45;तत्पुरुषः)</text>
</g>
<!-- Node3_1&#45;&gt;Node3_2_1 -->
<g id="edge13" class="edge">
<title>Node3_1&#45;&gt;Node3_2_1</title>
<path fill="none" stroke="black" d="M541.15,-191.48C547.33,-204.96 554.68,-220.96 560.12,-232.82"/>
<polygon fill="black" stroke="black" points="544.24,-189.83 536.89,-182.2 537.88,-192.75 544.24,-189.83"/>
</g>
<!-- Node3_2&#45;&gt;Node3_2_1 -->
<g id="edge12" class="edge">
<title>Node3_2&#45;&gt;Node3_2_1</title>
<path fill="none" stroke="black" d="M603.35,-191.09C595.21,-204.65 585.49,-220.85 578.31,-232.82"/>
<polygon fill="black" stroke="black" points="606.54,-192.58 608.68,-182.2 600.53,-188.98 606.54,-192.58"/>
</g>
<!-- Node3_2_1&#45;&gt;Node3_2_1c -->
<g id="edge15" class="edge">
<title>Node3_2_1&#45;&gt;Node3_2_1c</title>
<path fill="none" stroke="black" d="M578.43,-278.87C583.63,-292.27 589.77,-308.08 594.33,-319.82"/>
<polygon fill="black" stroke="black" points="581.56,-277.26 574.68,-269.2 575.03,-279.79 581.56,-277.26"/>
</g>
</g>
</g>
<!-- Node3_2_1c -->
<g class="node12" onclick="toggleChildren('children_node3_88126');">
<title>Node3_2_1c</title>
<polygon fill="#00bfff" stroke="#00bfff" points="647,-356 555,-356 555,-320 647,-320 647,-356"/>
<text text-anchor="middle" x="601" y="-334.3" font-family="Times,serif" font-size="14.00">समीक्ष्य&#45;कारी(3)</text>
</g>
<g id="children_node4_88126" class="hidden">
    <g class="node" onclick="toggleChildren('children_node4_88126');">
<!-- Node8_1 -->
<g id="node13" class="node">
<title>Node8_1</title>
<polygon fill="#ffff00" stroke="#ffff00" points="733,-182 679,-182 679,-146 733,-146 733,-182"/>
<text text-anchor="middle" x="706" y="-160.3" font-family="Times,serif" font-size="14.00">सत्य&#45;</text>
</g>
<!-- Node8_2 -->
<g id="node14" class="node">
<title>Node8_2</title>
<polygon fill="#ffff00" stroke="#ffff00" points="823,-182 769,-182 769,-146 823,-146 823,-182"/>
<text text-anchor="middle" x="796" y="-160.3" font-family="Times,serif" font-size="14.00">परः</text>
</g>
<!-- Node8_1&#45;&gt;Node8_2 -->
<!-- Node8_2_1 -->
<g id="node15" class="node">
<title>Node8_2_1</title>
<polygon fill="#ffff00" stroke="#ffff00" points="832,-269 672,-269 672,-233 832,-233 832,-269"/>
<text text-anchor="middle" x="752" y="-247.3" font-family="Times,serif" font-size="14.00">&lt;सत्य&#45;परः&gt;(षष्ठ्यर्थ&#45;बहुव्रीहिः)</text>
</g>
<!-- Node8_1&#45;&gt;Node8_2_1 -->
<g id="edge18" class="edge">
<title>Node8_1&#45;&gt;Node8_2_1</title>
<path fill="none" stroke="black" d="M720.12,-191.09C727.46,-204.65 736.22,-220.85 742.71,-232.82"/>
<polygon fill="black" stroke="black" points="723.15,-189.33 715.31,-182.2 716.99,-192.66 723.15,-189.33"/>
</g>
<!-- Node8_2&#45;&gt;Node8_2_1 -->
<g id="edge17" class="edge">
<title>Node8_2&#45;&gt;Node8_2_1</title>
<path fill="none" stroke="black" d="M782.5,-191.09C775.48,-204.65 767.09,-220.85 760.89,-232.82"/>
<polygon fill="black" stroke="black" points="785.61,-192.69 787.1,-182.2 779.39,-189.47 785.61,-192.69"/>
</g>
<!-- Node8_2_1&#45;&gt;Node8_2_1c -->
<g id="edge20" class="edge">
<title>Node8_2_1&#45;&gt;Node8_2_1c</title>
<path fill="none" stroke="black" d="M746.23,-279.27C743.41,-292.58 740.1,-308.19 737.64,-319.82"/>
<polygon fill="black" stroke="black" points="749.71,-279.71 748.36,-269.2 742.86,-278.26 749.71,-279.71"/>
</g>
</g>
</g>
<!-- Node8_2_1c -->
<g class="node16" onclick="toggleChildren('children_node4_88126');">
<title>Node8_2_1c</title>
<polygon fill="#00bfff" stroke="#00bfff" points="770.5,-356 697.5,-356 697.5,-320 770.5,-320 770.5,-356"/>
<text text-anchor="middle" x="734" y="-334.3" font-family="Times,serif" font-size="14.00">सत्य&#45;परः(8)</text>
</g>
<g id="children_node5_88126" class="hidden">
    <g class="node" onclick="toggleChildren('children_node5_88126');">
<!-- Node15_1 -->
<g id="node21" class="node">
<title>Node15_1</title>
<polygon fill="#ffff00" stroke="#ffff00" points="1392,-36 1338,-36 1338,0 1392,0 1392,-36"/>
<text text-anchor="middle" x="1365" y="-14.3" font-family="Times,serif" font-size="14.00">अ&#45;</text>
</g>
<!-- Node15_2 -->
<g id="node22" class="node">
<title>Node15_2</title>
<polygon fill="#ffff00" stroke="#ffff00" points="1482,-36 1428,-36 1428,0 1482,0 1482,-36"/>
<text text-anchor="middle" x="1455" y="-14.3" font-family="Times,serif" font-size="14.00">रोगः</text>
</g>
<!-- Node15_1&#45;&gt;Node15_2 -->
<!-- Node15_2_1 -->
<g id="node23" class="node">
<title>Node15_2_1</title>
<polygon fill="#ffff00" stroke="#ffff00" points="1537,-109 1283,-109 1283,-73 1537,-73 1537,-109"/>
<text text-anchor="middle" x="1410" y="-87.3" font-family="Times,serif" font-size="14.00">&lt;अ&#45;रोगः&gt;(अस्त्यर्थ&#45;मध्यमपदलोपी(नञ्)&#45;बहुव्रीहिः)</text>
</g>
<!-- Node15_1&#45;&gt;Node15_2_1 -->
<g id="edge28" class="edge">
<title>Node15_1&#45;&gt;Node15_2_1</title>
<path fill="none" stroke="black" d="M1381.34,-44.79C1387.29,-54.17 1393.86,-64.54 1399.21,-72.97"/>
<polygon fill="black" stroke="black" points="1384.2,-42.76 1375.89,-36.19 1378.29,-46.51 1384.2,-42.76"/>
</g>
<!-- Node15_2&#45;&gt;Node15_2_1 -->
<g id="edge27" class="edge">
<title>Node15_2&#45;&gt;Node15_2_1</title>
<path fill="none" stroke="black" d="M1438.66,-44.79C1432.71,-54.17 1426.14,-64.54 1420.79,-72.97"/>
<polygon fill="black" stroke="black" points="1441.71,-46.51 1444.11,-36.19 1435.8,-42.76 1441.71,-46.51"/>
</g>
<!-- Node15_2_1&#45;&gt;Node15_2_1c -->
<g id="edge30" class="edge">
<title>Node15_2_1&#45;&gt;Node15_2_1c</title>
<path fill="none" stroke="black" d="M1410,-119.25C1410,-128.23 1410,-137.97 1410,-145.97"/>
<polygon fill="black" stroke="black" points="1413.5,-119.19 1410,-109.19 1406.5,-119.19 1413.5,-119.19"/>
</g>
</g>
</g>
<!-- Node15_2_1c -->
<g class="node24" onclick="toggleChildren('children_node5_88126');">
<title>Node15_2_1c</title>
<polygon fill="#00bfff" stroke="#00bfff" points="1471,-182 1349,-182 1349,-146 1471,-146 1471,-182"/>
<text text-anchor="middle" x="1410" y="-160.3" font-family="Times,serif" font-size="14.00">अ&#45;रोगः&#45;बहुव्रीहिः)(15)</text>
</g>
<!-- Node2_4_3c&#45;&gt;Node10_2_1c -->
<g id="edge11" class="edge">
<title>Node2_4_3c&#45;&gt;Node10_2_1c</title>
<path fill="none" stroke="black" d="M499.25,-357.71C545.84,-368.16 606.01,-380.7 660,-389 765.48,-405.21 890.04,-415.6 958.49,-420.56"/>
<polygon fill="black" stroke="black" points="499.75,-354.23 489.22,-355.45 498.21,-361.06 499.75,-354.23"/>
<text text-anchor="middle" x="682.5" y="-377.8" font-family="Times,serif" font-size="14.00">समुच्चितः</text>
</g>
<!-- Node3_2_1c&#45;&gt;Node10_2_1c -->
<g id="edge16" class="edge">
<title>Node3_2_1c&#45;&gt;Node10_2_1c</title>
<path fill="none" stroke="black" d="M656.97,-358.82C687.66,-369.06 726.57,-381.05 762,-389 829.04,-404.04 907.79,-413.84 958.27,-419.15"/>
<polygon fill="black" stroke="black" points="657.91,-355.44 647.31,-355.56 655.67,-362.07 657.91,-355.44"/>
<text text-anchor="middle" x="784.5" y="-377.8" font-family="Times,serif" font-size="14.00">समुच्चितः</text>
</g>
<!-- Node8_2_1c&#45;&gt;Node10_2_1c -->
<g id="edge21" class="edge">
<title>Node8_2_1c&#45;&gt;Node10_2_1c</title>
<path fill="none" stroke="black" d="M772.35,-360.72C774.91,-361.89 777.47,-363 780,-364 839.29,-387.44 910.79,-404.44 958.16,-414.24"/>
<polygon fill="black" stroke="black" points="773.7,-357.48 763.18,-356.23 770.62,-363.77 773.7,-357.48"/>
<text text-anchor="middle" x="877.5" y="-377.8" font-family="Times,serif" font-size="14.00">समुच्चितः</text>
</g>
<!-- Node12_1 -->
<g id="node33" class="node">
<title>Node12_1</title>
<polygon fill="#00bfff" stroke="#00bfff" points="1040,-530 980,-530 980,-494 1040,-494 1040,-530"/>
<text text-anchor="middle" x="1010" y="-508.3" font-family="Times,serif" font-size="14.00">(यः)(12)</text>
</g>
<!-- Node10_2_1c&#45;&gt;Node12_1 -->
<g id="edge26" class="edge">
<title>Node10_2_1c&#45;&gt;Node12_1</title>
<path fill="none" stroke="black" d="M1010,-453.27C1010,-466.58 1010,-482.19 1010,-493.82"/>
<polygon fill="black" stroke="black" points="1013.5,-453.2 1010,-443.2 1006.5,-453.2 1013.5,-453.2"/>
<text text-anchor="middle" x="1051" y="-464.8" font-family="Times,serif" font-size="14.00">विधेय_विशेषणम्</text>
</g>
<!-- Node14_1 -->
<g id="node34" class="node">
<title>Node14_1</title>
<polygon fill="#00bfff" stroke="#00bfff" points="1440,-269 1380,-269 1380,-233 1440,-233 1440,-269"/>
<text text-anchor="middle" x="1410" y="-247.3" font-family="Times,serif" font-size="14.00">(सः)(14)</text>
</g>
<!-- Node15_2_1c&#45;&gt;Node14_1 -->
<g id="edge31" class="edge">
<title>Node15_2_1c&#45;&gt;Node14_1</title>
<path fill="none" stroke="black" d="M1410,-192.27C1410,-205.58 1410,-221.19 1410,-232.82"/>
<polygon fill="black" stroke="black" points="1413.5,-192.2 1410,-182.2 1406.5,-192.2 1413.5,-192.2"/>
<text text-anchor="middle" x="1451" y="-203.8" font-family="Times,serif" font-size="14.00">विधेय_विशेषणम्</text>
</g>
<!-- Node5_1 -->
<g id="node25" class="node">
<title>Node5_1</title>
<polygon fill="#00bfff" stroke="#00bfff" points="1286.5,-356 1217.5,-356 1217.5,-320 1286.5,-320 1286.5,-356"/>
<text text-anchor="middle" x="1252" y="-334.3" font-family="Times,serif" font-size="14.00">असक्तः(5)</text>
</g>
<!-- Node5_1&#45;&gt;Node10_2_1c -->
<g id="edge34" class="edge">
<title>Node5_1&#45;&gt;Node10_2_1c</title>
<path fill="none" stroke="black" d="M1224.8,-362.5C1212.46,-372.05 1197.24,-382.37 1182,-389 1143.58,-405.72 1096.81,-414.58 1061.75,-419.19"/>
<polygon fill="black" stroke="black" points="1227.22,-365.05 1232.85,-356.07 1222.85,-359.58 1227.22,-365.05"/>
<text text-anchor="middle" x="1230.5" y="-377.8" font-family="Times,serif" font-size="14.00">समुच्चितः</text>
</g>
<!-- Node6_1 -->
<g id="node26" class="node">
<title>Node6_1</title>
<polygon fill="#00bfff" stroke="#00bfff" points="1037,-356 983,-356 983,-320 1037,-320 1037,-356"/>
<text text-anchor="middle" x="1010" y="-334.3" font-family="Times,serif" font-size="14.00">दाता(6)</text>
</g>
<!-- Node6_1&#45;&gt;Node10_2_1c -->
<g id="edge35" class="edge">
<title>Node6_1&#45;&gt;Node10_2_1c</title>
<path fill="none" stroke="black" d="M1010,-366.27C1010,-379.58 1010,-395.19 1010,-406.82"/>
<polygon fill="black" stroke="black" points="1013.5,-366.2 1010,-356.2 1006.5,-366.2 1013.5,-366.2"/>
<text text-anchor="middle" x="1032.5" y="-377.8" font-family="Times,serif" font-size="14.00">समुच्चितः</text>
</g>
<!-- Node7_1 -->
<g id="node27" class="node">
<title>Node7_1</title>
<polygon fill="#00bfff" stroke="#00bfff" points="1109,-356 1055,-356 1055,-320 1109,-320 1109,-356"/>
<text text-anchor="middle" x="1082" y="-334.3" font-family="Times,serif" font-size="14.00">समः(7)</text>
</g>
<!-- Node7_1&#45;&gt;Node10_2_1c -->
<g id="edge36" class="edge">
<title>Node7_1&#45;&gt;Node10_2_1c</title>
<path fill="none" stroke="black" d="M1072.1,-365.78C1068.4,-373.74 1063.69,-382.16 1058,-389 1052.46,-395.66 1045.38,-401.72 1038.38,-406.85"/>
<polygon fill="black" stroke="black" points="1075.39,-366.99 1076.1,-356.42 1068.95,-364.24 1075.39,-366.99"/>
<text text-anchor="middle" x="1089.5" y="-377.8" font-family="Times,serif" font-size="14.00">समुच्चितः</text>
</g>
<!-- Node9_1 -->
<g id="node28" class="node">
<title>Node9_1</title>
<polygon fill="#00bfff" stroke="#00bfff" points="1199,-356 1127,-356 1127,-320 1199,-320 1199,-356"/>
<text text-anchor="middle" x="1163" y="-334.3" font-family="Times,serif" font-size="14.00">क्षमावान्(9)</text>
</g>
<!-- Node9_1&#45;&gt;Node10_2_1c -->
<g id="edge37" class="edge">
<title>Node9_1&#45;&gt;Node10_2_1c</title>
<path fill="none" stroke="black" d="M1143.7,-364.27C1135.9,-373.09 1126.31,-382.43 1116,-389 1099.58,-399.47 1079.71,-407.12 1061.64,-412.54"/>
<polygon fill="black" stroke="black" points="1146.56,-366.3 1150.32,-356.4 1141.21,-361.79 1146.56,-366.3"/>
<text text-anchor="middle" x="1155.5" y="-377.8" font-family="Times,serif" font-size="14.00">समुच्चितः</text>
</g>
<!-- Node1_1 -->
<g id="node29" class="node">
<title>Node1_1</title>
<polygon fill="#93db70" stroke="#93db70" points="1120,-530 1058,-530 1058,-494 1120,-494 1120,-530"/>
<text text-anchor="middle" x="1089" y="-508.3" font-family="Times,serif" font-size="14.00">नित्यम्(1)</text>
</g>
<!-- Node13_1 -->
<g id="node30" class="node">
<title>Node13_1</title>
<polygon fill="#ff1975" stroke="#ff1975" points="1086,-617 1012,-617 1012,-581 1086,-581 1086,-617"/>
<text text-anchor="middle" x="1049" y="-595.3" font-family="Times,serif" font-size="14.00">(भवति)(13)</text>
</g>
<!-- Node1_1&#45;&gt;Node13_1 -->
<g id="edge32" class="edge">
<title>Node1_1&#45;&gt;Node13_1</title>
<path fill="none" stroke="black" d="M1076.54,-539.48C1070.19,-552.96 1062.66,-568.96 1057.08,-580.82"/>
<polygon fill="black" stroke="black" points="1079.81,-540.74 1080.91,-530.2 1073.48,-537.76 1079.81,-540.74"/>
<text text-anchor="middle" x="1107.5" y="-551.8" font-family="Times,serif" font-size="14.00">क्रियाविशेषणम्</text>
</g>
<!-- Node4_1 -->
<g id="node31" class="node">
<title>Node4_1</title>
<polygon fill="#c6e2eb" stroke="#c6e2eb" points="1285.5,-269 1218.5,-269 1218.5,-233 1285.5,-233 1285.5,-269"/>
<text text-anchor="middle" x="1252" y="-247.3" font-family="Times,serif" font-size="14.00">विषयेषु(4)</text>
</g>
<!-- Node4_1&#45;&gt;Node5_1 -->
<g id="edge33" class="edge">
<title>Node4_1&#45;&gt;Node5_1</title>
<path fill="none" stroke="black" d="M1252,-279.27C1252,-292.58 1252,-308.19 1252,-319.82"/>
<polygon fill="black" stroke="black" points="1255.5,-279.2 1252,-269.2 1248.5,-279.2 1255.5,-279.2"/>
<text text-anchor="middle" x="1279.5" y="-290.8" font-family="Times,serif" font-size="14.00">अधिकरणम्</text>
</g>
<!-- Node11_1 -->
<g id="node32" class="node">
<title>Node11_1</title>
<polygon fill="#ff99ff" stroke="#ff99ff" points="1359,-356 1305,-356 1305,-320 1359,-320 1359,-356"/>
<text text-anchor="middle" x="1332" y="-334.3" font-family="Times,serif" font-size="14.00">च(11)</text>
</g>
<!-- Node11_1&#45;&gt;Node10_2_1c -->
<g id="edge38" class="edge">
<title>Node11_1&#45;&gt;Node10_2_1c</title>
<path fill="none" stroke="black" d="M1304.2,-362.39C1290.79,-372.35 1273.95,-383.03 1257,-389 1192.05,-411.89 1112.5,-419.85 1061.54,-422.59"/>
<polygon fill="black" stroke="black" points="1306.7,-364.88 1312.49,-356.01 1302.43,-359.34 1306.7,-364.88"/>
<text text-anchor="middle" x="1324.5" y="-377.8" font-family="Times,serif" font-size="14.00">समुच्चय_द्योतकः</text>
</g>
<!-- Node12_1&#45;&gt;Node13_1 -->
<g id="edge39" class="edge">
<title>Node12_1&#45;&gt;Node13_1</title>
<path fill="none" stroke="black" d="M1022.15,-539.48C1028.33,-552.96 1035.68,-568.96 1041.12,-580.82"/>
<polygon fill="black" stroke="black" points="1025.24,-537.83 1017.89,-530.2 1018.88,-540.75 1025.24,-537.83"/>
<text text-anchor="middle" x="1042" y="-551.8" font-family="Times,serif" font-size="14.00">कर्ता</text>
</g>
<!-- Node16_1 -->
<g id="node35" class="node">
<title>Node16_1</title>
<polygon fill="#ff1975" stroke="#ff1975" points="1442.5,-356 1377.5,-356 1377.5,-320 1442.5,-320 1442.5,-356"/>
<text text-anchor="middle" x="1410" y="-334.3" font-family="Times,serif" font-size="14.00">भवति(16)</text>
</g>
<!-- Node14_1&#45;&gt;Node16_1 -->
<g id="edge40" class="edge">
<title>Node14_1&#45;&gt;Node16_1</title>
<path fill="none" stroke="black" d="M1410,-279.27C1410,-292.58 1410,-308.19 1410,-319.82"/>
<polygon fill="black" stroke="black" points="1413.5,-279.2 1410,-269.2 1406.5,-279.2 1413.5,-279.2"/>
<text text-anchor="middle" x="1421" y="-290.8" font-family="Times,serif" font-size="14.00">कर्ता</text>
</g>
</g>
</svg>
