<svg width="1074pt" height="613pt"
 viewBox="0.00 0.00 1074.00 613.00" xmlns="http://www.w3.org/2000/svg" xmlns:xlink="http://www.w3.org/1999/xlink">
<g id="graph0" class="graph" transform="scale(1 1) rotate(0) translate(4 609)">
<title>G</title>
<polygon fill="#fffacd" stroke="transparent" points="-4,4 -4,-609 1070,-609 1070,4 -4,4"/>
<g id="clust1" class="cluster">
<title>cluster_1</title>
<polygon fill="#fffacd" stroke="black" points="738,-284 738,-423 819,-423 819,-284 738,-284"/>
</g>
<g id="clust2" class="cluster">
<title>cluster_2</title>
<polygon fill="#fffacd" stroke="black" points="781,-458 781,-597 871,-597 871,-458 781,-458"/>
</g>
<!-- Node1_1 -->
<style>
 .hidden { display: none; }
 .node { cursor: pointer; }
 </style>
<script>
     function toggleChildren(id) {
      const children = document.getElementById(id);
      if (children.classList.contains('hidden')) {
        children.classList.remove('hidden');
      } else {
        children.classList.add('hidden');
      }
    }
</script>
<g id="children_node0_87870" class="hidden">
    <g class="node" onclick="toggleChildren('children_node0_87870');">
</g>
</g>
<g id="children_node1_87870" class="hidden">
    <g class="node" onclick="toggleChildren('children_node1_87870');">

<g id="node1" class="node">
<title>Node1_1</title>
<polygon fill="#ffff00" stroke="#ffff00" points="54,-255 0,-255 0,-219 54,-219 54,-255"/>
<text text-anchor="middle" x="27" y="-233.3" font-family="Times,serif" font-size="14.00">अङ्ग&#45;</text>
</g>
<!-- Node1_2 -->
<g id="node2" class="node">
<title>Node1_2</title>
<polygon fill="#ffff00" stroke="#ffff00" points="144,-255 90,-255 90,-219 144,-219 144,-255"/>
<text text-anchor="middle" x="117" y="-233.3" font-family="Times,serif" font-size="14.00">भङ्ग&#45;</text>
</g>
<!-- Node1_1&#45;&gt;Node1_2 -->
<!-- Node1_2_1 -->
<g id="node3" class="node">
<title>Node1_2_1</title>
<polygon fill="#ffff00" stroke="#ffff00" points="167,-328 21,-328 21,-292 167,-292 167,-328"/>
<text text-anchor="middle" x="94" y="-306.3" font-family="Times,serif" font-size="14.00">&lt;अङ्ग&#45;भङ्ग&#45;&gt;(षष्ठी&#45;तत्पुरुषः)</text>
</g>
<!-- Node1_1&#45;&gt;Node1_2_1 -->
<g id="edge2" class="edge">
<title>Node1_1&#45;&gt;Node1_2_1</title>
<path fill="none" stroke="black" d="M50.24,-262.63C59.38,-272.31 69.64,-283.19 77.93,-291.97"/>
<polygon fill="black" stroke="black" points="52.63,-260.06 43.22,-255.19 47.54,-264.86 52.63,-260.06"/>
</g>
<!-- Node1_2&#45;&gt;Node1_2_1 -->
<g id="edge1" class="edge">
<title>Node1_2&#45;&gt;Node1_2_1</title>
<path fill="none" stroke="black" d="M108.27,-264.95C105.33,-274.02 102.14,-283.88 99.52,-291.97"/>
<polygon fill="black" stroke="black" points="111.68,-265.78 111.43,-255.19 105.02,-263.62 111.68,-265.78"/>
</g>
<!-- Node1_7_5 -->
<g id="node12" class="node">
<title>Node1_7_5</title>
<polygon fill="#ffff00" stroke="#ffff00" points="705.5,-328 202.5,-328 202.5,-292 705.5,-292 705.5,-328"/>
<text text-anchor="middle" x="454" y="-306.3" font-family="Times,serif" font-size="14.00">&lt;अश्मरी&#45;&lt;&lt;बस्ति&#45;&lt;मेढ्र&#45;वङ्क्षण&#45;&gt;(इतरेतर&#45;द्वन्द्वः)&gt;(इतरेतर&#45;द्वन्द्वः)वेदनाः&gt;(षष्ठी&#45;तत्पुरुषः)&gt;(इतरेतर&#45;द्वन्द्वः)</text>
</g>
<!-- Node1_2_1&#45;&gt;Node1_7_5 -->
<!-- Node1_7_6 -->
<g id="node13" class="node">
<title>Node1_7_6</title>
<polygon fill="#ffff00" stroke="#ffff00" points="730,-415 16,-415 16,-379 730,-379 730,-415"/>
<text text-anchor="middle" x="373" y="-393.3" font-family="Times,serif" font-size="14.00">&lt;&lt;अङ्ग&#45;भङ्ग&#45;&gt;(षष्ठी&#45;तत्पुरुषः)&lt;अश्मरी&#45;&lt;&lt;बस्ति&#45;&lt;मेढ्र&#45;वङ्क्षण&#45;&gt;(इतरेतर&#45;द्वन्द्वः)&gt;(इतरेतर&#45;द्वन्द्वः)वेदनाः&gt;(षष्ठी&#45;तत्पुरुषः)&gt;(इतरेतर&#45;द्वन्द्वः)&gt;(इतरेतर&#45;द्वन्द्वः)</text>
</g>
<!-- Node1_2_1&#45;&gt;Node1_7_6 -->
<g id="edge17" class="edge">
<title>Node1_2_1&#45;&gt;Node1_7_6</title>
<path fill="none" stroke="black" d="M159.76,-331.04C207.57,-345.6 271.58,-365.1 316.97,-378.93"/>
<polygon fill="black" stroke="black" points="160.71,-327.67 150.12,-328.1 158.67,-334.36 160.71,-327.67"/>
</g>
<!-- Node1_5 -->
<g id="node4" class="node">
<title>Node1_5</title>
<polygon fill="#ffff00" stroke="#ffff00" points="492,-36 438,-36 438,0 492,0 492,-36"/>
<text text-anchor="middle" x="465" y="-14.3" font-family="Times,serif" font-size="14.00">मेढ्र&#45;</text>
</g>
<!-- Node1_6 -->
<g id="node5" class="node">
<title>Node1_6</title>
<polygon fill="#ffff00" stroke="#ffff00" points="584.5,-36 527.5,-36 527.5,0 584.5,0 584.5,-36"/>
<text text-anchor="middle" x="556" y="-14.3" font-family="Times,serif" font-size="14.00">वङ्क्षण&#45;</text>
</g>
<!-- Node1_5&#45;&gt;Node1_6 -->
<!-- Node1_6_2 -->
<g id="node6" class="node">
<title>Node1_6_2</title>
<polygon fill="#ffff00" stroke="#ffff00" points="598,-109 440,-109 440,-73 598,-73 598,-109"/>
<text text-anchor="middle" x="519" y="-87.3" font-family="Times,serif" font-size="14.00">&lt;मेढ्र&#45;वङ्क्षण&#45;&gt;(इतरेतर&#45;द्वन्द्वः)</text>
</g>
<!-- Node1_5&#45;&gt;Node1_6_2 -->
<g id="edge5" class="edge">
<title>Node1_5&#45;&gt;Node1_6_2</title>
<path fill="none" stroke="black" d="M484.17,-44.21C491.42,-53.74 499.5,-64.36 506.05,-72.97"/>
<polygon fill="black" stroke="black" points="486.91,-42.03 478.07,-36.19 481.34,-46.27 486.91,-42.03"/>
</g>
<!-- Node1_6&#45;&gt;Node1_6_2 -->
<g id="edge4" class="edge">
<title>Node1_6&#45;&gt;Node1_6_2</title>
<path fill="none" stroke="black" d="M542.41,-45.08C537.56,-54.39 532.22,-64.62 527.87,-72.97"/>
<polygon fill="black" stroke="black" points="545.53,-46.67 547.04,-36.19 539.32,-43.44 545.53,-46.67"/>
</g>
<!-- Node1_6_3 -->
<g id="node8" class="node">
<title>Node1_6_3</title>
<polygon fill="#ffff00" stroke="#ffff00" points="596.5,-182 327.5,-182 327.5,-146 596.5,-146 596.5,-182"/>
<text text-anchor="middle" x="462" y="-160.3" font-family="Times,serif" font-size="14.00">&lt;बस्ति&#45;&lt;मेढ्र&#45;वङ्क्षण&#45;&gt;(इतरेतर&#45;द्वन्द्वः)&gt;(इतरेतर&#45;द्वन्द्वः)</text>
</g>
<!-- Node1_6_2&#45;&gt;Node1_6_3 -->
<g id="edge7" class="edge">
<title>Node1_6_2&#45;&gt;Node1_6_3</title>
<path fill="none" stroke="black" d="M498.76,-117.21C491.11,-126.74 482.58,-137.36 475.67,-145.97"/>
<polygon fill="black" stroke="black" points="501.67,-119.18 505.2,-109.19 496.21,-114.79 501.67,-119.18"/>
</g>
<!-- Node1_4 -->
<g id="node7" class="node">
<title>Node1_4</title>
<polygon fill="#ffff00" stroke="#ffff00" points="404,-109 350,-109 350,-73 404,-73 404,-109"/>
<text text-anchor="middle" x="377" y="-87.3" font-family="Times,serif" font-size="14.00">बस्ति&#45;</text>
</g>
<!-- Node1_4&#45;&gt;Node1_6_2 -->
<!-- Node1_4&#45;&gt;Node1_6_3 -->
<g id="edge8" class="edge">
<title>Node1_4&#45;&gt;Node1_6_3</title>
<path fill="none" stroke="black" d="M405.46,-115.77C417.3,-125.67 430.79,-136.93 441.61,-145.97"/>
<polygon fill="black" stroke="black" points="407.49,-112.91 397.58,-109.19 403.01,-118.28 407.49,-112.91"/>
</g>
<!-- Node1_7 -->
<g id="node9" class="node">
<title>Node1_7</title>
<polygon fill="#ffff00" stroke="#ffff00" points="686,-182 632,-182 632,-146 686,-146 686,-182"/>
<text text-anchor="middle" x="659" y="-160.3" font-family="Times,serif" font-size="14.00">वेदनाः</text>
</g>
<!-- Node1_6_3&#45;&gt;Node1_7 -->
<!-- Node1_7_4 -->
<g id="node10" class="node">
<title>Node1_7_4</title>
<polygon fill="#ffff00" stroke="#ffff00" points="774,-255 390,-255 390,-219 774,-219 774,-255"/>
<text text-anchor="middle" x="582" y="-233.3" font-family="Times,serif" font-size="14.00">&lt;&lt;बस्ति&#45;&lt;मेढ्र&#45;वङ्क्षण&#45;&gt;(इतरेतर&#45;द्वन्द्वः)&gt;(इतरेतर&#45;द्वन्द्वः)वेदनाः&gt;(षष्ठी&#45;तत्पुरुषः)</text>
</g>
<!-- Node1_6_3&#45;&gt;Node1_7_4 -->
<g id="edge11" class="edge">
<title>Node1_6_3&#45;&gt;Node1_7_4</title>
<path fill="none" stroke="black" d="M499.48,-187.18C516.77,-197.41 536.98,-209.37 553.08,-218.89"/>
<polygon fill="black" stroke="black" points="501.13,-184.09 490.74,-182.01 497.57,-190.11 501.13,-184.09"/>
</g>
<!-- Node1_7&#45;&gt;Node1_7_4 -->
<g id="edge10" class="edge">
<title>Node1_7&#45;&gt;Node1_7_4</title>
<path fill="none" stroke="black" d="M632.91,-189.06C622.25,-198.88 610.18,-210.01 600.47,-218.97"/>
<polygon fill="black" stroke="black" points="635.38,-191.54 640.36,-182.19 630.64,-186.39 635.38,-191.54"/>
</g>
<!-- Node1_7_4&#45;&gt;Node1_7_5 -->
<g id="edge13" class="edge">
<title>Node1_7_4&#45;&gt;Node1_7_5</title>
<path fill="none" stroke="black" d="M542.53,-259.9C523.97,-270.19 502.17,-282.28 484.85,-291.89"/>
<polygon fill="black" stroke="black" points="544.29,-262.92 551.34,-255.01 540.9,-256.8 544.29,-262.92"/>
</g>
<!-- Node1_3 -->
<g id="node11" class="node">
<title>Node1_3</title>
<polygon fill="#ffff00" stroke="#ffff00" points="354,-255 300,-255 300,-219 354,-219 354,-255"/>
<text text-anchor="middle" x="327" y="-233.3" font-family="Times,serif" font-size="14.00">अश्मरी&#45;</text>
</g>
<!-- Node1_3&#45;&gt;Node1_7_4 -->
<!-- Node1_3&#45;&gt;Node1_7_5 -->
<g id="edge14" class="edge">
<title>Node1_3&#45;&gt;Node1_7_5</title>
<path fill="none" stroke="black" d="M363.19,-258.23C382.16,-268.84 405.14,-281.68 423.23,-291.8"/>
<polygon fill="black" stroke="black" points="364.68,-255.06 354.24,-253.23 361.27,-261.17 364.68,-255.06"/>
</g>
<!-- Node1_7_5&#45;&gt;Node1_7_6 -->
<g id="edge16" class="edge">
<title>Node1_7_5&#45;&gt;Node1_7_6</title>
<path fill="none" stroke="black" d="M430.62,-335.53C417.41,-349.4 401.22,-366.39 389.37,-378.82"/>
<polygon fill="black" stroke="black" points="433.24,-337.85 437.61,-328.2 428.18,-333.03 433.24,-337.85"/>
</g>
<!-- Node1_7_6&#45;&gt;Node1_7_6c -->
<g id="edge19" class="edge">
<title>Node1_7_6&#45;&gt;Node1_7_6c</title>
<path fill="none" stroke="black" d="M425.52,-418.86C461.95,-433.33 509.87,-452.36 544.02,-465.93"/>
<polygon fill="black" stroke="black" points="426.63,-415.54 416.05,-415.1 424.05,-422.04 426.63,-415.54"/>
</g>
</g>
</g>
<!-- Node1_7_6c -->
<g class="node14" onclick="toggleChildren('children_node1_87870');">
<title>Node1_7_6c</title>
<polygon fill="#00bfff" stroke="#00bfff" points="700.5,-502 473.5,-502 473.5,-466 700.5,-466 700.5,-502"/>
<text text-anchor="middle" x="587" y="-480.3" font-family="Times,serif" font-size="14.00">अङ्ग&#45;भङ्ग&#45;अश्मरी&#45;बस्ति&#45;मेढ्र&#45;वङ्क्षण&#45;वेदनाः(1)</text>
</g>
<!-- Node4_1 -->
<g id="node18" class="node">
<title>Node4_1</title>
<polygon fill="#ff1975" stroke="#ff1975" points="862.5,-589 789.5,-589 789.5,-553 862.5,-553 862.5,-589"/>
<text text-anchor="middle" x="826" y="-567.3" font-family="Times,serif" font-size="14.00">(जायन्ते)(4)</text>
</g>
<!-- Node1_7_6c&#45;&gt;Node4_1 -->
<g id="edge20" class="edge">
<title>Node1_7_6c&#45;&gt;Node4_1</title>
<path fill="none" stroke="black" d="M644.71,-505.52C689.7,-521.52 750.81,-543.26 789.33,-556.96"/>
<polygon fill="black" stroke="black" points="645.67,-502.15 635.08,-502.1 643.33,-508.75 645.67,-502.15"/>
<text text-anchor="middle" x="731" y="-523.8" font-family="Times,serif" font-size="14.00">कर्ता</text>
</g>
<!-- Node5_1 -->
<g id="node15" class="node">
<title>Node5_1</title>
<polygon fill="#00bfff" stroke="#00bfff" points="800,-328 746,-328 746,-292 800,-292 800,-328"/>
<text text-anchor="middle" x="773" y="-306.3" font-family="Times,serif" font-size="14.00">पूर्वे(5)</text>
</g>
<!-- Node8_1 -->
<g id="node16" class="node">
<title>Node8_1</title>
<polygon fill="#00bfff" stroke="#00bfff" points="806,-415 750,-415 750,-379 806,-379 806,-415"/>
<text text-anchor="middle" x="778" y="-393.3" font-family="Times,serif" font-size="14.00">रोगाः(8)</text>
</g>
<!-- Node5_1&#45;&gt;Node8_1 -->
<g id="edge23" class="edge">
<title>Node5_1&#45;&gt;Node8_1</title>
<path fill="none" stroke="black" d="M774.6,-338.27C775.39,-351.58 776.31,-367.19 776.99,-378.82"/>
<polygon fill="black" stroke="black" points="778.09,-337.98 774.01,-328.2 771.11,-338.39 778.09,-337.98"/>
<text text-anchor="middle" x="798.5" y="-349.8" font-family="Times,serif" font-size="14.00">विशेषणम्</text>
</g>
<!-- Node9_1 -->
<g id="node17" class="node">
<title>Node9_1</title>
<polygon fill="#ff1975" stroke="#ff1975" points="862.5,-502 789.5,-502 789.5,-466 862.5,-466 862.5,-502"/>
<text text-anchor="middle" x="826" y="-480.3" font-family="Times,serif" font-size="14.00">(जायन्ते)(9)</text>
</g>
<!-- Node8_1&#45;&gt;Node9_1 -->
<g id="edge26" class="edge">
<title>Node8_1&#45;&gt;Node9_1</title>
<path fill="none" stroke="black" d="M786.4,-424.96C789.28,-432.64 792.84,-440.86 797,-448 800.58,-454.14 805.22,-460.28 809.74,-465.68"/>
<polygon fill="black" stroke="black" points="789.62,-423.58 783.01,-415.3 783.02,-425.89 789.62,-423.58"/>
<text text-anchor="middle" x="808" y="-436.8" font-family="Times,serif" font-size="14.00">कर्ता</text>
</g>
<!-- Node9_1&#45;&gt;Node4_1 -->
<g id="edge27" class="edge">
<title>Node9_1&#45;&gt;Node4_1</title>
<path fill="none" stroke="black" d="M826,-512.27C826,-525.58 826,-541.19 826,-552.82"/>
<polygon fill="black" stroke="black" points="829.5,-512.2 826,-502.2 822.5,-512.2 829.5,-512.2"/>
<text text-anchor="middle" x="848.5" y="-523.8" font-family="Times,serif" font-size="14.00">समुच्चितः</text>
</g>
<!-- Node2_1 -->
<g id="node19" class="node">
<title>Node2_1</title>
<polygon fill="#87ceeb" stroke="#87ceeb" points="1053.5,-415 994.5,-415 994.5,-379 1053.5,-379 1053.5,-415"/>
<text text-anchor="middle" x="1024" y="-393.3" font-family="Times,serif" font-size="14.00">मूत्रस्य(2)</text>
</g>
<!-- Node3_1 -->
<g id="node20" class="node">
<title>Node3_1</title>
<polygon fill="#b4ffb4" stroke="#b4ffb4" points="997.5,-502 936.5,-502 936.5,-466 997.5,-466 997.5,-502"/>
<text text-anchor="middle" x="967" y="-480.3" font-family="Times,serif" font-size="14.00">रोधात्(3)</text>
</g>
<!-- Node2_1&#45;&gt;Node3_1 -->
<g id="edge21" class="edge">
<title>Node2_1&#45;&gt;Node3_1</title>
<path fill="none" stroke="black" d="M1014.48,-424.56C1011.1,-432.43 1006.89,-440.85 1002,-448 997.63,-454.38 992.01,-460.6 986.56,-465.99"/>
<polygon fill="black" stroke="black" points="1017.83,-425.6 1018.32,-415.02 1011.34,-422.99 1017.83,-425.6"/>
<text text-anchor="middle" x="1038" y="-436.8" font-family="Times,serif" font-size="14.00">षष्ठीसम्बन्धः</text>
</g>
<!-- Node3_1&#45;&gt;Node4_1 -->
<g id="edge22" class="edge">
<title>Node3_1&#45;&gt;Node4_1</title>
<path fill="none" stroke="black" d="M929.78,-507.44C906.2,-521.65 876.17,-539.75 854.49,-552.82"/>
<polygon fill="black" stroke="black" points="931.71,-510.36 938.47,-502.2 928.1,-504.37 931.71,-510.36"/>
<text text-anchor="middle" x="913.5" y="-523.8" font-family="Times,serif" font-size="14.00">हेतुः</text>
</g>
<!-- Node6_1 -->
<g id="node21" class="node">
<title>Node6_1</title>
<polygon fill="#ff99ff" stroke="#ff99ff" points="881,-415 827,-415 827,-379 881,-379 881,-415"/>
<text text-anchor="middle" x="854" y="-393.3" font-family="Times,serif" font-size="14.00">च(6)</text>
</g>
<!-- Node6_1&#45;&gt;Node9_1 -->
<g id="edge24" class="edge">
<title>Node6_1&#45;&gt;Node9_1</title>
<path fill="none" stroke="black" d="M831.43,-423.7C829.65,-426.69 828.12,-429.81 827,-433 823.31,-443.48 823.06,-455.98 823.73,-465.86"/>
<polygon fill="black" stroke="black" points="834.49,-425.43 837.28,-415.21 828.72,-421.46 834.49,-425.43"/>
<text text-anchor="middle" x="866.5" y="-436.8" font-family="Times,serif" font-size="14.00">समुच्चय_द्योतकः</text>
</g>
<!-- Node7_1 -->
<g id="node22" class="node">
<title>Node7_1</title>
<polygon fill="#ff99ff" stroke="#ff99ff" points="956,-415 900,-415 900,-379 956,-379 956,-415"/>
<text text-anchor="middle" x="928" y="-393.3" font-family="Times,serif" font-size="14.00">प्रायः(7)</text>
</g>
<!-- Node7_1&#45;&gt;Node9_1 -->
<g id="edge25" class="edge">
<title>Node7_1&#45;&gt;Node9_1</title>
<path fill="none" stroke="black" d="M920.55,-424.56C917.18,-432.87 912.47,-441.55 906,-448 894.2,-459.78 877.77,-467.9 862.86,-473.33"/>
<polygon fill="black" stroke="black" points="923.85,-425.72 923.9,-415.13 917.25,-423.38 923.85,-425.72"/>
<text text-anchor="middle" x="952.5" y="-436.8" font-family="Times,serif" font-size="14.00">क्रियाविशेषणम्</text>
</g>
</g>
</svg>
