<svg width="186pt" height="364pt"
 viewBox="0.00 0.00 186.00 364.00" xmlns="http://www.w3.org/2000/svg" xmlns:xlink="http://www.w3.org/1999/xlink">
<g id="graph0" class="graph" transform="scale(1 1) rotate(0) translate(4 360)">
<title>G</title>
<polygon fill="#fffacd" stroke="transparent" points="-4,4 -4,-360 182,-360 182,4 -4,4"/>
<!-- Node1_1 -->
<style>
 .hidden { display: none; }
 .node { cursor: pointer; }
 </style>
<script>
     function toggleChildren(id) {
      const children = document.getElementById(id);
      if (children.classList.contains('hidden')) {
        children.classList.remove('hidden');
      } else {
        children.classList.add('hidden');
      }
    }
</script>
<g id="children_node0_87862" class="hidden">
    <g class="node" onclick="toggleChildren('children_node0_87862');">
</g>
</g>
<g id="children_node1_87862" class="hidden">
    <g class="node" onclick="toggleChildren('children_node1_87862');">

<g id="node1" class="node">
<title>Node1_1</title>
<polygon fill="#ffff00" stroke="#ffff00" points="54,-36 0,-36 0,0 54,0 54,-36"/>
<text text-anchor="middle" x="27" y="-14.3" font-family="Times,serif" font-size="14.00">पूर्व&#45;</text>
</g>
<!-- Node1_2 -->
<g id="node2" class="node">
<title>Node1_2</title>
<polygon fill="#ffff00" stroke="#ffff00" points="144,-36 90,-36 90,0 144,0 144,-36"/>
<text text-anchor="middle" x="117" y="-14.3" font-family="Times,serif" font-size="14.00">उक्ताः</text>
</g>
<!-- Node1_1&#45;&gt;Node1_2 -->
<!-- Node1_2_1 -->
<g id="node3" class="node">
<title>Node1_2_1</title>
<polygon fill="#ffff00" stroke="#ffff00" points="132,-109 10,-109 10,-73 132,-73 132,-109"/>
<text text-anchor="middle" x="71" y="-87.3" font-family="Times,serif" font-size="14.00">&lt;पूर्व&#45;उक्ताः&gt;(समासः)</text>
</g>
<!-- Node1_1&#45;&gt;Node1_2_1 -->
<g id="edge2" class="edge">
<title>Node1_1&#45;&gt;Node1_2_1</title>
<path fill="none" stroke="black" d="M42.98,-44.79C48.8,-54.17 55.22,-64.54 60.45,-72.97"/>
<polygon fill="black" stroke="black" points="45.89,-42.84 37.65,-36.19 39.94,-46.53 45.89,-42.84"/>
</g>
<!-- Node1_2&#45;&gt;Node1_2_1 -->
<g id="edge1" class="edge">
<title>Node1_2&#45;&gt;Node1_2_1</title>
<path fill="none" stroke="black" d="M100.29,-44.79C94.21,-54.17 87.5,-64.54 82.03,-72.97"/>
<polygon fill="black" stroke="black" points="103.36,-46.48 105.86,-36.19 97.49,-42.68 103.36,-46.48"/>
</g>
<!-- Node1_2_1&#45;&gt;Node1_2_1c -->
<g id="edge4" class="edge">
<title>Node1_2_1&#45;&gt;Node1_2_1c</title>
<path fill="none" stroke="black" d="M71,-119.25C71,-128.23 71,-137.97 71,-145.97"/>
<polygon fill="black" stroke="black" points="74.5,-119.19 71,-109.19 67.5,-119.19 74.5,-119.19"/>
</g>
</g>
</g>
<!-- Node1_2_1c -->
<g class="node4" onclick="toggleChildren('children_node1_87862');">
<title>Node1_2_1c</title>
<polygon fill="#00bfff" stroke="#00bfff" points="111.5,-182 30.5,-182 30.5,-146 111.5,-146 111.5,-182"/>
<text text-anchor="middle" x="71" y="-160.3" font-family="Times,serif" font-size="14.00">पूर्व&#45;उक्ताः(1)</text>
</g>
<!-- Node3_1 -->
<g id="node7" class="node">
<title>Node3_1</title>
<polygon fill="#00bfff" stroke="#00bfff" points="105.5,-269 36.5,-269 36.5,-233 105.5,-233 105.5,-269"/>
<text text-anchor="middle" x="71" y="-247.3" font-family="Times,serif" font-size="14.00">आमयाः(3)</text>
</g>
<!-- Node1_2_1c&#45;&gt;Node3_1 -->
<g id="edge5" class="edge">
<title>Node1_2_1c&#45;&gt;Node3_1</title>
<path fill="none" stroke="black" d="M71,-192.27C71,-205.58 71,-221.19 71,-232.82"/>
<polygon fill="black" stroke="black" points="74.5,-192.2 71,-182.2 67.5,-192.2 74.5,-192.2"/>
<text text-anchor="middle" x="94.5" y="-203.8" font-family="Times,serif" font-size="14.00">विशेषणम्</text>
</g>
<!-- Node2_1 -->
<g id="node5" class="node">
<title>Node2_1</title>
<polygon fill="#ff99ff" stroke="#ff99ff" points="178,-269 124,-269 124,-233 178,-233 178,-269"/>
<text text-anchor="middle" x="151" y="-247.3" font-family="Times,serif" font-size="14.00">च(2)</text>
</g>
<!-- Node4_1 -->
<g id="node6" class="node">
<title>Node4_1</title>
<polygon fill="#00bfff" stroke="#00bfff" points="141,-356 81,-356 81,-320 141,-320 141,-356"/>
<text text-anchor="middle" x="111" y="-334.3" font-family="Times,serif" font-size="14.00">स्मृताः(4)</text>
</g>
<!-- Node2_1&#45;&gt;Node4_1 -->
<g id="edge6" class="edge">
<title>Node2_1&#45;&gt;Node4_1</title>
<path fill="none" stroke="black" d="M138.54,-278.48C132.19,-291.96 124.66,-307.96 119.08,-319.82"/>
<polygon fill="black" stroke="black" points="141.81,-279.74 142.91,-269.2 135.48,-276.76 141.81,-279.74"/>
<text text-anchor="middle" x="151.5" y="-290.8" font-family="Times,serif" font-size="14.00">सम्बन्धः</text>
</g>
<!-- Node3_1&#45;&gt;Node4_1 -->
<g id="edge7" class="edge">
<title>Node3_1&#45;&gt;Node4_1</title>
<path fill="none" stroke="black" d="M83.46,-278.48C89.81,-291.96 97.34,-307.96 102.92,-319.82"/>
<polygon fill="black" stroke="black" points="86.52,-276.76 79.09,-269.2 80.19,-279.74 86.52,-276.76"/>
<text text-anchor="middle" x="102" y="-290.8" font-family="Times,serif" font-size="14.00">कर्म</text>
</g>
</g>
</svg>
