<svg width="718pt" height="392pt"
 viewBox="0.00 0.00 718.00 392.00" xmlns="http://www.w3.org/2000/svg" xmlns:xlink="http://www.w3.org/1999/xlink">
<g id="graph0" class="graph" transform="scale(1 1) rotate(0) translate(4 388)">
<title>G</title>
<polygon fill="#fffacd" stroke="transparent" points="-4,4 -4,-388 714,-388 714,4 -4,4"/>
<g id="clust1" class="cluster">
<title>cluster_1</title>
<polygon fill="#fffacd" stroke="black" points="276,-166 276,-218 384,-218 384,-166 276,-166"/>
</g>
<!-- Node8_2 -->
<style>
 .hidden { display: none; }
 .node { cursor: pointer; }
 </style>
<script>
     function toggleChildren(id) {
      const children = document.getElementById(id);
      if (children.classList.contains('hidden')) {
        children.classList.remove('hidden');
      } else {
        children.classList.add('hidden');
      }
    }
</script>
<g id="children_node0_88046" class="hidden">
    <g class="node" onclick="toggleChildren('children_node0_88046');">
</g>
</g>
<g id="children_node1_88046" class="hidden">
    <g class="node" onclick="toggleChildren('children_node1_88046');">

<g id="node1" class="node">
<title>Node8_2</title>
<polygon fill="#ffff00" stroke="#ffff00" points="165,-36 111,-36 111,0 165,0 165,-36"/>
<text text-anchor="middle" x="138" y="-14.3" font-family="Times,serif" font-size="14.00">पान&#45;</text>
</g>
<!-- Node8_3 -->
<g id="node2" class="node">
<title>Node8_3</title>
<polygon fill="#ffff00" stroke="#ffff00" points="255,-36 201,-36 201,0 255,0 255,-36"/>
<text text-anchor="middle" x="228" y="-14.3" font-family="Times,serif" font-size="14.00">औषधम्</text>
</g>
<!-- Node8_2&#45;&gt;Node8_3 -->
<!-- Node8_3_1 -->
<g id="node3" class="node">
<title>Node8_3_1</title>
<polygon fill="#ffff00" stroke="#ffff00" points="270.5,-123 111.5,-123 111.5,-87 270.5,-87 270.5,-123"/>
<text text-anchor="middle" x="191" y="-101.3" font-family="Times,serif" font-size="14.00">&lt;पान&#45;औषधम्&gt;(इतरेतर&#45;द्वन्द्वः)</text>
</g>
<!-- Node8_2&#45;&gt;Node8_3_1 -->
<g id="edge2" class="edge">
<title>Node8_2&#45;&gt;Node8_3_1</title>
<path fill="none" stroke="black" d="M154.02,-44.7C162.53,-58.34 172.75,-74.73 180.29,-86.82"/>
<polygon fill="black" stroke="black" points="156.99,-42.83 148.73,-36.2 151.05,-46.54 156.99,-42.83"/>
</g>
<!-- Node8_3&#45;&gt;Node8_3_1 -->
<g id="edge1" class="edge">
<title>Node8_3&#45;&gt;Node8_3_1</title>
<path fill="none" stroke="black" d="M216.47,-45.48C210.61,-58.96 203.64,-74.96 198.48,-86.82"/>
<polygon fill="black" stroke="black" points="219.73,-46.77 220.51,-36.2 213.31,-43.97 219.73,-46.77"/>
</g>
<!-- Node8_3_2 -->
<g id="node5" class="node">
<title>Node8_3_2</title>
<polygon fill="#ffff00" stroke="#ffff00" points="266,-210 0,-210 0,-174 266,-174 266,-210"/>
<text text-anchor="middle" x="133" y="-188.3" font-family="Times,serif" font-size="14.00">&lt;अन्न&#45;&lt;पान&#45;औषधम्&gt;(इतरेतर&#45;द्वन्द्वः)&gt;(इतरेतर&#45;द्वन्द्वः)</text>
</g>
<!-- Node8_3_1&#45;&gt;Node8_3_2 -->
<g id="edge4" class="edge">
<title>Node8_3_1&#45;&gt;Node8_3_2</title>
<path fill="none" stroke="black" d="M173.47,-131.7C164.16,-145.34 152.97,-161.73 144.72,-173.82"/>
<polygon fill="black" stroke="black" points="176.52,-133.43 179.26,-123.2 170.74,-129.49 176.52,-133.43"/>
</g>
<!-- Node8_1 -->
<g id="node4" class="node">
<title>Node8_1</title>
<polygon fill="#ffff00" stroke="#ffff00" points="76,-123 22,-123 22,-87 76,-87 76,-123"/>
<text text-anchor="middle" x="49" y="-101.3" font-family="Times,serif" font-size="14.00">अन्न&#45;</text>
</g>
<!-- Node8_1&#45;&gt;Node8_3_1 -->
<!-- Node8_1&#45;&gt;Node8_3_2 -->
<g id="edge5" class="edge">
<title>Node8_1&#45;&gt;Node8_3_2</title>
<path fill="none" stroke="black" d="M73.24,-130.53C86.95,-144.4 103.74,-161.39 116.03,-173.82"/>
<polygon fill="black" stroke="black" points="75.52,-127.85 66,-123.2 70.54,-132.77 75.52,-127.85"/>
</g>
<!-- Node8_3_2&#45;&gt;Node8_3_2c -->
<g id="edge7" class="edge">
<title>Node8_3_2&#45;&gt;Node8_3_2c</title>
<path fill="none" stroke="black" d="M182.45,-214.34C215.88,-228.76 259.42,-247.55 290.53,-260.97"/>
<polygon fill="black" stroke="black" points="183.43,-210.95 172.87,-210.2 180.66,-217.38 183.43,-210.95"/>
</g>
</g>
</g>
<!-- Node8_3_2c -->
<g class="node6" onclick="toggleChildren('children_node1_88046');">
<title>Node8_3_2c</title>
<polygon fill="#93db70" stroke="#93db70" points="388.5,-297 271.5,-297 271.5,-261 388.5,-261 388.5,-297"/>
<text text-anchor="middle" x="330" y="-275.3" font-family="Times,serif" font-size="14.00">अन्न&#45;पान&#45;औषधम्(8)</text>
</g>
<!-- Node10_1 -->
<g id="node16" class="node">
<title>Node10_1</title>
<polygon fill="#ff1975" stroke="#ff1975" points="417,-384 349,-384 349,-348 417,-348 417,-384"/>
<text text-anchor="middle" x="383" y="-362.3" font-family="Times,serif" font-size="14.00">युञ्जीत(10)</text>
</g>
<!-- Node8_3_2c&#45;&gt;Node10_1 -->
<g id="edge8" class="edge">
<title>Node8_3_2c&#45;&gt;Node10_1</title>
<path fill="none" stroke="black" d="M346.02,-305.7C354.53,-319.34 364.75,-335.73 372.29,-347.82"/>
<polygon fill="black" stroke="black" points="348.99,-303.83 340.73,-297.2 343.05,-307.54 348.99,-303.83"/>
<text text-anchor="middle" x="371" y="-318.8" font-family="Times,serif" font-size="14.00">कर्ता</text>
</g>
<!-- Node12_1 -->
<g id="node7" class="node">
<title>Node12_1</title>
<polygon fill="#93db70" stroke="#93db70" points="375.5,-210 284.5,-210 284.5,-174 375.5,-174 375.5,-210"/>
<text text-anchor="middle" x="330" y="-188.3" font-family="Times,serif" font-size="14.00">अनुलोमनम्(12)</text>
</g>
<!-- Node12_1&#45;&gt;Node8_3_2c -->
<g id="edge17" class="edge">
<title>Node12_1&#45;&gt;Node8_3_2c</title>
<path fill="none" stroke="black" d="M330,-220.27C330,-233.58 330,-249.19 330,-260.82"/>
<polygon fill="black" stroke="black" points="333.5,-220.2 330,-210.2 326.5,-220.2 333.5,-220.2"/>
<text text-anchor="middle" x="353.5" y="-231.8" font-family="Times,serif" font-size="14.00">विशेषणम्</text>
</g>
<!-- Node1_1 -->
<g id="node8" class="node">
<title>Node1_1</title>
<polygon fill="#ff99ff" stroke="#ff99ff" points="700,-123 646,-123 646,-87 700,-87 700,-123"/>
<text text-anchor="middle" x="673" y="-101.3" font-family="Times,serif" font-size="14.00">ततः(1)</text>
</g>
<!-- Node7_1 -->
<g id="node9" class="node">
<title>Node7_1</title>
<polygon fill="#ff1975" stroke="#ff1975" points="575,-210 501,-210 501,-174 575,-174 575,-210"/>
<text text-anchor="middle" x="538" y="-188.3" font-family="Times,serif" font-size="14.00">प्रकुप्यति(7)</text>
</g>
<!-- Node1_1&#45;&gt;Node7_1 -->
<g id="edge9" class="edge">
<title>Node1_1&#45;&gt;Node7_1</title>
<path fill="none" stroke="black" d="M647.8,-129.97C637.76,-138.81 625.79,-148.49 614,-156 601.87,-163.73 587.76,-170.71 575.01,-176.37"/>
<polygon fill="black" stroke="black" points="650.32,-132.42 655.4,-123.13 645.63,-127.22 650.32,-132.42"/>
<text text-anchor="middle" x="652.5" y="-144.8" font-family="Times,serif" font-size="14.00">सम्बन्धः</text>
</g>
<!-- Node2_1 -->
<g id="node10" class="node">
<title>Node2_1</title>
<polygon fill="#ff99ff" stroke="#ff99ff" points="700,-36 646,-36 646,0 700,0 700,-36"/>
<text text-anchor="middle" x="673" y="-14.3" font-family="Times,serif" font-size="14.00">च(2)</text>
</g>
<!-- Node2_1&#45;&gt;Node1_1 -->
<g id="edge10" class="edge">
<title>Node2_1&#45;&gt;Node1_1</title>
<path fill="none" stroke="black" d="M673,-46.27C673,-59.58 673,-75.19 673,-86.82"/>
<polygon fill="black" stroke="black" points="676.5,-46.2 673,-36.2 669.5,-46.2 676.5,-46.2"/>
<text text-anchor="middle" x="691.5" y="-57.8" font-family="Times,serif" font-size="14.00">सम्बन्धः</text>
</g>
<!-- Node3_1 -->
<g id="node11" class="node">
<title>Node3_1</title>
<polygon fill="#ff99ff" stroke="#ff99ff" points="381.5,-123 310.5,-123 310.5,-87 381.5,-87 381.5,-123"/>
<text text-anchor="middle" x="346" y="-101.3" font-family="Times,serif" font-size="14.00">अनेकधा(3)</text>
</g>
<!-- Node3_1&#45;&gt;Node7_1 -->
<g id="edge11" class="edge">
<title>Node3_1&#45;&gt;Node7_1</title>
<path fill="none" stroke="black" d="M352.56,-132.76C356.03,-141.5 361.24,-150.38 369,-156 384.94,-167.54 437.74,-161.97 457,-166 471.55,-169.04 487.23,-173.58 500.88,-177.95"/>
<polygon fill="black" stroke="black" points="355.84,-131.52 349.35,-123.15 349.2,-133.74 355.84,-131.52"/>
<text text-anchor="middle" x="405.5" y="-144.8" font-family="Times,serif" font-size="14.00">क्रियाविशेषणम्</text>
</g>
<!-- Node4_1 -->
<g id="node12" class="node">
<title>Node4_1</title>
<polygon fill="#ff99ff" stroke="#ff99ff" points="470,-123 414,-123 414,-87 470,-87 470,-123"/>
<text text-anchor="middle" x="442" y="-101.3" font-family="Times,serif" font-size="14.00">प्रायः(4)</text>
</g>
<!-- Node4_1&#45;&gt;Node7_1 -->
<g id="edge12" class="edge">
<title>Node4_1&#45;&gt;Node7_1</title>
<path fill="none" stroke="black" d="M443.78,-133C445.48,-141.14 448.54,-149.6 454,-156 465.89,-169.95 484.25,-178.44 500.78,-183.56"/>
<polygon fill="black" stroke="black" points="447.24,-132.41 442.29,-123.04 440.31,-133.45 447.24,-132.41"/>
<text text-anchor="middle" x="490.5" y="-144.8" font-family="Times,serif" font-size="14.00">क्रियाविशेषणम्</text>
</g>
<!-- Node5_1 -->
<g id="node13" class="node">
<title>Node5_1</title>
<polygon fill="#00bfff" stroke="#00bfff" points="556,-123 498,-123 498,-87 556,-87 556,-123"/>
<text text-anchor="middle" x="527" y="-101.3" font-family="Times,serif" font-size="14.00">पवनः(5)</text>
</g>
<!-- Node5_1&#45;&gt;Node7_1 -->
<g id="edge13" class="edge">
<title>Node5_1&#45;&gt;Node7_1</title>
<path fill="none" stroke="black" d="M530.53,-133.27C532.25,-146.58 534.27,-162.19 535.78,-173.82"/>
<polygon fill="black" stroke="black" points="533.98,-132.67 529.23,-123.2 527.04,-133.57 533.98,-132.67"/>
<text text-anchor="middle" x="544" y="-144.8" font-family="Times,serif" font-size="14.00">कर्ता</text>
</g>
<!-- Node6_1 -->
<g id="node14" class="node">
<title>Node6_1</title>
<polygon fill="#ff99ff" stroke="#ff99ff" points="628,-123 574,-123 574,-87 628,-87 628,-123"/>
<text text-anchor="middle" x="601" y="-101.3" font-family="Times,serif" font-size="14.00">यत्(6)</text>
</g>
<!-- Node6_1&#45;&gt;Node7_1 -->
<g id="edge14" class="edge">
<title>Node6_1&#45;&gt;Node7_1</title>
<path fill="none" stroke="black" d="M582.24,-131.31C572.08,-145.02 559.78,-161.62 550.73,-173.82"/>
<polygon fill="black" stroke="black" points="585.11,-133.32 588.25,-123.2 579.48,-129.15 585.11,-133.32"/>
<text text-anchor="middle" x="591.5" y="-144.8" font-family="Times,serif" font-size="14.00">सम्बन्धः</text>
</g>
<!-- Node9_1 -->
<g id="node15" class="node">
<title>Node9_1</title>
<polygon fill="#87ceeb" stroke="#87ceeb" points="448,-210 394,-210 394,-174 448,-174 448,-210"/>
<text text-anchor="middle" x="421" y="-188.3" font-family="Times,serif" font-size="14.00">तस्य(9)</text>
</g>
<!-- Node9_1&#45;&gt;Node8_3_2c -->
<g id="edge15" class="edge">
<title>Node9_1&#45;&gt;Node8_3_2c</title>
<path fill="none" stroke="black" d="M403.12,-218.28C396.63,-226.61 388.94,-235.62 381,-243 374.08,-249.43 365.89,-255.58 358.12,-260.88"/>
<polygon fill="black" stroke="black" points="405.94,-220.36 409.16,-210.26 400.35,-216.14 405.94,-220.36"/>
<text text-anchor="middle" x="423" y="-231.8" font-family="Times,serif" font-size="14.00">षष्ठीसम्बन्धः</text>
</g>
<!-- Node11_1 -->
<g id="node17" class="node">
<title>Node11_1</title>
<polygon fill="#ff99ff" stroke="#ff99ff" points="467,-297 407,-297 407,-261 467,-261 467,-297"/>
<text text-anchor="middle" x="437" y="-275.3" font-family="Times,serif" font-size="14.00">अतः(11)</text>
</g>
<!-- Node11_1&#45;&gt;Node10_1 -->
<g id="edge16" class="edge">
<title>Node11_1&#45;&gt;Node10_1</title>
<path fill="none" stroke="black" d="M420.68,-305.7C412.01,-319.34 401.59,-335.73 393.91,-347.82"/>
<polygon fill="black" stroke="black" points="423.66,-307.52 426.07,-297.2 417.76,-303.76 423.66,-307.52"/>
<text text-anchor="middle" x="432.5" y="-318.8" font-family="Times,serif" font-size="14.00">सम्बन्धः</text>
</g>
</g>
</svg>
