<svg width="996pt" height="451pt"
 viewBox="0.00 0.00 996.00 451.00" xmlns="http://www.w3.org/2000/svg" xmlns:xlink="http://www.w3.org/1999/xlink">
<g id="graph0" class="graph" transform="scale(1 1) rotate(0) translate(4 447)">
<title>G</title>
<polygon fill="#fffacd" stroke="transparent" points="-4,4 -4,-447 992,-447 992,4 -4,4"/>
<g id="clust1" class="cluster">
<title>cluster_1</title>
<polygon fill="#fffacd" stroke="black" points="382,-225 382,-277 482,-277 482,-225 382,-225"/>
</g>
<!-- Node1_2 -->
<style>
 .hidden { display: none; }
 .node { cursor: pointer; }
 </style>
<script>
     function toggleChildren(id) {
      const children = document.getElementById(id);
      if (children.classList.contains('hidden')) {
        children.classList.remove('hidden');
      } else {
        children.classList.add('hidden');
      }
    }
</script>
<g id="children_node0_87958" class="hidden">
    <g class="node" onclick="toggleChildren('children_node0_87958');">
</g>
</g>
<g id="children_node1_87958" class="hidden">
    <g class="node" onclick="toggleChildren('children_node1_87958');">

<g id="node1" class="node">
<title>Node1_2</title>
<polygon fill="#ffff00" stroke="#ffff00" points="162,-36 108,-36 108,0 162,0 162,-36"/>
<text text-anchor="middle" x="135" y="-14.3" font-family="Times,serif" font-size="14.00">हृत्&#45;</text>
</g>
<!-- Node1_3 -->
<g id="node2" class="node">
<title>Node1_3</title>
<polygon fill="#ffff00" stroke="#ffff00" points="252,-36 198,-36 198,0 252,0 252,-36"/>
<text text-anchor="middle" x="225" y="-14.3" font-family="Times,serif" font-size="14.00">रोग&#45;</text>
</g>
<!-- Node1_2&#45;&gt;Node1_3 -->
<!-- Node1_3_1 -->
<g id="node3" class="node">
<title>Node1_3_1</title>
<polygon fill="#ffff00" stroke="#ffff00" points="273.5,-109 130.5,-109 130.5,-73 273.5,-73 273.5,-109"/>
<text text-anchor="middle" x="202" y="-87.3" font-family="Times,serif" font-size="14.00">&lt;हृत्&#45;रोग&#45;&gt;(षष्ठी&#45;तत्पुरुषः)</text>
</g>
<!-- Node1_2&#45;&gt;Node1_3_1 -->
<g id="edge2" class="edge">
<title>Node1_2&#45;&gt;Node1_3_1</title>
<path fill="none" stroke="black" d="M158.24,-43.63C167.38,-53.31 177.64,-64.19 185.93,-72.97"/>
<polygon fill="black" stroke="black" points="160.63,-41.06 151.22,-36.19 155.54,-45.86 160.63,-41.06"/>
</g>
<!-- Node1_3&#45;&gt;Node1_3_1 -->
<g id="edge1" class="edge">
<title>Node1_3&#45;&gt;Node1_3_1</title>
<path fill="none" stroke="black" d="M216.27,-45.95C213.33,-55.02 210.14,-64.88 207.52,-72.97"/>
<polygon fill="black" stroke="black" points="219.68,-46.78 219.43,-36.19 213.02,-44.62 219.68,-46.78"/>
</g>
<!-- Node1_4 -->
<g id="node4" class="node">
<title>Node1_4</title>
<polygon fill="#ffff00" stroke="#ffff00" points="364.5,-109 309.5,-109 309.5,-73 364.5,-73 364.5,-109"/>
<text text-anchor="middle" x="337" y="-87.3" font-family="Times,serif" font-size="14.00">सम्मोहाः</text>
</g>
<!-- Node1_3_1&#45;&gt;Node1_4 -->
<!-- Node1_4_2 -->
<g id="node5" class="node">
<title>Node1_4_2</title>
<polygon fill="#ffff00" stroke="#ffff00" points="414.5,-182 151.5,-182 151.5,-146 414.5,-146 414.5,-182"/>
<text text-anchor="middle" x="283" y="-160.3" font-family="Times,serif" font-size="14.00">&lt;&lt;हृत्&#45;रोग&#45;&gt;(षष्ठी&#45;तत्पुरुषः)सम्मोहाः&gt;(इतरेतर&#45;द्वन्द्वः)</text>
</g>
<!-- Node1_3_1&#45;&gt;Node1_4_2 -->
<g id="edge5" class="edge">
<title>Node1_3_1&#45;&gt;Node1_4_2</title>
<path fill="none" stroke="black" d="M229.45,-116.06C240.65,-125.88 253.35,-137.01 263.57,-145.97"/>
<polygon fill="black" stroke="black" points="231.43,-113.15 221.61,-109.19 226.82,-118.41 231.43,-113.15"/>
</g>
<!-- Node1_4&#45;&gt;Node1_4_2 -->
<g id="edge4" class="edge">
<title>Node1_4&#45;&gt;Node1_4_2</title>
<path fill="none" stroke="black" d="M317.83,-117.21C310.58,-126.74 302.5,-137.36 295.95,-145.97"/>
<polygon fill="black" stroke="black" points="320.66,-119.27 323.93,-109.19 315.09,-115.03 320.66,-119.27"/>
</g>
<!-- Node1_4_3 -->
<g id="node7" class="node">
<title>Node1_4_3</title>
<polygon fill="#ffff00" stroke="#ffff00" points="372,-269 0,-269 0,-233 372,-233 372,-269"/>
<text text-anchor="middle" x="186" y="-247.3" font-family="Times,serif" font-size="14.00">&lt;गुल्म&#45;&lt;&lt;हृत्&#45;रोग&#45;&gt;(षष्ठी&#45;तत्पुरुषः)सम्मोहाः&gt;(इतरेतर&#45;द्वन्द्वः)&gt;(इतरेतर&#45;द्वन्द्वः)</text>
</g>
<!-- Node1_4_2&#45;&gt;Node1_4_3 -->
<g id="edge7" class="edge">
<title>Node1_4_2&#45;&gt;Node1_4_3</title>
<path fill="none" stroke="black" d="M255.44,-189.15C239.54,-203.08 219.92,-220.27 205.6,-232.82"/>
<polygon fill="black" stroke="black" points="258.16,-191.42 263.37,-182.2 253.54,-186.16 258.16,-191.42"/>
</g>
<!-- Node1_1 -->
<g id="node6" class="node">
<title>Node1_1</title>
<polygon fill="#ffff00" stroke="#ffff00" points="116,-182 62,-182 62,-146 116,-146 116,-182"/>
<text text-anchor="middle" x="89" y="-160.3" font-family="Times,serif" font-size="14.00">गुल्म&#45;</text>
</g>
<!-- Node1_1&#45;&gt;Node1_4_2 -->
<!-- Node1_1&#45;&gt;Node1_4_3 -->
<g id="edge8" class="edge">
<title>Node1_1&#45;&gt;Node1_4_3</title>
<path fill="none" stroke="black" d="M116.56,-189.15C132.46,-203.08 152.08,-220.27 166.4,-232.82"/>
<polygon fill="black" stroke="black" points="118.46,-186.16 108.63,-182.2 113.84,-191.42 118.46,-186.16"/>
</g>
<!-- Node1_4_3&#45;&gt;Node1_4_3c -->
<g id="edge10" class="edge">
<title>Node1_4_3&#45;&gt;Node1_4_3c</title>
<path fill="none" stroke="black" d="M211.11,-276.53C225.3,-290.4 242.69,-307.39 255.42,-319.82"/>
<polygon fill="black" stroke="black" points="213.2,-273.69 203.61,-269.2 208.31,-278.69 213.2,-273.69"/>
</g>
</g>
</g>
<!-- Node1_4_3c -->
<g class="node8" onclick="toggleChildren('children_node1_87958');">
<title>Node1_4_3c</title>
<polygon fill="#00bfff" stroke="#00bfff" points="341.5,-356 204.5,-356 204.5,-320 341.5,-320 341.5,-356"/>
<text text-anchor="middle" x="273" y="-334.3" font-family="Times,serif" font-size="14.00">गुल्म&#45;हृत्&#45;रोग&#45;सम्मोहाः(1)</text>
</g>
<g id="children_node2_87958" class="hidden">
    <g class="node" onclick="toggleChildren('children_node2_87958');">
<!-- Node2_1 -->
<g id="node9" class="node">
<title>Node2_1</title>
<polygon fill="#ffff00" stroke="#ffff00" points="564,-182 510,-182 510,-146 564,-146 564,-182"/>
<text text-anchor="middle" x="537" y="-160.3" font-family="Times,serif" font-size="14.00">श्रम&#45;</text>
</g>
<!-- Node2_2 -->
<g id="node10" class="node">
<title>Node2_2</title>
<polygon fill="#ffff00" stroke="#ffff00" points="654,-182 600,-182 600,-146 654,-146 654,-182"/>
<text text-anchor="middle" x="627" y="-160.3" font-family="Times,serif" font-size="14.00">श्वासात्</text>
</g>
<!-- Node2_1&#45;&gt;Node2_2 -->
<!-- Node2_2_1 -->
<g id="node11" class="node">
<title>Node2_2_1</title>
<polygon fill="#ffff00" stroke="#ffff00" points="658.5,-269 491.5,-269 491.5,-233 658.5,-233 658.5,-269"/>
<text text-anchor="middle" x="575" y="-247.3" font-family="Times,serif" font-size="14.00">&lt;श्रम&#45;श्वासात्&gt;(तृतीया&#45;तत्पुरुषः)</text>
</g>
<!-- Node2_1&#45;&gt;Node2_2_1 -->
<g id="edge13" class="edge">
<title>Node2_1&#45;&gt;Node2_2_1</title>
<path fill="none" stroke="black" d="M548.84,-191.48C554.86,-204.96 562.02,-220.96 567.32,-232.82"/>
<polygon fill="black" stroke="black" points="551.97,-189.9 544.69,-182.2 545.58,-192.76 551.97,-189.9"/>
</g>
<!-- Node2_2&#45;&gt;Node2_2_1 -->
<g id="edge12" class="edge">
<title>Node2_2&#45;&gt;Node2_2_1</title>
<path fill="none" stroke="black" d="M611.04,-191.09C602.74,-204.65 592.83,-220.85 585.51,-232.82"/>
<polygon fill="black" stroke="black" points="614.24,-192.56 616.48,-182.2 608.27,-188.9 614.24,-192.56"/>
</g>
<!-- Node2_2_1&#45;&gt;Node2_2_1c -->
<g id="edge15" class="edge">
<title>Node2_2_1&#45;&gt;Node2_2_1c</title>
<path fill="none" stroke="black" d="M537.25,-274.44C513.33,-288.65 482.88,-306.75 460.9,-319.82"/>
<polygon fill="black" stroke="black" points="539.25,-277.32 546.06,-269.2 535.68,-271.3 539.25,-277.32"/>
</g>
</g>
</g>
<!-- Node2_2_1c -->
<g class="node12" onclick="toggleChildren('children_node2_87958');">
<title>Node2_2_1c</title>
<polygon fill="#b4ffb4" stroke="#b4ffb4" points="475,-356 389,-356 389,-320 475,-320 475,-356"/>
<text text-anchor="middle" x="432" y="-334.3" font-family="Times,serif" font-size="14.00">श्रम&#45;श्वासात्(2)</text>
</g>
<g id="children_node3_87958" class="hidden">
    <g class="node" onclick="toggleChildren('children_node3_87958');">
<!-- Node7_1 -->
<g id="node13" class="node">
<title>Node7_1</title>
<polygon fill="#ffff00" stroke="#ffff00" points="689,-36 635,-36 635,0 689,0 689,-36"/>
<text text-anchor="middle" x="662" y="-14.3" font-family="Times,serif" font-size="14.00">वात&#45;</text>
</g>
<!-- Node7_2 -->
<g id="node14" class="node">
<title>Node7_2</title>
<polygon fill="#ffff00" stroke="#ffff00" points="779,-36 725,-36 725,0 779,0 779,-36"/>
<text text-anchor="middle" x="752" y="-14.3" font-family="Times,serif" font-size="14.00">घ्नः</text>
</g>
<!-- Node7_1&#45;&gt;Node7_2 -->
<!-- Node7_2_1 -->
<g id="node15" class="node">
<title>Node7_2_1</title>
<polygon fill="#ffff00" stroke="#ffff00" points="784,-109 632,-109 632,-73 784,-73 784,-109"/>
<text text-anchor="middle" x="708" y="-87.3" font-family="Times,serif" font-size="14.00">&lt;वात&#45;घ्नः&gt;(उपपद&#45;तत्पुरुषः)</text>
</g>
<!-- Node7_1&#45;&gt;Node7_2_1 -->
<g id="edge18" class="edge">
<title>Node7_1&#45;&gt;Node7_2_1</title>
<path fill="none" stroke="black" d="M678.71,-44.79C684.79,-54.17 691.5,-64.54 696.97,-72.97"/>
<polygon fill="black" stroke="black" points="681.51,-42.68 673.14,-36.19 675.64,-46.48 681.51,-42.68"/>
</g>
<!-- Node7_2&#45;&gt;Node7_2_1 -->
<g id="edge17" class="edge">
<title>Node7_2&#45;&gt;Node7_2_1</title>
<path fill="none" stroke="black" d="M736.02,-44.79C730.2,-54.17 723.78,-64.54 718.55,-72.97"/>
<polygon fill="black" stroke="black" points="739.06,-46.53 741.35,-36.19 733.11,-42.84 739.06,-46.53"/>
</g>
<!-- Node7_2_1&#45;&gt;Node7_2_1c -->
<g id="edge20" class="edge">
<title>Node7_2_1&#45;&gt;Node7_2_1c</title>
<path fill="none" stroke="black" d="M708,-119.25C708,-128.23 708,-137.97 708,-145.97"/>
<polygon fill="black" stroke="black" points="711.5,-119.19 708,-109.19 704.5,-119.19 711.5,-119.19"/>
</g>
</g>
</g>
<!-- Node7_2_1c -->
<g class="node16" onclick="toggleChildren('children_node3_87958');">
<title>Node7_2_1c</title>
<polygon fill="#00bfff" stroke="#00bfff" points="744,-182 672,-182 672,-146 744,-146 744,-182"/>
<text text-anchor="middle" x="708" y="-160.3" font-family="Times,serif" font-size="14.00">वात&#45;घ्नः(7)</text>
</g>
<g id="children_node4_87958" class="hidden">
    <g class="node" onclick="toggleChildren('children_node4_87958');">
<!-- Node9_1 -->
<g id="node17" class="node">
<title>Node9_1</title>
<polygon fill="#ffff00" stroke="#ffff00" points="861,-109 807,-109 807,-73 861,-73 861,-109"/>
<text text-anchor="middle" x="834" y="-87.3" font-family="Times,serif" font-size="14.00">क्रिया&#45;</text>
</g>
<!-- Node9_2 -->
<g id="node18" class="node">
<title>Node9_2</title>
<polygon fill="#ffff00" stroke="#ffff00" points="951,-109 897,-109 897,-73 951,-73 951,-109"/>
<text text-anchor="middle" x="924" y="-87.3" font-family="Times,serif" font-size="14.00">क्रमः</text>
</g>
<!-- Node9_1&#45;&gt;Node9_2 -->
<!-- Node9_2_1 -->
<g id="node19" class="node">
<title>Node9_2_1</title>
<polygon fill="#ffff00" stroke="#ffff00" points="916,-182 762,-182 762,-146 916,-146 916,-182"/>
<text text-anchor="middle" x="839" y="-160.3" font-family="Times,serif" font-size="14.00">&lt;क्रिया&#45;क्रमः&gt;(षष्ठी&#45;तत्पुरुषः)</text>
</g>
<!-- Node9_1&#45;&gt;Node9_2_1 -->
<g id="edge23" class="edge">
<title>Node9_1&#45;&gt;Node9_2_1</title>
<path fill="none" stroke="black" d="M835.92,-119.25C836.55,-128.23 837.24,-137.97 837.8,-145.97"/>
<polygon fill="black" stroke="black" points="839.4,-118.92 835.21,-109.19 832.42,-119.41 839.4,-118.92"/>
</g>
<!-- Node9_2&#45;&gt;Node9_2_1 -->
<g id="edge22" class="edge">
<title>Node9_2&#45;&gt;Node9_2_1</title>
<path fill="none" stroke="black" d="M895.54,-115.77C883.7,-125.67 870.21,-136.93 859.39,-145.97"/>
<polygon fill="black" stroke="black" points="897.99,-118.28 903.42,-109.19 893.51,-112.91 897.99,-118.28"/>
</g>
<!-- Node9_2_1&#45;&gt;Node9_2_1c -->
<g id="edge25" class="edge">
<title>Node9_2_1&#45;&gt;Node9_2_1c</title>
<path fill="none" stroke="black" d="M839,-192.27C839,-205.58 839,-221.19 839,-232.82"/>
<polygon fill="black" stroke="black" points="842.5,-192.2 839,-182.2 835.5,-192.2 842.5,-192.2"/>
</g>
</g>
</g>
<!-- Node9_2_1c -->
<g class="node20" onclick="toggleChildren('children_node4_87958');">
<title>Node9_2_1c</title>
<polygon fill="#00bfff" stroke="#00bfff" points="880.5,-269 797.5,-269 797.5,-233 880.5,-233 880.5,-269"/>
<text text-anchor="middle" x="839" y="-247.3" font-family="Times,serif" font-size="14.00">क्रिया&#45;क्रमः(9)</text>
</g>
<!-- Node10_1 -->
<g id="node26" class="node">
<title>Node10_1</title>
<polygon fill="#ff1975" stroke="#ff1975" points="397,-443 317,-443 317,-407 397,-407 397,-443"/>
<text text-anchor="middle" x="357" y="-421.3" font-family="Times,serif" font-size="14.00">(जायन्ते)(10)</text>
</g>
<!-- Node1_4_3c&#45;&gt;Node10_1 -->
<g id="edge11" class="edge">
<title>Node1_4_3c&#45;&gt;Node10_1</title>
<path fill="none" stroke="black" d="M297.24,-363.53C310.95,-377.4 327.74,-394.39 340.03,-406.82"/>
<polygon fill="black" stroke="black" points="299.52,-360.85 290,-356.2 294.54,-365.77 299.52,-360.85"/>
<text text-anchor="middle" x="332" y="-377.8" font-family="Times,serif" font-size="14.00">कर्ता</text>
</g>
<!-- Node2_2_1c&#45;&gt;Node10_1 -->
<g id="edge16" class="edge">
<title>Node2_2_1c&#45;&gt;Node10_1</title>
<path fill="none" stroke="black" d="M410.01,-363.92C397.84,-377.71 383.03,-394.5 372.15,-406.82"/>
<polygon fill="black" stroke="black" points="412.83,-366.02 416.82,-356.2 407.58,-361.38 412.83,-366.02"/>
<text text-anchor="middle" x="407.5" y="-377.8" font-family="Times,serif" font-size="14.00">हेतुः</text>
</g>
<!-- Node7_2_1c&#45;&gt;Node9_2_1c -->
<g id="edge21" class="edge">
<title>Node7_2_1c&#45;&gt;Node9_2_1c</title>
<path fill="none" stroke="black" d="M743.16,-187.82C764.98,-201.97 792.56,-219.87 812.53,-232.82"/>
<polygon fill="black" stroke="black" points="744.8,-184.71 734.51,-182.2 740.99,-190.58 744.8,-184.71"/>
<text text-anchor="middle" x="804.5" y="-203.8" font-family="Times,serif" font-size="14.00">विशेषणम्</text>
</g>
<!-- Node5_1 -->
<g id="node22" class="node">
<title>Node5_1</title>
<polygon fill="#00bfff" stroke="#00bfff" points="878,-356 800,-356 800,-320 878,-320 878,-356"/>
<text text-anchor="middle" x="839" y="-334.3" font-family="Times,serif" font-size="14.00">विश्रमणम्(5)</text>
</g>
<!-- Node9_2_1c&#45;&gt;Node5_1 -->
<g id="edge26" class="edge">
<title>Node9_2_1c&#45;&gt;Node5_1</title>
<path fill="none" stroke="black" d="M839,-279.27C839,-292.58 839,-308.19 839,-319.82"/>
<polygon fill="black" stroke="black" points="842.5,-279.2 839,-269.2 835.5,-279.2 842.5,-279.2"/>
<text text-anchor="middle" x="861.5" y="-290.8" font-family="Times,serif" font-size="14.00">समुच्चितः</text>
</g>
<!-- Node3_1 -->
<g id="node21" class="node">
<title>Node3_1</title>
<polygon fill="#b4ffb4" stroke="#b4ffb4" points="473.5,-269 390.5,-269 390.5,-233 473.5,-233 473.5,-269"/>
<text text-anchor="middle" x="432" y="-247.3" font-family="Times,serif" font-size="14.00">विधारितात्(3)</text>
</g>
<!-- Node3_1&#45;&gt;Node2_2_1c -->
<g id="edge27" class="edge">
<title>Node3_1&#45;&gt;Node2_2_1c</title>
<path fill="none" stroke="black" d="M432,-279.27C432,-292.58 432,-308.19 432,-319.82"/>
<polygon fill="black" stroke="black" points="435.5,-279.2 432,-269.2 428.5,-279.2 435.5,-279.2"/>
<text text-anchor="middle" x="455.5" y="-290.8" font-family="Times,serif" font-size="14.00">विशेषणम्</text>
</g>
<!-- Node4_1 -->
<g id="node23" class="node">
<title>Node4_1</title>
<polygon fill="#00bfff" stroke="#00bfff" points="921,-443 863,-443 863,-407 921,-407 921,-443"/>
<text text-anchor="middle" x="892" y="-421.3" font-family="Times,serif" font-size="14.00">हितम्(4)</text>
</g>
<!-- Node5_1&#45;&gt;Node4_1 -->
<g id="edge28" class="edge">
<title>Node5_1&#45;&gt;Node4_1</title>
<path fill="none" stroke="black" d="M855.02,-364.7C863.53,-378.34 873.75,-394.73 881.29,-406.82"/>
<polygon fill="black" stroke="black" points="857.99,-362.83 849.73,-356.2 852.05,-366.54 857.99,-362.83"/>
<text text-anchor="middle" x="877" y="-377.8" font-family="Times,serif" font-size="14.00">कर्म</text>
</g>
<!-- Node6_1 -->
<g id="node24" class="node">
<title>Node6_1</title>
<polygon fill="#ff99ff" stroke="#ff99ff" points="950,-356 896,-356 896,-320 950,-320 950,-356"/>
<text text-anchor="middle" x="923" y="-334.3" font-family="Times,serif" font-size="14.00">तत्र(6)</text>
</g>
<!-- Node6_1&#45;&gt;Node4_1 -->
<g id="edge29" class="edge">
<title>Node6_1&#45;&gt;Node4_1</title>
<path fill="none" stroke="black" d="M913.2,-365.87C908.31,-379.27 902.55,-395.08 898.26,-406.82"/>
<polygon fill="black" stroke="black" points="916.59,-366.79 916.73,-356.2 910.01,-364.4 916.59,-366.79"/>
<text text-anchor="middle" x="942" y="-377.8" font-family="Times,serif" font-size="14.00">देशाधिकरणम्</text>
</g>
<!-- Node8_1 -->
<g id="node25" class="node">
<title>Node8_1</title>
<polygon fill="#ff99ff" stroke="#ff99ff" points="988,-182 934,-182 934,-146 988,-146 988,-182"/>
<text text-anchor="middle" x="961" y="-160.3" font-family="Times,serif" font-size="14.00">च(8)</text>
</g>
<!-- Node8_1&#45;&gt;Node9_2_1c -->
<g id="edge30" class="edge">
<title>Node8_1&#45;&gt;Node9_2_1c</title>
<path fill="none" stroke="black" d="M927.98,-188.01C907.7,-202.13 882.16,-219.93 863.65,-232.82"/>
<polygon fill="black" stroke="black" points="930.11,-190.79 936.31,-182.2 926.11,-185.05 930.11,-190.79"/>
<text text-anchor="middle" x="946.5" y="-203.8" font-family="Times,serif" font-size="14.00">समुच्चय_द्योतकः</text>
</g>
</g>
</svg>
