<?xml version="1.0" encoding="UTF-8" standalone="no"?>
<!DOCTYPE svg PUBLIC "-//W3C//DTD SVG 1.1//EN"
 "http://www.w3.org/Graphics/SVG/1.1/DTD/svg11.dtd">
<!-- Generated by graphviz version 2.50.0 (20211204.2007)
 -->
<!-- Title: G Pages: 1 -->
<svg width="507pt" height="218pt"
 viewBox="0.00 0.00 507.39 218.00" xmlns="http://www.w3.org/2000/svg" xmlns:xlink="http://www.w3.org/1999/xlink">
<g id="graph0" class="graph" transform="scale(1 1) rotate(0) translate(4 214)">
<title>G</title>
<polygon fill="#fffacd" stroke="transparent" points="-4,4 -4,-214 503.39,-214 503.39,4 -4,4"/>
<!-- Node1_1 -->
<g id="node1" class="node">
<title>Node1_1</title>
<ellipse fill="#00bfff" stroke="#00bfff" cx="54.6" cy="-105" rx="42.49" ry="18"/>
<text text-anchor="middle" x="54.6" y="-101.3" font-family="Times,serif" font-size="14.00">तोदः(1.1)</text>
</g>
<!-- Node7_2 -->
<g id="node2" class="node">
<title>Node7_2</title>
<ellipse fill="#ff1975" stroke="#ff1975" cx="54.6" cy="-192" rx="49.29" ry="18"/>
<text text-anchor="middle" x="54.6" y="-188.3" font-family="Times,serif" font-size="14.00">(स्यात्)(7.2)</text>
</g>
<!-- Node1_1&#45;&gt;Node7_2 -->
<g id="edge1" class="edge">
<title>Node1_1&#45;&gt;Node7_2</title>
<path fill="none" stroke="black" d="M54.6,-133.27C54.6,-146.58 54.6,-162.19 54.6,-173.82"/>
<polygon fill="black" stroke="black" points="58.1,-133.2 54.6,-123.2 51.1,-133.2 58.1,-133.2"/>
<text text-anchor="middle" x="65.6" y="-144.8" font-family="Times,serif" font-size="14.00">कर्ता</text>
</g>
<!-- Node2_1 -->
<g id="node3" class="node">
<title>Node2_1</title>
<ellipse fill="#ffff00" stroke="#ffff00" cx="171.6" cy="-18" rx="44.39" ry="18"/>
<text text-anchor="middle" x="171.6" y="-14.3" font-family="Times,serif" font-size="14.00">अति&#45;(2.1)</text>
</g>
<!-- Node2_2 -->
<g id="node4" class="node">
<title>Node2_2</title>
<ellipse fill="#ff99ff" stroke="#ff99ff" cx="171.6" cy="-105" rx="44.69" ry="18"/>
<text text-anchor="middle" x="171.6" y="-101.3" font-family="Times,serif" font-size="14.00">अर्थम्(2.2)</text>
</g>
<!-- Node2_1&#45;&gt;Node2_2 -->
<g id="edge2" class="edge">
<title>Node2_1&#45;&gt;Node2_2</title>
<path fill="none" stroke="black" d="M171.6,-46.27C171.6,-59.58 171.6,-75.19 171.6,-86.82"/>
<polygon fill="black" stroke="black" points="175.1,-46.2 171.6,-36.2 168.1,-46.2 175.1,-46.2"/>
<text text-anchor="middle" x="200.6" y="-57.8" font-family="Times,serif" font-size="14.00">अव्ययीभावः</text>
</g>
<!-- Node5_1 -->
<g id="node5" class="node">
<title>Node5_1</title>
<ellipse fill="#ff1975" stroke="#ff1975" cx="322.6" cy="-192" rx="53.89" ry="18"/>
<text text-anchor="middle" x="322.6" y="-188.3" font-family="Times,serif" font-size="14.00">धूमायति(5.1)</text>
</g>
<!-- Node2_2&#45;&gt;Node5_1 -->
<g id="edge3" class="edge">
<title>Node2_2&#45;&gt;Node5_1</title>
<path fill="none" stroke="black" d="M190.96,-130.11C199.28,-139.23 209.63,-149.08 220.6,-156 238.56,-167.34 260.65,-175.51 279.67,-181.08"/>
<polygon fill="black" stroke="black" points="193.41,-127.6 184.19,-122.37 188.14,-132.2 193.41,-127.6"/>
<text text-anchor="middle" x="257.1" y="-144.8" font-family="Times,serif" font-size="14.00">क्रियाविशेषणम्</text>
</g>
<!-- Node3_1 -->
<g id="node6" class="node">
<title>Node3_1</title>
<ellipse fill="#87ceeb" stroke="#87ceeb" cx="54.6" cy="-18" rx="54.69" ry="18"/>
<text text-anchor="middle" x="54.6" y="-14.3" font-family="Times,serif" font-size="14.00">वृषणयोः(3.1)</text>
</g>
<!-- Node3_1&#45;&gt;Node1_1 -->
<g id="edge4" class="edge">
<title>Node3_1&#45;&gt;Node1_1</title>
<path fill="none" stroke="black" d="M54.6,-46.27C54.6,-59.58 54.6,-75.19 54.6,-86.82"/>
<polygon fill="black" stroke="black" points="58.1,-46.2 54.6,-36.2 51.1,-46.2 58.1,-46.2"/>
<text text-anchor="middle" x="82.6" y="-57.8" font-family="Times,serif" font-size="14.00">षष्ठीसम्बन्धः</text>
</g>
<!-- Node4_1 -->
<g id="node7" class="node">
<title>Node4_1</title>
<ellipse fill="#93db70" stroke="#93db70" cx="276.6" cy="-105" rx="42.49" ry="18"/>
<text text-anchor="middle" x="276.6" y="-101.3" font-family="Times,serif" font-size="14.00">मेढ्रम्(4.1)</text>
</g>
<!-- Node4_1&#45;&gt;Node5_1 -->
<g id="edge5" class="edge">
<title>Node4_1&#45;&gt;Node5_1</title>
<path fill="none" stroke="black" d="M290.56,-131.8C298.01,-145.58 306.98,-162.14 313.53,-174.24"/>
<polygon fill="black" stroke="black" points="293.52,-129.92 285.68,-122.79 287.36,-133.25 293.52,-129.92"/>
<text text-anchor="middle" x="313.6" y="-144.8" font-family="Times,serif" font-size="14.00">कर्ता</text>
</g>
<!-- Node6_1 -->
<g id="node8" class="node">
<title>Node6_1</title>
<ellipse fill="#ff99ff" stroke="#ff99ff" cx="373.6" cy="-105" rx="37.09" ry="18"/>
<text text-anchor="middle" x="373.6" y="-101.3" font-family="Times,serif" font-size="14.00">इव(6.1)</text>
</g>
<!-- Node6_1&#45;&gt;Node5_1 -->
<g id="edge6" class="edge">
<title>Node6_1&#45;&gt;Node5_1</title>
<path fill="none" stroke="black" d="M358.6,-130.99C350.28,-144.87 340.14,-161.76 332.75,-174.08"/>
<polygon fill="black" stroke="black" points="361.62,-132.76 363.76,-122.39 355.62,-129.16 361.62,-132.76"/>
<text text-anchor="middle" x="387.1" y="-144.8" font-family="Times,serif" font-size="14.00">उत्प्रेक्षा_द्योतकः</text>
</g>
<!-- Node7_1 -->
<g id="node9" class="node">
<title>Node7_1</title>
<ellipse fill="#ff99ff" stroke="#ff99ff" cx="465.6" cy="-105" rx="33.6" ry="18"/>
<text text-anchor="middle" x="465.6" y="-101.3" font-family="Times,serif" font-size="14.00">च(7.1)</text>
</g>
<!-- Node7_1&#45;&gt;Node5_1 -->
<g id="edge7" class="edge">
<title>Node7_1&#45;&gt;Node5_1</title>
<path fill="none" stroke="black" d="M450.97,-131.1C444.74,-140 436.77,-149.43 427.6,-156 410.02,-168.58 387.61,-176.87 368.02,-182.2"/>
<polygon fill="black" stroke="black" points="454.06,-132.78 456.62,-122.49 448.21,-128.94 454.06,-132.78"/>
<text text-anchor="middle" x="460.1" y="-144.8" font-family="Times,serif" font-size="14.00">सम्बन्धः</text>
</g>
</g>
</svg>
