<?xml version="1.0" encoding="UTF-8" standalone="no"?>
<!DOCTYPE svg PUBLIC "-//W3C//DTD SVG 1.1//EN"
 "http://www.w3.org/Graphics/SVG/1.1/DTD/svg11.dtd">
<!-- Generated by graphviz version 2.50.0 (20211204.2007)
 -->
<!-- Title: G Pages: 1 -->
<svg width="445pt" height="305pt"
 viewBox="0.00 0.00 445.50 305.00" xmlns="http://www.w3.org/2000/svg" xmlns:xlink="http://www.w3.org/1999/xlink">
<g id="graph0" class="graph" transform="scale(1 1) rotate(0) translate(4 301)">
<title>G</title>
<polygon fill="#fffacd" stroke="transparent" points="-4,4 -4,-301 441.5,-301 441.5,4 -4,4"/>
<!-- Node1_1 -->
<g id="node1" class="node">
<title>Node1_1</title>
<ellipse fill="#ffff00" stroke="#ffff00" cx="45.5" cy="-18" rx="45.49" ry="18"/>
<text text-anchor="middle" x="45.5" y="-14.3" font-family="Times,serif" font-size="14.00">हृदय&#45;(1.1)</text>
</g>
<!-- Node1_2 -->
<g id="node2" class="node">
<title>Node1_2</title>
<ellipse fill="#00bfff" stroke="#00bfff" cx="97.5" cy="-105" rx="41.69" ry="18"/>
<text text-anchor="middle" x="97.5" y="-101.3" font-family="Times,serif" font-size="14.00">स्थम्(1.2)</text>
</g>
<!-- Node1_1&#45;&gt;Node1_2 -->
<g id="edge1" class="edge">
<title>Node1_1&#45;&gt;Node1_2</title>
<path fill="none" stroke="black" d="M49.49,-46.01C51.42,-53.81 54.28,-62.08 58.5,-69 63.13,-76.62 69.93,-83.53 76.56,-89.16"/>
<polygon fill="black" stroke="black" points="52.9,-45.25 47.44,-36.18 46.05,-46.68 52.9,-45.25"/>
<text text-anchor="middle" x="93.5" y="-57.8" font-family="Times,serif" font-size="14.00">उपपद&#45;तत्पुरुषः</text>
</g>
<!-- Node3_1 -->
<g id="node3" class="node">
<title>Node3_1</title>
<ellipse fill="#ff1975" stroke="#ff1975" cx="97.5" cy="-192" rx="50.89" ry="18"/>
<text text-anchor="middle" x="97.5" y="-188.3" font-family="Times,serif" font-size="14.00">(भवति)(3.1)</text>
</g>
<!-- Node1_2&#45;&gt;Node3_1 -->
<g id="edge2" class="edge">
<title>Node1_2&#45;&gt;Node3_1</title>
<path fill="none" stroke="black" d="M97.5,-133.27C97.5,-146.58 97.5,-162.19 97.5,-173.82"/>
<polygon fill="black" stroke="black" points="101,-133.2 97.5,-123.2 94,-133.2 101,-133.2"/>
<text text-anchor="middle" x="108.5" y="-144.8" font-family="Times,serif" font-size="14.00">कर्ता</text>
</g>
<!-- Node2_1 -->
<g id="node4" class="node">
<title>Node2_1</title>
<ellipse fill="#ff99ff" stroke="#ff99ff" cx="150.5" cy="-18" rx="41.69" ry="18"/>
<text text-anchor="middle" x="150.5" y="-14.3" font-family="Times,serif" font-size="14.00">अपि(2.1)</text>
</g>
<!-- Node2_1&#45;&gt;Node1_2 -->
<g id="edge3" class="edge">
<title>Node2_1&#45;&gt;Node1_2</title>
<path fill="none" stroke="black" d="M140.71,-45.38C137.31,-53.24 133.17,-61.7 128.5,-69 124.21,-75.7 118.66,-82.4 113.44,-88.12"/>
<polygon fill="black" stroke="black" points="144.05,-46.45 144.59,-35.87 137.57,-43.8 144.05,-46.45"/>
<text text-anchor="middle" x="155" y="-57.8" font-family="Times,serif" font-size="14.00">सम्बन्धः</text>
</g>
<!-- Node4_1 -->
<g id="node5" class="node">
<title>Node4_1</title>
<ellipse fill="#00bfff" stroke="#00bfff" cx="258.5" cy="-18" rx="46.29" ry="18"/>
<text text-anchor="middle" x="258.5" y="-14.3" font-family="Times,serif" font-size="14.00">व्यापि(4.1)</text>
</g>
<!-- Node5_1 -->
<g id="node6" class="node">
<title>Node5_1</title>
<ellipse fill="#ff1975" stroke="#ff1975" cx="258.5" cy="-105" rx="50.89" ry="18"/>
<text text-anchor="middle" x="258.5" y="-101.3" font-family="Times,serif" font-size="14.00">(भवति)(5.1)</text>
</g>
<!-- Node4_1&#45;&gt;Node5_1 -->
<g id="edge4" class="edge">
<title>Node4_1&#45;&gt;Node5_1</title>
<path fill="none" stroke="black" d="M258.5,-46.27C258.5,-59.58 258.5,-75.19 258.5,-86.82"/>
<polygon fill="black" stroke="black" points="262,-46.2 258.5,-36.2 255,-46.2 262,-46.2"/>
<text text-anchor="middle" x="269.5" y="-57.8" font-family="Times,serif" font-size="14.00">कर्ता</text>
</g>
<!-- Node6_1 -->
<g id="node7" class="node">
<title>Node6_1</title>
<ellipse fill="#ffff00" stroke="#ffff00" cx="376.5" cy="-18" rx="39.79" ry="18"/>
<text text-anchor="middle" x="376.5" y="-14.3" font-family="Times,serif" font-size="14.00">देह&#45;(6.1)</text>
</g>
<!-- Node6_2 -->
<g id="node8" class="node">
<title>Node6_2</title>
<ellipse fill="#ffff00" stroke="#ffff00" cx="376.5" cy="-105" rx="49.29" ry="18"/>
<text text-anchor="middle" x="376.5" y="-101.3" font-family="Times,serif" font-size="14.00">स्थिति&#45;(6.2)</text>
</g>
<!-- Node6_1&#45;&gt;Node6_2 -->
<g id="edge5" class="edge">
<title>Node6_1&#45;&gt;Node6_2</title>
<path fill="none" stroke="black" d="M376.5,-46.27C376.5,-59.58 376.5,-75.19 376.5,-86.82"/>
<polygon fill="black" stroke="black" points="380,-46.2 376.5,-36.2 373,-46.2 380,-46.2"/>
<text text-anchor="middle" x="407" y="-57.8" font-family="Times,serif" font-size="14.00">षष्ठी&#45;तत्पुरुषः</text>
</g>
<!-- Node6_3 -->
<g id="node9" class="node">
<title>Node6_3</title>
<ellipse fill="#00bfff" stroke="#00bfff" cx="376.5" cy="-192" rx="56.59" ry="18"/>
<text text-anchor="middle" x="376.5" y="-188.3" font-family="Times,serif" font-size="14.00">निबन्धनम्(6.3)</text>
</g>
<!-- Node6_2&#45;&gt;Node6_3 -->
<g id="edge6" class="edge">
<title>Node6_2&#45;&gt;Node6_3</title>
<path fill="none" stroke="black" d="M376.5,-133.27C376.5,-146.58 376.5,-162.19 376.5,-173.82"/>
<polygon fill="black" stroke="black" points="380,-133.2 376.5,-123.2 373,-133.2 380,-133.2"/>
<text text-anchor="middle" x="407" y="-144.8" font-family="Times,serif" font-size="14.00">षष्ठी&#45;तत्पुरुषः</text>
</g>
<!-- Node7_1 -->
<g id="node10" class="node">
<title>Node7_1</title>
<ellipse fill="#ff1975" stroke="#ff1975" cx="376.5" cy="-279" rx="50.89" ry="18"/>
<text text-anchor="middle" x="376.5" y="-275.3" font-family="Times,serif" font-size="14.00">(भवति)(7.1)</text>
</g>
<!-- Node6_3&#45;&gt;Node7_1 -->
<g id="edge7" class="edge">
<title>Node6_3&#45;&gt;Node7_1</title>
<path fill="none" stroke="black" d="M376.5,-220.27C376.5,-233.58 376.5,-249.19 376.5,-260.82"/>
<polygon fill="black" stroke="black" points="380,-220.2 376.5,-210.2 373,-220.2 380,-220.2"/>
<text text-anchor="middle" x="387.5" y="-231.8" font-family="Times,serif" font-size="14.00">कर्ता</text>
</g>
</g>
</svg>
