<svg width="969pt" height="510pt"
 viewBox="0.00 0.00 969.00 510.00" xmlns="http://www.w3.org/2000/svg" xmlns:xlink="http://www.w3.org/1999/xlink">
<g id="graph0" class="graph" transform="scale(1 1) rotate(0) translate(4 506)">
<title>G</title>
<polygon fill="#fffacd" stroke="transparent" points="-4,4 -4,-506 965,-506 965,4 -4,4"/>
<!-- Node2_1 -->
<style>
 .hidden { display: none; }
 .node { cursor: pointer; }
 </style>
<script>
     function toggleChildren(id) {
      const children = document.getElementById(id);
      if (children.classList.contains('hidden')) {
        children.classList.remove('hidden');
      } else {
        children.classList.add('hidden');
      }
    }
</script>
<g id="children_node0_70735" class="hidden">
    <g class="node" onclick="toggleChildren('children_node0_70735');">
</g>
</g>
<g id="children_node1_70735" class="hidden">
    <g class="node" onclick="toggleChildren('children_node1_70735');">

<g id="node1" class="node">
<title>Node2_1</title>
<polygon fill="#ffff00" stroke="#ffff00" points="54,-182 0,-182 0,-146 54,-146 54,-182"/>
<text text-anchor="middle" x="27" y="-160.3" font-family="Times,serif" font-size="14.00">अति&#45;</text>
</g>
<!-- Node2_2 -->
<g id="node2" class="node">
<title>Node2_2</title>
<polygon fill="#ffff00" stroke="#ffff00" points="154.5,-182 89.5,-182 89.5,-146 154.5,-146 154.5,-182"/>
<text text-anchor="middle" x="122" y="-160.3" font-family="Times,serif" font-size="14.00">सूक्ष्माणाम्</text>
</g>
<!-- Node2_1&#45;&gt;Node2_2 -->
<!-- Node2_2_1 -->
<g id="node3" class="node">
<title>Node2_2_1</title>
<polygon fill="#ffff00" stroke="#ffff00" points="192,-255 4,-255 4,-219 192,-219 192,-255"/>
<text text-anchor="middle" x="98" y="-233.3" font-family="Times,serif" font-size="14.00">&lt;अति&#45;सूक्ष्माणाम्&gt;(तृतीया&#45;तत्पुरुषः)</text>
</g>
<!-- Node2_1&#45;&gt;Node2_2_1 -->
<g id="edge2" class="edge">
<title>Node2_1&#45;&gt;Node2_2_1</title>
<path fill="none" stroke="black" d="M51.35,-189.35C61.1,-199.1 72.1,-210.1 80.97,-218.97"/>
<polygon fill="black" stroke="black" points="53.73,-186.78 44.19,-182.19 48.78,-191.73 53.73,-186.78"/>
</g>
<!-- Node2_2&#45;&gt;Node2_2_1 -->
<g id="edge1" class="edge">
<title>Node2_2&#45;&gt;Node2_2_1</title>
<path fill="none" stroke="black" d="M112.99,-191.66C109.89,-200.81 106.52,-210.8 103.76,-218.97"/>
<polygon fill="black" stroke="black" points="116.3,-192.78 116.19,-182.19 109.67,-190.54 116.3,-192.78"/>
</g>
<!-- Node2_2_1&#45;&gt;Node2_2_1c -->
<g id="edge4" class="edge">
<title>Node2_2_1&#45;&gt;Node2_2_1c</title>
<path fill="none" stroke="black" d="M109.27,-264.66C113.13,-273.81 117.35,-283.8 120.8,-291.97"/>
<polygon fill="black" stroke="black" points="112.38,-263.04 105.26,-255.19 105.93,-265.76 112.38,-263.04"/>
</g>
</g>
</g>
<!-- Node2_2_1c -->
<g class="node4" onclick="toggleChildren('children_node1_70735');">
<title>Node2_2_1c</title>
<polygon fill="#87ceeb" stroke="#87ceeb" points="181,-328 75,-328 75,-292 181,-292 181,-328"/>
<text text-anchor="middle" x="128" y="-306.3" font-family="Times,serif" font-size="14.00">अति&#45;सूक्ष्माणाम्(2)</text>
</g>
<g id="children_node2_70735" class="hidden">
    <g class="node" onclick="toggleChildren('children_node2_70735');">
<!-- Node3_1 -->
<g id="node5" class="node">
<title>Node3_1</title>
<polygon fill="#ffff00" stroke="#ffff00" points="871,-182 817,-182 817,-146 871,-146 871,-182"/>
<text text-anchor="middle" x="844" y="-160.3" font-family="Times,serif" font-size="14.00">दुर्&#45;</text>
</g>
<!-- Node3_2 -->
<g id="node6" class="node">
<title>Node3_2</title>
<polygon fill="#ffff00" stroke="#ffff00" points="961,-182 907,-182 907,-146 961,-146 961,-182"/>
<text text-anchor="middle" x="934" y="-160.3" font-family="Times,serif" font-size="14.00">लक्ष्यम्</text>
</g>
<!-- Node3_1&#45;&gt;Node3_2 -->
<!-- Node3_2_1 -->
<g id="node7" class="node">
<title>Node3_2_1</title>
<polygon fill="#ffff00" stroke="#ffff00" points="955,-255 809,-255 809,-219 955,-219 955,-255"/>
<text text-anchor="middle" x="882" y="-233.3" font-family="Times,serif" font-size="14.00">&lt;दुर्&#45;लक्ष्यम्&gt;(अव्ययीभावः)</text>
</g>
<!-- Node3_1&#45;&gt;Node3_2_1 -->
<g id="edge7" class="edge">
<title>Node3_1&#45;&gt;Node3_2_1</title>
<path fill="none" stroke="black" d="M857.96,-191.08C862.94,-200.39 868.42,-210.62 872.89,-218.97"/>
<polygon fill="black" stroke="black" points="861,-189.35 853.2,-182.19 854.83,-192.66 861,-189.35"/>
</g>
<!-- Node3_2&#45;&gt;Node3_2_1 -->
<g id="edge6" class="edge">
<title>Node3_2&#45;&gt;Node3_2_1</title>
<path fill="none" stroke="black" d="M915.33,-190.5C908.4,-199.96 900.71,-210.45 894.47,-218.97"/>
<polygon fill="black" stroke="black" points="918.33,-192.32 921.41,-182.19 912.68,-188.19 918.33,-192.32"/>
</g>
<!-- Node3_2_1&#45;&gt;Node3_2_1c -->
<g id="edge9" class="edge">
<title>Node3_2_1&#45;&gt;Node3_2_1c</title>
<path fill="none" stroke="black" d="M880.85,-265.25C880.47,-274.23 880.06,-283.97 879.72,-291.97"/>
<polygon fill="black" stroke="black" points="884.35,-265.33 881.27,-255.19 877.35,-265.03 884.35,-265.33"/>
</g>
</g>
</g>
<!-- Node3_2_1c -->
<g class="node8" onclick="toggleChildren('children_node2_70735');">
<title>Node3_2_1c</title>
<polygon fill="#00bfff" stroke="#00bfff" points="919,-328 839,-328 839,-292 919,-292 919,-328"/>
<text text-anchor="middle" x="879" y="-306.3" font-family="Times,serif" font-size="14.00">दुर्&#45;लक्ष्यम्(3)</text>
</g>
<g id="children_node3_70735" class="hidden">
    <g class="node" onclick="toggleChildren('children_node3_70735');">
<!-- Node6_2 -->
<g id="node9" class="node">
<title>Node6_2</title>
<polygon fill="#ffff00" stroke="#ffff00" points="259,-182 205,-182 205,-146 259,-146 259,-182"/>
<text text-anchor="middle" x="232" y="-160.3" font-family="Times,serif" font-size="14.00">मल&#45;</text>
</g>
<!-- Node6_3 -->
<g id="node10" class="node">
<title>Node6_3</title>
<polygon fill="#ffff00" stroke="#ffff00" points="349,-182 295,-182 295,-146 349,-146 349,-182"/>
<text text-anchor="middle" x="322" y="-160.3" font-family="Times,serif" font-size="14.00">अयन&#45;</text>
</g>
<!-- Node6_2&#45;&gt;Node6_3 -->
<!-- Node6_3_1 -->
<g id="node11" class="node">
<title>Node6_3_1</title>
<polygon fill="#ffff00" stroke="#ffff00" points="364,-255 210,-255 210,-219 364,-219 364,-255"/>
<text text-anchor="middle" x="287" y="-233.3" font-family="Times,serif" font-size="14.00">&lt;मल&#45;अयन&#45;&gt;(षष्ठी&#45;तत्पुरुषः)</text>
</g>
<!-- Node6_2&#45;&gt;Node6_3_1 -->
<g id="edge12" class="edge">
<title>Node6_2&#45;&gt;Node6_3_1</title>
<path fill="none" stroke="black" d="M251.53,-190.21C258.91,-199.74 267.14,-210.36 273.81,-218.97"/>
<polygon fill="black" stroke="black" points="254.2,-187.95 245.31,-182.19 248.67,-192.24 254.2,-187.95"/>
</g>
<!-- Node6_3&#45;&gt;Node6_3_1 -->
<g id="edge11" class="edge">
<title>Node6_3&#45;&gt;Node6_3_1</title>
<path fill="none" stroke="black" d="M309,-191.37C304.45,-200.6 299.47,-210.71 295.39,-218.97"/>
<polygon fill="black" stroke="black" points="312.25,-192.7 313.53,-182.19 305.97,-189.61 312.25,-192.7"/>
</g>
<!-- Node6_7_4 -->
<g id="node18" class="node">
<title>Node6_7_4</title>
<polygon fill="#ffff00" stroke="#ffff00" points="790.5,-255 399.5,-255 399.5,-219 790.5,-219 790.5,-255"/>
<text text-anchor="middle" x="595" y="-233.3" font-family="Times,serif" font-size="14.00">&lt;संशोष&#45;&lt;तोद&#45;&lt;शून्यत्व&#45;लाघवैः&gt;(इतरेतर&#45;द्वन्द्वः)&gt;(इतरेतर&#45;द्वन्द्वः)&gt;(इतरेतर&#45;द्वन्द्वः)</text>
</g>
<!-- Node6_3_1&#45;&gt;Node6_7_4 -->
<!-- Node6_7_5 -->
<g id="node19" class="node">
<title>Node6_7_5</title>
<polygon fill="#ffff00" stroke="#ffff00" points="818,-328 204,-328 204,-292 818,-292 818,-328"/>
<text text-anchor="middle" x="511" y="-306.3" font-family="Times,serif" font-size="14.00">&lt;&lt;मल&#45;अयन&#45;&gt;(षष्ठी&#45;तत्पुरुषः)&lt;संशोष&#45;&lt;तोद&#45;&lt;शून्यत्व&#45;लाघवैः&gt;(इतरेतर&#45;द्वन्द्वः)&gt;(इतरेतर&#45;द्वन्द्वः)&gt;(इतरेतर&#45;द्वन्द्वः)&gt;(षष्ठी&#45;तत्पुरुषः)</text>
</g>
<!-- Node6_3_1&#45;&gt;Node6_7_5 -->
<g id="edge24" class="edge">
<title>Node6_3_1&#45;&gt;Node6_7_5</title>
<path fill="none" stroke="black" d="M350.39,-258.09C384.02,-268.75 424.9,-281.71 457.01,-291.89"/>
<polygon fill="black" stroke="black" points="351.24,-254.69 340.65,-255.01 349.13,-261.36 351.24,-254.69"/>
</g>
<!-- Node6_6 -->
<g id="node12" class="node">
<title>Node6_6</title>
<polygon fill="#ffff00" stroke="#ffff00" points="660,-36 606,-36 606,0 660,0 660,-36"/>
<text text-anchor="middle" x="633" y="-14.3" font-family="Times,serif" font-size="14.00">शून्यत्व&#45;</text>
</g>
<!-- Node6_7 -->
<g id="node13" class="node">
<title>Node6_7</title>
<polygon fill="#ffff00" stroke="#ffff00" points="750,-36 696,-36 696,0 750,0 750,-36"/>
<text text-anchor="middle" x="723" y="-14.3" font-family="Times,serif" font-size="14.00">लाघवैः</text>
</g>
<!-- Node6_6&#45;&gt;Node6_7 -->
<!-- Node6_7_2 -->
<g id="node14" class="node">
<title>Node6_7_2</title>
<polygon fill="#ffff00" stroke="#ffff00" points="771,-109 601,-109 601,-73 771,-73 771,-109"/>
<text text-anchor="middle" x="686" y="-87.3" font-family="Times,serif" font-size="14.00">&lt;शून्यत्व&#45;लाघवैः&gt;(इतरेतर&#45;द्वन्द्वः)</text>
</g>
<!-- Node6_6&#45;&gt;Node6_7_2 -->
<g id="edge15" class="edge">
<title>Node6_6&#45;&gt;Node6_7_2</title>
<path fill="none" stroke="black" d="M651.82,-44.21C658.94,-53.74 666.86,-64.36 673.29,-72.97"/>
<polygon fill="black" stroke="black" points="654.62,-42.11 645.83,-36.19 649.01,-46.29 654.62,-42.11"/>
</g>
<!-- Node6_7&#45;&gt;Node6_7_2 -->
<g id="edge14" class="edge">
<title>Node6_7&#45;&gt;Node6_7_2</title>
<path fill="none" stroke="black" d="M709.41,-45.08C704.56,-54.39 699.22,-64.62 694.87,-72.97"/>
<polygon fill="black" stroke="black" points="712.53,-46.67 714.04,-36.19 706.32,-43.44 712.53,-46.67"/>
</g>
<!-- Node6_7_3 -->
<g id="node16" class="node">
<title>Node6_7_3</title>
<polygon fill="#ffff00" stroke="#ffff00" points="764.5,-182 489.5,-182 489.5,-146 764.5,-146 764.5,-182"/>
<text text-anchor="middle" x="627" y="-160.3" font-family="Times,serif" font-size="14.00">&lt;तोद&#45;&lt;शून्यत्व&#45;लाघवैः&gt;(इतरेतर&#45;द्वन्द्वः)&gt;(इतरेतर&#45;द्वन्द्वः)</text>
</g>
<!-- Node6_7_2&#45;&gt;Node6_7_3 -->
<g id="edge17" class="edge">
<title>Node6_7_2&#45;&gt;Node6_7_3</title>
<path fill="none" stroke="black" d="M665.29,-116.92C657.31,-126.53 648.38,-137.27 641.15,-145.97"/>
<polygon fill="black" stroke="black" points="668.02,-119.12 671.72,-109.19 662.63,-114.64 668.02,-119.12"/>
</g>
<!-- Node6_5 -->
<g id="node15" class="node">
<title>Node6_5</title>
<polygon fill="#ffff00" stroke="#ffff00" points="565,-109 511,-109 511,-73 565,-73 565,-109"/>
<text text-anchor="middle" x="538" y="-87.3" font-family="Times,serif" font-size="14.00">तोद&#45;</text>
</g>
<!-- Node6_5&#45;&gt;Node6_7_2 -->
<!-- Node6_5&#45;&gt;Node6_7_3 -->
<g id="edge18" class="edge">
<title>Node6_5&#45;&gt;Node6_7_3</title>
<path fill="none" stroke="black" d="M567.44,-115.49C579.93,-125.45 594.21,-136.84 605.65,-145.97"/>
<polygon fill="black" stroke="black" points="569.54,-112.69 559.54,-109.19 565.18,-118.16 569.54,-112.69"/>
</g>
<!-- Node6_7_3&#45;&gt;Node6_7_4 -->
<g id="edge20" class="edge">
<title>Node6_7_3&#45;&gt;Node6_7_4</title>
<path fill="none" stroke="black" d="M615.12,-191.37C610.96,-200.6 606.4,-210.71 602.67,-218.97"/>
<polygon fill="black" stroke="black" points="618.34,-192.74 619.25,-182.19 611.95,-189.87 618.34,-192.74"/>
</g>
<!-- Node6_4 -->
<g id="node17" class="node">
<title>Node6_4</title>
<polygon fill="#ffff00" stroke="#ffff00" points="454,-182 400,-182 400,-146 454,-146 454,-182"/>
<text text-anchor="middle" x="427" y="-160.3" font-family="Times,serif" font-size="14.00">संशोष&#45;</text>
</g>
<!-- Node6_4&#45;&gt;Node6_7_3 -->
<!-- Node6_4&#45;&gt;Node6_7_4 -->
<g id="edge21" class="edge">
<title>Node6_4&#45;&gt;Node6_7_4</title>
<path fill="none" stroke="black" d="M463.8,-180.55C490.69,-191.92 527.12,-207.31 554.77,-219"/>
<polygon fill="black" stroke="black" points="464.94,-177.23 454.37,-176.57 462.21,-183.68 464.94,-177.23"/>
</g>
<!-- Node6_7_4&#45;&gt;Node6_7_5 -->
<g id="edge23" class="edge">
<title>Node6_7_4&#45;&gt;Node6_7_5</title>
<path fill="none" stroke="black" d="M566.87,-261.77C555.17,-271.67 541.85,-282.93 531.15,-291.97"/>
<polygon fill="black" stroke="black" points="569.29,-264.32 574.67,-255.19 564.77,-258.97 569.29,-264.32"/>
</g>
<!-- Node6_7_5&#45;&gt;Node6_7_5c -->
<g id="edge26" class="edge">
<title>Node6_7_5&#45;&gt;Node6_7_5c</title>
<path fill="none" stroke="black" d="M511,-338.27C511,-351.58 511,-367.19 511,-378.82"/>
<polygon fill="black" stroke="black" points="514.5,-338.2 511,-328.2 507.5,-338.2 514.5,-338.2"/>
</g>
</g>
</g>
<!-- Node6_7_5c -->
<g class="node20" onclick="toggleChildren('children_node3_70735');">
<title>Node6_7_5c</title>
<polygon fill="#40e0d0" stroke="#40e0d0" points="616,-415 406,-415 406,-379 616,-379 616,-415"/>
<text text-anchor="middle" x="511" y="-393.3" font-family="Times,serif" font-size="14.00">मल&#45;अयन&#45;संशोष&#45;तोद&#45;शून्यत्व&#45;लाघवैः(6)</text>
</g>
<!-- Node1_1 -->
<g id="node23" class="node">
<title>Node1_1</title>
<polygon fill="#87ceeb" stroke="#87ceeb" points="332.5,-415 261.5,-415 261.5,-379 332.5,-379 332.5,-415"/>
<text text-anchor="middle" x="297" y="-393.3" font-family="Times,serif" font-size="14.00">मलानाम्(1)</text>
</g>
<!-- Node2_2_1c&#45;&gt;Node1_1 -->
<g id="edge5" class="edge">
<title>Node2_2_1c&#45;&gt;Node1_1</title>
<path fill="none" stroke="black" d="M171.16,-332.71C199.74,-347.08 236.68,-365.66 263.14,-378.97"/>
<polygon fill="black" stroke="black" points="172.71,-329.57 162.2,-328.2 169.56,-335.82 172.71,-329.57"/>
<text text-anchor="middle" x="245.5" y="-349.8" font-family="Times,serif" font-size="14.00">विशेषणम्</text>
</g>
<!-- Node5_1 -->
<g id="node24" class="node">
<title>Node5_1</title>
<polygon fill="#93db70" stroke="#93db70" points="844.5,-415 785.5,-415 785.5,-379 844.5,-379 844.5,-415"/>
<text text-anchor="middle" x="815" y="-393.3" font-family="Times,serif" font-size="14.00">क्षयम्(5)</text>
</g>
<!-- Node3_2_1c&#45;&gt;Node5_1 -->
<g id="edge10" class="edge">
<title>Node3_2_1c&#45;&gt;Node5_1</title>
<path fill="none" stroke="black" d="M859.95,-336.31C849.62,-350.02 837.12,-366.62 827.93,-378.82"/>
<polygon fill="black" stroke="black" points="862.83,-338.3 866.05,-328.2 857.24,-334.08 862.83,-338.3"/>
<text text-anchor="middle" x="873.5" y="-349.8" font-family="Times,serif" font-size="14.00">विशेषणम्</text>
</g>
<!-- Node4_1 -->
<g id="node21" class="node">
<title>Node4_1</title>
<polygon fill="#40e0d0" stroke="#40e0d0" points="706,-415 652,-415 652,-379 706,-379 706,-415"/>
</g>
<!-- Node6_7_5c&#45;&gt;Node4_1 -->
<!-- Node4_1_6 -->
<g id="node22" class="node">
<title>Node4_1_6</title>
<polygon fill="#40e0d0" stroke="#40e0d0" points="880,-502 208,-502 208,-466 880,-466 880,-502"/>
<text text-anchor="middle" x="544" y="-480.3" font-family="Times,serif" font-size="14.00">&lt;&lt;&lt;मल&#45;अयन&#45;&gt;(षष्ठी&#45;तत्पुरुषः)&lt;संशोष&#45;&lt;तोद&#45;&lt;शून्यत्व&#45;लाघवैः&gt;(इतरेतर&#45;द्वन्द्वः)&gt;(इतरेतर&#45;द्वन्द्वः)&gt;(इतरेतर&#45;द्वन्द्वः)&gt;(षष्ठी&#45;तत्पुरुषः)&gt;(करणम्)</text>
</g>
<!-- Node6_7_5c&#45;&gt;Node4_1_6 -->
<g id="edge27" class="edge">
<title>Node6_7_5c&#45;&gt;Node4_1_6</title>
<path fill="none" stroke="black" d="M521.43,-424.87C526.63,-438.27 532.77,-454.08 537.33,-465.82"/>
<polygon fill="black" stroke="black" points="524.56,-423.26 517.68,-415.2 518.03,-425.79 524.56,-423.26"/>
<text text-anchor="middle" x="545.5" y="-436.8" font-family="Times,serif" font-size="14.00">करणम्</text>
</g>
<!-- Node6_7_5c&#45;&gt;Node4_1_6 -->
<g id="edge29" class="edge">
<title>Node6_7_5c&#45;&gt;Node4_1_6</title>
<path fill="none" stroke="black" d="M517.42,-425.2C519.51,-432.7 522.07,-440.76 525,-448 527.44,-454.02 530.65,-460.34 533.74,-465.93"/>
<polygon fill="black" stroke="black" points="520.79,-424.23 514.86,-415.44 514.02,-426 520.79,-424.23"/>
</g>
<!-- Node4_1&#45;&gt;Node4_1_6 -->
<g id="edge28" class="edge">
<title>Node4_1&#45;&gt;Node4_1_6</title>
<path fill="none" stroke="black" d="M643.06,-420.63C620.53,-434.81 591.95,-452.81 571.28,-465.82"/>
<polygon fill="black" stroke="black" points="645.08,-423.49 651.68,-415.2 641.35,-417.57 645.08,-423.49"/>
</g>
<!-- Node1_1&#45;&gt;Node4_1_6 -->
<g id="edge31" class="edge">
<title>Node1_1&#45;&gt;Node4_1_6</title>
<path fill="none" stroke="black" d="M342.29,-413.59C385.31,-428.39 449.84,-450.6 494.26,-465.88"/>
<polygon fill="black" stroke="black" points="343.25,-410.21 332.65,-410.27 340.97,-416.83 343.25,-410.21"/>
<text text-anchor="middle" x="463" y="-436.8" font-family="Times,serif" font-size="14.00">षष्ठीसम्बन्धः</text>
</g>
<!-- Node5_1&#45;&gt;Node4_1_6 -->
<g id="edge32" class="edge">
<title>Node5_1&#45;&gt;Node4_1_6</title>
<path fill="none" stroke="black" d="M775.73,-410.32C729,-424.98 650.71,-449.53 598.23,-465.99"/>
<polygon fill="black" stroke="black" points="776.99,-413.59 785.48,-407.26 774.89,-406.91 776.99,-413.59"/>
<text text-anchor="middle" x="704" y="-436.8" font-family="Times,serif" font-size="14.00">कर्म</text>
</g>
</g>
</svg>
