<svg width="656pt" height="437pt"
 viewBox="0.00 0.00 656.00 437.00" xmlns="http://www.w3.org/2000/svg" xmlns:xlink="http://www.w3.org/1999/xlink">
<g id="graph0" class="graph" transform="scale(1 1) rotate(0) translate(4 433)">
<title>G</title>
<polygon fill="#fffacd" stroke="transparent" points="-4,4 -4,-433 652,-433 652,4 -4,4"/>
<!-- Node1_1 -->
<style>
 .hidden { display: none; }
 .node { cursor: pointer; }
 </style>
<script>
     function toggleChildren(id) {
      const children = document.getElementById(id);
      if (children.classList.contains('hidden')) {
        children.classList.remove('hidden');
      } else {
        children.classList.add('hidden');
      }
    }
</script>
<g id="children_node0_70799" class="hidden">
    <g class="node" onclick="toggleChildren('children_node0_70799');">
</g>
</g>
<g id="children_node1_70799" class="hidden">
    <g class="node" onclick="toggleChildren('children_node1_70799');">

<g id="node1" class="node">
<title>Node1_1</title>
<polygon fill="#ffff00" stroke="#ffff00" points="54,-36 0,-36 0,0 54,0 54,-36"/>
<text text-anchor="middle" x="27" y="-14.3" font-family="Times,serif" font-size="14.00">मांस&#45;</text>
</g>
<!-- Node1_2 -->
<g id="node2" class="node">
<title>Node1_2</title>
<polygon fill="#ffff00" stroke="#ffff00" points="144,-36 90,-36 90,0 144,0 144,-36"/>
<text text-anchor="middle" x="117" y="-14.3" font-family="Times,serif" font-size="14.00">वृद्धि&#45;</text>
</g>
<!-- Node1_1&#45;&gt;Node1_2 -->
<!-- Node1_2_1 -->
<g id="node3" class="node">
<title>Node1_2_1</title>
<polygon fill="#ffff00" stroke="#ffff00" points="170,-109 18,-109 18,-73 170,-73 170,-109"/>
<text text-anchor="middle" x="94" y="-87.3" font-family="Times,serif" font-size="14.00">&lt;मांस&#45;वृद्धि&#45;&gt;(षष्ठी&#45;तत्पुरुषः)</text>
</g>
<!-- Node1_1&#45;&gt;Node1_2_1 -->
<g id="edge2" class="edge">
<title>Node1_1&#45;&gt;Node1_2_1</title>
<path fill="none" stroke="black" d="M50.24,-43.63C59.38,-53.31 69.64,-64.19 77.93,-72.97"/>
<polygon fill="black" stroke="black" points="52.63,-41.06 43.22,-36.19 47.54,-45.86 52.63,-41.06"/>
</g>
<!-- Node1_2&#45;&gt;Node1_2_1 -->
<g id="edge1" class="edge">
<title>Node1_2&#45;&gt;Node1_2_1</title>
<path fill="none" stroke="black" d="M108.27,-45.95C105.33,-55.02 102.14,-64.88 99.52,-72.97"/>
<polygon fill="black" stroke="black" points="111.68,-46.78 111.43,-36.19 105.02,-44.62 111.68,-46.78"/>
</g>
<!-- Node1_3 -->
<g id="node4" class="node">
<title>Node1_3</title>
<polygon fill="#ffff00" stroke="#ffff00" points="260,-109 206,-109 206,-73 260,-73 260,-109"/>
<text text-anchor="middle" x="233" y="-87.3" font-family="Times,serif" font-size="14.00">भवान्</text>
</g>
<!-- Node1_2_1&#45;&gt;Node1_3 -->
<!-- Node1_3_2 -->
<g id="node5" class="node">
<title>Node1_3_2</title>
<polygon fill="#ffff00" stroke="#ffff00" points="279.5,-182 4.5,-182 4.5,-146 279.5,-146 279.5,-182"/>
<text text-anchor="middle" x="142" y="-160.3" font-family="Times,serif" font-size="14.00">&lt;&lt;मांस&#45;वृद्धि&#45;&gt;(षष्ठी&#45;तत्पुरुषः)भवान्&gt;(तृतीया&#45;तत्पुरुषः)</text>
</g>
<!-- Node1_2_1&#45;&gt;Node1_3_2 -->
<g id="edge5" class="edge">
<title>Node1_2_1&#45;&gt;Node1_3_2</title>
<path fill="none" stroke="black" d="M111.24,-117.5C117.63,-126.96 124.73,-137.45 130.49,-145.97"/>
<polygon fill="black" stroke="black" points="114.12,-115.51 105.62,-109.19 108.32,-119.43 114.12,-115.51"/>
</g>
<!-- Node1_3&#45;&gt;Node1_3_2 -->
<g id="edge4" class="edge">
<title>Node1_3&#45;&gt;Node1_3_2</title>
<path fill="none" stroke="black" d="M202.9,-115.49C190.13,-125.45 175.53,-136.84 163.83,-145.97"/>
<polygon fill="black" stroke="black" points="205.24,-118.1 210.97,-109.19 200.93,-112.58 205.24,-118.1"/>
</g>
<!-- Node1_3_2&#45;&gt;Node1_3_2c -->
<g id="edge7" class="edge">
<title>Node1_3_2&#45;&gt;Node1_3_2c</title>
<path fill="none" stroke="black" d="M149.21,-191.95C151.64,-201.02 154.28,-210.88 156.44,-218.97"/>
<polygon fill="black" stroke="black" points="152.57,-190.94 146.6,-182.19 145.8,-192.75 152.57,-190.94"/>
</g>
</g>
</g>
<!-- Node1_3_2c -->
<g class="node6" onclick="toggleChildren('children_node1_70799');">
<title>Node1_3_2c</title>
<polygon fill="#93db70" stroke="#93db70" points="214.5,-255 107.5,-255 107.5,-219 214.5,-219 214.5,-255"/>
<text text-anchor="middle" x="161" y="-233.3" font-family="Times,serif" font-size="14.00">मांस&#45;वृद्धि&#45;भवान्(1)</text>
</g>
<g id="children_node2_70799" class="hidden">
    <g class="node" onclick="toggleChildren('children_node2_70799');">
<!-- Node3_2 -->
<g id="node7" class="node">
<title>Node3_2</title>
<polygon fill="#ffff00" stroke="#ffff00" points="475,-36 421,-36 421,0 475,0 475,-36"/>
<text text-anchor="middle" x="448" y="-14.3" font-family="Times,serif" font-size="14.00">क्षार&#45;</text>
</g>
<!-- Node3_3 -->
<g id="node8" class="node">
<title>Node3_3</title>
<polygon fill="#ffff00" stroke="#ffff00" points="565,-36 511,-36 511,0 565,0 565,-36"/>
<text text-anchor="middle" x="538" y="-14.3" font-family="Times,serif" font-size="14.00">अग्नि&#45;</text>
</g>
<!-- Node3_2&#45;&gt;Node3_3 -->
<!-- Node3_3_1 -->
<g id="node9" class="node">
<title>Node3_3_1</title>
<polygon fill="#ffff00" stroke="#ffff00" points="569,-109 417,-109 417,-73 569,-73 569,-109"/>
<text text-anchor="middle" x="493" y="-87.3" font-family="Times,serif" font-size="14.00">&lt;क्षार&#45;अग्नि&#45;&gt;(इतरेतर&#45;द्वन्द्वः)</text>
</g>
<!-- Node3_2&#45;&gt;Node3_3_1 -->
<g id="edge10" class="edge">
<title>Node3_2&#45;&gt;Node3_3_1</title>
<path fill="none" stroke="black" d="M464.34,-44.79C470.29,-54.17 476.86,-64.54 482.21,-72.97"/>
<polygon fill="black" stroke="black" points="467.2,-42.76 458.89,-36.19 461.29,-46.51 467.2,-42.76"/>
</g>
<!-- Node3_3&#45;&gt;Node3_3_1 -->
<g id="edge9" class="edge">
<title>Node3_3&#45;&gt;Node3_3_1</title>
<path fill="none" stroke="black" d="M521.66,-44.79C515.71,-54.17 509.14,-64.54 503.79,-72.97"/>
<polygon fill="black" stroke="black" points="524.71,-46.51 527.11,-36.19 518.8,-42.76 524.71,-46.51"/>
</g>
<!-- Node3_3_2 -->
<g id="node11" class="node">
<title>Node3_3_2</title>
<polygon fill="#ffff00" stroke="#ffff00" points="558,-182 298,-182 298,-146 558,-146 558,-182"/>
<text text-anchor="middle" x="428" y="-160.3" font-family="Times,serif" font-size="14.00">&lt;शस्त्र&#45;&lt;क्षार&#45;अग्नि&#45;&gt;(इतरेतर&#45;द्वन्द्वः)&gt;(इतरेतर&#45;द्वन्द्वः)</text>
</g>
<!-- Node3_3_1&#45;&gt;Node3_3_2 -->
<g id="edge12" class="edge">
<title>Node3_3_1&#45;&gt;Node3_3_2</title>
<path fill="none" stroke="black" d="M470.45,-116.63C461.59,-126.31 451.63,-137.19 443.59,-145.97"/>
<polygon fill="black" stroke="black" points="473.09,-118.93 477.27,-109.19 467.93,-114.2 473.09,-118.93"/>
</g>
<!-- Node3_1 -->
<g id="node10" class="node">
<title>Node3_1</title>
<polygon fill="#ffff00" stroke="#ffff00" points="381,-109 327,-109 327,-73 381,-73 381,-109"/>
<text text-anchor="middle" x="354" y="-87.3" font-family="Times,serif" font-size="14.00">शस्त्र&#45;</text>
</g>
<!-- Node3_1&#45;&gt;Node3_3_1 -->
<!-- Node3_1&#45;&gt;Node3_3_2 -->
<g id="edge13" class="edge">
<title>Node3_1&#45;&gt;Node3_3_2</title>
<path fill="none" stroke="black" d="M379.37,-116.35C389.54,-126.1 401.01,-137.1 410.25,-145.97"/>
<polygon fill="black" stroke="black" points="381.55,-113.58 371.91,-109.19 376.71,-118.64 381.55,-113.58"/>
</g>
<!-- Node3_4 -->
<g id="node12" class="node">
<title>Node3_4</title>
<polygon fill="#ffff00" stroke="#ffff00" points="648,-182 594,-182 594,-146 648,-146 648,-182"/>
<text text-anchor="middle" x="621" y="-160.3" font-family="Times,serif" font-size="14.00">कर्मभिः</text>
</g>
<!-- Node3_3_2&#45;&gt;Node3_4 -->
<!-- Node3_4_3 -->
<g id="node13" class="node">
<title>Node3_4_3</title>
<polygon fill="#ffff00" stroke="#ffff00" points="617.5,-255 238.5,-255 238.5,-219 617.5,-219 617.5,-255"/>
<text text-anchor="middle" x="428" y="-233.3" font-family="Times,serif" font-size="14.00">&lt;&lt;शस्त्र&#45;&lt;क्षार&#45;अग्नि&#45;&gt;(इतरेतर&#45;द्वन्द्वः)&gt;(इतरेतर&#45;द्वन्द्वः)कर्मभिः&gt;(षष्ठी&#45;तत्पुरुषः)</text>
</g>
<!-- Node3_3_2&#45;&gt;Node3_4_3 -->
<g id="edge16" class="edge">
<title>Node3_3_2&#45;&gt;Node3_4_3</title>
<path fill="none" stroke="black" d="M428,-192.25C428,-201.23 428,-210.97 428,-218.97"/>
<polygon fill="black" stroke="black" points="431.5,-192.19 428,-182.19 424.5,-192.19 431.5,-192.19"/>
</g>
<!-- Node3_4&#45;&gt;Node3_4_3 -->
<g id="edge15" class="edge">
<title>Node3_4&#45;&gt;Node3_4_3</title>
<path fill="none" stroke="black" d="M584.14,-178.56C552.95,-190.03 508.08,-206.54 474.44,-218.92"/>
<polygon fill="black" stroke="black" points="585.58,-181.76 593.76,-175.02 583.16,-175.19 585.58,-181.76"/>
</g>
<!-- Node3_4_3&#45;&gt;Node3_4_3c -->
<g id="edge18" class="edge">
<title>Node3_4_3&#45;&gt;Node3_4_3c</title>
<path fill="none" stroke="black" d="M420.41,-264.87C416.63,-278.27 412.17,-294.08 408.85,-305.82"/>
<polygon fill="black" stroke="black" points="423.79,-265.78 423.14,-255.2 417.06,-263.87 423.79,-265.78"/>
</g>
</g>
</g>
<!-- Node3_4_3c -->
<g class="node14" onclick="toggleChildren('children_node2_70799');">
<title>Node3_4_3c</title>
<polygon fill="#40e0d0" stroke="#40e0d0" points="475.5,-342 332.5,-342 332.5,-306 475.5,-306 475.5,-342"/>
<text text-anchor="middle" x="404" y="-320.3" font-family="Times,serif" font-size="14.00">शस्त्र&#45;क्षार&#45;अग्नि&#45;कर्मभिः(3)</text>
</g>
<!-- Node2_1 -->
<g id="node15" class="node">
<title>Node2_1</title>
<polygon fill="#93db70" stroke="#93db70" points="296.5,-342 237.5,-342 237.5,-306 296.5,-306 296.5,-342"/>
<text text-anchor="middle" x="267" y="-320.3" font-family="Times,serif" font-size="14.00">रोगान्(2)</text>
</g>
<!-- Node1_3_2c&#45;&gt;Node2_1 -->
<g id="edge8" class="edge">
<title>Node1_3_2c&#45;&gt;Node2_1</title>
<path fill="none" stroke="black" d="M190.64,-261.77C208.1,-275.77 229.78,-293.16 245.58,-305.82"/>
<polygon fill="black" stroke="black" points="192.44,-258.73 182.45,-255.2 188.06,-264.19 192.44,-258.73"/>
<text text-anchor="middle" x="243.5" y="-276.8" font-family="Times,serif" font-size="14.00">विशेषणम्</text>
</g>
<!-- Node4_1 -->
<g id="node16" class="node">
<title>Node4_1</title>
<polygon fill="#ff1975" stroke="#ff1975" points="366,-429 286,-429 286,-393 366,-393 366,-429"/>
<text text-anchor="middle" x="326" y="-407.3" font-family="Times,serif" font-size="14.00">(उपक्रमेत)(4)</text>
</g>
<!-- Node3_4_3c&#45;&gt;Node4_1 -->
<g id="edge19" class="edge">
<title>Node3_4_3c&#45;&gt;Node4_1</title>
<path fill="none" stroke="black" d="M381.13,-349.92C368.48,-363.71 353.07,-380.5 341.76,-392.82"/>
<polygon fill="black" stroke="black" points="384.03,-351.94 388.22,-342.2 378.88,-347.2 384.03,-351.94"/>
<text text-anchor="middle" x="385.5" y="-363.8" font-family="Times,serif" font-size="14.00">करणम्</text>
</g>
<!-- Node2_1&#45;&gt;Node4_1 -->
<g id="edge20" class="edge">
<title>Node2_1&#45;&gt;Node4_1</title>
<path fill="none" stroke="black" d="M284.84,-350.7C294.3,-364.34 305.69,-380.73 314.08,-392.82"/>
<polygon fill="black" stroke="black" points="287.52,-348.42 278.94,-342.2 281.77,-352.41 287.52,-348.42"/>
<text text-anchor="middle" x="309" y="-363.8" font-family="Times,serif" font-size="14.00">कर्म</text>
</g>
</g>
</svg>
