<?xml version="1.0" encoding="UTF-8" standalone="no"?>
<!DOCTYPE svg PUBLIC "-//W3C//DTD SVG 1.1//EN"
 "http://www.w3.org/Graphics/SVG/1.1/DTD/svg11.dtd">
<!-- Generated by graphviz version 2.50.0 (20211204.2007)
 -->
<!-- Title: G Pages: 1 -->
<svg width="777pt" height="392pt"
 viewBox="0.00 0.00 776.99 392.00" xmlns="http://www.w3.org/2000/svg" xmlns:xlink="http://www.w3.org/1999/xlink">
<g id="graph0" class="graph" transform="scale(1 1) rotate(0) translate(4 388)">
<title>G</title>
<polygon fill="#fffacd" stroke="transparent" points="-4,4 -4,-388 772.99,-388 772.99,4 -4,4"/>
<g id="clust1" class="cluster">
<title>cluster_1</title>
<polygon fill="#fffacd" stroke="black" points="101.8,-166 101.8,-305 213.8,-305 213.8,-166 101.8,-166"/>
</g>
<g id="clust2" class="cluster">
<title>cluster_2</title>
<polygon fill="#fffacd" stroke="black" points="221.8,-166 221.8,-305 455.8,-305 455.8,-166 221.8,-166"/>
</g>
<!-- Node1_1 -->
<g id="node1" class="node">
<title>Node1_1</title>
<ellipse fill="#00bfff" stroke="#00bfff" cx="157.8" cy="-192" rx="46.59" ry="18"/>
<text text-anchor="middle" x="157.8" y="-188.3" font-family="Times,serif" font-size="14.00">(वृद्धः)(1.1)</text>
</g>
<!-- Node2_1 -->
<g id="node2" class="node">
<title>Node2_1</title>
<ellipse fill="#00bfff" stroke="#00bfff" cx="157.8" cy="-279" rx="48.19" ry="18"/>
<text text-anchor="middle" x="157.8" y="-275.3" font-family="Times,serif" font-size="14.00">श्लेष्मा(2.1)</text>
</g>
<!-- Node1_1&#45;&gt;Node2_1 -->
<g id="edge1" class="edge">
<title>Node1_1&#45;&gt;Node2_1</title>
<path fill="none" stroke="black" d="M157.8,-220.27C157.8,-233.58 157.8,-249.19 157.8,-260.82"/>
<polygon fill="black" stroke="black" points="161.3,-220.2 157.8,-210.2 154.3,-220.2 161.3,-220.2"/>
<text text-anchor="middle" x="181.3" y="-231.8" font-family="Times,serif" font-size="14.00">विशेषणम्</text>
</g>
<!-- Node7_1 -->
<g id="node6" class="node">
<title>Node7_1</title>
<ellipse fill="#ff1975" stroke="#ff1975" cx="275.8" cy="-366" rx="49.29" ry="18"/>
<text text-anchor="middle" x="275.8" y="-362.3" font-family="Times,serif" font-size="14.00">(कुरुते)(7.1)</text>
</g>
<!-- Node2_1&#45;&gt;Node7_1 -->
<g id="edge2" class="edge">
<title>Node2_1&#45;&gt;Node7_1</title>
<path fill="none" stroke="black" d="M187.11,-301.12C208.02,-316.18 235.66,-336.09 254.48,-349.65"/>
<polygon fill="black" stroke="black" points="189.05,-298.2 178.89,-295.2 184.96,-303.88 189.05,-298.2"/>
<text text-anchor="middle" x="235.8" y="-318.8" font-family="Times,serif" font-size="14.00">कर्ता</text>
</g>
<!-- Node3_5 -->
<g id="node3" class="node">
<title>Node3_5</title>
<ellipse fill="#93db70" stroke="#93db70" cx="277.8" cy="-192" rx="48.19" ry="18"/>
<text text-anchor="middle" x="277.8" y="-188.3" font-family="Times,serif" font-size="14.00">गौरवम्(3.5)</text>
</g>
<!-- Node5_4 -->
<g id="node4" class="node">
<title>Node5_4</title>
<ellipse fill="#93db70" stroke="#93db70" cx="397.8" cy="-279" rx="49.29" ry="18"/>
<text text-anchor="middle" x="397.8" y="-275.3" font-family="Times,serif" font-size="14.00">निद्रताः(5.4)</text>
</g>
<!-- Node3_5&#45;&gt;Node5_4 -->
<g id="edge7" class="edge">
<title>Node3_5&#45;&gt;Node5_4</title>
<path fill="none" stroke="black" d="M307.43,-214.26C319.87,-223.17 334.52,-233.61 347.8,-243 356.97,-249.48 367.12,-256.6 375.86,-262.71"/>
<polygon fill="black" stroke="black" points="309.37,-211.35 299.2,-208.37 305.3,-217.04 309.37,-211.35"/>
<text text-anchor="middle" x="370.3" y="-231.8" font-family="Times,serif" font-size="14.00">समुच्चितः</text>
</g>
<!-- Node5_4&#45;&gt;Node7_1 -->
<g id="edge15" class="edge">
<title>Node5_4&#45;&gt;Node7_1</title>
<path fill="none" stroke="black" d="M367.78,-300.92C346.12,-316 317.38,-336.03 297.83,-349.65"/>
<polygon fill="black" stroke="black" points="369.78,-303.78 375.98,-295.2 365.78,-298.04 369.78,-303.78"/>
<text text-anchor="middle" x="353.8" y="-318.8" font-family="Times,serif" font-size="14.00">कर्म</text>
</g>
<!-- Node4_4 -->
<g id="node5" class="node">
<title>Node4_4</title>
<ellipse fill="#93db70" stroke="#93db70" cx="395.8" cy="-192" rx="51.99" ry="18"/>
<text text-anchor="middle" x="395.8" y="-188.3" font-family="Times,serif" font-size="14.00">अङ्गत्वम्(4.4)</text>
</g>
<!-- Node4_4&#45;&gt;Node5_4 -->
<g id="edge11" class="edge">
<title>Node4_4&#45;&gt;Node5_4</title>
<path fill="none" stroke="black" d="M396.44,-220.27C396.75,-233.58 397.12,-249.19 397.39,-260.82"/>
<polygon fill="black" stroke="black" points="399.93,-220.12 396.2,-210.2 392.94,-220.28 399.93,-220.12"/>
<text text-anchor="middle" x="420.3" y="-231.8" font-family="Times,serif" font-size="14.00">समुच्चितः</text>
</g>
<!-- Node3_1 -->
<g id="node7" class="node">
<title>Node3_1</title>
<ellipse fill="#ffff00" stroke="#ffff00" cx="46.8" cy="-18" rx="46.59" ry="18"/>
<text text-anchor="middle" x="46.8" y="-14.3" font-family="Times,serif" font-size="14.00">अग्नि&#45;(3.1)</text>
</g>
<!-- Node3_2 -->
<g id="node8" class="node">
<title>Node3_2</title>
<ellipse fill="#ffff00" stroke="#ffff00" cx="46.8" cy="-105" rx="44.69" ry="18"/>
<text text-anchor="middle" x="46.8" y="-101.3" font-family="Times,serif" font-size="14.00">सदन&#45;(3.2)</text>
</g>
<!-- Node3_1&#45;&gt;Node3_2 -->
<g id="edge3" class="edge">
<title>Node3_1&#45;&gt;Node3_2</title>
<path fill="none" stroke="black" d="M46.8,-46.27C46.8,-59.58 46.8,-75.19 46.8,-86.82"/>
<polygon fill="black" stroke="black" points="50.3,-46.2 46.8,-36.2 43.3,-46.2 50.3,-46.2"/>
<text text-anchor="middle" x="77.3" y="-57.8" font-family="Times,serif" font-size="14.00">षष्ठी&#45;तत्पुरुषः</text>
</g>
<!-- Node3_2&#45;&gt;Node3_5 -->
<g id="edge4" class="edge">
<title>Node3_2&#45;&gt;Node3_5</title>
<path fill="none" stroke="black" d="M76.71,-126.71C93.37,-137.21 114.91,-149.16 135.8,-156 170.69,-167.43 182.3,-156.63 217.8,-166 228.38,-168.79 239.56,-173.06 249.36,-177.28"/>
<polygon fill="black" stroke="black" points="78.29,-123.56 68,-121.06 74.49,-129.44 78.29,-123.56"/>
<text text-anchor="middle" x="164.8" y="-144.8" font-family="Times,serif" font-size="14.00">इतरेतर&#45;द्वन्द्वः</text>
</g>
<!-- Node3_3 -->
<g id="node9" class="node">
<title>Node3_3</title>
<ellipse fill="#ffff00" stroke="#ffff00" cx="157.8" cy="-105" rx="48.19" ry="18"/>
<text text-anchor="middle" x="157.8" y="-101.3" font-family="Times,serif" font-size="14.00">प्रसेक&#45;(3.3)</text>
</g>
<!-- Node3_3&#45;&gt;Node3_5 -->
<g id="edge5" class="edge">
<title>Node3_3&#45;&gt;Node3_5</title>
<path fill="none" stroke="black" d="M182.18,-128.9C192.22,-137.83 204.21,-147.86 215.8,-156 226.72,-163.68 239.46,-171.11 250.54,-177.13"/>
<polygon fill="black" stroke="black" points="184.34,-126.14 174.58,-122.03 179.65,-131.34 184.34,-126.14"/>
<text text-anchor="middle" x="244.8" y="-144.8" font-family="Times,serif" font-size="14.00">इतरेतर&#45;द्वन्द्वः</text>
</g>
<!-- Node3_4 -->
<g id="node10" class="node">
<title>Node3_4</title>
<ellipse fill="#ffff00" stroke="#ffff00" cx="277.8" cy="-105" rx="53.89" ry="18"/>
<text text-anchor="middle" x="277.8" y="-101.3" font-family="Times,serif" font-size="14.00">आलस्य&#45;(3.4)</text>
</g>
<!-- Node3_4&#45;&gt;Node3_5 -->
<g id="edge6" class="edge">
<title>Node3_4&#45;&gt;Node3_5</title>
<path fill="none" stroke="black" d="M277.8,-133.27C277.8,-146.58 277.8,-162.19 277.8,-173.82"/>
<polygon fill="black" stroke="black" points="281.3,-133.2 277.8,-123.2 274.3,-133.2 281.3,-133.2"/>
<text text-anchor="middle" x="306.8" y="-144.8" font-family="Times,serif" font-size="14.00">इतरेतर&#45;द्वन्द्वः</text>
</g>
<!-- Node4_1 -->
<g id="node11" class="node">
<title>Node4_1</title>
<ellipse fill="#ffff00" stroke="#ffff00" cx="393.8" cy="-105" rx="44.39" ry="18"/>
<text text-anchor="middle" x="393.8" y="-101.3" font-family="Times,serif" font-size="14.00">श्वैत्य&#45;(4.1)</text>
</g>
<!-- Node4_1&#45;&gt;Node4_4 -->
<g id="edge8" class="edge">
<title>Node4_1&#45;&gt;Node4_4</title>
<path fill="none" stroke="black" d="M394.44,-133.27C394.75,-146.58 395.12,-162.19 395.39,-173.82"/>
<polygon fill="black" stroke="black" points="397.93,-133.12 394.2,-123.2 390.94,-133.28 397.93,-133.12"/>
<text text-anchor="middle" x="424.8" y="-144.8" font-family="Times,serif" font-size="14.00">इतरेतर&#45;द्वन्द्वः</text>
</g>
<!-- Node4_2 -->
<g id="node12" class="node">
<title>Node4_2</title>
<ellipse fill="#ffff00" stroke="#ffff00" cx="500.8" cy="-105" rx="44.69" ry="18"/>
<text text-anchor="middle" x="500.8" y="-101.3" font-family="Times,serif" font-size="14.00">शैत्य&#45;(4.2)</text>
</g>
<!-- Node4_2&#45;&gt;Node4_4 -->
<g id="edge9" class="edge">
<title>Node4_2&#45;&gt;Node4_4</title>
<path fill="none" stroke="black" d="M482.54,-130.59C475.41,-139.23 466.78,-148.62 457.8,-156 447.95,-164.08 436,-171.32 425.22,-177.09"/>
<polygon fill="black" stroke="black" points="485.4,-132.62 488.89,-122.61 479.92,-128.26 485.4,-132.62"/>
<text text-anchor="middle" x="502.8" y="-144.8" font-family="Times,serif" font-size="14.00">इतरेतर&#45;द्वन्द्वः</text>
</g>
<!-- Node4_3 -->
<g id="node13" class="node">
<title>Node4_3</title>
<ellipse fill="#ffff00" stroke="#ffff00" cx="612.8" cy="-105" rx="49.29" ry="18"/>
<text text-anchor="middle" x="612.8" y="-101.3" font-family="Times,serif" font-size="14.00">श्लथा&#45;(4.3)</text>
</g>
<!-- Node4_3&#45;&gt;Node4_4 -->
<g id="edge10" class="edge">
<title>Node4_3&#45;&gt;Node4_4</title>
<path fill="none" stroke="black" d="M585.63,-127.97C571.57,-138.17 553.64,-149.47 535.8,-156 502.56,-168.17 491.02,-156.99 456.8,-166 446.28,-168.77 435.17,-172.92 425.35,-177.06"/>
<polygon fill="black" stroke="black" points="587.95,-130.6 593.85,-121.81 583.75,-125 587.95,-130.6"/>
<text text-anchor="middle" x="580.8" y="-144.8" font-family="Times,serif" font-size="14.00">समासः</text>
</g>
<!-- Node5_1 -->
<g id="node14" class="node">
<title>Node5_1</title>
<ellipse fill="#ffff00" stroke="#ffff00" cx="724.8" cy="-105" rx="44.39" ry="18"/>
<text text-anchor="middle" x="724.8" y="-101.3" font-family="Times,serif" font-size="14.00">श्वास&#45;(5.1)</text>
</g>
<!-- Node5_2 -->
<g id="node15" class="node">
<title>Node5_2</title>
<ellipse fill="#ffff00" stroke="#ffff00" cx="510.8" cy="-192" rx="44.69" ry="18"/>
<text text-anchor="middle" x="510.8" y="-188.3" font-family="Times,serif" font-size="14.00">कास&#45;(5.2)</text>
</g>
<!-- Node5_1&#45;&gt;Node5_2 -->
<g id="edge12" class="edge">
<title>Node5_1&#45;&gt;Node5_2</title>
<path fill="none" stroke="black" d="M698.34,-127.82C684.43,-138.09 666.61,-149.49 648.8,-156 613.48,-168.9 600.97,-155.75 564.8,-166 555.25,-168.7 545.27,-172.89 536.53,-177.08"/>
<polygon fill="black" stroke="black" points="700.63,-130.47 706.45,-121.62 696.38,-124.9 700.63,-130.47"/>
<text text-anchor="middle" x="705.8" y="-144.8" font-family="Times,serif" font-size="14.00">इतरेतर&#45;द्वन्द्वः</text>
</g>
<!-- Node5_2&#45;&gt;Node5_4 -->
<g id="edge13" class="edge">
<title>Node5_2&#45;&gt;Node5_4</title>
<path fill="none" stroke="black" d="M483.79,-214.52C472.45,-223.44 459.07,-233.83 446.8,-243 438.09,-249.51 428.37,-256.5 419.89,-262.52"/>
<polygon fill="black" stroke="black" points="485.96,-217.26 491.64,-208.31 481.62,-211.77 485.96,-217.26"/>
<text text-anchor="middle" x="495.8" y="-231.8" font-family="Times,serif" font-size="14.00">इतरेतर&#45;द्वन्द्वः</text>
</g>
<!-- Node5_3 -->
<g id="node16" class="node">
<title>Node5_3</title>
<ellipse fill="#ffff00" stroke="#ffff00" cx="617.8" cy="-192" rx="44.39" ry="18"/>
<text text-anchor="middle" x="617.8" y="-188.3" font-family="Times,serif" font-size="14.00">अति&#45;(5.3)</text>
</g>
<!-- Node5_3&#45;&gt;Node5_4 -->
<g id="edge14" class="edge">
<title>Node5_3&#45;&gt;Node5_4</title>
<path fill="none" stroke="black" d="M586.77,-212.97C570.09,-223.05 548.88,-234.83 528.8,-243 500.01,-254.71 466.08,-263.65 439.97,-269.56"/>
<polygon fill="black" stroke="black" points="588.85,-215.8 595.53,-207.59 585.18,-209.84 588.85,-215.8"/>
<text text-anchor="middle" x="587.8" y="-231.8" font-family="Times,serif" font-size="14.00">अव्ययीभावः</text>
</g>
<!-- Node6_1 -->
<g id="node17" class="node">
<title>Node6_1</title>
<ellipse fill="#ff99ff" stroke="#ff99ff" cx="719.8" cy="-192" rx="39.79" ry="18"/>
<text text-anchor="middle" x="719.8" y="-188.3" font-family="Times,serif" font-size="14.00">(च)(6.1)</text>
</g>
<!-- Node6_1&#45;&gt;Node5_4 -->
<g id="edge16" class="edge">
<title>Node6_1&#45;&gt;Node5_4</title>
<path fill="none" stroke="black" d="M688.29,-212.11C669.36,-222.76 644.42,-235.39 620.8,-243 562.42,-261.81 492.08,-270.7 446.22,-274.77"/>
<polygon fill="black" stroke="black" points="690.14,-215.08 697.07,-207.06 686.66,-209.01 690.14,-215.08"/>
<text text-anchor="middle" x="696.3" y="-231.8" font-family="Times,serif" font-size="14.00">समुच्चय_द्योतकः</text>
</g>
</g>
</svg>
