<svg width="301pt" height="305pt"
 viewBox="0.00 0.00 300.50 305.00" xmlns="http://www.w3.org/2000/svg" xmlns:xlink="http://www.w3.org/1999/xlink">
<g id="graph0" class="graph" transform="scale(1 1) rotate(0) translate(4 301)">
<title>G</title>
<polygon fill="#fffacd" stroke="transparent" points="-4,4 -4,-301 296.5,-301 296.5,4 -4,4"/>
<g id="clust1" class="cluster">
<title>cluster_1</title>
<polygon fill="#fffacd" stroke="black" points="69.5,-79 69.5,-218 150.5,-218 150.5,-79 69.5,-79"/>
</g>
<!-- Node2_1 -->
<style>
 .hidden { display: none; }
 .node { cursor: pointer; }
 </style>
<script>
     function toggleChildren(id) {
      const children = document.getElementById(id);
      if (children.classList.contains('hidden')) {
        children.classList.remove('hidden');
      } else {
        children.classList.add('hidden');
      }
    }
</script>

<g id="node1" class="node">
<title>Node2_1</title>
<polygon fill="#00bfff" stroke="#00bfff" points="133,-123 78,-123 78,-87 133,-87 133,-123"/>
<text text-anchor="middle" x="105.5" y="-101.3" font-family="Times,serif" font-size="14.00">दुष्टाः(2)</text>
</g>
<!-- Node1_1 -->
<g id="node2" class="node">
<title>Node1_1</title>
<polygon fill="#00bfff" stroke="#00bfff" points="135.5,-210 77.5,-210 77.5,-174 135.5,-174 135.5,-210"/>
<text text-anchor="middle" x="106.5" y="-188.3" font-family="Times,serif" font-size="14.00">दोषाः(1)</text>
</g>
<!-- Node2_1&#45;&gt;Node1_1 -->
<g id="edge2" class="edge">
<title>Node2_1&#45;&gt;Node1_1</title>
<path fill="none" stroke="black" d="M105.82,-133.27C105.98,-146.58 106.16,-162.19 106.3,-173.82"/>
<polygon fill="black" stroke="black" points="109.32,-133.16 105.7,-123.2 102.32,-133.24 109.32,-133.16"/>
<text text-anchor="middle" x="129" y="-144.8" font-family="Times,serif" font-size="14.00">विशेषणम्</text>
</g>
<!-- Node5_1 -->
<g id="node3" class="node">
<title>Node5_1</title>
<polygon fill="#ff1975" stroke="#ff1975" points="84,-297 15,-297 15,-261 84,-261 84,-297"/>
<text text-anchor="middle" x="49.5" y="-275.3" font-family="Times,serif" font-size="14.00">दूषयन्ति(5)</text>
</g>
<!-- Node1_1&#45;&gt;Node5_1 -->
<g id="edge1" class="edge">
<title>Node1_1&#45;&gt;Node5_1</title>
<path fill="none" stroke="black" d="M89.27,-218.7C80.12,-232.34 69.13,-248.73 61.02,-260.82"/>
<polygon fill="black" stroke="black" points="92.3,-220.46 94.97,-210.2 86.49,-216.56 92.3,-220.46"/>
<text text-anchor="middle" x="111" y="-231.8" font-family="Times,serif" font-size="14.00">प्रयोजककर्ता</text>
</g>
<!-- Node3_1 -->
<g id="node4" class="node">
<title>Node3_1</title>
<polygon fill="#40e0d0" stroke="#40e0d0" points="132.5,-36 78.5,-36 78.5,0 132.5,0 132.5,-36"/>
<text text-anchor="middle" x="105.5" y="-14.3" font-family="Times,serif" font-size="14.00">रसैः(3)</text>
</g>
<!-- Node3_1&#45;&gt;Node2_1 -->
<g id="edge3" class="edge">
<title>Node3_1&#45;&gt;Node2_1</title>
<path fill="none" stroke="black" d="M105.5,-46.27C105.5,-59.58 105.5,-75.19 105.5,-86.82"/>
<polygon fill="black" stroke="black" points="109,-46.2 105.5,-36.2 102,-46.2 109,-46.2"/>
<text text-anchor="middle" x="122" y="-57.8" font-family="Times,serif" font-size="14.00">करणम्</text>
</g>
<!-- Node4_1 -->
<g id="node5" class="node">
<title>Node4_1</title>
<polygon fill="#93db70" stroke="#93db70" points="59,-210 0,-210 0,-174 59,-174 59,-210"/>
<text text-anchor="middle" x="29.5" y="-188.3" font-family="Times,serif" font-size="14.00">धातून्(4)</text>
</g>
<!-- Node4_1&#45;&gt;Node5_1 -->
<g id="edge4" class="edge">
<title>Node4_1&#45;&gt;Node5_1</title>
<path fill="none" stroke="black" d="M35.92,-220.27C39.05,-233.58 42.72,-249.19 45.46,-260.82"/>
<polygon fill="black" stroke="black" points="39.24,-219.13 33.55,-210.2 32.43,-220.74 39.24,-219.13"/>
<text text-anchor="middle" x="50.5" y="-231.8" font-family="Times,serif" font-size="14.00">कर्म</text>
</g>
<!-- Node6_1 -->
<g id="node6" class="node">
<title>Node6_1</title>
<polygon fill="#00bfff" stroke="#00bfff" points="206,-36 151,-36 151,0 206,0 206,-36"/>
<text text-anchor="middle" x="178.5" y="-14.3" font-family="Times,serif" font-size="14.00">उभये(6)</text>
</g>
<!-- Node8_1 -->
<g id="node7" class="node">
<title>Node8_1</title>
<polygon fill="#ff1975" stroke="#ff1975" points="269.5,-123 191.5,-123 191.5,-87 269.5,-87 269.5,-123"/>
<text text-anchor="middle" x="230.5" y="-101.3" font-family="Times,serif" font-size="14.00">(दूषयन्ति)(8)</text>
</g>
<!-- Node6_1&#45;&gt;Node8_1 -->
<g id="edge5" class="edge">
<title>Node6_1&#45;&gt;Node8_1</title>
<path fill="none" stroke="black" d="M174.54,-46.29C174.58,-54.02 175.82,-62.17 179.5,-69 183.32,-76.09 189.28,-82.03 195.8,-86.88"/>
<polygon fill="black" stroke="black" points="178.04,-46.37 175.09,-36.19 171.05,-45.99 178.04,-46.37"/>
<text text-anchor="middle" x="210" y="-57.8" font-family="Times,serif" font-size="14.00">प्रयोजककर्ता</text>
</g>
<!-- Node7_1 -->
<g id="node8" class="node">
<title>Node7_1</title>
<polygon fill="#93db70" stroke="#93db70" points="292.5,-36 232.5,-36 232.5,0 292.5,0 292.5,-36"/>
<text text-anchor="middle" x="262.5" y="-14.3" font-family="Times,serif" font-size="14.00">मलान्(7)</text>
</g>
<!-- Node7_1&#45;&gt;Node8_1 -->
<g id="edge6" class="edge">
<title>Node7_1&#45;&gt;Node8_1</title>
<path fill="none" stroke="black" d="M252.38,-45.87C247.34,-59.27 241.39,-75.08 236.97,-86.82"/>
<polygon fill="black" stroke="black" points="255.78,-46.79 256.02,-36.2 249.23,-44.33 255.78,-46.79"/>
<text text-anchor="middle" x="256.5" y="-57.8" font-family="Times,serif" font-size="14.00">कर्म</text>
</g>
</g>
</svg>
