<?xml version="1.0" encoding="UTF-8" standalone="no"?>
<!DOCTYPE svg PUBLIC "-//W3C//DTD SVG 1.1//EN"
 "http://www.w3.org/Graphics/SVG/1.1/DTD/svg11.dtd">
<!-- Generated by graphviz version 2.50.0 (20211204.2007)
 -->
<!-- Title: G Pages: 1 -->
<svg width="235pt" height="479pt"
 viewBox="0.00 0.00 235.15 479.00" xmlns="http://www.w3.org/2000/svg" xmlns:xlink="http://www.w3.org/1999/xlink">
<g id="graph0" class="graph" transform="scale(1 1) rotate(0) translate(4 475)">
<title>G</title>
<polygon fill="#fffacd" stroke="transparent" points="-4,4 -4,-475 231.15,-475 231.15,4 -4,4"/>
<g id="clust1" class="cluster">
<title>cluster_1</title>
<polygon fill="#fffacd" stroke="black" points="104.15,-166 104.15,-305 210.15,-305 210.15,-166 104.15,-166"/>
</g>
<!-- Node1_3 -->
<g id="node1" class="node">
<title>Node1_3</title>
<ellipse fill="#87ceeb" stroke="#87ceeb" cx="157.15" cy="-192" rx="44.69" ry="18"/>
<text text-anchor="middle" x="157.15" y="-188.3" font-family="Times,serif" font-size="14.00">स्थस्य(1.3)</text>
</g>
<!-- Node2_2 -->
<g id="node2" class="node">
<title>Node2_2</title>
<ellipse fill="#87ceeb" stroke="#87ceeb" cx="156.15" cy="-279" rx="44.39" ry="18"/>
<text text-anchor="middle" x="156.15" y="-275.3" font-family="Times,serif" font-size="14.00">अग्नेः(2.2)</text>
</g>
<!-- Node1_3&#45;&gt;Node2_2 -->
<g id="edge3" class="edge">
<title>Node1_3&#45;&gt;Node2_2</title>
<path fill="none" stroke="black" d="M156.83,-220.27C156.67,-233.58 156.48,-249.19 156.35,-260.82"/>
<polygon fill="black" stroke="black" points="160.33,-220.24 156.94,-210.2 153.33,-220.16 160.33,-220.24"/>
<text text-anchor="middle" x="179.65" y="-231.8" font-family="Times,serif" font-size="14.00">विशेषणम्</text>
</g>
<!-- Node3_1 -->
<g id="node6" class="node">
<title>Node3_1</title>
<ellipse fill="#00bfff" stroke="#00bfff" cx="156.15" cy="-366" rx="45.49" ry="18"/>
<text text-anchor="middle" x="156.15" y="-362.3" font-family="Times,serif" font-size="14.00">अंशाः(3.1)</text>
</g>
<!-- Node2_2&#45;&gt;Node3_1 -->
<g id="edge5" class="edge">
<title>Node2_2&#45;&gt;Node3_1</title>
<path fill="none" stroke="black" d="M156.15,-307.27C156.15,-320.58 156.15,-336.19 156.15,-347.82"/>
<polygon fill="black" stroke="black" points="159.65,-307.2 156.15,-297.2 152.65,-307.2 159.65,-307.2"/>
<text text-anchor="middle" x="184.15" y="-318.8" font-family="Times,serif" font-size="14.00">षष्ठीसम्बन्धः</text>
</g>
<!-- Node1_1 -->
<g id="node3" class="node">
<title>Node1_1</title>
<ellipse fill="#ffff00" stroke="#ffff00" cx="157.15" cy="-18" rx="38.99" ry="18"/>
<text text-anchor="middle" x="157.15" y="-14.3" font-family="Times,serif" font-size="14.00">स्व&#45;(1.1)</text>
</g>
<!-- Node1_2 -->
<g id="node4" class="node">
<title>Node1_2</title>
<ellipse fill="#ffff00" stroke="#ffff00" cx="157.15" cy="-105" rx="46.29" ry="18"/>
<text text-anchor="middle" x="157.15" y="-101.3" font-family="Times,serif" font-size="14.00">स्थान&#45;(1.2)</text>
</g>
<!-- Node1_1&#45;&gt;Node1_2 -->
<g id="edge1" class="edge">
<title>Node1_1&#45;&gt;Node1_2</title>
<path fill="none" stroke="black" d="M157.15,-46.27C157.15,-59.58 157.15,-75.19 157.15,-86.82"/>
<polygon fill="black" stroke="black" points="160.65,-46.2 157.15,-36.2 153.65,-46.2 160.65,-46.2"/>
<text text-anchor="middle" x="187.65" y="-57.8" font-family="Times,serif" font-size="14.00">षष्ठी&#45;तत्पुरुषः</text>
</g>
<!-- Node1_2&#45;&gt;Node1_3 -->
<g id="edge2" class="edge">
<title>Node1_2&#45;&gt;Node1_3</title>
<path fill="none" stroke="black" d="M157.15,-133.27C157.15,-146.58 157.15,-162.19 157.15,-173.82"/>
<polygon fill="black" stroke="black" points="160.65,-133.2 157.15,-123.2 153.65,-133.2 160.65,-133.2"/>
<text text-anchor="middle" x="192.15" y="-144.8" font-family="Times,serif" font-size="14.00">उपपद&#45;तत्पुरुषः</text>
</g>
<!-- Node2_1 -->
<g id="node5" class="node">
<title>Node2_1</title>
<ellipse fill="#ffff00" stroke="#ffff00" cx="49.15" cy="-192" rx="44.69" ry="18"/>
<text text-anchor="middle" x="49.15" y="-188.3" font-family="Times,serif" font-size="14.00">काय&#45;(2.1)</text>
</g>
<!-- Node2_1&#45;&gt;Node2_2 -->
<g id="edge4" class="edge">
<title>Node2_1&#45;&gt;Node2_2</title>
<path fill="none" stroke="black" d="M66.81,-217.71C73.76,-226.37 82.22,-235.73 91.15,-243 101.98,-251.82 115.37,-259.47 127.18,-265.35"/>
<polygon fill="black" stroke="black" points="69.52,-215.49 60.64,-209.71 63.98,-219.77 69.52,-215.49"/>
<text text-anchor="middle" x="121.65" y="-231.8" font-family="Times,serif" font-size="14.00">षष्ठी&#45;तत्पुरुषः</text>
</g>
<!-- Node5_1 -->
<g id="node7" class="node">
<title>Node5_1</title>
<ellipse fill="#00bfff" stroke="#00bfff" cx="85.15" cy="-453" rx="51.19" ry="18"/>
<text text-anchor="middle" x="85.15" y="-449.3" font-family="Times,serif" font-size="14.00">संश्रिताः(5.1)</text>
</g>
<!-- Node3_1&#45;&gt;Node5_1 -->
<g id="edge6" class="edge">
<title>Node3_1&#45;&gt;Node5_1</title>
<path fill="none" stroke="black" d="M138.19,-391.7C132.02,-399.9 124.95,-408.97 118.15,-417 112.86,-423.24 106.78,-429.84 101.29,-435.6"/>
<polygon fill="black" stroke="black" points="141.09,-393.67 144.25,-383.56 135.47,-389.49 141.09,-393.67"/>
<text text-anchor="middle" x="138.15" y="-405.8" font-family="Times,serif" font-size="14.00">कर्म</text>
</g>
<!-- Node4_1 -->
<g id="node8" class="node">
<title>Node4_1</title>
<ellipse fill="#c6e2eb" stroke="#c6e2eb" cx="46.15" cy="-366" rx="46.29" ry="18"/>
<text text-anchor="middle" x="46.15" y="-362.3" font-family="Times,serif" font-size="14.00">धातुषु(4.1)</text>
</g>
<!-- Node4_1&#45;&gt;Node5_1 -->
<g id="edge7" class="edge">
<title>Node4_1&#45;&gt;Node5_1</title>
<path fill="none" stroke="black" d="M53.93,-393.67C56.51,-401.34 59.64,-409.63 63.15,-417 66.11,-423.22 69.94,-429.7 73.58,-435.36"/>
<polygon fill="black" stroke="black" points="57.24,-392.51 50.86,-384.05 50.57,-394.64 57.24,-392.51"/>
<text text-anchor="middle" x="90.65" y="-405.8" font-family="Times,serif" font-size="14.00">अधिकरणम्</text>
</g>
</g>
</svg>
