<?xml version="1.0" encoding="UTF-8" standalone="no"?>
<!DOCTYPE svg PUBLIC "-//W3C//DTD SVG 1.1//EN"
 "http://www.w3.org/Graphics/SVG/1.1/DTD/svg11.dtd">
<!-- Generated by graphviz version 2.50.0 (20211204.2007)
 -->
<!-- Title: G Pages: 1 -->
<svg width="676pt" height="218pt"
 viewBox="0.00 0.00 676.34 218.00" xmlns="http://www.w3.org/2000/svg" xmlns:xlink="http://www.w3.org/1999/xlink">
<g id="graph0" class="graph" transform="scale(1 1) rotate(0) translate(4 214)">
<title>G</title>
<polygon fill="#fffacd" stroke="transparent" points="-4,4 -4,-214 672.34,-214 672.34,4 -4,4"/>
<!-- Node1_1 -->
<g id="node1" class="node">
<title>Node1_1</title>
<ellipse fill="#c6e2eb" stroke="#c6e2eb" cx="219.2" cy="-105" rx="40.09" ry="18"/>
<text text-anchor="middle" x="219.2" y="-101.3" font-family="Times,serif" font-size="14.00">मांसे(1.1)</text>
</g>
<!-- Node3_1 -->
<g id="node2" class="node">
<title>Node3_1</title>
<ellipse fill="#ff1975" stroke="#ff1975" cx="258.2" cy="-192" rx="44.39" ry="18"/>
<text text-anchor="middle" x="258.2" y="-188.3" font-family="Times,serif" font-size="14.00">(स्युः)(3.1)</text>
</g>
<!-- Node1_1&#45;&gt;Node3_1 -->
<g id="edge1" class="edge">
<title>Node1_1&#45;&gt;Node3_1</title>
<path fill="none" stroke="black" d="M224.94,-133.09C227.04,-140.7 229.77,-148.85 233.2,-156 236.29,-162.47 240.58,-169 244.73,-174.65"/>
<polygon fill="black" stroke="black" points="228.29,-132.04 222.46,-123.2 221.5,-133.75 228.29,-132.04"/>
<text text-anchor="middle" x="260.7" y="-144.8" font-family="Times,serif" font-size="14.00">अधिकरणम्</text>
</g>
<!-- Node2_1 -->
<g id="node3" class="node">
<title>Node2_1</title>
<ellipse fill="#ffff00" stroke="#ffff00" cx="44.2" cy="-18" rx="44.39" ry="18"/>
<text text-anchor="middle" x="44.2" y="-14.3" font-family="Times,serif" font-size="14.00">अक्ष&#45;(2.1)</text>
</g>
<!-- Node2_7 -->
<g id="node4" class="node">
<title>Node2_7</title>
<ellipse fill="#00bfff" stroke="#00bfff" cx="323.2" cy="-105" rx="46.29" ry="18"/>
<text text-anchor="middle" x="323.2" y="-101.3" font-family="Times,serif" font-size="14.00">वेदनाः(2.7)</text>
</g>
<!-- Node2_1&#45;&gt;Node2_7 -->
<g id="edge2" class="edge">
<title>Node2_1&#45;&gt;Node2_7</title>
<path fill="none" stroke="black" d="M75.5,-39.01C93.47,-49.57 116.84,-61.8 139.2,-69 194.3,-86.75 211.69,-74.41 268.2,-87 275.12,-88.54 282.44,-90.54 289.39,-92.62"/>
<polygon fill="black" stroke="black" points="77.01,-35.83 66.63,-33.67 73.4,-41.83 77.01,-35.83"/>
<text text-anchor="middle" x="168.2" y="-57.8" font-family="Times,serif" font-size="14.00">इतरेतर&#45;द्वन्द्वः</text>
</g>
<!-- Node2_7&#45;&gt;Node3_1 -->
<g id="edge8" class="edge">
<title>Node2_7&#45;&gt;Node3_1</title>
<path fill="none" stroke="black" d="M306.48,-130.9C300.84,-139.02 294.4,-148.01 288.2,-156 283.29,-162.32 277.64,-169.05 272.58,-174.89"/>
<polygon fill="black" stroke="black" points="309.47,-132.73 312.24,-122.5 303.7,-128.77 309.47,-132.73"/>
<text text-anchor="middle" x="310.2" y="-144.8" font-family="Times,serif" font-size="14.00">कर्ता</text>
</g>
<!-- Node2_2 -->
<g id="node5" class="node">
<title>Node2_2</title>
<ellipse fill="#ffff00" stroke="#ffff00" cx="150.2" cy="-18" rx="44.39" ry="18"/>
<text text-anchor="middle" x="150.2" y="-14.3" font-family="Times,serif" font-size="14.00">गला&#45;(2.2)</text>
</g>
<!-- Node2_2&#45;&gt;Node2_7 -->
<g id="edge3" class="edge">
<title>Node2_2&#45;&gt;Node2_7</title>
<path fill="none" stroke="black" d="M178.97,-39.91C193.06,-49.56 210.54,-60.69 227.2,-69 246.56,-78.66 269.27,-87.06 287.74,-93.21"/>
<polygon fill="black" stroke="black" points="180.88,-36.97 170.68,-34.13 176.88,-42.72 180.88,-36.97"/>
<text text-anchor="middle" x="256.2" y="-57.8" font-family="Times,serif" font-size="14.00">इतरेतर&#45;द्वन्द्वः</text>
</g>
<!-- Node2_3 -->
<g id="node6" class="node">
<title>Node2_3</title>
<ellipse fill="#ffff00" stroke="#ffff00" cx="264.2" cy="-18" rx="51.19" ry="18"/>
<text text-anchor="middle" x="264.2" y="-14.3" font-family="Times,serif" font-size="14.00">निगण्ड&#45;(2.3)</text>
</g>
<!-- Node2_3&#45;&gt;Node2_7 -->
<g id="edge4" class="edge">
<title>Node2_3&#45;&gt;Node2_7</title>
<path fill="none" stroke="black" d="M281.59,-44.06C291.33,-58.09 303.2,-75.19 311.76,-87.53"/>
<polygon fill="black" stroke="black" points="284.43,-42.01 275.85,-35.79 278.68,-46 284.43,-42.01"/>
<text text-anchor="middle" x="326.2" y="-57.8" font-family="Times,serif" font-size="14.00">इतरेतर&#45;द्वन्द्वः</text>
</g>
<!-- Node2_4 -->
<g id="node7" class="node">
<title>Node2_4</title>
<ellipse fill="#ffff00" stroke="#ffff00" cx="383.2" cy="-18" rx="49.29" ry="18"/>
<text text-anchor="middle" x="383.2" y="-14.3" font-family="Times,serif" font-size="14.00">स्फिक्&#45;(2.4)</text>
</g>
<!-- Node2_4&#45;&gt;Node2_7 -->
<g id="edge5" class="edge">
<title>Node2_4&#45;&gt;Node2_7</title>
<path fill="none" stroke="black" d="M372.69,-45.31C368.96,-53.25 364.39,-61.78 359.2,-69 354.21,-75.94 347.76,-82.69 341.71,-88.39"/>
<polygon fill="black" stroke="black" points="375.95,-46.59 376.79,-36.03 369.54,-43.76 375.95,-46.59"/>
<text text-anchor="middle" x="396.2" y="-57.8" font-family="Times,serif" font-size="14.00">इतरेतर&#45;द्वन्द्वः</text>
</g>
<!-- Node2_5 -->
<g id="node8" class="node">
<title>Node2_5</title>
<ellipse fill="#ffff00" stroke="#ffff00" cx="504.2" cy="-18" rx="53.89" ry="18"/>
<text text-anchor="middle" x="504.2" y="-14.3" font-family="Times,serif" font-size="14.00">शुष्कता&#45;(2.5)</text>
</g>
<!-- Node2_5&#45;&gt;Node2_7 -->
<g id="edge6" class="edge">
<title>Node2_5&#45;&gt;Node2_7</title>
<path fill="none" stroke="black" d="M475.38,-40.87C461.87,-50.41 445.24,-61.18 429.2,-69 407.25,-79.7 381.22,-88.34 360.46,-94.37"/>
<polygon fill="black" stroke="black" points="477.71,-43.5 483.77,-34.81 473.61,-37.82 477.71,-43.5"/>
<text text-anchor="middle" x="483.2" y="-57.8" font-family="Times,serif" font-size="14.00">इतरेतर&#45;द्वन्द्वः</text>
</g>
<!-- Node2_6 -->
<g id="node9" class="node">
<title>Node2_6</title>
<ellipse fill="#ffff00" stroke="#ffff00" cx="622.2" cy="-18" rx="46.29" ry="18"/>
<text text-anchor="middle" x="622.2" y="-14.3" font-family="Times,serif" font-size="14.00">सन्धि&#45;(2.6)</text>
</g>
<!-- Node2_6&#45;&gt;Node2_7 -->
<g id="edge7" class="edge">
<title>Node2_6&#45;&gt;Node2_7</title>
<path fill="none" stroke="black" d="M587.96,-37.96C567.64,-48.49 541.07,-61.03 516.2,-69 466.42,-84.95 406.94,-94.36 367.3,-99.33"/>
<polygon fill="black" stroke="black" points="589.61,-41.04 596.83,-33.28 586.35,-34.85 589.61,-41.04"/>
<text text-anchor="middle" x="581.2" y="-57.8" font-family="Times,serif" font-size="14.00">इतरेतर&#45;द्वन्द्वः</text>
</g>
</g>
</svg>
