<?xml version="1.0" encoding="UTF-8" standalone="no"?>
<!DOCTYPE svg PUBLIC "-//W3C//DTD SVG 1.1//EN"
 "http://www.w3.org/Graphics/SVG/1.1/DTD/svg11.dtd">
<!-- Generated by graphviz version 2.50.0 (20211204.2007)
 -->
<!-- Title: G Pages: 1 -->
<svg width="799pt" height="337pt"
 viewBox="0.00 0.00 799.40 337.00" xmlns="http://www.w3.org/2000/svg" xmlns:xlink="http://www.w3.org/1999/xlink">
<g id="graph0" class="graph" transform="scale(1 1) rotate(0) translate(4 333)">
<title>G</title>
<polygon fill="#fffacd" stroke="transparent" points="-4,4 -4,-333 795.4,-333 795.4,4 -4,4"/>
<g id="clust1" class="cluster">
<title>cluster_1</title>
<polygon fill="#fffacd" stroke="black" points="8,-95 8,-234 204,-234 204,-95 8,-95"/>
</g>
<g id="clust2" class="cluster">
<title>cluster_2</title>
<polygon fill="#fffacd" stroke="black" points="563,-95 563,-234 683,-234 683,-95 563,-95"/>
</g>
<g id="clust3" class="cluster">
<title>cluster_3</title>
<polygon fill="#fffacd" stroke="black" points="212,-8 212,-147 336,-147 336,-8 212,-8"/>
</g>
<g id="clust4" class="cluster">
<title>cluster_4</title>
<polygon fill="#fffacd" stroke="black" points="366,-182 366,-321 496,-321 496,-182 366,-182"/>
</g>
<!-- Node1_1 -->
<g id="node1" class="node">
<title>Node1_1</title>
<ellipse fill="#00bfff" stroke="#00bfff" cx="156" cy="-121" rx="40.09" ry="18"/>
<text text-anchor="middle" x="156" y="-117.3" font-family="Times,serif" font-size="14.00">पूर्वः(1.1)</text>
</g>
<!-- Node2_1 -->
<g id="node2" class="node">
<title>Node2_1</title>
<ellipse fill="#00bfff" stroke="#00bfff" cx="149" cy="-208" rx="43.59" ry="18"/>
<text text-anchor="middle" x="149" y="-204.3" font-family="Times,serif" font-size="14.00">धातुः(2.1)</text>
</g>
<!-- Node1_1&#45;&gt;Node2_1 -->
<g id="edge1" class="edge">
<title>Node1_1&#45;&gt;Node2_1</title>
<path fill="none" stroke="black" d="M153.75,-149.27C152.66,-162.58 151.37,-178.19 150.41,-189.82"/>
<polygon fill="black" stroke="black" points="157.25,-149.45 154.58,-139.2 150.27,-148.88 157.25,-149.45"/>
<text text-anchor="middle" x="176.5" y="-160.8" font-family="Times,serif" font-size="14.00">विशेषणम्</text>
</g>
<!-- Node6_1 -->
<g id="node9" class="node">
<title>Node6_1</title>
<ellipse fill="#ff1975" stroke="#ff1975" cx="438" cy="-295" rx="46.59" ry="18"/>
<text text-anchor="middle" x="438" y="-291.3" font-family="Times,serif" font-size="14.00">कुर्यात्(6.1)</text>
</g>
<!-- Node2_1&#45;&gt;Node6_1 -->
<g id="edge2" class="edge">
<title>Node2_1&#45;&gt;Node6_1</title>
<path fill="none" stroke="black" d="M193.43,-222.07C250.7,-238.91 349.2,-267.88 402.03,-283.42"/>
<polygon fill="black" stroke="black" points="194.15,-218.63 183.57,-219.17 192.18,-225.35 194.15,-218.63"/>
<text text-anchor="middle" x="322" y="-247.8" font-family="Times,serif" font-size="14.00">कर्ता</text>
</g>
<!-- Node7_1 -->
<g id="node3" class="node">
<title>Node7_1</title>
<ellipse fill="#00bfff" stroke="#00bfff" cx="57" cy="-121" rx="40.89" ry="18"/>
<text text-anchor="middle" x="57" y="-117.3" font-family="Times,serif" font-size="14.00">वृद्धः(7.1)</text>
</g>
<!-- Node7_1&#45;&gt;Node2_1 -->
<g id="edge6" class="edge">
<title>Node7_1&#45;&gt;Node2_1</title>
<path fill="none" stroke="black" d="M77.14,-146.3C84.61,-154.78 93.37,-164.13 102,-172 109.82,-179.13 119.04,-186.24 127.24,-192.17"/>
<polygon fill="black" stroke="black" points="79.61,-143.8 70.43,-138.52 74.31,-148.38 79.61,-143.8"/>
<text text-anchor="middle" x="125.5" y="-160.8" font-family="Times,serif" font-size="14.00">विशेषणम्</text>
</g>
<!-- Node3_1 -->
<g id="node4" class="node">
<title>Node3_1</title>
<ellipse fill="#ff99ff" stroke="#ff99ff" cx="623" cy="-121" rx="40.09" ry="18"/>
<text text-anchor="middle" x="623" y="-117.3" font-family="Times,serif" font-size="14.00">परम्(3.1)</text>
</g>
<!-- Node4_1 -->
<g id="node5" class="node">
<title>Node4_1</title>
<ellipse fill="#93db70" stroke="#93db70" cx="623" cy="-208" rx="51.99" ry="18"/>
<text text-anchor="middle" x="623" y="-204.3" font-family="Times,serif" font-size="14.00">(धातुम्)(4.1)</text>
</g>
<!-- Node3_1&#45;&gt;Node4_1 -->
<g id="edge3" class="edge">
<title>Node3_1&#45;&gt;Node4_1</title>
<path fill="none" stroke="black" d="M623,-149.27C623,-162.58 623,-178.19 623,-189.82"/>
<polygon fill="black" stroke="black" points="626.5,-149.2 623,-139.2 619.5,-149.2 626.5,-149.2"/>
<text text-anchor="middle" x="646.5" y="-160.8" font-family="Times,serif" font-size="14.00">विशेषणम्</text>
</g>
<!-- Node4_1&#45;&gt;Node6_1 -->
<g id="edge4" class="edge">
<title>Node4_1&#45;&gt;Node6_1</title>
<path fill="none" stroke="black" d="M583.43,-227.18C548.45,-243.25 498.24,-266.32 466.9,-280.72"/>
<polygon fill="black" stroke="black" points="585.24,-230.2 592.86,-222.85 582.32,-223.84 585.24,-230.2"/>
<text text-anchor="middle" x="550" y="-247.8" font-family="Times,serif" font-size="14.00">कर्म</text>
</g>
<!-- Node8_1 -->
<g id="node6" class="node">
<title>Node8_1</title>
<ellipse fill="#00bfff" stroke="#00bfff" cx="274" cy="-34" rx="46.29" ry="18"/>
<text text-anchor="middle" x="274" y="-30.3" font-family="Times,serif" font-size="14.00">क्षीणः(8.1)</text>
</g>
<!-- Node12_1 -->
<g id="node7" class="node">
<title>Node12_1</title>
<ellipse fill="#00bfff" stroke="#00bfff" cx="274" cy="-121" rx="53.89" ry="18"/>
<text text-anchor="middle" x="274" y="-117.3" font-family="Times,serif" font-size="14.00">(धातुः)(12.1)</text>
</g>
<!-- Node8_1&#45;&gt;Node12_1 -->
<g id="edge7" class="edge">
<title>Node8_1&#45;&gt;Node12_1</title>
<path fill="none" stroke="black" d="M274,-62.27C274,-75.58 274,-91.19 274,-102.82"/>
<polygon fill="black" stroke="black" points="277.5,-62.2 274,-52.2 270.5,-62.2 277.5,-62.2"/>
<text text-anchor="middle" x="297.5" y="-73.8" font-family="Times,serif" font-size="14.00">विशेषणम्</text>
</g>
<!-- Node11_1 -->
<g id="node8" class="node">
<title>Node11_1</title>
<ellipse fill="#ff1975" stroke="#ff1975" cx="431" cy="-208" rx="57.39" ry="18"/>
<text text-anchor="middle" x="431" y="-204.3" font-family="Times,serif" font-size="14.00">(कुर्यात्)(11.1)</text>
</g>
<!-- Node12_1&#45;&gt;Node11_1 -->
<g id="edge12" class="edge">
<title>Node12_1&#45;&gt;Node11_1</title>
<path fill="none" stroke="black" d="M304.17,-143.59C317.83,-152.91 334.38,-163.57 350,-172 364.83,-180 381.87,-187.59 396.48,-193.64"/>
<polygon fill="black" stroke="black" points="305.87,-140.51 295.66,-137.71 301.89,-146.27 305.87,-140.51"/>
<text text-anchor="middle" x="361" y="-160.8" font-family="Times,serif" font-size="14.00">कर्ता</text>
</g>
<!-- Node11_1&#45;&gt;Node6_1 -->
<g id="edge11" class="edge">
<title>Node11_1&#45;&gt;Node6_1</title>
<path fill="none" stroke="black" d="M433.25,-236.27C434.34,-249.58 435.63,-265.19 436.59,-276.82"/>
<polygon fill="black" stroke="black" points="436.73,-235.88 432.42,-226.2 429.75,-236.45 436.73,-235.88"/>
<text text-anchor="middle" x="456.5" y="-247.8" font-family="Times,serif" font-size="14.00">समुच्चितः</text>
</g>
<!-- Node5_1 -->
<g id="node10" class="node">
<title>Node5_1</title>
<ellipse fill="#93db70" stroke="#93db70" cx="742" cy="-208" rx="49.29" ry="18"/>
<text text-anchor="middle" x="742" y="-204.3" font-family="Times,serif" font-size="14.00">(वृद्धम्)(5.1)</text>
</g>
<!-- Node5_1&#45;&gt;Node6_1 -->
<g id="edge5" class="edge">
<title>Node5_1&#45;&gt;Node6_1</title>
<path fill="none" stroke="black" d="M704.6,-227.14C698.78,-229.63 692.78,-232.01 687,-234 615.73,-258.53 529.68,-276.88 479.66,-286.48"/>
<polygon fill="black" stroke="black" points="706.44,-230.15 714.16,-222.9 703.6,-223.76 706.44,-230.15"/>
<text text-anchor="middle" x="689.5" y="-247.8" font-family="Times,serif" font-size="14.00">क्रियाविशेषणम्</text>
</g>
<!-- Node9_1 -->
<g id="node11" class="node">
<title>Node9_1</title>
<ellipse fill="#ff99ff" stroke="#ff99ff" cx="380" cy="-121" rx="33.6" ry="18"/>
<text text-anchor="middle" x="380" y="-117.3" font-family="Times,serif" font-size="14.00">च(9.1)</text>
</g>
<!-- Node9_1&#45;&gt;Node11_1 -->
<g id="edge8" class="edge">
<title>Node9_1&#45;&gt;Node11_1</title>
<path fill="none" stroke="black" d="M376.08,-149.27C376.12,-156.99 377.35,-165.15 381,-172 385.49,-180.41 393,-187.24 400.86,-192.55"/>
<polygon fill="black" stroke="black" points="379.58,-149.35 376.63,-139.18 372.59,-148.97 379.58,-149.35"/>
<text text-anchor="middle" x="420.5" y="-160.8" font-family="Times,serif" font-size="14.00">समुच्चय_द्योतकः</text>
</g>
<!-- Node10_1 -->
<g id="node12" class="node">
<title>Node10_1</title>
<ellipse fill="#ffff00" stroke="#ffff00" cx="482" cy="-34" rx="44.69" ry="18"/>
<text text-anchor="middle" x="482" y="-30.3" font-family="Times,serif" font-size="14.00">तत्&#45;(10.1)</text>
</g>
<!-- Node10_2 -->
<g id="node13" class="node">
<title>Node10_2</title>
<ellipse fill="#93db70" stroke="#93db70" cx="482" cy="-121" rx="50.09" ry="18"/>
<text text-anchor="middle" x="482" y="-117.3" font-family="Times,serif" font-size="14.00">विधम्(10.2)</text>
</g>
<!-- Node10_1&#45;&gt;Node10_2 -->
<g id="edge9" class="edge">
<title>Node10_1&#45;&gt;Node10_2</title>
<path fill="none" stroke="black" d="M482,-62.27C482,-75.58 482,-91.19 482,-102.82"/>
<polygon fill="black" stroke="black" points="485.5,-62.2 482,-52.2 478.5,-62.2 485.5,-62.2"/>
<text text-anchor="middle" x="518.5" y="-73.8" font-family="Times,serif" font-size="14.00">तृतीया&#45;तत्पुरुषः</text>
</g>
<!-- Node10_2&#45;&gt;Node11_1 -->
<g id="edge10" class="edge">
<title>Node10_2&#45;&gt;Node11_1</title>
<path fill="none" stroke="black" d="M471.9,-148.65C468.54,-156.4 464.48,-164.74 460,-172 456.02,-178.45 450.95,-184.98 446.16,-190.63"/>
<polygon fill="black" stroke="black" points="475.2,-149.83 475.78,-139.25 468.73,-147.16 475.2,-149.83"/>
<text text-anchor="middle" x="503.5" y="-160.8" font-family="Times,serif" font-size="14.00">क्रियाविशेषणम्</text>
</g>
</g>
</svg>
