<?xml version="1.0" encoding="UTF-8" standalone="no"?>
<!DOCTYPE svg PUBLIC "-//W3C//DTD SVG 1.1//EN"
 "http://www.w3.org/Graphics/SVG/1.1/DTD/svg11.dtd">
<!-- Generated by graphviz version 2.50.0 (20211204.2007)
 -->
<!-- Title: G Pages: 1 -->
<svg width="587pt" height="234pt"
 viewBox="0.00 0.00 587.50 234.00" xmlns="http://www.w3.org/2000/svg" xmlns:xlink="http://www.w3.org/1999/xlink">
<g id="graph0" class="graph" transform="scale(1 1) rotate(0) translate(4 230)">
<title>G</title>
<polygon fill="#fffacd" stroke="transparent" points="-4,4 -4,-230 583.5,-230 583.5,4 -4,4"/>
<g id="clust1" class="cluster">
<title>cluster_1</title>
<polygon fill="#fffacd" stroke="black" points="8,-8 8,-147 375,-147 375,-8 8,-8"/>
</g>
<!-- Node1_2 -->
<g id="node1" class="node">
<title>Node1_2</title>
<ellipse fill="#93db70" stroke="#93db70" cx="310" cy="-34" rx="56.59" ry="18"/>
<text text-anchor="middle" x="310" y="-30.3" font-family="Times,serif" font-size="14.00">आध्मानम्(1.2)</text>
</g>
<!-- Node3_1 -->
<g id="node2" class="node">
<title>Node3_1</title>
<ellipse fill="#93db70" stroke="#93db70" cx="310" cy="-121" rx="48.99" ry="18"/>
<text text-anchor="middle" x="310" y="-117.3" font-family="Times,serif" font-size="14.00">वेदनाम्(3.1)</text>
</g>
<!-- Node1_2&#45;&gt;Node3_1 -->
<g id="edge2" class="edge">
<title>Node1_2&#45;&gt;Node3_1</title>
<path fill="none" stroke="black" d="M310,-62.27C310,-75.58 310,-91.19 310,-102.82"/>
<polygon fill="black" stroke="black" points="313.5,-62.2 310,-52.2 306.5,-62.2 313.5,-62.2"/>
<text text-anchor="middle" x="332.5" y="-73.8" font-family="Times,serif" font-size="14.00">समुच्चितः</text>
</g>
<!-- Node4_1 -->
<g id="node6" class="node">
<title>Node4_1</title>
<ellipse fill="#ff1975" stroke="#ff1975" cx="427" cy="-208" rx="52.79" ry="18"/>
<text text-anchor="middle" x="427" y="-204.3" font-family="Times,serif" font-size="14.00">(कूर्यात्)(4.1)</text>
</g>
<!-- Node3_1&#45;&gt;Node4_1 -->
<g id="edge5" class="edge">
<title>Node3_1&#45;&gt;Node4_1</title>
<path fill="none" stroke="black" d="M339.29,-143.28C359.89,-158.24 386.98,-177.93 405.57,-191.43"/>
<polygon fill="black" stroke="black" points="341.34,-140.44 331.19,-137.39 337.22,-146.1 341.34,-140.44"/>
<text text-anchor="middle" x="384" y="-160.8" font-family="Times,serif" font-size="14.00">कर्म</text>
</g>
<!-- Node1_3 -->
<g id="node3" class="node">
<title>Node1_3</title>
<ellipse fill="#93db70" stroke="#93db70" cx="183" cy="-34" rx="52.79" ry="18"/>
<text text-anchor="middle" x="183" y="-30.3" font-family="Times,serif" font-size="14.00">आटोपम्(1.3)</text>
</g>
<!-- Node1_3&#45;&gt;Node3_1 -->
<g id="edge3" class="edge">
<title>Node1_3&#45;&gt;Node3_1</title>
<path fill="none" stroke="black" d="M214.61,-56.16C237.31,-71.35 267.34,-91.45 287.6,-105.01"/>
<polygon fill="black" stroke="black" points="216.26,-53.05 206,-50.39 212.36,-58.86 216.26,-53.05"/>
<text text-anchor="middle" x="276.5" y="-73.8" font-family="Times,serif" font-size="14.00">समुच्चितः</text>
</g>
<!-- Node2_1 -->
<g id="node4" class="node">
<title>Node2_1</title>
<ellipse fill="#93db70" stroke="#93db70" cx="64" cy="-34" rx="48.19" ry="18"/>
<text text-anchor="middle" x="64" y="-30.3" font-family="Times,serif" font-size="14.00">गौरवम्(2.1)</text>
</g>
<!-- Node2_1&#45;&gt;Node3_1 -->
<g id="edge4" class="edge">
<title>Node2_1&#45;&gt;Node3_1</title>
<path fill="none" stroke="black" d="M103.54,-51.98C127.94,-62.17 160.02,-75.04 189,-85 216.3,-94.38 247.62,-103.39 271.55,-109.92"/>
<polygon fill="black" stroke="black" points="104.82,-48.72 94.25,-48.08 102.11,-55.18 104.82,-48.72"/>
<text text-anchor="middle" x="211.5" y="-73.8" font-family="Times,serif" font-size="14.00">समुच्चितः</text>
</g>
<!-- Node1_1 -->
<g id="node5" class="node">
<title>Node1_1</title>
<ellipse fill="#c6e2eb" stroke="#c6e2eb" cx="427" cy="-121" rx="43.59" ry="18"/>
<text text-anchor="middle" x="427" y="-117.3" font-family="Times,serif" font-size="14.00">कुक्षौ(1.1)</text>
</g>
<!-- Node1_1&#45;&gt;Node4_1 -->
<g id="edge1" class="edge">
<title>Node1_1&#45;&gt;Node4_1</title>
<path fill="none" stroke="black" d="M427,-149.27C427,-162.58 427,-178.19 427,-189.82"/>
<polygon fill="black" stroke="black" points="430.5,-149.2 427,-139.2 423.5,-149.2 430.5,-149.2"/>
<text text-anchor="middle" x="454.5" y="-160.8" font-family="Times,serif" font-size="14.00">अधिकरणम्</text>
</g>
<!-- Node3_2 -->
<g id="node7" class="node">
<title>Node3_2</title>
<ellipse fill="#00bfff" stroke="#00bfff" cx="534" cy="-121" rx="45.49" ry="18"/>
<text text-anchor="middle" x="534" y="-117.3" font-family="Times,serif" font-size="14.00">शकृत्(3.2)</text>
</g>
<!-- Node3_2&#45;&gt;Node4_1 -->
<g id="edge6" class="edge">
<title>Node3_2&#45;&gt;Node4_1</title>
<path fill="none" stroke="black" d="M513.37,-146.08C505.3,-154.77 495.67,-164.33 486,-172 476.39,-179.62 464.96,-186.78 454.73,-192.61"/>
<polygon fill="black" stroke="black" points="516.19,-148.18 520.29,-138.42 510.99,-143.49 516.19,-148.18"/>
<text text-anchor="middle" x="512" y="-160.8" font-family="Times,serif" font-size="14.00">कर्ता</text>
</g>
<!-- Node5_1 -->
<g id="node8" class="node">
<title>Node5_1</title>
<ellipse fill="#ff99ff" stroke="#ff99ff" cx="424" cy="-34" rx="39.79" ry="18"/>
<text text-anchor="middle" x="424" y="-30.3" font-family="Times,serif" font-size="14.00">(च)(5.1)</text>
</g>
<!-- Node5_1&#45;&gt;Node3_1 -->
<g id="edge7" class="edge">
<title>Node5_1&#45;&gt;Node3_1</title>
<path fill="none" stroke="black" d="M397.04,-56.08C385.41,-65.08 371.61,-75.65 359,-85 350.1,-91.6 340.17,-98.73 331.59,-104.83"/>
<polygon fill="black" stroke="black" points="399.33,-58.74 405.08,-49.84 395.03,-53.21 399.33,-58.74"/>
<text text-anchor="middle" x="417.5" y="-73.8" font-family="Times,serif" font-size="14.00">समुच्चय_द्योतकः</text>
</g>
</g>
</svg>
