<svg width="799pt" height="423pt"
 viewBox="0.00 0.00 798.50 423.00" xmlns="http://www.w3.org/2000/svg" xmlns:xlink="http://www.w3.org/1999/xlink">
<g id="graph0" class="graph" transform="scale(1 1) rotate(0) translate(4 419)">
<title>G</title>
<polygon fill="#fffacd" stroke="transparent" points="-4,4 -4,-419 794.5,-419 794.5,4 -4,4"/>
<!-- Node1_3 -->
<style>
 .hidden { display: none; }
 .node { cursor: pointer; }
 </style>
<script>
     function toggleChildren(id) {
      const children = document.getElementById(id);
      if (children.classList.contains('hidden')) {
        children.classList.remove('hidden');
      } else {
        children.classList.add('hidden');
      }
    }
</script>
<g id="children_node0_70847" class="hidden">
    <g class="node" onclick="toggleChildren('children_node0_70847');">
</g>
</g>
<g id="children_node1_70847" class="hidden">
    <g class="node" onclick="toggleChildren('children_node1_70847');">

<g id="node1" class="node">
<title>Node1_3</title>
<polygon fill="#ffff00" stroke="#ffff00" points="693,-36 639,-36 639,0 693,0 693,-36"/>
<text text-anchor="middle" x="666" y="-14.3" font-family="Times,serif" font-size="14.00">स्वेद&#45;</text>
</g>
<!-- Node1_4 -->
<g id="node2" class="node">
<title>Node1_4</title>
<polygon fill="#ffff00" stroke="#ffff00" points="783,-36 729,-36 729,0 783,0 783,-36"/>
<text text-anchor="middle" x="756" y="-14.3" font-family="Times,serif" font-size="14.00">मद्यैः</text>
</g>
<!-- Node1_3&#45;&gt;Node1_4 -->
<!-- Node1_4_1 -->
<g id="node3" class="node">
<title>Node1_4_1</title>
<polygon fill="#ffff00" stroke="#ffff00" points="790.5,-109 647.5,-109 647.5,-73 790.5,-73 790.5,-109"/>
<text text-anchor="middle" x="719" y="-87.3" font-family="Times,serif" font-size="14.00">&lt;स्वेद&#45;मद्यैः&gt;(इतरेतर&#45;द्वन्द्वः)</text>
</g>
<!-- Node1_3&#45;&gt;Node1_4_1 -->
<g id="edge2" class="edge">
<title>Node1_3&#45;&gt;Node1_4_1</title>
<path fill="none" stroke="black" d="M684.82,-44.21C691.94,-53.74 699.86,-64.36 706.29,-72.97"/>
<polygon fill="black" stroke="black" points="687.62,-42.11 678.83,-36.19 682.01,-46.29 687.62,-42.11"/>
</g>
<!-- Node1_4&#45;&gt;Node1_4_1 -->
<g id="edge1" class="edge">
<title>Node1_4&#45;&gt;Node1_4_1</title>
<path fill="none" stroke="black" d="M742.41,-45.08C737.56,-54.39 732.22,-64.62 727.87,-72.97"/>
<polygon fill="black" stroke="black" points="745.53,-46.67 747.04,-36.19 739.32,-43.44 745.53,-46.67"/>
</g>
<!-- Node1_4_2 -->
<g id="node5" class="node">
<title>Node1_4_2</title>
<polygon fill="#ffff00" stroke="#ffff00" points="785.5,-182 516.5,-182 516.5,-146 785.5,-146 785.5,-182"/>
<text text-anchor="middle" x="651" y="-160.3" font-family="Times,serif" font-size="14.00">&lt;अभ्यञ्जन&#45;&lt;स्वेद&#45;मद्यैः&gt;(इतरेतर&#45;द्वन्द्वः)&gt;(इतरेतर&#45;द्वन्द्वः)</text>
</g>
<!-- Node1_4_1&#45;&gt;Node1_4_2 -->
<g id="edge4" class="edge">
<title>Node1_4_1&#45;&gt;Node1_4_2</title>
<path fill="none" stroke="black" d="M695.41,-116.63C686.14,-126.31 675.72,-137.19 667.31,-145.97"/>
<polygon fill="black" stroke="black" points="698.15,-118.83 702.54,-109.19 693.09,-113.99 698.15,-118.83"/>
</g>
<!-- Node1_2 -->
<g id="node4" class="node">
<title>Node1_2</title>
<polygon fill="#ffff00" stroke="#ffff00" points="611.5,-109 552.5,-109 552.5,-73 611.5,-73 611.5,-109"/>
<text text-anchor="middle" x="582" y="-87.3" font-family="Times,serif" font-size="14.00">अभ्यञ्जन&#45;</text>
</g>
<!-- Node1_2&#45;&gt;Node1_4_1 -->
<!-- Node1_2&#45;&gt;Node1_4_2 -->
<g id="edge5" class="edge">
<title>Node1_2&#45;&gt;Node1_4_2</title>
<path fill="none" stroke="black" d="M605.94,-116.63C615.35,-126.31 625.91,-137.19 634.45,-145.97"/>
<polygon fill="black" stroke="black" points="608.18,-113.92 598.7,-109.19 603.16,-118.8 608.18,-113.92"/>
</g>
<!-- Node1_4_3 -->
<g id="node7" class="node">
<title>Node1_4_3</title>
<polygon fill="#ffff00" stroke="#ffff00" points="747,-255 355,-255 355,-219 747,-219 747,-255"/>
<text text-anchor="middle" x="551" y="-233.3" font-family="Times,serif" font-size="14.00">&lt;व्यायाम&#45;&lt;अभ्यञ्जन&#45;&lt;स्वेद&#45;मद्यैः&gt;(इतरेतर&#45;द्वन्द्वः)&gt;(इतरेतर&#45;द्वन्द्वः)&gt;(इतरेतर&#45;द्वन्द्वः)</text>
</g>
<!-- Node1_4_2&#45;&gt;Node1_4_3 -->
<g id="edge7" class="edge">
<title>Node1_4_2&#45;&gt;Node1_4_3</title>
<path fill="none" stroke="black" d="M618.57,-188.03C604.43,-198.06 588.14,-209.63 575.1,-218.89"/>
<polygon fill="black" stroke="black" points="620.92,-190.65 627.05,-182.01 616.87,-184.94 620.92,-190.65"/>
</g>
<!-- Node1_1 -->
<g id="node6" class="node">
<title>Node1_1</title>
<polygon fill="#ffff00" stroke="#ffff00" points="480.5,-182 423.5,-182 423.5,-146 480.5,-146 480.5,-182"/>
<text text-anchor="middle" x="452" y="-160.3" font-family="Times,serif" font-size="14.00">व्यायाम&#45;</text>
</g>
<!-- Node1_1&#45;&gt;Node1_4_2 -->
<!-- Node1_1&#45;&gt;Node1_4_3 -->
<g id="edge8" class="edge">
<title>Node1_1&#45;&gt;Node1_4_3</title>
<path fill="none" stroke="black" d="M484.11,-188.03C498.1,-198.06 514.23,-209.63 527.14,-218.89"/>
<polygon fill="black" stroke="black" points="485.88,-184.99 475.71,-182.01 481.8,-190.68 485.88,-184.99"/>
</g>
<!-- Node1_4_3&#45;&gt;Node1_4_3c -->
<g id="edge10" class="edge">
<title>Node1_4_3&#45;&gt;Node1_4_3c</title>
<path fill="none" stroke="black" d="M541.61,-264.66C538.39,-273.81 534.87,-283.8 532,-291.97"/>
<polygon fill="black" stroke="black" points="544.93,-265.78 544.95,-255.19 538.33,-263.46 544.93,-265.78"/>
</g>
</g>
</g>
<!-- Node1_4_3c -->
<g class="node8" onclick="toggleChildren('children_node1_70847');">
<title>Node1_4_3c</title>
<polygon fill="#40e0d0" stroke="#40e0d0" points="606,-328 446,-328 446,-292 606,-292 606,-328"/>
<text text-anchor="middle" x="526" y="-306.3" font-family="Times,serif" font-size="14.00">व्यायाम&#45;अभ्यञ्जन&#45;स्वेद&#45;मद्यैः(1)</text>
</g>
<g id="children_node2_70847" class="hidden">
    <g class="node" onclick="toggleChildren('children_node2_70847');">
<!-- Node2_1 -->
<g id="node9" class="node">
<title>Node2_1</title>
<polygon fill="#ffff00" stroke="#ffff00" points="54,-109 0,-109 0,-73 54,-73 54,-109"/>
<text text-anchor="middle" x="27" y="-87.3" font-family="Times,serif" font-size="14.00">स्वेद&#45;</text>
</g>
<!-- Node2_2 -->
<g id="node10" class="node">
<title>Node2_2</title>
<polygon fill="#ffff00" stroke="#ffff00" points="144,-109 90,-109 90,-73 144,-73 144,-109"/>
<text text-anchor="middle" x="117" y="-87.3" font-family="Times,serif" font-size="14.00">क्षय&#45;</text>
</g>
<!-- Node2_1&#45;&gt;Node2_2 -->
<!-- Node2_2_1 -->
<g id="node11" class="node">
<title>Node2_2_1</title>
<polygon fill="#ffff00" stroke="#ffff00" points="169,-182 19,-182 19,-146 169,-146 169,-182"/>
<text text-anchor="middle" x="94" y="-160.3" font-family="Times,serif" font-size="14.00">&lt;स्वेद&#45;क्षय&#45;&gt;(षष्ठी&#45;तत्पुरुषः)</text>
</g>
<!-- Node2_1&#45;&gt;Node2_2_1 -->
<g id="edge13" class="edge">
<title>Node2_1&#45;&gt;Node2_2_1</title>
<path fill="none" stroke="black" d="M50.24,-116.63C59.38,-126.31 69.64,-137.19 77.93,-145.97"/>
<polygon fill="black" stroke="black" points="52.63,-114.06 43.22,-109.19 47.54,-118.86 52.63,-114.06"/>
</g>
<!-- Node2_2&#45;&gt;Node2_2_1 -->
<g id="edge12" class="edge">
<title>Node2_2&#45;&gt;Node2_2_1</title>
<path fill="none" stroke="black" d="M108.27,-118.95C105.33,-128.02 102.14,-137.88 99.52,-145.97"/>
<polygon fill="black" stroke="black" points="111.68,-119.78 111.43,-109.19 105.02,-117.62 111.68,-119.78"/>
</g>
<!-- Node2_3 -->
<g id="node12" class="node">
<title>Node2_3</title>
<polygon fill="#ffff00" stroke="#ffff00" points="259,-182 205,-182 205,-146 259,-146 259,-182"/>
<text text-anchor="middle" x="232" y="-160.3" font-family="Times,serif" font-size="14.00">उद्भवान्</text>
</g>
<!-- Node2_2_1&#45;&gt;Node2_3 -->
<!-- Node2_3_2 -->
<g id="node13" class="node">
<title>Node2_3_2</title>
<polygon fill="#ffff00" stroke="#ffff00" points="336.5,-255 57.5,-255 57.5,-219 336.5,-219 336.5,-255"/>
<text text-anchor="middle" x="197" y="-233.3" font-family="Times,serif" font-size="14.00">&lt;&lt;स्वेद&#45;क्षय&#45;&gt;(षष्ठी&#45;तत्पुरुषः)उद्भवान्&gt;(पञ्चमी&#45;तत्पुरुषः)</text>
</g>
<!-- Node2_2_1&#45;&gt;Node2_3_2 -->
<g id="edge16" class="edge">
<title>Node2_2_1&#45;&gt;Node2_3_2</title>
<path fill="none" stroke="black" d="M126.99,-187.74C141.65,-197.85 158.61,-209.54 172.17,-218.89"/>
<polygon fill="black" stroke="black" points="128.89,-184.8 118.67,-182.01 124.92,-190.56 128.89,-184.8"/>
</g>
<!-- Node2_3&#45;&gt;Node2_3_2 -->
<g id="edge15" class="edge">
<title>Node2_3&#45;&gt;Node2_3_2</title>
<path fill="none" stroke="black" d="M219,-191.37C214.45,-200.6 209.47,-210.71 205.39,-218.97"/>
<polygon fill="black" stroke="black" points="222.25,-192.7 223.53,-182.19 215.97,-189.61 222.25,-192.7"/>
</g>
<!-- Node2_3_2&#45;&gt;Node2_3_2c -->
<g id="edge18" class="edge">
<title>Node2_3_2&#45;&gt;Node2_3_2c</title>
<path fill="none" stroke="black" d="M241.78,-259.34C263.63,-269.75 289.56,-282.1 310.09,-291.89"/>
<polygon fill="black" stroke="black" points="243.22,-256.15 232.69,-255.01 240.21,-262.47 243.22,-256.15"/>
</g>
</g>
</g>
<!-- Node2_3_2c -->
<g class="node14" onclick="toggleChildren('children_node2_70847');">
<title>Node2_3_2c</title>
<polygon fill="#93db70" stroke="#93db70" points="402.5,-328 289.5,-328 289.5,-292 402.5,-292 402.5,-328"/>
<text text-anchor="middle" x="346" y="-306.3" font-family="Times,serif" font-size="14.00">स्वेद&#45;क्षय&#45;उद्भवान्(2)</text>
</g>
<!-- Node3_1 -->
<g id="node15" class="node">
<title>Node3_1</title>
<polygon fill="#ff1975" stroke="#ff1975" points="463,-415 383,-415 383,-379 463,-379 463,-415"/>
<text text-anchor="middle" x="423" y="-393.3" font-family="Times,serif" font-size="14.00">(उपक्रमेत)(3)</text>
</g>
<!-- Node1_4_3c&#45;&gt;Node3_1 -->
<g id="edge11" class="edge">
<title>Node1_4_3c&#45;&gt;Node3_1</title>
<path fill="none" stroke="black" d="M497.2,-334.77C480.24,-348.77 459.16,-366.16 443.81,-378.82"/>
<polygon fill="black" stroke="black" points="499.67,-337.27 505.16,-328.2 495.22,-331.87 499.67,-337.27"/>
<text text-anchor="middle" x="497.5" y="-349.8" font-family="Times,serif" font-size="14.00">करणम्</text>
</g>
<!-- Node2_3_2c&#45;&gt;Node3_1 -->
<g id="edge19" class="edge">
<title>Node2_3_2c&#45;&gt;Node3_1</title>
<path fill="none" stroke="black" d="M368.57,-335.92C381.07,-349.71 396.28,-366.5 407.44,-378.82"/>
<polygon fill="black" stroke="black" points="370.89,-333.26 361.58,-328.2 365.7,-337.96 370.89,-333.26"/>
<text text-anchor="middle" x="399" y="-349.8" font-family="Times,serif" font-size="14.00">कर्म</text>
</g>
</g>
</svg>
