<svg width="714pt" height="305pt"
 viewBox="0.00 0.00 714.00 305.00" xmlns="http://www.w3.org/2000/svg" xmlns:xlink="http://www.w3.org/1999/xlink">
<g id="graph0" class="graph" transform="scale(1 1) rotate(0) translate(4 301)">
<title>G</title>
<polygon fill="#fffacd" stroke="transparent" points="-4,4 -4,-301 710,-301 710,4 -4,4"/>
<g id="clust1" class="cluster">
<title>cluster_1</title>
<polygon fill="#fffacd" stroke="black" points="542,-79 542,-218 698,-218 698,-79 542,-79"/>
</g>
<!-- Node5_1 -->
<style>
 .hidden { display: none; }
 .node { cursor: pointer; }
 </style>
<script>
     function toggleChildren(id) {
      const children = document.getElementById(id);
      if (children.classList.contains('hidden')) {
        children.classList.remove('hidden');
      } else {
        children.classList.add('hidden');
      }
    }
</script>
<g id="children_node0_70967" class="hidden">
    <g class="node" onclick="toggleChildren('children_node0_70967');">
</g>
</g>
<g id="children_node1_70967" class="hidden">
    <g class="node" onclick="toggleChildren('children_node1_70967');">

<g id="node1" class="node">
<title>Node5_1</title>
<polygon fill="#ffff00" stroke="#ffff00" points="56,-36 0,-36 0,0 56,0 56,-36"/>
<text text-anchor="middle" x="28" y="-14.3" font-family="Times,serif" font-size="14.00">विपरीत&#45;</text>
</g>
<!-- Node5_2 -->
<g id="node2" class="node">
<title>Node5_2</title>
<polygon fill="#ffff00" stroke="#ffff00" points="150.5,-36 91.5,-36 91.5,0 150.5,0 150.5,-36"/>
<text text-anchor="middle" x="121" y="-14.3" font-family="Times,serif" font-size="14.00">समानयोः</text>
</g>
<!-- Node5_1&#45;&gt;Node5_2 -->
<!-- Node5_2_1 -->
<g id="node3" class="node">
<title>Node5_2_1</title>
<polygon fill="#ffff00" stroke="#ffff00" points="187,-123 7,-123 7,-87 187,-87 187,-123"/>
<text text-anchor="middle" x="97" y="-101.3" font-family="Times,serif" font-size="14.00">&lt;विपरीत&#45;समानयोः&gt;(इतरेतर&#45;द्वन्द्वः)</text>
</g>
<!-- Node5_1&#45;&gt;Node5_2_1 -->
<g id="edge2" class="edge">
<title>Node5_1&#45;&gt;Node5_2_1</title>
<path fill="none" stroke="black" d="M48.54,-44.31C59.68,-58.02 73.15,-74.62 83.06,-86.82"/>
<polygon fill="black" stroke="black" points="50.98,-41.76 41.96,-36.2 45.55,-46.17 50.98,-41.76"/>
</g>
<!-- Node5_2&#45;&gt;Node5_2_1 -->
<g id="edge1" class="edge">
<title>Node5_2&#45;&gt;Node5_2_1</title>
<path fill="none" stroke="black" d="M113.41,-45.87C109.63,-59.27 105.17,-75.08 101.85,-86.82"/>
<polygon fill="black" stroke="black" points="116.79,-46.78 116.14,-36.2 110.06,-44.87 116.79,-46.78"/>
</g>
<!-- Node5_2_1&#45;&gt;Node5_2_1c -->
<g id="edge4" class="edge">
<title>Node5_2_1&#45;&gt;Node5_2_1c</title>
<path fill="none" stroke="black" d="M97,-133.27C97,-146.58 97,-162.19 97,-173.82"/>
<polygon fill="black" stroke="black" points="100.5,-133.2 97,-123.2 93.5,-133.2 100.5,-133.2"/>
</g>
</g>
</g>
<!-- Node5_2_1c -->
<g class="node4" onclick="toggleChildren('children_node1_70967');">
<title>Node5_2_1c</title>
<polygon fill="#87ceeb" stroke="#87ceeb" points="153.5,-210 40.5,-210 40.5,-174 153.5,-174 153.5,-210"/>
<text text-anchor="middle" x="97" y="-188.3" font-family="Times,serif" font-size="14.00">विपरीत&#45;समानयोः(5)</text>
</g>
<!-- Node1_1 -->
<g id="node8" class="node">
<title>Node1_1</title>
<polygon fill="#ff1975" stroke="#ff1975" points="229.5,-297 172.5,-297 172.5,-261 229.5,-261 229.5,-297"/>
<text text-anchor="middle" x="201" y="-275.3" font-family="Times,serif" font-size="14.00">कुर्वते(1)</text>
</g>
<!-- Node5_2_1c&#45;&gt;Node1_1 -->
<g id="edge5" class="edge">
<title>Node5_2_1c&#45;&gt;Node1_1</title>
<path fill="none" stroke="black" d="M116.15,-217.88C123.4,-226.41 132.07,-235.65 141,-243 150.5,-250.82 161.95,-257.96 172.3,-263.73"/>
<polygon fill="black" stroke="black" points="118.73,-215.5 109.67,-210 113.32,-219.95 118.73,-215.5"/>
<text text-anchor="middle" x="169" y="-231.8" font-family="Times,serif" font-size="14.00">षष्ठीसम्बन्धः</text>
</g>
<!-- Node6_1 -->
<g id="node5" class="node">
<title>Node6_1</title>
<polygon fill="#00bfff" stroke="#00bfff" points="690,-123 634,-123 634,-87 690,-87 690,-123"/>
<text text-anchor="middle" x="662" y="-101.3" font-family="Times,serif" font-size="14.00">वृद्धाः(6)</text>
</g>
<!-- Node11_1 -->
<g id="node6" class="node">
<title>Node11_1</title>
<polygon fill="#00bfff" stroke="#00bfff" points="624.5,-210 551.5,-210 551.5,-174 624.5,-174 624.5,-210"/>
<text text-anchor="middle" x="588" y="-188.3" font-family="Times,serif" font-size="14.00">अबुधाः(11)</text>
</g>
<!-- Node6_1&#45;&gt;Node11_1 -->
<g id="edge9" class="edge">
<title>Node6_1&#45;&gt;Node11_1</title>
<path fill="none" stroke="black" d="M641.8,-131.33C635.27,-139.32 627.93,-148.12 621,-156 615.82,-161.89 609.99,-168.18 604.69,-173.77"/>
<polygon fill="black" stroke="black" points="644.67,-133.34 648.25,-123.37 639.23,-128.94 644.67,-133.34"/>
<text text-anchor="middle" x="656.5" y="-144.8" font-family="Times,serif" font-size="14.00">विशेषणम्</text>
</g>
<!-- Node10_1 -->
<g id="node11" class="node">
<title>Node10_1</title>
<polygon fill="#ff1975" stroke="#ff1975" points="514,-297 432,-297 432,-261 514,-261 514,-297"/>
<text text-anchor="middle" x="473" y="-275.3" font-family="Times,serif" font-size="14.00">लक्षयन्ति(10)</text>
</g>
<!-- Node11_1&#45;&gt;Node10_1 -->
<g id="edge13" class="edge">
<title>Node11_1&#45;&gt;Node10_1</title>
<path fill="none" stroke="black" d="M563.64,-217.17C554.41,-225.78 543.57,-235.25 533,-243 524.35,-249.35 514.46,-255.51 505.24,-260.85"/>
<polygon fill="black" stroke="black" points="566.13,-219.63 570.97,-210.2 561.31,-214.55 566.13,-219.63"/>
<text text-anchor="middle" x="561" y="-231.8" font-family="Times,serif" font-size="14.00">कर्ता</text>
</g>
<!-- Node7_1 -->
<g id="node7" class="node">
<title>Node7_1</title>
<polygon fill="#00bfff" stroke="#00bfff" points="615.5,-123 550.5,-123 550.5,-87 615.5,-87 615.5,-123"/>
<text text-anchor="middle" x="583" y="-101.3" font-family="Times,serif" font-size="14.00">क्षीणाः(7)</text>
</g>
<!-- Node7_1&#45;&gt;Node11_1 -->
<g id="edge10" class="edge">
<title>Node7_1&#45;&gt;Node11_1</title>
<path fill="none" stroke="black" d="M574.45,-133.1C573.11,-140.53 572.57,-148.58 574,-156 575.16,-162.04 577.36,-168.36 579.67,-173.95"/>
<polygon fill="black" stroke="black" points="577.91,-133.68 576.77,-123.14 571.09,-132.09 577.91,-133.68"/>
<text text-anchor="middle" x="597.5" y="-144.8" font-family="Times,serif" font-size="14.00">विशेषणम्</text>
</g>
<!-- Node4_1 -->
<g id="node9" class="node">
<title>Node4_1</title>
<polygon fill="#00bfff" stroke="#00bfff" points="230,-210 172,-210 172,-174 230,-174 230,-210"/>
<text text-anchor="middle" x="201" y="-188.3" font-family="Times,serif" font-size="14.00">दोषाः(4)</text>
</g>
<!-- Node4_1&#45;&gt;Node1_1 -->
<g id="edge8" class="edge">
<title>Node4_1&#45;&gt;Node1_1</title>
<path fill="none" stroke="black" d="M201,-220.27C201,-233.58 201,-249.19 201,-260.82"/>
<polygon fill="black" stroke="black" points="204.5,-220.2 201,-210.2 197.5,-220.2 204.5,-220.2"/>
<text text-anchor="middle" x="212" y="-231.8" font-family="Times,serif" font-size="14.00">कर्ता</text>
</g>
<!-- Node2_1 -->
<g id="node10" class="node">
<title>Node2_1</title>
<polygon fill="#ff99ff" stroke="#ff99ff" points="374,-210 320,-210 320,-174 374,-174 374,-210"/>
<text text-anchor="middle" x="347" y="-188.3" font-family="Times,serif" font-size="14.00">हि(2)</text>
</g>
<!-- Node2_1&#45;&gt;Node10_1 -->
<g id="edge6" class="edge">
<title>Node2_1&#45;&gt;Node10_1</title>
<path fill="none" stroke="black" d="M357.97,-219.59C362.51,-228.01 368.5,-236.74 376,-243 391.8,-256.2 412.98,-264.6 431.52,-269.85"/>
<polygon fill="black" stroke="black" points="360.99,-217.81 353.45,-210.37 354.71,-220.89 360.99,-217.81"/>
<text text-anchor="middle" x="411" y="-231.8" font-family="Times,serif" font-size="14.00">कारण_द्योतकः</text>
</g>
<!-- Node3_1 -->
<g id="node12" class="node">
<title>Node3_1</title>
<polygon fill="#93db70" stroke="#93db70" points="302,-210 248,-210 248,-174 302,-174 302,-210"/>
<text text-anchor="middle" x="275" y="-188.3" font-family="Times,serif" font-size="14.00">रुचिं(3)</text>
</g>
<!-- Node3_1&#45;&gt;Node1_1 -->
<g id="edge7" class="edge">
<title>Node3_1&#45;&gt;Node1_1</title>
<path fill="none" stroke="black" d="M253.31,-217.92C241.3,-231.71 226.68,-248.5 215.95,-260.82"/>
<polygon fill="black" stroke="black" points="256.1,-220.04 260.02,-210.2 250.82,-215.45 256.1,-220.04"/>
<text text-anchor="middle" x="252" y="-231.8" font-family="Times,serif" font-size="14.00">कर्म</text>
</g>
<!-- Node8_1 -->
<g id="node13" class="node">
<title>Node8_1</title>
<polygon fill="#ff99ff" stroke="#ff99ff" points="610,-36 556,-36 556,0 610,0 610,-36"/>
<text text-anchor="middle" x="583" y="-14.3" font-family="Times,serif" font-size="14.00">च(8)</text>
</g>
<!-- Node8_1&#45;&gt;Node7_1 -->
<g id="edge11" class="edge">
<title>Node8_1&#45;&gt;Node7_1</title>
<path fill="none" stroke="black" d="M583,-46.27C583,-59.58 583,-75.19 583,-86.82"/>
<polygon fill="black" stroke="black" points="586.5,-46.2 583,-36.2 579.5,-46.2 586.5,-46.2"/>
<text text-anchor="middle" x="622.5" y="-57.8" font-family="Times,serif" font-size="14.00">समुच्चय_द्योतकः</text>
</g>
<!-- Node9_1 -->
<g id="node14" class="node">
<title>Node9_1</title>
<polygon fill="#93db70" stroke="#93db70" points="461,-210 401,-210 401,-174 461,-174 461,-210"/>
<text text-anchor="middle" x="431" y="-188.3" font-family="Times,serif" font-size="14.00">भूयिष्ठं(9)</text>
</g>
<!-- Node9_1&#45;&gt;Node10_1 -->
<g id="edge12" class="edge">
<title>Node9_1&#45;&gt;Node10_1</title>
<path fill="none" stroke="black" d="M444.08,-219.48C450.75,-232.96 458.65,-248.96 464.51,-260.82"/>
<polygon fill="black" stroke="black" points="447.07,-217.62 439.5,-210.2 440.79,-220.72 447.07,-217.62"/>
<text text-anchor="middle" x="464" y="-231.8" font-family="Times,serif" font-size="14.00">कर्म</text>
</g>
<!-- Node12_1 -->
<g id="node15" class="node">
<title>Node12_1</title>
<polygon fill="#ff99ff" stroke="#ff99ff" points="533,-210 479,-210 479,-174 533,-174 533,-210"/>
<text text-anchor="middle" x="506" y="-188.3" font-family="Times,serif" font-size="14.00">तु(12)</text>
</g>
<!-- Node12_1&#45;&gt;Node10_1 -->
<g id="edge14" class="edge">
<title>Node12_1&#45;&gt;Node10_1</title>
<path fill="none" stroke="black" d="M495.57,-219.87C490.37,-233.27 484.23,-249.08 479.67,-260.82"/>
<polygon fill="black" stroke="black" points="498.97,-220.79 499.32,-210.2 492.44,-218.26 498.97,-220.79"/>
<text text-anchor="middle" x="510.5" y="-231.8" font-family="Times,serif" font-size="14.00">सम्बन्धः</text>
</g>
</g>
</svg>
