<?xml version="1.0" encoding="UTF-8" standalone="no"?>
<!DOCTYPE svg PUBLIC "-//W3C//DTD SVG 1.1//EN"
 "http://www.w3.org/Graphics/SVG/1.1/DTD/svg11.dtd">
<!-- Generated by graphviz version 2.50.0 (20211204.2007)
 -->
<!-- Title: G Pages: 1 -->
<svg width="469pt" height="234pt"
 viewBox="0.00 0.00 469.40 234.00" xmlns="http://www.w3.org/2000/svg" xmlns:xlink="http://www.w3.org/1999/xlink">
<g id="graph0" class="graph" transform="scale(1 1) rotate(0) translate(4 230)">
<title>G</title>
<polygon fill="#fffacd" stroke="transparent" points="-4,4 -4,-230 465.4,-230 465.4,4 -4,4"/>
<g id="clust1" class="cluster">
<title>cluster_1</title>
<polygon fill="#fffacd" stroke="black" points="8,-8 8,-147 229,-147 229,-8 8,-8"/>
</g>
<!-- Node3_1 -->
<g id="node1" class="node">
<title>Node3_1</title>
<ellipse fill="#00bfff" stroke="#00bfff" cx="168" cy="-34" rx="53.09" ry="18"/>
<text text-anchor="middle" x="168" y="-30.3" font-family="Times,serif" font-size="14.00">सौषिर्यम्(3.1)</text>
</g>
<!-- Node5_2 -->
<g id="node2" class="node">
<title>Node5_2</title>
<ellipse fill="#00bfff" stroke="#00bfff" cx="172" cy="-121" rx="48.19" ry="18"/>
<text text-anchor="middle" x="172" y="-117.3" font-family="Times,serif" font-size="14.00">दर्शनम्(5.2)</text>
</g>
<!-- Node3_1&#45;&gt;Node5_2 -->
<g id="edge3" class="edge">
<title>Node3_1&#45;&gt;Node5_2</title>
<path fill="none" stroke="black" d="M169.28,-62.27C169.91,-75.58 170.64,-91.19 171.19,-102.82"/>
<polygon fill="black" stroke="black" points="172.78,-62.03 168.81,-52.2 165.78,-62.35 172.78,-62.03"/>
<text text-anchor="middle" x="193.5" y="-73.8" font-family="Times,serif" font-size="14.00">समुच्चितः</text>
</g>
<!-- Node7_1 -->
<g id="node5" class="node">
<title>Node7_1</title>
<ellipse fill="#ff1975" stroke="#ff1975" cx="291" cy="-208" rx="50.89" ry="18"/>
<text text-anchor="middle" x="291" y="-204.3" font-family="Times,serif" font-size="14.00">(भवति)(7.1)</text>
</g>
<!-- Node5_2&#45;&gt;Node7_1 -->
<g id="edge6" class="edge">
<title>Node5_2&#45;&gt;Node7_1</title>
<path fill="none" stroke="black" d="M193.62,-146.06C202.24,-154.85 212.58,-164.48 223,-172 234.41,-180.24 248.03,-187.66 260.07,-193.52"/>
<polygon fill="black" stroke="black" points="195.96,-143.44 186.53,-138.62 190.9,-148.27 195.96,-143.44"/>
<text text-anchor="middle" x="255" y="-160.8" font-family="Times,serif" font-size="14.00">कर्ता_बे_वेर्ब्स्</text>
</g>
<!-- Node4_1 -->
<g id="node3" class="node">
<title>Node4_1</title>
<ellipse fill="#00bfff" stroke="#00bfff" cx="56" cy="-34" rx="40.09" ry="18"/>
<text text-anchor="middle" x="56" y="-30.3" font-family="Times,serif" font-size="14.00">भ्रमः(4.1)</text>
</g>
<!-- Node4_1&#45;&gt;Node5_2 -->
<g id="edge4" class="edge">
<title>Node4_1&#45;&gt;Node5_2</title>
<path fill="none" stroke="black" d="M82.87,-56.19C94.49,-65.22 108.3,-75.77 121,-85 130.21,-91.69 140.53,-98.84 149.47,-104.93"/>
<polygon fill="black" stroke="black" points="84.89,-53.33 74.85,-49.93 80.58,-58.84 84.89,-53.33"/>
<text text-anchor="middle" x="143.5" y="-73.8" font-family="Times,serif" font-size="14.00">समुच्चितः</text>
</g>
<!-- Node1_1 -->
<g id="node4" class="node">
<title>Node1_1</title>
<ellipse fill="#87ceeb" stroke="#87ceeb" cx="291" cy="-121" rx="53.09" ry="18"/>
<text text-anchor="middle" x="291" y="-117.3" font-family="Times,serif" font-size="14.00">अस्थ्नाम्(1.1)</text>
</g>
<!-- Node1_1&#45;&gt;Node7_1 -->
<g id="edge1" class="edge">
<title>Node1_1&#45;&gt;Node7_1</title>
<path fill="none" stroke="black" d="M291,-149.27C291,-162.58 291,-178.19 291,-189.82"/>
<polygon fill="black" stroke="black" points="294.5,-149.2 291,-139.2 287.5,-149.2 294.5,-149.2"/>
<text text-anchor="middle" x="319" y="-160.8" font-family="Times,serif" font-size="14.00">षष्ठीसम्बन्धः</text>
</g>
<!-- Node2_1 -->
<g id="node6" class="node">
<title>Node2_1</title>
<ellipse fill="#c6e2eb" stroke="#c6e2eb" cx="412" cy="-121" rx="49.29" ry="18"/>
<text text-anchor="middle" x="412" y="-117.3" font-family="Times,serif" font-size="14.00">मज्जनि(2.1)</text>
</g>
<!-- Node2_1&#45;&gt;Node7_1 -->
<g id="edge2" class="edge">
<title>Node2_1&#45;&gt;Node7_1</title>
<path fill="none" stroke="black" d="M386.46,-144.45C375.8,-153.42 363.1,-163.59 351,-172 340.5,-179.3 328.41,-186.55 317.85,-192.55"/>
<polygon fill="black" stroke="black" points="388.83,-147.03 394.17,-137.88 384.29,-141.7 388.83,-147.03"/>
<text text-anchor="middle" x="397.5" y="-160.8" font-family="Times,serif" font-size="14.00">अधिकरणम्</text>
</g>
<!-- Node5_1 -->
<g id="node7" class="node">
<title>Node5_1</title>
<ellipse fill="#ffff00" stroke="#ffff00" cx="287" cy="-34" rx="48.19" ry="18"/>
<text text-anchor="middle" x="287" y="-30.3" font-family="Times,serif" font-size="14.00">तिमिर&#45;(5.1)</text>
</g>
<!-- Node5_1&#45;&gt;Node5_2 -->
<g id="edge5" class="edge">
<title>Node5_1&#45;&gt;Node5_2</title>
<path fill="none" stroke="black" d="M258.3,-56.52C246.47,-65.37 232.59,-75.71 220,-85 211.2,-91.49 201.46,-98.61 193.07,-104.72"/>
<polygon fill="black" stroke="black" points="260.61,-59.17 266.52,-50.38 256.41,-53.57 260.61,-59.17"/>
<text text-anchor="middle" x="269.5" y="-73.8" font-family="Times,serif" font-size="14.00">षष्ठी&#45;तत्पुरुषः</text>
</g>
<!-- Node6_1 -->
<g id="node8" class="node">
<title>Node6_1</title>
<ellipse fill="#ff99ff" stroke="#ff99ff" cx="393" cy="-34" rx="39.79" ry="18"/>
<text text-anchor="middle" x="393" y="-30.3" font-family="Times,serif" font-size="14.00">(च)(6.1)</text>
</g>
<!-- Node6_1&#45;&gt;Node5_2 -->
<g id="edge7" class="edge">
<title>Node6_1&#45;&gt;Node5_2</title>
<path fill="none" stroke="black" d="M362.75,-54.76C345.99,-64.99 324.46,-76.98 304,-85 272.09,-97.51 262.1,-94.1 229,-103 222.22,-104.82 215.02,-106.88 208.1,-108.91"/>
<polygon fill="black" stroke="black" points="364.88,-57.56 371.53,-49.3 361.19,-51.61 364.88,-57.56"/>
<text text-anchor="middle" x="373.5" y="-73.8" font-family="Times,serif" font-size="14.00">समुच्चय_द्योतकः</text>
</g>
</g>
</svg>
