<?xml version="1.0" encoding="UTF-8" standalone="no"?>
<!DOCTYPE svg PUBLIC "-//W3C//DTD SVG 1.1//EN"
 "http://www.w3.org/Graphics/SVG/1.1/DTD/svg11.dtd">
<!-- Generated by graphviz version 2.50.0 (20211204.2007)
 -->
<!-- Title: G Pages: 1 -->
<svg width="563pt" height="234pt"
 viewBox="0.00 0.00 562.65 234.00" xmlns="http://www.w3.org/2000/svg" xmlns:xlink="http://www.w3.org/1999/xlink">
<g id="graph0" class="graph" transform="scale(1 1) rotate(0) translate(4 230)">
<title>G</title>
<polygon fill="#fffacd" stroke="transparent" points="-4,4 -4,-230 558.65,-230 558.65,4 -4,4"/>
<g id="clust1" class="cluster">
<title>cluster_1</title>
<polygon fill="#fffacd" stroke="black" points="8,-8 8,-147 351,-147 351,-8 8,-8"/>
</g>
<!-- Node4_1 -->
<g id="node1" class="node">
<title>Node4_1</title>
<ellipse fill="#00bfff" stroke="#00bfff" cx="297" cy="-34" rx="46.29" ry="18"/>
<text text-anchor="middle" x="297" y="-30.3" font-family="Times,serif" font-size="14.00">प्लीहः(4.1)</text>
</g>
<!-- Node2_1 -->
<g id="node2" class="node">
<title>Node2_1</title>
<ellipse fill="#00bfff" stroke="#00bfff" cx="297" cy="-121" rx="45.49" ry="18"/>
<text text-anchor="middle" x="297" y="-117.3" font-family="Times,serif" font-size="14.00">स्वपनं(2.1)</text>
</g>
<!-- Node4_1&#45;&gt;Node2_1 -->
<g id="edge4" class="edge">
<title>Node4_1&#45;&gt;Node2_1</title>
<path fill="none" stroke="black" d="M297,-62.27C297,-75.58 297,-91.19 297,-102.82"/>
<polygon fill="black" stroke="black" points="300.5,-62.2 297,-52.2 293.5,-62.2 300.5,-62.2"/>
<text text-anchor="middle" x="319.5" y="-73.8" font-family="Times,serif" font-size="14.00">समुच्चितः</text>
</g>
<!-- Node7_1 -->
<g id="node6" class="node">
<title>Node7_1</title>
<ellipse fill="#ff1975" stroke="#ff1975" cx="351" cy="-208" rx="50.89" ry="18"/>
<text text-anchor="middle" x="351" y="-204.3" font-family="Times,serif" font-size="14.00">(भवति)(7.1)</text>
</g>
<!-- Node2_1&#45;&gt;Node7_1 -->
<g id="edge2" class="edge">
<title>Node2_1&#45;&gt;Node7_1</title>
<path fill="none" stroke="black" d="M299.62,-149.38C301.24,-157.1 303.83,-165.24 308,-172 312.75,-179.7 319.8,-186.47 326.84,-191.95"/>
<polygon fill="black" stroke="black" points="303.03,-148.57 297.97,-139.26 296.13,-149.7 303.03,-148.57"/>
<text text-anchor="middle" x="340" y="-160.8" font-family="Times,serif" font-size="14.00">कर्ता_बे_वेर्ब्स्</text>
</g>
<!-- Node5_1 -->
<g id="node3" class="node">
<title>Node5_1</title>
<ellipse fill="#00bfff" stroke="#00bfff" cx="189" cy="-34" rx="43.59" ry="18"/>
<text text-anchor="middle" x="189" y="-30.3" font-family="Times,serif" font-size="14.00">वृद्धिः(5.1)</text>
</g>
<!-- Node5_1&#45;&gt;Node2_1 -->
<g id="edge5" class="edge">
<title>Node5_1&#45;&gt;Node2_1</title>
<path fill="none" stroke="black" d="M214.31,-57.25C224.61,-66.08 236.72,-76.21 248,-85 256.74,-91.81 266.65,-98.98 275.25,-105.05"/>
<polygon fill="black" stroke="black" points="216.35,-54.38 206.5,-50.49 211.77,-59.68 216.35,-54.38"/>
<text text-anchor="middle" x="270.5" y="-73.8" font-family="Times,serif" font-size="14.00">समुच्चितः</text>
</g>
<!-- Node6_1 -->
<g id="node4" class="node">
<title>Node6_1</title>
<ellipse fill="#00bfff" stroke="#00bfff" cx="72" cy="-34" rx="55.79" ry="18"/>
<text text-anchor="middle" x="72" y="-30.3" font-family="Times,serif" font-size="14.00">कृशाङ्गता(6.1)</text>
</g>
<!-- Node6_1&#45;&gt;Node2_1 -->
<g id="edge6" class="edge">
<title>Node6_1&#45;&gt;Node2_1</title>
<path fill="none" stroke="black" d="M109.79,-53.89C130.52,-63.85 156.85,-75.87 181,-85 207.07,-94.86 237.23,-103.89 260.26,-110.31"/>
<polygon fill="black" stroke="black" points="111.21,-50.69 100.69,-49.47 108.16,-56.98 111.21,-50.69"/>
<text text-anchor="middle" x="203.5" y="-73.8" font-family="Times,serif" font-size="14.00">समुच्चितः</text>
</g>
<!-- Node1_1 -->
<g id="node5" class="node">
<title>Node1_1</title>
<ellipse fill="#c6e2eb" stroke="#c6e2eb" cx="405" cy="-121" rx="44.69" ry="18"/>
<text text-anchor="middle" x="405" y="-117.3" font-family="Times,serif" font-size="14.00">मेदसि(1.1)</text>
</g>
<!-- Node1_1&#45;&gt;Node7_1 -->
<g id="edge1" class="edge">
<title>Node1_1&#45;&gt;Node7_1</title>
<path fill="none" stroke="black" d="M390.71,-147.72C386.16,-155.6 381,-164.24 376,-172 372.03,-178.15 367.44,-184.72 363.28,-190.49"/>
<polygon fill="black" stroke="black" points="393.82,-149.33 395.72,-138.9 387.73,-145.86 393.82,-149.33"/>
<text text-anchor="middle" x="412.5" y="-160.8" font-family="Times,serif" font-size="14.00">अधिकरणम्</text>
</g>
<!-- Node3_1 -->
<g id="node7" class="node">
<title>Node3_1</title>
<ellipse fill="#87ceeb" stroke="#87ceeb" cx="409" cy="-34" rx="48.19" ry="18"/>
<text text-anchor="middle" x="409" y="-30.3" font-family="Times,serif" font-size="14.00">कट्याः(3.1)</text>
</g>
<!-- Node3_1&#45;&gt;Node2_1 -->
<g id="edge3" class="edge">
<title>Node3_1&#45;&gt;Node2_1</title>
<path fill="none" stroke="black" d="M381.88,-57.02C370.85,-65.84 357.91,-76.03 346,-85 337.15,-91.67 327.23,-98.81 318.64,-104.9"/>
<polygon fill="black" stroke="black" points="384.29,-59.57 389.9,-50.57 379.91,-54.11 384.29,-59.57"/>
<text text-anchor="middle" x="393" y="-73.8" font-family="Times,serif" font-size="14.00">षष्ठीसम्बन्धः</text>
</g>
<!-- Node7_2 -->
<g id="node8" class="node">
<title>Node7_2</title>
<ellipse fill="#ff99ff" stroke="#ff99ff" cx="515" cy="-34" rx="39.79" ry="18"/>
<text text-anchor="middle" x="515" y="-30.3" font-family="Times,serif" font-size="14.00">(च)(7.2)</text>
</g>
<!-- Node7_2&#45;&gt;Node2_1 -->
<g id="edge7" class="edge">
<title>Node7_2&#45;&gt;Node2_1</title>
<path fill="none" stroke="black" d="M484.37,-54.72C467.41,-64.94 445.65,-76.92 425,-85 393.48,-97.33 383.61,-93.91 351,-103 344.47,-104.82 337.53,-106.89 330.89,-108.95"/>
<polygon fill="black" stroke="black" points="486.56,-57.48 493.25,-49.27 482.9,-51.52 486.56,-57.48"/>
<text text-anchor="middle" x="494.5" y="-73.8" font-family="Times,serif" font-size="14.00">समुच्चय_द्योतकः</text>
</g>
</g>
</svg>
