<svg width="267pt" height="305pt"
 viewBox="0.00 0.00 267.00 305.00" xmlns="http://www.w3.org/2000/svg" xmlns:xlink="http://www.w3.org/1999/xlink">
<g id="graph0" class="graph" transform="scale(1 1) rotate(0) translate(4 301)">
<title>G</title>
<polygon fill="#fffacd" stroke="transparent" points="-4,4 -4,-301 263,-301 263,4 -4,4"/>
<g id="clust1" class="cluster">
<title>cluster_1</title>
<polygon fill="#fffacd" stroke="black" points="159,-79 159,-218 251,-218 251,-79 159,-79"/>
</g>
<!-- Node5_1 -->
<style>
 .hidden { display: none; }
 .node { cursor: pointer; }
 </style>
<script>
     function toggleChildren(id) {
      const children = document.getElementById(id);
      if (children.classList.contains('hidden')) {
        children.classList.remove('hidden');
      } else {
        children.classList.add('hidden');
      }
    }
</script>

<g id="node1" class="node">
<title>Node5_1</title>
<polygon fill="#00bfff" stroke="#00bfff" points="242.5,-123 167.5,-123 167.5,-87 242.5,-87 242.5,-123"/>
<text text-anchor="middle" x="205" y="-101.3" font-family="Times,serif" font-size="14.00">शोणितम्(5)</text>
</g>
<!-- Node4_1 -->
<g id="node2" class="node">
<title>Node4_1</title>
<polygon fill="#00bfff" stroke="#00bfff" points="230.5,-210 171.5,-210 171.5,-174 230.5,-174 230.5,-210"/>
<text text-anchor="middle" x="201" y="-188.3" font-family="Times,serif" font-size="14.00">शुक्रम्(4)</text>
</g>
<!-- Node5_1&#45;&gt;Node4_1 -->
<g id="edge4" class="edge">
<title>Node5_1&#45;&gt;Node4_1</title>
<path fill="none" stroke="black" d="M203.72,-133.27C203.09,-146.58 202.36,-162.19 201.81,-173.82"/>
<polygon fill="black" stroke="black" points="207.22,-133.35 204.19,-123.2 200.22,-133.03 207.22,-133.35"/>
<text text-anchor="middle" x="221.5" y="-144.8" font-family="Times,serif" font-size="14.00">अन्यतरः</text>
</g>
<!-- Node3_1 -->
<g id="node4" class="node">
<title>Node3_1</title>
<polygon fill="#ff1975" stroke="#ff1975" points="142,-297 68,-297 68,-261 142,-261 142,-297"/>
<text text-anchor="middle" x="105" y="-275.3" font-family="Times,serif" font-size="14.00">प्रसिच्येत(3)</text>
</g>
<!-- Node4_1&#45;&gt;Node3_1 -->
<g id="edge3" class="edge">
<title>Node4_1&#45;&gt;Node3_1</title>
<path fill="none" stroke="black" d="M193.43,-219.45C190.06,-227.76 185.37,-236.45 179,-243 168.89,-253.39 155.09,-261.06 142.14,-266.52"/>
<polygon fill="black" stroke="black" points="196.73,-220.63 196.81,-210.04 190.14,-218.27 196.73,-220.63"/>
<text text-anchor="middle" x="200" y="-231.8" font-family="Times,serif" font-size="14.00">कर्ता</text>
</g>
<!-- Node1_1 -->
<g id="node3" class="node">
<title>Node1_1</title>
<polygon fill="#c6e2eb" stroke="#c6e2eb" points="54,-210 0,-210 0,-174 54,-174 54,-210"/>
<text text-anchor="middle" x="27" y="-188.3" font-family="Times,serif" font-size="14.00">शुक्रे(1)</text>
</g>
<!-- Node1_1&#45;&gt;Node3_1 -->
<g id="edge1" class="edge">
<title>Node1_1&#45;&gt;Node3_1</title>
<path fill="none" stroke="black" d="M33.56,-220.01C36.43,-228.02 40.45,-236.4 46,-243 51.98,-250.11 59.79,-256.14 67.77,-261.08"/>
<polygon fill="black" stroke="black" points="36.82,-218.73 30.5,-210.23 30.14,-220.81 36.82,-218.73"/>
<text text-anchor="middle" x="73.5" y="-231.8" font-family="Times,serif" font-size="14.00">अधिकरणम्</text>
</g>
<!-- Node2_1 -->
<g id="node5" class="node">
<title>Node2_1</title>
<polygon fill="#ff99ff" stroke="#ff99ff" points="135.5,-210 74.5,-210 74.5,-174 135.5,-174 135.5,-210"/>
<text text-anchor="middle" x="105" y="-188.3" font-family="Times,serif" font-size="14.00">चिरात्(2)</text>
</g>
<!-- Node2_1&#45;&gt;Node3_1 -->
<g id="edge2" class="edge">
<title>Node2_1&#45;&gt;Node3_1</title>
<path fill="none" stroke="black" d="M105,-220.27C105,-233.58 105,-249.19 105,-260.82"/>
<polygon fill="black" stroke="black" points="108.5,-220.2 105,-210.2 101.5,-220.2 108.5,-220.2"/>
<text text-anchor="middle" x="141.5" y="-231.8" font-family="Times,serif" font-size="14.00">क्रियाविशेषणम्</text>
</g>
<!-- Node6_1 -->
<g id="node6" class="node">
<title>Node6_1</title>
<polygon fill="#ff99ff" stroke="#ff99ff" points="232,-36 178,-36 178,0 232,0 232,-36"/>
<text text-anchor="middle" x="205" y="-14.3" font-family="Times,serif" font-size="14.00">एव(6)</text>
</g>
<!-- Node6_1&#45;&gt;Node5_1 -->
<g id="edge5" class="edge">
<title>Node6_1&#45;&gt;Node5_1</title>
<path fill="none" stroke="black" d="M205,-46.27C205,-59.58 205,-75.19 205,-86.82"/>
<polygon fill="black" stroke="black" points="208.5,-46.2 205,-36.2 201.5,-46.2 208.5,-46.2"/>
<text text-anchor="middle" x="223.5" y="-57.8" font-family="Times,serif" font-size="14.00">सम्बन्धः</text>
</g>
<!-- Node7_1 -->
<g id="node7" class="node">
<title>Node7_1</title>
<polygon fill="#ff99ff" stroke="#ff99ff" points="135,-123 81,-123 81,-87 135,-87 135,-123"/>
<text text-anchor="middle" x="108" y="-101.3" font-family="Times,serif" font-size="14.00">वा(7)</text>
</g>
<!-- Node7_1&#45;&gt;Node4_1 -->
<g id="edge6" class="edge">
<title>Node7_1&#45;&gt;Node4_1</title>
<path fill="none" stroke="black" d="M112.26,-132.98C114.62,-141.12 118.29,-149.58 124,-156 136.39,-169.93 155.44,-178.66 171.49,-183.91"/>
<polygon fill="black" stroke="black" points="115.61,-131.96 109.91,-123.03 108.8,-133.56 115.61,-131.96"/>
<text text-anchor="middle" x="161" y="-144.8" font-family="Times,serif" font-size="14.00">अन्यतर_द्योतकः</text>
</g>
</g>
</svg>
