<?xml version="1.0" encoding="UTF-8" standalone="no"?>
<!DOCTYPE svg PUBLIC "-//W3C//DTD SVG 1.1//EN"
 "http://www.w3.org/Graphics/SVG/1.1/DTD/svg11.dtd">
<!-- Generated by graphviz version 2.50.0 (20211204.2007)
 -->
<!-- Title: G Pages: 1 -->
<svg width="454pt" height="305pt"
 viewBox="0.00 0.00 454.49 305.00" xmlns="http://www.w3.org/2000/svg" xmlns:xlink="http://www.w3.org/1999/xlink">
<g id="graph0" class="graph" transform="scale(1 1) rotate(0) translate(4 301)">
<title>G</title>
<polygon fill="#fffacd" stroke="transparent" points="-4,4 -4,-301 450.49,-301 450.49,4 -4,4"/>
<!-- Node1_1 -->
<g id="node1" class="node">
<title>Node1_1</title>
<ellipse fill="#ffff00" stroke="#ffff00" cx="392.55" cy="-105" rx="53.89" ry="18"/>
<text text-anchor="middle" x="392.55" y="-101.3" font-family="Times,serif" font-size="14.00">व्यायाम&#45;(1.1)</text>
</g>
<!-- Node1_4 -->
<g id="node2" class="node">
<title>Node1_4</title>
<ellipse fill="#40e0d0" stroke="#40e0d0" cx="239.55" cy="-192" rx="40.89" ry="18"/>
<text text-anchor="middle" x="239.55" y="-188.3" font-family="Times,serif" font-size="14.00">मद्यैः(1.4)</text>
</g>
<!-- Node1_1&#45;&gt;Node1_4 -->
<g id="edge1" class="edge">
<title>Node1_1&#45;&gt;Node1_4</title>
<path fill="none" stroke="black" d="M364.65,-128.09C352.18,-137.38 337.06,-147.89 322.55,-156 305.89,-165.31 286.26,-173.69 270.27,-179.92"/>
<polygon fill="black" stroke="black" points="366.96,-130.73 372.81,-121.9 362.73,-125.15 366.96,-130.73"/>
<text text-anchor="middle" x="373.55" y="-144.8" font-family="Times,serif" font-size="14.00">इतरेतर&#45;द्वन्द्वः</text>
</g>
<!-- Node3_1 -->
<g id="node5" class="node">
<title>Node3_1</title>
<ellipse fill="#ff1975" stroke="#ff1975" cx="159.55" cy="-279" rx="59.29" ry="18"/>
<text text-anchor="middle" x="159.55" y="-275.3" font-family="Times,serif" font-size="14.00">(उपक्रमेत)(3.1)</text>
</g>
<!-- Node1_4&#45;&gt;Node3_1 -->
<g id="edge4" class="edge">
<title>Node1_4&#45;&gt;Node3_1</title>
<path fill="none" stroke="black" d="M217.43,-216.5C203.97,-230.8 187.12,-248.71 175.07,-261.5"/>
<polygon fill="black" stroke="black" points="220.19,-218.67 224.5,-208.99 215.1,-213.87 220.19,-218.67"/>
<text text-anchor="middle" x="221.05" y="-231.8" font-family="Times,serif" font-size="14.00">करणम्</text>
</g>
<!-- Node1_2 -->
<g id="node3" class="node">
<title>Node1_2</title>
<ellipse fill="#ffff00" stroke="#ffff00" cx="160.55" cy="-105" rx="55.79" ry="18"/>
<text text-anchor="middle" x="160.55" y="-101.3" font-family="Times,serif" font-size="14.00">अभ्यञ्जन&#45;(1.2)</text>
</g>
<!-- Node1_2&#45;&gt;Node1_4 -->
<g id="edge2" class="edge">
<title>Node1_2&#45;&gt;Node1_4</title>
<path fill="none" stroke="black" d="M174.96,-131.39C180.26,-139.68 186.66,-148.64 193.55,-156 200.67,-163.62 209.6,-170.83 217.69,-176.7"/>
<polygon fill="black" stroke="black" points="177.88,-129.47 169.67,-122.77 171.92,-133.13 177.88,-129.47"/>
<text text-anchor="middle" x="222.55" y="-144.8" font-family="Times,serif" font-size="14.00">इतरेतर&#45;द्वन्द्वः</text>
</g>
<!-- Node1_3 -->
<g id="node4" class="node">
<title>Node1_3</title>
<ellipse fill="#ffff00" stroke="#ffff00" cx="277.55" cy="-105" rx="43.59" ry="18"/>
<text text-anchor="middle" x="277.55" y="-101.3" font-family="Times,serif" font-size="14.00">स्वेद&#45;(1.3)</text>
</g>
<!-- Node1_3&#45;&gt;Node1_4 -->
<g id="edge3" class="edge">
<title>Node1_3&#45;&gt;Node1_4</title>
<path fill="none" stroke="black" d="M265.83,-132.2C259.71,-145.9 252.4,-162.26 247.04,-174.24"/>
<polygon fill="black" stroke="black" points="269.15,-133.35 270.04,-122.79 262.76,-130.49 269.15,-133.35"/>
<text text-anchor="middle" x="289.55" y="-144.8" font-family="Times,serif" font-size="14.00">इतरेतर&#45;द्वन्द्वः</text>
</g>
<!-- Node2_1 -->
<g id="node6" class="node">
<title>Node2_1</title>
<ellipse fill="#ffff00" stroke="#ffff00" cx="43.55" cy="-18" rx="43.59" ry="18"/>
<text text-anchor="middle" x="43.55" y="-14.3" font-family="Times,serif" font-size="14.00">स्वेद&#45;(2.1)</text>
</g>
<!-- Node2_2 -->
<g id="node7" class="node">
<title>Node2_2</title>
<ellipse fill="#ffff00" stroke="#ffff00" cx="43.55" cy="-105" rx="42.79" ry="18"/>
<text text-anchor="middle" x="43.55" y="-101.3" font-family="Times,serif" font-size="14.00">क्षय&#45;(2.2)</text>
</g>
<!-- Node2_1&#45;&gt;Node2_2 -->
<g id="edge5" class="edge">
<title>Node2_1&#45;&gt;Node2_2</title>
<path fill="none" stroke="black" d="M43.55,-46.27C43.55,-59.58 43.55,-75.19 43.55,-86.82"/>
<polygon fill="black" stroke="black" points="47.05,-46.2 43.55,-36.2 40.05,-46.2 47.05,-46.2"/>
<text text-anchor="middle" x="74.05" y="-57.8" font-family="Times,serif" font-size="14.00">षष्ठी&#45;तत्पुरुषः</text>
</g>
<!-- Node2_3 -->
<g id="node8" class="node">
<title>Node2_3</title>
<ellipse fill="#93db70" stroke="#93db70" cx="105.55" cy="-192" rx="50.09" ry="18"/>
<text text-anchor="middle" x="105.55" y="-188.3" font-family="Times,serif" font-size="14.00">उद्भवान्(2.3)</text>
</g>
<!-- Node2_2&#45;&gt;Node2_3 -->
<g id="edge6" class="edge">
<title>Node2_2&#45;&gt;Node2_3</title>
<path fill="none" stroke="black" d="M54.58,-132.33C58.46,-140.28 63.2,-148.8 68.55,-156 73.6,-162.82 80.07,-169.44 86.18,-175.06"/>
<polygon fill="black" stroke="black" points="57.66,-130.66 50.29,-123.05 51.31,-133.6 57.66,-130.66"/>
<text text-anchor="middle" x="103.55" y="-144.8" font-family="Times,serif" font-size="14.00">पञ्चमी&#45;तत्पुरुषः</text>
</g>
<!-- Node2_3&#45;&gt;Node3_1 -->
<g id="edge7" class="edge">
<title>Node2_3&#45;&gt;Node3_1</title>
<path fill="none" stroke="black" d="M121.68,-218.4C130.49,-232.26 141.14,-249.03 148.9,-261.24"/>
<polygon fill="black" stroke="black" points="124.53,-216.36 116.21,-209.79 118.62,-220.11 124.53,-216.36"/>
<text text-anchor="middle" x="145.55" y="-231.8" font-family="Times,serif" font-size="14.00">कर्म</text>
</g>
</g>
</svg>
