<svg width="565pt" height="394pt"
 viewBox="0.00 0.00 565.00 394.00" xmlns="http://www.w3.org/2000/svg" xmlns:xlink="http://www.w3.org/1999/xlink">
<g id="graph0" class="graph" transform="scale(1 1) rotate(0) translate(4 390)">
<title>G</title>
<polygon fill="#fffacd" stroke="transparent" points="-4,4 -4,-390 561,-390 561,4 -4,4"/>
<g id="clust1" class="cluster">
<title>cluster_1</title>
<polygon fill="#fffacd" stroke="black" points="8,-152 8,-291 159,-291 159,-152 8,-152"/>
</g>
<g id="clust2" class="cluster">
<title>cluster_2</title>
<polygon fill="#fffacd" stroke="black" points="167,-152 167,-291 253,-291 253,-152 167,-152"/>
</g>
<g id="clust3" class="cluster">
<title>cluster_3</title>
<polygon fill="#fffacd" stroke="black" points="461,-65 461,-204 549,-204 549,-65 461,-65"/>
</g>
<g id="clust4" class="cluster">
<title>cluster_4</title>
<polygon fill="#fffacd" stroke="black" points="261,-239 261,-378 355,-378 355,-239 261,-239"/>
</g>
<!-- Node10_1 -->
<style>
 .hidden { display: none; }
 .node { cursor: pointer; }
 </style>
<script>
     function toggleChildren(id) {
      const children = document.getElementById(id);
      if (children.classList.contains('hidden')) {
        children.classList.remove('hidden');
      } else {
        children.classList.add('hidden');
      }
    }
</script>
<g id="children_node0_70871" class="hidden">
    <g class="node" onclick="toggleChildren('children_node0_70871');">
</g>
</g>
<g id="children_node1_70871" class="hidden">
    <g class="node" onclick="toggleChildren('children_node1_70871');">

<g id="node1" class="node">
<title>Node10_1</title>
<polygon fill="#ffff00" stroke="#ffff00" points="354,-36 300,-36 300,0 354,0 354,-36"/>
<text text-anchor="middle" x="327" y="-14.3" font-family="Times,serif" font-size="14.00">तत्&#45;</text>
</g>
<!-- Node10_2 -->
<g id="node2" class="node">
<title>Node10_2</title>
<polygon fill="#ffff00" stroke="#ffff00" points="444,-36 390,-36 390,0 444,0 444,-36"/>
<text text-anchor="middle" x="417" y="-14.3" font-family="Times,serif" font-size="14.00">विधम्</text>
</g>
<!-- Node10_1&#45;&gt;Node10_2 -->
<!-- Node10_2_1 -->
<g id="node3" class="node">
<title>Node10_2_1</title>
<polygon fill="#ffff00" stroke="#ffff00" points="451.5,-109 290.5,-109 290.5,-73 451.5,-73 451.5,-109"/>
<text text-anchor="middle" x="371" y="-87.3" font-family="Times,serif" font-size="14.00">&lt;तत्&#45;विधम्&gt;(तृतीया&#45;तत्पुरुषः)</text>
</g>
<!-- Node10_1&#45;&gt;Node10_2_1 -->
<g id="edge2" class="edge">
<title>Node10_1&#45;&gt;Node10_2_1</title>
<path fill="none" stroke="black" d="M342.98,-44.79C348.8,-54.17 355.22,-64.54 360.45,-72.97"/>
<polygon fill="black" stroke="black" points="345.89,-42.84 337.65,-36.19 339.94,-46.53 345.89,-42.84"/>
</g>
<!-- Node10_2&#45;&gt;Node10_2_1 -->
<g id="edge1" class="edge">
<title>Node10_2&#45;&gt;Node10_2_1</title>
<path fill="none" stroke="black" d="M400.29,-44.79C394.21,-54.17 387.5,-64.54 382.03,-72.97"/>
<polygon fill="black" stroke="black" points="403.36,-46.48 405.86,-36.19 397.49,-42.68 403.36,-46.48"/>
</g>
<!-- Node10_2_1&#45;&gt;Node10_2_1c -->
<g id="edge4" class="edge">
<title>Node10_2_1&#45;&gt;Node10_2_1c</title>
<path fill="none" stroke="black" d="M374.53,-119.27C376.25,-132.58 378.27,-148.19 379.78,-159.82"/>
<polygon fill="black" stroke="black" points="377.98,-118.67 373.23,-109.2 371.04,-119.57 377.98,-118.67"/>
</g>
</g>
</g>
<!-- Node10_2_1c -->
<g class="node4" onclick="toggleChildren('children_node1_70871');">
<title>Node10_2_1c</title>
<polygon fill="#93db70" stroke="#93db70" points="425,-196 339,-196 339,-160 425,-160 425,-196"/>
<text text-anchor="middle" x="382" y="-174.3" font-family="Times,serif" font-size="14.00">तत्&#45;विधम्(10)</text>
</g>
<!-- Node11_1 -->
<g id="node12" class="node">
<title>Node11_1</title>
<polygon fill="#ff1975" stroke="#ff1975" points="346.5,-283 269.5,-283 269.5,-247 346.5,-247 346.5,-283"/>
<text text-anchor="middle" x="308" y="-261.3" font-family="Times,serif" font-size="14.00">(कुर्यात्)(11)</text>
</g>
<!-- Node10_2_1c&#45;&gt;Node11_1 -->
<g id="edge5" class="edge">
<title>Node10_2_1c&#45;&gt;Node11_1</title>
<path fill="none" stroke="black" d="M378.35,-206.25C376.29,-214.17 373.06,-222.45 368,-229 365.82,-231.82 352.91,-239.47 339.61,-246.91"/>
<polygon fill="black" stroke="black" points="381.83,-206.71 380.45,-196.2 374.98,-205.28 381.83,-206.71"/>
<text text-anchor="middle" x="412.5" y="-217.8" font-family="Times,serif" font-size="14.00">क्रियाविशेषणम्</text>
</g>
<!-- Node1_1 -->
<g id="node5" class="node">
<title>Node1_1</title>
<polygon fill="#00bfff" stroke="#00bfff" points="142,-196 88,-196 88,-160 142,-160 142,-196"/>
<text text-anchor="middle" x="115" y="-174.3" font-family="Times,serif" font-size="14.00">पूर्वः(1)</text>
</g>
<!-- Node2_1 -->
<g id="node6" class="node">
<title>Node2_1</title>
<polygon fill="#00bfff" stroke="#00bfff" points="132,-283 76,-283 76,-247 132,-247 132,-283"/>
<text text-anchor="middle" x="104" y="-261.3" font-family="Times,serif" font-size="14.00">धातुः(2)</text>
</g>
<!-- Node1_1&#45;&gt;Node2_1 -->
<g id="edge6" class="edge">
<title>Node1_1&#45;&gt;Node2_1</title>
<path fill="none" stroke="black" d="M111.47,-206.27C109.75,-219.58 107.73,-235.19 106.22,-246.82"/>
<polygon fill="black" stroke="black" points="114.96,-206.57 112.77,-196.2 108.02,-205.67 114.96,-206.57"/>
<text text-anchor="middle" x="134.5" y="-217.8" font-family="Times,serif" font-size="14.00">विशेषणम्</text>
</g>
<!-- Node6_1 -->
<g id="node13" class="node">
<title>Node6_1</title>
<polygon fill="#ff1975" stroke="#ff1975" points="332,-370 270,-370 270,-334 332,-334 332,-370"/>
<text text-anchor="middle" x="301" y="-348.3" font-family="Times,serif" font-size="14.00">कुर्यात्(6)</text>
</g>
<!-- Node2_1&#45;&gt;Node6_1 -->
<g id="edge7" class="edge">
<title>Node2_1&#45;&gt;Node6_1</title>
<path fill="none" stroke="black" d="M141.72,-282.27C178.94,-298.33 235.17,-322.59 269.9,-337.58"/>
<polygon fill="black" stroke="black" points="142.79,-278.93 132.23,-278.18 140.02,-285.35 142.79,-278.93"/>
<text text-anchor="middle" x="226" y="-304.8" font-family="Times,serif" font-size="14.00">कर्ता</text>
</g>
<!-- Node7_1 -->
<g id="node7" class="node">
<title>Node7_1</title>
<polygon fill="#00bfff" stroke="#00bfff" points="70,-196 16,-196 16,-160 70,-160 70,-196"/>
<text text-anchor="middle" x="43" y="-174.3" font-family="Times,serif" font-size="14.00">वृद्धः(7)</text>
</g>
<!-- Node7_1&#45;&gt;Node2_1 -->
<g id="edge11" class="edge">
<title>Node7_1&#45;&gt;Node2_1</title>
<path fill="none" stroke="black" d="M47.85,-206.25C50.09,-214.05 53.33,-222.27 58,-229 62.69,-235.76 69.09,-241.79 75.63,-246.85"/>
<polygon fill="black" stroke="black" points="51.22,-205.26 45.45,-196.38 44.41,-206.92 51.22,-205.26"/>
<text text-anchor="middle" x="81.5" y="-217.8" font-family="Times,serif" font-size="14.00">विशेषणम्</text>
</g>
<!-- Node3_1 -->
<g id="node8" class="node">
<title>Node3_1</title>
<polygon fill="#ff99ff" stroke="#ff99ff" points="229,-196 175,-196 175,-160 229,-160 229,-196"/>
<text text-anchor="middle" x="202" y="-174.3" font-family="Times,serif" font-size="14.00">परम्(3)</text>
</g>
<!-- Node4_1 -->
<g id="node9" class="node">
<title>Node4_1</title>
<polygon fill="#93db70" stroke="#93db70" points="244.5,-283 175.5,-283 175.5,-247 244.5,-247 244.5,-283"/>
<text text-anchor="middle" x="210" y="-261.3" font-family="Times,serif" font-size="14.00">(धातुम्)(4)</text>
</g>
<!-- Node3_1&#45;&gt;Node4_1 -->
<g id="edge8" class="edge">
<title>Node3_1&#45;&gt;Node4_1</title>
<path fill="none" stroke="black" d="M204.57,-206.27C205.82,-219.58 207.29,-235.19 208.38,-246.82"/>
<polygon fill="black" stroke="black" points="208.04,-205.83 203.62,-196.2 201.07,-206.49 208.04,-205.83"/>
<text text-anchor="middle" x="230.5" y="-217.8" font-family="Times,serif" font-size="14.00">विशेषणम्</text>
</g>
<!-- Node4_1&#45;&gt;Node6_1 -->
<g id="edge9" class="edge">
<title>Node4_1&#45;&gt;Node6_1</title>
<path fill="none" stroke="black" d="M235.85,-290.15C250.77,-304.08 269.17,-321.27 282.61,-333.82"/>
<polygon fill="black" stroke="black" points="238.11,-287.47 228.42,-283.2 233.33,-292.58 238.11,-287.47"/>
<text text-anchor="middle" x="270" y="-304.8" font-family="Times,serif" font-size="14.00">कर्म</text>
</g>
<!-- Node8_1 -->
<g id="node10" class="node">
<title>Node8_1</title>
<polygon fill="#00bfff" stroke="#00bfff" points="530.5,-109 469.5,-109 469.5,-73 530.5,-73 530.5,-109"/>
<text text-anchor="middle" x="500" y="-87.3" font-family="Times,serif" font-size="14.00">क्षीणः(8)</text>
</g>
<!-- Node12_1 -->
<g id="node11" class="node">
<title>Node12_1</title>
<polygon fill="#00bfff" stroke="#00bfff" points="541,-196 469,-196 469,-160 541,-160 541,-196"/>
<text text-anchor="middle" x="505" y="-174.3" font-family="Times,serif" font-size="14.00">(धातुः)(12)</text>
</g>
<!-- Node8_1&#45;&gt;Node12_1 -->
<g id="edge12" class="edge">
<title>Node8_1&#45;&gt;Node12_1</title>
<path fill="none" stroke="black" d="M501.6,-119.27C502.39,-132.58 503.31,-148.19 503.99,-159.82"/>
<polygon fill="black" stroke="black" points="505.09,-118.98 501.01,-109.2 498.11,-119.39 505.09,-118.98"/>
<text text-anchor="middle" x="525.5" y="-130.8" font-family="Times,serif" font-size="14.00">विशेषणम्</text>
</g>
<!-- Node12_1&#45;&gt;Node11_1 -->
<g id="edge15" class="edge">
<title>Node12_1&#45;&gt;Node11_1</title>
<path fill="none" stroke="black" d="M485.22,-204.16C476.41,-213.56 465.25,-223.33 453,-229 413.27,-247.4 396.89,-226.26 355,-239 348.55,-240.96 341.95,-243.84 335.82,-246.95"/>
<polygon fill="black" stroke="black" points="488.04,-206.26 492.04,-196.45 482.79,-201.62 488.04,-206.26"/>
<text text-anchor="middle" x="485" y="-217.8" font-family="Times,serif" font-size="14.00">कर्ता</text>
</g>
<!-- Node11_1&#45;&gt;Node6_1 -->
<g id="edge14" class="edge">
<title>Node11_1&#45;&gt;Node6_1</title>
<path fill="none" stroke="black" d="M305.75,-293.27C304.66,-306.58 303.37,-322.19 302.41,-333.82"/>
<polygon fill="black" stroke="black" points="309.25,-293.45 306.58,-283.2 302.27,-292.88 309.25,-293.45"/>
<text text-anchor="middle" x="327.5" y="-304.8" font-family="Times,serif" font-size="14.00">समुच्चितः</text>
</g>
<!-- Node5_1 -->
<g id="node14" class="node">
<title>Node5_1</title>
<polygon fill="#93db70" stroke="#93db70" points="429.5,-283 364.5,-283 364.5,-247 429.5,-247 429.5,-283"/>
<text text-anchor="middle" x="397" y="-261.3" font-family="Times,serif" font-size="14.00">(वृद्धम्)(5)</text>
</g>
<!-- Node5_1&#45;&gt;Node6_1 -->
<g id="edge10" class="edge">
<title>Node5_1&#45;&gt;Node6_1</title>
<path fill="none" stroke="black" d="M377.59,-291.28C370.61,-299.61 362.38,-308.62 354,-316 346.72,-322.41 338.18,-328.55 330.11,-333.85"/>
<polygon fill="black" stroke="black" points="380.52,-293.23 384.12,-283.26 375.09,-288.81 380.52,-293.23"/>
<text text-anchor="middle" x="405.5" y="-304.8" font-family="Times,serif" font-size="14.00">क्रियाविशेषणम्</text>
</g>
<!-- Node9_1 -->
<g id="node15" class="node">
<title>Node9_1</title>
<polygon fill="#ff99ff" stroke="#ff99ff" points="315,-196 261,-196 261,-160 315,-160 315,-196"/>
<text text-anchor="middle" x="288" y="-174.3" font-family="Times,serif" font-size="14.00">च(9)</text>
</g>
<!-- Node9_1&#45;&gt;Node11_1 -->
<g id="edge13" class="edge">
<title>Node9_1&#45;&gt;Node11_1</title>
<path fill="none" stroke="black" d="M286.21,-206.41C286.36,-213.84 287.1,-221.81 289,-229 290.63,-235.15 293.54,-241.4 296.6,-246.88"/>
<polygon fill="black" stroke="black" points="289.71,-206.45 286.35,-196.4 282.71,-206.36 289.71,-206.45"/>
<text text-anchor="middle" x="328.5" y="-217.8" font-family="Times,serif" font-size="14.00">समुच्चय_द्योतकः</text>
</g>
</g>
</svg>
