<?xml version="1.0" encoding="UTF-8" standalone="no"?>
<!DOCTYPE svg PUBLIC "-//W3C//DTD SVG 1.1//EN"
 "http://www.w3.org/Graphics/SVG/1.1/DTD/svg11.dtd">
<!-- Generated by graphviz version 2.50.0 (20211204.2007)
 -->
<!-- Title: G Pages: 1 -->
<svg width="1151pt" height="365pt"
 viewBox="0.00 0.00 1151.19 364.50" xmlns="http://www.w3.org/2000/svg" xmlns:xlink="http://www.w3.org/1999/xlink">
<g id="graph0" class="graph" transform="scale(1 1) rotate(0) translate(4 360.5)">
<title>G</title>
<polygon fill="#fffacd" stroke="transparent" points="-4,4 -4,-360.5 1147.19,-360.5 1147.19,4 -4,4"/>
<g id="clust1" class="cluster">
<title>cluster_1</title>
<polygon fill="#fffacd" stroke="black" points="45.35,-122.5 45.35,-174.5 141.35,-174.5 141.35,-122.5 45.35,-122.5"/>
</g>
<g id="clust2" class="cluster">
<title>cluster_2</title>
<polygon fill="#fffacd" stroke="black" points="265.35,-122.5 265.35,-174.5 357.35,-174.5 357.35,-122.5 265.35,-122.5"/>
</g>
<g id="clust3" class="cluster">
<title>cluster_3</title>
<polygon fill="#fffacd" stroke="black" points="463.35,-209.5 463.35,-348.5 681.35,-348.5 681.35,-209.5 463.35,-209.5"/>
</g>
<!-- Node1_1 -->
<g id="node1" class="node">
<title>Node1_1</title>
<ellipse fill="#93db70" stroke="#93db70" cx="38.35" cy="-61.5" rx="38.19" ry="18"/>
<text text-anchor="middle" x="38.35" y="-57.8" font-family="Times,serif" font-size="14.00">यत्(1.1)</text>
</g>
<!-- Node3_1 -->
<g id="node2" class="node">
<title>Node3_1</title>
<ellipse fill="#ff1975" stroke="#ff1975" cx="93.35" cy="-148.5" rx="40.09" ry="18"/>
<text text-anchor="middle" x="93.35" y="-144.8" font-family="Times,serif" font-size="14.00">द्वेष्टि(3.1)</text>
</g>
<!-- Node1_1&#45;&gt;Node3_1 -->
<g id="edge1" class="edge">
<title>Node1_1&#45;&gt;Node3_1</title>
<path fill="none" stroke="black" d="M48.54,-88.64C52.11,-96.58 56.46,-105.14 61.35,-112.5 65.9,-119.36 71.78,-126.2 77.25,-131.99"/>
<polygon fill="black" stroke="black" points="51.73,-87.21 44.59,-79.39 45.3,-89.96 51.73,-87.21"/>
<text text-anchor="middle" x="84.85" y="-101.3" font-family="Times,serif" font-size="14.00">विशेषणम्</text>
</g>
<!-- Node8_1 -->
<g id="node8" class="node">
<title>Node8_1</title>
<ellipse fill="#93db70" stroke="#93db70" cx="392.35" cy="-61.5" rx="37.89" ry="18"/>
<text text-anchor="middle" x="392.35" y="-57.8" font-family="Times,serif" font-size="14.00">तत्(8.1)</text>
</g>
<!-- Node1_1&#45;&gt;Node8_1 -->
<g id="edge2" class="edge">
<title>Node1_1&#45;&gt;Node8_1</title>
<path fill="none" stroke="red" stroke-dasharray="5,2" d="M77.01,-46.33C79.82,-45.34 82.62,-44.39 85.35,-43.5 155.12,-20.85 175.79,-6.66 248.35,-17.5 285,-22.98 325.23,-35.88 353.82,-46.31"/>
<polygon fill="red" stroke="red" points="75.71,-43.08 67.51,-49.79 78.11,-49.65 75.71,-43.08"/>
<polygon fill="red" stroke="red" points="352.83,-49.68 363.43,-49.88 355.27,-43.11 352.83,-49.68"/>
<text text-anchor="middle" x="215.35" y="-14.3" font-family="Times,serif" font-size="14.00">नित्य_सम्बन्धः</text>
</g>
<!-- Node4_1 -->
<g id="node3" class="node">
<title>Node4_1</title>
<ellipse fill="#ff99ff" stroke="#ff99ff" cx="232.35" cy="-61.5" rx="38.19" ry="18"/>
<text text-anchor="middle" x="232.35" y="-57.8" font-family="Times,serif" font-size="14.00">यत्(4.1)</text>
</g>
<!-- Node9_1 -->
<g id="node4" class="node">
<title>Node9_1</title>
<ellipse fill="#93db70" stroke="#93db70" cx="311.35" cy="-148.5" rx="37.89" ry="18"/>
<text text-anchor="middle" x="311.35" y="-144.8" font-family="Times,serif" font-size="14.00">तत्(9.1)</text>
</g>
<!-- Node4_1&#45;&gt;Node9_1 -->
<g id="edge4" class="edge">
<title>Node4_1&#45;&gt;Node9_1</title>
<path fill="none" stroke="black" d="M254.33,-86.16C267.9,-100.75 284.92,-119.07 296.82,-131.87"/>
<polygon fill="black" stroke="black" points="256.58,-83.43 247.21,-78.49 251.45,-88.2 256.58,-83.43"/>
<text text-anchor="middle" x="300.85" y="-101.3" font-family="Times,serif" font-size="14.00">विशेषणम्</text>
</g>
<!-- Node4_1&#45;&gt;Node8_1 -->
<g id="edge5" class="edge">
<title>Node4_1&#45;&gt;Node8_1</title>
<path fill="none" stroke="red" stroke-dasharray="5,2" d="M281.22,-61.5C301.29,-61.5 324.44,-61.5 344.41,-61.5"/>
<polygon fill="red" stroke="red" points="281.08,-58 271.08,-61.5 281.08,-65 281.08,-58"/>
<polygon fill="red" stroke="red" points="344.52,-65 354.52,-61.5 344.52,-58 344.52,-65"/>
<text text-anchor="middle" x="312.67" y="-47.3" font-family="Times,serif" font-size="14.00">नित्य_सम्बन्धः</text>
</g>
<!-- Node10_1 -->
<g id="node13" class="node">
<title>Node10_1</title>
<ellipse fill="#00bfff" stroke="#00bfff" cx="357.35" cy="-235.5" rx="50.09" ry="18"/>
<text text-anchor="middle" x="357.35" y="-231.8" font-family="Times,serif" font-size="14.00">त्यजन्(10.1)</text>
</g>
<!-- Node9_1&#45;&gt;Node10_1 -->
<g id="edge11" class="edge">
<title>Node9_1&#45;&gt;Node10_1</title>
<path fill="none" stroke="black" d="M325.31,-175.3C332.77,-189.08 341.73,-205.64 348.28,-217.74"/>
<polygon fill="black" stroke="black" points="328.27,-173.42 320.43,-166.29 322.12,-176.75 328.27,-173.42"/>
<text text-anchor="middle" x="346.35" y="-188.3" font-family="Times,serif" font-size="14.00">कर्म</text>
</g>
<!-- Node5_1 -->
<g id="node5" class="node">
<title>Node5_1</title>
<ellipse fill="#ff1975" stroke="#ff1975" cx="523.35" cy="-235.5" rx="51.99" ry="18"/>
<text text-anchor="middle" x="523.35" y="-231.8" font-family="Times,serif" font-size="14.00">प्रार्थयेत(5.1)</text>
</g>
<!-- Node16_1 -->
<g id="node6" class="node">
<title>Node16_1</title>
<ellipse fill="#ff1975" stroke="#ff1975" cx="625.35" cy="-322.5" rx="48.19" ry="18"/>
<text text-anchor="middle" x="625.35" y="-318.8" font-family="Times,serif" font-size="14.00">जयेत्(16.1)</text>
</g>
<!-- Node5_1&#45;&gt;Node16_1 -->
<g id="edge7" class="edge">
<title>Node5_1&#45;&gt;Node16_1</title>
<path fill="none" stroke="black" d="M548.31,-259.55C557.87,-268.17 568.98,-277.95 579.35,-286.5 587.4,-293.14 596.5,-300.16 604.47,-306.16"/>
<polygon fill="black" stroke="black" points="550.45,-256.76 540.69,-252.62 545.74,-261.94 550.45,-256.76"/>
<text text-anchor="middle" x="601.85" y="-275.3" font-family="Times,serif" font-size="14.00">समुच्चितः</text>
</g>
<!-- Node14_1 -->
<g id="node7" class="node">
<title>Node14_1</title>
<ellipse fill="#93db70" stroke="#93db70" cx="633.35" cy="-235.5" rx="39.79" ry="18"/>
<text text-anchor="middle" x="633.35" y="-231.8" font-family="Times,serif" font-size="14.00">तौ(14.1)</text>
</g>
<!-- Node14_1&#45;&gt;Node16_1 -->
<g id="edge16" class="edge">
<title>Node14_1&#45;&gt;Node16_1</title>
<path fill="none" stroke="black" d="M630.78,-263.77C629.53,-277.08 628.06,-292.69 626.96,-304.32"/>
<polygon fill="black" stroke="black" points="634.28,-263.99 631.73,-253.7 627.31,-263.33 634.28,-263.99"/>
<text text-anchor="middle" x="652.85" y="-275.3" font-family="Times,serif" font-size="14.00">विशेषणम्</text>
</g>
<!-- Node8_1&#45;&gt;Node9_1 -->
<g id="edge10" class="edge">
<title>Node8_1&#45;&gt;Node9_1</title>
<path fill="none" stroke="black" d="M370.58,-85.34C356.6,-100.01 338.8,-118.69 326.38,-131.72"/>
<polygon fill="black" stroke="black" points="373.13,-87.74 377.49,-78.09 368.06,-82.92 373.13,-87.74"/>
<text text-anchor="middle" x="371.35" y="-101.3" font-family="Times,serif" font-size="14.00">वीप्सा</text>
</g>
<!-- Node2_1 -->
<g id="node9" class="node">
<title>Node2_1</title>
<ellipse fill="#00bfff" stroke="#00bfff" cx="135.35" cy="-61.5" rx="40.89" ry="18"/>
<text text-anchor="middle" x="135.35" y="-57.8" font-family="Times,serif" font-size="14.00">अन्नं(2.1)</text>
</g>
<!-- Node2_1&#45;&gt;Node3_1 -->
<g id="edge3" class="edge">
<title>Node2_1&#45;&gt;Node3_1</title>
<path fill="none" stroke="black" d="M122.6,-88.3C115.79,-102.08 107.61,-118.64 101.63,-130.74"/>
<polygon fill="black" stroke="black" points="125.76,-89.81 127.05,-79.29 119.48,-86.71 125.76,-89.81"/>
<text text-anchor="middle" x="126.35" y="-101.3" font-family="Times,serif" font-size="14.00">कर्म</text>
</g>
<!-- Node4_2 -->
<g id="node10" class="node">
<title>Node4_2</title>
<ellipse fill="#ff99ff" stroke="#ff99ff" cx="408.35" cy="-148.5" rx="41.69" ry="18"/>
<text text-anchor="middle" x="408.35" y="-144.8" font-family="Times,serif" font-size="14.00">अपि(4.2)</text>
</g>
<!-- Node4_2&#45;&gt;Node5_1 -->
<g id="edge6" class="edge">
<title>Node4_2&#45;&gt;Node5_1</title>
<path fill="none" stroke="black" d="M423.09,-174.51C429.15,-183.25 436.77,-192.59 445.35,-199.5 457.49,-209.27 472.79,-216.92 486.62,-222.53"/>
<polygon fill="black" stroke="black" points="425.98,-172.54 417.57,-166.09 420.12,-176.37 425.98,-172.54"/>
<text text-anchor="middle" x="482.35" y="-188.3" font-family="Times,serif" font-size="14.00">अन्यतर_द्योतकः</text>
</g>
<!-- Node6_1 -->
<g id="node11" class="node">
<title>Node6_1</title>
<ellipse fill="#00bfff" stroke="#00bfff" cx="523.35" cy="-148.5" rx="55.49" ry="18"/>
<text text-anchor="middle" x="523.35" y="-144.8" font-family="Times,serif" font-size="14.00">अविरोधि(6.1)</text>
</g>
<!-- Node6_1&#45;&gt;Node5_1 -->
<g id="edge8" class="edge">
<title>Node6_1&#45;&gt;Node5_1</title>
<path fill="none" stroke="black" d="M523.35,-176.77C523.35,-190.08 523.35,-205.69 523.35,-217.32"/>
<polygon fill="black" stroke="black" points="526.85,-176.7 523.35,-166.7 519.85,-176.7 526.85,-176.7"/>
<text text-anchor="middle" x="534.35" y="-188.3" font-family="Times,serif" font-size="14.00">कर्ता</text>
</g>
<!-- Node7_1 -->
<g id="node12" class="node">
<title>Node7_1</title>
<ellipse fill="#ff99ff" stroke="#ff99ff" cx="629.35" cy="-148.5" rx="32.49" ry="18"/>
<text text-anchor="middle" x="629.35" y="-144.8" font-family="Times,serif" font-size="14.00">तु(7.1)</text>
</g>
<!-- Node7_1&#45;&gt;Node5_1 -->
<g id="edge9" class="edge">
<title>Node7_1&#45;&gt;Node5_1</title>
<path fill="none" stroke="black" d="M603.31,-170.38C584.76,-185.25 560.21,-204.94 543.22,-218.56"/>
<polygon fill="black" stroke="black" points="605.75,-172.91 611.37,-163.92 601.37,-167.44 605.75,-172.91"/>
<text text-anchor="middle" x="600.85" y="-188.3" font-family="Times,serif" font-size="14.00">सम्बन्धः</text>
</g>
<!-- Node10_1&#45;&gt;Node16_1 -->
<g id="edge12" class="edge">
<title>Node10_1&#45;&gt;Node16_1</title>
<path fill="none" stroke="black" d="M403.28,-251.07C456.12,-267.83 541.75,-294.99 589.78,-310.22"/>
<polygon fill="black" stroke="black" points="404.08,-247.65 393.49,-247.96 401.96,-254.32 404.08,-247.65"/>
<text text-anchor="middle" x="518.35" y="-275.3" font-family="Times,serif" font-size="14.00">कर्ता</text>
</g>
<!-- Node11_1 -->
<g id="node14" class="node">
<title>Node11_1</title>
<ellipse fill="#00bfff" stroke="#00bfff" cx="747.35" cy="-235.5" rx="55.79" ry="18"/>
<text text-anchor="middle" x="747.35" y="-231.8" font-family="Times,serif" font-size="14.00">समश्नन्(11.1)</text>
</g>
<!-- Node11_1&#45;&gt;Node16_1 -->
<g id="edge13" class="edge">
<title>Node11_1&#45;&gt;Node16_1</title>
<path fill="none" stroke="black" d="M718.68,-258.63C706.94,-267.49 693.13,-277.68 680.35,-286.5 670.38,-293.38 659.13,-300.62 649.42,-306.72"/>
<polygon fill="black" stroke="black" points="720.97,-261.28 726.81,-252.44 716.73,-255.71 720.97,-261.28"/>
<text text-anchor="middle" x="743.85" y="-275.3" font-family="Times,serif" font-size="14.00">वर्तमानसमानकालः</text>
</g>
<!-- Node12_1 -->
<g id="node15" class="node">
<title>Node12_1</title>
<ellipse fill="#ff99ff" stroke="#ff99ff" cx="859.35" cy="-235.5" rx="38.19" ry="18"/>
<text text-anchor="middle" x="859.35" y="-231.8" font-family="Times,serif" font-size="14.00">च(12.1)</text>
</g>
<!-- Node12_1&#45;&gt;Node16_1 -->
<g id="edge14" class="edge">
<title>Node12_1&#45;&gt;Node16_1</title>
<path fill="none" stroke="black" d="M834.81,-258.52C822.54,-268.45 806.99,-279.49 791.35,-286.5 752.9,-303.71 705.61,-312.61 671.35,-317.12"/>
<polygon fill="black" stroke="black" points="837.32,-260.99 842.75,-251.89 832.83,-255.62 837.32,-260.99"/>
<text text-anchor="middle" x="856.85" y="-275.3" font-family="Times,serif" font-size="14.00">समुच्चय_द्योतकः</text>
</g>
<!-- Node13_1 -->
<g id="node16" class="node">
<title>Node13_1</title>
<ellipse fill="#93db70" stroke="#93db70" cx="719.35" cy="-148.5" rx="39.79" ry="18"/>
<text text-anchor="middle" x="719.35" y="-144.8" font-family="Times,serif" font-size="14.00">तौ(13.1)</text>
</g>
<!-- Node13_1&#45;&gt;Node14_1 -->
<g id="edge15" class="edge">
<title>Node13_1&#45;&gt;Node14_1</title>
<path fill="none" stroke="black" d="M696.86,-172.82C688.59,-181.29 679.11,-190.89 670.35,-199.5 663.79,-205.94 656.45,-212.93 650.05,-218.95"/>
<polygon fill="black" stroke="black" points="699.59,-175.02 704.05,-165.41 694.57,-170.15 699.59,-175.02"/>
<text text-anchor="middle" x="698.35" y="-188.3" font-family="Times,serif" font-size="14.00">वीप्सा</text>
</g>
<!-- Node15_1 -->
<g id="node17" class="node">
<title>Node15_1</title>
<ellipse fill="#ffff00" stroke="#ffff00" cx="962.35" cy="-148.5" rx="48.19" ry="18"/>
<text text-anchor="middle" x="962.35" y="-144.8" font-family="Times,serif" font-size="14.00">वृद्धि&#45;(15.1)</text>
</g>
<!-- Node15_2 -->
<g id="node18" class="node">
<title>Node15_2</title>
<ellipse fill="#93db70" stroke="#93db70" cx="962.35" cy="-235.5" rx="46.59" ry="18"/>
<text text-anchor="middle" x="962.35" y="-231.8" font-family="Times,serif" font-size="14.00">क्षयौ(15.2)</text>
</g>
<!-- Node15_1&#45;&gt;Node15_2 -->
<g id="edge17" class="edge">
<title>Node15_1&#45;&gt;Node15_2</title>
<path fill="none" stroke="black" d="M962.35,-176.77C962.35,-190.08 962.35,-205.69 962.35,-217.32"/>
<polygon fill="black" stroke="black" points="965.85,-176.7 962.35,-166.7 958.85,-176.7 965.85,-176.7"/>
<text text-anchor="middle" x="991.35" y="-188.3" font-family="Times,serif" font-size="14.00">इतरेतर&#45;द्वन्द्वः</text>
</g>
<!-- Node15_2&#45;&gt;Node16_1 -->
<g id="edge18" class="edge">
<title>Node15_2&#45;&gt;Node16_1</title>
<path fill="none" stroke="black" d="M939.74,-259.81C928.8,-269.68 914.88,-280.31 900.35,-286.5 860.38,-303.52 740.06,-313.94 672.57,-318.6"/>
<polygon fill="black" stroke="black" points="942.28,-262.24 947.16,-252.84 937.48,-257.14 942.28,-262.24"/>
<text text-anchor="middle" x="933.35" y="-275.3" font-family="Times,serif" font-size="14.00">कर्म</text>
</g>
<!-- Node17_1 -->
<g id="node19" class="node">
<title>Node17_1</title>
<ellipse fill="#00bfff" stroke="#00bfff" cx="1085.35" cy="-235.5" rx="57.69" ry="18"/>
<text text-anchor="middle" x="1085.35" y="-231.8" font-family="Times,serif" font-size="14.00">(मनुष्यः)(17.1)</text>
</g>
<!-- Node17_1&#45;&gt;Node16_1 -->
<g id="edge19" class="edge">
<title>Node17_1&#45;&gt;Node16_1</title>
<path fill="none" stroke="black" d="M1043.57,-254.47C1016.37,-265.42 979.84,-278.77 946.35,-286.5 850.89,-308.54 736.18,-316.8 672.98,-319.82"/>
<polygon fill="black" stroke="black" points="1045.21,-257.57 1053.14,-250.55 1042.56,-251.09 1045.21,-257.57"/>
<text text-anchor="middle" x="1007.35" y="-275.3" font-family="Times,serif" font-size="14.00">कर्ता</text>
</g>
</g>
</svg>
