<svg width="1001pt" height="642pt"
 viewBox="0.00 0.00 1001.00 642.00" xmlns="http://www.w3.org/2000/svg" xmlns:xlink="http://www.w3.org/1999/xlink">
<g id="graph0" class="graph" transform="scale(1 1) rotate(0) translate(4 638)">
<title>G</title>
<polygon fill="#fffacd" stroke="transparent" points="-4,4 -4,-638 997,-638 997,4 -4,4"/>
<!-- Node2_6 -->
<style>
 .hidden { display: none; }
 .node { cursor: pointer; }
 </style>
<script>
     function toggleChildren(id) {
      const children = document.getElementById(id);
      if (children.classList.contains('hidden')) {
        children.classList.remove('hidden');
      } else {
        children.classList.add('hidden');
      }
    }
</script>
<g id="children_node0_70671" class="hidden">
    <g class="node" onclick="toggleChildren('children_node0_70671');">
</g>
</g>
<g id="children_node1_70671" class="hidden">
    <g class="node" onclick="toggleChildren('children_node1_70671');">

<g id="node1" class="node">
<title>Node2_6</title>
<polygon fill="#ffff00" stroke="#ffff00" points="885,-36 831,-36 831,0 885,0 885,-36"/>
<text text-anchor="middle" x="858" y="-14.3" font-family="Times,serif" font-size="14.00">सन्धि&#45;</text>
</g>
<!-- Node2_7 -->
<g id="node2" class="node">
<title>Node2_7</title>
<polygon fill="#ffff00" stroke="#ffff00" points="975,-36 921,-36 921,0 975,0 975,-36"/>
<text text-anchor="middle" x="948" y="-14.3" font-family="Times,serif" font-size="14.00">वेदनाः</text>
</g>
<!-- Node2_6&#45;&gt;Node2_7 -->
<!-- Node2_7_1 -->
<g id="node3" class="node">
<title>Node2_7_1</title>
<polygon fill="#ffff00" stroke="#ffff00" points="989,-109 833,-109 833,-73 989,-73 989,-109"/>
<text text-anchor="middle" x="911" y="-87.3" font-family="Times,serif" font-size="14.00">&lt;सन्धि&#45;वेदनाः&gt;(इतरेतर&#45;द्वन्द्वः)</text>
</g>
<!-- Node2_6&#45;&gt;Node2_7_1 -->
<g id="edge2" class="edge">
<title>Node2_6&#45;&gt;Node2_7_1</title>
<path fill="none" stroke="black" d="M876.82,-44.21C883.94,-53.74 891.86,-64.36 898.29,-72.97"/>
<polygon fill="black" stroke="black" points="879.62,-42.11 870.83,-36.19 874.01,-46.29 879.62,-42.11"/>
</g>
<!-- Node2_7&#45;&gt;Node2_7_1 -->
<g id="edge1" class="edge">
<title>Node2_7&#45;&gt;Node2_7_1</title>
<path fill="none" stroke="black" d="M934.41,-45.08C929.56,-54.39 924.22,-64.62 919.87,-72.97"/>
<polygon fill="black" stroke="black" points="937.53,-46.67 939.04,-36.19 931.32,-43.44 937.53,-46.67"/>
</g>
<!-- Node2_7_2 -->
<g id="node5" class="node">
<title>Node2_7_2</title>
<polygon fill="#ffff00" stroke="#ffff00" points="993,-182 715,-182 715,-146 993,-146 993,-182"/>
<text text-anchor="middle" x="854" y="-160.3" font-family="Times,serif" font-size="14.00">&lt;शुष्कता&#45;&lt;सन्धि&#45;वेदनाः&gt;(इतरेतर&#45;द्वन्द्वः)&gt;(इतरेतर&#45;द्वन्द्वः)</text>
</g>
<!-- Node2_7_1&#45;&gt;Node2_7_2 -->
<g id="edge4" class="edge">
<title>Node2_7_1&#45;&gt;Node2_7_2</title>
<path fill="none" stroke="black" d="M890.76,-117.21C883.11,-126.74 874.58,-137.36 867.67,-145.97"/>
<polygon fill="black" stroke="black" points="893.67,-119.18 897.2,-109.19 888.21,-114.79 893.67,-119.18"/>
</g>
<!-- Node2_5 -->
<g id="node4" class="node">
<title>Node2_5</title>
<polygon fill="#ffff00" stroke="#ffff00" points="797,-109 741,-109 741,-73 797,-73 797,-109"/>
<text text-anchor="middle" x="769" y="-87.3" font-family="Times,serif" font-size="14.00">शुष्कता&#45;</text>
</g>
<!-- Node2_5&#45;&gt;Node2_7_1 -->
<!-- Node2_5&#45;&gt;Node2_7_2 -->
<g id="edge5" class="edge">
<title>Node2_5&#45;&gt;Node2_7_2</title>
<path fill="none" stroke="black" d="M797.46,-115.77C809.3,-125.67 822.79,-136.93 833.61,-145.97"/>
<polygon fill="black" stroke="black" points="799.49,-112.91 789.58,-109.19 795.01,-118.28 799.49,-112.91"/>
</g>
<!-- Node2_7_3 -->
<g id="node7" class="node">
<title>Node2_7_3</title>
<polygon fill="#ffff00" stroke="#ffff00" points="972,-255 578,-255 578,-219 972,-219 972,-255"/>
<text text-anchor="middle" x="775" y="-233.3" font-family="Times,serif" font-size="14.00">&lt;स्फिक्&#45;&lt;शुष्कता&#45;&lt;सन्धि&#45;वेदनाः&gt;(इतरेतर&#45;द्वन्द्वः)&gt;(इतरेतर&#45;द्वन्द्वः)&gt;(इतरेतर&#45;द्वन्द्वः)</text>
</g>
<!-- Node2_7_2&#45;&gt;Node2_7_3 -->
<g id="edge7" class="edge">
<title>Node2_7_2&#45;&gt;Node2_7_3</title>
<path fill="none" stroke="black" d="M827.23,-189.06C816.3,-198.88 803.91,-210.01 793.95,-218.97"/>
<polygon fill="black" stroke="black" points="829.78,-191.47 834.88,-182.19 825.1,-186.27 829.78,-191.47"/>
</g>
<!-- Node2_4 -->
<g id="node6" class="node">
<title>Node2_4</title>
<polygon fill="#ffff00" stroke="#ffff00" points="679,-182 625,-182 625,-146 679,-146 679,-182"/>
<text text-anchor="middle" x="652" y="-160.3" font-family="Times,serif" font-size="14.00">स्फिक्&#45;</text>
</g>
<!-- Node2_4&#45;&gt;Node2_7_2 -->
<!-- Node2_4&#45;&gt;Node2_7_3 -->
<g id="edge8" class="edge">
<title>Node2_4&#45;&gt;Node2_7_3</title>
<path fill="none" stroke="black" d="M688.4,-186.01C706.5,-196.46 728.1,-208.93 745.2,-218.8"/>
<polygon fill="black" stroke="black" points="689.71,-182.73 679.3,-180.76 686.21,-188.79 689.71,-182.73"/>
</g>
<!-- Node2_7_4 -->
<g id="node9" class="node">
<title>Node2_7_4</title>
<polygon fill="#ffff00" stroke="#ffff00" points="930,-328 418,-328 418,-292 930,-292 930,-328"/>
<text text-anchor="middle" x="674" y="-306.3" font-family="Times,serif" font-size="14.00">&lt;निगण्ड&#45;&lt;स्फिक्&#45;&lt;शुष्कता&#45;&lt;सन्धि&#45;वेदनाः&gt;(इतरेतर&#45;द्वन्द्वः)&gt;(इतरेतर&#45;द्वन्द्वः)&gt;(इतरेतर&#45;द्वन्द्वः)&gt;(इतरेतर&#45;द्वन्द्वः)</text>
</g>
<!-- Node2_7_3&#45;&gt;Node2_7_4 -->
<g id="edge10" class="edge">
<title>Node2_7_3&#45;&gt;Node2_7_4</title>
<path fill="none" stroke="black" d="M742.25,-261.03C727.96,-271.06 711.52,-282.63 698.34,-291.89"/>
<polygon fill="black" stroke="black" points="744.64,-263.62 750.81,-255.01 740.61,-257.89 744.64,-263.62"/>
</g>
<!-- Node2_3 -->
<g id="node8" class="node">
<title>Node2_3</title>
<polygon fill="#ffff00" stroke="#ffff00" points="542,-255 488,-255 488,-219 542,-219 542,-255"/>
<text text-anchor="middle" x="515" y="-233.3" font-family="Times,serif" font-size="14.00">निगण्ड&#45;</text>
</g>
<!-- Node2_3&#45;&gt;Node2_7_3 -->
<!-- Node2_3&#45;&gt;Node2_7_4 -->
<g id="edge11" class="edge">
<title>Node2_3&#45;&gt;Node2_7_4</title>
<path fill="none" stroke="black" d="M551.55,-254.32C576.75,-265.57 610.17,-280.5 635.73,-291.91"/>
<polygon fill="black" stroke="black" points="552.89,-251.09 542.33,-250.21 550.04,-257.48 552.89,-251.09"/>
</g>
<!-- Node2_7_5 -->
<g id="node11" class="node">
<title>Node2_7_5</title>
<polygon fill="#ffff00" stroke="#ffff00" points="861,-401 241,-401 241,-365 861,-365 861,-401"/>
<text text-anchor="middle" x="551" y="-379.3" font-family="Times,serif" font-size="14.00">&lt;गला&#45;&lt;निगण्ड&#45;&lt;स्फिक्&#45;&lt;शुष्कता&#45;&lt;सन्धि&#45;वेदनाः&gt;(इतरेतर&#45;द्वन्द्वः)&gt;(इतरेतर&#45;द्वन्द्वः)&gt;(इतरेतर&#45;द्वन्द्वः)&gt;(इतरेतर&#45;द्वन्द्वः)&gt;(इतरेतर&#45;द्वन्द्वः)</text>
</g>
<!-- Node2_7_4&#45;&gt;Node2_7_5 -->
<g id="edge13" class="edge">
<title>Node2_7_4&#45;&gt;Node2_7_5</title>
<path fill="none" stroke="black" d="M635.58,-333.18C617.86,-343.41 597.14,-355.37 580.65,-364.89"/>
<polygon fill="black" stroke="black" points="637.63,-336.04 644.54,-328.01 634.13,-329.97 637.63,-336.04"/>
</g>
<!-- Node2_2 -->
<g id="node10" class="node">
<title>Node2_2</title>
<polygon fill="#ffff00" stroke="#ffff00" points="382,-328 328,-328 328,-292 382,-292 382,-328"/>
<text text-anchor="middle" x="355" y="-306.3" font-family="Times,serif" font-size="14.00">गला&#45;</text>
</g>
<!-- Node2_2&#45;&gt;Node2_7_4 -->
<!-- Node2_2&#45;&gt;Node2_7_5 -->
<g id="edge14" class="edge">
<title>Node2_2&#45;&gt;Node2_7_5</title>
<path fill="none" stroke="black" d="M392.03,-324.41C423.78,-335.91 469.69,-352.54 504.01,-364.98"/>
<polygon fill="black" stroke="black" points="392.85,-320.99 382.25,-320.87 390.46,-327.57 392.85,-320.99"/>
</g>
<!-- Node2_7_6 -->
<g id="node13" class="node">
<title>Node2_7_6</title>
<polygon fill="#ffff00" stroke="#ffff00" points="728,-474 0,-474 0,-438 728,-438 728,-474"/>
<text text-anchor="middle" x="364" y="-452.3" font-family="Times,serif" font-size="14.00">&lt;अक्ष&#45;&lt;गला&#45;&lt;निगण्ड&#45;&lt;स्फिक्&#45;&lt;शुष्कता&#45;&lt;सन्धि&#45;वेदनाः&gt;(इतरेतर&#45;द्वन्द्वः)&gt;(इतरेतर&#45;द्वन्द्वः)&gt;(इतरेतर&#45;द्वन्द्वः)&gt;(इतरेतर&#45;द्वन्द्वः)&gt;(इतरेतर&#45;द्वन्द्वः)&gt;(इतरेतर&#45;द्वन्द्वः)</text>
</g>
<!-- Node2_7_5&#45;&gt;Node2_7_6 -->
<g id="edge16" class="edge">
<title>Node2_7_5&#45;&gt;Node2_7_6</title>
<path fill="none" stroke="black" d="M496.63,-404.64C468.84,-415.19 435.41,-427.89 409.07,-437.89"/>
<polygon fill="black" stroke="black" points="498.1,-407.83 506.21,-401.01 495.62,-401.28 498.1,-407.83"/>
</g>
<!-- Node2_1 -->
<g id="node12" class="node">
<title>Node2_1</title>
<polygon fill="#ffff00" stroke="#ffff00" points="205,-401 151,-401 151,-365 205,-365 205,-401"/>
<text text-anchor="middle" x="178" y="-379.3" font-family="Times,serif" font-size="14.00">अक्ष&#45;</text>
</g>
<!-- Node2_1&#45;&gt;Node2_7_5 -->
<!-- Node2_1&#45;&gt;Node2_7_6 -->
<g id="edge17" class="edge">
<title>Node2_1&#45;&gt;Node2_7_6</title>
<path fill="none" stroke="black" d="M214.71,-398.01C244.73,-409.47 287.28,-425.72 319.28,-437.93"/>
<polygon fill="black" stroke="black" points="215.64,-394.62 205.05,-394.32 213.14,-401.16 215.64,-394.62"/>
</g>
<!-- Node2_7_6&#45;&gt;Node2_7_6c -->
<g id="edge19" class="edge">
<title>Node2_7_6&#45;&gt;Node2_7_6c</title>
<path fill="none" stroke="black" d="M364,-484.25C364,-493.23 364,-502.97 364,-510.97"/>
<polygon fill="black" stroke="black" points="367.5,-484.19 364,-474.19 360.5,-484.19 367.5,-484.19"/>
</g>
</g>
</g>
<!-- Node2_7_6c -->
<g class="node14" onclick="toggleChildren('children_node1_70671');">
<title>Node2_7_6c</title>
<polygon fill="#00bfff" stroke="#00bfff" points="488,-547 240,-547 240,-511 488,-511 488,-547"/>
<text text-anchor="middle" x="364" y="-525.3" font-family="Times,serif" font-size="14.00">अक्ष&#45;गला&#45;निगण्ड&#45;स्फिक्&#45;शुष्कता&#45;सन्धि&#45;वेदनाः(2)</text>
</g>
<!-- Node3_1 -->
<g id="node16" class="node">
<title>Node3_1</title>
<polygon fill="#ff1975" stroke="#ff1975" points="477,-634 419,-634 419,-598 477,-598 477,-634"/>
<text text-anchor="middle" x="448" y="-612.3" font-family="Times,serif" font-size="14.00">(स्युः)(3)</text>
</g>
<!-- Node2_7_6c&#45;&gt;Node3_1 -->
<g id="edge20" class="edge">
<title>Node2_7_6c&#45;&gt;Node3_1</title>
<path fill="none" stroke="black" d="M388.24,-554.53C401.95,-568.4 418.74,-585.39 431.03,-597.82"/>
<polygon fill="black" stroke="black" points="390.52,-551.85 381,-547.2 385.54,-556.77 390.52,-551.85"/>
<text text-anchor="middle" x="423" y="-568.8" font-family="Times,serif" font-size="14.00">कर्ता</text>
</g>
<!-- Node1_1 -->
<g id="node15" class="node">
<title>Node1_1</title>
<polygon fill="#c6e2eb" stroke="#c6e2eb" points="560,-547 506,-547 506,-511 560,-511 560,-547"/>
<text text-anchor="middle" x="533" y="-525.3" font-family="Times,serif" font-size="14.00">मांसे(1)</text>
</g>
<!-- Node1_1&#45;&gt;Node3_1 -->
<g id="edge21" class="edge">
<title>Node1_1&#45;&gt;Node3_1</title>
<path fill="none" stroke="black" d="M508.47,-554.53C494.6,-568.4 477.61,-585.39 465.18,-597.82"/>
<polygon fill="black" stroke="black" points="511.2,-556.75 515.8,-547.2 506.25,-551.8 511.2,-556.75"/>
<text text-anchor="middle" x="523.5" y="-568.8" font-family="Times,serif" font-size="14.00">अधिकरणम्</text>
</g>
</g>
</svg>
