<?xml version="1.0" encoding="UTF-8" standalone="no"?>
<!DOCTYPE svg PUBLIC "-//W3C//DTD SVG 1.1//EN"
 "http://www.w3.org/Graphics/SVG/1.1/DTD/svg11.dtd">
<!-- Generated by graphviz version 2.50.0 (20211204.2007)
 -->
<!-- Title: G Pages: 1 -->
<svg width="316pt" height="305pt"
 viewBox="0.00 0.00 316.25 305.00" xmlns="http://www.w3.org/2000/svg" xmlns:xlink="http://www.w3.org/1999/xlink">
<g id="graph0" class="graph" transform="scale(1 1) rotate(0) translate(4 301)">
<title>G</title>
<polygon fill="#fffacd" stroke="transparent" points="-4,4 -4,-301 312.25,-301 312.25,4 -4,4"/>
<!-- Node1_1 -->
<g id="node1" class="node">
<title>Node1_1</title>
<ellipse fill="#ffff00" stroke="#ffff00" cx="42.25" cy="-105" rx="42.49" ry="18"/>
<text text-anchor="middle" x="42.25" y="-101.3" font-family="Times,serif" font-size="14.00">दोष&#45;(1.1)</text>
</g>
<!-- Node1_3 -->
<g id="node2" class="node">
<title>Node1_3</title>
<ellipse fill="#00bfff" stroke="#00bfff" cx="146.25" cy="-192" rx="44.39" ry="18"/>
<text text-anchor="middle" x="146.25" y="-188.3" font-family="Times,serif" font-size="14.00">मलाः(1.3)</text>
</g>
<!-- Node1_1&#45;&gt;Node1_3 -->
<g id="edge1" class="edge">
<title>Node1_1&#45;&gt;Node1_3</title>
<path fill="none" stroke="black" d="M59.99,-130.61C66.95,-139.26 75.39,-148.65 84.25,-156 94.52,-164.53 107.16,-172.09 118.34,-177.98"/>
<polygon fill="black" stroke="black" points="62.7,-128.39 53.81,-122.63 57.17,-132.68 62.7,-128.39"/>
<text text-anchor="middle" x="113.25" y="-144.8" font-family="Times,serif" font-size="14.00">इतरेतर&#45;द्वन्द्वः</text>
</g>
<!-- Node5_1 -->
<g id="node4" class="node">
<title>Node5_1</title>
<ellipse fill="#ff1975" stroke="#ff1975" cx="197.25" cy="-279" rx="48.19" ry="18"/>
<text text-anchor="middle" x="197.25" y="-275.3" font-family="Times,serif" font-size="14.00">(सन्ति)(5.1)</text>
</g>
<!-- Node1_3&#45;&gt;Node5_1 -->
<g id="edge3" class="edge">
<title>Node1_3&#45;&gt;Node5_1</title>
<path fill="none" stroke="black" d="M161.49,-218.4C169.8,-232.26 179.86,-249.03 187.19,-261.24"/>
<polygon fill="black" stroke="black" points="164.47,-216.57 156.32,-209.79 158.47,-220.17 164.47,-216.57"/>
<text text-anchor="middle" x="185.25" y="-231.8" font-family="Times,serif" font-size="14.00">कर्ता</text>
</g>
<!-- Node1_2 -->
<g id="node3" class="node">
<title>Node1_2</title>
<ellipse fill="#ffff00" stroke="#ffff00" cx="146.25" cy="-105" rx="44.39" ry="18"/>
<text text-anchor="middle" x="146.25" y="-101.3" font-family="Times,serif" font-size="14.00">धातु&#45;(1.2)</text>
</g>
<!-- Node1_2&#45;&gt;Node1_3 -->
<g id="edge2" class="edge">
<title>Node1_2&#45;&gt;Node1_3</title>
<path fill="none" stroke="black" d="M146.25,-133.27C146.25,-146.58 146.25,-162.19 146.25,-173.82"/>
<polygon fill="black" stroke="black" points="149.75,-133.2 146.25,-123.2 142.75,-133.2 149.75,-133.2"/>
<text text-anchor="middle" x="175.25" y="-144.8" font-family="Times,serif" font-size="14.00">इतरेतर&#45;द्वन्द्वः</text>
</g>
<!-- Node2_1 -->
<g id="node5" class="node">
<title>Node2_1</title>
<ellipse fill="#00bfff" stroke="#00bfff" cx="252.25" cy="-105" rx="44.39" ry="18"/>
<text text-anchor="middle" x="252.25" y="-101.3" font-family="Times,serif" font-size="14.00">मूलम्(2.1)</text>
</g>
<!-- Node2_1&#45;&gt;Node1_3 -->
<g id="edge4" class="edge">
<title>Node2_1&#45;&gt;Node1_3</title>
<path fill="none" stroke="black" d="M233.48,-130.56C226.17,-139.21 217.37,-148.6 208.25,-156 197.88,-164.41 185.22,-171.95 174.06,-177.86"/>
<polygon fill="black" stroke="black" points="236.38,-132.55 239.99,-122.59 230.95,-128.12 236.38,-132.55"/>
<text text-anchor="middle" x="263.25" y="-144.8" font-family="Times,serif" font-size="14.00">विधेय_विशेषणम्</text>
</g>
<!-- Node3_1 -->
<g id="node6" class="node">
<title>Node3_1</title>
<ellipse fill="#ff99ff" stroke="#ff99ff" cx="248.25" cy="-192" rx="40.09" ry="18"/>
<text text-anchor="middle" x="248.25" y="-188.3" font-family="Times,serif" font-size="14.00">सदा(3.1)</text>
</g>
<!-- Node3_1&#45;&gt;Node5_1 -->
<g id="edge5" class="edge">
<title>Node3_1&#45;&gt;Node5_1</title>
<path fill="none" stroke="black" d="M233.01,-218.4C224.69,-232.26 214.63,-249.03 207.3,-261.24"/>
<polygon fill="black" stroke="black" points="236.03,-220.17 238.17,-209.79 230.02,-216.57 236.03,-220.17"/>
<text text-anchor="middle" x="261.75" y="-231.8" font-family="Times,serif" font-size="14.00">कालाधिकरणम्</text>
</g>
<!-- Node4_1 -->
<g id="node7" class="node">
<title>Node4_1</title>
<ellipse fill="#87ceeb" stroke="#87ceeb" cx="252.25" cy="-18" rx="44.69" ry="18"/>
<text text-anchor="middle" x="252.25" y="-14.3" font-family="Times,serif" font-size="14.00">देहस्य(4.1)</text>
</g>
<!-- Node4_1&#45;&gt;Node2_1 -->
<g id="edge6" class="edge">
<title>Node4_1&#45;&gt;Node2_1</title>
<path fill="none" stroke="black" d="M252.25,-46.27C252.25,-59.58 252.25,-75.19 252.25,-86.82"/>
<polygon fill="black" stroke="black" points="255.75,-46.2 252.25,-36.2 248.75,-46.2 255.75,-46.2"/>
<text text-anchor="middle" x="280.25" y="-57.8" font-family="Times,serif" font-size="14.00">षष्ठीसम्बन्धः</text>
</g>
</g>
</svg>
