<?xml version="1.0" encoding="UTF-8" standalone="no"?>
<!DOCTYPE svg PUBLIC "-//W3C//DTD SVG 1.1//EN"
 "http://www.w3.org/Graphics/SVG/1.1/DTD/svg11.dtd">
<!-- Generated by graphviz version 2.50.0 (20211204.2007)
 -->
<!-- Title: G Pages: 1 -->
<svg width="223pt" height="234pt"
 viewBox="0.00 0.00 223.00 234.00" xmlns="http://www.w3.org/2000/svg" xmlns:xlink="http://www.w3.org/1999/xlink">
<g id="graph0" class="graph" transform="scale(1 1) rotate(0) translate(4 230)">
<title>G</title>
<polygon fill="#fffacd" stroke="transparent" points="-4,4 -4,-230 219,-230 219,4 -4,4"/>
<g id="clust1" class="cluster">
<title>cluster_1</title>
<polygon fill="#fffacd" stroke="black" points="8,-8 8,-147 112,-147 112,-8 8,-8"/>
</g>
<!-- Node4_1 -->
<g id="node1" class="node">
<title>Node4_1</title>
<ellipse fill="#93db70" stroke="#93db70" cx="60" cy="-34" rx="43.59" ry="18"/>
<text text-anchor="middle" x="60" y="-30.3" font-family="Times,serif" font-size="14.00">श्रमम्(4.1)</text>
</g>
<!-- Node2_1 -->
<g id="node2" class="node">
<title>Node2_1</title>
<ellipse fill="#00bfff" stroke="#00bfff" cx="63" cy="-121" rx="39.79" ry="18"/>
<text text-anchor="middle" x="63" y="-117.3" font-family="Times,serif" font-size="14.00">मेदः(2.1)</text>
</g>
<!-- Node4_1&#45;&gt;Node2_1 -->
<g id="edge4" class="edge">
<title>Node4_1&#45;&gt;Node2_1</title>
<path fill="none" stroke="black" d="M60.96,-62.27C61.43,-75.58 61.98,-91.19 62.39,-102.82"/>
<polygon fill="black" stroke="black" points="64.46,-62.07 60.61,-52.2 57.46,-62.32 64.46,-62.07"/>
<text text-anchor="middle" x="84.5" y="-73.8" font-family="Times,serif" font-size="14.00">समुच्चितः</text>
</g>
<!-- Node5_1 -->
<g id="node4" class="node">
<title>Node5_1</title>
<ellipse fill="#ff1975" stroke="#ff1975" cx="114" cy="-208" rx="50.89" ry="18"/>
<text text-anchor="middle" x="114" y="-204.3" font-family="Times,serif" font-size="14.00">(भवति)(5.1)</text>
</g>
<!-- Node2_1&#45;&gt;Node5_1 -->
<g id="edge2" class="edge">
<title>Node2_1&#45;&gt;Node5_1</title>
<path fill="none" stroke="black" d="M78.24,-147.4C86.56,-161.26 96.62,-178.03 103.94,-190.24"/>
<polygon fill="black" stroke="black" points="81.22,-145.57 73.08,-138.79 75.22,-149.17 81.22,-145.57"/>
<text text-anchor="middle" x="103" y="-160.8" font-family="Times,serif" font-size="14.00">कर्ता</text>
</g>
<!-- Node1_1 -->
<g id="node3" class="node">
<title>Node1_1</title>
<ellipse fill="#ff99ff" stroke="#ff99ff" cx="165" cy="-121" rx="44.39" ry="18"/>
<text text-anchor="middle" x="165" y="-117.3" font-family="Times,serif" font-size="14.00">तत्वद्(1.1)</text>
</g>
<!-- Node1_1&#45;&gt;Node5_1 -->
<g id="edge1" class="edge">
<title>Node1_1&#45;&gt;Node5_1</title>
<path fill="none" stroke="black" d="M149.76,-147.4C141.44,-161.26 131.38,-178.03 124.06,-190.24"/>
<polygon fill="black" stroke="black" points="152.78,-149.17 154.92,-138.79 146.78,-145.57 152.78,-149.17"/>
<text text-anchor="middle" x="178.5" y="-160.8" font-family="Times,serif" font-size="14.00">क्रियाविशेषणम्</text>
</g>
<!-- Node3_1 -->
<g id="node5" class="node">
<title>Node3_1</title>
<ellipse fill="#ff99ff" stroke="#ff99ff" cx="162" cy="-34" rx="40.89" ry="18"/>
<text text-anchor="middle" x="162" y="-30.3" font-family="Times,serif" font-size="14.00">तथा(3.1)</text>
</g>
<!-- Node3_1&#45;&gt;Node2_1 -->
<g id="edge3" class="edge">
<title>Node3_1&#45;&gt;Node2_1</title>
<path fill="none" stroke="black" d="M139.73,-58.22C131.03,-66.92 120.81,-76.69 111,-85 102.5,-92.2 92.63,-99.55 84.06,-105.65"/>
<polygon fill="black" stroke="black" points="142.4,-60.5 146.93,-50.93 137.41,-55.59 142.4,-60.5"/>
<text text-anchor="middle" x="166.5" y="-73.8" font-family="Times,serif" font-size="14.00">समुच्चय_द्योतकः</text>
</g>
</g>
</svg>
