<svg width="1174pt" height="569pt"
 viewBox="0.00 0.00 1173.50 569.00" xmlns="http://www.w3.org/2000/svg" xmlns:xlink="http://www.w3.org/1999/xlink">
<g id="graph0" class="graph" transform="scale(1 1) rotate(0) translate(4 565)">
<title>G</title>
<polygon fill="#fffacd" stroke="transparent" points="-4,4 -4,-565 1169.5,-565 1169.5,4 -4,4"/>
<!-- Node1_1 -->
<style>
 .hidden { display: none; }
 .node { cursor: pointer; }
 </style>
<script>
     function toggleChildren(id) {
      const children = document.getElementById(id);
      if (children.classList.contains('hidden')) {
        children.classList.remove('hidden');
      } else {
        children.classList.add('hidden');
      }
    }
</script>
<g id="children_node0_70831" class="hidden">
    <g class="node" onclick="toggleChildren('children_node0_70831');">
</g>
</g>
<g id="children_node1_70831" class="hidden">
    <g class="node" onclick="toggleChildren('children_node1_70831');">

<g id="node1" class="node">
<title>Node1_1</title>
<polygon fill="#ffff00" stroke="#ffff00" points="54,-255 0,-255 0,-219 54,-219 54,-255"/>
<text text-anchor="middle" x="27" y="-233.3" font-family="Times,serif" font-size="14.00">विट्&#45;</text>
</g>
<!-- Node1_2 -->
<g id="node2" class="node">
<title>Node1_2</title>
<polygon fill="#ffff00" stroke="#ffff00" points="144,-255 90,-255 90,-219 144,-219 144,-255"/>
<text text-anchor="middle" x="117" y="-233.3" font-family="Times,serif" font-size="14.00">क्षय&#45;</text>
</g>
<!-- Node1_1&#45;&gt;Node1_2 -->
<!-- Node1_2_1 -->
<g id="node3" class="node">
<title>Node1_2_1</title>
<polygon fill="#ffff00" stroke="#ffff00" points="168,-328 20,-328 20,-292 168,-292 168,-328"/>
<text text-anchor="middle" x="94" y="-306.3" font-family="Times,serif" font-size="14.00">&lt;विट्&#45;क्षय&#45;&gt;(षष्ठी&#45;तत्पुरुषः)</text>
</g>
<!-- Node1_1&#45;&gt;Node1_2_1 -->
<g id="edge2" class="edge">
<title>Node1_1&#45;&gt;Node1_2_1</title>
<path fill="none" stroke="black" d="M50.24,-262.63C59.38,-272.31 69.64,-283.19 77.93,-291.97"/>
<polygon fill="black" stroke="black" points="52.63,-260.06 43.22,-255.19 47.54,-264.86 52.63,-260.06"/>
</g>
<!-- Node1_2&#45;&gt;Node1_2_1 -->
<g id="edge1" class="edge">
<title>Node1_2&#45;&gt;Node1_2_1</title>
<path fill="none" stroke="black" d="M108.27,-264.95C105.33,-274.02 102.14,-283.88 99.52,-291.97"/>
<polygon fill="black" stroke="black" points="111.68,-265.78 111.43,-255.19 105.02,-263.62 111.68,-265.78"/>
</g>
<!-- Node1_3 -->
<g id="node4" class="node">
<title>Node1_3</title>
<polygon fill="#ffff00" stroke="#ffff00" points="258,-328 204,-328 204,-292 258,-292 258,-328"/>
<text text-anchor="middle" x="231" y="-306.3" font-family="Times,serif" font-size="14.00">उद्भवान्</text>
</g>
<!-- Node1_2_1&#45;&gt;Node1_3 -->
<!-- Node1_3_2 -->
<g id="node5" class="node">
<title>Node1_3_2</title>
<polygon fill="#ffff00" stroke="#ffff00" points="328.5,-401 51.5,-401 51.5,-365 328.5,-365 328.5,-401"/>
<text text-anchor="middle" x="190" y="-379.3" font-family="Times,serif" font-size="14.00">&lt;&lt;विट्&#45;क्षय&#45;&gt;(षष्ठी&#45;तत्पुरुषः)उद्भवान्&gt;(उपपद&#45;तत्पुरुषः)</text>
</g>
<!-- Node1_2_1&#45;&gt;Node1_3_2 -->
<g id="edge5" class="edge">
<title>Node1_2_1&#45;&gt;Node1_3_2</title>
<path fill="none" stroke="black" d="M125.37,-334.2C138.93,-344.23 154.51,-355.75 166.98,-364.97"/>
<polygon fill="black" stroke="black" points="127.36,-331.32 117.24,-328.19 123.2,-336.95 127.36,-331.32"/>
</g>
<!-- Node1_3&#45;&gt;Node1_3_2 -->
<g id="edge4" class="edge">
<title>Node1_3&#45;&gt;Node1_3_2</title>
<path fill="none" stroke="black" d="M215.94,-337.08C210.57,-346.39 204.65,-356.62 199.83,-364.97"/>
<polygon fill="black" stroke="black" points="219.11,-338.6 221.08,-328.19 213.04,-335.1 219.11,-338.6"/>
</g>
<!-- Node1_3_2&#45;&gt;Node1_3_2c -->
<g id="edge7" class="edge">
<title>Node1_3_2&#45;&gt;Node1_3_2c</title>
<path fill="none" stroke="black" d="M266.55,-403.55C312.69,-415.34 370.43,-430.08 412.25,-440.76"/>
<polygon fill="black" stroke="black" points="267.14,-400.09 256.59,-401.01 265.41,-406.87 267.14,-400.09"/>
</g>
</g>
</g>
<!-- Node1_3_2c -->
<g class="node6" onclick="toggleChildren('children_node1_70831');">
<title>Node1_3_2c</title>
<polygon fill="#93db70" stroke="#93db70" points="523.5,-474 412.5,-474 412.5,-438 523.5,-438 523.5,-474"/>
<text text-anchor="middle" x="468" y="-452.3" font-family="Times,serif" font-size="14.00">विट्&#45;क्षय&#45;उद्भवान्(1)</text>
</g>
<g id="children_node2_70831" class="hidden">
    <g class="node" onclick="toggleChildren('children_node2_70831');">
<!-- Node2_1 -->
<g id="node7" class="node">
<title>Node2_1</title>
<polygon fill="#ffff00" stroke="#ffff00" points="436,-109 382,-109 382,-73 436,-73 436,-109"/>
<text text-anchor="middle" x="409" y="-87.3" font-family="Times,serif" font-size="14.00">मेष&#45;</text>
</g>
<!-- Node2_2 -->
<g id="node8" class="node">
<title>Node2_2</title>
<polygon fill="#ffff00" stroke="#ffff00" points="526,-109 472,-109 472,-73 526,-73 526,-109"/>
<text text-anchor="middle" x="499" y="-87.3" font-family="Times,serif" font-size="14.00">अज&#45;</text>
</g>
<!-- Node2_1&#45;&gt;Node2_2 -->
<!-- Node2_2_1 -->
<g id="node9" class="node">
<title>Node2_2_1</title>
<polygon fill="#ffff00" stroke="#ffff00" points="547,-182 405,-182 405,-146 547,-146 547,-182"/>
<text text-anchor="middle" x="476" y="-160.3" font-family="Times,serif" font-size="14.00">&lt;मेष&#45;अज&#45;&gt;(इतरेतर&#45;द्वन्द्वः)</text>
</g>
<!-- Node2_1&#45;&gt;Node2_2_1 -->
<g id="edge10" class="edge">
<title>Node2_1&#45;&gt;Node2_2_1</title>
<path fill="none" stroke="black" d="M432.24,-116.63C441.38,-126.31 451.64,-137.19 459.93,-145.97"/>
<polygon fill="black" stroke="black" points="434.63,-114.06 425.22,-109.19 429.54,-118.86 434.63,-114.06"/>
</g>
<!-- Node2_2&#45;&gt;Node2_2_1 -->
<g id="edge9" class="edge">
<title>Node2_2&#45;&gt;Node2_2_1</title>
<path fill="none" stroke="black" d="M490.27,-118.95C487.33,-128.02 484.14,-137.88 481.52,-145.97"/>
<polygon fill="black" stroke="black" points="493.68,-119.78 493.43,-109.19 487.02,-117.62 493.68,-119.78"/>
</g>
<!-- Node2_3 -->
<g id="node10" class="node">
<title>Node2_3</title>
<polygon fill="#ffff00" stroke="#ffff00" points="637,-182 583,-182 583,-146 637,-146 637,-182"/>
<text text-anchor="middle" x="610" y="-160.3" font-family="Times,serif" font-size="14.00">मध्य&#45;</text>
</g>
<!-- Node2_2_1&#45;&gt;Node2_3 -->
<!-- Node2_3_2 -->
<g id="node11" class="node">
<title>Node2_3_2</title>
<polygon fill="#ffff00" stroke="#ffff00" points="629,-255 375,-255 375,-219 629,-219 629,-255"/>
<text text-anchor="middle" x="502" y="-233.3" font-family="Times,serif" font-size="14.00">&lt;&lt;मेष&#45;अज&#45;&gt;(इतरेतर&#45;द्वन्द्वः)मध्य&#45;&gt;(षष्ठी&#45;तत्पुरुषः)</text>
</g>
<!-- Node2_2_1&#45;&gt;Node2_3_2 -->
<g id="edge13" class="edge">
<title>Node2_2_1&#45;&gt;Node2_3_2</title>
<path fill="none" stroke="black" d="M485.76,-191.66C489.11,-200.81 492.77,-210.8 495.76,-218.97"/>
<polygon fill="black" stroke="black" points="489.02,-190.37 482.29,-182.19 482.45,-192.78 489.02,-190.37"/>
</g>
<!-- Node2_3&#45;&gt;Node2_3_2 -->
<g id="edge12" class="edge">
<title>Node2_3&#45;&gt;Node2_3_2</title>
<path fill="none" stroke="black" d="M575.41,-187.74C560.04,-197.85 542.25,-209.54 528.03,-218.89"/>
<polygon fill="black" stroke="black" points="577.7,-190.42 584.13,-182.01 573.85,-184.58 577.7,-190.42"/>
</g>
<!-- Node2_7_5 -->
<g id="node18" class="node">
<title>Node2_7_5</title>
<polygon fill="#ffff00" stroke="#ffff00" points="1035.5,-255 664.5,-255 664.5,-219 1035.5,-219 1035.5,-255"/>
<text text-anchor="middle" x="850" y="-233.3" font-family="Times,serif" font-size="14.00">&lt;कुल्माष&#45;&lt;यव&#45;&lt;माष&#45;द्वय&#45;&gt;(षष्ठी&#45;तत्पुरुषः)&gt;(इतरेतर&#45;द्वन्द्वः)&gt;(इतरेतर&#45;द्वन्द्वः)</text>
</g>
<!-- Node2_3_2&#45;&gt;Node2_7_5 -->
<!-- Node2_7_6 -->
<g id="node19" class="node">
<title>Node2_7_6</title>
<polygon fill="#ffff00" stroke="#ffff00" points="1021.5,-328 330.5,-328 330.5,-292 1021.5,-292 1021.5,-328"/>
<text text-anchor="middle" x="676" y="-306.3" font-family="Times,serif" font-size="14.00">&lt;&lt;&lt;मेष&#45;अज&#45;&gt;(इतरेतर&#45;द्वन्द्वः)मध्य&#45;&gt;(षष्ठी&#45;तत्पुरुषः)&lt;कुल्माष&#45;&lt;यव&#45;&lt;माष&#45;द्वय&#45;&gt;(षष्ठी&#45;तत्पुरुषः)&gt;(इतरेतर&#45;द्वन्द्वः)&gt;(इतरेतर&#45;द्वन्द्वः)&gt;(इतरेतर&#45;द्वन्द्वः)</text>
</g>
<!-- Node2_3_2&#45;&gt;Node2_7_6 -->
<g id="edge25" class="edge">
<title>Node2_3_2&#45;&gt;Node2_7_6</title>
<path fill="none" stroke="black" d="M553.27,-258.92C578.99,-269.42 609.76,-281.97 634.06,-291.89"/>
<polygon fill="black" stroke="black" points="554.26,-255.54 543.68,-255.01 551.61,-262.02 554.26,-255.54"/>
</g>
<!-- Node2_6 -->
<g id="node12" class="node">
<title>Node2_6</title>
<polygon fill="#ffff00" stroke="#ffff00" points="991,-36 937,-36 937,0 991,0 991,-36"/>
<text text-anchor="middle" x="964" y="-14.3" font-family="Times,serif" font-size="14.00">माष&#45;</text>
</g>
<!-- Node2_7 -->
<g id="node13" class="node">
<title>Node2_7</title>
<polygon fill="#ffff00" stroke="#ffff00" points="1081,-36 1027,-36 1027,0 1081,0 1081,-36"/>
<text text-anchor="middle" x="1054" y="-14.3" font-family="Times,serif" font-size="14.00">द्वय&#45;</text>
</g>
<!-- Node2_6&#45;&gt;Node2_7 -->
<!-- Node2_7_3 -->
<g id="node14" class="node">
<title>Node2_7_3</title>
<polygon fill="#ffff00" stroke="#ffff00" points="1090,-109 944,-109 944,-73 1090,-73 1090,-109"/>
<text text-anchor="middle" x="1017" y="-87.3" font-family="Times,serif" font-size="14.00">&lt;माष&#45;द्वय&#45;&gt;(षष्ठी&#45;तत्पुरुषः)</text>
</g>
<!-- Node2_6&#45;&gt;Node2_7_3 -->
<g id="edge16" class="edge">
<title>Node2_6&#45;&gt;Node2_7_3</title>
<path fill="none" stroke="black" d="M982.82,-44.21C989.94,-53.74 997.86,-64.36 1004.29,-72.97"/>
<polygon fill="black" stroke="black" points="985.62,-42.11 976.83,-36.19 980.01,-46.29 985.62,-42.11"/>
</g>
<!-- Node2_7&#45;&gt;Node2_7_3 -->
<g id="edge15" class="edge">
<title>Node2_7&#45;&gt;Node2_7_3</title>
<path fill="none" stroke="black" d="M1040.41,-45.08C1035.56,-54.39 1030.22,-64.62 1025.87,-72.97"/>
<polygon fill="black" stroke="black" points="1043.53,-46.67 1045.04,-36.19 1037.32,-43.44 1043.53,-46.67"/>
</g>
<!-- Node2_7_4 -->
<g id="node16" class="node">
<title>Node2_7_4</title>
<polygon fill="#ffff00" stroke="#ffff00" points="1073.5,-182 824.5,-182 824.5,-146 1073.5,-146 1073.5,-182"/>
<text text-anchor="middle" x="949" y="-160.3" font-family="Times,serif" font-size="14.00">&lt;यव&#45;&lt;माष&#45;द्वय&#45;&gt;(षष्ठी&#45;तत्पुरुषः)&gt;(इतरेतर&#45;द्वन्द्वः)</text>
</g>
<!-- Node2_7_3&#45;&gt;Node2_7_4 -->
<g id="edge18" class="edge">
<title>Node2_7_3&#45;&gt;Node2_7_4</title>
<path fill="none" stroke="black" d="M993.41,-116.63C984.14,-126.31 973.72,-137.19 965.31,-145.97"/>
<polygon fill="black" stroke="black" points="996.15,-118.83 1000.54,-109.19 991.09,-113.99 996.15,-118.83"/>
</g>
<!-- Node2_5 -->
<g id="node15" class="node">
<title>Node2_5</title>
<polygon fill="#ffff00" stroke="#ffff00" points="908,-109 854,-109 854,-73 908,-73 908,-109"/>
<text text-anchor="middle" x="881" y="-87.3" font-family="Times,serif" font-size="14.00">यव&#45;</text>
</g>
<!-- Node2_5&#45;&gt;Node2_7_3 -->
<!-- Node2_5&#45;&gt;Node2_7_4 -->
<g id="edge19" class="edge">
<title>Node2_5&#45;&gt;Node2_7_4</title>
<path fill="none" stroke="black" d="M904.59,-116.63C913.86,-126.31 924.28,-137.19 932.69,-145.97"/>
<polygon fill="black" stroke="black" points="906.91,-113.99 897.46,-109.19 901.85,-118.83 906.91,-113.99"/>
</g>
<!-- Node2_7_4&#45;&gt;Node2_7_5 -->
<g id="edge21" class="edge">
<title>Node2_7_4&#45;&gt;Node2_7_5</title>
<path fill="none" stroke="black" d="M916.89,-188.03C902.9,-198.06 886.77,-209.63 873.86,-218.89"/>
<polygon fill="black" stroke="black" points="919.2,-190.68 925.29,-182.01 915.12,-184.99 919.2,-190.68"/>
</g>
<!-- Node2_4 -->
<g id="node17" class="node">
<title>Node2_4</title>
<polygon fill="#ffff00" stroke="#ffff00" points="789,-182 733,-182 733,-146 789,-146 789,-182"/>
<text text-anchor="middle" x="761" y="-160.3" font-family="Times,serif" font-size="14.00">कुल्माष&#45;</text>
</g>
<!-- Node2_4&#45;&gt;Node2_7_4 -->
<!-- Node2_4&#45;&gt;Node2_7_5 -->
<g id="edge22" class="edge">
<title>Node2_4&#45;&gt;Node2_7_5</title>
<path fill="none" stroke="black" d="M790.44,-188.49C802.93,-198.45 817.21,-209.84 828.65,-218.97"/>
<polygon fill="black" stroke="black" points="792.54,-185.69 782.54,-182.19 788.18,-191.16 792.54,-185.69"/>
</g>
<!-- Node2_7_5&#45;&gt;Node2_7_6 -->
<g id="edge24" class="edge">
<title>Node2_7_5&#45;&gt;Node2_7_6</title>
<path fill="none" stroke="black" d="M798.73,-258.92C773.01,-269.42 742.24,-281.97 717.94,-291.89"/>
<polygon fill="black" stroke="black" points="800.39,-262.02 808.32,-255.01 797.74,-255.54 800.39,-262.02"/>
</g>
<!-- Node2_8 -->
<g id="node20" class="node">
<title>Node2_8</title>
<polygon fill="#ffff00" stroke="#ffff00" points="1113,-328 1057,-328 1057,-292 1113,-292 1113,-328"/>
<text text-anchor="middle" x="1085" y="-306.3" font-family="Times,serif" font-size="14.00">आदिभिः</text>
</g>
<!-- Node2_7_6&#45;&gt;Node2_8 -->
<!-- Node2_8_7 -->
<g id="node21" class="node">
<title>Node2_8_7</title>
<polygon fill="#ffff00" stroke="#ffff00" points="1165.5,-401 346.5,-401 346.5,-365 1165.5,-365 1165.5,-401"/>
<text text-anchor="middle" x="756" y="-379.3" font-family="Times,serif" font-size="14.00">&lt;&lt;&lt;&lt;मेष&#45;अज&#45;&gt;(इतरेतर&#45;द्वन्द्वः)मध्य&#45;&gt;(षष्ठी&#45;तत्पुरुषः)&lt;कुल्माष&#45;&lt;यव&#45;&lt;माष&#45;द्वय&#45;&gt;(षष्ठी&#45;तत्पुरुषः)&gt;(इतरेतर&#45;द्वन्द्वः)&gt;(इतरेतर&#45;द्वन्द्वः)&gt;(इतरेतर&#45;द्वन्द्वः)आदिभिः&gt;(षष्ठी&#45;बहुव्रीहिः)</text>
</g>
<!-- Node2_7_6&#45;&gt;Node2_8_7 -->
<g id="edge28" class="edge">
<title>Node2_7_6&#45;&gt;Node2_8_7</title>
<path fill="none" stroke="black" d="M703.11,-335.06C714.18,-344.88 726.72,-356.01 736.81,-364.97"/>
<polygon fill="black" stroke="black" points="705.17,-332.21 695.37,-328.19 700.52,-337.44 705.17,-332.21"/>
</g>
<!-- Node2_8&#45;&gt;Node2_8_7 -->
<g id="edge27" class="edge">
<title>Node2_8&#45;&gt;Node2_8_7</title>
<path fill="none" stroke="black" d="M1047.28,-323.46C1041.84,-325.08 1036.3,-326.65 1031,-328 973.83,-342.56 909.13,-355.45 856.85,-364.97"/>
<polygon fill="black" stroke="black" points="1048.34,-326.8 1056.86,-320.51 1046.28,-320.11 1048.34,-326.8"/>
</g>
<!-- Node2_8_7&#45;&gt;Node2_8_7c -->
<g id="edge30" class="edge">
<title>Node2_8_7&#45;&gt;Node2_8_7c</title>
<path fill="none" stroke="black" d="M738.93,-409.79C732.72,-419.17 725.86,-429.54 720.27,-437.97"/>
<polygon fill="black" stroke="black" points="742.02,-411.46 744.62,-401.19 736.18,-407.59 742.02,-411.46"/>
</g>
</g>
</g>
<!-- Node2_8_7c -->
<g class="node22" onclick="toggleChildren('children_node2_70831');">
<title>Node2_8_7c</title>
<polygon fill="#40e0d0" stroke="#40e0d0" points="830.5,-474 587.5,-474 587.5,-438 830.5,-438 830.5,-474"/>
<text text-anchor="middle" x="709" y="-452.3" font-family="Times,serif" font-size="14.00">मेष&#45;अज&#45;मध्य&#45;कुल्माष&#45;यव&#45;माष&#45;द्वय&#45;आदिभिः(2)</text>
</g>
<!-- Node3_1 -->
<g id="node23" class="node">
<title>Node3_1</title>
<polygon fill="#ff1975" stroke="#ff1975" points="605,-561 525,-561 525,-525 605,-525 605,-561"/>
<text text-anchor="middle" x="565" y="-539.3" font-family="Times,serif" font-size="14.00">(उपक्रमेत)(3)</text>
</g>
<!-- Node1_3_2c&#45;&gt;Node3_1 -->
<g id="edge8" class="edge">
<title>Node1_3_2c&#45;&gt;Node3_1</title>
<path fill="none" stroke="black" d="M495.56,-481.15C511.46,-495.08 531.08,-512.27 545.4,-524.82"/>
<polygon fill="black" stroke="black" points="497.46,-478.16 487.63,-474.2 492.84,-483.42 497.46,-478.16"/>
<text text-anchor="middle" x="531" y="-495.8" font-family="Times,serif" font-size="14.00">कर्म</text>
</g>
<!-- Node2_8_7c&#45;&gt;Node3_1 -->
<g id="edge31" class="edge">
<title>Node2_8_7c&#45;&gt;Node3_1</title>
<path fill="none" stroke="black" d="M670.98,-479.44C646.9,-493.65 616.24,-511.75 594.1,-524.82"/>
<polygon fill="black" stroke="black" points="673.03,-482.3 679.86,-474.2 669.47,-476.27 673.03,-482.3"/>
<text text-anchor="middle" x="661.5" y="-495.8" font-family="Times,serif" font-size="14.00">करणम्</text>
</g>
</g>
</svg>
