<svg width="972pt" height="378pt"
 viewBox="0.00 0.00 972.00 378.00" xmlns="http://www.w3.org/2000/svg" xmlns:xlink="http://www.w3.org/1999/xlink">
<g id="graph0" class="graph" transform="scale(1 1) rotate(0) translate(4 374)">
<title>G</title>
<polygon fill="#fffacd" stroke="transparent" points="-4,4 -4,-374 968,-374 968,4 -4,4"/>
<g id="clust1" class="cluster">
<title>cluster_1</title>
<polygon fill="#fffacd" stroke="black" points="173,-65 173,-117 340,-117 340,-65 173,-65"/>
</g>
<!-- Node6_1 -->
<style>
 .hidden { display: none; }
 .node { cursor: pointer; }
 </style>
<script>
     function toggleChildren(id) {
      const children = document.getElementById(id);
      if (children.classList.contains('hidden')) {
        children.classList.remove('hidden');
      } else {
        children.classList.add('hidden');
      }
    }
</script>
<g id="children_node0_70727" class="hidden">
    <g class="node" onclick="toggleChildren('children_node0_70727');">
</g>
</g>
<g id="children_node1_70727" class="hidden">
    <g class="node" onclick="toggleChildren('children_node1_70727');">

<g id="node1" class="node">
<title>Node6_1</title>
<polygon fill="#ffff00" stroke="#ffff00" points="54,-36 0,-36 0,0 54,0 54,-36"/>
<text text-anchor="middle" x="27" y="-14.3" font-family="Times,serif" font-size="14.00">स&#45;</text>
</g>
<!-- Node6_2 -->
<g id="node2" class="node">
<title>Node6_2</title>
<polygon fill="#ffff00" stroke="#ffff00" points="144,-36 90,-36 90,0 144,0 144,-36"/>
<text text-anchor="middle" x="117" y="-14.3" font-family="Times,serif" font-size="14.00">अस्रम्</text>
</g>
<!-- Node6_1&#45;&gt;Node6_2 -->
<!-- Node6_2_1 -->
<g id="node3" class="node">
<title>Node6_2_1</title>
<polygon fill="#ffff00" stroke="#ffff00" points="163.5,-109 24.5,-109 24.5,-73 163.5,-73 163.5,-109"/>
<text text-anchor="middle" x="94" y="-87.3" font-family="Times,serif" font-size="14.00">&lt;स&#45;अस्रम्&gt;(अव्ययीभावः)</text>
</g>
<!-- Node6_1&#45;&gt;Node6_2_1 -->
<g id="edge2" class="edge">
<title>Node6_1&#45;&gt;Node6_2_1</title>
<path fill="none" stroke="black" d="M50.24,-43.63C59.38,-53.31 69.64,-64.19 77.93,-72.97"/>
<polygon fill="black" stroke="black" points="52.63,-41.06 43.22,-36.19 47.54,-45.86 52.63,-41.06"/>
</g>
<!-- Node6_2&#45;&gt;Node6_2_1 -->
<g id="edge1" class="edge">
<title>Node6_2&#45;&gt;Node6_2_1</title>
<path fill="none" stroke="black" d="M108.27,-45.95C105.33,-55.02 102.14,-64.88 99.52,-72.97"/>
<polygon fill="black" stroke="black" points="111.68,-46.78 111.43,-36.19 105.02,-44.62 111.68,-46.78"/>
</g>
<!-- Node6_2_1&#45;&gt;Node6_2_1c -->
<g id="edge4" class="edge">
<title>Node6_2_1&#45;&gt;Node6_2_1c</title>
<path fill="none" stroke="black" d="M144.46,-113.13C180.58,-128.25 228.36,-148.26 260.74,-161.82"/>
<polygon fill="black" stroke="black" points="145.66,-109.83 135.08,-109.2 142.95,-116.29 145.66,-109.83"/>
</g>
</g>
</g>
<!-- Node6_2_1c -->
<g class="node4" onclick="toggleChildren('children_node1_70727');">
<title>Node6_2_1c</title>
<polygon fill="#93db70" stroke="#93db70" points="333,-196 261,-196 261,-160 333,-160 333,-196"/>
<text text-anchor="middle" x="297" y="-174.3" font-family="Times,serif" font-size="14.00">स&#45;अस्रम्(6)</text>
</g>
<g id="children_node2_70727" class="hidden">
    <g class="node" onclick="toggleChildren('children_node2_70727');">
<!-- Node10_1 -->
<g id="node5" class="node">
<title>Node10_1</title>
<polygon fill="#ffff00" stroke="#ffff00" points="555,-36 501,-36 501,0 555,0 555,-36"/>
<text text-anchor="middle" x="528" y="-14.3" font-family="Times,serif" font-size="14.00">रोम&#45;</text>
</g>
<!-- Node10_2 -->
<g id="node6" class="node">
<title>Node10_2</title>
<polygon fill="#ffff00" stroke="#ffff00" points="645,-36 591,-36 591,0 645,0 645,-36"/>
<text text-anchor="middle" x="618" y="-14.3" font-family="Times,serif" font-size="14.00">च्युतिः</text>
</g>
<!-- Node10_1&#45;&gt;Node10_2 -->
<!-- Node10_2_1 -->
<g id="node7" class="node">
<title>Node10_2_1</title>
<polygon fill="#ffff00" stroke="#ffff00" points="646,-109 494,-109 494,-73 646,-73 646,-109"/>
<text text-anchor="middle" x="570" y="-87.3" font-family="Times,serif" font-size="14.00">&lt;रोम&#45;च्युतिः&gt;(षष्ठी&#45;तत्पुरुषः)</text>
</g>
<!-- Node10_1&#45;&gt;Node10_2_1 -->
<g id="edge7" class="edge">
<title>Node10_1&#45;&gt;Node10_2_1</title>
<path fill="none" stroke="black" d="M543.43,-45.08C548.93,-54.39 554.99,-64.62 559.93,-72.97"/>
<polygon fill="black" stroke="black" points="546.27,-43.01 538.17,-36.19 540.25,-46.58 546.27,-43.01"/>
</g>
<!-- Node10_2&#45;&gt;Node10_2_1 -->
<g id="edge6" class="edge">
<title>Node10_2&#45;&gt;Node10_2_1</title>
<path fill="none" stroke="black" d="M600.76,-44.5C594.37,-53.96 587.27,-64.45 581.51,-72.97"/>
<polygon fill="black" stroke="black" points="603.68,-46.43 606.38,-36.19 597.88,-42.51 603.68,-46.43"/>
</g>
<!-- Node10_2_1&#45;&gt;Node10_2_1c -->
<g id="edge9" class="edge">
<title>Node10_2_1&#45;&gt;Node10_2_1c</title>
<path fill="none" stroke="black" d="M576.74,-119.27C580.03,-132.58 583.88,-148.19 586.76,-159.82"/>
<polygon fill="black" stroke="black" points="580.05,-118.07 574.25,-109.2 573.25,-119.75 580.05,-118.07"/>
</g>
</g>
</g>
<!-- Node10_2_1c -->
<g class="node8" onclick="toggleChildren('children_node2_70727');">
<title>Node10_2_1c</title>
<polygon fill="#00bfff" stroke="#00bfff" points="635,-196 547,-196 547,-160 635,-160 635,-196"/>
<text text-anchor="middle" x="591" y="-174.3" font-family="Times,serif" font-size="14.00">रोम&#45;च्युतिः(10)</text>
</g>
<g id="children_node3_70727" class="hidden">
    <g class="node" onclick="toggleChildren('children_node3_70727');">
<!-- Node11_1 -->
<g id="node9" class="node">
<title>Node11_1</title>
<polygon fill="#ffff00" stroke="#ffff00" points="733,-36 679,-36 679,0 733,0 733,-36"/>
<text text-anchor="middle" x="706" y="-14.3" font-family="Times,serif" font-size="14.00">स्तब्ध&#45;</text>
</g>
<!-- Node11_2 -->
<g id="node10" class="node">
<title>Node11_2</title>
<polygon fill="#ffff00" stroke="#ffff00" points="823,-36 769,-36 769,0 823,0 823,-36"/>
<text text-anchor="middle" x="796" y="-14.3" font-family="Times,serif" font-size="14.00">रोमता</text>
</g>
<!-- Node11_1&#45;&gt;Node11_2 -->
<!-- Node11_2_1 -->
<g id="node11" class="node">
<title>Node11_2_1</title>
<polygon fill="#ffff00" stroke="#ffff00" points="810,-109 664,-109 664,-73 810,-73 810,-109"/>
<text text-anchor="middle" x="737" y="-87.3" font-family="Times,serif" font-size="14.00">&lt;स्तब्ध&#45;रोमता&gt;(कर्मधारयः)</text>
</g>
<!-- Node11_1&#45;&gt;Node11_2_1 -->
<g id="edge12" class="edge">
<title>Node11_1&#45;&gt;Node11_2_1</title>
<path fill="none" stroke="black" d="M717.51,-45.37C721.54,-54.6 725.96,-64.71 729.56,-72.97"/>
<polygon fill="black" stroke="black" points="720.71,-43.95 713.5,-36.19 714.3,-46.75 720.71,-43.95"/>
</g>
<!-- Node11_2&#45;&gt;Node11_2_1 -->
<g id="edge11" class="edge">
<title>Node11_2&#45;&gt;Node11_2_1</title>
<path fill="none" stroke="black" d="M775.29,-43.92C767.31,-53.53 758.38,-64.27 751.15,-72.97"/>
<polygon fill="black" stroke="black" points="778.02,-46.12 781.72,-36.19 772.63,-41.64 778.02,-46.12"/>
</g>
<!-- Node11_2_1&#45;&gt;Node11_2_1c -->
<g id="edge14" class="edge">
<title>Node11_2_1&#45;&gt;Node11_2_1c</title>
<path fill="none" stroke="black" d="M734.75,-119.27C733.66,-132.58 732.37,-148.19 731.41,-159.82"/>
<polygon fill="black" stroke="black" points="738.25,-119.45 735.58,-109.2 731.27,-118.88 738.25,-119.45"/>
</g>
</g>
</g>
<!-- Node11_2_1c -->
<g class="node12" onclick="toggleChildren('children_node3_70727');">
<title>Node11_2_1c</title>
<polygon fill="#00bfff" stroke="#00bfff" points="778.5,-196 681.5,-196 681.5,-160 778.5,-160 778.5,-196"/>
<text text-anchor="middle" x="730" y="-174.3" font-family="Times,serif" font-size="14.00">स्तब्ध&#45;रोमता(11)</text>
</g>
<!-- Node3_1 -->
<g id="node16" class="node">
<title>Node3_1</title>
<polygon fill="#ff1975" stroke="#ff1975" points="409,-283 347,-283 347,-247 409,-247 409,-283"/>
<text text-anchor="middle" x="378" y="-261.3" font-family="Times,serif" font-size="14.00">मूत्रयेत्(3)</text>
</g>
<!-- Node6_2_1c&#45;&gt;Node3_1 -->
<g id="edge5" class="edge">
<title>Node6_2_1c&#45;&gt;Node3_1</title>
<path fill="none" stroke="black" d="M320.38,-203.53C333.59,-217.4 349.78,-234.39 361.63,-246.82"/>
<polygon fill="black" stroke="black" points="322.82,-201.03 313.39,-196.2 317.76,-205.85 322.82,-201.03"/>
<text text-anchor="middle" x="351" y="-217.8" font-family="Times,serif" font-size="14.00">कर्म</text>
</g>
<!-- Node12_1 -->
<g id="node22" class="node">
<title>Node12_1</title>
<polygon fill="#00bfff" stroke="#00bfff" points="829,-283 755,-283 755,-247 829,-247 829,-283"/>
<text text-anchor="middle" x="792" y="-261.3" font-family="Times,serif" font-size="14.00">स्फुटनम्(12)</text>
</g>
<!-- Node10_2_1c&#45;&gt;Node12_1 -->
<g id="edge10" class="edge">
<title>Node10_2_1c&#45;&gt;Node12_1</title>
<path fill="none" stroke="black" d="M635.41,-200.46C654.79,-209.59 677.87,-220.15 699,-229 717.14,-236.6 737.56,-244.37 754.64,-250.66"/>
<polygon fill="black" stroke="black" points="636.75,-197.22 626.22,-196.1 633.76,-203.55 636.75,-197.22"/>
<text text-anchor="middle" x="721.5" y="-217.8" font-family="Times,serif" font-size="14.00">समुच्चितः</text>
</g>
<!-- Node11_2_1c&#45;&gt;Node12_1 -->
<g id="edge15" class="edge">
<title>Node11_2_1c&#45;&gt;Node12_1</title>
<path fill="none" stroke="black" d="M743.01,-205.23C747.37,-213.14 752.53,-221.66 758,-229 762.56,-235.11 768.11,-241.25 773.4,-246.65"/>
<polygon fill="black" stroke="black" points="746.07,-203.53 738.29,-196.34 739.89,-206.82 746.07,-203.53"/>
<text text-anchor="middle" x="780.5" y="-217.8" font-family="Times,serif" font-size="14.00">समुच्चितः</text>
</g>
<!-- Node2_1 -->
<g id="node13" class="node">
<title>Node2_1</title>
<polygon fill="#93db70" stroke="#93db70" points="244.5,-109 181.5,-109 181.5,-73 244.5,-73 244.5,-109"/>
<text text-anchor="middle" x="213" y="-87.3" font-family="Times,serif" font-size="14.00">अल्पम्(2)</text>
</g>
<!-- Node2_1&#45;&gt;Node6_2_1c -->
<g id="edge17" class="edge">
<title>Node2_1&#45;&gt;Node6_2_1c</title>
<path fill="none" stroke="black" d="M227.45,-117.97C232.68,-126.16 239.04,-134.92 246,-142 252.47,-148.59 260.35,-154.7 267.96,-159.91"/>
<polygon fill="black" stroke="black" points="230.42,-116.12 222.23,-109.4 224.44,-119.76 230.42,-116.12"/>
<text text-anchor="middle" x="269.5" y="-130.8" font-family="Times,serif" font-size="14.00">विशेषणम्</text>
</g>
<!-- Node5_1 -->
<g id="node14" class="node">
<title>Node5_1</title>
<polygon fill="#93db70" stroke="#93db70" points="331.5,-109 262.5,-109 262.5,-73 331.5,-73 331.5,-109"/>
<text text-anchor="middle" x="297" y="-87.3" font-family="Times,serif" font-size="14.00">विवर्णम्(5)</text>
</g>
<!-- Node5_1&#45;&gt;Node6_2_1c -->
<g id="edge19" class="edge">
<title>Node5_1&#45;&gt;Node6_2_1c</title>
<path fill="none" stroke="black" d="M297,-119.27C297,-132.58 297,-148.19 297,-159.82"/>
<polygon fill="black" stroke="black" points="300.5,-119.2 297,-109.2 293.5,-119.2 300.5,-119.2"/>
<text text-anchor="middle" x="320.5" y="-130.8" font-family="Times,serif" font-size="14.00">विशेषणम्</text>
</g>
<!-- Node1_1 -->
<g id="node15" class="node">
<title>Node1_1</title>
<polygon fill="#c6e2eb" stroke="#c6e2eb" points="405,-196 351,-196 351,-160 405,-160 405,-196"/>
<text text-anchor="middle" x="378" y="-174.3" font-family="Times,serif" font-size="14.00">मूत्रे(1)</text>
</g>
<!-- Node1_1&#45;&gt;Node3_1 -->
<g id="edge16" class="edge">
<title>Node1_1&#45;&gt;Node3_1</title>
<path fill="none" stroke="black" d="M378,-206.27C378,-219.58 378,-235.19 378,-246.82"/>
<polygon fill="black" stroke="black" points="381.5,-206.2 378,-196.2 374.5,-206.2 381.5,-206.2"/>
<text text-anchor="middle" x="405.5" y="-217.8" font-family="Times,serif" font-size="14.00">अधिकरणम्</text>
</g>
<!-- Node4_1 -->
<g id="node17" class="node">
<title>Node4_1</title>
<polygon fill="#b4ffb4" stroke="#b4ffb4" points="491,-196 423,-196 423,-160 491,-160 491,-196"/>
<text text-anchor="middle" x="457" y="-174.3" font-family="Times,serif" font-size="14.00">कृच्छ्रात्(4)</text>
</g>
<!-- Node4_1&#45;&gt;Node3_1 -->
<g id="edge18" class="edge">
<title>Node4_1&#45;&gt;Node3_1</title>
<path fill="none" stroke="black" d="M448.74,-205.7C445.37,-213.78 440.85,-222.29 435,-229 427.9,-237.14 418.44,-243.98 409.26,-249.4"/>
<polygon fill="black" stroke="black" points="452.07,-206.78 452.31,-196.19 445.52,-204.32 452.07,-206.78"/>
<text text-anchor="middle" x="480.5" y="-217.8" font-family="Times,serif" font-size="14.00">क्रियाविशेषणम्</text>
</g>
<!-- Node7_1 -->
<g id="node18" class="node">
<title>Node7_1</title>
<polygon fill="#ff99ff" stroke="#ff99ff" points="404,-109 350,-109 350,-73 404,-73 404,-109"/>
<text text-anchor="middle" x="377" y="-87.3" font-family="Times,serif" font-size="14.00">एव(7)</text>
</g>
<!-- Node7_1&#45;&gt;Node6_2_1c -->
<g id="edge20" class="edge">
<title>Node7_1&#45;&gt;Node6_2_1c</title>
<path fill="none" stroke="black" d="M364.48,-118.56C359.96,-126.61 354.37,-135.12 348,-142 341.8,-148.69 334.09,-154.8 326.56,-159.97"/>
<polygon fill="black" stroke="black" points="367.71,-119.94 369.28,-109.46 361.52,-116.67 367.71,-119.94"/>
<text text-anchor="middle" x="376.5" y="-130.8" font-family="Times,serif" font-size="14.00">सम्बन्धः</text>
</g>
<!-- Node8_1 -->
<g id="node19" class="node">
<title>Node8_1</title>
<polygon fill="#ff99ff" stroke="#ff99ff" points="476,-109 422,-109 422,-73 476,-73 476,-109"/>
<text text-anchor="middle" x="449" y="-87.3" font-family="Times,serif" font-size="14.00">वा(8)</text>
</g>
<!-- Node8_1&#45;&gt;Node6_2_1c -->
<g id="edge21" class="edge">
<title>Node8_1&#45;&gt;Node6_2_1c</title>
<path fill="none" stroke="black" d="M428.51,-117.03C420.14,-125.95 409.88,-135.4 399,-142 376.29,-155.79 367.1,-151.3 342,-160 339.16,-160.98 336.23,-162.03 333.29,-163.09"/>
<polygon fill="black" stroke="black" points="431.26,-119.21 435.34,-109.43 426.05,-114.53 431.26,-119.21"/>
<text text-anchor="middle" x="435.5" y="-130.8" font-family="Times,serif" font-size="14.00">सम्बन्धः</text>
</g>
<!-- Node9_1 -->
<g id="node20" class="node">
<title>Node9_1</title>
<polygon fill="#c6e2eb" stroke="#c6e2eb" points="901,-283 847,-283 847,-247 901,-247 901,-283"/>
<text text-anchor="middle" x="874" y="-261.3" font-family="Times,serif" font-size="14.00">स्वेदे(9)</text>
</g>
<!-- Node13_2 -->
<g id="node21" class="node">
<title>Node13_2</title>
<polygon fill="#ff1975" stroke="#ff1975" points="870,-370 796,-370 796,-334 870,-334 870,-370"/>
<text text-anchor="middle" x="833" y="-348.3" font-family="Times,serif" font-size="14.00">(भवति)(13)</text>
</g>
<!-- Node9_1&#45;&gt;Node13_2 -->
<g id="edge22" class="edge">
<title>Node9_1&#45;&gt;Node13_2</title>
<path fill="none" stroke="black" d="M861.23,-292.48C854.72,-305.96 847.01,-321.96 841.28,-333.82"/>
<polygon fill="black" stroke="black" points="864.51,-293.73 865.7,-283.2 858.21,-290.69 864.51,-293.73"/>
<text text-anchor="middle" x="882.5" y="-304.8" font-family="Times,serif" font-size="14.00">अधिकरणम्</text>
</g>
<!-- Node12_1&#45;&gt;Node13_2 -->
<g id="edge23" class="edge">
<title>Node12_1&#45;&gt;Node13_2</title>
<path fill="none" stroke="black" d="M804.77,-292.48C811.28,-305.96 818.99,-321.96 824.72,-333.82"/>
<polygon fill="black" stroke="black" points="807.79,-290.69 800.3,-283.2 801.49,-293.73 807.79,-290.69"/>
<text text-anchor="middle" x="825" y="-304.8" font-family="Times,serif" font-size="14.00">कर्ता</text>
</g>
<!-- Node13_1 -->
<g id="node23" class="node">
<title>Node13_1</title>
<polygon fill="#87ceeb" stroke="#87ceeb" points="859.5,-196 796.5,-196 796.5,-160 859.5,-160 859.5,-196"/>
<text text-anchor="middle" x="828" y="-174.3" font-family="Times,serif" font-size="14.00">त्वचः(13)</text>
</g>
<!-- Node13_1&#45;&gt;Node12_1 -->
<g id="edge24" class="edge">
<title>Node13_1&#45;&gt;Node12_1</title>
<path fill="none" stroke="black" d="M816.79,-205.48C811.08,-218.96 804.3,-234.96 799.27,-246.82"/>
<polygon fill="black" stroke="black" points="820.04,-206.77 820.71,-196.2 813.59,-204.04 820.04,-206.77"/>
<text text-anchor="middle" x="840" y="-217.8" font-family="Times,serif" font-size="14.00">षष्ठीसम्बन्धः</text>
</g>
<!-- Node13_3 -->
<g id="node24" class="node">
<title>Node13_3</title>
<polygon fill="#ff99ff" stroke="#ff99ff" points="934.5,-196 877.5,-196 877.5,-160 934.5,-160 934.5,-196"/>
<text text-anchor="middle" x="906" y="-174.3" font-family="Times,serif" font-size="14.00">(च)(13)</text>
</g>
<!-- Node13_3&#45;&gt;Node12_1 -->
<g id="edge25" class="edge">
<title>Node13_3&#45;&gt;Node12_1</title>
<path fill="none" stroke="black" d="M892.42,-204.74C886.95,-213.3 880.03,-222.33 872,-229 864.94,-234.86 846.69,-243 829.39,-249.95"/>
<polygon fill="black" stroke="black" points="895.44,-206.5 897.57,-196.12 889.43,-202.91 895.44,-206.5"/>
<text text-anchor="middle" x="924.5" y="-217.8" font-family="Times,serif" font-size="14.00">समुच्चय_द्योतकः</text>
</g>
</g>
</svg>
