<?xml version="1.0" encoding="UTF-8" standalone="no"?>
<!DOCTYPE svg PUBLIC "-//W3C//DTD SVG 1.1//EN"
 "http://www.w3.org/Graphics/SVG/1.1/DTD/svg11.dtd">
<!-- Generated by graphviz version 2.50.0 (20211204.2007)
 -->
<!-- Title: G Pages: 1 -->
<svg width="980pt" height="305pt"
 viewBox="0.00 0.00 980.24 305.00" xmlns="http://www.w3.org/2000/svg" xmlns:xlink="http://www.w3.org/1999/xlink">
<g id="graph0" class="graph" transform="scale(1 1) rotate(0) translate(4 301)">
<title>G</title>
<polygon fill="#fffacd" stroke="transparent" points="-4,4 -4,-301 976.24,-301 976.24,4 -4,4"/>
<g id="clust1" class="cluster">
<title>cluster_1</title>
<polygon fill="#fffacd" stroke="black" points="450.6,-79 450.6,-218 670.6,-218 670.6,-79 450.6,-79"/>
</g>
<g id="clust2" class="cluster">
<title>cluster_2</title>
<polygon fill="#fffacd" stroke="black" points="86.6,-79 86.6,-218 208.6,-218 208.6,-79 86.6,-79"/>
</g>
<!-- Node3_6 -->
<g id="node1" class="node">
<title>Node3_6</title>
<ellipse fill="#40e0d0" stroke="#40e0d0" cx="508.6" cy="-105" rx="50.09" ry="18"/>
<text text-anchor="middle" x="508.6" y="-101.3" font-family="Times,serif" font-size="14.00">प्रवर्तनैः(3.6)</text>
</g>
<!-- Node9_1 -->
<g id="node2" class="node">
<title>Node9_1</title>
<ellipse fill="#40e0d0" stroke="#40e0d0" cx="508.6" cy="-192" rx="48.19" ry="18"/>
<text text-anchor="middle" x="508.6" y="-188.3" font-family="Times,serif" font-size="14.00">पाटवेन(9.1)</text>
</g>
<!-- Node3_6&#45;&gt;Node9_1 -->
<g id="edge8" class="edge">
<title>Node3_6&#45;&gt;Node9_1</title>
<path fill="none" stroke="black" d="M508.6,-133.27C508.6,-146.58 508.6,-162.19 508.6,-173.82"/>
<polygon fill="black" stroke="black" points="512.1,-133.2 508.6,-123.2 505.1,-133.2 512.1,-133.2"/>
<text text-anchor="middle" x="531.1" y="-144.8" font-family="Times,serif" font-size="14.00">समुच्चितः</text>
</g>
<!-- Node11_1 -->
<g id="node7" class="node">
<title>Node11_1</title>
<ellipse fill="#ff1975" stroke="#ff1975" cx="257.6" cy="-279" rx="63.09" ry="18"/>
<text text-anchor="middle" x="257.6" y="-275.3" font-family="Times,serif" font-size="14.00">अनुगृह्णाति(11.1)</text>
</g>
<!-- Node9_1&#45;&gt;Node11_1 -->
<g id="edge14" class="edge">
<title>Node9_1&#45;&gt;Node11_1</title>
<path fill="none" stroke="black" d="M464.51,-207.93C416.95,-224.04 341.94,-249.44 296.49,-264.83"/>
<polygon fill="black" stroke="black" points="465.87,-211.16 474.22,-204.64 463.63,-204.53 465.87,-211.16"/>
<text text-anchor="middle" x="408.1" y="-231.8" font-family="Times,serif" font-size="14.00">हेतुः</text>
</g>
<!-- Node5_1 -->
<g id="node3" class="node">
<title>Node5_1</title>
<ellipse fill="#40e0d0" stroke="#40e0d0" cx="619.6" cy="-105" rx="42.79" ry="18"/>
<text text-anchor="middle" x="619.6" y="-101.3" font-family="Times,serif" font-size="14.00">गत्या(5.1)</text>
</g>
<!-- Node5_1&#45;&gt;Node9_1 -->
<g id="edge10" class="edge">
<title>Node5_1&#45;&gt;Node9_1</title>
<path fill="none" stroke="black" d="M593.19,-127.86C582.28,-136.74 569.44,-147 557.6,-156 548.94,-162.58 539.23,-169.58 530.75,-175.59"/>
<polygon fill="black" stroke="black" points="595.58,-130.43 601.1,-121.38 591.15,-125.01 595.58,-130.43"/>
<text text-anchor="middle" x="600.1" y="-144.8" font-family="Times,serif" font-size="14.00">समुच्चितः</text>
</g>
<!-- Node12_2 -->
<g id="node4" class="node">
<title>Node12_2</title>
<ellipse fill="#00bfff" stroke="#00bfff" cx="147.6" cy="-105" rx="53.09" ry="18"/>
<text text-anchor="middle" x="147.6" y="-101.3" font-family="Times,serif" font-size="14.00">विकृतः(12.2)</text>
</g>
<!-- Node2_1 -->
<g id="node5" class="node">
<title>Node2_1</title>
<ellipse fill="#00bfff" stroke="#00bfff" cx="155.6" cy="-192" rx="42.49" ry="18"/>
<text text-anchor="middle" x="155.6" y="-188.3" font-family="Times,serif" font-size="14.00">चलः(2.1)</text>
</g>
<!-- Node12_2&#45;&gt;Node2_1 -->
<g id="edge17" class="edge">
<title>Node12_2&#45;&gt;Node2_1</title>
<path fill="none" stroke="black" d="M150.16,-133.27C151.42,-146.58 152.89,-162.19 153.98,-173.82"/>
<polygon fill="black" stroke="black" points="153.64,-132.83 149.22,-123.2 146.67,-133.49 153.64,-132.83"/>
<text text-anchor="middle" x="176.1" y="-144.8" font-family="Times,serif" font-size="14.00">विशेषणम्</text>
</g>
<!-- Node2_1&#45;&gt;Node11_1 -->
<g id="edge2" class="edge">
<title>Node2_1&#45;&gt;Node11_1</title>
<path fill="none" stroke="black" d="M182.42,-215.35C199.85,-229.88 222.18,-248.49 237.96,-261.64"/>
<polygon fill="black" stroke="black" points="184.23,-212.3 174.3,-208.59 179.75,-217.68 184.23,-212.3"/>
<text text-anchor="middle" x="224.6" y="-231.8" font-family="Times,serif" font-size="14.00">कर्ता</text>
</g>
<!-- Node1_1 -->
<g id="node6" class="node">
<title>Node1_1</title>
<ellipse fill="#93db70" stroke="#93db70" cx="257.6" cy="-192" rx="37.89" ry="18"/>
<text text-anchor="middle" x="257.6" y="-188.3" font-family="Times,serif" font-size="14.00">तम्(1.1)</text>
</g>
<!-- Node1_1&#45;&gt;Node11_1 -->
<g id="edge1" class="edge">
<title>Node1_1&#45;&gt;Node11_1</title>
<path fill="none" stroke="black" d="M257.6,-220.27C257.6,-233.58 257.6,-249.19 257.6,-260.82"/>
<polygon fill="black" stroke="black" points="261.1,-220.2 257.6,-210.2 254.1,-220.2 261.1,-220.2"/>
<text text-anchor="middle" x="266.6" y="-231.8" font-family="Times,serif" font-size="14.00">कर्म</text>
</g>
<!-- Node3_1 -->
<g id="node8" class="node">
<title>Node3_1</title>
<ellipse fill="#ffff00" stroke="#ffff00" cx="151.6" cy="-18" rx="50.09" ry="18"/>
<text text-anchor="middle" x="151.6" y="-14.3" font-family="Times,serif" font-size="14.00">उत्साह&#45;(3.1)</text>
</g>
<!-- Node3_1&#45;&gt;Node3_6 -->
<g id="edge3" class="edge">
<title>Node3_1&#45;&gt;Node3_6</title>
<path fill="none" stroke="black" d="M187.51,-37.74C210.81,-48.94 242.21,-62.26 271.6,-69 348.83,-86.71 372.42,-61.06 449.6,-79 460.11,-81.44 471.12,-85.62 480.75,-89.88"/>
<polygon fill="black" stroke="black" points="188.88,-34.51 178.36,-33.25 185.8,-40.8 188.88,-34.51"/>
<text text-anchor="middle" x="300.6" y="-57.8" font-family="Times,serif" font-size="14.00">इतरेतर&#45;द्वन्द्वः</text>
</g>
<!-- Node3_2 -->
<g id="node9" class="node">
<title>Node3_2</title>
<ellipse fill="#ffff00" stroke="#ffff00" cx="272.6" cy="-18" rx="52.79" ry="18"/>
<text text-anchor="middle" x="272.6" y="-14.3" font-family="Times,serif" font-size="14.00">उच्छ्वास&#45;(3.2)</text>
</g>
<!-- Node3_2&#45;&gt;Node3_6 -->
<g id="edge4" class="edge">
<title>Node3_2&#45;&gt;Node3_6</title>
<path fill="none" stroke="black" d="M304.96,-39.57C323,-50.07 346.29,-62.06 368.6,-69 403.23,-79.77 414.56,-69.61 449.6,-79 459.8,-81.74 470.56,-85.88 480.05,-90.02"/>
<polygon fill="black" stroke="black" points="306.41,-36.36 296.03,-34.25 302.83,-42.37 306.41,-36.36"/>
<text text-anchor="middle" x="397.6" y="-57.8" font-family="Times,serif" font-size="14.00">इतरेतर&#45;द्वन्द्वः</text>
</g>
<!-- Node3_3 -->
<g id="node10" class="node">
<title>Node3_3</title>
<ellipse fill="#ffff00" stroke="#ffff00" cx="394.6" cy="-18" rx="51.19" ry="18"/>
<text text-anchor="middle" x="394.6" y="-14.3" font-family="Times,serif" font-size="14.00">निश्वास&#45;(3.3)</text>
</g>
<!-- Node3_3&#45;&gt;Node3_6 -->
<g id="edge5" class="edge">
<title>Node3_3&#45;&gt;Node3_6</title>
<path fill="none" stroke="black" d="M416.86,-42.81C425.68,-51.58 436.18,-61.25 446.6,-69 457.11,-76.82 469.54,-84.17 480.51,-90.09"/>
<polygon fill="black" stroke="black" points="419.1,-40.1 409.6,-35.42 414.11,-45 419.1,-40.1"/>
<text text-anchor="middle" x="475.6" y="-57.8" font-family="Times,serif" font-size="14.00">इतरेतर&#45;द्वन्द्वः</text>
</g>
<!-- Node3_4 -->
<g id="node11" class="node">
<title>Node3_4</title>
<ellipse fill="#ffff00" stroke="#ffff00" cx="508.6" cy="-18" rx="44.39" ry="18"/>
<text text-anchor="middle" x="508.6" y="-14.3" font-family="Times,serif" font-size="14.00">चेष्टा&#45;(3.4)</text>
</g>
<!-- Node3_4&#45;&gt;Node3_6 -->
<g id="edge6" class="edge">
<title>Node3_4&#45;&gt;Node3_6</title>
<path fill="none" stroke="black" d="M508.6,-46.27C508.6,-59.58 508.6,-75.19 508.6,-86.82"/>
<polygon fill="black" stroke="black" points="512.1,-46.2 508.6,-36.2 505.1,-46.2 512.1,-46.2"/>
<text text-anchor="middle" x="537.6" y="-57.8" font-family="Times,serif" font-size="14.00">इतरेतर&#45;द्वन्द्वः</text>
</g>
<!-- Node3_5 -->
<g id="node12" class="node">
<title>Node3_5</title>
<ellipse fill="#ffff00" stroke="#ffff00" cx="610.6" cy="-18" rx="40.09" ry="18"/>
<text text-anchor="middle" x="610.6" y="-14.3" font-family="Times,serif" font-size="14.00">वेग&#45;(3.5)</text>
</g>
<!-- Node3_5&#45;&gt;Node3_6 -->
<g id="edge7" class="edge">
<title>Node3_5&#45;&gt;Node3_6</title>
<path fill="none" stroke="black" d="M593.67,-43.92C587.1,-52.5 579.11,-61.76 570.6,-69 560.9,-77.25 548.97,-84.53 538.17,-90.28"/>
<polygon fill="black" stroke="black" points="596.63,-45.8 599.73,-35.67 590.99,-41.65 596.63,-45.8"/>
<text text-anchor="middle" x="614.6" y="-57.8" font-family="Times,serif" font-size="14.00">इतरेतर&#45;द्वन्द्वः</text>
</g>
<!-- Node4_1 -->
<g id="node13" class="node">
<title>Node4_1</title>
<ellipse fill="#ff99ff" stroke="#ff99ff" cx="716.6" cy="-18" rx="47.39" ry="18"/>
<text text-anchor="middle" x="716.6" y="-14.3" font-family="Times,serif" font-size="14.00">सम्यक्(4.1)</text>
</g>
<!-- Node4_1&#45;&gt;Node5_1 -->
<g id="edge9" class="edge">
<title>Node4_1&#45;&gt;Node5_1</title>
<path fill="none" stroke="black" d="M697.21,-43.61C689.94,-52.11 681.32,-61.4 672.6,-69 663.78,-76.68 653.18,-84 643.78,-89.94"/>
<polygon fill="black" stroke="black" points="700.02,-45.7 703.73,-35.77 694.64,-41.22 700.02,-45.7"/>
<text text-anchor="middle" x="724.1" y="-57.8" font-family="Times,serif" font-size="14.00">क्रियाविशेषणम्</text>
</g>
<!-- Node6_1 -->
<g id="node14" class="node">
<title>Node6_1</title>
<ellipse fill="#ff99ff" stroke="#ff99ff" cx="815.6" cy="-18" rx="33.6" ry="18"/>
<text text-anchor="middle" x="815.6" y="-14.3" font-family="Times,serif" font-size="14.00">च(6.1)</text>
</g>
<!-- Node6_1&#45;&gt;Node5_1 -->
<g id="edge11" class="edge">
<title>Node6_1&#45;&gt;Node5_1</title>
<path fill="none" stroke="black" d="M797.64,-42.61C788.81,-52.46 777.34,-62.98 764.6,-69 727.01,-86.76 711.58,-67.61 671.6,-79 662.25,-81.66 652.52,-85.9 644.04,-90.13"/>
<polygon fill="black" stroke="black" points="800.33,-44.85 804.12,-34.96 794.99,-40.32 800.33,-44.85"/>
<text text-anchor="middle" x="825.1" y="-57.8" font-family="Times,serif" font-size="14.00">समुच्चय_द्योतकः</text>
</g>
<!-- Node7_1 -->
<g id="node15" class="node">
<title>Node7_1</title>
<ellipse fill="#87ceeb" stroke="#87ceeb" cx="919.6" cy="-18" rx="52.79" ry="18"/>
<text text-anchor="middle" x="919.6" y="-14.3" font-family="Times,serif" font-size="14.00">धातूनाम्(7.1)</text>
</g>
<!-- Node7_1&#45;&gt;Node5_1 -->
<g id="edge12" class="edge">
<title>Node7_1&#45;&gt;Node5_1</title>
<path fill="none" stroke="black" d="M901.16,-43.65C892.45,-53.35 881.19,-63.48 868.6,-69 828.45,-86.6 714.07,-68.18 671.6,-79 662.08,-81.42 652.23,-85.65 643.7,-89.96"/>
<polygon fill="black" stroke="black" points="904.09,-45.61 907.86,-35.71 898.74,-41.1 904.09,-45.61"/>
<text text-anchor="middle" x="917.6" y="-57.8" font-family="Times,serif" font-size="14.00">षष्ठीसम्बन्धः</text>
</g>
<!-- Node8_1 -->
<g id="node16" class="node">
<title>Node8_1</title>
<ellipse fill="#87ceeb" stroke="#87ceeb" cx="382.6" cy="-105" rx="57.69" ry="18"/>
<text text-anchor="middle" x="382.6" y="-101.3" font-family="Times,serif" font-size="14.00">अक्षाणाम्(8.1)</text>
</g>
<!-- Node8_1&#45;&gt;Node9_1 -->
<g id="edge13" class="edge">
<title>Node8_1&#45;&gt;Node9_1</title>
<path fill="none" stroke="black" d="M410.37,-128.22C421.96,-137.17 435.7,-147.4 448.6,-156 459.43,-163.23 471.8,-170.59 482.49,-176.68"/>
<polygon fill="black" stroke="black" points="412.4,-125.36 402.36,-121.96 408.09,-130.87 412.4,-125.36"/>
<text text-anchor="middle" x="476.6" y="-144.8" font-family="Times,serif" font-size="14.00">षष्ठीसम्बन्धः</text>
</g>
<!-- Node10_1 -->
<g id="node17" class="node">
<title>Node10_1</title>
<ellipse fill="#ff99ff" stroke="#ff99ff" cx="718.6" cy="-105" rx="38.19" ry="18"/>
<text text-anchor="middle" x="718.6" y="-101.3" font-family="Times,serif" font-size="14.00">च(10.1)</text>
</g>
<!-- Node10_1&#45;&gt;Node9_1 -->
<g id="edge15" class="edge">
<title>Node10_1&#45;&gt;Node9_1</title>
<path fill="none" stroke="black" d="M687.54,-125C670.08,-135.14 647.62,-147.28 626.6,-156 601.03,-166.6 571.14,-175.43 547.83,-181.57"/>
<polygon fill="black" stroke="black" points="689.35,-128 696.19,-119.91 685.8,-121.97 689.35,-128"/>
<text text-anchor="middle" x="698.1" y="-144.8" font-family="Times,serif" font-size="14.00">समुच्चय_द्योतकः</text>
</g>
<!-- Node12_1 -->
<g id="node18" class="node">
<title>Node12_1</title>
<ellipse fill="#ffff00" stroke="#ffff00" cx="41.6" cy="-18" rx="41.69" ry="18"/>
<text text-anchor="middle" x="41.6" y="-14.3" font-family="Times,serif" font-size="14.00">अ&#45;(12.1)</text>
</g>
<!-- Node12_1&#45;&gt;Node12_2 -->
<g id="edge16" class="edge">
<title>Node12_1&#45;&gt;Node12_2</title>
<path fill="none" stroke="black" d="M53.27,-44.95C58.03,-53.42 64.18,-62.35 71.6,-69 82.63,-78.89 96.93,-86.46 110.15,-91.98"/>
<polygon fill="black" stroke="black" points="56.38,-43.33 48.66,-36.07 50.16,-46.56 56.38,-43.33"/>
<text text-anchor="middle" x="100.6" y="-57.8" font-family="Times,serif" font-size="14.00">नञ्&#45;तत्पुरुषः</text>
</g>
</g>
</svg>
