<?xml version="1.0" encoding="UTF-8" standalone="no"?>
<!DOCTYPE svg PUBLIC "-//W3C//DTD SVG 1.1//EN"
 "http://www.w3.org/Graphics/SVG/1.1/DTD/svg11.dtd">
<!-- Generated by graphviz version 2.50.0 (20211204.2007)
 -->
<!-- Title: G Pages: 1 -->
<svg width="347pt" height="305pt"
 viewBox="0.00 0.00 347.10 305.00" xmlns="http://www.w3.org/2000/svg" xmlns:xlink="http://www.w3.org/1999/xlink">
<g id="graph0" class="graph" transform="scale(1 1) rotate(0) translate(4 301)">
<title>G</title>
<polygon fill="#fffacd" stroke="transparent" points="-4,4 -4,-301 343.1,-301 343.1,4 -4,4"/>
<g id="clust1" class="cluster">
<title>cluster_1</title>
<polygon fill="#fffacd" stroke="black" points="221.1,-79 221.1,-218 331.1,-218 331.1,-79 221.1,-79"/>
</g>
<!-- Node5_1 -->
<g id="node1" class="node">
<title>Node5_1</title>
<ellipse fill="#00bfff" stroke="#00bfff" cx="278.1" cy="-105" rx="42.49" ry="18"/>
<text text-anchor="middle" x="278.1" y="-101.3" font-family="Times,serif" font-size="14.00">सादः(5.1)</text>
</g>
<!-- Node1_1 -->
<g id="node2" class="node">
<title>Node1_1</title>
<ellipse fill="#00bfff" stroke="#00bfff" cx="276.1" cy="-192" rx="46.59" ry="18"/>
<text text-anchor="middle" x="276.1" y="-188.3" font-family="Times,serif" font-size="14.00">लिङ्गम्(1.1)</text>
</g>
<!-- Node5_1&#45;&gt;Node1_1 -->
<g id="edge5" class="edge">
<title>Node5_1&#45;&gt;Node1_1</title>
<path fill="none" stroke="black" d="M277.45,-133.27C277.14,-146.58 276.77,-162.19 276.5,-173.82"/>
<polygon fill="black" stroke="black" points="280.95,-133.28 277.69,-123.2 273.96,-133.12 280.95,-133.28"/>
<text text-anchor="middle" x="300.6" y="-144.8" font-family="Times,serif" font-size="14.00">विशेषणम्</text>
</g>
<!-- Node8_1 -->
<g id="node3" class="node">
<title>Node8_1</title>
<ellipse fill="#ff1975" stroke="#ff1975" cx="180.1" cy="-279" rx="50.89" ry="18"/>
<text text-anchor="middle" x="180.1" y="-275.3" font-family="Times,serif" font-size="14.00">(भवति)(8.1)</text>
</g>
<!-- Node1_1&#45;&gt;Node8_1 -->
<g id="edge1" class="edge">
<title>Node1_1&#45;&gt;Node8_1</title>
<path fill="none" stroke="black" d="M263.07,-218.65C257.95,-227.09 251.51,-236.08 244.1,-243 234.65,-251.81 222.57,-259.16 211.46,-264.81"/>
<polygon fill="black" stroke="black" points="266.19,-220.25 268.1,-209.82 260.11,-216.78 266.19,-220.25"/>
<text text-anchor="middle" x="267.1" y="-231.8" font-family="Times,serif" font-size="14.00">कर्ता</text>
</g>
<!-- Node2_1 -->
<g id="node4" class="node">
<title>Node2_1</title>
<ellipse fill="#c6e2eb" stroke="#c6e2eb" cx="86.1" cy="-192" rx="44.39" ry="18"/>
<text text-anchor="middle" x="86.1" y="-188.3" font-family="Times,serif" font-size="14.00">क्षीणे(2.1)</text>
</g>
<!-- Node2_1&#45;&gt;Node8_1 -->
<g id="edge2" class="edge">
<title>Node2_1&#45;&gt;Node8_1</title>
<path fill="none" stroke="black" d="M97.05,-219.01C101.46,-227.38 107.17,-236.23 114.1,-243 123.46,-252.16 135.71,-259.54 147.11,-265.11"/>
<polygon fill="black" stroke="black" points="100.14,-217.36 92.62,-209.89 93.84,-220.42 100.14,-217.36"/>
<text text-anchor="middle" x="179.1" y="-231.8" font-family="Times,serif" font-size="14.00">भावलक्षणसप्तमी_पूर्वकालः</text>
</g>
<!-- Node3_1 -->
<g id="node5" class="node">
<title>Node3_1</title>
<ellipse fill="#c6e2eb" stroke="#c6e2eb" cx="50.1" cy="-105" rx="47.39" ry="18"/>
<text text-anchor="middle" x="50.1" y="-101.3" font-family="Times,serif" font-size="14.00">अनिले(3.1)</text>
</g>
<!-- Node3_1&#45;&gt;Node2_1 -->
<g id="edge3" class="edge">
<title>Node3_1&#45;&gt;Node2_1</title>
<path fill="none" stroke="black" d="M61.34,-132.54C67.09,-146.12 73.92,-162.24 78.94,-174.11"/>
<polygon fill="black" stroke="black" points="64.5,-131.04 57.38,-123.2 58.06,-133.77 64.5,-131.04"/>
<text text-anchor="middle" x="80.1" y="-144.8" font-family="Times,serif" font-size="14.00">कर्म</text>
</g>
<!-- Node4_1 -->
<g id="node6" class="node">
<title>Node4_1</title>
<ellipse fill="#87ceeb" stroke="#87ceeb" cx="280.1" cy="-18" rx="48.19" ry="18"/>
<text text-anchor="middle" x="280.1" y="-14.3" font-family="Times,serif" font-size="14.00">अङ्गस्य(4.1)</text>
</g>
<!-- Node4_1&#45;&gt;Node5_1 -->
<g id="edge4" class="edge">
<title>Node4_1&#45;&gt;Node5_1</title>
<path fill="none" stroke="black" d="M279.45,-46.27C279.14,-59.58 278.77,-75.19 278.5,-86.82"/>
<polygon fill="black" stroke="black" points="282.95,-46.28 279.69,-36.2 275.96,-46.12 282.95,-46.28"/>
<text text-anchor="middle" x="307.1" y="-57.8" font-family="Times,serif" font-size="14.00">षष्ठीसम्बन्धः</text>
</g>
<!-- Node6_1 -->
<g id="node7" class="node">
<title>Node6_1</title>
<ellipse fill="#00bfff" stroke="#00bfff" cx="48.1" cy="-18" rx="48.19" ry="18"/>
<text text-anchor="middle" x="48.1" y="-14.3" font-family="Times,serif" font-size="14.00">अल्पम्(6.1)</text>
</g>
<!-- Node7_2 -->
<g id="node8" class="node">
<title>Node7_2</title>
<ellipse fill="#00bfff" stroke="#00bfff" cx="164.1" cy="-105" rx="48.99" ry="18"/>
<text text-anchor="middle" x="164.1" y="-101.3" font-family="Times,serif" font-size="14.00">ईहितम्(7.2)</text>
</g>
<!-- Node6_1&#45;&gt;Node7_2 -->
<g id="edge6" class="edge">
<title>Node6_1&#45;&gt;Node7_2</title>
<path fill="none" stroke="black" d="M64.17,-44.35C70.53,-52.97 78.41,-62.15 87.1,-69 91.13,-72.18 113.78,-82.35 133.48,-90.91"/>
<polygon fill="black" stroke="black" points="66.93,-42.21 58.33,-36.02 61.2,-46.22 66.93,-42.21"/>
<text text-anchor="middle" x="123.6" y="-57.8" font-family="Times,serif" font-size="14.00">क्रियाविशेषणम्</text>
</g>
<!-- Node7_2&#45;&gt;Node1_1 -->
<g id="edge8" class="edge">
<title>Node7_2&#45;&gt;Node1_1</title>
<path fill="none" stroke="black" d="M173.56,-132.41C177.61,-140.82 183.05,-149.58 190.1,-156 203.32,-168.05 221.25,-176.23 237.31,-181.63"/>
<polygon fill="black" stroke="black" points="176.77,-131.01 169.58,-123.23 170.35,-133.79 176.77,-131.01"/>
<text text-anchor="middle" x="231.1" y="-144.8" font-family="Times,serif" font-size="14.00">विधेय_विशेषणम्</text>
</g>
<!-- Node7_1 -->
<g id="node9" class="node">
<title>Node7_1</title>
<ellipse fill="#ffff00" stroke="#ffff00" cx="164.1" cy="-18" rx="50.09" ry="18"/>
<text text-anchor="middle" x="164.1" y="-14.3" font-family="Times,serif" font-size="14.00">भाषित&#45;(7.1)</text>
</g>
<!-- Node7_1&#45;&gt;Node7_2 -->
<g id="edge7" class="edge">
<title>Node7_1&#45;&gt;Node7_2</title>
<path fill="none" stroke="black" d="M164.1,-46.27C164.1,-59.58 164.1,-75.19 164.1,-86.82"/>
<polygon fill="black" stroke="black" points="167.6,-46.2 164.1,-36.2 160.6,-46.2 167.6,-46.2"/>
<text text-anchor="middle" x="193.1" y="-57.8" font-family="Times,serif" font-size="14.00">इतरेतर&#45;द्वन्द्वः</text>
</g>
</g>
</svg>
