<svg width="448pt" height="524pt"
 viewBox="0.00 0.00 447.50 524.00" xmlns="http://www.w3.org/2000/svg" xmlns:xlink="http://www.w3.org/1999/xlink">
<g id="graph0" class="graph" transform="scale(1 1) rotate(0) translate(4 520)">
<title>G</title>
<polygon fill="#fffacd" stroke="transparent" points="-4,4 -4,-520 443.5,-520 443.5,4 -4,4"/>
<!-- Node1_1 -->
<style>
 .hidden { display: none; }
 .node { cursor: pointer; }
 </style>
<script>
     function toggleChildren(id) {
      const children = document.getElementById(id);
      if (children.classList.contains('hidden')) {
        children.classList.remove('hidden');
      } else {
        children.classList.add('hidden');
      }
    }
</script>
<g id="children_node0_70855" class="hidden">
    <g class="node" onclick="toggleChildren('children_node0_70855');">
</g>
</g>
<g id="children_node1_70855" class="hidden">
    <g class="node" onclick="toggleChildren('children_node1_70855');">

<g id="node1" class="node">
<title>Node1_1</title>
<polygon fill="#ffff00" stroke="#ffff00" points="57.5,-36 3.5,-36 3.5,0 57.5,0 57.5,-36"/>
<text text-anchor="middle" x="30.5" y="-14.3" font-family="Times,serif" font-size="14.00">स्व&#45;</text>
</g>
<!-- Node1_2 -->
<g id="node2" class="node">
<title>Node1_2</title>
<polygon fill="#ffff00" stroke="#ffff00" points="147.5,-36 93.5,-36 93.5,0 147.5,0 147.5,-36"/>
<text text-anchor="middle" x="120.5" y="-14.3" font-family="Times,serif" font-size="14.00">स्थान&#45;</text>
</g>
<!-- Node1_1&#45;&gt;Node1_2 -->
<!-- Node1_2_1 -->
<g id="node3" class="node">
<title>Node1_2_1</title>
<polygon fill="#ffff00" stroke="#ffff00" points="149,-109 0,-109 0,-73 149,-73 149,-109"/>
<text text-anchor="middle" x="74.5" y="-87.3" font-family="Times,serif" font-size="14.00">&lt;स्व&#45;स्थान&#45;&gt;(षष्ठी&#45;तत्पुरुषः)</text>
</g>
<!-- Node1_1&#45;&gt;Node1_2_1 -->
<g id="edge2" class="edge">
<title>Node1_1&#45;&gt;Node1_2_1</title>
<path fill="none" stroke="black" d="M46.48,-44.79C52.3,-54.17 58.72,-64.54 63.95,-72.97"/>
<polygon fill="black" stroke="black" points="49.39,-42.84 41.15,-36.19 43.44,-46.53 49.39,-42.84"/>
</g>
<!-- Node1_2&#45;&gt;Node1_2_1 -->
<g id="edge1" class="edge">
<title>Node1_2&#45;&gt;Node1_2_1</title>
<path fill="none" stroke="black" d="M103.79,-44.79C97.71,-54.17 91,-64.54 85.53,-72.97"/>
<polygon fill="black" stroke="black" points="106.86,-46.48 109.36,-36.19 100.99,-42.68 106.86,-46.48"/>
</g>
<!-- Node1_3 -->
<g id="node4" class="node">
<title>Node1_3</title>
<polygon fill="#ffff00" stroke="#ffff00" points="238.5,-109 184.5,-109 184.5,-73 238.5,-73 238.5,-109"/>
<text text-anchor="middle" x="211.5" y="-87.3" font-family="Times,serif" font-size="14.00">स्थस्य</text>
</g>
<!-- Node1_2_1&#45;&gt;Node1_3 -->
<!-- Node1_3_2 -->
<g id="node5" class="node">
<title>Node1_3_2</title>
<polygon fill="#ffff00" stroke="#ffff00" points="277.5,-182 7.5,-182 7.5,-146 277.5,-146 277.5,-182"/>
<text text-anchor="middle" x="142.5" y="-160.3" font-family="Times,serif" font-size="14.00">&lt;&lt;स्व&#45;स्थान&#45;&gt;(षष्ठी&#45;तत्पुरुषः)स्थस्य&gt;(उपपद&#45;तत्पुरुषः)</text>
</g>
<!-- Node1_2_1&#45;&gt;Node1_3_2 -->
<g id="edge5" class="edge">
<title>Node1_2_1&#45;&gt;Node1_3_2</title>
<path fill="none" stroke="black" d="M98.09,-116.63C107.36,-126.31 117.78,-137.19 126.19,-145.97"/>
<polygon fill="black" stroke="black" points="100.41,-113.99 90.96,-109.19 95.35,-118.83 100.41,-113.99"/>
</g>
<!-- Node1_3&#45;&gt;Node1_3_2 -->
<g id="edge4" class="edge">
<title>Node1_3&#45;&gt;Node1_3_2</title>
<path fill="none" stroke="black" d="M187.56,-116.63C178.15,-126.31 167.59,-137.19 159.05,-145.97"/>
<polygon fill="black" stroke="black" points="190.34,-118.8 194.8,-109.19 185.32,-113.92 190.34,-118.8"/>
</g>
<!-- Node1_3_2&#45;&gt;Node1_3_2c -->
<g id="edge7" class="edge">
<title>Node1_3_2&#45;&gt;Node1_3_2c</title>
<path fill="none" stroke="black" d="M151.89,-191.66C155.11,-200.81 158.63,-210.8 161.5,-218.97"/>
<polygon fill="black" stroke="black" points="155.17,-190.46 148.55,-182.19 148.57,-192.78 155.17,-190.46"/>
</g>
</g>
</g>
<!-- Node1_3_2c -->
<g class="node6" onclick="toggleChildren('children_node1_70855');">
<title>Node1_3_2c</title>
<polygon fill="#87ceeb" stroke="#87ceeb" points="219.5,-255 115.5,-255 115.5,-219 219.5,-219 219.5,-255"/>
<text text-anchor="middle" x="167.5" y="-233.3" font-family="Times,serif" font-size="14.00">स्व&#45;स्थान&#45;स्थस्य(1)</text>
</g>
<g id="children_node2_70855" class="hidden">
    <g class="node" onclick="toggleChildren('children_node2_70855');">
<!-- Node2_1 -->
<g id="node7" class="node">
<title>Node2_1</title>
<polygon fill="#ffff00" stroke="#ffff00" points="349.5,-182 295.5,-182 295.5,-146 349.5,-146 349.5,-182"/>
<text text-anchor="middle" x="322.5" y="-160.3" font-family="Times,serif" font-size="14.00">काय&#45;</text>
</g>
<!-- Node2_2 -->
<g id="node8" class="node">
<title>Node2_2</title>
<polygon fill="#ffff00" stroke="#ffff00" points="439.5,-182 385.5,-182 385.5,-146 439.5,-146 439.5,-182"/>
<text text-anchor="middle" x="412.5" y="-160.3" font-family="Times,serif" font-size="14.00">अग्नेः</text>
</g>
<!-- Node2_1&#45;&gt;Node2_2 -->
<!-- Node2_2_1 -->
<g id="node9" class="node">
<title>Node2_2_1</title>
<polygon fill="#ffff00" stroke="#ffff00" points="399.5,-255 245.5,-255 245.5,-219 399.5,-219 399.5,-255"/>
<text text-anchor="middle" x="322.5" y="-233.3" font-family="Times,serif" font-size="14.00">&lt;काय&#45;अग्नेः&gt;(षष्ठी&#45;तत्पुरुषः)</text>
</g>
<!-- Node2_1&#45;&gt;Node2_2_1 -->
<g id="edge10" class="edge">
<title>Node2_1&#45;&gt;Node2_2_1</title>
<path fill="none" stroke="black" d="M322.5,-192.25C322.5,-201.23 322.5,-210.97 322.5,-218.97"/>
<polygon fill="black" stroke="black" points="326,-192.19 322.5,-182.19 319,-192.19 326,-192.19"/>
</g>
<!-- Node2_2&#45;&gt;Node2_2_1 -->
<g id="edge9" class="edge">
<title>Node2_2&#45;&gt;Node2_2_1</title>
<path fill="none" stroke="black" d="M382.73,-188.49C370.1,-198.45 355.66,-209.84 344.09,-218.97"/>
<polygon fill="black" stroke="black" points="385.03,-191.13 390.71,-182.19 380.69,-185.63 385.03,-191.13"/>
</g>
<!-- Node2_2_1&#45;&gt;Node2_2_1c -->
<g id="edge12" class="edge">
<title>Node2_2_1&#45;&gt;Node2_2_1c</title>
<path fill="none" stroke="black" d="M298.83,-262.53C285.46,-276.4 269.07,-293.39 257.07,-305.82"/>
<polygon fill="black" stroke="black" points="301.48,-264.83 305.91,-255.2 296.44,-259.97 301.48,-264.83"/>
</g>
</g>
</g>
<!-- Node2_2_1c -->
<g class="node10" onclick="toggleChildren('children_node2_70855');">
<title>Node2_2_1c</title>
<polygon fill="#87ceeb" stroke="#87ceeb" points="282,-342 199,-342 199,-306 282,-306 282,-342"/>
<text text-anchor="middle" x="240.5" y="-320.3" font-family="Times,serif" font-size="14.00">काय&#45;अग्नेः(2)</text>
</g>
<!-- Node1_3_2c&#45;&gt;Node2_2_1c -->
<g id="edge8" class="edge">
<title>Node1_3_2c&#45;&gt;Node2_2_1c</title>
<path fill="none" stroke="black" d="M188.9,-262.92C200.75,-276.71 215.17,-293.5 225.75,-305.82"/>
<polygon fill="black" stroke="black" points="191.44,-260.51 182.27,-255.2 186.13,-265.07 191.44,-260.51"/>
<text text-anchor="middle" x="231" y="-276.8" font-family="Times,serif" font-size="14.00">विशेषणम्</text>
</g>
<!-- Node3_1 -->
<g id="node11" class="node">
<title>Node3_1</title>
<polygon fill="#00bfff" stroke="#00bfff" points="270,-429 211,-429 211,-393 270,-393 270,-429"/>
<text text-anchor="middle" x="240.5" y="-407.3" font-family="Times,serif" font-size="14.00">अंशाः(3)</text>
</g>
<!-- Node2_2_1c&#45;&gt;Node3_1 -->
<g id="edge13" class="edge">
<title>Node2_2_1c&#45;&gt;Node3_1</title>
<path fill="none" stroke="black" d="M240.5,-352.27C240.5,-365.58 240.5,-381.19 240.5,-392.82"/>
<polygon fill="black" stroke="black" points="244,-352.2 240.5,-342.2 237,-352.2 244,-352.2"/>
<text text-anchor="middle" x="268.5" y="-363.8" font-family="Times,serif" font-size="14.00">षष्ठीसम्बन्धः</text>
</g>
<!-- Node5_1 -->
<g id="node12" class="node">
<title>Node5_1</title>
<polygon fill="#00bfff" stroke="#00bfff" points="313.5,-516 245.5,-516 245.5,-480 313.5,-480 313.5,-516"/>
<text text-anchor="middle" x="279.5" y="-494.3" font-family="Times,serif" font-size="14.00">संश्रिताः(5)</text>
</g>
<!-- Node3_1&#45;&gt;Node5_1 -->
<g id="edge14" class="edge">
<title>Node3_1&#45;&gt;Node5_1</title>
<path fill="none" stroke="black" d="M252.65,-438.48C258.83,-451.96 266.18,-467.96 271.62,-479.82"/>
<polygon fill="black" stroke="black" points="255.74,-436.83 248.39,-429.2 249.38,-439.75 255.74,-436.83"/>
<text text-anchor="middle" x="270.5" y="-450.8" font-family="Times,serif" font-size="14.00">कर्म</text>
</g>
<!-- Node4_1 -->
<g id="node13" class="node">
<title>Node4_1</title>
<polygon fill="#c6e2eb" stroke="#c6e2eb" points="348.5,-429 288.5,-429 288.5,-393 348.5,-393 348.5,-429"/>
<text text-anchor="middle" x="318.5" y="-407.3" font-family="Times,serif" font-size="14.00">धातुषु(4)</text>
</g>
<!-- Node4_1&#45;&gt;Node5_1 -->
<g id="edge15" class="edge">
<title>Node4_1&#45;&gt;Node5_1</title>
<path fill="none" stroke="black" d="M306.35,-438.48C300.17,-451.96 292.82,-467.96 287.38,-479.82"/>
<polygon fill="black" stroke="black" points="309.62,-439.75 310.61,-429.2 303.26,-436.83 309.62,-439.75"/>
<text text-anchor="middle" x="328" y="-450.8" font-family="Times,serif" font-size="14.00">अधिकरणम्</text>
</g>
</g>
</svg>
