<?xml version="1.0" encoding="UTF-8" standalone="no"?>
<!DOCTYPE svg PUBLIC "-//W3C//DTD SVG 1.1//EN"
 "http://www.w3.org/Graphics/SVG/1.1/DTD/svg11.dtd">
<!-- Generated by graphviz version 2.50.0 (20211204.2007)
 -->
<!-- Title: G Pages: 1 -->
<svg width="412pt" height="392pt"
 viewBox="0.00 0.00 411.59 392.00" xmlns="http://www.w3.org/2000/svg" xmlns:xlink="http://www.w3.org/1999/xlink">
<g id="graph0" class="graph" transform="scale(1 1) rotate(0) translate(4 388)">
<title>G</title>
<polygon fill="#fffacd" stroke="transparent" points="-4,4 -4,-388 407.59,-388 407.59,4 -4,4"/>
<g id="clust1" class="cluster">
<title>cluster_1</title>
<polygon fill="#fffacd" stroke="black" points="103.8,-166 103.8,-305 325.8,-305 325.8,-166 103.8,-166"/>
</g>
<!-- Node2_1 -->
<g id="node1" class="node">
<title>Node2_1</title>
<ellipse fill="#00bfff" stroke="#00bfff" cx="165.8" cy="-192" rx="53.89" ry="18"/>
<text text-anchor="middle" x="165.8" y="-188.3" font-family="Times,serif" font-size="14.00">शून्यत्वम्(2.1)</text>
</g>
<!-- Node4_2 -->
<g id="node2" class="node">
<title>Node4_2</title>
<ellipse fill="#00bfff" stroke="#00bfff" cx="225.8" cy="-279" rx="50.89" ry="18"/>
<text text-anchor="middle" x="225.8" y="-275.3" font-family="Times,serif" font-size="14.00">सन्धिता(4.2)</text>
</g>
<!-- Node2_1&#45;&gt;Node4_2 -->
<g id="edge3" class="edge">
<title>Node2_1&#45;&gt;Node4_2</title>
<path fill="none" stroke="black" d="M182.06,-218.43C187.28,-226.38 193.17,-235.13 198.8,-243 203.17,-249.12 208.15,-255.68 212.63,-261.45"/>
<polygon fill="black" stroke="black" points="184.88,-216.35 176.49,-209.87 179.01,-220.17 184.88,-216.35"/>
<text text-anchor="middle" x="221.3" y="-231.8" font-family="Times,serif" font-size="14.00">समुच्चितः</text>
</g>
<!-- Node6_1 -->
<g id="node8" class="node">
<title>Node6_1</title>
<ellipse fill="#ff1975" stroke="#ff1975" cx="225.8" cy="-366" rx="50.89" ry="18"/>
<text text-anchor="middle" x="225.8" y="-362.3" font-family="Times,serif" font-size="14.00">(भवति)(6.1)</text>
</g>
<!-- Node4_2&#45;&gt;Node6_1 -->
<g id="edge7" class="edge">
<title>Node4_2&#45;&gt;Node6_1</title>
<path fill="none" stroke="black" d="M225.8,-307.27C225.8,-320.58 225.8,-336.19 225.8,-347.82"/>
<polygon fill="black" stroke="black" points="229.3,-307.2 225.8,-297.2 222.3,-307.2 229.3,-307.2"/>
<text text-anchor="middle" x="257.8" y="-318.8" font-family="Times,serif" font-size="14.00">कर्ता_बे_वेर्ब्स्</text>
</g>
<!-- Node3_2 -->
<g id="node3" class="node">
<title>Node3_2</title>
<ellipse fill="#00bfff" stroke="#00bfff" cx="277.8" cy="-192" rx="40.09" ry="18"/>
<text text-anchor="middle" x="277.8" y="-188.3" font-family="Times,serif" font-size="14.00">द्रवः(3.2)</text>
</g>
<!-- Node3_2&#45;&gt;Node4_2 -->
<g id="edge5" class="edge">
<title>Node3_2&#45;&gt;Node4_2</title>
<path fill="none" stroke="black" d="M262.26,-218.4C253.78,-232.26 243.52,-249.03 236.05,-261.24"/>
<polygon fill="black" stroke="black" points="265.29,-220.15 267.52,-209.79 259.32,-216.5 265.29,-220.15"/>
<text text-anchor="middle" x="277.3" y="-231.8" font-family="Times,serif" font-size="14.00">समुच्चितः</text>
</g>
<!-- Node1_1 -->
<g id="node4" class="node">
<title>Node1_1</title>
<ellipse fill="#ffff00" stroke="#ffff00" cx="160.8" cy="-18" rx="48.99" ry="18"/>
<text text-anchor="middle" x="160.8" y="-14.3" font-family="Times,serif" font-size="14.00">श्लेष्म&#45;(1.1)</text>
</g>
<!-- Node1_2 -->
<g id="node5" class="node">
<title>Node1_2</title>
<ellipse fill="#87ceeb" stroke="#87ceeb" cx="160.8" cy="-105" rx="62.29" ry="18"/>
<text text-anchor="middle" x="160.8" y="-101.3" font-family="Times,serif" font-size="14.00">आशयानाम्(1.2)</text>
</g>
<!-- Node1_1&#45;&gt;Node1_2 -->
<g id="edge1" class="edge">
<title>Node1_1&#45;&gt;Node1_2</title>
<path fill="none" stroke="black" d="M160.8,-46.27C160.8,-59.58 160.8,-75.19 160.8,-86.82"/>
<polygon fill="black" stroke="black" points="164.3,-46.2 160.8,-36.2 157.3,-46.2 164.3,-46.2"/>
<text text-anchor="middle" x="176.8" y="-57.8" font-family="Times,serif" font-size="14.00">समासः</text>
</g>
<!-- Node1_2&#45;&gt;Node2_1 -->
<g id="edge2" class="edge">
<title>Node1_2&#45;&gt;Node2_1</title>
<path fill="none" stroke="black" d="M162.4,-133.27C163.18,-146.58 164.1,-162.19 164.79,-173.82"/>
<polygon fill="black" stroke="black" points="165.89,-132.98 161.81,-123.2 158.9,-133.39 165.89,-132.98"/>
<text text-anchor="middle" x="190.8" y="-144.8" font-family="Times,serif" font-size="14.00">षष्ठीसम्बन्धः</text>
</g>
<!-- Node3_1 -->
<g id="node6" class="node">
<title>Node3_1</title>
<ellipse fill="#ffff00" stroke="#ffff00" cx="281.8" cy="-105" rx="40.09" ry="18"/>
<text text-anchor="middle" x="281.8" y="-101.3" font-family="Times,serif" font-size="14.00">हृद्&#45;(3.1)</text>
</g>
<!-- Node3_1&#45;&gt;Node3_2 -->
<g id="edge4" class="edge">
<title>Node3_1&#45;&gt;Node3_2</title>
<path fill="none" stroke="black" d="M280.51,-133.27C279.89,-146.58 279.15,-162.19 278.6,-173.82"/>
<polygon fill="black" stroke="black" points="284.01,-133.35 280.99,-123.2 277.02,-133.03 284.01,-133.35"/>
<text text-anchor="middle" x="295.8" y="-144.8" font-family="Times,serif" font-size="14.00">समासः</text>
</g>
<!-- Node4_1 -->
<g id="node7" class="node">
<title>Node4_1</title>
<ellipse fill="#ffff00" stroke="#ffff00" cx="46.8" cy="-192" rx="46.59" ry="18"/>
<text text-anchor="middle" x="46.8" y="-188.3" font-family="Times,serif" font-size="14.00">श्लथ&#45;(4.1)</text>
</g>
<!-- Node4_1&#45;&gt;Node4_2 -->
<g id="edge6" class="edge">
<title>Node4_1&#45;&gt;Node4_2</title>
<path fill="none" stroke="black" d="M75.08,-214.09C88.96,-223.79 106.23,-234.9 122.8,-243 143.16,-252.95 167.06,-261.27 186.71,-267.29"/>
<polygon fill="black" stroke="black" points="77.09,-211.23 66.92,-208.28 73.03,-216.93 77.09,-211.23"/>
<text text-anchor="middle" x="153.3" y="-231.8" font-family="Times,serif" font-size="14.00">षष्ठी&#45;तत्पुरुषः</text>
</g>
<!-- Node5_1 -->
<g id="node9" class="node">
<title>Node5_1</title>
<ellipse fill="#ff99ff" stroke="#ff99ff" cx="369.8" cy="-192" rx="33.6" ry="18"/>
<text text-anchor="middle" x="369.8" y="-188.3" font-family="Times,serif" font-size="14.00">च(5.1)</text>
</g>
<!-- Node5_1&#45;&gt;Node4_2 -->
<g id="edge8" class="edge">
<title>Node5_1&#45;&gt;Node4_2</title>
<path fill="none" stroke="black" d="M344.84,-214.03C332.88,-223.55 318.06,-234.54 303.8,-243 289.62,-251.4 273.08,-259.1 258.88,-265.12"/>
<polygon fill="black" stroke="black" points="347.07,-216.74 352.63,-207.72 342.66,-211.3 347.07,-216.74"/>
<text text-anchor="middle" x="363.3" y="-231.8" font-family="Times,serif" font-size="14.00">समुच्चय_द्योतकः</text>
</g>
</g>
</svg>
