<?xml version="1.0" encoding="UTF-8" standalone="no"?>
<!DOCTYPE svg PUBLIC "-//W3C//DTD SVG 1.1//EN"
 "http://www.w3.org/Graphics/SVG/1.1/DTD/svg11.dtd">
<!-- Generated by graphviz version 2.50.0 (20211204.2007)
 -->
<!-- Title: G Pages: 1 -->
<svg width="936pt" height="234pt"
 viewBox="0.00 0.00 935.85 234.00" xmlns="http://www.w3.org/2000/svg" xmlns:xlink="http://www.w3.org/1999/xlink">
<g id="graph0" class="graph" transform="scale(1 1) rotate(0) translate(4 230)">
<title>G</title>
<polygon fill="#fffacd" stroke="transparent" points="-4,4 -4,-230 931.85,-230 931.85,4 -4,4"/>
<g id="clust1" class="cluster">
<title>cluster_1</title>
<polygon fill="#fffacd" stroke="black" points="8,-8 8,-147 162,-147 162,-8 8,-8"/>
</g>
<!-- Node13_1 -->
<g id="node1" class="node">
<title>Node13_1</title>
<ellipse fill="#87ceeb" stroke="#87ceeb" cx="85" cy="-34" rx="49.29" ry="18"/>
<text text-anchor="middle" x="85" y="-30.3" font-family="Times,serif" font-size="14.00">एषाम्(13.1)</text>
</g>
<!-- Node14_2 -->
<g id="node2" class="node">
<title>Node14_2</title>
<ellipse fill="#87ceeb" stroke="#87ceeb" cx="85" cy="-121" rx="68.79" ry="18"/>
<text text-anchor="middle" x="85" y="-117.3" font-family="Times,serif" font-size="14.00">आश्रयिणाम्(14.2)</text>
</g>
<!-- Node13_1&#45;&gt;Node14_2 -->
<g id="edge11" class="edge">
<title>Node13_1&#45;&gt;Node14_2</title>
<path fill="none" stroke="black" d="M85,-62.27C85,-75.58 85,-91.19 85,-102.82"/>
<polygon fill="black" stroke="black" points="88.5,-62.2 85,-52.2 81.5,-62.2 88.5,-62.2"/>
<text text-anchor="middle" x="108.5" y="-73.8" font-family="Times,serif" font-size="14.00">विशेषणम्</text>
</g>
<!-- Node11_1 -->
<g id="node13" class="node">
<title>Node11_1</title>
<ellipse fill="#ff1975" stroke="#ff1975" cx="277" cy="-208" rx="55.49" ry="18"/>
<text text-anchor="middle" x="277" y="-204.3" font-family="Times,serif" font-size="14.00">(भवति)(11.1)</text>
</g>
<!-- Node14_2&#45;&gt;Node11_1 -->
<g id="edge13" class="edge">
<title>Node14_2&#45;&gt;Node11_1</title>
<path fill="none" stroke="black" d="M121.17,-142.83C138.4,-152.34 159.45,-163.37 179,-172 198.34,-180.54 220.47,-188.59 238.8,-194.8"/>
<polygon fill="black" stroke="black" points="122.47,-139.55 112.03,-137.73 119.06,-145.66 122.47,-139.55"/>
<text text-anchor="middle" x="207" y="-160.8" font-family="Times,serif" font-size="14.00">षष्ठीसम्बन्धः</text>
</g>
<!-- Node1_1 -->
<g id="node3" class="node">
<title>Node1_1</title>
<ellipse fill="#ff99ff" stroke="#ff99ff" cx="449" cy="-34" rx="37.09" ry="18"/>
<text text-anchor="middle" x="449" y="-30.3" font-family="Times,serif" font-size="14.00">तत्र(1.1)</text>
</g>
<!-- Node3_1 -->
<g id="node4" class="node">
<title>Node3_1</title>
<ellipse fill="#00bfff" stroke="#00bfff" cx="554" cy="-121" rx="46.29" ry="18"/>
<text text-anchor="middle" x="554" y="-117.3" font-family="Times,serif" font-size="14.00">स्थितः(3.1)</text>
</g>
<!-- Node1_1&#45;&gt;Node3_1 -->
<g id="edge1" class="edge">
<title>Node1_1&#45;&gt;Node3_1</title>
<path fill="none" stroke="black" d="M463.31,-60.5C468.96,-69.03 476.02,-78.12 484,-85 495.01,-94.5 509.04,-102.17 521.65,-107.88"/>
<polygon fill="black" stroke="black" points="466.21,-58.55 457.95,-51.92 460.28,-62.26 466.21,-58.55"/>
<text text-anchor="middle" x="517" y="-73.8" font-family="Times,serif" font-size="14.00">देशाधिकरणम्</text>
</g>
<!-- Node2_1 -->
<g id="node5" class="node">
<title>Node2_1</title>
<ellipse fill="#c6e2eb" stroke="#c6e2eb" cx="554" cy="-34" rx="50.09" ry="18"/>
<text text-anchor="middle" x="554" y="-30.3" font-family="Times,serif" font-size="14.00">अस्थनि(2.1)</text>
</g>
<!-- Node2_1&#45;&gt;Node3_1 -->
<g id="edge2" class="edge">
<title>Node2_1&#45;&gt;Node3_1</title>
<path fill="none" stroke="black" d="M554,-62.27C554,-75.58 554,-91.19 554,-102.82"/>
<polygon fill="black" stroke="black" points="557.5,-62.2 554,-52.2 550.5,-62.2 557.5,-62.2"/>
<text text-anchor="middle" x="581.5" y="-73.8" font-family="Times,serif" font-size="14.00">अधिकरणम्</text>
</g>
<!-- Node4_1 -->
<g id="node6" class="node">
<title>Node4_1</title>
<ellipse fill="#00bfff" stroke="#00bfff" cx="665" cy="-34" rx="42.79" ry="18"/>
<text text-anchor="middle" x="665" y="-30.3" font-family="Times,serif" font-size="14.00">वायुः(4.1)</text>
</g>
<!-- Node4_1&#45;&gt;Node3_1 -->
<g id="edge3" class="edge">
<title>Node4_1&#45;&gt;Node3_1</title>
<path fill="none" stroke="black" d="M642.64,-58.7C633.82,-67.45 623.33,-77.14 613,-85 602.86,-92.72 590.89,-100.1 580.39,-106.08"/>
<polygon fill="black" stroke="black" points="645.39,-60.89 649.93,-51.32 640.41,-55.98 645.39,-60.89"/>
<text text-anchor="middle" x="640" y="-73.8" font-family="Times,serif" font-size="14.00">कर्ता</text>
</g>
<!-- Node5_1 -->
<g id="node7" class="node">
<title>Node5_1</title>
<ellipse fill="#00bfff" stroke="#00bfff" cx="883" cy="-121" rx="44.69" ry="18"/>
<text text-anchor="middle" x="883" y="-117.3" font-family="Times,serif" font-size="14.00">पित्तम्(5.1)</text>
</g>
<!-- Node8_1 -->
<g id="node8" class="node">
<title>Node8_1</title>
<ellipse fill="#ff1975" stroke="#ff1975" cx="826" cy="-208" rx="50.89" ry="18"/>
<text text-anchor="middle" x="826" y="-204.3" font-family="Times,serif" font-size="14.00">(भवति)(8.1)</text>
</g>
<!-- Node5_1&#45;&gt;Node8_1 -->
<g id="edge4" class="edge">
<title>Node5_1&#45;&gt;Node8_1</title>
<path fill="none" stroke="black" d="M865.97,-147.4C856.67,-161.26 845.43,-178.03 837.24,-190.24"/>
<polygon fill="black" stroke="black" points="869.08,-149.05 871.74,-138.79 863.26,-145.15 869.08,-149.05"/>
<text text-anchor="middle" x="889" y="-160.8" font-family="Times,serif" font-size="14.00">कर्ता_बे_वेर्ब्स्</text>
</g>
<!-- Node6_1 -->
<g id="node9" class="node">
<title>Node6_1</title>
<ellipse fill="#ff99ff" stroke="#ff99ff" cx="883" cy="-34" rx="32.49" ry="18"/>
<text text-anchor="middle" x="883" y="-30.3" font-family="Times,serif" font-size="14.00">तु(6.1)</text>
</g>
<!-- Node6_1&#45;&gt;Node5_1 -->
<g id="edge5" class="edge">
<title>Node6_1&#45;&gt;Node5_1</title>
<path fill="none" stroke="black" d="M883,-62.27C883,-75.58 883,-91.19 883,-102.82"/>
<polygon fill="black" stroke="black" points="886.5,-62.2 883,-52.2 879.5,-62.2 886.5,-62.2"/>
<text text-anchor="middle" x="901.5" y="-73.8" font-family="Times,serif" font-size="14.00">सम्बन्धः</text>
</g>
<!-- Node7_1 -->
<g id="node10" class="node">
<title>Node7_1</title>
<ellipse fill="#ffff00" stroke="#ffff00" cx="769" cy="-34" rx="43.59" ry="18"/>
<text text-anchor="middle" x="769" y="-30.3" font-family="Times,serif" font-size="14.00">स्वेद&#45;(7.1)</text>
</g>
<!-- Node7_2 -->
<g id="node11" class="node">
<title>Node7_2</title>
<ellipse fill="#c6e2eb" stroke="#c6e2eb" cx="769" cy="-121" rx="50.89" ry="18"/>
<text text-anchor="middle" x="769" y="-117.3" font-family="Times,serif" font-size="14.00">रक्तयोः(7.2)</text>
</g>
<!-- Node7_1&#45;&gt;Node7_2 -->
<g id="edge6" class="edge">
<title>Node7_1&#45;&gt;Node7_2</title>
<path fill="none" stroke="black" d="M769,-62.27C769,-75.58 769,-91.19 769,-102.82"/>
<polygon fill="black" stroke="black" points="772.5,-62.2 769,-52.2 765.5,-62.2 772.5,-62.2"/>
<text text-anchor="middle" x="798" y="-73.8" font-family="Times,serif" font-size="14.00">इतरेतर&#45;द्वन्द्वः</text>
</g>
<!-- Node7_2&#45;&gt;Node8_1 -->
<g id="edge7" class="edge">
<title>Node7_2&#45;&gt;Node8_1</title>
<path fill="none" stroke="black" d="M779.05,-148.23C782.62,-156.18 787.01,-164.72 792,-172 796.6,-178.71 802.53,-185.31 808.15,-190.93"/>
<polygon fill="black" stroke="black" points="782.25,-146.81 775.13,-138.97 775.81,-149.54 782.25,-146.81"/>
<text text-anchor="middle" x="819.5" y="-160.8" font-family="Times,serif" font-size="14.00">अधिकरणम्</text>
</g>
<!-- Node9_1 -->
<g id="node12" class="node">
<title>Node9_1</title>
<ellipse fill="#00bfff" stroke="#00bfff" cx="220" cy="-121" rx="48.19" ry="18"/>
<text text-anchor="middle" x="220" y="-117.3" font-family="Times,serif" font-size="14.00">श्लेष्मा(9.1)</text>
</g>
<!-- Node9_1&#45;&gt;Node11_1 -->
<g id="edge8" class="edge">
<title>Node9_1&#45;&gt;Node11_1</title>
<path fill="none" stroke="black" d="M233.38,-147.98C237.75,-155.87 242.82,-164.45 248,-172 252.29,-178.25 257.43,-184.73 262.2,-190.4"/>
<polygon fill="black" stroke="black" points="236.43,-146.26 228.6,-139.12 230.27,-149.59 236.43,-146.26"/>
<text text-anchor="middle" x="280" y="-160.8" font-family="Times,serif" font-size="14.00">कर्ता_बे_वेर्ब्स्</text>
</g>
<!-- Node10_1 -->
<g id="node14" class="node">
<title>Node10_1</title>
<ellipse fill="#c6e2eb" stroke="#c6e2eb" cx="334" cy="-121" rx="48.19" ry="18"/>
<text text-anchor="middle" x="334" y="-117.3" font-family="Times,serif" font-size="14.00">शेषेषु(10.1)</text>
</g>
<!-- Node10_1&#45;&gt;Node11_1 -->
<g id="edge9" class="edge">
<title>Node10_1&#45;&gt;Node11_1</title>
<path fill="none" stroke="black" d="M324.48,-148.56C321.1,-156.43 316.89,-164.85 312,-172 307.44,-178.67 301.51,-185.16 295.83,-190.7"/>
<polygon fill="black" stroke="black" points="327.83,-149.6 328.32,-139.02 321.34,-146.99 327.83,-149.6"/>
<text text-anchor="middle" x="348.5" y="-160.8" font-family="Times,serif" font-size="14.00">अधिकरणम्</text>
</g>
<!-- Node12_1 -->
<g id="node15" class="node">
<title>Node12_1</title>
<ellipse fill="#40e0d0" stroke="#40e0d0" cx="442" cy="-121" rx="41.69" ry="18"/>
<text text-anchor="middle" x="442" y="-117.3" font-family="Times,serif" font-size="14.00">तेन(12.1)</text>
</g>
<!-- Node12_1&#45;&gt;Node11_1 -->
<g id="edge10" class="edge">
<title>Node12_1&#45;&gt;Node11_1</title>
<path fill="none" stroke="black" d="M418.29,-144.41C407.29,-153.91 393.65,-164.49 380,-172 361.05,-182.43 338.45,-190.53 319.25,-196.3"/>
<polygon fill="black" stroke="black" points="420.64,-147 425.79,-137.75 415.99,-141.77 420.64,-147"/>
<text text-anchor="middle" x="411.5" y="-160.8" font-family="Times,serif" font-size="14.00">हेतुः</text>
</g>
<!-- Node14_1 -->
<g id="node16" class="node">
<title>Node14_1</title>
<ellipse fill="#ffff00" stroke="#ffff00" cx="225" cy="-34" rx="55.49" ry="18"/>
<text text-anchor="middle" x="225" y="-30.3" font-family="Times,serif" font-size="14.00">आश्रय&#45;(14.1)</text>
</g>
<!-- Node14_1&#45;&gt;Node14_2 -->
<g id="edge12" class="edge">
<title>Node14_1&#45;&gt;Node14_2</title>
<path fill="none" stroke="black" d="M191.32,-55.45C166.74,-70.37 133.89,-90.32 111.24,-104.07"/>
<polygon fill="black" stroke="black" points="193.24,-58.38 199.97,-50.2 189.61,-52.39 193.24,-58.38"/>
<text text-anchor="middle" x="193" y="-73.8" font-family="Times,serif" font-size="14.00">इतरेतर&#45;द्वन्द्वः</text>
</g>
<!-- Node15_1 -->
<g id="node17" class="node">
<title>Node15_1</title>
<ellipse fill="#ff99ff" stroke="#ff99ff" cx="346" cy="-34" rx="48.19" ry="18"/>
<text text-anchor="middle" x="346" y="-30.3" font-family="Times,serif" font-size="14.00">मिथः(15.1)</text>
</g>
<!-- Node15_1&#45;&gt;Node14_2 -->
<g id="edge14" class="edge">
<title>Node15_1&#45;&gt;Node14_2</title>
<path fill="none" stroke="black" d="M307.69,-52.71C284.41,-63.03 253.88,-75.79 226,-85 197.02,-94.57 163.94,-102.92 137.1,-109.05"/>
<polygon fill="black" stroke="black" points="309.19,-55.87 316.88,-48.59 306.33,-49.49 309.19,-55.87"/>
<text text-anchor="middle" x="285.5" y="-73.8" font-family="Times,serif" font-size="14.00">सम्बन्धः</text>
</g>
</g>
</svg>
