<svg width="358pt" height="378pt"
 viewBox="0.00 0.00 358.00 378.00" xmlns="http://www.w3.org/2000/svg" xmlns:xlink="http://www.w3.org/1999/xlink">
<g id="graph0" class="graph" transform="scale(1 1) rotate(0) translate(4 374)">
<title>G</title>
<polygon fill="#fffacd" stroke="transparent" points="-4,4 -4,-374 354,-374 354,4 -4,4"/>
<!-- Node1_2 -->
<style>
 .hidden { display: none; }
 .node { cursor: pointer; }
 </style>
<script>
     function toggleChildren(id) {
      const children = document.getElementById(id);
      if (children.classList.contains('hidden')) {
        children.classList.remove('hidden');
      } else {
        children.classList.add('hidden');
      }
    }
</script>
<g id="children_node0_70463" class="hidden">
    <g class="node" onclick="toggleChildren('children_node0_70463');">
</g>
</g>
<g id="children_node1_70463" class="hidden">
    <g class="node" onclick="toggleChildren('children_node1_70463');">

<g id="node1" class="node">
<title>Node1_2</title>
<polygon fill="#ffff00" stroke="#ffff00" points="249.5,-36 195.5,-36 195.5,0 249.5,0 249.5,-36"/>
<text text-anchor="middle" x="222.5" y="-14.3" font-family="Times,serif" font-size="14.00">धातु&#45;</text>
</g>
<!-- Node1_3 -->
<g id="node2" class="node">
<title>Node1_3</title>
<polygon fill="#ffff00" stroke="#ffff00" points="339.5,-36 285.5,-36 285.5,0 339.5,0 339.5,-36"/>
<text text-anchor="middle" x="312.5" y="-14.3" font-family="Times,serif" font-size="14.00">मलाः</text>
</g>
<!-- Node1_2&#45;&gt;Node1_3 -->
<!-- Node1_3_1 -->
<g id="node3" class="node">
<title>Node1_3_1</title>
<polygon fill="#ffff00" stroke="#ffff00" points="350,-109 201,-109 201,-73 350,-73 350,-109"/>
<text text-anchor="middle" x="275.5" y="-87.3" font-family="Times,serif" font-size="14.00">&lt;धातु&#45;मलाः&gt;(इतरेतर&#45;द्वन्द्वः)</text>
</g>
<!-- Node1_2&#45;&gt;Node1_3_1 -->
<g id="edge2" class="edge">
<title>Node1_2&#45;&gt;Node1_3_1</title>
<path fill="none" stroke="black" d="M241.32,-44.21C248.44,-53.74 256.36,-64.36 262.79,-72.97"/>
<polygon fill="black" stroke="black" points="244.12,-42.11 235.33,-36.19 238.51,-46.29 244.12,-42.11"/>
</g>
<!-- Node1_3&#45;&gt;Node1_3_1 -->
<g id="edge1" class="edge">
<title>Node1_3&#45;&gt;Node1_3_1</title>
<path fill="none" stroke="black" d="M298.91,-45.08C294.06,-54.39 288.72,-64.62 284.37,-72.97"/>
<polygon fill="black" stroke="black" points="302.03,-46.67 303.54,-36.19 295.82,-43.44 302.03,-46.67"/>
</g>
<!-- Node1_3_2 -->
<g id="node5" class="node">
<title>Node1_3_2</title>
<polygon fill="#ffff00" stroke="#ffff00" points="330.5,-196 76.5,-196 76.5,-160 330.5,-160 330.5,-196"/>
<text text-anchor="middle" x="203.5" y="-174.3" font-family="Times,serif" font-size="14.00">&lt;दोष&#45;&lt;धातु&#45;मलाः&gt;(इतरेतर&#45;द्वन्द्वः)&gt;(इतरेतर&#45;द्वन्द्वः)</text>
</g>
<!-- Node1_3_1&#45;&gt;Node1_3_2 -->
<g id="edge4" class="edge">
<title>Node1_3_1&#45;&gt;Node1_3_2</title>
<path fill="none" stroke="black" d="M254.39,-116.92C242.71,-130.71 228.49,-147.5 218.05,-159.82"/>
<polygon fill="black" stroke="black" points="257.14,-119.09 260.93,-109.2 251.8,-114.57 257.14,-119.09"/>
</g>
<!-- Node1_1 -->
<g id="node4" class="node">
<title>Node1_1</title>
<polygon fill="#ffff00" stroke="#ffff00" points="165.5,-109 111.5,-109 111.5,-73 165.5,-73 165.5,-109"/>
<text text-anchor="middle" x="138.5" y="-87.3" font-family="Times,serif" font-size="14.00">दोष&#45;</text>
</g>
<!-- Node1_1&#45;&gt;Node1_3_1 -->
<!-- Node1_1&#45;&gt;Node1_3_2 -->
<g id="edge5" class="edge">
<title>Node1_1&#45;&gt;Node1_3_2</title>
<path fill="none" stroke="black" d="M157.85,-117.31C168.34,-131.02 181.03,-147.62 190.37,-159.82"/>
<polygon fill="black" stroke="black" points="160.51,-115.02 151.65,-109.2 154.95,-119.27 160.51,-115.02"/>
</g>
<!-- Node1_3_2&#45;&gt;Node1_3_2c -->
<g id="edge7" class="edge">
<title>Node1_3_2&#45;&gt;Node1_3_2c</title>
<path fill="none" stroke="black" d="M185.87,-204.48C179.6,-212.74 172.17,-221.65 164.5,-229 157.78,-235.44 149.81,-241.63 142.28,-246.97"/>
<polygon fill="black" stroke="black" points="188.85,-206.34 191.96,-196.22 183.22,-202.19 188.85,-206.34"/>
</g>
</g>
</g>
<!-- Node1_3_2c -->
<g class="node6" onclick="toggleChildren('children_node1_70463');">
<title>Node1_3_2c</title>
<polygon fill="#00bfff" stroke="#00bfff" points="167.5,-283 63.5,-283 63.5,-247 167.5,-247 167.5,-283"/>
<text text-anchor="middle" x="115.5" y="-261.3" font-family="Times,serif" font-size="14.00">दोष&#45;धातु&#45;मलाः(1)</text>
</g>
<!-- Node5_1 -->
<g id="node9" class="node">
<title>Node5_1</title>
<polygon fill="#ff1975" stroke="#ff1975" points="195.5,-370 131.5,-370 131.5,-334 195.5,-334 195.5,-370"/>
<text text-anchor="middle" x="163.5" y="-348.3" font-family="Times,serif" font-size="14.00">(सन्ति)(5)</text>
</g>
<!-- Node1_3_2c&#45;&gt;Node5_1 -->
<g id="edge8" class="edge">
<title>Node1_3_2c&#45;&gt;Node5_1</title>
<path fill="none" stroke="black" d="M130.23,-292.09C137.89,-305.65 147.04,-321.85 153.8,-333.82"/>
<polygon fill="black" stroke="black" points="133.18,-290.19 125.21,-283.2 127.08,-293.63 133.18,-290.19"/>
<text text-anchor="middle" x="153.5" y="-304.8" font-family="Times,serif" font-size="14.00">कर्ता</text>
</g>
<!-- Node2_1 -->
<g id="node7" class="node">
<title>Node2_1</title>
<polygon fill="#00bfff" stroke="#00bfff" points="58,-196 1,-196 1,-160 58,-160 58,-196"/>
<text text-anchor="middle" x="29.5" y="-174.3" font-family="Times,serif" font-size="14.00">मूलम्(2)</text>
</g>
<!-- Node2_1&#45;&gt;Node1_3_2c -->
<g id="edge9" class="edge">
<title>Node2_1&#45;&gt;Node1_3_2c</title>
<path fill="none" stroke="black" d="M54.32,-203.53C68.35,-217.4 85.54,-234.39 98.12,-246.82"/>
<polygon fill="black" stroke="black" points="56.48,-200.74 46.9,-196.2 51.56,-205.72 56.48,-200.74"/>
<text text-anchor="middle" x="119.5" y="-217.8" font-family="Times,serif" font-size="14.00">विधेय_विशेषणम्</text>
</g>
<!-- Node3_1 -->
<g id="node8" class="node">
<title>Node3_1</title>
<polygon fill="#ff99ff" stroke="#ff99ff" points="239.5,-283 185.5,-283 185.5,-247 239.5,-247 239.5,-283"/>
<text text-anchor="middle" x="212.5" y="-261.3" font-family="Times,serif" font-size="14.00">सदा(3)</text>
</g>
<!-- Node3_1&#45;&gt;Node5_1 -->
<g id="edge10" class="edge">
<title>Node3_1&#45;&gt;Node5_1</title>
<path fill="none" stroke="black" d="M197.46,-292.09C189.64,-305.65 180.3,-321.85 173.4,-333.82"/>
<polygon fill="black" stroke="black" points="200.62,-293.61 202.58,-283.2 194.56,-290.12 200.62,-293.61"/>
<text text-anchor="middle" x="228" y="-304.8" font-family="Times,serif" font-size="14.00">कालाधिकरणम्</text>
</g>
<!-- Node4_1 -->
<g id="node10" class="node">
<title>Node4_1</title>
<polygon fill="#87ceeb" stroke="#87ceeb" points="59,-109 0,-109 0,-73 59,-73 59,-109"/>
<text text-anchor="middle" x="29.5" y="-87.3" font-family="Times,serif" font-size="14.00">देहस्य(4)</text>
</g>
<!-- Node4_1&#45;&gt;Node2_1 -->
<g id="edge11" class="edge">
<title>Node4_1&#45;&gt;Node2_1</title>
<path fill="none" stroke="black" d="M29.5,-119.27C29.5,-132.58 29.5,-148.19 29.5,-159.82"/>
<polygon fill="black" stroke="black" points="33,-119.2 29.5,-109.2 26,-119.2 33,-119.2"/>
<text text-anchor="middle" x="57.5" y="-130.8" font-family="Times,serif" font-size="14.00">षष्ठीसम्बन्धः</text>
</g>
</g>
</svg>
