<?xml version="1.0" encoding="UTF-8" standalone="no"?>
<!DOCTYPE svg PUBLIC "-//W3C//DTD SVG 1.1//EN"
 "http://www.w3.org/Graphics/SVG/1.1/DTD/svg11.dtd">
<!-- Generated by graphviz version 2.50.0 (20211204.2007)
 -->
<!-- Title: G Pages: 1 -->
<svg width="913pt" height="321pt"
 viewBox="0.00 0.00 913.20 321.00" xmlns="http://www.w3.org/2000/svg" xmlns:xlink="http://www.w3.org/1999/xlink">
<g id="graph0" class="graph" transform="scale(1 1) rotate(0) translate(4 317)">
<title>G</title>
<polygon fill="#fffacd" stroke="transparent" points="-4,4 -4,-317 909.2,-317 909.2,4 -4,4"/>
<g id="clust1" class="cluster">
<title>cluster_1</title>
<polygon fill="#fffacd" stroke="black" points="8,-8 8,-147 242,-147 242,-8 8,-8"/>
</g>
<g id="clust2" class="cluster">
<title>cluster_2</title>
<polygon fill="#fffacd" stroke="black" points="571,-95 571,-234 807,-234 807,-95 571,-95"/>
</g>
<!-- Node2_1 -->
<g id="node1" class="node">
<title>Node2_1</title>
<ellipse fill="#93db70" stroke="#93db70" cx="186" cy="-34" rx="48.19" ry="18"/>
<text text-anchor="middle" x="186" y="-30.3" font-family="Times,serif" font-size="14.00">अल्पम्(2.1)</text>
</g>
<!-- Node6_2 -->
<g id="node2" class="node">
<title>Node6_2</title>
<ellipse fill="#93db70" stroke="#93db70" cx="189" cy="-121" rx="45.49" ry="18"/>
<text text-anchor="middle" x="189" y="-117.3" font-family="Times,serif" font-size="14.00">अस्रम्(6.2)</text>
</g>
<!-- Node2_1&#45;&gt;Node6_2 -->
<g id="edge2" class="edge">
<title>Node2_1&#45;&gt;Node6_2</title>
<path fill="none" stroke="black" d="M186.96,-62.27C187.43,-75.58 187.98,-91.19 188.39,-102.82"/>
<polygon fill="black" stroke="black" points="190.46,-62.07 186.61,-52.2 183.46,-62.32 190.46,-62.07"/>
<text text-anchor="middle" x="211.5" y="-73.8" font-family="Times,serif" font-size="14.00">विशेषणम्</text>
</g>
<!-- Node3_1 -->
<g id="node8" class="node">
<title>Node3_1</title>
<ellipse fill="#ff1975" stroke="#ff1975" cx="290" cy="-208" rx="47.39" ry="18"/>
<text text-anchor="middle" x="290" y="-204.3" font-family="Times,serif" font-size="14.00">मूत्रयेत्(3.1)</text>
</g>
<!-- Node6_2&#45;&gt;Node3_1 -->
<g id="edge6" class="edge">
<title>Node6_2&#45;&gt;Node3_1</title>
<path fill="none" stroke="black" d="M215.19,-144.04C232.76,-158.83 255.48,-177.95 271.25,-191.22"/>
<polygon fill="black" stroke="black" points="217.43,-141.35 207.52,-137.59 212.92,-146.71 217.43,-141.35"/>
<text text-anchor="middle" x="255" y="-160.8" font-family="Times,serif" font-size="14.00">कर्म</text>
</g>
<!-- Node5_1 -->
<g id="node3" class="node">
<title>Node5_1</title>
<ellipse fill="#93db70" stroke="#93db70" cx="68" cy="-34" rx="51.99" ry="18"/>
<text text-anchor="middle" x="68" y="-30.3" font-family="Times,serif" font-size="14.00">विवर्णम्(5.1)</text>
</g>
<!-- Node5_1&#45;&gt;Node6_2 -->
<g id="edge4" class="edge">
<title>Node5_1&#45;&gt;Node6_2</title>
<path fill="none" stroke="black" d="M97.09,-56.42C109.34,-65.35 123.8,-75.78 137,-85 146.63,-91.73 157.4,-99.01 166.62,-105.18"/>
<polygon fill="black" stroke="black" points="99.14,-53.59 89,-50.51 95.01,-59.24 99.14,-53.59"/>
<text text-anchor="middle" x="160.5" y="-73.8" font-family="Times,serif" font-size="14.00">विशेषणम्</text>
</g>
<!-- Node10_2 -->
<g id="node4" class="node">
<title>Node10_2</title>
<ellipse fill="#00bfff" stroke="#00bfff" cx="630" cy="-121" rx="50.89" ry="18"/>
<text text-anchor="middle" x="630" y="-117.3" font-family="Times,serif" font-size="14.00">च्युतिः(10.2)</text>
</g>
<!-- Node12_1 -->
<g id="node5" class="node">
<title>Node12_1</title>
<ellipse fill="#00bfff" stroke="#00bfff" cx="635" cy="-208" rx="55.49" ry="18"/>
<text text-anchor="middle" x="635" y="-204.3" font-family="Times,serif" font-size="14.00">स्फुटनम्(12.1)</text>
</g>
<!-- Node10_2&#45;&gt;Node12_1 -->
<g id="edge11" class="edge">
<title>Node10_2&#45;&gt;Node12_1</title>
<path fill="none" stroke="black" d="M631.6,-149.27C632.39,-162.58 633.31,-178.19 633.99,-189.82"/>
<polygon fill="black" stroke="black" points="635.09,-148.98 631.01,-139.2 628.11,-149.39 635.09,-148.98"/>
<text text-anchor="middle" x="654.5" y="-160.8" font-family="Times,serif" font-size="14.00">समुच्चितः</text>
</g>
<!-- Node13_2 -->
<g id="node14" class="node">
<title>Node13_2</title>
<ellipse fill="#ff1975" stroke="#ff1975" cx="560" cy="-295" rx="55.49" ry="18"/>
<text text-anchor="middle" x="560" y="-291.3" font-family="Times,serif" font-size="14.00">(भवति)(13.2)</text>
</g>
<!-- Node12_1&#45;&gt;Node13_2 -->
<g id="edge14" class="edge">
<title>Node12_1&#45;&gt;Node13_2</title>
<path fill="none" stroke="black" d="M616.3,-233.48C609.75,-241.75 602.23,-250.92 595,-259 589.38,-265.28 582.94,-271.87 577.12,-277.63"/>
<polygon fill="black" stroke="black" points="619.07,-235.62 622.47,-225.59 613.55,-231.31 619.07,-235.62"/>
<text text-anchor="middle" x="618" y="-247.8" font-family="Times,serif" font-size="14.00">कर्ता</text>
</g>
<!-- Node11_2 -->
<g id="node6" class="node">
<title>Node11_2</title>
<ellipse fill="#00bfff" stroke="#00bfff" cx="749" cy="-121" rx="50.09" ry="18"/>
<text text-anchor="middle" x="749" y="-117.3" font-family="Times,serif" font-size="14.00">रोमता(11.2)</text>
</g>
<!-- Node11_2&#45;&gt;Node12_1 -->
<g id="edge13" class="edge">
<title>Node11_2&#45;&gt;Node12_1</title>
<path fill="none" stroke="black" d="M719.97,-143.64C700.07,-158.48 674.12,-177.83 656.16,-191.22"/>
<polygon fill="black" stroke="black" points="722.17,-146.37 728.09,-137.59 717.98,-140.76 722.17,-146.37"/>
<text text-anchor="middle" x="720.5" y="-160.8" font-family="Times,serif" font-size="14.00">समुच्चितः</text>
</g>
<!-- Node1_1 -->
<g id="node7" class="node">
<title>Node1_1</title>
<ellipse fill="#c6e2eb" stroke="#c6e2eb" cx="290" cy="-121" rx="37.09" ry="18"/>
<text text-anchor="middle" x="290" y="-117.3" font-family="Times,serif" font-size="14.00">मूत्रे(1.1)</text>
</g>
<!-- Node1_1&#45;&gt;Node3_1 -->
<g id="edge1" class="edge">
<title>Node1_1&#45;&gt;Node3_1</title>
<path fill="none" stroke="black" d="M290,-149.27C290,-162.58 290,-178.19 290,-189.82"/>
<polygon fill="black" stroke="black" points="293.5,-149.2 290,-139.2 286.5,-149.2 293.5,-149.2"/>
<text text-anchor="middle" x="317.5" y="-160.8" font-family="Times,serif" font-size="14.00">अधिकरणम्</text>
</g>
<!-- Node4_1 -->
<g id="node9" class="node">
<title>Node4_1</title>
<ellipse fill="#b4ffb4" stroke="#b4ffb4" cx="396" cy="-121" rx="51.19" ry="18"/>
<text text-anchor="middle" x="396" y="-117.3" font-family="Times,serif" font-size="14.00">कृच्छ्रात्(4.1)</text>
</g>
<!-- Node4_1&#45;&gt;Node3_1 -->
<g id="edge3" class="edge">
<title>Node4_1&#45;&gt;Node3_1</title>
<path fill="none" stroke="black" d="M375.87,-146.11C367.98,-154.81 358.54,-164.35 349,-172 339.15,-179.9 327.34,-187.26 316.89,-193.17"/>
<polygon fill="black" stroke="black" points="378.64,-148.25 382.64,-138.44 373.4,-143.62 378.64,-148.25"/>
<text text-anchor="middle" x="401.5" y="-160.8" font-family="Times,serif" font-size="14.00">क्रियाविशेषणम्</text>
</g>
<!-- Node6_1 -->
<g id="node10" class="node">
<title>Node6_1</title>
<ellipse fill="#ffff00" stroke="#ffff00" cx="288" cy="-34" rx="36.29" ry="18"/>
<text text-anchor="middle" x="288" y="-30.3" font-family="Times,serif" font-size="14.00">स&#45;(6.1)</text>
</g>
<!-- Node6_1&#45;&gt;Node6_2 -->
<g id="edge5" class="edge">
<title>Node6_1&#45;&gt;Node6_2</title>
<path fill="none" stroke="black" d="M266.8,-58.4C258.47,-67.11 248.61,-76.86 239,-85 230.59,-92.13 220.77,-99.24 212.06,-105.17"/>
<polygon fill="black" stroke="black" points="269.39,-60.75 273.69,-51.07 264.29,-55.96 269.39,-60.75"/>
<text text-anchor="middle" x="284" y="-73.8" font-family="Times,serif" font-size="14.00">अव्ययीभावः</text>
</g>
<!-- Node7_1 -->
<g id="node11" class="node">
<title>Node7_1</title>
<ellipse fill="#ff99ff" stroke="#ff99ff" cx="380" cy="-34" rx="37.89" ry="18"/>
<text text-anchor="middle" x="380" y="-30.3" font-family="Times,serif" font-size="14.00">एव(7.1)</text>
</g>
<!-- Node7_1&#45;&gt;Node6_2 -->
<g id="edge7" class="edge">
<title>Node7_1&#45;&gt;Node6_2</title>
<path fill="none" stroke="black" d="M357.41,-57.83C346.2,-67.8 331.88,-78.65 317,-85 286.88,-97.86 275.46,-85.91 244,-95 234.33,-97.8 224.17,-102.01 215.26,-106.19"/>
<polygon fill="black" stroke="black" points="360.04,-60.17 364.99,-50.8 355.28,-55.03 360.04,-60.17"/>
<text text-anchor="middle" x="360.5" y="-73.8" font-family="Times,serif" font-size="14.00">सम्बन्धः</text>
</g>
<!-- Node8_1 -->
<g id="node12" class="node">
<title>Node8_1</title>
<ellipse fill="#ff99ff" stroke="#ff99ff" cx="471" cy="-34" rx="35.19" ry="18"/>
<text text-anchor="middle" x="471" y="-30.3" font-family="Times,serif" font-size="14.00">वा(8.1)</text>
</g>
<!-- Node8_1&#45;&gt;Node6_2 -->
<g id="edge8" class="edge">
<title>Node8_1&#45;&gt;Node6_2</title>
<path fill="none" stroke="black" d="M443.24,-55.04C426.61,-65.93 404.57,-78.46 383,-85 323.72,-102.96 304.02,-79.72 244,-95 234.04,-97.54 223.64,-101.79 214.61,-106.08"/>
<polygon fill="black" stroke="black" points="445.55,-57.71 451.89,-49.22 441.64,-51.9 445.55,-57.71"/>
<text text-anchor="middle" x="435.5" y="-73.8" font-family="Times,serif" font-size="14.00">सम्बन्धः</text>
</g>
<!-- Node9_1 -->
<g id="node13" class="node">
<title>Node9_1</title>
<ellipse fill="#c6e2eb" stroke="#c6e2eb" cx="521" cy="-208" rx="40.09" ry="18"/>
<text text-anchor="middle" x="521" y="-204.3" font-family="Times,serif" font-size="14.00">स्वेदे(9.1)</text>
</g>
<!-- Node9_1&#45;&gt;Node13_2 -->
<g id="edge9" class="edge">
<title>Node9_1&#45;&gt;Node13_2</title>
<path fill="none" stroke="black" d="M530.2,-235.53C533.1,-243.21 536.47,-251.53 540,-259 542.87,-265.08 546.4,-271.52 549.69,-277.19"/>
<polygon fill="black" stroke="black" points="533.42,-234.13 526.69,-225.94 526.84,-236.53 533.42,-234.13"/>
<text text-anchor="middle" x="567.5" y="-247.8" font-family="Times,serif" font-size="14.00">अधिकरणम्</text>
</g>
<!-- Node10_1 -->
<g id="node15" class="node">
<title>Node10_1</title>
<ellipse fill="#ffff00" stroke="#ffff00" cx="630" cy="-34" rx="45.49" ry="18"/>
<text text-anchor="middle" x="630" y="-30.3" font-family="Times,serif" font-size="14.00">रोम&#45;(10.1)</text>
</g>
<!-- Node10_1&#45;&gt;Node10_2 -->
<g id="edge10" class="edge">
<title>Node10_1&#45;&gt;Node10_2</title>
<path fill="none" stroke="black" d="M630,-62.27C630,-75.58 630,-91.19 630,-102.82"/>
<polygon fill="black" stroke="black" points="633.5,-62.2 630,-52.2 626.5,-62.2 633.5,-62.2"/>
<text text-anchor="middle" x="660.5" y="-73.8" font-family="Times,serif" font-size="14.00">षष्ठी&#45;तत्पुरुषः</text>
</g>
<!-- Node11_1 -->
<g id="node16" class="node">
<title>Node11_1</title>
<ellipse fill="#ffff00" stroke="#ffff00" cx="749" cy="-34" rx="51.99" ry="18"/>
<text text-anchor="middle" x="749" y="-30.3" font-family="Times,serif" font-size="14.00">स्तब्ध&#45;(11.1)</text>
</g>
<!-- Node11_1&#45;&gt;Node11_2 -->
<g id="edge12" class="edge">
<title>Node11_1&#45;&gt;Node11_2</title>
<path fill="none" stroke="black" d="M749,-62.27C749,-75.58 749,-91.19 749,-102.82"/>
<polygon fill="black" stroke="black" points="752.5,-62.2 749,-52.2 745.5,-62.2 752.5,-62.2"/>
<text text-anchor="middle" x="772.5" y="-73.8" font-family="Times,serif" font-size="14.00">कर्मधारयः</text>
</g>
<!-- Node13_1 -->
<g id="node17" class="node">
<title>Node13_1</title>
<ellipse fill="#87ceeb" stroke="#87ceeb" cx="513" cy="-121" rx="48.19" ry="18"/>
<text text-anchor="middle" x="513" y="-117.3" font-family="Times,serif" font-size="14.00">त्वचः(13.1)</text>
</g>
<!-- Node13_1&#45;&gt;Node12_1 -->
<g id="edge15" class="edge">
<title>Node13_1&#45;&gt;Node12_1</title>
<path fill="none" stroke="black" d="M537.82,-144.91C548.05,-153.84 560.24,-163.86 572,-172 582.7,-179.4 595.11,-186.57 606.06,-192.46"/>
<polygon fill="black" stroke="black" points="539.89,-142.07 530.09,-138.04 535.24,-147.3 539.89,-142.07"/>
<text text-anchor="middle" x="600" y="-160.8" font-family="Times,serif" font-size="14.00">षष्ठीसम्बन्धः</text>
</g>
<!-- Node13_3 -->
<g id="node18" class="node">
<title>Node13_3</title>
<ellipse fill="#ff99ff" stroke="#ff99ff" cx="861" cy="-121" rx="44.39" ry="18"/>
<text text-anchor="middle" x="861" y="-117.3" font-family="Times,serif" font-size="14.00">(च)(13.3)</text>
</g>
<!-- Node13_3&#45;&gt;Node12_1 -->
<g id="edge16" class="edge">
<title>Node13_3&#45;&gt;Node12_1</title>
<path fill="none" stroke="black" d="M825.75,-140.13C820.83,-142.51 815.81,-144.86 811,-147 765.71,-167.12 711.46,-184.68 675.27,-195.52"/>
<polygon fill="black" stroke="black" points="827.59,-143.12 835.01,-135.56 824.49,-136.84 827.59,-143.12"/>
<text text-anchor="middle" x="821.5" y="-160.8" font-family="Times,serif" font-size="14.00">समुच्चय_द्योतकः</text>
</g>
</g>
</svg>
