<svg width="767pt" height="538pt"
 viewBox="0.00 0.00 767.00 538.00" xmlns="http://www.w3.org/2000/svg" xmlns:xlink="http://www.w3.org/1999/xlink">
<g id="graph0" class="graph" transform="scale(1 1) rotate(0) translate(4 534)">
<title>G</title>
<polygon fill="#fffacd" stroke="transparent" points="-4,4 -4,-534 763,-534 763,4 -4,4"/>
<g id="clust1" class="cluster">
<title>cluster_1</title>
<polygon fill="#fffacd" stroke="black" points="625,-312 625,-364 695,-364 695,-312 625,-312"/>
</g>
<!-- Node3_1 -->
<style>
 .hidden { display: none; }
 .node { cursor: pointer; }
 </style>
<script>
     function toggleChildren(id) {
      const children = document.getElementById(id);
      if (children.classList.contains('hidden')) {
        children.classList.remove('hidden');
      } else {
        children.classList.add('hidden');
      }
    }
</script>
<g id="children_node0_82801" class="hidden">
    <g class="node" onclick="toggleChildren('children_node0_82801');">
</g>
</g>
<g id="children_node1_82801" class="hidden">
    <g class="node" onclick="toggleChildren('children_node1_82801');">

<g id="node1" class="node">
<title>Node3_1</title>
<polygon fill="#ffff00" stroke="#ffff00" points="54,-36 0,-36 0,0 54,0 54,-36"/>
<text text-anchor="middle" x="27" y="-14.3" font-family="Times,serif" font-size="14.00">पञ्च&#45;</text>
</g>
<!-- Node3_2 -->
<g id="node2" class="node">
<title>Node3_2</title>
<polygon fill="#ffff00" stroke="#ffff00" points="144,-36 90,-36 90,0 144,0 144,-36"/>
<text text-anchor="middle" x="117" y="-14.3" font-family="Times,serif" font-size="14.00">मूलस्य</text>
</g>
<!-- Node3_1&#45;&gt;Node3_2 -->
<!-- Node3_2_1 -->
<g id="node3" class="node">
<title>Node3_2_1</title>
<polygon fill="#ffff00" stroke="#ffff00" points="171.5,-109 16.5,-109 16.5,-73 171.5,-73 171.5,-109"/>
<text text-anchor="middle" x="94" y="-87.3" font-family="Times,serif" font-size="14.00">&lt;पञ्च&#45;मूलस्य&gt;(समाहार&#45;द्विगुः)</text>
</g>
<!-- Node3_1&#45;&gt;Node3_2_1 -->
<g id="edge2" class="edge">
<title>Node3_1&#45;&gt;Node3_2_1</title>
<path fill="none" stroke="black" d="M50.24,-43.63C59.38,-53.31 69.64,-64.19 77.93,-72.97"/>
<polygon fill="black" stroke="black" points="52.63,-41.06 43.22,-36.19 47.54,-45.86 52.63,-41.06"/>
</g>
<!-- Node3_2&#45;&gt;Node3_2_1 -->
<g id="edge1" class="edge">
<title>Node3_2&#45;&gt;Node3_2_1</title>
<path fill="none" stroke="black" d="M108.27,-45.95C105.33,-55.02 102.14,-64.88 99.52,-72.97"/>
<polygon fill="black" stroke="black" points="111.68,-46.78 111.43,-36.19 105.02,-44.62 111.68,-46.78"/>
</g>
<!-- Node3_2_1&#45;&gt;Node3_2_1c -->
<g id="edge4" class="edge">
<title>Node3_2_1&#45;&gt;Node3_2_1c</title>
<path fill="none" stroke="black" d="M94,-119.25C94,-128.23 94,-137.97 94,-145.97"/>
<polygon fill="black" stroke="black" points="97.5,-119.19 94,-109.19 90.5,-119.19 97.5,-119.19"/>
</g>
</g>
</g>
<!-- Node3_2_1c -->
<g class="node4" onclick="toggleChildren('children_node1_82801');">
<title>Node3_2_1c</title>
<polygon fill="#87ceeb" stroke="#87ceeb" points="136,-182 52,-182 52,-146 136,-146 136,-182"/>
<text text-anchor="middle" x="94" y="-160.3" font-family="Times,serif" font-size="14.00">पञ्च&#45;मूलस्य(3)</text>
</g>
<g id="children_node2_82801" class="hidden">
    <g class="node" onclick="toggleChildren('children_node2_82801');">
<!-- Node4_1 -->
<g id="node5" class="node">
<title>Node4_1</title>
<polygon fill="#ffff00" stroke="#ffff00" points="226,-182 172,-182 172,-146 226,-146 226,-182"/>
<text text-anchor="middle" x="199" y="-160.3" font-family="Times,serif" font-size="14.00">शिला&#45;</text>
</g>
<!-- Node4_2 -->
<g id="node6" class="node">
<title>Node4_2</title>
<polygon fill="#ffff00" stroke="#ffff00" points="316,-182 262,-182 262,-146 316,-146 316,-182"/>
<text text-anchor="middle" x="289" y="-160.3" font-family="Times,serif" font-size="14.00">जतु&#45;</text>
</g>
<!-- Node4_1&#45;&gt;Node4_2 -->
<!-- Node4_2_1 -->
<g id="node7" class="node">
<title>Node4_2_1</title>
<polygon fill="#ffff00" stroke="#ffff00" points="293,-269 141,-269 141,-233 293,-233 293,-269"/>
<text text-anchor="middle" x="217" y="-247.3" font-family="Times,serif" font-size="14.00">&lt;शिला&#45;जतु&#45;&gt;(इतरेतर&#45;द्वन्द्वः)</text>
</g>
<!-- Node4_1&#45;&gt;Node4_2_1 -->
<g id="edge7" class="edge">
<title>Node4_1&#45;&gt;Node4_2_1</title>
<path fill="none" stroke="black" d="M204.77,-192.27C207.59,-205.58 210.9,-221.19 213.36,-232.82"/>
<polygon fill="black" stroke="black" points="208.14,-191.26 202.64,-182.2 201.29,-192.71 208.14,-191.26"/>
</g>
<!-- Node4_2&#45;&gt;Node4_2_1 -->
<g id="edge6" class="edge">
<title>Node4_2&#45;&gt;Node4_2_1</title>
<path fill="none" stroke="black" d="M267.89,-189.92C256.21,-203.71 241.99,-220.5 231.55,-232.82"/>
<polygon fill="black" stroke="black" points="270.64,-192.09 274.43,-182.2 265.3,-187.57 270.64,-192.09"/>
</g>
<!-- Node4_3 -->
<g id="node8" class="node">
<title>Node4_3</title>
<polygon fill="#ffff00" stroke="#ffff00" points="383,-269 329,-269 329,-233 383,-233 383,-269"/>
<text text-anchor="middle" x="356" y="-247.3" font-family="Times,serif" font-size="14.00">प्रयोगः</text>
</g>
<!-- Node4_2_1&#45;&gt;Node4_3 -->
<!-- Node4_3_2 -->
<g id="node9" class="node">
<title>Node4_3_2</title>
<polygon fill="#ffff00" stroke="#ffff00" points="481.5,-356 212.5,-356 212.5,-320 481.5,-320 481.5,-356"/>
<text text-anchor="middle" x="347" y="-334.3" font-family="Times,serif" font-size="14.00">&lt;&lt;शिला&#45;जतु&#45;&gt;(इतरेतर&#45;द्वन्द्वः)प्रयोगः&gt;(षष्ठी&#45;तत्पुरुषः)</text>
</g>
<!-- Node4_2_1&#45;&gt;Node4_3_2 -->
<g id="edge10" class="edge">
<title>Node4_2_1&#45;&gt;Node4_3_2</title>
<path fill="none" stroke="black" d="M251.9,-274.82C273.55,-288.97 300.92,-306.87 320.73,-319.82"/>
<polygon fill="black" stroke="black" points="253.59,-271.74 243.31,-269.2 249.76,-277.6 253.59,-271.74"/>
</g>
<!-- Node4_3&#45;&gt;Node4_3_2 -->
<g id="edge9" class="edge">
<title>Node4_3&#45;&gt;Node4_3_2</title>
<path fill="none" stroke="black" d="M353.11,-279.27C351.7,-292.58 350.05,-308.19 348.82,-319.82"/>
<polygon fill="black" stroke="black" points="356.61,-279.51 354.18,-269.2 349.65,-278.78 356.61,-279.51"/>
</g>
<!-- Node4_3_2&#45;&gt;Node4_3_2c -->
<g id="edge12" class="edge">
<title>Node4_3_2&#45;&gt;Node4_3_2c</title>
<path fill="none" stroke="black" d="M398.54,-359.86C434.29,-374.33 481.31,-393.36 514.82,-406.93"/>
<polygon fill="black" stroke="black" points="399.83,-356.61 389.24,-356.1 397.2,-363.1 399.83,-356.61"/>
</g>
</g>
</g>
<!-- Node4_3_2c -->
<g class="node10" onclick="toggleChildren('children_node2_82801');">
<title>Node4_3_2c</title>
<polygon fill="#00bfff" stroke="#00bfff" points="615,-443 499,-443 499,-407 615,-407 615,-443"/>
<text text-anchor="middle" x="557" y="-421.3" font-family="Times,serif" font-size="14.00">शिला&#45;जतु&#45;प्रयोगः(4)</text>
</g>
<g id="children_node3_82801" class="hidden">
    <g class="node" onclick="toggleChildren('children_node3_82801');">
<!-- Node6_1 -->
<g id="node11" class="node">
<title>Node6_1</title>
<polygon fill="#ffff00" stroke="#ffff00" points="437,-36 383,-36 383,0 437,0 437,-36"/>
<text text-anchor="middle" x="410" y="-14.3" font-family="Times,serif" font-size="14.00">स&#45;</text>
</g>
<!-- Node6_2 -->
<g id="node12" class="node">
<title>Node6_2</title>
<polygon fill="#ffff00" stroke="#ffff00" points="527,-36 473,-36 473,0 527,0 527,-36"/>
<text text-anchor="middle" x="500" y="-14.3" font-family="Times,serif" font-size="14.00">अग्नि&#45;</text>
</g>
<!-- Node6_1&#45;&gt;Node6_2 -->
<!-- Node6_2_1 -->
<g id="node13" class="node">
<title>Node6_2_1</title>
<polygon fill="#ffff00" stroke="#ffff00" points="525.5,-109 384.5,-109 384.5,-73 525.5,-73 525.5,-109"/>
<text text-anchor="middle" x="455" y="-87.3" font-family="Times,serif" font-size="14.00">&lt;स&#45;अग्नि&#45;&gt;(अव्ययीभावः)</text>
</g>
<!-- Node6_1&#45;&gt;Node6_2_1 -->
<g id="edge15" class="edge">
<title>Node6_1&#45;&gt;Node6_2_1</title>
<path fill="none" stroke="black" d="M426.34,-44.79C432.29,-54.17 438.86,-64.54 444.21,-72.97"/>
<polygon fill="black" stroke="black" points="429.2,-42.76 420.89,-36.19 423.29,-46.51 429.2,-42.76"/>
</g>
<!-- Node6_2&#45;&gt;Node6_2_1 -->
<g id="edge14" class="edge">
<title>Node6_2&#45;&gt;Node6_2_1</title>
<path fill="none" stroke="black" d="M483.66,-44.79C477.71,-54.17 471.14,-64.54 465.79,-72.97"/>
<polygon fill="black" stroke="black" points="486.71,-46.51 489.11,-36.19 480.8,-42.76 486.71,-46.51"/>
</g>
<!-- Node6_3 -->
<g id="node14" class="node">
<title>Node6_3</title>
<polygon fill="#ffff00" stroke="#ffff00" points="615,-109 561,-109 561,-73 615,-73 615,-109"/>
<text text-anchor="middle" x="588" y="-87.3" font-family="Times,serif" font-size="14.00">मन्थ&#45;</text>
</g>
<!-- Node6_2_1&#45;&gt;Node6_3 -->
<!-- Node6_3_2 -->
<g id="node15" class="node">
<title>Node6_3_2</title>
<polygon fill="#ffff00" stroke="#ffff00" points="653.5,-182 390.5,-182 390.5,-146 653.5,-146 653.5,-182"/>
<text text-anchor="middle" x="522" y="-160.3" font-family="Times,serif" font-size="14.00">&lt;&lt;स&#45;अग्नि&#45;&gt;(अव्ययीभावः)मन्थ&#45;&gt;(तृतीया&#45;तत्पुरुषः)</text>
</g>
<!-- Node6_2_1&#45;&gt;Node6_3_2 -->
<g id="edge18" class="edge">
<title>Node6_2_1&#45;&gt;Node6_3_2</title>
<path fill="none" stroke="black" d="M478.24,-116.63C487.38,-126.31 497.64,-137.19 505.93,-145.97"/>
<polygon fill="black" stroke="black" points="480.63,-114.06 471.22,-109.19 475.54,-118.86 480.63,-114.06"/>
</g>
<!-- Node6_3&#45;&gt;Node6_3_2 -->
<g id="edge17" class="edge">
<title>Node6_3&#45;&gt;Node6_3_2</title>
<path fill="none" stroke="black" d="M565.1,-116.63C556.1,-126.31 545.99,-137.19 537.83,-145.97"/>
<polygon fill="black" stroke="black" points="567.78,-118.89 572.02,-109.19 562.65,-114.13 567.78,-118.89"/>
</g>
<!-- Node6_4 -->
<g id="node16" class="node">
<title>Node6_4</title>
<polygon fill="#ffff00" stroke="#ffff00" points="743,-182 689,-182 689,-146 743,-146 743,-182"/>
<text text-anchor="middle" x="716" y="-160.3" font-family="Times,serif" font-size="14.00">रसः</text>
</g>
<!-- Node6_3_2&#45;&gt;Node6_4 -->
<!-- Node6_4_3 -->
<g id="node17" class="node">
<title>Node6_4_3</title>
<polygon fill="#ffff00" stroke="#ffff00" points="752.5,-269 401.5,-269 401.5,-233 752.5,-233 752.5,-269"/>
<text text-anchor="middle" x="577" y="-247.3" font-family="Times,serif" font-size="14.00">&lt;&lt;&lt;स&#45;अग्नि&#45;&gt;(अव्ययीभावः)मन्थ&#45;&gt;(तृतीया&#45;तत्पुरुषः)रसः&gt;(कर्मधारयः)</text>
</g>
<!-- Node6_3_2&#45;&gt;Node6_4_3 -->
<g id="edge21" class="edge">
<title>Node6_3_2&#45;&gt;Node6_4_3</title>
<path fill="none" stroke="black" d="M538.63,-190.7C547.45,-204.34 558.06,-220.73 565.89,-232.82"/>
<polygon fill="black" stroke="black" points="541.5,-188.7 533.13,-182.2 535.62,-192.5 541.5,-188.7"/>
</g>
<!-- Node6_4&#45;&gt;Node6_4_3 -->
<g id="edge20" class="edge">
<title>Node6_4&#45;&gt;Node6_4_3</title>
<path fill="none" stroke="black" d="M680.26,-186.86C656.85,-201.17 626.69,-219.62 605.02,-232.87"/>
<polygon fill="black" stroke="black" points="682.16,-189.79 688.87,-181.59 678.51,-183.82 682.16,-189.79"/>
</g>
<!-- Node6_4_3&#45;&gt;Node6_4_3c -->
<g id="edge23" class="edge">
<title>Node6_4_3&#45;&gt;Node6_4_3c</title>
<path fill="none" stroke="black" d="M570.58,-279.27C567.45,-292.58 563.78,-308.19 561.04,-319.82"/>
<polygon fill="black" stroke="black" points="574.07,-279.74 572.95,-269.2 567.26,-278.13 574.07,-279.74"/>
</g>
</g>
</g>
<!-- Node6_4_3c -->
<g class="node18" onclick="toggleChildren('children_node3_82801');">
<title>Node6_4_3c</title>
<polygon fill="#00bfff" stroke="#00bfff" points="614.5,-356 499.5,-356 499.5,-320 614.5,-320 614.5,-356"/>
<text text-anchor="middle" x="557" y="-334.3" font-family="Times,serif" font-size="14.00">स&#45;अग्नि&#45;मन्थ&#45;रसः(6)</text>
</g>
<!-- Node2_1 -->
<g id="node21" class="node">
<title>Node2_1</title>
<polygon fill="#87ceeb" stroke="#87ceeb" points="123,-269 65,-269 65,-233 123,-233 123,-269"/>
<text text-anchor="middle" x="94" y="-247.3" font-family="Times,serif" font-size="14.00">महतः(2)</text>
</g>
<!-- Node3_2_1c&#45;&gt;Node2_1 -->
<g id="edge5" class="edge">
<title>Node3_2_1c&#45;&gt;Node2_1</title>
<path fill="none" stroke="black" d="M94,-192.27C94,-205.58 94,-221.19 94,-232.82"/>
<polygon fill="black" stroke="black" points="97.5,-192.2 94,-182.2 90.5,-192.2 97.5,-192.2"/>
<text text-anchor="middle" x="122" y="-203.8" font-family="Times,serif" font-size="14.00">षष्ठीसम्बन्धः</text>
</g>
<!-- Node9_1 -->
<g id="node24" class="node">
<title>Node9_1</title>
<polygon fill="#ff1975" stroke="#ff1975" points="653,-530 585,-530 585,-494 653,-494 653,-530"/>
<text text-anchor="middle" x="619" y="-508.3" font-family="Times,serif" font-size="14.00">(इष्यते)(9)</text>
</g>
<!-- Node4_3_2c&#45;&gt;Node9_1 -->
<g id="edge13" class="edge">
<title>Node4_3_2c&#45;&gt;Node9_1</title>
<path fill="none" stroke="black" d="M575.46,-451.31C585.47,-465.02 597.57,-481.62 606.47,-493.82"/>
<polygon fill="black" stroke="black" points="578.27,-449.22 569.55,-443.2 572.61,-453.34 578.27,-449.22"/>
<text text-anchor="middle" x="601" y="-464.8" font-family="Times,serif" font-size="14.00">कर्म</text>
</g>
<!-- Node6_4_3c&#45;&gt;Node4_3_2c -->
<g id="edge24" class="edge">
<title>Node6_4_3c&#45;&gt;Node4_3_2c</title>
<path fill="none" stroke="black" d="M557,-366.27C557,-379.58 557,-395.19 557,-406.82"/>
<polygon fill="black" stroke="black" points="560.5,-366.2 557,-356.2 553.5,-366.2 560.5,-366.2"/>
<text text-anchor="middle" x="579.5" y="-377.8" font-family="Times,serif" font-size="14.00">समुच्चितः</text>
</g>
<!-- Node7_1 -->
<g id="node19" class="node">
<title>Node7_1</title>
<polygon fill="#00bfff" stroke="#00bfff" points="687,-356 633,-356 633,-320 687,-320 687,-356"/>
<text text-anchor="middle" x="660" y="-334.3" font-family="Times,serif" font-size="14.00">हितः(7)</text>
</g>
<!-- Node7_1&#45;&gt;Node4_3_2c -->
<g id="edge28" class="edge">
<title>Node7_1&#45;&gt;Node4_3_2c</title>
<path fill="none" stroke="black" d="M635.05,-363.34C626.1,-371.72 615.81,-381.01 606,-389 598.46,-395.14 589.93,-401.44 582.13,-406.97"/>
<polygon fill="black" stroke="black" points="637.67,-365.68 642.51,-356.25 632.85,-360.6 637.67,-365.68"/>
<text text-anchor="middle" x="645.5" y="-377.8" font-family="Times,serif" font-size="14.00">विशेषणम्</text>
</g>
<!-- Node1_1 -->
<g id="node20" class="node">
<title>Node1_1</title>
<polygon fill="#87ceeb" stroke="#87ceeb" points="159,-356 81,-356 81,-320 159,-320 159,-356"/>
<text text-anchor="middle" x="120" y="-334.3" font-family="Times,serif" font-size="14.00">रसाञ्जनस्य(1)</text>
</g>
<!-- Node1_1&#45;&gt;Node4_3_2c -->
<g id="edge25" class="edge">
<title>Node1_1&#45;&gt;Node4_3_2c</title>
<path fill="none" stroke="black" d="M169.31,-354.95C180.33,-358.21 192.01,-361.42 203,-364 306.17,-388.18 428.43,-406.71 498.92,-416.42"/>
<polygon fill="black" stroke="black" points="170,-351.51 159.41,-351.97 167.98,-358.21 170,-351.51"/>
<text text-anchor="middle" x="347" y="-377.8" font-family="Times,serif" font-size="14.00">षष्ठीसम्बन्धः</text>
</g>
<!-- Node2_1&#45;&gt;Node1_1 -->
<g id="edge26" class="edge">
<title>Node2_1&#45;&gt;Node1_1</title>
<path fill="none" stroke="black" d="M102.22,-278.87C106.32,-292.27 111.15,-308.08 114.75,-319.82"/>
<polygon fill="black" stroke="black" points="105.53,-277.74 99.26,-269.2 98.84,-279.79 105.53,-277.74"/>
<text text-anchor="middle" x="137" y="-290.8" font-family="Times,serif" font-size="14.00">षष्ठीसम्बन्धः</text>
</g>
<!-- Node5_1 -->
<g id="node22" class="node">
<title>Node5_1</title>
<polygon fill="#ff99ff" stroke="#ff99ff" points="759,-356 705,-356 705,-320 759,-320 759,-356"/>
<text text-anchor="middle" x="732" y="-334.3" font-family="Times,serif" font-size="14.00">च(5)</text>
</g>
<!-- Node5_1&#45;&gt;Node4_3_2c -->
<g id="edge27" class="edge">
<title>Node5_1&#45;&gt;Node4_3_2c</title>
<path fill="none" stroke="black" d="M708,-363.25C697.89,-372.36 685.57,-382.17 673,-389 662.51,-394.7 638.52,-402.23 615.06,-408.84"/>
<polygon fill="black" stroke="black" points="710.67,-365.53 715.59,-356.15 705.89,-360.42 710.67,-365.53"/>
<text text-anchor="middle" x="712.5" y="-377.8" font-family="Times,serif" font-size="14.00">सम्बन्धः</text>
</g>
<!-- Node8_1 -->
<g id="node23" class="node">
<title>Node8_1</title>
<polygon fill="#b0e2ff" stroke="#b0e2ff" points="731,-443 633,-443 633,-407 731,-407 731,-443"/>
<text text-anchor="middle" x="682" y="-421.3" font-family="Times,serif" font-size="14.00">(अतिस्थूलाय)(8)</text>
</g>
<!-- Node8_1&#45;&gt;Node9_1 -->
<g id="edge29" class="edge">
<title>Node8_1&#45;&gt;Node9_1</title>
<path fill="none" stroke="black" d="M663.24,-451.31C653.08,-465.02 640.78,-481.62 631.73,-493.82"/>
<polygon fill="black" stroke="black" points="666.11,-453.32 669.25,-443.2 660.48,-449.15 666.11,-453.32"/>
<text text-anchor="middle" x="677" y="-464.8" font-family="Times,serif" font-size="14.00">सम्प्रदानम्</text>
</g>
</g>
</svg>
