<svg width="557pt" height="524pt"
 viewBox="0.00 0.00 557.00 524.00" xmlns="http://www.w3.org/2000/svg" xmlns:xlink="http://www.w3.org/1999/xlink">
<g id="graph0" class="graph" transform="scale(1 1) rotate(0) translate(4 520)">
<title>G</title>
<polygon fill="#fffacd" stroke="transparent" points="-4,4 -4,-520 553,-520 553,4 -4,4"/>
<g id="clust1" class="cluster">
<title>cluster_1</title>
<polygon fill="#fffacd" stroke="black" points="8,-211 8,-350 161,-350 161,-211 8,-211"/>
</g>
<g id="clust2" class="cluster">
<title>cluster_2</title>
<polygon fill="#fffacd" stroke="black" points="84,-385 84,-437 160,-437 160,-385 84,-385"/>
</g>
<!-- Node1_1 -->
<style>
 .hidden { display: none; }
 .node { cursor: pointer; }
 </style>
<script>
     function toggleChildren(id) {
      const children = document.getElementById(id);
      if (children.classList.contains('hidden')) {
        children.classList.remove('hidden');
      } else {
        children.classList.add('hidden');
      }
    }
</script>
<g id="children_node0_82910" class="hidden">
    <g class="node" onclick="toggleChildren('children_node0_82910');">
</g>
</g>
<g id="children_node1_82910" class="hidden">
    <g class="node" onclick="toggleChildren('children_node1_82910');">

<g id="node1" class="node">
<title>Node1_1</title>
<polygon fill="#ffff00" stroke="#ffff00" points="150,-36 96,-36 96,0 150,0 150,-36"/>
<text text-anchor="middle" x="123" y="-14.3" font-family="Times,serif" font-size="14.00">अति&#45;</text>
</g>
<!-- Node1_2 -->
<g id="node2" class="node">
<title>Node1_2</title>
<polygon fill="#ffff00" stroke="#ffff00" points="240,-36 186,-36 186,0 240,0 240,-36"/>
<text text-anchor="middle" x="213" y="-14.3" font-family="Times,serif" font-size="14.00">स्थौल्य&#45;</text>
</g>
<!-- Node1_1&#45;&gt;Node1_2 -->
<!-- Node1_2_1 -->
<g id="node3" class="node">
<title>Node1_2_1</title>
<polygon fill="#ffff00" stroke="#ffff00" points="247.5,-109 86.5,-109 86.5,-73 247.5,-73 247.5,-109"/>
<text text-anchor="middle" x="167" y="-87.3" font-family="Times,serif" font-size="14.00">&lt;अति&#45;स्थौल्य&#45;&gt;(अव्ययीभावः)</text>
</g>
<!-- Node1_1&#45;&gt;Node1_2_1 -->
<g id="edge2" class="edge">
<title>Node1_1&#45;&gt;Node1_2_1</title>
<path fill="none" stroke="black" d="M138.98,-44.79C144.8,-54.17 151.22,-64.54 156.45,-72.97"/>
<polygon fill="black" stroke="black" points="141.89,-42.84 133.65,-36.19 135.94,-46.53 141.89,-42.84"/>
</g>
<!-- Node1_2&#45;&gt;Node1_2_1 -->
<g id="edge1" class="edge">
<title>Node1_2&#45;&gt;Node1_2_1</title>
<path fill="none" stroke="black" d="M196.29,-44.79C190.21,-54.17 183.5,-64.54 178.03,-72.97"/>
<polygon fill="black" stroke="black" points="199.36,-46.48 201.86,-36.19 193.49,-42.68 199.36,-46.48"/>
</g>
<!-- Node1_3 -->
<g id="node4" class="node">
<title>Node1_3</title>
<polygon fill="#ffff00" stroke="#ffff00" points="344.5,-109 283.5,-109 283.5,-73 344.5,-73 344.5,-109"/>
<text text-anchor="middle" x="314" y="-87.3" font-family="Times,serif" font-size="14.00">आदिकान्</text>
</g>
<!-- Node1_2_1&#45;&gt;Node1_3 -->
<!-- Node1_3_2 -->
<g id="node5" class="node">
<title>Node1_3_2</title>
<polygon fill="#ffff00" stroke="#ffff00" points="375.5,-182 104.5,-182 104.5,-146 375.5,-146 375.5,-182"/>
<text text-anchor="middle" x="240" y="-160.3" font-family="Times,serif" font-size="14.00">&lt;&lt;अति&#45;स्थौल्य&#45;&gt;(अव्ययीभावः)आदिकान्&gt;(बहुव्रीहिः)</text>
</g>
<!-- Node1_2_1&#45;&gt;Node1_3_2 -->
<g id="edge5" class="edge">
<title>Node1_2_1&#45;&gt;Node1_3_2</title>
<path fill="none" stroke="black" d="M192.03,-116.35C202.06,-126.1 213.37,-137.1 222.49,-145.97"/>
<polygon fill="black" stroke="black" points="194.28,-113.65 184.67,-109.19 189.4,-118.67 194.28,-113.65"/>
</g>
<!-- Node1_3&#45;&gt;Node1_3_2 -->
<g id="edge4" class="edge">
<title>Node1_3&#45;&gt;Node1_3_2</title>
<path fill="none" stroke="black" d="M288.63,-116.35C278.46,-126.1 266.99,-137.1 257.75,-145.97"/>
<polygon fill="black" stroke="black" points="291.29,-118.64 296.09,-109.19 286.45,-113.58 291.29,-118.64"/>
</g>
<!-- Node1_3_2&#45;&gt;Node1_3_2c -->
<g id="edge7" class="edge">
<title>Node1_3_2&#45;&gt;Node1_3_2c</title>
<path fill="none" stroke="black" d="M240,-192.25C240,-201.23 240,-210.97 240,-218.97"/>
<polygon fill="black" stroke="black" points="243.5,-192.19 240,-182.19 236.5,-192.19 243.5,-192.19"/>
</g>
</g>
</g>
<!-- Node1_3_2c -->
<g class="node6" onclick="toggleChildren('children_node1_82910');">
<title>Node1_3_2c</title>
<polygon fill="#93db70" stroke="#93db70" points="309.5,-255 170.5,-255 170.5,-219 309.5,-219 309.5,-255"/>
<text text-anchor="middle" x="240" y="-233.3" font-family="Times,serif" font-size="14.00">अति&#45;स्थौल्य&#45;आदिकान्(1)</text>
</g>
<g id="children_node2_82910" class="hidden">
    <g class="node" onclick="toggleChildren('children_node2_82910');">
<!-- Node6_1 -->
<g id="node7" class="node">
<title>Node6_1</title>
<polygon fill="#ffff00" stroke="#ffff00" points="459,-182 405,-182 405,-146 459,-146 459,-182"/>
<text text-anchor="middle" x="432" y="-160.3" font-family="Times,serif" font-size="14.00">तद्&#45;</text>
</g>
<!-- Node6_2 -->
<g id="node8" class="node">
<title>Node6_2</title>
<polygon fill="#ffff00" stroke="#ffff00" points="549,-182 495,-182 495,-146 549,-146 549,-182"/>
<text text-anchor="middle" x="522" y="-160.3" font-family="Times,serif" font-size="14.00">विधान्</text>
</g>
<!-- Node6_1&#45;&gt;Node6_2 -->
<!-- Node6_2_1 -->
<g id="node9" class="node">
<title>Node6_2_1</title>
<polygon fill="#ffff00" stroke="#ffff00" points="538,-255 400,-255 400,-219 538,-219 538,-255"/>
<text text-anchor="middle" x="469" y="-233.3" font-family="Times,serif" font-size="14.00">&lt;तद्&#45;विधान्&gt;(कर्मधारयः)</text>
</g>
<!-- Node6_1&#45;&gt;Node6_2_1 -->
<g id="edge10" class="edge">
<title>Node6_1&#45;&gt;Node6_2_1</title>
<path fill="none" stroke="black" d="M445.59,-191.08C450.44,-200.39 455.78,-210.62 460.13,-218.97"/>
<polygon fill="black" stroke="black" points="448.68,-189.44 440.96,-182.19 442.47,-192.67 448.68,-189.44"/>
</g>
<!-- Node6_2&#45;&gt;Node6_2_1 -->
<g id="edge9" class="edge">
<title>Node6_2&#45;&gt;Node6_2_1</title>
<path fill="none" stroke="black" d="M503.18,-190.21C496.06,-199.74 488.14,-210.36 481.71,-218.97"/>
<polygon fill="black" stroke="black" points="505.99,-192.29 509.17,-182.19 500.38,-188.11 505.99,-192.29"/>
</g>
<!-- Node6_2_1&#45;&gt;Node6_2_1c -->
<g id="edge12" class="edge">
<title>Node6_2_1&#45;&gt;Node6_2_1c</title>
<path fill="none" stroke="black" d="M457.16,-264.4C452.27,-272.91 445.87,-281.75 438,-288 420.19,-302.16 396.32,-310.75 376.05,-315.87"/>
<polygon fill="black" stroke="black" points="460.32,-265.92 461.89,-255.44 454.13,-262.66 460.32,-265.92"/>
</g>
</g>
</g>
<!-- Node6_2_1c -->
<g class="node10" onclick="toggleChildren('children_node2_82910');">
<title>Node6_2_1c</title>
<polygon fill="#93db70" stroke="#93db70" points="376,-342 294,-342 294,-306 376,-306 376,-342"/>
<text text-anchor="middle" x="335" y="-320.3" font-family="Times,serif" font-size="14.00">तद्&#45;विधान्(6)</text>
</g>
<!-- Node4_1 -->
<g id="node12" class="node">
<title>Node4_1</title>
<polygon fill="#93db70" stroke="#93db70" points="153,-342 89,-342 89,-306 153,-306 153,-342"/>
<text text-anchor="middle" x="121" y="-320.3" font-family="Times,serif" font-size="14.00">अन्यान्(4)</text>
</g>
<!-- Node1_3_2c&#45;&gt;Node4_1 -->
<g id="edge8" class="edge">
<title>Node1_3_2c&#45;&gt;Node4_1</title>
<path fill="none" stroke="black" d="M209.08,-261.07C197.51,-269.61 184.21,-279.33 172,-288 163.68,-293.91 154.52,-300.25 146.27,-305.89"/>
<polygon fill="black" stroke="black" points="211.2,-263.85 217.16,-255.08 207.04,-258.22 211.2,-263.85"/>
<text text-anchor="middle" x="215.5" y="-276.8" font-family="Times,serif" font-size="14.00">समुच्चितः</text>
</g>
<!-- Node7_1 -->
<g id="node14" class="node">
<title>Node7_1</title>
<polygon fill="#93db70" stroke="#93db70" points="151.5,-429 92.5,-429 92.5,-393 151.5,-393 151.5,-429"/>
<text text-anchor="middle" x="122" y="-407.3" font-family="Times,serif" font-size="14.00">रोगान्(7)</text>
</g>
<!-- Node6_2_1c&#45;&gt;Node7_1 -->
<g id="edge13" class="edge">
<title>Node6_2_1c&#45;&gt;Node7_1</title>
<path fill="none" stroke="black" d="M284.57,-345.13C243.18,-361.64 185.98,-384.47 151.63,-398.18"/>
<polygon fill="black" stroke="black" points="285.94,-348.35 293.93,-341.39 283.35,-341.84 285.94,-348.35"/>
<text text-anchor="middle" x="265.5" y="-363.8" font-family="Times,serif" font-size="14.00">विशेषणम्</text>
</g>
<!-- Node2_1 -->
<g id="node11" class="node">
<title>Node2_1</title>
<polygon fill="#93db70" stroke="#93db70" points="152.5,-255 93.5,-255 93.5,-219 152.5,-219 152.5,-255"/>
<text text-anchor="middle" x="123" y="-233.3" font-family="Times,serif" font-size="14.00">सर्वान्(2)</text>
</g>
<!-- Node2_1&#45;&gt;Node4_1 -->
<g id="edge14" class="edge">
<title>Node2_1&#45;&gt;Node4_1</title>
<path fill="none" stroke="black" d="M122.36,-265.27C122.05,-278.58 121.68,-294.19 121.4,-305.82"/>
<polygon fill="black" stroke="black" points="125.86,-265.28 122.6,-255.2 118.86,-265.12 125.86,-265.28"/>
<text text-anchor="middle" x="145.5" y="-276.8" font-family="Times,serif" font-size="14.00">समुच्चितः</text>
</g>
<!-- Node4_1&#45;&gt;Node7_1 -->
<g id="edge16" class="edge">
<title>Node4_1&#45;&gt;Node7_1</title>
<path fill="none" stroke="black" d="M121.32,-352.27C121.48,-365.58 121.66,-381.19 121.8,-392.82"/>
<polygon fill="black" stroke="black" points="124.82,-352.16 121.2,-342.2 117.82,-352.24 124.82,-352.16"/>
<text text-anchor="middle" x="145.5" y="-363.8" font-family="Times,serif" font-size="14.00">विशेषणम्</text>
</g>
<!-- Node3_1 -->
<g id="node13" class="node">
<title>Node3_1</title>
<polygon fill="#93db70" stroke="#93db70" points="75.5,-255 16.5,-255 16.5,-219 75.5,-219 75.5,-255"/>
<text text-anchor="middle" x="46" y="-233.3" font-family="Times,serif" font-size="14.00">रोगान्(3)</text>
</g>
<!-- Node3_1&#45;&gt;Node4_1 -->
<g id="edge15" class="edge">
<title>Node3_1&#45;&gt;Node4_1</title>
<path fill="none" stroke="black" d="M57.5,-264.48C61.7,-272.52 66.94,-281.06 73,-288 78.77,-294.6 86,-300.68 93.08,-305.85"/>
<polygon fill="black" stroke="black" points="60.59,-262.84 53.05,-255.39 54.3,-265.91 60.59,-262.84"/>
<text text-anchor="middle" x="95.5" y="-276.8" font-family="Times,serif" font-size="14.00">समुच्चितः</text>
</g>
<!-- Node8_1 -->
<g id="node16" class="node">
<title>Node8_1</title>
<polygon fill="#ff1975" stroke="#ff1975" points="158.5,-516 85.5,-516 85.5,-480 158.5,-480 158.5,-516"/>
<text text-anchor="middle" x="122" y="-494.3" font-family="Times,serif" font-size="14.00">(निहन्ति)(8)</text>
</g>
<!-- Node7_1&#45;&gt;Node8_1 -->
<g id="edge18" class="edge">
<title>Node7_1&#45;&gt;Node8_1</title>
<path fill="none" stroke="black" d="M122,-439.27C122,-452.58 122,-468.19 122,-479.82"/>
<polygon fill="black" stroke="black" points="125.5,-439.2 122,-429.2 118.5,-439.2 125.5,-439.2"/>
<text text-anchor="middle" x="131" y="-450.8" font-family="Times,serif" font-size="14.00">कर्म</text>
</g>
<!-- Node5_1 -->
<g id="node15" class="node">
<title>Node5_1</title>
<polygon fill="#ff99ff" stroke="#ff99ff" points="382,-255 328,-255 328,-219 382,-219 382,-255"/>
<text text-anchor="middle" x="355" y="-233.3" font-family="Times,serif" font-size="14.00">च(5)</text>
</g>
<!-- Node5_1&#45;&gt;Node4_1 -->
<g id="edge17" class="edge">
<title>Node5_1&#45;&gt;Node4_1</title>
<path fill="none" stroke="black" d="M318.48,-255.21C283.64,-271.14 274.32,-276.45 242,-288 212.35,-298.6 177.77,-308.35 153.19,-314.85"/>
<polygon fill="black" stroke="black" points="320.27,-258.24 327.92,-250.92 317.37,-251.87 320.27,-258.24"/>
<text text-anchor="middle" x="318.5" y="-276.8" font-family="Times,serif" font-size="14.00">समुच्चय_द्योतकः</text>
</g>
</g>
</svg>
