<svg width="404pt" height="408pt"
 viewBox="0.00 0.00 403.50 408.00" xmlns="http://www.w3.org/2000/svg" xmlns:xlink="http://www.w3.org/1999/xlink">
<g id="graph0" class="graph" transform="scale(1 1) rotate(0) translate(4 404)">
<title>G</title>
<polygon fill="#fffacd" stroke="transparent" points="-4,4 -4,-404 399.5,-404 399.5,4 -4,4"/>
<g id="clust1" class="cluster">
<title>cluster_1</title>
<polygon fill="#fffacd" stroke="black" points="215.5,-8 215.5,-147 297.5,-147 297.5,-8 215.5,-8"/>
</g>
<!-- Node6_1 -->
<style>
 .hidden { display: none; }
 .node { cursor: pointer; }
 </style>
<script>
     function toggleChildren(id) {
      const children = document.getElementById(id);
      if (children.classList.contains('hidden')) {
        children.classList.remove('hidden');
      } else {
        children.classList.add('hidden');
      }
    }
</script>
<g id="children_node0_83032" class="hidden">
    <g class="node" onclick="toggleChildren('children_node0_83032');">
</g>
</g>
<g id="children_node1_83032" class="hidden">
    <g class="node" onclick="toggleChildren('children_node1_83032');">

<g id="node1" class="node">
<title>Node6_1</title>
<polygon fill="#ffff00" stroke="#ffff00" points="97,-52 32,-52 32,-16 97,-16 97,-52"/>
<text text-anchor="middle" x="64.5" y="-30.3" font-family="Times,serif" font-size="14.00">अग्निवात&#45;</text>
</g>
<!-- Node6_2 -->
<g id="node2" class="node">
<title>Node6_2</title>
<polygon fill="#ffff00" stroke="#ffff00" points="186.5,-52 132.5,-52 132.5,-16 186.5,-16 186.5,-52"/>
<text text-anchor="middle" x="159.5" y="-30.3" font-family="Times,serif" font-size="14.00">जित्</text>
</g>
<!-- Node6_1&#45;&gt;Node6_2 -->
<!-- Node6_2_1 -->
<g id="node3" class="node">
<title>Node6_2_1</title>
<polygon fill="#ffff00" stroke="#ffff00" points="181,-139 0,-139 0,-103 181,-103 181,-139"/>
<text text-anchor="middle" x="90.5" y="-117.3" font-family="Times,serif" font-size="14.00">&lt;अग्निवात&#45;जित्&gt;(उपपत&#45;तत्पुरुषः)</text>
</g>
<!-- Node6_1&#45;&gt;Node6_2_1 -->
<g id="edge2" class="edge">
<title>Node6_1&#45;&gt;Node6_2_1</title>
<path fill="none" stroke="black" d="M72.72,-61.87C76.82,-75.27 81.65,-91.08 85.25,-102.82"/>
<polygon fill="black" stroke="black" points="76.03,-60.74 69.76,-52.2 69.34,-62.79 76.03,-60.74"/>
</g>
<!-- Node6_2&#45;&gt;Node6_2_1 -->
<g id="edge1" class="edge">
<title>Node6_2&#45;&gt;Node6_2_1</title>
<path fill="none" stroke="black" d="M138.96,-60.31C127.82,-74.02 114.35,-90.62 104.44,-102.82"/>
<polygon fill="black" stroke="black" points="141.95,-62.17 145.54,-52.2 136.52,-57.76 141.95,-62.17"/>
</g>
<!-- Node6_2_1&#45;&gt;Node6_2_1c -->
<g id="edge4" class="edge">
<title>Node6_2_1&#45;&gt;Node6_2_1c</title>
<path fill="none" stroke="black" d="M90.5,-149.27C90.5,-162.58 90.5,-178.19 90.5,-189.82"/>
<polygon fill="black" stroke="black" points="94,-149.2 90.5,-139.2 87,-149.2 94,-149.2"/>
</g>
</g>
</g>
<!-- Node6_2_1c -->
<g class="node4" onclick="toggleChildren('children_node1_83032');">
<title>Node6_2_1c</title>
<polygon fill="#00bfff" stroke="#00bfff" points="141,-226 40,-226 40,-190 141,-190 141,-226"/>
<text text-anchor="middle" x="90.5" y="-204.3" font-family="Times,serif" font-size="14.00">अग्निवात&#45;जित्(6)</text>
</g>
<!-- Node5_1 -->
<g id="node10" class="node">
<title>Node5_1</title>
<polygon fill="#00bfff" stroke="#00bfff" points="174,-313 103,-313 103,-277 174,-277 174,-313"/>
<text text-anchor="middle" x="138.5" y="-291.3" font-family="Times,serif" font-size="14.00">अतिमेदः(5)</text>
</g>
<!-- Node6_2_1c&#45;&gt;Node5_1 -->
<g id="edge5" class="edge">
<title>Node6_2_1c&#45;&gt;Node5_1</title>
<path fill="none" stroke="black" d="M105.23,-235.09C112.89,-248.65 122.04,-264.85 128.8,-276.82"/>
<polygon fill="black" stroke="black" points="108.18,-233.19 100.21,-226.2 102.08,-236.63 108.18,-233.19"/>
<text text-anchor="middle" x="140" y="-247.8" font-family="Times,serif" font-size="14.00">समुच्चितः</text>
</g>
<!-- Node1_1 -->
<g id="node5" class="node">
<title>Node1_1</title>
<polygon fill="#00bfff" stroke="#00bfff" points="289,-52 224,-52 224,-16 289,-16 289,-52"/>
<text text-anchor="middle" x="256.5" y="-30.3" font-family="Times,serif" font-size="14.00">बृंहणम्(1)</text>
</g>
<!-- Node2_1 -->
<g id="node6" class="node">
<title>Node2_1</title>
<polygon fill="#00bfff" stroke="#00bfff" points="288.5,-139 224.5,-139 224.5,-103 288.5,-103 288.5,-139"/>
<text text-anchor="middle" x="256.5" y="-117.3" font-family="Times,serif" font-size="14.00">लङ्घनम्(2)</text>
</g>
<!-- Node1_1&#45;&gt;Node2_1 -->
<g id="edge6" class="edge">
<title>Node1_1&#45;&gt;Node2_1</title>
<path fill="none" stroke="black" d="M256.5,-62.27C256.5,-75.58 256.5,-91.19 256.5,-102.82"/>
<polygon fill="black" stroke="black" points="260,-62.2 256.5,-52.2 253,-62.2 260,-62.2"/>
<text text-anchor="middle" x="275" y="-73.8" font-family="Times,serif" font-size="14.00">अन्यतरः</text>
</g>
<!-- Node7_1 -->
<g id="node7" class="node">
<title>Node7_1</title>
<polygon fill="#ff1975" stroke="#ff1975" points="339.5,-226 271.5,-226 271.5,-190 339.5,-190 339.5,-226"/>
<text text-anchor="middle" x="305.5" y="-204.3" font-family="Times,serif" font-size="14.00">(भवति)(7)</text>
</g>
<!-- Node2_1&#45;&gt;Node7_1 -->
<g id="edge7" class="edge">
<title>Node2_1&#45;&gt;Node7_1</title>
<path fill="none" stroke="black" d="M271.54,-148.09C279.36,-161.65 288.7,-177.85 295.6,-189.82"/>
<polygon fill="black" stroke="black" points="274.44,-146.12 266.42,-139.2 268.38,-149.61 274.44,-146.12"/>
<text text-anchor="middle" x="294.5" y="-160.8" font-family="Times,serif" font-size="14.00">कर्ता</text>
</g>
<!-- Node3_1 -->
<g id="node8" class="node">
<title>Node3_1</title>
<polygon fill="#ff99ff" stroke="#ff99ff" points="361.5,-52 307.5,-52 307.5,-16 361.5,-16 361.5,-52"/>
<text text-anchor="middle" x="334.5" y="-30.3" font-family="Times,serif" font-size="14.00">वा(3)</text>
</g>
<!-- Node3_1&#45;&gt;Node2_1 -->
<g id="edge8" class="edge">
<title>Node3_1&#45;&gt;Node2_1</title>
<path fill="none" stroke="black" d="M317.12,-60.81C311.25,-68.86 304.42,-77.58 297.5,-85 291.75,-91.16 284.98,-97.31 278.61,-102.71"/>
<polygon fill="black" stroke="black" points="320.14,-62.6 323.07,-52.42 314.43,-58.55 320.14,-62.6"/>
<text text-anchor="middle" x="346.5" y="-73.8" font-family="Times,serif" font-size="14.00">अन्यतर_द्योतकः</text>
</g>
<!-- Node4_1 -->
<g id="node9" class="node">
<title>Node4_1</title>
<polygon fill="#ff99ff" stroke="#ff99ff" points="366,-139 307,-139 307,-103 366,-103 366,-139"/>
<text text-anchor="middle" x="336.5" y="-117.3" font-family="Times,serif" font-size="14.00">अलम्(4)</text>
</g>
<!-- Node4_1&#45;&gt;Node7_1 -->
<g id="edge9" class="edge">
<title>Node4_1&#45;&gt;Node7_1</title>
<path fill="none" stroke="black" d="M326.7,-148.87C321.81,-162.27 316.05,-178.08 311.76,-189.82"/>
<polygon fill="black" stroke="black" points="330.09,-149.79 330.23,-139.2 323.51,-147.4 330.09,-149.79"/>
<text text-anchor="middle" x="359" y="-160.8" font-family="Times,serif" font-size="14.00">क्रियाविशेषणम्</text>
</g>
<!-- Node8_1 -->
<g id="node11" class="node">
<title>Node8_1</title>
<polygon fill="#ff1975" stroke="#ff1975" points="172.5,-400 104.5,-400 104.5,-364 172.5,-364 172.5,-400"/>
<text text-anchor="middle" x="138.5" y="-378.3" font-family="Times,serif" font-size="14.00">(भवति)(8)</text>
</g>
<!-- Node5_1&#45;&gt;Node8_1 -->
<g id="edge10" class="edge">
<title>Node5_1&#45;&gt;Node8_1</title>
<path fill="none" stroke="black" d="M138.5,-323.27C138.5,-336.58 138.5,-352.19 138.5,-363.82"/>
<polygon fill="black" stroke="black" points="142,-323.2 138.5,-313.2 135,-323.2 142,-323.2"/>
<text text-anchor="middle" x="149.5" y="-334.8" font-family="Times,serif" font-size="14.00">कर्ता</text>
</g>
<!-- Node9_1 -->
<g id="node12" class="node">
<title>Node9_1</title>
<polygon fill="#ff99ff" stroke="#ff99ff" points="213.5,-226 159.5,-226 159.5,-190 213.5,-190 213.5,-226"/>
<text text-anchor="middle" x="186.5" y="-204.3" font-family="Times,serif" font-size="14.00">(च)(9)</text>
</g>
<!-- Node9_1&#45;&gt;Node5_1 -->
<g id="edge11" class="edge">
<title>Node9_1&#45;&gt;Node5_1</title>
<path fill="none" stroke="black" d="M176.16,-235.5C172.78,-243.25 168.79,-251.62 164.5,-259 161,-265.02 156.66,-271.23 152.53,-276.72"/>
<polygon fill="black" stroke="black" points="179.45,-236.71 180.08,-226.13 172.99,-234 179.45,-236.71"/>
<text text-anchor="middle" x="212" y="-247.8" font-family="Times,serif" font-size="14.00">समुच्चय_द्योतकः</text>
</g>
</g>
</svg>
