<?xml version="1.0" encoding="UTF-8" standalone="no"?>
<!DOCTYPE svg PUBLIC "-//W3C//DTD SVG 1.1//EN"
 "http://www.w3.org/Graphics/SVG/1.1/DTD/svg11.dtd">
<!-- Generated by graphviz version 2.36.0 (20140111.2315)
 -->
<!-- Title: G Pages: 1 -->
<svg width="314pt" height="152pt"
 viewBox="0.00 0.00 314.00 152.00" xmlns="http://www.w3.org/2000/svg" xmlns:xlink="http://www.w3.org/1999/xlink">
<g id="graph0" class="graph" transform="scale(1 1) rotate(0) translate(4 148)">
<title>G</title>
<polygon fill="white" stroke="none" points="-4,4 -4,-148 310,-148 310,4 -4,4"/>
<!-- Node1 -->
<g id="node1" class="node"><title>Node1</title>
<ellipse fill="none" stroke="red" cx="27" cy="-72" rx="27" ry="18"/>
<text text-anchor="middle" x="27" y="-68.3" font-family="Times,serif" font-size="14.00">चिल्ल्</text>
</g>
<!-- Node2 -->
<g id="node2" class="node"><title>Node2</title>
<g id="a_node2"><a xlink:title="केकड़ा">
<polygon fill="none" stroke="blue" points="179,-144 123,-144 123,-108 179,-108 179,-144"/>
<text text-anchor="middle" x="151" y="-122.3" font-family="Times,serif" font-size="14.00">कुरचिल्ल</text>
</a>
</g>
</g>
<!-- Node1&#45;&gt;Node2 -->
<g id="edge1" class="edge"><title>Node1&#45;&gt;Node2</title>
<path fill="none" stroke="black" d="M49.8112,-81.6541C67.5229,-89.4937 92.8787,-100.717 113.65,-109.911"/>
<polygon fill="black" stroke="black" points="112.266,-113.126 122.827,-113.973 115.1,-106.725 112.266,-113.126"/>
</g>
<!-- Node3 -->
<g id="node3" class="node"><title>Node3</title>
<g id="a_node3"><a xlink:title="चील">
<polygon fill="none" stroke="blue" points="178,-90 124,-90 124,-54 178,-54 178,-90"/>
<text text-anchor="middle" x="151" y="-68.3" font-family="Times,serif" font-size="14.00">चिल्ला</text>
</a>
</g>
</g>
<!-- Node1&#45;&gt;Node3 -->
<g id="edge2" class="edge"><title>Node1&#45;&gt;Node3</title>
<path fill="none" stroke="black" d="M54.1721,-72C71.5401,-72 94.573,-72 113.705,-72"/>
<polygon fill="black" stroke="black" points="113.871,-75.5001 123.871,-72 113.871,-68.5001 113.871,-75.5001"/>
<text text-anchor="middle" x="82" y="-75.8" font-family="Times,serif" font-size="14.00">अच्</text>
</g>
<!-- Node4 -->
<g id="node4" class="node"><title>Node4</title>
<ellipse fill="none" stroke="red" cx="151" cy="-18" rx="40.8928" ry="18"/>
<text text-anchor="middle" x="151" y="-14.3" font-family="Times,serif" font-size="14.00">चिल्ल्+इन्</text>
</g>
<!-- Node1&#45;&gt;Node4 -->
<g id="edge3" class="edge"><title>Node1&#45;&gt;Node4</title>
<path fill="none" stroke="black" d="M49.8112,-62.3459C67.0881,-54.6987 91.6385,-43.8322 112.112,-34.77"/>
<polygon fill="black" stroke="black" points="113.76,-37.8682 121.488,-30.6201 110.927,-31.4671 113.76,-37.8682"/>
</g>
<!-- Node5 -->
<g id="node5" class="node"><title>Node5</title>
<g id="a_node5"><a xlink:title="झींगुर">
<polygon fill="none" stroke="blue" points="306,-36 248,-36 248,-0 306,-0 306,-36"/>
<text text-anchor="middle" x="277" y="-14.3" font-family="Times,serif" font-size="14.00">चिल्लिका</text>
</a>
</g>
</g>
<!-- Node4&#45;&gt;Node5 -->
<g id="edge4" class="edge"><title>Node4&#45;&gt;Node5</title>
<path fill="none" stroke="black" d="M192.259,-18C206.827,-18 223.228,-18 237.629,-18"/>
<polygon fill="black" stroke="black" points="237.707,-21.5001 247.707,-18 237.707,-14.5001 237.707,-21.5001"/>
<text text-anchor="middle" x="220" y="-21.8" font-family="Times,serif" font-size="14.00">कन्</text>
</g>
</g>
</svg>
