<?xml version="1.0" encoding="UTF-8" standalone="no"?>
<!DOCTYPE svg PUBLIC "-//W3C//DTD SVG 1.1//EN"
 "http://www.w3.org/Graphics/SVG/1.1/DTD/svg11.dtd">
<!-- Generated by graphviz version 2.36.0 (20140111.2315)
 -->
<!-- Title: G Pages: 1 -->
<svg width="480pt" height="530pt"
 viewBox="0.00 0.00 480.00 530.00" xmlns="http://www.w3.org/2000/svg" xmlns:xlink="http://www.w3.org/1999/xlink">
<g id="graph0" class="graph" transform="scale(1 1) rotate(0) translate(4 526)">
<title>G</title>
<polygon fill="white" stroke="none" points="-4,4 -4,-526 476,-526 476,4 -4,4"/>
<!-- Node1 -->
<g id="node1" class="node"><title>Node1</title>
<ellipse fill="none" stroke="red" cx="27" cy="-207" rx="27" ry="18"/>
<text text-anchor="middle" x="27" y="-203.3" font-family="Times,serif" font-size="14.00">डी</text>
</g>
<!-- Node2 -->
<g id="node2" class="node"><title>Node2</title>
<ellipse fill="none" stroke="red" cx="149" cy="-477" rx="35.194" ry="18"/>
<text text-anchor="middle" x="149" y="-473.3" font-family="Times,serif" font-size="14.00">अव_डी</text>
</g>
<!-- Node1&#45;&gt;Node2 -->
<g id="edge1" class="edge"><title>Node1&#45;&gt;Node2</title>
<path fill="none" stroke="black" d="M33.7597,-224.551C46.3003,-261.964 77.8678,-351.942 114,-423 118.845,-432.528 124.867,-442.545 130.492,-451.328"/>
<polygon fill="black" stroke="black" points="127.738,-453.512 136.142,-459.963 133.595,-449.678 127.738,-453.512"/>
</g>
<!-- Node4 -->
<g id="node4" class="node"><title>Node4</title>
<ellipse fill="none" stroke="red" cx="149" cy="-396" rx="35.194" ry="18"/>
<text text-anchor="middle" x="149" y="-392.3" font-family="Times,serif" font-size="14.00">सम्_डी</text>
</g>
<!-- Node1&#45;&gt;Node4 -->
<g id="edge3" class="edge"><title>Node1&#45;&gt;Node4</title>
<path fill="none" stroke="black" d="M38.4393,-223.442C59.3441,-256.367 106.484,-330.612 131.571,-370.124"/>
<polygon fill="black" stroke="black" points="128.839,-372.352 137.154,-378.918 134.749,-368.6 128.839,-372.352"/>
</g>
<!-- Node7 -->
<g id="node7" class="node"><title>Node7</title>
<ellipse fill="none" stroke="red" cx="149" cy="-288" rx="34.394" ry="18"/>
<text text-anchor="middle" x="149" y="-284.3" font-family="Times,serif" font-size="14.00">उद्_डी</text>
</g>
<!-- Node1&#45;&gt;Node7 -->
<g id="edge6" class="edge"><title>Node1&#45;&gt;Node7</title>
<path fill="none" stroke="black" d="M44.8257,-220.662C52.8977,-227.044 62.7949,-234.623 72,-241 86.3314,-250.929 102.726,-261.198 116.611,-269.595"/>
<polygon fill="black" stroke="black" points="114.95,-272.68 125.326,-274.82 118.55,-266.676 114.95,-272.68"/>
</g>
<!-- Node11 -->
<g id="node11" class="node"><title>Node11</title>
<g id="a_node11"><a xlink:title="उड़ान">
<polygon fill="none" stroke="blue" points="176,-252 122,-252 122,-216 176,-216 176,-252"/>
<text text-anchor="middle" x="149" y="-230.3" font-family="Times,serif" font-size="14.00">डयन</text>
</a>
</g>
</g>
<!-- Node1&#45;&gt;Node11 -->
<g id="edge10" class="edge"><title>Node1&#45;&gt;Node11</title>
<path fill="none" stroke="black" d="M52.8641,-212.594C69.9724,-216.444 92.9653,-221.617 112.061,-225.914"/>
<polygon fill="black" stroke="black" points="111.398,-229.352 121.922,-228.133 112.935,-222.523 111.398,-229.352"/>
<text text-anchor="middle" x="84" y="-225.8" font-family="Times,serif" font-size="14.00">ल्युट्</text>
</g>
<!-- Node12 -->
<g id="node12" class="node"><title>Node12</title>
<g id="a_node12"><a xlink:title="उड़ा हुआ, पक्षियों की उड़ान १०१ प्रकार की बताई गई हैं, किसी भी विशेष उड़ान को प्रकट करने के लिए ’डीन’ से पूर्व उपयुक्त उपसर्ग लगा दिया जाता है&#45;उदा* अवडीनम्, उड्डीनम्, प्रडीनम्, अभिडीनम्, विडीनम्, परिडीनम्, पराडीनम् आदि">
<polygon fill="none" stroke="blue" points="176,-198 122,-198 122,-162 176,-162 176,-198"/>
<text text-anchor="middle" x="149" y="-176.3" font-family="Times,serif" font-size="14.00">डीन</text>
</a>
</g>
</g>
<!-- Node1&#45;&gt;Node12 -->
<g id="edge11" class="edge"><title>Node1&#45;&gt;Node12</title>
<path fill="none" stroke="black" d="M52.8641,-201.406C69.9724,-197.556 92.9653,-192.383 112.061,-188.086"/>
<polygon fill="black" stroke="black" points="112.935,-191.477 121.922,-185.867 111.398,-184.648 112.935,-191.477"/>
<text text-anchor="middle" x="84" y="-199.8" font-family="Times,serif" font-size="14.00">क्त</text>
</g>
<!-- Node13 -->
<g id="node13" class="node"><title>Node13</title>
<ellipse fill="none" stroke="red" cx="149" cy="-126" rx="34.394" ry="18"/>
<text text-anchor="middle" x="149" y="-122.3" font-family="Times,serif" font-size="14.00">परि_डी</text>
</g>
<!-- Node1&#45;&gt;Node13 -->
<g id="edge12" class="edge"><title>Node1&#45;&gt;Node13</title>
<path fill="none" stroke="black" d="M46.487,-194.521C65.7562,-181.515 96.2297,-160.945 118.765,-145.733"/>
<polygon fill="black" stroke="black" points="120.945,-148.485 127.275,-139.989 117.029,-142.683 120.945,-148.485"/>
</g>
<!-- Node15 -->
<g id="node15" class="node"><title>Node15</title>
<ellipse fill="none" stroke="red" cx="149" cy="-72" rx="28.6953" ry="18"/>
<text text-anchor="middle" x="149" y="-68.3" font-family="Times,serif" font-size="14.00">प्र_डी</text>
</g>
<!-- Node1&#45;&gt;Node15 -->
<g id="edge14" class="edge"><title>Node1&#45;&gt;Node15</title>
<path fill="none" stroke="black" d="M39.2015,-190.684C54.6961,-168.677 84.1512,-128.809 114,-99 116.475,-96.5282 119.17,-94.0654 121.924,-91.6894"/>
<polygon fill="black" stroke="black" points="124.207,-94.3436 129.707,-85.2883 119.76,-88.9372 124.207,-94.3436"/>
</g>
<!-- Node19 -->
<g id="node19" class="node"><title>Node19</title>
<ellipse fill="none" stroke="red" cx="149" cy="-18" rx="30.5947" ry="18"/>
<text text-anchor="middle" x="149" y="-14.3" font-family="Times,serif" font-size="14.00">वि_डी</text>
</g>
<!-- Node1&#45;&gt;Node19 -->
<g id="edge18" class="edge"><title>Node1&#45;&gt;Node19</title>
<path fill="none" stroke="black" d="M34.2461,-189.318C46.0568,-157.689 74.1052,-90.4832 114,-45 116.004,-42.7156 118.219,-40.4812 120.531,-38.3376"/>
<polygon fill="black" stroke="black" points="123.255,-40.6138 128.588,-31.459 118.71,-35.29 123.255,-40.6138"/>
</g>
<!-- Node3 -->
<g id="node3" class="node"><title>Node3</title>
<g id="a_node3"><a xlink:title="पक्षी की उड़ान, नीचे की ओर उड़ना ।">
<polygon fill="none" stroke="blue" points="328,-522 272,-522 272,-486 328,-486 328,-522"/>
<text text-anchor="middle" x="300" y="-500.3" font-family="Times,serif" font-size="14.00">अवडीन</text>
</a>
</g>
</g>
<!-- Node2&#45;&gt;Node3 -->
<g id="edge2" class="edge"><title>Node2&#45;&gt;Node3</title>
<path fill="none" stroke="black" d="M182.331,-482.859C205.697,-487.093 237.315,-492.822 261.742,-497.249"/>
<polygon fill="black" stroke="black" points="261.261,-500.718 271.725,-499.058 262.51,-493.831 261.261,-500.718"/>
<text text-anchor="middle" x="216" y="-494.8" font-family="Times,serif" font-size="14.00">क्त</text>
</g>
<!-- Node5 -->
<g id="node5" class="node"><title>Node5</title>
<ellipse fill="none" stroke="red" cx="300" cy="-450" rx="51.1914" ry="18"/>
<text text-anchor="middle" x="300" y="-446.3" font-family="Times,serif" font-size="14.00">अव_सम्_डी</text>
</g>
<!-- Node4&#45;&gt;Node5 -->
<g id="edge4" class="edge"><title>Node4&#45;&gt;Node5</title>
<path fill="none" stroke="black" d="M178.059,-406.276C185.813,-409.109 194.23,-412.179 202,-415 218.862,-421.123 237.385,-427.815 253.686,-433.692"/>
<polygon fill="black" stroke="black" points="252.918,-437.136 263.513,-437.234 255.292,-430.551 252.918,-437.136"/>
</g>
<!-- Node21 -->
<g id="node21" class="node"><title>Node21</title>
<g id="a_node21"><a xlink:title="पक्षियों की विभिन्न उड़ानों मे से एक, दे* ‘डीन’">
<polygon fill="none" stroke="blue" points="327,-414 273,-414 273,-378 327,-378 327,-414"/>
<text text-anchor="middle" x="300" y="-392.3" font-family="Times,serif" font-size="14.00">सण्डीन</text>
</a>
</g>
</g>
<!-- Node4&#45;&gt;Node21 -->
<g id="edge20" class="edge"><title>Node4&#45;&gt;Node21</title>
<path fill="none" stroke="black" d="M184.184,-396C207.684,-396 238.844,-396 262.772,-396"/>
<polygon fill="black" stroke="black" points="262.872,-399.5 272.872,-396 262.872,-392.5 262.872,-399.5"/>
<text text-anchor="middle" x="216" y="-399.8" font-family="Times,serif" font-size="14.00">क्त</text>
</g>
<!-- Node6 -->
<g id="node6" class="node"><title>Node6</title>
<g id="a_node6"><a xlink:title="पक्षियों के झुंड की नीचे की ओर उड़ान ।">
<polygon fill="none" stroke="blue" points="471.5,-468 400.5,-468 400.5,-432 471.5,-432 471.5,-468"/>
<text text-anchor="middle" x="436" y="-446.3" font-family="Times,serif" font-size="14.00">अवसण्डीन</text>
</a>
</g>
</g>
<!-- Node5&#45;&gt;Node6 -->
<g id="edge5" class="edge"><title>Node5&#45;&gt;Node6</title>
<path fill="none" stroke="black" d="M351.66,-450C364.282,-450 377.729,-450 390.055,-450"/>
<polygon fill="black" stroke="black" points="390.102,-453.5 400.102,-450 390.102,-446.5 390.102,-453.5"/>
<text text-anchor="middle" x="376" y="-453.8" font-family="Times,serif" font-size="14.00">क्त</text>
</g>
<!-- Node8 -->
<g id="node8" class="node"><title>Node8</title>
<g id="a_node8"><a xlink:title="ऊपर उड़ना, उड़ान लेना, गतो विरुत्योड्डयने निराशताम्">
<polygon fill="none" stroke="blue" points="327,-360 273,-360 273,-324 327,-324 327,-360"/>
<text text-anchor="middle" x="300" y="-338.3" font-family="Times,serif" font-size="14.00">उड्डयन</text>
</a>
</g>
</g>
<!-- Node7&#45;&gt;Node8 -->
<g id="edge7" class="edge"><title>Node7&#45;&gt;Node8</title>
<path fill="none" stroke="black" d="M177.789,-298.177C185.617,-301.037 194.14,-304.146 202,-307 222.255,-314.355 244.907,-322.531 263.224,-329.13"/>
<polygon fill="black" stroke="black" points="262.047,-332.426 272.641,-332.521 264.419,-325.84 262.047,-332.426"/>
<text text-anchor="middle" x="216" y="-319.8" font-family="Times,serif" font-size="14.00">ल्युट्</text>
</g>
<!-- Node9 -->
<g id="node9" class="node"><title>Node9</title>
<g id="a_node9"><a xlink:title="उड़ा हुआ, ऊपर उड़ता हुआ#ऊपर उड़्ना, उड़ान लेना">
<polygon fill="none" stroke="blue" points="327,-306 273,-306 273,-270 327,-270 327,-306"/>
<text text-anchor="middle" x="300" y="-284.3" font-family="Times,serif" font-size="14.00">उड्डीन</text>
</a>
</g>
</g>
<!-- Node7&#45;&gt;Node9 -->
<g id="edge8" class="edge"><title>Node7&#45;&gt;Node9</title>
<path fill="none" stroke="black" d="M183.81,-288C207.296,-288 238.563,-288 262.595,-288"/>
<polygon fill="black" stroke="black" points="262.74,-291.5 272.74,-288 262.739,-284.5 262.74,-291.5"/>
<text text-anchor="middle" x="216" y="-291.8" font-family="Times,serif" font-size="14.00">क्त</text>
</g>
<!-- Node10 -->
<g id="node10" class="node"><title>Node10</title>
<g id="a_node10"><a xlink:title="शिव">
<polygon fill="none" stroke="blue" points="327,-252 273,-252 273,-216 327,-216 327,-252"/>
<text text-anchor="middle" x="300" y="-230.3" font-family="Times,serif" font-size="14.00">उड्डीश</text>
</a>
</g>
</g>
<!-- Node7&#45;&gt;Node10 -->
<g id="edge9" class="edge"><title>Node7&#45;&gt;Node10</title>
<path fill="none" stroke="black" d="M177.789,-277.823C185.617,-274.963 194.14,-271.854 202,-269 222.255,-261.645 244.907,-253.469 263.224,-246.87"/>
<polygon fill="black" stroke="black" points="264.419,-250.16 272.641,-243.479 262.047,-243.574 264.419,-250.16"/>
<text text-anchor="middle" x="216" y="-272.8" font-family="Times,serif" font-size="14.00">क्विप्</text>
</g>
<!-- Node17 -->
<g id="node17" class="node"><title>Node17</title>
<ellipse fill="none" stroke="red" cx="300" cy="-180" rx="44.393" ry="18"/>
<text text-anchor="middle" x="300" y="-176.3" font-family="Times,serif" font-size="14.00">प्र_उद्_डी</text>
</g>
<!-- Node7&#45;&gt;Node17 -->
<g id="edge16" class="edge"><title>Node7&#45;&gt;Node17</title>
<path fill="none" stroke="black" d="M168.786,-273.245C173.756,-269.296 179.101,-265.011 184,-261 212.798,-237.425 217.156,-227.826 248,-207 252.301,-204.096 256.949,-201.262 261.628,-198.588"/>
<polygon fill="black" stroke="black" points="263.503,-201.552 270.581,-193.668 260.131,-195.417 263.503,-201.552"/>
</g>
<!-- Node14 -->
<g id="node14" class="node"><title>Node14</title>
<g id="a_node14"><a xlink:title="पक्षियों का गोल बना कर उड़ना या पक्षियों के गोल की उड़ान, दे* डीन">
<polygon fill="none" stroke="blue" points="327.5,-144 272.5,-144 272.5,-108 327.5,-108 327.5,-144"/>
<text text-anchor="middle" x="300" y="-122.3" font-family="Times,serif" font-size="14.00">परोडीन</text>
</a>
</g>
</g>
<!-- Node13&#45;&gt;Node14 -->
<g id="edge13" class="edge"><title>Node13&#45;&gt;Node14</title>
<path fill="none" stroke="black" d="M183.81,-126C207.146,-126 238.165,-126 262.135,-126"/>
<polygon fill="black" stroke="black" points="262.265,-129.5 272.265,-126 262.265,-122.5 262.265,-129.5"/>
<text text-anchor="middle" x="216" y="-129.8" font-family="Times,serif" font-size="14.00">क्त</text>
</g>
<!-- Node16 -->
<g id="node16" class="node"><title>Node16</title>
<g id="a_node16"><a xlink:title="हर दिशा में उड़ना, आगे दौड़ना, डीन के अन्दर दे*">
<polygon fill="none" stroke="blue" points="327,-90 273,-90 273,-54 327,-54 327,-90"/>
<text text-anchor="middle" x="300" y="-68.3" font-family="Times,serif" font-size="14.00">प्रडीन</text>
</a>
</g>
</g>
<!-- Node15&#45;&gt;Node16 -->
<g id="edge15" class="edge"><title>Node15&#45;&gt;Node16</title>
<path fill="none" stroke="black" d="M177.677,-72C201.642,-72 236.479,-72 262.682,-72"/>
<polygon fill="black" stroke="black" points="262.969,-75.5001 272.969,-72 262.969,-68.5001 262.969,-75.5001"/>
<text text-anchor="middle" x="216" y="-75.8" font-family="Times,serif" font-size="14.00">क्त</text>
</g>
<!-- Node18 -->
<g id="node18" class="node"><title>Node18</title>
<g id="a_node18"><a xlink:title="जो ऊपर उड़ गया हो, या उड़ गया हो।">
<polygon fill="none" stroke="blue" points="463,-198 409,-198 409,-162 463,-162 463,-198"/>
<text text-anchor="middle" x="436" y="-176.3" font-family="Times,serif" font-size="14.00">प्रोड्डीन</text>
</a>
</g>
</g>
<!-- Node17&#45;&gt;Node18 -->
<g id="edge17" class="edge"><title>Node17&#45;&gt;Node18</title>
<path fill="none" stroke="black" d="M344.506,-180C361.933,-180 381.789,-180 398.452,-180"/>
<polygon fill="black" stroke="black" points="398.884,-183.5 408.884,-180 398.884,-176.5 398.884,-183.5"/>
<text text-anchor="middle" x="376" y="-183.8" font-family="Times,serif" font-size="14.00">क्त</text>
</g>
<!-- Node20 -->
<g id="node20" class="node"><title>Node20</title>
<g id="a_node20"><a xlink:title="पक्षियों की एक उड़ानविशेष, दे* डीन">
<polygon fill="none" stroke="blue" points="327,-36 273,-36 273,-0 327,-0 327,-36"/>
<text text-anchor="middle" x="300" y="-14.3" font-family="Times,serif" font-size="14.00">विडीन</text>
</a>
</g>
</g>
<!-- Node19&#45;&gt;Node20 -->
<g id="edge19" class="edge"><title>Node19&#45;&gt;Node20</title>
<path fill="none" stroke="black" d="M179.794,-18C203.68,-18 237.294,-18 262.741,-18"/>
<polygon fill="black" stroke="black" points="262.748,-21.5001 272.748,-18 262.748,-14.5001 262.748,-21.5001"/>
<text text-anchor="middle" x="216" y="-21.8" font-family="Times,serif" font-size="14.00">क्त</text>
</g>
</g>
</svg>
