<?xml version="1.0" encoding="UTF-8" standalone="no"?>
<!DOCTYPE svg PUBLIC "-//W3C//DTD SVG 1.1//EN"
 "http://www.w3.org/Graphics/SVG/1.1/DTD/svg11.dtd">
<!-- Generated by graphviz version 2.36.0 (20140111.2315)
 -->
<!-- Title: G Pages: 1 -->
<svg width="332pt" height="260pt"
 viewBox="0.00 0.00 332.00 260.00" xmlns="http://www.w3.org/2000/svg" xmlns:xlink="http://www.w3.org/1999/xlink">
<g id="graph0" class="graph" transform="scale(1 1) rotate(0) translate(4 256)">
<title>G</title>
<polygon fill="white" stroke="none" points="-4,4 -4,-256 328,-256 328,4 -4,4"/>
<!-- Node1 -->
<g id="node1" class="node"><title>Node1</title>
<ellipse fill="none" stroke="red" cx="27" cy="-126" rx="27" ry="18"/>
<text text-anchor="middle" x="27" y="-122.3" font-family="Times,serif" font-size="14.00">गर्ज्</text>
</g>
<!-- Node2 -->
<g id="node2" class="node"><title>Node2</title>
<ellipse fill="none" stroke="red" cx="155" cy="-234" rx="38.9931" ry="18"/>
<text text-anchor="middle" x="155" y="-230.3" font-family="Times,serif" font-size="14.00">अनु_गर्ज्</text>
</g>
<!-- Node1&#45;&gt;Node2 -->
<g id="edge1" class="edge"><title>Node1&#45;&gt;Node2</title>
<path fill="none" stroke="black" d="M41.3667,-141.324C49.8382,-150.767 61.1989,-162.949 72,-173 89.5818,-189.361 94.6955,-192.713 114,-207 117.005,-209.224 120.178,-211.493 123.369,-213.724"/>
<polygon fill="black" stroke="black" points="121.53,-216.707 131.755,-219.483 125.493,-210.937 121.53,-216.707"/>
</g>
<!-- Node4 -->
<g id="node4" class="node"><title>Node4</title>
<g id="a_node4"><a xlink:title="दहाड़ना, चिंघाड़ना, गुर्राना, गड़गड़ाना">
<polygon fill="none" stroke="blue" points="182,-198 128,-198 128,-162 182,-162 182,-198"/>
<text text-anchor="middle" x="155" y="-176.3" font-family="Times,serif" font-size="14.00">गर्जन</text>
</a>
</g>
</g>
<!-- Node1&#45;&gt;Node4 -->
<g id="edge3" class="edge"><title>Node1&#45;&gt;Node4</title>
<path fill="none" stroke="black" d="M50.3761,-135.684C57.3049,-138.677 64.9658,-141.98 72,-145 87.1389,-151.499 103.864,-158.645 118.24,-164.775"/>
<polygon fill="black" stroke="black" points="117.197,-168.135 127.768,-168.837 119.941,-161.696 117.197,-168.135"/>
<text text-anchor="middle" x="84" y="-157.8" font-family="Times,serif" font-size="14.00">ल्युट्</text>
</g>
<!-- Node5 -->
<g id="node5" class="node"><title>Node5</title>
<g id="a_node5"><a xlink:title="गर्जा हुआ, चिंघाड़ा हुआ#चिंघाडता हुआ, जिसके मस्तक से मद झरता है#बादलों की गड़गड़ाहट, गरज">
<polygon fill="none" stroke="blue" points="182,-144 128,-144 128,-108 182,-108 182,-144"/>
<text text-anchor="middle" x="155" y="-122.3" font-family="Times,serif" font-size="14.00">गर्जित</text>
</a>
</g>
</g>
<!-- Node1&#45;&gt;Node5 -->
<g id="edge4" class="edge"><title>Node1&#45;&gt;Node5</title>
<path fill="none" stroke="black" d="M54.1073,-126C72.5221,-126 97.4299,-126 117.767,-126"/>
<polygon fill="black" stroke="black" points="117.926,-129.5 127.926,-126 117.926,-122.5 117.926,-129.5"/>
<text text-anchor="middle" x="84" y="-129.8" font-family="Times,serif" font-size="14.00">क्त</text>
</g>
<!-- Node6 -->
<g id="node6" class="node"><title>Node6</title>
<ellipse fill="none" stroke="red" cx="155" cy="-72" rx="32.4942" ry="18"/>
<text text-anchor="middle" x="155" y="-68.3" font-family="Times,serif" font-size="14.00">प्र_गर्ज्</text>
</g>
<!-- Node1&#45;&gt;Node6 -->
<g id="edge5" class="edge"><title>Node1&#45;&gt;Node6</title>
<path fill="none" stroke="black" d="M50.2362,-116.47C69.3141,-108.294 97.1321,-96.372 119.164,-86.9298"/>
<polygon fill="black" stroke="black" points="120.705,-90.0774 128.517,-82.9211 117.947,-83.6433 120.705,-90.0774"/>
</g>
<!-- Node8 -->
<g id="node8" class="node"><title>Node8</title>
<ellipse fill="none" stroke="red" cx="155" cy="-18" rx="40.0939" ry="18"/>
<text text-anchor="middle" x="155" y="-14.3" font-family="Times,serif" font-size="14.00">प्रति_गर्ज्</text>
</g>
<!-- Node1&#45;&gt;Node8 -->
<g id="edge7" class="edge"><title>Node1&#45;&gt;Node8</title>
<path fill="none" stroke="black" d="M42.5551,-110.89C59.1439,-94.0105 87.4108,-66.2656 114,-45 116.767,-42.7874 119.71,-40.5691 122.697,-38.4075"/>
<polygon fill="black" stroke="black" points="124.931,-41.1166 131.119,-32.5169 120.918,-35.3806 124.931,-41.1166"/>
</g>
<!-- Node3 -->
<g id="node3" class="node"><title>Node3</title>
<g id="a_node3"><a xlink:title="दहाड़#दहाड़ा हुआ">
<polygon fill="none" stroke="blue" points="322.5,-252 257.5,-252 257.5,-216 322.5,-216 322.5,-252"/>
<text text-anchor="middle" x="290" y="-230.3" font-family="Times,serif" font-size="14.00">अनुगर्जित</text>
</a>
</g>
</g>
<!-- Node2&#45;&gt;Node3 -->
<g id="edge2" class="edge"><title>Node2&#45;&gt;Node3</title>
<path fill="none" stroke="black" d="M194.112,-234C210.64,-234 230.047,-234 246.99,-234"/>
<polygon fill="black" stroke="black" points="247.172,-237.5 257.172,-234 247.172,-230.5 247.172,-237.5"/>
<text text-anchor="middle" x="226" y="-237.8" font-family="Times,serif" font-size="14.00">क्त</text>
</g>
<!-- Node7 -->
<g id="node7" class="node"><title>Node7</title>
<g id="a_node7"><a xlink:title="दहाड़ना, चिघाड़ना, गरजना">
<polygon fill="none" stroke="blue" points="317,-90 263,-90 263,-54 317,-54 317,-90"/>
<text text-anchor="middle" x="290" y="-68.3" font-family="Times,serif" font-size="14.00">प्रगर्जन</text>
</a>
</g>
</g>
<!-- Node6&#45;&gt;Node7 -->
<g id="edge6" class="edge"><title>Node6&#45;&gt;Node7</title>
<path fill="none" stroke="black" d="M187.519,-72C207.012,-72 232.112,-72 252.472,-72"/>
<polygon fill="black" stroke="black" points="252.632,-75.5001 262.632,-72 252.632,-68.5001 252.632,-75.5001"/>
<text text-anchor="middle" x="226" y="-75.8" font-family="Times,serif" font-size="14.00">ल्युट्</text>
</g>
<!-- Node9 -->
<g id="node9" class="node"><title>Node9</title>
<g id="a_node9"><a xlink:title="गर्जन के जवाब में गर्जना करना, किसी की दहाड़ सुनकर दहाड़ना">
<polygon fill="none" stroke="blue" points="323.5,-36 256.5,-36 256.5,-0 323.5,-0 323.5,-36"/>
<text text-anchor="middle" x="290" y="-14.3" font-family="Times,serif" font-size="14.00">प्रतिगर्जना</text>
</a>
</g>
</g>
<!-- Node8&#45;&gt;Node9 -->
<g id="edge8" class="edge"><title>Node8&#45;&gt;Node9</title>
<path fill="none" stroke="black" d="M195.544,-18C211.373,-18 229.655,-18 245.828,-18"/>
<polygon fill="black" stroke="black" points="246.105,-21.5001 256.105,-18 246.105,-14.5001 246.105,-21.5001"/>
<text text-anchor="middle" x="226" y="-21.8" font-family="Times,serif" font-size="14.00">युच्</text>
</g>
</g>
</svg>
