<?xml version="1.0" encoding="UTF-8" standalone="no"?>
<!DOCTYPE svg PUBLIC "-//W3C//DTD SVG 1.1//EN"
 "http://www.w3.org/Graphics/SVG/1.1/DTD/svg11.dtd">
<!-- Generated by graphviz version 2.36.0 (20140111.2315)
 -->
<!-- Title: G Pages: 1 -->
<svg width="332pt" height="611pt"
 viewBox="0.00 0.00 332.00 611.00" xmlns="http://www.w3.org/2000/svg" xmlns:xlink="http://www.w3.org/1999/xlink">
<g id="graph0" class="graph" transform="scale(1 1) rotate(0) translate(4 607)">
<title>G</title>
<polygon fill="white" stroke="none" points="-4,4 -4,-607 328,-607 328,4 -4,4"/>
<!-- Node1 -->
<g id="node1" class="node"><title>Node1</title>
<ellipse fill="none" stroke="red" cx="27" cy="-261" rx="27" ry="18"/>
<text text-anchor="middle" x="27" y="-257.3" font-family="Times,serif" font-size="14.00">घृष्</text>
</g>
<!-- Node2 -->
<g id="node2" class="node"><title>Node2</title>
<ellipse fill="none" stroke="red" cx="157" cy="-531" rx="40.8928" ry="18"/>
<text text-anchor="middle" x="157" y="-527.3" font-family="Times,serif" font-size="14.00">अभि_घृष्</text>
</g>
<!-- Node1&#45;&gt;Node2 -->
<g id="edge1" class="edge"><title>Node1&#45;&gt;Node2</title>
<path fill="none" stroke="black" d="M32.6465,-279C39.7269,-305.417 54.2818,-355.995 72,-397 88.0958,-434.25 94.0958,-442.841 116,-477 122.204,-486.675 129.557,-496.901 136.256,-505.821"/>
<polygon fill="black" stroke="black" points="133.575,-508.077 142.419,-513.911 139.143,-503.836 133.575,-508.077"/>
</g>
<!-- Node5 -->
<g id="node5" class="node"><title>Node5</title>
<ellipse fill="none" stroke="red" cx="157" cy="-450" rx="35.194" ry="18"/>
<text text-anchor="middle" x="157" y="-446.3" font-family="Times,serif" font-size="14.00">आ_घृष्</text>
</g>
<!-- Node1&#45;&gt;Node5 -->
<g id="edge4" class="edge"><title>Node1&#45;&gt;Node5</title>
<path fill="none" stroke="black" d="M33.8881,-278.559C45.351,-310.586 73.3401,-379.213 116,-423 118.609,-425.678 121.524,-428.243 124.559,-430.653"/>
<polygon fill="black" stroke="black" points="122.607,-433.561 132.745,-436.64 126.74,-427.911 122.607,-433.561"/>
</g>
<!-- Node8 -->
<g id="node8" class="node"><title>Node8</title>
<ellipse fill="none" stroke="red" cx="157" cy="-396" rx="36.2938" ry="18"/>
<text text-anchor="middle" x="157" y="-392.3" font-family="Times,serif" font-size="14.00">उद्_घृष्</text>
</g>
<!-- Node1&#45;&gt;Node8 -->
<g id="edge7" class="edge"><title>Node1&#45;&gt;Node8</title>
<path fill="none" stroke="black" d="M37.4602,-277.743C45.746,-291.786 58.5386,-312.047 72,-328 89.2376,-348.429 95.0809,-352.361 116,-369 119.084,-371.453 122.385,-373.916 125.719,-376.302"/>
<polygon fill="black" stroke="black" points="123.759,-379.202 133.97,-382.028 127.749,-373.451 123.759,-379.202"/>
</g>
<!-- Node10 -->
<g id="node10" class="node"><title>Node10</title>
<g id="a_node10"><a xlink:title="रगड़्, घिसर">
<polygon fill="none" stroke="blue" points="184,-360 130,-360 130,-324 184,-324 184,-360"/>
<text text-anchor="middle" x="157" y="-338.3" font-family="Times,serif" font-size="14.00">घर्ष</text>
</a>
</g>
</g>
<!-- Node1&#45;&gt;Node10 -->
<g id="edge9" class="edge"><title>Node1&#45;&gt;Node10</title>
<path fill="none" stroke="black" d="M45.1978,-274.679C53.1823,-280.825 62.9027,-288.022 72,-294 87.5771,-304.235 105.433,-314.616 120.665,-323.093"/>
<polygon fill="black" stroke="black" points="119.319,-326.347 129.767,-328.107 122.697,-320.216 119.319,-326.347"/>
<text text-anchor="middle" x="85" y="-312.8" font-family="Times,serif" font-size="14.00">घञ्</text>
</g>
<!-- Node11 -->
<g id="node11" class="node"><title>Node11</title>
<g id="a_node11"><a xlink:title="रगड़्, घिसर">
<polygon fill="none" stroke="blue" points="184,-306 130,-306 130,-270 184,-270 184,-306"/>
<text text-anchor="middle" x="157" y="-284.3" font-family="Times,serif" font-size="14.00">घर्षण</text>
</a>
</g>
</g>
<!-- Node1&#45;&gt;Node11 -->
<g id="edge10" class="edge"><title>Node1&#45;&gt;Node11</title>
<path fill="none" stroke="black" d="M52.9835,-266.27C71.9907,-270.279 98.4221,-275.855 119.753,-280.354"/>
<polygon fill="black" stroke="black" points="119.252,-283.825 129.759,-282.465 120.697,-276.976 119.252,-283.825"/>
<text text-anchor="middle" x="85" y="-278.8" font-family="Times,serif" font-size="14.00">ल्युट्</text>
</g>
<!-- Node12 -->
<g id="node12" class="node"><title>Node12</title>
<g id="a_node12"><a xlink:title="सूअर">
<polygon fill="none" stroke="blue" points="184,-252 130,-252 130,-216 184,-216 184,-252"/>
<text text-anchor="middle" x="157" y="-230.3" font-family="Times,serif" font-size="14.00">घृष्टि</text>
</a>
</g>
</g>
<!-- Node1&#45;&gt;Node12 -->
<g id="edge11" class="edge"><title>Node1&#45;&gt;Node12</title>
<path fill="none" stroke="black" d="M52.6447,-255.29C58.9482,-253.86 65.7196,-252.349 72,-251 87.7201,-247.623 105.136,-244.068 120.015,-241.087"/>
<polygon fill="black" stroke="black" points="120.737,-244.512 129.859,-239.124 119.368,-237.647 120.737,-244.512"/>
<text text-anchor="middle" x="85" y="-254.8" font-family="Times,serif" font-size="14.00">क्तिच्</text>
</g>
<!-- Node13 -->
<g id="node13" class="node"><title>Node13</title>
<ellipse fill="none" stroke="red" cx="157" cy="-180" rx="33.5952" ry="18"/>
<text text-anchor="middle" x="157" y="-176.3" font-family="Times,serif" font-size="14.00">नि_घृष्</text>
</g>
<!-- Node1&#45;&gt;Node13 -->
<g id="edge12" class="edge"><title>Node1&#45;&gt;Node13</title>
<path fill="none" stroke="black" d="M47.1629,-248.873C68.0331,-235.667 101.687,-214.37 126.051,-198.952"/>
<polygon fill="black" stroke="black" points="127.988,-201.868 134.567,-193.563 124.245,-195.953 127.988,-201.868"/>
</g>
<!-- Node16 -->
<g id="node16" class="node"><title>Node16</title>
<ellipse fill="none" stroke="red" cx="157" cy="-126" rx="37.8943" ry="18"/>
<text text-anchor="middle" x="157" y="-122.3" font-family="Times,serif" font-size="14.00">निर्_घृष्</text>
</g>
<!-- Node1&#45;&gt;Node16 -->
<g id="edge15" class="edge"><title>Node1&#45;&gt;Node16</title>
<path fill="none" stroke="black" d="M38.9403,-244.744C54.4282,-222.452 84.3985,-181.879 116,-153 118.615,-150.61 121.457,-148.273 124.381,-146.037"/>
<polygon fill="black" stroke="black" points="126.64,-148.723 132.712,-140.041 122.551,-143.042 126.64,-148.723"/>
</g>
<!-- Node18 -->
<g id="node18" class="node"><title>Node18</title>
<ellipse fill="none" stroke="red" cx="157" cy="-72" rx="33.2948" ry="18"/>
<text text-anchor="middle" x="157" y="-68.3" font-family="Times,serif" font-size="14.00">वि_घृष्</text>
</g>
<!-- Node1&#45;&gt;Node18 -->
<g id="edge17" class="edge"><title>Node1&#45;&gt;Node18</title>
<path fill="none" stroke="black" d="M33.86,-243.413C45.2773,-211.342 73.195,-142.646 116,-99 118.823,-96.1213 121.999,-93.3707 125.294,-90.8019"/>
<polygon fill="black" stroke="black" points="127.53,-93.5047 133.6,-84.8212 123.44,-87.8241 127.53,-93.5047"/>
</g>
<!-- Node20 -->
<g id="node20" class="node"><title>Node20</title>
<ellipse fill="none" stroke="red" cx="157" cy="-18" rx="37.8943" ry="18"/>
<text text-anchor="middle" x="157" y="-14.3" font-family="Times,serif" font-size="14.00">सम्_घृष्</text>
</g>
<!-- Node1&#45;&gt;Node20 -->
<g id="edge19" class="edge"><title>Node1&#45;&gt;Node20</title>
<path fill="none" stroke="black" d="M30.7577,-242.919C37.808,-202.449 60.0434,-103.545 116,-45 118.388,-42.5016 121.045,-40.1073 123.822,-37.8484"/>
<polygon fill="black" stroke="black" points="125.92,-40.6505 131.844,-31.8671 121.735,-35.0387 125.92,-40.6505"/>
</g>
<!-- Node3 -->
<g id="node3" class="node"><title>Node3</title>
<g id="a_node3"><a xlink:title="रगड़ना, झगड़ना">
<polygon fill="none" stroke="blue" points="323.5,-603 258.5,-603 258.5,-567 323.5,-567 323.5,-603"/>
<text text-anchor="middle" x="291" y="-581.3" font-family="Times,serif" font-size="14.00">अभिघर्षण</text>
</a>
</g>
</g>
<!-- Node2&#45;&gt;Node3 -->
<g id="edge2" class="edge"><title>Node2&#45;&gt;Node3</title>
<path fill="none" stroke="black" d="M187.623,-543.119C205.652,-550.494 228.948,-560.024 248.762,-568.13"/>
<polygon fill="black" stroke="black" points="247.589,-571.432 258.17,-571.979 250.24,-564.953 247.589,-571.432"/>
<text text-anchor="middle" x="228" y="-567.8" font-family="Times,serif" font-size="14.00">ल्युट्</text>
</g>
<!-- Node4 -->
<g id="node4" class="node"><title>Node4</title>
<g id="a_node4"><a xlink:title="भूत प्रेतादि से आविष्ट होना">
<polygon fill="none" stroke="blue" points="323.5,-549 258.5,-549 258.5,-513 323.5,-513 323.5,-549"/>
<text text-anchor="middle" x="291" y="-527.3" font-family="Times,serif" font-size="14.00">अभिधर्षण</text>
</a>
</g>
</g>
<!-- Node2&#45;&gt;Node4 -->
<g id="edge3" class="edge"><title>Node2&#45;&gt;Node4</title>
<path fill="none" stroke="black" d="M197.963,-531C213.773,-531 231.958,-531 247.966,-531"/>
<polygon fill="black" stroke="black" points="248.124,-534.5 258.124,-531 248.124,-527.5 248.124,-534.5"/>
<text text-anchor="middle" x="228" y="-534.8" font-family="Times,serif" font-size="14.00">ल्युट्</text>
</g>
<!-- Node6 -->
<g id="node6" class="node"><title>Node6</title>
<g id="a_node6"><a xlink:title="मालिश करना, रगड़, किसी से रगड़ना, गण्डस्थलाघर्षगलन्मदोदकद्रवद्रुमस्कंध निलायिनोऽलयः&#45;">
<polygon fill="none" stroke="blue" points="318,-495 264,-495 264,-459 318,-459 318,-495"/>
<text text-anchor="middle" x="291" y="-473.3" font-family="Times,serif" font-size="14.00">आघर्ष</text>
</a>
</g>
</g>
<!-- Node5&#45;&gt;Node6 -->
<g id="edge5" class="edge"><title>Node5&#45;&gt;Node6</title>
<path fill="none" stroke="black" d="M189.954,-456.536C209.186,-460.47 233.73,-465.49 253.694,-469.574"/>
<polygon fill="black" stroke="black" points="253.166,-473.038 263.664,-471.613 254.569,-466.18 253.166,-473.038"/>
<text text-anchor="middle" x="228" y="-469.8" font-family="Times,serif" font-size="14.00">घञ्</text>
</g>
<!-- Node7 -->
<g id="node7" class="node"><title>Node7</title>
<g id="a_node7"><a xlink:title="मालिश करना, रगड़, किसी से रगड़ना">
<polygon fill="none" stroke="blue" points="319,-441 263,-441 263,-405 319,-405 319,-441"/>
<text text-anchor="middle" x="291" y="-419.3" font-family="Times,serif" font-size="14.00">आघर्षण</text>
</a>
</g>
</g>
<!-- Node5&#45;&gt;Node7 -->
<g id="edge6" class="edge"><title>Node5&#45;&gt;Node7</title>
<path fill="none" stroke="black" d="M189.954,-443.464C208.926,-439.583 233.068,-434.645 252.882,-430.592"/>
<polygon fill="black" stroke="black" points="253.704,-433.997 262.8,-428.564 252.301,-427.139 253.704,-433.997"/>
<text text-anchor="middle" x="228" y="-441.8" font-family="Times,serif" font-size="14.00">ल्युट्</text>
</g>
<!-- Node9 -->
<g id="node9" class="node"><title>Node9</title>
<g id="a_node9"><a xlink:title="रगड़ना, घोटना, यस्योद्घर्षणलोष्टकैरपि सदा पृष्ठे न जातः किणः">
<polygon fill="none" stroke="blue" points="318,-387 264,-387 264,-351 318,-351 318,-387"/>
<text text-anchor="middle" x="291" y="-365.3" font-family="Times,serif" font-size="14.00">उद्घर्षण</text>
</a>
</g>
</g>
<!-- Node8&#45;&gt;Node9 -->
<g id="edge8" class="edge"><title>Node8&#45;&gt;Node9</title>
<path fill="none" stroke="black" d="M190.969,-389.256C210.087,-385.346 234.187,-380.416 253.825,-376.399"/>
<polygon fill="black" stroke="black" points="254.543,-379.825 263.638,-374.392 253.14,-372.967 254.543,-379.825"/>
<text text-anchor="middle" x="228" y="-387.8" font-family="Times,serif" font-size="14.00">ल्युट्</text>
</g>
<!-- Node14 -->
<g id="node14" class="node"><title>Node14</title>
<g id="a_node14"><a xlink:title="रगड़ना, घर्षण करना">
<polygon fill="none" stroke="blue" points="318,-252 264,-252 264,-216 318,-216 318,-252"/>
<text text-anchor="middle" x="291" y="-230.3" font-family="Times,serif" font-size="14.00">निघर्षण</text>
</a>
</g>
</g>
<!-- Node13&#45;&gt;Node14 -->
<g id="edge13" class="edge"><title>Node13&#45;&gt;Node14</title>
<path fill="none" stroke="black" d="M184.395,-190.798C204.449,-199.002 232.246,-210.373 254.287,-219.39"/>
<polygon fill="black" stroke="black" points="253.07,-222.674 263.651,-223.221 255.721,-216.195 253.07,-222.674"/>
<text text-anchor="middle" x="228" y="-216.8" font-family="Times,serif" font-size="14.00">ल्युट्</text>
</g>
<!-- Node15 -->
<g id="node15" class="node"><title>Node15</title>
<g id="a_node15"><a xlink:title="रगड़ना, घर्षण करना">
<polygon fill="none" stroke="blue" points="318,-198 264,-198 264,-162 318,-162 318,-198"/>
<text text-anchor="middle" x="291" y="-176.3" font-family="Times,serif" font-size="14.00">निघर्ष</text>
</a>
</g>
</g>
<!-- Node13&#45;&gt;Node15 -->
<g id="edge14" class="edge"><title>Node13&#45;&gt;Node15</title>
<path fill="none" stroke="black" d="M190.969,-180C209.999,-180 233.966,-180 253.555,-180"/>
<polygon fill="black" stroke="black" points="253.639,-183.5 263.638,-180 253.638,-176.5 253.639,-183.5"/>
<text text-anchor="middle" x="228" y="-183.8" font-family="Times,serif" font-size="14.00">घञ्</text>
</g>
<!-- Node17 -->
<g id="node17" class="node"><title>Node17</title>
<g id="a_node17"><a xlink:title="रगड़, टक्कर">
<polygon fill="none" stroke="blue" points="318,-144 264,-144 264,-108 318,-108 318,-144"/>
<text text-anchor="middle" x="291" y="-122.3" font-family="Times,serif" font-size="14.00">निर्घर्षण</text>
</a>
</g>
</g>
<!-- Node16&#45;&gt;Node17 -->
<g id="edge16" class="edge"><title>Node16&#45;&gt;Node17</title>
<path fill="none" stroke="black" d="M194.769,-126C213.221,-126 235.492,-126 253.856,-126"/>
<polygon fill="black" stroke="black" points="253.882,-129.5 263.882,-126 253.882,-122.5 253.882,-129.5"/>
<text text-anchor="middle" x="228" y="-129.8" font-family="Times,serif" font-size="14.00">ल्युट्</text>
</g>
<!-- Node19 -->
<g id="node19" class="node"><title>Node19</title>
<g id="a_node19"><a xlink:title="अत्यंत रगड़ा हुआ, घिसा हुआ">
<polygon fill="none" stroke="blue" points="318,-90 264,-90 264,-54 318,-54 318,-90"/>
<text text-anchor="middle" x="291" y="-68.3" font-family="Times,serif" font-size="14.00">विघृष्ट</text>
</a>
</g>
</g>
<!-- Node18&#45;&gt;Node19 -->
<g id="edge18" class="edge"><title>Node18&#45;&gt;Node19</title>
<path fill="none" stroke="black" d="M190.291,-72C209.441,-72 233.767,-72 253.598,-72"/>
<polygon fill="black" stroke="black" points="253.798,-75.5001 263.798,-72 253.798,-68.5001 253.798,-75.5001"/>
<text text-anchor="middle" x="228" y="-75.8" font-family="Times,serif" font-size="14.00">क्त</text>
</g>
<!-- Node21 -->
<g id="node21" class="node"><title>Node21</title>
<g id="a_node21"><a xlink:title="दो चीजों की रगड़, घृष्टि">
<polygon fill="none" stroke="blue" points="318,-36 264,-36 264,-0 318,-0 318,-36"/>
<text text-anchor="middle" x="291" y="-14.3" font-family="Times,serif" font-size="14.00">सङ्घर्ष</text>
</a>
</g>
</g>
<!-- Node20&#45;&gt;Node21 -->
<g id="edge20" class="edge"><title>Node20&#45;&gt;Node21</title>
<path fill="none" stroke="black" d="M194.769,-18C213.221,-18 235.492,-18 253.856,-18"/>
<polygon fill="black" stroke="black" points="253.882,-21.5001 263.882,-18 253.882,-14.5001 253.882,-21.5001"/>
<text text-anchor="middle" x="228" y="-21.8" font-family="Times,serif" font-size="14.00">घञ्</text>
</g>
</g>
</svg>
