<?xml version="1.0" encoding="UTF-8" standalone="no"?>
<!DOCTYPE svg PUBLIC "-//W3C//DTD SVG 1.1//EN"
 "http://www.w3.org/Graphics/SVG/1.1/DTD/svg11.dtd">
<!-- Generated by graphviz version 2.36.0 (20140111.2315)
 -->
<!-- Title: G Pages: 1 -->
<svg width="178pt" height="260pt"
 viewBox="0.00 0.00 178.00 260.00" xmlns="http://www.w3.org/2000/svg" xmlns:xlink="http://www.w3.org/1999/xlink">
<g id="graph0" class="graph" transform="scale(1 1) rotate(0) translate(4 256)">
<title>G</title>
<polygon fill="white" stroke="none" points="-4,4 -4,-256 174,-256 174,4 -4,4"/>
<!-- Node1 -->
<g id="node1" class="node"><title>Node1</title>
<ellipse fill="none" stroke="red" cx="27" cy="-126" rx="27" ry="18"/>
<text text-anchor="middle" x="27" y="-122.3" font-family="Times,serif" font-size="14.00">घुट्</text>
</g>
<!-- Node2 -->
<g id="node2" class="node"><title>Node2</title>
<g id="a_node2"><a xlink:title="टखना">
<polygon fill="none" stroke="blue" points="169,-252 115,-252 115,-216 169,-216 169,-252"/>
<text text-anchor="middle" x="142" y="-230.3" font-family="Times,serif" font-size="14.00">घुट</text>
</a>
</g>
</g>
<!-- Node1&#45;&gt;Node2 -->
<g id="edge1" class="edge"><title>Node1&#45;&gt;Node2</title>
<path fill="none" stroke="black" d="M40.9053,-141.864C49.3843,-151.977 60.9203,-165.169 72,-176 83.7287,-187.466 97.4198,-199.265 109.5,-209.203"/>
<polygon fill="black" stroke="black" points="107.595,-212.166 117.562,-215.759 112.012,-206.735 107.595,-212.166"/>
<text text-anchor="middle" x="84" y="-200.8" font-family="Times,serif" font-size="14.00">अच्</text>
</g>
<!-- Node3 -->
<g id="node3" class="node"><title>Node3</title>
<g id="a_node3"><a xlink:title="टखना">
<polygon fill="none" stroke="blue" points="169,-198 115,-198 115,-162 169,-162 169,-198"/>
<text text-anchor="middle" x="142" y="-176.3" font-family="Times,serif" font-size="14.00">घुटि</text>
</a>
</g>
</g>
<!-- Node1&#45;&gt;Node3 -->
<g id="edge2" class="edge"><title>Node1&#45;&gt;Node3</title>
<path fill="none" stroke="black" d="M49.5204,-136.284C65.3341,-143.841 87.1749,-154.278 105.55,-163.059"/>
<polygon fill="black" stroke="black" points="104.261,-166.322 114.793,-167.476 107.279,-160.006 104.261,-166.322"/>
<text text-anchor="middle" x="84" y="-160.8" font-family="Times,serif" font-size="14.00">इन्</text>
</g>
<!-- Node4 -->
<g id="node4" class="node"><title>Node4</title>
<g id="a_node4"><a xlink:title="घोड़ा">
<polygon fill="none" stroke="blue" points="169,-144 115,-144 115,-108 169,-108 169,-144"/>
<text text-anchor="middle" x="142" y="-122.3" font-family="Times,serif" font-size="14.00">घोटक</text>
</a>
</g>
</g>
<!-- Node1&#45;&gt;Node4 -->
<g id="edge3" class="edge"><title>Node1&#45;&gt;Node4</title>
<path fill="none" stroke="black" d="M54.2085,-126C69.1836,-126 88.1896,-126 104.596,-126"/>
<polygon fill="black" stroke="black" points="104.934,-129.5 114.934,-126 104.934,-122.5 104.934,-129.5"/>
<text text-anchor="middle" x="84" y="-129.8" font-family="Times,serif" font-size="14.00">ण्वुल्</text>
</g>
<!-- Node5 -->
<g id="node5" class="node"><title>Node5</title>
<g id="a_node5"><a xlink:title="घोड़ा">
<polygon fill="none" stroke="blue" points="169,-90 115,-90 115,-54 169,-54 169,-90"/>
<text text-anchor="middle" x="142" y="-68.3" font-family="Times,serif" font-size="14.00">घोट</text>
</a>
</g>
</g>
<!-- Node1&#45;&gt;Node5 -->
<g id="edge4" class="edge"><title>Node1&#45;&gt;Node5</title>
<path fill="none" stroke="black" d="M49.5204,-115.716C65.3341,-108.159 87.1749,-97.7217 105.55,-88.9408"/>
<polygon fill="black" stroke="black" points="107.279,-91.9936 114.793,-84.5239 104.261,-85.6777 107.279,-91.9936"/>
<text text-anchor="middle" x="84" y="-106.8" font-family="Times,serif" font-size="14.00">अच्</text>
</g>
<!-- Node6 -->
<g id="node6" class="node"><title>Node6</title>
<g id="a_node6"><a xlink:title="घोड़ी, सामान्य अश्व, आटीकसेऽङ्ग करिघोटि पदातिजुषि वाटिभुवि क्षितिभुजाम्&#45;">
<polygon fill="none" stroke="blue" points="169.5,-36 114.5,-36 114.5,-0 169.5,-0 169.5,-36"/>
<text text-anchor="middle" x="142" y="-14.3" font-family="Times,serif" font-size="14.00">घोटिका</text>
</a>
</g>
</g>
<!-- Node1&#45;&gt;Node6 -->
<g id="edge5" class="edge"><title>Node1&#45;&gt;Node6</title>
<path fill="none" stroke="black" d="M40.4484,-110.221C48.927,-99.823 60.6346,-86.1247 72,-75 83.5481,-63.6964 97.101,-52.1698 109.124,-42.4669"/>
<polygon fill="black" stroke="black" points="111.519,-45.0341 117.16,-36.066 107.157,-39.5589 111.519,-45.0341"/>
<text text-anchor="middle" x="84" y="-78.8" font-family="Times,serif" font-size="14.00">ण्वुल्</text>
</g>
</g>
</svg>
