<?xml version="1.0" encoding="UTF-8" standalone="no"?>
<!DOCTYPE svg PUBLIC "-//W3C//DTD SVG 1.1//EN"
 "http://www.w3.org/Graphics/SVG/1.1/DTD/svg11.dtd">
<!-- Generated by graphviz version 2.36.0 (20140111.2315)
 -->
<!-- Title: G Pages: 1 -->
<svg width="298pt" height="125pt"
 viewBox="0.00 0.00 298.00 125.00" xmlns="http://www.w3.org/2000/svg" xmlns:xlink="http://www.w3.org/1999/xlink">
<g id="graph0" class="graph" transform="scale(1 1) rotate(0) translate(4 121)">
<title>G</title>
<polygon fill="white" stroke="none" points="-4,4 -4,-121 294,-121 294,4 -4,4"/>
<!-- Node1 -->
<g id="node1" class="node"><title>Node1</title>
<ellipse fill="none" stroke="red" cx="27" cy="-39" rx="27" ry="18"/>
<text text-anchor="middle" x="27" y="-35.3" font-family="Times,serif" font-size="14.00">हेठ्</text>
</g>
<!-- Node2 -->
<g id="node2" class="node"><title>Node2</title>
<ellipse fill="none" stroke="red" cx="143" cy="-72" rx="32.4942" ry="18"/>
<text text-anchor="middle" x="143" y="-68.3" font-family="Times,serif" font-size="14.00">वि_हेठ्</text>
</g>
<!-- Node1&#45;&gt;Node2 -->
<g id="edge1" class="edge"><title>Node1&#45;&gt;Node2</title>
<path fill="none" stroke="black" d="M52.1765,-45.9985C67.256,-50.3636 86.9848,-56.0745 104.111,-61.032"/>
<polygon fill="black" stroke="black" points="103.26,-64.4293 113.839,-63.848 105.206,-57.7054 103.26,-64.4293"/>
</g>
<!-- Node5 -->
<g id="node5" class="node"><title>Node5</title>
<g id="a_node5"><a xlink:title="प्रकोपन">
<polygon fill="none" stroke="blue" points="170,-36 116,-36 116,-0 170,-0 170,-36"/>
<text text-anchor="middle" x="143" y="-14.3" font-family="Times,serif" font-size="14.00">हेठ</text>
</a>
</g>
</g>
<!-- Node1&#45;&gt;Node5 -->
<g id="edge4" class="edge"><title>Node1&#45;&gt;Node5</title>
<path fill="none" stroke="black" d="M53.3003,-34.3394C68.7277,-31.4975 88.6979,-27.8188 105.782,-24.6717"/>
<polygon fill="black" stroke="black" points="106.78,-28.0469 115.98,-22.7931 105.511,-21.1628 106.78,-28.0469"/>
<text text-anchor="middle" x="82" y="-34.8" font-family="Times,serif" font-size="14.00">घञ्</text>
</g>
<!-- Node3 -->
<g id="node3" class="node"><title>Node3</title>
<g id="a_node3"><a xlink:title="क्षति पहुँचाने वाला">
<polygon fill="none" stroke="blue" points="290,-117 236,-117 236,-81 290,-81 290,-117"/>
<text text-anchor="middle" x="263" y="-95.3" font-family="Times,serif" font-size="14.00">विहेठक</text>
</a>
</g>
</g>
<!-- Node2&#45;&gt;Node3 -->
<g id="edge2" class="edge"><title>Node2&#45;&gt;Node3</title>
<path fill="none" stroke="black" d="M173.472,-78.7436C189.301,-82.3654 208.949,-86.8613 225.712,-90.6968"/>
<polygon fill="black" stroke="black" points="225.187,-94.1671 235.716,-92.9858 226.748,-87.3434 225.187,-94.1671"/>
<text text-anchor="middle" x="206" y="-91.8" font-family="Times,serif" font-size="14.00">ण्वुल्</text>
</g>
<!-- Node4 -->
<g id="node4" class="node"><title>Node4</title>
<g id="a_node4"><a xlink:title="क्षति पहुँचाना, घायल करना">
<polygon fill="none" stroke="blue" points="290,-63 236,-63 236,-27 290,-27 290,-63"/>
<text text-anchor="middle" x="263" y="-41.3" font-family="Times,serif" font-size="14.00">विहेठन</text>
</a>
</g>
</g>
<!-- Node2&#45;&gt;Node4 -->
<g id="edge3" class="edge"><title>Node2&#45;&gt;Node4</title>
<path fill="none" stroke="black" d="M173.472,-65.2564C189.301,-61.6346 208.949,-57.1387 225.712,-53.3032"/>
<polygon fill="black" stroke="black" points="226.748,-56.6566 235.716,-51.0142 225.187,-49.8329 226.748,-56.6566"/>
<text text-anchor="middle" x="206" y="-63.8" font-family="Times,serif" font-size="14.00">ल्युट्</text>
</g>
</g>
</svg>
