<?xml version="1.0" encoding="UTF-8" standalone="no"?>
<!DOCTYPE svg PUBLIC "-//W3C//DTD SVG 1.1//EN"
 "http://www.w3.org/Graphics/SVG/1.1/DTD/svg11.dtd">
<!-- Generated by graphviz version 2.36.0 (20140111.2315)
 -->
<!-- Title: G Pages: 1 -->
<svg width="494pt" height="530pt"
 viewBox="0.00 0.00 494.00 530.00" xmlns="http://www.w3.org/2000/svg" xmlns:xlink="http://www.w3.org/1999/xlink">
<g id="graph0" class="graph" transform="scale(1 1) rotate(0) translate(4 526)">
<title>G</title>
<polygon fill="white" stroke="none" points="-4,4 -4,-526 490,-526 490,4 -4,4"/>
<!-- Node1 -->
<g id="node1" class="node"><title>Node1</title>
<ellipse fill="none" stroke="red" cx="27" cy="-234" rx="27" ry="18"/>
<text text-anchor="middle" x="27" y="-230.3" font-family="Times,serif" font-size="14.00">ह्लाद्</text>
</g>
<!-- Node2 -->
<g id="node2" class="node"><title>Node2</title>
<ellipse fill="none" stroke="red" cx="160" cy="-450" rx="37.8943" ry="18"/>
<text text-anchor="middle" x="160" y="-446.3" font-family="Times,serif" font-size="14.00">आ_ह्लाद्</text>
</g>
<!-- Node1&#45;&gt;Node2 -->
<g id="edge1" class="edge"><title>Node1&#45;&gt;Node2</title>
<path fill="none" stroke="black" d="M32.0702,-251.913C41.1887,-288.414 66.4484,-372.232 116,-423 118.828,-425.898 122.026,-428.625 125.37,-431.15"/>
<polygon fill="black" stroke="black" points="123.633,-434.203 133.855,-436.989 127.602,-428.437 123.633,-434.203"/>
</g>
<!-- Node5 -->
<g id="node5" class="node"><title>Node5</title>
<ellipse fill="none" stroke="red" cx="160" cy="-396" rx="43.5923" ry="18"/>
<text text-anchor="middle" x="160" y="-392.3" font-family="Times,serif" font-size="14.00">ह्लाद्+णिच्</text>
</g>
<!-- Node1&#45;&gt;Node5 -->
<g id="edge4" class="edge"><title>Node1&#45;&gt;Node5</title>
<path fill="none" stroke="black" d="M35.8715,-251.189C49.1776,-278.78 78.3824,-333.45 116,-369 118.577,-371.435 121.405,-373.771 124.342,-375.98"/>
<polygon fill="black" stroke="black" points="122.58,-379.017 132.791,-381.842 126.57,-373.265 122.58,-379.017"/>
</g>
<!-- Node8 -->
<g id="node8" class="node"><title>Node8</title>
<ellipse fill="none" stroke="red" cx="160" cy="-342" rx="33.5952" ry="18"/>
<text text-anchor="middle" x="160" y="-338.3" font-family="Times,serif" font-size="14.00">प्र_ह्लाद्</text>
</g>
<!-- Node1&#45;&gt;Node8 -->
<g id="edge7" class="edge"><title>Node1&#45;&gt;Node8</title>
<path fill="none" stroke="black" d="M41.1858,-249.823C49.5893,-259.532 60.942,-271.98 72,-282 90.1144,-298.413 95.8541,-301.155 116,-315 119.968,-317.727 124.201,-320.52 128.405,-323.226"/>
<polygon fill="black" stroke="black" points="126.578,-326.212 136.898,-328.61 130.326,-320.3 126.578,-326.212"/>
</g>
<!-- Node11 -->
<g id="node11" class="node"><title>Node11</title>
<g id="a_node11"><a xlink:title="गहरासरोवर, जल का विस्तृत और गहरा तालाब">
<polygon fill="none" stroke="blue" points="187,-306 133,-306 133,-270 187,-270 187,-306"/>
<text text-anchor="middle" x="160" y="-284.3" font-family="Times,serif" font-size="14.00">ह्रद</text>
</a>
</g>
</g>
<!-- Node1&#45;&gt;Node11 -->
<g id="edge10" class="edge"><title>Node1&#45;&gt;Node11</title>
<path fill="none" stroke="black" d="M49.8869,-243.58C56.9311,-246.629 64.781,-249.99 72,-253 88.7992,-260.005 107.518,-267.567 123.276,-273.863"/>
<polygon fill="black" stroke="black" points="122.075,-277.152 132.661,-277.603 124.667,-270.65 122.075,-277.152"/>
<text text-anchor="middle" x="85" y="-266.8" font-family="Times,serif" font-size="14.00">रच्</text>
</g>
<!-- Node12 -->
<g id="node12" class="node"><title>Node12</title>
<g id="a_node12"><a xlink:title="प्रसन्नता, हर्ष, उल्लास">
<polygon fill="none" stroke="blue" points="187,-252 133,-252 133,-216 187,-216 187,-252"/>
<text text-anchor="middle" x="160" y="-230.3" font-family="Times,serif" font-size="14.00">ह्लादक</text>
</a>
</g>
</g>
<!-- Node1&#45;&gt;Node12 -->
<g id="edge11" class="edge"><title>Node1&#45;&gt;Node12</title>
<path fill="none" stroke="black" d="M54.195,-234C73.8299,-234 100.943,-234 122.672,-234"/>
<polygon fill="black" stroke="black" points="122.85,-237.5 132.85,-234 122.85,-230.5 122.85,-237.5"/>
<text text-anchor="middle" x="85" y="-237.8" font-family="Times,serif" font-size="14.00">ण्वुल्</text>
</g>
<!-- Node13 -->
<g id="node13" class="node"><title>Node13</title>
<g id="a_node13"><a xlink:title="हर्षित होने की क्रिया, हर्ष, खुशी, प्रसन्नता">
<polygon fill="none" stroke="blue" points="187,-198 133,-198 133,-162 187,-162 187,-198"/>
<text text-anchor="middle" x="160" y="-176.3" font-family="Times,serif" font-size="14.00">ह्लादन</text>
</a>
</g>
</g>
<!-- Node1&#45;&gt;Node13 -->
<g id="edge12" class="edge"><title>Node1&#45;&gt;Node13</title>
<path fill="none" stroke="black" d="M49.8869,-224.42C56.9311,-221.371 64.781,-218.01 72,-215 88.7992,-207.995 107.518,-200.433 123.276,-194.137"/>
<polygon fill="black" stroke="black" points="124.667,-197.35 132.661,-190.397 122.075,-190.848 124.667,-197.35"/>
<text text-anchor="middle" x="85" y="-218.8" font-family="Times,serif" font-size="14.00">ल्युट्</text>
</g>
<!-- Node14 -->
<g id="node14" class="node"><title>Node14</title>
<g id="a_node14"><a xlink:title="प्रसन्नता, हर्ष, उल्लास">
<polygon fill="none" stroke="blue" points="187,-144 133,-144 133,-108 187,-108 187,-144"/>
<text text-anchor="middle" x="160" y="-122.3" font-family="Times,serif" font-size="14.00">ह्लाद</text>
</a>
</g>
</g>
<!-- Node1&#45;&gt;Node14 -->
<g id="edge13" class="edge"><title>Node1&#45;&gt;Node14</title>
<path fill="none" stroke="black" d="M41.2871,-218.589C49.7287,-209.114 61.0859,-196.928 72,-187 90.2815,-170.37 95.7334,-167.143 116,-153 118.675,-151.133 121.474,-149.242 124.307,-147.373"/>
<polygon fill="black" stroke="black" points="126.314,-150.243 132.813,-141.876 122.514,-144.364 126.314,-150.243"/>
<text text-anchor="middle" x="85" y="-190.8" font-family="Times,serif" font-size="14.00">घञ्</text>
</g>
<!-- Node15 -->
<g id="node15" class="node"><title>Node15</title>
<g id="a_node15"><a xlink:title="इन्द्र का वज्र, बिजली, नदी, शल्ल्की नामक वृक्ष">
<polygon fill="none" stroke="blue" points="187,-90 133,-90 133,-54 187,-54 187,-90"/>
<text text-anchor="middle" x="160" y="-68.3" font-family="Times,serif" font-size="14.00">ह्लादिनी</text>
</a>
</g>
</g>
<!-- Node1&#45;&gt;Node15 -->
<g id="edge14" class="edge"><title>Node1&#45;&gt;Node15</title>
<path fill="none" stroke="black" d="M35.1316,-216.546C42.9257,-198.401 56.4025,-169.552 72,-147 88.4622,-123.198 93.7681,-117.528 116,-99 118.654,-96.7885 121.502,-94.6214 124.425,-92.5369"/>
<polygon fill="black" stroke="black" points="126.424,-95.4101 132.752,-86.9128 122.506,-89.609 126.424,-95.4101"/>
<text text-anchor="middle" x="85" y="-150.8" font-family="Times,serif" font-size="14.00">णिनि</text>
</g>
<!-- Node16 -->
<g id="node16" class="node"><title>Node16</title>
<g id="a_node16"><a xlink:title="प्रसन्न होने वाला, खुश होने वाला">
<polygon fill="none" stroke="blue" points="187,-36 133,-36 133,-0 187,-0 187,-36"/>
<text text-anchor="middle" x="160" y="-14.3" font-family="Times,serif" font-size="14.00">ह्लादिन्</text>
</a>
</g>
</g>
<!-- Node1&#45;&gt;Node16 -->
<g id="edge15" class="edge"><title>Node1&#45;&gt;Node16</title>
<path fill="none" stroke="black" d="M31.4686,-215.794C37.1518,-188.653 50.0644,-136.539 72,-97 86.687,-70.5267 93.1323,-64.8396 116,-45 118.609,-42.7363 121.427,-40.5329 124.329,-38.4245"/>
<polygon fill="black" stroke="black" points="126.338,-41.2908 132.624,-32.7626 122.392,-35.5092 126.338,-41.2908"/>
<text text-anchor="middle" x="85" y="-100.8" font-family="Times,serif" font-size="14.00">णिनि</text>
</g>
<!-- Node3 -->
<g id="node3" class="node"><title>Node3</title>
<g id="a_node3"><a xlink:title="प्रसन्न करना, खुश करना">
<polygon fill="none" stroke="blue" points="352,-522 284,-522 284,-486 352,-486 352,-522"/>
<text text-anchor="middle" x="318" y="-500.3" font-family="Times,serif" font-size="14.00">आहलादन</text>
</a>
</g>
</g>
<!-- Node2&#45;&gt;Node3 -->
<g id="edge2" class="edge"><title>Node2&#45;&gt;Node3</title>
<path fill="none" stroke="black" d="M191.078,-460.412C214.631,-468.565 247.701,-480.012 274.042,-489.13"/>
<polygon fill="black" stroke="black" points="273.178,-492.535 283.773,-492.498 275.468,-485.92 273.178,-492.535"/>
<text text-anchor="middle" x="234" y="-481.8" font-family="Times,serif" font-size="14.00">ल्युट्</text>
</g>
<!-- Node4 -->
<g id="node4" class="node"><title>Node4</title>
<g id="a_node4"><a xlink:title="खुशी, हर्ष, साह्लादं वचनम्">
<polygon fill="none" stroke="blue" points="345,-468 291,-468 291,-432 345,-432 345,-468"/>
<text text-anchor="middle" x="318" y="-446.3" font-family="Times,serif" font-size="14.00">आह्लाद</text>
</a>
</g>
</g>
<!-- Node2&#45;&gt;Node4 -->
<g id="edge3" class="edge"><title>Node2&#45;&gt;Node4</title>
<path fill="none" stroke="black" d="M197.97,-450C222.883,-450 255.602,-450 280.43,-450"/>
<polygon fill="black" stroke="black" points="280.542,-453.5 290.542,-450 280.542,-446.5 280.542,-453.5"/>
<text text-anchor="middle" x="234" y="-453.8" font-family="Times,serif" font-size="14.00">घञ्</text>
</g>
<!-- Node6 -->
<g id="node6" class="node"><title>Node6</title>
<ellipse fill="none" stroke="red" cx="318" cy="-396" rx="53.0913" ry="18"/>
<text text-anchor="middle" x="318" y="-392.3" font-family="Times,serif" font-size="14.00">प्र_ह्लाद्+णिच्</text>
</g>
<!-- Node5&#45;&gt;Node6 -->
<g id="edge5" class="edge"><title>Node5&#45;&gt;Node6</title>
<path fill="none" stroke="black" d="M203.628,-396C219.241,-396 237.254,-396 254.26,-396"/>
<polygon fill="black" stroke="black" points="254.688,-399.5 264.688,-396 254.688,-392.5 254.688,-399.5"/>
</g>
<!-- Node7 -->
<g id="node7" class="node"><title>Node7</title>
<polygon fill="none" stroke="blue" points="486,-414 432,-414 432,-378 486,-378 486,-414"/>
<text text-anchor="middle" x="459" y="-392.3" font-family="Times,serif" font-size="14.00">प्रह्रादन</text>
</g>
<!-- Node6&#45;&gt;Node7 -->
<g id="edge6" class="edge"><title>Node6&#45;&gt;Node7</title>
<path fill="none" stroke="black" d="M371.55,-396C388.29,-396 406.428,-396 421.747,-396"/>
<polygon fill="black" stroke="black" points="421.85,-399.5 431.85,-396 421.85,-392.5 421.85,-399.5"/>
<text text-anchor="middle" x="402" y="-399.8" font-family="Times,serif" font-size="14.00">ल्युट्</text>
</g>
<!-- Node9 -->
<g id="node9" class="node"><title>Node9</title>
<g id="a_node9"><a xlink:title="अत्यधिक हर्ष, प्रसन्नता, खुशी, आनन्द, प्रह्लादः">
<polygon fill="none" stroke="blue" points="345,-360 291,-360 291,-324 345,-324 345,-360"/>
<text text-anchor="middle" x="318" y="-338.3" font-family="Times,serif" font-size="14.00">प्रह्राद</text>
</a>
</g>
</g>
<!-- Node8&#45;&gt;Node9 -->
<g id="edge8" class="edge"><title>Node8&#45;&gt;Node9</title>
<path fill="none" stroke="black" d="M194.084,-342C219.395,-342 254.28,-342 280.421,-342"/>
<polygon fill="black" stroke="black" points="280.68,-345.5 290.68,-342 280.68,-338.5 280.68,-345.5"/>
<text text-anchor="middle" x="234" y="-345.8" font-family="Times,serif" font-size="14.00">घञ्</text>
</g>
<!-- Node10 -->
<g id="node10" class="node"><title>Node10</title>
<g id="a_node10"><a xlink:title="खुश, आनंदित, प्रसन्न">
<polygon fill="none" stroke="blue" points="345,-306 291,-306 291,-270 345,-270 345,-306"/>
<text text-anchor="middle" x="318" y="-284.3" font-family="Times,serif" font-size="14.00">प्रह्लन्न</text>
</a>
</g>
</g>
<!-- Node8&#45;&gt;Node10 -->
<g id="edge9" class="edge"><title>Node8&#45;&gt;Node10</title>
<path fill="none" stroke="black" d="M188.89,-332.346C214.76,-323.391 253.385,-310.021 281.457,-300.303"/>
<polygon fill="black" stroke="black" points="282.603,-303.61 290.908,-297.032 280.314,-296.995 282.603,-303.61"/>
<text text-anchor="middle" x="234" y="-323.8" font-family="Times,serif" font-size="14.00">क्त</text>
</g>
</g>
</svg>
