<?xml version="1.0" encoding="UTF-8" standalone="no"?>
<!DOCTYPE svg PUBLIC "-//W3C//DTD SVG 1.1//EN"
 "http://www.w3.org/Graphics/SVG/1.1/DTD/svg11.dtd">
<!-- Generated by graphviz version 2.36.0 (20140111.2315)
 -->
<!-- Title: G Pages: 1 -->
<svg width="180pt" height="206pt"
 viewBox="0.00 0.00 180.00 206.00" xmlns="http://www.w3.org/2000/svg" xmlns:xlink="http://www.w3.org/1999/xlink">
<g id="graph0" class="graph" transform="scale(1 1) rotate(0) translate(4 202)">
<title>G</title>
<polygon fill="white" stroke="none" points="-4,4 -4,-202 176,-202 176,4 -4,4"/>
<!-- Node1 -->
<g id="node1" class="node"><title>Node1</title>
<ellipse fill="none" stroke="red" cx="27" cy="-99" rx="27" ry="18"/>
<text text-anchor="middle" x="27" y="-95.3" font-family="Times,serif" font-size="14.00">हुड्</text>
</g>
<!-- Node2 -->
<g id="node2" class="node"><title>Node2</title>
<g id="a_node2"><a xlink:title="मेढ़ा">
<polygon fill="none" stroke="blue" points="172,-198 118,-198 118,-162 172,-162 172,-198"/>
<text text-anchor="middle" x="145" y="-176.3" font-family="Times,serif" font-size="14.00">हुड</text>
</a>
</g>
</g>
<!-- Node1&#45;&gt;Node2 -->
<g id="edge1" class="edge"><title>Node1&#45;&gt;Node2</title>
<path fill="none" stroke="black" d="M44.818,-113.049C52.8884,-119.616 62.7864,-127.419 72,-134 83.8309,-142.451 97.157,-151.173 109.099,-158.721"/>
<polygon fill="black" stroke="black" points="107.58,-161.9 117.914,-164.24 111.295,-155.967 107.58,-161.9"/>
<text text-anchor="middle" x="86" y="-155.8" font-family="Times,serif" font-size="14.00">क</text>
</g>
<!-- Node3 -->
<g id="node3" class="node"><title>Node3</title>
<g id="a_node3"><a xlink:title="बालू की घड़ी के आकार का बना एक छोटा ढोल">
<polygon fill="none" stroke="blue" points="172,-144 118,-144 118,-108 172,-108 172,-144"/>
<text text-anchor="middle" x="145" y="-122.3" font-family="Times,serif" font-size="14.00">हुडुक्क</text>
</a>
</g>
</g>
<!-- Node1&#45;&gt;Node3 -->
<g id="edge2" class="edge"><title>Node1&#45;&gt;Node3</title>
<path fill="none" stroke="black" d="M52.6006,-104.726C68.6866,-108.47 89.9721,-113.425 107.954,-117.61"/>
<polygon fill="black" stroke="black" points="107.29,-121.049 117.823,-119.907 108.877,-114.231 107.29,-121.049"/>
<text text-anchor="middle" x="86" y="-118.8" font-family="Times,serif" font-size="14.00">उक्क</text>
</g>
<!-- Node4 -->
<g id="node4" class="node"><title>Node4</title>
<g id="a_node4"><a xlink:title="साँड का रांभना">
<polygon fill="none" stroke="blue" points="172,-90 118,-90 118,-54 172,-54 172,-90"/>
<text text-anchor="middle" x="145" y="-68.3" font-family="Times,serif" font-size="14.00">हुडुत्</text>
</a>
</g>
</g>
<!-- Node1&#45;&gt;Node4 -->
<g id="edge3" class="edge"><title>Node1&#45;&gt;Node4</title>
<path fill="none" stroke="black" d="M52.6006,-93.274C68.6866,-89.5298 89.9721,-84.5755 107.954,-80.3899"/>
<polygon fill="black" stroke="black" points="108.877,-83.7689 117.823,-78.093 107.29,-76.9512 108.877,-83.7689"/>
<text text-anchor="middle" x="86" y="-91.8" font-family="Times,serif" font-size="14.00">उति</text>
</g>
<!-- Node5 -->
<g id="node5" class="node"><title>Node5</title>
<g id="a_node5"><a xlink:title="मेढ़ा, जम्बुको हुडुयुद्धेन">
<polygon fill="none" stroke="blue" points="172,-36 118,-36 118,-0 172,-0 172,-36"/>
<text text-anchor="middle" x="145" y="-14.3" font-family="Times,serif" font-size="14.00">हुडु</text>
</a>
</g>
</g>
<!-- Node1&#45;&gt;Node5 -->
<g id="edge4" class="edge"><title>Node1&#45;&gt;Node5</title>
<path fill="none" stroke="black" d="M44.3224,-84.812C52.4481,-77.9665 62.5358,-69.7875 72,-63 83.7408,-54.5797 97.0457,-46.0106 108.996,-38.641"/>
<polygon fill="black" stroke="black" points="111.105,-41.4547 117.822,-33.2615 107.461,-35.4774 111.105,-41.4547"/>
<text text-anchor="middle" x="86" y="-66.8" font-family="Times,serif" font-size="14.00">कु*</text>
</g>
</g>
</svg>
