<?xml version="1.0" encoding="UTF-8" standalone="no"?>
<!DOCTYPE svg PUBLIC "-//W3C//DTD SVG 1.1//EN"
 "http://www.w3.org/Graphics/SVG/1.1/DTD/svg11.dtd">
<!-- Generated by graphviz version 2.36.0 (20140111.2315)
 -->
<!-- Title: G Pages: 1 -->
<svg width="302pt" height="206pt"
 viewBox="0.00 0.00 302.00 206.00" xmlns="http://www.w3.org/2000/svg" xmlns:xlink="http://www.w3.org/1999/xlink">
<g id="graph0" class="graph" transform="scale(1 1) rotate(0) translate(4 202)">
<title>G</title>
<polygon fill="white" stroke="none" points="-4,4 -4,-202 298,-202 298,4 -4,4"/>
<!-- Node1 -->
<g id="node1" class="node"><title>Node1</title>
<ellipse fill="none" stroke="red" cx="27" cy="-126" rx="27" ry="18"/>
<text text-anchor="middle" x="27" y="-122.3" font-family="Times,serif" font-size="14.00">ईह्</text>
</g>
<!-- Node2 -->
<g id="node2" class="node"><title>Node2</title>
<g id="a_node2"><a xlink:title="कामना, इच्छा">
<polygon fill="none" stroke="blue" points="166,-198 112,-198 112,-162 166,-162 166,-198"/>
<text text-anchor="middle" x="139" y="-176.3" font-family="Times,serif" font-size="14.00">ईहा</text>
</a>
</g>
</g>
<!-- Node1&#45;&gt;Node2 -->
<g id="edge1" class="edge"><title>Node1&#45;&gt;Node2</title>
<path fill="none" stroke="black" d="M49.2091,-136.412C64.2745,-143.807 84.8625,-153.914 102.421,-162.534"/>
<polygon fill="black" stroke="black" points="101.29,-165.878 111.809,-167.143 104.375,-159.594 101.29,-165.878"/>
<text text-anchor="middle" x="78" y="-156.8" font-family="Times,serif" font-size="14.00">अ</text>
</g>
<!-- Node3 -->
<g id="node3" class="node"><title>Node3</title>
<g id="a_node3"><a xlink:title="कामना, इच्छा#चाहा हुआ, खोजा हुआ, प्रयत्न किया हुआ">
<polygon fill="none" stroke="blue" points="166,-144 112,-144 112,-108 166,-108 166,-144"/>
<text text-anchor="middle" x="139" y="-122.3" font-family="Times,serif" font-size="14.00">ईहित</text>
</a>
</g>
</g>
<!-- Node1&#45;&gt;Node3 -->
<g id="edge2" class="edge"><title>Node1&#45;&gt;Node3</title>
<path fill="none" stroke="black" d="M54.0685,-126C68.2123,-126 85.9247,-126 101.428,-126"/>
<polygon fill="black" stroke="black" points="101.737,-129.5 111.737,-126 101.737,-122.5 101.737,-129.5"/>
<text text-anchor="middle" x="78" y="-129.8" font-family="Times,serif" font-size="14.00">क्त</text>
</g>
<!-- Node4 -->
<g id="node4" class="node"><title>Node4</title>
<ellipse fill="none" stroke="red" cx="139" cy="-72" rx="36.2938" ry="18"/>
<text text-anchor="middle" x="139" y="-68.3" font-family="Times,serif" font-size="14.00">सम्_ईह्</text>
</g>
<!-- Node1&#45;&gt;Node4 -->
<g id="edge3" class="edge"><title>Node1&#45;&gt;Node4</title>
<path fill="none" stroke="black" d="M49.2091,-115.588C64.4852,-108.089 85.4395,-97.8024 103.156,-89.1053"/>
<polygon fill="black" stroke="black" points="105.174,-92.0136 112.608,-84.465 102.089,-85.7299 105.174,-92.0136"/>
</g>
<!-- Node5 -->
<g id="node5" class="node"><title>Node5</title>
<g id="a_node5"><a xlink:title="फेंकना, भेजना#साँस">
<polygon fill="none" stroke="blue" points="292,-144 238,-144 238,-108 292,-108 292,-144"/>
<text text-anchor="middle" x="265" y="-122.3" font-family="Times,serif" font-size="14.00">समीरण</text>
</a>
</g>
</g>
<!-- Node4&#45;&gt;Node5 -->
<g id="edge4" class="edge"><title>Node4&#45;&gt;Node5</title>
<path fill="none" stroke="black" d="M166.906,-83.7172C185.025,-91.6077 209.106,-102.095 228.753,-110.651"/>
<polygon fill="black" stroke="black" points="227.43,-113.892 237.996,-114.676 230.225,-107.474 227.43,-113.892"/>
<text text-anchor="middle" x="206" y="-108.8" font-family="Times,serif" font-size="14.00">ल्युट्</text>
</g>
<!-- Node6 -->
<g id="node6" class="node"><title>Node6</title>
<g id="a_node6"><a xlink:title="प्रबल इच्छा, चाह, प्रबल उद्योग">
<polygon fill="none" stroke="blue" points="292,-90 238,-90 238,-54 292,-54 292,-90"/>
<text text-anchor="middle" x="265" y="-68.3" font-family="Times,serif" font-size="14.00">समीहा</text>
</a>
</g>
</g>
<!-- Node4&#45;&gt;Node6 -->
<g id="edge5" class="edge"><title>Node4&#45;&gt;Node6</title>
<path fill="none" stroke="black" d="M175.533,-72C191.854,-72 211.186,-72 227.61,-72"/>
<polygon fill="black" stroke="black" points="227.922,-75.5001 237.922,-72 227.922,-68.5001 227.922,-75.5001"/>
<text text-anchor="middle" x="206" y="-75.8" font-family="Times,serif" font-size="14.00">अ</text>
</g>
<!-- Node7 -->
<g id="node7" class="node"><title>Node7</title>
<g id="a_node7"><a xlink:title="अभिलषित, इच्छित, अभीष्ट#कामना, अभिलाषा, इच्छा">
<polygon fill="none" stroke="blue" points="294,-36 236,-36 236,-0 294,-0 294,-36"/>
<text text-anchor="middle" x="265" y="-14.3" font-family="Times,serif" font-size="14.00">समीहित</text>
</a>
</g>
</g>
<!-- Node4&#45;&gt;Node7 -->
<g id="edge6" class="edge"><title>Node4&#45;&gt;Node7</title>
<path fill="none" stroke="black" d="M166.906,-60.2828C184.333,-52.6935 207.276,-42.7022 226.484,-34.3375"/>
<polygon fill="black" stroke="black" points="228.084,-37.4583 235.855,-30.2566 225.289,-31.0404 228.084,-37.4583"/>
<text text-anchor="middle" x="206" y="-51.8" font-family="Times,serif" font-size="14.00">क्त</text>
</g>
</g>
</svg>
