<?xml version="1.0" encoding="UTF-8" standalone="no"?>
<!DOCTYPE svg PUBLIC "-//W3C//DTD SVG 1.1//EN"
 "http://www.w3.org/Graphics/SVG/1.1/DTD/svg11.dtd">
<!-- Generated by graphviz version 2.36.0 (20140111.2315)
 -->
<!-- Title: G Pages: 1 -->
<svg width="316pt" height="422pt"
 viewBox="0.00 0.00 316.00 422.00" xmlns="http://www.w3.org/2000/svg" xmlns:xlink="http://www.w3.org/1999/xlink">
<g id="graph0" class="graph" transform="scale(1 1) rotate(0) translate(4 418)">
<title>G</title>
<polygon fill="white" stroke="none" points="-4,4 -4,-418 312,-418 312,4 -4,4"/>
<!-- Node1 -->
<g id="node1" class="node"><title>Node1</title>
<ellipse fill="none" stroke="red" cx="27" cy="-207" rx="27" ry="18"/>
<text text-anchor="middle" x="27" y="-203.3" font-family="Times,serif" font-size="14.00">ईष्</text>
</g>
<!-- Node2 -->
<g id="node2" class="node"><title>Node2</title>
<g id="a_node2"><a xlink:title="आश्विन मास, तु* ’ईष्’">
<polygon fill="none" stroke="blue" points="184,-414 130,-414 130,-378 184,-378 184,-414"/>
<text text-anchor="middle" x="157" y="-392.3" font-family="Times,serif" font-size="14.00">ईष</text>
</a>
</g>
</g>
<!-- Node1&#45;&gt;Node2 -->
<g id="edge1" class="edge"><title>Node1&#45;&gt;Node2</title>
<path fill="none" stroke="black" d="M32.346,-224.671C38.6252,-248.036 51.7514,-289.882 72,-321 85.012,-340.997 104.706,-358.971 121.755,-372.308"/>
<polygon fill="black" stroke="black" points="119.79,-375.211 129.871,-378.471 124.023,-369.636 119.79,-375.211"/>
<text text-anchor="middle" x="87" y="-356.8" font-family="Times,serif" font-size="14.00">क</text>
</g>
<!-- Node3 -->
<g id="node3" class="node"><title>Node3</title>
<g id="a_node3"><a xlink:title="जरा, कुछ सीमा तक, थोंड़ा सा ईषत् चुम्बितानि">
<polygon fill="none" stroke="blue" points="184,-360 130,-360 130,-324 184,-324 184,-360"/>
<text text-anchor="middle" x="157" y="-338.3" font-family="Times,serif" font-size="14.00">ईषत्</text>
</a>
</g>
</g>
<!-- Node1&#45;&gt;Node3 -->
<g id="edge2" class="edge"><title>Node1&#45;&gt;Node3</title>
<path fill="none" stroke="black" d="M36.5149,-223.937C44.483,-238.841 57.3353,-260.652 72,-277 90.1686,-297.255 98.4478,-298.391 120,-315 121.16,-315.894 122.344,-316.802 123.541,-317.717"/>
<polygon fill="black" stroke="black" points="121.454,-320.527 131.535,-323.786 125.686,-314.952 121.454,-320.527"/>
<text text-anchor="middle" x="87" y="-305.8" font-family="Times,serif" font-size="14.00">अति</text>
</g>
<!-- Node4 -->
<g id="node4" class="node"><title>Node4</title>
<g id="a_node4"><a xlink:title="गाड़ी की फड़">
<polygon fill="none" stroke="blue" points="184,-306 130,-306 130,-270 184,-270 184,-306"/>
<text text-anchor="middle" x="157" y="-284.3" font-family="Times,serif" font-size="14.00">ईषा</text>
</a>
</g>
</g>
<!-- Node1&#45;&gt;Node4 -->
<g id="edge3" class="edge"><title>Node1&#45;&gt;Node4</title>
<path fill="none" stroke="black" d="M44.7026,-220.844C52.7476,-227.266 62.6576,-234.826 72,-241 87.4704,-251.225 105.312,-261.416 120.563,-269.682"/>
<polygon fill="black" stroke="black" points="119.211,-272.929 129.679,-274.563 122.515,-266.758 119.211,-272.929"/>
<text text-anchor="middle" x="87" y="-261.8" font-family="Times,serif" font-size="14.00">क</text>
</g>
<!-- Node5 -->
<g id="node5" class="node"><title>Node5</title>
<g id="a_node5"><a xlink:title="अग्नि, आग">
<polygon fill="none" stroke="blue" points="184,-252 130,-252 130,-216 184,-216 184,-252"/>
<text text-anchor="middle" x="157" y="-230.3" font-family="Times,serif" font-size="14.00">ईषिर</text>
</a>
</g>
</g>
<!-- Node1&#45;&gt;Node5 -->
<g id="edge4" class="edge"><title>Node1&#45;&gt;Node5</title>
<path fill="none" stroke="black" d="M52.9835,-212.27C71.9907,-216.279 98.4221,-221.855 119.753,-226.354"/>
<polygon fill="black" stroke="black" points="119.252,-229.825 129.759,-228.465 120.697,-222.976 119.252,-229.825"/>
<text text-anchor="middle" x="87" y="-225.8" font-family="Times,serif" font-size="14.00">किरच्</text>
</g>
<!-- Node6 -->
<g id="node6" class="node"><title>Node6</title>
<g id="a_node6"><a xlink:title="रंगसाज की कूँची">
<polygon fill="none" stroke="blue" points="184,-198 130,-198 130,-162 184,-162 184,-198"/>
<text text-anchor="middle" x="157" y="-176.3" font-family="Times,serif" font-size="14.00">ईषीका</text>
</a>
</g>
</g>
<!-- Node1&#45;&gt;Node6 -->
<g id="edge5" class="edge"><title>Node1&#45;&gt;Node6</title>
<path fill="none" stroke="black" d="M52.6447,-201.29C58.9482,-199.86 65.7196,-198.349 72,-197 87.7201,-193.623 105.136,-190.068 120.015,-187.087"/>
<polygon fill="black" stroke="black" points="120.737,-190.512 129.859,-185.124 119.368,-183.647 120.737,-190.512"/>
<text text-anchor="middle" x="87" y="-200.8" font-family="Times,serif" font-size="14.00">क्वुन्</text>
</g>
<!-- Node7 -->
<g id="node7" class="node"><title>Node7</title>
<ellipse fill="none" stroke="red" cx="157" cy="-126" rx="36.2938" ry="18"/>
<text text-anchor="middle" x="157" y="-122.3" font-family="Times,serif" font-size="14.00">निर्_ईष्</text>
</g>
<!-- Node1&#45;&gt;Node7 -->
<g id="edge6" class="edge"><title>Node1&#45;&gt;Node7</title>
<path fill="none" stroke="black" d="M47.1629,-194.873C67.7846,-181.824 100.887,-160.876 125.177,-145.505"/>
<polygon fill="black" stroke="black" points="127.11,-148.424 133.688,-140.119 123.366,-142.509 127.11,-148.424"/>
</g>
<!-- Node9 -->
<g id="node9" class="node"><title>Node9</title>
<ellipse fill="none" stroke="red" cx="157" cy="-72" rx="29.795" ry="18"/>
<text text-anchor="middle" x="157" y="-68.3" font-family="Times,serif" font-size="14.00">प्र_ईष्</text>
</g>
<!-- Node1&#45;&gt;Node9 -->
<g id="edge8" class="edge"><title>Node1&#45;&gt;Node9</title>
<path fill="none" stroke="black" d="M39.8001,-191.023C56.4126,-169.055 88.231,-128.856 120,-99 122.722,-96.4419 125.683,-93.8976 128.699,-91.451"/>
<polygon fill="black" stroke="black" points="130.924,-94.1543 136.683,-85.2612 126.635,-88.6221 130.924,-94.1543"/>
</g>
<!-- Node12 -->
<g id="node12" class="node"><title>Node12</title>
<g id="a_node12"><a xlink:title="दिमाग">
<polygon fill="none" stroke="blue" points="187,-36 127,-36 127,-0 187,-0 187,-36"/>
<text text-anchor="middle" x="157" y="-14.3" font-family="Times,serif" font-size="14.00">मस्तिष्क</text>
</a>
</g>
</g>
<!-- Node1&#45;&gt;Node12 -->
<g id="edge11" class="edge"><title>Node1&#45;&gt;Node12</title>
<path fill="none" stroke="black" d="M34.485,-189.57C47.0044,-157.753 77.1038,-89.4555 120,-45 120.641,-44.3359 121.299,-43.6756 121.972,-43.0202"/>
<polygon fill="black" stroke="black" points="124.457,-45.4942 129.601,-36.2322 119.804,-40.2644 124.457,-45.4942"/>
</g>
<!-- Node8 -->
<g id="node8" class="node"><title>Node8</title>
<g id="a_node8"><a xlink:title="हल का फाल">
<polygon fill="none" stroke="blue" points="308,-144 254,-144 254,-108 308,-108 308,-144"/>
<text text-anchor="middle" x="281" y="-122.3" font-family="Times,serif" font-size="14.00">निरीष</text>
</a>
</g>
</g>
<!-- Node7&#45;&gt;Node8 -->
<g id="edge7" class="edge"><title>Node7&#45;&gt;Node8</title>
<path fill="none" stroke="black" d="M193.615,-126C209.273,-126 227.647,-126 243.414,-126"/>
<polygon fill="black" stroke="black" points="243.848,-129.5 253.848,-126 243.848,-122.5 243.848,-129.5"/>
<text text-anchor="middle" x="224" y="-129.8" font-family="Times,serif" font-size="14.00">क</text>
</g>
<!-- Node10 -->
<g id="node10" class="node"><title>Node10</title>
<g id="a_node10"><a xlink:title="आदेश दिये जाने के योग्य, भेजे जाने या प्रेषित किये जाने के योग्य#दूतमंडली को भेजना#सेवक, भृत्य, दास">
<polygon fill="none" stroke="blue" points="308,-90 254,-90 254,-54 308,-54 308,-90"/>
<text text-anchor="middle" x="281" y="-68.3" font-family="Times,serif" font-size="14.00">प्रेष्य</text>
</a>
</g>
</g>
<!-- Node9&#45;&gt;Node10 -->
<g id="edge9" class="edge"><title>Node9&#45;&gt;Node10</title>
<path fill="none" stroke="black" d="M186.912,-72C203.876,-72 225.469,-72 243.586,-72"/>
<polygon fill="black" stroke="black" points="243.791,-75.5001 253.79,-72 243.79,-68.5001 243.791,-75.5001"/>
<text text-anchor="middle" x="224" y="-75.8" font-family="Times,serif" font-size="14.00">ण्यत्</text>
</g>
<!-- Node11 -->
<g id="node11" class="node"><title>Node11</title>
<g id="a_node11"><a xlink:title="सेविका, दासी">
<polygon fill="none" stroke="blue" points="308,-36 254,-36 254,-0 308,-0 308,-36"/>
<text text-anchor="middle" x="281" y="-14.3" font-family="Times,serif" font-size="14.00">प्रेष्या</text>
</a>
</g>
</g>
<!-- Node9&#45;&gt;Node11 -->
<g id="edge10" class="edge"><title>Node9&#45;&gt;Node11</title>
<path fill="none" stroke="black" d="M181.523,-61.5883C199.336,-53.7038 224.11,-42.7382 244.353,-33.7781"/>
<polygon fill="black" stroke="black" points="245.857,-36.9403 253.584,-29.6923 243.023,-30.5393 245.857,-36.9403"/>
<text text-anchor="middle" x="224" y="-49.8" font-family="Times,serif" font-size="14.00">ण्यत्</text>
</g>
</g>
</svg>
