<?xml version="1.0" encoding="UTF-8" standalone="no"?>
<!DOCTYPE svg PUBLIC "-//W3C//DTD SVG 1.1//EN"
 "http://www.w3.org/Graphics/SVG/1.1/DTD/svg11.dtd">
<!-- Generated by graphviz version 2.36.0 (20140111.2315)
 -->
<!-- Title: G Pages: 1 -->
<svg width="532pt" height="935pt"
 viewBox="0.00 0.00 532.00 935.00" xmlns="http://www.w3.org/2000/svg" xmlns:xlink="http://www.w3.org/1999/xlink">
<g id="graph0" class="graph" transform="scale(1 1) rotate(0) translate(4 931)">
<title>G</title>
<polygon fill="white" stroke="none" points="-4,4 -4,-931 528,-931 528,4 -4,4"/>
<!-- Node1 -->
<g id="node1" class="node"><title>Node1</title>
<ellipse fill="none" stroke="red" cx="27" cy="-423" rx="27" ry="18"/>
<text text-anchor="middle" x="27" y="-419.3" font-family="Times,serif" font-size="14.00">जीव्</text>
</g>
<!-- Node2 -->
<g id="node2" class="node"><title>Node2</title>
<ellipse fill="none" stroke="red" cx="164" cy="-855" rx="38.1938" ry="18"/>
<text text-anchor="middle" x="164" y="-851.3" font-family="Times,serif" font-size="14.00">आ_जीव्</text>
</g>
<!-- Node1&#45;&gt;Node2 -->
<g id="edge1" class="edge"><title>Node1&#45;&gt;Node2</title>
<path fill="none" stroke="black" d="M30.5377,-441.093C36.1694,-479.719 50.9024,-572.925 72,-649 88.6825,-709.155 93.5474,-724.457 120,-781 127.748,-797.561 137.981,-815.297 146.522,-829.254"/>
<polygon fill="black" stroke="black" points="143.598,-831.179 151.846,-837.829 149.544,-827.487 143.598,-831.179"/>
</g>
<!-- Node5 -->
<g id="node5" class="node"><title>Node5</title>
<ellipse fill="none" stroke="red" cx="164" cy="-754" rx="37.0935" ry="18"/>
<text text-anchor="middle" x="164" y="-750.3" font-family="Times,serif" font-size="14.00">जीव्+अ</text>
</g>
<!-- Node1&#45;&gt;Node5 -->
<g id="edge4" class="edge"><title>Node1&#45;&gt;Node5</title>
<path fill="none" stroke="black" d="M30.6192,-440.996C35.8614,-474.51 49.1438,-548.401 72,-607 87.9063,-647.78 96.6913,-655.949 120,-693 127.622,-705.115 136.673,-718.133 144.5,-729.019"/>
<polygon fill="black" stroke="black" points="141.757,-731.198 150.464,-737.234 147.421,-727.086 141.757,-731.198"/>
</g>
<!-- Node8 -->
<g id="node8" class="node"><title>Node8</title>
<ellipse fill="none" stroke="red" cx="164" cy="-666" rx="40.0939" ry="18"/>
<text text-anchor="middle" x="164" y="-662.3" font-family="Times,serif" font-size="14.00">उप_जीव्</text>
</g>
<!-- Node1&#45;&gt;Node8 -->
<g id="edge7" class="edge"><title>Node1&#45;&gt;Node8</title>
<path fill="none" stroke="black" d="M30.8387,-441.019C38.1705,-481.792 61.429,-582.007 120,-639 122.685,-641.613 125.664,-644.102 128.764,-646.437"/>
<polygon fill="black" stroke="black" points="126.926,-649.421 137.14,-652.236 130.91,-643.666 126.926,-649.421"/>
</g>
<!-- Node14 -->
<g id="node14" class="node"><title>Node14</title>
<ellipse fill="none" stroke="red" cx="164" cy="-612" rx="44.393" ry="18"/>
<text text-anchor="middle" x="164" y="-608.3" font-family="Times,serif" font-size="14.00">जीव्+णिच्</text>
</g>
<!-- Node1&#45;&gt;Node14 -->
<g id="edge13" class="edge"><title>Node1&#45;&gt;Node14</title>
<path fill="none" stroke="black" d="M32.346,-440.671C38.6252,-464.036 51.7514,-505.882 72,-537 86.5246,-559.321 109.783,-578.322 129.151,-591.615"/>
<polygon fill="black" stroke="black" points="127.463,-594.696 137.73,-597.312 131.335,-588.864 127.463,-594.696"/>
</g>
<!-- Node16 -->
<g id="node16" class="node"><title>Node16</title>
<g id="a_node16"><a xlink:title="जीवन का सिद्धान्त, श्वास, प्राण, आत्मा&#45; गतजीव, जीवत्याग, जीवाशा आदि#जीवित, विद्यमान">
<polygon fill="none" stroke="blue" points="191,-576 137,-576 137,-540 191,-540 191,-576"/>
<text text-anchor="middle" x="164" y="-554.3" font-family="Times,serif" font-size="14.00">जीव</text>
</a>
</g>
</g>
<!-- Node1&#45;&gt;Node16 -->
<g id="edge15" class="edge"><title>Node1&#45;&gt;Node16</title>
<path fill="none" stroke="black" d="M36.77,-439.929C44.8124,-454.577 57.6297,-475.88 72,-492 90.291,-512.518 97.6526,-514.995 120,-531 122.652,-532.899 125.435,-534.813 128.257,-536.698"/>
<polygon fill="black" stroke="black" points="126.453,-539.7 136.743,-542.223 130.272,-533.834 126.453,-539.7"/>
<text text-anchor="middle" x="87" y="-521.8" font-family="Times,serif" font-size="14.00">क</text>
</g>
<!-- Node17 -->
<g id="node17" class="node"><title>Node17</title>
<g id="a_node17"><a xlink:title="जीवन, अस्तित्व">
<polygon fill="none" stroke="blue" points="191,-522 137,-522 137,-486 191,-486 191,-522"/>
<text text-anchor="middle" x="164" y="-500.3" font-family="Times,serif" font-size="14.00">जीवथ</text>
</a>
</g>
</g>
<!-- Node1&#45;&gt;Node17 -->
<g id="edge16" class="edge"><title>Node1&#45;&gt;Node17</title>
<path fill="none" stroke="black" d="M45.1059,-436.821C53.0718,-442.996 62.8031,-450.177 72,-456 89.8264,-467.287 110.577,-478.377 127.757,-487.05"/>
<polygon fill="black" stroke="black" points="126.383,-490.275 136.894,-491.605 129.506,-484.011 126.383,-490.275"/>
<text text-anchor="middle" x="87" y="-476.8" font-family="Times,serif" font-size="14.00">अथ</text>
</g>
<!-- Node18 -->
<g id="node18" class="node"><title>Node18</title>
<g id="a_node18"><a xlink:title="जीवन का सिद्धान्त, संजीवनीशक्ति M#जीवनप्रद, जीवनदाता, प्राणप्रद, स्त्री* जीवनी#जीवित आधारी">
<polygon fill="none" stroke="blue" points="191,-468 137,-468 137,-432 191,-432 191,-468"/>
<text text-anchor="middle" x="164" y="-446.3" font-family="Times,serif" font-size="14.00">जीवन</text>
</a>
</g>
</g>
<!-- Node1&#45;&gt;Node18 -->
<g id="edge17" class="edge"><title>Node1&#45;&gt;Node18</title>
<path fill="none" stroke="black" d="M53.0761,-428.015C73.7999,-432.16 103.496,-438.099 126.799,-442.76"/>
<polygon fill="black" stroke="black" points="126.183,-446.206 136.675,-444.735 127.556,-439.342 126.183,-446.206"/>
<text text-anchor="middle" x="87" y="-440.8" font-family="Times,serif" font-size="14.00">ल्युट्</text>
</g>
<!-- Node19 -->
<g id="node19" class="node"><title>Node19</title>
<g id="a_node19"><a xlink:title="जल">
<polygon fill="none" stroke="blue" points="191,-414 137,-414 137,-378 191,-378 191,-414"/>
<text text-anchor="middle" x="164" y="-392.3" font-family="Times,serif" font-size="14.00">जीवा</text>
</a>
</g>
</g>
<!-- Node1&#45;&gt;Node19 -->
<g id="edge18" class="edge"><title>Node1&#45;&gt;Node19</title>
<path fill="none" stroke="black" d="M52.6309,-417.225C58.9347,-415.796 65.7097,-414.302 72,-413 89.986,-409.278 110.048,-405.491 126.749,-402.439"/>
<polygon fill="black" stroke="black" points="127.45,-405.869 136.665,-400.641 126.201,-398.981 127.45,-405.869"/>
<text text-anchor="middle" x="87" y="-416.8" font-family="Times,serif" font-size="14.00">अच्</text>
</g>
<!-- Node20 -->
<g id="node20" class="node"><title>Node20</title>
<g id="a_node20"><a xlink:title="जीने का साधन, रोजगार">
<polygon fill="none" stroke="blue" points="192,-360 136,-360 136,-324 192,-324 192,-360"/>
<text text-anchor="middle" x="164" y="-338.3" font-family="Times,serif" font-size="14.00">जीविका</text>
</a>
</g>
</g>
<!-- Node1&#45;&gt;Node20 -->
<g id="edge19" class="edge"><title>Node1&#45;&gt;Node20</title>
<path fill="none" stroke="black" d="M44.1195,-408.872C52.1971,-402.137 62.3031,-394.215 72,-388 89.3535,-376.877 109.747,-366.356 126.824,-358.191"/>
<polygon fill="black" stroke="black" points="128.371,-361.331 135.93,-353.908 125.392,-354.997 128.371,-361.331"/>
<text text-anchor="middle" x="87" y="-391.8" font-family="Times,serif" font-size="14.00">अकन्</text>
</g>
<!-- Node21 -->
<g id="node21" class="node"><title>Node21</title>
<g id="a_node21"><a xlink:title="आजीविका के साधन">
<polygon fill="none" stroke="blue" points="191,-306 137,-306 137,-270 191,-270 191,-306"/>
<text text-anchor="middle" x="164" y="-284.3" font-family="Times,serif" font-size="14.00">जीव्या</text>
</a>
</g>
</g>
<!-- Node1&#45;&gt;Node21 -->
<g id="edge20" class="edge"><title>Node1&#45;&gt;Node21</title>
<path fill="none" stroke="black" d="M36.2612,-406.062C44.151,-390.902 57.0335,-368.575 72,-352 90.0516,-332.008 97.9021,-330.402 120,-315 122.676,-313.135 125.476,-311.245 128.31,-309.377"/>
<polygon fill="black" stroke="black" points="130.316,-312.247 136.816,-303.881 126.517,-306.368 130.316,-312.247"/>
<text text-anchor="middle" x="87" y="-355.8" font-family="Times,serif" font-size="14.00">यत्</text>
</g>
<!-- Node22 -->
<g id="node22" class="node"><title>Node22</title>
<ellipse fill="none" stroke="red" cx="164" cy="-234" rx="34.394" ry="18"/>
<text text-anchor="middle" x="164" y="-230.3" font-family="Times,serif" font-size="14.00">प्र_जीव्</text>
</g>
<!-- Node1&#45;&gt;Node22 -->
<g id="edge21" class="edge"><title>Node1&#45;&gt;Node22</title>
<path fill="none" stroke="black" d="M33.7477,-405.507C45.2439,-372.978 73.9879,-302.705 120,-261 123.323,-257.988 127.023,-255.107 130.82,-252.424"/>
<polygon fill="black" stroke="black" points="132.77,-255.33 139.176,-246.891 128.905,-249.494 132.77,-255.33"/>
</g>
<!-- Node24 -->
<g id="node24" class="node"><title>Node24</title>
<ellipse fill="none" stroke="red" cx="164" cy="-180" rx="42.4939" ry="18"/>
<text text-anchor="middle" x="164" y="-176.3" font-family="Times,serif" font-size="14.00">प्रति_जीव्</text>
</g>
<!-- Node1&#45;&gt;Node24 -->
<g id="edge23" class="edge"><title>Node1&#45;&gt;Node24</title>
<path fill="none" stroke="black" d="M30.8127,-404.955C38.0907,-364.125 61.2449,-263.803 120,-207 122.549,-204.536 125.358,-202.18 128.283,-199.958"/>
<polygon fill="black" stroke="black" points="130.514,-202.669 136.713,-194.076 126.509,-196.928 130.514,-202.669"/>
</g>
<!-- Node26 -->
<g id="node26" class="node"><title>Node26</title>
<ellipse fill="none" stroke="red" cx="164" cy="-126" rx="40.0939" ry="18"/>
<text text-anchor="middle" x="164" y="-122.3" font-family="Times,serif" font-size="14.00">उद्_जीव्</text>
</g>
<!-- Node1&#45;&gt;Node26 -->
<g id="edge25" class="edge"><title>Node1&#45;&gt;Node26</title>
<path fill="none" stroke="black" d="M29.826,-404.947C33.8868,-369.455 45.4815,-288.6 72,-226 87.146,-190.246 92.2569,-180.167 120,-153 122.677,-150.379 125.65,-147.884 128.747,-145.545"/>
<polygon fill="black" stroke="black" points="130.894,-148.316 137.118,-139.742 126.905,-142.563 130.894,-148.316"/>
</g>
<!-- Node29 -->
<g id="node29" class="node"><title>Node29</title>
<ellipse fill="none" stroke="red" cx="164" cy="-72" rx="40.8928" ry="18"/>
<text text-anchor="middle" x="164" y="-68.3" font-family="Times,serif" font-size="14.00">सम्_जीव्</text>
</g>
<!-- Node1&#45;&gt;Node29 -->
<g id="edge28" class="edge"><title>Node1&#45;&gt;Node29</title>
<path fill="none" stroke="black" d="M28.4494,-404.955C30.073,-362.187 37.5543,-251.957 72,-168 86.1797,-133.439 92.9696,-124.786 120,-99 122.711,-96.4141 125.707,-93.9426 128.818,-91.6188"/>
<polygon fill="black" stroke="black" points="130.961,-94.3926 137.208,-85.8356 126.988,-88.6291 130.961,-94.3926"/>
</g>
<!-- Node3 -->
<g id="node3" class="node"><title>Node3</title>
<g id="a_node3"><a xlink:title="जीविका, जीवननिर्वाह का साधन, भरण, तु* रूपजीव, अजाजीव, शस्त्राजीव आदि शब्दों की">
<polygon fill="none" stroke="blue" points="355,-927 301,-927 301,-891 355,-891 355,-927"/>
<text text-anchor="middle" x="328" y="-905.3" font-family="Times,serif" font-size="14.00">आजीव</text>
</a>
</g>
</g>
<!-- Node2&#45;&gt;Node3 -->
<g id="edge2" class="edge"><title>Node2&#45;&gt;Node3</title>
<path fill="none" stroke="black" d="M195.852,-865.284C223.034,-874.345 262.637,-887.546 291.205,-897.068"/>
<polygon fill="black" stroke="black" points="290.217,-900.428 300.811,-900.27 292.431,-893.788 290.217,-900.428"/>
<text text-anchor="middle" x="239" y="-886.8" font-family="Times,serif" font-size="14.00">घञ्</text>
</g>
<!-- Node4 -->
<g id="node4" class="node"><title>Node4</title>
<g id="a_node4"><a xlink:title="पेशा, वृत्ति">
<polygon fill="none" stroke="blue" points="358.5,-873 297.5,-873 297.5,-837 358.5,-837 358.5,-873"/>
<text text-anchor="middle" x="328" y="-851.3" font-family="Times,serif" font-size="14.00">आजीवन</text>
</a>
</g>
</g>
<!-- Node2&#45;&gt;Node4 -->
<g id="edge3" class="edge"><title>Node2&#45;&gt;Node4</title>
<path fill="none" stroke="black" d="M202.573,-855C227.958,-855 261.422,-855 287.251,-855"/>
<polygon fill="black" stroke="black" points="287.452,-858.5 297.452,-855 287.452,-851.5 287.452,-858.5"/>
<text text-anchor="middle" x="239" y="-858.8" font-family="Times,serif" font-size="14.00">ल्युट्</text>
</g>
<!-- Node6 -->
<g id="node6" class="node"><title>Node6</title>
<ellipse fill="none" stroke="red" cx="328" cy="-801" rx="50.8918" ry="18"/>
<text text-anchor="middle" x="328" y="-797.3" font-family="Times,serif" font-size="14.00">आ_जीव्+अ</text>
</g>
<!-- Node5&#45;&gt;Node6 -->
<g id="edge5" class="edge"><title>Node5&#45;&gt;Node6</title>
<path fill="none" stroke="black" d="M196.235,-763.062C219.471,-769.803 251.627,-779.132 278.236,-786.852"/>
<polygon fill="black" stroke="black" points="277.553,-790.299 288.133,-789.724 279.504,-783.576 277.553,-790.299"/>
</g>
<!-- Node7 -->
<g id="node7" class="node"><title>Node7</title>
<g id="a_node7"><a xlink:title="पेशा, जीवन निर्वाह का साधन, वृत्ति">
<polygon fill="none" stroke="blue" points="520.5,-819 449.5,-819 449.5,-783 520.5,-783 520.5,-819"/>
<text text-anchor="middle" x="485" y="-797.3" font-family="Times,serif" font-size="14.00">आजीविका</text>
</a>
</g>
</g>
<!-- Node6&#45;&gt;Node7 -->
<g id="edge6" class="edge"><title>Node6&#45;&gt;Node7</title>
<path fill="none" stroke="black" d="M378.896,-801C398.311,-801 420.384,-801 439.273,-801"/>
<polygon fill="black" stroke="black" points="439.402,-804.5 449.402,-801 439.402,-797.5 439.402,-804.5"/>
<text text-anchor="middle" x="416" y="-804.8" font-family="Times,serif" font-size="14.00">कन्</text>
</g>
<!-- Node9 -->
<g id="node9" class="node"><title>Node9</title>
<g id="a_node9"><a xlink:title="पराश्रित, अनुचरभीमकान्तैर्नृपगुणैः स बभूवोपजीविनाम्">
<polygon fill="none" stroke="blue" points="360.5,-765 295.5,-765 295.5,-729 360.5,-729 360.5,-765"/>
<text text-anchor="middle" x="328" y="-743.3" font-family="Times,serif" font-size="14.00">उपजीवक</text>
</a>
</g>
</g>
<!-- Node8&#45;&gt;Node9 -->
<g id="edge8" class="edge"><title>Node8&#45;&gt;Node9</title>
<path fill="none" stroke="black" d="M190.075,-679.935C201.037,-685.931 214.088,-692.94 226,-699 245.313,-708.825 250.431,-710.695 270,-720 275.258,-722.5 280.791,-725.126 286.258,-727.719"/>
<polygon fill="black" stroke="black" points="284.799,-730.901 295.335,-732.021 287.798,-724.575 284.799,-730.901"/>
<text text-anchor="middle" x="239" y="-714.8" font-family="Times,serif" font-size="14.00">ण्वुल्</text>
</g>
<!-- Node10 -->
<g id="node10" class="node"><title>Node10</title>
<g id="a_node10"><a xlink:title="जीविका">
<polygon fill="none" stroke="blue" points="359.5,-711 296.5,-711 296.5,-675 359.5,-675 359.5,-711"/>
<text text-anchor="middle" x="328" y="-689.3" font-family="Times,serif" font-size="14.00">उपजीवन</text>
</a>
</g>
</g>
<!-- Node8&#45;&gt;Node10 -->
<g id="edge9" class="edge"><title>Node8&#45;&gt;Node10</title>
<path fill="none" stroke="black" d="M202.166,-672.194C227.319,-676.386 260.541,-681.923 286.388,-686.231"/>
<polygon fill="black" stroke="black" points="285.817,-689.684 296.256,-687.876 286.967,-682.78 285.817,-689.684"/>
<text text-anchor="middle" x="239" y="-683.8" font-family="Times,serif" font-size="14.00">ल्युट्</text>
</g>
<!-- Node11 -->
<g id="node11" class="node"><title>Node11</title>
<g id="a_node11"><a xlink:title="जीविका">
<polygon fill="none" stroke="blue" points="364.5,-657 291.5,-657 291.5,-621 364.5,-621 364.5,-657"/>
<text text-anchor="middle" x="328" y="-635.3" font-family="Times,serif" font-size="14.00">उपजीविका</text>
</a>
</g>
</g>
<!-- Node8&#45;&gt;Node11 -->
<g id="edge10" class="edge"><title>Node8&#45;&gt;Node11</title>
<path fill="none" stroke="black" d="M202.166,-659.806C225.729,-655.878 256.375,-650.771 281.405,-646.599"/>
<polygon fill="black" stroke="black" points="282.109,-650.03 291.398,-644.934 280.958,-643.125 282.109,-650.03"/>
<text text-anchor="middle" x="239" y="-658.8" font-family="Times,serif" font-size="14.00">क्वुन्</text>
</g>
<!-- Node12 -->
<g id="node12" class="node"><title>Node12</title>
<g id="a_node12"><a xlink:title="किसी दूसरे के सहारे रहने वाला, से जीविका करने वाला">
<polygon fill="none" stroke="blue" points="361.5,-603 294.5,-603 294.5,-567 361.5,-567 361.5,-603"/>
<text text-anchor="middle" x="328" y="-581.3" font-family="Times,serif" font-size="14.00">उपजीविन्</text>
</a>
</g>
</g>
<!-- Node8&#45;&gt;Node12 -->
<g id="edge11" class="edge"><title>Node8&#45;&gt;Node12</title>
<path fill="none" stroke="black" d="M189.414,-651.857C200.483,-645.584 213.798,-638.229 226,-632 245.216,-622.19 266.863,-612.005 285.174,-603.635"/>
<polygon fill="black" stroke="black" points="286.76,-606.759 294.415,-599.434 283.863,-600.386 286.76,-606.759"/>
<text text-anchor="middle" x="239" y="-635.8" font-family="Times,serif" font-size="14.00">णिनि</text>
</g>
<!-- Node13 -->
<g id="node13" class="node"><title>Node13</title>
<g id="a_node13"><a xlink:title="जीविका प्रदान करने वाला#संरक्षक">
<polygon fill="none" stroke="blue" points="358,-549 298,-549 298,-513 358,-513 358,-549"/>
<text text-anchor="middle" x="328" y="-527.3" font-family="Times,serif" font-size="14.00">उपजीव्य</text>
</a>
</g>
</g>
<!-- Node8&#45;&gt;Node13 -->
<g id="edge12" class="edge"><title>Node8&#45;&gt;Node13</title>
<path fill="none" stroke="black" d="M191.424,-652.772C197.398,-648.918 203.343,-644.296 208,-639 220.606,-624.664 214.9,-615.531 226,-600 241.72,-578.006 247.722,-573.315 270,-558 275.759,-554.041 282.19,-550.377 288.6,-547.108"/>
<polygon fill="black" stroke="black" points="290.416,-550.118 297.894,-542.613 287.368,-543.816 290.416,-550.118"/>
<text text-anchor="middle" x="239" y="-603.8" font-family="Times,serif" font-size="14.00">ण्यत्</text>
</g>
<!-- Node15 -->
<g id="node15" class="node"><title>Node15</title>
<g id="a_node15"><a xlink:title="जीवधारी प्राणी">
<polygon fill="none" stroke="blue" points="355,-495 301,-495 301,-459 355,-459 355,-495"/>
<text text-anchor="middle" x="328" y="-473.3" font-family="Times,serif" font-size="14.00">जीवक</text>
</a>
</g>
</g>
<!-- Node14&#45;&gt;Node15 -->
<g id="edge14" class="edge"><title>Node14&#45;&gt;Node15</title>
<path fill="none" stroke="black" d="M192.074,-597.964C197.756,-594.242 203.41,-589.88 208,-585 219.446,-572.83 216.284,-565.591 226,-552 242.83,-528.457 246.712,-521.181 270,-504 276.567,-499.155 284.142,-494.843 291.581,-491.163"/>
<polygon fill="black" stroke="black" points="293.257,-494.244 300.845,-486.849 290.302,-487.898 293.257,-494.244"/>
<text text-anchor="middle" x="239" y="-555.8" font-family="Times,serif" font-size="14.00">ण्वुल्</text>
</g>
<!-- Node23 -->
<g id="node23" class="node"><title>Node23</title>
<g id="a_node23"><a xlink:title="जीविका, जीवन निर्वाह का साधन">
<polygon fill="none" stroke="blue" points="355.5,-252 300.5,-252 300.5,-216 355.5,-216 355.5,-252"/>
<text text-anchor="middle" x="328" y="-230.3" font-family="Times,serif" font-size="14.00">प्रजीवन</text>
</a>
</g>
</g>
<!-- Node22&#45;&gt;Node23 -->
<g id="edge22" class="edge"><title>Node22&#45;&gt;Node23</title>
<path fill="none" stroke="black" d="M198.567,-234C225.357,-234 262.836,-234 290.394,-234"/>
<polygon fill="black" stroke="black" points="290.428,-237.5 300.428,-234 290.428,-230.5 290.428,-237.5"/>
<text text-anchor="middle" x="239" y="-237.8" font-family="Times,serif" font-size="14.00">ल्युट्</text>
</g>
<!-- Node25 -->
<g id="node25" class="node"><title>Node25</title>
<g id="a_node25"><a xlink:title="पुनर्जीवन, पुनः सजीवता">
<polygon fill="none" stroke="blue" points="361.5,-198 294.5,-198 294.5,-162 361.5,-162 361.5,-198"/>
<text text-anchor="middle" x="328" y="-176.3" font-family="Times,serif" font-size="14.00">प्रतिजीवन</text>
</a>
</g>
</g>
<!-- Node24&#45;&gt;Node25 -->
<g id="edge24" class="edge"><title>Node24&#45;&gt;Node25</title>
<path fill="none" stroke="black" d="M206.299,-180C230.143,-180 260.086,-180 284.182,-180"/>
<polygon fill="black" stroke="black" points="284.457,-183.5 294.457,-180 284.457,-176.5 284.457,-183.5"/>
<text text-anchor="middle" x="239" y="-183.8" font-family="Times,serif" font-size="14.00">ल्युट्</text>
</g>
<!-- Node27 -->
<g id="node27" class="node"><title>Node27</title>
<ellipse fill="none" stroke="red" cx="328" cy="-126" rx="57.6901" ry="18"/>
<text text-anchor="middle" x="328" y="-122.3" font-family="Times,serif" font-size="14.00">प्रति_उद्_जीव्</text>
</g>
<!-- Node26&#45;&gt;Node27 -->
<g id="edge26" class="edge"><title>Node26&#45;&gt;Node27</title>
<path fill="none" stroke="black" d="M204.63,-126C221.304,-126 241.175,-126 260.006,-126"/>
<polygon fill="black" stroke="black" points="260.033,-129.5 270.033,-126 260.033,-122.5 260.033,-129.5"/>
</g>
<!-- Node28 -->
<g id="node28" class="node"><title>Node28</title>
<g id="a_node28"><a xlink:title="पुनर्जीवन होना, जीवन का फिर संचार होना, फिर से जी उठना, आलं* भी">
<polygon fill="none" stroke="blue" points="523.5,-144 446.5,-144 446.5,-108 523.5,-108 523.5,-144"/>
<text text-anchor="middle" x="485" y="-122.3" font-family="Times,serif" font-size="14.00">प्रत्युज्जीवन</text>
</a>
</g>
</g>
<!-- Node27&#45;&gt;Node28 -->
<g id="edge27" class="edge"><title>Node27&#45;&gt;Node28</title>
<path fill="none" stroke="black" d="M386.276,-126C402.688,-126 420.401,-126 436.181,-126"/>
<polygon fill="black" stroke="black" points="436.238,-129.5 446.238,-126 436.238,-122.5 436.238,-129.5"/>
<text text-anchor="middle" x="416" y="-129.8" font-family="Times,serif" font-size="14.00">ल्युट्</text>
</g>
<!-- Node30 -->
<g id="node30" class="node"><title>Node30</title>
<g id="a_node30"><a xlink:title="साथ साथ रहना">
<polygon fill="none" stroke="blue" points="356,-90 300,-90 300,-54 356,-54 356,-90"/>
<text text-anchor="middle" x="328" y="-68.3" font-family="Times,serif" font-size="14.00">सञ्जीवन</text>
</a>
</g>
</g>
<!-- Node29&#45;&gt;Node30 -->
<g id="edge29" class="edge"><title>Node29&#45;&gt;Node30</title>
<path fill="none" stroke="black" d="M205.045,-72C230.788,-72 264.021,-72 289.292,-72"/>
<polygon fill="black" stroke="black" points="289.591,-75.5001 299.591,-72 289.59,-68.5001 289.591,-75.5001"/>
<text text-anchor="middle" x="239" y="-75.8" font-family="Times,serif" font-size="14.00">ल्युट्</text>
</g>
<!-- Node31 -->
<g id="node31" class="node"><title>Node31</title>
<g id="a_node31"><a xlink:title="एक प्रकार का अमृत, कहते हैं कि इसके सेवन से मृतक भी पुनर्जीवित हो जाता हैं">
<polygon fill="none" stroke="blue" points="357.5,-36 298.5,-36 298.5,-0 357.5,-0 357.5,-36"/>
<text text-anchor="middle" x="328" y="-14.3" font-family="Times,serif" font-size="14.00">सञ्जीवनी</text>
</a>
</g>
</g>
<!-- Node29&#45;&gt;Node31 -->
<g id="edge30" class="edge"><title>Node29&#45;&gt;Node31</title>
<path fill="none" stroke="black" d="M197.006,-61.3313C223.286,-52.5713 260.587,-40.1375 288.498,-30.8342"/>
<polygon fill="black" stroke="black" points="289.937,-34.0436 298.317,-27.5608 287.724,-27.4028 289.937,-34.0436"/>
<text text-anchor="middle" x="239" y="-55.8" font-family="Times,serif" font-size="14.00">ल्युट्</text>
</g>
</g>
</svg>
