<?xml version="1.0" encoding="UTF-8" standalone="no"?>
<!DOCTYPE svg PUBLIC "-//W3C//DTD SVG 1.1//EN"
 "http://www.w3.org/Graphics/SVG/1.1/DTD/svg11.dtd">
<!-- Generated by graphviz version 2.36.0 (20140111.2315)
 -->
<!-- Title: G Pages: 1 -->
<svg width="332pt" height="368pt"
 viewBox="0.00 0.00 332.00 368.00" xmlns="http://www.w3.org/2000/svg" xmlns:xlink="http://www.w3.org/1999/xlink">
<g id="graph0" class="graph" transform="scale(1 1) rotate(0) translate(4 364)">
<title>G</title>
<polygon fill="white" stroke="none" points="-4,4 -4,-364 328,-364 328,4 -4,4"/>
<!-- Node1 -->
<g id="node1" class="node"><title>Node1</title>
<ellipse fill="none" stroke="red" cx="28" cy="-180" rx="27.0966" ry="18"/>
<text text-anchor="middle" x="28" y="-176.3" font-family="Times,serif" font-size="14.00">ज्वल्</text>
</g>
<!-- Node2 -->
<g id="node2" class="node"><title>Node2</title>
<ellipse fill="none" stroke="red" cx="160" cy="-315" rx="42.4939" ry="18"/>
<text text-anchor="middle" x="160" y="-311.3" font-family="Times,serif" font-size="14.00">उद्_ज्वल्</text>
</g>
<!-- Node1&#45;&gt;Node2 -->
<g id="edge1" class="edge"><title>Node1&#45;&gt;Node2</title>
<path fill="none" stroke="black" d="M38.7421,-196.722C47.257,-210.753 60.3627,-231.007 74,-247 91.3432,-267.339 96.9865,-271.48 118,-288 120.764,-290.173 123.702,-292.346 126.685,-294.464"/>
<polygon fill="black" stroke="black" points="124.882,-297.472 135.11,-300.237 128.839,-291.697 124.882,-297.472"/>
</g>
<!-- Node5 -->
<g id="node5" class="node"><title>Node5</title>
<g id="a_node5"><a xlink:title="आग, तदनु ज्वलनं मदर्पितं त्वरयेर्दक्षिणवातबीजनैः#जलना, दहकना, चमकना#दहकता हुआ, चमकता हुआ">
<polygon fill="none" stroke="blue" points="187,-279 133,-279 133,-243 187,-243 187,-279"/>
<text text-anchor="middle" x="160" y="-257.3" font-family="Times,serif" font-size="14.00">ज्वलन</text>
</a>
</g>
</g>
<!-- Node1&#45;&gt;Node5 -->
<g id="edge4" class="edge"><title>Node1&#45;&gt;Node5</title>
<path fill="none" stroke="black" d="M46.6128,-193.666C54.7837,-199.809 64.7221,-207.008 74,-213 90.0664,-223.375 108.486,-233.931 124.061,-242.492"/>
<polygon fill="black" stroke="black" points="122.408,-245.577 132.864,-247.285 125.756,-239.429 122.408,-245.577"/>
<text text-anchor="middle" x="87" y="-231.8" font-family="Times,serif" font-size="14.00">ल्युट्</text>
</g>
<!-- Node6 -->
<g id="node6" class="node"><title>Node6</title>
<g id="a_node6"><a xlink:title="दग्ध, जला हुआ, प्रकाशित">
<polygon fill="none" stroke="blue" points="187,-225 133,-225 133,-189 187,-189 187,-225"/>
<text text-anchor="middle" x="160" y="-203.3" font-family="Times,serif" font-size="14.00">ज्वलित</text>
</a>
</g>
</g>
<!-- Node1&#45;&gt;Node6 -->
<g id="edge5" class="edge"><title>Node1&#45;&gt;Node6</title>
<path fill="none" stroke="black" d="M54.3739,-185.27C73.8934,-189.324 101.122,-194.979 122.909,-199.504"/>
<polygon fill="black" stroke="black" points="122.296,-202.951 132.799,-201.558 123.72,-196.098 122.296,-202.951"/>
<text text-anchor="middle" x="87" y="-197.8" font-family="Times,serif" font-size="14.00">क्त</text>
</g>
<!-- Node7 -->
<g id="node7" class="node"><title>Node7</title>
<g id="a_node7"><a xlink:title="प्रकाश, दीप्ति">
<polygon fill="none" stroke="blue" points="187,-171 133,-171 133,-135 187,-135 187,-171"/>
<text text-anchor="middle" x="160" y="-149.3" font-family="Times,serif" font-size="14.00">ज्वाल</text>
</a>
</g>
</g>
<!-- Node1&#45;&gt;Node7 -->
<g id="edge6" class="edge"><title>Node1&#45;&gt;Node7</title>
<path fill="none" stroke="black" d="M54.2077,-174.299C60.6544,-172.868 67.579,-171.355 74,-170 90.0315,-166.616 107.801,-163.035 122.931,-160.038"/>
<polygon fill="black" stroke="black" points="123.796,-163.435 132.93,-158.065 122.441,-156.567 123.796,-163.435"/>
<text text-anchor="middle" x="87" y="-173.8" font-family="Times,serif" font-size="14.00">ण</text>
</g>
<!-- Node8 -->
<g id="node8" class="node"><title>Node8</title>
<g id="a_node8"><a xlink:title="शिव का विशेषण">
<polygon fill="none" stroke="blue" points="189,-117 131,-117 131,-81 189,-81 189,-117"/>
<text text-anchor="middle" x="160" y="-95.3" font-family="Times,serif" font-size="14.00">ज्वालिन्</text>
</a>
</g>
</g>
<!-- Node1&#45;&gt;Node8 -->
<g id="edge7" class="edge"><title>Node1&#45;&gt;Node8</title>
<path fill="none" stroke="black" d="M45.607,-166.021C53.897,-159.321 64.2217,-151.386 74,-145 89.1242,-135.123 106.56,-125.418 121.689,-117.487"/>
<polygon fill="black" stroke="black" points="123.493,-120.494 130.769,-112.793 120.278,-114.276 123.493,-120.494"/>
<text text-anchor="middle" x="87" y="-148.8" font-family="Times,serif" font-size="14.00">णिनि</text>
</g>
<!-- Node9 -->
<g id="node9" class="node"><title>Node9</title>
<ellipse fill="none" stroke="red" cx="160" cy="-45" rx="37.0935" ry="18"/>
<text text-anchor="middle" x="160" y="-41.3" font-family="Times,serif" font-size="14.00">प्र_ज्वल्</text>
</g>
<!-- Node1&#45;&gt;Node9 -->
<g id="edge8" class="edge"><title>Node1&#45;&gt;Node9</title>
<path fill="none" stroke="black" d="M40.0414,-163.687C55.6784,-141.331 85.9581,-100.683 118,-72 120.834,-69.4633 123.925,-66.9905 127.099,-64.6365"/>
<polygon fill="black" stroke="black" points="129.376,-67.3157 135.57,-58.7203 125.367,-61.5768 129.376,-67.3157"/>
</g>
<!-- Node3 -->
<g id="node3" class="node"><title>Node3</title>
<g id="a_node3"><a xlink:title="उजला, चमकीला, कांतियुक्त, उज्ज्वलकपोलं मुखम्#प्रेम, राग#सोना">
<polygon fill="none" stroke="blue" points="320,-360 266,-360 266,-324 320,-324 320,-360"/>
<text text-anchor="middle" x="293" y="-338.3" font-family="Times,serif" font-size="14.00">उज्ज्वल</text>
</a>
</g>
</g>
<!-- Node2&#45;&gt;Node3 -->
<g id="edge2" class="edge"><title>Node2&#45;&gt;Node3</title>
<path fill="none" stroke="black" d="M198.539,-322.737C216.489,-326.437 237.887,-330.847 255.676,-334.513"/>
<polygon fill="black" stroke="black" points="255.179,-337.984 265.68,-336.575 256.592,-331.129 255.179,-337.984"/>
<text text-anchor="middle" x="232" y="-334.8" font-family="Times,serif" font-size="14.00">अच्</text>
</g>
<!-- Node4 -->
<g id="node4" class="node"><title>Node4</title>
<g id="a_node4"><a xlink:title="जलना, चमकना">
<polygon fill="none" stroke="blue" points="322,-306 264,-306 264,-270 322,-270 322,-306"/>
<text text-anchor="middle" x="293" y="-284.3" font-family="Times,serif" font-size="14.00">उज्ज्वलन</text>
</a>
</g>
</g>
<!-- Node2&#45;&gt;Node4 -->
<g id="edge3" class="edge"><title>Node2&#45;&gt;Node4</title>
<path fill="none" stroke="black" d="M198.539,-307.263C215.857,-303.694 236.384,-299.463 253.784,-295.877"/>
<polygon fill="black" stroke="black" points="254.531,-299.296 263.619,-293.85 253.118,-292.44 254.531,-299.296"/>
<text text-anchor="middle" x="232" y="-305.8" font-family="Times,serif" font-size="14.00">ल्युट्</text>
</g>
<!-- Node10 -->
<g id="node10" class="node"><title>Node10</title>
<g id="a_node10"><a xlink:title="देदीप्यमान होना, लपटें उठना, जलना, दहकना">
<polygon fill="none" stroke="blue" points="322.5,-90 263.5,-90 263.5,-54 322.5,-54 322.5,-90"/>
<text text-anchor="middle" x="293" y="-68.3" font-family="Times,serif" font-size="14.00">प्रज्वलन</text>
</a>
</g>
</g>
<!-- Node9&#45;&gt;Node10 -->
<g id="edge9" class="edge"><title>Node9&#45;&gt;Node10</title>
<path fill="none" stroke="black" d="M194.396,-51.8831C212.305,-55.5742 234.468,-60.1422 253.146,-63.9919"/>
<polygon fill="black" stroke="black" points="252.614,-67.4558 263.115,-66.0465 254.027,-60.5999 252.614,-67.4558"/>
<text text-anchor="middle" x="232" y="-64.8" font-family="Times,serif" font-size="14.00">ल्युट्</text>
</g>
<!-- Node11 -->
<g id="node11" class="node"><title>Node11</title>
<g id="a_node11"><a xlink:title="लपटों में होना, जलना, लपटें उठना, देदीप्यमान होना">
<polygon fill="none" stroke="blue" points="324,-36 262,-36 262,-0 324,-0 324,-36"/>
<text text-anchor="middle" x="293" y="-14.3" font-family="Times,serif" font-size="14.00">प्रज्वलित</text>
</a>
</g>
</g>
<!-- Node9&#45;&gt;Node11 -->
<g id="edge10" class="edge"><title>Node9&#45;&gt;Node11</title>
<path fill="none" stroke="black" d="M194.396,-38.1169C211.921,-34.5049 233.52,-30.0532 251.94,-26.2566"/>
<polygon fill="black" stroke="black" points="252.713,-29.6709 261.801,-24.2243 251.3,-22.815 252.713,-29.6709"/>
<text text-anchor="middle" x="232" y="-35.8" font-family="Times,serif" font-size="14.00">क्त</text>
</g>
</g>
</svg>
