<?xml version="1.0" encoding="UTF-8" standalone="no"?>
<!DOCTYPE svg PUBLIC "-//W3C//DTD SVG 1.1//EN"
 "http://www.w3.org/Graphics/SVG/1.1/DTD/svg11.dtd">
<!-- Generated by graphviz version 2.36.0 (20140111.2315)
 -->
<!-- Title: G Pages: 1 -->
<svg width="336pt" height="422pt"
 viewBox="0.00 0.00 336.00 422.00" xmlns="http://www.w3.org/2000/svg" xmlns:xlink="http://www.w3.org/1999/xlink">
<g id="graph0" class="graph" transform="scale(1 1) rotate(0) translate(4 418)">
<title>G</title>
<polygon fill="white" stroke="none" points="-4,4 -4,-418 332,-418 332,4 -4,4"/>
<!-- Node1 -->
<g id="node1" class="node"><title>Node1</title>
<ellipse fill="none" stroke="red" cx="27" cy="-207" rx="27" ry="18"/>
<text text-anchor="middle" x="27" y="-203.3" font-family="Times,serif" font-size="14.00">खल्</text>
</g>
<!-- Node2 -->
<g id="node2" class="node"><title>Node2</title>
<ellipse fill="none" stroke="red" cx="160" cy="-396" rx="39.7935" ry="18"/>
<text text-anchor="middle" x="160" y="-392.3" font-family="Times,serif" font-size="14.00">उद्_खल्</text>
</g>
<!-- Node1&#45;&gt;Node2 -->
<g id="edge1" class="edge"><title>Node1&#45;&gt;Node2</title>
<path fill="none" stroke="black" d="M32.7169,-224.627C39.3222,-247.517 52.7205,-288.183 72,-319 88.0153,-344.599 94.9964,-349.439 118,-369 120.828,-371.405 123.881,-373.774 127.001,-376.048"/>
<polygon fill="black" stroke="black" points="125.093,-378.984 135.304,-381.81 129.084,-373.234 125.093,-378.984"/>
</g>
<!-- Node4 -->
<g id="node4" class="node"><title>Node4</title>
<g id="a_node4"><a xlink:title="खलिहान#दुष्ट या शरारती आदमी, सर्पः क्रूरः खलः क्रूरः सर्पात् क्रूरतरः खलः, मन्त्रौषधिवशः सर्पः, खलः केन निवार्यते">
<polygon fill="none" stroke="blue" points="187,-360 133,-360 133,-324 187,-324 187,-360"/>
<text text-anchor="middle" x="160" y="-338.3" font-family="Times,serif" font-size="14.00">खल</text>
</a>
</g>
</g>
<!-- Node1&#45;&gt;Node4 -->
<g id="edge3" class="edge"><title>Node1&#45;&gt;Node4</title>
<path fill="none" stroke="black" d="M37.3698,-223.82C45.6006,-237.91 58.3629,-258.196 72,-274 89.8918,-294.734 96.284,-298.313 118,-315 120.011,-316.545 122.108,-318.095 124.244,-319.629"/>
<polygon fill="black" stroke="black" points="122.367,-322.587 132.577,-325.416 126.36,-316.837 122.367,-322.587"/>
<text text-anchor="middle" x="86" y="-303.8" font-family="Times,serif" font-size="14.00">अच्</text>
</g>
<!-- Node5 -->
<g id="node5" class="node"><title>Node5</title>
<g id="a_node5"><a xlink:title="तेल की तलछट, खली, स्थाल्यां वैदूर्यमय्यां पचति तिलखलीमिन्धनैश्चन्दनाद्यैः">
<polygon fill="none" stroke="blue" points="187,-306 133,-306 133,-270 187,-270 187,-306"/>
<text text-anchor="middle" x="160" y="-284.3" font-family="Times,serif" font-size="14.00">खलि</text>
</a>
</g>
</g>
<!-- Node1&#45;&gt;Node5 -->
<g id="edge4" class="edge"><title>Node1&#45;&gt;Node5</title>
<path fill="none" stroke="black" d="M45.1567,-220.742C53.1329,-226.9 62.8581,-234.091 72,-240 88.5915,-250.725 107.75,-261.46 123.857,-270.05"/>
<polygon fill="black" stroke="black" points="122.468,-273.274 132.946,-274.844 125.734,-267.083 122.468,-273.274"/>
<text text-anchor="middle" x="86" y="-258.8" font-family="Times,serif" font-size="14.00">इन्</text>
</g>
<!-- Node6 -->
<g id="node6" class="node"><title>Node6</title>
<g id="a_node6"><a xlink:title="खलिहानों का समूह">
<polygon fill="none" stroke="blue" points="187,-252 133,-252 133,-216 187,-216 187,-252"/>
<text text-anchor="middle" x="160" y="-230.3" font-family="Times,serif" font-size="14.00">खलिनी</text>
</a>
</g>
</g>
<!-- Node1&#45;&gt;Node6 -->
<g id="edge5" class="edge"><title>Node1&#45;&gt;Node6</title>
<path fill="none" stroke="black" d="M52.9484,-212.142C72.6869,-216.21 100.525,-221.948 122.728,-226.524"/>
<polygon fill="black" stroke="black" points="122.297,-230.009 132.798,-228.6 123.71,-223.153 122.297,-230.009"/>
<text text-anchor="middle" x="86" y="-224.8" font-family="Times,serif" font-size="14.00">इनि</text>
</g>
<!-- Node7 -->
<g id="node7" class="node"><title>Node7</title>
<g id="a_node7"><a xlink:title="तेल की तलछट, खली, स्थाल्यां वैदूर्यमय्यां पचति तिलखलीमिन्धनैश्चन्दनाद्यैः">
<polygon fill="none" stroke="blue" points="187,-198 133,-198 133,-162 187,-162 187,-198"/>
<text text-anchor="middle" x="160" y="-176.3" font-family="Times,serif" font-size="14.00">खली</text>
</a>
</g>
</g>
<!-- Node1&#45;&gt;Node7 -->
<g id="edge6" class="edge"><title>Node1&#45;&gt;Node7</title>
<path fill="none" stroke="black" d="M52.6385,-201.261C58.9421,-199.831 65.7151,-198.328 72,-197 88.6749,-193.477 107.204,-189.821 122.862,-186.806"/>
<polygon fill="black" stroke="black" points="123.525,-190.242 132.689,-184.925 122.209,-183.367 123.525,-190.242"/>
<text text-anchor="middle" x="86" y="-200.8" font-family="Times,serif" font-size="14.00">इन्</text>
</g>
<!-- Node8 -->
<g id="node8" class="node"><title>Node8</title>
<ellipse fill="none" stroke="red" cx="160" cy="-126" rx="41.6928" ry="18"/>
<text text-anchor="middle" x="160" y="-122.3" font-family="Times,serif" font-size="14.00">खल्+च्वि</text>
</g>
<!-- Node1&#45;&gt;Node8 -->
<g id="edge7" class="edge"><title>Node1&#45;&gt;Node8</title>
<path fill="none" stroke="black" d="M47.3295,-195.048C68.1205,-182.193 101.539,-161.529 126.408,-146.152"/>
<polygon fill="black" stroke="black" points="128.479,-148.987 135.144,-140.751 124.798,-143.033 128.479,-148.987"/>
</g>
<!-- Node10 -->
<g id="node10" class="node"><title>Node10</title>
<g id="a_node10"><a xlink:title="अनुरोध, अनुनय&#45;विनय प्रार्थनान खलु न खलु बाणः सन्निपात्योऽयमस्मिन्">
<polygon fill="none" stroke="blue" points="187,-90 133,-90 133,-54 187,-54 187,-90"/>
<text text-anchor="middle" x="160" y="-68.3" font-family="Times,serif" font-size="14.00">खलु</text>
</a>
</g>
</g>
<!-- Node1&#45;&gt;Node10 -->
<g id="edge9" class="edge"><title>Node1&#45;&gt;Node10</title>
<path fill="none" stroke="black" d="M38.5031,-190.651C47.0037,-177.818 59.5665,-159.723 72,-145 90.6548,-122.91 95.5888,-117.267 118,-99 120.023,-97.3509 122.149,-95.71 124.324,-94.0989"/>
<polygon fill="black" stroke="black" points="126.697,-96.7079 132.844,-88.0784 122.657,-90.9912 126.697,-96.7079"/>
<text text-anchor="middle" x="86" y="-148.8" font-family="Times,serif" font-size="14.00">उन्</text>
</g>
<!-- Node11 -->
<g id="node11" class="node"><title>Node11</title>
<g id="a_node11"><a xlink:title="खरल, जिसमें डालकर औषधियाँ पीसी जाय, चक्की">
<polygon fill="none" stroke="blue" points="187,-36 133,-36 133,-0 187,-0 187,-36"/>
<text text-anchor="middle" x="160" y="-14.3" font-family="Times,serif" font-size="14.00">खल्ल</text>
</a>
</g>
</g>
<!-- Node1&#45;&gt;Node11 -->
<g id="edge10" class="edge"><title>Node1&#45;&gt;Node11</title>
<path fill="none" stroke="black" d="M32.9108,-189.17C39.6395,-166.448 53.0829,-126.467 72,-96 88.1015,-70.0675 94.8438,-64.8883 118,-45 119.98,-43.2994 122.073,-41.6192 124.224,-39.979"/>
<polygon fill="black" stroke="black" points="126.613,-42.5721 132.688,-33.8918 122.526,-36.8892 126.613,-42.5721"/>
<text text-anchor="middle" x="86" y="-99.8" font-family="Times,serif" font-size="14.00">क्विप्</text>
</g>
<!-- Node3 -->
<g id="node3" class="node"><title>Node3</title>
<g id="a_node3"><a xlink:title="एक प्रकार का सुगन्ध">
<polygon fill="none" stroke="blue" points="325,-414 269,-414 269,-378 325,-378 325,-414"/>
<text text-anchor="middle" x="297" y="-392.3" font-family="Times,serif" font-size="14.00">उत्खला</text>
</a>
</g>
</g>
<!-- Node2&#45;&gt;Node3 -->
<g id="edge2" class="edge"><title>Node2&#45;&gt;Node3</title>
<path fill="none" stroke="black" d="M199.686,-396C218.269,-396 240.441,-396 258.824,-396"/>
<polygon fill="black" stroke="black" points="258.876,-399.5 268.876,-396 258.876,-392.5 258.876,-399.5"/>
<text text-anchor="middle" x="234" y="-399.8" font-family="Times,serif" font-size="14.00">अच्</text>
</g>
<!-- Node9 -->
<g id="node9" class="node"><title>Node9</title>
<g id="a_node9"><a xlink:title="चोट पहुँचाना, क्षति पहुँचाना">
<polygon fill="none" stroke="blue" points="327.5,-144 266.5,-144 266.5,-108 327.5,-108 327.5,-144"/>
<text text-anchor="middle" x="297" y="-122.3" font-family="Times,serif" font-size="14.00">खलीङ्कार</text>
</a>
</g>
</g>
<!-- Node8&#45;&gt;Node9 -->
<g id="edge8" class="edge"><title>Node8&#45;&gt;Node9</title>
<path fill="none" stroke="black" d="M201.871,-126C219.094,-126 239.073,-126 256.181,-126"/>
<polygon fill="black" stroke="black" points="256.413,-129.5 266.413,-126 256.413,-122.5 256.413,-129.5"/>
<text text-anchor="middle" x="234" y="-129.8" font-family="Times,serif" font-size="14.00">कृघन्</text>
</g>
</g>
</svg>
