<?xml version="1.0" encoding="UTF-8" standalone="no"?>
<!DOCTYPE svg PUBLIC "-//W3C//DTD SVG 1.1//EN"
 "http://www.w3.org/Graphics/SVG/1.1/DTD/svg11.dtd">
<!-- Generated by graphviz version 2.36.0 (20140111.2315)
 -->
<!-- Title: G Pages: 1 -->
<svg width="330pt" height="962pt"
 viewBox="0.00 0.00 330.00 962.00" xmlns="http://www.w3.org/2000/svg" xmlns:xlink="http://www.w3.org/1999/xlink">
<g id="graph0" class="graph" transform="scale(1 1) rotate(0) translate(4 958)">
<title>G</title>
<polygon fill="white" stroke="none" points="-4,4 -4,-958 326,-958 326,4 -4,4"/>
<!-- Node1 -->
<g id="node1" class="node"><title>Node1</title>
<ellipse fill="none" stroke="red" cx="27" cy="-369" rx="27" ry="18"/>
<text text-anchor="middle" x="27" y="-365.3" font-family="Times,serif" font-size="14.00">खन्</text>
</g>
<!-- Node2 -->
<g id="node2" class="node"><title>Node2</title>
<ellipse fill="none" stroke="red" cx="155" cy="-774" rx="37.0935" ry="18"/>
<text text-anchor="middle" x="155" y="-770.3" font-family="Times,serif" font-size="14.00">आ_खन्</text>
</g>
<!-- Node1&#45;&gt;Node2 -->
<g id="edge1" class="edge"><title>Node1&#45;&gt;Node2</title>
<path fill="none" stroke="black" d="M29.2675,-386.98C32.6101,-428.623 43.4555,-534.508 72,-618 88.5051,-666.277 118.299,-717.849 137.068,-747.941"/>
<polygon fill="black" stroke="black" points="134.213,-749.976 142.511,-756.563 140.132,-746.239 134.213,-749.976"/>
</g>
<!-- Node9 -->
<g id="node9" class="node"><title>Node9</title>
<ellipse fill="none" stroke="red" cx="155" cy="-666" rx="38.1938" ry="18"/>
<text text-anchor="middle" x="155" y="-662.3" font-family="Times,serif" font-size="14.00">उद्_खन्</text>
</g>
<!-- Node1&#45;&gt;Node9 -->
<g id="edge8" class="edge"><title>Node1&#45;&gt;Node9</title>
<path fill="none" stroke="black" d="M28.6391,-387.196C30.6304,-425.878 38.7828,-518.359 72,-587 83.4997,-610.763 105.317,-631.232 123.557,-645.377"/>
<polygon fill="black" stroke="black" points="121.532,-648.233 131.636,-651.42 125.725,-642.628 121.532,-648.233"/>
</g>
<!-- Node11 -->
<g id="node11" class="node"><title>Node11</title>
<g id="a_node11"><a xlink:title="खनिक">
<polygon fill="none" stroke="blue" points="182,-630 128,-630 128,-594 182,-594 182,-630"/>
<text text-anchor="middle" x="155" y="-608.3" font-family="Times,serif" font-size="14.00">खनक</text>
</a>
</g>
</g>
<!-- Node1&#45;&gt;Node11 -->
<g id="edge10" class="edge"><title>Node1&#45;&gt;Node11</title>
<path fill="none" stroke="black" d="M30.2244,-387.173C34.6176,-418.468 46.3003,-483.898 72,-533 86.0388,-559.823 93.7076,-564.516 116,-585 117.27,-586.167 118.592,-587.327 119.948,-588.473"/>
<polygon fill="black" stroke="black" points="117.962,-591.364 127.972,-594.833 122.31,-585.878 117.962,-591.364"/>
<text text-anchor="middle" x="85" y="-571.8" font-family="Times,serif" font-size="14.00">ण्वुल्</text>
</g>
<!-- Node12 -->
<g id="node12" class="node"><title>Node12</title>
<g id="a_node12"><a xlink:title="खोदना, खोखला करना, पोला करना, गाड़ना">
<polygon fill="none" stroke="blue" points="182,-576 128,-576 128,-540 182,-540 182,-576"/>
<text text-anchor="middle" x="155" y="-554.3" font-family="Times,serif" font-size="14.00">खनन</text>
</a>
</g>
</g>
<!-- Node1&#45;&gt;Node12 -->
<g id="edge11" class="edge"><title>Node1&#45;&gt;Node12</title>
<path fill="none" stroke="black" d="M33.0171,-386.765C39.8581,-409.418 53.42,-449.326 72,-480 87.51,-505.605 93.8596,-510.851 116,-531 117.122,-532.021 118.284,-533.038 119.473,-534.045"/>
<polygon fill="black" stroke="black" points="117.592,-537.021 127.599,-540.502 121.947,-531.54 117.592,-537.021"/>
<text text-anchor="middle" x="85" y="-517.8" font-family="Times,serif" font-size="14.00">ल्युट्</text>
</g>
<!-- Node13 -->
<g id="node13" class="node"><title>Node13</title>
<g id="a_node13"><a xlink:title="कुदाल, खुर्पा, गैती">
<polygon fill="none" stroke="blue" points="182,-522 128,-522 128,-486 182,-486 182,-522"/>
<text text-anchor="middle" x="155" y="-500.3" font-family="Times,serif" font-size="14.00">खनित्र</text>
</a>
</g>
</g>
<!-- Node1&#45;&gt;Node13 -->
<g id="edge12" class="edge"><title>Node1&#45;&gt;Node13</title>
<path fill="none" stroke="black" d="M37.4602,-385.743C45.746,-399.786 58.5386,-420.047 72,-436 89.2376,-456.429 95.2822,-460.111 116,-477 117.176,-477.959 118.384,-478.922 119.612,-479.884"/>
<polygon fill="black" stroke="black" points="117.814,-482.912 127.902,-486.15 122.035,-477.328 117.814,-482.912"/>
<text text-anchor="middle" x="85" y="-464.8" font-family="Times,serif" font-size="14.00">इत्र</text>
</g>
<!-- Node14 -->
<g id="node14" class="node"><title>Node14</title>
<g id="a_node14"><a xlink:title="खान">
<polygon fill="none" stroke="blue" points="182,-468 128,-468 128,-432 182,-432 182,-468"/>
<text text-anchor="middle" x="155" y="-446.3" font-family="Times,serif" font-size="14.00">खनी</text>
</a>
</g>
</g>
<!-- Node1&#45;&gt;Node14 -->
<g id="edge13" class="edge"><title>Node1&#45;&gt;Node14</title>
<path fill="none" stroke="black" d="M45.2267,-382.635C53.2171,-388.772 62.934,-395.975 72,-402 87.0181,-411.98 104.162,-422.189 118.878,-430.612"/>
<polygon fill="black" stroke="black" points="117.261,-433.719 127.686,-435.607 120.714,-427.63 117.261,-433.719"/>
<text text-anchor="middle" x="85" y="-420.8" font-family="Times,serif" font-size="14.00">इ</text>
</g>
<!-- Node15 -->
<g id="node15" class="node"><title>Node15</title>
<g id="a_node15"><a xlink:title="खुदाई#खुदा हुआ, खोखला किया हुआ">
<polygon fill="none" stroke="blue" points="182,-414 128,-414 128,-378 182,-378 182,-414"/>
<text text-anchor="middle" x="155" y="-392.3" font-family="Times,serif" font-size="14.00">खात</text>
</a>
</g>
</g>
<!-- Node1&#45;&gt;Node15 -->
<g id="edge14" class="edge"><title>Node1&#45;&gt;Node15</title>
<path fill="none" stroke="black" d="M52.8935,-374.334C71.5069,-378.323 97.2289,-383.835 118.07,-388.301"/>
<polygon fill="black" stroke="black" points="117.345,-391.725 127.857,-390.398 118.812,-384.88 117.345,-391.725"/>
<text text-anchor="middle" x="85" y="-386.8" font-family="Times,serif" font-size="14.00">क्त</text>
</g>
<!-- Node16 -->
<g id="node16" class="node"><title>Node16</title>
<g id="a_node16"><a xlink:title="खुदाई, खोखला करना">
<polygon fill="none" stroke="blue" points="182,-360 128,-360 128,-324 182,-324 182,-360"/>
<text text-anchor="middle" x="155" y="-338.3" font-family="Times,serif" font-size="14.00">खाति</text>
</a>
</g>
</g>
<!-- Node1&#45;&gt;Node16 -->
<g id="edge15" class="edge"><title>Node1&#45;&gt;Node16</title>
<path fill="none" stroke="black" d="M52.6491,-363.311C58.9526,-361.88 65.7228,-360.364 72,-359 86.9765,-355.746 103.523,-352.289 117.807,-349.349"/>
<polygon fill="black" stroke="black" points="118.66,-352.747 127.753,-347.309 117.254,-345.889 118.66,-352.747"/>
<text text-anchor="middle" x="85" y="-362.8" font-family="Times,serif" font-size="14.00">क्तिन्</text>
</g>
<!-- Node17 -->
<g id="node17" class="node"><title>Node17</title>
<g id="a_node17"><a xlink:title="कुदाली, आयताकार तालाब">
<polygon fill="none" stroke="blue" points="182,-306 128,-306 128,-270 182,-270 182,-306"/>
<text text-anchor="middle" x="155" y="-284.3" font-family="Times,serif" font-size="14.00">खात्र</text>
</a>
</g>
</g>
<!-- Node1&#45;&gt;Node17 -->
<g id="edge16" class="edge"><title>Node1&#45;&gt;Node17</title>
<path fill="none" stroke="black" d="M44.2384,-355.053C52.3443,-348.361 62.4396,-340.423 72,-334 86.923,-323.974 104.184,-314.06 119.008,-306.018"/>
<polygon fill="black" stroke="black" points="120.717,-309.073 127.881,-301.268 117.413,-302.902 120.717,-309.073"/>
<text text-anchor="middle" x="85" y="-337.8" font-family="Times,serif" font-size="14.00">ष्ट्रन्</text>
</g>
<!-- Node18 -->
<g id="node18" class="node"><title>Node18</title>
<g id="a_node18"><a xlink:title="खोदने वाला, खनिक, &#160;स्त्री &#45; खानिका">
<polygon fill="none" stroke="blue" points="182,-252 128,-252 128,-216 182,-216 182,-252"/>
<text text-anchor="middle" x="155" y="-230.3" font-family="Times,serif" font-size="14.00">खानक</text>
</a>
</g>
</g>
<!-- Node1&#45;&gt;Node18 -->
<g id="edge17" class="edge"><title>Node1&#45;&gt;Node18</title>
<path fill="none" stroke="black" d="M36.8451,-351.922C44.9356,-337.124 57.7813,-315.549 72,-299 88.8388,-279.401 95.6678,-276.945 116,-261 117.154,-260.095 118.336,-259.182 119.534,-258.268"/>
<polygon fill="black" stroke="black" points="121.661,-261.048 127.596,-252.272 117.484,-255.432 121.661,-261.048"/>
<text text-anchor="middle" x="85" y="-302.8" font-family="Times,serif" font-size="14.00">ण्वुल्</text>
</g>
<!-- Node19 -->
<g id="node19" class="node"><title>Node19</title>
<g id="a_node19"><a xlink:title="खाई, परिखा">
<polygon fill="none" stroke="blue" points="182,-198 128,-198 128,-162 182,-162 182,-198"/>
<text text-anchor="middle" x="155" y="-176.3" font-family="Times,serif" font-size="14.00">खेय</text>
</a>
</g>
</g>
<!-- Node1&#45;&gt;Node19 -->
<g id="edge18" class="edge"><title>Node1&#45;&gt;Node19</title>
<path fill="none" stroke="black" d="M32.7433,-351.249C39.377,-328.191 52.8061,-287.201 72,-256 87.3362,-231.07 94.1587,-226.485 116,-207 117.132,-205.99 118.303,-204.983 119.499,-203.984"/>
<polygon fill="black" stroke="black" points="121.964,-206.498 127.656,-197.561 117.634,-200.998 121.964,-206.498"/>
<text text-anchor="middle" x="85" y="-259.8" font-family="Times,serif" font-size="14.00">क्यप्</text>
</g>
<!-- Node20 -->
<g id="node20" class="node"><title>Node20</title>
<ellipse fill="none" stroke="red" cx="155" cy="-126" rx="35.9954" ry="18"/>
<text text-anchor="middle" x="155" y="-122.3" font-family="Times,serif" font-size="14.00">नि_खन्</text>
</g>
<!-- Node1&#45;&gt;Node20 -->
<g id="edge19" class="edge"><title>Node1&#45;&gt;Node20</title>
<path fill="none" stroke="black" d="M31.4721,-350.817C37.3902,-321.943 50.8812,-264.25 72,-219 86.9098,-187.054 91.4451,-178.297 116,-153 118.311,-150.619 120.857,-148.308 123.502,-146.106"/>
<polygon fill="black" stroke="black" points="125.819,-148.74 131.605,-139.865 121.547,-143.194 125.819,-148.74"/>
</g>
<!-- Node23 -->
<g id="node23" class="node"><title>Node23</title>
<ellipse fill="none" stroke="red" cx="155" cy="-72" rx="38.9931" ry="18"/>
<text text-anchor="middle" x="155" y="-68.3" font-family="Times,serif" font-size="14.00">परि_खन्</text>
</g>
<!-- Node1&#45;&gt;Node23 -->
<g id="edge22" class="edge"><title>Node1&#45;&gt;Node23</title>
<path fill="none" stroke="black" d="M29.8589,-350.997C34.0049,-315.193 45.7832,-232.987 72,-169 85.9318,-134.997 90.7617,-125.709 116,-99 118.032,-96.8493 120.259,-94.7622 122.584,-92.7644"/>
<polygon fill="black" stroke="black" points="125.032,-95.291 130.722,-86.3533 120.7,-89.7924 125.032,-95.291"/>
</g>
<!-- Node25 -->
<g id="node25" class="node"><title>Node25</title>
<g id="a_node25"><a xlink:title="थूथन, थूथनी या मोहरी किसी जानवर की">
<polygon fill="none" stroke="blue" points="182,-36 128,-36 128,-0 182,-0 182,-36"/>
<text text-anchor="middle" x="155" y="-14.3" font-family="Times,serif" font-size="14.00">मुख</text>
</a>
</g>
</g>
<!-- Node1&#45;&gt;Node25 -->
<g id="edge24" class="edge"><title>Node1&#45;&gt;Node25</title>
<path fill="none" stroke="black" d="M27.8555,-350.802C28.147,-306.072 32.87,-187.992 72,-100 84.7199,-71.3966 93.243,-66.4958 116,-45 117.254,-43.8156 118.562,-42.6413 119.908,-41.4836"/>
<polygon fill="black" stroke="black" points="122.28,-44.0672 127.891,-35.08 117.901,-38.6066 122.28,-44.0672"/>
<text text-anchor="middle" x="85" y="-103.8" font-family="Times,serif" font-size="14.00">अच्</text>
</g>
<!-- Node3 -->
<g id="node3" class="node"><title>Node3</title>
<g id="a_node3"><a xlink:title="फावड़ा, खुर्पा">
<polygon fill="none" stroke="blue" points="316,-954 262,-954 262,-918 316,-918 316,-954"/>
<text text-anchor="middle" x="289" y="-932.3" font-family="Times,serif" font-size="14.00">आख</text>
</a>
</g>
</g>
<!-- Node2&#45;&gt;Node3 -->
<g id="edge2" class="edge"><title>Node2&#45;&gt;Node3</title>
<path fill="none" stroke="black" d="M165.28,-791.317C175.626,-809.999 193.368,-840.258 212,-864 229.269,-886.005 235.509,-889.959 256,-909 256.799,-909.742 257.614,-910.49 258.44,-911.241"/>
<polygon fill="black" stroke="black" points="256.255,-913.98 266.068,-917.975 260.888,-908.733 256.255,-913.98"/>
<text text-anchor="middle" x="225" y="-895.8" font-family="Times,serif" font-size="14.00">ड</text>
</g>
<!-- Node4 -->
<g id="node4" class="node"><title>Node4</title>
<g id="a_node4"><a xlink:title="फावड़ा, खुर्पा">
<polygon fill="none" stroke="blue" points="316,-900 262,-900 262,-864 316,-864 316,-900"/>
<text text-anchor="middle" x="289" y="-878.3" font-family="Times,serif" font-size="14.00">आखन</text>
</a>
</g>
</g>
<!-- Node2&#45;&gt;Node4 -->
<g id="edge3" class="edge"><title>Node2&#45;&gt;Node4</title>
<path fill="none" stroke="black" d="M172.218,-789.979C183.167,-800.534 198.104,-814.491 212,-826 225.15,-836.891 240.184,-848.192 253.39,-857.765"/>
<polygon fill="black" stroke="black" points="251.603,-860.792 261.766,-863.786 255.689,-855.107 251.603,-860.792"/>
<text text-anchor="middle" x="225" y="-848.8" font-family="Times,serif" font-size="14.00">ड</text>
</g>
<!-- Node5 -->
<g id="node5" class="node"><title>Node5</title>
<g id="a_node5"><a xlink:title="खोदने वाला, खनिक">
<polygon fill="none" stroke="blue" points="321.5,-846 256.5,-846 256.5,-810 321.5,-810 321.5,-846"/>
<text text-anchor="middle" x="289" y="-824.3" font-family="Times,serif" font-size="14.00">आखनिक</text>
</a>
</g>
</g>
<!-- Node2&#45;&gt;Node5 -->
<g id="edge4" class="edge"><title>Node2&#45;&gt;Node5</title>
<path fill="none" stroke="black" d="M183.994,-785.452C202.287,-792.935 226.489,-802.836 246.943,-811.204"/>
<polygon fill="black" stroke="black" points="245.76,-814.502 256.341,-815.048 248.411,-808.023 245.76,-814.502"/>
<text text-anchor="middle" x="225" y="-810.8" font-family="Times,serif" font-size="14.00">इकन्</text>
</g>
<!-- Node6 -->
<g id="node6" class="node"><title>Node6</title>
<g id="a_node6"><a xlink:title="फावड़ा">
<polygon fill="none" stroke="blue" points="316,-792 262,-792 262,-756 316,-756 316,-792"/>
<text text-anchor="middle" x="289" y="-770.3" font-family="Times,serif" font-size="14.00">आखर</text>
</a>
</g>
</g>
<!-- Node2&#45;&gt;Node6 -->
<g id="edge5" class="edge"><title>Node2&#45;&gt;Node6</title>
<path fill="none" stroke="black" d="M192.07,-774C210.533,-774 232.961,-774 251.487,-774"/>
<polygon fill="black" stroke="black" points="251.605,-777.5 261.605,-774 251.605,-770.5 251.605,-777.5"/>
<text text-anchor="middle" x="225" y="-777.8" font-family="Times,serif" font-size="14.00">डर</text>
</g>
<!-- Node7 -->
<g id="node7" class="node"><title>Node7</title>
<g id="a_node7"><a xlink:title="प्राकृतिक तालाब, या जलाशय, खाड़ी">
<polygon fill="none" stroke="blue" points="316,-738 262,-738 262,-702 316,-702 316,-738"/>
<text text-anchor="middle" x="289" y="-716.3" font-family="Times,serif" font-size="14.00">आखात</text>
</a>
</g>
</g>
<!-- Node2&#45;&gt;Node7 -->
<g id="edge6" class="edge"><title>Node2&#45;&gt;Node7</title>
<path fill="none" stroke="black" d="M183.994,-762.548C203.945,-754.386 230.924,-743.349 252.405,-734.562"/>
<polygon fill="black" stroke="black" points="253.912,-737.727 261.842,-730.701 251.261,-731.248 253.912,-737.727"/>
<text text-anchor="middle" x="225" y="-753.8" font-family="Times,serif" font-size="14.00">क्त</text>
</g>
<!-- Node8 -->
<g id="node8" class="node"><title>Node8</title>
<g id="a_node8"><a xlink:title="चारों ओर से खोदना">
<polygon fill="none" stroke="blue" points="316,-684 262,-684 262,-648 316,-648 316,-684"/>
<text text-anchor="middle" x="289" y="-662.3" font-family="Times,serif" font-size="14.00">आखान</text>
</a>
</g>
</g>
<!-- Node2&#45;&gt;Node8 -->
<g id="edge7" class="edge"><title>Node2&#45;&gt;Node8</title>
<path fill="none" stroke="black" d="M172.14,-757.64C183.056,-746.85 197.985,-732.619 212,-721 225.063,-710.171 240.08,-699.047 253.298,-689.662"/>
<polygon fill="black" stroke="black" points="255.517,-692.38 261.685,-683.766 251.492,-686.654 255.517,-692.38"/>
<text text-anchor="middle" x="225" y="-724.8" font-family="Times,serif" font-size="14.00">घञ्</text>
</g>
<!-- Node10 -->
<g id="node10" class="node"><title>Node10</title>
<g id="a_node10"><a xlink:title="एक गर्त, रन्ध्र, ऊबड़&#45;खाबड़ भूमि#खोदा हुआ, खोदकर निकला हुआ">
<polygon fill="none" stroke="blue" points="316,-630 262,-630 262,-594 316,-594 316,-630"/>
<text text-anchor="middle" x="289" y="-608.3" font-family="Times,serif" font-size="14.00">उत्खात</text>
</a>
</g>
</g>
<!-- Node9&#45;&gt;Node10 -->
<g id="edge9" class="edge"><title>Node9&#45;&gt;Node10</title>
<path fill="none" stroke="black" d="M176.854,-651.078C189.584,-642.198 204.761,-632.077 212,-629 224.567,-623.657 239.048,-619.884 251.976,-617.274"/>
<polygon fill="black" stroke="black" points="252.753,-620.69 261.945,-615.422 251.474,-613.807 252.753,-620.69"/>
<text text-anchor="middle" x="225" y="-632.8" font-family="Times,serif" font-size="14.00">क्त</text>
</g>
<!-- Node21 -->
<g id="node21" class="node"><title>Node21</title>
<g id="a_node21"><a xlink:title="खोदना, गाड़ना, जैसा कि स्थूणानिखननन्याय">
<polygon fill="none" stroke="blue" points="317,-198 261,-198 261,-162 317,-162 317,-198"/>
<text text-anchor="middle" x="289" y="-176.3" font-family="Times,serif" font-size="14.00">निखनन</text>
</a>
</g>
</g>
<!-- Node20&#45;&gt;Node21 -->
<g id="edge20" class="edge"><title>Node20&#45;&gt;Node21</title>
<path fill="none" stroke="black" d="M183.35,-137.189C202.996,-145.226 229.696,-156.148 251.209,-164.949"/>
<polygon fill="black" stroke="black" points="250.104,-168.279 260.685,-168.825 252.754,-161.8 250.104,-168.279"/>
<text text-anchor="middle" x="225" y="-162.8" font-family="Times,serif" font-size="14.00">ल्युट्</text>
</g>
<!-- Node22 -->
<g id="node22" class="node"><title>Node22</title>
<g id="a_node22"><a xlink:title="खोदा हुआ, खोदकर निकाला हुआ">
<polygon fill="none" stroke="blue" points="316,-144 262,-144 262,-108 316,-108 316,-144"/>
<text text-anchor="middle" x="289" y="-122.3" font-family="Times,serif" font-size="14.00">निखात</text>
</a>
</g>
</g>
<!-- Node20&#45;&gt;Node22 -->
<g id="edge21" class="edge"><title>Node20&#45;&gt;Node22</title>
<path fill="none" stroke="black" d="M191.027,-126C209.716,-126 232.69,-126 251.584,-126"/>
<polygon fill="black" stroke="black" points="251.609,-129.5 261.609,-126 251.609,-122.5 251.609,-129.5"/>
<text text-anchor="middle" x="225" y="-129.8" font-family="Times,serif" font-size="14.00">क्त</text>
</g>
<!-- Node24 -->
<g id="node24" class="node"><title>Node24</title>
<g id="a_node24"><a xlink:title="प्रतिकूप, खाई">
<polygon fill="none" stroke="blue" points="317.5,-90 260.5,-90 260.5,-54 317.5,-54 317.5,-90"/>
<text text-anchor="middle" x="289" y="-68.3" font-family="Times,serif" font-size="14.00">परिखात</text>
</a>
</g>
</g>
<!-- Node23&#45;&gt;Node24 -->
<g id="edge23" class="edge"><title>Node23&#45;&gt;Node24</title>
<path fill="none" stroke="black" d="M194.18,-72C211.709,-72 232.443,-72 249.956,-72"/>
<polygon fill="black" stroke="black" points="250.386,-75.5001 260.386,-72 250.386,-68.5001 250.386,-75.5001"/>
<text text-anchor="middle" x="225" y="-75.8" font-family="Times,serif" font-size="14.00">क्त</text>
</g>
</g>
</svg>
