<?xml version="1.0" encoding="UTF-8" standalone="no"?>
<!DOCTYPE svg PUBLIC "-//W3C//DTD SVG 1.1//EN"
 "http://www.w3.org/Graphics/SVG/1.1/DTD/svg11.dtd">
<!-- Generated by graphviz version 2.36.0 (20140111.2315)
 -->
<!-- Title: G Pages: 1 -->
<svg width="184pt" height="530pt"
 viewBox="0.00 0.00 184.00 530.00" xmlns="http://www.w3.org/2000/svg" xmlns:xlink="http://www.w3.org/1999/xlink">
<g id="graph0" class="graph" transform="scale(1 1) rotate(0) translate(4 526)">
<title>G</title>
<polygon fill="white" stroke="none" points="-4,4 -4,-526 180,-526 180,4 -4,4"/>
<!-- Node1 -->
<g id="node1" class="node"><title>Node1</title>
<ellipse fill="none" stroke="red" cx="27" cy="-261" rx="27" ry="18"/>
<text text-anchor="middle" x="27" y="-257.3" font-family="Times,serif" font-size="14.00">क्षम्</text>
</g>
<!-- Node2 -->
<g id="node2" class="node"><title>Node2</title>
<g id="a_node2"><a xlink:title="प्रशान्त, सहिष्णु, विनम्र, स्त्री &#45; क्षंत्री">
<polygon fill="none" stroke="blue" points="176,-522 122,-522 122,-486 176,-486 176,-522"/>
<text text-anchor="middle" x="149" y="-500.3" font-family="Times,serif" font-size="14.00">क्षन्तृ</text>
</a>
</g>
</g>
<!-- Node1&#45;&gt;Node2 -->
<g id="edge1" class="edge"><title>Node1&#45;&gt;Node2</title>
<path fill="none" stroke="black" d="M29.145,-279.088C31.9518,-312.23 41.368,-383.974 72,-435 82.5255,-452.533 98.8851,-468.212 113.734,-480.175"/>
<polygon fill="black" stroke="black" points="111.737,-483.056 121.781,-486.428 116.032,-477.528 111.737,-483.056"/>
<text text-anchor="middle" x="88" y="-473.8" font-family="Times,serif" font-size="14.00">तृच्</text>
</g>
<!-- Node3 -->
<g id="node3" class="node"><title>Node3</title>
<g id="a_node3"><a xlink:title="धैर्यवान">
<polygon fill="none" stroke="blue" points="176,-468 122,-468 122,-432 176,-432 176,-468"/>
<text text-anchor="middle" x="149" y="-446.3" font-family="Times,serif" font-size="14.00">क्षम</text>
</a>
</g>
</g>
<!-- Node1&#45;&gt;Node3 -->
<g id="edge2" class="edge"><title>Node1&#45;&gt;Node3</title>
<path fill="none" stroke="black" d="M31.6503,-279.095C37.2826,-303.932 49.8293,-349.231 72,-382 83.2173,-398.579 99.3505,-413.778 113.869,-425.581"/>
<polygon fill="black" stroke="black" points="111.708,-428.334 121.728,-431.777 116.042,-422.837 111.708,-428.334"/>
<text text-anchor="middle" x="88" y="-419.8" font-family="Times,serif" font-size="14.00">अच्</text>
</g>
<!-- Node4 -->
<g id="node4" class="node"><title>Node4</title>
<g id="a_node4"><a xlink:title="धैर्य, सहिष्णुता, माफी, क्षमा शत्रौ च मित्रे च यतीनामेव भूषणम्">
<polygon fill="none" stroke="blue" points="176,-414 122,-414 122,-378 176,-378 176,-414"/>
<text text-anchor="middle" x="149" y="-392.3" font-family="Times,serif" font-size="14.00">क्षमा</text>
</a>
</g>
</g>
<!-- Node1&#45;&gt;Node4 -->
<g id="edge3" class="edge"><title>Node1&#45;&gt;Node4</title>
<path fill="none" stroke="black" d="M36.1246,-278.031C44.0116,-293.567 56.9717,-316.673 72,-334 84.1036,-347.955 99.597,-361.217 113.434,-371.866"/>
<polygon fill="black" stroke="black" points="111.692,-374.936 121.79,-378.143 115.896,-369.339 111.692,-374.936"/>
<text text-anchor="middle" x="88" y="-366.8" font-family="Times,serif" font-size="14.00">अङ्</text>
</g>
<!-- Node5 -->
<g id="node5" class="node"><title>Node5</title>
<polygon fill="none" stroke="blue" points="176,-360 122,-360 122,-324 176,-324 176,-360"/>
<text text-anchor="middle" x="149" y="-338.3" font-family="Times,serif" font-size="14.00">क्षमितृ</text>
</g>
<!-- Node1&#45;&gt;Node5 -->
<g id="edge4" class="edge"><title>Node1&#45;&gt;Node5</title>
<path fill="none" stroke="black" d="M44.3321,-274.81C52.4601,-281.469 62.547,-289.42 72,-296 85.0615,-305.092 99.9412,-314.329 113.051,-322.115"/>
<polygon fill="black" stroke="black" points="111.405,-325.208 121.801,-327.255 114.951,-319.172 111.405,-325.208"/>
<text text-anchor="middle" x="88" y="-318.8" font-family="Times,serif" font-size="14.00">तृच्</text>
</g>
<!-- Node6 -->
<g id="node6" class="node"><title>Node6</title>
<polygon fill="none" stroke="blue" points="176,-306 122,-306 122,-270 176,-270 176,-306"/>
<text text-anchor="middle" x="149" y="-284.3" font-family="Times,serif" font-size="14.00">क्षमिन्</text>
</g>
<!-- Node1&#45;&gt;Node6 -->
<g id="edge5" class="edge"><title>Node1&#45;&gt;Node6</title>
<path fill="none" stroke="black" d="M52.8641,-266.594C69.9724,-270.444 92.9653,-275.617 112.061,-279.914"/>
<polygon fill="black" stroke="black" points="111.398,-283.352 121.922,-282.133 112.935,-276.523 111.398,-283.352"/>
<text text-anchor="middle" x="88" y="-280.8" font-family="Times,serif" font-size="14.00">घिनुण्</text>
</g>
<!-- Node7 -->
<g id="node7" class="node"><title>Node7</title>
<g id="a_node7"><a xlink:title="धैर्यवान्, सहन शील, सहिष्णु">
<polygon fill="none" stroke="blue" points="176,-252 122,-252 122,-216 176,-216 176,-252"/>
<text text-anchor="middle" x="149" y="-230.3" font-family="Times,serif" font-size="14.00">क्षान्त</text>
</a>
</g>
</g>
<!-- Node1&#45;&gt;Node7 -->
<g id="edge6" class="edge"><title>Node1&#45;&gt;Node7</title>
<path fill="none" stroke="black" d="M52.8641,-255.406C69.9724,-251.556 92.9653,-246.383 112.061,-242.086"/>
<polygon fill="black" stroke="black" points="112.935,-245.477 121.922,-239.867 111.398,-238.648 112.935,-245.477"/>
<text text-anchor="middle" x="88" y="-253.8" font-family="Times,serif" font-size="14.00">क्त</text>
</g>
<!-- Node8 -->
<g id="node8" class="node"><title>Node8</title>
<g id="a_node8"><a xlink:title="पृथ्वी">
<polygon fill="none" stroke="blue" points="176,-198 122,-198 122,-162 176,-162 176,-198"/>
<text text-anchor="middle" x="149" y="-176.3" font-family="Times,serif" font-size="14.00">क्षान्ता</text>
</a>
</g>
</g>
<!-- Node1&#45;&gt;Node8 -->
<g id="edge7" class="edge"><title>Node1&#45;&gt;Node8</title>
<path fill="none" stroke="black" d="M44.2519,-246.713C52.361,-239.843 62.4551,-231.673 72,-225 84.9676,-215.934 99.829,-206.865 112.951,-199.269"/>
<polygon fill="black" stroke="black" points="114.766,-202.263 121.713,-194.263 111.293,-196.185 114.766,-202.263"/>
<text text-anchor="middle" x="88" y="-228.8" font-family="Times,serif" font-size="14.00">क्त</text>
</g>
<!-- Node9 -->
<g id="node9" class="node"><title>Node9</title>
<g id="a_node9"><a xlink:title="धैर्यवान, सहनशील">
<polygon fill="none" stroke="blue" points="176,-144 122,-144 122,-108 176,-108 176,-144"/>
<text text-anchor="middle" x="149" y="-122.3" font-family="Times,serif" font-size="14.00">क्षान्तु</text>
</a>
</g>
</g>
<!-- Node1&#45;&gt;Node9 -->
<g id="edge8" class="edge"><title>Node1&#45;&gt;Node9</title>
<path fill="none" stroke="black" d="M35.8161,-243.738C43.5775,-227.724 56.5329,-203.759 72,-186 83.9776,-172.248 99.4517,-159.376 113.308,-149.109"/>
<polygon fill="black" stroke="black" points="115.619,-151.757 121.681,-143.068 111.523,-146.08 115.619,-151.757"/>
<text text-anchor="middle" x="88" y="-189.8" font-family="Times,serif" font-size="14.00">तुन्</text>
</g>
<!-- Node10 -->
<g id="node10" class="node"><title>Node10</title>
<g id="a_node10"><a xlink:title="पिता">
<polygon fill="none" stroke="blue" points="176,-90 122,-90 122,-54 176,-54 176,-90"/>
<text text-anchor="middle" x="149" y="-68.3" font-family="Times,serif" font-size="14.00">क्षान्तु</text>
</a>
</g>
</g>
<!-- Node1&#45;&gt;Node10 -->
<g id="edge9" class="edge"><title>Node1&#45;&gt;Node10</title>
<path fill="none" stroke="black" d="M31.4203,-242.984C36.8453,-217.774 49.2184,-171.327 72,-138 83.0468,-121.84 98.9773,-107.185 113.403,-95.8131"/>
<polygon fill="black" stroke="black" points="115.841,-98.355 121.674,-89.5099 111.599,-92.7874 115.841,-98.355"/>
<text text-anchor="middle" x="88" y="-141.8" font-family="Times,serif" font-size="14.00">तुन्</text>
</g>
<!-- Node11 -->
<g id="node11" class="node"><title>Node11</title>
<g id="a_node11"><a xlink:title="पृथ्वी, क्ष्मां लम्भयित्वा क्षमयोपपन्नम">
<polygon fill="none" stroke="blue" points="176,-36 122,-36 122,-0 176,-0 176,-36"/>
<text text-anchor="middle" x="149" y="-14.3" font-family="Times,serif" font-size="14.00">क्ष्मा</text>
</a>
</g>
</g>
<!-- Node1&#45;&gt;Node11 -->
<g id="edge10" class="edge"><title>Node1&#45;&gt;Node11</title>
<path fill="none" stroke="black" d="M28.9392,-242.801C31.4162,-209.099 40.3224,-135.705 72,-84 82.4759,-66.901 98.8303,-51.8702 113.688,-40.489"/>
<polygon fill="black" stroke="black" points="115.77,-43.3029 121.742,-34.5517 111.616,-37.6685 115.77,-43.3029"/>
<text text-anchor="middle" x="88" y="-87.8" font-family="Times,serif" font-size="14.00">अच्</text>
</g>
</g>
</svg>
