<?xml version="1.0" encoding="UTF-8" standalone="no"?>
<!DOCTYPE svg PUBLIC "-//W3C//DTD SVG 1.1//EN"
 "http://www.w3.org/Graphics/SVG/1.1/DTD/svg11.dtd">
<!-- Generated by graphviz version 2.36.0 (20140111.2315)
 -->
<!-- Title: G Pages: 1 -->
<svg width="292pt" height="98pt"
 viewBox="0.00 0.00 292.00 98.00" xmlns="http://www.w3.org/2000/svg" xmlns:xlink="http://www.w3.org/1999/xlink">
<g id="graph0" class="graph" transform="scale(1 1) rotate(0) translate(4 94)">
<title>G</title>
<polygon fill="white" stroke="none" points="-4,4 -4,-94 288,-94 288,4 -4,4"/>
<!-- Node1 -->
<g id="node1" class="node"><title>Node1</title>
<ellipse fill="none" stroke="red" cx="27" cy="-50" rx="27" ry="18"/>
<text text-anchor="middle" x="27" y="-46.3" font-family="Times,serif" font-size="14.00">क्षीव्</text>
</g>
<!-- Node2 -->
<g id="node2" class="node"><title>Node2</title>
<g id="a_node2"><a xlink:title="उत्तेजित, मतवाला, मदोन्मत्त, ध्रुवं जये यस्य जयामृतेन क्षीवः क्षमाभर्तुरभूत्कृपाणः">
<polygon fill="none" stroke="blue" points="169,-90 115,-90 115,-54 169,-54 169,-90"/>
<text text-anchor="middle" x="142" y="-68.3" font-family="Times,serif" font-size="14.00">क्षीव</text>
</a>
</g>
</g>
<!-- Node1&#45;&gt;Node2 -->
<g id="edge1" class="edge"><title>Node1&#45;&gt;Node2</title>
<path fill="none" stroke="black" d="M53.0784,-54.8825C68.2628,-57.8388 87.8869,-61.6594 104.742,-64.9408"/>
<polygon fill="black" stroke="black" points="104.329,-68.4262 114.814,-66.9018 105.667,-61.5552 104.329,-68.4262"/>
<text text-anchor="middle" x="78" y="-63.8" font-family="Times,serif" font-size="14.00">क्त</text>
</g>
<!-- Node3 -->
<g id="node3" class="node"><title>Node3</title>
<ellipse fill="none" stroke="red" cx="142" cy="-18" rx="39.7935" ry="18"/>
<text text-anchor="middle" x="142" y="-14.3" font-family="Times,serif" font-size="14.00">परि_क्षीव्</text>
</g>
<!-- Node1&#45;&gt;Node3 -->
<g id="edge2" class="edge"><title>Node1&#45;&gt;Node3</title>
<path fill="none" stroke="black" d="M52.2413,-43.1352C65.5406,-39.369 82.426,-34.5873 97.8911,-30.2078"/>
<polygon fill="black" stroke="black" points="99.1288,-33.4951 107.797,-27.4027 97.2214,-26.7599 99.1288,-33.4951"/>
</g>
<!-- Node4 -->
<g id="node4" class="node"><title>Node4</title>
<g id="a_node4"><a xlink:title="बिल्कुल नशे में चूर">
<polygon fill="none" stroke="blue" points="284,-36 230,-36 230,-0 284,-0 284,-36"/>
<text text-anchor="middle" x="257" y="-14.3" font-family="Times,serif" font-size="14.00">परिक्षीव</text>
</a>
</g>
</g>
<!-- Node3&#45;&gt;Node4 -->
<g id="edge3" class="edge"><title>Node3&#45;&gt;Node4</title>
<path fill="none" stroke="black" d="M181.888,-18C194.134,-18 207.606,-18 219.667,-18"/>
<polygon fill="black" stroke="black" points="219.836,-21.5001 229.836,-18 219.836,-14.5001 219.836,-21.5001"/>
<text text-anchor="middle" x="206" y="-21.8" font-family="Times,serif" font-size="14.00">क्त</text>
</g>
</g>
</svg>
