<?xml version="1.0" encoding="UTF-8" standalone="no"?>
<!DOCTYPE svg PUBLIC "-//W3C//DTD SVG 1.1//EN"
 "http://www.w3.org/Graphics/SVG/1.1/DTD/svg11.dtd">
<!-- Generated by graphviz version 2.36.0 (20140111.2315)
 -->
<!-- Title: G Pages: 1 -->
<svg width="314pt" height="206pt"
 viewBox="0.00 0.00 314.00 206.00" xmlns="http://www.w3.org/2000/svg" xmlns:xlink="http://www.w3.org/1999/xlink">
<g id="graph0" class="graph" transform="scale(1 1) rotate(0) translate(4 202)">
<title>G</title>
<polygon fill="white" stroke="none" points="-4,4 -4,-202 310,-202 310,4 -4,4"/>
<!-- Node1 -->
<g id="node1" class="node"><title>Node1</title>
<ellipse fill="none" stroke="red" cx="27" cy="-93" rx="27" ry="18"/>
<text text-anchor="middle" x="27" y="-89.3" font-family="Times,serif" font-size="14.00">कुठ्</text>
</g>
<!-- Node2 -->
<g id="node2" class="node"><title>Node2</title>
<g id="a_node2"><a xlink:title="वृक्ष">
<polygon fill="none" stroke="blue" points="180,-198 126,-198 126,-162 180,-162 180,-198"/>
<text text-anchor="middle" x="153" y="-176.3" font-family="Times,serif" font-size="14.00">कुठारु</text>
</a>
</g>
</g>
<!-- Node1&#45;&gt;Node2 -->
<g id="edge1" class="edge"><title>Node1&#45;&gt;Node2</title>
<path fill="none" stroke="black" d="M46.2966,-105.837C65.1367,-119.056 94.9311,-139.96 118.093,-156.21"/>
<polygon fill="black" stroke="black" points="116.097,-159.085 126.293,-161.964 120.117,-153.355 116.097,-159.085"/>
<text text-anchor="middle" x="84" y="-142.8" font-family="Times,serif" font-size="14.00">आरु</text>
</g>
<!-- Node3 -->
<g id="node3" class="node"><title>Node3</title>
<ellipse fill="none" stroke="red" cx="153" cy="-126" rx="38.1938" ry="18"/>
<text text-anchor="middle" x="153" y="-122.3" font-family="Times,serif" font-size="14.00">कुठ्+इन्</text>
</g>
<!-- Node1&#45;&gt;Node3 -->
<g id="edge2" class="edge"><title>Node1&#45;&gt;Node3</title>
<path fill="none" stroke="black" d="M52.4984,-99.5197C68.652,-103.819 90.246,-109.565 109.189,-114.607"/>
<polygon fill="black" stroke="black" points="108.535,-118.054 119.098,-117.244 110.335,-111.29 108.535,-118.054"/>
</g>
<!-- Node6 -->
<g id="node6" class="node"><title>Node6</title>
<g id="a_node6"><a xlink:title="जड">
<polygon fill="none" stroke="blue" points="180,-90 126,-90 126,-54 180,-54 180,-90"/>
<text text-anchor="middle" x="153" y="-68.3" font-family="Times,serif" font-size="14.00">कुण्ठित</text>
</a>
</g>
</g>
<!-- Node1&#45;&gt;Node6 -->
<g id="edge5" class="edge"><title>Node1&#45;&gt;Node6</title>
<path fill="none" stroke="black" d="M53.1152,-88.3496C59.2864,-87.2301 65.8787,-86.0537 72,-85 86.255,-82.5461 101.961,-79.9668 115.655,-77.7584"/>
<polygon fill="black" stroke="black" points="116.357,-81.1905 125.676,-76.1502 115.248,-74.279 116.357,-81.1905"/>
<text text-anchor="middle" x="84" y="-88.8" font-family="Times,serif" font-size="14.00">क्त</text>
</g>
<!-- Node7 -->
<g id="node7" class="node"><title>Node7</title>
<g id="a_node7"><a xlink:title="नाक, नासिका">
<polygon fill="none" stroke="blue" points="180,-36 126,-36 126,-0 180,-0 180,-36"/>
<text text-anchor="middle" x="153" y="-14.3" font-family="Times,serif" font-size="14.00">नकुट</text>
</a>
</g>
</g>
<!-- Node1&#45;&gt;Node7 -->
<g id="edge6" class="edge"><title>Node1&#45;&gt;Node7</title>
<path fill="none" stroke="black" d="M46.1781,-80.0894C54.0197,-74.6556 63.3586,-68.3625 72,-63 86.4392,-54.0395 102.731,-44.7356 116.826,-36.9292"/>
<polygon fill="black" stroke="black" points="118.653,-39.919 125.73,-32.0343 115.28,-33.7848 118.653,-39.919"/>
<text text-anchor="middle" x="84" y="-66.8" font-family="Times,serif" font-size="14.00">क</text>
</g>
<!-- Node4 -->
<g id="node4" class="node"><title>Node4</title>
<g id="a_node4"><a xlink:title="वृक्ष">
<polygon fill="none" stroke="blue" points="306,-171 252,-171 252,-135 306,-135 306,-171"/>
<text text-anchor="middle" x="279" y="-149.3" font-family="Times,serif" font-size="14.00">कुठि</text>
</a>
</g>
</g>
<!-- Node3&#45;&gt;Node4 -->
<g id="edge3" class="edge"><title>Node3&#45;&gt;Node4</title>
<path fill="none" stroke="black" d="M188.212,-133.449C204.834,-137.069 224.816,-141.42 241.706,-145.097"/>
<polygon fill="black" stroke="black" points="241.249,-148.58 251.764,-147.287 242.738,-141.74 241.249,-148.58"/>
<text text-anchor="middle" x="222" y="-145.8" font-family="Times,serif" font-size="14.00">कित्</text>
</g>
<!-- Node5 -->
<g id="node5" class="node"><title>Node5</title>
<g id="a_node5"><a xlink:title="कुञ्ज, लतागृह">
<polygon fill="none" stroke="blue" points="306,-117 252,-117 252,-81 306,-81 306,-117"/>
<text text-anchor="middle" x="279" y="-95.3" font-family="Times,serif" font-size="14.00">कुडङ्ग</text>
</a>
</g>
</g>
<!-- Node3&#45;&gt;Node5 -->
<g id="edge4" class="edge"><title>Node3&#45;&gt;Node5</title>
<path fill="none" stroke="black" d="M188.212,-118.551C204.834,-114.931 224.816,-110.58 241.706,-106.903"/>
<polygon fill="black" stroke="black" points="242.738,-110.26 251.764,-104.713 241.249,-103.42 242.738,-110.26"/>
<text text-anchor="middle" x="222" y="-116.8" font-family="Times,serif" font-size="14.00">कित्</text>
</g>
</g>
</svg>
