<?xml version="1.0" encoding="UTF-8" standalone="no"?>
<!DOCTYPE svg PUBLIC "-//W3C//DTD SVG 1.1//EN"
 "http://www.w3.org/Graphics/SVG/1.1/DTD/svg11.dtd">
<!-- Generated by graphviz version 2.36.0 (20140111.2315)
 -->
<!-- Title: G Pages: 1 -->
<svg width="332pt" height="233pt"
 viewBox="0.00 0.00 332.00 233.00" xmlns="http://www.w3.org/2000/svg" xmlns:xlink="http://www.w3.org/1999/xlink">
<g id="graph0" class="graph" transform="scale(1 1) rotate(0) translate(4 229)">
<title>G</title>
<polygon fill="white" stroke="none" points="-4,4 -4,-229 328,-229 328,4 -4,4"/>
<!-- Node1 -->
<g id="node1" class="node"><title>Node1</title>
<ellipse fill="none" stroke="red" cx="27" cy="-99" rx="27" ry="18"/>
<text text-anchor="middle" x="27" y="-95.3" font-family="Times,serif" font-size="14.00">मृष्</text>
</g>
<!-- Node2 -->
<g id="node2" class="node"><title>Node2</title>
<ellipse fill="none" stroke="red" cx="157" cy="-180" rx="40.0939" ry="18"/>
<text text-anchor="middle" x="157" y="-176.3" font-family="Times,serif" font-size="14.00">अभि_मृष्</text>
</g>
<!-- Node1&#45;&gt;Node2 -->
<g id="edge1" class="edge"><title>Node1&#45;&gt;Node2</title>
<path fill="none" stroke="black" d="M44.7026,-112.844C52.7476,-119.266 62.6576,-126.826 72,-133 87.4704,-143.225 105.312,-153.416 120.563,-161.682"/>
<polygon fill="black" stroke="black" points="119.211,-164.929 129.679,-166.563 122.515,-158.758 119.211,-164.929"/>
</g>
<!-- Node5 -->
<g id="node5" class="node"><title>Node5</title>
<g id="a_node5"><a xlink:title="सहन किया हुआ, सबर के साथ हुआ#सहनशीलता, धैर्य">
<polygon fill="none" stroke="blue" points="184,-144 130,-144 130,-108 184,-108 184,-144"/>
<text text-anchor="middle" x="157" y="-122.3" font-family="Times,serif" font-size="14.00">मर्षित</text>
</a>
</g>
</g>
<!-- Node1&#45;&gt;Node5 -->
<g id="edge4" class="edge"><title>Node1&#45;&gt;Node5</title>
<path fill="none" stroke="black" d="M52.9835,-104.27C71.9907,-108.279 98.4221,-113.855 119.753,-118.354"/>
<polygon fill="black" stroke="black" points="119.252,-121.825 129.759,-120.465 120.697,-114.976 119.252,-121.825"/>
<text text-anchor="middle" x="85" y="-117.8" font-family="Times,serif" font-size="14.00">क्त</text>
</g>
<!-- Node6 -->
<g id="node6" class="node"><title>Node6</title>
<g id="a_node6"><a xlink:title="सहन करने वाला, धैर्यशील">
<polygon fill="none" stroke="blue" points="184,-90 130,-90 130,-54 184,-54 184,-90"/>
<text text-anchor="middle" x="157" y="-68.3" font-family="Times,serif" font-size="14.00">मर्षिन्</text>
</a>
</g>
</g>
<!-- Node1&#45;&gt;Node6 -->
<g id="edge5" class="edge"><title>Node1&#45;&gt;Node6</title>
<path fill="none" stroke="black" d="M52.9835,-93.73C71.9907,-89.7207 98.4221,-84.1453 119.753,-79.6459"/>
<polygon fill="black" stroke="black" points="120.697,-83.0238 129.759,-77.5351 119.252,-76.1745 120.697,-83.0238"/>
<text text-anchor="middle" x="85" y="-93.8" font-family="Times,serif" font-size="14.00">णिनि</text>
</g>
<!-- Node7 -->
<g id="node7" class="node"><title>Node7</title>
<g id="a_node7"><a xlink:title="मिथ्या, गलती से, असत्यता के साथ, झूठमूठ, यद्वक्त्रं मुहुरीक्षसे न धनिनां ब्रूषे न चाटुं मृषा">
<polygon fill="none" stroke="blue" points="184,-36 130,-36 130,-0 184,-0 184,-36"/>
<text text-anchor="middle" x="157" y="-14.3" font-family="Times,serif" font-size="14.00">मृषा</text>
</a>
</g>
</g>
<!-- Node1&#45;&gt;Node7 -->
<g id="edge6" class="edge"><title>Node1&#45;&gt;Node7</title>
<path fill="none" stroke="black" d="M45.1978,-85.3212C53.1823,-79.1753 62.9027,-71.9775 72,-66 87.5771,-55.7649 105.433,-45.384 120.665,-36.9068"/>
<polygon fill="black" stroke="black" points="122.697,-39.7837 129.767,-31.8929 119.319,-33.6525 122.697,-39.7837"/>
<text text-anchor="middle" x="85" y="-69.8" font-family="Times,serif" font-size="14.00">का</text>
</g>
<!-- Node3 -->
<g id="node3" class="node"><title>Node3</title>
<g id="a_node3"><a xlink:title="स्पर्श, संपर्क">
<polygon fill="none" stroke="blue" points="319,-225 263,-225 263,-189 319,-189 319,-225"/>
<text text-anchor="middle" x="291" y="-203.3" font-family="Times,serif" font-size="14.00">अभिमर्ष</text>
</a>
</g>
</g>
<!-- Node2&#45;&gt;Node3 -->
<g id="edge2" class="edge"><title>Node2&#45;&gt;Node3</title>
<path fill="none" stroke="black" d="M194.07,-187.378C212.361,-191.119 234.544,-195.657 252.969,-199.425"/>
<polygon fill="black" stroke="black" points="252.271,-202.855 262.77,-201.43 253.674,-195.997 252.271,-202.855"/>
<text text-anchor="middle" x="228" y="-199.8" font-family="Times,serif" font-size="14.00">घञ्</text>
</g>
<!-- Node4 -->
<g id="node4" class="node"><title>Node4</title>
<g id="a_node4"><a xlink:title="स्पर्श, संपर्क">
<polygon fill="none" stroke="blue" points="323.5,-171 258.5,-171 258.5,-135 323.5,-135 323.5,-171"/>
<text text-anchor="middle" x="291" y="-149.3" font-family="Times,serif" font-size="14.00">अभिमर्षण</text>
</a>
</g>
</g>
<!-- Node2&#45;&gt;Node4 -->
<g id="edge3" class="edge"><title>Node2&#45;&gt;Node4</title>
<path fill="none" stroke="black" d="M194.07,-172.622C210.915,-169.176 231.062,-165.056 248.534,-161.482"/>
<polygon fill="black" stroke="black" points="249.371,-164.883 258.467,-159.45 247.968,-158.025 249.371,-164.883"/>
<text text-anchor="middle" x="228" y="-171.8" font-family="Times,serif" font-size="14.00">ल्युट्</text>
</g>
</g>
</svg>
