<?xml version="1.0" encoding="UTF-8" standalone="no"?>
<!DOCTYPE svg PUBLIC "-//W3C//DTD SVG 1.1//EN"
 "http://www.w3.org/Graphics/SVG/1.1/DTD/svg11.dtd">
<!-- Generated by graphviz version 2.36.0 (20140111.2315)
 -->
<!-- Title: G Pages: 1 -->
<svg width="174pt" height="98pt"
 viewBox="0.00 0.00 174.00 98.00" xmlns="http://www.w3.org/2000/svg" xmlns:xlink="http://www.w3.org/1999/xlink">
<g id="graph0" class="graph" transform="scale(1 1) rotate(0) translate(4 94)">
<title>G</title>
<polygon fill="white" stroke="none" points="-4,4 -4,-94 170,-94 170,4 -4,4"/>
<!-- Node1 -->
<g id="node1" class="node"><title>Node1</title>
<ellipse fill="none" stroke="red" cx="27" cy="-45" rx="27" ry="18"/>
<text text-anchor="middle" x="27" y="-41.3" font-family="Times,serif" font-size="14.00">मू</text>
</g>
<!-- Node2 -->
<g id="node2" class="node"><title>Node2</title>
<g id="a_node2"><a xlink:title="बेचारा, दीन#बेचारा, दीन, दुःखी">
<polygon fill="none" stroke="blue" points="166,-90 112,-90 112,-54 166,-54 166,-90"/>
<text text-anchor="middle" x="139" y="-68.3" font-family="Times,serif" font-size="14.00">मूक</text>
</a>
</g>
</g>
<!-- Node1&#45;&gt;Node2 -->
<g id="edge1" class="edge"><title>Node1&#45;&gt;Node2</title>
<path fill="none" stroke="black" d="M52.6861,-51.0593C67.1313,-54.605 85.6336,-59.1464 101.713,-63.0932"/>
<polygon fill="black" stroke="black" points="101.317,-66.5998 111.863,-65.5845 102.986,-59.8016 101.317,-66.5998"/>
<text text-anchor="middle" x="83" y="-63.8" font-family="Times,serif" font-size="14.00">कक्</text>
</g>
<!-- Node3 -->
<g id="node3" class="node"><title>Node3</title>
<g id="a_node3"><a xlink:title="बांधा हुआ, करता हुआ">
<polygon fill="none" stroke="blue" points="166,-36 112,-36 112,-0 166,-0 166,-36"/>
<text text-anchor="middle" x="139" y="-14.3" font-family="Times,serif" font-size="14.00">मूत</text>
</a>
</g>
</g>
<!-- Node1&#45;&gt;Node3 -->
<g id="edge2" class="edge"><title>Node1&#45;&gt;Node3</title>
<path fill="none" stroke="black" d="M52.6861,-38.9407C67.1313,-35.395 85.6336,-30.8536 101.713,-26.9068"/>
<polygon fill="black" stroke="black" points="102.986,-30.1984 111.863,-24.4155 101.317,-23.4002 102.986,-30.1984"/>
<text text-anchor="middle" x="83" y="-36.8" font-family="Times,serif" font-size="14.00">क्त</text>
</g>
</g>
</svg>
