<?xml version="1.0" encoding="UTF-8" standalone="no"?>
<!DOCTYPE svg PUBLIC "-//W3C//DTD SVG 1.1//EN"
 "http://www.w3.org/Graphics/SVG/1.1/DTD/svg11.dtd">
<!-- Generated by graphviz version 2.36.0 (20140111.2315)
 -->
<!-- Title: G Pages: 1 -->
<svg width="186pt" height="206pt"
 viewBox="0.00 0.00 186.00 206.00" xmlns="http://www.w3.org/2000/svg" xmlns:xlink="http://www.w3.org/1999/xlink">
<g id="graph0" class="graph" transform="scale(1 1) rotate(0) translate(4 202)">
<title>G</title>
<polygon fill="white" stroke="none" points="-4,4 -4,-202 182,-202 182,4 -4,4"/>
<!-- Node1 -->
<g id="node1" class="node"><title>Node1</title>
<ellipse fill="none" stroke="red" cx="27" cy="-99" rx="27" ry="18"/>
<text text-anchor="middle" x="27" y="-95.3" font-family="Times,serif" font-size="14.00">मूष्</text>
</g>
<!-- Node2 -->
<g id="node2" class="node"><title>Node2</title>
<g id="a_node2"><a xlink:title="चूहा">
<polygon fill="none" stroke="blue" points="178,-198 124,-198 124,-162 178,-162 178,-198"/>
<text text-anchor="middle" x="151" y="-176.3" font-family="Times,serif" font-size="14.00">मुषिक</text>
</a>
</g>
</g>
<!-- Node1&#45;&gt;Node2 -->
<g id="edge1" class="edge"><title>Node1&#45;&gt;Node2</title>
<path fill="none" stroke="black" d="M44.2994,-112.857C52.4197,-119.528 62.5096,-127.474 72,-134 85.5773,-143.337 101.112,-152.739 114.725,-160.588"/>
<polygon fill="black" stroke="black" points="113.373,-163.846 123.795,-165.754 116.838,-157.763 113.373,-163.846"/>
<text text-anchor="middle" x="89" y="-158.8" font-family="Times,serif" font-size="14.00">किकन्</text>
</g>
<!-- Node3 -->
<g id="node3" class="node"><title>Node3</title>
<g id="a_node3"><a xlink:title="चूहा, मूसा">
<polygon fill="none" stroke="blue" points="178,-144 124,-144 124,-108 178,-108 178,-144"/>
<text text-anchor="middle" x="151" y="-122.3" font-family="Times,serif" font-size="14.00">मूषक</text>
</a>
</g>
</g>
<!-- Node1&#45;&gt;Node3 -->
<g id="edge2" class="edge"><title>Node1&#45;&gt;Node3</title>
<path fill="none" stroke="black" d="M52.9829,-104.529C70.5548,-108.418 94.339,-113.682 113.96,-118.024"/>
<polygon fill="black" stroke="black" points="113.266,-121.455 123.786,-120.198 114.778,-114.62 113.266,-121.455"/>
<text text-anchor="middle" x="89" y="-118.8" font-family="Times,serif" font-size="14.00">कन्</text>
</g>
<!-- Node4 -->
<g id="node4" class="node"><title>Node4</title>
<g id="a_node4"><a xlink:title="चुराना, चुपके से खिसका लेना, उठा लेना">
<polygon fill="none" stroke="blue" points="178,-90 124,-90 124,-54 178,-54 178,-90"/>
<text text-anchor="middle" x="151" y="-68.3" font-family="Times,serif" font-size="14.00">मूषण</text>
</a>
</g>
</g>
<!-- Node1&#45;&gt;Node4 -->
<g id="edge3" class="edge"><title>Node1&#45;&gt;Node4</title>
<path fill="none" stroke="black" d="M52.9829,-93.471C70.5548,-89.5821 94.339,-84.3184 113.96,-79.9761"/>
<polygon fill="black" stroke="black" points="114.778,-83.3797 123.786,-77.8015 113.266,-76.5451 114.778,-83.3797"/>
<text text-anchor="middle" x="89" y="-91.8" font-family="Times,serif" font-size="14.00">ल्युट्</text>
</g>
<!-- Node5 -->
<g id="node5" class="node"><title>Node5</title>
<g id="a_node5"><a xlink:title="चूहा, मूसा">
<polygon fill="none" stroke="blue" points="178,-36 124,-36 124,-0 178,-0 178,-36"/>
<text text-anchor="middle" x="151" y="-14.3" font-family="Times,serif" font-size="14.00">मूष</text>
</a>
</g>
</g>
<!-- Node1&#45;&gt;Node5 -->
<g id="edge4" class="edge"><title>Node1&#45;&gt;Node5</title>
<path fill="none" stroke="black" d="M44.2191,-84.6654C52.3204,-77.7851 62.4174,-69.6193 72,-63 85.4822,-53.6869 100.999,-44.4566 114.625,-36.8024"/>
<polygon fill="black" stroke="black" points="116.655,-39.6793 123.708,-31.7734 113.264,-33.5553 116.655,-39.6793"/>
<text text-anchor="middle" x="89" y="-66.8" font-family="Times,serif" font-size="14.00">क</text>
</g>
</g>
</svg>
