<?xml version="1.0" encoding="UTF-8" standalone="no"?>
<!DOCTYPE svg PUBLIC "-//W3C//DTD SVG 1.1//EN"
 "http://www.w3.org/Graphics/SVG/1.1/DTD/svg11.dtd">
<!-- Generated by graphviz version 2.36.0 (20140111.2315)
 -->
<!-- Title: G Pages: 1 -->
<svg width="466pt" height="584pt"
 viewBox="0.00 0.00 466.00 584.00" xmlns="http://www.w3.org/2000/svg" xmlns:xlink="http://www.w3.org/1999/xlink">
<g id="graph0" class="graph" transform="scale(1 1) rotate(0) translate(4 580)">
<title>G</title>
<polygon fill="white" stroke="none" points="-4,4 -4,-580 462,-580 462,4 -4,4"/>
<!-- Node1 -->
<g id="node1" class="node"><title>Node1</title>
<ellipse fill="none" stroke="red" cx="27" cy="-315" rx="27" ry="18"/>
<text text-anchor="middle" x="27" y="-311.3" font-family="Times,serif" font-size="14.00">नद्</text>
</g>
<!-- Node2 -->
<g id="node2" class="node"><title>Node2</title>
<ellipse fill="none" stroke="red" cx="159" cy="-558" rx="37.8943" ry="18"/>
<text text-anchor="middle" x="159" y="-554.3" font-family="Times,serif" font-size="14.00">अनु_नद्</text>
</g>
<!-- Node1&#45;&gt;Node2 -->
<g id="edge1" class="edge"><title>Node1&#45;&gt;Node2</title>
<path fill="none" stroke="black" d="M31.1301,-333.089C39.0068,-373.573 63.2208,-472.506 120,-531 122.114,-533.178 124.424,-535.297 126.827,-537.328"/>
<polygon fill="black" stroke="black" points="125.166,-540.47 135.208,-543.85 129.465,-534.946 125.166,-540.47"/>
</g>
<!-- Node4 -->
<g id="node4" class="node"><title>Node4</title>
<ellipse fill="none" stroke="red" cx="159" cy="-504" rx="36.2938" ry="18"/>
<text text-anchor="middle" x="159" y="-500.3" font-family="Times,serif" font-size="14.00">उद्_नद्</text>
</g>
<!-- Node1&#45;&gt;Node4 -->
<g id="edge3" class="edge"><title>Node1&#45;&gt;Node4</title>
<path fill="none" stroke="black" d="M32.346,-332.671C38.6252,-356.036 51.7514,-397.882 72,-429 86.3646,-451.075 109.003,-470.449 127.448,-483.974"/>
<polygon fill="black" stroke="black" points="125.668,-487.003 135.846,-489.947 129.726,-481.299 125.668,-487.003"/>
</g>
<!-- Node6 -->
<g id="node6" class="node"><title>Node6</title>
<g id="a_node6"><a xlink:title="शोर, दहाड़">
<polygon fill="none" stroke="blue" points="186,-468 132,-468 132,-432 186,-432 186,-468"/>
<text text-anchor="middle" x="159" y="-446.3" font-family="Times,serif" font-size="14.00">नदथु</text>
</a>
</g>
</g>
<!-- Node1&#45;&gt;Node6 -->
<g id="edge5" class="edge"><title>Node1&#45;&gt;Node6</title>
<path fill="none" stroke="black" d="M36.2612,-331.938C44.151,-347.098 57.0335,-369.425 72,-386 90.0516,-405.992 98.3505,-406.974 120,-423 121.22,-423.903 122.464,-424.818 123.724,-425.74"/>
<polygon fill="black" stroke="black" points="121.994,-428.808 132.147,-431.835 126.098,-423.137 121.994,-428.808"/>
<text text-anchor="middle" x="87" y="-413.8" font-family="Times,serif" font-size="14.00">अथुच्</text>
</g>
<!-- Node7 -->
<g id="node7" class="node"><title>Node7</title>
<g id="a_node7"><a xlink:title="नदी, प्रवहणी, नाला">
<polygon fill="none" stroke="blue" points="186,-414 132,-414 132,-378 186,-378 186,-414"/>
<text text-anchor="middle" x="159" y="-392.3" font-family="Times,serif" font-size="14.00">नद</text>
</a>
</g>
</g>
<!-- Node1&#45;&gt;Node7 -->
<g id="edge6" class="edge"><title>Node1&#45;&gt;Node7</title>
<path fill="none" stroke="black" d="M44.6751,-328.886C52.7141,-335.317 62.627,-342.872 72,-349 88.1906,-359.585 106.962,-370.038 122.828,-378.388"/>
<polygon fill="black" stroke="black" points="121.306,-381.541 131.793,-383.047 124.534,-375.33 121.306,-381.541"/>
<text text-anchor="middle" x="87" y="-370.8" font-family="Times,serif" font-size="14.00">अच्</text>
</g>
<!-- Node8 -->
<g id="node8" class="node"><title>Node8</title>
<g id="a_node8"><a xlink:title="ऊँची पहाड़, चिल्लाहट, चीख, गरजना, दहाड़ना, सिंहनादः, घननादः आदि">
<polygon fill="none" stroke="blue" points="186,-360 132,-360 132,-324 186,-324 186,-360"/>
<text text-anchor="middle" x="159" y="-338.3" font-family="Times,serif" font-size="14.00">नाद</text>
</a>
</g>
</g>
<!-- Node1&#45;&gt;Node8 -->
<g id="edge7" class="edge"><title>Node1&#45;&gt;Node8</title>
<path fill="none" stroke="black" d="M53.0653,-320.206C72.5559,-324.254 99.8679,-329.926 121.742,-334.47"/>
<polygon fill="black" stroke="black" points="121.17,-337.925 131.673,-336.532 122.594,-331.072 121.17,-337.925"/>
<text text-anchor="middle" x="87" y="-333.8" font-family="Times,serif" font-size="14.00">घञ्</text>
</g>
<!-- Node9 -->
<g id="node9" class="node"><title>Node9</title>
<g id="a_node9"><a xlink:title="रांभने वाला, गरजने वाला खरनादिन्, सिंहनादिन् आदि">
<polygon fill="none" stroke="blue" points="186,-306 132,-306 132,-270 186,-270 186,-306"/>
<text text-anchor="middle" x="159" y="-284.3" font-family="Times,serif" font-size="14.00">नादिन्</text>
</a>
</g>
</g>
<!-- Node1&#45;&gt;Node9 -->
<g id="edge8" class="edge"><title>Node1&#45;&gt;Node9</title>
<path fill="none" stroke="black" d="M52.6405,-309.271C58.9441,-307.84 65.7166,-306.335 72,-305 88.3295,-301.531 106.454,-297.914 121.837,-294.912"/>
<polygon fill="black" stroke="black" points="122.843,-298.283 131.994,-292.942 121.51,-291.411 122.843,-298.283"/>
<text text-anchor="middle" x="87" y="-308.8" font-family="Times,serif" font-size="14.00">णिनि</text>
</g>
<!-- Node10 -->
<g id="node10" class="node"><title>Node10</title>
<ellipse fill="none" stroke="red" cx="159" cy="-234" rx="33.2948" ry="18"/>
<text text-anchor="middle" x="159" y="-230.3" font-family="Times,serif" font-size="14.00">नि_नद्</text>
</g>
<!-- Node1&#45;&gt;Node10 -->
<g id="edge9" class="edge"><title>Node1&#45;&gt;Node10</title>
<path fill="none" stroke="black" d="M47.4623,-302.873C68.6586,-289.667 102.838,-268.37 127.583,-252.952"/>
<polygon fill="black" stroke="black" points="129.595,-255.822 136.232,-247.563 125.894,-249.881 129.595,-255.822"/>
</g>
<!-- Node13 -->
<g id="node13" class="node"><title>Node13</title>
<ellipse fill="none" stroke="red" cx="159" cy="-180" rx="30.5947" ry="18"/>
<text text-anchor="middle" x="159" y="-176.3" font-family="Times,serif" font-size="14.00">प्र_नद्</text>
</g>
<!-- Node1&#45;&gt;Node13 -->
<g id="edge12" class="edge"><title>Node1&#45;&gt;Node13</title>
<path fill="none" stroke="black" d="M39.6911,-298.905C56.1771,-276.801 87.8493,-236.445 120,-207 122.937,-204.31 126.15,-201.656 129.423,-199.124"/>
<polygon fill="black" stroke="black" points="131.586,-201.878 137.563,-193.13 127.436,-196.241 131.586,-201.878"/>
</g>
<!-- Node18 -->
<g id="node18" class="node"><title>Node18</title>
<ellipse fill="none" stroke="red" cx="159" cy="-113" rx="38.1938" ry="18"/>
<text text-anchor="middle" x="159" y="-109.3" font-family="Times,serif" font-size="14.00">प्रति_नद्</text>
</g>
<!-- Node1&#45;&gt;Node18 -->
<g id="edge17" class="edge"><title>Node1&#45;&gt;Node18</title>
<path fill="none" stroke="black" d="M35.1285,-297.769C43.2224,-278.766 57.232,-247.505 72,-222 90.7193,-189.671 96.4004,-181.959 120,-153 124.472,-147.512 129.529,-141.859 134.461,-136.594"/>
<polygon fill="black" stroke="black" points="137.13,-138.867 141.513,-129.221 132.072,-134.028 137.13,-138.867"/>
</g>
<!-- Node20 -->
<g id="node20" class="node"><title>Node20</title>
<ellipse fill="none" stroke="red" cx="159" cy="-32" rx="32.4942" ry="18"/>
<text text-anchor="middle" x="159" y="-28.3" font-family="Times,serif" font-size="14.00">वि_नद्</text>
</g>
<!-- Node1&#45;&gt;Node20 -->
<g id="edge19" class="edge"><title>Node1&#45;&gt;Node20</title>
<path fill="none" stroke="black" d="M32.248,-296.959C39.0227,-269.409 53.4257,-215.473 72,-172 89.1984,-131.747 96.7063,-123.06 120,-86 126.102,-76.2913 133.238,-65.925 139.667,-56.8974"/>
<polygon fill="black" stroke="black" points="142.554,-58.8774 145.558,-48.7174 136.874,-54.7866 142.554,-58.8774"/>
</g>
<!-- Node3 -->
<g id="node3" class="node"><title>Node3</title>
<g id="a_node3"><a xlink:title="शब्द, कोलाहल, गूँज, प्रतिध्वनि">
<polygon fill="none" stroke="blue" points="328.5,-576 273.5,-576 273.5,-540 328.5,-540 328.5,-576"/>
<text text-anchor="middle" x="301" y="-554.3" font-family="Times,serif" font-size="14.00">अनुनाद</text>
</a>
</g>
</g>
<!-- Node2&#45;&gt;Node3 -->
<g id="edge2" class="edge"><title>Node2&#45;&gt;Node3</title>
<path fill="none" stroke="black" d="M196.783,-558C217.204,-558 242.535,-558 262.991,-558"/>
<polygon fill="black" stroke="black" points="263.193,-561.5 273.193,-558 263.193,-554.5 263.193,-561.5"/>
<text text-anchor="middle" x="228" y="-561.8" font-family="Times,serif" font-size="14.00">घञ्</text>
</g>
<!-- Node5 -->
<g id="node5" class="node"><title>Node5</title>
<g id="a_node5"><a xlink:title="चिल्लाहट, दहाड़, गुंजन, चहचहाना">
<polygon fill="none" stroke="blue" points="328,-522 274,-522 274,-486 328,-486 328,-522"/>
<text text-anchor="middle" x="301" y="-500.3" font-family="Times,serif" font-size="14.00">उन्नाद</text>
</a>
</g>
</g>
<!-- Node4&#45;&gt;Node5 -->
<g id="edge4" class="edge"><title>Node4&#45;&gt;Node5</title>
<path fill="none" stroke="black" d="M195.69,-504C216.481,-504 242.637,-504 263.556,-504"/>
<polygon fill="black" stroke="black" points="263.659,-507.5 273.659,-504 263.659,-500.5 263.659,-507.5"/>
<text text-anchor="middle" x="228" y="-507.8" font-family="Times,serif" font-size="14.00">घञ्</text>
</g>
<!-- Node11 -->
<g id="node11" class="node"><title>Node11</title>
<g id="a_node11"><a xlink:title="भिन&#45;भिनाना, गुंजन करना मक्खियों का">
<polygon fill="none" stroke="blue" points="328,-360 274,-360 274,-324 328,-324 328,-360"/>
<text text-anchor="middle" x="301" y="-338.3" font-family="Times,serif" font-size="14.00">निनद</text>
</a>
</g>
</g>
<!-- Node10&#45;&gt;Node11 -->
<g id="edge10" class="edge"><title>Node10&#45;&gt;Node11</title>
<path fill="none" stroke="black" d="M181.288,-247.62C186.957,-251.643 192.914,-256.249 198,-261 207.232,-269.625 206.913,-274.223 216,-283 232.879,-299.304 238.781,-301.533 258,-315 260.329,-316.632 262.752,-318.29 265.205,-319.939"/>
<polygon fill="black" stroke="black" points="263.3,-322.876 273.573,-325.467 267.158,-317.035 263.3,-322.876"/>
<text text-anchor="middle" x="228" y="-305.8" font-family="Times,serif" font-size="14.00">अप्</text>
</g>
<!-- Node12 -->
<g id="node12" class="node"><title>Node12</title>
<g id="a_node12"><a xlink:title="भिन&#45;भिनाना, गुंजन करना मक्खियों का">
<polygon fill="none" stroke="blue" points="328,-306 274,-306 274,-270 328,-270 328,-306"/>
<text text-anchor="middle" x="301" y="-284.3" font-family="Times,serif" font-size="14.00">निनाद</text>
</a>
</g>
</g>
<!-- Node10&#45;&gt;Node12 -->
<g id="edge11" class="edge"><title>Node10&#45;&gt;Node12</title>
<path fill="none" stroke="black" d="M186.662,-244.284C208.697,-252.783 240.176,-264.925 264.369,-274.257"/>
<polygon fill="black" stroke="black" points="263.321,-277.604 273.911,-277.937 265.84,-271.073 263.321,-277.604"/>
<text text-anchor="middle" x="228" y="-267.8" font-family="Times,serif" font-size="14.00">घञ्</text>
</g>
<!-- Node16 -->
<g id="node16" class="node"><title>Node16</title>
<ellipse fill="none" stroke="red" cx="301" cy="-234" rx="42.7926" ry="18"/>
<text text-anchor="middle" x="301" y="-230.3" font-family="Times,serif" font-size="14.00">प्र_नि_नद्</text>
</g>
<!-- Node10&#45;&gt;Node16 -->
<g id="edge15" class="edge"><title>Node10&#45;&gt;Node16</title>
<path fill="none" stroke="black" d="M192.471,-234C208.896,-234 229.235,-234 247.789,-234"/>
<polygon fill="black" stroke="black" points="247.877,-237.5 257.877,-234 247.877,-230.5 247.877,-237.5"/>
</g>
<!-- Node14 -->
<g id="node14" class="node"><title>Node14</title>
<g id="a_node14"><a xlink:title="शब्द करना, आवाज करना, शब्द, ध्वनि">
<polygon fill="none" stroke="blue" points="328,-198 274,-198 274,-162 328,-162 328,-198"/>
<text text-anchor="middle" x="301" y="-176.3" font-family="Times,serif" font-size="14.00">प्रणदन</text>
</a>
</g>
</g>
<!-- Node13&#45;&gt;Node14 -->
<g id="edge13" class="edge"><title>Node13&#45;&gt;Node14</title>
<path fill="none" stroke="black" d="M189.69,-180C211.268,-180 240.597,-180 263.589,-180"/>
<polygon fill="black" stroke="black" points="263.657,-183.5 273.657,-180 263.657,-176.5 263.657,-183.5"/>
<text text-anchor="middle" x="228" y="-183.8" font-family="Times,serif" font-size="14.00">ल्युट्</text>
</g>
<!-- Node15 -->
<g id="node15" class="node"><title>Node15</title>
<g id="a_node15"><a xlink:title="ऊँची आवाज, चीत्कार, क्रंदन">
<polygon fill="none" stroke="blue" points="328,-144 274,-144 274,-108 328,-108 328,-144"/>
<text text-anchor="middle" x="301" y="-122.3" font-family="Times,serif" font-size="14.00">प्रणाद</text>
</a>
</g>
</g>
<!-- Node13&#45;&gt;Node15 -->
<g id="edge14" class="edge"><title>Node13&#45;&gt;Node15</title>
<path fill="none" stroke="black" d="M185.029,-170.346C207.109,-161.829 239.541,-149.32 264.334,-139.757"/>
<polygon fill="black" stroke="black" points="265.692,-142.985 273.762,-136.12 263.172,-136.454 265.692,-142.985"/>
<text text-anchor="middle" x="228" y="-161.8" font-family="Times,serif" font-size="14.00">घञ्</text>
</g>
<!-- Node17 -->
<g id="node17" class="node"><title>Node17</title>
<g id="a_node17"><a xlink:title="गहरी ध्वनि">
<polygon fill="none" stroke="blue" points="457.5,-252 400.5,-252 400.5,-216 457.5,-216 457.5,-252"/>
<text text-anchor="middle" x="429" y="-230.3" font-family="Times,serif" font-size="14.00">प्रणिनाद</text>
</a>
</g>
</g>
<!-- Node16&#45;&gt;Node17 -->
<g id="edge16" class="edge"><title>Node16&#45;&gt;Node17</title>
<path fill="none" stroke="black" d="M343.956,-234C358.934,-234 375.704,-234 390.302,-234"/>
<polygon fill="black" stroke="black" points="390.49,-237.5 400.49,-234 390.49,-230.5 390.49,-237.5"/>
<text text-anchor="middle" x="372" y="-237.8" font-family="Times,serif" font-size="14.00">घञ्</text>
</g>
<!-- Node19 -->
<g id="node19" class="node"><title>Node19</title>
<g id="a_node19"><a xlink:title="गूँज, प्रतिधवनि">
<polygon fill="none" stroke="blue" points="329,-90 273,-90 273,-54 329,-54 329,-90"/>
<text text-anchor="middle" x="301" y="-68.3" font-family="Times,serif" font-size="14.00">प्रतिनाद</text>
</a>
</g>
</g>
<!-- Node18&#45;&gt;Node19 -->
<g id="edge18" class="edge"><title>Node18&#45;&gt;Node19</title>
<path fill="none" stroke="black" d="M186.355,-100.385C195.578,-96.3264 206.104,-92.086 216,-89 230.973,-84.3306 247.858,-80.6242 262.542,-77.8795"/>
<polygon fill="black" stroke="black" points="263.556,-81.2538 272.786,-76.0508 262.326,-74.3627 263.556,-81.2538"/>
<text text-anchor="middle" x="228" y="-92.8" font-family="Times,serif" font-size="14.00">धञ्</text>
</g>
<!-- Node21 -->
<g id="node21" class="node"><title>Node21</title>
<g id="a_node21"><a xlink:title="ध्वनि, कोलाहल">
<polygon fill="none" stroke="blue" points="328,-36 274,-36 274,-0 328,-0 328,-36"/>
<text text-anchor="middle" x="301" y="-14.3" font-family="Times,serif" font-size="14.00">विनद</text>
</a>
</g>
</g>
<!-- Node20&#45;&gt;Node21 -->
<g id="edge20" class="edge"><title>Node20&#45;&gt;Node21</title>
<path fill="none" stroke="black" d="M191.071,-28.8929C212.49,-26.751 241.04,-23.896 263.537,-21.6463"/>
<polygon fill="black" stroke="black" points="264.116,-25.1059 273.718,-20.6282 263.42,-18.1407 264.116,-25.1059"/>
<text text-anchor="middle" x="228" y="-30.8" font-family="Times,serif" font-size="14.00">अच्</text>
</g>
</g>
</svg>
