<?xml version="1.0" encoding="UTF-8" standalone="no"?>
<!DOCTYPE svg PUBLIC "-//W3C//DTD SVG 1.1//EN"
 "http://www.w3.org/Graphics/SVG/1.1/DTD/svg11.dtd">
<!-- Generated by graphviz version 2.36.0 (20140111.2315)
 -->
<!-- Title: G Pages: 1 -->
<svg width="528pt" height="692pt"
 viewBox="0.00 0.00 528.00 692.00" xmlns="http://www.w3.org/2000/svg" xmlns:xlink="http://www.w3.org/1999/xlink">
<g id="graph0" class="graph" transform="scale(1 1) rotate(0) translate(4 688)">
<title>G</title>
<polygon fill="white" stroke="none" points="-4,4 -4,-688 524,-688 524,4 -4,4"/>
<!-- Node1 -->
<g id="node1" class="node"><title>Node1</title>
<ellipse fill="none" stroke="red" cx="27" cy="-180" rx="27" ry="18"/>
<text text-anchor="middle" x="27" y="-176.3" font-family="Times,serif" font-size="14.00">पट्</text>
</g>
<!-- Node2 -->
<g id="node2" class="node"><title>Node2</title>
<ellipse fill="none" stroke="red" cx="169" cy="-396" rx="40.0939" ry="18"/>
<text text-anchor="middle" x="169" y="-392.3" font-family="Times,serif" font-size="14.00">पट्+णिच्</text>
</g>
<!-- Node1&#45;&gt;Node2 -->
<g id="edge1" class="edge"><title>Node1&#45;&gt;Node2</title>
<path fill="none" stroke="black" d="M35.8562,-197.035C44.1334,-214.505 57.9017,-242.263 72,-265 95.8959,-303.538 127.654,-345.354 147.966,-371.122"/>
<polygon fill="black" stroke="black" points="145.431,-373.558 154.388,-379.217 150.915,-369.207 145.431,-373.558"/>
</g>
<!-- Node8 -->
<g id="node8" class="node"><title>Node8</title>
<g id="a_node8"><a xlink:title="छत, छप्पर, विनमितपटलातं दृश्यते जीर्णकुड्यम्#पुस्तक का अध्याय#वृक्ष">
<polygon fill="none" stroke="blue" points="196,-306 142,-306 142,-270 196,-270 196,-306"/>
<text text-anchor="middle" x="169" y="-284.3" font-family="Times,serif" font-size="14.00">पटल</text>
</a>
</g>
</g>
<!-- Node1&#45;&gt;Node8 -->
<g id="edge7" class="edge"><title>Node1&#45;&gt;Node8</title>
<path fill="none" stroke="black" d="M43.6243,-194.642C62.0829,-211.587 94.0752,-239.866 124,-261 126.869,-263.026 129.89,-265.065 132.951,-267.064"/>
<polygon fill="black" stroke="black" points="131.267,-270.141 141.583,-272.554 135.023,-264.234 131.267,-270.141"/>
<text text-anchor="middle" x="89" y="-249.8" font-family="Times,serif" font-size="14.00">कलच्</text>
</g>
<!-- Node9 -->
<g id="node9" class="node"><title>Node9</title>
<ellipse fill="none" stroke="red" cx="169" cy="-234" rx="44.6926" ry="18"/>
<text text-anchor="middle" x="169" y="-230.3" font-family="Times,serif" font-size="14.00">पट्+कलच्</text>
</g>
<!-- Node1&#45;&gt;Node9 -->
<g id="edge8" class="edge"><title>Node1&#45;&gt;Node9</title>
<path fill="none" stroke="black" d="M49.8286,-189.723C56.8697,-192.779 64.7325,-196.109 72,-199 89.2239,-205.852 108.381,-212.941 125.024,-218.933"/>
<polygon fill="black" stroke="black" points="123.904,-222.25 134.499,-222.324 126.263,-215.659 123.904,-222.25"/>
</g>
<!-- Node11 -->
<g id="node11" class="node"><title>Node11</title>
<g id="a_node11"><a xlink:title="रंगशाला का पर्दा">
<polygon fill="none" stroke="blue" points="196,-198 142,-198 142,-162 196,-162 196,-198"/>
<text text-anchor="middle" x="169" y="-176.3" font-family="Times,serif" font-size="14.00">पटि</text>
</a>
</g>
</g>
<!-- Node1&#45;&gt;Node11 -->
<g id="edge10" class="edge"><title>Node1&#45;&gt;Node11</title>
<path fill="none" stroke="black" d="M54.0048,-180C75.7717,-180 107.083,-180 131.385,-180"/>
<polygon fill="black" stroke="black" points="131.659,-183.5 141.659,-180 131.659,-176.5 131.659,-183.5"/>
<text text-anchor="middle" x="89" y="-183.8" font-family="Times,serif" font-size="14.00">इन्</text>
</g>
<!-- Node12 -->
<g id="node12" class="node"><title>Node12</title>
<g id="a_node12"><a xlink:title="कत्था#खेलने की गेंद, चंदन की लकड़ी">
<polygon fill="none" stroke="blue" points="196,-144 142,-144 142,-108 196,-108 196,-144"/>
<text text-anchor="middle" x="169" y="-122.3" font-family="Times,serif" font-size="14.00">पटीर</text>
</a>
</g>
</g>
<!-- Node1&#45;&gt;Node12 -->
<g id="edge11" class="edge"><title>Node1&#45;&gt;Node12</title>
<path fill="none" stroke="black" d="M49.8286,-170.277C56.8697,-167.221 64.7325,-163.891 72,-161 91.7492,-153.144 114.04,-144.975 132.168,-138.507"/>
<polygon fill="black" stroke="black" points="133.514,-141.743 141.768,-135.101 131.174,-135.146 133.514,-141.743"/>
<text text-anchor="middle" x="89" y="-164.8" font-family="Times,serif" font-size="14.00">ईरन्</text>
</g>
<!-- Node13 -->
<g id="node13" class="node"><title>Node13</title>
<g id="a_node13"><a xlink:title="एक प्रकार का कपड़ा#परमल, ककड़ी की जाति का">
<polygon fill="none" stroke="blue" points="196,-90 142,-90 142,-54 196,-54 196,-90"/>
<text text-anchor="middle" x="169" y="-68.3" font-family="Times,serif" font-size="14.00">पटोल</text>
</a>
</g>
</g>
<!-- Node1&#45;&gt;Node13 -->
<g id="edge12" class="edge"><title>Node1&#45;&gt;Node13</title>
<path fill="none" stroke="black" d="M39.9043,-163.62C48.1533,-152.969 59.8093,-139.214 72,-129 90.5141,-113.489 113.75,-99.5726 132.724,-89.3741"/>
<polygon fill="black" stroke="black" points="134.436,-92.4283 141.657,-84.6754 131.177,-86.233 134.436,-92.4283"/>
<text text-anchor="middle" x="89" y="-132.8" font-family="Times,serif" font-size="14.00">ओलच्</text>
</g>
<!-- Node14 -->
<g id="node14" class="node"><title>Node14</title>
<g id="a_node14"><a xlink:title="नगर">
<polygon fill="none" stroke="blue" points="196,-36 142,-36 142,-0 196,-0 196,-36"/>
<text text-anchor="middle" x="169" y="-14.3" font-family="Times,serif" font-size="14.00">पट्टन</text>
</a>
</g>
</g>
<!-- Node1&#45;&gt;Node14 -->
<g id="edge13" class="edge"><title>Node1&#45;&gt;Node14</title>
<path fill="none" stroke="black" d="M33.6927,-162.239C40.6078,-142.488 53.6655,-110.302 72,-87 88.3991,-66.1575 112.7,-48.7767 132.749,-36.6729"/>
<polygon fill="black" stroke="black" points="134.75,-39.5573 141.618,-31.4895 131.218,-33.5138 134.75,-39.5573"/>
<text text-anchor="middle" x="89" y="-90.8" font-family="Times,serif" font-size="14.00">तनप्</text>
</g>
<!-- Node3 -->
<g id="node3" class="node"><title>Node3</title>
<ellipse fill="none" stroke="red" cx="335" cy="-585" rx="55.4913" ry="18"/>
<text text-anchor="middle" x="335" y="-581.3" font-family="Times,serif" font-size="14.00">उद्_पट्+णिच्</text>
</g>
<!-- Node2&#45;&gt;Node3 -->
<g id="edge2" class="edge"><title>Node2&#45;&gt;Node3</title>
<path fill="none" stroke="black" d="M177.22,-413.795C191.66,-447.149 227.304,-519.196 280,-558 283.708,-560.731 287.734,-563.32 291.86,-565.735"/>
<polygon fill="black" stroke="black" points="290.515,-568.989 300.966,-570.732 293.883,-562.852 290.515,-568.989"/>
</g>
<!-- Node15 -->
<g id="node15" class="node"><title>Node15</title>
<g id="a_node15"><a xlink:title="विदारक, विभाजक">
<polygon fill="none" stroke="blue" points="362,-549 308,-549 308,-513 362,-513 362,-549"/>
<text text-anchor="middle" x="335" y="-527.3" font-family="Times,serif" font-size="14.00">पाटक</text>
</a>
</g>
</g>
<!-- Node2&#45;&gt;Node15 -->
<g id="edge14" class="edge"><title>Node2&#45;&gt;Node15</title>
<path fill="none" stroke="black" d="M183.725,-412.964C203.142,-436.075 240.67,-477.596 280,-504 285.847,-507.925 292.344,-511.65 298.748,-515.009"/>
<polygon fill="black" stroke="black" points="297.47,-518.284 307.976,-519.649 300.615,-512.03 297.47,-518.284"/>
<text text-anchor="middle" x="247" y="-492.8" font-family="Times,serif" font-size="14.00">ण्वुल्</text>
</g>
<!-- Node16 -->
<g id="node16" class="node"><title>Node16</title>
<g id="a_node16"><a xlink:title="विदीर्ण करना, तोड़ना, फाड़ना, नष्ट करना">
<polygon fill="none" stroke="blue" points="362,-495 308,-495 308,-459 362,-459 362,-495"/>
<text text-anchor="middle" x="335" y="-473.3" font-family="Times,serif" font-size="14.00">पाटन</text>
</a>
</g>
</g>
<!-- Node2&#45;&gt;Node16 -->
<g id="edge15" class="edge"><title>Node2&#45;&gt;Node16</title>
<path fill="none" stroke="black" d="M194.529,-409.966C205.84,-416.272 219.502,-423.703 232,-430 253.848,-441.007 278.781,-452.515 298.528,-461.388"/>
<polygon fill="black" stroke="black" points="297.211,-464.633 307.768,-465.519 300.067,-458.243 297.211,-464.633"/>
<text text-anchor="middle" x="247" y="-446.8" font-family="Times,serif" font-size="14.00">ल्युट्</text>
</g>
<!-- Node17 -->
<g id="node17" class="node"><title>Node17</title>
<g id="a_node17"><a xlink:title="पीतरक्त वर्ण, गुलाबी रंग अग्रे स्त्री नखपाटलमं कुरबकम्">
<polygon fill="none" stroke="blue" points="362,-441 308,-441 308,-405 362,-405 362,-441"/>
<text text-anchor="middle" x="335" y="-419.3" font-family="Times,serif" font-size="14.00">पाटल</text>
</a>
</g>
</g>
<!-- Node2&#45;&gt;Node17 -->
<g id="edge16" class="edge"><title>Node2&#45;&gt;Node17</title>
<path fill="none" stroke="black" d="M207.214,-402.127C234.329,-406.591 270.869,-412.606 297.755,-417.033"/>
<polygon fill="black" stroke="black" points="297.472,-420.533 307.908,-418.704 298.609,-413.626 297.472,-420.533"/>
<text text-anchor="middle" x="247" y="-414.8" font-family="Times,serif" font-size="14.00">कलच्</text>
</g>
<!-- Node18 -->
<g id="node18" class="node"><title>Node18</title>
<g id="a_node18"><a xlink:title="फाड़ा हुआ, चीरा हुआ, टुकड़े २ किया हुआ, तोड़ा हुआ">
<polygon fill="none" stroke="blue" points="362,-387 308,-387 308,-351 362,-351 362,-387"/>
<text text-anchor="middle" x="335" y="-365.3" font-family="Times,serif" font-size="14.00">पाटित</text>
</a>
</g>
</g>
<!-- Node2&#45;&gt;Node18 -->
<g id="edge17" class="edge"><title>Node2&#45;&gt;Node18</title>
<path fill="none" stroke="black" d="M207.214,-389.873C234.329,-385.409 270.869,-379.394 297.755,-374.967"/>
<polygon fill="black" stroke="black" points="298.609,-378.374 307.908,-373.296 297.472,-371.467 298.609,-378.374"/>
<text text-anchor="middle" x="247" y="-388.8" font-family="Times,serif" font-size="14.00">क्त</text>
</g>
<!-- Node19 -->
<g id="node19" class="node"><title>Node19</title>
<g id="a_node19"><a xlink:title="एक अव्यय जो बुलाने के लिए अर्थात् संबोधन के रूप में प्रयुक्त हो जाता है">
<polygon fill="none" stroke="blue" points="362,-333 308,-333 308,-297 362,-297 362,-333"/>
<text text-anchor="middle" x="335" y="-311.3" font-family="Times,serif" font-size="14.00">पाट्</text>
</a>
</g>
</g>
<!-- Node2&#45;&gt;Node19 -->
<g id="edge18" class="edge"><title>Node2&#45;&gt;Node19</title>
<path fill="none" stroke="black" d="M194.166,-381.688C205.52,-375.138 219.319,-367.422 232,-361 253.744,-349.988 278.675,-338.72 298.447,-330.093"/>
<polygon fill="black" stroke="black" points="299.918,-333.27 307.701,-326.083 297.134,-326.847 299.918,-333.27"/>
<text text-anchor="middle" x="247" y="-364.8" font-family="Times,serif" font-size="14.00">क्विप्</text>
</g>
<!-- Node20 -->
<g id="node20" class="node"><title>Node20</title>
<ellipse fill="none" stroke="red" cx="335" cy="-261" rx="51.9908" ry="18"/>
<text text-anchor="middle" x="335" y="-257.3" font-family="Times,serif" font-size="14.00">वि_पट्+णिच्</text>
</g>
<!-- Node2&#45;&gt;Node20 -->
<g id="edge19" class="edge"><title>Node2&#45;&gt;Node20</title>
<path fill="none" stroke="black" d="M184.281,-378.969C204.047,-356.151 241.662,-315.366 280,-288 284.002,-285.144 288.35,-282.427 292.783,-279.896"/>
<polygon fill="black" stroke="black" points="294.775,-282.798 301.919,-274.974 291.455,-276.636 294.775,-282.798"/>
</g>
<!-- Node4 -->
<g id="node4" class="node"><title>Node4</title>
<g id="a_node4"><a xlink:title="मूलोच्छेदन, उन्मूलन">
<polygon fill="none" stroke="blue" points="513,-684 459,-684 459,-648 513,-648 513,-684"/>
<text text-anchor="middle" x="486" y="-662.3" font-family="Times,serif" font-size="14.00">उत्पाट</text>
</a>
</g>
</g>
<!-- Node3&#45;&gt;Node4 -->
<g id="edge3" class="edge"><title>Node3&#45;&gt;Node4</title>
<path fill="none" stroke="black" d="M364.376,-600.426C388.697,-613.647 423.83,-632.746 449.912,-646.925"/>
<polygon fill="black" stroke="black" points="448.27,-650.016 458.727,-651.718 451.613,-643.866 448.27,-650.016"/>
<text text-anchor="middle" x="421" y="-640.8" font-family="Times,serif" font-size="14.00">घञ्</text>
</g>
<!-- Node5 -->
<g id="node5" class="node"><title>Node5</title>
<g id="a_node5"><a xlink:title="उखाड़ना, मूलोच्छेदन, उन्मूलन">
<polygon fill="none" stroke="blue" points="515,-630 457,-630 457,-594 515,-594 515,-630"/>
<text text-anchor="middle" x="486" y="-608.3" font-family="Times,serif" font-size="14.00">उत्पाटन</text>
</a>
</g>
</g>
<!-- Node3&#45;&gt;Node5 -->
<g id="edge4" class="edge"><title>Node3&#45;&gt;Node5</title>
<path fill="none" stroke="black" d="M383.554,-593.617C404.057,-597.332 427.707,-601.618 447.011,-605.116"/>
<polygon fill="black" stroke="black" points="446.491,-608.579 456.955,-606.918 447.739,-601.691 446.491,-608.579"/>
<text text-anchor="middle" x="421" y="-605.8" font-family="Times,serif" font-size="14.00">ल्युट्</text>
</g>
<!-- Node6 -->
<g id="node6" class="node"><title>Node6</title>
<g id="a_node6"><a xlink:title="वृक्ष की छाल, बहुधा समास के अन्त में प्रयुक्त">
<polygon fill="none" stroke="blue" points="520,-576 452,-576 452,-540 520,-540 520,-576"/>
<text text-anchor="middle" x="486" y="-554.3" font-family="Times,serif" font-size="14.00">उत्पाटिका</text>
</a>
</g>
</g>
<!-- Node3&#45;&gt;Node6 -->
<g id="edge5" class="edge"><title>Node3&#45;&gt;Node6</title>
<path fill="none" stroke="black" d="M383.554,-576.383C402.151,-573.013 423.338,-569.174 441.522,-565.879"/>
<polygon fill="black" stroke="black" points="442.343,-569.287 451.559,-564.06 441.095,-562.399 442.343,-569.287"/>
<text text-anchor="middle" x="421" y="-574.8" font-family="Times,serif" font-size="14.00">ण्वुल्</text>
</g>
<!-- Node7 -->
<g id="node7" class="node"><title>Node7</title>
<g id="a_node7"><a xlink:title="मूलोच्छेदन करने वाला, फाड़ने वाला, कीलोत्पाटीव वानरः">
<polygon fill="none" stroke="blue" points="517,-522 455,-522 455,-486 517,-486 517,-522"/>
<text text-anchor="middle" x="486" y="-500.3" font-family="Times,serif" font-size="14.00">उत्पाटिन्</text>
</a>
</g>
</g>
<!-- Node3&#45;&gt;Node7 -->
<g id="edge6" class="edge"><title>Node3&#45;&gt;Node7</title>
<path fill="none" stroke="black" d="M366.419,-570.145C374.152,-566.272 382.418,-562.047 390,-558 395.714,-554.95 422.362,-539.789 445.986,-526.306"/>
<polygon fill="black" stroke="black" points="447.894,-529.247 454.842,-521.249 444.423,-523.168 447.894,-529.247"/>
<text text-anchor="middle" x="421" y="-550.8" font-family="Times,serif" font-size="14.00">णिनि</text>
</g>
<!-- Node10 -->
<g id="node10" class="node"><title>Node10</title>
<g id="a_node10"><a xlink:title="वृक्ष">
<polygon fill="none" stroke="blue" points="362,-225 308,-225 308,-189 362,-189 362,-225"/>
<text text-anchor="middle" x="335" y="-203.3" font-family="Times,serif" font-size="14.00">पटली</text>
</a>
</g>
</g>
<!-- Node9&#45;&gt;Node10 -->
<g id="edge9" class="edge"><title>Node9&#45;&gt;Node10</title>
<path fill="none" stroke="black" d="M210.961,-227.256C237.644,-222.863 272.139,-217.184 297.812,-212.958"/>
<polygon fill="black" stroke="black" points="298.579,-216.379 307.878,-211.301 297.442,-209.472 298.579,-216.379"/>
<text text-anchor="middle" x="247" y="-226.8" font-family="Times,serif" font-size="14.00">ङीप्</text>
</g>
<!-- Node21 -->
<g id="node21" class="node"><title>Node21</title>
<g id="a_node21"><a xlink:title="खण्ड खण्ड करना, फाड़ कर खोलना">
<polygon fill="none" stroke="blue" points="513.5,-306 458.5,-306 458.5,-270 513.5,-270 513.5,-306"/>
<text text-anchor="middle" x="486" y="-284.3" font-family="Times,serif" font-size="14.00">विपाटन</text>
</a>
</g>
</g>
<!-- Node20&#45;&gt;Node21 -->
<g id="edge20" class="edge"><title>Node20&#45;&gt;Node21</title>
<path fill="none" stroke="black" d="M381.515,-269.248C402.941,-273.13 428.157,-277.7 448.333,-281.356"/>
<polygon fill="black" stroke="black" points="447.914,-284.837 458.378,-283.176 449.162,-277.949 447.914,-284.837"/>
<text text-anchor="middle" x="421" y="-281.8" font-family="Times,serif" font-size="14.00">ल्युट्</text>
</g>
<!-- Node22 -->
<g id="node22" class="node"><title>Node22</title>
<g id="a_node22"><a xlink:title="एक प्रकार का लंबा तीर">
<polygon fill="none" stroke="blue" points="513,-252 459,-252 459,-216 513,-216 513,-252"/>
<text text-anchor="middle" x="486" y="-230.3" font-family="Times,serif" font-size="14.00">विपाठ</text>
</a>
</g>
</g>
<!-- Node20&#45;&gt;Node22 -->
<g id="edge21" class="edge"><title>Node20&#45;&gt;Node22</title>
<path fill="none" stroke="black" d="M381.515,-252.752C403.087,-248.843 428.5,-244.238 448.744,-240.57"/>
<polygon fill="black" stroke="black" points="449.596,-243.973 458.812,-238.746 448.348,-237.085 449.596,-243.973"/>
<text text-anchor="middle" x="421" y="-250.8" font-family="Times,serif" font-size="14.00">ल्युट्</text>
</g>
</g>
</svg>
