<?xml version="1.0" encoding="UTF-8" standalone="no"?>
<!DOCTYPE svg PUBLIC "-//W3C//DTD SVG 1.1//EN"
 "http://www.w3.org/Graphics/SVG/1.1/DTD/svg11.dtd">
<!-- Generated by graphviz version 2.36.0 (20140111.2315)
 -->
<!-- Title: G Pages: 1 -->
<svg width="336pt" height="638pt"
 viewBox="0.00 0.00 336.00 638.00" xmlns="http://www.w3.org/2000/svg" xmlns:xlink="http://www.w3.org/1999/xlink">
<g id="graph0" class="graph" transform="scale(1 1) rotate(0) translate(4 634)">
<title>G</title>
<polygon fill="white" stroke="none" points="-4,4 -4,-634 332,-634 332,4 -4,4"/>
<!-- Node1 -->
<g id="node1" class="node"><title>Node1</title>
<ellipse fill="none" stroke="red" cx="27" cy="-315" rx="27" ry="18"/>
<text text-anchor="middle" x="27" y="-311.3" font-family="Times,serif" font-size="14.00">प्रथ्</text>
</g>
<!-- Node2 -->
<g id="node2" class="node"><title>Node2</title>
<ellipse fill="none" stroke="red" cx="160" cy="-612" rx="42.4939" ry="18"/>
<text text-anchor="middle" x="160" y="-608.3" font-family="Times,serif" font-size="14.00">अभि_प्रथ्</text>
</g>
<!-- Node1&#45;&gt;Node2 -->
<g id="edge1" class="edge"><title>Node1&#45;&gt;Node2</title>
<path fill="none" stroke="black" d="M28.5902,-333.145C30.4877,-371.714 38.4706,-463.886 72,-532 85.7751,-559.984 94.5338,-564.453 118,-585 120.501,-587.19 123.191,-589.339 125.955,-591.409"/>
<polygon fill="black" stroke="black" points="124.167,-594.431 134.353,-597.344 128.207,-588.714 124.167,-594.431"/>
</g>
<!-- Node4 -->
<g id="node4" class="node"><title>Node4</title>
<g id="a_node4"><a xlink:title="भिन्न, अलग, भिन्नतापूर्वक">
<polygon fill="none" stroke="blue" points="187,-576 133,-576 133,-540 187,-540 187,-576"/>
<text text-anchor="middle" x="160" y="-554.3" font-family="Times,serif" font-size="14.00">पृथक्</text>
</a>
</g>
</g>
<!-- Node1&#45;&gt;Node4 -->
<g id="edge3" class="edge"><title>Node1&#45;&gt;Node4</title>
<path fill="none" stroke="black" d="M30.5997,-332.906C35.4957,-363.116 47.8348,-425.552 72,-473 86.9315,-502.318 93.7329,-508.783 118,-531 120.122,-532.942 122.396,-534.842 124.747,-536.676"/>
<polygon fill="black" stroke="black" points="122.776,-539.57 132.92,-542.628 126.897,-533.912 122.776,-539.57"/>
<text text-anchor="middle" x="86" y="-516.8" font-family="Times,serif" font-size="14.00">अज्</text>
</g>
<!-- Node5 -->
<g id="node5" class="node"><title>Node5</title>
<g id="a_node5"><a xlink:title=", दे* पृथिवी">
<polygon fill="none" stroke="blue" points="187,-522 133,-522 133,-486 187,-486 187,-522"/>
<text text-anchor="middle" x="160" y="-500.3" font-family="Times,serif" font-size="14.00">पृथवी</text>
</a>
</g>
</g>
<!-- Node1&#45;&gt;Node5 -->
<g id="edge4" class="edge"><title>Node1&#45;&gt;Node5</title>
<path fill="none" stroke="black" d="M33.826,-332.513C45.3199,-364.766 73.7091,-434.169 118,-477 120.068,-479 122.303,-480.941 124.625,-482.805"/>
<polygon fill="black" stroke="black" points="122.623,-485.678 132.742,-488.817 126.789,-480.053 122.623,-485.678"/>
<text text-anchor="middle" x="86" y="-457.8" font-family="Times,serif" font-size="14.00">षवन्</text>
</g>
<!-- Node6 -->
<g id="node6" class="node"><title>Node6</title>
<ellipse fill="none" stroke="red" cx="160" cy="-450" rx="34.394" ry="18"/>
<text text-anchor="middle" x="160" y="-446.3" font-family="Times,serif" font-size="14.00">प्रथ्+क</text>
</g>
<!-- Node1&#45;&gt;Node6 -->
<g id="edge5" class="edge"><title>Node1&#45;&gt;Node6</title>
<path fill="none" stroke="black" d="M36.5978,-331.863C44.6205,-346.719 57.5062,-368.5 72,-385 89.5007,-404.923 96.6731,-407.24 118,-423 121.393,-425.507 125.007,-428.054 128.629,-430.532"/>
<polygon fill="black" stroke="black" points="126.74,-433.48 136.997,-436.137 130.636,-427.664 126.74,-433.48"/>
</g>
<!-- Node8 -->
<g id="node8" class="node"><title>Node8</title>
<g id="a_node8"><a xlink:title="पृथ्वी, कई ’पृथिवी’ भी लिखा जाता है">
<polygon fill="none" stroke="blue" points="187,-414 133,-414 133,-378 187,-378 187,-414"/>
<text text-anchor="middle" x="160" y="-392.3" font-family="Times,serif" font-size="14.00">पृथिवी</text>
</a>
</g>
</g>
<!-- Node1&#45;&gt;Node8 -->
<g id="edge7" class="edge"><title>Node1&#45;&gt;Node8</title>
<path fill="none" stroke="black" d="M44.6618,-328.906C52.6979,-335.342 62.6122,-342.895 72,-349 88.4819,-359.719 107.628,-370.253 123.757,-378.623"/>
<polygon fill="black" stroke="black" points="122.365,-381.843 132.861,-383.286 125.556,-375.612 122.365,-381.843"/>
<text text-anchor="middle" x="86" y="-369.8" font-family="Times,serif" font-size="14.00">षिंवन्</text>
</g>
<!-- Node9 -->
<g id="node9" class="node"><title>Node9</title>
<g id="a_node9"><a xlink:title="धातु के पूर्व उपसर्ग के रूप में लग कर निम्नांकित अर्थ है &#45; (क) की ओर, की दिशा में, (ख) वापिस, लौट कर, फिर, (ग) के विरुद्ध, के मुल्काबले में, विपरीत, (घ) ऊपर, घृणा, इस उपसर्ग से युक्त कुछ धातुओं को देखिए">
<polygon fill="none" stroke="blue" points="187,-360 133,-360 133,-324 187,-324 187,-360"/>
<text text-anchor="middle" x="160" y="-338.3" font-family="Times,serif" font-size="14.00">प्रति</text>
</a>
</g>
</g>
<!-- Node1&#45;&gt;Node9 -->
<g id="edge8" class="edge"><title>Node1&#45;&gt;Node9</title>
<path fill="none" stroke="black" d="M52.9484,-320.142C72.6869,-324.21 100.525,-329.948 122.728,-334.524"/>
<polygon fill="black" stroke="black" points="122.297,-338.009 132.798,-336.6 123.71,-331.153 122.297,-338.009"/>
<text text-anchor="middle" x="86" y="-333.8" font-family="Times,serif" font-size="14.00">डति</text>
</g>
<!-- Node10 -->
<g id="node10" class="node"><title>Node10</title>
<g id="a_node10"><a xlink:title="फैलाना, विस्तार करना">
<polygon fill="none" stroke="blue" points="187,-306 133,-306 133,-270 187,-270 187,-306"/>
<text text-anchor="middle" x="160" y="-284.3" font-family="Times,serif" font-size="14.00">प्रथन</text>
</a>
</g>
</g>
<!-- Node1&#45;&gt;Node10 -->
<g id="edge9" class="edge"><title>Node1&#45;&gt;Node10</title>
<path fill="none" stroke="black" d="M52.9484,-309.858C72.6869,-305.79 100.525,-300.052 122.728,-295.476"/>
<polygon fill="black" stroke="black" points="123.71,-298.847 132.798,-293.4 122.297,-291.991 123.71,-298.847"/>
<text text-anchor="middle" x="86" y="-309.8" font-family="Times,serif" font-size="14.00">ल्युट्</text>
</g>
<!-- Node11 -->
<g id="node11" class="node"><title>Node11</title>
<g id="a_node11"><a xlink:title="प्रथम पुरुष, =अन्य#प्रमुख, मुख्य, प्रधान, श्रेष्ठतम, बेजोड़, अनुपम">
<polygon fill="none" stroke="blue" points="187,-252 133,-252 133,-216 187,-216 187,-252"/>
<text text-anchor="middle" x="160" y="-230.3" font-family="Times,serif" font-size="14.00">प्रथम</text>
</a>
</g>
</g>
<!-- Node1&#45;&gt;Node11 -->
<g id="edge10" class="edge"><title>Node1&#45;&gt;Node11</title>
<path fill="none" stroke="black" d="M45.1567,-301.258C53.1329,-295.1 62.8581,-287.909 72,-282 88.5915,-271.275 107.75,-260.54 123.857,-251.95"/>
<polygon fill="black" stroke="black" points="125.734,-254.917 132.946,-247.156 122.468,-248.726 125.734,-254.917"/>
<text text-anchor="middle" x="86" y="-285.8" font-family="Times,serif" font-size="14.00">अमच्</text>
</g>
<!-- Node12 -->
<g id="node12" class="node"><title>Node12</title>
<g id="a_node12"><a xlink:title="कर्तृकारक">
<polygon fill="none" stroke="blue" points="187,-198 133,-198 133,-162 187,-162 187,-198"/>
<text text-anchor="middle" x="160" y="-176.3" font-family="Times,serif" font-size="14.00">प्रथमा</text>
</a>
</g>
</g>
<!-- Node1&#45;&gt;Node12 -->
<g id="edge11" class="edge"><title>Node1&#45;&gt;Node12</title>
<path fill="none" stroke="black" d="M37.3698,-298.18C45.6006,-284.09 58.3629,-263.804 72,-248 89.8918,-227.266 96.284,-223.687 118,-207 120.011,-205.455 122.108,-203.905 124.244,-202.371"/>
<polygon fill="black" stroke="black" points="126.36,-205.163 132.577,-196.584 122.367,-199.413 126.36,-205.163"/>
<text text-anchor="middle" x="86" y="-251.8" font-family="Times,serif" font-size="14.00">अमच्</text>
</g>
<!-- Node13 -->
<g id="node13" class="node"><title>Node13</title>
<g id="a_node13"><a xlink:title="बढ़ाया हुआ, विस्तार किया हुआ">
<polygon fill="none" stroke="blue" points="187,-144 133,-144 133,-108 187,-108 187,-144"/>
<text text-anchor="middle" x="160" y="-122.3" font-family="Times,serif" font-size="14.00">प्रथित</text>
</a>
</g>
</g>
<!-- Node1&#45;&gt;Node13 -->
<g id="edge12" class="edge"><title>Node1&#45;&gt;Node13</title>
<path fill="none" stroke="black" d="M32.7169,-297.373C39.3222,-274.483 52.7205,-233.817 72,-203 88.0153,-177.401 94.9964,-172.561 118,-153 119.988,-151.309 122.088,-149.636 124.243,-148.002"/>
<polygon fill="black" stroke="black" points="126.629,-150.598 132.718,-141.927 122.551,-144.908 126.629,-150.598"/>
<text text-anchor="middle" x="86" y="-206.8" font-family="Times,serif" font-size="14.00">क्त</text>
</g>
<!-- Node14 -->
<g id="node14" class="node"><title>Node14</title>
<g id="a_node14"><a xlink:title="व्यापक, दूर दूर तक फैला हुआ">
<polygon fill="none" stroke="blue" points="187,-90 133,-90 133,-54 187,-54 187,-90"/>
<text text-anchor="middle" x="160" y="-68.3" font-family="Times,serif" font-size="14.00">प्रथु</text>
</a>
</g>
</g>
<!-- Node1&#45;&gt;Node14 -->
<g id="edge13" class="edge"><title>Node1&#45;&gt;Node14</title>
<path fill="none" stroke="black" d="M30.1104,-296.766C34.3315,-265.38 45.7619,-199.816 72,-151 86.6083,-123.821 94.6896,-119.217 118,-99 119.972,-97.2898 122.059,-95.6024 124.205,-93.9569"/>
<polygon fill="black" stroke="black" points="126.597,-96.5471 132.658,-87.8573 122.5,-90.8706 126.597,-96.5471"/>
<text text-anchor="middle" x="86" y="-154.8" font-family="Times,serif" font-size="14.00">उण्</text>
</g>
<!-- Node15 -->
<g id="node15" class="node"><title>Node15</title>
<g id="a_node15"><a xlink:title="धातुओं के पूर्व उपसर्ग के रूप में लग कर इसका अर्थ है&#45;आगे, आगे का, सामने, आगे की ओर, पहले, दूर यथा प्रगम्, प्रस्था, प्रचुर, प्रया आदि">
<polygon fill="none" stroke="blue" points="187,-36 133,-36 133,-0 187,-0 187,-36"/>
<text text-anchor="middle" x="160" y="-14.3" font-family="Times,serif" font-size="14.00">प्र</text>
</a>
</g>
</g>
<!-- Node1&#45;&gt;Node15 -->
<g id="edge14" class="edge"><title>Node1&#45;&gt;Node15</title>
<path fill="none" stroke="black" d="M28.4385,-296.933C30.043,-258.089 37.4931,-164.595 72,-96 83.7002,-72.7416 105.536,-53.1992 124.403,-39.4926"/>
<polygon fill="black" stroke="black" points="126.624,-42.2105 132.816,-33.6133 122.615,-36.4727 126.624,-42.2105"/>
<text text-anchor="middle" x="86" y="-99.8" font-family="Times,serif" font-size="14.00">ड</text>
</g>
<!-- Node3 -->
<g id="node3" class="node"><title>Node3</title>
<g id="a_node3"><a xlink:title="फैलाना, विस्तार करना, ऊपर से डालना">
<polygon fill="none" stroke="blue" points="328,-630 262,-630 262,-594 328,-594 328,-630"/>
<text text-anchor="middle" x="295" y="-608.3" font-family="Times,serif" font-size="14.00">अभिप्रथन</text>
</a>
</g>
</g>
<!-- Node2&#45;&gt;Node3 -->
<g id="edge2" class="edge"><title>Node2&#45;&gt;Node3</title>
<path fill="none" stroke="black" d="M202.353,-612C218.116,-612 236.09,-612 251.92,-612"/>
<polygon fill="black" stroke="black" points="251.969,-615.5 261.969,-612 251.969,-608.5 251.969,-615.5"/>
<text text-anchor="middle" x="232" y="-615.8" font-family="Times,serif" font-size="14.00">ल्युट्</text>
</g>
<!-- Node7 -->
<g id="node7" class="node"><title>Node7</title>
<g id="a_node7"><a xlink:title="कनखजूरा">
<polygon fill="none" stroke="blue" points="322,-468 268,-468 268,-432 322,-432 322,-468"/>
<text text-anchor="middle" x="295" y="-446.3" font-family="Times,serif" font-size="14.00">पृथिका</text>
</a>
</g>
</g>
<!-- Node6&#45;&gt;Node7 -->
<g id="edge6" class="edge"><title>Node6&#45;&gt;Node7</title>
<path fill="none" stroke="black" d="M194.562,-450C213.739,-450 237.806,-450 257.46,-450"/>
<polygon fill="black" stroke="black" points="257.574,-453.5 267.574,-450 257.574,-446.5 257.574,-453.5"/>
<text text-anchor="middle" x="232" y="-453.8" font-family="Times,serif" font-size="14.00">क</text>
</g>
</g>
</svg>
