<?xml version="1.0" encoding="UTF-8" standalone="no"?>
<!DOCTYPE svg PUBLIC "-//W3C//DTD SVG 1.1//EN"
 "http://www.w3.org/Graphics/SVG/1.1/DTD/svg11.dtd">
<!-- Generated by graphviz version 2.36.0 (20140111.2315)
 -->
<!-- Title: G Pages: 1 -->
<svg width="302pt" height="152pt"
 viewBox="0.00 0.00 302.00 152.00" xmlns="http://www.w3.org/2000/svg" xmlns:xlink="http://www.w3.org/1999/xlink">
<g id="graph0" class="graph" transform="scale(1 1) rotate(0) translate(4 148)">
<title>G</title>
<polygon fill="white" stroke="none" points="-4,4 -4,-148 298,-148 298,4 -4,4"/>
<!-- Node1 -->
<g id="node1" class="node"><title>Node1</title>
<ellipse fill="none" stroke="red" cx="27" cy="-72" rx="27" ry="18"/>
<text text-anchor="middle" x="27" y="-68.3" font-family="Times,serif" font-size="14.00">प्यै</text>
</g>
<!-- Node2 -->
<g id="node2" class="node"><title>Node2</title>
<ellipse fill="none" stroke="red" cx="159" cy="-126" rx="33.2948" ry="18"/>
<text text-anchor="middle" x="159" y="-122.3" font-family="Times,serif" font-size="14.00">आ_प्यै</text>
</g>
<!-- Node1&#45;&gt;Node2 -->
<g id="edge1" class="edge"><title>Node1&#45;&gt;Node2</title>
<path fill="none" stroke="black" d="M49.8942,-81.5624C56.9388,-84.6102 64.7871,-87.9753 72,-91 88.6192,-97.9691 107.124,-105.526 122.699,-111.829"/>
<polygon fill="black" stroke="black" points="121.391,-115.075 131.974,-115.574 124.012,-108.584 121.391,-115.075"/>
</g>
<!-- Node4 -->
<g id="node4" class="node"><title>Node4</title>
<g id="a_node4"><a xlink:title="भरापूरा, स्थूल, मोटा, स्त्री*&#45; पीवरी">
<polygon fill="none" stroke="blue" points="186,-90 132,-90 132,-54 186,-54 186,-90"/>
<text text-anchor="middle" x="159" y="-68.3" font-family="Times,serif" font-size="14.00">पीवन्</text>
</a>
</g>
</g>
<!-- Node1&#45;&gt;Node4 -->
<g id="edge3" class="edge"><title>Node1&#45;&gt;Node4</title>
<path fill="none" stroke="black" d="M54.3074,-72C73.6901,-72 100.29,-72 121.695,-72"/>
<polygon fill="black" stroke="black" points="121.732,-75.5001 131.732,-72 121.732,-68.5001 121.732,-75.5001"/>
<text text-anchor="middle" x="90" y="-75.8" font-family="Times,serif" font-size="14.00">क्वनिप्</text>
</g>
<!-- Node5 -->
<g id="node5" class="node"><title>Node5</title>
<g id="a_node5"><a xlink:title="फूला हुआ मोटा">
<polygon fill="none" stroke="blue" points="186,-36 132,-36 132,-0 186,-0 186,-36"/>
<text text-anchor="middle" x="159" y="-14.3" font-family="Times,serif" font-size="14.00">पीवर</text>
</a>
</g>
</g>
<!-- Node1&#45;&gt;Node5 -->
<g id="edge4" class="edge"><title>Node1&#45;&gt;Node5</title>
<path fill="none" stroke="black" d="M49.8942,-62.4376C56.9388,-59.3898 64.7871,-56.0247 72,-53 88.6192,-46.0309 107.124,-38.4737 122.699,-32.1712"/>
<polygon fill="black" stroke="black" points="124.012,-35.4155 131.974,-28.4257 121.391,-28.9248 124.012,-35.4155"/>
<text text-anchor="middle" x="90" y="-56.8" font-family="Times,serif" font-size="14.00">ष्वरच्</text>
</g>
<!-- Node3 -->
<g id="node3" class="node"><title>Node3</title>
<g id="a_node3"><a xlink:title="ऐन, थन का अग्रभाग, आपीनभारोद्वहनप्रयत्नात्&#45;!रघु*२/१८#कुआँ, आपीनोऽन्धुः&#45;!सिद्धा*#बलवान, मोटा, सबल">
<polygon fill="none" stroke="blue" points="294,-144 240,-144 240,-108 294,-108 294,-144"/>
<text text-anchor="middle" x="267" y="-122.3" font-family="Times,serif" font-size="14.00">आपीन</text>
</a>
</g>
</g>
<!-- Node2&#45;&gt;Node3 -->
<g id="edge2" class="edge"><title>Node2&#45;&gt;Node3</title>
<path fill="none" stroke="black" d="M192.379,-126C204.152,-126 217.533,-126 229.628,-126"/>
<polygon fill="black" stroke="black" points="229.853,-129.5 239.853,-126 229.853,-122.5 229.853,-129.5"/>
<text text-anchor="middle" x="216" y="-129.8" font-family="Times,serif" font-size="14.00">क्त</text>
</g>
</g>
</svg>
