<?xml version="1.0" encoding="UTF-8" standalone="no"?>
<!DOCTYPE svg PUBLIC "-//W3C//DTD SVG 1.1//EN"
 "http://www.w3.org/Graphics/SVG/1.1/DTD/svg11.dtd">
<!-- Generated by graphviz version 2.36.0 (20140111.2315)
 -->
<!-- Title: G Pages: 1 -->
<svg width="342pt" height="395pt"
 viewBox="0.00 0.00 342.00 395.00" xmlns="http://www.w3.org/2000/svg" xmlns:xlink="http://www.w3.org/1999/xlink">
<g id="graph0" class="graph" transform="scale(1 1) rotate(0) translate(4 391)">
<title>G</title>
<polygon fill="white" stroke="none" points="-4,4 -4,-391 338,-391 338,4 -4,4"/>
<!-- Node1 -->
<g id="node1" class="node"><title>Node1</title>
<ellipse fill="none" stroke="red" cx="27" cy="-180" rx="27" ry="18"/>
<text text-anchor="middle" x="27" y="-176.3" font-family="Times,serif" font-size="14.00">राज्</text>
</g>
<!-- Node2 -->
<g id="node2" class="node"><title>Node2</title>
<ellipse fill="none" stroke="red" cx="166" cy="-342" rx="43.5923" ry="18"/>
<text text-anchor="middle" x="166" y="-338.3" font-family="Times,serif" font-size="14.00">अधि_राज्</text>
</g>
<!-- Node1&#45;&gt;Node2 -->
<g id="edge1" class="edge"><title>Node1&#45;&gt;Node2</title>
<path fill="none" stroke="black" d="M34.3956,-197.457C41.7585,-216.215 55.0485,-246.379 72,-269 90.1078,-293.164 98.0021,-296.672 122,-315 124.977,-317.274 128.151,-319.537 131.374,-321.73"/>
<polygon fill="black" stroke="black" points="129.638,-324.777 139.92,-327.331 133.475,-318.922 129.638,-324.777"/>
</g>
<!-- Node5 -->
<g id="node5" class="node"><title>Node5</title>
<g id="a_node5"><a xlink:title="सैनिक जाति का पुरूष, क्षत्रिय">
<polygon fill="none" stroke="blue" points="193,-306 139,-306 139,-270 193,-270 193,-306"/>
<text text-anchor="middle" x="166" y="-284.3" font-family="Times,serif" font-size="14.00">राजन्</text>
</a>
</g>
</g>
<!-- Node1&#45;&gt;Node5 -->
<g id="edge4" class="edge"><title>Node1&#45;&gt;Node5</title>
<path fill="none" stroke="black" d="M40.4988,-196.02C48.8157,-206.121 60.3238,-219.081 72,-229 92.1076,-246.082 99.7166,-246.874 122,-261 124.596,-262.646 127.283,-264.345 129.988,-266.051"/>
<polygon fill="black" stroke="black" points="128.271,-269.106 138.598,-271.472 132.001,-263.182 128.271,-269.106"/>
<text text-anchor="middle" x="88" y="-253.8" font-family="Times,serif" font-size="14.00">कनिन्</text>
</g>
<!-- Node6 -->
<g id="node6" class="node"><title>Node6</title>
<polygon fill="none" stroke="blue" points="193,-252 139,-252 139,-216 193,-216 193,-252"/>
<text text-anchor="middle" x="166" y="-230.3" font-family="Times,serif" font-size="14.00">राजि</text>
</g>
<!-- Node1&#45;&gt;Node6 -->
<g id="edge5" class="edge"><title>Node1&#45;&gt;Node6</title>
<path fill="none" stroke="black" d="M49.8467,-189.678C56.8888,-192.732 64.7476,-196.071 72,-199 90.7208,-206.56 111.761,-214.522 129.088,-220.939"/>
<polygon fill="black" stroke="black" points="128.221,-224.35 138.814,-224.524 130.642,-217.782 128.221,-224.35"/>
<text text-anchor="middle" x="88" y="-213.8" font-family="Times,serif" font-size="14.00">इन्</text>
</g>
<!-- Node7 -->
<g id="node7" class="node"><title>Node7</title>
<polygon fill="none" stroke="blue" points="193,-198 139,-198 139,-162 193,-162 193,-198"/>
<text text-anchor="middle" x="166" y="-176.3" font-family="Times,serif" font-size="14.00">राजिल</text>
</g>
<!-- Node1&#45;&gt;Node7 -->
<g id="edge6" class="edge"><title>Node1&#45;&gt;Node7</title>
<path fill="none" stroke="black" d="M54.0911,-180C75.0963,-180 104.873,-180 128.285,-180"/>
<polygon fill="black" stroke="black" points="128.539,-183.5 138.539,-180 128.539,-176.5 128.539,-183.5"/>
<text text-anchor="middle" x="88" y="-183.8" font-family="Times,serif" font-size="14.00">इलच्</text>
</g>
<!-- Node8 -->
<g id="node8" class="node"><title>Node8</title>
<g id="a_node8"><a xlink:title="कोई राष्ट्रीय या सार्वजनिक संकट#जिला, प्रदेश, देश, मण्डल जैसा कि ‘महाराष्ट्र’ में">
<polygon fill="none" stroke="blue" points="193,-144 139,-144 139,-108 193,-108 193,-144"/>
<text text-anchor="middle" x="166" y="-122.3" font-family="Times,serif" font-size="14.00">राष्ट्र</text>
</a>
</g>
</g>
<!-- Node1&#45;&gt;Node8 -->
<g id="edge7" class="edge"><title>Node1&#45;&gt;Node8</title>
<path fill="none" stroke="black" d="M49.8467,-170.322C56.8888,-167.268 64.7476,-163.929 72,-161 90.7208,-153.44 111.761,-145.478 129.088,-139.061"/>
<polygon fill="black" stroke="black" points="130.642,-142.218 138.814,-135.476 128.221,-135.65 130.642,-142.218"/>
<text text-anchor="middle" x="88" y="-164.8" font-family="Times,serif" font-size="14.00">ष्ट्रन्</text>
</g>
<!-- Node9 -->
<g id="node9" class="node"><title>Node9</title>
<ellipse fill="none" stroke="red" cx="166" cy="-72" rx="35.9954" ry="18"/>
<text text-anchor="middle" x="166" y="-68.3" font-family="Times,serif" font-size="14.00">वि_राज्</text>
</g>
<!-- Node1&#45;&gt;Node9 -->
<g id="edge8" class="edge"><title>Node1&#45;&gt;Node9</title>
<path fill="none" stroke="black" d="M43.3646,-165.487C61.5004,-148.662 92.8842,-120.496 122,-99 125.608,-96.3363 129.48,-93.6651 133.369,-91.0944"/>
<polygon fill="black" stroke="black" points="135.291,-94.0194 141.813,-85.6694 131.508,-88.13 135.291,-94.0194"/>
</g>
<!-- Node13 -->
<g id="node13" class="node"><title>Node13</title>
<g id="a_node13"><a xlink:title="सर्वोपरि प्रभु, विश्वराट्, विशेषतः वह जो अन्य राजाओं पर शासन करता हो तथा जिसने राजसूय यज्ञ का अनुष्ठान कर लिया है, येनेष्टं राजसूयेन मण्डलस्येश्वरश्च यः। शास्ति यश्चाज्ञया राज्ञः स सम्राट्&#45;अमरः">
<polygon fill="none" stroke="blue" points="193,-36 139,-36 139,-0 193,-0 193,-36"/>
<text text-anchor="middle" x="166" y="-14.3" font-family="Times,serif" font-size="14.00">सम्राज</text>
</a>
</g>
</g>
<!-- Node1&#45;&gt;Node13 -->
<g id="edge12" class="edge"><title>Node1&#45;&gt;Node13</title>
<path fill="none" stroke="black" d="M36.6292,-162.776C51.1526,-135.135 82.775,-80.3967 122,-45 124.632,-42.6249 127.498,-40.3296 130.46,-38.1477"/>
<polygon fill="black" stroke="black" points="132.68,-40.8697 138.947,-32.3269 128.72,-35.0971 132.68,-40.8697"/>
</g>
<!-- Node3 -->
<g id="node3" class="node"><title>Node3</title>
<g id="a_node3"><a xlink:title="प्रभुसत्ता प्राप्त या परमशासक, सम्राट, राजा, प्रधान, स्वामी">
<polygon fill="none" stroke="blue" points="334,-387 274,-387 274,-351 334,-351 334,-387"/>
<text text-anchor="middle" x="304" y="-365.3" font-family="Times,serif" font-size="14.00">अधिराज</text>
</a>
</g>
</g>
<!-- Node2&#45;&gt;Node3 -->
<g id="edge2" class="edge"><title>Node2&#45;&gt;Node3</title>
<path fill="none" stroke="black" d="M205.608,-349.665C223.811,-353.279 245.494,-357.583 263.775,-361.213"/>
<polygon fill="black" stroke="black" points="263.324,-364.691 273.814,-363.206 264.687,-357.825 263.324,-364.691"/>
<text text-anchor="middle" x="242" y="-362.8" font-family="Times,serif" font-size="14.00">क्विप्</text>
</g>
<!-- Node4 -->
<g id="node4" class="node"><title>Node4</title>
<polygon fill="none" stroke="blue" points="334,-333 274,-333 274,-297 334,-297 334,-333"/>
<text text-anchor="middle" x="304" y="-311.3" font-family="Times,serif" font-size="14.00">अधिराज्</text>
</g>
<!-- Node2&#45;&gt;Node4 -->
<g id="edge3" class="edge"><title>Node2&#45;&gt;Node4</title>
<path fill="none" stroke="black" d="M205.608,-334.335C223.811,-330.721 245.494,-326.417 263.775,-322.787"/>
<polygon fill="black" stroke="black" points="264.687,-326.175 273.814,-320.794 263.324,-319.309 264.687,-326.175"/>
<text text-anchor="middle" x="242" y="-332.8" font-family="Times,serif" font-size="14.00">क्विप्</text>
</g>
<!-- Node10 -->
<g id="node10" class="node"><title>Node10</title>
<g id="a_node10"><a xlink:title="सौन्दर्य, आभा">
<polygon fill="none" stroke="blue" points="331,-144 277,-144 277,-108 331,-108 331,-144"/>
<text text-anchor="middle" x="304" y="-122.3" font-family="Times,serif" font-size="14.00">विराज</text>
</a>
</g>
</g>
<!-- Node9&#45;&gt;Node10 -->
<g id="edge9" class="edge"><title>Node9&#45;&gt;Node10</title>
<path fill="none" stroke="black" d="M194.522,-82.9277C215.575,-91.2872 244.768,-102.878 267.567,-111.931"/>
<polygon fill="black" stroke="black" points="266.318,-115.201 276.904,-115.638 268.901,-108.695 266.318,-115.201"/>
<text text-anchor="middle" x="242" y="-109.8" font-family="Times,serif" font-size="14.00">क्विप्</text>
</g>
<!-- Node11 -->
<g id="node11" class="node"><title>Node11</title>
<g id="a_node11"><a xlink:title="देदीप्यमान, प्रकाशित">
<polygon fill="none" stroke="blue" points="334,-90 274,-90 274,-54 334,-54 334,-90"/>
<text text-anchor="middle" x="304" y="-68.3" font-family="Times,serif" font-size="14.00">विराजित</text>
</a>
</g>
</g>
<!-- Node9&#45;&gt;Node11 -->
<g id="edge10" class="edge"><title>Node9&#45;&gt;Node11</title>
<path fill="none" stroke="black" d="M202.023,-72C220.836,-72 244.093,-72 263.543,-72"/>
<polygon fill="black" stroke="black" points="263.613,-75.5001 273.613,-72 263.613,-68.5001 263.613,-75.5001"/>
<text text-anchor="middle" x="242" y="-75.8" font-family="Times,serif" font-size="14.00">क्त</text>
</g>
<!-- Node12 -->
<g id="node12" class="node"><title>Node12</title>
<g id="a_node12"><a xlink:title="सौन्दर्य, आभा">
<polygon fill="none" stroke="blue" points="331,-36 277,-36 277,-0 331,-0 331,-36"/>
<text text-anchor="middle" x="304" y="-14.3" font-family="Times,serif" font-size="14.00">विराज्</text>
</a>
</g>
</g>
<!-- Node9&#45;&gt;Node12 -->
<g id="edge11" class="edge"><title>Node9&#45;&gt;Node12</title>
<path fill="none" stroke="black" d="M194.522,-61.0723C215.575,-52.7128 244.768,-41.1216 267.567,-32.0692"/>
<polygon fill="black" stroke="black" points="268.901,-35.3052 276.904,-28.3618 266.318,-28.7992 268.901,-35.3052"/>
<text text-anchor="middle" x="242" y="-49.8" font-family="Times,serif" font-size="14.00">क्विप्</text>
</g>
</g>
</svg>
