<?xml version="1.0" encoding="UTF-8" standalone="no"?>
<!DOCTYPE svg PUBLIC "-//W3C//DTD SVG 1.1//EN"
 "http://www.w3.org/Graphics/SVG/1.1/DTD/svg11.dtd">
<!-- Generated by graphviz version 2.36.0 (20140111.2315)
 -->
<!-- Title: G Pages: 1 -->
<svg width="294pt" height="98pt"
 viewBox="0.00 0.00 294.00 98.00" xmlns="http://www.w3.org/2000/svg" xmlns:xlink="http://www.w3.org/1999/xlink">
<g id="graph0" class="graph" transform="scale(1 1) rotate(0) translate(4 94)">
<title>G</title>
<polygon fill="white" stroke="none" points="-4,4 -4,-94 290,-94 290,4 -4,4"/>
<!-- Node1 -->
<g id="node1" class="node"><title>Node1</title>
<ellipse fill="none" stroke="red" cx="27" cy="-45" rx="27" ry="18"/>
<text text-anchor="middle" x="27" y="-41.3" font-family="Times,serif" font-size="14.00">षु</text>
</g>
<!-- Node2 -->
<g id="node2" class="node"><title>Node2</title>
<ellipse fill="none" stroke="red" cx="127" cy="-45" rx="35.194" ry="18"/>
<text text-anchor="middle" x="127" y="-41.3" font-family="Times,serif" font-size="14.00">अभि_षु</text>
</g>
<!-- Node1&#45;&gt;Node2 -->
<g id="edge1" class="edge"><title>Node1&#45;&gt;Node2</title>
<path fill="none" stroke="black" d="M54.0049,-45C62.5,-45 72.1877,-45 81.6428,-45"/>
<polygon fill="black" stroke="black" points="81.7437,-48.5001 91.7437,-45 81.7437,-41.5001 81.7437,-48.5001"/>
</g>
<!-- Node3 -->
<g id="node3" class="node"><title>Node3</title>
<g id="a_node3"><a xlink:title="काञ्जी#सोमरस निचोड़ना">
<polygon fill="none" stroke="blue" points="281.5,-90 226.5,-90 226.5,-54 281.5,-54 281.5,-90"/>
<text text-anchor="middle" x="254" y="-68.3" font-family="Times,serif" font-size="14.00">अभिषव</text>
</a>
</g>
</g>
<!-- Node2&#45;&gt;Node3 -->
<g id="edge2" class="edge"><title>Node2&#45;&gt;Node3</title>
<path fill="none" stroke="black" d="M159.543,-51.8132C176.793,-55.5394 198.253,-60.1747 216.257,-64.0635"/>
<polygon fill="black" stroke="black" points="215.613,-67.5051 226.127,-66.1954 217.091,-60.6629 215.613,-67.5051"/>
<text text-anchor="middle" x="192" y="-63.8" font-family="Times,serif" font-size="14.00">अप्</text>
</g>
<!-- Node4 -->
<g id="node4" class="node"><title>Node4</title>
<g id="a_node4"><a xlink:title="स्नान">
<polygon fill="none" stroke="blue" points="286,-36 222,-36 222,-0 286,-0 286,-36"/>
<text text-anchor="middle" x="254" y="-14.3" font-family="Times,serif" font-size="14.00">अभिषवण</text>
</a>
</g>
</g>
<!-- Node2&#45;&gt;Node4 -->
<g id="edge3" class="edge"><title>Node2&#45;&gt;Node4</title>
<path fill="none" stroke="black" d="M159.543,-38.1868C175.355,-34.7714 194.703,-30.5921 211.685,-26.924"/>
<polygon fill="black" stroke="black" points="212.865,-30.25 221.9,-24.7175 211.387,-23.4078 212.865,-30.25"/>
<text text-anchor="middle" x="192" y="-36.8" font-family="Times,serif" font-size="14.00">ल्युट्</text>
</g>
</g>
</svg>
