<?xml version="1.0" encoding="UTF-8" standalone="no"?>
<!DOCTYPE svg PUBLIC "-//W3C//DTD SVG 1.1//EN"
 "http://www.w3.org/Graphics/SVG/1.1/DTD/svg11.dtd">
<!-- Generated by graphviz version 2.36.0 (20140111.2315)
 -->
<!-- Title: G Pages: 1 -->
<svg width="524pt" height="725pt"
 viewBox="0.00 0.00 524.00 725.00" xmlns="http://www.w3.org/2000/svg" xmlns:xlink="http://www.w3.org/1999/xlink">
<g id="graph0" class="graph" transform="scale(1 1) rotate(0) translate(4 721)">
<title>G</title>
<polygon fill="white" stroke="none" points="-4,4 -4,-721 520,-721 520,4 -4,4"/>
<!-- Node1 -->
<g id="node1" class="node"><title>Node1</title>
<ellipse fill="none" stroke="red" cx="27" cy="-288" rx="27" ry="18"/>
<text text-anchor="middle" x="27" y="-284.3" font-family="Times,serif" font-size="14.00">शप्</text>
</g>
<!-- Node2 -->
<g id="node2" class="node"><title>Node2</title>
<ellipse fill="none" stroke="red" cx="162" cy="-618" rx="41.6928" ry="18"/>
<text text-anchor="middle" x="162" y="-614.3" font-family="Times,serif" font-size="14.00">अभि_शप्</text>
</g>
<!-- Node1&#45;&gt;Node2 -->
<g id="edge1" class="edge"><title>Node1&#45;&gt;Node2</title>
<path fill="none" stroke="black" d="M31.5326,-305.798C37.8032,-335.921 52.1154,-398.594 72,-449 92.7112,-501.501 125.222,-558.892 144.689,-591.466"/>
<polygon fill="black" stroke="black" points="141.888,-593.6 150.048,-600.358 147.883,-589.986 141.888,-593.6"/>
</g>
<!-- Node5 -->
<g id="node5" class="node"><title>Node5</title>
<ellipse fill="none" stroke="red" cx="162" cy="-504" rx="41.6928" ry="18"/>
<text text-anchor="middle" x="162" y="-500.3" font-family="Times,serif" font-size="14.00">शप्+णिच्</text>
</g>
<!-- Node1&#45;&gt;Node5 -->
<g id="edge4" class="edge"><title>Node1&#45;&gt;Node5</title>
<path fill="none" stroke="black" d="M32.2502,-305.8C41.8476,-342.459 68.4811,-427.119 120,-477 122.388,-479.312 125,-481.546 127.712,-483.673"/>
<polygon fill="black" stroke="black" points="125.875,-486.664 136.026,-489.699 129.984,-480.996 125.875,-486.664"/>
</g>
<!-- Node9 -->
<g id="node9" class="node"><title>Node9</title>
<ellipse fill="none" stroke="red" cx="162" cy="-450" rx="39.7935" ry="18"/>
<text text-anchor="middle" x="162" y="-446.3" font-family="Times,serif" font-size="14.00">प्रति_शप्</text>
</g>
<!-- Node1&#45;&gt;Node9 -->
<g id="edge8" class="edge"><title>Node1&#45;&gt;Node9</title>
<path fill="none" stroke="black" d="M34.1752,-305.515C41.4345,-324.681 54.7172,-355.769 72,-379 89.2739,-402.219 97.1757,-405.207 120,-423 122.928,-425.283 126.047,-427.57 129.207,-429.795"/>
<polygon fill="black" stroke="black" points="127.329,-432.751 137.564,-435.491 131.272,-426.967 127.329,-432.751"/>
</g>
<!-- Node11 -->
<g id="node11" class="node"><title>Node11</title>
<g id="a_node11"><a xlink:title="कोसना">
<polygon fill="none" stroke="blue" points="189,-414 135,-414 135,-378 189,-378 189,-414"/>
<text text-anchor="middle" x="162" y="-392.3" font-family="Times,serif" font-size="14.00">शपथ</text>
</a>
</g>
</g>
<!-- Node1&#45;&gt;Node11 -->
<g id="edge10" class="edge"><title>Node1&#45;&gt;Node11</title>
<path fill="none" stroke="black" d="M40.1016,-303.876C48.4338,-314.241 60.1086,-327.71 72,-338 88.6263,-352.388 109.069,-365.954 126.167,-376.343"/>
<polygon fill="black" stroke="black" points="124.385,-379.355 134.766,-381.473 127.972,-373.344 124.385,-379.355"/>
<text text-anchor="middle" x="87" y="-363.8" font-family="Times,serif" font-size="14.00">अथन्</text>
</g>
<!-- Node12 -->
<g id="node12" class="node"><title>Node12</title>
<g id="a_node12"><a xlink:title="कोसना">
<polygon fill="none" stroke="blue" points="189,-360 135,-360 135,-324 189,-324 189,-360"/>
<text text-anchor="middle" x="162" y="-338.3" font-family="Times,serif" font-size="14.00">शपन</text>
</a>
</g>
</g>
<!-- Node1&#45;&gt;Node12 -->
<g id="edge11" class="edge"><title>Node1&#45;&gt;Node12</title>
<path fill="none" stroke="black" d="M49.8729,-297.614C56.9163,-300.664 64.7693,-304.018 72,-307 89.4141,-314.182 108.873,-321.872 125.145,-328.21"/>
<polygon fill="black" stroke="black" points="124.228,-331.608 134.817,-331.964 126.761,-325.083 124.228,-331.608"/>
<text text-anchor="middle" x="87" y="-322.8" font-family="Times,serif" font-size="14.00">ल्युट्</text>
</g>
<!-- Node13 -->
<g id="node13" class="node"><title>Node13</title>
<g id="a_node13"><a xlink:title="अभिशाप, सरापना, कोसना#शपथ, सौगन्ध">
<polygon fill="none" stroke="blue" points="189,-306 135,-306 135,-270 189,-270 189,-306"/>
<text text-anchor="middle" x="162" y="-284.3" font-family="Times,serif" font-size="14.00">शप</text>
</a>
</g>
</g>
<!-- Node1&#45;&gt;Node13 -->
<g id="edge12" class="edge"><title>Node1&#45;&gt;Node13</title>
<path fill="none" stroke="black" d="M54.2765,-288C74.4054,-288 102.41,-288 124.682,-288"/>
<polygon fill="black" stroke="black" points="124.778,-291.5 134.778,-288 124.778,-284.5 124.778,-291.5"/>
<text text-anchor="middle" x="87" y="-291.8" font-family="Times,serif" font-size="14.00">अच्</text>
</g>
<!-- Node14 -->
<g id="node14" class="node"><title>Node14</title>
<g id="a_node14"><a xlink:title="अभिशप्त">
<polygon fill="none" stroke="blue" points="189,-252 135,-252 135,-216 189,-216 189,-252"/>
<text text-anchor="middle" x="162" y="-230.3" font-family="Times,serif" font-size="14.00">शप्त</text>
</a>
</g>
</g>
<!-- Node1&#45;&gt;Node14 -->
<g id="edge13" class="edge"><title>Node1&#45;&gt;Node14</title>
<path fill="none" stroke="black" d="M49.8729,-278.386C56.9163,-275.336 64.7693,-271.982 72,-269 89.4141,-261.818 108.873,-254.128 125.145,-247.79"/>
<polygon fill="black" stroke="black" points="126.761,-250.917 134.817,-244.036 124.228,-244.392 126.761,-250.917"/>
<text text-anchor="middle" x="87" y="-272.8" font-family="Times,serif" font-size="14.00">क्त</text>
</g>
<!-- Node15 -->
<g id="node15" class="node"><title>Node15</title>
<g id="a_node15"><a xlink:title="सुम">
<polygon fill="none" stroke="blue" points="189,-198 135,-198 135,-162 189,-162 189,-198"/>
<text text-anchor="middle" x="162" y="-176.3" font-family="Times,serif" font-size="14.00">शफ</text>
</a>
</g>
</g>
<!-- Node1&#45;&gt;Node15 -->
<g id="edge14" class="edge"><title>Node1&#45;&gt;Node15</title>
<path fill="none" stroke="black" d="M40.5623,-272.054C48.9045,-261.983 60.417,-249.028 72,-239 91.3844,-222.218 98.6266,-221.162 120,-207 122.114,-205.599 124.29,-204.16 126.485,-202.709"/>
<polygon fill="black" stroke="black" points="128.54,-205.547 134.958,-197.118 124.684,-199.704 128.54,-205.547"/>
<text text-anchor="middle" x="87" y="-242.8" font-family="Times,serif" font-size="14.00">अच</text>
</g>
<!-- Node16 -->
<g id="node16" class="node"><title>Node16</title>
<g id="a_node16"><a xlink:title="सुम">
<polygon fill="none" stroke="blue" points="189,-144 135,-144 135,-108 189,-108 189,-144"/>
<text text-anchor="middle" x="162" y="-122.3" font-family="Times,serif" font-size="14.00">शफ</text>
</a>
</g>
</g>
<!-- Node1&#45;&gt;Node16 -->
<g id="edge15" class="edge"><title>Node1&#45;&gt;Node16</title>
<path fill="none" stroke="black" d="M34.7091,-270.506C42.2476,-252.024 55.6018,-222.501 72,-200 89.5851,-175.871 96.7578,-171.742 120,-153 122.032,-151.362 124.164,-149.729 126.344,-148.124"/>
<polygon fill="black" stroke="black" points="128.714,-150.736 134.875,-142.117 124.683,-145.012 128.714,-150.736"/>
<text text-anchor="middle" x="87" y="-203.8" font-family="Times,serif" font-size="14.00">अच्</text>
</g>
<!-- Node17 -->
<g id="node17" class="node"><title>Node17</title>
<g id="a_node17"><a xlink:title="धब्वेदार, रंग&#45;बिरंगा, चितकबरा">
<polygon fill="none" stroke="blue" points="189,-90 135,-90 135,-54 189,-54 189,-90"/>
<text text-anchor="middle" x="162" y="-68.3" font-family="Times,serif" font-size="14.00">शबल</text>
</a>
</g>
</g>
<!-- Node1&#45;&gt;Node17 -->
<g id="edge16" class="edge"><title>Node1&#45;&gt;Node17</title>
<path fill="none" stroke="black" d="M31.0087,-269.801C36.1645,-242.156 48.4817,-188.613 72,-149 85.2965,-126.604 107.419,-107.42 126.281,-93.8017"/>
<polygon fill="black" stroke="black" points="128.477,-96.5377 134.675,-87.9449 124.471,-90.7971 128.477,-96.5377"/>
<text text-anchor="middle" x="87" y="-152.8" font-family="Times,serif" font-size="14.00">अल</text>
</g>
<!-- Node18 -->
<g id="node18" class="node"><title>Node18</title>
<g id="a_node18"><a xlink:title="सौगन्ध, शपथोक्ति">
<polygon fill="none" stroke="blue" points="189,-36 135,-36 135,-0 189,-0 189,-36"/>
<text text-anchor="middle" x="162" y="-14.3" font-family="Times,serif" font-size="14.00">शाप</text>
</a>
</g>
</g>
<!-- Node1&#45;&gt;Node18 -->
<g id="edge17" class="edge"><title>Node1&#45;&gt;Node18</title>
<path fill="none" stroke="black" d="M28.9963,-269.969C31.6028,-234.613 40.7661,-154.531 72,-96 84.5546,-72.4734 107.256,-52.7529 126.589,-39.0265"/>
<polygon fill="black" stroke="black" points="128.631,-41.8702 134.906,-33.3337 124.677,-36.0936 128.631,-41.8702"/>
<text text-anchor="middle" x="87" y="-99.8" font-family="Times,serif" font-size="14.00">घञ्</text>
</g>
<!-- Node3 -->
<g id="node3" class="node"><title>Node3</title>
<g id="a_node3"><a xlink:title="शाप, किसी का बुरा मानना">
<polygon fill="none" stroke="blue" points="357.5,-717 292.5,-717 292.5,-681 357.5,-681 357.5,-717"/>
<text text-anchor="middle" x="325" y="-695.3" font-family="Times,serif" font-size="14.00">अभिशपन</text>
</a>
</g>
</g>
<!-- Node2&#45;&gt;Node3 -->
<g id="edge2" class="edge"><title>Node2&#45;&gt;Node3</title>
<path fill="none" stroke="black" d="M188.043,-632.08C208.314,-643.308 237.715,-659.216 264,-672 270.142,-674.988 276.689,-678.052 283.116,-680.996"/>
<polygon fill="black" stroke="black" points="281.832,-684.257 292.385,-685.198 284.722,-677.881 281.832,-684.257"/>
<text text-anchor="middle" x="234" y="-665.8" font-family="Times,serif" font-size="14.00">ल्युट्</text>
</g>
<!-- Node4 -->
<g id="node4" class="node"><title>Node4</title>
<g id="a_node4"><a xlink:title="शाप, किसी का बुरा मानना">
<polygon fill="none" stroke="blue" points="355.5,-663 294.5,-663 294.5,-627 355.5,-627 355.5,-663"/>
<text text-anchor="middle" x="325" y="-641.3" font-family="Times,serif" font-size="14.00">अभिशाप</text>
</a>
</g>
</g>
<!-- Node2&#45;&gt;Node4 -->
<g id="edge3" class="edge"><title>Node2&#45;&gt;Node4</title>
<path fill="none" stroke="black" d="M201.155,-624.399C226.245,-628.606 259.008,-634.101 284.388,-638.357"/>
<polygon fill="black" stroke="black" points="283.978,-641.837 294.419,-640.039 285.135,-634.933 283.978,-641.837"/>
<text text-anchor="middle" x="234" y="-634.8" font-family="Times,serif" font-size="14.00">घञ्</text>
</g>
<!-- Node8 -->
<g id="node8" class="node"><title>Node8</title>
<g id="a_node8"><a xlink:title="कोसना">
<polygon fill="none" stroke="blue" points="355.5,-609 294.5,-609 294.5,-573 355.5,-573 355.5,-609"/>
<text text-anchor="middle" x="325" y="-587.3" font-family="Times,serif" font-size="14.00">अभीशाप</text>
</a>
</g>
</g>
<!-- Node2&#45;&gt;Node8 -->
<g id="edge7" class="edge"><title>Node2&#45;&gt;Node8</title>
<path fill="none" stroke="black" d="M201.155,-611.601C226.245,-607.394 259.008,-601.899 284.388,-597.643"/>
<polygon fill="black" stroke="black" points="285.135,-601.067 294.419,-595.961 283.978,-594.163 285.135,-601.067"/>
<text text-anchor="middle" x="234" y="-610.8" font-family="Times,serif" font-size="14.00">घञ्</text>
</g>
<!-- Node6 -->
<g id="node6" class="node"><title>Node6</title>
<ellipse fill="none" stroke="red" cx="325" cy="-537" rx="61.1893" ry="18"/>
<text text-anchor="middle" x="325" y="-533.3" font-family="Times,serif" font-size="14.00">अभि_शप्+णिच्</text>
</g>
<!-- Node5&#45;&gt;Node6 -->
<g id="edge5" class="edge"><title>Node5&#45;&gt;Node6</title>
<path fill="none" stroke="black" d="M199.937,-511.571C219.011,-515.481 242.755,-520.347 264.35,-524.774"/>
<polygon fill="black" stroke="black" points="263.921,-528.258 274.42,-526.838 265.327,-521.401 263.921,-528.258"/>
</g>
<!-- Node19 -->
<g id="node19" class="node"><title>Node19</title>
<g id="a_node19"><a xlink:title="सौगन्ध से बंधा हुआ, शपथपूर्वक उक्त">
<polygon fill="none" stroke="blue" points="352,-501 298,-501 298,-465 352,-465 352,-501"/>
<text text-anchor="middle" x="325" y="-479.3" font-family="Times,serif" font-size="14.00">शापित</text>
</a>
</g>
</g>
<!-- Node5&#45;&gt;Node19 -->
<g id="edge18" class="edge"><title>Node5&#45;&gt;Node19</title>
<path fill="none" stroke="black" d="M202.03,-498.663C208.692,-497.765 215.543,-496.849 222,-496 243.904,-493.119 268.468,-489.986 288.001,-487.517"/>
<polygon fill="black" stroke="black" points="288.517,-490.98 298,-486.255 287.641,-484.035 288.517,-490.98"/>
<text text-anchor="middle" x="234" y="-499.8" font-family="Times,serif" font-size="14.00">क्त</text>
</g>
<!-- Node7 -->
<g id="node7" class="node"><title>Node7</title>
<g id="a_node7"><a xlink:title="शाप देना, कोसना">
<polygon fill="none" stroke="blue" points="515.5,-555 446.5,-555 446.5,-519 515.5,-519 515.5,-555"/>
<text text-anchor="middle" x="481" y="-533.3" font-family="Times,serif" font-size="14.00">अभिशापन</text>
</a>
</g>
</g>
<!-- Node6&#45;&gt;Node7 -->
<g id="edge6" class="edge"><title>Node6&#45;&gt;Node7</title>
<path fill="none" stroke="black" d="M386.423,-537C402.992,-537 420.635,-537 436.085,-537"/>
<polygon fill="black" stroke="black" points="436.39,-540.5 446.39,-537 436.39,-533.5 436.39,-540.5"/>
<text text-anchor="middle" x="416" y="-540.8" font-family="Times,serif" font-size="14.00">ल्युट्</text>
</g>
<!-- Node10 -->
<g id="node10" class="node"><title>Node10</title>
<g id="a_node10"><a xlink:title="शाप के बदले शाप, बदले में शाप">
<polygon fill="none" stroke="blue" points="354,-447 296,-447 296,-411 354,-411 354,-447"/>
<text text-anchor="middle" x="325" y="-425.3" font-family="Times,serif" font-size="14.00">प्रतिशाप</text>
</a>
</g>
</g>
<!-- Node9&#45;&gt;Node10 -->
<g id="edge9" class="edge"><title>Node9&#45;&gt;Node10</title>
<path fill="none" stroke="black" d="M200.341,-445.129C225.978,-441.786 259.905,-437.36 285.737,-433.991"/>
<polygon fill="black" stroke="black" points="286.447,-437.428 295.91,-432.664 285.541,-430.487 286.447,-437.428"/>
<text text-anchor="middle" x="234" y="-445.8" font-family="Times,serif" font-size="14.00">घञ्</text>
</g>
</g>
</svg>
