<?xml version="1.0" encoding="UTF-8" standalone="no"?>
<!DOCTYPE svg PUBLIC "-//W3C//DTD SVG 1.1//EN"
 "http://www.w3.org/Graphics/SVG/1.1/DTD/svg11.dtd">
<!-- Generated by graphviz version 2.36.0 (20140111.2315)
 -->
<!-- Title: G Pages: 1 -->
<svg width="318pt" height="422pt"
 viewBox="0.00 0.00 318.00 422.00" xmlns="http://www.w3.org/2000/svg" xmlns:xlink="http://www.w3.org/1999/xlink">
<g id="graph0" class="graph" transform="scale(1 1) rotate(0) translate(4 418)">
<title>G</title>
<polygon fill="white" stroke="none" points="-4,4 -4,-418 314,-418 314,4 -4,4"/>
<!-- Node1 -->
<g id="node1" class="node"><title>Node1</title>
<ellipse fill="none" stroke="red" cx="27" cy="-207" rx="27" ry="18"/>
<text text-anchor="middle" x="27" y="-203.3" font-family="Times,serif" font-size="14.00">शद्</text>
</g>
<!-- Node2 -->
<g id="node2" class="node"><title>Node2</title>
<ellipse fill="none" stroke="red" cx="148" cy="-396" rx="31.6951" ry="18"/>
<text text-anchor="middle" x="148" y="-392.3" font-family="Times,serif" font-size="14.00">प्र_शद्</text>
</g>
<!-- Node1&#45;&gt;Node2 -->
<g id="edge1" class="edge"><title>Node1&#45;&gt;Node2</title>
<path fill="none" stroke="black" d="M34.2237,-224.701C45.999,-256.362 73.9931,-323.615 114,-369 115.756,-370.992 117.668,-372.956 119.658,-374.861"/>
<polygon fill="black" stroke="black" points="117.743,-377.84 127.551,-381.847 122.382,-372.598 117.743,-377.84"/>
</g>
<!-- Node4 -->
<g id="node4" class="node"><title>Node4</title>
<ellipse fill="none" stroke="red" cx="148" cy="-342" rx="33.5952" ry="18"/>
<text text-anchor="middle" x="148" y="-338.3" font-family="Times,serif" font-size="14.00">वि_शद्</text>
</g>
<!-- Node1&#45;&gt;Node4 -->
<g id="edge3" class="edge"><title>Node1&#45;&gt;Node4</title>
<path fill="none" stroke="black" d="M37.2002,-223.986C45.4214,-238.478 58.2609,-259.523 72,-276 88.3136,-295.564 94.7996,-298.26 114,-315 116.002,-316.745 118.09,-318.531 120.202,-320.313"/>
<polygon fill="black" stroke="black" points="118.401,-323.367 128.329,-327.064 122.874,-317.982 118.401,-323.367"/>
</g>
<!-- Node6 -->
<g id="node6" class="node"><title>Node6</title>
<g id="a_node6"><a xlink:title="हाथी ।">
<polygon fill="none" stroke="blue" points="175,-306 121,-306 121,-270 175,-270 175,-306"/>
<text text-anchor="middle" x="148" y="-284.3" font-family="Times,serif" font-size="14.00">शत्रि</text>
</a>
</g>
</g>
<!-- Node1&#45;&gt;Node6 -->
<g id="edge5" class="edge"><title>Node1&#45;&gt;Node6</title>
<path fill="none" stroke="black" d="M44.7642,-221.125C52.8227,-227.708 62.7263,-235.504 72,-242 84.8078,-250.972 99.366,-260.124 112.226,-267.878"/>
<polygon fill="black" stroke="black" points="110.435,-270.885 120.816,-273.004 114.022,-264.874 110.435,-270.885"/>
<text text-anchor="middle" x="84" y="-260.8" font-family="Times,serif" font-size="14.00">त्रिप्</text>
</g>
<!-- Node7 -->
<g id="node7" class="node"><title>Node7</title>
<g id="a_node7"><a xlink:title="परास्त करने वाला, विनाशक, विजेता">
<polygon fill="none" stroke="blue" points="175,-252 121,-252 121,-216 175,-216 175,-252"/>
<text text-anchor="middle" x="148" y="-230.3" font-family="Times,serif" font-size="14.00">शत्रु</text>
</a>
</g>
</g>
<!-- Node1&#45;&gt;Node7 -->
<g id="edge6" class="edge"><title>Node1&#45;&gt;Node7</title>
<path fill="none" stroke="black" d="M52.9463,-212.66C69.7376,-216.47 92.1475,-221.554 110.881,-225.805"/>
<polygon fill="black" stroke="black" points="110.324,-229.267 120.85,-228.067 111.873,-222.441 110.324,-229.267"/>
<text text-anchor="middle" x="84" y="-226.8" font-family="Times,serif" font-size="14.00">त्रुन्</text>
</g>
<!-- Node8 -->
<g id="node8" class="node"><title>Node8</title>
<g id="a_node8"><a xlink:title="खाद्य, शाकभाजी ( फल मूल आदि ) ।">
<polygon fill="none" stroke="blue" points="175,-198 121,-198 121,-162 175,-162 175,-198"/>
<text text-anchor="middle" x="148" y="-176.3" font-family="Times,serif" font-size="14.00">शद</text>
</a>
</g>
</g>
<!-- Node1&#45;&gt;Node8 -->
<g id="edge7" class="edge"><title>Node1&#45;&gt;Node8</title>
<path fill="none" stroke="black" d="M52.9463,-201.34C69.7376,-197.53 92.1475,-192.446 110.881,-188.195"/>
<polygon fill="black" stroke="black" points="111.873,-191.559 120.85,-185.933 110.324,-184.733 111.873,-191.559"/>
<text text-anchor="middle" x="84" y="-200.8" font-family="Times,serif" font-size="14.00">अच्</text>
</g>
<!-- Node9 -->
<g id="node9" class="node"><title>Node9</title>
<g id="a_node9"><a xlink:title="हाथी">
<polygon fill="none" stroke="blue" points="175,-144 121,-144 121,-108 175,-108 175,-144"/>
<text text-anchor="middle" x="148" y="-122.3" font-family="Times,serif" font-size="14.00">शद्रि</text>
</a>
</g>
</g>
<!-- Node1&#45;&gt;Node9 -->
<g id="edge8" class="edge"><title>Node1&#45;&gt;Node9</title>
<path fill="none" stroke="black" d="M44.8427,-193.363C52.9185,-186.986 62.8139,-179.405 72,-173 84.9045,-164.003 99.4821,-154.686 112.331,-146.743"/>
<polygon fill="black" stroke="black" points="114.212,-149.695 120.908,-141.484 110.553,-143.727 114.212,-149.695"/>
<text text-anchor="middle" x="84" y="-176.8" font-family="Times,serif" font-size="14.00">क्रिन्</text>
</g>
<!-- Node10 -->
<g id="node10" class="node"><title>Node10</title>
<g id="a_node10"><a xlink:title="जाने वाला, गतिशील">
<polygon fill="none" stroke="blue" points="175,-90 121,-90 121,-54 175,-54 175,-90"/>
<text text-anchor="middle" x="148" y="-68.3" font-family="Times,serif" font-size="14.00">शद्रु</text>
</a>
</g>
</g>
<!-- Node1&#45;&gt;Node10 -->
<g id="edge9" class="edge"><title>Node1&#45;&gt;Node10</title>
<path fill="none" stroke="black" d="M37.556,-190.337C45.9003,-176.343 58.7248,-156.109 72,-140 88.5901,-119.869 94.5532,-116.387 114,-99 114.828,-98.2599 115.672,-97.5139 116.527,-96.7651"/>
<polygon fill="black" stroke="black" points="119.075,-99.1926 124.411,-90.0399 114.532,-93.8671 119.075,-99.1926"/>
<text text-anchor="middle" x="84" y="-143.8" font-family="Times,serif" font-size="14.00">रु</text>
</g>
<!-- Node11 -->
<g id="node11" class="node"><title>Node11</title>
<g id="a_node11"><a xlink:title="छोटी घास">
<polygon fill="none" stroke="blue" points="175,-36 121,-36 121,-0 175,-0 175,-36"/>
<text text-anchor="middle" x="148" y="-14.3" font-family="Times,serif" font-size="14.00">शाद</text>
</a>
</g>
</g>
<!-- Node1&#45;&gt;Node11 -->
<g id="edge10" class="edge"><title>Node1&#45;&gt;Node11</title>
<path fill="none" stroke="black" d="M33.3268,-189.102C40.4018,-166.688 54.1167,-127.525 72,-97 87.0174,-71.3671 93.0597,-66.073 114,-45 114.757,-44.2386 115.533,-43.4769 116.326,-42.7173"/>
<polygon fill="black" stroke="black" points="118.678,-45.3091 123.745,-36.0048 113.981,-40.1181 118.678,-45.3091"/>
<text text-anchor="middle" x="84" y="-100.8" font-family="Times,serif" font-size="14.00">घञ्</text>
</g>
<!-- Node3 -->
<g id="node3" class="node"><title>Node3</title>
<g id="a_node3"><a xlink:title="समुद्र, सागर">
<polygon fill="none" stroke="blue" points="309.5,-414 254.5,-414 254.5,-378 309.5,-378 309.5,-414"/>
<text text-anchor="middle" x="282" y="-392.3" font-family="Times,serif" font-size="14.00">प्रशत्त्वन्</text>
</a>
</g>
</g>
<!-- Node2&#45;&gt;Node3 -->
<g id="edge2" class="edge"><title>Node2&#45;&gt;Node3</title>
<path fill="none" stroke="black" d="M179.948,-396C199.156,-396 223.943,-396 244.161,-396"/>
<polygon fill="black" stroke="black" points="244.263,-399.5 254.263,-396 244.263,-392.5 244.263,-399.5"/>
<text text-anchor="middle" x="218" y="-399.8" font-family="Times,serif" font-size="14.00">क्वनिप्</text>
</g>
<!-- Node5 -->
<g id="node5" class="node"><title>Node5</title>
<g id="a_node5"><a xlink:title="स्वच्छ, पवित्र, निर्मल, विमल, विशुद्ध, योगनिद्रान्तविशबैः पावनैरवलोकनैः">
<polygon fill="none" stroke="blue" points="309,-360 255,-360 255,-324 309,-324 309,-360"/>
<text text-anchor="middle" x="282" y="-338.3" font-family="Times,serif" font-size="14.00">विशद</text>
</a>
</g>
</g>
<!-- Node4&#45;&gt;Node5 -->
<g id="edge4" class="edge"><title>Node4&#45;&gt;Node5</title>
<path fill="none" stroke="black" d="M181.969,-342C200.999,-342 224.966,-342 244.555,-342"/>
<polygon fill="black" stroke="black" points="244.639,-345.5 254.638,-342 244.638,-338.5 244.639,-345.5"/>
<text text-anchor="middle" x="218" y="-345.8" font-family="Times,serif" font-size="14.00">अच्</text>
</g>
</g>
</svg>
