<?xml version="1.0" encoding="UTF-8" standalone="no"?>
<!DOCTYPE svg PUBLIC "-//W3C//DTD SVG 1.1//EN"
 "http://www.w3.org/Graphics/SVG/1.1/DTD/svg11.dtd">
<!-- Generated by graphviz version 2.36.0 (20140111.2315)
 -->
<!-- Title: G Pages: 1 -->
<svg width="352pt" height="368pt"
 viewBox="0.00 0.00 352.00 368.00" xmlns="http://www.w3.org/2000/svg" xmlns:xlink="http://www.w3.org/1999/xlink">
<g id="graph0" class="graph" transform="scale(1 1) rotate(0) translate(4 364)">
<title>G</title>
<polygon fill="white" stroke="none" points="-4,4 -4,-364 348,-364 348,4 -4,4"/>
<!-- Node1 -->
<g id="node1" class="node"><title>Node1</title>
<ellipse fill="none" stroke="red" cx="27" cy="-153" rx="27" ry="18"/>
<text text-anchor="middle" x="27" y="-149.3" font-family="Times,serif" font-size="14.00">शुच्</text>
</g>
<!-- Node2 -->
<g id="node2" class="node"><title>Node2</title>
<ellipse fill="none" stroke="red" cx="170" cy="-288" rx="39.7935" ry="18"/>
<text text-anchor="middle" x="170" y="-284.3" font-family="Times,serif" font-size="14.00">अनु_शुच्</text>
</g>
<!-- Node1&#45;&gt;Node2 -->
<g id="edge1" class="edge"><title>Node1&#45;&gt;Node2</title>
<path fill="none" stroke="black" d="M38.7226,-169.241C47.1465,-181.512 59.5067,-198.491 72,-212 94.455,-236.28 101.684,-240.97 128,-261 130.954,-263.249 134.09,-265.514 137.261,-267.725"/>
<polygon fill="black" stroke="black" points="135.392,-270.686 145.632,-273.402 139.321,-264.893 135.392,-270.686"/>
</g>
<!-- Node5 -->
<g id="node5" class="node"><title>Node5</title>
<ellipse fill="none" stroke="red" cx="170" cy="-234" rx="42.4939" ry="18"/>
<text text-anchor="middle" x="170" y="-230.3" font-family="Times,serif" font-size="14.00">अभि_शुच्</text>
</g>
<!-- Node1&#45;&gt;Node5 -->
<g id="edge4" class="edge"><title>Node1&#45;&gt;Node5</title>
<path fill="none" stroke="black" d="M44.0518,-167.235C52.1135,-173.995 62.2255,-181.907 72,-188 90.0164,-199.23 111.204,-209.573 129.174,-217.596"/>
<polygon fill="black" stroke="black" points="128.221,-221 138.785,-221.805 131.029,-214.588 128.221,-221"/>
</g>
<!-- Node7 -->
<g id="node7" class="node"><title>Node7</title>
<g id="a_node7"><a xlink:title="अफसोस, रंज, दुःख, कष्ट, विलाप, रुदन, वेदना, श्लोकत्वमापद्यत यस्य शोकः">
<polygon fill="none" stroke="blue" points="197,-198 143,-198 143,-162 197,-162 197,-198"/>
<text text-anchor="middle" x="170" y="-176.3" font-family="Times,serif" font-size="14.00">शोक</text>
</a>
</g>
</g>
<!-- Node1&#45;&gt;Node7 -->
<g id="edge6" class="edge"><title>Node1&#45;&gt;Node7</title>
<path fill="none" stroke="black" d="M53.208,-157.827C75.3471,-162.066 107.82,-168.285 132.748,-173.058"/>
<polygon fill="black" stroke="black" points="132.095,-176.497 142.575,-174.94 133.411,-169.621 132.095,-176.497"/>
<text text-anchor="middle" x="91" y="-172.8" font-family="Times,serif" font-size="14.00">घञ्</text>
</g>
<!-- Node8 -->
<g id="node8" class="node"><title>Node8</title>
<g id="a_node8"><a xlink:title="रंज, अफसोस, विलाप">
<polygon fill="none" stroke="blue" points="197,-144 143,-144 143,-108 197,-108 197,-144"/>
<text text-anchor="middle" x="170" y="-122.3" font-family="Times,serif" font-size="14.00">शोचन</text>
</a>
</g>
</g>
<!-- Node1&#45;&gt;Node8 -->
<g id="edge7" class="edge"><title>Node1&#45;&gt;Node8</title>
<path fill="none" stroke="black" d="M52.621,-147.176C58.9249,-145.748 65.7025,-144.267 72,-143 92.1299,-138.951 114.721,-134.96 133.033,-131.863"/>
<polygon fill="black" stroke="black" points="133.712,-135.298 142.996,-130.195 132.556,-128.394 133.712,-135.298"/>
<text text-anchor="middle" x="91" y="-146.8" font-family="Times,serif" font-size="14.00">ल्युट्</text>
</g>
<!-- Node9 -->
<g id="node9" class="node"><title>Node9</title>
<g id="a_node9"><a xlink:title="विलाप करने योग्य, चिन्त्य, शोच्य, दुःखद">
<polygon fill="none" stroke="blue" points="199.5,-90 140.5,-90 140.5,-54 199.5,-54 199.5,-90"/>
<text text-anchor="middle" x="170" y="-68.3" font-family="Times,serif" font-size="14.00">शोचनीय</text>
</a>
</g>
</g>
<!-- Node1&#45;&gt;Node9 -->
<g id="edge8" class="edge"><title>Node1&#45;&gt;Node9</title>
<path fill="none" stroke="black" d="M43.5638,-138.642C51.6704,-131.595 61.9655,-123.292 72,-117 90.617,-105.327 112.755,-94.8279 131.179,-86.9129"/>
<polygon fill="black" stroke="black" points="132.577,-90.122 140.436,-83.0169 129.861,-83.6701 132.577,-90.122"/>
<text text-anchor="middle" x="91" y="-120.8" font-family="Times,serif" font-size="14.00">अनीयर्</text>
</g>
<!-- Node10 -->
<g id="node10" class="node"><title>Node10</title>
<g id="a_node10"><a xlink:title="शोचनीय, विलाप करने योग्य, चिन्तनीय, दयनीय">
<polygon fill="none" stroke="blue" points="197,-36 143,-36 143,-0 197,-0 197,-36"/>
<text text-anchor="middle" x="170" y="-14.3" font-family="Times,serif" font-size="14.00">शोच्य</text>
</a>
</g>
</g>
<!-- Node1&#45;&gt;Node10 -->
<g id="edge9" class="edge"><title>Node1&#45;&gt;Node10</title>
<path fill="none" stroke="black" d="M35.4437,-135.588C42.9419,-119.519 55.7194,-95.6918 72,-79 89.747,-60.8048 113.941,-45.5773 133.726,-34.8873"/>
<polygon fill="black" stroke="black" points="135.519,-37.899 142.751,-30.1561 132.269,-31.6992 135.519,-37.899"/>
<text text-anchor="middle" x="91" y="-82.8" font-family="Times,serif" font-size="14.00">ण्यत्</text>
</g>
<!-- Node3 -->
<g id="node3" class="node"><title>Node3</title>
<g id="a_node3"><a xlink:title="रंज, पश्चाताप, खेद, इसी अर्थ में अनुशुचितम्, अनुशोचितम्">
<polygon fill="none" stroke="blue" points="337.5,-360 278.5,-360 278.5,-324 337.5,-324 337.5,-360"/>
<text text-anchor="middle" x="308" y="-338.3" font-family="Times,serif" font-size="14.00">अनुशोक</text>
</a>
</g>
</g>
<!-- Node2&#45;&gt;Node3 -->
<g id="edge2" class="edge"><title>Node2&#45;&gt;Node3</title>
<path fill="none" stroke="black" d="M200.51,-299.717C220.563,-307.679 247.275,-318.286 268.929,-326.883"/>
<polygon fill="black" stroke="black" points="267.894,-330.238 278.48,-330.676 270.477,-323.732 267.894,-330.238"/>
<text text-anchor="middle" x="242" y="-322.8" font-family="Times,serif" font-size="14.00">घञ्</text>
</g>
<!-- Node4 -->
<g id="node4" class="node"><title>Node4</title>
<g id="a_node4"><a xlink:title="रंज, पश्चाताप, खेद">
<polygon fill="none" stroke="blue" points="341,-306 275,-306 275,-270 341,-270 341,-306"/>
<text text-anchor="middle" x="308" y="-284.3" font-family="Times,serif" font-size="14.00">अनुशोचन</text>
</a>
</g>
</g>
<!-- Node2&#45;&gt;Node4 -->
<g id="edge3" class="edge"><title>Node2&#45;&gt;Node4</title>
<path fill="none" stroke="black" d="M209.972,-288C227.002,-288 247.023,-288 264.441,-288"/>
<polygon fill="black" stroke="black" points="264.9,-291.5 274.9,-288 264.9,-284.5 264.9,-291.5"/>
<text text-anchor="middle" x="242" y="-291.8" font-family="Times,serif" font-size="14.00">ल्युट्</text>
</g>
<!-- Node6 -->
<g id="node6" class="node"><title>Node6</title>
<g id="a_node6"><a xlink:title="अत्यंत शोक या पीड़ा, कष्ट">
<polygon fill="none" stroke="blue" points="343.5,-252 272.5,-252 272.5,-216 343.5,-216 343.5,-252"/>
<text text-anchor="middle" x="308" y="-230.3" font-family="Times,serif" font-size="14.00">अभिशोचन</text>
</a>
</g>
</g>
<!-- Node5&#45;&gt;Node6 -->
<g id="edge5" class="edge"><title>Node5&#45;&gt;Node6</title>
<path fill="none" stroke="black" d="M212.543,-234C228.179,-234 246.025,-234 261.964,-234"/>
<polygon fill="black" stroke="black" points="262.12,-237.5 272.12,-234 262.12,-230.5 262.12,-237.5"/>
<text text-anchor="middle" x="242" y="-237.8" font-family="Times,serif" font-size="14.00">ल्युट्</text>
</g>
</g>
</svg>
