<?xml version="1.0" encoding="UTF-8" standalone="no"?>
<!DOCTYPE svg PUBLIC "-//W3C//DTD SVG 1.1//EN"
 "http://www.w3.org/Graphics/SVG/1.1/DTD/svg11.dtd">
<!-- Generated by graphviz version 2.36.0 (20140111.2315)
 -->
<!-- Title: G Pages: 1 -->
<svg width="748pt" height="692pt"
 viewBox="0.00 0.00 748.00 692.00" xmlns="http://www.w3.org/2000/svg" xmlns:xlink="http://www.w3.org/1999/xlink">
<g id="graph0" class="graph" transform="scale(1 1) rotate(0) translate(4 688)">
<title>G</title>
<polygon fill="white" stroke="none" points="-4,4 -4,-688 744,-688 744,4 -4,4"/>
<!-- Node1 -->
<g id="node1" class="node"><title>Node1</title>
<ellipse fill="none" stroke="red" cx="27" cy="-234" rx="27" ry="18"/>
<text text-anchor="middle" x="27" y="-230.3" font-family="Times,serif" font-size="14.00">श्वस्</text>
</g>
<!-- Node2 -->
<g id="node2" class="node"><title>Node2</title>
<ellipse fill="none" stroke="red" cx="156" cy="-585" rx="39.7935" ry="18"/>
<text text-anchor="middle" x="156" y="-581.3" font-family="Times,serif" font-size="14.00">आ_श्वस्</text>
</g>
<!-- Node1&#45;&gt;Node2 -->
<g id="edge1" class="edge"><title>Node1&#45;&gt;Node2</title>
<path fill="none" stroke="black" d="M32.7153,-251.823C44.1188,-294.157 74.8559,-403.805 110,-492 119.16,-514.986 131.515,-540.205 140.962,-558.576"/>
<polygon fill="black" stroke="black" points="137.888,-560.25 145.605,-567.51 144.099,-557.022 137.888,-560.25"/>
</g>
<!-- Node4 -->
<g id="node4" class="node"><title>Node4</title>
<ellipse fill="none" stroke="red" cx="156" cy="-465" rx="45.4919" ry="18"/>
<text text-anchor="middle" x="156" y="-461.3" font-family="Times,serif" font-size="14.00">श्वस्+णिच्</text>
</g>
<!-- Node1&#45;&gt;Node4 -->
<g id="edge3" class="edge"><title>Node1&#45;&gt;Node4</title>
<path fill="none" stroke="black" d="M35.6316,-251.27C49.312,-281.758 79.4459,-346.831 110,-399 118.065,-412.77 127.972,-427.496 136.435,-439.536"/>
<polygon fill="black" stroke="black" points="133.647,-441.656 142.295,-447.777 139.352,-437.599 133.647,-441.656"/>
</g>
<!-- Node7 -->
<g id="node7" class="node"><title>Node7</title>
<ellipse fill="none" stroke="red" cx="156" cy="-372" rx="40.8928" ry="18"/>
<text text-anchor="middle" x="156" y="-368.3" font-family="Times,serif" font-size="14.00">उद्_श्वस्</text>
</g>
<!-- Node1&#45;&gt;Node7 -->
<g id="edge6" class="edge"><title>Node1&#45;&gt;Node7</title>
<path fill="none" stroke="black" d="M42.0765,-249.296C64.0364,-273.158 106.634,-319.445 132.772,-347.847"/>
<polygon fill="black" stroke="black" points="130.33,-350.362 139.677,-355.35 135.481,-345.621 130.33,-350.362"/>
</g>
<!-- Node11 -->
<g id="node11" class="node"><title>Node11</title>
<ellipse fill="none" stroke="red" cx="156" cy="-288" rx="38.1938" ry="18"/>
<text text-anchor="middle" x="156" y="-284.3" font-family="Times,serif" font-size="14.00">नि_श्वस्</text>
</g>
<!-- Node1&#45;&gt;Node11 -->
<g id="edge10" class="edge"><title>Node1&#45;&gt;Node11</title>
<path fill="none" stroke="black" d="M50.1217,-243.406C68.6935,-251.303 95.6293,-262.756 117.553,-272.078"/>
<polygon fill="black" stroke="black" points="116.341,-275.365 126.913,-276.058 119.08,-268.924 116.341,-275.365"/>
</g>
<!-- Node15 -->
<g id="node15" class="node"><title>Node15</title>
<ellipse fill="none" stroke="red" cx="156" cy="-234" rx="37.8943" ry="18"/>
<text text-anchor="middle" x="156" y="-230.3" font-family="Times,serif" font-size="14.00">वि_श्वस्</text>
</g>
<!-- Node1&#45;&gt;Node15 -->
<g id="edge14" class="edge"><title>Node1&#45;&gt;Node15</title>
<path fill="none" stroke="black" d="M54.0068,-234C69.4873,-234 89.5996,-234 107.797,-234"/>
<polygon fill="black" stroke="black" points="107.953,-237.5 117.953,-234 107.953,-230.5 107.953,-237.5"/>
</g>
<!-- Node19 -->
<g id="node19" class="node"><title>Node19</title>
<g id="a_node19"><a xlink:title="आगामी कल संबन्धी या आगामी कल तक ठहरने वाला, एकदिवसीय, अल्पजीवी, शौवस्तिकी">
<polygon fill="none" stroke="blue" points="190,-198 122,-198 122,-162 190,-162 190,-198"/>
<text text-anchor="middle" x="156" y="-176.3" font-family="Times,serif" font-size="14.00">शौवस्तिक</text>
</a>
</g>
</g>
<!-- Node1&#45;&gt;Node19 -->
<g id="edge18" class="edge"><title>Node1&#45;&gt;Node19</title>
<path fill="none" stroke="black" d="M50.368,-224.297C57.2965,-221.303 64.9593,-218.005 72,-215 85.1947,-209.369 99.5907,-203.28 112.633,-197.783"/>
<polygon fill="black" stroke="black" points="113.996,-201.007 121.854,-193.901 111.279,-194.556 113.996,-201.007"/>
<text text-anchor="middle" x="82" y="-218.8" font-family="Times,serif" font-size="14.00">ठक्</text>
</g>
<!-- Node20 -->
<g id="node20" class="node"><title>Node20</title>
<g id="a_node20"><a xlink:title="हवा, वायु श्वसनसुरभिगन्धिः">
<polygon fill="none" stroke="blue" points="183,-144 129,-144 129,-108 183,-108 183,-144"/>
<text text-anchor="middle" x="156" y="-122.3" font-family="Times,serif" font-size="14.00">श्वसन</text>
</a>
</g>
</g>
<!-- Node1&#45;&gt;Node20 -->
<g id="edge19" class="edge"><title>Node1&#45;&gt;Node20</title>
<path fill="none" stroke="black" d="M41.5473,-218.555C57.068,-201.375 83.7552,-173.362 110,-153 113.149,-150.557 116.536,-148.16 119.988,-145.865"/>
<polygon fill="black" stroke="black" points="122.032,-148.714 128.603,-140.402 118.283,-142.802 122.032,-148.714"/>
</g>
<!-- Node21 -->
<g id="node21" class="node"><title>Node21</title>
<g id="a_node21"><a xlink:title="साँस लिया हुआ, आह भरी हुई#साँस लेना, साँस निकालना">
<polygon fill="none" stroke="blue" points="183,-90 129,-90 129,-54 183,-54 183,-90"/>
<text text-anchor="middle" x="156" y="-68.3" font-family="Times,serif" font-size="14.00">श्वसित</text>
</a>
</g>
</g>
<!-- Node1&#45;&gt;Node21 -->
<g id="edge20" class="edge"><title>Node1&#45;&gt;Node21</title>
<path fill="none" stroke="black" d="M34.7791,-216.502C46.3978,-188.477 72.5389,-133.21 110,-99 113.103,-96.1662 116.549,-93.477 120.113,-90.9724"/>
<polygon fill="black" stroke="black" points="122.072,-93.8737 128.539,-85.4819 118.25,-88.009 122.072,-93.8737"/>
<text text-anchor="middle" x="82" y="-145.8" font-family="Times,serif" font-size="14.00">क्त</text>
</g>
<!-- Node22 -->
<g id="node22" class="node"><title>Node22</title>
<g id="a_node22"><a xlink:title="साँस लेना, साँस, श्वासप्रश्वास क्रिया, ऊँचा साँस, अद्यापि स्तनवेपथुं जनयति श्वासः प्रमाणाधिकः">
<polygon fill="none" stroke="blue" points="183,-36 129,-36 129,-0 183,-0 183,-36"/>
<text text-anchor="middle" x="156" y="-14.3" font-family="Times,serif" font-size="14.00">श्वास</text>
</a>
</g>
</g>
<!-- Node1&#45;&gt;Node22 -->
<g id="edge21" class="edge"><title>Node1&#45;&gt;Node22</title>
<path fill="none" stroke="black" d="M30.9865,-215.977C38.0427,-178.9 59.1339,-93.5016 110,-45 113.116,-42.0293 116.614,-39.2354 120.248,-36.6542"/>
<polygon fill="black" stroke="black" points="122.396,-39.4318 128.856,-31.0346 118.569,-33.5702 122.396,-39.4318"/>
<text text-anchor="middle" x="82" y="-97.8" font-family="Times,serif" font-size="14.00">घञ्</text>
</g>
<!-- Node3 -->
<g id="node3" class="node"><title>Node3</title>
<g id="a_node3"><a xlink:title="सांस लेना, मुक्त श्वास लेना, चेतना लाभ">
<polygon fill="none" stroke="blue" points="364,-684 306,-684 306,-648 364,-648 364,-684"/>
<text text-anchor="middle" x="335" y="-662.3" font-family="Times,serif" font-size="14.00">आश्वास</text>
</a>
</g>
</g>
<!-- Node2&#45;&gt;Node3 -->
<g id="edge2" class="edge"><title>Node2&#45;&gt;Node3</title>
<path fill="none" stroke="black" d="M184.656,-597.656C214.744,-611.425 263.017,-633.516 296.502,-648.84"/>
<polygon fill="black" stroke="black" points="295.404,-652.187 305.954,-653.165 298.317,-645.821 295.404,-652.187"/>
<text text-anchor="middle" x="239" y="-633.8" font-family="Times,serif" font-size="14.00">घञ्</text>
</g>
<!-- Node13 -->
<g id="node13" class="node"><title>Node13</title>
<ellipse fill="none" stroke="red" cx="335" cy="-612" rx="57.3905" ry="18"/>
<text text-anchor="middle" x="335" y="-608.3" font-family="Times,serif" font-size="14.00">प्रति_आ_श्वस्</text>
</g>
<!-- Node2&#45;&gt;Node13 -->
<g id="edge12" class="edge"><title>Node2&#45;&gt;Node13</title>
<path fill="none" stroke="black" d="M194.105,-590.66C216.925,-594.141 246.723,-598.687 272.95,-602.687"/>
<polygon fill="black" stroke="black" points="272.768,-606.2 283.182,-604.248 273.824,-599.28 272.768,-606.2"/>
</g>
<!-- Node25 -->
<g id="node25" class="node"><title>Node25</title>
<ellipse fill="none" stroke="red" cx="335" cy="-558" rx="55.7903" ry="18"/>
<text text-anchor="middle" x="335" y="-554.3" font-family="Times,serif" font-size="14.00">सम्_आ_श्वस्</text>
</g>
<!-- Node2&#45;&gt;Node25 -->
<g id="edge24" class="edge"><title>Node2&#45;&gt;Node25</title>
<path fill="none" stroke="black" d="M194.105,-579.34C217.296,-575.802 247.693,-571.166 274.226,-567.118"/>
<polygon fill="black" stroke="black" points="274.824,-570.567 284.182,-565.599 273.769,-563.647 274.824,-570.567"/>
</g>
<!-- Node5 -->
<g id="node5" class="node"><title>Node5</title>
<ellipse fill="none" stroke="red" cx="335" cy="-504" rx="59.2899" ry="18"/>
<text text-anchor="middle" x="335" y="-500.3" font-family="Times,serif" font-size="14.00">आ_श्वस्+णिच्</text>
</g>
<!-- Node4&#45;&gt;Node5 -->
<g id="edge4" class="edge"><title>Node4&#45;&gt;Node5</title>
<path fill="none" stroke="black" d="M196.282,-473.655C219.943,-478.869 250.486,-485.599 276.795,-491.395"/>
<polygon fill="black" stroke="black" points="276.128,-494.832 286.647,-493.566 277.635,-487.996 276.128,-494.832"/>
</g>
<!-- Node6 -->
<g id="node6" class="node"><title>Node6</title>
<g id="a_node6"><a xlink:title="प्रोत्साहन, दिलासा, तसल्ली, तदिदं द्वितीयं हृदयाश्वासनम्">
<polygon fill="none" stroke="blue" points="563,-522 497,-522 497,-486 563,-486 563,-522"/>
<text text-anchor="middle" x="530" y="-500.3" font-family="Times,serif" font-size="14.00">आश्वासन</text>
</a>
</g>
</g>
<!-- Node5&#45;&gt;Node6 -->
<g id="edge5" class="edge"><title>Node5&#45;&gt;Node6</title>
<path fill="none" stroke="black" d="M394.168,-504C423.857,-504 459.327,-504 486.433,-504"/>
<polygon fill="black" stroke="black" points="486.753,-507.5 496.753,-504 486.753,-500.5 486.753,-507.5"/>
<text text-anchor="middle" x="424" y="-507.8" font-family="Times,serif" font-size="14.00">ल्युट्</text>
</g>
<!-- Node23 -->
<g id="node23" class="node"><title>Node23</title>
<ellipse fill="none" stroke="red" cx="530" cy="-450" rx="75.2868" ry="18"/>
<text text-anchor="middle" x="530" y="-446.3" font-family="Times,serif" font-size="14.00">सम्_आ_श्वस्+णिच्</text>
</g>
<!-- Node5&#45;&gt;Node23 -->
<g id="edge22" class="edge"><title>Node5&#45;&gt;Node23</title>
<path fill="none" stroke="black" d="M379.313,-491.881C406.273,-484.338 441.287,-474.542 470.671,-466.32"/>
<polygon fill="black" stroke="black" points="471.714,-469.663 480.401,-463.598 469.828,-462.922 471.714,-469.663"/>
</g>
<!-- Node8 -->
<g id="node8" class="node"><title>Node8</title>
<g id="a_node8"><a xlink:title="सांस लेना, आह भरना">
<polygon fill="none" stroke="blue" points="369,-468 301,-468 301,-432 369,-432 369,-468"/>
<text text-anchor="middle" x="335" y="-446.3" font-family="Times,serif" font-size="14.00">उच्छवसन</text>
</a>
</g>
</g>
<!-- Node7&#45;&gt;Node8 -->
<g id="edge7" class="edge"><title>Node7&#45;&gt;Node8</title>
<path fill="none" stroke="black" d="M182.136,-385.952C193.552,-392.083 207.313,-399.193 220,-405 243.154,-415.597 269.572,-426.121 291.143,-434.323"/>
<polygon fill="black" stroke="black" points="290.092,-437.667 300.684,-437.92 292.562,-431.117 290.092,-437.667"/>
<text text-anchor="middle" x="239" y="-424.8" font-family="Times,serif" font-size="14.00">ल्युट्</text>
</g>
<!-- Node9 -->
<g id="node9" class="node"><title>Node9</title>
<g id="a_node9"><a xlink:title="गहरी साँस लेना, सांस लेना, कर्तरि प्रयोग#सांस, प्राण, सा कुलपतेरुच्छ्वसितमिव">
<polygon fill="none" stroke="blue" points="366.5,-414 303.5,-414 303.5,-378 366.5,-378 366.5,-414"/>
<text text-anchor="middle" x="335" y="-392.3" font-family="Times,serif" font-size="14.00">उच्छ्वसित</text>
</a>
</g>
</g>
<!-- Node7&#45;&gt;Node9 -->
<g id="edge8" class="edge"><title>Node7&#45;&gt;Node9</title>
<path fill="none" stroke="black" d="M195.406,-377.208C224.329,-381.129 263.894,-386.494 293.348,-390.488"/>
<polygon fill="black" stroke="black" points="292.931,-393.963 303.311,-391.839 293.872,-387.027 292.931,-393.963"/>
<text text-anchor="middle" x="239" y="-389.8" font-family="Times,serif" font-size="14.00">क्त</text>
</g>
<!-- Node10 -->
<g id="node10" class="node"><title>Node10</title>
<g id="a_node10"><a xlink:title="सांस, सांस अन्दर खींचना, सांस बाहर निकालना, मुखोच्छ्वासगन्धम्">
<polygon fill="none" stroke="blue" points="362.5,-360 307.5,-360 307.5,-324 362.5,-324 362.5,-360"/>
<text text-anchor="middle" x="335" y="-338.3" font-family="Times,serif" font-size="14.00">उच्छ्वास</text>
</a>
</g>
</g>
<!-- Node7&#45;&gt;Node10 -->
<g id="edge9" class="edge"><title>Node7&#45;&gt;Node10</title>
<path fill="none" stroke="black" d="M194.537,-365.638C224.856,-360.499 267.28,-353.308 297.358,-348.211"/>
<polygon fill="black" stroke="black" points="298.167,-351.623 307.441,-346.501 296.997,-344.722 298.167,-351.623"/>
<text text-anchor="middle" x="239" y="-364.8" font-family="Times,serif" font-size="14.00">घञ्</text>
</g>
<!-- Node12 -->
<g id="node12" class="node"><title>Node12</title>
<g id="a_node12"><a xlink:title="साँस खींचना, साँस लेना, आह भरना, तु* ’निः&#45;श्वास’">
<polygon fill="none" stroke="blue" points="363,-306 307,-306 307,-270 363,-270 363,-306"/>
<text text-anchor="middle" x="335" y="-284.3" font-family="Times,serif" font-size="14.00">निश्वास</text>
</a>
</g>
</g>
<!-- Node11&#45;&gt;Node12 -->
<g id="edge11" class="edge"><title>Node11&#45;&gt;Node12</title>
<path fill="none" stroke="black" d="M194.537,-288C224.675,-288 266.773,-288 296.816,-288"/>
<polygon fill="black" stroke="black" points="296.901,-291.5 306.901,-288 296.901,-284.5 296.901,-291.5"/>
<text text-anchor="middle" x="239" y="-291.8" font-family="Times,serif" font-size="14.00">घञ्</text>
</g>
<!-- Node14 -->
<g id="node14" class="node"><title>Node14</title>
<g id="a_node14"><a xlink:title="फिर से सांस लेना, फिर लौट आना, फिर चलने लगना, सांस का">
<polygon fill="none" stroke="blue" points="564.5,-630 495.5,-630 495.5,-594 564.5,-594 564.5,-630"/>
<text text-anchor="middle" x="530" y="-608.3" font-family="Times,serif" font-size="14.00">प्रत्याश्वास</text>
</a>
</g>
</g>
<!-- Node13&#45;&gt;Node14 -->
<g id="edge13" class="edge"><title>Node13&#45;&gt;Node14</title>
<path fill="none" stroke="black" d="M392.342,-612C421.94,-612 457.672,-612 485.174,-612"/>
<polygon fill="black" stroke="black" points="485.282,-615.5 495.282,-612 485.282,-608.5 485.282,-615.5"/>
<text text-anchor="middle" x="424" y="-615.8" font-family="Times,serif" font-size="14.00">घञ्</text>
</g>
<!-- Node16 -->
<g id="node16" class="node"><title>Node16</title>
<g id="a_node16"><a xlink:title="विश्वास किये जाने के योग्य, विश्वासपात्र, जिस पर भरोसा किया जा सके">
<polygon fill="none" stroke="blue" points="370.5,-252 299.5,-252 299.5,-216 370.5,-216 370.5,-252"/>
<text text-anchor="middle" x="335" y="-230.3" font-family="Times,serif" font-size="14.00">विश्वसनीय</text>
</a>
</g>
</g>
<!-- Node15&#45;&gt;Node16 -->
<g id="edge15" class="edge"><title>Node15&#45;&gt;Node16</title>
<path fill="none" stroke="black" d="M194.105,-234C221.853,-234 259.917,-234 289.335,-234"/>
<polygon fill="black" stroke="black" points="289.349,-237.5 299.349,-234 289.349,-230.5 289.349,-237.5"/>
<text text-anchor="middle" x="239" y="-237.8" font-family="Times,serif" font-size="14.00">अनीयर्</text>
</g>
<!-- Node17 -->
<g id="node17" class="node"><title>Node17</title>
<g id="a_node17"><a xlink:title="जिस पर विश्वास किया गया है, निष्ठ, जिस पर भरोसा किया गया है">
<polygon fill="none" stroke="blue" points="363.5,-198 306.5,-198 306.5,-162 363.5,-162 363.5,-198"/>
<text text-anchor="middle" x="335" y="-176.3" font-family="Times,serif" font-size="14.00">विश्वस्त</text>
</a>
</g>
</g>
<!-- Node15&#45;&gt;Node17 -->
<g id="edge16" class="edge"><title>Node15&#45;&gt;Node17</title>
<path fill="none" stroke="black" d="M188.237,-224.47C218.416,-215.263 264.164,-201.306 296.342,-191.489"/>
<polygon fill="black" stroke="black" points="297.733,-194.724 306.276,-188.458 295.69,-188.029 297.733,-194.724"/>
<text text-anchor="middle" x="239" y="-217.8" font-family="Times,serif" font-size="14.00">क्त</text>
</g>
<!-- Node18 -->
<g id="node18" class="node"><title>Node18</title>
<g id="a_node18"><a xlink:title="भरोसा, प्रत्यय, निष्ठा, विश्रम्भ, दुर्जनः प्रियवादीति नैतद्विश्वादकारणम्">
<polygon fill="none" stroke="blue" points="362.5,-144 307.5,-144 307.5,-108 362.5,-108 362.5,-144"/>
<text text-anchor="middle" x="335" y="-122.3" font-family="Times,serif" font-size="14.00">विश्वास</text>
</a>
</g>
</g>
<!-- Node15&#45;&gt;Node18 -->
<g id="edge17" class="edge"><title>Node15&#45;&gt;Node18</title>
<path fill="none" stroke="black" d="M182.334,-220.872C189.048,-216.852 196.072,-212.124 202,-207 211.558,-198.739 210.355,-193.159 220,-185 241.886,-166.487 250.539,-166.171 276,-153 283.075,-149.34 290.738,-145.611 298.104,-142.14"/>
<polygon fill="black" stroke="black" points="299.618,-145.296 307.21,-137.905 296.666,-138.949 299.618,-145.296"/>
<text text-anchor="middle" x="239" y="-188.8" font-family="Times,serif" font-size="14.00">घञ्</text>
</g>
<!-- Node24 -->
<g id="node24" class="node"><title>Node24</title>
<g id="a_node24"><a xlink:title="पुनर्जीवित करना, प्रोत्साहन, आराम देना">
<polygon fill="none" stroke="blue" points="740,-468 666,-468 666,-432 740,-432 740,-468"/>
<text text-anchor="middle" x="703" y="-446.3" font-family="Times,serif" font-size="14.00">समाश्वासन</text>
</a>
</g>
</g>
<!-- Node23&#45;&gt;Node24 -->
<g id="edge23" class="edge"><title>Node23&#45;&gt;Node24</title>
<path fill="none" stroke="black" d="M605.506,-450C622.471,-450 640.024,-450 655.431,-450"/>
<polygon fill="black" stroke="black" points="655.722,-453.5 665.722,-450 655.722,-446.5 655.722,-453.5"/>
<text text-anchor="middle" x="636" y="-453.8" font-family="Times,serif" font-size="14.00">ल्युट्</text>
</g>
<!-- Node26 -->
<g id="node26" class="node"><title>Node26</title>
<g id="a_node26"><a xlink:title="जी में जी आना, आराम की सांस लेना">
<polygon fill="none" stroke="blue" points="562.5,-576 497.5,-576 497.5,-540 562.5,-540 562.5,-576"/>
<text text-anchor="middle" x="530" y="-554.3" font-family="Times,serif" font-size="14.00">समाश्वास</text>
</a>
</g>
</g>
<!-- Node25&#45;&gt;Node26 -->
<g id="edge25" class="edge"><title>Node25&#45;&gt;Node26</title>
<path fill="none" stroke="black" d="M391.048,-558C421.576,-558 458.937,-558 487.075,-558"/>
<polygon fill="black" stroke="black" points="487.374,-561.5 497.374,-558 487.374,-554.5 487.374,-561.5"/>
<text text-anchor="middle" x="424" y="-561.8" font-family="Times,serif" font-size="14.00">घञ्</text>
</g>
</g>
</svg>
