<?xml version="1.0" encoding="UTF-8" standalone="no"?>
<!DOCTYPE svg PUBLIC "-//W3C//DTD SVG 1.1//EN"
 "http://www.w3.org/Graphics/SVG/1.1/DTD/svg11.dtd">
<!-- Generated by graphviz version 2.36.0 (20140111.2315)
 -->
<!-- Title: G Pages: 1 -->
<svg width="186pt" height="314pt"
 viewBox="0.00 0.00 186.00 314.00" xmlns="http://www.w3.org/2000/svg" xmlns:xlink="http://www.w3.org/1999/xlink">
<g id="graph0" class="graph" transform="scale(1 1) rotate(0) translate(4 310)">
<title>G</title>
<polygon fill="white" stroke="none" points="-4,4 -4,-310 182,-310 182,4 -4,4"/>
<!-- Node1 -->
<g id="node1" class="node"><title>Node1</title>
<ellipse fill="none" stroke="red" cx="27" cy="-153" rx="27" ry="18"/>
<text text-anchor="middle" x="27" y="-149.3" font-family="Times,serif" font-size="14.00">श्वि</text>
</g>
<!-- Node2 -->
<g id="node2" class="node"><title>Node2</title>
<g id="a_node2"><a xlink:title="जौ की बाल, दाढ़ी">
<polygon fill="none" stroke="blue" points="177,-306 123,-306 123,-270 177,-270 177,-306"/>
<text text-anchor="middle" x="150" y="-284.3" font-family="Times,serif" font-size="14.00">शूक</text>
</a>
</g>
</g>
<!-- Node1&#45;&gt;Node2 -->
<g id="edge1" class="edge"><title>Node1&#45;&gt;Node2</title>
<path fill="none" stroke="black" d="M36.0988,-170.054C43.968,-185.604 56.9164,-208.721 72,-226 84.4543,-240.267 100.478,-253.754 114.68,-264.482"/>
<polygon fill="black" stroke="black" points="112.665,-267.346 122.791,-270.465 116.821,-261.712 112.665,-267.346"/>
<text text-anchor="middle" x="88" y="-258.8" font-family="Times,serif" font-size="14.00">कक्</text>
</g>
<!-- Node3 -->
<g id="node3" class="node"><title>Node3</title>
<g id="a_node3"><a xlink:title="सूजा हुआ">
<polygon fill="none" stroke="blue" points="177,-252 123,-252 123,-216 177,-216 177,-252"/>
<text text-anchor="middle" x="150" y="-230.3" font-family="Times,serif" font-size="14.00">शून</text>
</a>
</g>
</g>
<!-- Node1&#45;&gt;Node3 -->
<g id="edge2" class="edge"><title>Node1&#45;&gt;Node3</title>
<path fill="none" stroke="black" d="M44.3156,-166.834C52.4397,-173.499 62.5281,-181.447 72,-188 85.318,-197.214 100.523,-206.534 113.884,-214.352"/>
<polygon fill="black" stroke="black" points="112.385,-217.528 122.794,-219.505 115.89,-211.469 112.385,-217.528"/>
<text text-anchor="middle" x="88" y="-210.8" font-family="Times,serif" font-size="14.00">क्त</text>
</g>
<!-- Node4 -->
<g id="node4" class="node"><title>Node4</title>
<polygon fill="none" stroke="blue" points="177,-198 123,-198 123,-162 177,-162 177,-198"/>
<text text-anchor="middle" x="150" y="-176.3" font-family="Times,serif" font-size="14.00">श्वन्</text>
</g>
<!-- Node1&#45;&gt;Node4 -->
<g id="edge3" class="edge"><title>Node1&#45;&gt;Node4</title>
<path fill="none" stroke="black" d="M52.7781,-158.529C70.0088,-162.374 93.2623,-167.563 112.593,-171.876"/>
<polygon fill="black" stroke="black" points="112.056,-175.342 122.578,-174.104 113.58,-168.51 112.056,-175.342"/>
<text text-anchor="middle" x="88" y="-172.8" font-family="Times,serif" font-size="14.00">कनिन्</text>
</g>
<!-- Node5 -->
<g id="node5" class="node"><title>Node5</title>
<g id="a_node5"><a xlink:title="सूजन, शोथ">
<polygon fill="none" stroke="blue" points="177,-144 123,-144 123,-108 177,-108 177,-144"/>
<text text-anchor="middle" x="150" y="-122.3" font-family="Times,serif" font-size="14.00">श्वयथु</text>
</a>
</g>
</g>
<!-- Node1&#45;&gt;Node5 -->
<g id="edge4" class="edge"><title>Node1&#45;&gt;Node5</title>
<path fill="none" stroke="black" d="M52.7781,-147.471C70.0088,-143.626 93.2623,-138.437 112.593,-134.124"/>
<polygon fill="black" stroke="black" points="113.58,-137.49 122.578,-131.896 112.056,-130.658 113.58,-137.49"/>
<text text-anchor="middle" x="88" y="-145.8" font-family="Times,serif" font-size="14.00">अथुच्</text>
</g>
<!-- Node6 -->
<g id="node6" class="node"><title>Node6</title>
<g id="a_node6"><a xlink:title="सूजन, शोथ, वृद्धि">
<polygon fill="none" stroke="blue" points="177,-90 123,-90 123,-54 177,-54 177,-90"/>
<text text-anchor="middle" x="150" y="-68.3" font-family="Times,serif" font-size="14.00">श्वय</text>
</a>
</g>
</g>
<!-- Node1&#45;&gt;Node6 -->
<g id="edge5" class="edge"><title>Node1&#45;&gt;Node6</title>
<path fill="none" stroke="black" d="M44.2353,-138.689C52.3405,-131.814 62.436,-123.646 72,-117 85.2235,-107.811 100.411,-98.661 113.784,-91.0353"/>
<polygon fill="black" stroke="black" points="115.706,-93.9702 122.706,-86.0176 112.274,-87.8688 115.706,-93.9702"/>
<text text-anchor="middle" x="88" y="-120.8" font-family="Times,serif" font-size="14.00">अच्</text>
</g>
<!-- Node7 -->
<g id="node7" class="node"><title>Node7</title>
<g id="a_node7"><a xlink:title="बीमारी, रोग">
<polygon fill="none" stroke="blue" points="177.5,-36 122.5,-36 122.5,-0 177.5,-0 177.5,-36"/>
<text text-anchor="middle" x="150" y="-14.3" font-family="Times,serif" font-size="14.00">श्वयीची</text>
</a>
</g>
</g>
<!-- Node1&#45;&gt;Node7 -->
<g id="edge6" class="edge"><title>Node1&#45;&gt;Node7</title>
<path fill="none" stroke="black" d="M35.7904,-135.715C43.5335,-119.686 56.4767,-95.7096 72,-78 84.1189,-64.1743 99.7941,-51.2917 113.835,-41.0356"/>
<polygon fill="black" stroke="black" points="116.198,-43.6507 122.32,-35.0042 112.142,-37.9452 116.198,-43.6507"/>
<text text-anchor="middle" x="88" y="-81.8" font-family="Times,serif" font-size="14.00">ईचि</text>
</g>
</g>
</svg>
