<?xml version="1.0" encoding="UTF-8" standalone="no"?>
<!DOCTYPE svg PUBLIC "-//W3C//DTD SVG 1.1//EN"
 "http://www.w3.org/Graphics/SVG/1.1/DTD/svg11.dtd">
<!-- Generated by graphviz version 2.36.0 (20140111.2315)
 -->
<!-- Title: G Pages: 1 -->
<svg width="188pt" height="152pt"
 viewBox="0.00 0.00 188.00 152.00" xmlns="http://www.w3.org/2000/svg" xmlns:xlink="http://www.w3.org/1999/xlink">
<g id="graph0" class="graph" transform="scale(1 1) rotate(0) translate(4 148)">
<title>G</title>
<polygon fill="white" stroke="none" points="-4,4 -4,-148 184,-148 184,4 -4,4"/>
<!-- Node1 -->
<g id="node1" class="node"><title>Node1</title>
<ellipse fill="none" stroke="red" cx="27" cy="-72" rx="27" ry="18"/>
<text text-anchor="middle" x="27" y="-68.3" font-family="Times,serif" font-size="14.00">स्तन्</text>
</g>
<!-- Node2 -->
<g id="node2" class="node"><title>Node2</title>
<g id="a_node2"><a xlink:title="ध्वनन, आवाज, कोलाहल">
<polygon fill="none" stroke="blue" points="174,-144 120,-144 120,-108 174,-108 174,-144"/>
<text text-anchor="middle" x="147" y="-122.3" font-family="Times,serif" font-size="14.00">स्तनन</text>
</a>
</g>
</g>
<!-- Node1&#45;&gt;Node2 -->
<g id="edge1" class="edge"><title>Node1&#45;&gt;Node2</title>
<path fill="none" stroke="black" d="M49.643,-81.9044C66.6821,-89.702 90.7827,-100.731 110.618,-109.808"/>
<polygon fill="black" stroke="black" points="109.413,-113.106 119.963,-114.085 112.326,-106.741 109.413,-113.106"/>
<text text-anchor="middle" x="84" y="-105.8" font-family="Times,serif" font-size="14.00">ल्युट्</text>
</g>
<!-- Node3 -->
<g id="node3" class="node"><title>Node3</title>
<g id="a_node3"><a xlink:title="गरजना, गड़गड़ाना, बादलों का कड़कड़ाना">
<polygon fill="none" stroke="blue" points="180,-90 114,-90 114,-54 180,-54 180,-90"/>
<text text-anchor="middle" x="147" y="-68.3" font-family="Times,serif" font-size="14.00">स्तनयित्नु</text>
</a>
</g>
</g>
<!-- Node1&#45;&gt;Node3 -->
<g id="edge2" class="edge"><title>Node1&#45;&gt;Node3</title>
<path fill="none" stroke="black" d="M54.188,-72C68.8073,-72 87.3675,-72 103.969,-72"/>
<polygon fill="black" stroke="black" points="103.999,-75.5001 113.999,-72 103.999,-68.5001 103.999,-75.5001"/>
<text text-anchor="middle" x="84" y="-75.8" font-family="Times,serif" font-size="14.00">इत्नु</text>
</g>
<!-- Node4 -->
<g id="node4" class="node"><title>Node4</title>
<g id="a_node4"><a xlink:title="छाती, किसी भी मादा की औड़ी या चूचुक अर्धपीतस्तनं मातुरामर्दक्लिष्टकेशरम्">
<polygon fill="none" stroke="blue" points="174,-36 120,-36 120,-0 174,-0 174,-36"/>
<text text-anchor="middle" x="147" y="-14.3" font-family="Times,serif" font-size="14.00">स्तन</text>
</a>
</g>
</g>
<!-- Node1&#45;&gt;Node4 -->
<g id="edge3" class="edge"><title>Node1&#45;&gt;Node4</title>
<path fill="none" stroke="black" d="M49.643,-62.0956C66.6821,-54.298 90.7827,-43.2689 110.618,-34.1918"/>
<polygon fill="black" stroke="black" points="112.326,-37.2592 119.963,-29.9153 109.413,-30.894 112.326,-37.2592"/>
<text text-anchor="middle" x="84" y="-54.8" font-family="Times,serif" font-size="14.00">अच्</text>
</g>
</g>
</svg>
