<?xml version="1.0" encoding="UTF-8" standalone="no"?>
<!DOCTYPE svg PUBLIC "-//W3C//DTD SVG 1.1//EN"
 "http://www.w3.org/Graphics/SVG/1.1/DTD/svg11.dtd">
<!-- Generated by graphviz version 2.36.0 (20140111.2315)
 -->
<!-- Title: G Pages: 1 -->
<svg width="276pt" height="206pt"
 viewBox="0.00 0.00 276.00 206.00" xmlns="http://www.w3.org/2000/svg" xmlns:xlink="http://www.w3.org/1999/xlink">
<g id="graph0" class="graph" transform="scale(1 1) rotate(0) translate(4 202)">
<title>G</title>
<polygon fill="white" stroke="none" points="-4,4 -4,-202 272,-202 272,4 -4,4"/>
<!-- Node1 -->
<g id="node1" class="node"><title>Node1</title>
<ellipse fill="none" stroke="red" cx="27" cy="-92" rx="27" ry="18"/>
<text text-anchor="middle" x="27" y="-88.3" font-family="Times,serif" font-size="14.00">वी</text>
</g>
<!-- Node2 -->
<g id="node2" class="node"><title>Node2</title>
<g id="a_node2"><a xlink:title="नंगी स्त्री">
<polygon fill="none" stroke="blue" points="169,-198 115,-198 115,-162 169,-162 169,-198"/>
<text text-anchor="middle" x="142" y="-176.3" font-family="Times,serif" font-size="14.00">कोटवी</text>
</a>
</g>
</g>
<!-- Node1&#45;&gt;Node2 -->
<g id="edge1" class="edge"><title>Node1&#45;&gt;Node2</title>
<path fill="none" stroke="black" d="M45.1623,-105.365C62.2771,-118.694 88.9522,-139.467 109.819,-155.717"/>
<polygon fill="black" stroke="black" points="107.745,-158.538 117.785,-161.921 112.046,-153.016 107.745,-158.538"/>
</g>
<!-- Node3 -->
<g id="node3" class="node"><title>Node3</title>
<ellipse fill="none" stroke="red" cx="142" cy="-126" rx="27.8951" ry="18"/>
<text text-anchor="middle" x="142" y="-122.3" font-family="Times,serif" font-size="14.00">प्र_वी</text>
</g>
<!-- Node1&#45;&gt;Node3 -->
<g id="edge2" class="edge"><title>Node1&#45;&gt;Node3</title>
<path fill="none" stroke="black" d="M51.9644,-99.2105C67.7781,-103.969 88.7502,-110.279 106.368,-115.58"/>
<polygon fill="black" stroke="black" points="105.705,-119.035 116.289,-118.565 107.722,-112.332 105.705,-119.035"/>
</g>
<!-- Node5 -->
<g id="node5" class="node"><title>Node5</title>
<g id="a_node5"><a xlink:title="सारंगी, बीणा, मूकीभूतायां वीणायाम्">
<polygon fill="none" stroke="blue" points="169,-90 115,-90 115,-54 169,-54 169,-90"/>
<text text-anchor="middle" x="142" y="-68.3" font-family="Times,serif" font-size="14.00">वीणा</text>
</a>
</g>
</g>
<!-- Node1&#45;&gt;Node5 -->
<g id="edge4" class="edge"><title>Node1&#45;&gt;Node5</title>
<path fill="none" stroke="black" d="M53.3594,-87.5116C68.5554,-84.822 88.122,-81.3589 104.911,-78.3875"/>
<polygon fill="black" stroke="black" points="105.704,-81.8015 114.941,-76.6121 104.484,-74.9086 105.704,-81.8015"/>
</g>
<!-- Node6 -->
<g id="node6" class="node"><title>Node6</title>
<g id="a_node6"><a xlink:title="घोड़ा">
<polygon fill="none" stroke="blue" points="169,-36 115,-36 115,-0 169,-0 169,-36"/>
<text text-anchor="middle" x="142" y="-14.3" font-family="Times,serif" font-size="14.00">वीति</text>
</a>
</g>
</g>
<!-- Node1&#45;&gt;Node6 -->
<g id="edge5" class="edge"><title>Node1&#45;&gt;Node6</title>
<path fill="none" stroke="black" d="M46.3259,-79.3204C54.1925,-73.9256 63.5101,-67.5993 72,-62 83.1366,-54.6551 95.3866,-46.7787 106.435,-39.7489"/>
<polygon fill="black" stroke="black" points="108.425,-42.6316 114.994,-34.3189 104.675,-36.7208 108.425,-42.6316"/>
<text text-anchor="middle" x="84" y="-65.8" font-family="Times,serif" font-size="14.00">क्तिन्</text>
</g>
<!-- Node4 -->
<g id="node4" class="node"><title>Node4</title>
<g id="a_node4"><a xlink:title="जौ, यव">
<polygon fill="none" stroke="blue" points="268,-144 214,-144 214,-108 268,-108 268,-144"/>
<text text-anchor="middle" x="241" y="-122.3" font-family="Times,serif" font-size="14.00">प्रवेट</text>
</a>
</g>
</g>
<!-- Node3&#45;&gt;Node4 -->
<g id="edge3" class="edge"><title>Node3&#45;&gt;Node4</title>
<path fill="none" stroke="black" d="M170.02,-126C180.385,-126 192.391,-126 203.501,-126"/>
<polygon fill="black" stroke="black" points="203.794,-129.5 213.794,-126 203.794,-122.5 203.794,-129.5"/>
<text text-anchor="middle" x="192" y="-129.8" font-family="Times,serif" font-size="14.00">ट</text>
</g>
</g>
</svg>
