<?xml version="1.0" encoding="UTF-8" standalone="no"?>
<!DOCTYPE svg PUBLIC "-//W3C//DTD SVG 1.1//EN"
 "http://www.w3.org/Graphics/SVG/1.1/DTD/svg11.dtd">
<!-- Generated by graphviz version 2.36.0 (20140111.2315)
 -->
<!-- Title: G Pages: 1 -->
<svg width="338pt" height="314pt"
 viewBox="0.00 0.00 338.00 314.00" xmlns="http://www.w3.org/2000/svg" xmlns:xlink="http://www.w3.org/1999/xlink">
<g id="graph0" class="graph" transform="scale(1 1) rotate(0) translate(4 310)">
<title>G</title>
<polygon fill="white" stroke="none" points="-4,4 -4,-310 334,-310 334,4 -4,4"/>
<!-- Node1 -->
<g id="node1" class="node"><title>Node1</title>
<ellipse fill="none" stroke="red" cx="27" cy="-153" rx="27" ry="18"/>
<text text-anchor="middle" x="27" y="-149.3" font-family="Times,serif" font-size="14.00">तड्</text>
</g>
<!-- Node2 -->
<g id="node2" class="node"><title>Node2</title>
<g id="a_node2"><a xlink:title="तालाब, गहरा जोहड़, जलाशय, स्फुटकमलोदरखेलतिखञ्जनयुगमिव शरदि तडागम्">
<polygon fill="none" stroke="blue" points="181,-225 127,-225 127,-189 181,-189 181,-225"/>
<text text-anchor="middle" x="154" y="-203.3" font-family="Times,serif" font-size="14.00">तडाग</text>
</a>
</g>
</g>
<!-- Node1&#45;&gt;Node2 -->
<g id="edge1" class="edge"><title>Node1&#45;&gt;Node2</title>
<path fill="none" stroke="black" d="M50.0598,-162.53C68.742,-170.601 95.8726,-182.321 117.591,-191.703"/>
<polygon fill="black" stroke="black" points="116.265,-194.943 126.833,-195.696 119.041,-188.517 116.265,-194.943"/>
<text text-anchor="middle" x="83" y="-183.8" font-family="Times,serif" font-size="14.00">आग</text>
</g>
<!-- Node3 -->
<g id="node3" class="node"><title>Node3</title>
<ellipse fill="none" stroke="red" cx="154" cy="-153" rx="41.6928" ry="18"/>
<text text-anchor="middle" x="154" y="-149.3" font-family="Times,serif" font-size="14.00">तड्+णिच्</text>
</g>
<!-- Node1&#45;&gt;Node3 -->
<g id="edge2" class="edge"><title>Node1&#45;&gt;Node3</title>
<path fill="none" stroke="black" d="M54.2041,-153C68.0769,-153 85.6007,-153 102.025,-153"/>
<polygon fill="black" stroke="black" points="102.066,-156.5 112.066,-153 102.066,-149.5 102.066,-156.5"/>
</g>
<!-- Node5 -->
<g id="node5" class="node"><title>Node5</title>
<g id="a_node5"><a xlink:title="प्रहार, ठोकर, घूंसा या थप्पड़">
<polygon fill="none" stroke="blue" points="181,-117 127,-117 127,-81 181,-81 181,-117"/>
<text text-anchor="middle" x="154" y="-95.3" font-family="Times,serif" font-size="14.00">ताड</text>
</a>
</g>
</g>
<!-- Node1&#45;&gt;Node5 -->
<g id="edge4" class="edge"><title>Node1&#45;&gt;Node5</title>
<path fill="none" stroke="black" d="M50.0598,-143.47C68.742,-135.399 95.8726,-123.679 117.591,-114.297"/>
<polygon fill="black" stroke="black" points="119.041,-117.483 126.833,-110.304 116.265,-111.057 119.041,-117.483"/>
<text text-anchor="middle" x="83" y="-136.8" font-family="Times,serif" font-size="14.00">घञ्</text>
</g>
<!-- Node4 -->
<g id="node4" class="node"><title>Node4</title>
<polygon fill="none" stroke="blue" points="324,-306 270,-306 270,-270 324,-270 324,-306"/>
<text text-anchor="middle" x="297" y="-284.3" font-family="Times,serif" font-size="14.00">ताडका</text>
</g>
<!-- Node3&#45;&gt;Node4 -->
<g id="edge3" class="edge"><title>Node3&#45;&gt;Node4</title>
<path fill="none" stroke="black" d="M181.202,-166.855C186.6,-170.586 191.885,-174.998 196,-180 209.423,-196.317 201.244,-207.157 214,-224 226.787,-240.884 245.068,-255.73 261.126,-266.862"/>
<polygon fill="black" stroke="black" points="259.513,-269.995 269.769,-272.654 263.41,-264.18 259.513,-269.995"/>
<text text-anchor="middle" x="230" y="-257.8" font-family="Times,serif" font-size="14.00">ण्वुल्</text>
</g>
<!-- Node6 -->
<g id="node6" class="node"><title>Node6</title>
<g id="a_node6"><a xlink:title="मारना&#45;पीटना, हण्टर लगाना, वेत लगाना, लालने बहवो दोषास्ताडने बहवो गुणाः">
<polygon fill="none" stroke="blue" points="324,-252 270,-252 270,-216 324,-216 324,-252"/>
<text text-anchor="middle" x="297" y="-230.3" font-family="Times,serif" font-size="14.00">ताडन</text>
</a>
</g>
</g>
<!-- Node3&#45;&gt;Node6 -->
<g id="edge5" class="edge"><title>Node3&#45;&gt;Node6</title>
<path fill="none" stroke="black" d="M179.035,-167.436C189.709,-173.801 202.446,-181.334 214,-188 229.193,-196.766 246.08,-206.278 260.562,-214.366"/>
<polygon fill="black" stroke="black" points="259.25,-217.641 269.689,-219.452 262.657,-211.527 259.25,-217.641"/>
<text text-anchor="middle" x="230" y="-208.8" font-family="Times,serif" font-size="14.00">ल्युट्</text>
</g>
<!-- Node7 -->
<g id="node7" class="node"><title>Node7</title>
<g id="a_node7"><a xlink:title="एक प्रकार का ताड़">
<polygon fill="none" stroke="blue" points="324,-198 270,-198 270,-162 324,-162 324,-198"/>
<text text-anchor="middle" x="297" y="-176.3" font-family="Times,serif" font-size="14.00">ताडि</text>
</a>
</g>
</g>
<!-- Node3&#45;&gt;Node7 -->
<g id="edge6" class="edge"><title>Node3&#45;&gt;Node7</title>
<path fill="none" stroke="black" d="M192.415,-160.165C213.214,-164.147 238.981,-169.081 259.613,-173.032"/>
<polygon fill="black" stroke="black" points="259.101,-176.498 269.581,-174.941 260.418,-169.623 259.101,-176.498"/>
<text text-anchor="middle" x="230" y="-172.8" font-family="Times,serif" font-size="14.00">इन्</text>
</g>
<!-- Node8 -->
<g id="node8" class="node"><title>Node8</title>
<g id="a_node8"><a xlink:title="पीटा जाता हुआ, प्रहार किया जाता हुआ">
<polygon fill="none" stroke="blue" points="330,-144 264,-144 264,-108 330,-108 330,-144"/>
<text text-anchor="middle" x="297" y="-122.3" font-family="Times,serif" font-size="14.00">ताड्यमान</text>
</a>
</g>
</g>
<!-- Node3&#45;&gt;Node8 -->
<g id="edge7" class="edge"><title>Node3&#45;&gt;Node8</title>
<path fill="none" stroke="black" d="M192.415,-145.835C211.313,-142.217 234.311,-137.813 253.833,-134.074"/>
<polygon fill="black" stroke="black" points="254.522,-137.506 263.685,-132.188 253.205,-130.631 254.522,-137.506"/>
<text text-anchor="middle" x="230" y="-144.8" font-family="Times,serif" font-size="14.00">शानच्</text>
</g>
<!-- Node9 -->
<g id="node9" class="node"><title>Node9</title>
<g id="a_node9"><a xlink:title="रंगदार कपड़ा">
<polygon fill="none" stroke="blue" points="324,-90 270,-90 270,-54 324,-54 324,-90"/>
<text text-anchor="middle" x="297" y="-68.3" font-family="Times,serif" font-size="14.00">तालित</text>
</a>
</g>
</g>
<!-- Node3&#45;&gt;Node9 -->
<g id="edge8" class="edge"><title>Node3&#45;&gt;Node9</title>
<path fill="none" stroke="black" d="M178.394,-138.386C189.168,-131.743 202.162,-123.855 214,-117 229.217,-108.189 246.231,-98.7804 260.8,-90.8566"/>
<polygon fill="black" stroke="black" points="262.852,-93.7258 269.978,-85.8851 259.518,-87.5708 262.852,-93.7258"/>
<text text-anchor="middle" x="230" y="-120.8" font-family="Times,serif" font-size="14.00">क्त</text>
</g>
<!-- Node10 -->
<g id="node10" class="node"><title>Node10</title>
<g id="a_node10"><a xlink:title="पहाड़ी ताड़ का पेड़, ताड़ का वृक्ष">
<polygon fill="none" stroke="blue" points="324,-36 270,-36 270,-0 324,-0 324,-36"/>
<text text-anchor="middle" x="297" y="-14.3" font-family="Times,serif" font-size="14.00">ताली</text>
</a>
</g>
</g>
<!-- Node3&#45;&gt;Node10 -->
<g id="edge9" class="edge"><title>Node3&#45;&gt;Node10</title>
<path fill="none" stroke="black" d="M181.231,-139.169C186.627,-135.437 191.905,-131.018 196,-126 209.619,-109.311 200.997,-98.1729 214,-81 226.71,-64.2142 244.985,-49.586 261.058,-38.6614"/>
<polygon fill="black" stroke="black" points="263.271,-41.3955 269.712,-32.9831 259.431,-35.543 263.271,-41.3955"/>
<text text-anchor="middle" x="230" y="-84.8" font-family="Times,serif" font-size="14.00">अच्</text>
</g>
</g>
</svg>
