<?xml version="1.0" encoding="UTF-8" standalone="no"?>
<!DOCTYPE svg PUBLIC "-//W3C//DTD SVG 1.1//EN"
 "http://www.w3.org/Graphics/SVG/1.1/DTD/svg11.dtd">
<!-- Generated by graphviz version 2.36.0 (20140111.2315)
 -->
<!-- Title: G Pages: 1 -->
<svg width="168pt" height="152pt"
 viewBox="0.00 0.00 168.00 152.00" xmlns="http://www.w3.org/2000/svg" xmlns:xlink="http://www.w3.org/1999/xlink">
<g id="graph0" class="graph" transform="scale(1 1) rotate(0) translate(4 148)">
<title>G</title>
<polygon fill="white" stroke="none" points="-4,4 -4,-148 164,-148 164,4 -4,4"/>
<!-- Node1 -->
<g id="node1" class="node"><title>Node1</title>
<ellipse fill="none" stroke="red" cx="29" cy="-72" rx="29.4969" ry="18"/>
<text text-anchor="middle" x="29" y="-68.3" font-family="Times,serif" font-size="14.00">दरिद्रा</text>
</g>
<!-- Node2 -->
<g id="node2" class="node"><title>Node2</title>
<g id="a_node2"><a xlink:title="निर्धन, गरीब, अभावग्रस्त, दुर्दशाग्रस्त, स तु भवतु दरिद्रो यस्य तृष्णा विशाला, मनसि च परितुष्टे कोऽर्थवान् को दरिद्रः।">
<polygon fill="none" stroke="blue" points="160,-144 106,-144 106,-108 160,-108 160,-144"/>
<text text-anchor="middle" x="133" y="-122.3" font-family="Times,serif" font-size="14.00">दरिद्र</text>
</a>
</g>
</g>
<!-- Node1&#45;&gt;Node2 -->
<g id="edge1" class="edge"><title>Node1&#45;&gt;Node2</title>
<path fill="none" stroke="black" d="M51.6316,-83.452C64.7071,-90.3743 81.6895,-99.3651 96.6729,-107.297"/>
<polygon fill="black" stroke="black" points="95.2155,-110.486 105.691,-112.072 98.4908,-104.3 95.2155,-110.486"/>
<text text-anchor="middle" x="82" y="-105.8" font-family="Times,serif" font-size="14.00">क</text>
</g>
<!-- Node3 -->
<g id="node3" class="node"><title>Node3</title>
<g id="a_node3"><a xlink:title="दाद, एक प्रकार का चर्मरोग">
<polygon fill="none" stroke="blue" points="160,-90 106,-90 106,-54 160,-54 160,-90"/>
<text text-anchor="middle" x="133" y="-68.3" font-family="Times,serif" font-size="14.00">दर्द्रु</text>
</a>
</g>
</g>
<!-- Node1&#45;&gt;Node3 -->
<g id="edge2" class="edge"><title>Node1&#45;&gt;Node3</title>
<path fill="none" stroke="black" d="M58.4127,-72C69.9019,-72 83.3076,-72 95.5058,-72"/>
<polygon fill="black" stroke="black" points="95.836,-75.5001 105.836,-72 95.8359,-68.5001 95.836,-75.5001"/>
<text text-anchor="middle" x="82" y="-75.8" font-family="Times,serif" font-size="14.00">उ</text>
</g>
<!-- Node4 -->
<g id="node4" class="node"><title>Node4</title>
<g id="a_node4"><a xlink:title="दाद, एक प्रकार का चर्मरोग">
<polygon fill="none" stroke="blue" points="160,-36 106,-36 106,-0 160,-0 160,-36"/>
<text text-anchor="middle" x="133" y="-14.3" font-family="Times,serif" font-size="14.00">दर्द्रू</text>
</a>
</g>
</g>
<!-- Node1&#45;&gt;Node4 -->
<g id="edge3" class="edge"><title>Node1&#45;&gt;Node4</title>
<path fill="none" stroke="black" d="M51.6316,-60.548C64.7071,-53.6257 81.6895,-44.6349 96.6729,-36.7026"/>
<polygon fill="black" stroke="black" points="98.4908,-39.7005 105.691,-31.9283 95.2155,-33.5139 98.4908,-39.7005"/>
<text text-anchor="middle" x="82" y="-49.8" font-family="Times,serif" font-size="14.00">उ</text>
</g>
</g>
</svg>
