<?xml version="1.0" encoding="UTF-8" standalone="no"?>
<!DOCTYPE svg PUBLIC "-//W3C//DTD SVG 1.1//EN"
 "http://www.w3.org/Graphics/SVG/1.1/DTD/svg11.dtd">
<!-- Generated by graphviz version 2.36.0 (20140111.2315)
 -->
<!-- Title: G Pages: 1 -->
<svg width="176pt" height="98pt"
 viewBox="0.00 0.00 176.00 98.00" xmlns="http://www.w3.org/2000/svg" xmlns:xlink="http://www.w3.org/1999/xlink">
<g id="graph0" class="graph" transform="scale(1 1) rotate(0) translate(4 94)">
<title>G</title>
<polygon fill="white" stroke="none" points="-4,4 -4,-94 172,-94 172,4 -4,4"/>
<!-- Node1 -->
<g id="node1" class="node"><title>Node1</title>
<ellipse fill="none" stroke="red" cx="27" cy="-45" rx="27" ry="18"/>
<text text-anchor="middle" x="27" y="-41.3" font-family="Times,serif" font-size="14.00">दुह्</text>
</g>
<!-- Node2 -->
<g id="node2" class="node"><title>Node2</title>
<g id="a_node2"><a xlink:title="दूध देने वाला">
<polygon fill="none" stroke="blue" points="168,-90 114,-90 114,-54 168,-54 168,-90"/>
<text text-anchor="middle" x="141" y="-68.3" font-family="Times,serif" font-size="14.00">दुघ</text>
</a>
</g>
</g>
<!-- Node1&#45;&gt;Node2 -->
<g id="edge1" class="edge"><title>Node1&#45;&gt;Node2</title>
<path fill="none" stroke="black" d="M52.5789,-50.9253C67.6166,-54.5504 87.1236,-59.253 103.895,-63.296"/>
<polygon fill="black" stroke="black" points="103.377,-66.7714 113.919,-65.7126 105.018,-59.9664 103.377,-66.7714"/>
<text text-anchor="middle" x="84" y="-63.8" font-family="Times,serif" font-size="14.00">क</text>
</g>
<!-- Node3 -->
<g id="node3" class="node"><title>Node3</title>
<g id="a_node3"><a xlink:title="दोहने वाला">
<polygon fill="none" stroke="blue" points="168,-36 114,-36 114,-0 168,-0 168,-36"/>
<text text-anchor="middle" x="141" y="-14.3" font-family="Times,serif" font-size="14.00">दोहन</text>
</a>
</g>
</g>
<!-- Node1&#45;&gt;Node3 -->
<g id="edge2" class="edge"><title>Node1&#45;&gt;Node3</title>
<path fill="none" stroke="black" d="M52.5789,-39.0747C67.6166,-35.4496 87.1236,-30.747 103.895,-26.704"/>
<polygon fill="black" stroke="black" points="105.018,-30.0336 113.919,-24.2874 103.377,-23.2286 105.018,-30.0336"/>
<text text-anchor="middle" x="84" y="-36.8" font-family="Times,serif" font-size="14.00">ल्युट्</text>
</g>
</g>
</svg>
