<?xml version="1.0" encoding="UTF-8" standalone="no"?>
<!DOCTYPE svg PUBLIC "-//W3C//DTD SVG 1.1//EN"
 "http://www.w3.org/Graphics/SVG/1.1/DTD/svg11.dtd">
<!-- Generated by graphviz version 2.36.0 (20140111.2315)
 -->
<!-- Title: G Pages: 1 -->
<svg width="306pt" height="530pt"
 viewBox="0.00 0.00 306.00 530.00" xmlns="http://www.w3.org/2000/svg" xmlns:xlink="http://www.w3.org/1999/xlink">
<g id="graph0" class="graph" transform="scale(1 1) rotate(0) translate(4 526)">
<title>G</title>
<polygon fill="white" stroke="none" points="-4,4 -4,-526 302,-526 302,4 -4,4"/>
<!-- Node1 -->
<g id="node1" class="node"><title>Node1</title>
<ellipse fill="none" stroke="red" cx="27" cy="-261" rx="27" ry="18"/>
<text text-anchor="middle" x="27" y="-257.3" font-family="Times,serif" font-size="14.00">दुह्</text>
</g>
<!-- Node2 -->
<g id="node2" class="node"><title>Node2</title>
<ellipse fill="none" stroke="red" cx="151" cy="-504" rx="36.2938" ry="18"/>
<text text-anchor="middle" x="151" y="-500.3" font-family="Times,serif" font-size="14.00">अव_दुह्</text>
</g>
<!-- Node1&#45;&gt;Node2 -->
<g id="edge1" class="edge"><title>Node1&#45;&gt;Node2</title>
<path fill="none" stroke="black" d="M30.9689,-279.065C38.3644,-319.074 60.9707,-416.403 114,-477 115.929,-479.205 118.066,-481.343 120.308,-483.387"/>
<polygon fill="black" stroke="black" points="118.257,-486.234 128.186,-489.931 122.73,-480.849 118.257,-486.234"/>
</g>
<!-- Node4 -->
<g id="node4" class="node"><title>Node4</title>
<ellipse fill="none" stroke="red" cx="151" cy="-450" rx="35.9954" ry="18"/>
<text text-anchor="middle" x="151" y="-446.3" font-family="Times,serif" font-size="14.00">उप्_दुह्</text>
</g>
<!-- Node1&#45;&gt;Node4 -->
<g id="edge3" class="edge"><title>Node1&#45;&gt;Node4</title>
<path fill="none" stroke="black" d="M33.1284,-278.699C40.0868,-301.282 53.7727,-341.115 72,-372 86.9243,-397.288 92.7706,-402.714 114,-423 116.171,-425.075 118.502,-427.135 120.895,-429.138"/>
<polygon fill="black" stroke="black" points="119.123,-432.2 129.134,-435.67 123.472,-426.715 119.123,-432.2"/>
</g>
<!-- Node6 -->
<g id="node6" class="node"><title>Node6</title>
<g id="a_node6"><a xlink:title="दुहा हुआ">
<polygon fill="none" stroke="blue" points="178,-414 124,-414 124,-378 178,-378 178,-414"/>
<text text-anchor="middle" x="151" y="-392.3" font-family="Times,serif" font-size="14.00">दुग्ध</text>
</a>
</g>
</g>
<!-- Node1&#45;&gt;Node6 -->
<g id="edge5" class="edge"><title>Node1&#45;&gt;Node6</title>
<path fill="none" stroke="black" d="M37.556,-277.663C45.9003,-291.657 58.7248,-311.891 72,-328 88.5901,-348.131 94.1904,-352.027 114,-369 114.968,-369.829 115.958,-370.662 116.965,-371.496"/>
<polygon fill="black" stroke="black" points="114.884,-374.313 124.882,-377.821 119.254,-368.844 114.884,-374.313"/>
<text text-anchor="middle" x="84" y="-356.8" font-family="Times,serif" font-size="14.00">क्त</text>
</g>
<!-- Node7 -->
<g id="node7" class="node"><title>Node7</title>
<g id="a_node7"><a xlink:title="बेटी, पुत्री">
<polygon fill="none" stroke="blue" points="178,-360 124,-360 124,-324 178,-324 178,-360"/>
<text text-anchor="middle" x="151" y="-338.3" font-family="Times,serif" font-size="14.00">दुहितृ</text>
</a>
</g>
</g>
<!-- Node1&#45;&gt;Node7 -->
<g id="edge6" class="edge"><title>Node1&#45;&gt;Node7</title>
<path fill="none" stroke="black" d="M45.2886,-274.543C53.2914,-280.662 63.001,-287.875 72,-294 85.9099,-303.467 101.648,-313.309 115.326,-321.598"/>
<polygon fill="black" stroke="black" points="113.603,-324.647 123.977,-326.802 117.212,-318.648 113.603,-324.647"/>
<text text-anchor="middle" x="84" y="-312.8" font-family="Times,serif" font-size="14.00">तृच्</text>
</g>
<!-- Node8 -->
<g id="node8" class="node"><title>Node8</title>
<g id="a_node8"><a xlink:title="ग्वाल, दूध दोहने वाला, दूधिया, मेरौ स्थिते दोग्धरि दोहदक्षे&#45;">
<polygon fill="none" stroke="blue" points="178,-306 124,-306 124,-270 178,-270 178,-306"/>
<text text-anchor="middle" x="151" y="-284.3" font-family="Times,serif" font-size="14.00">दोग्धृ</text>
</a>
</g>
</g>
<!-- Node1&#45;&gt;Node8 -->
<g id="edge7" class="edge"><title>Node1&#45;&gt;Node8</title>
<path fill="none" stroke="black" d="M52.9829,-266.529C70.5548,-270.418 94.339,-275.682 113.96,-280.024"/>
<polygon fill="black" stroke="black" points="113.266,-283.455 123.786,-282.198 114.778,-276.62 113.266,-283.455"/>
<text text-anchor="middle" x="84" y="-278.8" font-family="Times,serif" font-size="14.00">तृच्</text>
</g>
<!-- Node9 -->
<g id="node9" class="node"><title>Node9</title>
<g id="a_node9"><a xlink:title="बछड़ा">
<polygon fill="none" stroke="blue" points="178,-252 124,-252 124,-216 178,-216 178,-252"/>
<text text-anchor="middle" x="151" y="-230.3" font-family="Times,serif" font-size="14.00">दोघ</text>
</a>
</g>
</g>
<!-- Node1&#45;&gt;Node9 -->
<g id="edge8" class="edge"><title>Node1&#45;&gt;Node9</title>
<path fill="none" stroke="black" d="M52.9829,-255.471C70.5548,-251.582 94.339,-246.318 113.96,-241.976"/>
<polygon fill="black" stroke="black" points="114.778,-245.38 123.786,-239.802 113.266,-238.545 114.778,-245.38"/>
<text text-anchor="middle" x="84" y="-253.8" font-family="Times,serif" font-size="14.00">अच्</text>
</g>
<!-- Node10 -->
<g id="node10" class="node"><title>Node10</title>
<g id="a_node10"><a xlink:title="दूध">
<polygon fill="none" stroke="blue" points="178,-198 124,-198 124,-162 178,-162 178,-198"/>
<text text-anchor="middle" x="151" y="-176.3" font-family="Times,serif" font-size="14.00">दोह</text>
</a>
</g>
</g>
<!-- Node1&#45;&gt;Node10 -->
<g id="edge9" class="edge"><title>Node1&#45;&gt;Node10</title>
<path fill="none" stroke="black" d="M44.7928,-247.29C52.8576,-240.898 62.7582,-233.324 72,-227 85.8072,-217.552 101.527,-207.884 115.22,-199.793"/>
<polygon fill="black" stroke="black" points="117.022,-202.793 123.884,-194.721 113.486,-196.752 117.022,-202.793"/>
<text text-anchor="middle" x="84" y="-230.8" font-family="Times,serif" font-size="14.00">घञ्</text>
</g>
<!-- Node11 -->
<g id="node11" class="node"><title>Node11</title>
<g id="a_node11"><a xlink:title="दूध#द्हने योग्य, दुहे जाने योग्य">
<polygon fill="none" stroke="blue" points="178,-144 124,-144 124,-108 178,-108 178,-144"/>
<text text-anchor="middle" x="151" y="-122.3" font-family="Times,serif" font-size="14.00">दोह्य</text>
</a>
</g>
</g>
<!-- Node1&#45;&gt;Node11 -->
<g id="edge10" class="edge"><title>Node1&#45;&gt;Node11</title>
<path fill="none" stroke="black" d="M37.2002,-244.014C45.4214,-229.522 58.2609,-208.477 72,-192 88.3136,-172.436 94.4505,-169.331 114,-153 114.978,-152.183 115.978,-151.36 116.992,-150.536"/>
<polygon fill="black" stroke="black" points="119.267,-153.2 124.947,-144.257 114.929,-147.706 119.267,-153.2"/>
<text text-anchor="middle" x="84" y="-195.8" font-family="Times,serif" font-size="14.00">ण्यत्</text>
</g>
<!-- Node12 -->
<g id="node12" class="node"><title>Node12</title>
<ellipse fill="none" stroke="red" cx="151" cy="-72" rx="30.5947" ry="18"/>
<text text-anchor="middle" x="151" y="-68.3" font-family="Times,serif" font-size="14.00">प्र_दुह्</text>
</g>
<!-- Node1&#45;&gt;Node12 -->
<g id="edge11" class="edge"><title>Node1&#45;&gt;Node12</title>
<path fill="none" stroke="black" d="M33.7953,-243.575C45.0646,-211.766 72.5221,-143.481 114,-99 116.418,-96.4074 119.109,-93.8856 121.902,-91.491"/>
<polygon fill="black" stroke="black" points="124.252,-94.0932 129.895,-85.1259 119.892,-88.6172 124.252,-94.0932"/>
</g>
<!-- Node14 -->
<g id="node14" class="node"><title>Node14</title>
<ellipse fill="none" stroke="red" cx="151" cy="-18" rx="36.2938" ry="18"/>
<text text-anchor="middle" x="151" y="-14.3" font-family="Times,serif" font-size="14.00">सम्_दुह्</text>
</g>
<!-- Node1&#45;&gt;Node14 -->
<g id="edge13" class="edge"><title>Node1&#45;&gt;Node14</title>
<path fill="none" stroke="black" d="M30.9177,-242.89C38.2096,-202.789 60.62,-105.289 114,-45 115.942,-42.8065 118.088,-40.6763 120.336,-38.6379"/>
<polygon fill="black" stroke="black" points="122.756,-41.1774 128.224,-32.1026 118.291,-35.7868 122.756,-41.1774"/>
</g>
<!-- Node3 -->
<g id="node3" class="node"><title>Node3</title>
<g id="a_node3"><a xlink:title="दुहना">
<polygon fill="none" stroke="blue" points="298,-522 244,-522 244,-486 298,-486 298,-522"/>
<text text-anchor="middle" x="271" y="-500.3" font-family="Times,serif" font-size="14.00">अवदोह</text>
</a>
</g>
</g>
<!-- Node2&#45;&gt;Node3 -->
<g id="edge2" class="edge"><title>Node2&#45;&gt;Node3</title>
<path fill="none" stroke="black" d="M187.404,-504C202.044,-504 219.005,-504 233.734,-504"/>
<polygon fill="black" stroke="black" points="233.999,-507.5 243.999,-504 233.999,-500.5 233.999,-507.5"/>
<text text-anchor="middle" x="216" y="-507.8" font-family="Times,serif" font-size="14.00">घञ्</text>
</g>
<!-- Node5 -->
<g id="node5" class="node"><title>Node5</title>
<g id="a_node5"><a xlink:title="गाय के स्तनों का अग्रभाग">
<polygon fill="none" stroke="blue" points="298,-468 244,-468 244,-432 298,-432 298,-468"/>
<text text-anchor="middle" x="271" y="-446.3" font-family="Times,serif" font-size="14.00">उपदोह</text>
</a>
</g>
</g>
<!-- Node4&#45;&gt;Node5 -->
<g id="edge4" class="edge"><title>Node4&#45;&gt;Node5</title>
<path fill="none" stroke="black" d="M186.766,-450C201.427,-450 218.504,-450 233.361,-450"/>
<polygon fill="black" stroke="black" points="233.72,-453.5 243.72,-450 233.72,-446.5 233.72,-453.5"/>
<text text-anchor="middle" x="216" y="-453.8" font-family="Times,serif" font-size="14.00">घञ्</text>
</g>
<!-- Node13 -->
<g id="node13" class="node"><title>Node13</title>
<g id="a_node13"><a xlink:title="दुहना, दूध निकालना">
<polygon fill="none" stroke="blue" points="298,-90 244,-90 244,-54 298,-54 298,-90"/>
<text text-anchor="middle" x="271" y="-68.3" font-family="Times,serif" font-size="14.00">प्रदोह</text>
</a>
</g>
</g>
<!-- Node12&#45;&gt;Node13 -->
<g id="edge12" class="edge"><title>Node12&#45;&gt;Node13</title>
<path fill="none" stroke="black" d="M181.776,-72C197.458,-72 216.825,-72 233.415,-72"/>
<polygon fill="black" stroke="black" points="233.849,-75.5001 243.849,-72 233.849,-68.5001 233.849,-75.5001"/>
<text text-anchor="middle" x="216" y="-75.8" font-family="Times,serif" font-size="14.00">घञ्</text>
</g>
<!-- Node15 -->
<g id="node15" class="node"><title>Node15</title>
<g id="a_node15"><a xlink:title="दूध दूहना">
<polygon fill="none" stroke="blue" points="298,-36 244,-36 244,-0 298,-0 298,-36"/>
<text text-anchor="middle" x="271" y="-14.3" font-family="Times,serif" font-size="14.00">सन्दोह</text>
</a>
</g>
</g>
<!-- Node14&#45;&gt;Node15 -->
<g id="edge14" class="edge"><title>Node14&#45;&gt;Node15</title>
<path fill="none" stroke="black" d="M187.404,-18C202.044,-18 219.005,-18 233.734,-18"/>
<polygon fill="black" stroke="black" points="233.999,-21.5001 243.999,-18 233.999,-14.5001 233.999,-21.5001"/>
<text text-anchor="middle" x="216" y="-21.8" font-family="Times,serif" font-size="14.00">घञ्</text>
</g>
</g>
</svg>
