<?xml version="1.0" encoding="UTF-8" standalone="no"?>
<!DOCTYPE svg PUBLIC "-//W3C//DTD SVG 1.1//EN"
 "http://www.w3.org/Graphics/SVG/1.1/DTD/svg11.dtd">
<!-- Generated by graphviz version 2.36.0 (20140111.2315)
 -->
<!-- Title: G Pages: 1 -->
<svg width="300pt" height="98pt"
 viewBox="0.00 0.00 300.00 98.00" xmlns="http://www.w3.org/2000/svg" xmlns:xlink="http://www.w3.org/1999/xlink">
<g id="graph0" class="graph" transform="scale(1 1) rotate(0) translate(4 94)">
<title>G</title>
<polygon fill="white" stroke="none" points="-4,4 -4,-94 296,-94 296,4 -4,4"/>
<!-- Node1 -->
<g id="node1" class="node"><title>Node1</title>
<ellipse fill="none" stroke="red" cx="27" cy="-45" rx="27" ry="18"/>
<text text-anchor="middle" x="27" y="-41.3" font-family="Times,serif" font-size="14.00">धुक्ष्</text>
</g>
<!-- Node2 -->
<g id="node2" class="node"><title>Node2</title>
<ellipse fill="none" stroke="red" cx="131" cy="-45" rx="38.1938" ry="18"/>
<text text-anchor="middle" x="131" y="-41.3" font-family="Times,serif" font-size="14.00">सम्_धुक्ष्</text>
</g>
<!-- Node1&#45;&gt;Node2 -->
<g id="edge1" class="edge"><title>Node1&#45;&gt;Node2</title>
<path fill="none" stroke="black" d="M54.0028,-45C62.6765,-45 72.6318,-45 82.4184,-45"/>
<polygon fill="black" stroke="black" points="82.4954,-48.5001 92.4953,-45 82.4953,-41.5001 82.4954,-48.5001"/>
</g>
<!-- Node3 -->
<g id="node3" class="node"><title>Node3</title>
<g id="a_node3"><a xlink:title="सुलगना, प्रज्वलित होना">
<polygon fill="none" stroke="blue" points="290.5,-90 231.5,-90 231.5,-54 290.5,-54 290.5,-90"/>
<text text-anchor="middle" x="261" y="-68.3" font-family="Times,serif" font-size="14.00">सन्धुक्षण</text>
</a>
</g>
</g>
<!-- Node2&#45;&gt;Node3 -->
<g id="edge2" class="edge"><title>Node2&#45;&gt;Node3</title>
<path fill="none" stroke="black" d="M166.302,-52.2355C183.263,-55.8133 203.801,-60.1455 221.32,-63.841"/>
<polygon fill="black" stroke="black" points="220.73,-67.2934 231.237,-65.9328 222.175,-60.4441 220.73,-67.2934"/>
<text text-anchor="middle" x="200" y="-64.8" font-family="Times,serif" font-size="14.00">ल्युट्</text>
</g>
<!-- Node4 -->
<g id="node4" class="node"><title>Node4</title>
<g id="a_node4"><a xlink:title="सुलगा हुआ, प्रज्वलित, भभकाया हुआ">
<polygon fill="none" stroke="blue" points="292,-36 230,-36 230,-0 292,-0 292,-36"/>
<text text-anchor="middle" x="261" y="-14.3" font-family="Times,serif" font-size="14.00">सन्धुक्षित</text>
</a>
</g>
</g>
<!-- Node2&#45;&gt;Node4 -->
<g id="edge3" class="edge"><title>Node2&#45;&gt;Node4</title>
<path fill="none" stroke="black" d="M166.302,-37.7645C182.892,-34.265 202.903,-30.0439 220.165,-26.4027"/>
<polygon fill="black" stroke="black" points="220.902,-29.8243 229.964,-24.3356 219.457,-22.975 220.902,-29.8243"/>
<text text-anchor="middle" x="200" y="-36.8" font-family="Times,serif" font-size="14.00">क्त</text>
</g>
</g>
</svg>
