<?xml version="1.0" encoding="UTF-8" standalone="no"?>
<!DOCTYPE svg PUBLIC "-//W3C//DTD SVG 1.1//EN"
 "http://www.w3.org/Graphics/SVG/1.1/DTD/svg11.dtd">
<!-- Generated by graphviz version 2.36.0 (20140111.2315)
 -->
<!-- Title: G Pages: 1 -->
<svg width="292pt" height="98pt"
 viewBox="0.00 0.00 292.00 98.00" xmlns="http://www.w3.org/2000/svg" xmlns:xlink="http://www.w3.org/1999/xlink">
<g id="graph0" class="graph" transform="scale(1 1) rotate(0) translate(4 94)">
<title>G</title>
<polygon fill="white" stroke="none" points="-4,4 -4,-94 288,-94 288,4 -4,4"/>
<!-- Node1 -->
<g id="node1" class="node"><title>Node1</title>
<ellipse fill="none" stroke="red" cx="27" cy="-48" rx="27" ry="18"/>
<text text-anchor="middle" x="27" y="-44.3" font-family="Times,serif" font-size="14.00">अच्</text>
</g>
<!-- Node2 -->
<g id="node2" class="node"><title>Node2</title>
<ellipse fill="none" stroke="red" cx="133" cy="-72" rx="33.2948" ry="18"/>
<text text-anchor="middle" x="133" y="-68.3" font-family="Times,serif" font-size="14.00">प्र_अच्</text>
</g>
<!-- Node1&#45;&gt;Node2 -->
<g id="edge1" class="edge"><title>Node1&#45;&gt;Node2</title>
<path fill="none" stroke="black" d="M52.6465,-53.6877C64.4215,-56.405 78.8124,-59.7259 92.09,-62.79"/>
<polygon fill="black" stroke="black" points="91.4337,-66.2305 101.965,-65.0688 93.0078,-59.4097 91.4337,-66.2305"/>
</g>
<!-- Node4 -->
<g id="node4" class="node"><title>Node4</title>
<ellipse fill="none" stroke="red" cx="133" cy="-18" rx="40.0939" ry="18"/>
<text text-anchor="middle" x="133" y="-14.3" font-family="Times,serif" font-size="14.00">लस्_अच्</text>
</g>
<!-- Node1&#45;&gt;Node4 -->
<g id="edge3" class="edge"><title>Node1&#45;&gt;Node4</title>
<path fill="none" stroke="black" d="M52.1211,-41.042C63.0111,-37.9006 76.2172,-34.0912 88.7291,-30.482"/>
<polygon fill="black" stroke="black" points="89.919,-33.7815 98.5571,-27.647 87.9788,-27.0558 89.919,-33.7815"/>
</g>
<!-- Node3 -->
<g id="node3" class="node"><title>Node3</title>
<g id="a_node3"><a xlink:title="सारथि, रथवान्">
<polygon fill="none" stroke="blue" points="284,-90 230,-90 230,-54 284,-54 284,-90"/>
<text text-anchor="middle" x="257" y="-68.3" font-family="Times,serif" font-size="14.00">प्रवेतृ</text>
</a>
</g>
</g>
<!-- Node2&#45;&gt;Node3 -->
<g id="edge2" class="edge"><title>Node2&#45;&gt;Node3</title>
<path fill="none" stroke="black" d="M166.373,-72C182.742,-72 202.667,-72 219.57,-72"/>
<polygon fill="black" stroke="black" points="219.645,-75.5001 229.645,-72 219.645,-68.5001 219.645,-75.5001"/>
<text text-anchor="middle" x="202" y="-75.8" font-family="Times,serif" font-size="14.00">तृन्</text>
</g>
<!-- Node5 -->
<g id="node5" class="node"><title>Node5</title>
<g id="a_node5"><a xlink:title="थूक, लार">
<polygon fill="none" stroke="blue" points="284,-36 230,-36 230,-0 284,-0 284,-36"/>
<text text-anchor="middle" x="257" y="-14.3" font-family="Times,serif" font-size="14.00">लसिका</text>
</a>
</g>
</g>
<!-- Node4&#45;&gt;Node5 -->
<g id="edge4" class="edge"><title>Node4&#45;&gt;Node5</title>
<path fill="none" stroke="black" d="M173.61,-18C188.391,-18 205.09,-18 219.571,-18"/>
<polygon fill="black" stroke="black" points="219.664,-21.5001 229.664,-18 219.664,-14.5001 219.664,-21.5001"/>
<text text-anchor="middle" x="202" y="-21.8" font-family="Times,serif" font-size="14.00">कन्</text>
</g>
</g>
</svg>
