<?xml version="1.0" encoding="UTF-8" standalone="no"?>
<!DOCTYPE svg PUBLIC "-//W3C//DTD SVG 1.1//EN"
 "http://www.w3.org/Graphics/SVG/1.1/DTD/svg11.dtd">
<!-- Generated by graphviz version 2.40.1 (20161225.0304)
 -->
<!-- Title: G Pages: 1 -->
<svg width="502pt" height="1016pt"
 viewBox="0.00 0.00 502.18 1016.00" xmlns="http://www.w3.org/2000/svg" xmlns:xlink="http://www.w3.org/1999/xlink">
<g id="graph0" class="graph" transform="scale(1 1) rotate(0) translate(4 1012)">
<title>G</title>
<polygon fill="#ffffff" stroke="transparent" points="-4,4 -4,-1012 498.1822,-1012 498.1822,4 -4,4"/>
<!-- Node1 -->
<g id="node1" class="node">
<title>Node1</title>
<ellipse fill="none" stroke="#ff0000" cx="27" cy="-531" rx="27" ry="18"/>
<text text-anchor="middle" x="27" y="-527.3" font-family="Times,serif" font-size="14.00" fill="#000000">अज्</text>
</g>
<!-- Node2 -->
<g id="node2" class="node">
<title>Node2</title>
<g id="a_node2"><a xlink:title="पथ, मार्ग">
<polygon fill="none" stroke="#0000ff" points="192.1459,-1008 138.1459,-1008 138.1459,-972 192.1459,-972 192.1459,-1008"/>
<text text-anchor="middle" x="165.1459" y="-986.3" font-family="Times,serif" font-size="14.00" fill="#000000">अजनि</text>
</a>
</g>
</g>
<!-- Node1&#45;&gt;Node2 -->
<g id="edge1" class="edge">
<title>Node1&#45;&gt;Node2</title>
<path fill="none" stroke="#000000" d="M28.1951,-548.9969C32.578,-612.5328 48.7352,-825.9405 72,-890 85.1722,-926.2696 91.1391,-936.3024 119,-963 122.0912,-965.9621 125.5665,-968.7334 129.1872,-971.2863"/>
<polygon fill="#000000" stroke="#000000" points="127.4865,-974.3542 137.787,-976.8343 131.2812,-968.4721 127.4865,-974.3542"/>
<text text-anchor="middle" x="86.5" y="-946.8" font-family="Times,serif" font-size="14.00" fill="#000000">अनि</text>
</g>
<!-- Node3 -->
<g id="node3" class="node">
<title>Node3</title>
<ellipse fill="none" stroke="#ff0000" cx="165.1459" cy="-936" rx="46.2923" ry="18"/>
<text text-anchor="middle" x="165.1459" y="-932.3" font-family="Times,serif" font-size="14.00" fill="#000000">अज्+आज</text>
</g>
<!-- Node1&#45;&gt;Node3 -->
<g id="edge2" class="edge">
<title>Node1&#45;&gt;Node3</title>
<path fill="none" stroke="#000000" d="M28.0446,-549.254C31.733,-609.7886 45.3796,-803.2398 72,-859 83.785,-883.6854 107.725,-903.1983 128.3828,-916.4048"/>
<polygon fill="#000000" stroke="#000000" points="126.6343,-919.4381 136.9902,-921.6753 130.2897,-913.4683 126.6343,-919.4381"/>
</g>
<!-- Node5 -->
<g id="node5" class="node">
<title>Node5</title>
<g id="a_node5"><a xlink:title="उत्तम कुल का, निर्भय, जैसे घोड़ा">
<polygon fill="none" stroke="#0000ff" points="194.1459,-900 136.1459,-900 136.1459,-864 194.1459,-864 194.1459,-900"/>
<text text-anchor="middle" x="165.1459" y="-878.3" font-family="Times,serif" font-size="14.00" fill="#000000">अजानेय</text>
</a>
</g>
</g>
<!-- Node1&#45;&gt;Node5 -->
<g id="edge4" class="edge">
<title>Node1&#45;&gt;Node5</title>
<path fill="none" stroke="#000000" d="M28.5954,-549.1954C33.5141,-602.8297 49.4841,-759.3976 72,-805 83.8135,-828.9263 106.8782,-848.0837 127.0993,-861.3054"/>
<polygon fill="#000000" stroke="#000000" points="125.5109,-864.4403 135.8439,-866.7814 129.2261,-858.5076 125.5109,-864.4403"/>
<text text-anchor="middle" x="86.5" y="-843.8" font-family="Times,serif" font-size="14.00" fill="#000000">अप</text>
</g>
<!-- Node6 -->
<g id="node6" class="node">
<title>Node6</title>
<g id="a_node6"><a xlink:title="बाघ, सिंह या हाथी आदि, विशेषकर काले हिरण की रोएँदार खाल जिसके आसन बनते हैं या जो पहनने के काम में आती है, अथाजिनाषाढधरः &#45;">
<polygon fill="none" stroke="#0000ff" points="192.1459,-846 138.1459,-846 138.1459,-810 192.1459,-810 192.1459,-846"/>
<text text-anchor="middle" x="165.1459" y="-824.3" font-family="Times,serif" font-size="14.00" fill="#000000">अजिन</text>
</a>
</g>
</g>
<!-- Node1&#45;&gt;Node6 -->
<g id="edge5" class="edge">
<title>Node1&#45;&gt;Node6</title>
<path fill="none" stroke="#000000" d="M27.5686,-549.2843C29.4421,-588.137 37.4849,-680.9259 72,-749 86.0876,-776.785 94.8283,-781.3481 119,-801 122.2409,-803.6349 125.7684,-806.1778 129.3814,-808.5795"/>
<polygon fill="#000000" stroke="#000000" points="127.5412,-811.5568 137.8727,-813.9044 131.2602,-805.6264 127.5412,-811.5568"/>
<text text-anchor="middle" x="86.5" y="-789.8" font-family="Times,serif" font-size="14.00" fill="#000000">इनच्</text>
</g>
<!-- Node7 -->
<g id="node7" class="node">
<title>Node7</title>
<g id="a_node7"><a xlink:title="आंगन, अहाता, अखाड़ा, उटजाजिरप्रकीर्ण &#45;#शीघ्रगामी, स्फूर्तिवान्">
<polygon fill="none" stroke="#0000ff" points="192.1459,-792 138.1459,-792 138.1459,-756 192.1459,-756 192.1459,-792"/>
<text text-anchor="middle" x="165.1459" y="-770.3" font-family="Times,serif" font-size="14.00" fill="#000000">अजिर</text>
</a>
</g>
</g>
<!-- Node1&#45;&gt;Node7 -->
<g id="edge6" class="edge">
<title>Node1&#45;&gt;Node7</title>
<path fill="none" stroke="#000000" d="M29.6853,-548.9328C34.7315,-579.1816 47.4069,-641.6734 72,-689 87.299,-718.4411 93.8294,-725.3833 119,-747 122.1687,-749.7213 125.6493,-752.3202 129.2342,-754.7556"/>
<polygon fill="#000000" stroke="#000000" points="127.3719,-757.7191 137.6906,-760.1222 131.1228,-751.8088 127.3719,-757.7191"/>
<text text-anchor="middle" x="86.5" y="-733.8" font-family="Times,serif" font-size="14.00" fill="#000000">किरन्</text>
</g>
<!-- Node8 -->
<g id="node8" class="node">
<title>Node8</title>
<g id="a_node8"><a xlink:title="एक नदी का नाम">
<polygon fill="none" stroke="#0000ff" points="192.1459,-738 138.1459,-738 138.1459,-702 192.1459,-702 192.1459,-738"/>
<text text-anchor="middle" x="165.1459" y="-716.3" font-family="Times,serif" font-size="14.00" fill="#000000">अजिरा</text>
</a>
</g>
</g>
<!-- Node1&#45;&gt;Node8 -->
<g id="edge7" class="edge">
<title>Node1&#45;&gt;Node8</title>
<path fill="none" stroke="#000000" d="M33.1547,-548.7616C45.1371,-581.117 74.3959,-650.2583 119,-693 122.0912,-695.9621 125.5665,-698.7334 129.1872,-701.2863"/>
<polygon fill="#000000" stroke="#000000" points="127.4865,-704.3542 137.787,-706.8343 131.2812,-698.4721 127.4865,-704.3542"/>
<text text-anchor="middle" x="86.5" y="-673.8" font-family="Times,serif" font-size="14.00" fill="#000000">किरन्</text>
</g>
<!-- Node9 -->
<g id="node9" class="node">
<title>Node9</title>
<ellipse fill="none" stroke="#ff0000" cx="165.1459" cy="-666" rx="44.393" ry="18"/>
<text text-anchor="middle" x="165.1459" y="-662.3" font-family="Times,serif" font-size="14.00" fill="#000000">अज्+णिच्</text>
</g>
<!-- Node1&#45;&gt;Node9 -->
<g id="edge8" class="edge">
<title>Node1&#45;&gt;Node9</title>
<path fill="none" stroke="#000000" d="M38.2861,-547.5596C54.3022,-570.2026 85.4318,-611.1823 119,-639 122.0486,-641.5264 125.3625,-643.9604 128.7685,-646.2629"/>
<polygon fill="#000000" stroke="#000000" points="127.0075,-649.2906 137.3266,-651.6924 130.7576,-643.3798 127.0075,-649.2906"/>
</g>
<!-- Node13 -->
<g id="node13" class="node">
<title>Node13</title>
<ellipse fill="none" stroke="#ff0000" cx="165.1459" cy="-612" rx="34.394" ry="18"/>
<text text-anchor="middle" x="165.1459" y="-608.3" font-family="Times,serif" font-size="14.00" fill="#000000">प्र_अज्</text>
</g>
<!-- Node1&#45;&gt;Node13 -->
<g id="edge12" class="edge">
<title>Node1&#45;&gt;Node13</title>
<path fill="none" stroke="#000000" d="M44.5087,-544.8306C52.6585,-551.0071 62.6092,-558.1869 72,-564 90.5329,-575.4723 112.1211,-586.72 129.8452,-595.4405"/>
<polygon fill="#000000" stroke="#000000" points="128.7264,-598.7882 139.2505,-600.0106 131.7858,-592.4921 128.7264,-598.7882"/>
</g>
<!-- Node19 -->
<g id="node19" class="node">
<title>Node19</title>
<g id="a_node19"><a xlink:title="जवानी, जीवन का प्रमुख अंशवयोगते किं वनिताविलासः">
<polygon fill="none" stroke="#0000ff" points="192.1459,-576 138.1459,-576 138.1459,-540 192.1459,-540 192.1459,-576"/>
<text text-anchor="middle" x="165.1459" y="-554.3" font-family="Times,serif" font-size="14.00" fill="#000000">वयस्</text>
</a>
</g>
</g>
<!-- Node1&#45;&gt;Node19 -->
<g id="edge18" class="edge">
<title>Node1&#45;&gt;Node19</title>
<path fill="none" stroke="#000000" d="M52.9842,-536.0785C74.0902,-540.2036 104.133,-546.0753 127.8146,-550.7038"/>
<polygon fill="#000000" stroke="#000000" points="127.3748,-554.1839 137.8605,-552.6672 128.7175,-547.3139 127.3748,-554.1839"/>
<text text-anchor="middle" x="86.5" y="-548.8" font-family="Times,serif" font-size="14.00" fill="#000000">असुन्</text>
</g>
<!-- Node20 -->
<g id="node20" class="node">
<title>Node20</title>
<g id="a_node20"><a xlink:title="वायु">
<polygon fill="none" stroke="#0000ff" points="192.1459,-522 138.1459,-522 138.1459,-486 192.1459,-486 192.1459,-522"/>
<text text-anchor="middle" x="165.1459" y="-500.3" font-family="Times,serif" font-size="14.00" fill="#000000">वीक</text>
</a>
</g>
</g>
<!-- Node1&#45;&gt;Node20 -->
<g id="edge19" class="edge">
<title>Node1&#45;&gt;Node20</title>
<path fill="none" stroke="#000000" d="M52.6647,-525.1194C58.9769,-523.722 65.7246,-522.2694 72,-521 90.2795,-517.3023 110.6513,-513.5431 127.6706,-510.5033"/>
<polygon fill="#000000" stroke="#000000" points="128.55,-513.9021 137.7857,-508.7105 127.3283,-507.0095 128.55,-513.9021"/>
<text text-anchor="middle" x="86.5" y="-524.8" font-family="Times,serif" font-size="14.00" fill="#000000">कन्</text>
</g>
<!-- Node21 -->
<g id="node21" class="node">
<title>Node21</title>
<g id="a_node21"><a xlink:title="किराया, मज़दूरी, भृति, तनख्वाह, वृत्ति">
<polygon fill="none" stroke="#0000ff" points="192.1459,-468 138.1459,-468 138.1459,-432 192.1459,-432 192.1459,-468"/>
<text text-anchor="middle" x="165.1459" y="-446.3" font-family="Times,serif" font-size="14.00" fill="#000000">वेतन</text>
</a>
</g>
</g>
<!-- Node1&#45;&gt;Node21 -->
<g id="edge20" class="edge">
<title>Node1&#45;&gt;Node21</title>
<path fill="none" stroke="#000000" d="M44.0052,-517.0053C52.2163,-510.5503 62.3595,-503.0062 72,-497 90.0303,-485.7667 111.0899,-474.9615 128.619,-466.5498"/>
<polygon fill="#000000" stroke="#000000" points="130.409,-469.575 137.9524,-462.1354 127.416,-463.2471 130.409,-469.575"/>
<text text-anchor="middle" x="86.5" y="-500.8" font-family="Times,serif" font-size="14.00" fill="#000000">तनन्</text>
</g>
<!-- Node22 -->
<g id="node22" class="node">
<title>Node22</title>
<g id="a_node22"><a xlink:title="नरसल, नरकुल, बेत, अविलम्बितमेधि वेतसस्तरुवन्माधव मा स्म भज्यथाः">
<polygon fill="none" stroke="#0000ff" points="192.1459,-414 138.1459,-414 138.1459,-378 192.1459,-378 192.1459,-414"/>
<text text-anchor="middle" x="165.1459" y="-392.3" font-family="Times,serif" font-size="14.00" fill="#000000">वेतस</text>
</a>
</g>
</g>
<!-- Node1&#45;&gt;Node22 -->
<g id="edge21" class="edge">
<title>Node1&#45;&gt;Node22</title>
<path fill="none" stroke="#000000" d="M36.5124,-513.8533C44.8873,-499.5067 57.9162,-478.8922 72,-463 90.1926,-442.4714 96.6317,-438.8763 119,-423 122.2287,-420.7083 125.6627,-418.4307 129.1439,-416.2262"/>
<polygon fill="#000000" stroke="#000000" points="131.099,-419.1331 137.8043,-410.9301 127.4471,-413.1613 131.099,-419.1331"/>
<text text-anchor="middle" x="86.5" y="-466.8" font-family="Times,serif" font-size="14.00" fill="#000000">असुन्</text>
</g>
<!-- Node23 -->
<g id="node23" class="node">
<title>Node23</title>
<g id="a_node23"><a xlink:title="एक प्रकार की भूतयोनि, विशाच, प्रेत, विशेषकर शव पर अधिकार रखने वाला भूत">
<polygon fill="none" stroke="#0000ff" points="192.1459,-360 138.1459,-360 138.1459,-324 192.1459,-324 192.1459,-360"/>
<text text-anchor="middle" x="165.1459" y="-338.3" font-family="Times,serif" font-size="14.00" fill="#000000">वेताल</text>
</a>
</g>
</g>
<!-- Node1&#45;&gt;Node23 -->
<g id="edge22" class="edge">
<title>Node1&#45;&gt;Node23</title>
<path fill="none" stroke="#000000" d="M31.7735,-513.1564C38.474,-489.9975 52.1177,-448.8984 72,-418 88.3292,-392.6234 95.3061,-387.6873 119,-369 122.2796,-366.4134 125.8321,-363.9018 129.4602,-361.5189"/>
<polygon fill="#000000" stroke="#000000" points="131.3332,-364.4758 137.9702,-356.2173 127.6318,-358.5344 131.3332,-364.4758"/>
<text text-anchor="middle" x="86.5" y="-421.8" font-family="Times,serif" font-size="14.00" fill="#000000">विच्</text>
</g>
<!-- Node24 -->
<g id="node24" class="node">
<title>Node24</title>
<g id="a_node24"><a xlink:title="वेत, नरसल">
<polygon fill="none" stroke="#0000ff" points="192.1459,-306 138.1459,-306 138.1459,-270 192.1459,-270 192.1459,-306"/>
<text text-anchor="middle" x="165.1459" y="-284.3" font-family="Times,serif" font-size="14.00" fill="#000000">वेत्र</text>
</a>
</g>
</g>
<!-- Node1&#45;&gt;Node24 -->
<g id="edge23" class="edge">
<title>Node1&#45;&gt;Node24</title>
<path fill="none" stroke="#000000" d="M28.9764,-512.9636C33.0619,-481.2665 44.4695,-414.264 72,-365 86.8782,-338.3765 95.1486,-334.0074 119,-315 122.2665,-312.3969 125.8105,-309.8746 129.4335,-307.4853"/>
<polygon fill="#000000" stroke="#000000" points="131.3085,-310.4408 137.9372,-302.1757 127.6011,-304.5032 131.3085,-310.4408"/>
<text text-anchor="middle" x="86.5" y="-368.8" font-family="Times,serif" font-size="14.00" fill="#000000">त्रल्</text>
</g>
<!-- Node25 -->
<g id="node25" class="node">
<title>Node25</title>
<g id="a_node25"><a xlink:title="शरीर">
<polygon fill="none" stroke="#0000ff" points="192.1459,-252 138.1459,-252 138.1459,-216 192.1459,-216 192.1459,-252"/>
<text text-anchor="middle" x="165.1459" y="-230.3" font-family="Times,serif" font-size="14.00" fill="#000000">वेर</text>
</a>
</g>
</g>
<!-- Node1&#45;&gt;Node25 -->
<g id="edge24" class="edge">
<title>Node1&#45;&gt;Node25</title>
<path fill="none" stroke="#000000" d="M29.4108,-512.8465C35.7312,-466.7958 53.5691,-346.5654 72,-311 84.6705,-286.5502 108.8328,-266.9311 129.3728,-253.616"/>
<polygon fill="#000000" stroke="#000000" points="131.2712,-256.557 137.9098,-248.2999 127.571,-250.6149 131.2712,-256.557"/>
<text text-anchor="middle" x="86.5" y="-314.8" font-family="Times,serif" font-size="14.00" fill="#000000">रन्</text>
</g>
<!-- Node26 -->
<g id="node26" class="node">
<title>Node26</title>
<ellipse fill="none" stroke="#ff0000" cx="165.1459" cy="-180" rx="36.2938" ry="18"/>
<text text-anchor="middle" x="165.1459" y="-176.3" font-family="Times,serif" font-size="14.00" fill="#000000">वि_अज्</text>
</g>
<!-- Node1&#45;&gt;Node26 -->
<g id="edge25" class="edge">
<title>Node1&#45;&gt;Node26</title>
<path fill="none" stroke="#000000" d="M29.0762,-512.8287C35.1152,-461.4583 53.4256,-316.0509 72,-272 85.8511,-239.1509 92.6034,-230.9611 119,-207 122.4171,-203.8982 126.2474,-200.9828 130.2017,-198.2985"/>
<polygon fill="#000000" stroke="#000000" points="132.3367,-201.0906 138.9436,-192.8082 128.6137,-195.1628 132.3367,-201.0906"/>
</g>
<!-- Node29 -->
<g id="node29" class="node">
<title>Node29</title>
<g id="a_node29"><a xlink:title="धोखा, चाल, छल, जालसाजी">
<polygon fill="none" stroke="#0000ff" points="192.1459,-144 138.1459,-144 138.1459,-108 192.1459,-108 192.1459,-144"/>
<text text-anchor="middle" x="165.1459" y="-122.3" font-family="Times,serif" font-size="14.00" fill="#000000">व्याज</text>
</a>
</g>
</g>
<!-- Node1&#45;&gt;Node29 -->
<g id="edge28" class="edge">
<title>Node1&#45;&gt;Node29</title>
<path fill="none" stroke="#000000" d="M28.5532,-512.6725C33.6505,-454.5544 50.7651,-275.0314 72,-221 85.4381,-186.8072 92.0613,-177.9807 119,-153 122.1393,-150.0889 125.6454,-147.3503 129.2842,-144.8165"/>
<polygon fill="#000000" stroke="#000000" points="131.3746,-147.634 137.9054,-139.2914 127.5975,-141.7404 131.3746,-147.634"/>
</g>
<!-- Node30 -->
<g id="node30" class="node">
<title>Node30</title>
<ellipse fill="none" stroke="#ff0000" cx="165.1459" cy="-72" rx="40.0939" ry="18"/>
<text text-anchor="middle" x="165.1459" y="-68.3" font-family="Times,serif" font-size="14.00" fill="#000000">सम्_अज्</text>
</g>
<!-- Node1&#45;&gt;Node30 -->
<g id="edge29" class="edge">
<title>Node1&#45;&gt;Node30</title>
<path fill="none" stroke="#000000" d="M28.1221,-512.7814C32.2583,-448.4659 47.6858,-232.4684 72,-168 85.0939,-133.282 91.8787,-124.3224 119,-99 122.1294,-96.0782 125.6291,-93.3328 129.2642,-90.795"/>
<polygon fill="#000000" stroke="#000000" points="131.3553,-93.6118 137.881,-85.2651 127.5746,-87.7206 131.3553,-93.6118"/>
</g>
<!-- Node4 -->
<g id="node4" class="node">
<title>Node4</title>
<g id="a_node4"><a xlink:title="सफेद या काला जीरा">
<polygon fill="none" stroke="#0000ff" points="354.237,-954 298.237,-954 298.237,-918 354.237,-918 354.237,-954"/>
<text text-anchor="middle" x="326.237" y="-932.3" font-family="Times,serif" font-size="14.00" fill="#000000">अजाजि</text>
</a>
</g>
</g>
<!-- Node3&#45;&gt;Node4 -->
<g id="edge3" class="edge">
<title>Node3&#45;&gt;Node4</title>
<path fill="none" stroke="#000000" d="M211.3082,-936C235.4956,-936 264.7757,-936 287.7283,-936"/>
<polygon fill="#000000" stroke="#000000" points="287.7878,-939.5001 297.7877,-936 287.7877,-932.5001 287.7878,-939.5001"/>
<text text-anchor="middle" x="241.7918" y="-939.8" font-family="Times,serif" font-size="14.00" fill="#000000">इन्</text>
</g>
<!-- Node10 -->
<g id="node10" class="node">
<title>Node10</title>
<ellipse fill="none" stroke="#ff0000" cx="326.237" cy="-747" rx="53.8905" ry="18"/>
<text text-anchor="middle" x="326.237" y="-743.3" font-family="Times,serif" font-size="14.00" fill="#000000">प्र_अज्+णिच्</text>
</g>
<!-- Node9&#45;&gt;Node10 -->
<g id="edge9" class="edge">
<title>Node9&#45;&gt;Node10</title>
<path fill="none" stroke="#000000" d="M192.3419,-680.1918C198.7881,-684.0156 205.4756,-688.3835 211.2918,-693 220.4029,-700.2317 219.5583,-705.6307 229.2918,-712 242.5571,-720.6804 258.2515,-727.5445 273.1051,-732.8099"/>
<polygon fill="#000000" stroke="#000000" points="272.1165,-736.17 282.7106,-736.0421 274.349,-729.5355 272.1165,-736.17"/>
</g>
<!-- Node11 -->
<g id="node11" class="node">
<title>Node11</title>
<g id="a_node11"><a xlink:title="सारथि, चालक, रथवान्">
<polygon fill="none" stroke="#0000ff" points="494.1822,-792 440.1822,-792 440.1822,-756 494.1822,-756 494.1822,-792"/>
<text text-anchor="middle" x="467.1822" y="-770.3" font-family="Times,serif" font-size="14.00" fill="#000000">प्राजक</text>
</a>
</g>
</g>
<!-- Node10&#45;&gt;Node11 -->
<g id="edge10" class="edge">
<title>Node10&#45;&gt;Node11</title>
<path fill="none" stroke="#000000" d="M373.1697,-755.9906C391.7796,-759.5556 412.8638,-763.5946 430.3423,-766.9428"/>
<polygon fill="#000000" stroke="#000000" points="429.6908,-770.3816 440.1707,-768.8256 431.0079,-763.5066 429.6908,-770.3816"/>
<text text-anchor="middle" x="410.1822" y="-768.8" font-family="Times,serif" font-size="14.00" fill="#000000">ण्वुल्</text>
</g>
<!-- Node12 -->
<g id="node12" class="node">
<title>Node12</title>
<g id="a_node12"><a xlink:title="हंटर, चाबुक, अंकुश">
<polygon fill="none" stroke="#0000ff" points="494.1822,-738 440.1822,-738 440.1822,-702 494.1822,-702 494.1822,-738"/>
<text text-anchor="middle" x="467.1822" y="-716.3" font-family="Times,serif" font-size="14.00" fill="#000000">प्राजन</text>
</a>
</g>
</g>
<!-- Node10&#45;&gt;Node12 -->
<g id="edge11" class="edge">
<title>Node10&#45;&gt;Node12</title>
<path fill="none" stroke="#000000" d="M373.1697,-738.0094C391.7796,-734.4444 412.8638,-730.4054 430.3423,-727.0572"/>
<polygon fill="#000000" stroke="#000000" points="431.0079,-730.4934 440.1707,-725.1744 429.6908,-723.6184 431.0079,-730.4934"/>
<text text-anchor="middle" x="410.1822" y="-735.8" font-family="Times,serif" font-size="14.00" fill="#000000">ण्वुल्</text>
</g>
<!-- Node14 -->
<g id="node14" class="node">
<title>Node14</title>
<g id="a_node14"><a xlink:title="हंटर, चाबुक, अंकुश, त्यक्तप्राजनरश्मिरङिकततनुः पार्थाङिकतैर्मार्गणैः&#45;">
<polygon fill="none" stroke="#0000ff" points="353.237,-711 299.237,-711 299.237,-675 353.237,-675 353.237,-711"/>
<text text-anchor="middle" x="326.237" y="-689.3" font-family="Times,serif" font-size="14.00" fill="#000000">प्राजन</text>
</a>
</g>
</g>
<!-- Node13&#45;&gt;Node14 -->
<g id="edge13" class="edge">
<title>Node13&#45;&gt;Node14</title>
<path fill="none" stroke="#000000" d="M189.7738,-624.7821C201.6882,-630.937 216.2109,-638.3974 229.2918,-645 249.2801,-655.0891 271.6764,-666.1913 289.9029,-675.1748"/>
<polygon fill="#000000" stroke="#000000" points="288.5016,-678.3861 299.0192,-679.663 291.5935,-672.1059 288.5016,-678.3861"/>
<text text-anchor="middle" x="241.7918" y="-659.8" font-family="Times,serif" font-size="14.00" fill="#000000">ल्युट्</text>
</g>
<!-- Node15 -->
<g id="node15" class="node">
<title>Node15</title>
<g id="a_node15"><a xlink:title="बाज, पक्षी, श्येन">
<polygon fill="none" stroke="#0000ff" points="353.237,-657 299.237,-657 299.237,-621 353.237,-621 353.237,-657"/>
<text text-anchor="middle" x="326.237" y="-635.3" font-family="Times,serif" font-size="14.00" fill="#000000">प्राजिक</text>
</a>
</g>
</g>
<!-- Node13&#45;&gt;Node15 -->
<g id="edge14" class="edge">
<title>Node13&#45;&gt;Node15</title>
<path fill="none" stroke="#000000" d="M198.1338,-617.529C224.5793,-621.9615 261.6813,-628.18 289.1537,-632.7846"/>
<polygon fill="#000000" stroke="#000000" points="288.728,-636.262 299.169,-634.4632 289.8851,-629.3583 288.728,-636.262"/>
<text text-anchor="middle" x="241.7918" y="-629.8" font-family="Times,serif" font-size="14.00" fill="#000000">ठञ्</text>
</g>
<!-- Node16 -->
<g id="node16" class="node">
<title>Node16</title>
<g id="a_node16"><a xlink:title="सारथि, चालक, रथवान्">
<polygon fill="none" stroke="#0000ff" points="353.237,-603 299.237,-603 299.237,-567 353.237,-567 353.237,-603"/>
<text text-anchor="middle" x="326.237" y="-581.3" font-family="Times,serif" font-size="14.00" fill="#000000">प्राजितृ</text>
</a>
</g>
</g>
<!-- Node13&#45;&gt;Node16 -->
<g id="edge15" class="edge">
<title>Node13&#45;&gt;Node16</title>
<path fill="none" stroke="#000000" d="M198.1338,-606.471C224.5793,-602.0385 261.6813,-595.82 289.1537,-591.2154"/>
<polygon fill="#000000" stroke="#000000" points="289.8851,-594.6417 299.169,-589.5368 288.728,-587.738 289.8851,-594.6417"/>
<text text-anchor="middle" x="241.7918" y="-603.8" font-family="Times,serif" font-size="14.00" fill="#000000">तृच्</text>
</g>
<!-- Node17 -->
<g id="node17" class="node">
<title>Node17</title>
<g id="a_node17"><a xlink:title="सारथि, चालक, रथवान्">
<polygon fill="none" stroke="#0000ff" points="353.237,-549 299.237,-549 299.237,-513 353.237,-513 353.237,-549"/>
<text text-anchor="middle" x="326.237" y="-527.3" font-family="Times,serif" font-size="14.00" fill="#000000">प्राजिन्</text>
</a>
</g>
</g>
<!-- Node13&#45;&gt;Node17 -->
<g id="edge16" class="edge">
<title>Node13&#45;&gt;Node17</title>
<path fill="none" stroke="#000000" d="M189.1032,-599.0394C201.1141,-592.6086 215.9153,-584.7848 229.2918,-578 249.1791,-567.9128 271.5684,-557.0277 289.8163,-548.2755"/>
<polygon fill="#000000" stroke="#000000" points="291.4352,-551.381 298.9461,-543.9086 288.4147,-545.0661 291.4352,-551.381"/>
<text text-anchor="middle" x="241.7918" y="-581.8" font-family="Times,serif" font-size="14.00" fill="#000000">णिनि</text>
</g>
<!-- Node18 -->
<g id="node18" class="node">
<title>Node18</title>
<g id="a_node18"><a xlink:title="प्रचुर, पर्याप्त, बहुल, अधिक, बहुत, तव भवतु विडौजाः प्राज्यवृष्टिः प्रजासु&#45;">
<polygon fill="none" stroke="#0000ff" points="353.237,-495 299.237,-495 299.237,-459 353.237,-459 353.237,-495"/>
<text text-anchor="middle" x="326.237" y="-473.3" font-family="Times,serif" font-size="14.00" fill="#000000">प्राज्व</text>
</a>
</g>
</g>
<!-- Node13&#45;&gt;Node18 -->
<g id="edge17" class="edge">
<title>Node13&#45;&gt;Node18</title>
<path fill="none" stroke="#000000" d="M191.5516,-600.1576C198.5952,-596.0937 205.7727,-591.0215 211.2918,-585 223.9188,-571.2235 218.5267,-562.2757 229.2918,-547 244.8608,-524.9076 250.3694,-519.8075 272.2918,-504 277.8281,-500.0079 284.0418,-496.2986 290.2291,-492.9867"/>
<polygon fill="#000000" stroke="#000000" points="291.8634,-496.0823 299.1934,-488.4323 288.6927,-489.8415 291.8634,-496.0823"/>
<text text-anchor="middle" x="241.7918" y="-550.8" font-family="Times,serif" font-size="14.00" fill="#000000">ण्यत्</text>
</g>
<!-- Node27 -->
<g id="node27" class="node">
<title>Node27</title>
<polygon fill="none" stroke="#0000ff" points="353.237,-252 299.237,-252 299.237,-216 353.237,-216 353.237,-252"/>
<text text-anchor="middle" x="326.237" y="-230.3" font-family="Times,serif" font-size="14.00" fill="#000000">व्यजन</text>
</g>
<!-- Node26&#45;&gt;Node27 -->
<g id="edge26" class="edge">
<title>Node26&#45;&gt;Node27</title>
<path fill="none" stroke="#000000" d="M195.4459,-190.157C222.1057,-199.0937 260.9933,-212.1294 289.4351,-221.6635"/>
<polygon fill="#000000" stroke="#000000" points="288.4287,-225.0175 299.0226,-224.8773 290.6536,-218.3804 288.4287,-225.0175"/>
<text text-anchor="middle" x="241.7918" y="-212.8" font-family="Times,serif" font-size="14.00" fill="#000000">ल्युट्</text>
</g>
<!-- Node28 -->
<g id="node28" class="node">
<title>Node28</title>
<g id="a_node28"><a xlink:title="पंखा">
<polygon fill="none" stroke="#0000ff" points="353.237,-198 299.237,-198 299.237,-162 353.237,-162 353.237,-198"/>
<text text-anchor="middle" x="326.237" y="-176.3" font-family="Times,serif" font-size="14.00" fill="#000000">व्यज</text>
</a>
</g>
</g>
<!-- Node26&#45;&gt;Node28 -->
<g id="edge27" class="edge">
<title>Node26&#45;&gt;Node28</title>
<path fill="none" stroke="#000000" d="M201.7,-180C227.7266,-180 262.5933,-180 288.8139,-180"/>
<polygon fill="#000000" stroke="#000000" points="289.1136,-183.5001 299.1136,-180 289.1136,-176.5001 289.1136,-183.5001"/>
<text text-anchor="middle" x="241.7918" y="-183.8" font-family="Times,serif" font-size="14.00" fill="#000000">घञ्</text>
</g>
<!-- Node31 -->
<g id="node31" class="node">
<title>Node31</title>
<g id="a_node31"><a xlink:title="पशुओं का झुण्ड, पक्षियों का गोल, लहंडा, रेबड़">
<polygon fill="none" stroke="#0000ff" points="353.237,-144 299.237,-144 299.237,-108 353.237,-108 353.237,-144"/>
<text text-anchor="middle" x="326.237" y="-122.3" font-family="Times,serif" font-size="14.00" fill="#000000">समज</text>
</a>
</g>
</g>
<!-- Node30&#45;&gt;Node31 -->
<g id="edge30" class="edge">
<title>Node30&#45;&gt;Node31</title>
<path fill="none" stroke="#000000" d="M197.7451,-82.9277C224.2744,-91.8207 261.7146,-104.3712 289.34,-113.6316"/>
<polygon fill="#000000" stroke="#000000" points="288.4415,-117.0218 299.0354,-116.8816 290.6664,-110.3847 288.4415,-117.0218"/>
<text text-anchor="middle" x="241.7918" y="-104.8" font-family="Times,serif" font-size="14.00" fill="#000000">अप्</text>
</g>
<!-- Node32 -->
<g id="node32" class="node">
<title>Node32</title>
<g id="a_node32"><a xlink:title="सम्मिलन, सभा">
<polygon fill="none" stroke="#0000ff" points="353.737,-90 298.737,-90 298.737,-54 353.737,-54 353.737,-90"/>
<text text-anchor="middle" x="326.237" y="-68.3" font-family="Times,serif" font-size="14.00" fill="#000000">समज्या</text>
</a>
</g>
</g>
<!-- Node30&#45;&gt;Node32 -->
<g id="edge31" class="edge">
<title>Node30&#45;&gt;Node32</title>
<path fill="none" stroke="#000000" d="M205.796,-72C231.0784,-72 263.3767,-72 288.1611,-72"/>
<polygon fill="#000000" stroke="#000000" points="288.2806,-75.5001 298.2806,-72 288.2806,-68.5001 288.2806,-75.5001"/>
<text text-anchor="middle" x="241.7918" y="-75.8" font-family="Times,serif" font-size="14.00" fill="#000000">क्यप्</text>
</g>
<!-- Node33 -->
<g id="node33" class="node">
<title>Node33</title>
<g id="a_node33"><a xlink:title="सभा, मिलन, मजलिस, विशेषतः सर्वविदां समाजे विभूषणं मौनमपण्डितानाम्">
<polygon fill="none" stroke="#0000ff" points="353.237,-36 299.237,-36 299.237,0 353.237,0 353.237,-36"/>
<text text-anchor="middle" x="326.237" y="-14.3" font-family="Times,serif" font-size="14.00" fill="#000000">समाज</text>
</a>
</g>
</g>
<!-- Node30&#45;&gt;Node33 -->
<g id="edge32" class="edge">
<title>Node30&#45;&gt;Node33</title>
<path fill="none" stroke="#000000" d="M197.7451,-61.0723C224.2744,-52.1793 261.7146,-39.6288 289.34,-30.3684"/>
<polygon fill="#000000" stroke="#000000" points="290.6664,-33.6153 299.0354,-27.1184 288.4415,-26.9782 290.6664,-33.6153"/>
<text text-anchor="middle" x="241.7918" y="-53.8" font-family="Times,serif" font-size="14.00" fill="#000000">घञ्</text>
</g>
</g>
</svg>
