<?xml version="1.0" encoding="UTF-8" standalone="no"?>
<!DOCTYPE svg PUBLIC "-//W3C//DTD SVG 1.1//EN"
 "http://www.w3.org/Graphics/SVG/1.1/DTD/svg11.dtd">
<!-- Generated by graphviz version 2.40.1 (20161225.0304)
 -->
<!-- Title: G Pages: 1 -->
<svg width="325pt" height="260pt"
 viewBox="0.00 0.00 325.19 260.00" xmlns="http://www.w3.org/2000/svg" xmlns:xlink="http://www.w3.org/1999/xlink">
<g id="graph0" class="graph" transform="scale(1 1) rotate(0) translate(4 256)">
<title>G</title>
<polygon fill="#ffffff" stroke="transparent" points="-4,4 -4,-256 321.1915,-256 321.1915,4 -4,4"/>
<!-- Node1 -->
<g id="node1" class="node">
<title>Node1</title>
<ellipse fill="none" stroke="#ff0000" cx="27" cy="-126" rx="27" ry="18"/>
<text text-anchor="middle" x="27" y="-122.3" font-family="Times,serif" font-size="14.00" fill="#000000">अण्</text>
</g>
<!-- Node2 -->
<g id="node2" class="node">
<title>Node2</title>
<g id="a_node2"><a xlink:title="#अणु, बढ़ा देना, अणुं पर्वतीकृत &#45;">
<polygon fill="none" stroke="#0000ff" points="183.0957,-252 129.0957,-252 129.0957,-216 183.0957,-216 183.0957,-252"/>
<text text-anchor="middle" x="156.0957" y="-230.3" font-family="Times,serif" font-size="14.00" fill="#000000">अणु</text>
</a>
</g>
</g>
<!-- Node1&#45;&gt;Node2 -->
<g id="edge1" class="edge">
<title>Node1&#45;&gt;Node2</title>
<path fill="none" stroke="#000000" d="M40.5145,-141.9158C55.7576,-159.2611 81.8468,-187.1813 108,-207 111.8517,-209.9188 116.0541,-212.7362 120.319,-215.3786"/>
<polygon fill="#000000" stroke="#000000" points="118.6766,-218.4732 129.0692,-220.5333 122.2296,-212.4419 118.6766,-218.4732"/>
<text text-anchor="middle" x="81" y="-194.8" font-family="Times,serif" font-size="14.00" fill="#000000">उन्</text>
</g>
<!-- Node3 -->
<g id="node3" class="node">
<title>Node3</title>
<g id="a_node3"><a xlink:title="गाड़ी के धुरे की कील, अक्षकील">
<polygon fill="none" stroke="#0000ff" points="183.0957,-198 129.0957,-198 129.0957,-162 183.0957,-162 183.0957,-198"/>
<text text-anchor="middle" x="156.0957" y="-176.3" font-family="Times,serif" font-size="14.00" fill="#000000">आणि</text>
</a>
</g>
</g>
<!-- Node1&#45;&gt;Node3 -->
<g id="edge2" class="edge">
<title>Node1&#45;&gt;Node3</title>
<path fill="none" stroke="#000000" d="M50.0797,-135.6541C69.2851,-143.6876 96.9841,-155.274 119.2532,-164.589"/>
<polygon fill="#000000" stroke="#000000" points="118.1615,-167.9261 128.7376,-168.5562 120.8628,-161.4683 118.1615,-167.9261"/>
<text text-anchor="middle" x="81" y="-154.8" font-family="Times,serif" font-size="14.00" fill="#000000">इण्</text>
</g>
<!-- Node4 -->
<g id="node4" class="node">
<title>Node4</title>
<ellipse fill="none" stroke="#ff0000" cx="156.0957" cy="-126" rx="48.1917" ry="18"/>
<text text-anchor="middle" x="156.0957" y="-122.3" font-family="Times,serif" font-size="14.00" fill="#000000">धोरित_अण्</text>
</g>
<!-- Node1&#45;&gt;Node4 -->
<g id="edge3" class="edge">
<title>Node1&#45;&gt;Node4</title>
<path fill="none" stroke="#000000" d="M54.0627,-126C66.738,-126 82.3646,-126 97.5449,-126"/>
<polygon fill="#000000" stroke="#000000" points="97.9414,-129.5001 107.9414,-126 97.9413,-122.5001 97.9414,-129.5001"/>
</g>
<!-- Node6 -->
<g id="node6" class="node">
<title>Node6</title>
<g id="a_node6"><a xlink:title="झंडा, पताका, स्तनपरिणाहविलासवैजयन्ती">
<polygon fill="none" stroke="#0000ff" points="186.0957,-90 126.0957,-90 126.0957,-54 186.0957,-54 186.0957,-90"/>
<text text-anchor="middle" x="156.0957" y="-68.3" font-family="Times,serif" font-size="14.00" fill="#000000">वैजयन्ती</text>
</a>
</g>
</g>
<!-- Node1&#45;&gt;Node6 -->
<g id="edge5" class="edge">
<title>Node1&#45;&gt;Node6</title>
<path fill="none" stroke="#000000" d="M50.0797,-116.3459C68.527,-108.6295 94.8106,-97.6352 116.5915,-88.5244"/>
<polygon fill="#000000" stroke="#000000" points="118.0505,-91.708 125.9253,-84.6201 115.3492,-85.2502 118.0505,-91.708"/>
</g>
<!-- Node7 -->
<g id="node7" class="node">
<title>Node7</title>
<g id="a_node7"><a xlink:title="नरक की नदी का नाम">
<polygon fill="none" stroke="#0000ff" points="183.0957,-36 129.0957,-36 129.0957,0 183.0957,0 183.0957,-36"/>
<text text-anchor="middle" x="156.0957" y="-14.3" font-family="Times,serif" font-size="14.00" fill="#000000">वैतरणी</text>
</a>
</g>
</g>
<!-- Node1&#45;&gt;Node7 -->
<g id="edge6" class="edge">
<title>Node1&#45;&gt;Node7</title>
<path fill="none" stroke="#000000" d="M40.5145,-110.0842C55.7576,-92.7389 81.8468,-64.8187 108,-45 111.8517,-42.0812 116.0541,-39.2638 120.319,-36.6214"/>
<polygon fill="#000000" stroke="#000000" points="122.2296,-39.5581 129.0692,-31.4667 118.6766,-33.5268 122.2296,-39.5581"/>
</g>
<!-- Node5 -->
<g id="node5" class="node">
<title>Node5</title>
<g id="a_node5"><a xlink:title="घोड़े की दुल्की चाल">
<polygon fill="none" stroke="#0000ff" points="317.1915,-144 259.1915,-144 259.1915,-108 317.1915,-108 317.1915,-144"/>
<text text-anchor="middle" x="288.1915" y="-122.3" font-family="Times,serif" font-size="14.00" fill="#000000">धौरितक</text>
</a>
</g>
</g>
<!-- Node4&#45;&gt;Node5 -->
<g id="edge4" class="edge">
<title>Node4&#45;&gt;Node5</title>
<path fill="none" stroke="#000000" d="M204.5332,-126C219.0849,-126 234.867,-126 248.7616,-126"/>
<polygon fill="#000000" stroke="#000000" points="248.9674,-129.5001 258.9673,-126 248.9673,-122.5001 248.9674,-129.5001"/>
<text text-anchor="middle" x="231.6915" y="-129.8" font-family="Times,serif" font-size="14.00" fill="#000000">कन्</text>
</g>
</g>
</svg>
