<?xml version="1.0" encoding="UTF-8" standalone="no"?>
<!DOCTYPE svg PUBLIC "-//W3C//DTD SVG 1.1//EN"
 "http://www.w3.org/Graphics/SVG/1.1/DTD/svg11.dtd">
<!-- Generated by graphviz version 2.40.1 (20161225.0304)
 -->
<!-- Title: G Pages: 1 -->
<svg width="294pt" height="44pt"
 viewBox="0.00 0.00 293.79 44.00" xmlns="http://www.w3.org/2000/svg" xmlns:xlink="http://www.w3.org/1999/xlink">
<g id="graph0" class="graph" transform="scale(1 1) rotate(0) translate(4 40)">
<title>G</title>
<polygon fill="#ffffff" stroke="transparent" points="-4,4 -4,-40 289.7924,-40 289.7924,4 -4,4"/>
<!-- Node1 -->
<g id="node1" class="node">
<title>Node1</title>
<ellipse fill="none" stroke="#ff0000" cx="27" cy="-18" rx="27" ry="18"/>
<text text-anchor="middle" x="27" y="-14.3" font-family="Times,serif" font-size="14.00" fill="#000000">अर्द्</text>
</g>
<!-- Node2 -->
<g id="node2" class="node">
<title>Node2</title>
<ellipse fill="none" stroke="#ff0000" cx="133.8962" cy="-18" rx="42.7926" ry="18"/>
<text text-anchor="middle" x="133.8962" y="-14.3" font-family="Times,serif" font-size="14.00" fill="#000000">अर्द्+ल्युट्</text>
</g>
<!-- Node1&#45;&gt;Node2 -->
<g id="edge1" class="edge">
<title>Node1&#45;&gt;Node2</title>
<path fill="none" stroke="#000000" d="M54.251,-18C62.3407,-18 71.4942,-18 80.6401,-18"/>
<polygon fill="#000000" stroke="#000000" points="80.906,-21.5001 90.9059,-18 80.9059,-14.5001 80.906,-21.5001"/>
</g>
<!-- Node3 -->
<g id="node3" class="node">
<title>Node3</title>
<g id="a_node3"><a xlink:title="जाना, हिलना">
<polygon fill="none" stroke="#0000ff" points="285.7924,-36 231.7924,-36 231.7924,0 285.7924,0 285.7924,-36"/>
<text text-anchor="middle" x="258.7924" y="-14.3" font-family="Times,serif" font-size="14.00" fill="#000000">अर्दना</text>
</a>
</g>
</g>
<!-- Node2&#45;&gt;Node3 -->
<g id="edge2" class="edge">
<title>Node2&#45;&gt;Node3</title>
<path fill="none" stroke="#000000" d="M176.8784,-18C191.3856,-18 207.4501,-18 221.482,-18"/>
<polygon fill="#000000" stroke="#000000" points="221.7567,-21.5001 231.7567,-18 221.7566,-14.5001 221.7567,-21.5001"/>
<text text-anchor="middle" x="204.2924" y="-21.8" font-family="Times,serif" font-size="14.00" fill="#000000">टाप्</text>
</g>
</g>
</svg>
