<?xml version="1.0" encoding="UTF-8" standalone="no"?>
<!DOCTYPE svg PUBLIC "-//W3C//DTD SVG 1.1//EN"
 "http://www.w3.org/Graphics/SVG/1.1/DTD/svg11.dtd">
<!-- Generated by graphviz version 2.36.0 (20140111.2315)
 -->
<!-- Title: G Pages: 1 -->
<svg width="348pt" height="692pt"
 viewBox="0.00 0.00 348.00 692.00" xmlns="http://www.w3.org/2000/svg" xmlns:xlink="http://www.w3.org/1999/xlink">
<g id="graph0" class="graph" transform="scale(1 1) rotate(0) translate(4 688)">
<title>G</title>
<polygon fill="white" stroke="none" points="-4,4 -4,-688 344,-688 344,4 -4,4"/>
<!-- Node1 -->
<g id="node1" class="node"><title>Node1</title>
<ellipse fill="none" stroke="red" cx="27" cy="-423" rx="27" ry="18"/>
<text text-anchor="middle" x="27" y="-419.3" font-family="Times,serif" font-size="14.00">आस्</text>
</g>
<!-- Node2 -->
<g id="node2" class="node"><title>Node2</title>
<ellipse fill="none" stroke="red" cx="162" cy="-612" rx="46.2923" ry="18"/>
<text text-anchor="middle" x="162" y="-608.3" font-family="Times,serif" font-size="14.00">अधि_आस्</text>
</g>
<!-- Node1&#45;&gt;Node2 -->
<g id="edge1" class="edge"><title>Node1&#45;&gt;Node2</title>
<path fill="none" stroke="black" d="M33.5784,-440.529C44.6224,-472.809 72.0731,-542.254 116,-585 118.636,-587.565 121.56,-589.993 124.616,-592.263"/>
<polygon fill="black" stroke="black" points="122.664,-595.168 132.903,-597.888 126.595,-589.376 122.664,-595.168"/>
</g>
<!-- Node5 -->
<g id="node5" class="node"><title>Node5</title>
<ellipse fill="none" stroke="red" cx="162" cy="-558" rx="42.7926" ry="18"/>
<text text-anchor="middle" x="162" y="-554.3" font-family="Times,serif" font-size="14.00">अनु_आस्</text>
</g>
<!-- Node1&#45;&gt;Node5 -->
<g id="edge4" class="edge"><title>Node1&#45;&gt;Node5</title>
<path fill="none" stroke="black" d="M37.9816,-439.681C46.3838,-453.216 59.0695,-472.522 72,-488 89.5308,-508.984 94.3515,-514.297 116,-531 119.327,-533.567 122.916,-536.086 126.565,-538.49"/>
<polygon fill="black" stroke="black" points="124.764,-541.492 135.091,-543.861 128.495,-535.569 124.764,-541.492"/>
</g>
<!-- Node7 -->
<g id="node7" class="node"><title>Node7</title>
<g id="a_node7"><a xlink:title="आसन">
<polygon fill="none" stroke="blue" points="189,-522 135,-522 135,-486 189,-486 189,-522"/>
<text text-anchor="middle" x="162" y="-500.3" font-family="Times,serif" font-size="14.00">आस</text>
</a>
</g>
</g>
<!-- Node1&#45;&gt;Node7 -->
<g id="edge6" class="edge"><title>Node1&#45;&gt;Node7</title>
<path fill="none" stroke="black" d="M45.628,-436.599C53.533,-442.492 63.071,-449.327 72,-455 89.3345,-466.014 109.312,-477.146 125.943,-486.01"/>
<polygon fill="black" stroke="black" points="124.322,-489.112 134.799,-490.686 127.59,-482.922 124.322,-489.112"/>
<text text-anchor="middle" x="85" y="-472.8" font-family="Times,serif" font-size="14.00">घञ्</text>
</g>
<!-- Node8 -->
<g id="node8" class="node"><title>Node8</title>
<g id="a_node8"><a xlink:title="बैठना">
<polygon fill="none" stroke="blue" points="189,-468 135,-468 135,-432 189,-432 189,-468"/>
<text text-anchor="middle" x="162" y="-446.3" font-family="Times,serif" font-size="14.00">आसन</text>
</a>
</g>
</g>
<!-- Node1&#45;&gt;Node8 -->
<g id="edge7" class="edge"><title>Node1&#45;&gt;Node8</title>
<path fill="none" stroke="black" d="M53.0163,-428.078C73.245,-432.185 102.001,-438.023 124.752,-442.641"/>
<polygon fill="black" stroke="black" points="124.234,-446.108 134.731,-444.667 125.627,-439.248 124.234,-446.108"/>
<text text-anchor="middle" x="85" y="-439.8" font-family="Times,serif" font-size="14.00">ल्युट्</text>
</g>
<!-- Node9 -->
<g id="node9" class="node"><title>Node9</title>
<g id="a_node9"><a xlink:title="आसन, तिपाई जिस पर बैठा जाय, टेक">
<polygon fill="none" stroke="blue" points="189,-414 135,-414 135,-378 189,-378 189,-414"/>
<text text-anchor="middle" x="162" y="-392.3" font-family="Times,serif" font-size="14.00">आसना</text>
</a>
</g>
</g>
<!-- Node1&#45;&gt;Node9 -->
<g id="edge8" class="edge"><title>Node1&#45;&gt;Node9</title>
<path fill="none" stroke="black" d="M52.6346,-417.243C58.9383,-415.813 65.7123,-414.315 72,-413 89.3045,-409.382 108.568,-405.664 124.735,-402.632"/>
<polygon fill="black" stroke="black" points="125.67,-406.018 134.86,-400.746 124.388,-399.136 125.67,-406.018"/>
<text text-anchor="middle" x="85" y="-416.8" font-family="Times,serif" font-size="14.00">ल्युट्</text>
</g>
<!-- Node10 -->
<g id="node10" class="node"><title>Node10</title>
<g id="a_node10"><a xlink:title="आसन, तिपाई जिस पर बैठा जाय, टेक">
<polygon fill="none" stroke="blue" points="189,-360 135,-360 135,-324 189,-324 189,-360"/>
<text text-anchor="middle" x="162" y="-338.3" font-family="Times,serif" font-size="14.00">आस्या</text>
</a>
</g>
</g>
<!-- Node1&#45;&gt;Node10 -->
<g id="edge9" class="edge"><title>Node1&#45;&gt;Node10</title>
<path fill="none" stroke="black" d="M44.636,-409.054C52.6665,-402.61 62.5834,-395.061 72,-389 88.9501,-378.091 108.696,-367.469 125.277,-359.092"/>
<polygon fill="black" stroke="black" points="127.238,-362.025 134.628,-354.433 124.117,-355.76 127.238,-362.025"/>
<text text-anchor="middle" x="85" y="-392.8" font-family="Times,serif" font-size="14.00">क्यप्</text>
</g>
<!-- Node11 -->
<g id="node11" class="node"><title>Node11</title>
<ellipse fill="none" stroke="red" cx="162" cy="-288" rx="41.6928" ry="18"/>
<text text-anchor="middle" x="162" y="-284.3" font-family="Times,serif" font-size="14.00">उद्_आस्</text>
</g>
<!-- Node1&#45;&gt;Node11 -->
<g id="edge10" class="edge"><title>Node1&#45;&gt;Node11</title>
<path fill="none" stroke="black" d="M38.7236,-406.5C53.9599,-383.926 83.6398,-343.026 116,-315 119.177,-312.249 122.669,-309.612 126.261,-307.139"/>
<polygon fill="black" stroke="black" points="128.212,-310.046 134.72,-301.685 124.419,-304.163 128.212,-310.046"/>
</g>
<!-- Node14 -->
<g id="node14" class="node"><title>Node14</title>
<ellipse fill="none" stroke="red" cx="162" cy="-153" rx="41.6928" ry="18"/>
<text text-anchor="middle" x="162" y="-149.3" font-family="Times,serif" font-size="14.00">उप_आस्</text>
</g>
<!-- Node1&#45;&gt;Node14 -->
<g id="edge13" class="edge"><title>Node1&#45;&gt;Node14</title>
<path fill="none" stroke="black" d="M35.7942,-405.945C44.4709,-387.055 58.9881,-355.732 72,-329 97.9568,-275.673 129.533,-213.935 147.241,-179.582"/>
<polygon fill="black" stroke="black" points="150.376,-181.14 151.852,-170.648 144.155,-177.929 150.376,-181.14"/>
</g>
<!-- Node3 -->
<g id="node3" class="node"><title>Node3</title>
<g id="a_node3"><a xlink:title="ऊपर बैठना, अधिकार में करना, प्रधानता करना#मिथ्या आरोपण, मिथ्या ज्ञान, दे* ’अध्यारोप’ को भी">
<polygon fill="none" stroke="blue" points="336,-684 280,-684 280,-648 336,-648 336,-684"/>
<text text-anchor="middle" x="308" y="-662.3" font-family="Times,serif" font-size="14.00">अध्यास</text>
</a>
</g>
</g>
<!-- Node2&#45;&gt;Node3 -->
<g id="edge2" class="edge"><title>Node2&#45;&gt;Node3</title>
<path fill="none" stroke="black" d="M196.037,-624.389C218.269,-632.726 247.594,-643.723 270.514,-652.318"/>
<polygon fill="black" stroke="black" points="269.313,-655.605 279.905,-655.84 271.771,-649.051 269.313,-655.605"/>
<text text-anchor="middle" x="242" y="-649.8" font-family="Times,serif" font-size="14.00">घञ्</text>
</g>
<!-- Node4 -->
<g id="node4" class="node"><title>Node4</title>
<g id="a_node4"><a xlink:title="ऊपर बैठना, अधिकार में करना, प्रधानता करना">
<polygon fill="none" stroke="blue" points="340,-630 276,-630 276,-594 340,-594 340,-630"/>
<text text-anchor="middle" x="308" y="-608.3" font-family="Times,serif" font-size="14.00">अध्यासन</text>
</a>
</g>
</g>
<!-- Node2&#45;&gt;Node4 -->
<g id="edge3" class="edge"><title>Node2&#45;&gt;Node4</title>
<path fill="none" stroke="black" d="M208.167,-612C226.508,-612 247.559,-612 265.507,-612"/>
<polygon fill="black" stroke="black" points="265.672,-615.5 275.672,-612 265.672,-608.5 265.672,-615.5"/>
<text text-anchor="middle" x="242" y="-615.8" font-family="Times,serif" font-size="14.00">ल्युट्</text>
</g>
<!-- Node6 -->
<g id="node6" class="node"><title>Node6</title>
<g id="a_node6"><a xlink:title="सेवा, परिचर्या, पूजा">
<polygon fill="none" stroke="blue" points="339,-576 277,-576 277,-540 339,-540 339,-576"/>
<text text-anchor="middle" x="308" y="-554.3" font-family="Times,serif" font-size="14.00">अन्वासन</text>
</a>
</g>
</g>
<!-- Node5&#45;&gt;Node6 -->
<g id="edge5" class="edge"><title>Node5&#45;&gt;Node6</title>
<path fill="none" stroke="black" d="M205.038,-558C224.37,-558 247.21,-558 266.367,-558"/>
<polygon fill="black" stroke="black" points="266.585,-561.5 276.585,-558 266.585,-554.5 266.585,-561.5"/>
<text text-anchor="middle" x="242" y="-561.8" font-family="Times,serif" font-size="14.00">ल्युट्</text>
</g>
<!-- Node12 -->
<g id="node12" class="node"><title>Node12</title>
<g id="a_node12"><a xlink:title="निःस्पृह">
<polygon fill="none" stroke="blue" points="337.5,-360 278.5,-360 278.5,-324 337.5,-324 337.5,-360"/>
<text text-anchor="middle" x="308" y="-338.3" font-family="Times,serif" font-size="14.00">उदासिन्</text>
</a>
</g>
</g>
<!-- Node11&#45;&gt;Node12 -->
<g id="edge11" class="edge"><title>Node11&#45;&gt;Node12</title>
<path fill="none" stroke="black" d="M193.892,-299.584C215.729,-307.774 245.155,-318.808 268.518,-327.569"/>
<polygon fill="black" stroke="black" points="267.528,-330.936 278.121,-331.17 269.986,-324.382 267.528,-330.936"/>
<text text-anchor="middle" x="242" y="-325.8" font-family="Times,serif" font-size="14.00">णिनि</text>
</g>
<!-- Node13 -->
<g id="node13" class="node"><title>Node13</title>
<g id="a_node13"><a xlink:title="अजनवी#अभियोग से असंबंद्ध व्यक्तिविधि में">
<polygon fill="none" stroke="blue" points="337.5,-306 278.5,-306 278.5,-270 337.5,-270 337.5,-306"/>
<text text-anchor="middle" x="308" y="-284.3" font-family="Times,serif" font-size="14.00">उदासीन</text>
</a>
</g>
</g>
<!-- Node11&#45;&gt;Node13 -->
<g id="edge12" class="edge"><title>Node11&#45;&gt;Node13</title>
<path fill="none" stroke="black" d="M203.879,-288C224.037,-288 248.225,-288 268.108,-288"/>
<polygon fill="black" stroke="black" points="268.362,-291.5 278.362,-288 268.362,-284.5 268.362,-291.5"/>
<text text-anchor="middle" x="242" y="-291.8" font-family="Times,serif" font-size="14.00">शानच्</text>
</g>
<!-- Node15 -->
<g id="node15" class="node"><title>Node15</title>
<g id="a_node15"><a xlink:title="सेवा में उपस्थित, पूजा करने वाला">
<polygon fill="none" stroke="blue" points="336.5,-252 279.5,-252 279.5,-216 336.5,-216 336.5,-252"/>
<text text-anchor="middle" x="308" y="-230.3" font-family="Times,serif" font-size="14.00">उपासक</text>
</a>
</g>
</g>
<!-- Node14&#45;&gt;Node15 -->
<g id="edge14" class="edge"><title>Node14&#45;&gt;Node15</title>
<path fill="none" stroke="black" d="M187.796,-167.261C199.384,-173.901 213.379,-181.888 226,-189 240.486,-197.162 256.479,-206.069 270.4,-213.789"/>
<polygon fill="black" stroke="black" points="268.769,-216.886 279.212,-218.67 272.161,-210.763 268.769,-216.886"/>
<text text-anchor="middle" x="242" y="-209.8" font-family="Times,serif" font-size="14.00">ण्वुल्</text>
</g>
<!-- Node16 -->
<g id="node16" class="node"><title>Node16</title>
<g id="a_node16"><a xlink:title="सेवा, हाजरी, सेवा में उपस्थित रहना, शीलं खलोपासनात् (विनश्यति)">
<polygon fill="none" stroke="blue" points="335.5,-198 280.5,-198 280.5,-162 335.5,-162 335.5,-198"/>
<text text-anchor="middle" x="308" y="-176.3" font-family="Times,serif" font-size="14.00">उपासन</text>
</a>
</g>
</g>
<!-- Node14&#45;&gt;Node16 -->
<g id="edge15" class="edge"><title>Node14&#45;&gt;Node16</title>
<path fill="none" stroke="black" d="M200.458,-160.023C221.943,-164.052 248.804,-169.088 270.181,-173.096"/>
<polygon fill="black" stroke="black" points="269.713,-176.57 280.186,-174.972 271.003,-169.689 269.713,-176.57"/>
<text text-anchor="middle" x="242" y="-173.8" font-family="Times,serif" font-size="14.00">ल्युट्</text>
</g>
<!-- Node17 -->
<g id="node17" class="node"><title>Node17</title>
<g id="a_node17"><a xlink:title="सेवा, हाजरी, सेवा में उपस्थित रहना">
<polygon fill="none" stroke="blue" points="337.5,-144 278.5,-144 278.5,-108 337.5,-108 337.5,-144"/>
<text text-anchor="middle" x="308" y="-122.3" font-family="Times,serif" font-size="14.00">उपासना</text>
</a>
</g>
</g>
<!-- Node14&#45;&gt;Node17 -->
<g id="edge16" class="edge"><title>Node14&#45;&gt;Node17</title>
<path fill="none" stroke="black" d="M200.458,-145.977C221.37,-142.056 247.376,-137.18 268.459,-133.226"/>
<polygon fill="black" stroke="black" points="269.186,-136.651 278.37,-131.368 267.896,-129.771 269.186,-136.651"/>
<text text-anchor="middle" x="242" y="-144.8" font-family="Times,serif" font-size="14.00">युच्</text>
</g>
<!-- Node18 -->
<g id="node18" class="node"><title>Node18</title>
<g id="a_node18"><a xlink:title="सेवा, हाजरी">
<polygon fill="none" stroke="blue" points="335,-90 281,-90 281,-54 335,-54 335,-90"/>
<text text-anchor="middle" x="308" y="-68.3" font-family="Times,serif" font-size="14.00">उपासा</text>
</a>
</g>
</g>
<!-- Node14&#45;&gt;Node18 -->
<g id="edge17" class="edge"><title>Node14&#45;&gt;Node18</title>
<path fill="none" stroke="black" d="M187.123,-138.578C198.81,-131.657 213.079,-123.301 226,-116 240.972,-107.54 257.648,-98.4293 271.958,-90.705"/>
<polygon fill="black" stroke="black" points="273.832,-93.6713 280.979,-85.85 270.514,-87.5074 273.832,-93.6713"/>
<text text-anchor="middle" x="242" y="-119.8" font-family="Times,serif" font-size="14.00">अ</text>
</g>
<!-- Node19 -->
<g id="node19" class="node"><title>Node19</title>
<g id="a_node19"><a xlink:title="सेवा, सेवा में उपस्थित रहना, विशेषतः देवता की">
<polygon fill="none" stroke="blue" points="336,-36 280,-36 280,-0 336,-0 336,-36"/>
<text text-anchor="middle" x="308" y="-14.3" font-family="Times,serif" font-size="14.00">उपास्ति</text>
</a>
</g>
</g>
<!-- Node14&#45;&gt;Node19 -->
<g id="edge18" class="edge"><title>Node14&#45;&gt;Node19</title>
<path fill="none" stroke="black" d="M175.791,-135.907C187.883,-120.277 206.963,-96.9313 226,-79 240.033,-65.7821 256.882,-52.7105 271.57,-42.0788"/>
<polygon fill="black" stroke="black" points="273.82,-44.7732 279.931,-36.1182 269.756,-39.0734 273.82,-44.7732"/>
<text text-anchor="middle" x="242" y="-82.8" font-family="Times,serif" font-size="14.00">क्तिन्</text>
</g>
</g>
</svg>
