<?xml version="1.0" encoding="UTF-8" standalone="no"?>
<!DOCTYPE svg PUBLIC "-//W3C//DTD SVG 1.1//EN"
 "http://www.w3.org/Graphics/SVG/1.1/DTD/svg11.dtd">
<!-- Generated by graphviz version 2.40.1 (20161225.0304)
 -->
<!-- Title: G Pages: 1 -->
<svg width="334pt" height="854pt"
 viewBox="0.00 0.00 333.59 854.00" xmlns="http://www.w3.org/2000/svg" xmlns:xlink="http://www.w3.org/1999/xlink">
<g id="graph0" class="graph" transform="scale(1 1) rotate(0) translate(4 850)">
<title>G</title>
<polygon fill="#ffffff" stroke="transparent" points="-4,4 -4,-850 329.5928,-850 329.5928,4 -4,4"/>
<!-- Node1 -->
<g id="node1" class="node">
<title>Node1</title>
<ellipse fill="none" stroke="#ff0000" cx="27" cy="-423" rx="27" ry="18"/>
<text text-anchor="middle" x="27" y="-419.3" font-family="Times,serif" font-size="14.00" fill="#000000">अद्</text>
</g>
<!-- Node2 -->
<g id="node2" class="node">
<title>Node2</title>
<g id="a_node2"><a xlink:title="अग्नि">
<polygon fill="none" stroke="#0000ff" points="193.2964,-846 139.2964,-846 139.2964,-810 193.2964,-810 193.2964,-846"/>
<text text-anchor="middle" x="166.2964" y="-824.3" font-family="Times,serif" font-size="14.00" fill="#000000">अद्मनि</text>
</a>
</g>
</g>
<!-- Node1&#45;&gt;Node2 -->
<g id="edge1" class="edge">
<title>Node1&#45;&gt;Node2</title>
<path fill="none" stroke="#000000" d="M27.604,-441.0761C29.9433,-502.8672 39.9343,-704.9033 72,-760 85.2656,-782.7935 109.5551,-800.0341 130.1593,-811.4523"/>
<polygon fill="#000000" stroke="#000000" points="128.5407,-814.5555 139.0167,-816.1379 131.814,-808.368 128.5407,-814.5555"/>
<text text-anchor="middle" x="90" y="-799.8" font-family="Times,serif" font-size="14.00" fill="#000000">मनिन्</text>
</g>
<!-- Node3 -->
<g id="node3" class="node">
<title>Node3</title>
<g id="a_node3"><a xlink:title="बहुत अधिक खानेवाला, पेटू">
<polygon fill="none" stroke="#0000ff" points="193.2964,-792 139.2964,-792 139.2964,-756 193.2964,-756 193.2964,-792"/>
<text text-anchor="middle" x="166.2964" y="-770.3" font-family="Times,serif" font-size="14.00" fill="#000000">अद्मर</text>
</a>
</g>
</g>
<!-- Node1&#45;&gt;Node3 -->
<g id="edge2" class="edge">
<title>Node1&#45;&gt;Node3</title>
<path fill="none" stroke="#000000" d="M28.1606,-441.1191C31.9448,-496.057 45.252,-659.7639 72,-705 85.491,-727.8159 109.7758,-745.3165 130.3214,-756.9839"/>
<polygon fill="#000000" stroke="#000000" points="128.6917,-760.0817 139.1498,-761.7787 132.0326,-753.9304 128.6917,-760.0817"/>
<text text-anchor="middle" x="90" y="-744.8" font-family="Times,serif" font-size="14.00" fill="#000000">क्मरच्</text>
</g>
<!-- Node4 -->
<g id="node4" class="node">
<title>Node4</title>
<g id="a_node4"><a xlink:title="खाने के योग्य#भोजन, खाने के योग्य पदार्थ">
<polygon fill="none" stroke="#0000ff" points="193.2964,-738 139.2964,-738 139.2964,-702 193.2964,-702 193.2964,-738"/>
<text text-anchor="middle" x="166.2964" y="-716.3" font-family="Times,serif" font-size="14.00" fill="#000000">अद्य</text>
</a>
</g>
</g>
<!-- Node1&#45;&gt;Node4 -->
<g id="edge3" class="edge">
<title>Node1&#45;&gt;Node4</title>
<path fill="none" stroke="#000000" d="M28.9766,-441.2051C34.3759,-488.5969 50.4236,-614.5706 72,-650 85.7643,-672.6016 109.8107,-690.2787 130.1749,-702.215"/>
<polygon fill="#000000" stroke="#000000" points="128.4959,-705.2862 138.9283,-707.1343 131.9253,-699.1839 128.4959,-705.2862"/>
<text text-anchor="middle" x="90" y="-689.8" font-family="Times,serif" font-size="14.00" fill="#000000">यत्</text>
</g>
<!-- Node5 -->
<g id="node5" class="node">
<title>Node5</title>
<g id="a_node5"><a xlink:title="पहाड़">
<polygon fill="none" stroke="#0000ff" points="193.2964,-684 139.2964,-684 139.2964,-648 193.2964,-648 193.2964,-684"/>
<text text-anchor="middle" x="166.2964" y="-662.3" font-family="Times,serif" font-size="14.00" fill="#000000">अद्रि</text>
</a>
</g>
</g>
<!-- Node1&#45;&gt;Node5 -->
<g id="edge4" class="edge">
<title>Node1&#45;&gt;Node5</title>
<path fill="none" stroke="#000000" d="M28.0628,-441.0445C30.7576,-474.0746 40.1124,-545.4137 72,-595 86.2899,-617.2213 110.1019,-635.0678 130.2212,-647.3103"/>
<polygon fill="#000000" stroke="#000000" points="128.4696,-650.3405 138.8676,-652.3731 132.0066,-644.2998 128.4696,-650.3405"/>
<text text-anchor="middle" x="90" y="-634.8" font-family="Times,serif" font-size="14.00" fill="#000000">क्रिन्</text>
</g>
<!-- Node6 -->
<g id="node6" class="node">
<title>Node6</title>
<g id="a_node6"><a xlink:title="रास्ता, सड़क, मार्ग, नक्षत्र मार्ग">
<polygon fill="none" stroke="#0000ff" points="193.2964,-630 139.2964,-630 139.2964,-594 193.2964,-594 193.2964,-630"/>
<text text-anchor="middle" x="166.2964" y="-608.3" font-family="Times,serif" font-size="14.00" fill="#000000">अध्वन्</text>
</a>
</g>
</g>
<!-- Node1&#45;&gt;Node6 -->
<g id="edge5" class="edge">
<title>Node1&#45;&gt;Node6</title>
<path fill="none" stroke="#000000" d="M30.5439,-441.1669C36.0845,-466.0559 48.6626,-511.277 72,-543 87.3239,-563.83 110.7682,-581.0244 130.4461,-593.0389"/>
<polygon fill="#000000" stroke="#000000" points="128.7878,-596.1243 139.1795,-598.1891 132.3436,-590.0946 128.7878,-596.1243"/>
<text text-anchor="middle" x="90" y="-579.8" font-family="Times,serif" font-size="14.00" fill="#000000">क्वनिप्</text>
</g>
<!-- Node7 -->
<g id="node7" class="node">
<title>Node7</title>
<g id="a_node7"><a xlink:title="भोजन द्विजातिशेषेण यदेतदन्धसा&#45;">
<polygon fill="none" stroke="#0000ff" points="193.2964,-576 139.2964,-576 139.2964,-540 193.2964,-540 193.2964,-576"/>
<text text-anchor="middle" x="166.2964" y="-554.3" font-family="Times,serif" font-size="14.00" fill="#000000">अन्धस्</text>
</a>
</g>
</g>
<!-- Node1&#45;&gt;Node7 -->
<g id="edge6" class="edge">
<title>Node1&#45;&gt;Node7</title>
<path fill="none" stroke="#000000" d="M35.2112,-440.4221C43.1202,-455.9607 56.1941,-478.7062 72,-495 88.9644,-512.4881 111.5623,-527.7903 130.3831,-538.9333"/>
<polygon fill="#000000" stroke="#000000" points="128.8662,-542.0987 139.2778,-544.0607 132.3622,-536.0342 128.8662,-542.0987"/>
<text text-anchor="middle" x="90" y="-527.8" font-family="Times,serif" font-size="14.00" fill="#000000">असुन्</text>
</g>
<!-- Node8 -->
<g id="node8" class="node">
<title>Node8</title>
<g id="a_node8"><a xlink:title="सामान्यतः भोजन#सूर्य">
<polygon fill="none" stroke="#0000ff" points="193.2964,-522 139.2964,-522 139.2964,-486 193.2964,-486 193.2964,-522"/>
<text text-anchor="middle" x="166.2964" y="-500.3" font-family="Times,serif" font-size="14.00" fill="#000000">अन्न</text>
</a>
</g>
</g>
<!-- Node1&#45;&gt;Node8 -->
<g id="edge7" class="edge">
<title>Node1&#45;&gt;Node8</title>
<path fill="none" stroke="#000000" d="M43.992,-437.016C52.2001,-443.4757 62.3448,-451.0175 72,-457 90.3671,-468.3806 111.8611,-479.2655 129.6857,-487.6891"/>
<polygon fill="#000000" stroke="#000000" points="128.6247,-491.0558 139.1676,-492.1032 131.579,-484.7097 128.6247,-491.0558"/>
<text text-anchor="middle" x="90" y="-479.8" font-family="Times,serif" font-size="14.00" fill="#000000">क्त</text>
</g>
<!-- Node9 -->
<g id="node9" class="node">
<title>Node9</title>
<g id="a_node9"><a xlink:title="खाया हुआ">
<polygon fill="none" stroke="#0000ff" points="193.2964,-468 139.2964,-468 139.2964,-432 193.2964,-432 193.2964,-468"/>
<text text-anchor="middle" x="166.2964" y="-446.3" font-family="Times,serif" font-size="14.00" fill="#000000">जग्ध</text>
</a>
</g>
</g>
<!-- Node1&#45;&gt;Node9 -->
<g id="edge8" class="edge">
<title>Node1&#45;&gt;Node9</title>
<path fill="none" stroke="#000000" d="M53.2006,-428.0785C74.7158,-432.2488 105.4408,-438.2043 129.4373,-442.8556"/>
<polygon fill="#000000" stroke="#000000" points="128.7798,-446.2932 139.2632,-444.7601 130.1119,-439.4211 128.7798,-446.2932"/>
<text text-anchor="middle" x="90" y="-441.8" font-family="Times,serif" font-size="14.00" fill="#000000">क्त</text>
</g>
<!-- Node10 -->
<g id="node10" class="node">
<title>Node10</title>
<g id="a_node10"><a xlink:title="भोजन">
<polygon fill="none" stroke="#0000ff" points="193.2964,-414 139.2964,-414 139.2964,-378 193.2964,-378 193.2964,-414"/>
<text text-anchor="middle" x="166.2964" y="-392.3" font-family="Times,serif" font-size="14.00" fill="#000000">जग्धि</text>
</a>
</g>
</g>
<!-- Node1&#45;&gt;Node10 -->
<g id="edge9" class="edge">
<title>Node1&#45;&gt;Node10</title>
<path fill="none" stroke="#000000" d="M52.6288,-416.3987C58.942,-414.8657 65.6993,-413.3029 72,-412 90.5831,-408.1573 111.3665,-404.5569 128.6824,-401.7483"/>
<polygon fill="#000000" stroke="#000000" points="129.642,-405.1395 138.9652,-400.1068 128.5385,-398.227 129.642,-405.1395"/>
<text text-anchor="middle" x="90" y="-415.8" font-family="Times,serif" font-size="14.00" fill="#000000">क्त</text>
</g>
<!-- Node11 -->
<g id="node11" class="node">
<title>Node11</title>
<g id="a_node11"><a xlink:title="खाना">
<polygon fill="none" stroke="#0000ff" points="193.2964,-360 139.2964,-360 139.2964,-324 193.2964,-324 193.2964,-360"/>
<text text-anchor="middle" x="166.2964" y="-338.3" font-family="Times,serif" font-size="14.00" fill="#000000">जग्धि</text>
</a>
</g>
</g>
<!-- Node1&#45;&gt;Node11 -->
<g id="edge10" class="edge">
<title>Node1&#45;&gt;Node11</title>
<path fill="none" stroke="#000000" d="M42.913,-408.247C51.2026,-401.0057 61.7321,-392.4714 72,-386 90.0534,-374.6219 111.5232,-364.3759 129.4127,-356.6398"/>
<polygon fill="#000000" stroke="#000000" points="131.0931,-359.7292 138.9386,-352.6089 128.3652,-353.2826 131.0931,-359.7292"/>
<text text-anchor="middle" x="90" y="-389.8" font-family="Times,serif" font-size="14.00" fill="#000000">क्तिन्</text>
</g>
<!-- Node12 -->
<g id="node12" class="node">
<title>Node12</title>
<ellipse fill="none" stroke="#ff0000" cx="166.2964" cy="-288" rx="39.7935" ry="18"/>
<text text-anchor="middle" x="166.2964" y="-284.3" font-family="Times,serif" font-size="14.00" fill="#000000">अद्+सन्</text>
</g>
<!-- Node1&#45;&gt;Node12 -->
<g id="edge11" class="edge">
<title>Node1&#45;&gt;Node12</title>
<path fill="none" stroke="#000000" d="M37.7465,-406.4512C46.3432,-393.7329 59.0615,-376.0259 72,-362 93.5734,-338.6134 100.7337,-334.3381 126,-315 128.7585,-312.8887 131.6743,-310.7568 134.625,-308.6658"/>
<polygon fill="#000000" stroke="#000000" points="136.6904,-311.493 142.9319,-302.9318 132.7139,-305.7321 136.6904,-311.493"/>
</g>
<!-- Node15 -->
<g id="node15" class="node">
<title>Node15</title>
<ellipse fill="none" stroke="#ff0000" cx="166.2964" cy="-234" rx="34.394" ry="18"/>
<text text-anchor="middle" x="166.2964" y="-230.3" font-family="Times,serif" font-size="14.00" fill="#000000">नि_अद्</text>
</g>
<!-- Node1&#45;&gt;Node15 -->
<g id="edge14" class="edge">
<title>Node1&#45;&gt;Node15</title>
<path fill="none" stroke="#000000" d="M33.4588,-405.2724C41.1985,-385.0572 55.2426,-351.3954 72,-325 91.9472,-293.5803 98.2704,-285.8225 126,-261 128.8,-258.4936 131.8482,-256.0405 134.9731,-253.6984"/>
<polygon fill="#000000" stroke="#000000" points="137.1679,-256.433 143.3061,-247.7974 133.1224,-250.7203 137.1679,-256.433"/>
</g>
<!-- Node18 -->
<g id="node18" class="node">
<title>Node18</title>
<ellipse fill="none" stroke="#ff0000" cx="166.2964" cy="-180" rx="32.4942" ry="18"/>
<text text-anchor="middle" x="166.2964" y="-176.3" font-family="Times,serif" font-size="14.00" fill="#000000">प्र_अद्</text>
</g>
<!-- Node1&#45;&gt;Node18 -->
<g id="edge17" class="edge">
<title>Node1&#45;&gt;Node18</title>
<path fill="none" stroke="#000000" d="M30.167,-404.7049C35.6934,-375.7051 48.783,-317.9671 72,-274 89.8587,-240.1801 97.7925,-232.8274 126,-207 128.989,-204.2632 132.2783,-201.6012 135.6493,-199.0826"/>
<polygon fill="#000000" stroke="#000000" points="137.9079,-201.7731 144.0727,-193.1565 133.88,-196.048 137.9079,-201.7731"/>
</g>
<!-- Node20 -->
<g id="node20" class="node">
<title>Node20</title>
<ellipse fill="none" stroke="#ff0000" cx="166.2964" cy="-126" rx="40.0939" ry="18"/>
<text text-anchor="middle" x="166.2964" y="-122.3" font-family="Times,serif" font-size="14.00" fill="#000000">प्रति_अद्</text>
</g>
<!-- Node1&#45;&gt;Node20 -->
<g id="edge19" class="edge">
<title>Node1&#45;&gt;Node20</title>
<path fill="none" stroke="#000000" d="M28.2272,-405.002C31.2996,-368.4496 41.414,-283.6004 72,-220 88.5755,-185.5331 97.7925,-178.8274 126,-153 128.4223,-150.7821 131.0417,-148.6134 133.742,-146.5303"/>
<polygon fill="#000000" stroke="#000000" points="135.9215,-149.2734 141.9695,-140.5743 131.8168,-143.6032 135.9215,-149.2734"/>
</g>
<!-- Node23 -->
<g id="node23" class="node">
<title>Node23</title>
<ellipse fill="none" stroke="#ff0000" cx="166.2964" cy="-72" rx="34.394" ry="18"/>
<text text-anchor="middle" x="166.2964" y="-68.3" font-family="Times,serif" font-size="14.00" fill="#000000">वि_अद्</text>
</g>
<!-- Node1&#45;&gt;Node23 -->
<g id="edge22" class="edge">
<title>Node1&#45;&gt;Node23</title>
<path fill="none" stroke="#000000" d="M28.9746,-404.9195C34.7423,-353.8136 52.399,-209.2106 72,-166 87.7992,-131.1704 97.7925,-124.8274 126,-99 128.7716,-96.4623 131.8014,-93.9888 134.9152,-91.6344"/>
<polygon fill="#000000" stroke="#000000" points="137.1135,-94.3659 143.2338,-85.7176 133.0562,-88.6616 137.1135,-94.3659"/>
</g>
<!-- Node25 -->
<g id="node25" class="node">
<title>Node25</title>
<g id="a_node25"><a xlink:title="साथ&#45;खाना, मिलकर भोजन करना">
<polygon fill="none" stroke="#0000ff" points="193.2964,-36 139.2964,-36 139.2964,0 193.2964,0 193.2964,-36"/>
<text text-anchor="middle" x="166.2964" y="-14.3" font-family="Times,serif" font-size="14.00" fill="#000000">सग्धि</text>
</a>
</g>
</g>
<!-- Node1&#45;&gt;Node25 -->
<g id="edge24" class="edge">
<title>Node1&#45;&gt;Node25</title>
<path fill="none" stroke="#000000" d="M27.9496,-404.8049C31.3375,-344.4737 44.145,-151.7392 72,-97 84.7975,-71.8511 109.5031,-51.6181 130.416,-37.9257"/>
<polygon fill="#000000" stroke="#000000" points="132.4997,-40.7499 139.1007,-32.4627 128.7725,-34.8246 132.4997,-40.7499"/>
<text text-anchor="middle" x="90" y="-100.8" font-family="Times,serif" font-size="14.00" fill="#000000">क्तिन्</text>
</g>
<!-- Node13 -->
<g id="node13" class="node">
<title>Node13</title>
<g id="a_node13"><a xlink:title="खाने की इच्छा, बुभुक्षा">
<polygon fill="none" stroke="#0000ff" points="325.5928,-414 266.5928,-414 266.5928,-378 325.5928,-378 325.5928,-414"/>
<text text-anchor="middle" x="296.0928" y="-392.3" font-family="Times,serif" font-size="14.00" fill="#000000">जिघत्सा</text>
</a>
</g>
</g>
<!-- Node12&#45;&gt;Node13 -->
<g id="edge12" class="edge">
<title>Node12&#45;&gt;Node13</title>
<path fill="none" stroke="#000000" d="M190.8008,-302.3858C196.2851,-306.1443 201.8707,-310.4343 206.5928,-315 216.4359,-324.5169 215.109,-330.1251 224.5928,-340 235.5965,-351.4574 249.0133,-362.5702 261.2397,-371.835"/>
<polygon fill="#000000" stroke="#000000" points="259.3517,-374.7922 269.4696,-377.9353 263.5201,-369.1686 259.3517,-374.7922"/>
<text text-anchor="middle" x="236.5928" y="-364.8" font-family="Times,serif" font-size="14.00" fill="#000000">अ</text>
</g>
<!-- Node14 -->
<g id="node14" class="node">
<title>Node14</title>
<g id="a_node14"><a xlink:title="बुभुक्षु, भूखा">
<polygon fill="none" stroke="#0000ff" points="323.5928,-360 268.5928,-360 268.5928,-324 323.5928,-324 323.5928,-360"/>
<text text-anchor="middle" x="296.0928" y="-338.3" font-family="Times,serif" font-size="14.00" fill="#000000">जिघत्सु</text>
</a>
</g>
</g>
<!-- Node12&#45;&gt;Node14 -->
<g id="edge13" class="edge">
<title>Node12&#45;&gt;Node14</title>
<path fill="none" stroke="#000000" d="M195.7492,-300.2534C214.5183,-308.062 238.993,-318.2444 259.072,-326.598"/>
<polygon fill="#000000" stroke="#000000" points="257.9544,-329.9238 268.5316,-330.5335 260.6432,-323.4608 257.9544,-329.9238"/>
<text text-anchor="middle" x="236.5928" y="-324.8" font-family="Times,serif" font-size="14.00" fill="#000000">उ</text>
</g>
<!-- Node16 -->
<g id="node16" class="node">
<title>Node16</title>
<g id="a_node16"><a xlink:title="खाना, भोजन करना">
<polygon fill="none" stroke="#0000ff" points="323.0928,-306 269.0928,-306 269.0928,-270 323.0928,-270 323.0928,-306"/>
<text text-anchor="middle" x="296.0928" y="-284.3" font-family="Times,serif" font-size="14.00" fill="#000000">निघस</text>
</a>
</g>
</g>
<!-- Node15&#45;&gt;Node16 -->
<g id="edge15" class="edge">
<title>Node15&#45;&gt;Node16</title>
<path fill="none" stroke="#000000" d="M193.506,-245.3202C212.7163,-253.3123 238.6688,-264.1095 259.6637,-272.8442"/>
<polygon fill="#000000" stroke="#000000" points="258.3418,-276.085 268.9191,-276.6947 261.0307,-269.622 258.3418,-276.085"/>
<text text-anchor="middle" x="236.5928" y="-270.8" font-family="Times,serif" font-size="14.00" fill="#000000">अप्</text>
</g>
<!-- Node17 -->
<g id="node17" class="node">
<title>Node17</title>
<g id="a_node17"><a xlink:title="खाना, खिलाना">
<polygon fill="none" stroke="#0000ff" points="323.0928,-252 269.0928,-252 269.0928,-216 323.0928,-216 323.0928,-252"/>
<text text-anchor="middle" x="296.0928" y="-230.3" font-family="Times,serif" font-size="14.00" fill="#000000">न्याद</text>
</a>
</g>
</g>
<!-- Node15&#45;&gt;Node17 -->
<g id="edge16" class="edge">
<title>Node15&#45;&gt;Node17</title>
<path fill="none" stroke="#000000" d="M201.0795,-234C218.9069,-234 240.6299,-234 258.8028,-234"/>
<polygon fill="#000000" stroke="#000000" points="259.0364,-237.5001 269.0363,-234 259.0363,-230.5001 259.0364,-237.5001"/>
<text text-anchor="middle" x="236.5928" y="-237.8" font-family="Times,serif" font-size="14.00" fill="#000000">ण</text>
</g>
<!-- Node19 -->
<g id="node19" class="node">
<title>Node19</title>
<g id="a_node19"><a xlink:title="खाऊ, पेटू">
<polygon fill="none" stroke="#0000ff" points="323.0928,-198 269.0928,-198 269.0928,-162 323.0928,-162 323.0928,-198"/>
<text text-anchor="middle" x="296.0928" y="-176.3" font-family="Times,serif" font-size="14.00" fill="#000000">प्रघस</text>
</a>
</g>
</g>
<!-- Node18&#45;&gt;Node19 -->
<g id="edge18" class="edge">
<title>Node18&#45;&gt;Node19</title>
<path fill="none" stroke="#000000" d="M199.0495,-180C217.2988,-180 240.0849,-180 258.9907,-180"/>
<polygon fill="#000000" stroke="#000000" points="259.0413,-183.5001 269.0413,-180 259.0412,-176.5001 259.0413,-183.5001"/>
<text text-anchor="middle" x="236.5928" y="-183.8" font-family="Times,serif" font-size="14.00" fill="#000000">शप</text>
</g>
<!-- Node22 -->
<g id="node22" class="node">
<title>Node22</title>
<polygon fill="none" stroke="#0000ff" points="323.0928,-144 269.0928,-144 269.0928,-108 323.0928,-108 323.0928,-144"/>
<text text-anchor="middle" x="296.0928" y="-122.3" font-family="Times,serif" font-size="14.00" fill="#000000">प्रादुस्</text>
</g>
<!-- Node18&#45;&gt;Node22 -->
<g id="edge21" class="edge">
<title>Node18&#45;&gt;Node22</title>
<path fill="none" stroke="#000000" d="M192.5627,-169.0723C211.834,-161.0547 238.2509,-150.0643 259.5763,-141.1922"/>
<polygon fill="#000000" stroke="#000000" points="261.0838,-144.3559 268.9722,-137.2832 258.3949,-137.8929 261.0838,-144.3559"/>
<text text-anchor="middle" x="236.5928" y="-157.8" font-family="Times,serif" font-size="14.00" fill="#000000">डसि</text>
</g>
<!-- Node21 -->
<g id="node21" class="node">
<title>Node21</title>
<g id="a_node21"><a xlink:title="भोजन करना">
<polygon fill="none" stroke="#0000ff" points="323.0928,-90 269.0928,-90 269.0928,-54 323.0928,-54 323.0928,-90"/>
<text text-anchor="middle" x="296.0928" y="-68.3" font-family="Times,serif" font-size="14.00" fill="#000000">प्रत्यदन</text>
</a>
</g>
</g>
<!-- Node20&#45;&gt;Node21 -->
<g id="edge20" class="edge">
<title>Node20&#45;&gt;Node21</title>
<path fill="none" stroke="#000000" d="M188.3554,-110.9282C201.5681,-102.1149 217.1937,-92.1238 224.5928,-89 235.3924,-84.4406 247.6495,-80.9643 258.927,-78.3808"/>
<polygon fill="#000000" stroke="#000000" points="259.8842,-81.7556 268.9385,-76.2538 258.4295,-74.9084 259.8842,-81.7556"/>
<text text-anchor="middle" x="236.5928" y="-92.8" font-family="Times,serif" font-size="14.00" fill="#000000">ल्युट्</text>
</g>
<!-- Node24 -->
<g id="node24" class="node">
<title>Node24</title>
<g id="a_node24"><a xlink:title="आधा चर्वण किया हुआ, ग्रास, भोज्य पदार्थ का अवशेष या जूठन, विघसो भुक्तशेषं तु#मोम">
<polygon fill="none" stroke="#0000ff" points="323.0928,-36 269.0928,-36 269.0928,0 323.0928,0 323.0928,-36"/>
<text text-anchor="middle" x="296.0928" y="-14.3" font-family="Times,serif" font-size="14.00" fill="#000000">विघस</text>
</a>
</g>
</g>
<!-- Node23&#45;&gt;Node24 -->
<g id="edge23" class="edge">
<title>Node23&#45;&gt;Node24</title>
<path fill="none" stroke="#000000" d="M193.506,-60.6798C212.7163,-52.6877 238.6688,-41.8905 259.6637,-33.1558"/>
<polygon fill="#000000" stroke="#000000" points="261.0307,-36.378 268.9191,-29.3053 258.3418,-29.915 261.0307,-36.378"/>
<text text-anchor="middle" x="236.5928" y="-49.8" font-family="Times,serif" font-size="14.00" fill="#000000">अप्</text>
</g>
</g>
</svg>
