<?xml version="1.0" encoding="UTF-8" standalone="no"?>
<!DOCTYPE svg PUBLIC "-//W3C//DTD SVG 1.1//EN"
 "http://www.w3.org/Graphics/SVG/1.1/DTD/svg11.dtd">
<!-- Generated by graphviz version 2.40.1 (20161225.0304)
 -->
<!-- Title: G Pages: 1 -->
<svg width="287pt" height="44pt"
 viewBox="0.00 0.00 286.99 44.00" xmlns="http://www.w3.org/2000/svg" xmlns:xlink="http://www.w3.org/1999/xlink">
<g id="graph0" class="graph" transform="scale(1 1) rotate(0) translate(4 40)">
<title>G</title>
<polygon fill="#ffffff" stroke="transparent" points="-4,4 -4,-40 282.9931,-40 282.9931,4 -4,4"/>
<!-- Node1 -->
<g id="node1" class="node">
<title>Node1</title>
<ellipse fill="none" stroke="#ff0000" cx="27" cy="-18" rx="27" ry="18"/>
<text text-anchor="middle" x="27" y="-14.3" font-family="Times,serif" font-size="14.00" fill="#000000">भल्</text>
</g>
<!-- Node2 -->
<g id="node2" class="node">
<title>Node2</title>
<ellipse fill="none" stroke="#ff0000" cx="129.9965" cy="-18" rx="38.9931" ry="18"/>
<text text-anchor="middle" x="129.9965" y="-14.3" font-family="Times,serif" font-size="14.00" fill="#000000">सम्_भल्</text>
</g>
<!-- Node1&#45;&gt;Node2 -->
<g id="edge1" class="edge">
<title>Node1&#45;&gt;Node2</title>
<path fill="none" stroke="#000000" d="M54.0611,-18C62.2024,-18 71.4043,-18 80.5216,-18"/>
<polygon fill="#000000" stroke="#000000" points="80.7182,-21.5001 90.7182,-18 80.7182,-14.5001 80.7182,-21.5001"/>
</g>
<!-- Node3 -->
<g id="node3" class="node">
<title>Node3</title>
<g id="a_node3"><a xlink:title="दूती, कुटनी, दे* शम्भली">
<polygon fill="none" stroke="#0000ff" points="278.9931,-36 224.9931,-36 224.9931,0 278.9931,0 278.9931,-36"/>
<text text-anchor="middle" x="251.9931" y="-14.3" font-family="Times,serif" font-size="14.00" fill="#000000">सम्भली</text>
</a>
</g>
</g>
<!-- Node2&#45;&gt;Node3 -->
<g id="edge2" class="edge">
<title>Node2&#45;&gt;Node3</title>
<path fill="none" stroke="#000000" d="M169.2685,-18C183.8417,-18 200.318,-18 214.7088,-18"/>
<polygon fill="#000000" stroke="#000000" points="214.7618,-21.5001 224.7618,-18 214.7617,-14.5001 214.7618,-21.5001"/>
<text text-anchor="middle" x="196.9931" y="-21.8" font-family="Times,serif" font-size="14.00" fill="#000000">अच्</text>
</g>
</g>
</svg>
