<?xml version="1.0" encoding="UTF-8" standalone="no"?>
<!DOCTYPE svg PUBLIC "-//W3C//DTD SVG 1.1//EN"
 "http://www.w3.org/Graphics/SVG/1.1/DTD/svg11.dtd">
<!-- Generated by graphviz version 2.36.0 (20140111.2315)
 -->
<!-- Title: G Pages: 1 -->
<svg width="314pt" height="260pt"
 viewBox="0.00 0.00 314.00 260.00" xmlns="http://www.w3.org/2000/svg" xmlns:xlink="http://www.w3.org/1999/xlink">
<g id="graph0" class="graph" transform="scale(1 1) rotate(0) translate(4 256)">
<title>G</title>
<polygon fill="white" stroke="none" points="-4,4 -4,-256 310,-256 310,4 -4,4"/>
<!-- Node1 -->
<g id="node1" class="node"><title>Node1</title>
<ellipse fill="none" stroke="red" cx="27" cy="-126" rx="27" ry="18"/>
<text text-anchor="middle" x="27" y="-122.3" font-family="Times,serif" font-size="14.00">भल्ल्</text>
</g>
<!-- Node2 -->
<g id="node2" class="node"><title>Node2</title>
<g id="a_node2"><a xlink:title="#रीछ">
<polygon fill="none" stroke="blue" points="182,-252 128,-252 128,-216 182,-216 182,-252"/>
<text text-anchor="middle" x="155" y="-230.3" font-family="Times,serif" font-size="14.00">भल्ल</text>
</a>
</g>
</g>
<!-- Node1&#45;&gt;Node2 -->
<g id="edge1" class="edge"><title>Node1&#45;&gt;Node2</title>
<path fill="none" stroke="black" d="M42.5551,-141.11C59.1439,-157.989 87.4108,-185.734 114,-207 115.754,-208.403 117.58,-209.809 119.443,-211.2"/>
<polygon fill="black" stroke="black" points="117.579,-214.171 127.742,-217.166 121.665,-208.487 117.579,-214.171"/>
<text text-anchor="middle" x="84" y="-193.8" font-family="Times,serif" font-size="14.00">अच्</text>
</g>
<!-- Node3 -->
<g id="node3" class="node"><title>Node3</title>
<ellipse fill="none" stroke="red" cx="155" cy="-180" rx="40.8928" ry="18"/>
<text text-anchor="middle" x="155" y="-176.3" font-family="Times,serif" font-size="14.00">भल्ल्+अत्</text>
</g>
<!-- Node1&#45;&gt;Node3 -->
<g id="edge2" class="edge"><title>Node1&#45;&gt;Node3</title>
<path fill="none" stroke="black" d="M50.3761,-135.684C57.3049,-138.677 64.9658,-141.98 72,-145 86.0777,-151.044 101.527,-157.646 115.183,-163.472"/>
<polygon fill="black" stroke="black" points="114.193,-166.854 124.765,-167.557 116.939,-160.415 114.193,-166.854"/>
</g>
<!-- Node5 -->
<g id="node5" class="node"><title>Node5</title>
<polygon fill="none" stroke="blue" points="182,-144 128,-144 128,-108 182,-108 182,-144"/>
<text text-anchor="middle" x="155" y="-122.3" font-family="Times,serif" font-size="14.00">भल्ली</text>
</g>
<!-- Node1&#45;&gt;Node5 -->
<g id="edge4" class="edge"><title>Node1&#45;&gt;Node5</title>
<path fill="none" stroke="black" d="M54.1073,-126C72.5221,-126 97.4299,-126 117.767,-126"/>
<polygon fill="black" stroke="black" points="117.926,-129.5 127.926,-126 117.926,-122.5 117.926,-129.5"/>
<text text-anchor="middle" x="84" y="-129.8" font-family="Times,serif" font-size="14.00">अच्</text>
</g>
<!-- Node6 -->
<g id="node6" class="node"><title>Node6</title>
<g id="a_node6"><a xlink:title="रीछ, भालू, दधति कुहरभाजामत्र भल्लूकयूनाम्">
<polygon fill="none" stroke="blue" points="182,-90 128,-90 128,-54 182,-54 182,-90"/>
<text text-anchor="middle" x="155" y="-68.3" font-family="Times,serif" font-size="14.00">भल्लुक</text>
</a>
</g>
</g>
<!-- Node1&#45;&gt;Node6 -->
<g id="edge5" class="edge"><title>Node1&#45;&gt;Node6</title>
<path fill="none" stroke="black" d="M50.3761,-116.316C57.3049,-113.323 64.9658,-110.02 72,-107 87.1389,-100.501 103.864,-93.3554 118.24,-87.2249"/>
<polygon fill="black" stroke="black" points="119.941,-90.3043 127.768,-83.1633 117.197,-83.8649 119.941,-90.3043"/>
<text text-anchor="middle" x="84" y="-110.8" font-family="Times,serif" font-size="14.00">ऊक</text>
</g>
<!-- Node7 -->
<g id="node7" class="node"><title>Node7</title>
<g id="a_node7"><a xlink:title="रीछ, भालू, दधति कुहरभाजामत्र भल्लूकयूनाम्">
<polygon fill="none" stroke="blue" points="182,-36 128,-36 128,-0 182,-0 182,-36"/>
<text text-anchor="middle" x="155" y="-14.3" font-family="Times,serif" font-size="14.00">भल्लूक</text>
</a>
</g>
</g>
<!-- Node1&#45;&gt;Node7 -->
<g id="edge6" class="edge"><title>Node1&#45;&gt;Node7</title>
<path fill="none" stroke="black" d="M41.3667,-110.676C49.8382,-101.233 61.1989,-89.0509 72,-79 89.5818,-62.6393 94.6955,-59.2873 114,-45 115.806,-43.6636 117.672,-42.3109 119.566,-40.9601"/>
<polygon fill="black" stroke="black" points="121.755,-43.7003 127.95,-35.1053 117.748,-37.9611 121.755,-43.7003"/>
<text text-anchor="middle" x="84" y="-82.8" font-family="Times,serif" font-size="14.00">ऊक</text>
</g>
<!-- Node4 -->
<g id="node4" class="node"><title>Node4</title>
<g id="a_node4"><a xlink:title="भिलावे का पौधा">
<polygon fill="none" stroke="blue" points="306,-198 252,-198 252,-162 306,-162 306,-198"/>
<text text-anchor="middle" x="279" y="-176.3" font-family="Times,serif" font-size="14.00">भल्लात</text>
</a>
</g>
</g>
<!-- Node3&#45;&gt;Node4 -->
<g id="edge3" class="edge"><title>Node3&#45;&gt;Node4</title>
<path fill="none" stroke="black" d="M195.947,-180C210.71,-180 227.348,-180 241.764,-180"/>
<polygon fill="black" stroke="black" points="241.809,-183.5 251.809,-180 241.809,-176.5 241.809,-183.5"/>
<text text-anchor="middle" x="224" y="-183.8" font-family="Times,serif" font-size="14.00">अच्</text>
</g>
</g>
</svg>
