<?xml version="1.0" encoding="UTF-8" standalone="no"?>
<!DOCTYPE svg PUBLIC "-//W3C//DTD SVG 1.1//EN"
 "http://www.w3.org/Graphics/SVG/1.1/DTD/svg11.dtd">
<!-- Generated by graphviz version 2.40.1 (20161225.0304)
 -->
<!-- Title: G Pages: 1 -->
<svg width="183pt" height="314pt"
 viewBox="0.00 0.00 183.00 314.00" xmlns="http://www.w3.org/2000/svg" xmlns:xlink="http://www.w3.org/1999/xlink">
<g id="graph0" class="graph" transform="scale(1 1) rotate(0) translate(4 310)">
<title>G</title>
<polygon fill="#ffffff" stroke="transparent" points="-4,4 -4,-310 179,-310 179,4 -4,4"/>
<!-- Node1 -->
<g id="node1" class="node">
<title>Node1</title>
<ellipse fill="none" stroke="#ff0000" cx="27" cy="-153" rx="27" ry="18"/>
<text text-anchor="middle" x="27" y="-149.3" font-family="Times,serif" font-size="14.00" fill="#000000">भिक्ष्</text>
</g>
<!-- Node2 -->
<g id="node2" class="node">
<title>Node2</title>
<g id="a_node2"><a xlink:title="मांगना, भिक्षा मांगना, भिक्षावृत्ति, भिखारीपन">
<polygon fill="none" stroke="#0000ff" points="175,-306 121,-306 121,-270 175,-270 175,-306"/>
<text text-anchor="middle" x="148" y="-284.3" font-family="Times,serif" font-size="14.00" fill="#000000">भिक्षण</text>
</a>
</g>
</g>
<!-- Node1&#45;&gt;Node2 -->
<g id="edge1" class="edge">
<title>Node1&#45;&gt;Node2</title>
<path fill="none" stroke="#000000" d="M35.5431,-170.3186C43.6756,-185.8406 56.8911,-208.7547 72,-226 84.0802,-239.7884 99.4406,-252.9445 113.186,-263.5615"/>
<polygon fill="#000000" stroke="#000000" points="111.4008,-266.599 121.4919,-269.827 115.6163,-261.0106 111.4008,-266.599"/>
<text text-anchor="middle" x="87.5" y="-256.8" font-family="Times,serif" font-size="14.00" fill="#000000">ल्युट्</text>
</g>
<!-- Node3 -->
<g id="node3" class="node">
<title>Node3</title>
<g id="a_node3"><a xlink:title="भिखारी, साधु, भिक्षुक, स्त्री&#45;भिक्षाकी">
<polygon fill="none" stroke="#0000ff" points="175,-252 121,-252 121,-216 175,-216 175,-252"/>
<text text-anchor="middle" x="148" y="-230.3" font-family="Times,serif" font-size="14.00" fill="#000000">भिक्षाक</text>
</a>
</g>
</g>
<!-- Node1&#45;&gt;Node3 -->
<g id="edge2" class="edge">
<title>Node1&#45;&gt;Node3</title>
<path fill="none" stroke="#000000" d="M44.1686,-167.1148C52.4154,-173.6958 62.5417,-181.4922 72,-188 84.8013,-196.8079 99.2978,-205.8078 112.1726,-213.4843"/>
<polygon fill="#000000" stroke="#000000" points="110.3952,-216.4994 120.786,-218.5687 113.9536,-210.4713 110.3952,-216.4994"/>
<text text-anchor="middle" x="87.5" y="-210.8" font-family="Times,serif" font-size="14.00" fill="#000000">षाकन्</text>
</g>
<!-- Node4 -->
<g id="node4" class="node">
<title>Node4</title>
<g id="a_node4"><a xlink:title="मांगना, याचना करना, प्रार्थना करना">
<polygon fill="none" stroke="#0000ff" points="175,-198 121,-198 121,-162 175,-162 175,-198"/>
<text text-anchor="middle" x="148" y="-176.3" font-family="Times,serif" font-size="14.00" fill="#000000">भिक्षा</text>
</a>
</g>
</g>
<!-- Node1&#45;&gt;Node4 -->
<g id="edge3" class="edge">
<title>Node1&#45;&gt;Node4</title>
<path fill="none" stroke="#000000" d="M52.661,-158.726C69.5964,-162.505 92.0568,-167.5168 110.9233,-171.7267"/>
<polygon fill="#000000" stroke="#000000" points="110.1721,-175.1451 120.6944,-173.907 111.6967,-168.3131 110.1721,-175.1451"/>
<text text-anchor="middle" x="87.5" y="-172.8" font-family="Times,serif" font-size="14.00" fill="#000000">अ</text>
</g>
<!-- Node5 -->
<g id="node5" class="node">
<title>Node5</title>
<g id="a_node5"><a xlink:title="याचना की गई, माँगा गया">
<polygon fill="none" stroke="#0000ff" points="175,-144 121,-144 121,-108 175,-108 175,-144"/>
<text text-anchor="middle" x="148" y="-122.3" font-family="Times,serif" font-size="14.00" fill="#000000">भिक्षित</text>
</a>
</g>
</g>
<!-- Node1&#45;&gt;Node5 -->
<g id="edge4" class="edge">
<title>Node1&#45;&gt;Node5</title>
<path fill="none" stroke="#000000" d="M52.661,-147.274C69.5964,-143.495 92.0568,-138.4832 110.9233,-134.2733"/>
<polygon fill="#000000" stroke="#000000" points="111.6967,-137.6869 120.6944,-132.093 110.1721,-130.8549 111.6967,-137.6869"/>
<text text-anchor="middle" x="87.5" y="-145.8" font-family="Times,serif" font-size="14.00" fill="#000000">क्त</text>
</g>
<!-- Node6 -->
<g id="node6" class="node">
<title>Node6</title>
<g id="a_node6"><a xlink:title="भिखारी, साधु">
<polygon fill="none" stroke="#0000ff" points="175,-90 121,-90 121,-54 175,-54 175,-90"/>
<text text-anchor="middle" x="148" y="-68.3" font-family="Times,serif" font-size="14.00" fill="#000000">भिक्षुक</text>
</a>
</g>
</g>
<!-- Node1&#45;&gt;Node6 -->
<g id="edge5" class="edge">
<title>Node1&#45;&gt;Node6</title>
<path fill="none" stroke="#000000" d="M43.6643,-138.7457C51.9679,-131.8845 62.2875,-123.7114 72,-117 84.5875,-108.3019 98.9085,-99.5479 111.6994,-92.103"/>
<polygon fill="#000000" stroke="#000000" points="113.7697,-94.9501 120.696,-86.9328 110.2818,-88.8809 113.7697,-94.9501"/>
<text text-anchor="middle" x="87.5" y="-120.8" font-family="Times,serif" font-size="14.00" fill="#000000">उक्</text>
</g>
<!-- Node7 -->
<g id="node7" class="node">
<title>Node7</title>
<g id="a_node7"><a xlink:title="भिखारी, साधु, भिक्षां च भिक्षवे दद्यात्">
<polygon fill="none" stroke="#0000ff" points="175,-36 121,-36 121,0 175,0 175,-36"/>
<text text-anchor="middle" x="148" y="-14.3" font-family="Times,serif" font-size="14.00" fill="#000000">भिक्षु</text>
</a>
</g>
</g>
<!-- Node1&#45;&gt;Node7 -->
<g id="edge6" class="edge">
<title>Node1&#45;&gt;Node7</title>
<path fill="none" stroke="#000000" d="M35.0729,-135.7502C43.0666,-119.7457 56.3543,-95.7861 72,-78 83.7694,-64.6205 98.8223,-52.034 112.4217,-41.8778"/>
<polygon fill="#000000" stroke="#000000" points="114.6332,-44.5971 120.6591,-35.8827 110.5141,-38.9373 114.6332,-44.5971"/>
<text text-anchor="middle" x="87.5" y="-81.8" font-family="Times,serif" font-size="14.00" fill="#000000">उन्</text>
</g>
</g>
</svg>
