<?xml version="1.0" encoding="UTF-8" standalone="no"?>
<!DOCTYPE svg PUBLIC "-//W3C//DTD SVG 1.1//EN"
 "http://www.w3.org/Graphics/SVG/1.1/DTD/svg11.dtd">
<!-- Generated by graphviz version 2.40.1 (20161225.0304)
 -->
<!-- Title: G Pages: 1 -->
<svg width="322pt" height="422pt"
 viewBox="0.00 0.00 322.39 422.00" xmlns="http://www.w3.org/2000/svg" xmlns:xlink="http://www.w3.org/1999/xlink">
<g id="graph0" class="graph" transform="scale(1 1) rotate(0) translate(4 418)">
<title>G</title>
<polygon fill="#ffffff" stroke="transparent" points="-4,4 -4,-418 318.3933,-418 318.3933,4 -4,4"/>
<!-- Node1 -->
<g id="node1" class="node">
<title>Node1</title>
<ellipse fill="none" stroke="#ff0000" cx="27" cy="-207" rx="27" ry="18"/>
<text text-anchor="middle" x="27" y="-203.3" font-family="Times,serif" font-size="14.00" fill="#000000">भ्राज्</text>
</g>
<!-- Node2 -->
<g id="node2" class="node">
<title>Node2</title>
<g id="a_node2"><a xlink:title="काला बादल, काली घटा">
<polygon fill="none" stroke="#0000ff" points="185.6967,-414 131.6967,-414 131.6967,-378 185.6967,-378 185.6967,-414"/>
<text text-anchor="middle" x="158.6967" y="-392.3" font-family="Times,serif" font-size="14.00" fill="#000000">नभ्राज्</text>
</a>
</g>
</g>
<!-- Node1&#45;&gt;Node2 -->
<g id="edge1" class="edge">
<title>Node1&#45;&gt;Node2</title>
<path fill="none" stroke="#000000" d="M31.5926,-225.1006C38.0975,-248.5717 51.53,-290.1502 72,-321 85.3334,-341.0944 105.4681,-358.9692 122.9784,-372.2238"/>
<polygon fill="#000000" stroke="#000000" points="121.1899,-375.2527 131.3223,-378.3489 125.3323,-369.6098 121.1899,-375.2527"/>
<text text-anchor="middle" x="87.5" y="-356.8" font-family="Times,serif" font-size="14.00" fill="#000000">क्विप्</text>
</g>
<!-- Node3 -->
<g id="node3" class="node">
<title>Node3</title>
<g id="a_node3"><a xlink:title="चमकाने वाला, देदीप्यमान, स्त्री&#45;भ्राजिका">
<polygon fill="none" stroke="#0000ff" points="185.6967,-360 131.6967,-360 131.6967,-324 185.6967,-324 185.6967,-360"/>
<text text-anchor="middle" x="158.6967" y="-338.3" font-family="Times,serif" font-size="14.00" fill="#000000">भ्राजक</text>
</a>
</g>
</g>
<!-- Node1&#45;&gt;Node3 -->
<g id="edge2" class="edge">
<title>Node1&#45;&gt;Node3</title>
<path fill="none" stroke="#000000" d="M35.6446,-224.257C43.752,-239.4253 56.8707,-261.5787 72,-278 90.4906,-298.0696 99.0166,-298.8314 121,-315 122.2159,-315.8943 123.456,-316.8024 124.71,-317.7176"/>
<polygon fill="#000000" stroke="#000000" points="122.933,-320.7523 133.084,-323.7868 127.041,-315.0844 122.933,-320.7523"/>
<text text-anchor="middle" x="87.5" y="-305.8" font-family="Times,serif" font-size="14.00" fill="#000000">ण्वुल्</text>
</g>
<!-- Node4 -->
<g id="node4" class="node">
<title>Node4</title>
<g id="a_node4"><a xlink:title="आभा, कान्ति, उज्जवलता, सौन्दर्य">
<polygon fill="none" stroke="#0000ff" points="185.6967,-306 131.6967,-306 131.6967,-270 185.6967,-270 185.6967,-306"/>
<text text-anchor="middle" x="158.6967" y="-284.3" font-family="Times,serif" font-size="14.00" fill="#000000">भ्राजथु</text>
</a>
</g>
</g>
<!-- Node1&#45;&gt;Node4 -->
<g id="edge3" class="edge">
<title>Node1&#45;&gt;Node4</title>
<path fill="none" stroke="#000000" d="M44.5128,-221.2013C52.6635,-227.5553 62.6137,-234.9584 72,-241 88.1263,-251.38 106.7391,-261.6748 122.5748,-269.9717"/>
<polygon fill="#000000" stroke="#000000" points="121.0482,-273.1225 131.5379,-274.6114 124.2662,-266.906 121.0482,-273.1225"/>
<text text-anchor="middle" x="87.5" y="-262.8" font-family="Times,serif" font-size="14.00" fill="#000000">अथुच्</text>
</g>
<!-- Node5 -->
<g id="node5" class="node">
<title>Node5</title>
<g id="a_node5"><a xlink:title="सात सूर्यों में से एक">
<polygon fill="none" stroke="#0000ff" points="185.6967,-252 131.6967,-252 131.6967,-216 185.6967,-216 185.6967,-252"/>
<text text-anchor="middle" x="158.6967" y="-230.3" font-family="Times,serif" font-size="14.00" fill="#000000">भ्राज</text>
</a>
</g>
</g>
<!-- Node1&#45;&gt;Node5 -->
<g id="edge4" class="edge">
<title>Node1&#45;&gt;Node5</title>
<path fill="none" stroke="#000000" d="M53.019,-212.3343C72.5624,-216.341 99.6034,-221.8849 121.4392,-226.3616"/>
<polygon fill="#000000" stroke="#000000" points="120.8723,-229.8181 131.3716,-228.3979 122.2783,-222.9607 120.8723,-229.8181"/>
<text text-anchor="middle" x="87.5" y="-225.8" font-family="Times,serif" font-size="14.00" fill="#000000">क</text>
</g>
<!-- Node6 -->
<g id="node6" class="node">
<title>Node6</title>
<g id="a_node6"><a xlink:title="चमकने वाला, जगमगाने वाला">
<polygon fill="none" stroke="#0000ff" points="185.6967,-198 131.6967,-198 131.6967,-162 185.6967,-162 185.6967,-198"/>
<text text-anchor="middle" x="158.6967" y="-176.3" font-family="Times,serif" font-size="14.00" fill="#000000">भ्राजिन्</text>
</a>
</g>
</g>
<!-- Node1&#45;&gt;Node6 -->
<g id="edge5" class="edge">
<title>Node1&#45;&gt;Node6</title>
<path fill="none" stroke="#000000" d="M52.6767,-201.1776C58.9885,-199.7785 65.7331,-198.3105 72,-197 88.1018,-193.6328 105.9287,-190.1032 121.209,-187.1382"/>
<polygon fill="#000000" stroke="#000000" points="122.1731,-190.5168 131.3284,-185.1847 120.8463,-183.6437 122.1731,-190.5168"/>
<text text-anchor="middle" x="87.5" y="-200.8" font-family="Times,serif" font-size="14.00" fill="#000000">णिनि</text>
</g>
<!-- Node7 -->
<g id="node7" class="node">
<title>Node7</title>
<g id="a_node7"><a xlink:title="चमकने वाला, देदीप्यमान, उज्जवल, दीप्तिकेन्द्र">
<polygon fill="none" stroke="#0000ff" points="187.6967,-144 129.6967,-144 129.6967,-108 187.6967,-108 187.6967,-144"/>
<text text-anchor="middle" x="158.6967" y="-122.3" font-family="Times,serif" font-size="14.00" fill="#000000">भ्राजिष्णु</text>
</a>
</g>
</g>
<!-- Node1&#45;&gt;Node7 -->
<g id="edge6" class="edge">
<title>Node1&#45;&gt;Node7</title>
<path fill="none" stroke="#000000" d="M43.5044,-192.5071C51.77,-185.5894 62.104,-177.4378 72,-171 87.1856,-161.1211 104.7945,-151.6509 120.1599,-143.9686"/>
<polygon fill="#000000" stroke="#000000" points="121.9651,-146.9813 129.3953,-139.4286 118.8769,-140.6993 121.9651,-146.9813"/>
<text text-anchor="middle" x="87.5" y="-174.8" font-family="Times,serif" font-size="14.00" fill="#000000">इष्णुच्</text>
</g>
<!-- Node8 -->
<g id="node8" class="node">
<title>Node8</title>
<g id="a_node8"><a xlink:title="भाई, सहोदर">
<polygon fill="none" stroke="#0000ff" points="185.6967,-90 131.6967,-90 131.6967,-54 185.6967,-54 185.6967,-90"/>
<text text-anchor="middle" x="158.6967" y="-68.3" font-family="Times,serif" font-size="14.00" fill="#000000">भ्रातृ</text>
</a>
</g>
</g>
<!-- Node1&#45;&gt;Node8 -->
<g id="edge7" class="edge">
<title>Node1&#45;&gt;Node8</title>
<path fill="none" stroke="#000000" d="M35.1317,-189.7533C43.0755,-174.0695 56.2499,-150.866 72,-134 86.8416,-118.1069 106.3263,-103.7403 123.0637,-92.8478"/>
<polygon fill="#000000" stroke="#000000" points="124.9577,-95.7912 131.5268,-87.4787 121.2077,-89.8804 124.9577,-95.7912"/>
<text text-anchor="middle" x="87.5" y="-137.8" font-family="Times,serif" font-size="14.00" fill="#000000">तृच्</text>
</g>
<!-- Node9 -->
<g id="node9" class="node">
<title>Node9</title>
<ellipse fill="none" stroke="#ff0000" cx="158.6967" cy="-18" rx="37.8943" ry="18"/>
<text text-anchor="middle" x="158.6967" y="-14.3" font-family="Times,serif" font-size="14.00" fill="#000000">वि_भ्राज्</text>
</g>
<!-- Node1&#45;&gt;Node9 -->
<g id="edge8" class="edge">
<title>Node1&#45;&gt;Node9</title>
<path fill="none" stroke="#000000" d="M32.8573,-189.2991C40.3166,-167.9605 54.3787,-131.4259 72,-103 89.7799,-74.3183 96.2038,-67.8892 121,-45 123.2182,-42.9524 125.5954,-40.9253 128.0375,-38.9567"/>
<polygon fill="#000000" stroke="#000000" points="130.6206,-41.3887 136.4532,-32.5438 126.3779,-35.821 130.6206,-41.3887"/>
</g>
<!-- Node10 -->
<g id="node10" class="node">
<title>Node10</title>
<g id="a_node10"><a xlink:title="चमकीला, दीप्तिमान्, प्रकाशमान">
<polygon fill="none" stroke="#0000ff" points="314.3933,-36 260.3933,-36 260.3933,0 314.3933,0 314.3933,-36"/>
<text text-anchor="middle" x="287.3933" y="-14.3" font-family="Times,serif" font-size="14.00" fill="#000000">विभ्राज्</text>
</a>
</g>
</g>
<!-- Node9&#45;&gt;Node10 -->
<g id="edge9" class="edge">
<title>Node9&#45;&gt;Node10</title>
<path fill="none" stroke="#000000" d="M196.6138,-18C213.5606,-18 233.4677,-18 250.3149,-18"/>
<polygon fill="#000000" stroke="#000000" points="250.3555,-21.5001 260.3555,-18 250.3554,-14.5001 250.3555,-21.5001"/>
<text text-anchor="middle" x="228.3933" y="-21.8" font-family="Times,serif" font-size="14.00" fill="#000000">क्विप्</text>
</g>
</g>
</svg>
