<?xml version="1.0" encoding="UTF-8" standalone="no"?>
<!DOCTYPE svg PUBLIC "-//W3C//DTD SVG 1.1//EN"
 "http://www.w3.org/Graphics/SVG/1.1/DTD/svg11.dtd">
<!-- Generated by graphviz version 2.40.1 (20161225.0304)
 -->
<!-- Title: G Pages: 1 -->
<svg width="180pt" height="98pt"
 viewBox="0.00 0.00 180.00 98.00" xmlns="http://www.w3.org/2000/svg" xmlns:xlink="http://www.w3.org/1999/xlink">
<g id="graph0" class="graph" transform="scale(1 1) rotate(0) translate(4 94)">
<title>G</title>
<polygon fill="#ffffff" stroke="transparent" points="-4,4 -4,-94 176,-94 176,4 -4,4"/>
<!-- Node1 -->
<g id="node1" class="node">
<title>Node1</title>
<ellipse fill="none" stroke="#ff0000" cx="27" cy="-45" rx="27" ry="18"/>
<text text-anchor="middle" x="27" y="-41.3" font-family="Times,serif" font-size="14.00" fill="#000000">बुक्क्</text>
</g>
<!-- Node2 -->
<g id="node2" class="node">
<title>Node2</title>
<g id="a_node2"><a xlink:title="हृदय, दिल">
<polygon fill="none" stroke="#0000ff" points="172,-90 118,-90 118,-54 172,-54 172,-90"/>
<text text-anchor="middle" x="145" y="-68.3" font-family="Times,serif" font-size="14.00" fill="#000000">बुक्कन्</text>
</a>
</g>
</g>
<!-- Node1&#45;&gt;Node2 -->
<g id="edge1" class="edge">
<title>Node1&#45;&gt;Node2</title>
<path fill="none" stroke="#000000" d="M52.6042,-50.8586C68.7715,-54.5579 89.9271,-59.3986 107.9149,-63.5144"/>
<polygon fill="#000000" stroke="#000000" points="107.2746,-66.9583 117.8034,-65.7771 108.836,-60.1347 107.2746,-66.9583"/>
<text text-anchor="middle" x="86" y="-63.8" font-family="Times,serif" font-size="14.00" fill="#000000">शतृ</text>
</g>
<!-- Node3 -->
<g id="node3" class="node">
<title>Node3</title>
<g id="a_node3"><a xlink:title="अनुकरणमूलक शब्द">
<polygon fill="none" stroke="#0000ff" points="172,-36 118,-36 118,0 172,0 172,-36"/>
<text text-anchor="middle" x="145" y="-14.3" font-family="Times,serif" font-size="14.00" fill="#000000">बुक्</text>
</a>
</g>
</g>
<!-- Node1&#45;&gt;Node3 -->
<g id="edge2" class="edge">
<title>Node1&#45;&gt;Node3</title>
<path fill="none" stroke="#000000" d="M52.6042,-39.1414C68.7715,-35.4421 89.9271,-30.6014 107.9149,-26.4856"/>
<polygon fill="#000000" stroke="#000000" points="108.836,-29.8653 117.8034,-24.2229 107.2746,-23.0417 108.836,-29.8653"/>
<text text-anchor="middle" x="86" y="-36.8" font-family="Times,serif" font-size="14.00" fill="#000000">क्विप्</text>
</g>
</g>
</svg>
