<?xml version="1.0" encoding="UTF-8" standalone="no"?>
<!DOCTYPE svg PUBLIC "-//W3C//DTD SVG 1.1//EN"
 "http://www.w3.org/Graphics/SVG/1.1/DTD/svg11.dtd">
<!-- Generated by graphviz version 2.40.1 (20161225.0304)
 -->
<!-- Title: G Pages: 1 -->
<svg width="321pt" height="260pt"
 viewBox="0.00 0.00 321.29 260.00" xmlns="http://www.w3.org/2000/svg" xmlns:xlink="http://www.w3.org/1999/xlink">
<g id="graph0" class="graph" transform="scale(1 1) rotate(0) translate(4 256)">
<title>G</title>
<polygon fill="#ffffff" stroke="transparent" points="-4,4 -4,-256 317.2941,-256 317.2941,4 -4,4"/>
<!-- Node1 -->
<g id="node1" class="node">
<title>Node1</title>
<ellipse fill="none" stroke="#ff0000" cx="27" cy="-126" rx="27" ry="18"/>
<text text-anchor="middle" x="27" y="-122.3" font-family="Times,serif" font-size="14.00" fill="#000000">चक्</text>
</g>
<!-- Node2 -->
<g id="node2" class="node">
<title>Node2</title>
<g id="a_node2"><a xlink:title="डराया हुआ, प्रकम्पित, भौंचक्काव्याधानुसारचकिता हरिणीव यासि &#45;">
<polygon fill="none" stroke="#0000ff" points="179.1471,-252 125.1471,-252 125.1471,-216 179.1471,-216 179.1471,-252"/>
<text text-anchor="middle" x="152.1471" y="-230.3" font-family="Times,serif" font-size="14.00" fill="#000000">चकित</text>
</a>
</g>
</g>
<!-- Node1&#45;&gt;Node2 -->
<g id="edge1" class="edge">
<title>Node1&#45;&gt;Node2</title>
<path fill="none" stroke="#000000" d="M39.9895,-142.1156C48.5778,-152.3294 60.3617,-165.5383 72,-176 85.7515,-188.3613 102.1109,-200.5831 116.4529,-210.5967"/>
<polygon fill="#000000" stroke="#000000" points="114.8573,-213.747 125.0808,-216.5277 118.8227,-207.9785 114.8573,-213.747"/>
<text text-anchor="middle" x="86.5" y="-201.8" font-family="Times,serif" font-size="14.00" fill="#000000">क्त</text>
</g>
<!-- Node3 -->
<g id="node3" class="node">
<title>Node3</title>
<polygon fill="none" stroke="#0000ff" points="179.1471,-198 125.1471,-198 125.1471,-162 179.1471,-162 179.1471,-198"/>
<text text-anchor="middle" x="152.1471" y="-176.3" font-family="Times,serif" font-size="14.00" fill="#000000">चकोर</text>
</g>
<!-- Node1&#45;&gt;Node3 -->
<g id="edge2" class="edge">
<title>Node1&#45;&gt;Node3</title>
<path fill="none" stroke="#000000" d="M49.9539,-135.9044C68.3116,-143.8257 94.3982,-155.0818 115.6196,-164.2387"/>
<polygon fill="#000000" stroke="#000000" points="114.414,-167.5303 124.9824,-168.2786 117.1873,-161.1031 114.414,-167.5303"/>
<text text-anchor="middle" x="86.5" y="-160.8" font-family="Times,serif" font-size="14.00" fill="#000000">ओरन्</text>
</g>
<!-- Node4 -->
<g id="node4" class="node">
<title>Node4</title>
<g id="a_node4"><a xlink:title="जगमगाना, प्रभा, चमक&#45; दमक">
<polygon fill="none" stroke="#0000ff" points="184.6471,-144 119.6471,-144 119.6471,-108 184.6471,-108 184.6471,-144"/>
<text text-anchor="middle" x="152.1471" y="-122.3" font-family="Times,serif" font-size="14.00" fill="#000000">चाकचक्य</text>
</a>
</g>
</g>
<!-- Node1&#45;&gt;Node4 -->
<g id="edge3" class="edge">
<title>Node1&#45;&gt;Node4</title>
<path fill="none" stroke="#000000" d="M54.155,-126C70.2148,-126 90.9156,-126 109.1501,-126"/>
<polygon fill="#000000" stroke="#000000" points="109.2636,-129.5001 119.2636,-126 109.2636,-122.5001 109.2636,-129.5001"/>
<text text-anchor="middle" x="86.5" y="-129.8" font-family="Times,serif" font-size="14.00" fill="#000000">अच्</text>
</g>
<!-- Node5 -->
<g id="node5" class="node">
<title>Node5</title>
<g id="a_node5"><a xlink:title="एक प्रकार की अम्लबेत या अम्ललोणिका#खटास, अम्लता">
<polygon fill="none" stroke="#0000ff" points="179.1471,-90 125.1471,-90 125.1471,-54 179.1471,-54 179.1471,-90"/>
<text text-anchor="middle" x="152.1471" y="-68.3" font-family="Times,serif" font-size="14.00" fill="#000000">चुक्र</text>
</a>
</g>
</g>
<!-- Node1&#45;&gt;Node5 -->
<g id="edge4" class="edge">
<title>Node1&#45;&gt;Node5</title>
<path fill="none" stroke="#000000" d="M49.9539,-116.0956C68.3116,-108.1743 94.3982,-96.9182 115.6196,-87.7613"/>
<polygon fill="#000000" stroke="#000000" points="117.1873,-90.8969 124.9824,-83.7214 114.414,-84.4697 117.1873,-90.8969"/>
<text text-anchor="middle" x="86.5" y="-108.8" font-family="Times,serif" font-size="14.00" fill="#000000">रक्</text>
</g>
<!-- Node6 -->
<g id="node6" class="node">
<title>Node6</title>
<ellipse fill="none" stroke="#ff0000" cx="152.1471" cy="-18" rx="33.2948" ry="18"/>
<text text-anchor="middle" x="152.1471" y="-14.3" font-family="Times,serif" font-size="14.00" fill="#000000">प्र_चक्</text>
</g>
<!-- Node1&#45;&gt;Node6 -->
<g id="edge5" class="edge">
<title>Node1&#45;&gt;Node6</title>
<path fill="none" stroke="#000000" d="M43.1222,-111.4708C61.3628,-95.1113 92.0434,-67.8311 119,-45 121.177,-43.1562 123.4475,-41.2573 125.7344,-39.3616"/>
<polygon fill="#000000" stroke="#000000" points="127.9567,-42.0656 133.4606,-33.0125 123.5125,-36.6574 127.9567,-42.0656"/>
</g>
<!-- Node7 -->
<g id="node7" class="node">
<title>Node7</title>
<g id="a_node7"><a xlink:title="धनुर्विद्या">
<polygon fill="none" stroke="#0000ff" points="313.2941,-36 255.2941,-36 255.2941,0 313.2941,0 313.2941,-36"/>
<text text-anchor="middle" x="284.2941" y="-14.3" font-family="Times,serif" font-size="14.00" fill="#000000">प्रचलाक</text>
</a>
</g>
</g>
<!-- Node6&#45;&gt;Node7 -->
<g id="edge6" class="edge">
<title>Node6&#45;&gt;Node7</title>
<path fill="none" stroke="#000000" d="M185.4933,-18C203.557,-18 225.9866,-18 244.9071,-18"/>
<polygon fill="#000000" stroke="#000000" points="245.0074,-21.5001 255.0074,-18 245.0074,-14.5001 245.0074,-21.5001"/>
<text text-anchor="middle" x="220.2941" y="-21.8" font-family="Times,serif" font-size="14.00" fill="#000000">आकन्</text>
</g>
</g>
</svg>
