<?xml version="1.0" encoding="UTF-8" standalone="no"?>
<!DOCTYPE svg PUBLIC "-//W3C//DTD SVG 1.1//EN"
 "http://www.w3.org/Graphics/SVG/1.1/DTD/svg11.dtd">
<!-- Generated by graphviz version 2.36.0 (20140111.2315)
 -->
<!-- Title: G Pages: 1 -->
<svg width="486pt" height="1016pt"
 viewBox="0.00 0.00 486.00 1016.00" xmlns="http://www.w3.org/2000/svg" xmlns:xlink="http://www.w3.org/1999/xlink">
<g id="graph0" class="graph" transform="scale(1 1) rotate(0) translate(4 1012)">
<title>G</title>
<polygon fill="white" stroke="none" points="-4,4 -4,-1012 482,-1012 482,4 -4,4"/>
<!-- Node1 -->
<g id="node1" class="node"><title>Node1</title>
<ellipse fill="none" stroke="red" cx="27" cy="-558" rx="27" ry="18"/>
<text text-anchor="middle" x="27" y="-554.3" font-family="Times,serif" font-size="14.00">चल्</text>
</g>
<!-- Node2 -->
<g id="node2" class="node"><title>Node2</title>
<ellipse fill="none" stroke="red" cx="156" cy="-936" rx="38.1938" ry="18"/>
<text text-anchor="middle" x="156" y="-932.3" font-family="Times,serif" font-size="14.00">उद्_चल्</text>
</g>
<!-- Node1&#45;&gt;Node2 -->
<g id="edge1" class="edge"><title>Node1&#45;&gt;Node2</title>
<path fill="none" stroke="black" d="M27.4241,-576.082C26.5627,-624.069 28.5373,-757.751 72,-857 83.9171,-884.213 91.9989,-889.037 114,-909 116.75,-911.495 119.751,-913.922 122.838,-916.234"/>
<polygon fill="black" stroke="black" points="120.905,-919.153 131.098,-922.045 124.933,-913.428 120.905,-919.153"/>
</g>
<!-- Node6 -->
<g id="node6" class="node"><title>Node6</title>
<g id="a_node6"><a xlink:title="कँपकँपी, वेपथु, क्षोभ#हिलने&#45;जुलने वाला, काँपने वाला, डोलने वाला, थरथराने वाला, घुमाने वाला, चलापाङ्गा दृष्टि स्पृशसि।">
<polygon fill="none" stroke="blue" points="183,-900 129,-900 129,-864 183,-864 183,-900"/>
<text text-anchor="middle" x="156" y="-878.3" font-family="Times,serif" font-size="14.00">चल</text>
</a>
</g>
</g>
<!-- Node1&#45;&gt;Node6 -->
<g id="edge5" class="edge"><title>Node1&#45;&gt;Node6</title>
<path fill="none" stroke="black" d="M28.2883,-576.03C29.5716,-617.701 36.3842,-723.152 72,-802 84.3722,-829.39 91.836,-834.701 114,-855 116.121,-856.943 118.396,-858.843 120.746,-860.677"/>
<polygon fill="black" stroke="black" points="118.775,-863.571 128.919,-866.629 122.896,-857.913 118.775,-863.571"/>
<text text-anchor="middle" x="84" y="-841.8" font-family="Times,serif" font-size="14.00">अच्</text>
</g>
<!-- Node7 -->
<g id="node7" class="node"><title>Node7</title>
<g id="a_node7"><a xlink:title="काँपना हिलना, डाँवाडोल होना, चलनात्मकं कर्म&#45;#गतिशील, थरथराने वाला, कंपमान, डाँवाडोल#पैर">
<polygon fill="none" stroke="blue" points="183,-846 129,-846 129,-810 183,-810 183,-846"/>
<text text-anchor="middle" x="156" y="-824.3" font-family="Times,serif" font-size="14.00">चलन</text>
</a>
</g>
</g>
<!-- Node1&#45;&gt;Node7 -->
<g id="edge6" class="edge"><title>Node1&#45;&gt;Node7</title>
<path fill="none" stroke="black" d="M29.5986,-576.041C33.2189,-610.69 44.0176,-688.308 72,-747 85.0848,-774.445 91.6716,-780.363 114,-801 116.112,-802.952 118.38,-804.859 120.726,-806.699"/>
<polygon fill="black" stroke="black" points="118.75,-809.589 128.889,-812.661 122.878,-803.936 118.75,-809.589"/>
<text text-anchor="middle" x="84" y="-786.8" font-family="Times,serif" font-size="14.00">ल्युट्</text>
</g>
<!-- Node8 -->
<g id="node8" class="node"><title>Node8</title>
<g id="a_node8"><a xlink:title="सामान्य स्त्रियों के पहनने के लिए लहँगा, पेटीकोट">
<polygon fill="none" stroke="blue" points="183,-792 129,-792 129,-756 183,-756 183,-792"/>
<text text-anchor="middle" x="156" y="-770.3" font-family="Times,serif" font-size="14.00">चलनी</text>
</a>
</g>
</g>
<!-- Node1&#45;&gt;Node8 -->
<g id="edge7" class="edge"><title>Node1&#45;&gt;Node8</title>
<path fill="none" stroke="black" d="M31.6582,-575.983C37.5834,-602.812 50.801,-654.4 72,-694 86.1848,-720.497 91.836,-726.701 114,-747 116.121,-748.943 118.396,-750.843 120.746,-752.677"/>
<polygon fill="black" stroke="black" points="118.775,-755.571 128.919,-758.629 122.896,-749.913 118.775,-755.571"/>
<text text-anchor="middle" x="84" y="-731.8" font-family="Times,serif" font-size="14.00">ल्युट्</text>
</g>
<!-- Node9 -->
<g id="node9" class="node"><title>Node9</title>
<g id="a_node9"><a xlink:title="धन की देवी लक्ष्मी">
<polygon fill="none" stroke="blue" points="183,-738 129,-738 129,-702 183,-702 183,-738"/>
<text text-anchor="middle" x="156" y="-716.3" font-family="Times,serif" font-size="14.00">चला</text>
</a>
</g>
</g>
<!-- Node1&#45;&gt;Node9 -->
<g id="edge8" class="edge"><title>Node1&#45;&gt;Node9</title>
<path fill="none" stroke="black" d="M35.3194,-575.143C43.2666,-592.99 56.8667,-621.435 72,-644 87.9764,-667.822 92.4788,-674.038 114,-693 115.958,-694.726 118.035,-696.425 120.174,-698.079"/>
<polygon fill="black" stroke="black" points="118.459,-701.159 128.609,-704.198 122.57,-695.493 118.459,-701.159"/>
<text text-anchor="middle" x="84" y="-678.8" font-family="Times,serif" font-size="14.00">अच्</text>
</g>
<!-- Node10 -->
<g id="node10" class="node"><title>Node10</title>
<g id="a_node10"><a xlink:title="आवरण, चादर">
<polygon fill="none" stroke="blue" points="183,-684 129,-684 129,-648 183,-648 183,-684"/>
<text text-anchor="middle" x="156" y="-662.3" font-family="Times,serif" font-size="14.00">चलि</text>
</a>
</g>
</g>
<!-- Node1&#45;&gt;Node10 -->
<g id="edge9" class="edge"><title>Node1&#45;&gt;Node10</title>
<path fill="none" stroke="black" d="M41.3667,-573.324C49.8382,-582.767 61.1989,-594.949 72,-605 89.5818,-621.361 94.6144,-624.823 114,-639 116.047,-640.497 118.171,-642.01 120.328,-643.516"/>
<polygon fill="black" stroke="black" points="118.478,-646.491 128.71,-649.238 122.424,-640.71 118.478,-646.491"/>
<text text-anchor="middle" x="84" y="-628.8" font-family="Times,serif" font-size="14.00">इन्</text>
</g>
<!-- Node11 -->
<g id="node11" class="node"><title>Node11</title>
<g id="a_node11"><a xlink:title="हिलाना, स्पन्दित करना#हिला हुआ, चला हुआ, आन्दोलित, क्षुब्धं">
<polygon fill="none" stroke="blue" points="183,-630 129,-630 129,-594 183,-594 183,-630"/>
<text text-anchor="middle" x="156" y="-608.3" font-family="Times,serif" font-size="14.00">चलित</text>
</a>
</g>
</g>
<!-- Node1&#45;&gt;Node11 -->
<g id="edge10" class="edge"><title>Node1&#45;&gt;Node11</title>
<path fill="none" stroke="black" d="M50.368,-567.703C57.2965,-570.697 64.9593,-573.995 72,-577 87.5747,-583.646 104.823,-590.932 119.543,-597.127"/>
<polygon fill="black" stroke="black" points="118.233,-600.373 128.808,-601.023 120.947,-593.92 118.233,-600.373"/>
<text text-anchor="middle" x="84" y="-589.8" font-family="Times,serif" font-size="14.00">क्त</text>
</g>
<!-- Node12 -->
<g id="node12" class="node"><title>Node12</title>
<g id="a_node12"><a xlink:title="एक घूँट, चुल्लूभर, पानी का">
<polygon fill="none" stroke="blue" points="183,-576 129,-576 129,-540 183,-540 183,-576"/>
<text text-anchor="middle" x="156" y="-554.3" font-family="Times,serif" font-size="14.00">चलु</text>
</a>
</g>
</g>
<!-- Node1&#45;&gt;Node12 -->
<g id="edge11" class="edge"><title>Node1&#45;&gt;Node12</title>
<path fill="none" stroke="black" d="M54.0068,-558C72.6311,-558 97.9593,-558 118.591,-558"/>
<polygon fill="black" stroke="black" points="118.592,-561.5 128.592,-558 118.591,-554.5 118.592,-561.5"/>
<text text-anchor="middle" x="84" y="-561.8" font-family="Times,serif" font-size="14.00">उन्</text>
</g>
<!-- Node13 -->
<g id="node13" class="node"><title>Node13</title>
<g id="a_node13"><a xlink:title="दुर्दान्त हाथी">
<polygon fill="none" stroke="blue" points="183,-522 129,-522 129,-486 183,-486 183,-522"/>
<text text-anchor="middle" x="156" y="-500.3" font-family="Times,serif" font-size="14.00">चालक</text>
</a>
</g>
</g>
<!-- Node1&#45;&gt;Node13 -->
<g id="edge12" class="edge"><title>Node1&#45;&gt;Node13</title>
<path fill="none" stroke="black" d="M50.368,-548.297C57.2965,-545.303 64.9593,-542.005 72,-539 87.5747,-532.354 104.823,-525.068 119.543,-518.873"/>
<polygon fill="black" stroke="black" points="120.947,-522.08 128.808,-514.977 118.233,-515.627 120.947,-522.08"/>
<text text-anchor="middle" x="84" y="-542.8" font-family="Times,serif" font-size="14.00">ण्वुल्</text>
</g>
<!-- Node14 -->
<g id="node14" class="node"><title>Node14</title>
<g id="a_node14"><a xlink:title="घर का छप्पर या छत">
<polygon fill="none" stroke="blue" points="183,-468 129,-468 129,-432 183,-432 183,-468"/>
<text text-anchor="middle" x="156" y="-446.3" font-family="Times,serif" font-size="14.00">चाल</text>
</a>
</g>
</g>
<!-- Node1&#45;&gt;Node14 -->
<g id="edge13" class="edge"><title>Node1&#45;&gt;Node14</title>
<path fill="none" stroke="black" d="M41.2655,-542.264C49.699,-532.588 61.0552,-520.143 72,-510 89.4117,-493.863 94.7366,-490.874 114,-477 116.057,-475.518 118.19,-474.016 120.354,-472.519"/>
<polygon fill="black" stroke="black" points="122.444,-475.33 128.75,-466.817 118.511,-469.539 122.444,-475.33"/>
<text text-anchor="middle" x="84" y="-513.8" font-family="Times,serif" font-size="14.00">ण</text>
</g>
<!-- Node15 -->
<g id="node15" class="node"><title>Node15</title>
<ellipse fill="none" stroke="red" cx="156" cy="-396" rx="42.4939" ry="18"/>
<text text-anchor="middle" x="156" y="-392.3" font-family="Times,serif" font-size="14.00">चल्+णिच्</text>
</g>
<!-- Node1&#45;&gt;Node15 -->
<g id="edge14" class="edge"><title>Node1&#45;&gt;Node15</title>
<path fill="none" stroke="black" d="M35.7327,-540.941C48.7926,-513.533 77.4111,-459.114 114,-423 116.366,-420.665 118.962,-418.415 121.664,-416.278"/>
<polygon fill="black" stroke="black" points="123.939,-418.951 129.961,-410.235 119.818,-413.293 123.939,-418.951"/>
</g>
<!-- Node17 -->
<g id="node17" class="node"><title>Node17</title>
<ellipse fill="none" stroke="red" cx="156" cy="-342" rx="41.6928" ry="18"/>
<text text-anchor="middle" x="156" y="-338.3" font-family="Times,serif" font-size="14.00">निस्_चल्</text>
</g>
<!-- Node1&#45;&gt;Node17 -->
<g id="edge16" class="edge"><title>Node1&#45;&gt;Node17</title>
<path fill="none" stroke="black" d="M31.9508,-540.174C40.8127,-503.835 65.4118,-420.3 114,-369 116.286,-366.587 118.827,-364.282 121.492,-362.109"/>
<polygon fill="black" stroke="black" points="123.777,-364.772 129.73,-356.007 119.611,-359.147 123.777,-364.772"/>
</g>
<!-- Node19 -->
<g id="node19" class="node"><title>Node19</title>
<ellipse fill="none" stroke="red" cx="156" cy="-288" rx="32.4942" ry="18"/>
<text text-anchor="middle" x="156" y="-284.3" font-family="Times,serif" font-size="14.00">प्र_चल्</text>
</g>
<!-- Node1&#45;&gt;Node19 -->
<g id="edge18" class="edge"><title>Node1&#45;&gt;Node19</title>
<path fill="none" stroke="black" d="M29.5864,-539.987C34.3628,-496.037 52.3314,-382.012 114,-315 116.857,-311.896 120.142,-308.982 123.582,-306.302"/>
<polygon fill="black" stroke="black" points="125.638,-309.135 131.765,-300.492 121.585,-303.428 125.638,-309.135"/>
</g>
<!-- Node23 -->
<g id="node23" class="node"><title>Node23</title>
<ellipse fill="none" stroke="red" cx="156" cy="-234" rx="34.394" ry="18"/>
<text text-anchor="middle" x="156" y="-230.3" font-family="Times,serif" font-size="14.00">वि_चल्</text>
</g>
<!-- Node1&#45;&gt;Node23 -->
<g id="edge22" class="edge"><title>Node1&#45;&gt;Node23</title>
<path fill="none" stroke="black" d="M29.8042,-539.917C33.998,-501.813 46.0829,-410.867 72,-339 85.3568,-301.962 87.4167,-290.044 114,-261 116.706,-258.043 119.802,-255.261 123.053,-252.69"/>
<polygon fill="black" stroke="black" points="125.239,-255.43 131.319,-246.753 121.155,-249.744 125.239,-255.43"/>
</g>
<!-- Node26 -->
<g id="node26" class="node"><title>Node26</title>
<ellipse fill="none" stroke="red" cx="156" cy="-83" rx="38.9931" ry="18"/>
<text text-anchor="middle" x="156" y="-79.3" font-family="Times,serif" font-size="14.00">सम्_चल्</text>
</g>
<!-- Node1&#45;&gt;Node26 -->
<g id="edge25" class="edge"><title>Node1&#45;&gt;Node26</title>
<path fill="none" stroke="black" d="M29.3511,-539.785C33.0089,-494.89 44.7239,-375.626 72,-280 90.0358,-216.77 122.861,-146.705 141.366,-109.549"/>
<polygon fill="black" stroke="black" points="144.599,-110.912 145.964,-100.405 138.345,-107.768 144.599,-110.912"/>
</g>
<!-- Node3 -->
<g id="node3" class="node"><title>Node3</title>
<g id="a_node3"><a xlink:title="मन#हिलने डुलने वाला">
<polygon fill="none" stroke="blue" points="337,-1008 283,-1008 283,-972 337,-972 337,-1008"/>
<text text-anchor="middle" x="310" y="-986.3" font-family="Times,serif" font-size="14.00">उच्चल</text>
</a>
</g>
</g>
<!-- Node2&#45;&gt;Node3 -->
<g id="edge2" class="edge"><title>Node2&#45;&gt;Node3</title>
<path fill="none" stroke="black" d="M187.03,-946.669C211.733,-955.445 246.816,-967.908 273.018,-977.217"/>
<polygon fill="black" stroke="black" points="271.991,-980.566 282.586,-980.616 274.335,-973.97 271.991,-980.566"/>
<text text-anchor="middle" x="228" y="-967.8" font-family="Times,serif" font-size="14.00">अच्</text>
</g>
<!-- Node4 -->
<g id="node4" class="node"><title>Node4</title>
<g id="a_node4"><a xlink:title="चले जाना, कूच करना">
<polygon fill="none" stroke="blue" points="339.5,-954 280.5,-954 280.5,-918 339.5,-918 339.5,-954"/>
<text text-anchor="middle" x="310" y="-932.3" font-family="Times,serif" font-size="14.00">उच्चलन</text>
</a>
</g>
</g>
<!-- Node2&#45;&gt;Node4 -->
<g id="edge3" class="edge"><title>Node2&#45;&gt;Node4</title>
<path fill="none" stroke="black" d="M194.573,-936C217.597,-936 247.005,-936 270.243,-936"/>
<polygon fill="black" stroke="black" points="270.441,-939.5 280.441,-936 270.441,-932.5 270.441,-939.5"/>
<text text-anchor="middle" x="228" y="-939.8" font-family="Times,serif" font-size="14.00">ल्युट्</text>
</g>
<!-- Node5 -->
<g id="node5" class="node"><title>Node5</title>
<g id="a_node5"><a xlink:title="चलने के लिए तत्पर, प्रस्थान करने वाला">
<polygon fill="none" stroke="blue" points="341.5,-900 278.5,-900 278.5,-864 341.5,-864 341.5,-900"/>
<text text-anchor="middle" x="310" y="-878.3" font-family="Times,serif" font-size="14.00">उच्चलित</text>
</a>
</g>
</g>
<!-- Node2&#45;&gt;Node5 -->
<g id="edge4" class="edge"><title>Node2&#45;&gt;Node5</title>
<path fill="none" stroke="black" d="M187.03,-925.331C210.429,-917.019 243.14,-905.398 268.797,-896.283"/>
<polygon fill="black" stroke="black" points="269.999,-899.57 278.251,-892.924 267.656,-892.974 269.999,-899.57"/>
<text text-anchor="middle" x="228" y="-916.8" font-family="Times,serif" font-size="14.00">क्त</text>
</g>
<!-- Node16 -->
<g id="node16" class="node"><title>Node16</title>
<g id="a_node16"><a xlink:title="चलाना&#45;फिराना, हिलाना&#45;डुलाना, हिलाना, पूंछ की भांति">
<polygon fill="none" stroke="blue" points="337,-468 283,-468 283,-432 337,-432 337,-468"/>
<text text-anchor="middle" x="310" y="-446.3" font-family="Times,serif" font-size="14.00">चालन</text>
</a>
</g>
</g>
<!-- Node15&#45;&gt;Node16 -->
<g id="edge15" class="edge"><title>Node15&#45;&gt;Node16</title>
<path fill="none" stroke="black" d="M188.864,-407.32C213.457,-416.057 247.485,-428.146 273.049,-437.228"/>
<polygon fill="black" stroke="black" points="272.146,-440.621 282.74,-440.671 274.489,-434.025 272.146,-440.621"/>
<text text-anchor="middle" x="228" y="-427.8" font-family="Times,serif" font-size="14.00">ल्युट्</text>
</g>
<!-- Node21 -->
<g id="node21" class="node"><title>Node21</title>
<ellipse fill="none" stroke="red" cx="310" cy="-396" rx="51.9908" ry="18"/>
<text text-anchor="middle" x="310" y="-392.3" font-family="Times,serif" font-size="14.00">प्र_चल्+णिच्</text>
</g>
<!-- Node15&#45;&gt;Node21 -->
<g id="edge20" class="edge"><title>Node15&#45;&gt;Node21</title>
<path fill="none" stroke="black" d="M198.535,-396C213.675,-396 231.131,-396 247.631,-396"/>
<polygon fill="black" stroke="black" points="247.752,-399.5 257.752,-396 247.752,-392.5 247.752,-399.5"/>
</g>
<!-- Node18 -->
<g id="node18" class="node"><title>Node18</title>
<g id="a_node18"><a xlink:title="अचर, स्थिर, अटल, अडिग">
<polygon fill="none" stroke="blue" points="337,-360 283,-360 283,-324 337,-324 337,-360"/>
<text text-anchor="middle" x="310" y="-338.3" font-family="Times,serif" font-size="14.00">निश्चल</text>
</a>
</g>
</g>
<!-- Node17&#45;&gt;Node18 -->
<g id="edge17" class="edge"><title>Node17&#45;&gt;Node18</title>
<path fill="none" stroke="black" d="M197.733,-342C221.115,-342 250.219,-342 272.797,-342"/>
<polygon fill="black" stroke="black" points="272.984,-345.5 282.984,-342 272.984,-338.5 272.984,-345.5"/>
<text text-anchor="middle" x="228" y="-345.8" font-family="Times,serif" font-size="14.00">अस्</text>
</g>
<!-- Node20 -->
<g id="node20" class="node"><title>Node20</title>
<g id="a_node20"><a xlink:title="काँपता हुआ, हिलता हुआ, थरथराता हुआ">
<polygon fill="none" stroke="blue" points="337,-306 283,-306 283,-270 337,-270 337,-306"/>
<text text-anchor="middle" x="310" y="-284.3" font-family="Times,serif" font-size="14.00">प्रचल</text>
</a>
</g>
</g>
<!-- Node19&#45;&gt;Node20 -->
<g id="edge19" class="edge"><title>Node19&#45;&gt;Node20</title>
<path fill="none" stroke="black" d="M188.864,-288C213.348,-288 247.184,-288 272.709,-288"/>
<polygon fill="black" stroke="black" points="272.741,-291.5 282.74,-288 272.74,-284.5 272.741,-291.5"/>
<text text-anchor="middle" x="228" y="-291.8" font-family="Times,serif" font-size="14.00">अच्</text>
</g>
<!-- Node22 -->
<g id="node22" class="node"><title>Node22</title>
<g id="a_node22"><a xlink:title="विलोडन, हिलाना, हलचल">
<polygon fill="none" stroke="blue" points="478,-414 422,-414 422,-378 478,-378 478,-414"/>
<text text-anchor="middle" x="450" y="-392.3" font-family="Times,serif" font-size="14.00">प्रचालन</text>
</a>
</g>
</g>
<!-- Node21&#45;&gt;Node22 -->
<g id="edge21" class="edge"><title>Node21&#45;&gt;Node22</title>
<path fill="none" stroke="black" d="M362.386,-396C378.824,-396 396.69,-396 411.904,-396"/>
<polygon fill="black" stroke="black" points="411.962,-399.5 421.962,-396 411.962,-392.5 411.962,-399.5"/>
<text text-anchor="middle" x="392" y="-399.8" font-family="Times,serif" font-size="14.00">ल्युट्</text>
</g>
<!-- Node24 -->
<g id="node24" class="node"><title>Node24</title>
<g id="a_node24"><a xlink:title="स्पन्दन">
<polygon fill="none" stroke="blue" points="337.5,-252 282.5,-252 282.5,-216 337.5,-216 337.5,-252"/>
<text text-anchor="middle" x="310" y="-230.3" font-family="Times,serif" font-size="14.00">विचलन</text>
</a>
</g>
</g>
<!-- Node23&#45;&gt;Node24 -->
<g id="edge23" class="edge"><title>Node23&#45;&gt;Node24</title>
<path fill="none" stroke="black" d="M190.734,-234C214.917,-234 247.472,-234 272.303,-234"/>
<polygon fill="black" stroke="black" points="272.426,-237.5 282.426,-234 272.426,-230.5 272.426,-237.5"/>
<text text-anchor="middle" x="228" y="-237.8" font-family="Times,serif" font-size="14.00">ल्युट्</text>
</g>
<!-- Node25 -->
<g id="node25" class="node"><title>Node25</title>
<g id="a_node25"><a xlink:title="इधर उधर घूमने वाला, हिलने वाला, थरथराने वाला, लड़खड़ाने वाला, चंचल">
<polygon fill="none" stroke="blue" points="337,-198 283,-198 283,-162 337,-162 337,-198"/>
<text text-anchor="middle" x="310" y="-176.3" font-family="Times,serif" font-size="14.00">विचल</text>
</a>
</g>
</g>
<!-- Node23&#45;&gt;Node25 -->
<g id="edge24" class="edge"><title>Node23&#45;&gt;Node25</title>
<path fill="none" stroke="black" d="M184.879,-224.096C209.763,-215.255 246.339,-202.261 273.345,-192.667"/>
<polygon fill="black" stroke="black" points="274.57,-195.946 282.822,-189.3 272.227,-189.35 274.57,-195.946"/>
<text text-anchor="middle" x="228" y="-215.8" font-family="Times,serif" font-size="14.00">अच्</text>
</g>
<!-- Node27 -->
<g id="node27" class="node"><title>Node27</title>
<g id="a_node27"><a xlink:title="विक्षोभ, कंपकंपी, हिलना, थरथरी, अचलसञ्चलनाहरणो रणः">
<polygon fill="none" stroke="blue" points="337,-144 283,-144 283,-108 337,-108 337,-144"/>
<text text-anchor="middle" x="310" y="-122.3" font-family="Times,serif" font-size="14.00">सञ्चलन</text>
</a>
</g>
</g>
<!-- Node26&#45;&gt;Node27 -->
<g id="edge26" class="edge"><title>Node26&#45;&gt;Node27</title>
<path fill="none" stroke="black" d="M189.608,-92.2246C214.142,-99.1651 247.748,-108.672 273.057,-115.832"/>
<polygon fill="black" stroke="black" points="272.425,-119.29 283,-118.645 274.33,-112.555 272.425,-119.29"/>
<text text-anchor="middle" x="228" y="-109.8" font-family="Times,serif" font-size="14.00">ल्युट्</text>
</g>
<!-- Node28 -->
<g id="node28" class="node"><title>Node28</title>
<g id="a_node28"><a xlink:title="कांपने वाला, ठिठुरने वाला">
<polygon fill="none" stroke="blue" points="337,-90 283,-90 283,-54 337,-54 337,-90"/>
<text text-anchor="middle" x="310" y="-68.3" font-family="Times,serif" font-size="14.00">सञ्चल</text>
</a>
</g>
</g>
<!-- Node26&#45;&gt;Node28 -->
<g id="edge27" class="edge"><title>Node26&#45;&gt;Node28</title>
<path fill="none" stroke="black" d="M194.573,-80.2809C218.359,-78.5595 248.96,-76.345 272.531,-74.6392"/>
<polygon fill="black" stroke="black" points="273.095,-78.1076 282.816,-73.8949 272.59,-71.1259 273.095,-78.1076"/>
<text text-anchor="middle" x="228" y="-82.8" font-family="Times,serif" font-size="14.00">अच्</text>
</g>
<!-- Node29 -->
<g id="node29" class="node"><title>Node29</title>
<g id="a_node29"><a xlink:title="गुंजा की झाड़ी">
<polygon fill="none" stroke="blue" points="337,-36 283,-36 283,-0 337,-0 337,-36"/>
<text text-anchor="middle" x="310" y="-14.3" font-family="Times,serif" font-size="14.00">सञ्चाली</text>
</a>
</g>
</g>
<!-- Node26&#45;&gt;Node29 -->
<g id="edge28" class="edge"><title>Node26&#45;&gt;Node29</title>
<path fill="none" stroke="black" d="M185.234,-70.9263C210.161,-60.2667 246.617,-44.6768 273.511,-33.1763"/>
<polygon fill="black" stroke="black" points="275.129,-36.291 282.947,-29.141 272.376,-29.8548 275.129,-36.291"/>
<text text-anchor="middle" x="228" y="-60.8" font-family="Times,serif" font-size="14.00">ण</text>
</g>
</g>
</svg>
