<?xml version="1.0" encoding="UTF-8" standalone="no"?>
<!DOCTYPE svg PUBLIC "-//W3C//DTD SVG 1.1//EN"
 "http://www.w3.org/Graphics/SVG/1.1/DTD/svg11.dtd">
<!-- Generated by graphviz version 2.40.1 (20161225.0304)
 -->
<!-- Title: G Pages: 1 -->
<svg width="309pt" height="395pt"
 viewBox="0.00 0.00 309.19 395.00" xmlns="http://www.w3.org/2000/svg" xmlns:xlink="http://www.w3.org/1999/xlink">
<g id="graph0" class="graph" transform="scale(1 1) rotate(0) translate(4 391)">
<title>G</title>
<polygon fill="#ffffff" stroke="transparent" points="-4,4 -4,-391 305.1938,-391 305.1938,4 -4,4"/>
<!-- Node1 -->
<g id="node1" class="node">
<title>Node1</title>
<ellipse fill="none" stroke="#ff0000" cx="27" cy="-207" rx="27" ry="18"/>
<text text-anchor="middle" x="27" y="-203.3" font-family="Times,serif" font-size="14.00" fill="#000000">चुल्</text>
</g>
<!-- Node2 -->
<g id="node2" class="node">
<title>Node2</title>
<g id="a_node2"><a xlink:title="गहरा कीचड़">
<polygon fill="none" stroke="#0000ff" points="183.0969,-387 129.0969,-387 129.0969,-351 183.0969,-351 183.0969,-387"/>
<text text-anchor="middle" x="156.0969" y="-365.3" font-family="Times,serif" font-size="14.00" fill="#000000">चुलुक</text>
</a>
</g>
</g>
<!-- Node1&#45;&gt;Node2 -->
<g id="edge1" class="edge">
<title>Node1&#45;&gt;Node2</title>
<path fill="none" stroke="#000000" d="M33.0372,-224.6555C40.3023,-244.3115 53.829,-276.4128 72,-300 85.4461,-317.454 104.1022,-333.3296 120.4271,-345.4407"/>
<polygon fill="#000000" stroke="#000000" points="118.5544,-348.4054 128.7116,-351.4192 122.6508,-342.7291 118.5544,-348.4054"/>
<text text-anchor="middle" x="87.5" y="-332.8" font-family="Times,serif" font-size="14.00" fill="#000000">उकञ्</text>
</g>
<!-- Node3 -->
<g id="node3" class="node">
<title>Node3</title>
<g id="a_node3"><a xlink:title="मुर्गे की कलगी, पृषो* दीर्घः">
<polygon fill="none" stroke="#0000ff" points="183.0969,-333 129.0969,-333 129.0969,-297 183.0969,-297 183.0969,-333"/>
<text text-anchor="middle" x="156.0969" y="-311.3" font-family="Times,serif" font-size="14.00" fill="#000000">चूलिका</text>
</a>
</g>
</g>
<!-- Node1&#45;&gt;Node3 -->
<g id="edge2" class="edge">
<title>Node1&#45;&gt;Node3</title>
<path fill="none" stroke="#000000" d="M39.9093,-223.2059C48.4655,-233.4557 60.2439,-246.6709 72,-257 86.8132,-270.0151 104.6215,-282.6649 120.0295,-292.8119"/>
<polygon fill="#000000" stroke="#000000" points="118.4871,-295.9829 128.7833,-298.481 122.2922,-290.1074 118.4871,-295.9829"/>
<text text-anchor="middle" x="87.5" y="-284.8" font-family="Times,serif" font-size="14.00" fill="#000000">ण्वुल्</text>
</g>
<!-- Node4 -->
<g id="node4" class="node">
<title>Node4</title>
<g id="a_node4"><a xlink:title="बाल, केश, पृषो* दीर्घ">
<polygon fill="none" stroke="#0000ff" points="183.0969,-279 129.0969,-279 129.0969,-243 183.0969,-243 183.0969,-279"/>
<text text-anchor="middle" x="156.0969" y="-257.3" font-family="Times,serif" font-size="14.00" fill="#000000">चूंल</text>
</a>
</g>
</g>
<!-- Node1&#45;&gt;Node4 -->
<g id="edge3" class="edge">
<title>Node1&#45;&gt;Node4</title>
<path fill="none" stroke="#000000" d="M49.8831,-216.6885C56.9693,-219.6816 64.8047,-222.9837 72,-226 87.553,-232.5198 104.7414,-239.6812 119.5038,-245.8183"/>
<polygon fill="#000000" stroke="#000000" points="118.2353,-249.0813 128.8129,-249.6863 120.9213,-242.6171 118.2353,-249.0813"/>
<text text-anchor="middle" x="87.5" y="-241.8" font-family="Times,serif" font-size="14.00" fill="#000000">क</text>
</g>
<!-- Node5 -->
<g id="node5" class="node">
<title>Node5</title>
<g id="a_node5"><a xlink:title="ऊपर का कक्ष">
<polygon fill="none" stroke="#0000ff" points="183.0969,-225 129.0969,-225 129.0969,-189 183.0969,-189 183.0969,-225"/>
<text text-anchor="middle" x="156.0969" y="-203.3" font-family="Times,serif" font-size="14.00" fill="#000000">चूंला</text>
</a>
</g>
</g>
<!-- Node1&#45;&gt;Node5 -->
<g id="edge4" class="edge">
<title>Node1&#45;&gt;Node5</title>
<path fill="none" stroke="#000000" d="M54.0629,-207C72.9115,-207 98.2859,-207 119.0148,-207"/>
<polygon fill="#000000" stroke="#000000" points="119.0696,-210.5001 129.0696,-207 119.0695,-203.5001 119.0696,-210.5001"/>
<text text-anchor="middle" x="87.5" y="-210.8" font-family="Times,serif" font-size="14.00" fill="#000000">क</text>
</g>
<!-- Node6 -->
<g id="node6" class="node">
<title>Node6</title>
<g id="a_node6"><a xlink:title="दक्षिण भारत में एक देश का नाम, वर्तमान तञ्जौर या तञ्जावुर">
<polygon fill="none" stroke="#0000ff" points="183.0969,-171 129.0969,-171 129.0969,-135 183.0969,-135 183.0969,-171"/>
<text text-anchor="middle" x="156.0969" y="-149.3" font-family="Times,serif" font-size="14.00" fill="#000000">चोल</text>
</a>
</g>
</g>
<!-- Node1&#45;&gt;Node6 -->
<g id="edge5" class="edge">
<title>Node1&#45;&gt;Node6</title>
<path fill="none" stroke="#000000" d="M49.8831,-197.3115C56.9693,-194.3184 64.8047,-191.0163 72,-188 87.553,-181.4802 104.7414,-174.3188 119.5038,-168.1817"/>
<polygon fill="#000000" stroke="#000000" points="120.9213,-171.3829 128.8129,-164.3137 118.2353,-164.9187 120.9213,-171.3829"/>
<text text-anchor="middle" x="87.5" y="-191.8" font-family="Times,serif" font-size="14.00" fill="#000000">घञ्</text>
</g>
<!-- Node7 -->
<g id="node7" class="node">
<title>Node7</title>
<g id="a_node7"><a xlink:title="अँगिया चोली">
<polygon fill="none" stroke="#0000ff" points="183.0969,-117 129.0969,-117 129.0969,-81 183.0969,-81 183.0969,-117"/>
<text text-anchor="middle" x="156.0969" y="-95.3" font-family="Times,serif" font-size="14.00" fill="#000000">चोली</text>
</a>
</g>
</g>
<!-- Node1&#45;&gt;Node7 -->
<g id="edge6" class="edge">
<title>Node1&#45;&gt;Node7</title>
<path fill="none" stroke="#000000" d="M39.4471,-190.8815C47.9984,-180.3405 59.9452,-166.6101 72,-156 86.8308,-142.9466 104.784,-130.4034 120.2876,-120.423"/>
<polygon fill="#000000" stroke="#000000" points="122.508,-123.1601 129.0907,-114.8584 118.7678,-117.2431 122.508,-123.1601"/>
<text text-anchor="middle" x="87.5" y="-159.8" font-family="Times,serif" font-size="14.00" fill="#000000">घञ्</text>
</g>
<!-- Node8 -->
<g id="node8" class="node">
<title>Node8</title>
<ellipse fill="none" stroke="#ff0000" cx="156.0969" cy="-45" rx="35.194" ry="18"/>
<text text-anchor="middle" x="156.0969" y="-41.3" font-family="Times,serif" font-size="14.00" fill="#000000">नि_चुल्</text>
</g>
<!-- Node1&#45;&gt;Node8 -->
<g id="edge7" class="edge">
<title>Node1&#45;&gt;Node8</title>
<path fill="none" stroke="#000000" d="M35.5396,-189.754C43.9647,-173.3313 57.6354,-148.1934 72,-128 91.1701,-101.0513 96.8889,-94.6359 121,-72 123.1018,-70.0268 125.3409,-68.0524 127.632,-66.1193"/>
<polygon fill="#000000" stroke="#000000" points="129.9158,-68.7739 135.498,-59.7689 125.5186,-63.3273 129.9158,-68.7739"/>
</g>
<!-- Node9 -->
<g id="node9" class="node">
<title>Node9</title>
<g id="a_node9"><a xlink:title="एक प्रकार का नरकुल">
<polygon fill="none" stroke="#0000ff" points="301.1938,-90 247.1938,-90 247.1938,-54 301.1938,-54 301.1938,-90"/>
<text text-anchor="middle" x="274.1938" y="-68.3" font-family="Times,serif" font-size="14.00" fill="#000000">निचुल</text>
</a>
</g>
</g>
<!-- Node8&#45;&gt;Node9 -->
<g id="edge8" class="edge">
<title>Node8&#45;&gt;Node9</title>
<path fill="none" stroke="#000000" d="M188.3674,-52.3779C203.4933,-55.8361 221.5935,-59.9742 237.2642,-63.5569"/>
<polygon fill="#000000" stroke="#000000" points="236.6269,-67.0015 247.1555,-65.8184 238.1871,-60.1776 236.6269,-67.0015"/>
<text text-anchor="middle" x="219.1938" y="-63.8" font-family="Times,serif" font-size="14.00" fill="#000000">क</text>
</g>
<!-- Node10 -->
<g id="node10" class="node">
<title>Node10</title>
<g id="a_node10"><a xlink:title="बिस्तरे की चादर">
<polygon fill="none" stroke="#0000ff" points="301.1938,-36 247.1938,-36 247.1938,0 301.1938,0 301.1938,-36"/>
<text text-anchor="middle" x="274.1938" y="-14.3" font-family="Times,serif" font-size="14.00" fill="#000000">निचोल</text>
</a>
</g>
</g>
<!-- Node8&#45;&gt;Node10 -->
<g id="edge9" class="edge">
<title>Node8&#45;&gt;Node10</title>
<path fill="none" stroke="#000000" d="M188.3674,-37.6221C203.4933,-34.1639 221.5935,-30.0258 237.2642,-26.4431"/>
<polygon fill="#000000" stroke="#000000" points="238.1871,-29.8224 247.1555,-24.1816 236.6269,-22.9985 238.1871,-29.8224"/>
<text text-anchor="middle" x="219.1938" y="-35.8" font-family="Times,serif" font-size="14.00" fill="#000000">घञ्</text>
</g>
</g>
</svg>
