<?xml version="1.0" encoding="UTF-8" standalone="no"?>
<!DOCTYPE svg PUBLIC "-//W3C//DTD SVG 1.1//EN"
 "http://www.w3.org/Graphics/SVG/1.1/DTD/svg11.dtd">
<!-- Generated by graphviz version 2.40.1 (20161225.0304)
 -->
<!-- Title: G Pages: 1 -->
<svg width="314pt" height="260pt"
 viewBox="0.00 0.00 313.59 260.00" xmlns="http://www.w3.org/2000/svg" xmlns:xlink="http://www.w3.org/1999/xlink">
<g id="graph0" class="graph" transform="scale(1 1) rotate(0) translate(4 256)">
<title>G</title>
<polygon fill="#ffffff" stroke="transparent" points="-4,4 -4,-256 309.5928,-256 309.5928,4 -4,4"/>
<!-- Node1 -->
<g id="node1" class="node">
<title>Node1</title>
<ellipse fill="none" stroke="#ff0000" cx="27" cy="-126" rx="27" ry="18"/>
<text text-anchor="middle" x="27" y="-122.3" font-family="Times,serif" font-size="14.00" fill="#000000">चुर्</text>
</g>
<!-- Node2 -->
<g id="node2" class="node">
<title>Node2</title>
<g id="a_node2"><a xlink:title="चोरी">
<polygon fill="none" stroke="#0000ff" points="182.2964,-252 128.2964,-252 128.2964,-216 182.2964,-216 182.2964,-252"/>
<text text-anchor="middle" x="155.2964" y="-230.3" font-family="Times,serif" font-size="14.00" fill="#000000">चुरा</text>
</a>
</g>
</g>
<!-- Node1&#45;&gt;Node2 -->
<g id="edge1" class="edge">
<title>Node1&#45;&gt;Node2</title>
<path fill="none" stroke="#000000" d="M41.0774,-141.7678C49.7016,-151.1527 61.1361,-163.1183 72,-173 90.0231,-189.3936 95.3091,-192.6525 115,-207 116.5824,-208.153 118.2098,-209.3193 119.8609,-210.4869"/>
<polygon fill="#000000" stroke="#000000" points="118.0039,-213.4584 128.2158,-216.2811 121.9931,-207.7062 118.0039,-213.4584"/>
<text text-anchor="middle" x="84.5" y="-196.8" font-family="Times,serif" font-size="14.00" fill="#000000">अ</text>
</g>
<!-- Node3 -->
<g id="node3" class="node">
<title>Node3</title>
<g id="a_node3"><a xlink:title="छोटा कुआँ">
<polygon fill="none" stroke="#0000ff" points="182.2964,-198 128.2964,-198 128.2964,-162 182.2964,-162 182.2964,-198"/>
<text text-anchor="middle" x="155.2964" y="-176.3" font-family="Times,serif" font-size="14.00" fill="#000000">चुरि</text>
</a>
</g>
</g>
<!-- Node1&#45;&gt;Node3 -->
<g id="edge2" class="edge">
<title>Node1&#45;&gt;Node3</title>
<path fill="none" stroke="#000000" d="M49.9368,-135.6541C69.0233,-143.6876 96.5508,-155.274 118.682,-164.589"/>
<polygon fill="#000000" stroke="#000000" points="117.533,-167.9027 128.1077,-168.5562 120.2486,-161.4509 117.533,-167.9027"/>
<text text-anchor="middle" x="84.5" y="-157.8" font-family="Times,serif" font-size="14.00" fill="#000000">कि</text>
</g>
<!-- Node4 -->
<g id="node4" class="node">
<title>Node4</title>
<ellipse fill="none" stroke="#ff0000" cx="155.2964" cy="-126" rx="40.0939" ry="18"/>
<text text-anchor="middle" x="155.2964" y="-122.3" font-family="Times,serif" font-size="14.00" fill="#000000">चुर्+णिच्</text>
</g>
<!-- Node1&#45;&gt;Node4 -->
<g id="edge3" class="edge">
<title>Node1&#45;&gt;Node4</title>
<path fill="none" stroke="#000000" d="M54.2084,-126C68.8275,-126 87.3294,-126 104.4967,-126"/>
<polygon fill="#000000" stroke="#000000" points="104.9667,-129.5001 114.9667,-126 104.9667,-122.5001 104.9667,-129.5001"/>
</g>
<!-- Node8 -->
<g id="node8" class="node">
<title>Node8</title>
<g id="a_node8"><a xlink:title="चोरी, लूट">
<polygon fill="none" stroke="#0000ff" points="182.2964,-90 128.2964,-90 128.2964,-54 182.2964,-54 182.2964,-90"/>
<text text-anchor="middle" x="155.2964" y="-68.3" font-family="Times,serif" font-size="14.00" fill="#000000">चौर्य</text>
</a>
</g>
</g>
<!-- Node1&#45;&gt;Node8 -->
<g id="edge7" class="edge">
<title>Node1&#45;&gt;Node8</title>
<path fill="none" stroke="#000000" d="M49.8894,-116.3266C56.9759,-113.3341 64.8099,-110.0285 72,-107 87.2691,-100.5686 104.1183,-93.4861 118.6444,-87.3846"/>
<polygon fill="#000000" stroke="#000000" points="120.417,-90.4363 128.2818,-83.3373 117.7066,-83.9824 120.417,-90.4363"/>
<text text-anchor="middle" x="84.5" y="-110.8" font-family="Times,serif" font-size="14.00" fill="#000000">ष्यञ्</text>
</g>
<!-- Node9 -->
<g id="node9" class="node">
<title>Node9</title>
<ellipse fill="none" stroke="#ff0000" cx="155.2964" cy="-18" rx="30.5947" ry="18"/>
<text text-anchor="middle" x="155.2964" y="-14.3" font-family="Times,serif" font-size="14.00" fill="#000000">प्र_चुर्</text>
</g>
<!-- Node1&#45;&gt;Node9 -->
<g id="edge8" class="edge">
<title>Node1&#45;&gt;Node9</title>
<path fill="none" stroke="#000000" d="M41.9416,-110.9136C58.9592,-94.0545 87.9218,-66.3282 115,-45 118.4235,-42.3035 122.1096,-39.5938 125.8121,-36.9865"/>
<polygon fill="#000000" stroke="#000000" points="128.083,-39.674 134.3657,-31.143 124.1342,-33.8941 128.083,-39.674"/>
</g>
<!-- Node5 -->
<g id="node5" class="node">
<title>Node5</title>
<g id="a_node5"><a xlink:title="चोर, लुटेरा, सकलं चोर गतं त्वया गृहीतम्।">
<polygon fill="none" stroke="#0000ff" points="305.5928,-198 251.5928,-198 251.5928,-162 305.5928,-162 305.5928,-198"/>
<text text-anchor="middle" x="278.5928" y="-176.3" font-family="Times,serif" font-size="14.00" fill="#000000">चोर</text>
</a>
</g>
</g>
<!-- Node4&#45;&gt;Node5 -->
<g id="edge4" class="edge">
<title>Node4&#45;&gt;Node5</title>
<path fill="none" stroke="#000000" d="M184.204,-138.6606C201.5389,-146.2528 223.7395,-155.9759 242.2543,-164.0849"/>
<polygon fill="#000000" stroke="#000000" points="240.991,-167.3525 251.5552,-168.1583 243.7993,-160.9405 240.991,-167.3525"/>
<text text-anchor="middle" x="223.5928" y="-162.8" font-family="Times,serif" font-size="14.00" fill="#000000">अच्</text>
</g>
<!-- Node6 -->
<g id="node6" class="node">
<title>Node6</title>
<g id="a_node6"><a xlink:title="चुराया गया, लूटा गया">
<polygon fill="none" stroke="#0000ff" points="305.5928,-144 251.5928,-144 251.5928,-108 305.5928,-108 305.5928,-144"/>
<text text-anchor="middle" x="278.5928" y="-122.3" font-family="Times,serif" font-size="14.00" fill="#000000">चोरित</text>
</a>
</g>
</g>
<!-- Node4&#45;&gt;Node6 -->
<g id="edge5" class="edge">
<title>Node4&#45;&gt;Node6</title>
<path fill="none" stroke="#000000" d="M195.6683,-126C210.362,-126 226.8938,-126 241.3079,-126"/>
<polygon fill="#000000" stroke="#000000" points="241.3728,-129.5001 251.3727,-126 241.3727,-122.5001 241.3728,-129.5001"/>
<text text-anchor="middle" x="223.5928" y="-129.8" font-family="Times,serif" font-size="14.00" fill="#000000">क्त</text>
</g>
<!-- Node7 -->
<g id="node7" class="node">
<title>Node7</title>
<g id="a_node7"><a xlink:title="चोर, लुटेरा, सकलं चोर गतं त्वया गृहीतम्।">
<polygon fill="none" stroke="#0000ff" points="305.5928,-90 251.5928,-90 251.5928,-54 305.5928,-54 305.5928,-90"/>
<text text-anchor="middle" x="278.5928" y="-68.3" font-family="Times,serif" font-size="14.00" fill="#000000">चौर</text>
</a>
</g>
</g>
<!-- Node4&#45;&gt;Node7 -->
<g id="edge6" class="edge">
<title>Node4&#45;&gt;Node7</title>
<path fill="none" stroke="#000000" d="M184.204,-113.3394C201.5389,-105.7472 223.7395,-96.0241 242.2543,-87.9151"/>
<polygon fill="#000000" stroke="#000000" points="243.7993,-91.0595 251.5552,-83.8417 240.991,-84.6475 243.7993,-91.0595"/>
<text text-anchor="middle" x="223.5928" y="-102.8" font-family="Times,serif" font-size="14.00" fill="#000000">अच्</text>
</g>
<!-- Node10 -->
<g id="node10" class="node">
<title>Node10</title>
<g id="a_node10"><a xlink:title="अति, यथेष्ट, बहुल, पुष्कल, नित्यव्यया प्रचुरनित्यधनागमा च">
<polygon fill="none" stroke="#0000ff" points="305.5928,-36 251.5928,-36 251.5928,0 305.5928,0 305.5928,-36"/>
<text text-anchor="middle" x="278.5928" y="-14.3" font-family="Times,serif" font-size="14.00" fill="#000000">प्रचुर</text>
</a>
</g>
</g>
<!-- Node9&#45;&gt;Node10 -->
<g id="edge9" class="edge">
<title>Node9&#45;&gt;Node10</title>
<path fill="none" stroke="#000000" d="M186.0913,-18C202.7484,-18 223.4545,-18 241.0507,-18"/>
<polygon fill="#000000" stroke="#000000" points="241.5409,-21.5001 251.5409,-18 241.5408,-14.5001 241.5409,-21.5001"/>
<text text-anchor="middle" x="223.5928" y="-21.8" font-family="Times,serif" font-size="14.00" fill="#000000">क</text>
</g>
</g>
</svg>
