<?xml version="1.0" encoding="UTF-8" standalone="no"?>
<!DOCTYPE svg PUBLIC "-//W3C//DTD SVG 1.1//EN"
 "http://www.w3.org/Graphics/SVG/1.1/DTD/svg11.dtd">
<!-- Generated by graphviz version 2.40.1 (20161225.0304)
 -->
<!-- Title: G Pages: 1 -->
<svg width="327pt" height="152pt"
 viewBox="0.00 0.00 326.59 152.00" xmlns="http://www.w3.org/2000/svg" xmlns:xlink="http://www.w3.org/1999/xlink">
<g id="graph0" class="graph" transform="scale(1 1) rotate(0) translate(4 148)">
<title>G</title>
<polygon fill="#ffffff" stroke="transparent" points="-4,4 -4,-148 322.5928,-148 322.5928,4 -4,4"/>
<!-- Node1 -->
<g id="node1" class="node">
<title>Node1</title>
<ellipse fill="none" stroke="#ff0000" cx="27" cy="-72" rx="27" ry="18"/>
<text text-anchor="middle" x="27" y="-68.3" font-family="Times,serif" font-size="14.00" fill="#000000">ढौक्</text>
</g>
<!-- Node2 -->
<g id="node2" class="node">
<title>Node2</title>
<ellipse fill="none" stroke="#ff0000" cx="154.2964" cy="-126" rx="38.9931" ry="18"/>
<text text-anchor="middle" x="154.2964" y="-122.3" font-family="Times,serif" font-size="14.00" fill="#000000">आ_ढौक्</text>
</g>
<!-- Node1&#45;&gt;Node2 -->
<g id="edge1" class="edge">
<title>Node1&#45;&gt;Node2</title>
<path fill="none" stroke="#000000" d="M50.0524,-81.779C68.3191,-89.5278 94.2421,-100.5245 115.667,-109.6131"/>
<polygon fill="#000000" stroke="#000000" points="114.5779,-112.953 125.1507,-113.6362 117.3116,-106.5088 114.5779,-112.953"/>
</g>
<!-- Node4 -->
<g id="node4" class="node">
<title>Node4</title>
<ellipse fill="none" stroke="#ff0000" cx="154.2964" cy="-72" rx="40.0939" ry="18"/>
<text text-anchor="middle" x="154.2964" y="-68.3" font-family="Times,serif" font-size="14.00" fill="#000000">उप_ढौक्</text>
</g>
<!-- Node1&#45;&gt;Node4 -->
<g id="edge3" class="edge">
<title>Node1&#45;&gt;Node4</title>
<path fill="none" stroke="#000000" d="M54.3083,-72C68.7069,-72 86.8368,-72 103.6917,-72"/>
<polygon fill="#000000" stroke="#000000" points="103.9767,-75.5001 113.9767,-72 103.9767,-68.5001 103.9767,-75.5001"/>
</g>
<!-- Node6 -->
<g id="node6" class="node">
<title>Node6</title>
<g id="a_node6"><a xlink:title="भेंट">
<polygon fill="none" stroke="#0000ff" points="181.2964,-36 127.2964,-36 127.2964,0 181.2964,0 181.2964,-36"/>
<text text-anchor="middle" x="154.2964" y="-14.3" font-family="Times,serif" font-size="14.00" fill="#000000">ढौकन</text>
</a>
</g>
</g>
<!-- Node1&#45;&gt;Node6 -->
<g id="edge5" class="edge">
<title>Node1&#45;&gt;Node6</title>
<path fill="none" stroke="#000000" d="M50.0524,-62.221C68.9007,-54.2255 95.9005,-42.7719 117.6993,-33.5248"/>
<polygon fill="#000000" stroke="#000000" points="119.1527,-36.7102 126.9918,-29.5828 116.419,-30.266 119.1527,-36.7102"/>
<text text-anchor="middle" x="84" y="-55.8" font-family="Times,serif" font-size="14.00" fill="#000000">ल्युट्</text>
</g>
<!-- Node3 -->
<g id="node3" class="node">
<title>Node3</title>
<g id="a_node3"><a xlink:title="अनाज की माप, चौथाई द्रोण, अष्टमुष्टिर्भवेत् कुंचिः कुंचयोऽष्टौ तु पुष्कलम्, पुष्कलानि च चत्वारि आढकः परिकीर्तितः॥">
<polygon fill="none" stroke="#0000ff" points="313.5928,-144 259.5928,-144 259.5928,-108 313.5928,-108 313.5928,-144"/>
<text text-anchor="middle" x="286.5928" y="-122.3" font-family="Times,serif" font-size="14.00" fill="#000000">आढक</text>
</a>
</g>
</g>
<!-- Node2&#45;&gt;Node3 -->
<g id="edge2" class="edge">
<title>Node2&#45;&gt;Node3</title>
<path fill="none" stroke="#000000" d="M193.6315,-126C211.1665,-126 231.7275,-126 249.048,-126"/>
<polygon fill="#000000" stroke="#000000" points="249.3577,-129.5001 259.3576,-126 249.3576,-122.5001 249.3577,-129.5001"/>
<text text-anchor="middle" x="224.5928" y="-129.8" font-family="Times,serif" font-size="14.00" fill="#000000">घञ्</text>
</g>
<!-- Node5 -->
<g id="node5" class="node">
<title>Node5</title>
<g id="a_node5"><a xlink:title="सम्मानपूर्ण भेंट या उपहार, नजराना">
<polygon fill="none" stroke="#0000ff" points="318.5928,-90 254.5928,-90 254.5928,-54 318.5928,-54 318.5928,-90"/>
<text text-anchor="middle" x="286.5928" y="-68.3" font-family="Times,serif" font-size="14.00" fill="#000000">उपढौनक</text>
</a>
</g>
</g>
<!-- Node4&#45;&gt;Node5 -->
<g id="edge4" class="edge">
<title>Node4&#45;&gt;Node5</title>
<path fill="none" stroke="#000000" d="M194.7086,-72C210.4168,-72 228.4189,-72 244.302,-72"/>
<polygon fill="#000000" stroke="#000000" points="244.3881,-75.5001 254.3881,-72 244.3881,-68.5001 244.3881,-75.5001"/>
<text text-anchor="middle" x="224.5928" y="-75.8" font-family="Times,serif" font-size="14.00" fill="#000000">ल्युट्</text>
</g>
</g>
</svg>
