<?xml version="1.0" encoding="UTF-8" standalone="no"?>
<!DOCTYPE svg PUBLIC "-//W3C//DTD SVG 1.1//EN"
 "http://www.w3.org/Graphics/SVG/1.1/DTD/svg11.dtd">
<!-- Generated by graphviz version 2.40.1 (20161225.0304)
 -->
<!-- Title: G Pages: 1 -->
<svg width="443pt" height="1259pt"
 viewBox="0.00 0.00 443.09 1259.00" xmlns="http://www.w3.org/2000/svg" xmlns:xlink="http://www.w3.org/1999/xlink">
<g id="graph0" class="graph" transform="scale(1 1) rotate(0) translate(4 1255)">
<title>G</title>
<polygon fill="#ffffff" stroke="transparent" points="-4,4 -4,-1255 439.0865,-1255 439.0865,4 -4,4"/>
<!-- Node1 -->
<g id="node1" class="node">
<title>Node1</title>
<ellipse fill="none" stroke="#ff0000" cx="27" cy="-585" rx="27" ry="18"/>
<text text-anchor="middle" x="27" y="-581.3" font-family="Times,serif" font-size="14.00" fill="#000000">गै</text>
</g>
<!-- Node2 -->
<g id="node2" class="node">
<title>Node2</title>
<ellipse fill="none" stroke="#ff0000" cx="152.8472" cy="-1179" rx="27" ry="18"/>
<text text-anchor="middle" x="152.8472" y="-1175.3" font-family="Times,serif" font-size="14.00" fill="#000000">प्र_गै</text>
</g>
<!-- Node1&#45;&gt;Node2 -->
<g id="edge1" class="edge">
<title>Node1&#45;&gt;Node2</title>
<path fill="none" stroke="#000000" d="M27.5259,-603.0337C29.9201,-678.9388 41.0409,-972.5165 72,-1059 85.2711,-1096.0725 112.6013,-1132.7357 131.7981,-1155.5917"/>
<polygon fill="#000000" stroke="#000000" points="129.2952,-1158.0497 138.4615,-1163.3629 134.6092,-1153.4932 129.2952,-1158.0497"/>
</g>
<!-- Node5 -->
<g id="node5" class="node">
<title>Node5</title>
<ellipse fill="none" stroke="#ff0000" cx="152.8472" cy="-1098" rx="30.5947" ry="18"/>
<text text-anchor="middle" x="152.8472" y="-1094.3" font-family="Times,serif" font-size="14.00" fill="#000000">उद्_गै</text>
</g>
<!-- Node1&#45;&gt;Node5 -->
<g id="edge4" class="edge">
<title>Node1&#45;&gt;Node5</title>
<path fill="none" stroke="#000000" d="M28.0505,-603.0124C32.7199,-681.2828 52.2339,-989.6478 72,-1028 83.1834,-1049.6991 104.2061,-1067.5742 122.0109,-1079.8292"/>
<polygon fill="#000000" stroke="#000000" points="120.1608,-1082.8017 130.4357,-1085.3859 124.015,-1076.9582 120.1608,-1082.8017"/>
</g>
<!-- Node9 -->
<g id="node9" class="node">
<title>Node9</title>
<g id="a_node9"><a xlink:title="गन्धर्व#गायन्#जो जाता है, जाने वाला, गतिमान होने वाला, ठहरने वाला, शेष रहने वाला, मैथुन करने वाला, केवल समास के अन्त में प्रयुक्त">
<polygon fill="none" stroke="#0000ff" points="179.8472,-1062 125.8472,-1062 125.8472,-1026 179.8472,-1026 179.8472,-1062"/>
<text text-anchor="middle" x="152.8472" y="-1040.3" font-family="Times,serif" font-size="14.00" fill="#000000">ग</text>
</a>
</g>
</g>
<!-- Node1&#45;&gt;Node9 -->
<g id="edge8" class="edge">
<title>Node1&#45;&gt;Node9</title>
<path fill="none" stroke="#000000" d="M27.4231,-603.3015C29.2475,-671.0672 37.9674,-907.1941 72,-973 82.2303,-992.7814 100.4659,-1009.5366 117.0319,-1021.7941"/>
<polygon fill="#000000" stroke="#000000" points="115.3081,-1024.8621 125.4915,-1027.7862 119.3542,-1019.1499 115.3081,-1024.8621"/>
<text text-anchor="middle" x="87.5" y="-1012.8" font-family="Times,serif" font-size="14.00" fill="#000000">क</text>
</g>
<!-- Node10 -->
<g id="node10" class="node">
<title>Node10</title>
<g id="a_node10"><a xlink:title="गाना, श्लोक">
<polygon fill="none" stroke="#0000ff" points="179.8472,-1008 125.8472,-1008 125.8472,-972 179.8472,-972 179.8472,-1008"/>
<text text-anchor="middle" x="152.8472" y="-986.3" font-family="Times,serif" font-size="14.00" fill="#000000">गा</text>
</a>
</g>
</g>
<!-- Node1&#45;&gt;Node10 -->
<g id="edge9" class="edge">
<title>Node1&#45;&gt;Node10</title>
<path fill="none" stroke="#000000" d="M27.8092,-603.2489C30.7855,-664.6872 42.5235,-863.2707 72,-919 82.4125,-938.6862 100.6605,-955.4348 117.1879,-967.7125"/>
<polygon fill="#000000" stroke="#000000" points="115.4468,-970.7693 125.6232,-973.7173 119.5063,-965.0666 115.4468,-970.7693"/>
<text text-anchor="middle" x="87.5" y="-957.8" font-family="Times,serif" font-size="14.00" fill="#000000">डा</text>
</g>
<!-- Node11 -->
<g id="node11" class="node">
<title>Node11</title>
<g id="a_node11"><a xlink:title="गीत">
<polygon fill="none" stroke="#0000ff" points="179.8472,-954 125.8472,-954 125.8472,-918 179.8472,-918 179.8472,-954"/>
<text text-anchor="middle" x="152.8472" y="-932.3" font-family="Times,serif" font-size="14.00" fill="#000000">गातु</text>
</a>
</g>
</g>
<!-- Node1&#45;&gt;Node11 -->
<g id="edge10" class="edge">
<title>Node1&#45;&gt;Node11</title>
<path fill="none" stroke="#000000" d="M28.3469,-603.2966C32.6189,-657.9914 47.0734,-819.2887 72,-865 82.6619,-884.5522 100.9271,-901.2917 117.4015,-913.5978"/>
<polygon fill="#000000" stroke="#000000" points="115.6369,-916.6391 125.8036,-919.6204 119.715,-910.9498 115.6369,-916.6391"/>
<text text-anchor="middle" x="87.5" y="-903.8" font-family="Times,serif" font-size="14.00" fill="#000000">तुन्</text>
</g>
<!-- Node12 -->
<g id="node12" class="node">
<title>Node12</title>
<g id="a_node12"><a xlink:title="हाथी के अगले पैर का ऊपरी भाग">
<polygon fill="none" stroke="#0000ff" points="179.8472,-900 125.8472,-900 125.8472,-864 179.8472,-864 179.8472,-900"/>
<text text-anchor="middle" x="152.8472" y="-878.3" font-family="Times,serif" font-size="14.00" fill="#000000">गात्र</text>
</a>
</g>
</g>
<!-- Node1&#45;&gt;Node12 -->
<g id="edge11" class="edge">
<title>Node1&#45;&gt;Node12</title>
<path fill="none" stroke="#000000" d="M29.1339,-602.9633C34.918,-649.7383 51.8255,-774.1569 72,-810 82.9123,-829.3873 101.0176,-846.239 117.3314,-858.7551"/>
<polygon fill="#000000" stroke="#000000" points="115.5271,-861.7735 125.6515,-864.8956 119.6838,-856.1413 115.5271,-861.7735"/>
<text text-anchor="middle" x="87.5" y="-849.8" font-family="Times,serif" font-size="14.00" fill="#000000">त्रन्</text>
</g>
<!-- Node13 -->
<g id="node13" class="node">
<title>Node13</title>
<g id="a_node13"><a xlink:title="संगीतवेत्ता, गवैया">
<polygon fill="none" stroke="#0000ff" points="179.8472,-846 125.8472,-846 125.8472,-810 179.8472,-810 179.8472,-846"/>
<text text-anchor="middle" x="152.8472" y="-824.3" font-family="Times,serif" font-size="14.00" fill="#000000">गाथक</text>
</a>
</g>
</g>
<!-- Node1&#45;&gt;Node13 -->
<g id="edge12" class="edge">
<title>Node1&#45;&gt;Node13</title>
<path fill="none" stroke="#000000" d="M28.5051,-603.1384C31.8889,-635.6698 42.2822,-705.1828 72,-755 83.3852,-774.0856 101.3541,-791.0316 117.4631,-803.7806"/>
<polygon fill="#000000" stroke="#000000" points="115.602,-806.7634 125.6729,-810.0541 119.8523,-801.2013 115.602,-806.7634"/>
<text text-anchor="middle" x="87.5" y="-794.8" font-family="Times,serif" font-size="14.00" fill="#000000">थकन्</text>
</g>
<!-- Node14 -->
<g id="node14" class="node">
<title>Node14</title>
<g id="a_node14"><a xlink:title="गीत, भजन">
<polygon fill="none" stroke="#0000ff" points="179.8472,-792 125.8472,-792 125.8472,-756 179.8472,-756 179.8472,-792"/>
<text text-anchor="middle" x="152.8472" y="-770.3" font-family="Times,serif" font-size="14.00" fill="#000000">गाथ</text>
</a>
</g>
</g>
<!-- Node1&#45;&gt;Node14 -->
<g id="edge13" class="edge">
<title>Node1&#45;&gt;Node14</title>
<path fill="none" stroke="#000000" d="M30.8492,-602.8229C36.7441,-627.281 49.7313,-671.8672 72,-704 84.2476,-721.6727 101.9598,-737.6816 117.6858,-749.9151"/>
<polygon fill="#000000" stroke="#000000" points="115.5991,-752.7251 125.689,-755.9571 119.8169,-747.1385 115.5991,-752.7251"/>
<text text-anchor="middle" x="87.5" y="-739.8" font-family="Times,serif" font-size="14.00" fill="#000000">थन्</text>
</g>
<!-- Node15 -->
<g id="node15" class="node">
<title>Node15</title>
<g id="a_node15"><a xlink:title="संगीतवेत्ता, गवैया">
<polygon fill="none" stroke="#0000ff" points="179.8472,-738 125.8472,-738 125.8472,-702 179.8472,-702 179.8472,-738"/>
<text text-anchor="middle" x="152.8472" y="-716.3" font-family="Times,serif" font-size="14.00" fill="#000000">गाथिक</text>
</a>
</g>
</g>
<!-- Node1&#45;&gt;Node15 -->
<g id="edge14" class="edge">
<title>Node1&#45;&gt;Node15</title>
<path fill="none" stroke="#000000" d="M35.4992,-602.1527C43.6022,-617.51 56.7989,-640.1406 72,-657 85.2478,-671.6931 102.2375,-685.5065 117.2202,-696.433"/>
<polygon fill="#000000" stroke="#000000" points="115.5902,-699.5689 125.7664,-702.5176 119.6501,-693.8665 115.5902,-699.5689"/>
<text text-anchor="middle" x="87.5" y="-688.8" font-family="Times,serif" font-size="14.00" fill="#000000">थकन्</text>
</g>
<!-- Node16 -->
<g id="node16" class="node">
<title>Node16</title>
<g id="a_node16"><a xlink:title="गाना, भजन, गीत">
<polygon fill="none" stroke="#0000ff" points="179.8472,-684 125.8472,-684 125.8472,-648 179.8472,-648 179.8472,-684"/>
<text text-anchor="middle" x="152.8472" y="-662.3" font-family="Times,serif" font-size="14.00" fill="#000000">गान</text>
</a>
</g>
</g>
<!-- Node1&#45;&gt;Node16 -->
<g id="edge15" class="edge">
<title>Node1&#45;&gt;Node16</title>
<path fill="none" stroke="#000000" d="M44.5969,-599.0728C52.7645,-605.4008 62.7049,-612.8191 72,-619 86.3062,-628.513 102.5993,-638.1922 116.7922,-646.2747"/>
<polygon fill="#000000" stroke="#000000" points="115.3437,-649.4759 125.7737,-651.3376 118.7812,-643.378 115.3437,-649.4759"/>
<text text-anchor="middle" x="87.5" y="-641.8" font-family="Times,serif" font-size="14.00" fill="#000000">ल्युट्</text>
</g>
<!-- Node17 -->
<g id="node17" class="node">
<title>Node17</title>
<g id="a_node17"><a xlink:title="गवैया, संगीतवेत्ता, न नटा न विटा न गायकाः">
<polygon fill="none" stroke="#0000ff" points="179.8472,-630 125.8472,-630 125.8472,-594 179.8472,-594 179.8472,-630"/>
<text text-anchor="middle" x="152.8472" y="-608.3" font-family="Times,serif" font-size="14.00" fill="#000000">गायक</text>
</a>
</g>
</g>
<!-- Node1&#45;&gt;Node17 -->
<g id="edge16" class="edge">
<title>Node1&#45;&gt;Node17</title>
<path fill="none" stroke="#000000" d="M52.7707,-590.529C70.9799,-594.4357 95.6561,-599.7299 115.9487,-604.0836"/>
<polygon fill="#000000" stroke="#000000" points="115.2946,-607.5228 125.8063,-606.1985 116.7631,-600.6786 115.2946,-607.5228"/>
<text text-anchor="middle" x="87.5" y="-603.8" font-family="Times,serif" font-size="14.00" fill="#000000">ण्वुल्</text>
</g>
<!-- Node18 -->
<g id="node18" class="node">
<title>Node18</title>
<g id="a_node18"><a xlink:title="गाना, भजन, गीत">
<polygon fill="none" stroke="#0000ff" points="179.8472,-576 125.8472,-576 125.8472,-540 179.8472,-540 179.8472,-576"/>
<text text-anchor="middle" x="152.8472" y="-554.3" font-family="Times,serif" font-size="14.00" fill="#000000">गाय</text>
</a>
</g>
</g>
<!-- Node1&#45;&gt;Node18 -->
<g id="edge17" class="edge">
<title>Node1&#45;&gt;Node18</title>
<path fill="none" stroke="#000000" d="M52.7707,-579.471C70.9799,-575.5643 95.6561,-570.2701 115.9487,-565.9164"/>
<polygon fill="#000000" stroke="#000000" points="116.7631,-569.3214 125.8063,-563.8015 115.2946,-562.4772 116.7631,-569.3214"/>
<text text-anchor="middle" x="87.5" y="-577.8" font-family="Times,serif" font-size="14.00" fill="#000000">घञ्</text>
</g>
<!-- Node19 -->
<g id="node19" class="node">
<title>Node19</title>
<g id="a_node19"><a xlink:title="#गाना, गीत">
<polygon fill="none" stroke="#0000ff" points="179.8472,-522 125.8472,-522 125.8472,-486 179.8472,-486 179.8472,-522"/>
<text text-anchor="middle" x="152.8472" y="-500.3" font-family="Times,serif" font-size="14.00" fill="#000000">गायन</text>
</a>
</g>
</g>
<!-- Node1&#45;&gt;Node19 -->
<g id="edge18" class="edge">
<title>Node1&#45;&gt;Node19</title>
<path fill="none" stroke="#000000" d="M44.0906,-570.7702C52.3203,-564.164 62.4547,-556.3796 72,-550 86.2077,-540.5043 102.4837,-530.999 116.6905,-523.1145"/>
<polygon fill="#000000" stroke="#000000" points="118.5986,-526.06 125.685,-518.1838 115.2337,-519.9218 118.5986,-526.06"/>
<text text-anchor="middle" x="87.5" y="-553.8" font-family="Times,serif" font-size="14.00" fill="#000000">ल्युट्</text>
</g>
<!-- Node20 -->
<g id="node20" class="node">
<title>Node20</title>
<g id="a_node20"><a xlink:title="गवैया">
<polygon fill="none" stroke="#0000ff" points="179.8472,-468 125.8472,-468 125.8472,-432 179.8472,-432 179.8472,-468"/>
<text text-anchor="middle" x="152.8472" y="-446.3" font-family="Times,serif" font-size="14.00" fill="#000000">गिष्णु</text>
</a>
</g>
</g>
<!-- Node1&#45;&gt;Node20 -->
<g id="edge19" class="edge">
<title>Node1&#45;&gt;Node20</title>
<path fill="none" stroke="#000000" d="M35.4204,-567.5722C43.4703,-551.9768 56.6335,-529.0162 72,-512 85.1802,-497.4049 102.161,-483.7929 117.1553,-473.0631"/>
<polygon fill="#000000" stroke="#000000" points="119.5128,-475.6859 125.7104,-467.0929 115.5068,-469.9455 119.5128,-475.6859"/>
<text text-anchor="middle" x="87.5" y="-515.8" font-family="Times,serif" font-size="14.00" fill="#000000">इष्णुच्</text>
</g>
<!-- Node21 -->
<g id="node21" class="node">
<title>Node21</title>
<g id="a_node21"><a xlink:title="गाना, भजन, तवास्मि गीतरागेण हारिणा प्रसभं हृतः#घोषणा किया हुआ, बतलाया हुआ, कहा हुआगीतश्चायमर्थोङ्गिरसा">
<polygon fill="none" stroke="#0000ff" points="179.8472,-414 125.8472,-414 125.8472,-378 179.8472,-378 179.8472,-414"/>
<text text-anchor="middle" x="152.8472" y="-392.3" font-family="Times,serif" font-size="14.00" fill="#000000">गीत</text>
</a>
</g>
</g>
<!-- Node1&#45;&gt;Node21 -->
<g id="edge20" class="edge">
<title>Node1&#45;&gt;Node21</title>
<path fill="none" stroke="#000000" d="M30.6836,-566.8081C36.3863,-541.8584 49.1516,-496.4298 72,-464 84.1215,-446.7954 101.6202,-431.3518 117.24,-419.5473"/>
<polygon fill="#000000" stroke="#000000" points="119.673,-422.1041 125.6783,-413.3755 115.5406,-416.454 119.673,-422.1041"/>
<text text-anchor="middle" x="87.5" y="-467.8" font-family="Times,serif" font-size="14.00" fill="#000000">क्त</text>
</g>
<!-- Node22 -->
<g id="node22" class="node">
<title>Node22</title>
<g id="a_node22"><a xlink:title="संस्कृत पद्य में लिखे गये कुछ धार्मिकग्रंथ जो विशेष रुप से धार्मिक और आध्यात्मिक सिद्धांतों का प्रतिपादन करता हैं, गीता सुगीता कर्तव्या किमन्यैः शास्त्रविस्तरैः या स्वयं पद्यनाभस्य मुखपद्याद्विनिसृता &#45;श्रीधर स्वामी द्वारा उद्धृत, बहुधा गुरु&#45;शिष्य संवाद के रुप में &#160;उदा* शिवगीता, रामगीता, भगवद गीता तक ही सीमित प्रतीत होता है">
<polygon fill="none" stroke="#0000ff" points="179.8472,-360 125.8472,-360 125.8472,-324 179.8472,-324 179.8472,-360"/>
<text text-anchor="middle" x="152.8472" y="-338.3" font-family="Times,serif" font-size="14.00" fill="#000000">गीता</text>
</a>
</g>
</g>
<!-- Node1&#45;&gt;Node22 -->
<g id="edge21" class="edge">
<title>Node1&#45;&gt;Node22</title>
<path fill="none" stroke="#000000" d="M28.3189,-566.8423C31.4184,-533.9351 41.3913,-463.2052 72,-413 83.4273,-394.2567 101.3996,-377.7601 117.5001,-365.3972"/>
<polygon fill="#000000" stroke="#000000" points="119.7527,-368.0842 125.7043,-359.319 115.5857,-362.4596 119.7527,-368.0842"/>
<text text-anchor="middle" x="87.5" y="-416.8" font-family="Times,serif" font-size="14.00" fill="#000000">क्त</text>
</g>
<!-- Node23 -->
<g id="node23" class="node">
<title>Node23</title>
<g id="a_node23"><a xlink:title="गीत, गाना, अहोरागपरिवाहिणी गीतिः">
<polygon fill="none" stroke="#0000ff" points="179.8472,-306 125.8472,-306 125.8472,-270 179.8472,-270 179.8472,-306"/>
<text text-anchor="middle" x="152.8472" y="-284.3" font-family="Times,serif" font-size="14.00" fill="#000000">गीति</text>
</a>
</g>
</g>
<!-- Node1&#45;&gt;Node23 -->
<g id="edge22" class="edge">
<title>Node1&#45;&gt;Node23</title>
<path fill="none" stroke="#000000" d="M29.1034,-566.9444C34.8129,-519.931 51.5535,-394.8911 72,-359 82.9449,-339.7877 101.0527,-323.1629 117.3597,-310.8402"/>
<polygon fill="#000000" stroke="#000000" points="119.6432,-313.5074 125.6755,-304.7975 115.5283,-307.8445 119.6432,-313.5074"/>
<text text-anchor="middle" x="87.5" y="-362.8" font-family="Times,serif" font-size="14.00" fill="#000000">क्तिन्</text>
</g>
<!-- Node24 -->
<g id="node24" class="node">
<title>Node24</title>
<g id="a_node24"><a xlink:title="गायक, गाने वाला, गेयोमाणवकः साम्नाम्#गीत, गायन गाने की कला, गेये केन वुनीती वाम्">
<polygon fill="none" stroke="#0000ff" points="179.8472,-252 125.8472,-252 125.8472,-216 179.8472,-216 179.8472,-252"/>
<text text-anchor="middle" x="152.8472" y="-230.3" font-family="Times,serif" font-size="14.00" fill="#000000">गेय</text>
</a>
</g>
</g>
<!-- Node1&#45;&gt;Node24 -->
<g id="edge23" class="edge">
<title>Node1&#45;&gt;Node24</title>
<path fill="none" stroke="#000000" d="M28.3469,-566.7034C32.6189,-512.0086 47.0734,-350.7113 72,-305 82.6619,-285.4478 100.9271,-268.7083 117.4015,-256.4022"/>
<polygon fill="#000000" stroke="#000000" points="119.715,-259.0502 125.8036,-250.3796 115.6369,-253.3609 119.715,-259.0502"/>
<text text-anchor="middle" x="87.5" y="-308.8" font-family="Times,serif" font-size="14.00" fill="#000000">यत्</text>
</g>
<!-- Node25 -->
<g id="node25" class="node">
<title>Node25</title>
<g id="a_node25"><a xlink:title="गवैया">
<polygon fill="none" stroke="#0000ff" points="179.8472,-198 125.8472,-198 125.8472,-162 179.8472,-162 179.8472,-198"/>
<text text-anchor="middle" x="152.8472" y="-176.3" font-family="Times,serif" font-size="14.00" fill="#000000">गेष्णु</text>
</a>
</g>
</g>
<!-- Node1&#45;&gt;Node25 -->
<g id="edge24" class="edge">
<title>Node1&#45;&gt;Node25</title>
<path fill="none" stroke="#000000" d="M27.8092,-566.7511C30.7855,-505.3128 42.5235,-306.7293 72,-251 82.4125,-231.3138 100.6605,-214.5652 117.1879,-202.2875"/>
<polygon fill="#000000" stroke="#000000" points="119.5063,-204.9334 125.6232,-196.2827 115.4468,-199.2307 119.5063,-204.9334"/>
<text text-anchor="middle" x="87.5" y="-254.8" font-family="Times,serif" font-size="14.00" fill="#000000">इष्णुच्</text>
</g>
<!-- Node27 -->
<g id="node27" class="node">
<title>Node27</title>
<polygon fill="none" stroke="#0000ff" points="179.8472,-144 125.8472,-144 125.8472,-108 179.8472,-108 179.8472,-144"/>
<text text-anchor="middle" x="152.8472" y="-122.3" font-family="Times,serif" font-size="14.00" fill="#000000">प्रगे</text>
</g>
<!-- Node1&#45;&gt;Node27 -->
<g id="edge26" class="edge">
<title>Node1&#45;&gt;Node27</title>
<path fill="none" stroke="#000000" d="M27.8439,-566.6493C31.0801,-500.8412 43.9487,-277.1516 72,-212 82.4007,-187.8435 102.6933,-166.2927 120.3451,-150.8066"/>
<polygon fill="#000000" stroke="#000000" points="122.8575,-153.2653 128.2246,-144.1305 118.3324,-147.9245 122.8575,-153.2653"/>
</g>
<!-- Node28 -->
<g id="node28" class="node">
<title>Node28</title>
<ellipse fill="none" stroke="#ff0000" cx="152.8472" cy="-72" rx="27.0966" ry="18"/>
<text text-anchor="middle" x="152.8472" y="-68.3" font-family="Times,serif" font-size="14.00" fill="#000000">वि_गै</text>
</g>
<!-- Node1&#45;&gt;Node28 -->
<g id="edge27" class="edge">
<title>Node1&#45;&gt;Node28</title>
<path fill="none" stroke="#000000" d="M27.657,-566.8267C30.4111,-496.0698 42.2923,-239.2021 72,-164 83.3473,-135.2754 107.8447,-109.5296 126.9169,-92.6294"/>
<polygon fill="#000000" stroke="#000000" points="129.3958,-95.1141 134.7044,-85.9451 124.8367,-89.8024 129.3958,-95.1141"/>
</g>
<!-- Node31 -->
<g id="node31" class="node">
<title>Node31</title>
<ellipse fill="none" stroke="#ff0000" cx="152.8472" cy="-18" rx="31.6951" ry="18"/>
<text text-anchor="middle" x="152.8472" y="-14.3" font-family="Times,serif" font-size="14.00" fill="#000000">सम्_गै</text>
</g>
<!-- Node1&#45;&gt;Node31 -->
<g id="edge30" class="edge">
<title>Node1&#45;&gt;Node31</title>
<path fill="none" stroke="#000000" d="M27.4684,-566.7601C29.6156,-490.6675 39.8354,-198.5223 72,-113 83.056,-83.6033 107.53,-57.0263 126.672,-39.5079"/>
<polygon fill="#000000" stroke="#000000" points="129.0752,-42.0546 134.2313,-32.7991 124.4287,-36.8191 129.0752,-42.0546"/>
</g>
<!-- Node3 -->
<g id="node3" class="node">
<title>Node3</title>
<ellipse fill="none" stroke="#ff0000" cx="288.8904" cy="-1233" rx="44.393" ry="18"/>
<text text-anchor="middle" x="288.8904" y="-1229.3" font-family="Times,serif" font-size="14.00" fill="#000000">अति_प्र_गै</text>
</g>
<!-- Node2&#45;&gt;Node3 -->
<g id="edge2" class="edge">
<title>Node2&#45;&gt;Node3</title>
<path fill="none" stroke="#000000" d="M176.2338,-1188.2829C195.8644,-1196.075 224.3749,-1207.3917 247.8021,-1216.6907"/>
<polygon fill="#000000" stroke="#000000" points="246.5735,-1219.9686 257.1593,-1220.4049 249.156,-1213.4624 246.5735,-1219.9686"/>
</g>
<!-- Node26 -->
<g id="node26" class="node">
<title>Node26</title>
<g id="a_node26"><a xlink:title="उत्तम गाने वाला">
<polygon fill="none" stroke="#0000ff" points="315.8904,-1197 261.8904,-1197 261.8904,-1161 315.8904,-1161 315.8904,-1197"/>
<text text-anchor="middle" x="288.8904" y="-1175.3" font-family="Times,serif" font-size="14.00" fill="#000000">प्रगातृ</text>
</a>
</g>
</g>
<!-- Node2&#45;&gt;Node26 -->
<g id="edge25" class="edge">
<title>Node2&#45;&gt;Node26</title>
<path fill="none" stroke="#000000" d="M180.0506,-1179C200.5341,-1179 228.854,-1179 251.4713,-1179"/>
<polygon fill="#000000" stroke="#000000" points="251.7342,-1182.5001 261.7342,-1179 251.7341,-1175.5001 251.7342,-1182.5001"/>
<text text-anchor="middle" x="214.6943" y="-1182.8" font-family="Times,serif" font-size="14.00" fill="#000000">तृच्</text>
</g>
<!-- Node4 -->
<g id="node4" class="node">
<title>Node4</title>
<g id="a_node4"><a xlink:title="प्रभात में बहुत तड़के, प्रभात काल में &#160;&#45;">
<polygon fill="none" stroke="#0000ff" points="435.0865,-1251 380.0865,-1251 380.0865,-1215 435.0865,-1215 435.0865,-1251"/>
<text text-anchor="middle" x="407.5865" y="-1229.3" font-family="Times,serif" font-size="14.00" fill="#000000">अतिप्रगे</text>
</a>
</g>
</g>
<!-- Node3&#45;&gt;Node4 -->
<g id="edge3" class="edge">
<title>Node3&#45;&gt;Node4</title>
<path fill="none" stroke="#000000" d="M333.0885,-1233C345.0989,-1233 357.9964,-1233 369.6284,-1233"/>
<polygon fill="#000000" stroke="#000000" points="369.8934,-1236.5001 379.8933,-1233 369.8933,-1229.5001 369.8934,-1236.5001"/>
<text text-anchor="middle" x="356.5865" y="-1236.8" font-family="Times,serif" font-size="14.00" fill="#000000">के</text>
</g>
<!-- Node6 -->
<g id="node6" class="node">
<title>Node6</title>
<g id="a_node6"><a xlink:title="यज्ञ के मुख्य चार ऋत्विजों में से एक जो सामवेद के मंत्रों का गान करता है">
<polygon fill="none" stroke="#0000ff" points="315.8904,-1143 261.8904,-1143 261.8904,-1107 315.8904,-1107 315.8904,-1143"/>
<text text-anchor="middle" x="288.8904" y="-1121.3" font-family="Times,serif" font-size="14.00" fill="#000000">उद्गातृ</text>
</a>
</g>
</g>
<!-- Node5&#45;&gt;Node6 -->
<g id="edge5" class="edge">
<title>Node5&#45;&gt;Node6</title>
<path fill="none" stroke="#000000" d="M182.0319,-1103.7922C202.3867,-1107.8319 229.719,-1113.2565 251.6452,-1117.6081"/>
<polygon fill="#000000" stroke="#000000" points="251.1166,-1121.0714 261.6067,-1119.5851 252.4794,-1114.2053 251.1166,-1121.0714"/>
<text text-anchor="middle" x="214.6943" y="-1115.8" font-family="Times,serif" font-size="14.00" fill="#000000">तृच्</text>
</g>
<!-- Node7 -->
<g id="node7" class="node">
<title>Node7</title>
<g id="a_node7"><a xlink:title="ऊँचे स्वर से गान करना">
<polygon fill="none" stroke="#0000ff" points="315.8904,-1089 261.8904,-1089 261.8904,-1053 315.8904,-1053 315.8904,-1089"/>
<text text-anchor="middle" x="288.8904" y="-1067.3" font-family="Times,serif" font-size="14.00" fill="#000000">उद्गीति</text>
</a>
</g>
</g>
<!-- Node5&#45;&gt;Node7 -->
<g id="edge6" class="edge">
<title>Node5&#45;&gt;Node7</title>
<path fill="none" stroke="#000000" d="M182.0319,-1092.2078C202.3867,-1088.1681 229.719,-1082.7435 251.6452,-1078.3919"/>
<polygon fill="#000000" stroke="#000000" points="252.4794,-1081.7947 261.6067,-1076.4149 251.1166,-1074.9286 252.4794,-1081.7947"/>
<text text-anchor="middle" x="214.6943" y="-1090.8" font-family="Times,serif" font-size="14.00" fill="#000000">क्तिन्</text>
</g>
<!-- Node8 -->
<g id="node8" class="node">
<title>Node8</title>
<g id="a_node8"><a xlink:title="सामवेद के मन्त्रों का गायन, उद्गाता का पद">
<polygon fill="none" stroke="#0000ff" points="315.8904,-1035 261.8904,-1035 261.8904,-999 315.8904,-999 315.8904,-1035"/>
<text text-anchor="middle" x="288.8904" y="-1013.3" font-family="Times,serif" font-size="14.00" fill="#000000">उद्गीथ</text>
</a>
</g>
</g>
<!-- Node5&#45;&gt;Node8 -->
<g id="edge7" class="edge">
<title>Node5&#45;&gt;Node8</title>
<path fill="none" stroke="#000000" d="M172.4399,-1083.9733C181.5075,-1077.6545 192.5066,-1070.2308 202.6943,-1064 218.8607,-1054.1127 237.2428,-1043.9486 252.8669,-1035.6131"/>
<polygon fill="#000000" stroke="#000000" points="254.5089,-1038.704 261.7098,-1030.9324 251.2341,-1032.5173 254.5089,-1038.704"/>
<text text-anchor="middle" x="214.6943" y="-1067.8" font-family="Times,serif" font-size="14.00" fill="#000000">थक्</text>
</g>
<!-- Node29 -->
<g id="node29" class="node">
<title>Node29</title>
<g id="a_node29"><a xlink:title="निन्दित, बुराभला कहा गया, डांटा फटकारा गया">
<polygon fill="none" stroke="#0000ff" points="315.8904,-144 261.8904,-144 261.8904,-108 315.8904,-108 315.8904,-144"/>
<text text-anchor="middle" x="288.8904" y="-122.3" font-family="Times,serif" font-size="14.00" fill="#000000">विगीत</text>
</a>
</g>
</g>
<!-- Node28&#45;&gt;Node29 -->
<g id="edge28" class="edge">
<title>Node28&#45;&gt;Node29</title>
<path fill="none" stroke="#000000" d="M176.5441,-81.4061C197.4197,-89.6923 228.1606,-101.8943 252.2112,-111.4408"/>
<polygon fill="#000000" stroke="#000000" points="251.1419,-114.782 261.7278,-115.2183 253.7245,-108.2758 251.1419,-114.782"/>
<text text-anchor="middle" x="214.6943" y="-104.8" font-family="Times,serif" font-size="14.00" fill="#000000">क्त</text>
</g>
<!-- Node30 -->
<g id="node30" class="node">
<title>Node30</title>
<g id="a_node30"><a xlink:title="निन्दा, बुराभला कहना, सिड़कना">
<polygon fill="none" stroke="#0000ff" points="315.8904,-90 261.8904,-90 261.8904,-54 315.8904,-54 315.8904,-90"/>
<text text-anchor="middle" x="288.8904" y="-68.3" font-family="Times,serif" font-size="14.00" fill="#000000">विगीति</text>
</a>
</g>
</g>
<!-- Node28&#45;&gt;Node30 -->
<g id="edge29" class="edge">
<title>Node28&#45;&gt;Node30</title>
<path fill="none" stroke="#000000" d="M180.3776,-72C200.8875,-72 229.1196,-72 251.6456,-72"/>
<polygon fill="#000000" stroke="#000000" points="251.8653,-75.5001 261.8653,-72 251.8652,-68.5001 251.8653,-75.5001"/>
<text text-anchor="middle" x="214.6943" y="-75.8" font-family="Times,serif" font-size="14.00" fill="#000000">क्तिन्</text>
</g>
<!-- Node32 -->
<g id="node32" class="node">
<title>Node32</title>
<g id="a_node32"><a xlink:title="मिलकर गाया हुआ, सहगान, सम्मिलित कण्ठों से गाया हुआ#सामूहिक गान, बहुत से कण्ठों से मिलकर गाया जाने वाला गान, जगुः सुकण्ठयो गन्धर्व्यः सङ्गीतं सहभर्तृकाः">
<polygon fill="none" stroke="#0000ff" points="315.8904,-36 261.8904,-36 261.8904,0 315.8904,0 315.8904,-36"/>
<text text-anchor="middle" x="288.8904" y="-14.3" font-family="Times,serif" font-size="14.00" fill="#000000">सङ्गीत</text>
</a>
</g>
</g>
<!-- Node31&#45;&gt;Node32 -->
<g id="edge31" class="edge">
<title>Node31&#45;&gt;Node32</title>
<path fill="none" stroke="#000000" d="M184.7433,-18C204.7644,-18 230.6676,-18 251.6319,-18"/>
<polygon fill="#000000" stroke="#000000" points="251.7826,-21.5001 261.7826,-18 251.7825,-14.5001 251.7826,-21.5001"/>
<text text-anchor="middle" x="214.6943" y="-21.8" font-family="Times,serif" font-size="14.00" fill="#000000">क्त</text>
</g>
</g>
</svg>
