<?xml version="1.0" encoding="UTF-8" standalone="no"?>
<!DOCTYPE svg PUBLIC "-//W3C//DTD SVG 1.1//EN"
 "http://www.w3.org/Graphics/SVG/1.1/DTD/svg11.dtd">
<!-- Generated by graphviz version 2.40.1 (20161225.0304)
 -->
<!-- Title: G Pages: 1 -->
<svg width="303pt" height="98pt"
 viewBox="0.00 0.00 303.39 98.00" xmlns="http://www.w3.org/2000/svg" xmlns:xlink="http://www.w3.org/1999/xlink">
<g id="graph0" class="graph" transform="scale(1 1) rotate(0) translate(4 94)">
<title>G</title>
<polygon fill="#ffffff" stroke="transparent" points="-4,4 -4,-94 299.3933,-94 299.3933,4 -4,4"/>
<!-- Node1 -->
<g id="node1" class="node">
<title>Node1</title>
<ellipse fill="none" stroke="#ff0000" cx="27" cy="-45" rx="27" ry="18"/>
<text text-anchor="middle" x="27" y="-41.3" font-family="Times,serif" font-size="14.00" fill="#000000">गर्व</text>
</g>
<!-- Node2 -->
<g id="node2" class="node">
<title>Node2</title>
<g id="a_node2"><a xlink:title="घमंड, अहंकार, मा कुरु धनजनयौवनगर्वं हरति निमेषात्कालः सर्वम्">
<polygon fill="none" stroke="#0000ff" points="174.6967,-90 120.6967,-90 120.6967,-54 174.6967,-54 174.6967,-90"/>
<text text-anchor="middle" x="147.6967" y="-68.3" font-family="Times,serif" font-size="14.00" fill="#000000">गर्व</text>
</a>
</g>
</g>
<!-- Node1&#45;&gt;Node2 -->
<g id="edge1" class="edge">
<title>Node1&#45;&gt;Node2</title>
<path fill="none" stroke="#000000" d="M52.8925,-50.7922C69.7243,-54.5575 91.9341,-59.5258 110.6255,-63.7071"/>
<polygon fill="#000000" stroke="#000000" points="110.0683,-67.1689 120.5912,-65.9365 111.5965,-60.3378 110.0683,-67.1689"/>
<text text-anchor="middle" x="82" y="-62.8" font-family="Times,serif" font-size="14.00" fill="#000000">घञ्</text>
</g>
<!-- Node3 -->
<g id="node3" class="node">
<title>Node3</title>
<ellipse fill="none" stroke="#ff0000" cx="147.6967" cy="-18" rx="37.8943" ry="18"/>
<text text-anchor="middle" x="147.6967" y="-14.3" font-family="Times,serif" font-size="14.00" fill="#000000">गर्व+अट्</text>
</g>
<!-- Node1&#45;&gt;Node3 -->
<g id="edge2" class="edge">
<title>Node1&#45;&gt;Node3</title>
<path fill="none" stroke="#000000" d="M52.8925,-39.2078C67.4623,-35.9485 86.0618,-31.7878 102.9208,-28.0164"/>
<polygon fill="#000000" stroke="#000000" points="104.1467,-31.3288 113.1414,-25.7301 102.6185,-24.4976 104.1467,-31.3288"/>
</g>
<!-- Node4 -->
<g id="node4" class="node">
<title>Node4</title>
<g id="a_node4"><a xlink:title="चौकीदार, द्वारपाल">
<polygon fill="none" stroke="#0000ff" points="295.3933,-36 241.3933,-36 241.3933,0 295.3933,0 295.3933,-36"/>
<text text-anchor="middle" x="268.3933" y="-14.3" font-family="Times,serif" font-size="14.00" fill="#000000">गर्वाट</text>
</a>
</g>
</g>
<!-- Node3&#45;&gt;Node4 -->
<g id="edge3" class="edge">
<title>Node3&#45;&gt;Node4</title>
<path fill="none" stroke="#000000" d="M185.5547,-18C200.13,-18 216.7477,-18 231.2546,-18"/>
<polygon fill="#000000" stroke="#000000" points="231.3853,-21.5001 241.3853,-18 231.3853,-14.5001 231.3853,-21.5001"/>
<text text-anchor="middle" x="213.3933" y="-21.8" font-family="Times,serif" font-size="14.00" fill="#000000">अच्</text>
</g>
</g>
</svg>
