<?xml version="1.0" encoding="UTF-8" standalone="no"?>
<!DOCTYPE svg PUBLIC "-//W3C//DTD SVG 1.1//EN"
 "http://www.w3.org/Graphics/SVG/1.1/DTD/svg11.dtd">
<!-- Generated by graphviz version 2.40.1 (20161225.0304)
 -->
<!-- Title: G Pages: 1 -->
<svg width="522pt" height="314pt"
 viewBox="0.00 0.00 522.18 314.00" xmlns="http://www.w3.org/2000/svg" xmlns:xlink="http://www.w3.org/1999/xlink">
<g id="graph0" class="graph" transform="scale(1 1) rotate(0) translate(4 310)">
<title>G</title>
<polygon fill="#ffffff" stroke="transparent" points="-4,4 -4,-310 518.1788,-310 518.1788,4 -4,4"/>
<!-- Node1 -->
<g id="node1" class="node">
<title>Node1</title>
<ellipse fill="none" stroke="#ff0000" cx="27" cy="-126" rx="27" ry="18"/>
<text text-anchor="middle" x="27" y="-122.3" font-family="Times,serif" font-size="14.00" fill="#000000">घ्रा</text>
</g>
<!-- Node2 -->
<g id="node2" class="node">
<title>Node2</title>
<ellipse fill="none" stroke="#ff0000" cx="152.3466" cy="-234" rx="38.1938" ry="18"/>
<text text-anchor="middle" x="152.3466" y="-230.3" font-family="Times,serif" font-size="14.00" fill="#000000">अभि_घ्रा</text>
</g>
<!-- Node1&#45;&gt;Node2 -->
<g id="edge1" class="edge">
<title>Node1&#45;&gt;Node2</title>
<path fill="none" stroke="#000000" d="M42.14,-141.2962C59.0589,-158.0991 87.5567,-185.5468 114,-207 116.5292,-209.0519 119.2042,-211.1217 121.9177,-213.1539"/>
<polygon fill="#000000" stroke="#000000" points="119.9207,-216.0292 130.0664,-219.0812 124.0384,-210.3684 119.9207,-216.0292"/>
</g>
<!-- Node5 -->
<g id="node5" class="node">
<title>Node5</title>
<ellipse fill="none" stroke="#ff0000" cx="152.3466" cy="-180" rx="32.4942" ry="18"/>
<text text-anchor="middle" x="152.3466" y="-176.3" font-family="Times,serif" font-size="14.00" fill="#000000">आ_घ्रा</text>
</g>
<!-- Node1&#45;&gt;Node5 -->
<g id="edge4" class="edge">
<title>Node1&#45;&gt;Node5</title>
<path fill="none" stroke="#000000" d="M49.6993,-135.779C68.5047,-143.8804 95.5508,-155.5321 117.1602,-164.8415"/>
<polygon fill="#000000" stroke="#000000" points="115.7833,-168.0593 126.3521,-168.8014 118.5529,-161.6305 115.7833,-168.0593"/>
</g>
<!-- Node7 -->
<g id="node7" class="node">
<title>Node7</title>
<g id="a_node7"><a xlink:title="सूंघने की क्रिया, घ्राणेन सूकरो हन्ति।#सूंघा">
<polygon fill="none" stroke="#0000ff" points="179.3466,-144 125.3466,-144 125.3466,-108 179.3466,-108 179.3466,-144"/>
<text text-anchor="middle" x="152.3466" y="-122.3" font-family="Times,serif" font-size="14.00" fill="#000000">घ्राण</text>
</a>
</g>
</g>
<!-- Node1&#45;&gt;Node7 -->
<g id="edge6" class="edge">
<title>Node1&#45;&gt;Node7</title>
<path fill="none" stroke="#000000" d="M54.1983,-126C72.0202,-126 95.5484,-126 115.1008,-126"/>
<polygon fill="#000000" stroke="#000000" points="115.2014,-129.5001 125.2013,-126 115.2013,-122.5001 115.2014,-129.5001"/>
<text text-anchor="middle" x="84" y="-129.8" font-family="Times,serif" font-size="14.00" fill="#000000">क्त</text>
</g>
<!-- Node8 -->
<g id="node8" class="node">
<title>Node8</title>
<g id="a_node8"><a xlink:title="सुंघने की क्रिया, घ्रातिरघ्रेयमद्ययोः&#45;">
<polygon fill="none" stroke="#0000ff" points="179.3466,-90 125.3466,-90 125.3466,-54 179.3466,-54 179.3466,-90"/>
<text text-anchor="middle" x="152.3466" y="-68.3" font-family="Times,serif" font-size="14.00" fill="#000000">घ्राति</text>
</a>
</g>
</g>
<!-- Node1&#45;&gt;Node8 -->
<g id="edge7" class="edge">
<title>Node1&#45;&gt;Node8</title>
<path fill="none" stroke="#000000" d="M49.6993,-116.221C68.0533,-108.314 94.2571,-97.0253 115.5948,-87.8329"/>
<polygon fill="#000000" stroke="#000000" points="117.2114,-90.9475 125.0106,-83.7765 114.4418,-84.5187 117.2114,-90.9475"/>
<text text-anchor="middle" x="84" y="-109.8" font-family="Times,serif" font-size="14.00" fill="#000000">क्तिन</text>
</g>
<!-- Node9 -->
<g id="node9" class="node">
<title>Node9</title>
<g id="a_node9"><a xlink:title="सूँघने वाला">
<polygon fill="none" stroke="#0000ff" points="179.3466,-36 125.3466,-36 125.3466,0 179.3466,0 179.3466,-36"/>
<text text-anchor="middle" x="152.3466" y="-14.3" font-family="Times,serif" font-size="14.00" fill="#000000">जिघ्र</text>
</a>
</g>
</g>
<!-- Node1&#45;&gt;Node9 -->
<g id="edge8" class="edge">
<title>Node1&#45;&gt;Node9</title>
<path fill="none" stroke="#000000" d="M41.1188,-110.2774C49.7576,-100.9085 61.193,-88.9439 72,-79 89.6733,-62.7382 94.8373,-59.477 114,-45 115.2181,-44.0797 116.4635,-43.1495 117.7256,-42.2155"/>
<polygon fill="#000000" stroke="#000000" points="120.1544,-44.7772 126.1866,-36.0672 116.0394,-39.1144 120.1544,-44.7772"/>
<text text-anchor="middle" x="84" y="-82.8" font-family="Times,serif" font-size="14.00" fill="#000000">श</text>
</g>
<!-- Node3 -->
<g id="node3" class="node">
<title>Node3</title>
<g id="a_node3"><a xlink:title="सिर सूँघना, स्नेह सूचक चिह्न">
<polygon fill="none" stroke="#0000ff" points="362.936,-306 300.936,-306 300.936,-270 362.936,-270 362.936,-306"/>
<text text-anchor="middle" x="331.936" y="-284.3" font-family="Times,serif" font-size="14.00" fill="#000000">अभिघ्राण</text>
</a>
</g>
</g>
<!-- Node2&#45;&gt;Node3 -->
<g id="edge2" class="edge">
<title>Node2&#45;&gt;Node3</title>
<path fill="none" stroke="#000000" d="M183.2587,-244.7241C191.4976,-247.5 200.4112,-250.4293 208.6932,-253 236.0165,-261.481 266.9954,-270.2753 291.0588,-276.927"/>
<polygon fill="#000000" stroke="#000000" points="290.3472,-280.3612 300.9174,-279.6394 292.2042,-273.612 290.3472,-280.3612"/>
<text text-anchor="middle" x="220.6932" y="-263.8" font-family="Times,serif" font-size="14.00" fill="#000000">ल्युट्</text>
</g>
<!-- Node4 -->
<g id="node4" class="node">
<title>Node4</title>
<g id="a_node4"><a xlink:title="नाक से सिर का स्पर्श करना, स्नेह सूचक चिह्न">
<polygon fill="none" stroke="#0000ff" points="367.936,-252 295.936,-252 295.936,-216 367.936,-216 367.936,-252"/>
<text text-anchor="middle" x="331.936" y="-230.3" font-family="Times,serif" font-size="14.00" fill="#000000">अभिजिघ्रण</text>
</a>
</g>
</g>
<!-- Node2&#45;&gt;Node4 -->
<g id="edge3" class="edge">
<title>Node2&#45;&gt;Node4</title>
<path fill="none" stroke="#000000" d="M190.873,-234C218.7159,-234 256.4486,-234 285.8834,-234"/>
<polygon fill="#000000" stroke="#000000" points="285.919,-237.5001 295.919,-234 285.9189,-230.5001 285.919,-237.5001"/>
<text text-anchor="middle" x="220.6932" y="-237.8" font-family="Times,serif" font-size="14.00" fill="#000000">ल्युट्</text>
</g>
<!-- Node6 -->
<g id="node6" class="node">
<title>Node6</title>
<g id="a_node6"><a xlink:title="सूंघना">
<polygon fill="none" stroke="#0000ff" points="358.936,-198 304.936,-198 304.936,-162 358.936,-162 358.936,-198"/>
<text text-anchor="middle" x="331.936" y="-176.3" font-family="Times,serif" font-size="14.00" fill="#000000">आघ्राण</text>
</a>
</g>
</g>
<!-- Node5&#45;&gt;Node6 -->
<g id="edge5" class="edge">
<title>Node5&#45;&gt;Node6</title>
<path fill="none" stroke="#000000" d="M184.8689,-180C215.7455,-180 262.1281,-180 294.5237,-180"/>
<polygon fill="#000000" stroke="#000000" points="294.9312,-183.5001 304.9312,-180 294.9312,-176.5001 294.9312,-183.5001"/>
<text text-anchor="middle" x="220.6932" y="-183.8" font-family="Times,serif" font-size="14.00" fill="#000000">ल्युट्</text>
</g>
<!-- Node10 -->
<g id="node10" class="node">
<title>Node10</title>
<ellipse fill="none" stroke="#ff0000" cx="331.936" cy="-126" rx="81.4863" ry="18"/>
<text text-anchor="middle" x="331.936" y="-122.3" font-family="Times,serif" font-size="14.00" fill="#000000">व्याजिघ्रति&#45;वि_आ_घ्रा</text>
</g>
<!-- Node5&#45;&gt;Node10 -->
<g id="edge9" class="edge">
<title>Node5&#45;&gt;Node10</title>
<path fill="none" stroke="#000000" d="M181.2007,-171.324C206.0731,-163.8452 242.7567,-152.815 273.7072,-143.5086"/>
<polygon fill="#000000" stroke="#000000" points="274.9638,-146.7856 283.5324,-140.5543 272.9481,-140.0821 274.9638,-146.7856"/>
</g>
<!-- Node11 -->
<g id="node11" class="node">
<title>Node11</title>
<g id="a_node11"><a xlink:title="बाघ, चीता">
<polygon fill="none" stroke="#0000ff" points="514.1788,-144 460.1788,-144 460.1788,-108 514.1788,-108 514.1788,-144"/>
<text text-anchor="middle" x="487.1788" y="-122.3" font-family="Times,serif" font-size="14.00" fill="#000000">व्याघ्र</text>
</a>
</g>
</g>
<!-- Node10&#45;&gt;Node11 -->
<g id="edge10" class="edge">
<title>Node10&#45;&gt;Node11</title>
<path fill="none" stroke="#000000" d="M413.1947,-126C425.9814,-126 438.6362,-126 449.7671,-126"/>
<polygon fill="#000000" stroke="#000000" points="449.9266,-129.5001 459.9265,-126 449.9265,-122.5001 449.9266,-129.5001"/>
<text text-anchor="middle" x="436.6788" y="-129.8" font-family="Times,serif" font-size="14.00" fill="#000000">क</text>
</g>
</g>
</svg>
