<?xml version="1.0" encoding="UTF-8" standalone="no"?>
<!DOCTYPE svg PUBLIC "-//W3C//DTD SVG 1.1//EN"
 "http://www.w3.org/Graphics/SVG/1.1/DTD/svg11.dtd">
<!-- Generated by graphviz version 2.36.0 (20140111.2315)
 -->
<!-- Title: G Pages: 1 -->
<svg width="344pt" height="476pt"
 viewBox="0.00 0.00 344.00 476.00" xmlns="http://www.w3.org/2000/svg" xmlns:xlink="http://www.w3.org/1999/xlink">
<g id="graph0" class="graph" transform="scale(1 1) rotate(0) translate(4 472)">
<title>G</title>
<polygon fill="white" stroke="none" points="-4,4 -4,-472 340,-472 340,4 -4,4"/>
<!-- Node1 -->
<g id="node1" class="node"><title>Node1</title>
<ellipse fill="none" stroke="red" cx="27" cy="-234" rx="27" ry="18"/>
<text text-anchor="middle" x="27" y="-230.3" font-family="Times,serif" font-size="14.00">हल्</text>
</g>
<!-- Node2 -->
<g id="node2" class="node"><title>Node2</title>
<ellipse fill="none" stroke="red" cx="172" cy="-450" rx="53.8905" ry="18"/>
<text text-anchor="middle" x="172" y="-446.3" font-family="Times,serif" font-size="14.00">कोल&#45;आ_हल्</text>
</g>
<!-- Node1&#45;&gt;Node2 -->
<g id="edge1" class="edge"><title>Node1&#45;&gt;Node2</title>
<path fill="none" stroke="black" d="M30.9514,-251.842C36.0927,-279.506 48.4633,-333.753 72,-374 87.0791,-399.785 94.1137,-405.064 118,-423 121.628,-425.724 125.572,-428.309 129.617,-430.721"/>
<polygon fill="black" stroke="black" points="128.112,-433.89 138.548,-435.715 131.528,-427.78 128.112,-433.89"/>
</g>
<!-- Node4 -->
<g id="node4" class="node"><title>Node4</title>
<g id="a_node4"><a xlink:title="हाली, हलवाहा, किसान">
<polygon fill="none" stroke="blue" points="199,-414 145,-414 145,-378 199,-378 199,-414"/>
<text text-anchor="middle" x="172" y="-392.3" font-family="Times,serif" font-size="14.00">हलिन्</text>
</a>
</g>
</g>
<!-- Node1&#45;&gt;Node4 -->
<g id="edge3" class="edge"><title>Node1&#45;&gt;Node4</title>
<path fill="none" stroke="black" d="M34.5795,-251.322C42.0996,-269.965 55.5232,-300.031 72,-323 88.8527,-346.493 94.6084,-352.006 118,-369 123.557,-373.037 129.804,-376.799 136.008,-380.156"/>
<polygon fill="black" stroke="black" points="134.487,-383.31 144.981,-384.771 137.688,-377.085 134.487,-383.31"/>
<text text-anchor="middle" x="86" y="-358.8" font-family="Times,serif" font-size="14.00">इनि</text>
</g>
<!-- Node5 -->
<g id="node5" class="node"><title>Node5</title>
<g id="a_node5"><a xlink:title="बड़ा हल">
<polygon fill="none" stroke="blue" points="199,-360 145,-360 145,-324 199,-324 199,-360"/>
<text text-anchor="middle" x="172" y="-338.3" font-family="Times,serif" font-size="14.00">हलि</text>
</a>
</g>
</g>
<!-- Node1&#45;&gt;Node5 -->
<g id="edge4" class="edge"><title>Node1&#45;&gt;Node5</title>
<path fill="none" stroke="black" d="M40.6304,-249.869C48.9997,-259.908 60.5168,-272.858 72,-283 90.6667,-299.486 96.6324,-302.207 118,-315 123.582,-318.342 129.626,-321.674 135.567,-324.799"/>
<polygon fill="black" stroke="black" points="134.243,-328.054 144.737,-329.511 137.442,-321.827 134.243,-328.054"/>
<text text-anchor="middle" x="86" y="-307.8" font-family="Times,serif" font-size="14.00">इन्</text>
</g>
<!-- Node6 -->
<g id="node6" class="node"><title>Node6</title>
<g id="a_node6"><a xlink:title="अठारह उपरूपकों में से एक एक प्रकार का एकांकी नाटक जिसमें प्रधानतः गायन और नृत्य होता है, तथा इसमें एक पुरूष और सात या आट नर्तकियाँ भाग लेती है &#45; सा* द* ५५५">
<polygon fill="none" stroke="blue" points="199,-306 145,-306 145,-270 199,-270 199,-306"/>
<text text-anchor="middle" x="172" y="-284.3" font-family="Times,serif" font-size="14.00">हल्लीश</text>
</a>
</g>
</g>
<!-- Node1&#45;&gt;Node6 -->
<g id="edge5" class="edge"><title>Node1&#45;&gt;Node6</title>
<path fill="none" stroke="black" d="M49.8118,-243.766C56.8519,-246.824 64.7185,-250.144 72,-253 92.716,-261.124 116.184,-269.458 135.07,-275.955"/>
<polygon fill="black" stroke="black" points="134.172,-279.346 144.766,-279.267 136.435,-272.722 134.172,-279.346"/>
<text text-anchor="middle" x="86" y="-267.8" font-family="Times,serif" font-size="14.00">क्विप</text>
</g>
<!-- Node7 -->
<g id="node7" class="node"><title>Node7</title>
<g id="a_node7"><a xlink:title="अठारह उपरूपकों में से एक एक प्रकार का एकांकी नाटक जिसमें प्रधानतः गायन और नृत्य होता है, तथा इसमें एक पुरूष और सात या आट नर्तकियाँ भाग लेती है &#45; सा* द* ५५५">
<polygon fill="none" stroke="blue" points="199,-252 145,-252 145,-216 199,-216 199,-252"/>
<text text-anchor="middle" x="172" y="-230.3" font-family="Times,serif" font-size="14.00">हल्लीष</text>
</a>
</g>
</g>
<!-- Node1&#45;&gt;Node7 -->
<g id="edge6" class="edge"><title>Node1&#45;&gt;Node7</title>
<path fill="none" stroke="black" d="M54.2284,-234C76.805,-234 109.612,-234 134.707,-234"/>
<polygon fill="black" stroke="black" points="134.938,-237.5 144.938,-234 134.938,-230.5 134.938,-237.5"/>
<text text-anchor="middle" x="86" y="-237.8" font-family="Times,serif" font-size="14.00">क्विप</text>
</g>
<!-- Node8 -->
<g id="node8" class="node"><title>Node8</title>
<polygon fill="none" stroke="blue" points="199,-198 145,-198 145,-162 199,-162 199,-198"/>
<text text-anchor="middle" x="172" y="-176.3" font-family="Times,serif" font-size="14.00">हाला</text>
</g>
<!-- Node1&#45;&gt;Node8 -->
<g id="edge7" class="edge"><title>Node1&#45;&gt;Node8</title>
<path fill="none" stroke="black" d="M49.8118,-224.234C56.8519,-221.176 64.7185,-217.856 72,-215 92.716,-206.876 116.184,-198.542 135.07,-192.045"/>
<polygon fill="black" stroke="black" points="136.435,-195.278 144.766,-188.733 134.172,-188.654 136.435,-195.278"/>
<text text-anchor="middle" x="86" y="-218.8" font-family="Times,serif" font-size="14.00">घञ्</text>
</g>
<!-- Node9 -->
<g id="node9" class="node"><title>Node9</title>
<g id="a_node9"><a xlink:title="एक प्रकार की बड़ी छिपकली">
<polygon fill="none" stroke="blue" points="199,-144 145,-144 145,-108 199,-108 199,-144"/>
<text text-anchor="middle" x="172" y="-122.3" font-family="Times,serif" font-size="14.00">हालिनी</text>
</a>
</g>
</g>
<!-- Node1&#45;&gt;Node9 -->
<g id="edge8" class="edge"><title>Node1&#45;&gt;Node9</title>
<path fill="none" stroke="black" d="M41.1115,-218.094C49.487,-208.354 60.8364,-195.902 72,-186 90.8235,-169.304 96.5066,-166.081 118,-153 123.615,-149.582 129.715,-146.195 135.711,-143.034"/>
<polygon fill="black" stroke="black" points="137.668,-145.964 144.964,-138.282 134.469,-139.737 137.668,-145.964"/>
<text text-anchor="middle" x="86" y="-189.8" font-family="Times,serif" font-size="14.00">णिनि</text>
</g>
<!-- Node10 -->
<g id="node10" class="node"><title>Node10</title>
<g id="a_node10"><a xlink:title="छोटी साली">
<polygon fill="none" stroke="blue" points="199,-90 145,-90 145,-54 199,-54 199,-90"/>
<text text-anchor="middle" x="172" y="-68.3" font-family="Times,serif" font-size="14.00">हाली</text>
</a>
</g>
</g>
<!-- Node1&#45;&gt;Node10 -->
<g id="edge9" class="edge"><title>Node1&#45;&gt;Node10</title>
<path fill="none" stroke="black" d="M34.8042,-216.574C42.4222,-198.15 55.8421,-168.674 72,-146 88.9626,-122.197 94.4455,-116.306 118,-99 123.535,-94.933 129.772,-91.1567 135.972,-87.7945"/>
<polygon fill="black" stroke="black" points="137.653,-90.8661 144.944,-83.1793 134.451,-84.6414 137.653,-90.8661"/>
<text text-anchor="middle" x="86" y="-149.8" font-family="Times,serif" font-size="14.00">इण्</text>
</g>
<!-- Node11 -->
<g id="node11" class="node"><title>Node11</title>
<g id="a_node11"><a xlink:title="दाँत">
<polygon fill="none" stroke="blue" points="199,-36 145,-36 145,-0 199,-0 199,-36"/>
<text text-anchor="middle" x="172" y="-14.3" font-family="Times,serif" font-size="14.00">हालु</text>
</a>
</g>
</g>
<!-- Node1&#45;&gt;Node11 -->
<g id="edge10" class="edge"><title>Node1&#45;&gt;Node11</title>
<path fill="none" stroke="black" d="M31.1145,-215.863C36.4084,-188.299 48.9037,-134.86 72,-95 87.1389,-68.8731 93.945,-63.2527 118,-45 123.472,-40.848 129.678,-37.0308 135.868,-33.6548"/>
<polygon fill="black" stroke="black" points="137.549,-36.7261 144.838,-29.0366 134.345,-30.5025 137.549,-36.7261"/>
<text text-anchor="middle" x="86" y="-98.8" font-family="Times,serif" font-size="14.00">उण्</text>
</g>
<!-- Node3 -->
<g id="node3" class="node"><title>Node3</title>
<polygon fill="none" stroke="blue" points="336,-468 282,-468 282,-432 336,-432 336,-468"/>
<text text-anchor="middle" x="309" y="-446.3" font-family="Times,serif" font-size="14.00">कोविद्</text>
</g>
<!-- Node2&#45;&gt;Node3 -->
<g id="edge2" class="edge"><title>Node2&#45;&gt;Node3</title>
<path fill="none" stroke="black" d="M225.968,-450C241.273,-450 257.624,-450 271.668,-450"/>
<polygon fill="black" stroke="black" points="271.903,-453.5 281.903,-450 271.903,-446.5 271.903,-453.5"/>
<text text-anchor="middle" x="254" y="-453.8" font-family="Times,serif" font-size="14.00">अच्</text>
</g>
</g>
</svg>
