<?xml version="1.0" encoding="UTF-8" standalone="no"?>
<!DOCTYPE svg PUBLIC "-//W3C//DTD SVG 1.1//EN"
 "http://www.w3.org/Graphics/SVG/1.1/DTD/svg11.dtd">
<!-- Generated by graphviz version 2.36.0 (20140111.2315)
 -->
<!-- Title: G Pages: 1 -->
<svg width="180pt" height="314pt"
 viewBox="0.00 0.00 180.00 314.00" xmlns="http://www.w3.org/2000/svg" xmlns:xlink="http://www.w3.org/1999/xlink">
<g id="graph0" class="graph" transform="scale(1 1) rotate(0) translate(4 310)">
<title>G</title>
<polygon fill="white" stroke="none" points="-4,4 -4,-310 176,-310 176,4 -4,4"/>
<!-- Node1 -->
<g id="node1" class="node"><title>Node1</title>
<ellipse fill="none" stroke="red" cx="27" cy="-153" rx="27" ry="18"/>
<text text-anchor="middle" x="27" y="-149.3" font-family="Times,serif" font-size="14.00">हठ्</text>
</g>
<!-- Node2 -->
<g id="node2" class="node"><title>Node2</title>
<g id="a_node2"><a xlink:title="प्रचण्डता, बल">
<polygon fill="none" stroke="blue" points="172,-306 118,-306 118,-270 172,-270 172,-306"/>
<text text-anchor="middle" x="145" y="-284.3" font-family="Times,serif" font-size="14.00">हठ</text>
</a>
</g>
</g>
<!-- Node1&#45;&gt;Node2 -->
<g id="edge1" class="edge"><title>Node1&#45;&gt;Node2</title>
<path fill="none" stroke="black" d="M36.4652,-169.966C44.4924,-185.198 57.462,-207.749 72,-225 83.7002,-238.884 98.5362,-252.398 111.697,-263.326"/>
<polygon fill="black" stroke="black" points="109.664,-266.184 119.631,-269.776 114.08,-260.753 109.664,-266.184"/>
<text text-anchor="middle" x="86" y="-255.8" font-family="Times,serif" font-size="14.00">अच्</text>
</g>
<!-- Node3 -->
<g id="node3" class="node"><title>Node3</title>
<g id="a_node3"><a xlink:title="अत्यंत नीच जाति का पुरूष, भंगी आदि">
<polygon fill="none" stroke="blue" points="172,-252 118,-252 118,-216 172,-216 172,-252"/>
<text text-anchor="middle" x="145" y="-230.3" font-family="Times,serif" font-size="14.00">हडिक</text>
</a>
</g>
</g>
<!-- Node1&#45;&gt;Node3 -->
<g id="edge2" class="edge"><title>Node1&#45;&gt;Node3</title>
<path fill="none" stroke="black" d="M44.818,-167.049C52.8884,-173.616 62.7864,-181.419 72,-188 83.8309,-196.451 97.157,-205.173 109.099,-212.721"/>
<polygon fill="black" stroke="black" points="107.58,-215.9 117.914,-218.24 111.295,-209.967 107.58,-215.9"/>
<text text-anchor="middle" x="86" y="-209.8" font-family="Times,serif" font-size="14.00">इकक्</text>
</g>
<!-- Node4 -->
<g id="node4" class="node"><title>Node4</title>
<g id="a_node4"><a xlink:title="काठ की बेड़ी">
<polygon fill="none" stroke="blue" points="172,-198 118,-198 118,-162 172,-162 172,-198"/>
<text text-anchor="middle" x="145" y="-176.3" font-family="Times,serif" font-size="14.00">हडि</text>
</a>
</g>
</g>
<!-- Node1&#45;&gt;Node4 -->
<g id="edge3" class="edge"><title>Node1&#45;&gt;Node4</title>
<path fill="none" stroke="black" d="M52.6006,-158.726C68.6866,-162.47 89.9721,-167.425 107.954,-171.61"/>
<polygon fill="black" stroke="black" points="107.29,-175.049 117.823,-173.907 108.877,-168.231 107.29,-175.049"/>
<text text-anchor="middle" x="86" y="-172.8" font-family="Times,serif" font-size="14.00">इन्,</text>
</g>
<!-- Node5 -->
<g id="node5" class="node"><title>Node5</title>
<g id="a_node5"><a xlink:title="हड्डी">
<polygon fill="none" stroke="blue" points="172,-144 118,-144 118,-108 172,-108 172,-144"/>
<text text-anchor="middle" x="145" y="-122.3" font-family="Times,serif" font-size="14.00">हड्ड</text>
</a>
</g>
</g>
<!-- Node1&#45;&gt;Node5 -->
<g id="edge4" class="edge"><title>Node1&#45;&gt;Node5</title>
<path fill="none" stroke="black" d="M52.6006,-147.274C68.6866,-143.53 89.9721,-138.575 107.954,-134.39"/>
<polygon fill="black" stroke="black" points="108.877,-137.769 117.823,-132.093 107.29,-130.951 108.877,-137.769"/>
<text text-anchor="middle" x="86" y="-145.8" font-family="Times,serif" font-size="14.00">ड</text>
</g>
<!-- Node6 -->
<g id="node6" class="node"><title>Node6</title>
<g id="a_node6"><a xlink:title="अत्यंत नीच जाति का पुरूष, भंगी आदि">
<polygon fill="none" stroke="blue" points="172,-90 118,-90 118,-54 172,-54 172,-90"/>
<text text-anchor="middle" x="145" y="-68.3" font-family="Times,serif" font-size="14.00">हड्डिक</text>
</a>
</g>
</g>
<!-- Node1&#45;&gt;Node6 -->
<g id="edge5" class="edge"><title>Node1&#45;&gt;Node6</title>
<path fill="none" stroke="black" d="M44.3224,-138.812C52.4481,-131.966 62.5358,-123.788 72,-117 83.7408,-108.58 97.0457,-100.011 108.996,-92.641"/>
<polygon fill="black" stroke="black" points="111.105,-95.4547 117.822,-87.2615 107.461,-89.4774 111.105,-95.4547"/>
<text text-anchor="middle" x="86" y="-120.8" font-family="Times,serif" font-size="14.00">इन्</text>
</g>
<!-- Node7 -->
<g id="node7" class="node"><title>Node7</title>
<g id="a_node7"><a xlink:title="अत्यंत नीच जाति का पुरूष, भंगी आदि">
<polygon fill="none" stroke="blue" points="172,-36 118,-36 118,-0 172,-0 172,-36"/>
<text text-anchor="middle" x="145" y="-14.3" font-family="Times,serif" font-size="14.00">हड्डि</text>
</a>
</g>
</g>
<!-- Node1&#45;&gt;Node7 -->
<g id="edge6" class="edge"><title>Node1&#45;&gt;Node7</title>
<path fill="none" stroke="black" d="M36.1549,-135.793C44.0629,-120.084 57.0366,-96.6869 72,-79 83.1974,-65.7646 97.4401,-53.0483 110.297,-42.6834"/>
<polygon fill="black" stroke="black" points="112.805,-45.1639 118.5,-36.23 108.477,-39.6624 112.805,-45.1639"/>
<text text-anchor="middle" x="86" y="-82.8" font-family="Times,serif" font-size="14.00">इन्</text>
</g>
</g>
</svg>
