<?xml version="1.0" encoding="UTF-8" standalone="no"?>
<!DOCTYPE svg PUBLIC "-//W3C//DTD SVG 1.1//EN"
 "http://www.w3.org/Graphics/SVG/1.1/DTD/svg11.dtd">
<!-- Generated by graphviz version 2.40.1 (20161225.0304)
 -->
<!-- Title: G Pages: 1 -->
<svg width="301pt" height="584pt"
 viewBox="0.00 0.00 300.90 584.00" xmlns="http://www.w3.org/2000/svg" xmlns:xlink="http://www.w3.org/1999/xlink">
<g id="graph0" class="graph" transform="scale(1 1) rotate(0) translate(4 580)">
<title>G</title>
<polygon fill="#ffffff" stroke="transparent" points="-4,4 -4,-580 296.895,-580 296.895,4 -4,4"/>
<!-- Node1 -->
<g id="node1" class="node">
<title>Node1</title>
<ellipse fill="none" stroke="#ff0000" cx="27" cy="-288" rx="27" ry="18"/>
<text text-anchor="middle" x="27" y="-284.3" font-family="Times,serif" font-size="14.00" fill="#000000">हि</text>
</g>
<!-- Node2 -->
<g id="node2" class="node">
<title>Node2</title>
<ellipse fill="none" stroke="#ff0000" cx="146.9475" cy="-558" rx="27.8951" ry="18"/>
<text text-anchor="middle" x="146.9475" y="-554.3" font-family="Times,serif" font-size="14.00" fill="#000000">प्र_हि</text>
</g>
<!-- Node1&#45;&gt;Node2 -->
<g id="edge1" class="edge">
<title>Node1&#45;&gt;Node2</title>
<path fill="none" stroke="#000000" d="M27.6858,-306.1754C29.7705,-342.5986 38.1748,-426.1574 72,-486 83.7189,-506.7328 103.2773,-525.2264 119.4758,-538.2784"/>
<polygon fill="#000000" stroke="#000000" points="117.5408,-541.2077 127.581,-544.5907 121.842,-535.6849 117.5408,-541.2077"/>
</g>
<!-- Node4 -->
<g id="node4" class="node">
<title>Node4</title>
<g id="a_node4"><a xlink:title="जाड़े की मौसम, सर्द ऋतु#ठंडा, शीतल, सर्द, तुषारयुक्त, ओसीला#सर्दी, ठंडक">
<polygon fill="none" stroke="#0000ff" points="173.9475,-522 119.9475,-522 119.9475,-486 173.9475,-486 173.9475,-522"/>
<text text-anchor="middle" x="146.9475" y="-500.3" font-family="Times,serif" font-size="14.00" fill="#000000">हिम</text>
</a>
</g>
</g>
<!-- Node1&#45;&gt;Node4 -->
<g id="edge3" class="edge">
<title>Node1&#45;&gt;Node4</title>
<path fill="none" stroke="#000000" d="M29.6581,-306.0397C34.4872,-334.5576 46.6386,-391.019 72,-432 83.1358,-449.9942 99.7985,-466.6126 114.5869,-479.3391"/>
<polygon fill="#000000" stroke="#000000" points="112.6419,-482.2746 122.5628,-485.993 117.1261,-476.8994 112.6419,-482.2746"/>
<text text-anchor="middle" x="86.5" y="-470.8" font-family="Times,serif" font-size="14.00" fill="#000000">मक्</text>
</g>
<!-- Node5 -->
<g id="node5" class="node">
<title>Node5</title>
<g id="a_node5"><a xlink:title="थकावट, उदासी, खिन्नता तर्क">
<polygon fill="none" stroke="#0000ff" points="173.9475,-468 119.9475,-468 119.9475,-432 173.9475,-432 173.9475,-468"/>
<text text-anchor="middle" x="146.9475" y="-446.3" font-family="Times,serif" font-size="14.00" fill="#000000">ही</text>
</a>
</g>
</g>
<!-- Node1&#45;&gt;Node5 -->
<g id="edge4" class="edge">
<title>Node1&#45;&gt;Node5</title>
<path fill="none" stroke="#000000" d="M33.1222,-305.7542C40.4635,-325.5398 54.0582,-357.9134 72,-382 83.9319,-398.0184 100.0471,-413.2203 114.2768,-425.1718"/>
<polygon fill="#000000" stroke="#000000" points="112.4363,-428.1884 122.3913,-431.8147 116.8705,-422.7719 112.4363,-428.1884"/>
<text text-anchor="middle" x="86.5" y="-416.8" font-family="Times,serif" font-size="14.00" fill="#000000">डी</text>
</g>
<!-- Node6 -->
<g id="node6" class="node">
<title>Node6</title>
<g id="a_node6"><a xlink:title="साधन, उपकरण">
<polygon fill="none" stroke="#0000ff" points="173.9475,-414 119.9475,-414 119.9475,-378 173.9475,-378 173.9475,-414"/>
<text text-anchor="middle" x="146.9475" y="-392.3" font-family="Times,serif" font-size="14.00" fill="#000000">हेतु</text>
</a>
</g>
</g>
<!-- Node1&#45;&gt;Node6 -->
<g id="edge5" class="edge">
<title>Node1&#45;&gt;Node6</title>
<path fill="none" stroke="#000000" d="M40.0238,-304.3676C48.6257,-314.7577 60.4119,-328.226 72,-339 84.4725,-350.5963 99.2056,-362.1941 112.2939,-371.8717"/>
<polygon fill="#000000" stroke="#000000" points="110.4733,-374.8757 120.6169,-377.9347 114.5949,-369.2177 110.4733,-374.8757"/>
<text text-anchor="middle" x="86.5" y="-366.8" font-family="Times,serif" font-size="14.00" fill="#000000">तुन्</text>
</g>
<!-- Node7 -->
<g id="node7" class="node">
<title>Node7</title>
<g id="a_node7"><a xlink:title="छः ऋतुओं में से एक, जाड़े का मौसम (जो मार्गशीर्ष और पौसमास में आता है) नवप्रवालोद्गमसस्यरम्यः प्रफुल्ललोध्रः परिपक्वशालिः। विलीनपद्मः प्रपतत्तुषारो हेमन्तकालः समुपागतः प्रिये">
<polygon fill="none" stroke="#0000ff" points="173.9475,-360 119.9475,-360 119.9475,-324 173.9475,-324 173.9475,-360"/>
<text text-anchor="middle" x="146.9475" y="-338.3" font-family="Times,serif" font-size="14.00" fill="#000000">हेमत</text>
</a>
</g>
</g>
<!-- Node1&#45;&gt;Node7 -->
<g id="edge6" class="edge">
<title>Node1&#45;&gt;Node7</title>
<path fill="none" stroke="#000000" d="M49.5612,-298.157C66.7072,-305.8761 90.6459,-316.6532 110.498,-325.5906"/>
<polygon fill="#000000" stroke="#000000" points="109.3123,-328.895 119.8677,-329.8087 112.186,-322.5121 109.3123,-328.895"/>
<text text-anchor="middle" x="86.5" y="-323.8" font-family="Times,serif" font-size="14.00" fill="#000000">झ</text>
</g>
<!-- Node8 -->
<g id="node8" class="node">
<title>Node8</title>
<g id="a_node8"><a xlink:title="छः ऋतुओं में से एक, जाड़े का मौसम (जो मार्गशीर्ष और पौसमास में आता है) नवप्रवालोद्गमसस्यरम्यः प्रफुल्ललोध्रः परिपक्वशालिः। विलीनपद्मः प्रपतत्तुषारो हेमन्तकालः समुपागतः प्रिये">
<polygon fill="none" stroke="#0000ff" points="173.9475,-306 119.9475,-306 119.9475,-270 173.9475,-270 173.9475,-306"/>
<text text-anchor="middle" x="146.9475" y="-284.3" font-family="Times,serif" font-size="14.00" fill="#000000">हेमन्त</text>
</a>
</g>
</g>
<!-- Node1&#45;&gt;Node8 -->
<g id="edge7" class="edge">
<title>Node1&#45;&gt;Node8</title>
<path fill="none" stroke="#000000" d="M54.2179,-288C70.6275,-288 91.7565,-288 109.7002,-288"/>
<polygon fill="#000000" stroke="#000000" points="109.8373,-291.5001 119.8373,-288 109.8372,-284.5001 109.8373,-291.5001"/>
<text text-anchor="middle" x="86.5" y="-291.8" font-family="Times,serif" font-size="14.00" fill="#000000">झ</text>
</g>
<!-- Node9 -->
<g id="node9" class="node">
<title>Node9</title>
<g id="a_node9"><a xlink:title="सोना">
<polygon fill="none" stroke="#0000ff" points="173.9475,-252 119.9475,-252 119.9475,-216 173.9475,-216 173.9475,-252"/>
<text text-anchor="middle" x="146.9475" y="-230.3" font-family="Times,serif" font-size="14.00" fill="#000000">हेमन्</text>
</a>
</g>
</g>
<!-- Node1&#45;&gt;Node9 -->
<g id="edge8" class="edge">
<title>Node1&#45;&gt;Node9</title>
<path fill="none" stroke="#000000" d="M49.5612,-277.843C66.7072,-270.1239 90.6459,-259.3468 110.498,-250.4094"/>
<polygon fill="#000000" stroke="#000000" points="112.186,-253.4879 119.8677,-246.1913 109.3123,-247.105 112.186,-253.4879"/>
<text text-anchor="middle" x="86.5" y="-271.8" font-family="Times,serif" font-size="14.00" fill="#000000">मनिन्</text>
</g>
<!-- Node10 -->
<g id="node10" class="node">
<title>Node10</title>
<g id="a_node10"><a xlink:title="काले या भूरे रंग का घोड़ा">
<polygon fill="none" stroke="#0000ff" points="173.9475,-198 119.9475,-198 119.9475,-162 173.9475,-162 173.9475,-198"/>
<text text-anchor="middle" x="146.9475" y="-176.3" font-family="Times,serif" font-size="14.00" fill="#000000">हेमम</text>
</a>
</g>
</g>
<!-- Node1&#45;&gt;Node10 -->
<g id="edge9" class="edge">
<title>Node1&#45;&gt;Node10</title>
<path fill="none" stroke="#000000" d="M40.1052,-272.0111C48.7397,-261.8478 60.5315,-248.6475 72,-238 84.6604,-226.2459 99.5436,-214.3766 112.6964,-204.464"/>
<polygon fill="#000000" stroke="#000000" points="115.1126,-207.0289 121.049,-198.2534 110.9358,-201.4116 115.1126,-207.0289"/>
<text text-anchor="middle" x="86.5" y="-241.8" font-family="Times,serif" font-size="14.00" fill="#000000">मन्</text>
</g>
<!-- Node11 -->
<g id="node11" class="node">
<title>Node11</title>
<g id="a_node11"><a xlink:title="सोना">
<polygon fill="none" stroke="#0000ff" points="173.9475,-144 119.9475,-144 119.9475,-108 173.9475,-108 173.9475,-144"/>
<text text-anchor="middle" x="146.9475" y="-122.3" font-family="Times,serif" font-size="14.00" fill="#000000">हेम</text>
</a>
</g>
</g>
<!-- Node1&#45;&gt;Node11 -->
<g id="edge10" class="edge">
<title>Node1&#45;&gt;Node11</title>
<path fill="none" stroke="#000000" d="M33.3992,-270.3285C40.8968,-250.9829 54.5451,-219.5805 72,-196 84.4235,-179.2167 101.194,-163.1194 115.7211,-150.6021"/>
<polygon fill="#000000" stroke="#000000" points="118.1249,-153.1537 123.5191,-144.0348 113.6156,-147.7995 118.1249,-153.1537"/>
<text text-anchor="middle" x="86.5" y="-199.8" font-family="Times,serif" font-size="14.00" fill="#000000">मन्</text>
</g>
<!-- Node12 -->
<g id="node12" class="node">
<title>Node12</title>
<g id="a_node12"><a xlink:title="एक प्रकार का मुकुट या ताज">
<polygon fill="none" stroke="#0000ff" points="173.9475,-90 119.9475,-90 119.9475,-54 173.9475,-54 173.9475,-90"/>
<text text-anchor="middle" x="146.9475" y="-68.3" font-family="Times,serif" font-size="14.00" fill="#000000">हेर</text>
</a>
</g>
</g>
<!-- Node1&#45;&gt;Node12 -->
<g id="edge11" class="edge">
<title>Node1&#45;&gt;Node12</title>
<path fill="none" stroke="#000000" d="M29.8943,-269.8107C34.9862,-241.6265 47.4192,-186.4414 72,-146 83.4035,-127.2384 100.5972,-109.7973 115.6411,-96.5652"/>
<polygon fill="#000000" stroke="#000000" points="117.9424,-99.2026 123.27,-90.0447 113.3942,-93.8814 117.9424,-99.2026"/>
<text text-anchor="middle" x="86.5" y="-149.8" font-family="Times,serif" font-size="14.00" fill="#000000">रन्</text>
</g>
<!-- Node13 -->
<g id="node13" class="node">
<title>Node13</title>
<g id="a_node13"><a xlink:title="भेदिया, गुप्तचर">
<polygon fill="none" stroke="#0000ff" points="173.9475,-36 119.9475,-36 119.9475,0 173.9475,0 173.9475,-36"/>
<text text-anchor="middle" x="146.9475" y="-14.3" font-family="Times,serif" font-size="14.00" fill="#000000">हेरिक</text>
</a>
</g>
</g>
<!-- Node1&#45;&gt;Node13 -->
<g id="edge12" class="edge">
<title>Node1&#45;&gt;Node13</title>
<path fill="none" stroke="#000000" d="M27.8497,-269.7863C30.2236,-233.6853 39.1145,-151.4119 72,-92 82.5571,-72.9272 99.5356,-55.57 114.665,-42.4669"/>
<polygon fill="#000000" stroke="#000000" points="116.947,-45.1211 122.3644,-36.0161 112.4514,-39.7555 116.947,-45.1211"/>
<text text-anchor="middle" x="86.5" y="-95.8" font-family="Times,serif" font-size="14.00" fill="#000000">रक्</text>
</g>
<!-- Node3 -->
<g id="node3" class="node">
<title>Node3</title>
<g id="a_node3"><a xlink:title="कुआँ">
<polygon fill="none" stroke="#0000ff" points="292.895,-576 238.895,-576 238.895,-540 292.895,-540 292.895,-576"/>
<text text-anchor="middle" x="265.895" y="-554.3" font-family="Times,serif" font-size="14.00" fill="#000000">प्रहि</text>
</a>
</g>
</g>
<!-- Node2&#45;&gt;Node3 -->
<g id="edge2" class="edge">
<title>Node2&#45;&gt;Node3</title>
<path fill="none" stroke="#000000" d="M175.1364,-558C191.0662,-558 211.1821,-558 228.4253,-558"/>
<polygon fill="#000000" stroke="#000000" points="228.7273,-561.5001 238.7272,-558 228.7272,-554.5001 228.7273,-561.5001"/>
<text text-anchor="middle" x="206.895" y="-561.8" font-family="Times,serif" font-size="14.00" fill="#000000">क्विप्</text>
</g>
</g>
</svg>
