<?xml version="1.0" encoding="UTF-8" standalone="no"?>
<!DOCTYPE svg PUBLIC "-//W3C//DTD SVG 1.1//EN"
 "http://www.w3.org/Graphics/SVG/1.1/DTD/svg11.dtd">
<!-- Generated by graphviz version 2.40.1 (20161225.0304)
 -->
<!-- Title: G Pages: 1 -->
<svg width="186pt" height="422pt"
 viewBox="0.00 0.00 186.00 422.00" xmlns="http://www.w3.org/2000/svg" xmlns:xlink="http://www.w3.org/1999/xlink">
<g id="graph0" class="graph" transform="scale(1 1) rotate(0) translate(4 418)">
<title>G</title>
<polygon fill="#ffffff" stroke="transparent" points="-4,4 -4,-418 182,-418 182,4 -4,4"/>
<!-- Node1 -->
<g id="node1" class="node">
<title>Node1</title>
<ellipse fill="none" stroke="#ff0000" cx="27" cy="-207" rx="27" ry="18"/>
<text text-anchor="middle" x="27" y="-203.3" font-family="Times,serif" font-size="14.00" fill="#000000">ईर्ष्य्</text>
</g>
<!-- Node2 -->
<g id="node2" class="node">
<title>Node2</title>
<g id="a_node2"><a xlink:title="डाह, जलन, दूसरों की सफलता को देखकर जलन पैदा होना">
<polygon fill="none" stroke="#0000ff" points="178,-414 124,-414 124,-378 178,-378 178,-414"/>
<text text-anchor="middle" x="151" y="-392.3" font-family="Times,serif" font-size="14.00" fill="#000000">ईर्षा</text>
</a>
</g>
</g>
<!-- Node1&#45;&gt;Node2 -->
<g id="edge1" class="edge">
<title>Node1&#45;&gt;Node2</title>
<path fill="none" stroke="#000000" d="M30.7366,-225.1548C36.5007,-250.0615 49.3369,-295.4404 72,-328 83.6886,-344.7928 100.462,-360.0162 115.5489,-371.781"/>
<polygon fill="#000000" stroke="#000000" points="113.6251,-374.7142 123.714,-377.9492 117.8445,-369.1288 113.6251,-374.7142"/>
<text text-anchor="middle" x="89" y="-366.8" font-family="Times,serif" font-size="14.00" fill="#000000">घञ्</text>
</g>
<!-- Node3 -->
<g id="node3" class="node">
<title>Node3</title>
<g id="a_node3"><a xlink:title="डाह करने वाला, असहिष्णु">
<polygon fill="none" stroke="#0000ff" points="178,-360 124,-360 124,-324 178,-324 178,-360"/>
<text text-anchor="middle" x="151" y="-338.3" font-family="Times,serif" font-size="14.00" fill="#000000">ईर्षु</text>
</a>
</g>
</g>
<!-- Node1&#45;&gt;Node3 -->
<g id="edge2" class="edge">
<title>Node1&#45;&gt;Node3</title>
<path fill="none" stroke="#000000" d="M35.4659,-224.387C43.5464,-239.9549 56.729,-262.8981 72,-280 84.7165,-294.2411 101.0093,-307.6435 115.4919,-318.3188"/>
<polygon fill="#000000" stroke="#000000" points="113.6078,-321.275 123.7691,-324.2748 117.6964,-315.5931 113.6078,-321.275"/>
<text text-anchor="middle" x="89" y="-312.8" font-family="Times,serif" font-size="14.00" fill="#000000">उ</text>
</g>
<!-- Node4 -->
<g id="node4" class="node">
<title>Node4</title>
<g id="a_node4"><a xlink:title="डाह करने वाला, ईर्ष्यालु">
<polygon fill="none" stroke="#0000ff" points="178,-306 124,-306 124,-270 178,-270 178,-306"/>
<text text-anchor="middle" x="151" y="-284.3" font-family="Times,serif" font-size="14.00" fill="#000000">ईर्ष्य</text>
</a>
</g>
</g>
<!-- Node1&#45;&gt;Node4 -->
<g id="edge3" class="edge">
<title>Node1&#45;&gt;Node4</title>
<path fill="none" stroke="#000000" d="M44.1193,-221.1871C52.3553,-227.7839 62.4867,-235.5728 72,-242 85.5701,-251.168 101.0358,-260.4189 114.6642,-268.1962"/>
<polygon fill="#000000" stroke="#000000" points="113.3302,-271.4621 123.7599,-273.326 116.769,-265.365 113.3302,-271.4621"/>
<text text-anchor="middle" x="89" y="-264.8" font-family="Times,serif" font-size="14.00" fill="#000000">अच्</text>
</g>
<!-- Node5 -->
<g id="node5" class="node">
<title>Node5</title>
<g id="a_node5"><a xlink:title="डाह करने वाला, ईर्ष्यालु">
<polygon fill="none" stroke="#0000ff" points="178,-252 124,-252 124,-216 178,-216 178,-252"/>
<text text-anchor="middle" x="151" y="-230.3" font-family="Times,serif" font-size="14.00" fill="#000000">ईर्ष्यक</text>
</a>
</g>
</g>
<!-- Node1&#45;&gt;Node5 -->
<g id="edge4" class="edge">
<title>Node1&#45;&gt;Node5</title>
<path fill="none" stroke="#000000" d="M52.6929,-212.5944C70.3321,-216.4352 94.0251,-221.5942 113.7313,-225.885"/>
<polygon fill="#000000" stroke="#000000" points="113.104,-229.3304 123.6198,-228.0382 114.5934,-222.4907 113.104,-229.3304"/>
<text text-anchor="middle" x="89" y="-226.8" font-family="Times,serif" font-size="14.00" fill="#000000">ण्वुल्</text>
</g>
<!-- Node6 -->
<g id="node6" class="node">
<title>Node6</title>
<g id="a_node6"><a xlink:title="डाह, जलन, दूसरों की सफलता को देखकर जलन पैदा होना">
<polygon fill="none" stroke="#0000ff" points="178,-198 124,-198 124,-162 178,-162 178,-198"/>
<text text-anchor="middle" x="151" y="-176.3" font-family="Times,serif" font-size="14.00" fill="#000000">ईर्ष्या</text>
</a>
</g>
</g>
<!-- Node1&#45;&gt;Node6 -->
<g id="edge5" class="edge">
<title>Node1&#45;&gt;Node6</title>
<path fill="none" stroke="#000000" d="M52.6929,-201.4056C70.3321,-197.5648 94.0251,-192.4058 113.7313,-188.115"/>
<polygon fill="#000000" stroke="#000000" points="114.5934,-191.5093 123.6198,-185.9618 113.104,-184.6696 114.5934,-191.5093"/>
<text text-anchor="middle" x="89" y="-199.8" font-family="Times,serif" font-size="14.00" fill="#000000">अप्</text>
</g>
<!-- Node7 -->
<g id="node7" class="node">
<title>Node7</title>
<g id="a_node7"><a xlink:title="डाह करने वाला, असहिष्णु">
<polygon fill="none" stroke="#0000ff" points="178,-144 124,-144 124,-108 178,-108 178,-144"/>
<text text-anchor="middle" x="151" y="-122.3" font-family="Times,serif" font-size="14.00" fill="#000000">ईर्ष्यालु</text>
</a>
</g>
</g>
<!-- Node1&#45;&gt;Node7 -->
<g id="edge6" class="edge">
<title>Node1&#45;&gt;Node7</title>
<path fill="none" stroke="#000000" d="M43.6155,-192.6743C51.9074,-185.7962 62.2314,-177.6296 72,-171 85.4769,-161.8538 100.9245,-152.7696 114.5646,-145.1835"/>
<polygon fill="#000000" stroke="#000000" points="116.5874,-148.0659 123.6724,-140.1885 113.2214,-141.9283 116.5874,-148.0659"/>
<text text-anchor="middle" x="89" y="-174.8" font-family="Times,serif" font-size="14.00" fill="#000000">आलुच्</text>
</g>
<!-- Node8 -->
<g id="node8" class="node">
<title>Node8</title>
<g id="a_node8"><a xlink:title="डाह करने वाला, असहिष्णु">
<polygon fill="none" stroke="#0000ff" points="178,-90 124,-90 124,-54 178,-54 178,-90"/>
<text text-anchor="middle" x="151" y="-68.3" font-family="Times,serif" font-size="14.00" fill="#000000">ईर्ष्यु</text>
</a>
</g>
</g>
<!-- Node1&#45;&gt;Node8 -->
<g id="edge7" class="edge">
<title>Node1&#45;&gt;Node8</title>
<path fill="none" stroke="#000000" d="M34.7657,-189.7276C42.6307,-173.4354 55.9105,-148.908 72,-131 84.6239,-116.9493 101.0424,-104.0497 115.639,-93.9193"/>
<polygon fill="#000000" stroke="#000000" points="117.6513,-96.7838 123.9802,-88.287 113.734,-90.9825 117.6513,-96.7838"/>
<text text-anchor="middle" x="89" y="-134.8" font-family="Times,serif" font-size="14.00" fill="#000000">उ</text>
</g>
<!-- Node9 -->
<g id="node9" class="node">
<title>Node9</title>
<g id="a_node9"><a xlink:title="डाह करने वाला, ईर्ष्यालु">
<polygon fill="none" stroke="#0000ff" points="178,-36 124,-36 124,0 178,0 178,-36"/>
<text text-anchor="middle" x="151" y="-14.3" font-family="Times,serif" font-size="14.00" fill="#000000">ईर्ष्यु</text>
</a>
</g>
</g>
<!-- Node1&#45;&gt;Node9 -->
<g id="edge8" class="edge">
<title>Node1&#45;&gt;Node9</title>
<path fill="none" stroke="#000000" d="M30.4346,-188.7519C35.9076,-163.2353 48.4731,-116.2904 72,-83 83.5895,-66.6009 100.3514,-52.0085 115.4562,-40.8258"/>
<polygon fill="#000000" stroke="#000000" points="117.5383,-43.6397 123.634,-34.9741 113.4648,-37.947 117.5383,-43.6397"/>
<text text-anchor="middle" x="89" y="-86.8" font-family="Times,serif" font-size="14.00" fill="#000000">उण्</text>
</g>
</g>
</svg>
