<?xml version="1.0" encoding="UTF-8" standalone="no"?>
<!DOCTYPE svg PUBLIC "-//W3C//DTD SVG 1.1//EN"
 "http://www.w3.org/Graphics/SVG/1.1/DTD/svg11.dtd">
<!-- Generated by graphviz version 2.40.1 (20161225.0304)
 -->
<!-- Title: G Pages: 1 -->
<svg width="285pt" height="98pt"
 viewBox="0.00 0.00 285.39 98.00" xmlns="http://www.w3.org/2000/svg" xmlns:xlink="http://www.w3.org/1999/xlink">
<g id="graph0" class="graph" transform="scale(1 1) rotate(0) translate(4 94)">
<title>G</title>
<polygon fill="#ffffff" stroke="transparent" points="-4,4 -4,-94 281.3933,-94 281.3933,4 -4,4"/>
<!-- Node1 -->
<g id="node1" class="node">
<title>Node1</title>
<ellipse fill="none" stroke="#ff0000" cx="27" cy="-45" rx="27" ry="18"/>
<text text-anchor="middle" x="27" y="-41.3" font-family="Times,serif" font-size="14.00" fill="#000000">ईश्</text>
</g>
<!-- Node2 -->
<g id="node2" class="node">
<title>Node2</title>
<g id="a_node2"><a xlink:title="अपनाने वाला, स्वामी, मालिक, दे* नीचे">
<polygon fill="none" stroke="#0000ff" points="165.6967,-90 111.6967,-90 111.6967,-54 165.6967,-54 165.6967,-90"/>
<text text-anchor="middle" x="138.6967" y="-68.3" font-family="Times,serif" font-size="14.00" fill="#000000">ईश</text>
</a>
</g>
</g>
<!-- Node1&#45;&gt;Node2 -->
<g id="edge1" class="edge">
<title>Node1&#45;&gt;Node2</title>
<path fill="none" stroke="#000000" d="M52.6255,-51.1943C67.1021,-54.6937 85.4557,-59.1303 101.4925,-63.0068"/>
<polygon fill="#000000" stroke="#000000" points="101.09,-66.5102 111.6324,-65.4579 102.7347,-59.7062 101.09,-66.5102"/>
<text text-anchor="middle" x="77.5" y="-61.8" font-family="Times,serif" font-size="14.00" fill="#000000">क</text>
</g>
<!-- Node3 -->
<g id="node3" class="node">
<title>Node3</title>
<ellipse fill="none" stroke="#ff0000" cx="138.6967" cy="-18" rx="37.8943" ry="18"/>
<text text-anchor="middle" x="138.6967" y="-14.3" font-family="Times,serif" font-size="14.00" fill="#000000">निर्_ईश्</text>
</g>
<!-- Node1&#45;&gt;Node3 -->
<g id="edge2" class="edge">
<title>Node1&#45;&gt;Node3</title>
<path fill="none" stroke="#000000" d="M52.6255,-38.8057C65.0642,-35.7989 80.3652,-32.1002 94.5995,-28.6594"/>
<polygon fill="#000000" stroke="#000000" points="95.8219,-31.9648 104.7195,-26.2132 94.1771,-25.1608 95.8219,-31.9648"/>
</g>
<!-- Node4 -->
<g id="node4" class="node">
<title>Node4</title>
<g id="a_node4"><a xlink:title="हल का फाल">
<polygon fill="none" stroke="#0000ff" points="277.3933,-36 223.3933,-36 223.3933,0 277.3933,0 277.3933,-36"/>
<text text-anchor="middle" x="250.3933" y="-14.3" font-family="Times,serif" font-size="14.00" fill="#000000">निरीश</text>
</a>
</g>
</g>
<!-- Node3&#45;&gt;Node4 -->
<g id="edge3" class="edge">
<title>Node3&#45;&gt;Node4</title>
<path fill="none" stroke="#000000" d="M176.512,-18C188.2383,-18 201.1528,-18 212.8599,-18"/>
<polygon fill="#000000" stroke="#000000" points="213.2032,-21.5001 223.2031,-18 213.2031,-14.5001 213.2032,-21.5001"/>
<text text-anchor="middle" x="199.8933" y="-21.8" font-family="Times,serif" font-size="14.00" fill="#000000">क</text>
</g>
</g>
</svg>
