<?xml version="1.0" encoding="UTF-8" standalone="no"?>
<!DOCTYPE svg PUBLIC "-//W3C//DTD SVG 1.1//EN"
 "http://www.w3.org/Graphics/SVG/1.1/DTD/svg11.dtd">
<!-- Generated by graphviz version 2.40.1 (20161225.0304)
 -->
<!-- Title: G Pages: 1 -->
<svg width="176pt" height="98pt"
 viewBox="0.00 0.00 176.00 98.00" xmlns="http://www.w3.org/2000/svg" xmlns:xlink="http://www.w3.org/1999/xlink">
<g id="graph0" class="graph" transform="scale(1 1) rotate(0) translate(4 94)">
<title>G</title>
<polygon fill="#ffffff" stroke="transparent" points="-4,4 -4,-94 172,-94 172,4 -4,4"/>
<!-- Node1 -->
<g id="node1" class="node">
<title>Node1</title>
<ellipse fill="none" stroke="#ff0000" cx="27" cy="-45" rx="27" ry="18"/>
<text text-anchor="middle" x="27" y="-41.3" font-family="Times,serif" font-size="14.00" fill="#000000">जक्ष्</text>
</g>
<!-- Node2 -->
<g id="node2" class="node">
<title>Node2</title>
<g id="a_node2"><a xlink:title="खाना, उपभोग करना">
<polygon fill="none" stroke="#0000ff" points="168,-90 114,-90 114,-54 168,-54 168,-90"/>
<text text-anchor="middle" x="141" y="-68.3" font-family="Times,serif" font-size="14.00" fill="#000000">जक्षण</text>
</a>
</g>
</g>
<!-- Node1&#45;&gt;Node2 -->
<g id="edge1" class="edge">
<title>Node1&#45;&gt;Node2</title>
<path fill="none" stroke="#000000" d="M52.5838,-51.0593C67.6969,-54.6387 87.095,-59.233 103.8691,-63.2058"/>
<polygon fill="#000000" stroke="#000000" points="103.375,-66.6856 113.9125,-65.5845 104.9883,-59.874 103.375,-66.6856"/>
<text text-anchor="middle" x="84" y="-63.8" font-family="Times,serif" font-size="14.00" fill="#000000">ल्युट्</text>
</g>
<!-- Node3 -->
<g id="node3" class="node">
<title>Node3</title>
<g id="a_node3"><a xlink:title="खाना, उपभोग करना">
<polygon fill="none" stroke="#0000ff" points="168,-36 114,-36 114,0 168,0 168,-36"/>
<text text-anchor="middle" x="141" y="-14.3" font-family="Times,serif" font-size="14.00" fill="#000000">जक्षि</text>
</a>
</g>
</g>
<!-- Node1&#45;&gt;Node3 -->
<g id="edge2" class="edge">
<title>Node1&#45;&gt;Node3</title>
<path fill="none" stroke="#000000" d="M52.5838,-38.9407C67.6969,-35.3613 87.095,-30.767 103.8691,-26.7942"/>
<polygon fill="#000000" stroke="#000000" points="104.9883,-30.126 113.9125,-24.4155 103.375,-23.3144 104.9883,-30.126"/>
<text text-anchor="middle" x="84" y="-36.8" font-family="Times,serif" font-size="14.00" fill="#000000">इन्</text>
</g>
</g>
</svg>
