<?xml version="1.0" encoding="UTF-8" standalone="no"?>
<!DOCTYPE svg PUBLIC "-//W3C//DTD SVG 1.1//EN"
 "http://www.w3.org/Graphics/SVG/1.1/DTD/svg11.dtd">
<!-- Generated by graphviz version 2.36.0 (20140111.2315)
 -->
<!-- Title: G Pages: 1 -->
<svg width="354pt" height="449pt"
 viewBox="0.00 0.00 354.00 449.00" xmlns="http://www.w3.org/2000/svg" xmlns:xlink="http://www.w3.org/1999/xlink">
<g id="graph0" class="graph" transform="scale(1 1) rotate(0) translate(4 445)">
<title>G</title>
<polygon fill="white" stroke="none" points="-4,4 -4,-445 350,-445 350,4 -4,4"/>
<!-- Node1 -->
<g id="node1" class="node"><title>Node1</title>
<ellipse fill="none" stroke="red" cx="28" cy="-212" rx="27.0966" ry="18"/>
<text text-anchor="middle" x="28" y="-208.3" font-family="Times,serif" font-size="14.00">जल्प्</text>
</g>
<!-- Node2 -->
<g id="node2" class="node"><title>Node2</title>
<ellipse fill="none" stroke="red" cx="169" cy="-396" rx="42.4939" ry="18"/>
<text text-anchor="middle" x="169" y="-392.3" font-family="Times,serif" font-size="14.00">उप_जल्प्</text>
</g>
<!-- Node1&#45;&gt;Node2 -->
<g id="edge1" class="edge"><title>Node1&#45;&gt;Node2</title>
<path fill="none" stroke="black" d="M33.746,-229.915C40.3356,-252.692 53.7764,-292.586 74,-322 89.4778,-344.512 113.866,-363.426 133.923,-376.497"/>
<polygon fill="black" stroke="black" points="132.174,-379.532 142.499,-381.908 135.909,-373.612 132.174,-379.532"/>
</g>
<!-- Node5 -->
<g id="node5" class="node"><title>Node5</title>
<g id="a_node5"><a xlink:title="बातूनी, गप्पी, जल्पिका&#45; स्त्री*">
<polygon fill="none" stroke="blue" points="196,-360 142,-360 142,-324 196,-324 196,-360"/>
<text text-anchor="middle" x="169" y="-338.3" font-family="Times,serif" font-size="14.00">जल्पक</text>
</a>
</g>
</g>
<!-- Node1&#45;&gt;Node5 -->
<g id="edge4" class="edge"><title>Node1&#45;&gt;Node5</title>
<path fill="none" stroke="black" d="M38.6036,-228.829C46.9384,-242.627 59.8633,-262.222 74,-277 93.2943,-297.169 100.966,-299.237 124,-315 126.898,-316.983 129.941,-318.992 133.014,-320.972"/>
<polygon fill="black" stroke="black" points="131.343,-324.056 141.668,-326.431 135.078,-318.136 131.343,-324.056"/>
<text text-anchor="middle" x="90" y="-306.8" font-family="Times,serif" font-size="14.00">ण्वुल्</text>
</g>
<!-- Node6 -->
<g id="node6" class="node"><title>Node6</title>
<g id="a_node6"><a xlink:title="वक्तृता, भाषण">
<polygon fill="none" stroke="blue" points="196,-306 142,-306 142,-270 196,-270 196,-306"/>
<text text-anchor="middle" x="169" y="-284.3" font-family="Times,serif" font-size="14.00">जल्प</text>
</a>
</g>
</g>
<!-- Node1&#45;&gt;Node6 -->
<g id="edge5" class="edge"><title>Node1&#45;&gt;Node6</title>
<path fill="none" stroke="black" d="M47.4766,-225.122C55.4771,-230.592 65.0448,-236.854 74,-242 92.8742,-252.846 114.671,-263.615 132.521,-272.004"/>
<polygon fill="black" stroke="black" points="131.445,-275.363 141.988,-276.405 134.395,-269.016 131.445,-275.363"/>
<text text-anchor="middle" x="90" y="-261.8" font-family="Times,serif" font-size="14.00">घञ्</text>
</g>
<!-- Node7 -->
<g id="node7" class="node"><title>Node7</title>
<g id="a_node7"><a xlink:title="बातूनी, गप्पी, जल्पिका&#45; स्त्री*">
<polygon fill="none" stroke="blue" points="197,-252 141,-252 141,-216 197,-216 197,-252"/>
<text text-anchor="middle" x="169" y="-230.3" font-family="Times,serif" font-size="14.00">जल्पाक</text>
</a>
</g>
</g>
<!-- Node1&#45;&gt;Node7 -->
<g id="edge6" class="edge"><title>Node1&#45;&gt;Node7</title>
<path fill="none" stroke="black" d="M54.8191,-216.086C76.157,-219.464 106.733,-224.303 130.727,-228.101"/>
<polygon fill="black" stroke="black" points="130.471,-231.604 140.895,-229.71 131.565,-224.69 130.471,-231.604"/>
<text text-anchor="middle" x="90" y="-226.8" font-family="Times,serif" font-size="14.00">षाकन्</text>
</g>
<!-- Node8 -->
<g id="node8" class="node"><title>Node8</title>
<ellipse fill="none" stroke="red" cx="169" cy="-180" rx="42.7926" ry="18"/>
<text text-anchor="middle" x="169" y="-176.3" font-family="Times,serif" font-size="14.00">परि_जल्प्</text>
</g>
<!-- Node1&#45;&gt;Node8 -->
<g id="edge7" class="edge"><title>Node1&#45;&gt;Node8</title>
<path fill="none" stroke="black" d="M54.1719,-206.205C72.7611,-201.926 98.6118,-195.974 120.981,-190.825"/>
<polygon fill="black" stroke="black" points="122.015,-194.178 130.974,-188.524 120.444,-187.357 122.015,-194.178"/>
</g>
<!-- Node10 -->
<g id="node10" class="node"><title>Node10</title>
<ellipse fill="none" stroke="red" cx="169" cy="-126" rx="37.0935" ry="18"/>
<text text-anchor="middle" x="169" y="-122.3" font-family="Times,serif" font-size="14.00">प्र_जल्प्</text>
</g>
<!-- Node1&#45;&gt;Node10 -->
<g id="edge9" class="edge"><title>Node1&#45;&gt;Node10</title>
<path fill="none" stroke="black" d="M48.631,-199.765C67.8279,-187.812 97.8976,-169.114 124,-153 128.075,-150.484 132.366,-147.842 136.606,-145.236"/>
<polygon fill="black" stroke="black" points="138.459,-148.206 145.149,-139.99 134.796,-142.241 138.459,-148.206"/>
</g>
<!-- Node13 -->
<g id="node13" class="node"><title>Node13</title>
<ellipse fill="none" stroke="red" cx="169" cy="-72" rx="44.6926" ry="18"/>
<text text-anchor="middle" x="169" y="-68.3" font-family="Times,serif" font-size="14.00">प्रति_जल्प्</text>
</g>
<!-- Node1&#45;&gt;Node13 -->
<g id="edge12" class="edge"><title>Node1&#45;&gt;Node13</title>
<path fill="none" stroke="black" d="M40.1794,-195.607C56.6434,-172.258 89.2398,-128.941 124,-99 126.814,-96.5762 129.87,-94.2297 133.015,-91.9989"/>
<polygon fill="black" stroke="black" points="135.059,-94.843 141.447,-86.3907 131.182,-89.0145 135.059,-94.843"/>
</g>
<!-- Node15 -->
<g id="node15" class="node"><title>Node15</title>
<ellipse fill="none" stroke="red" cx="169" cy="-18" rx="43.5923" ry="18"/>
<text text-anchor="middle" x="169" y="-14.3" font-family="Times,serif" font-size="14.00">सम्_जल्प्</text>
</g>
<!-- Node1&#45;&gt;Node15 -->
<g id="edge14" class="edge"><title>Node1&#45;&gt;Node15</title>
<path fill="none" stroke="black" d="M34.9398,-194.325C46.9126,-161.072 76.8895,-88.6296 124,-45 126.725,-42.4765 129.72,-40.0626 132.828,-37.7888"/>
<polygon fill="black" stroke="black" points="134.885,-40.6226 141.204,-32.1185 130.961,-34.8258 134.885,-40.6226"/>
</g>
<!-- Node3 -->
<g id="node3" class="node"><title>Node3</title>
<g id="a_node3"><a xlink:title="बात, बतचीत">
<polygon fill="none" stroke="blue" points="343.5,-441 276.5,-441 276.5,-405 343.5,-405 343.5,-441"/>
<text text-anchor="middle" x="310" y="-419.3" font-family="Times,serif" font-size="14.00">उपजल्पन</text>
</a>
</g>
</g>
<!-- Node2&#45;&gt;Node3 -->
<g id="edge2" class="edge"><title>Node2&#45;&gt;Node3</title>
<path fill="none" stroke="black" d="M207.615,-403.307C225.66,-406.812 247.367,-411.028 266.057,-414.659"/>
<polygon fill="black" stroke="black" points="265.604,-418.136 276.088,-416.607 266.939,-411.264 265.604,-418.136"/>
<text text-anchor="middle" x="244" y="-414.8" font-family="Times,serif" font-size="14.00">ल्युट्</text>
</g>
<!-- Node4 -->
<g id="node4" class="node"><title>Node4</title>
<g id="a_node4"><a xlink:title="बात, बतचीत">
<polygon fill="none" stroke="blue" points="345.5,-387 274.5,-387 274.5,-351 345.5,-351 345.5,-387"/>
<text text-anchor="middle" x="310" y="-365.3" font-family="Times,serif" font-size="14.00">उपजल्पित</text>
</a>
</g>
</g>
<!-- Node2&#45;&gt;Node4 -->
<g id="edge3" class="edge"><title>Node2&#45;&gt;Node4</title>
<path fill="none" stroke="black" d="M207.615,-388.693C225.118,-385.294 246.064,-381.225 264.363,-377.671"/>
<polygon fill="black" stroke="black" points="265.068,-381.099 274.217,-375.756 263.733,-374.227 265.068,-381.099"/>
<text text-anchor="middle" x="244" y="-386.8" font-family="Times,serif" font-size="14.00">क्त</text>
</g>
<!-- Node9 -->
<g id="node9" class="node"><title>Node9</title>
<g id="a_node9"><a xlink:title="(नौकर या सेवक का) गुप्त संकेत जिससे अपनी कुशलता श्रेष्ठता तथा स्वामी की क्रूरता एवं शठता तथा और दूसरे इसी प्रकार के दोष प्रकट हों उज्ज्वलनीलमणि इस प्रकार परिभाषा बताते हैं &#45; प्रभोर्निर्दयताशाठ्यचापलाद्युपपपादनात्, स्वविचक्षणताव्यक्तिर्भग्या स्यात्परिजल्पितम्। विल्सन के अनुसार अपने प्रिय से उपेक्षित किसी रमणी के द्वारा प्रयुक्त गुप्त झिड़कियाँ ही ‘परिजल्पित’ है">
<polygon fill="none" stroke="blue" points="345.5,-252 274.5,-252 274.5,-216 345.5,-216 345.5,-252"/>
<text text-anchor="middle" x="310" y="-230.3" font-family="Times,serif" font-size="14.00">परिजल्पित</text>
</a>
</g>
</g>
<!-- Node8&#45;&gt;Node9 -->
<g id="edge8" class="edge"><title>Node8&#45;&gt;Node9</title>
<path fill="none" stroke="black" d="M201.194,-192.119C219.989,-199.42 244.22,-208.834 264.947,-216.886"/>
<polygon fill="black" stroke="black" points="263.907,-220.236 274.495,-220.595 266.442,-213.712 263.907,-220.236"/>
<text text-anchor="middle" x="244" y="-214.8" font-family="Times,serif" font-size="14.00">क्त</text>
</g>
<!-- Node11 -->
<g id="node11" class="node"><title>Node11</title>
<g id="a_node11"><a xlink:title="बातचीत करनअ, बोलना">
<polygon fill="none" stroke="blue" points="339.5,-198 280.5,-198 280.5,-162 339.5,-162 339.5,-198"/>
<text text-anchor="middle" x="310" y="-176.3" font-family="Times,serif" font-size="14.00">प्रजल्पन</text>
</a>
</g>
</g>
<!-- Node10&#45;&gt;Node11 -->
<g id="edge10" class="edge"><title>Node10&#45;&gt;Node11</title>
<path fill="none" stroke="black" d="M198.464,-137.058C219.314,-145.158 247.839,-156.24 270.69,-165.117"/>
<polygon fill="black" stroke="black" points="269.507,-168.412 280.096,-168.771 272.042,-161.887 269.507,-168.412"/>
<text text-anchor="middle" x="244" y="-160.8" font-family="Times,serif" font-size="14.00">ल्युट्</text>
</g>
<!-- Node12 -->
<g id="node12" class="node"><title>Node12</title>
<g id="a_node12"><a xlink:title="बालकलरव, गपशप, असावधान या ऊटपटांग शब्द, प्रेमी का अभिवादन करने में प्रयुक्त, असूयेर्ष्यामदयुजा योऽवधीरणमुद्रया, प्रियस्य कौशलोद्गारः प्रजल्पः स तु कथ्यते।">
<polygon fill="none" stroke="blue" points="337,-144 283,-144 283,-108 337,-108 337,-144"/>
<text text-anchor="middle" x="310" y="-122.3" font-family="Times,serif" font-size="14.00">प्रजल्प</text>
</a>
</g>
</g>
<!-- Node10&#45;&gt;Node12 -->
<g id="edge11" class="edge"><title>Node10&#45;&gt;Node12</title>
<path fill="none" stroke="black" d="M206.158,-126C226.571,-126 252.012,-126 272.484,-126"/>
<polygon fill="black" stroke="black" points="272.683,-129.5 282.683,-126 272.683,-122.5 272.683,-129.5"/>
<text text-anchor="middle" x="244" y="-129.8" font-family="Times,serif" font-size="14.00">घञ्</text>
</g>
<!-- Node14 -->
<g id="node14" class="node"><title>Node14</title>
<g id="a_node14"><a xlink:title="उत्तर, जवाब">
<polygon fill="none" stroke="blue" points="341,-90 279,-90 279,-54 341,-54 341,-90"/>
<text text-anchor="middle" x="310" y="-68.3" font-family="Times,serif" font-size="14.00">प्रतिजल्प</text>
</a>
</g>
</g>
<!-- Node13&#45;&gt;Node14 -->
<g id="edge13" class="edge"><title>Node13&#45;&gt;Node14</title>
<path fill="none" stroke="black" d="M213.98,-72C231.501,-72 251.534,-72 268.674,-72"/>
<polygon fill="black" stroke="black" points="268.925,-75.5001 278.925,-72 268.925,-68.5001 268.925,-75.5001"/>
<text text-anchor="middle" x="244" y="-75.8" font-family="Times,serif" font-size="14.00">घञ्</text>
</g>
<!-- Node16 -->
<g id="node16" class="node"><title>Node16</title>
<g id="a_node16"><a xlink:title="वार्तालाप, अव्यवस्थित, बातचीत, बकवाद करना, गड़बड़">
<polygon fill="none" stroke="blue" points="337,-36 283,-36 283,-0 337,-0 337,-36"/>
<text text-anchor="middle" x="310" y="-14.3" font-family="Times,serif" font-size="14.00">सञ्जल्प</text>
</a>
</g>
</g>
<!-- Node15&#45;&gt;Node16 -->
<g id="edge15" class="edge"><title>Node15&#45;&gt;Node16</title>
<path fill="none" stroke="black" d="M212.839,-18C231.91,-18 254.137,-18 272.416,-18"/>
<polygon fill="black" stroke="black" points="272.667,-21.5001 282.667,-18 272.667,-14.5001 272.667,-21.5001"/>
<text text-anchor="middle" x="244" y="-21.8" font-family="Times,serif" font-size="14.00">घञ्</text>
</g>
</g>
</svg>
