<?xml version="1.0" encoding="UTF-8" standalone="no"?>
<!DOCTYPE svg PUBLIC "-//W3C//DTD SVG 1.1//EN"
 "http://www.w3.org/Graphics/SVG/1.1/DTD/svg11.dtd">
<!-- Generated by graphviz version 2.40.1 (20161225.0304)
 -->
<!-- Title: G Pages: 1 -->
<svg width="524pt" height="935pt"
 viewBox="0.00 0.00 524.08 935.00" xmlns="http://www.w3.org/2000/svg" xmlns:xlink="http://www.w3.org/1999/xlink">
<g id="graph0" class="graph" transform="scale(1 1) rotate(0) translate(4 931)">
<title>G</title>
<polygon fill="#ffffff" stroke="transparent" points="-4,4 -4,-931 520.0819,-931 520.0819,4 -4,4"/>
<!-- Node1 -->
<g id="node1" class="node">
<title>Node1</title>
<ellipse fill="none" stroke="#ff0000" cx="27" cy="-423" rx="27" ry="18"/>
<text text-anchor="middle" x="27" y="-419.3" font-family="Times,serif" font-size="14.00" fill="#000000">जीव्</text>
</g>
<!-- Node2 -->
<g id="node2" class="node">
<title>Node2</title>
<ellipse fill="none" stroke="#ff0000" cx="164.1961" cy="-855" rx="38.1938" ry="18"/>
<text text-anchor="middle" x="164.1961" y="-851.3" font-family="Times,serif" font-size="14.00" fill="#000000">आ_जीव्</text>
</g>
<!-- Node1&#45;&gt;Node2 -->
<g id="edge1" class="edge">
<title>Node1&#45;&gt;Node2</title>
<path fill="none" stroke="#000000" d="M29.1501,-441.0764C36.1123,-495.2644 61.0934,-660.1927 120,-783 127.6279,-798.9024 137.8413,-815.7515 146.5282,-829.1492"/>
<polygon fill="#000000" stroke="#000000" points="143.8195,-831.3993 152.2478,-837.8191 149.6625,-827.5445 143.8195,-831.3993"/>
</g>
<!-- Node5 -->
<g id="node5" class="node">
<title>Node5</title>
<ellipse fill="none" stroke="#ff0000" cx="164.1961" cy="-756" rx="37.0935" ry="18"/>
<text text-anchor="middle" x="164.1961" y="-752.3" font-family="Times,serif" font-size="14.00" fill="#000000">जीव्+अ</text>
</g>
<!-- Node1&#45;&gt;Node5 -->
<g id="edge4" class="edge">
<title>Node1&#45;&gt;Node5</title>
<path fill="none" stroke="#000000" d="M29.7435,-440.9931C35.2116,-474.5032 48.9648,-548.3875 72,-607 88.0109,-647.7394 96.7333,-655.9229 120,-693 127.9793,-705.7155 137.468,-719.4054 145.6042,-730.7648"/>
<polygon fill="#000000" stroke="#000000" points="142.8203,-732.8881 151.5149,-738.9424 148.4935,-728.7875 142.8203,-732.8881"/>
</g>
<!-- Node8 -->
<g id="node8" class="node">
<title>Node8</title>
<ellipse fill="none" stroke="#ff0000" cx="164.1961" cy="-666" rx="40.0939" ry="18"/>
<text text-anchor="middle" x="164.1961" y="-662.3" font-family="Times,serif" font-size="14.00" fill="#000000">उप_जीव्</text>
</g>
<!-- Node1&#45;&gt;Node8 -->
<g id="edge7" class="edge">
<title>Node1&#45;&gt;Node8</title>
<path fill="none" stroke="#000000" d="M29.8962,-441.056C37.363,-481.9077 60.9813,-582.2732 120,-639 122.8361,-641.726 125.9937,-644.3088 129.2799,-646.7178"/>
<polygon fill="#000000" stroke="#000000" points="127.3561,-649.6419 137.6042,-652.3303 131.2694,-643.8379 127.3561,-649.6419"/>
</g>
<!-- Node14 -->
<g id="node14" class="node">
<title>Node14</title>
<ellipse fill="none" stroke="#ff0000" cx="164.1961" cy="-612" rx="44.393" ry="18"/>
<text text-anchor="middle" x="164.1961" y="-608.3" font-family="Times,serif" font-size="14.00" fill="#000000">जीव्+णिच्</text>
</g>
<!-- Node1&#45;&gt;Node14 -->
<g id="edge13" class="edge">
<title>Node1&#45;&gt;Node14</title>
<path fill="none" stroke="#000000" d="M31.6416,-441.0683C38.1995,-464.5044 51.6893,-506.0451 72,-537 88.551,-562.2247 96.2943,-566.3383 120,-585 122.9275,-587.3046 126.0653,-589.5706 129.2685,-591.75"/>
<polygon fill="#000000" stroke="#000000" points="127.5067,-594.779 137.8011,-597.2841 131.3158,-588.9061 127.5067,-594.779"/>
</g>
<!-- Node16 -->
<g id="node16" class="node">
<title>Node16</title>
<g id="a_node16"><a xlink:title="जीवन का सिद्धान्त, श्वास, प्राण, आत्मा&#45; गतजीव, जीवत्याग, जीवाशा आदि#जीवित, विद्यमान">
<polygon fill="none" stroke="#0000ff" points="191.1961,-576 137.1961,-576 137.1961,-540 191.1961,-540 191.1961,-576"/>
<text text-anchor="middle" x="164.1961" y="-554.3" font-family="Times,serif" font-size="14.00" fill="#000000">जीव</text>
</a>
</g>
</g>
<!-- Node1&#45;&gt;Node16 -->
<g id="edge15" class="edge">
<title>Node1&#45;&gt;Node16</title>
<path fill="none" stroke="#000000" d="M36.2068,-440.2029C44.4882,-454.8308 57.5474,-475.9537 72,-492 90.3958,-512.4243 97.5548,-515.1328 120,-531 122.8015,-532.9804 125.7497,-534.9703 128.7386,-536.9229"/>
<polygon fill="#000000" stroke="#000000" points="126.8646,-539.8789 137.182,-542.2877 130.6187,-533.9707 126.8646,-539.8789"/>
<text text-anchor="middle" x="87" y="-521.8" font-family="Times,serif" font-size="14.00" fill="#000000">क</text>
</g>
<!-- Node17 -->
<g id="node17" class="node">
<title>Node17</title>
<g id="a_node17"><a xlink:title="जीवन, अस्तित्व">
<polygon fill="none" stroke="#0000ff" points="191.1961,-522 137.1961,-522 137.1961,-486 191.1961,-486 191.1961,-522"/>
<text text-anchor="middle" x="164.1961" y="-500.3" font-family="Times,serif" font-size="14.00" fill="#000000">जीवथ</text>
</a>
</g>
</g>
<!-- Node1&#45;&gt;Node17 -->
<g id="edge16" class="edge">
<title>Node1&#45;&gt;Node17</title>
<path fill="none" stroke="#000000" d="M44.5199,-436.8124C52.672,-442.9853 62.6214,-450.1673 72,-456 89.8427,-467.0967 110.5274,-478.0291 127.7777,-486.6509"/>
<polygon fill="#000000" stroke="#000000" points="126.4519,-489.8997 136.968,-491.1895 129.5515,-483.6234 126.4519,-489.8997"/>
<text text-anchor="middle" x="87" y="-476.8" font-family="Times,serif" font-size="14.00" fill="#000000">अथ</text>
</g>
<!-- Node18 -->
<g id="node18" class="node">
<title>Node18</title>
<g id="a_node18"><a xlink:title="जीवन का सिद्धान्त, संजीवनीशक्ति M#जीवनप्रद, जीवनदाता, प्राणप्रद, स्त्री* जीवनी#जीवित आधारी">
<polygon fill="none" stroke="#0000ff" points="191.1961,-468 137.1961,-468 137.1961,-432 191.1961,-432 191.1961,-468"/>
<text text-anchor="middle" x="164.1961" y="-446.3" font-family="Times,serif" font-size="14.00" fill="#000000">जीवन</text>
</a>
</g>
</g>
<!-- Node1&#45;&gt;Node18 -->
<g id="edge17" class="edge">
<title>Node1&#45;&gt;Node18</title>
<path fill="none" stroke="#000000" d="M53.1285,-428.142C73.9876,-432.2471 103.4842,-438.052 126.838,-442.648"/>
<polygon fill="#000000" stroke="#000000" points="126.2668,-446.1026 136.7544,-444.5995 127.6185,-439.2344 126.2668,-446.1026"/>
<text text-anchor="middle" x="87" y="-440.8" font-family="Times,serif" font-size="14.00" fill="#000000">ल्युट्</text>
</g>
<!-- Node19 -->
<g id="node19" class="node">
<title>Node19</title>
<g id="a_node19"><a xlink:title="जल">
<polygon fill="none" stroke="#0000ff" points="191.1961,-414 137.1961,-414 137.1961,-378 191.1961,-378 191.1961,-414"/>
<text text-anchor="middle" x="164.1961" y="-392.3" font-family="Times,serif" font-size="14.00" fill="#000000">जीवा</text>
</a>
</g>
</g>
<!-- Node1&#45;&gt;Node19 -->
<g id="edge18" class="edge">
<title>Node1&#45;&gt;Node19</title>
<path fill="none" stroke="#000000" d="M52.6664,-417.1274C58.9785,-415.7299 65.7258,-414.2751 72,-413 90.0958,-409.3223 110.2601,-405.5654 127.1054,-402.5219"/>
<polygon fill="#000000" stroke="#000000" points="127.892,-405.9368 137.1169,-400.7262 126.6561,-399.0467 127.892,-405.9368"/>
<text text-anchor="middle" x="87" y="-416.8" font-family="Times,serif" font-size="14.00" fill="#000000">अच्</text>
</g>
<!-- Node20 -->
<g id="node20" class="node">
<title>Node20</title>
<g id="a_node20"><a xlink:title="जीने का साधन, रोजगार">
<polygon fill="none" stroke="#0000ff" points="192.1961,-360 136.1961,-360 136.1961,-324 192.1961,-324 192.1961,-360"/>
<text text-anchor="middle" x="164.1961" y="-338.3" font-family="Times,serif" font-size="14.00" fill="#000000">जीविका</text>
</a>
</g>
</g>
<!-- Node1&#45;&gt;Node20 -->
<g id="edge19" class="edge">
<title>Node1&#45;&gt;Node20</title>
<path fill="none" stroke="#000000" d="M43.9378,-408.5347C52.1341,-401.8769 62.2844,-394.1172 72,-388 89.3701,-377.0633 109.6924,-366.6888 126.8301,-358.5699"/>
<polygon fill="#000000" stroke="#000000" points="128.3999,-361.6998 135.9845,-354.3022 125.4422,-355.3554 128.3999,-361.6998"/>
<text text-anchor="middle" x="87" y="-391.8" font-family="Times,serif" font-size="14.00" fill="#000000">अकन्</text>
</g>
<!-- Node21 -->
<g id="node21" class="node">
<title>Node21</title>
<g id="a_node21"><a xlink:title="आजीविका के साधन">
<polygon fill="none" stroke="#0000ff" points="191.1961,-306 137.1961,-306 137.1961,-270 191.1961,-270 191.1961,-306"/>
<text text-anchor="middle" x="164.1961" y="-284.3" font-family="Times,serif" font-size="14.00" fill="#000000">जीव्या</text>
</a>
</g>
</g>
<!-- Node1&#45;&gt;Node21 -->
<g id="edge20" class="edge">
<title>Node1&#45;&gt;Node21</title>
<path fill="none" stroke="#000000" d="M35.6844,-405.7794C43.8178,-390.6351 56.9525,-368.4963 72,-352 90.1524,-332.0998 97.8079,-330.2658 120,-315 122.6669,-313.1655 125.4577,-311.313 128.2848,-309.4838"/>
<polygon fill="#000000" stroke="#000000" points="130.2058,-312.4102 136.7877,-304.1078 126.465,-306.4936 130.2058,-312.4102"/>
<text text-anchor="middle" x="87" y="-355.8" font-family="Times,serif" font-size="14.00" fill="#000000">यत्</text>
</g>
<!-- Node22 -->
<g id="node22" class="node">
<title>Node22</title>
<ellipse fill="none" stroke="#ff0000" cx="164.1961" cy="-234" rx="34.394" ry="18"/>
<text text-anchor="middle" x="164.1961" y="-230.3" font-family="Times,serif" font-size="14.00" fill="#000000">प्र_जीव्</text>
</g>
<!-- Node1&#45;&gt;Node22 -->
<g id="edge21" class="edge">
<title>Node1&#45;&gt;Node22</title>
<path fill="none" stroke="#000000" d="M32.9245,-405.2195C44.644,-372.5248 73.7303,-302.424 120,-261 123.4081,-257.9488 127.2071,-255.044 131.107,-252.3479"/>
<polygon fill="#000000" stroke="#000000" points="133.1912,-255.1684 139.6932,-246.8033 129.3939,-249.2879 133.1912,-255.1684"/>
</g>
<!-- Node24 -->
<g id="node24" class="node">
<title>Node24</title>
<ellipse fill="none" stroke="#ff0000" cx="164.1961" cy="-180" rx="42.4939" ry="18"/>
<text text-anchor="middle" x="164.1961" y="-176.3" font-family="Times,serif" font-size="14.00" fill="#000000">प्रति_जीव्</text>
</g>
<!-- Node1&#45;&gt;Node24 -->
<g id="edge23" class="edge">
<title>Node1&#45;&gt;Node24</title>
<path fill="none" stroke="#000000" d="M29.8703,-404.917C37.2835,-364.0094 60.7981,-263.5355 120,-207 122.6945,-204.4268 125.6747,-201.9792 128.7775,-199.684"/>
<polygon fill="#000000" stroke="#000000" points="130.8623,-202.499 137.165,-193.9827 126.9271,-196.7098 130.8623,-202.499"/>
</g>
<!-- Node26 -->
<g id="node26" class="node">
<title>Node26</title>
<ellipse fill="none" stroke="#ff0000" cx="164.1961" cy="-126" rx="40.0939" ry="18"/>
<text text-anchor="middle" x="164.1961" y="-122.3" font-family="Times,serif" font-size="14.00" fill="#000000">उद्_जीव्</text>
</g>
<!-- Node1&#45;&gt;Node26 -->
<g id="edge25" class="edge">
<title>Node1&#45;&gt;Node26</title>
<path fill="none" stroke="#000000" d="M28.9419,-404.9481C33.2252,-369.4571 45.3013,-288.6043 72,-226 87.2323,-190.2826 92.0906,-179.9966 120,-153 122.8274,-150.265 125.9793,-147.6763 129.2621,-145.2637"/>
<polygon fill="#000000" stroke="#000000" points="131.2525,-148.1429 137.5817,-139.6464 127.3354,-142.3415 131.2525,-148.1429"/>
</g>
<!-- Node29 -->
<g id="node29" class="node">
<title>Node29</title>
<ellipse fill="none" stroke="#ff0000" cx="164.1961" cy="-72" rx="40.8928" ry="18"/>
<text text-anchor="middle" x="164.1961" y="-68.3" font-family="Times,serif" font-size="14.00" fill="#000000">सम्_जीव्</text>
</g>
<!-- Node1&#45;&gt;Node29 -->
<g id="edge28" class="edge">
<title>Node1&#45;&gt;Node29</title>
<path fill="none" stroke="#000000" d="M27.5397,-404.9539C29.3733,-362.1832 37.3716,-251.9472 72,-168 86.2455,-133.4656 92.8118,-124.6195 120,-99 122.863,-96.3022 126.0382,-93.738 129.3353,-91.3404"/>
<polygon fill="#000000" stroke="#000000" points="131.3218,-94.2224 137.6738,-85.7429 127.4203,-88.4105 131.3218,-94.2224"/>
</g>
<!-- Node3 -->
<g id="node3" class="node">
<title>Node3</title>
<g id="a_node3"><a xlink:title="जीविका, जीवननिर्वाह का साधन, भरण, तु* रूपजीव, अजाजीव, शस्त्राजीव आदि शब्दों की">
<polygon fill="none" stroke="#0000ff" points="354.237,-927 300.237,-927 300.237,-891 354.237,-891 354.237,-927"/>
<text text-anchor="middle" x="327.237" y="-905.3" font-family="Times,serif" font-size="14.00" fill="#000000">आजीव</text>
</a>
</g>
</g>
<!-- Node2&#45;&gt;Node3 -->
<g id="edge2" class="edge">
<title>Node2&#45;&gt;Node3</title>
<path fill="none" stroke="#000000" d="M195.632,-865.4117C222.7823,-874.4041 262.0338,-887.4044 290.601,-896.866"/>
<polygon fill="#000000" stroke="#000000" points="289.6293,-900.2311 300.2227,-900.0527 291.8302,-893.586 289.6293,-900.2311"/>
<text text-anchor="middle" x="238.8922" y="-886.8" font-family="Times,serif" font-size="14.00" fill="#000000">घञ्</text>
</g>
<!-- Node4 -->
<g id="node4" class="node">
<title>Node4</title>
<g id="a_node4"><a xlink:title="पेशा, वृत्ति">
<polygon fill="none" stroke="#0000ff" points="357.737,-873 296.737,-873 296.737,-837 357.737,-837 357.737,-873"/>
<text text-anchor="middle" x="327.237" y="-851.3" font-family="Times,serif" font-size="14.00" fill="#000000">आजीवन</text>
</a>
</g>
</g>
<!-- Node2&#45;&gt;Node4 -->
<g id="edge3" class="edge">
<title>Node2&#45;&gt;Node4</title>
<path fill="none" stroke="#000000" d="M202.8345,-855C227.9947,-855 260.7735,-855 286.3675,-855"/>
<polygon fill="#000000" stroke="#000000" points="286.4985,-858.5001 296.4984,-855 286.4984,-851.5001 286.4985,-858.5001"/>
<text text-anchor="middle" x="238.8922" y="-858.8" font-family="Times,serif" font-size="14.00" fill="#000000">ल्युट्</text>
</g>
<!-- Node6 -->
<g id="node6" class="node">
<title>Node6</title>
<ellipse fill="none" stroke="#ff0000" cx="327.237" cy="-801" rx="50.8918" ry="18"/>
<text text-anchor="middle" x="327.237" y="-797.3" font-family="Times,serif" font-size="14.00" fill="#000000">आ_जीव्+अ</text>
</g>
<!-- Node5&#45;&gt;Node6 -->
<g id="edge5" class="edge">
<title>Node5&#45;&gt;Node6</title>
<path fill="none" stroke="#000000" d="M196.798,-764.9983C219.8704,-771.3664 251.2391,-780.0242 277.4323,-787.2537"/>
<polygon fill="#000000" stroke="#000000" points="276.6188,-790.66 287.1896,-789.9467 278.4813,-783.9123 276.6188,-790.66"/>
</g>
<!-- Node7 -->
<g id="node7" class="node">
<title>Node7</title>
<g id="a_node7"><a xlink:title="पेशा, जीवन निर्वाह का साधन, वृत्ति">
<polygon fill="none" stroke="#0000ff" points="516.0819,-819 445.0819,-819 445.0819,-783 516.0819,-783 516.0819,-819"/>
<text text-anchor="middle" x="480.5819" y="-797.3" font-family="Times,serif" font-size="14.00" fill="#000000">आजीविका</text>
</a>
</g>
</g>
<!-- Node6&#45;&gt;Node7 -->
<g id="edge6" class="edge">
<title>Node6&#45;&gt;Node7</title>
<path fill="none" stroke="#000000" d="M378.2986,-801C396.5065,-801 416.8913,-801 434.6424,-801"/>
<polygon fill="#000000" stroke="#000000" points="434.7534,-804.5001 444.7534,-801 434.7533,-797.5001 434.7534,-804.5001"/>
<text text-anchor="middle" x="415.0819" y="-804.8" font-family="Times,serif" font-size="14.00" fill="#000000">कन्</text>
</g>
<!-- Node9 -->
<g id="node9" class="node">
<title>Node9</title>
<g id="a_node9"><a xlink:title="पराश्रित, अनुचरभीमकान्तैर्नृपगुणैः स बभूवोपजीविनाम्">
<polygon fill="none" stroke="#0000ff" points="359.737,-765 294.737,-765 294.737,-729 359.737,-729 359.737,-765"/>
<text text-anchor="middle" x="327.237" y="-743.3" font-family="Times,serif" font-size="14.00" fill="#000000">उपजीवक</text>
</a>
</g>
</g>
<!-- Node8&#45;&gt;Node9 -->
<g id="edge8" class="edge">
<title>Node8&#45;&gt;Node9</title>
<path fill="none" stroke="#000000" d="M190.1193,-680.0032C201.2423,-685.9468 214.4105,-692.8978 226.3922,-699 245.3442,-708.6522 250.1997,-710.8351 269.3922,-720 274.4551,-722.4177 279.7777,-724.935 285.0593,-727.4181"/>
<polygon fill="#000000" stroke="#000000" points="283.9167,-730.7478 294.457,-731.8216 286.8869,-724.4092 283.9167,-730.7478"/>
<text text-anchor="middle" x="238.8922" y="-714.8" font-family="Times,serif" font-size="14.00" fill="#000000">ण्वुल्</text>
</g>
<!-- Node10 -->
<g id="node10" class="node">
<title>Node10</title>
<g id="a_node10"><a xlink:title="जीविका">
<polygon fill="none" stroke="#0000ff" points="358.737,-711 295.737,-711 295.737,-675 358.737,-675 358.737,-711"/>
<text text-anchor="middle" x="327.237" y="-689.3" font-family="Times,serif" font-size="14.00" fill="#000000">उपजीवन</text>
</a>
</g>
</g>
<!-- Node8&#45;&gt;Node10 -->
<g id="edge9" class="edge">
<title>Node8&#45;&gt;Node10</title>
<path fill="none" stroke="#000000" d="M202.0108,-672.2622C226.9798,-676.3971 259.7154,-681.8183 285.4544,-686.0807"/>
<polygon fill="#000000" stroke="#000000" points="285.2187,-689.5892 295.6561,-687.7701 286.3624,-682.6833 285.2187,-689.5892"/>
<text text-anchor="middle" x="238.8922" y="-683.8" font-family="Times,serif" font-size="14.00" fill="#000000">ल्युट्</text>
</g>
<!-- Node11 -->
<g id="node11" class="node">
<title>Node11</title>
<g id="a_node11"><a xlink:title="जीविका">
<polygon fill="none" stroke="#0000ff" points="363.737,-657 290.737,-657 290.737,-621 363.737,-621 363.737,-657"/>
<text text-anchor="middle" x="327.237" y="-635.3" font-family="Times,serif" font-size="14.00" fill="#000000">उपजीविका</text>
</a>
</g>
</g>
<!-- Node8&#45;&gt;Node11 -->
<g id="edge10" class="edge">
<title>Node8&#45;&gt;Node11</title>
<path fill="none" stroke="#000000" d="M202.0108,-659.7378C225.4089,-655.863 255.6271,-650.8588 280.517,-646.737"/>
<polygon fill="#000000" stroke="#000000" points="281.1758,-650.1756 290.4696,-645.0888 280.0321,-643.2697 281.1758,-650.1756"/>
<text text-anchor="middle" x="238.8922" y="-657.8" font-family="Times,serif" font-size="14.00" fill="#000000">क्वुन्</text>
</g>
<!-- Node12 -->
<g id="node12" class="node">
<title>Node12</title>
<g id="a_node12"><a xlink:title="किसी दूसरे के सहारे रहने वाला, से जीविका करने वाला">
<polygon fill="none" stroke="#0000ff" points="360.737,-603 293.737,-603 293.737,-567 360.737,-567 360.737,-603"/>
<text text-anchor="middle" x="327.237" y="-581.3" font-family="Times,serif" font-size="14.00" fill="#000000">उपजीविन्</text>
</a>
</g>
</g>
<!-- Node8&#45;&gt;Node12 -->
<g id="edge11" class="edge">
<title>Node8&#45;&gt;Node12</title>
<path fill="none" stroke="#000000" d="M189.4198,-651.7332C200.6506,-645.5052 214.0927,-638.2199 226.3922,-632 245.1806,-622.4985 266.2517,-612.5676 284.2554,-604.2953"/>
<polygon fill="#000000" stroke="#000000" points="285.723,-607.4729 293.3622,-600.1317 282.8123,-601.1067 285.723,-607.4729"/>
<text text-anchor="middle" x="238.8922" y="-635.8" font-family="Times,serif" font-size="14.00" fill="#000000">णिनि</text>
</g>
<!-- Node13 -->
<g id="node13" class="node">
<title>Node13</title>
<g id="a_node13"><a xlink:title="जीविका प्रदान करने वाला#संरक्षक">
<polygon fill="none" stroke="#0000ff" points="357.237,-549 297.237,-549 297.237,-513 357.237,-513 357.237,-549"/>
<text text-anchor="middle" x="327.237" y="-527.3" font-family="Times,serif" font-size="14.00" fill="#000000">उपजीव्य</text>
</a>
</g>
</g>
<!-- Node8&#45;&gt;Node13 -->
<g id="edge12" class="edge">
<title>Node8&#45;&gt;Node13</title>
<path fill="none" stroke="#000000" d="M191.82,-652.5897C197.8042,-648.7911 203.7288,-644.2383 208.3922,-639 221.0859,-624.7412 215.3811,-615.5949 226.3922,-600 241.8008,-578.1768 247.4218,-573.1981 269.3922,-558 275.0872,-554.0604 281.4483,-550.4354 287.811,-547.2062"/>
<polygon fill="#000000" stroke="#000000" points="289.5565,-550.2507 297.0568,-542.7676 286.527,-543.9402 289.5565,-550.2507"/>
<text text-anchor="middle" x="238.8922" y="-603.8" font-family="Times,serif" font-size="14.00" fill="#000000">ण्यत्</text>
</g>
<!-- Node15 -->
<g id="node15" class="node">
<title>Node15</title>
<g id="a_node15"><a xlink:title="जीवधारी प्राणी">
<polygon fill="none" stroke="#0000ff" points="354.237,-495 300.237,-495 300.237,-459 354.237,-459 354.237,-495"/>
<text text-anchor="middle" x="327.237" y="-473.3" font-family="Times,serif" font-size="14.00" fill="#000000">जीवक</text>
</a>
</g>
</g>
<!-- Node14&#45;&gt;Node15 -->
<g id="edge14" class="edge">
<title>Node14&#45;&gt;Node15</title>
<path fill="none" stroke="#000000" d="M192.4916,-597.7707C198.1756,-594.1078 203.8041,-589.8188 208.3922,-585 219.9122,-572.9004 216.7541,-565.6462 226.3922,-552 242.9155,-528.605 246.3931,-521.0702 269.3922,-504 275.8997,-499.17 283.4093,-494.8963 290.8175,-491.2552"/>
<polygon fill="#000000" stroke="#000000" points="292.4514,-494.356 300.064,-486.9872 289.5177,-488.0004 292.4514,-494.356"/>
<text text-anchor="middle" x="238.8922" y="-555.8" font-family="Times,serif" font-size="14.00" fill="#000000">ण्वुल्</text>
</g>
<!-- Node23 -->
<g id="node23" class="node">
<title>Node23</title>
<g id="a_node23"><a xlink:title="जीविका, जीवन निर्वाह का साधन">
<polygon fill="none" stroke="#0000ff" points="354.737,-252 299.737,-252 299.737,-216 354.737,-216 354.737,-252"/>
<text text-anchor="middle" x="327.237" y="-230.3" font-family="Times,serif" font-size="14.00" fill="#000000">प्रजीवन</text>
</a>
</g>
</g>
<!-- Node22&#45;&gt;Node23 -->
<g id="edge22" class="edge">
<title>Node22&#45;&gt;Node23</title>
<path fill="none" stroke="#000000" d="M198.7729,-234C225.3446,-234 262.0103,-234 289.3707,-234"/>
<polygon fill="#000000" stroke="#000000" points="289.7292,-237.5001 299.7292,-234 289.7291,-230.5001 289.7292,-237.5001"/>
<text text-anchor="middle" x="238.8922" y="-237.8" font-family="Times,serif" font-size="14.00" fill="#000000">ल्युट्</text>
</g>
<!-- Node25 -->
<g id="node25" class="node">
<title>Node25</title>
<g id="a_node25"><a xlink:title="पुनर्जीवन, पुनः सजीवता">
<polygon fill="none" stroke="#0000ff" points="360.737,-198 293.737,-198 293.737,-162 360.737,-162 360.737,-198"/>
<text text-anchor="middle" x="327.237" y="-176.3" font-family="Times,serif" font-size="14.00" fill="#000000">प्रतिजीवन</text>
</a>
</g>
</g>
<!-- Node24&#45;&gt;Node25 -->
<g id="edge24" class="edge">
<title>Node24&#45;&gt;Node25</title>
<path fill="none" stroke="#000000" d="M206.6076,-180C230.196,-180 259.5097,-180 283.3334,-180"/>
<polygon fill="#000000" stroke="#000000" points="283.5128,-183.5001 293.5128,-180 283.5128,-176.5001 283.5128,-183.5001"/>
<text text-anchor="middle" x="238.8922" y="-183.8" font-family="Times,serif" font-size="14.00" fill="#000000">ल्युट्</text>
</g>
<!-- Node27 -->
<g id="node27" class="node">
<title>Node27</title>
<ellipse fill="none" stroke="#ff0000" cx="327.237" cy="-126" rx="57.6901" ry="18"/>
<text text-anchor="middle" x="327.237" y="-122.3" font-family="Times,serif" font-size="14.00" fill="#000000">प्रति_उद्_जीव्</text>
</g>
<!-- Node26&#45;&gt;Node27 -->
<g id="edge26" class="edge">
<title>Node26&#45;&gt;Node27</title>
<path fill="none" stroke="#000000" d="M204.4983,-126C220.9683,-126 240.4842,-126 259.0516,-126"/>
<polygon fill="#000000" stroke="#000000" points="259.2438,-129.5001 269.2438,-126 259.2437,-122.5001 259.2438,-129.5001"/>
</g>
<!-- Node28 -->
<g id="node28" class="node">
<title>Node28</title>
<g id="a_node28"><a xlink:title="पुनर्जीवन होना, जीवन का फिर संचार होना, फिर से जी उठना, आलं* भी">
<polygon fill="none" stroke="#0000ff" points="514.5819,-144 446.5819,-144 446.5819,-108 514.5819,-108 514.5819,-144"/>
<text text-anchor="middle" x="480.5819" y="-122.3" font-family="Times,serif" font-size="14.00" fill="#000000">प्रत्युज्जीवन</text>
</a>
</g>
</g>
<!-- Node27&#45;&gt;Node28 -->
<g id="edge27" class="edge">
<title>Node27&#45;&gt;Node28</title>
<path fill="none" stroke="#000000" d="M385.2101,-126C402.1861,-126 420.4646,-126 436.4328,-126"/>
<polygon fill="#000000" stroke="#000000" points="436.5557,-129.5001 446.5556,-126 436.5556,-122.5001 436.5557,-129.5001"/>
<text text-anchor="middle" x="415.0819" y="-129.8" font-family="Times,serif" font-size="14.00" fill="#000000">ल्युट्</text>
</g>
<!-- Node30 -->
<g id="node30" class="node">
<title>Node30</title>
<g id="a_node30"><a xlink:title="साथ साथ रहना">
<polygon fill="none" stroke="#0000ff" points="355.237,-90 299.237,-90 299.237,-54 355.237,-54 355.237,-90"/>
<text text-anchor="middle" x="327.237" y="-68.3" font-family="Times,serif" font-size="14.00" fill="#000000">सञ्जीवन</text>
</a>
</g>
</g>
<!-- Node29&#45;&gt;Node30 -->
<g id="edge29" class="edge">
<title>Node29&#45;&gt;Node30</title>
<path fill="none" stroke="#000000" d="M205.3382,-72C231.0091,-72 263.8269,-72 288.9428,-72"/>
<polygon fill="#000000" stroke="#000000" points="289.1919,-75.5001 299.1919,-72 289.1919,-68.5001 289.1919,-75.5001"/>
<text text-anchor="middle" x="238.8922" y="-75.8" font-family="Times,serif" font-size="14.00" fill="#000000">ल्युट्</text>
</g>
<!-- Node31 -->
<g id="node31" class="node">
<title>Node31</title>
<g id="a_node31"><a xlink:title="एक प्रकार का अमृत, कहते हैं कि इसके सेवन से मृतक भी पुनर्जीवित हो जाता हैं">
<polygon fill="none" stroke="#0000ff" points="356.737,-36 297.737,-36 297.737,0 356.737,0 356.737,-36"/>
<text text-anchor="middle" x="327.237" y="-14.3" font-family="Times,serif" font-size="14.00" fill="#000000">सञ्जीवनी</text>
</a>
</g>
</g>
<!-- Node29&#45;&gt;Node31 -->
<g id="edge30" class="edge">
<title>Node29&#45;&gt;Node31</title>
<path fill="none" stroke="#000000" d="M197.1898,-61.0723C223.3773,-52.3989 260.0691,-40.2464 287.8045,-31.0603"/>
<polygon fill="#000000" stroke="#000000" points="289.1891,-34.2887 297.5815,-27.822 286.9882,-27.6437 289.1891,-34.2887"/>
<text text-anchor="middle" x="238.8922" y="-53.8" font-family="Times,serif" font-size="14.00" fill="#000000">ल्युट्</text>
</g>
</g>
</svg>
