<?xml version="1.0" encoding="UTF-8" standalone="no"?>
<!DOCTYPE svg PUBLIC "-//W3C//DTD SVG 1.1//EN"
 "http://www.w3.org/Graphics/SVG/1.1/DTD/svg11.dtd">
<!-- Generated by graphviz version 2.40.1 (20161225.0304)
 -->
<!-- Title: G Pages: 1 -->
<svg width="173pt" height="206pt"
 viewBox="0.00 0.00 173.00 206.00" xmlns="http://www.w3.org/2000/svg" xmlns:xlink="http://www.w3.org/1999/xlink">
<g id="graph0" class="graph" transform="scale(1 1) rotate(0) translate(4 202)">
<title>G</title>
<polygon fill="#ffffff" stroke="transparent" points="-4,4 -4,-202 169,-202 169,4 -4,4"/>
<!-- Node1 -->
<g id="node1" class="node">
<title>Node1</title>
<ellipse fill="none" stroke="#ff0000" cx="27" cy="-99" rx="27" ry="18"/>
<text text-anchor="middle" x="27" y="-95.3" font-family="Times,serif" font-size="14.00" fill="#000000">ज्या</text>
</g>
<!-- Node2 -->
<g id="node2" class="node">
<title>Node2</title>
<g id="a_node2"><a xlink:title="चमड़े का थैला, जीनकार्मुकबस्तावीन् पृथग्दद्याद्विशुद्धये#बूढ़ा, वयोवृद्ध, क्षीण">
<polygon fill="none" stroke="#0000ff" points="165,-198 111,-198 111,-162 165,-162 165,-198"/>
<text text-anchor="middle" x="138" y="-176.3" font-family="Times,serif" font-size="14.00" fill="#000000">जीन</text>
</a>
</g>
</g>
<!-- Node1&#45;&gt;Node2 -->
<g id="edge1" class="edge">
<title>Node1&#45;&gt;Node2</title>
<path fill="none" stroke="#000000" d="M44.8691,-112.6833C53.0916,-118.9327 62.9997,-126.3972 72,-133 82.2787,-140.5406 93.551,-148.6324 103.8254,-155.9401"/>
<polygon fill="#000000" stroke="#000000" points="101.9961,-158.9337 112.1774,-161.8649 106.0463,-153.2243 101.9961,-158.9337"/>
<text text-anchor="middle" x="82.5" y="-150.8" font-family="Times,serif" font-size="14.00" fill="#000000">क्त</text>
</g>
<!-- Node3 -->
<g id="node3" class="node">
<title>Node3</title>
<g id="a_node3"><a xlink:title="तलवार">
<polygon fill="none" stroke="#0000ff" points="165,-144 111,-144 111,-108 165,-108 165,-144"/>
<text text-anchor="middle" x="138" y="-122.3" font-family="Times,serif" font-size="14.00" fill="#000000">जीर</text>
</a>
</g>
</g>
<!-- Node1&#45;&gt;Node3 -->
<g id="edge2" class="edge">
<title>Node1&#45;&gt;Node3</title>
<path fill="none" stroke="#000000" d="M52.4656,-105.1943C66.7469,-108.6682 84.8251,-113.0656 100.6786,-116.9218"/>
<polygon fill="#000000" stroke="#000000" points="100.1691,-120.3999 110.7131,-119.3626 101.8236,-113.5982 100.1691,-120.3999"/>
<text text-anchor="middle" x="82.5" y="-117.8" font-family="Times,serif" font-size="14.00" fill="#000000">रक्</text>
</g>
<!-- Node4 -->
<g id="node4" class="node">
<title>Node4</title>
<g id="a_node4"><a xlink:title="चाप के सिरों को मिलाने वाली सीधी रेखा">
<polygon fill="none" stroke="#0000ff" points="165,-90 111,-90 111,-54 165,-54 165,-90"/>
<text text-anchor="middle" x="138" y="-68.3" font-family="Times,serif" font-size="14.00" fill="#000000">ज्या</text>
</a>
</g>
</g>
<!-- Node1&#45;&gt;Node4 -->
<g id="edge3" class="edge">
<title>Node1&#45;&gt;Node4</title>
<path fill="none" stroke="#000000" d="M52.4656,-92.8057C66.7469,-89.3318 84.8251,-84.9344 100.6786,-81.0782"/>
<polygon fill="#000000" stroke="#000000" points="101.8236,-84.4018 110.7131,-78.6374 100.1691,-77.6001 101.8236,-84.4018"/>
<text text-anchor="middle" x="82.5" y="-90.8" font-family="Times,serif" font-size="14.00" fill="#000000">अङ्</text>
</g>
<!-- Node5 -->
<g id="node5" class="node">
<title>Node5</title>
<g id="a_node5"><a xlink:title="बूढ़ापा, क्षय">
<polygon fill="none" stroke="#0000ff" points="165,-36 111,-36 111,0 165,0 165,-36"/>
<text text-anchor="middle" x="138" y="-14.3" font-family="Times,serif" font-size="14.00" fill="#000000">ज्यानि</text>
</a>
</g>
</g>
<!-- Node1&#45;&gt;Node5 -->
<g id="edge4" class="edge">
<title>Node1&#45;&gt;Node5</title>
<path fill="none" stroke="#000000" d="M44.361,-85.1554C52.65,-78.6336 62.7561,-70.809 72,-64 82.0154,-56.6227 93.0504,-48.8109 103.1833,-41.7599"/>
<polygon fill="#000000" stroke="#000000" points="105.2117,-44.6126 111.4406,-36.0422 101.2266,-38.8576 105.2117,-44.6126"/>
<text text-anchor="middle" x="82.5" y="-67.8" font-family="Times,serif" font-size="14.00" fill="#000000">नि</text>
</g>
</g>
</svg>
