<?xml version="1.0" encoding="UTF-8" standalone="no"?>
<!DOCTYPE svg PUBLIC "-//W3C//DTD SVG 1.1//EN"
 "http://www.w3.org/Graphics/SVG/1.1/DTD/svg11.dtd">
<!-- Generated by graphviz version 2.36.0 (20140111.2315)
 -->
<!-- Title: G Pages: 1 -->
<svg width="338pt" height="314pt"
 viewBox="0.00 0.00 338.00 314.00" xmlns="http://www.w3.org/2000/svg" xmlns:xlink="http://www.w3.org/1999/xlink">
<g id="graph0" class="graph" transform="scale(1 1) rotate(0) translate(4 310)">
<title>G</title>
<polygon fill="white" stroke="none" points="-4,4 -4,-310 334,-310 334,4 -4,4"/>
<!-- Node1 -->
<g id="node1" class="node"><title>Node1</title>
<ellipse fill="none" stroke="red" cx="27" cy="-153" rx="27" ry="18"/>
<text text-anchor="middle" x="27" y="-149.3" font-family="Times,serif" font-size="14.00">कच्</text>
</g>
<!-- Node2 -->
<g id="node2" class="node"><title>Node2</title>
<g id="a_node2"><a xlink:title="प्रसन्नता, हर्ष, आनन्द, जैसाकि स्वर्ग में">
<polygon fill="none" stroke="blue" points="194,-306 140,-306 140,-270 194,-270 194,-306"/>
<text text-anchor="middle" x="167" y="-284.3" font-family="Times,serif" font-size="14.00">क</text>
</a>
</g>
</g>
<!-- Node1&#45;&gt;Node2 -->
<g id="edge1" class="edge"><title>Node1&#45;&gt;Node2</title>
<path fill="none" stroke="black" d="M36.1114,-170.076C43.9004,-185.329 56.7191,-207.714 72,-224 89.0268,-242.146 112.073,-257.938 131.084,-269.295"/>
<polygon fill="black" stroke="black" points="129.369,-272.346 139.773,-274.348 132.889,-266.295 129.369,-272.346"/>
<text text-anchor="middle" x="89" y="-255.8" font-family="Times,serif" font-size="14.00">ड</text>
</g>
<!-- Node3 -->
<g id="node3" class="node"><title>Node3</title>
<g id="a_node3"><a xlink:title="सूखा या भरा हुआ घाव, क्षतचिह्न या किण">
<polygon fill="none" stroke="blue" points="194,-252 140,-252 140,-216 194,-216 194,-252"/>
<text text-anchor="middle" x="167" y="-230.3" font-family="Times,serif" font-size="14.00">कच</text>
</a>
</g>
</g>
<!-- Node1&#45;&gt;Node3 -->
<g id="edge2" class="edge"><title>Node1&#45;&gt;Node3</title>
<path fill="none" stroke="black" d="M44.5761,-167.04C52.5934,-173.505 62.5167,-181.044 72,-187 90.5126,-198.626 112.287,-209.665 130.214,-218.119"/>
<polygon fill="black" stroke="black" points="129.189,-221.502 139.733,-222.538 132.136,-215.153 129.189,-221.502"/>
<text text-anchor="middle" x="89" y="-208.8" font-family="Times,serif" font-size="14.00">अच्</text>
</g>
<!-- Node4 -->
<g id="node4" class="node"><title>Node4</title>
<g id="a_node4"><a xlink:title="हथिनी">
<polygon fill="none" stroke="blue" points="194,-198 140,-198 140,-162 194,-162 194,-198"/>
<text text-anchor="middle" x="167" y="-176.3" font-family="Times,serif" font-size="14.00">कचा</text>
</a>
</g>
</g>
<!-- Node1&#45;&gt;Node4 -->
<g id="edge3" class="edge"><title>Node1&#45;&gt;Node4</title>
<path fill="none" stroke="black" d="M52.9908,-157.889C74.4669,-162.091 105.705,-168.203 129.899,-172.937"/>
<polygon fill="black" stroke="black" points="129.301,-176.386 139.787,-174.871 130.645,-169.516 129.301,-176.386"/>
<text text-anchor="middle" x="89" y="-171.8" font-family="Times,serif" font-size="14.00">अच्</text>
</g>
<!-- Node5 -->
<g id="node5" class="node"><title>Node5</title>
<g id="a_node5"><a xlink:title="शीशा, स्फटिक, आकरे पद्मरागाणां जन्म काचमणेः कुतः &#45;">
<polygon fill="none" stroke="blue" points="194,-144 140,-144 140,-108 194,-108 194,-144"/>
<text text-anchor="middle" x="167" y="-122.3" font-family="Times,serif" font-size="14.00">काच</text>
</a>
</g>
</g>
<!-- Node1&#45;&gt;Node5 -->
<g id="edge4" class="edge"><title>Node1&#45;&gt;Node5</title>
<path fill="none" stroke="black" d="M52.591,-146.5C58.8956,-144.931 65.6809,-143.326 72,-142 90.9178,-138.031 112.134,-134.354 129.616,-131.529"/>
<polygon fill="black" stroke="black" points="130.638,-134.91 139.965,-129.884 129.54,-127.997 130.638,-134.91"/>
<text text-anchor="middle" x="89" y="-145.8" font-family="Times,serif" font-size="14.00">घञ्</text>
</g>
<!-- Node6 -->
<g id="node6" class="node"><title>Node6</title>
<ellipse fill="none" stroke="red" cx="167" cy="-72" rx="42.7926" ry="18"/>
<text text-anchor="middle" x="167" y="-68.3" font-family="Times,serif" font-size="14.00">कच्+णिच्</text>
</g>
<!-- Node1&#45;&gt;Node6 -->
<g id="edge5" class="edge"><title>Node1&#45;&gt;Node6</title>
<path fill="none" stroke="black" d="M47.772,-141.395C69.7723,-128.481 105.705,-107.391 132.19,-91.8447"/>
<polygon fill="black" stroke="black" points="134.274,-94.6801 141.127,-86.5996 130.731,-88.6432 134.274,-94.6801"/>
</g>
<!-- Node9 -->
<g id="node9" class="node"><title>Node9</title>
<g id="a_node9"><a xlink:title="मुर्गा">
<polygon fill="none" stroke="blue" points="194,-36 140,-36 140,-0 194,-0 194,-36"/>
<text text-anchor="middle" x="167" y="-14.3" font-family="Times,serif" font-size="14.00">काचूक</text>
</a>
</g>
</g>
<!-- Node1&#45;&gt;Node9 -->
<g id="edge8" class="edge"><title>Node1&#45;&gt;Node9</title>
<path fill="none" stroke="black" d="M37.4791,-136.303C45.6816,-122.583 58.3471,-103.029 72,-88 92.1651,-65.8026 99.788,-62.6957 124,-45 126.441,-43.2162 128.996,-41.4173 131.589,-39.6405"/>
<polygon fill="black" stroke="black" points="133.534,-42.5503 139.907,-34.0866 129.647,-36.7287 133.534,-42.5503"/>
<text text-anchor="middle" x="89" y="-91.8" font-family="Times,serif" font-size="14.00">ऊकञ्</text>
</g>
<!-- Node7 -->
<g id="node7" class="node"><title>Node7</title>
<g id="a_node7"><a xlink:title="डोरी या फीता जिससे काग़जों का बण्डल या हस्तलिखित पत्र बाँधे जाते हैं, तु* कचेल">
<polygon fill="none" stroke="blue" points="329.5,-117 270.5,-117 270.5,-81 329.5,-81 329.5,-117"/>
<text text-anchor="middle" x="300" y="-95.3" font-family="Times,serif" font-size="14.00">काचनक</text>
</a>
</g>
</g>
<!-- Node6&#45;&gt;Node7 -->
<g id="edge6" class="edge"><title>Node6&#45;&gt;Node7</title>
<path fill="none" stroke="black" d="M205.891,-79.8095C222.912,-83.3177 242.977,-87.4533 260.114,-90.9854"/>
<polygon fill="black" stroke="black" points="259.852,-94.5048 270.353,-93.0956 261.265,-87.6489 259.852,-94.5048"/>
<text text-anchor="middle" x="240" y="-91.8" font-family="Times,serif" font-size="14.00">ल्युट्</text>
</g>
<!-- Node8 -->
<g id="node8" class="node"><title>Node8</title>
<g id="a_node8"><a xlink:title="डोरी या फीता जिससे काग़जों का बण्डल या हस्तलिखित पत्र बाँधे जाते हैं, तु* कचेल">
<polygon fill="none" stroke="blue" points="327,-63 273,-63 273,-27 327,-27 327,-63"/>
<text text-anchor="middle" x="300" y="-41.3" font-family="Times,serif" font-size="14.00">काचन</text>
</a>
</g>
</g>
<!-- Node6&#45;&gt;Node8 -->
<g id="edge7" class="edge"><title>Node6&#45;&gt;Node8</title>
<path fill="none" stroke="black" d="M205.891,-64.1905C223.83,-60.493 245.152,-56.0984 262.862,-52.4482"/>
<polygon fill="black" stroke="black" points="263.732,-55.8426 272.82,-50.3959 262.319,-48.9867 263.732,-55.8426"/>
<text text-anchor="middle" x="240" y="-62.8" font-family="Times,serif" font-size="14.00">ल्युट्</text>
</g>
</g>
</svg>
