<?xml version="1.0" encoding="UTF-8" standalone="no"?>
<!DOCTYPE svg PUBLIC "-//W3C//DTD SVG 1.1//EN"
 "http://www.w3.org/Graphics/SVG/1.1/DTD/svg11.dtd">
<!-- Generated by graphviz version 2.40.1 (20161225.0304)
 -->
<!-- Title: G Pages: 1 -->
<svg width="308pt" height="476pt"
 viewBox="0.00 0.00 308.09 476.00" xmlns="http://www.w3.org/2000/svg" xmlns:xlink="http://www.w3.org/1999/xlink">
<g id="graph0" class="graph" transform="scale(1 1) rotate(0) translate(4 472)">
<title>G</title>
<polygon fill="#ffffff" stroke="transparent" points="-4,4 -4,-472 304.0934,-472 304.0934,4 -4,4"/>
<!-- Node1 -->
<g id="node1" class="node">
<title>Node1</title>
<ellipse fill="none" stroke="#ff0000" cx="27" cy="-234" rx="27" ry="18"/>
<text text-anchor="middle" x="27" y="-230.3" font-family="Times,serif" font-size="14.00" fill="#000000">कण्</text>
</g>
<!-- Node2 -->
<g id="node2" class="node">
<title>Node2</title>
<ellipse fill="none" stroke="#ff0000" cx="153.0467" cy="-450" rx="37.0935" ry="18"/>
<text text-anchor="middle" x="153.0467" y="-446.3" font-family="Times,serif" font-size="14.00" fill="#000000">ओ_कण्</text>
</g>
<!-- Node1&#45;&gt;Node2 -->
<g id="edge1" class="edge">
<title>Node1&#45;&gt;Node2</title>
<path fill="none" stroke="#000000" d="M30.3829,-252.0712C36.0553,-279.5491 49.1671,-332.8775 72,-373 86.6409,-398.7273 94.1297,-403.0517 116,-423 118.205,-425.0112 120.559,-427.0126 122.9709,-428.9638"/>
<polygon fill="#000000" stroke="#000000" points="121.2033,-432.0201 131.2625,-435.3462 125.4731,-426.473 121.2033,-432.0201"/>
</g>
<!-- Node4 -->
<g id="node4" class="node">
<title>Node4</title>
<g id="a_node4"><a xlink:title="अनाज का दाना, तण्डुलकणान्">
<polygon fill="none" stroke="#0000ff" points="180.0467,-414 126.0467,-414 126.0467,-378 180.0467,-378 180.0467,-414"/>
<text text-anchor="middle" x="153.0467" y="-392.3" font-family="Times,serif" font-size="14.00" fill="#000000">कण</text>
</a>
</g>
</g>
<!-- Node1&#45;&gt;Node4 -->
<g id="edge3" class="edge">
<title>Node1&#45;&gt;Node4</title>
<path fill="none" stroke="#000000" d="M33.8183,-251.4748C41.5857,-270.2916 55.3791,-300.6645 72,-324 88.2276,-346.7834 94.846,-350.6989 116,-369 116.9818,-369.8494 117.9889,-370.7002 119.0141,-371.5487"/>
<polygon fill="#000000" stroke="#000000" points="117.0933,-374.4919 127.108,-377.9497 121.4355,-369.0014 117.0933,-374.4919"/>
<text text-anchor="middle" x="85" y="-357.8" font-family="Times,serif" font-size="14.00" fill="#000000">अच्</text>
</g>
<!-- Node5 -->
<g id="node5" class="node">
<title>Node5</title>
<g id="a_node5"><a xlink:title="अनाज का दाना">
<polygon fill="none" stroke="#0000ff" points="180.0467,-360 126.0467,-360 126.0467,-324 180.0467,-324 180.0467,-360"/>
<text text-anchor="middle" x="153.0467" y="-338.3" font-family="Times,serif" font-size="14.00" fill="#000000">कणिक</text>
</a>
</g>
</g>
<!-- Node1&#45;&gt;Node5 -->
<g id="edge4" class="edge">
<title>Node1&#45;&gt;Node5</title>
<path fill="none" stroke="#000000" d="M39.9707,-250.1366C48.5515,-260.3587 60.3341,-273.5691 72,-284 86.1248,-296.6294 102.9955,-309.0669 117.6784,-319.1658"/>
<polygon fill="#000000" stroke="#000000" points="115.7911,-322.1148 126.0334,-324.8255 119.717,-316.3193 115.7911,-322.1148"/>
<text text-anchor="middle" x="85" y="-308.8" font-family="Times,serif" font-size="14.00" fill="#000000">कन्</text>
</g>
<!-- Node6 -->
<g id="node6" class="node">
<title>Node6</title>
<g id="a_node6"><a xlink:title="छोटा, नन्हा">
<polygon fill="none" stroke="#0000ff" points="180.0467,-306 126.0467,-306 126.0467,-270 180.0467,-270 180.0467,-306"/>
<text text-anchor="middle" x="153.0467" y="-284.3" font-family="Times,serif" font-size="14.00" fill="#000000">कणीक</text>
</a>
</g>
</g>
<!-- Node1&#45;&gt;Node6 -->
<g id="edge5" class="edge">
<title>Node1&#45;&gt;Node6</title>
<path fill="none" stroke="#000000" d="M49.8261,-243.779C68.4893,-251.7745 95.2241,-263.2281 116.8089,-272.4752"/>
<polygon fill="#000000" stroke="#000000" points="115.4399,-275.6964 126.0102,-276.4172 118.1965,-269.262 115.4399,-275.6964"/>
<text text-anchor="middle" x="85" y="-268.8" font-family="Times,serif" font-size="14.00" fill="#000000">ईकन्</text>
</g>
<!-- Node7 -->
<g id="node7" class="node">
<title>Node7</title>
<polygon fill="none" stroke="#0000ff" points="180.0467,-252 126.0467,-252 126.0467,-216 180.0467,-216 180.0467,-252"/>
<text text-anchor="middle" x="153.0467" y="-230.3" font-family="Times,serif" font-size="14.00" fill="#000000">कणे</text>
</g>
<!-- Node1&#45;&gt;Node7 -->
<g id="edge6" class="edge">
<title>Node1&#45;&gt;Node7</title>
<path fill="none" stroke="#000000" d="M54.0402,-234C71.9448,-234 95.6764,-234 115.4167,-234"/>
<polygon fill="#000000" stroke="#000000" points="115.6164,-237.5001 125.6163,-234 115.6163,-230.5001 115.6164,-237.5001"/>
<text text-anchor="middle" x="85" y="-237.8" font-family="Times,serif" font-size="14.00" fill="#000000">ए</text>
</g>
<!-- Node8 -->
<g id="node8" class="node">
<title>Node8</title>
<g id="a_node8"><a xlink:title="एक आँख वाला, अक्ष्णा काणः &#45;">
<polygon fill="none" stroke="#0000ff" points="180.0467,-198 126.0467,-198 126.0467,-162 180.0467,-162 180.0467,-198"/>
<text text-anchor="middle" x="153.0467" y="-176.3" font-family="Times,serif" font-size="14.00" fill="#000000">काण</text>
</a>
</g>
</g>
<!-- Node1&#45;&gt;Node8 -->
<g id="edge7" class="edge">
<title>Node1&#45;&gt;Node8</title>
<path fill="none" stroke="#000000" d="M49.8261,-224.221C68.4893,-216.2255 95.2241,-204.7719 116.8089,-195.5248"/>
<polygon fill="#000000" stroke="#000000" points="118.1965,-198.738 126.0102,-191.5828 115.4399,-192.3036 118.1965,-198.738"/>
<text text-anchor="middle" x="85" y="-217.8" font-family="Times,serif" font-size="14.00" fill="#000000">घञ्</text>
</g>
<!-- Node9 -->
<g id="node9" class="node">
<title>Node9</title>
<g id="a_node9"><a xlink:title="अनुभाग, अंश, खंड">
<polygon fill="none" stroke="#0000ff" points="180.0467,-144 126.0467,-144 126.0467,-108 180.0467,-108 180.0467,-144"/>
<text text-anchor="middle" x="153.0467" y="-122.3" font-family="Times,serif" font-size="14.00" fill="#000000">काण्ड</text>
</a>
</g>
</g>
<!-- Node1&#45;&gt;Node9 -->
<g id="edge8" class="edge">
<title>Node1&#45;&gt;Node9</title>
<path fill="none" stroke="#000000" d="M40.0513,-218.2425C48.6643,-208.2472 60.4524,-195.3049 72,-185 86.1115,-172.4071 102.847,-159.8738 117.4357,-149.6187"/>
<polygon fill="#000000" stroke="#000000" points="119.5172,-152.4346 125.7413,-143.8607 115.5289,-146.6818 119.5172,-152.4346"/>
<text text-anchor="middle" x="85" y="-188.8" font-family="Times,serif" font-size="14.00" fill="#000000">ड</text>
</g>
<!-- Node10 -->
<g id="node10" class="node">
<title>Node10</title>
<g id="a_node10"><a xlink:title="अनाज, घट्ठा, चकत्ता, घाव का चिह्न, ज्ञास्यसि कियद्भुजो मे रक्षति मौर्वीकिणाङ्क इति">
<polygon fill="none" stroke="#0000ff" points="180.0467,-90 126.0467,-90 126.0467,-54 180.0467,-54 180.0467,-90"/>
<text text-anchor="middle" x="153.0467" y="-68.3" font-family="Times,serif" font-size="14.00" fill="#000000">किण</text>
</a>
</g>
</g>
<!-- Node1&#45;&gt;Node10 -->
<g id="edge9" class="edge">
<title>Node1&#45;&gt;Node10</title>
<path fill="none" stroke="#000000" d="M34.2811,-216.3183C42.242,-197.9422 56.0168,-168.7438 72,-146 88.4523,-122.5887 94.5649,-117.9552 116,-99 116.8347,-98.2619 117.6888,-97.5238 118.5579,-96.7878"/>
<polygon fill="#000000" stroke="#000000" points="121.0513,-99.2743 126.6559,-90.2833 116.6677,-93.8168 121.0513,-99.2743"/>
<text text-anchor="middle" x="85" y="-149.8" font-family="Times,serif" font-size="14.00" fill="#000000">अच्</text>
</g>
<!-- Node11 -->
<g id="node11" class="node">
<title>Node11</title>
<g id="a_node11"><a xlink:title="पाप#मदिरा के निर्माण में खमीर उठाने वाला बीज, या औषधि">
<polygon fill="none" stroke="#0000ff" points="180.0467,-36 126.0467,-36 126.0467,0 180.0467,0 180.0467,-36"/>
<text text-anchor="middle" x="153.0467" y="-14.3" font-family="Times,serif" font-size="14.00" fill="#000000">किण्व</text>
</a>
</g>
</g>
<!-- Node1&#45;&gt;Node11 -->
<g id="edge10" class="edge">
<title>Node1&#45;&gt;Node11</title>
<path fill="none" stroke="#000000" d="M30.63,-215.7976C36.5477,-188.6598 49.8866,-136.5511 72,-97 86.7743,-70.5753 93.8314,-65.6179 116,-45 116.8159,-44.2412 117.6533,-43.4846 118.5075,-42.7323"/>
<polygon fill="#000000" stroke="#000000" points="121.0264,-45.1919 126.5184,-36.1316 116.575,-39.7896 121.0264,-45.1919"/>
<text text-anchor="middle" x="85" y="-100.8" font-family="Times,serif" font-size="14.00" fill="#000000">क्वन्</text>
</g>
<!-- Node3 -->
<g id="node3" class="node">
<title>Node3</title>
<g id="a_node3"><a xlink:title="खटमल, णिः, इसी प्रकार ’ओकोदनी’">
<polygon fill="none" stroke="#0000ff" points="300.0934,-468 246.0934,-468 246.0934,-432 300.0934,-432 300.0934,-468"/>
<text text-anchor="middle" x="273.0934" y="-446.3" font-family="Times,serif" font-size="14.00" fill="#000000">ओकण</text>
</a>
</g>
</g>
<!-- Node2&#45;&gt;Node3 -->
<g id="edge2" class="edge">
<title>Node2&#45;&gt;Node3</title>
<path fill="none" stroke="#000000" d="M190.3722,-450C204.8831,-450 221.4696,-450 235.9619,-450"/>
<polygon fill="#000000" stroke="#000000" points="236.0848,-453.5001 246.0848,-450 236.0848,-446.5001 236.0848,-453.5001"/>
<text text-anchor="middle" x="218.0934" y="-453.8" font-family="Times,serif" font-size="14.00" fill="#000000">अच्</text>
</g>
</g>
</svg>
