<?xml version="1.0" encoding="UTF-8" standalone="no"?>
<!DOCTYPE svg PUBLIC "-//W3C//DTD SVG 1.1//EN"
 "http://www.w3.org/Graphics/SVG/1.1/DTD/svg11.dtd">
<!-- Generated by graphviz version 2.36.0 (20140111.2315)
 -->
<!-- Title: G Pages: 1 -->
<svg width="538pt" height="1056pt"
 viewBox="0.00 0.00 538.00 1056.00" xmlns="http://www.w3.org/2000/svg" xmlns:xlink="http://www.w3.org/1999/xlink">
<g id="graph0" class="graph" transform="scale(1 1) rotate(0) translate(4 1052)">
<title>G</title>
<polygon fill="white" stroke="none" points="-4,4 -4,-1052 534,-1052 534,4 -4,4"/>
<!-- Node1 -->
<g id="node1" class="node"><title>Node1</title>
<ellipse fill="none" stroke="red" cx="27" cy="-531" rx="27" ry="18"/>
<text text-anchor="middle" x="27" y="-527.3" font-family="Times,serif" font-size="14.00">काश्</text>
</g>
<!-- Node2 -->
<g id="node2" class="node"><title>Node2</title>
<ellipse fill="none" stroke="red" cx="164" cy="-949" rx="42.4939" ry="18"/>
<text text-anchor="middle" x="164" y="-945.3" font-family="Times,serif" font-size="14.00">अव_काश्</text>
</g>
<!-- Node1&#45;&gt;Node2 -->
<g id="edge1" class="edge"><title>Node1&#45;&gt;Node2</title>
<path fill="none" stroke="black" d="M28.0642,-549.099C28.7698,-597.192 34.2444,-731.553 72,-835 85.2771,-871.378 93.0477,-879.385 118,-909 123.001,-914.935 128.886,-920.793 134.723,-926.118"/>
<polygon fill="black" stroke="black" points="132.741,-929.035 142.563,-933.007 137.361,-923.777 132.741,-929.035"/>
</g>
<!-- Node7 -->
<g id="node7" class="node"><title>Node7</title>
<ellipse fill="none" stroke="red" cx="164" cy="-882" rx="40.0939" ry="18"/>
<text text-anchor="middle" x="164" y="-878.3" font-family="Times,serif" font-size="14.00">आ_काश्</text>
</g>
<!-- Node1&#45;&gt;Node7 -->
<g id="edge6" class="edge"><title>Node1&#45;&gt;Node7</title>
<path fill="none" stroke="black" d="M27.4704,-549.284C26.867,-594.763 29.6797,-715.681 72,-804 84.0376,-829.122 108.371,-849.3 128.849,-862.834"/>
<polygon fill="black" stroke="black" points="127.023,-865.821 137.342,-868.223 130.773,-859.91 127.023,-865.821"/>
</g>
<!-- Node9 -->
<g id="node9" class="node"><title>Node9</title>
<g id="a_node9"><a xlink:title="छत में या चटाइयों के बनाने के लिए प्रयुक्त होने वाला एक प्रकार का घास">
<polygon fill="none" stroke="blue" points="191,-846 137,-846 137,-810 191,-810 191,-846"/>
<text text-anchor="middle" x="164" y="-824.3" font-family="Times,serif" font-size="14.00">काश</text>
</a>
</g>
</g>
<!-- Node1&#45;&gt;Node9 -->
<g id="edge8" class="edge"><title>Node1&#45;&gt;Node9</title>
<path fill="none" stroke="black" d="M28.4385,-549.067C30.043,-587.911 37.4931,-681.405 72,-750 85.7175,-777.269 94.432,-781.602 118,-801 121.245,-803.671 124.781,-806.255 128.398,-808.699"/>
<polygon fill="black" stroke="black" points="126.575,-811.687 136.888,-814.116 130.341,-805.786 126.575,-811.687"/>
<text text-anchor="middle" x="86" y="-788.8" font-family="Times,serif" font-size="14.00">अच्</text>
</g>
<!-- Node10 -->
<g id="node10" class="node"><title>Node10</title>
<g id="a_node10"><a xlink:title="एक देश का नाम">
<polygon fill="none" stroke="blue" points="191,-792 137,-792 137,-756 191,-756 191,-792"/>
<text text-anchor="middle" x="164" y="-770.3" font-family="Times,serif" font-size="14.00">काशि</text>
</a>
</g>
</g>
<!-- Node1&#45;&gt;Node10 -->
<g id="edge9" class="edge"><title>Node1&#45;&gt;Node10</title>
<path fill="none" stroke="black" d="M29.8981,-549.006C33.8395,-580.656 44.9139,-647.587 72,-697 86.5146,-723.479 94.5913,-727.925 118,-747 121.258,-749.655 124.802,-752.229 128.425,-754.666"/>
<polygon fill="black" stroke="black" points="126.605,-757.657 136.92,-760.077 130.365,-751.753 126.605,-757.657"/>
<text text-anchor="middle" x="86" y="-734.8" font-family="Times,serif" font-size="14.00">इक्</text>
</g>
<!-- Node11 -->
<g id="node11" class="node"><title>Node11</title>
<g id="a_node11"><a xlink:title="गंगा के किनारे स्थित एक प्रसिद्ध नगरी, वर्तमान वाराणसी, सात पावन नदियों में से एक, &#160;दे* कांची">
<polygon fill="none" stroke="blue" points="191,-738 137,-738 137,-702 191,-702 191,-738"/>
<text text-anchor="middle" x="164" y="-716.3" font-family="Times,serif" font-size="14.00">काशि</text>
</a>
</g>
</g>
<!-- Node1&#45;&gt;Node11 -->
<g id="edge10" class="edge"><title>Node1&#45;&gt;Node11</title>
<path fill="none" stroke="black" d="M32.6373,-548.817C39.1565,-571.946 52.4618,-613.014 72,-644 87.9319,-669.267 94.749,-674.248 118,-693 121.271,-695.638 124.824,-698.202 128.452,-700.633"/>
<polygon fill="black" stroke="black" points="126.636,-703.626 136.953,-706.036 130.391,-697.718 126.636,-703.626"/>
<text text-anchor="middle" x="86" y="-681.8" font-family="Times,serif" font-size="14.00">इन्</text>
</g>
<!-- Node12 -->
<g id="node12" class="node"><title>Node12</title>
<g id="a_node12"><a xlink:title="दीप्यमान, किसी का रूप धारण किये हुए दिखाई देने वाला या प्रकट होने वाला, प्रायः समास के अन्त में">
<polygon fill="none" stroke="blue" points="192,-684 136,-684 136,-648 192,-648 192,-684"/>
<text text-anchor="middle" x="164" y="-662.3" font-family="Times,serif" font-size="14.00">काशिनी</text>
</a>
</g>
</g>
<!-- Node1&#45;&gt;Node12 -->
<g id="edge11" class="edge"><title>Node1&#45;&gt;Node12</title>
<path fill="none" stroke="black" d="M37.3698,-547.82C45.6006,-561.91 58.3629,-582.196 72,-598 89.8918,-618.734 95.9389,-622.772 118,-639 120.963,-641.18 124.111,-643.343 127.312,-645.442"/>
<polygon fill="black" stroke="black" points="125.492,-648.432 135.816,-650.811 129.229,-642.513 125.492,-648.432"/>
<text text-anchor="middle" x="86" y="-628.8" font-family="Times,serif" font-size="14.00">इन्</text>
</g>
<!-- Node13 -->
<g id="node13" class="node"><title>Node13</title>
<g id="a_node13"><a xlink:title="दीप्यमान, किसी का रूप धारण किये हुए दिखाई देने वाला या प्रकट होने वाला, प्रायः समास के अन्त में">
<polygon fill="none" stroke="blue" points="191,-630 137,-630 137,-594 191,-594 191,-630"/>
<text text-anchor="middle" x="164" y="-608.3" font-family="Times,serif" font-size="14.00">काशिन्</text>
</a>
</g>
</g>
<!-- Node1&#45;&gt;Node13 -->
<g id="edge12" class="edge"><title>Node1&#45;&gt;Node13</title>
<path fill="none" stroke="black" d="M45.1059,-544.821C53.0718,-550.996 62.8031,-558.177 72,-564 89.8264,-575.287 110.577,-586.377 127.757,-595.05"/>
<polygon fill="black" stroke="black" points="126.383,-598.275 136.894,-599.605 129.506,-592.011 126.383,-598.275"/>
<text text-anchor="middle" x="86" y="-582.8" font-family="Times,serif" font-size="14.00">इन्</text>
</g>
<!-- Node14 -->
<g id="node14" class="node"><title>Node14</title>
<g id="a_node14"><a xlink:title="गंगा के किनारे स्थित एक प्रसिद्ध नगरी, वर्तमान वाराणसी, सात पावन नदियों में से एक, दे* कांची">
<polygon fill="none" stroke="blue" points="191,-576 137,-576 137,-540 191,-540 191,-576"/>
<text text-anchor="middle" x="164" y="-554.3" font-family="Times,serif" font-size="14.00">काशी</text>
</a>
</g>
</g>
<!-- Node1&#45;&gt;Node14 -->
<g id="edge13" class="edge"><title>Node1&#45;&gt;Node14</title>
<path fill="none" stroke="black" d="M53.0761,-536.015C73.7999,-540.16 103.496,-546.099 126.799,-550.76"/>
<polygon fill="black" stroke="black" points="126.183,-554.206 136.675,-552.735 127.556,-547.342 126.183,-554.206"/>
<text text-anchor="middle" x="86" y="-548.8" font-family="Times,serif" font-size="14.00">अच्</text>
</g>
<!-- Node15 -->
<g id="node15" class="node"><title>Node15</title>
<g id="a_node15"><a xlink:title="एक प्रकार का भाला">
<polygon fill="none" stroke="blue" points="191,-522 137,-522 137,-486 191,-486 191,-522"/>
<text text-anchor="middle" x="164" y="-500.3" font-family="Times,serif" font-size="14.00">काशू</text>
</a>
</g>
</g>
<!-- Node1&#45;&gt;Node15 -->
<g id="edge14" class="edge"><title>Node1&#45;&gt;Node15</title>
<path fill="none" stroke="black" d="M52.6309,-525.225C58.9347,-523.796 65.7097,-522.302 72,-521 89.986,-517.278 110.048,-513.491 126.749,-510.439"/>
<polygon fill="black" stroke="black" points="127.45,-513.869 136.665,-508.641 126.201,-506.981 127.45,-513.869"/>
<text text-anchor="middle" x="86" y="-524.8" font-family="Times,serif" font-size="14.00">ऊ</text>
</g>
<!-- Node16 -->
<g id="node16" class="node"><title>Node16</title>
<g id="a_node16"><a xlink:title="एक पौधा जिसे लोग बहुधा गांधारी के नाम से पुकारते हैं, काश्मर्याः कृतमालमुद्गतदलं को यष्टिकष्टीकते &#45;">
<polygon fill="none" stroke="blue" points="191.5,-468 136.5,-468 136.5,-432 191.5,-432 191.5,-468"/>
<text text-anchor="middle" x="164" y="-446.3" font-family="Times,serif" font-size="14.00">काश्मरी</text>
</a>
</g>
</g>
<!-- Node1&#45;&gt;Node16 -->
<g id="edge15" class="edge"><title>Node1&#45;&gt;Node16</title>
<path fill="none" stroke="black" d="M44.1195,-516.872C52.1971,-510.137 62.3031,-502.215 72,-496 89.4792,-484.796 110.042,-474.204 127.195,-466.013"/>
<polygon fill="black" stroke="black" points="128.769,-469.141 136.332,-461.722 125.793,-462.805 128.769,-469.141"/>
<text text-anchor="middle" x="86" y="-499.8" font-family="Times,serif" font-size="14.00">वनिप्</text>
</g>
<!-- Node17 -->
<g id="node17" class="node"><title>Node17</title>
<g id="a_node17"><a xlink:title="संसार का कोई भाग या प्रदेश दिशा, प्रदेश">
<polygon fill="none" stroke="blue" points="191,-414 137,-414 137,-378 191,-378 191,-414"/>
<text text-anchor="middle" x="164" y="-392.3" font-family="Times,serif" font-size="14.00">काष्ठा</text>
</a>
</g>
</g>
<!-- Node1&#45;&gt;Node17 -->
<g id="edge16" class="edge"><title>Node1&#45;&gt;Node17</title>
<path fill="none" stroke="black" d="M36.5978,-514.137C44.6205,-499.281 57.5062,-477.5 72,-461 89.5007,-441.077 96.3473,-438.309 118,-423 121.255,-420.699 124.711,-418.396 128.205,-416.158"/>
<polygon fill="black" stroke="black" points="130.229,-419.022 136.876,-410.771 126.535,-413.076 130.229,-419.022"/>
<text text-anchor="middle" x="86" y="-464.8" font-family="Times,serif" font-size="14.00">क्थन</text>
</g>
<!-- Node18 -->
<g id="node18" class="node"><title>Node18</title>
<ellipse fill="none" stroke="red" cx="164" cy="-342" rx="38.1938" ry="18"/>
<text text-anchor="middle" x="164" y="-338.3" font-family="Times,serif" font-size="14.00">नि_काश्</text>
</g>
<!-- Node1&#45;&gt;Node18 -->
<g id="edge17" class="edge"><title>Node1&#45;&gt;Node18</title>
<path fill="none" stroke="black" d="M33.5112,-513.5C44.5716,-480.958 72.3931,-410.666 118,-369 121.178,-366.096 124.716,-363.345 128.373,-360.788"/>
<polygon fill="black" stroke="black" points="130.516,-363.57 137.007,-355.196 126.711,-357.695 130.516,-363.57"/>
</g>
<!-- Node21 -->
<g id="node21" class="node"><title>Node21</title>
<ellipse fill="none" stroke="red" cx="164" cy="-288" rx="46.2923" ry="18"/>
<text text-anchor="middle" x="164" y="-284.3" font-family="Times,serif" font-size="14.00">काश्+णिच्</text>
</g>
<!-- Node1&#45;&gt;Node21 -->
<g id="edge20" class="edge"><title>Node1&#45;&gt;Node21</title>
<path fill="none" stroke="black" d="M30.5962,-512.925C37.3934,-472.035 59.4199,-371.595 118,-315 120.646,-312.444 123.576,-310.023 126.636,-307.757"/>
<polygon fill="black" stroke="black" points="128.613,-310.645 134.929,-302.138 124.687,-304.85 128.613,-310.645"/>
</g>
<!-- Node25 -->
<g id="node25" class="node"><title>Node25</title>
<ellipse fill="none" stroke="red" cx="164" cy="-234" rx="36.2938" ry="18"/>
<text text-anchor="middle" x="164" y="-230.3" font-family="Times,serif" font-size="14.00">प्र_काश्</text>
</g>
<!-- Node1&#45;&gt;Node25 -->
<g id="edge24" class="edge"><title>Node1&#45;&gt;Node25</title>
<path fill="none" stroke="black" d="M29.9329,-512.992C34.181,-477.578 46.0889,-396.854 72,-334 86.6157,-298.546 90.5886,-287.819 118,-261 121.238,-257.832 124.915,-254.876 128.74,-252.17"/>
<polygon fill="black" stroke="black" points="130.75,-255.037 137.233,-246.657 126.939,-249.166 130.75,-255.037"/>
</g>
<!-- Node28 -->
<g id="node28" class="node"><title>Node28</title>
<ellipse fill="none" stroke="red" cx="164" cy="-153" rx="38.1938" ry="18"/>
<text text-anchor="middle" x="164" y="-149.3" font-family="Times,serif" font-size="14.00">वि_काश्</text>
</g>
<!-- Node1&#45;&gt;Node28 -->
<g id="edge27" class="edge"><title>Node1&#45;&gt;Node28</title>
<path fill="none" stroke="black" d="M28.5606,-513C30.4243,-470.33 38.3872,-360.294 72,-276 87.4693,-237.206 118.262,-199.669 139.721,-176.477"/>
<polygon fill="black" stroke="black" points="142.288,-178.856 146.605,-169.181 137.197,-174.052 142.288,-178.856"/>
</g>
<!-- Node32 -->
<g id="node32" class="node"><title>Node32</title>
<ellipse fill="none" stroke="red" cx="164" cy="-72" rx="42.4939" ry="18"/>
<text text-anchor="middle" x="164" y="-68.3" font-family="Times,serif" font-size="14.00">सम्_काश्</text>
</g>
<!-- Node1&#45;&gt;Node32 -->
<g id="edge31" class="edge"><title>Node1&#45;&gt;Node32</title>
<path fill="none" stroke="black" d="M28.7257,-512.953C31.0503,-464.95 40.1415,-330.524 72,-224 85.7866,-177.902 92.1654,-166.591 118,-126 124.522,-115.753 132.775,-105.311 140.426,-96.3752"/>
<polygon fill="black" stroke="black" points="143.25,-98.4644 147.218,-88.6407 137.99,-93.8457 143.25,-98.4644"/>
</g>
<!-- Node3 -->
<g id="node3" class="node"><title>Node3</title>
<ellipse fill="none" stroke="red" cx="334" cy="-1030" rx="61.99" ry="18"/>
<text text-anchor="middle" x="334" y="-1026.3" font-family="Times,serif" font-size="14.00">अभि_अव_काश्</text>
</g>
<!-- Node2&#45;&gt;Node3 -->
<g id="edge2" class="edge"><title>Node2&#45;&gt;Node3</title>
<path fill="none" stroke="black" d="M191.625,-962.944C213.155,-974.096 244.328,-989.967 272,-1003 277.638,-1005.66 283.601,-1008.39 289.504,-1011.05"/>
<polygon fill="black" stroke="black" points="288.116,-1014.26 298.673,-1015.14 290.971,-1007.87 288.116,-1014.26"/>
</g>
<!-- Node5 -->
<g id="node5" class="node"><title>Node5</title>
<g id="a_node5"><a xlink:title="अवसर, मौका ताते चापद्वितीये वहति रणधुरां को भयस्यावकाशः">
<polygon fill="none" stroke="blue" points="363.5,-994 304.5,-994 304.5,-958 363.5,-958 363.5,-994"/>
<text text-anchor="middle" x="334" y="-972.3" font-family="Times,serif" font-size="14.00">अवकाश</text>
</a>
</g>
</g>
<!-- Node2&#45;&gt;Node5 -->
<g id="edge4" class="edge"><title>Node2&#45;&gt;Node5</title>
<path fill="none" stroke="black" d="M203.965,-955.262C231.211,-959.641 267.433,-965.462 294.562,-969.823"/>
<polygon fill="black" stroke="black" points="294.049,-973.285 304.477,-971.416 295.159,-966.373 294.049,-973.285"/>
<text text-anchor="middle" x="241" y="-965.8" font-family="Times,serif" font-size="14.00">घञ्</text>
</g>
<!-- Node6 -->
<g id="node6" class="node"><title>Node6</title>
<g id="a_node6"><a xlink:title="स्थान, जगह, ठौर अवकाशं किलोदन्वान्रामायाभ्यर्थितो ददौ">
<polygon fill="none" stroke="blue" points="365.5,-940 302.5,-940 302.5,-904 365.5,-904 365.5,-940"/>
<text text-anchor="middle" x="334" y="-918.3" font-family="Times,serif" font-size="14.00">अवकाशः</text>
</a>
</g>
</g>
<!-- Node2&#45;&gt;Node6 -->
<g id="edge5" class="edge"><title>Node2&#45;&gt;Node6</title>
<path fill="none" stroke="black" d="M203.965,-942.738C230.407,-938.488 265.301,-932.88 292.136,-928.567"/>
<polygon fill="black" stroke="black" points="293.039,-931.967 302.357,-926.925 291.928,-925.056 293.039,-931.967"/>
<text text-anchor="middle" x="241" y="-941.8" font-family="Times,serif" font-size="14.00">घञ्</text>
</g>
<!-- Node4 -->
<g id="node4" class="node"><title>Node4</title>
<g id="a_node4"><a xlink:title="खुली जगह">
<polygon fill="none" stroke="blue" points="530,-1048 456,-1048 456,-1012 530,-1012 530,-1048"/>
<text text-anchor="middle" x="493" y="-1026.3" font-family="Times,serif" font-size="14.00">अभ्यवकाश</text>
</a>
</g>
</g>
<!-- Node3&#45;&gt;Node4 -->
<g id="edge3" class="edge"><title>Node3&#45;&gt;Node4</title>
<path fill="none" stroke="black" d="M396.15,-1030C412.52,-1030 429.949,-1030 445.393,-1030"/>
<polygon fill="black" stroke="black" points="445.732,-1033.5 455.731,-1030 445.731,-1026.5 445.732,-1033.5"/>
<text text-anchor="middle" x="426" y="-1033.8" font-family="Times,serif" font-size="14.00">घञ्</text>
</g>
<!-- Node8 -->
<g id="node8" class="node"><title>Node8</title>
<g id="a_node8"><a xlink:title="आसमान, आकाशग, आकाशचारिन् आदि">
<polygon fill="none" stroke="blue" points="361.5,-886 306.5,-886 306.5,-850 361.5,-850 361.5,-886"/>
<text text-anchor="middle" x="334" y="-864.3" font-family="Times,serif" font-size="14.00">आकाश</text>
</a>
</g>
</g>
<!-- Node7&#45;&gt;Node8 -->
<g id="edge7" class="edge"><title>Node7&#45;&gt;Node8</title>
<path fill="none" stroke="black" d="M203.965,-878.753C231.69,-876.442 268.709,-873.358 295.985,-871.085"/>
<polygon fill="black" stroke="black" points="296.612,-874.545 306.287,-870.226 296.031,-867.569 296.612,-874.545"/>
<text text-anchor="middle" x="241" y="-879.8" font-family="Times,serif" font-size="14.00">घञ्</text>
</g>
<!-- Node19 -->
<g id="node19" class="node"><title>Node19</title>
<g id="a_node19"><a xlink:title="दर्शन, दृष्टि">
<polygon fill="none" stroke="blue" points="361,-414 307,-414 307,-378 361,-378 361,-414"/>
<text text-anchor="middle" x="334" y="-392.3" font-family="Times,serif" font-size="14.00">निकाश</text>
</a>
</g>
</g>
<!-- Node18&#45;&gt;Node19 -->
<g id="edge18" class="edge"><title>Node18&#45;&gt;Node19</title>
<path fill="none" stroke="black" d="M196.206,-352.03C224.851,-361.238 267.271,-374.873 297.265,-384.514"/>
<polygon fill="black" stroke="black" points="296.331,-387.89 306.923,-387.618 298.474,-381.226 296.331,-387.89"/>
<text text-anchor="middle" x="241" y="-372.8" font-family="Times,serif" font-size="14.00">घञ्</text>
</g>
<!-- Node20 -->
<g id="node20" class="node"><title>Node20</title>
<g id="a_node20"><a xlink:title="दर्शन, दृष्टि, क्षितिज, सामीप्य, पड़ोस, समानता, समरूपता">
<polygon fill="none" stroke="blue" points="361,-360 307,-360 307,-324 361,-324 361,-360"/>
<text text-anchor="middle" x="334" y="-338.3" font-family="Times,serif" font-size="14.00">नीकाश</text>
</a>
</g>
</g>
<!-- Node18&#45;&gt;Node20 -->
<g id="edge19" class="edge"><title>Node18&#45;&gt;Node20</title>
<path fill="none" stroke="black" d="M202.702,-342C230.839,-342 269.055,-342 296.819,-342"/>
<polygon fill="black" stroke="black" points="296.906,-345.5 306.906,-342 296.906,-338.5 296.906,-345.5"/>
<text text-anchor="middle" x="241" y="-345.8" font-family="Times,serif" font-size="14.00">अच्</text>
</g>
<!-- Node22 -->
<g id="node22" class="node"><title>Node22</title>
<ellipse fill="none" stroke="red" cx="334" cy="-288" rx="55.7903" ry="18"/>
<text text-anchor="middle" x="334" y="-284.3" font-family="Times,serif" font-size="14.00">प्र_काश्+णिच्</text>
</g>
<!-- Node21&#45;&gt;Node22 -->
<g id="edge21" class="edge"><title>Node21&#45;&gt;Node22</title>
<path fill="none" stroke="black" d="M210.463,-288C228.091,-288 248.609,-288 267.757,-288"/>
<polygon fill="black" stroke="black" points="267.923,-291.5 277.923,-288 267.923,-284.5 267.923,-291.5"/>
</g>
<!-- Node23 -->
<g id="node23" class="node"><title>Node23</title>
<g id="a_node23"><a xlink:title="प्रकट करने वाला, खोजने वाला, उघाड़्ने वाला, सूचित करने वाला, बतलाने वाला, प्रदर्शित करने वाला, स्त्री*&#45;प्रकाशिका#सूर्य">
<polygon fill="none" stroke="blue" points="522.5,-360 463.5,-360 463.5,-324 522.5,-324 522.5,-360"/>
<text text-anchor="middle" x="493" y="-338.3" font-family="Times,serif" font-size="14.00">प्रकाशक</text>
</a>
</g>
</g>
<!-- Node22&#45;&gt;Node23 -->
<g id="edge22" class="edge"><title>Node22&#45;&gt;Node23</title>
<path fill="none" stroke="black" d="M373.005,-301.072C397.412,-309.467 429.012,-320.335 453.513,-328.762"/>
<polygon fill="black" stroke="black" points="452.603,-332.151 463.198,-332.094 454.88,-325.531 452.603,-332.151"/>
<text text-anchor="middle" x="426" y="-325.8" font-family="Times,serif" font-size="14.00">ण्वुल्</text>
</g>
<!-- Node24 -->
<g id="node24" class="node"><title>Node24</title>
<g id="a_node24"><a xlink:title="जतलाना, प्रकट करना, प्रकाश में लाना, उघाड़ना#रोशनी करने वाला, विख्यात करने वाला#विष्णु">
<polygon fill="none" stroke="blue" points="521.5,-306 464.5,-306 464.5,-270 521.5,-270 521.5,-306"/>
<text text-anchor="middle" x="493" y="-284.3" font-family="Times,serif" font-size="14.00">प्रकाशन</text>
</a>
</g>
</g>
<!-- Node22&#45;&gt;Node24 -->
<g id="edge23" class="edge"><title>Node22&#45;&gt;Node24</title>
<path fill="none" stroke="black" d="M389.911,-288C411.1,-288 434.817,-288 454.055,-288"/>
<polygon fill="black" stroke="black" points="454.237,-291.5 464.237,-288 454.237,-284.5 454.237,-291.5"/>
<text text-anchor="middle" x="426" y="-291.8" font-family="Times,serif" font-size="14.00">ल्युट्</text>
</g>
<!-- Node27 -->
<g id="node27" class="node"><title>Node27</title>
<g id="a_node27"><a xlink:title="प्रकट किया गया, स्पष्ट किया गया, प्रदर्शित, प्रकटीकृत">
<polygon fill="none" stroke="blue" points="523.5,-252 462.5,-252 462.5,-216 523.5,-216 523.5,-252"/>
<text text-anchor="middle" x="493" y="-230.3" font-family="Times,serif" font-size="14.00">प्रकाशित</text>
</a>
</g>
</g>
<!-- Node22&#45;&gt;Node27 -->
<g id="edge26" class="edge"><title>Node22&#45;&gt;Node27</title>
<path fill="none" stroke="black" d="M373.005,-274.928C397.173,-266.616 428.393,-255.878 452.79,-247.486"/>
<polygon fill="black" stroke="black" points="454.131,-250.726 462.449,-244.164 451.855,-244.107 454.131,-250.726"/>
<text text-anchor="middle" x="426" y="-262.8" font-family="Times,serif" font-size="14.00">क्त</text>
</g>
<!-- Node26 -->
<g id="node26" class="node"><title>Node26</title>
<g id="a_node26"><a xlink:title="दीप्ति, कान्ति, आभा, उज्ज्वलता#विशद, प्रांजल">
<polygon fill="none" stroke="blue" points="361,-252 307,-252 307,-216 361,-216 361,-252"/>
<text text-anchor="middle" x="334" y="-230.3" font-family="Times,serif" font-size="14.00">प्रकाश</text>
</a>
</g>
</g>
<!-- Node25&#45;&gt;Node26 -->
<g id="edge25" class="edge"><title>Node25&#45;&gt;Node26</title>
<path fill="none" stroke="black" d="M200.628,-234C228.813,-234 268.018,-234 296.441,-234"/>
<polygon fill="black" stroke="black" points="296.762,-237.5 306.762,-234 296.762,-230.5 296.762,-237.5"/>
<text text-anchor="middle" x="241" y="-237.8" font-family="Times,serif" font-size="14.00">अच्</text>
</g>
<!-- Node29 -->
<g id="node29" class="node"><title>Node29</title>
<g id="a_node29"><a xlink:title="प्रदर्शन करने वाला, स्त्री* &#45; शिका">
<polygon fill="none" stroke="blue" points="365,-198 303,-198 303,-162 365,-162 365,-198"/>
<text text-anchor="middle" x="334" y="-176.3" font-family="Times,serif" font-size="14.00">विकाशक</text>
</a>
</g>
</g>
<!-- Node28&#45;&gt;Node29 -->
<g id="edge28" class="edge"><title>Node28&#45;&gt;Node29</title>
<path fill="none" stroke="black" d="M200.628,-158.726C227.65,-163.069 264.803,-169.04 292.871,-173.551"/>
<polygon fill="black" stroke="black" points="292.336,-177.01 302.765,-175.141 293.447,-170.098 292.336,-177.01"/>
<text text-anchor="middle" x="241" y="-170.8" font-family="Times,serif" font-size="14.00">ण्वुल्</text>
</g>
<!-- Node30 -->
<g id="node30" class="node"><title>Node30</title>
<g id="a_node30"><a xlink:title="प्रकटीकरण, प्रदर्शन, दिखावा">
<polygon fill="none" stroke="blue" points="364,-144 304,-144 304,-108 364,-108 364,-144"/>
<text text-anchor="middle" x="334" y="-122.3" font-family="Times,serif" font-size="14.00">विकाशन</text>
</a>
</g>
</g>
<!-- Node28&#45;&gt;Node30 -->
<g id="edge29" class="edge"><title>Node28&#45;&gt;Node30</title>
<path fill="none" stroke="black" d="M200.628,-147.274C227.993,-142.876 265.748,-136.808 293.935,-132.278"/>
<polygon fill="black" stroke="black" points="294.533,-135.727 303.851,-130.685 293.422,-128.816 294.533,-135.727"/>
<text text-anchor="middle" x="241" y="-146.8" font-family="Times,serif" font-size="14.00">ल्युट्</text>
</g>
<!-- Node31 -->
<g id="node31" class="node"><title>Node31</title>
<g id="a_node31"><a xlink:title="दिखाई देने वाला, चमकने वाला, स्त्री* &#45; नी">
<polygon fill="none" stroke="blue" points="366,-90 302,-90 302,-54 366,-54 366,-90"/>
<text text-anchor="middle" x="334" y="-68.3" font-family="Times,serif" font-size="14.00">विकाशिन्</text>
</a>
</g>
</g>
<!-- Node28&#45;&gt;Node31 -->
<g id="edge30" class="edge"><title>Node28&#45;&gt;Node31</title>
<path fill="none" stroke="black" d="M190.319,-139.733C211.881,-128.553 243.763,-112.299 272,-99 278.627,-95.8788 285.703,-92.6517 292.601,-89.5616"/>
<polygon fill="black" stroke="black" points="294.123,-92.7154 301.84,-85.4555 291.28,-86.3187 294.123,-92.7154"/>
<text text-anchor="middle" x="241" y="-123.8" font-family="Times,serif" font-size="14.00">णिनि</text>
</g>
<!-- Node33 -->
<g id="node33" class="node"><title>Node33</title>
<g id="a_node33"><a xlink:title="दर्शन, उपस्थिति#सदृश्, समान, मिलता&#45;जुलता अग्नि, हिरण्य, समास के अन्त में">
<polygon fill="none" stroke="blue" points="361,-36 307,-36 307,-0 361,-0 361,-36"/>
<text text-anchor="middle" x="334" y="-14.3" font-family="Times,serif" font-size="14.00">सङ्काश</text>
</a>
</g>
</g>
<!-- Node32&#45;&gt;Node33 -->
<g id="edge32" class="edge"><title>Node32&#45;&gt;Node33</title>
<path fill="none" stroke="black" d="M186.459,-56.6983C198.205,-49.0358 213.322,-40.2878 228,-35 250.145,-27.0223 276.269,-22.7744 296.919,-20.5199"/>
<polygon fill="black" stroke="black" points="297.262,-24.0031 306.871,-19.5395 296.576,-17.0368 297.262,-24.0031"/>
<text text-anchor="middle" x="241" y="-38.8" font-family="Times,serif" font-size="14.00">अच्</text>
</g>
</g>
</svg>
