<?xml version="1.0" encoding="UTF-8" standalone="no"?>
<!DOCTYPE svg PUBLIC "-//W3C//DTD SVG 1.1//EN"
 "http://www.w3.org/Graphics/SVG/1.1/DTD/svg11.dtd">
<!-- Generated by graphviz version 2.36.0 (20140111.2315)
 -->
<!-- Title: G Pages: 1 -->
<svg width="310pt" height="152pt"
 viewBox="0.00 0.00 310.00 152.00" xmlns="http://www.w3.org/2000/svg" xmlns:xlink="http://www.w3.org/1999/xlink">
<g id="graph0" class="graph" transform="scale(1 1) rotate(0) translate(4 148)">
<title>G</title>
<polygon fill="white" stroke="none" points="-4,4 -4,-148 306,-148 306,4 -4,4"/>
<!-- Node1 -->
<g id="node1" class="node"><title>Node1</title>
<ellipse fill="none" stroke="red" cx="28" cy="-102" rx="27.0966" ry="18"/>
<text text-anchor="middle" x="28" y="-98.3" font-family="Times,serif" font-size="14.00">कत्थ्</text>
</g>
<!-- Node2 -->
<g id="node2" class="node"><title>Node2</title>
<ellipse fill="none" stroke="red" cx="135" cy="-126" rx="40.8928" ry="18"/>
<text text-anchor="middle" x="135" y="-122.3" font-family="Times,serif" font-size="14.00">आ_कत्थ्</text>
</g>
<!-- Node1&#45;&gt;Node2 -->
<g id="edge1" class="edge"><title>Node1&#45;&gt;Node2</title>
<path fill="none" stroke="black" d="M54.1501,-107.749C64.4831,-110.11 76.7771,-112.92 88.5842,-115.619"/>
<polygon fill="black" stroke="black" points="87.8054,-119.031 98.3339,-117.848 89.3652,-112.207 87.8054,-119.031"/>
</g>
<!-- Node4 -->
<g id="node4" class="node"><title>Node4</title>
<ellipse fill="none" stroke="red" cx="135" cy="-72" rx="38.9931" ry="18"/>
<text text-anchor="middle" x="135" y="-68.3" font-family="Times,serif" font-size="14.00">वि_कत्थ्</text>
</g>
<!-- Node1&#45;&gt;Node4 -->
<g id="edge3" class="edge"><title>Node1&#45;&gt;Node4</title>
<path fill="none" stroke="black" d="M53.353,-95.042C64.7463,-91.7868 78.6504,-87.8142 91.6838,-84.0904"/>
<polygon fill="black" stroke="black" points="92.771,-87.4199 101.425,-81.3072 90.8479,-80.6892 92.771,-87.4199"/>
</g>
<!-- Node3 -->
<g id="node3" class="node"><title>Node3</title>
<g id="a_node3"><a xlink:title="डींग मारना, शेखी बघारना">
<polygon fill="none" stroke="blue" points="301.5,-144 236.5,-144 236.5,-108 301.5,-108 301.5,-144"/>
<text text-anchor="middle" x="269" y="-122.3" font-family="Times,serif" font-size="14.00">आकत्थन</text>
</a>
</g>
</g>
<!-- Node2&#45;&gt;Node3 -->
<g id="edge2" class="edge"><title>Node2&#45;&gt;Node3</title>
<path fill="none" stroke="black" d="M175.963,-126C191.773,-126 209.958,-126 225.966,-126"/>
<polygon fill="black" stroke="black" points="226.124,-129.5 236.124,-126 226.124,-122.5 226.124,-129.5"/>
<text text-anchor="middle" x="206" y="-129.8" font-family="Times,serif" font-size="14.00">ल्युट्</text>
</g>
<!-- Node5 -->
<g id="node5" class="node"><title>Node5</title>
<g id="a_node5"><a xlink:title="दर्पोक्ति, धौंस जमाना#शेखी बधारने वाला, डींग मारने वाला, आत्मश्लाघा करने वाला, अपनी प्रशंसा करने वाला, विद्वांसोऽप्यविकत्थना भवंति">
<polygon fill="none" stroke="blue" points="300,-90 238,-90 238,-54 300,-54 300,-90"/>
<text text-anchor="middle" x="269" y="-68.3" font-family="Times,serif" font-size="14.00">विकत्थन</text>
</a>
</g>
</g>
<!-- Node4&#45;&gt;Node5 -->
<g id="edge4" class="edge"><title>Node4&#45;&gt;Node5</title>
<path fill="none" stroke="black" d="M174.18,-72C190.952,-72 210.659,-72 227.671,-72"/>
<polygon fill="black" stroke="black" points="227.864,-75.5001 237.864,-72 227.864,-68.5001 227.864,-75.5001"/>
<text text-anchor="middle" x="206" y="-75.8" font-family="Times,serif" font-size="14.00">ल्युट्</text>
</g>
<!-- Node6 -->
<g id="node6" class="node"><title>Node6</title>
<g id="a_node6"><a xlink:title="शेखी बधारना, डींग, आत्मश्लाघा, दर्पोक्ति">
<polygon fill="none" stroke="blue" points="297.5,-36 240.5,-36 240.5,-0 297.5,-0 297.5,-36"/>
<text text-anchor="middle" x="269" y="-14.3" font-family="Times,serif" font-size="14.00">विकत्था</text>
</a>
</g>
</g>
<!-- Node4&#45;&gt;Node6 -->
<g id="edge5" class="edge"><title>Node4&#45;&gt;Node6</title>
<path fill="none" stroke="black" d="M164.642,-60.2828C184.105,-52.3206 210.031,-41.7144 231.048,-33.1166"/>
<polygon fill="black" stroke="black" points="232.388,-36.3501 240.318,-29.3243 229.738,-29.8713 232.388,-36.3501"/>
<text text-anchor="middle" x="206" y="-51.8" font-family="Times,serif" font-size="14.00">अच्</text>
</g>
</g>
</svg>
