<?xml version="1.0" encoding="UTF-8" standalone="no"?>
<!DOCTYPE svg PUBLIC "-//W3C//DTD SVG 1.1//EN"
 "http://www.w3.org/Graphics/SVG/1.1/DTD/svg11.dtd">
<!-- Generated by graphviz version 2.40.1 (20161225.0304)
 -->
<!-- Title: G Pages: 1 -->
<svg width="324pt" height="665pt"
 viewBox="0.00 0.00 324.19 665.00" xmlns="http://www.w3.org/2000/svg" xmlns:xlink="http://www.w3.org/1999/xlink">
<g id="graph0" class="graph" transform="scale(1 1) rotate(0) translate(4 661)">
<title>G</title>
<polygon fill="#ffffff" stroke="transparent" points="-4,4 -4,-661 320.1938,-661 320.1938,4 -4,4"/>
<!-- Node1 -->
<g id="node1" class="node">
<title>Node1</title>
<ellipse fill="none" stroke="#ff0000" cx="27" cy="-342" rx="27" ry="18"/>
<text text-anchor="middle" x="27" y="-338.3" font-family="Times,serif" font-size="14.00" fill="#000000">क्षि</text>
</g>
<!-- Node2 -->
<g id="node2" class="node">
<title>Node2</title>
<ellipse fill="none" stroke="#ff0000" cx="156.0969" cy="-626" rx="35.194" ry="18"/>
<text text-anchor="middle" x="156.0969" y="-622.3" font-family="Times,serif" font-size="14.00" fill="#000000">अप_क्षि</text>
</g>
<!-- Node1&#45;&gt;Node2 -->
<g id="edge1" class="edge">
<title>Node1&#45;&gt;Node2</title>
<path fill="none" stroke="#000000" d="M30.6177,-360.0206C36.9418,-389.8737 51.3316,-451.142 72,-500 88.9888,-540.1598 95.8251,-549.3958 121,-585 124.905,-590.5227 129.3984,-596.1909 133.8379,-601.4834"/>
<polygon fill="#000000" stroke="#000000" points="131.4967,-604.1279 140.6775,-609.416 136.7982,-599.5569 131.4967,-604.1279"/>
</g>
<!-- Node4 -->
<g id="node4" class="node">
<title>Node4</title>
<ellipse fill="none" stroke="#ff0000" cx="156.0969" cy="-558" rx="35.194" ry="18"/>
<text text-anchor="middle" x="156.0969" y="-554.3" font-family="Times,serif" font-size="14.00" fill="#000000">अव_क्षि</text>
</g>
<!-- Node1&#45;&gt;Node4 -->
<g id="edge3" class="edge">
<title>Node1&#45;&gt;Node4</title>
<path fill="none" stroke="#000000" d="M31.9959,-359.8685C39.1227,-384.0583 53.4275,-428.1995 72,-463 89.539,-495.8639 95.0752,-504.25 121,-531 123.0063,-533.0702 125.1779,-535.1132 127.4234,-537.0926"/>
<polygon fill="#000000" stroke="#000000" points="125.2705,-539.854 135.2092,-543.5245 129.7287,-534.4572 125.2705,-539.854"/>
</g>
<!-- Node7 -->
<g id="node7" class="node">
<title>Node7</title>
<ellipse fill="none" stroke="#ff0000" cx="156.0969" cy="-504" rx="34.394" ry="18"/>
<text text-anchor="middle" x="156.0969" y="-500.3" font-family="Times,serif" font-size="14.00" fill="#000000">उप_क्षि</text>
</g>
<!-- Node1&#45;&gt;Node7 -->
<g id="edge6" class="edge">
<title>Node1&#45;&gt;Node7</title>
<path fill="none" stroke="#000000" d="M33.0372,-359.6555C40.3023,-379.3115 53.829,-411.4128 72,-435 86.9562,-454.4141 108.3581,-471.8754 125.8282,-484.3754"/>
<polygon fill="#000000" stroke="#000000" points="123.8376,-487.2542 134.0431,-490.1 127.8398,-481.5111 123.8376,-487.2542"/>
</g>
<!-- Node9 -->
<g id="node9" class="node">
<title>Node9</title>
<g id="a_node9"><a xlink:title="नाश">
<polygon fill="none" stroke="#0000ff" points="183.0969,-468 129.0969,-468 129.0969,-432 183.0969,-432 183.0969,-468"/>
<text text-anchor="middle" x="156.0969" y="-446.3" font-family="Times,serif" font-size="14.00" fill="#000000">क्ष</text>
</a>
</g>
</g>
<!-- Node1&#45;&gt;Node9 -->
<g id="edge8" class="edge">
<title>Node1&#45;&gt;Node9</title>
<path fill="none" stroke="#000000" d="M39.9093,-358.2059C48.4655,-368.4557 60.2439,-381.6709 72,-392 86.8132,-405.0151 104.6215,-417.6649 120.0295,-427.8119"/>
<polygon fill="#000000" stroke="#000000" points="118.4871,-430.9829 128.7833,-433.481 122.2922,-425.1074 118.4871,-430.9829"/>
<text text-anchor="middle" x="87.5" y="-419.8" font-family="Times,serif" font-size="14.00" fill="#000000">ड</text>
</g>
<!-- Node10 -->
<g id="node10" class="node">
<title>Node10</title>
<g id="a_node10"><a xlink:title="तपेदिक के रोगी की खांसी, तपेदिक">
<polygon fill="none" stroke="#0000ff" points="183.0969,-414 129.0969,-414 129.0969,-378 183.0969,-378 183.0969,-414"/>
<text text-anchor="middle" x="156.0969" y="-392.3" font-family="Times,serif" font-size="14.00" fill="#000000">क्षयथु</text>
</a>
</g>
</g>
<!-- Node1&#45;&gt;Node10 -->
<g id="edge9" class="edge">
<title>Node1&#45;&gt;Node10</title>
<path fill="none" stroke="#000000" d="M49.8831,-351.6885C56.9693,-354.6816 64.8047,-357.9837 72,-361 87.553,-367.5198 104.7414,-374.6812 119.5038,-380.8183"/>
<polygon fill="#000000" stroke="#000000" points="118.2353,-384.0813 128.8129,-384.6863 120.9213,-377.6171 118.2353,-384.0813"/>
<text text-anchor="middle" x="87.5" y="-376.8" font-family="Times,serif" font-size="14.00" fill="#000000">अथुच्</text>
</g>
<!-- Node11 -->
<g id="node11" class="node">
<title>Node11</title>
<g id="a_node11"><a xlink:title="बर्बाद करने वाला, नाश कारी">
<polygon fill="none" stroke="#0000ff" points="183.0969,-360 129.0969,-360 129.0969,-324 183.0969,-324 183.0969,-360"/>
<text text-anchor="middle" x="156.0969" y="-338.3" font-family="Times,serif" font-size="14.00" fill="#000000">क्षयिष्णु</text>
</a>
</g>
</g>
<!-- Node1&#45;&gt;Node11 -->
<g id="edge10" class="edge">
<title>Node1&#45;&gt;Node11</title>
<path fill="none" stroke="#000000" d="M54.0629,-342C72.9115,-342 98.2859,-342 119.0148,-342"/>
<polygon fill="#000000" stroke="#000000" points="119.0696,-345.5001 129.0696,-342 119.0695,-338.5001 119.0696,-345.5001"/>
<text text-anchor="middle" x="87.5" y="-345.8" font-family="Times,serif" font-size="14.00" fill="#000000">इष्णुच्</text>
</g>
<!-- Node12 -->
<g id="node12" class="node">
<title>Node12</title>
<g id="a_node12"><a xlink:title="पृथ्वी">
<polygon fill="none" stroke="#0000ff" points="183.0969,-306 129.0969,-306 129.0969,-270 183.0969,-270 183.0969,-306"/>
<text text-anchor="middle" x="156.0969" y="-284.3" font-family="Times,serif" font-size="14.00" fill="#000000">क्षिति</text>
</a>
</g>
</g>
<!-- Node1&#45;&gt;Node12 -->
<g id="edge11" class="edge">
<title>Node1&#45;&gt;Node12</title>
<path fill="none" stroke="#000000" d="M49.8831,-332.3115C56.9693,-329.3184 64.8047,-326.0163 72,-323 87.553,-316.4802 104.7414,-309.3188 119.5038,-303.1817"/>
<polygon fill="#000000" stroke="#000000" points="120.9213,-306.3829 128.8129,-299.3137 118.2353,-299.9187 120.9213,-306.3829"/>
<text text-anchor="middle" x="87.5" y="-326.8" font-family="Times,serif" font-size="14.00" fill="#000000">क्तिन्</text>
</g>
<!-- Node13 -->
<g id="node13" class="node">
<title>Node13</title>
<g id="a_node13"><a xlink:title="हानि, विनाश, बर्वादी, ह्रास">
<polygon fill="none" stroke="#0000ff" points="183.0969,-252 129.0969,-252 129.0969,-216 183.0969,-216 183.0969,-252"/>
<text text-anchor="middle" x="156.0969" y="-230.3" font-family="Times,serif" font-size="14.00" fill="#000000">क्षिया</text>
</a>
</g>
</g>
<!-- Node1&#45;&gt;Node13 -->
<g id="edge12" class="edge">
<title>Node1&#45;&gt;Node13</title>
<path fill="none" stroke="#000000" d="M39.4471,-325.8815C47.9984,-315.3405 59.9452,-301.6101 72,-291 86.8308,-277.9466 104.784,-265.4034 120.2876,-255.423"/>
<polygon fill="#000000" stroke="#000000" points="122.508,-258.1601 129.0907,-249.8584 118.7678,-252.2431 122.508,-258.1601"/>
<text text-anchor="middle" x="87.5" y="-294.8" font-family="Times,serif" font-size="14.00" fill="#000000">अङ्</text>
</g>
<!-- Node14 -->
<g id="node14" class="node">
<title>Node14</title>
<g id="a_node14"><a xlink:title="खेत, मैदान, भूमि, चीयते बालिशस्यापि सत्क्षेत्रपतिता कृषिः">
<polygon fill="none" stroke="#0000ff" points="183.0969,-198 129.0969,-198 129.0969,-162 183.0969,-162 183.0969,-198"/>
<text text-anchor="middle" x="156.0969" y="-176.3" font-family="Times,serif" font-size="14.00" fill="#000000">क्षेत्र</text>
</a>
</g>
</g>
<!-- Node1&#45;&gt;Node14 -->
<g id="edge13" class="edge">
<title>Node1&#45;&gt;Node14</title>
<path fill="none" stroke="#000000" d="M32.9445,-324.1107C40.1265,-304.2039 53.579,-271.7221 72,-248 85.5329,-230.5727 104.3625,-214.8161 120.7742,-202.8687"/>
<polygon fill="#000000" stroke="#000000" points="122.9547,-205.6134 129.0953,-196.9795 118.9108,-199.8996 122.9547,-205.6134"/>
<text text-anchor="middle" x="87.5" y="-251.8" font-family="Times,serif" font-size="14.00" fill="#000000">ष्ट्रन्</text>
</g>
<!-- Node15 -->
<g id="node15" class="node">
<title>Node15</title>
<ellipse fill="none" stroke="#ff0000" cx="156.0969" cy="-126" rx="34.394" ry="18"/>
<text text-anchor="middle" x="156.0969" y="-122.3" font-family="Times,serif" font-size="14.00" fill="#000000">परि_क्षि</text>
</g>
<!-- Node1&#45;&gt;Node15 -->
<g id="edge14" class="edge">
<title>Node1&#45;&gt;Node15</title>
<path fill="none" stroke="#000000" d="M31.3129,-323.7987C37.8292,-298.2141 51.6265,-250.6462 72,-214 88.8973,-183.6065 96.1537,-177.3299 121,-153 123.0598,-150.983 125.2692,-148.9776 127.5402,-147.0236"/>
<polygon fill="#000000" stroke="#000000" points="129.8341,-149.6693 135.371,-140.6364 125.4096,-144.2449 129.8341,-149.6693"/>
</g>
<!-- Node18 -->
<g id="node18" class="node">
<title>Node18</title>
<ellipse fill="none" stroke="#ff0000" cx="156.0969" cy="-72" rx="28.6953" ry="18"/>
<text text-anchor="middle" x="156.0969" y="-68.3" font-family="Times,serif" font-size="14.00" fill="#000000">प्र_क्षि</text>
</g>
<!-- Node1&#45;&gt;Node18 -->
<g id="edge17" class="edge">
<title>Node1&#45;&gt;Node18</title>
<path fill="none" stroke="#000000" d="M29.3895,-323.8652C34.1759,-291.2287 46.7177,-220.9759 72,-167 87.801,-133.266 95.0752,-125.75 121,-99 123.4276,-96.4951 126.0973,-94.0299 128.8469,-91.6691"/>
<polygon fill="#000000" stroke="#000000" points="131.0946,-94.3528 136.6733,-85.3456 126.6953,-88.9079 131.0946,-94.3528"/>
</g>
<!-- Node3 -->
<g id="node3" class="node">
<title>Node3</title>
<g id="a_node3"><a xlink:title="छीजना, ह्रास, नाश">
<polygon fill="none" stroke="#0000ff" points="312.6938,-657 258.6938,-657 258.6938,-621 312.6938,-621 312.6938,-657"/>
<text text-anchor="middle" x="285.6938" y="-635.3" font-family="Times,serif" font-size="14.00" fill="#000000">अपक्षय</text>
</a>
</g>
</g>
<!-- Node2&#45;&gt;Node3 -->
<g id="edge2" class="edge">
<title>Node2&#45;&gt;Node3</title>
<path fill="none" stroke="#000000" d="M190.8265,-629.4838C208.7096,-631.2776 230.5188,-633.4653 248.7152,-635.2906"/>
<polygon fill="#000000" stroke="#000000" points="248.3794,-638.7744 258.6788,-636.2901 249.0781,-631.8094 248.3794,-638.7744"/>
<text text-anchor="middle" x="223.1938" y="-637.8" font-family="Times,serif" font-size="14.00" fill="#000000">अव्</text>
</g>
<!-- Node5 -->
<g id="node5" class="node">
<title>Node5</title>
<g id="a_node5"><a xlink:title="नाश, वरबादी, ध्वंस, तबाही">
<polygon fill="none" stroke="#0000ff" points="312.6938,-603 258.6938,-603 258.6938,-567 312.6938,-567 312.6938,-603"/>
<text text-anchor="middle" x="285.6938" y="-581.3" font-family="Times,serif" font-size="14.00" fill="#000000">अवक्षय</text>
</a>
</g>
</g>
<!-- Node4&#45;&gt;Node5 -->
<g id="edge4" class="edge">
<title>Node4&#45;&gt;Node5</title>
<path fill="none" stroke="#000000" d="M188.7997,-564.8132C207.0209,-568.6094 229.7719,-573.3493 248.6487,-577.2821"/>
<polygon fill="#000000" stroke="#000000" points="248.1801,-580.7595 258.6838,-579.3728 249.6079,-573.9067 248.1801,-580.7595"/>
<text text-anchor="middle" x="223.1938" y="-577.8" font-family="Times,serif" font-size="14.00" fill="#000000">अच्</text>
</g>
<!-- Node6 -->
<g id="node6" class="node">
<title>Node6</title>
<g id="a_node6"><a xlink:title="बुझाने के साधन आग आदि को">
<polygon fill="none" stroke="#0000ff" points="316.1938,-549 255.1938,-549 255.1938,-513 316.1938,-513 316.1938,-549"/>
<text text-anchor="middle" x="285.6938" y="-527.3" font-family="Times,serif" font-size="14.00" fill="#000000">अवक्षयण</text>
</a>
</g>
</g>
<!-- Node4&#45;&gt;Node6 -->
<g id="edge5" class="edge">
<title>Node4&#45;&gt;Node6</title>
<path fill="none" stroke="#000000" d="M188.7997,-551.1868C205.8029,-547.6443 226.7508,-543.2801 244.8141,-539.5168"/>
<polygon fill="#000000" stroke="#000000" points="245.71,-542.9054 254.7859,-537.4393 244.2822,-536.0525 245.71,-542.9054"/>
<text text-anchor="middle" x="223.1938" y="-549.8" font-family="Times,serif" font-size="14.00" fill="#000000">ल्युट्</text>
</g>
<!-- Node8 -->
<g id="node8" class="node">
<title>Node8</title>
<g id="a_node8"><a xlink:title="रद्द करना, ह्रास, हानि">
<polygon fill="none" stroke="#0000ff" points="312.6938,-495 258.6938,-495 258.6938,-459 312.6938,-459 312.6938,-495"/>
<text text-anchor="middle" x="285.6938" y="-473.3" font-family="Times,serif" font-size="14.00" fill="#000000">उपक्षय</text>
</a>
</g>
</g>
<!-- Node7&#45;&gt;Node8 -->
<g id="edge7" class="edge">
<title>Node7&#45;&gt;Node8</title>
<path fill="none" stroke="#000000" d="M188.1321,-497.3258C206.4307,-493.5135 229.4596,-488.7157 248.5479,-484.7389"/>
<polygon fill="#000000" stroke="#000000" points="249.3316,-488.1509 258.4075,-482.6848 247.9038,-481.298 249.3316,-488.1509"/>
<text text-anchor="middle" x="223.1938" y="-495.8" font-family="Times,serif" font-size="14.00" fill="#000000">अच्</text>
</g>
<!-- Node16 -->
<g id="node16" class="node">
<title>Node16</title>
<g id="a_node16"><a xlink:title="ह्रास, वर्बादी, विनाश, परिक्षयोऽपि अधिकतरं रमणीयः">
<polygon fill="none" stroke="#0000ff" points="312.6938,-198 258.6938,-198 258.6938,-162 312.6938,-162 312.6938,-198"/>
<text text-anchor="middle" x="285.6938" y="-176.3" font-family="Times,serif" font-size="14.00" fill="#000000">परिक्षय</text>
</a>
</g>
</g>
<!-- Node15&#45;&gt;Node16 -->
<g id="edge15" class="edge">
<title>Node15&#45;&gt;Node16</title>
<path fill="none" stroke="#000000" d="M183.2646,-137.3202C202.4454,-145.3123 228.358,-156.1095 249.3206,-164.8442"/>
<polygon fill="#000000" stroke="#000000" points="247.9848,-168.0792 258.5618,-168.6947 250.6772,-161.6177 247.9848,-168.0792"/>
<text text-anchor="middle" x="223.1938" y="-162.8" font-family="Times,serif" font-size="14.00" fill="#000000">अच्</text>
</g>
<!-- Node17 -->
<g id="node17" class="node">
<title>Node17</title>
<g id="a_node17"><a xlink:title="अर्जुन का पौत्र, अभिमन्यु का पुत युधिष्ठिर के पश्चात् यही हस्तिनापुर की गद्दी पर बैठा; साँप द्वारा काटे जाने पर इसकी मृत्यु हुई। कहते हैं, इसी के राज्य से कलियुग का आरंभ हुआ">
<polygon fill="none" stroke="#0000ff" points="313.1938,-144 258.1938,-144 258.1938,-108 313.1938,-108 313.1938,-144"/>
<text text-anchor="middle" x="285.6938" y="-122.3" font-family="Times,serif" font-size="14.00" fill="#000000">परीक्षित्</text>
</a>
</g>
</g>
<!-- Node15&#45;&gt;Node17 -->
<g id="edge16" class="edge">
<title>Node15&#45;&gt;Node17</title>
<path fill="none" stroke="#000000" d="M190.8265,-126C208.3757,-126 229.7058,-126 247.6923,-126"/>
<polygon fill="#000000" stroke="#000000" points="247.8423,-129.5001 257.8423,-126 247.8422,-122.5001 247.8423,-129.5001"/>
<text text-anchor="middle" x="223.1938" y="-129.8" font-family="Times,serif" font-size="14.00" fill="#000000">क्विप्</text>
</g>
<!-- Node19 -->
<g id="node19" class="node">
<title>Node19</title>
<g id="a_node19"><a xlink:title="नाश, बरबादी">
<polygon fill="none" stroke="#0000ff" points="312.6938,-90 258.6938,-90 258.6938,-54 312.6938,-54 312.6938,-90"/>
<text text-anchor="middle" x="285.6938" y="-68.3" font-family="Times,serif" font-size="14.00" fill="#000000">प्रक्षय</text>
</a>
</g>
</g>
<!-- Node18&#45;&gt;Node19 -->
<g id="edge18" class="edge">
<title>Node18&#45;&gt;Node19</title>
<path fill="none" stroke="#000000" d="M184.8586,-72C203.5282,-72 228.0497,-72 248.2361,-72"/>
<polygon fill="#000000" stroke="#000000" points="248.3433,-75.5001 258.3432,-72 248.3432,-68.5001 248.3433,-75.5001"/>
<text text-anchor="middle" x="223.1938" y="-75.8" font-family="Times,serif" font-size="14.00" fill="#000000">अप्</text>
</g>
<!-- Node20 -->
<g id="node20" class="node">
<title>Node20</title>
<g id="a_node20"><a xlink:title="मुर्झाया हुआ, दुर्बला होने वाला">
<polygon fill="none" stroke="#0000ff" points="312.6938,-36 258.6938,-36 258.6938,0 312.6938,0 312.6938,-36"/>
<text text-anchor="middle" x="285.6938" y="-14.3" font-family="Times,serif" font-size="14.00" fill="#000000">प्रक्षीण</text>
</a>
</g>
</g>
<!-- Node18&#45;&gt;Node20 -->
<g id="edge19" class="edge">
<title>Node18&#45;&gt;Node20</title>
<path fill="none" stroke="#000000" d="M180.1693,-61.9696C199.5536,-53.8926 227.115,-42.4084 249.2094,-33.2022"/>
<polygon fill="#000000" stroke="#000000" points="250.7302,-36.3602 258.6148,-29.2832 248.0378,-29.8987 250.7302,-36.3602"/>
<text text-anchor="middle" x="223.1938" y="-52.8" font-family="Times,serif" font-size="14.00" fill="#000000">क्त</text>
</g>
</g>
</svg>
