<?xml version="1.0" encoding="UTF-8" standalone="no"?>
<!DOCTYPE svg PUBLIC "-//W3C//DTD SVG 1.1//EN"
 "http://www.w3.org/Graphics/SVG/1.1/DTD/svg11.dtd">
<!-- Generated by graphviz version 2.40.1 (20161225.0304)
 -->
<!-- Title: G Pages: 1 -->
<svg width="287pt" height="98pt"
 viewBox="0.00 0.00 287.39 98.00" xmlns="http://www.w3.org/2000/svg" xmlns:xlink="http://www.w3.org/1999/xlink">
<g id="graph0" class="graph" transform="scale(1 1) rotate(0) translate(4 94)">
<title>G</title>
<polygon fill="#ffffff" stroke="transparent" points="-4,4 -4,-94 283.3933,-94 283.3933,4 -4,4"/>
<!-- Node1 -->
<g id="node1" class="node">
<title>Node1</title>
<ellipse fill="none" stroke="#ff0000" cx="27" cy="-33" rx="27" ry="18"/>
<text text-anchor="middle" x="27" y="-29.3" font-family="Times,serif" font-size="14.00" fill="#000000">क्षीब्</text>
</g>
<!-- Node2 -->
<g id="node2" class="node">
<title>Node2</title>
<ellipse fill="none" stroke="#ff0000" cx="139.6967" cy="-72" rx="37.8943" ry="18"/>
<text text-anchor="middle" x="139.6967" y="-68.3" font-family="Times,serif" font-size="14.00" fill="#000000">आ_क्षीब्</text>
</g>
<!-- Node1&#45;&gt;Node2 -->
<g id="edge1" class="edge">
<title>Node1&#45;&gt;Node2</title>
<path fill="none" stroke="#000000" d="M51.1763,-41.3665C65.2089,-46.2226 83.2447,-52.4642 99.371,-58.0448"/>
<polygon fill="#000000" stroke="#000000" points="98.5175,-61.4531 109.1122,-61.4159 100.8067,-54.838 98.5175,-61.4531"/>
</g>
<!-- Node4 -->
<g id="node4" class="node">
<title>Node4</title>
<g id="a_node4"><a xlink:title="उत्तेजित, मतवाला, मदोन्मत्त">
<polygon fill="none" stroke="#0000ff" points="166.6967,-36 112.6967,-36 112.6967,0 166.6967,0 166.6967,-36"/>
<text text-anchor="middle" x="139.6967" y="-14.3" font-family="Times,serif" font-size="14.00" fill="#000000">क्षीब</text>
</a>
</g>
</g>
<!-- Node1&#45;&gt;Node4 -->
<g id="edge3" class="edge">
<title>Node1&#45;&gt;Node4</title>
<path fill="none" stroke="#000000" d="M53.7075,-29.4452C68.2307,-27.5122 86.4262,-25.0903 102.3352,-22.9728"/>
<polygon fill="#000000" stroke="#000000" points="102.9472,-26.4223 112.398,-21.6335 102.0236,-19.4835 102.9472,-26.4223"/>
<text text-anchor="middle" x="78" y="-30.8" font-family="Times,serif" font-size="14.00" fill="#000000">क्त</text>
</g>
<!-- Node3 -->
<g id="node3" class="node">
<title>Node3</title>
<g id="a_node3"><a xlink:title="जिसने कुछ मद्यपान किया हुआ हो">
<polygon fill="none" stroke="#0000ff" points="279.3933,-90 225.3933,-90 225.3933,-54 279.3933,-54 279.3933,-90"/>
<text text-anchor="middle" x="252.3933" y="-68.3" font-family="Times,serif" font-size="14.00" fill="#000000">आक्षीब</text>
</a>
</g>
</g>
<!-- Node2&#45;&gt;Node3 -->
<g id="edge2" class="edge">
<title>Node2&#45;&gt;Node3</title>
<path fill="none" stroke="#000000" d="M177.5365,-72C189.604,-72 202.9456,-72 214.9825,-72"/>
<polygon fill="#000000" stroke="#000000" points="215.1598,-75.5001 225.1598,-72 215.1597,-68.5001 215.1598,-75.5001"/>
<text text-anchor="middle" x="201.3933" y="-75.8" font-family="Times,serif" font-size="14.00" fill="#000000">क्त</text>
</g>
</g>
</svg>
