<?xml version="1.0" encoding="UTF-8" standalone="no"?>
<!DOCTYPE svg PUBLIC "-//W3C//DTD SVG 1.1//EN"
 "http://www.w3.org/Graphics/SVG/1.1/DTD/svg11.dtd">
<!-- Generated by graphviz version 2.40.1 (20161225.0304)
 -->
<!-- Title: G Pages: 1 -->
<svg width="297pt" height="368pt"
 viewBox="0.00 0.00 296.89 368.00" xmlns="http://www.w3.org/2000/svg" xmlns:xlink="http://www.w3.org/1999/xlink">
<g id="graph0" class="graph" transform="scale(1 1) rotate(0) translate(4 364)">
<title>G</title>
<polygon fill="#ffffff" stroke="transparent" points="-4,4 -4,-364 292.8939,-364 292.8939,4 -4,4"/>
<!-- Node1 -->
<g id="node1" class="node">
<title>Node1</title>
<ellipse fill="none" stroke="#ff0000" cx="27" cy="-180" rx="27" ry="18"/>
<text text-anchor="middle" x="27" y="-176.3" font-family="Times,serif" font-size="14.00" fill="#000000">क्षण्</text>
</g>
<!-- Node2 -->
<g id="node2" class="node">
<title>Node2</title>
<g id="a_node2"><a xlink:title="अवकाशअहमपि लब्धक्षणः स्वगेहं गच्छामि">
<polygon fill="none" stroke="#0000ff" points="179.4469,-360 125.4469,-360 125.4469,-324 179.4469,-324 179.4469,-360"/>
<text text-anchor="middle" x="152.4469" y="-338.3" font-family="Times,serif" font-size="14.00" fill="#000000">क्षण</text>
</a>
</g>
</g>
<!-- Node1&#45;&gt;Node2 -->
<g id="edge1" class="edge">
<title>Node1&#45;&gt;Node2</title>
<path fill="none" stroke="#000000" d="M33.7182,-197.5469C41.4001,-216.4253 55.1208,-246.8506 72,-270 88.8501,-293.1095 96.4906,-296.15 118,-315 118.8286,-315.7262 119.6739,-316.4567 120.5312,-317.1888"/>
<polygon fill="#000000" stroke="#000000" points="118.5158,-320.0639 128.4515,-323.7426 122.9784,-314.6708 118.5158,-320.0639"/>
<text text-anchor="middle" x="86" y="-302.8" font-family="Times,serif" font-size="14.00" fill="#000000">अच्</text>
</g>
<!-- Node3 -->
<g id="node3" class="node">
<title>Node3</title>
<g id="a_node3"><a xlink:title="घाव, फोड़ा">
<polygon fill="none" stroke="#0000ff" points="179.4469,-306 125.4469,-306 125.4469,-270 179.4469,-270 179.4469,-306"/>
<text text-anchor="middle" x="152.4469" y="-284.3" font-family="Times,serif" font-size="14.00" fill="#000000">क्षणतु</text>
</a>
</g>
</g>
<!-- Node1&#45;&gt;Node3 -->
<g id="edge2" class="edge">
<title>Node1&#45;&gt;Node3</title>
<path fill="none" stroke="#000000" d="M40.4517,-196.1929C49.0335,-206.1191 60.6427,-218.8288 72,-229 86.0211,-241.5569 102.6349,-254.0847 117.1135,-264.3455"/>
<polygon fill="#000000" stroke="#000000" points="115.1547,-267.2466 125.3558,-270.108 119.1656,-261.5096 115.1547,-267.2466"/>
<text text-anchor="middle" x="86" y="-254.8" font-family="Times,serif" font-size="14.00" fill="#000000">अतु</text>
</g>
<!-- Node4 -->
<g id="node4" class="node">
<title>Node4</title>
<g id="a_node4"><a xlink:title="क्षति पहुँचाना, घायल करना, मार डालना">
<polygon fill="none" stroke="#0000ff" points="179.4469,-252 125.4469,-252 125.4469,-216 179.4469,-216 179.4469,-252"/>
<text text-anchor="middle" x="152.4469" y="-230.3" font-family="Times,serif" font-size="14.00" fill="#000000">क्षणन</text>
</a>
</g>
</g>
<!-- Node1&#45;&gt;Node4 -->
<g id="edge3" class="edge">
<title>Node1&#45;&gt;Node4</title>
<path fill="none" stroke="#000000" d="M49.7175,-189.779C68.0861,-197.686 94.311,-208.9747 115.6658,-218.1671"/>
<polygon fill="#000000" stroke="#000000" points="114.52,-221.4844 125.089,-222.2235 117.2877,-215.0548 114.52,-221.4844"/>
<text text-anchor="middle" x="86" y="-213.8" font-family="Times,serif" font-size="14.00" fill="#000000">ल्युट्</text>
</g>
<!-- Node5 -->
<g id="node5" class="node">
<title>Node5</title>
<g id="a_node5"><a xlink:title="#खरोच">
<polygon fill="none" stroke="#0000ff" points="179.4469,-198 125.4469,-198 125.4469,-162 179.4469,-162 179.4469,-198"/>
<text text-anchor="middle" x="152.4469" y="-176.3" font-family="Times,serif" font-size="14.00" fill="#000000">क्षत</text>
</a>
</g>
</g>
<!-- Node1&#45;&gt;Node5 -->
<g id="edge4" class="edge">
<title>Node1&#45;&gt;Node5</title>
<path fill="none" stroke="#000000" d="M54.2201,-180C72.0562,-180 95.6033,-180 115.1713,-180"/>
<polygon fill="#000000" stroke="#000000" points="115.28,-183.5001 125.2799,-180 115.2799,-176.5001 115.28,-183.5001"/>
<text text-anchor="middle" x="86" y="-183.8" font-family="Times,serif" font-size="14.00" fill="#000000">क्त</text>
</g>
<!-- Node6 -->
<g id="node6" class="node">
<title>Node6</title>
<g id="a_node6"><a xlink:title="चोट, घाव">
<polygon fill="none" stroke="#0000ff" points="179.4469,-144 125.4469,-144 125.4469,-108 179.4469,-108 179.4469,-144"/>
<text text-anchor="middle" x="152.4469" y="-122.3" font-family="Times,serif" font-size="14.00" fill="#000000">क्षति</text>
</a>
</g>
</g>
<!-- Node1&#45;&gt;Node6 -->
<g id="edge5" class="edge">
<title>Node1&#45;&gt;Node6</title>
<path fill="none" stroke="#000000" d="M49.7175,-170.221C68.0861,-162.314 94.311,-151.0253 115.6658,-141.8329"/>
<polygon fill="#000000" stroke="#000000" points="117.2877,-144.9452 125.089,-137.7765 114.52,-138.5156 117.2877,-144.9452"/>
<text text-anchor="middle" x="86" y="-162.8" font-family="Times,serif" font-size="14.00" fill="#000000">क्तिन्</text>
</g>
<!-- Node7 -->
<g id="node7" class="node">
<title>Node7</title>
<g id="a_node7"><a xlink:title="अधिराज्य, शक्ति, प्रभुता, सामर्थ्य">
<polygon fill="none" stroke="#0000ff" points="179.4469,-90 125.4469,-90 125.4469,-54 179.4469,-54 179.4469,-90"/>
<text text-anchor="middle" x="152.4469" y="-68.3" font-family="Times,serif" font-size="14.00" fill="#000000">क्षत्र</text>
</a>
</g>
</g>
<!-- Node1&#45;&gt;Node7 -->
<g id="edge6" class="edge">
<title>Node1&#45;&gt;Node7</title>
<path fill="none" stroke="#000000" d="M39.9832,-163.8774C48.569,-153.6608 60.3524,-140.4514 72,-130 85.9265,-117.5038 102.5259,-105.1652 117.0194,-95.1023"/>
<polygon fill="#000000" stroke="#000000" points="118.9957,-97.991 125.2735,-89.4564 115.0436,-92.2134 118.9957,-97.991"/>
<text text-anchor="middle" x="86" y="-133.8" font-family="Times,serif" font-size="14.00" fill="#000000">क्विप्</text>
</g>
<!-- Node8 -->
<g id="node8" class="node">
<title>Node8</title>
<ellipse fill="none" stroke="#ff0000" cx="152.4469" cy="-18" rx="34.394" ry="18"/>
<text text-anchor="middle" x="152.4469" y="-14.3" font-family="Times,serif" font-size="14.00" fill="#000000">वि_क्षण्</text>
</g>
<!-- Node1&#45;&gt;Node8 -->
<g id="edge7" class="edge">
<title>Node1&#45;&gt;Node8</title>
<path fill="none" stroke="#000000" d="M35.7939,-162.6725C50.2442,-135.3678 81.1198,-81.6695 118,-45 119.8859,-43.1249 121.9,-41.2578 123.972,-39.4316"/>
<polygon fill="#000000" stroke="#000000" points="126.6579,-41.7496 132.1018,-32.6603 122.1779,-36.3709 126.6579,-41.7496"/>
</g>
<!-- Node9 -->
<g id="node9" class="node">
<title>Node9</title>
<g id="a_node9"><a xlink:title="फाड़ कर अलग अलग किया हुआ, घायल, चोट पहुंचाया हुआ, आघातग्रस्त">
<polygon fill="none" stroke="#0000ff" points="288.8939,-36 234.8939,-36 234.8939,0 288.8939,0 288.8939,-36"/>
<text text-anchor="middle" x="261.8939" y="-14.3" font-family="Times,serif" font-size="14.00" fill="#000000">विक्षत</text>
</a>
</g>
</g>
<!-- Node8&#45;&gt;Node9 -->
<g id="edge8" class="edge">
<title>Node8&#45;&gt;Node9</title>
<path fill="none" stroke="#000000" d="M187.0766,-18C198.9922,-18 212.3838,-18 224.5089,-18"/>
<polygon fill="#000000" stroke="#000000" points="224.7693,-21.5001 234.7693,-18 224.7693,-14.5001 224.7693,-21.5001"/>
<text text-anchor="middle" x="210.8939" y="-21.8" font-family="Times,serif" font-size="14.00" fill="#000000">क्त</text>
</g>
</g>
</svg>
