<?xml version="1.0" encoding="UTF-8" standalone="no"?>
<!DOCTYPE svg PUBLIC "-//W3C//DTD SVG 1.1//EN"
 "http://www.w3.org/Graphics/SVG/1.1/DTD/svg11.dtd">
<!-- Generated by graphviz version 2.40.1 (20161225.0304)
 -->
<!-- Title: G Pages: 1 -->
<svg width="291pt" height="98pt"
 viewBox="0.00 0.00 291.29 98.00" xmlns="http://www.w3.org/2000/svg" xmlns:xlink="http://www.w3.org/1999/xlink">
<g id="graph0" class="graph" transform="scale(1 1) rotate(0) translate(4 94)">
<title>G</title>
<polygon fill="#ffffff" stroke="transparent" points="-4,4 -4,-94 287.293,-94 287.293,4 -4,4"/>
<!-- Node1 -->
<g id="node1" class="node">
<title>Node1</title>
<ellipse fill="none" stroke="#ff0000" cx="27" cy="-45" rx="27" ry="18"/>
<text text-anchor="middle" x="27" y="-41.3" font-family="Times,serif" font-size="14.00" fill="#000000">क्षीव्</text>
</g>
<!-- Node2 -->
<g id="node2" class="node">
<title>Node2</title>
<g id="a_node2"><a xlink:title="उत्तेजित, मतवाला, मदोन्मत्त, ध्रुवं जये यस्य जयामृतेन क्षीवः क्षमाभर्तुरभूत्कृपाणः">
<polygon fill="none" stroke="#0000ff" points="168.6465,-90 114.6465,-90 114.6465,-54 168.6465,-54 168.6465,-90"/>
<text text-anchor="middle" x="141.6465" y="-68.3" font-family="Times,serif" font-size="14.00" fill="#000000">क्षीव</text>
</a>
</g>
</g>
<!-- Node1&#45;&gt;Node2 -->
<g id="edge1" class="edge">
<title>Node1&#45;&gt;Node2</title>
<path fill="none" stroke="#000000" d="M52.7289,-51.0593C67.9277,-54.6387 87.4358,-59.233 104.305,-63.2058"/>
<polygon fill="#000000" stroke="#000000" points="103.8693,-66.6989 114.4053,-65.5845 105.474,-59.8853 103.8693,-66.6989"/>
<text text-anchor="middle" x="78" y="-60.8" font-family="Times,serif" font-size="14.00" fill="#000000">क्त</text>
</g>
<!-- Node3 -->
<g id="node3" class="node">
<title>Node3</title>
<ellipse fill="none" stroke="#ff0000" cx="141.6465" cy="-18" rx="39.7935" ry="18"/>
<text text-anchor="middle" x="141.6465" y="-14.3" font-family="Times,serif" font-size="14.00" fill="#000000">परि_क्षीव्</text>
</g>
<!-- Node1&#45;&gt;Node3 -->
<g id="edge2" class="edge">
<title>Node1&#45;&gt;Node3</title>
<path fill="none" stroke="#000000" d="M52.7289,-38.9407C65.6026,-35.9088 81.568,-32.1489 96.4027,-28.6552"/>
<polygon fill="#000000" stroke="#000000" points="97.509,-31.9905 106.4403,-26.2913 95.9043,-25.1769 97.509,-31.9905"/>
</g>
<!-- Node4 -->
<g id="node4" class="node">
<title>Node4</title>
<g id="a_node4"><a xlink:title="बिल्कुल नशे में चूर">
<polygon fill="none" stroke="#0000ff" points="283.293,-36 229.293,-36 229.293,0 283.293,0 283.293,-36"/>
<text text-anchor="middle" x="256.293" y="-14.3" font-family="Times,serif" font-size="14.00" fill="#000000">परिक्षीव</text>
</a>
</g>
</g>
<!-- Node3&#45;&gt;Node4 -->
<g id="edge3" class="edge">
<title>Node3&#45;&gt;Node4</title>
<path fill="none" stroke="#000000" d="M181.4225,-18C193.6275,-18 207.0071,-18 219.0372,-18"/>
<polygon fill="#000000" stroke="#000000" points="219.1983,-21.5001 229.1982,-18 219.1982,-14.5001 219.1983,-21.5001"/>
<text text-anchor="middle" x="205.293" y="-21.8" font-family="Times,serif" font-size="14.00" fill="#000000">क्त</text>
</g>
</g>
</svg>
