<?xml version="1.0" encoding="UTF-8" standalone="no"?>
<!DOCTYPE svg PUBLIC "-//W3C//DTD SVG 1.1//EN"
 "http://www.w3.org/Graphics/SVG/1.1/DTD/svg11.dtd">
<!-- Generated by graphviz version 2.40.1 (20161225.0304)
 -->
<!-- Title: G Pages: 1 -->
<svg width="472pt" height="1232pt"
 viewBox="0.00 0.00 471.88 1232.00" xmlns="http://www.w3.org/2000/svg" xmlns:xlink="http://www.w3.org/1999/xlink">
<g id="graph0" class="graph" transform="scale(1 1) rotate(0) translate(4 1228)">
<title>G</title>
<polygon fill="#ffffff" stroke="transparent" points="-4,4 -4,-1228 467.8847,-1228 467.8847,4 -4,4"/>
<!-- Node1 -->
<g id="node1" class="node">
<title>Node1</title>
<ellipse fill="none" stroke="#ff0000" cx="27" cy="-612" rx="27" ry="18"/>
<text text-anchor="middle" x="27" y="-608.3" font-family="Times,serif" font-size="14.00" fill="#000000">कु</text>
</g>
<!-- Node2 -->
<g id="node2" class="node">
<title>Node2</title>
<ellipse fill="none" stroke="#ff0000" cx="158.3968" cy="-1206" rx="36.2938" ry="18"/>
<text text-anchor="middle" x="158.3968" y="-1202.3" font-family="Times,serif" font-size="14.00" fill="#000000">कु+अल्</text>
</g>
<!-- Node1&#45;&gt;Node2 -->
<g id="edge1" class="edge">
<title>Node1&#45;&gt;Node2</title>
<path fill="none" stroke="#000000" d="M27.2754,-630.0785C28.6807,-708.9491 36.4474,-1023.0258 72,-1114 85.2664,-1147.947 96.0041,-1153.4538 122,-1179 124.0518,-1181.0163 126.2599,-1183.0073 128.5378,-1184.9393"/>
<polygon fill="#000000" stroke="#000000" points="126.4257,-1187.7316 136.426,-1191.2308 130.7905,-1182.2591 126.4257,-1187.7316"/>
</g>
<!-- Node5 -->
<g id="node5" class="node">
<title>Node5</title>
<ellipse fill="none" stroke="#ff0000" cx="158.3968" cy="-1152" rx="34.394" ry="18"/>
<text text-anchor="middle" x="158.3968" y="-1148.3" font-family="Times,serif" font-size="14.00" fill="#000000">खन्_कु</text>
</g>
<!-- Node1&#45;&gt;Node5 -->
<g id="edge4" class="edge">
<title>Node1&#45;&gt;Node5</title>
<path fill="none" stroke="#000000" d="M27.9166,-630.0562C32.1577,-711.4727 50.5836,-1042.2314 72,-1083 83.5599,-1105.0057 105.5309,-1122.4037 124.4227,-1134.225"/>
<polygon fill="#000000" stroke="#000000" points="122.7337,-1137.2929 133.1132,-1139.4179 126.3243,-1131.2839 122.7337,-1137.2929"/>
</g>
<!-- Node8 -->
<g id="node8" class="node">
<title>Node8</title>
<g id="a_node8"><a xlink:title="जटित, खचित, जड़ा हुआ">
<polygon fill="none" stroke="#0000ff" points="185.3968,-1116 131.3968,-1116 131.3968,-1080 185.3968,-1080 185.3968,-1116"/>
<text text-anchor="middle" x="158.3968" y="-1094.3" font-family="Times,serif" font-size="14.00" fill="#000000">कबर</text>
</a>
</g>
</g>
<!-- Node1&#45;&gt;Node8 -->
<g id="edge7" class="edge">
<title>Node1&#45;&gt;Node8</title>
<path fill="none" stroke="#000000" d="M27.2129,-630.1702C28.3059,-700.8822 34.8071,-957.2755 72,-1028 83.2475,-1049.3877 104.1522,-1066.5959 122.5809,-1078.5983"/>
<polygon fill="#000000" stroke="#000000" points="120.7633,-1081.5896 131.1021,-1083.905 124.4638,-1075.6476 120.7633,-1081.5896"/>
<text text-anchor="middle" x="88" y="-1067.8" font-family="Times,serif" font-size="14.00" fill="#000000">अरन्</text>
</g>
<!-- Node9 -->
<g id="node9" class="node">
<title>Node9</title>
<g id="a_node9"><a xlink:title="सन्नाह, जिरह बख्तर, वर्म">
<polygon fill="none" stroke="#0000ff" points="185.3968,-1062 131.3968,-1062 131.3968,-1026 185.3968,-1026 185.3968,-1062"/>
<text text-anchor="middle" x="158.3968" y="-1040.3" font-family="Times,serif" font-size="14.00" fill="#000000">कवच</text>
</a>
</g>
</g>
<!-- Node1&#45;&gt;Node9 -->
<g id="edge8" class="edge">
<title>Node1&#45;&gt;Node9</title>
<path fill="none" stroke="#000000" d="M27.5839,-630.3647C29.9033,-695.1578 39.9565,-912.4262 72,-973 83.3124,-994.3845 104.0821,-1011.773 122.4221,-1023.9891"/>
<polygon fill="#000000" stroke="#000000" points="120.8632,-1027.1458 131.1781,-1029.5654 124.6234,-1021.2415 120.8632,-1027.1458"/>
<text text-anchor="middle" x="88" y="-1012.8" font-family="Times,serif" font-size="14.00" fill="#000000">अच्</text>
</g>
<!-- Node10 -->
<g id="node10" class="node">
<title>Node10</title>
<g id="a_node10"><a xlink:title="दरवाजे का दिला या पल्ला">
<polygon fill="none" stroke="#0000ff" points="185.3968,-1008 131.3968,-1008 131.3968,-972 185.3968,-972 185.3968,-1008"/>
<text text-anchor="middle" x="158.3968" y="-986.3" font-family="Times,serif" font-size="14.00" fill="#000000">कवटी</text>
</a>
</g>
</g>
<!-- Node1&#45;&gt;Node10 -->
<g id="edge9" class="edge">
<title>Node1&#45;&gt;Node10</title>
<path fill="none" stroke="#000000" d="M28.0991,-630.2518C31.8269,-688.0954 45.273,-866.4989 72,-917 83.4459,-938.6272 104.2192,-956.4961 122.5276,-969.1412"/>
<polygon fill="#000000" stroke="#000000" points="120.9946,-972.3236 131.2657,-974.9227 124.8572,-966.4858 120.9946,-972.3236"/>
<text text-anchor="middle" x="88" y="-957.8" font-family="Times,serif" font-size="14.00" fill="#000000">अटन्</text>
</g>
<!-- Node11 -->
<g id="node11" class="node">
<title>Node11</title>
<g id="a_node11"><a xlink:title="चोटी, जूड़ा#नमक, खटास, अम्लता#मिश्रित, अन्तर्मिश्रित">
<polygon fill="none" stroke="#0000ff" points="185.3968,-954 131.3968,-954 131.3968,-918 185.3968,-918 185.3968,-954"/>
<text text-anchor="middle" x="158.3968" y="-932.3" font-family="Times,serif" font-size="14.00" fill="#000000">कवर</text>
</a>
</g>
</g>
<!-- Node1&#45;&gt;Node11 -->
<g id="edge10" class="edge">
<title>Node1&#45;&gt;Node11</title>
<path fill="none" stroke="#000000" d="M28.8658,-630.283C34.2203,-680.5366 50.6316,-819.6959 72,-860 83.5799,-881.8415 104.1531,-900.326 122.319,-913.5951"/>
<polygon fill="#000000" stroke="#000000" points="120.7972,-916.803 130.9934,-919.682 124.818,-911.073 120.7972,-916.803"/>
<text text-anchor="middle" x="88" y="-901.8" font-family="Times,serif" font-size="14.00" fill="#000000">अरन्</text>
</g>
<!-- Node12 -->
<g id="node12" class="node">
<title>Node12</title>
<g id="a_node12"><a xlink:title="बुद्धिमान पुरुष, विचारक ऋषि, कवीनामुशना कविः#सर्वज्ञ">
<polygon fill="none" stroke="#0000ff" points="185.3968,-900 131.3968,-900 131.3968,-864 185.3968,-864 185.3968,-900"/>
<text text-anchor="middle" x="158.3968" y="-878.3" font-family="Times,serif" font-size="14.00" fill="#000000">कवि</text>
</a>
</g>
</g>
<!-- Node1&#45;&gt;Node12 -->
<g id="edge11" class="edge">
<title>Node1&#45;&gt;Node12</title>
<path fill="none" stroke="#000000" d="M28.1713,-630.1204C31.0924,-665.2558 40.8744,-744.2613 72,-802 84.1132,-824.4702 104.9663,-844.0542 123.1506,-858.221"/>
<polygon fill="#000000" stroke="#000000" points="121.1829,-861.1206 131.2768,-864.3399 125.3935,-855.5286 121.1829,-861.1206"/>
<text text-anchor="middle" x="88" y="-844.8" font-family="Times,serif" font-size="14.00" fill="#000000">इ</text>
</g>
<!-- Node13 -->
<g id="node13" class="node">
<title>Node13</title>
<g id="a_node13"><a xlink:title="‘बुराई’, ‘ह्रास’, ‘दोष’, ‘कलंक’ और निन्दा &#160;‘बुराई’, ‘ह्रास’, ‘दोष’, ‘कलंक’ और निन्दा के भाव को प्रकट करने के लिए यह समस्त शब्द के आदि में केवल ‘कु’ के स्थान में प्रयुक्त होता हैं&#45; उदा* &#45; किंसखा&#45;बुरा मित्र, किन्नरः&#45;बुरा या विकृत पुरुष आदि, नीचे के समस्त पदों को देखे">
<polygon fill="none" stroke="#0000ff" points="185.3968,-846 131.3968,-846 131.3968,-810 185.3968,-810 185.3968,-846"/>
<text text-anchor="middle" x="158.3968" y="-824.3" font-family="Times,serif" font-size="14.00" fill="#000000">किम्</text>
</a>
</g>
</g>
<!-- Node1&#45;&gt;Node13 -->
<g id="edge12" class="edge">
<title>Node1&#45;&gt;Node13</title>
<path fill="none" stroke="#000000" d="M30.5331,-629.9018C36.3273,-656.5703 49.5104,-707.6956 72,-746 85.1657,-768.4238 106.2418,-788.6025 124.2812,-803.3317"/>
<polygon fill="#000000" stroke="#000000" points="122.3065,-806.2327 132.3165,-809.7042 126.6562,-800.7481 122.3065,-806.2327"/>
<text text-anchor="middle" x="88" y="-786.8" font-family="Times,serif" font-size="14.00" fill="#000000">डिमु</text>
</g>
<!-- Node14 -->
<g id="node14" class="node">
<title>Node14</title>
<g id="a_node14"><a xlink:title="पृथ्वी">
<polygon fill="none" stroke="#0000ff" points="185.3968,-792 131.3968,-792 131.3968,-756 185.3968,-756 185.3968,-792"/>
<text text-anchor="middle" x="158.3968" y="-770.3" font-family="Times,serif" font-size="14.00" fill="#000000">कु</text>
</a>
</g>
</g>
<!-- Node1&#45;&gt;Node14 -->
<g id="edge13" class="edge">
<title>Node1&#45;&gt;Node14</title>
<path fill="none" stroke="#000000" d="M35.9767,-628.9891C51.0136,-656.2989 83.466,-710.5836 122,-747 122.8005,-747.7566 123.6224,-748.5111 124.4608,-749.2616"/>
<polygon fill="#000000" stroke="#000000" points="122.4134,-752.1123 132.3264,-755.8519 126.9091,-746.7468 122.4134,-752.1123"/>
<text text-anchor="middle" x="88" y="-730.8" font-family="Times,serif" font-size="14.00" fill="#000000">डु</text>
</g>
<!-- Node15 -->
<g id="node15" class="node">
<title>Node15</title>
<ellipse fill="none" stroke="#ff0000" cx="158.3968" cy="-720" rx="33.5952" ry="18"/>
<text text-anchor="middle" x="158.3968" y="-716.3" font-family="Times,serif" font-size="14.00" fill="#000000">कु+कुर्</text>
</g>
<!-- Node1&#45;&gt;Node15 -->
<g id="edge14" class="edge">
<title>Node1&#45;&gt;Node15</title>
<path fill="none" stroke="#000000" d="M39.9465,-627.8767C48.5177,-637.9195 60.2986,-650.8701 72,-661 89.1901,-675.8815 110.2267,-690.3165 127.2378,-701.1835"/>
<polygon fill="#000000" stroke="#000000" points="125.3972,-704.1606 135.7249,-706.5245 129.1255,-698.236 125.3972,-704.1606"/>
</g>
<!-- Node17 -->
<g id="node17" class="node">
<title>Node17</title>
<g id="a_node17"><a xlink:title="चोकर, भूसी, कुकूलानां राशौ तदनु हृदयं पच्यत इव">
<polygon fill="none" stroke="#0000ff" points="185.3968,-684 131.3968,-684 131.3968,-648 185.3968,-648 185.3968,-684"/>
<text text-anchor="middle" x="158.3968" y="-662.3" font-family="Times,serif" font-size="14.00" fill="#000000">कुकूल</text>
</a>
</g>
</g>
<!-- Node1&#45;&gt;Node17 -->
<g id="edge16" class="edge">
<title>Node1&#45;&gt;Node17</title>
<path fill="none" stroke="#000000" d="M50.1886,-621.5298C70.044,-629.6897 98.9773,-641.5804 121.9308,-651.0136"/>
<polygon fill="#000000" stroke="#000000" points="120.7781,-654.3239 131.3579,-654.8879 123.439,-647.8493 120.7781,-654.3239"/>
<text text-anchor="middle" x="88" y="-645.8" font-family="Times,serif" font-size="14.00" fill="#000000">ऊलच्</text>
</g>
<!-- Node18 -->
<g id="node18" class="node">
<title>Node18</title>
<ellipse fill="none" stroke="#ff0000" cx="158.3968" cy="-612" rx="34.394" ry="18"/>
<text text-anchor="middle" x="158.3968" y="-608.3" font-family="Times,serif" font-size="14.00" fill="#000000">कु+टङ्क</text>
</g>
<!-- Node1&#45;&gt;Node18 -->
<g id="edge17" class="edge">
<title>Node1&#45;&gt;Node18</title>
<path fill="none" stroke="#000000" d="M54.2255,-612C71.3806,-612 93.9395,-612 113.6763,-612"/>
<polygon fill="#000000" stroke="#000000" points="113.6966,-615.5001 123.6966,-612 113.6965,-608.5001 113.6966,-615.5001"/>
</g>
<!-- Node20 -->
<g id="node20" class="node">
<title>Node20</title>
<g id="a_node20"><a xlink:title="दीवार, भेदे कुडयावपातने">
<polygon fill="none" stroke="#0000ff" points="185.3968,-576 131.3968,-576 131.3968,-540 185.3968,-540 185.3968,-576"/>
<text text-anchor="middle" x="158.3968" y="-554.3" font-family="Times,serif" font-size="14.00" fill="#000000">कुड्य</text>
</a>
</g>
</g>
<!-- Node1&#45;&gt;Node20 -->
<g id="edge19" class="edge">
<title>Node1&#45;&gt;Node20</title>
<path fill="none" stroke="#000000" d="M49.8656,-602.2695C56.9511,-599.2747 64.7905,-595.9821 72,-593 88.1931,-586.3019 106.1446,-579.0083 121.47,-572.8213"/>
<polygon fill="#000000" stroke="#000000" points="123.1506,-575.9176 131.1169,-568.9328 120.5335,-569.4252 123.1506,-575.9176"/>
<text text-anchor="middle" x="88" y="-596.8" font-family="Times,serif" font-size="14.00" fill="#000000">यक्</text>
</g>
<!-- Node21 -->
<g id="node21" class="node">
<title>Node21</title>
<g id="a_node21"><a xlink:title="कुशा नामक घास#छींट की बनी हाथी की झूल">
<polygon fill="none" stroke="#0000ff" points="185.3968,-522 131.3968,-522 131.3968,-486 185.3968,-486 185.3968,-522"/>
<text text-anchor="middle" x="158.3968" y="-500.3" font-family="Times,serif" font-size="14.00" fill="#000000">कुथ</text>
</a>
</g>
</g>
<!-- Node1&#45;&gt;Node21 -->
<g id="edge20" class="edge">
<title>Node1&#45;&gt;Node21</title>
<path fill="none" stroke="#000000" d="M39.8653,-595.7437C48.404,-585.4738 60.1793,-572.2551 72,-562 87.5439,-548.5148 106.3599,-535.5473 122.459,-525.3066"/>
<polygon fill="#000000" stroke="#000000" points="124.4626,-528.1817 131.0853,-519.9118 120.751,-522.2467 124.4626,-528.1817"/>
<text text-anchor="middle" x="88" y="-565.8" font-family="Times,serif" font-size="14.00" fill="#000000">थक्</text>
</g>
<!-- Node22 -->
<g id="node22" class="node">
<title>Node22</title>
<g id="a_node22"><a xlink:title="छींट की बनी हाथी की झूल">
<polygon fill="none" stroke="#0000ff" points="185.3968,-468 131.3968,-468 131.3968,-432 185.3968,-432 185.3968,-468"/>
<text text-anchor="middle" x="158.3968" y="-446.3" font-family="Times,serif" font-size="14.00" fill="#000000">कुथा</text>
</a>
</g>
</g>
<!-- Node1&#45;&gt;Node22 -->
<g id="edge21" class="edge">
<title>Node1&#45;&gt;Node22</title>
<path fill="none" stroke="#000000" d="M32.9937,-594.3109C40.2198,-574.6247 53.7117,-542.4963 72,-519 85.9561,-501.0696 105.477,-484.9688 122.433,-472.8391"/>
<polygon fill="#000000" stroke="#000000" points="124.8087,-475.4503 131.023,-466.8693 120.8139,-469.7021 124.8087,-475.4503"/>
<text text-anchor="middle" x="88" y="-522.8" font-family="Times,serif" font-size="14.00" fill="#000000">थक्</text>
</g>
<!-- Node23 -->
<g id="node23" class="node">
<title>Node23</title>
<g id="a_node23"><a xlink:title="क्रौंच पक्षी, समुद्री उकाब">
<polygon fill="none" stroke="#0000ff" points="185.3968,-414 131.3968,-414 131.3968,-378 185.3968,-378 185.3968,-414"/>
<text text-anchor="middle" x="158.3968" y="-392.3" font-family="Times,serif" font-size="14.00" fill="#000000">कुरर</text>
</a>
</g>
</g>
<!-- Node1&#45;&gt;Node23 -->
<g id="edge22" class="edge">
<title>Node1&#45;&gt;Node23</title>
<path fill="none" stroke="#000000" d="M29.5007,-593.8612C34.1142,-565.2074 45.9755,-508.5631 72,-468 84.8664,-447.9457 105.0982,-430.6502 122.7498,-418.0401"/>
<polygon fill="#000000" stroke="#000000" points="124.9209,-420.7944 131.1642,-412.2346 120.9456,-415.0327 124.9209,-420.7944"/>
<text text-anchor="middle" x="88" y="-471.8" font-family="Times,serif" font-size="14.00" fill="#000000">क्रुरच्</text>
</g>
<!-- Node24 -->
<g id="node24" class="node">
<title>Node24</title>
<g id="a_node24"><a xlink:title="क्रौंच पक्षी, समुद्री उकाब">
<polygon fill="none" stroke="#0000ff" points="185.3968,-360 131.3968,-360 131.3968,-324 185.3968,-324 185.3968,-360"/>
<text text-anchor="middle" x="158.3968" y="-338.3" font-family="Times,serif" font-size="14.00" fill="#000000">कुरल</text>
</a>
</g>
</g>
<!-- Node1&#45;&gt;Node24 -->
<g id="edge23" class="edge">
<title>Node1&#45;&gt;Node24</title>
<path fill="none" stroke="#000000" d="M29.7387,-593.8099C36.3916,-551.1051 54.1717,-445.7227 72,-415 84.112,-394.128 104.5047,-376.4727 122.4369,-363.7556"/>
<polygon fill="#000000" stroke="#000000" points="124.707,-366.4438 130.9953,-357.9169 120.7621,-360.6613 124.707,-366.4438"/>
<text text-anchor="middle" x="88" y="-418.8" font-family="Times,serif" font-size="14.00" fill="#000000">क्रुरच्</text>
</g>
<!-- Node25 -->
<g id="node25" class="node">
<title>Node25</title>
<g id="a_node25"><a xlink:title="कषाय, कसैला">
<polygon fill="none" stroke="#0000ff" points="185.3968,-306 131.3968,-306 131.3968,-270 185.3968,-270 185.3968,-306"/>
<text text-anchor="middle" x="158.3968" y="-284.3" font-family="Times,serif" font-size="14.00" fill="#000000">कुवर</text>
</a>
</g>
</g>
<!-- Node1&#45;&gt;Node25 -->
<g id="edge24" class="edge">
<title>Node1&#45;&gt;Node25</title>
<path fill="none" stroke="#000000" d="M28.7707,-593.91C33.9355,-543.5027 50.0189,-402.5048 72,-362 83.657,-340.5194 104.2328,-322.5143 122.3807,-309.6441"/>
<polygon fill="#000000" stroke="#000000" points="124.7482,-312.2664 131.0449,-303.7457 120.809,-306.48 124.7482,-312.2664"/>
<text text-anchor="middle" x="88" y="-365.8" font-family="Times,serif" font-size="14.00" fill="#000000">श्वरच्</text>
</g>
<!-- Node26 -->
<g id="node26" class="node">
<title>Node26</title>
<g id="a_node26"><a xlink:title="गाड़ी की वल्ली या स्थूण&#45;भुजा जिसमें जूआ बाँधा जाता है#सुन्दर, रुचिकर">
<polygon fill="none" stroke="#0000ff" points="185.3968,-252 131.3968,-252 131.3968,-216 185.3968,-216 185.3968,-252"/>
<text text-anchor="middle" x="158.3968" y="-230.3" font-family="Times,serif" font-size="14.00" fill="#000000">कूबर</text>
</a>
</g>
</g>
<!-- Node1&#45;&gt;Node26 -->
<g id="edge25" class="edge">
<title>Node1&#45;&gt;Node26</title>
<path fill="none" stroke="#000000" d="M28.0701,-593.6764C31.7105,-535.6071 44.9224,-356.5221 72,-306 83.4933,-284.5556 104.2678,-266.9285 122.565,-254.4834"/>
<polygon fill="#000000" stroke="#000000" points="124.8276,-257.1867 131.2968,-248.7962 121.0072,-251.3211 124.8276,-257.1867"/>
<text text-anchor="middle" x="88" y="-309.8" font-family="Times,serif" font-size="14.00" fill="#000000">बरच्</text>
</g>
<!-- Node27 -->
<g id="node27" class="node">
<title>Node27</title>
<g id="a_node27"><a xlink:title="कम्बल या किसी दूसरे कपड़े के परदे से ढकी हुई गाड़ी">
<polygon fill="none" stroke="#0000ff" points="185.3968,-198 131.3968,-198 131.3968,-162 185.3968,-162 185.3968,-198"/>
<text text-anchor="middle" x="158.3968" y="-176.3" font-family="Times,serif" font-size="14.00" fill="#000000">कूबरी</text>
</a>
</g>
</g>
<!-- Node1&#45;&gt;Node27 -->
<g id="edge26" class="edge">
<title>Node1&#45;&gt;Node27</title>
<path fill="none" stroke="#000000" d="M27.5839,-593.6353C29.9033,-528.8422 39.9565,-311.5738 72,-251 83.3124,-229.6155 104.0821,-212.227 122.4221,-200.0109"/>
<polygon fill="#000000" stroke="#000000" points="124.6234,-202.7585 131.1781,-194.4346 120.8632,-196.8542 124.6234,-202.7585"/>
<text text-anchor="middle" x="88" y="-254.8" font-family="Times,serif" font-size="14.00" fill="#000000">बरच्</text>
</g>
<!-- Node28 -->
<g id="node28" class="node">
<title>Node28</title>
<g id="a_node28"><a xlink:title="सुन्दर, रुचिकर">
<polygon fill="none" stroke="#0000ff" points="185.3968,-144 131.3968,-144 131.3968,-108 185.3968,-108 185.3968,-144"/>
<text text-anchor="middle" x="158.3968" y="-122.3" font-family="Times,serif" font-size="14.00" fill="#000000">कूवर</text>
</a>
</g>
</g>
<!-- Node1&#45;&gt;Node28 -->
<g id="edge27" class="edge">
<title>Node1&#45;&gt;Node28</title>
<path fill="none" stroke="#000000" d="M27.2129,-593.8298C28.3059,-523.1178 34.8071,-266.7245 72,-196 83.2475,-174.6123 104.1522,-157.4041 122.5809,-145.4017"/>
<polygon fill="#000000" stroke="#000000" points="124.4638,-148.3524 131.1021,-140.095 120.7633,-142.4104 124.4638,-148.3524"/>
<text text-anchor="middle" x="88" y="-199.8" font-family="Times,serif" font-size="14.00" fill="#000000">वरच्</text>
</g>
<!-- Node29 -->
<g id="node29" class="node">
<title>Node29</title>
<g id="a_node29"><a xlink:title="सुकुमार, मृदु, नाजुक, &#160;आलं से भी*">
<polygon fill="none" stroke="#0000ff" points="185.3968,-90 131.3968,-90 131.3968,-54 185.3968,-54 185.3968,-90"/>
<text text-anchor="middle" x="158.3968" y="-68.3" font-family="Times,serif" font-size="14.00" fill="#000000">कोमल</text>
</a>
</g>
</g>
<!-- Node1&#45;&gt;Node29 -->
<g id="edge28" class="edge">
<title>Node1&#45;&gt;Node29</title>
<path fill="none" stroke="#000000" d="M27.9166,-593.9438C32.1577,-512.5273 50.5836,-181.7686 72,-141 83.124,-119.8241 103.8888,-102.9149 122.2732,-91.136"/>
<polygon fill="#000000" stroke="#000000" points="124.3468,-93.9707 131.0545,-85.7696 120.6966,-87.9978 124.3468,-93.9707"/>
<text text-anchor="middle" x="88" y="-144.8" font-family="Times,serif" font-size="14.00" fill="#000000">कलच्</text>
</g>
<!-- Node30 -->
<g id="node30" class="node">
<title>Node30</title>
<g id="a_node30"><a xlink:title="एक वृक्ष का नाम, कचनार, चित्तं विदारयति कस्य न कोविदारः">
<polygon fill="none" stroke="#0000ff" points="187.8968,-36 128.8968,-36 128.8968,0 187.8968,0 187.8968,-36"/>
<text text-anchor="middle" x="158.3968" y="-14.3" font-family="Times,serif" font-size="14.00" fill="#000000">कोविदार</text>
</a>
</g>
</g>
<!-- Node1&#45;&gt;Node30 -->
<g id="edge29" class="edge">
<title>Node1&#45;&gt;Node30</title>
<path fill="none" stroke="#000000" d="M27.728,-593.9504C31.3476,-506.9145 48.1865,-132.8735 72,-87 82.6407,-66.5022 102.3624,-50.0309 120.2793,-38.3289"/>
<polygon fill="#000000" stroke="#000000" points="122.2444,-41.2284 128.8822,-32.9706 118.5436,-35.2866 122.2444,-41.2284"/>
<text text-anchor="middle" x="88" y="-90.8" font-family="Times,serif" font-size="14.00" fill="#000000">विच्</text>
</g>
<!-- Node3 -->
<g id="node3" class="node">
<title>Node3</title>
<ellipse fill="none" stroke="#ff0000" cx="300.8391" cy="-1206" rx="50.0912" ry="18"/>
<text text-anchor="middle" x="300.8391" y="-1202.3" font-family="Times,serif" font-size="14.00" fill="#000000">आ_कु+अल्</text>
</g>
<!-- Node2&#45;&gt;Node3 -->
<g id="edge2" class="edge">
<title>Node2&#45;&gt;Node3</title>
<path fill="none" stroke="#000000" d="M195.0792,-1206C208.9411,-1206 225.1063,-1206 240.5663,-1206"/>
<polygon fill="#000000" stroke="#000000" points="240.5927,-1209.5001 250.5926,-1206 240.5926,-1202.5001 240.5927,-1209.5001"/>
</g>
<!-- Node4 -->
<g id="node4" class="node">
<title>Node4</title>
<g id="a_node4"><a xlink:title="ठीक समय">
<polygon fill="none" stroke="#0000ff" points="463.8847,-1224 408.8847,-1224 408.8847,-1188 463.8847,-1188 463.8847,-1224"/>
<text text-anchor="middle" x="436.3847" y="-1202.3" font-family="Times,serif" font-size="14.00" fill="#000000">आकाल</text>
</a>
</g>
</g>
<!-- Node3&#45;&gt;Node4 -->
<g id="edge3" class="edge">
<title>Node3&#45;&gt;Node4</title>
<path fill="none" stroke="#000000" d="M350.9262,-1206C366.5828,-1206 383.5933,-1206 398.2856,-1206"/>
<polygon fill="#000000" stroke="#000000" points="398.5216,-1209.5001 408.5216,-1206 398.5216,-1202.5001 398.5216,-1209.5001"/>
<text text-anchor="middle" x="379.8847" y="-1209.8" font-family="Times,serif" font-size="14.00" fill="#000000">अच्</text>
</g>
<!-- Node6 -->
<g id="node6" class="node">
<title>Node6</title>
<ellipse fill="none" stroke="#ff0000" cx="300.8391" cy="-1152" rx="48.1917" ry="18"/>
<text text-anchor="middle" x="300.8391" y="-1148.3" font-family="Times,serif" font-size="14.00" fill="#000000">आ_खन्_कु</text>
</g>
<!-- Node5&#45;&gt;Node6 -->
<g id="edge5" class="edge">
<title>Node5&#45;&gt;Node6</title>
<path fill="none" stroke="#000000" d="M192.8781,-1152C207.7424,-1152 225.5468,-1152 242.37,-1152"/>
<polygon fill="#000000" stroke="#000000" points="242.6829,-1155.5001 252.6829,-1152 242.6829,-1148.5001 242.6829,-1155.5001"/>
</g>
<!-- Node7 -->
<g id="node7" class="node">
<title>Node7</title>
<g id="a_node7"><a xlink:title="मूषिक, चूहा, छछुंदर, अत्तुं वाञ्छति शांभवो गणपतेराखुं क्षुधार्तः फणी&#45;">
<polygon fill="none" stroke="#0000ff" points="463.3847,-1170 409.3847,-1170 409.3847,-1134 463.3847,-1134 463.3847,-1170"/>
<text text-anchor="middle" x="436.3847" y="-1148.3" font-family="Times,serif" font-size="14.00" fill="#000000">आखु</text>
</a>
</g>
</g>
<!-- Node6&#45;&gt;Node7 -->
<g id="edge6" class="edge">
<title>Node6&#45;&gt;Node7</title>
<path fill="none" stroke="#000000" d="M349.009,-1152C365.4547,-1152 383.5853,-1152 399.0479,-1152"/>
<polygon fill="#000000" stroke="#000000" points="399.2732,-1155.5001 409.2731,-1152 399.2731,-1148.5001 399.2732,-1155.5001"/>
<text text-anchor="middle" x="379.8847" y="-1155.8" font-family="Times,serif" font-size="14.00" fill="#000000">डिच्च</text>
</g>
<!-- Node16 -->
<g id="node16" class="node">
<title>Node16</title>
<g id="a_node16"><a xlink:title="एक देश का नाम जिसे ‘दुर्शाह’ भी कहते हैं">
<polygon fill="none" stroke="#0000ff" points="327.8391,-738 273.8391,-738 273.8391,-702 327.8391,-702 327.8391,-738"/>
<text text-anchor="middle" x="300.8391" y="-716.3" font-family="Times,serif" font-size="14.00" fill="#000000">कुकुरा</text>
</a>
</g>
</g>
<!-- Node15&#45;&gt;Node16 -->
<g id="edge15" class="edge">
<title>Node15&#45;&gt;Node16</title>
<path fill="none" stroke="#000000" d="M192.5153,-720C213.876,-720 241.4146,-720 263.3794,-720"/>
<polygon fill="#000000" stroke="#000000" points="263.663,-723.5001 273.6629,-720 263.6629,-716.5001 263.663,-723.5001"/>
<text text-anchor="middle" x="222.7935" y="-723.8" font-family="Times,serif" font-size="14.00" fill="#000000">क</text>
</g>
<!-- Node19 -->
<g id="node19" class="node">
<title>Node19</title>
<g id="a_node19"><a xlink:title="छत, छप्पर">
<polygon fill="none" stroke="#0000ff" points="327.8391,-630 273.8391,-630 273.8391,-594 327.8391,-594 327.8391,-630"/>
<text text-anchor="middle" x="300.8391" y="-608.3" font-family="Times,serif" font-size="14.00" fill="#000000">कुटङ्क</text>
</a>
</g>
</g>
<!-- Node18&#45;&gt;Node19 -->
<g id="edge18" class="edge">
<title>Node18&#45;&gt;Node19</title>
<path fill="none" stroke="#000000" d="M192.8781,-612C214.2469,-612 241.6922,-612 263.563,-612"/>
<polygon fill="#000000" stroke="#000000" points="263.8007,-615.5001 273.8007,-612 263.8007,-608.5001 263.8007,-615.5001"/>
<text text-anchor="middle" x="222.7935" y="-615.8" font-family="Times,serif" font-size="14.00" fill="#000000">घञ्</text>
</g>
</g>
</svg>
