<?xml version="1.0" encoding="UTF-8" standalone="no"?>
<!DOCTYPE svg PUBLIC "-//W3C//DTD SVG 1.1//EN"
 "http://www.w3.org/Graphics/SVG/1.1/DTD/svg11.dtd">
<!-- Generated by graphviz version 2.40.1 (20161225.0304)
 -->
<!-- Title: G Pages: 1 -->
<svg width="181pt" height="152pt"
 viewBox="0.00 0.00 181.00 152.00" xmlns="http://www.w3.org/2000/svg" xmlns:xlink="http://www.w3.org/1999/xlink">
<g id="graph0" class="graph" transform="scale(1 1) rotate(0) translate(4 148)">
<title>G</title>
<polygon fill="#ffffff" stroke="transparent" points="-4,4 -4,-148 177,-148 177,4 -4,4"/>
<!-- Node1 -->
<g id="node1" class="node">
<title>Node1</title>
<ellipse fill="none" stroke="#ff0000" cx="27" cy="-72" rx="27" ry="18"/>
<text text-anchor="middle" x="27" y="-68.3" font-family="Times,serif" font-size="14.00" fill="#000000">कुक्</text>
</g>
<!-- Node2 -->
<g id="node2" class="node">
<title>Node2</title>
<g id="a_node2"><a xlink:title="मुर्गा, जंगली मुर्गा">
<polygon fill="none" stroke="#0000ff" points="172.5,-144 118.5,-144 118.5,-108 172.5,-108 172.5,-144"/>
<text text-anchor="middle" x="145.5" y="-122.3" font-family="Times,serif" font-size="14.00" fill="#000000">कुक्कुट</text>
</a>
</g>
</g>
<!-- Node1&#45;&gt;Node2 -->
<g id="edge1" class="edge">
<title>Node1&#45;&gt;Node2</title>
<path fill="none" stroke="#000000" d="M49.5679,-82.2841C66.4188,-89.963 89.7959,-100.6158 109.2543,-109.483"/>
<polygon fill="#000000" stroke="#000000" points="107.8949,-112.7097 118.446,-113.6716 110.7976,-106.3399 107.8949,-112.7097"/>
<text text-anchor="middle" x="86" y="-106.8" font-family="Times,serif" font-size="14.00" fill="#000000">क्विप्</text>
</g>
<!-- Node3 -->
<g id="node3" class="node">
<title>Node3</title>
<polygon fill="none" stroke="#0000ff" points="172.5,-90 118.5,-90 118.5,-54 172.5,-54 172.5,-90"/>
<text text-anchor="middle" x="145.5" y="-68.3" font-family="Times,serif" font-size="14.00" fill="#000000">कुङ्कुम</text>
</g>
<!-- Node1&#45;&gt;Node3 -->
<g id="edge2" class="edge">
<title>Node1&#45;&gt;Node3</title>
<path fill="none" stroke="#000000" d="M54.1863,-72C70.1436,-72 90.5412,-72 108.0087,-72"/>
<polygon fill="#000000" stroke="#000000" points="108.4402,-75.5001 118.4402,-72 108.4402,-68.5001 108.4402,-75.5001"/>
<text text-anchor="middle" x="86" y="-75.8" font-family="Times,serif" font-size="14.00" fill="#000000">उमक्</text>
</g>
<!-- Node4 -->
<g id="node4" class="node">
<title>Node4</title>
<g id="a_node4"><a xlink:title="कोयल, पुंस्कोकिलो यन्मधुरं ‘चुकूज&#45;कू ३।३२, ४।१६">
<polygon fill="none" stroke="#0000ff" points="173,-36 118,-36 118,0 173,0 173,-36"/>
<text text-anchor="middle" x="145.5" y="-14.3" font-family="Times,serif" font-size="14.00" fill="#000000">कोकिल</text>
</a>
</g>
</g>
<!-- Node1&#45;&gt;Node4 -->
<g id="edge3" class="edge">
<title>Node1&#45;&gt;Node4</title>
<path fill="none" stroke="#000000" d="M49.5679,-61.7159C66.1879,-54.1422 89.1566,-43.6755 108.4524,-34.8824"/>
<polygon fill="#000000" stroke="#000000" points="109.9376,-38.052 117.5859,-30.7203 107.0349,-31.6822 109.9376,-38.052"/>
<text text-anchor="middle" x="86" y="-54.8" font-family="Times,serif" font-size="14.00" fill="#000000">इलच्</text>
</g>
</g>
</svg>
