<?xml version="1.0" encoding="UTF-8" standalone="no"?>
<!DOCTYPE svg PUBLIC "-//W3C//DTD SVG 1.1//EN"
 "http://www.w3.org/Graphics/SVG/1.1/DTD/svg11.dtd">
<!-- Generated by graphviz version 2.40.1 (20161225.0304)
 -->
<!-- Title: G Pages: 1 -->
<svg width="306pt" height="44pt"
 viewBox="0.00 0.00 305.89 44.00" xmlns="http://www.w3.org/2000/svg" xmlns:xlink="http://www.w3.org/1999/xlink">
<g id="graph0" class="graph" transform="scale(1 1) rotate(0) translate(4 40)">
<title>G</title>
<polygon fill="#ffffff" stroke="transparent" points="-4,4 -4,-40 301.887,-40 301.887,4 -4,4"/>
<!-- Node1 -->
<g id="node1" class="node">
<title>Node1</title>
<ellipse fill="none" stroke="#ff0000" cx="27.2976" cy="-18" rx="27.0966" ry="18"/>
<text text-anchor="middle" x="27.2976" y="-14.3" font-family="Times,serif" font-size="14.00" fill="#000000">क्वथ्</text>
</g>
<!-- Node2 -->
<g id="node2" class="node">
<title>Node2</title>
<ellipse fill="none" stroke="#ff0000" cx="137.7411" cy="-18" rx="46.2923" ry="18"/>
<text text-anchor="middle" x="137.7411" y="-14.3" font-family="Times,serif" font-size="14.00" fill="#000000">निस्_क्वथ्</text>
</g>
<!-- Node1&#45;&gt;Node2 -->
<g id="edge1" class="edge">
<title>Node1&#45;&gt;Node2</title>
<path fill="none" stroke="#000000" d="M54.5982,-18C62.7606,-18 72.0275,-18 81.3391,-18"/>
<polygon fill="#000000" stroke="#000000" points="81.4106,-21.5001 91.4106,-18 81.4106,-14.5001 81.4106,-21.5001"/>
</g>
<!-- Node3 -->
<g id="node3" class="node">
<title>Node3</title>
<g id="a_node3"><a xlink:title="काढ़ा">
<polygon fill="none" stroke="#0000ff" points="297.887,-36 239.887,-36 239.887,0 297.887,0 297.887,-36"/>
<text text-anchor="middle" x="268.887" y="-14.3" font-family="Times,serif" font-size="14.00" fill="#000000">निष्क्काथ</text>
</a>
</g>
</g>
<!-- Node2&#45;&gt;Node3 -->
<g id="edge2" class="edge">
<title>Node2&#45;&gt;Node3</title>
<path fill="none" stroke="#000000" d="M183.9782,-18C198.9324,-18 215.3601,-18 229.7483,-18"/>
<polygon fill="#000000" stroke="#000000" points="229.8145,-21.5001 239.8145,-18 229.8145,-14.5001 229.8145,-21.5001"/>
<text text-anchor="middle" x="211.887" y="-21.8" font-family="Times,serif" font-size="14.00" fill="#000000">घञ्</text>
</g>
</g>
</svg>
