<?xml version="1.0" encoding="UTF-8" standalone="no"?>
<!DOCTYPE svg PUBLIC "-//W3C//DTD SVG 1.1//EN"
 "http://www.w3.org/Graphics/SVG/1.1/DTD/svg11.dtd">
<!-- Generated by graphviz version 2.40.1 (20161225.0304)
 -->
<!-- Title: G Pages: 1 -->
<svg width="305pt" height="260pt"
 viewBox="0.00 0.00 304.69 260.00" xmlns="http://www.w3.org/2000/svg" xmlns:xlink="http://www.w3.org/1999/xlink">
<g id="graph0" class="graph" transform="scale(1 1) rotate(0) translate(4 256)">
<title>G</title>
<polygon fill="#ffffff" stroke="transparent" points="-4,4 -4,-256 300.6932,-256 300.6932,4 -4,4"/>
<!-- Node1 -->
<g id="node1" class="node">
<title>Node1</title>
<ellipse fill="none" stroke="#ff0000" cx="27" cy="-126" rx="27" ry="18"/>
<text text-anchor="middle" x="27" y="-122.3" font-family="Times,serif" font-size="14.00" fill="#000000">लग्</text>
</g>
<!-- Node2 -->
<g id="node2" class="node">
<title>Node2</title>
<ellipse fill="none" stroke="#ff0000" cx="156.3466" cy="-234" rx="38.1938" ry="18"/>
<text text-anchor="middle" x="156.3466" y="-230.3" font-family="Times,serif" font-size="14.00" fill="#000000">अव_लग्</text>
</g>
<!-- Node1&#45;&gt;Node2 -->
<g id="edge1" class="edge">
<title>Node1&#45;&gt;Node2</title>
<path fill="none" stroke="#000000" d="M39.9854,-141.832C48.5721,-151.8571 60.3557,-164.8045 72,-175 88.2223,-189.2038 107.8894,-203.1248 124.1507,-213.8743"/>
<polygon fill="#000000" stroke="#000000" points="122.5012,-216.9769 132.7908,-219.5017 126.3215,-211.1113 122.5012,-216.9769"/>
</g>
<!-- Node4 -->
<g id="node4" class="node">
<title>Node4</title>
<g id="a_node4"><a xlink:title="जु्ड़ा हुआ, चिपका हुआ">
<polygon fill="none" stroke="#0000ff" points="183.3466,-198 129.3466,-198 129.3466,-162 183.3466,-162 183.3466,-198"/>
<text text-anchor="middle" x="156.3466" y="-176.3" font-family="Times,serif" font-size="14.00" fill="#000000">लगित</text>
</a>
</g>
</g>
<!-- Node1&#45;&gt;Node4 -->
<g id="edge3" class="edge">
<title>Node1&#45;&gt;Node4</title>
<path fill="none" stroke="#000000" d="M49.8811,-135.6932C56.9673,-138.6864 64.8032,-141.9875 72,-145 87.5958,-151.5282 104.8346,-158.6909 119.6414,-164.8268"/>
<polygon fill="#000000" stroke="#000000" points="118.4003,-168.1011 128.9786,-168.6937 121.0787,-161.6337 118.4003,-168.1011"/>
<text text-anchor="middle" x="86" y="-159.8" font-family="Times,serif" font-size="14.00" fill="#000000">क्त</text>
</g>
<!-- Node5 -->
<g id="node5" class="node">
<title>Node5</title>
<g id="a_node5"><a xlink:title="मुद्गर, छड़ी, लाठी, सोटा">
<polygon fill="none" stroke="#0000ff" points="183.3466,-144 129.3466,-144 129.3466,-108 183.3466,-108 183.3466,-144"/>
<text text-anchor="middle" x="156.3466" y="-122.3" font-family="Times,serif" font-size="14.00" fill="#000000">लगुड</text>
</a>
</g>
</g>
<!-- Node1&#45;&gt;Node5 -->
<g id="edge4" class="edge">
<title>Node1&#45;&gt;Node5</title>
<path fill="none" stroke="#000000" d="M54.1153,-126C73.0003,-126 98.4238,-126 119.1928,-126"/>
<polygon fill="#000000" stroke="#000000" points="119.267,-129.5001 129.267,-126 119.267,-122.5001 119.267,-129.5001"/>
<text text-anchor="middle" x="86" y="-129.8" font-family="Times,serif" font-size="14.00" fill="#000000">उलच्</text>
</g>
<!-- Node6 -->
<g id="node6" class="node">
<title>Node6</title>
<g id="a_node6"><a xlink:title="जुडा हुआ, चिपका हुआ, सटा हुआ, दृढ़ थामा हुआ, लता विपटे एकावली लग्ना#मदोन्मत्त हाथी">
<polygon fill="none" stroke="#0000ff" points="183.3466,-90 129.3466,-90 129.3466,-54 183.3466,-54 183.3466,-90"/>
<text text-anchor="middle" x="156.3466" y="-68.3" font-family="Times,serif" font-size="14.00" fill="#000000">लग्न</text>
</a>
</g>
</g>
<!-- Node1&#45;&gt;Node6 -->
<g id="edge5" class="edge">
<title>Node1&#45;&gt;Node6</title>
<path fill="none" stroke="#000000" d="M49.8811,-116.3068C56.9673,-113.3136 64.8032,-110.0125 72,-107 87.5958,-100.4718 104.8346,-93.3091 119.6414,-87.1732"/>
<polygon fill="#000000" stroke="#000000" points="121.0787,-90.3663 128.9786,-83.3063 118.4003,-83.8989 121.0787,-90.3663"/>
<text text-anchor="middle" x="86" y="-110.8" font-family="Times,serif" font-size="14.00" fill="#000000">क्त</text>
</g>
<!-- Node7 -->
<g id="node7" class="node">
<title>Node7</title>
<ellipse fill="none" stroke="#ff0000" cx="156.3466" cy="-18" rx="38.1938" ry="18"/>
<text text-anchor="middle" x="156.3466" y="-14.3" font-family="Times,serif" font-size="14.00" fill="#000000">सम्_लग्</text>
</g>
<!-- Node1&#45;&gt;Node7 -->
<g id="edge6" class="edge">
<title>Node1&#45;&gt;Node7</title>
<path fill="none" stroke="#000000" d="M42.6326,-111.0936C60.3932,-94.396 90.4887,-66.8139 118,-45 120.552,-42.9765 123.2426,-40.9262 125.9664,-38.9068"/>
<polygon fill="#000000" stroke="#000000" points="128.081,-41.6969 134.1311,-32.9994 123.9777,-36.0257 128.081,-41.6969"/>
</g>
<!-- Node3 -->
<g id="node3" class="node">
<title>Node3</title>
<g id="a_node3"><a xlink:title="चिपका हुआ, लगा हुआ, सटा हुआ ।">
<polygon fill="none" stroke="#0000ff" points="296.6932,-252 242.6932,-252 242.6932,-216 296.6932,-216 296.6932,-252"/>
<text text-anchor="middle" x="269.6932" y="-230.3" font-family="Times,serif" font-size="14.00" fill="#000000">अवलग्न</text>
</a>
</g>
</g>
<!-- Node2&#45;&gt;Node3 -->
<g id="edge2" class="edge">
<title>Node2&#45;&gt;Node3</title>
<path fill="none" stroke="#000000" d="M194.7206,-234C206.8409,-234 220.212,-234 232.2653,-234"/>
<polygon fill="#000000" stroke="#000000" points="232.4538,-237.5001 242.4537,-234 232.4537,-230.5001 232.4538,-237.5001"/>
<text text-anchor="middle" x="218.6932" y="-237.8" font-family="Times,serif" font-size="14.00" fill="#000000">क्त</text>
</g>
<!-- Node8 -->
<g id="node8" class="node">
<title>Node8</title>
<g id="a_node8"><a xlink:title="घनिष्ठ, सटा हुआ, संहत, जुड़ा हुआ">
<polygon fill="none" stroke="#0000ff" points="296.6932,-36 242.6932,-36 242.6932,0 296.6932,0 296.6932,-36"/>
<text text-anchor="middle" x="269.6932" y="-14.3" font-family="Times,serif" font-size="14.00" fill="#000000">संलग्न</text>
</a>
</g>
</g>
<!-- Node7&#45;&gt;Node8 -->
<g id="edge7" class="edge">
<title>Node7&#45;&gt;Node8</title>
<path fill="none" stroke="#000000" d="M194.7206,-18C206.8409,-18 220.212,-18 232.2653,-18"/>
<polygon fill="#000000" stroke="#000000" points="232.4538,-21.5001 242.4537,-18 232.4537,-14.5001 232.4538,-21.5001"/>
<text text-anchor="middle" x="218.6932" y="-21.8" font-family="Times,serif" font-size="14.00" fill="#000000">क्त</text>
</g>
</g>
</svg>
