<?xml version="1.0" encoding="UTF-8" standalone="no"?>
<!DOCTYPE svg PUBLIC "-//W3C//DTD SVG 1.1//EN"
 "http://www.w3.org/Graphics/SVG/1.1/DTD/svg11.dtd">
<!-- Generated by graphviz version 2.40.1 (20161225.0304)
 -->
<!-- Title: G Pages: 1 -->
<svg width="429pt" height="44pt"
 viewBox="0.00 0.00 428.68 44.00" xmlns="http://www.w3.org/2000/svg" xmlns:xlink="http://www.w3.org/1999/xlink">
<g id="graph0" class="graph" transform="scale(1 1) rotate(0) translate(4 40)">
<title>G</title>
<polygon fill="#ffffff" stroke="transparent" points="-4,4 -4,-40 424.684,-40 424.684,4 -4,4"/>
<!-- Node1 -->
<g id="node1" class="node">
<title>Node1</title>
<ellipse fill="none" stroke="#ff0000" cx="27" cy="-18" rx="27" ry="18"/>
<text text-anchor="middle" x="27" y="-14.3" font-family="Times,serif" font-size="14.00" fill="#000000">लाघ्</text>
</g>
<!-- Node2 -->
<g id="node2" class="node">
<title>Node2</title>
<ellipse fill="none" stroke="#ff0000" cx="131.2964" cy="-18" rx="40.0939" ry="18"/>
<text text-anchor="middle" x="131.2964" y="-14.3" font-family="Times,serif" font-size="14.00" fill="#000000">उद्_लाघ्</text>
</g>
<!-- Node1&#45;&gt;Node2 -->
<g id="edge1" class="edge">
<title>Node1&#45;&gt;Node2</title>
<path fill="none" stroke="#000000" d="M54.1304,-18C62.287,-18 71.5138,-18 80.6776,-18"/>
<polygon fill="#000000" stroke="#000000" points="80.9366,-21.5001 90.9366,-18 80.9365,-14.5001 80.9366,-21.5001"/>
</g>
<!-- Node3 -->
<g id="node3" class="node">
<title>Node3</title>
<ellipse fill="none" stroke="#ff0000" cx="258.6384" cy="-18" rx="50.0912" ry="18"/>
<text text-anchor="middle" x="258.6384" y="-14.3" font-family="Times,serif" font-size="14.00" fill="#000000">प्र_उद्_लाघ्</text>
</g>
<!-- Node2&#45;&gt;Node3 -->
<g id="edge2" class="edge">
<title>Node2&#45;&gt;Node3</title>
<path fill="none" stroke="#000000" d="M171.9383,-18C180.4,-18 189.4887,-18 198.4836,-18"/>
<polygon fill="#000000" stroke="#000000" points="198.5608,-21.5001 208.5608,-18 198.5608,-14.5001 198.5608,-21.5001"/>
</g>
<!-- Node4 -->
<g id="node4" class="node">
<title>Node4</title>
<g id="a_node4"><a xlink:title="रोग से मुक्त हो उठा हुआ, स्वास्थ्योन्मुख">
<polygon fill="none" stroke="#0000ff" points="420.684,-36 356.684,-36 356.684,0 420.684,0 420.684,-36"/>
<text text-anchor="middle" x="388.684" y="-14.3" font-family="Times,serif" font-size="14.00" fill="#000000">प्रोल्लाघित</text>
</a>
</g>
</g>
<!-- Node3&#45;&gt;Node4 -->
<g id="edge3" class="edge">
<title>Node3&#45;&gt;Node4</title>
<path fill="none" stroke="#000000" d="M308.9174,-18C321.3003,-18 334.4363,-18 346.3978,-18"/>
<polygon fill="#000000" stroke="#000000" points="346.5588,-21.5001 356.5587,-18 346.5587,-14.5001 346.5588,-21.5001"/>
<text text-anchor="middle" x="332.684" y="-21.8" font-family="Times,serif" font-size="14.00" fill="#000000">क्त</text>
</g>
</g>
</svg>
