<?xml version="1.0" encoding="UTF-8" standalone="no"?>
<!DOCTYPE svg PUBLIC "-//W3C//DTD SVG 1.1//EN"
 "http://www.w3.org/Graphics/SVG/1.1/DTD/svg11.dtd">
<!-- Generated by graphviz version 2.40.1 (20161225.0304)
 -->
<!-- Title: G Pages: 1 -->
<svg width="477pt" height="206pt"
 viewBox="0.00 0.00 477.48 206.00" xmlns="http://www.w3.org/2000/svg" xmlns:xlink="http://www.w3.org/1999/xlink">
<g id="graph0" class="graph" transform="scale(1 1) rotate(0) translate(4 202)">
<title>G</title>
<polygon fill="#ffffff" stroke="transparent" points="-4,4 -4,-202 473.4833,-202 473.4833,4 -4,4"/>
<!-- Node1 -->
<g id="node1" class="node">
<title>Node1</title>
<ellipse fill="none" stroke="#ff0000" cx="27" cy="-99" rx="27" ry="18"/>
<text text-anchor="middle" x="27" y="-95.3" font-family="Times,serif" font-size="14.00" fill="#000000">लस्</text>
</g>
<!-- Node2 -->
<g id="node2" class="node">
<title>Node2</title>
<g id="a_node2"><a xlink:title="न चमकने वाला">
<polygon fill="none" stroke="#0000ff" points="183.9965,-198 129.9965,-198 129.9965,-162 183.9965,-162 183.9965,-198"/>
<text text-anchor="middle" x="156.9965" y="-176.3" font-family="Times,serif" font-size="14.00" fill="#000000">अलस्</text>
</a>
</g>
</g>
<!-- Node1&#45;&gt;Node2 -->
<g id="edge1" class="edge">
<title>Node1&#45;&gt;Node2</title>
<path fill="none" stroke="#000000" d="M46.7437,-111.3022C66.4805,-123.6 97.269,-142.7841 121.2996,-157.7575"/>
<polygon fill="#000000" stroke="#000000" points="119.4761,-160.7451 129.8143,-163.0629 123.1779,-154.804 119.4761,-160.7451"/>
<text text-anchor="middle" x="86" y="-147.8" font-family="Times,serif" font-size="14.00" fill="#000000">क्विप्</text>
</g>
<!-- Node3 -->
<g id="node3" class="node">
<title>Node3</title>
<ellipse fill="none" stroke="#ff0000" cx="156.9965" cy="-126" rx="38.1938" ry="18"/>
<text text-anchor="middle" x="156.9965" y="-122.3" font-family="Times,serif" font-size="14.00" fill="#000000">उद्_लस्</text>
</g>
<!-- Node1&#45;&gt;Node3 -->
<g id="edge2" class="edge">
<title>Node1&#45;&gt;Node3</title>
<path fill="none" stroke="#000000" d="M52.9943,-104.399C69.7778,-107.8849 92.0672,-112.5143 111.7056,-116.5932"/>
<polygon fill="#000000" stroke="#000000" points="111.1875,-120.0602 121.6904,-118.667 112.6111,-113.2065 111.1875,-120.0602"/>
</g>
<!-- Node5 -->
<g id="node5" class="node">
<title>Node5</title>
<g id="a_node5"><a xlink:title="खेलने वाला, किलोल करने वाला, विहार करने वाला, स्त्री*&#45;लासिका#चौबारा, बुर्ज#नर्तक">
<polygon fill="none" stroke="#0000ff" points="183.9965,-90 129.9965,-90 129.9965,-54 183.9965,-54 183.9965,-90"/>
<text text-anchor="middle" x="156.9965" y="-68.3" font-family="Times,serif" font-size="14.00" fill="#000000">लासक</text>
</a>
</g>
</g>
<!-- Node1&#45;&gt;Node5 -->
<g id="edge4" class="edge">
<title>Node1&#45;&gt;Node5</title>
<path fill="none" stroke="#000000" d="M52.6802,-93.1944C58.9919,-91.7948 65.7356,-90.3224 72,-89 87.672,-85.6918 105.0051,-82.1958 119.9088,-79.24"/>
<polygon fill="#000000" stroke="#000000" points="120.656,-82.6601 129.7884,-77.289 119.2997,-75.7928 120.656,-82.6601"/>
<text text-anchor="middle" x="86" y="-92.8" font-family="Times,serif" font-size="14.00" fill="#000000">ण्वुल्</text>
</g>
<!-- Node6 -->
<g id="node6" class="node">
<title>Node6</title>
<ellipse fill="none" stroke="#ff0000" cx="156.9965" cy="-18" rx="38.9931" ry="18"/>
<text text-anchor="middle" x="156.9965" y="-14.3" font-family="Times,serif" font-size="14.00" fill="#000000">उत्_लस्</text>
</g>
<!-- Node1&#45;&gt;Node6 -->
<g id="edge5" class="edge">
<title>Node1&#45;&gt;Node6</title>
<path fill="none" stroke="#000000" d="M46.7437,-86.6978C67.4926,-73.7693 100.4558,-53.2302 124.9409,-37.9736"/>
<polygon fill="#000000" stroke="#000000" points="126.9035,-40.8747 133.5398,-32.6157 123.2016,-34.9336 126.9035,-40.8747"/>
</g>
<!-- Node4 -->
<g id="node4" class="node">
<title>Node4</title>
<g id="a_node4"><a xlink:title="चमकीला, उज्ज्वल, आभायुक्त">
<polygon fill="none" stroke="#0000ff" points="328.2382,-144 270.2382,-144 270.2382,-108 328.2382,-108 328.2382,-144"/>
<text text-anchor="middle" x="299.2382" y="-122.3" font-family="Times,serif" font-size="14.00" fill="#000000">उल्लसित</text>
</a>
</g>
</g>
<!-- Node3&#45;&gt;Node4 -->
<g id="edge3" class="edge">
<title>Node3&#45;&gt;Node4</title>
<path fill="none" stroke="#000000" d="M195.4892,-126C215.5273,-126 239.9773,-126 260.1078,-126"/>
<polygon fill="#000000" stroke="#000000" points="260.1949,-129.5001 270.1948,-126 260.1948,-122.5001 260.1949,-129.5001"/>
<text text-anchor="middle" x="219.9931" y="-129.8" font-family="Times,serif" font-size="14.00" fill="#000000">क्त</text>
</g>
<!-- Node7 -->
<g id="node7" class="node">
<title>Node7</title>
<ellipse fill="none" stroke="#ff0000" cx="299.2382" cy="-18" rx="55.4913" ry="18"/>
<text text-anchor="middle" x="299.2382" y="-14.3" font-family="Times,serif" font-size="14.00" fill="#000000">सम्_उत्_लस्</text>
</g>
<!-- Node6&#45;&gt;Node7 -->
<g id="edge6" class="edge">
<title>Node6&#45;&gt;Node7</title>
<path fill="none" stroke="#000000" d="M196.2412,-18C207.8558,-18 220.9005,-18 233.7023,-18"/>
<polygon fill="#000000" stroke="#000000" points="233.8851,-21.5001 243.8851,-18 233.8851,-14.5001 233.8851,-21.5001"/>
</g>
<!-- Node8 -->
<g id="node8" class="node">
<title>Node8</title>
<g id="a_node8"><a xlink:title="अत्यंत चमक">
<polygon fill="none" stroke="#0000ff" points="469.4833,-36 410.4833,-36 410.4833,0 469.4833,0 469.4833,-36"/>
<text text-anchor="middle" x="439.9833" y="-14.3" font-family="Times,serif" font-size="14.00" fill="#000000">समुल्लास</text>
</a>
</g>
</g>
<!-- Node7&#45;&gt;Node8 -->
<g id="edge7" class="edge">
<title>Node7&#45;&gt;Node8</title>
<path fill="none" stroke="#000000" d="M354.8644,-18C369.9269,-18 385.9331,-18 399.9523,-18"/>
<polygon fill="#000000" stroke="#000000" points="400.237,-21.5001 410.237,-18 400.237,-14.5001 400.237,-21.5001"/>
<text text-anchor="middle" x="382.4833" y="-21.8" font-family="Times,serif" font-size="14.00" fill="#000000">घञ्</text>
</g>
</g>
</svg>
