<?xml version="1.0" encoding="UTF-8" standalone="no"?>
<!DOCTYPE svg PUBLIC "-//W3C//DTD SVG 1.1//EN"
 "http://www.w3.org/Graphics/SVG/1.1/DTD/svg11.dtd">
<!-- Generated by graphviz version 2.40.1 (20161225.0304)
 -->
<!-- Title: G Pages: 1 -->
<svg width="272pt" height="44pt"
 viewBox="0.00 0.00 271.79 44.00" xmlns="http://www.w3.org/2000/svg" xmlns:xlink="http://www.w3.org/1999/xlink">
<g id="graph0" class="graph" transform="scale(1 1) rotate(0) translate(4 40)">
<title>G</title>
<polygon fill="#ffffff" stroke="transparent" points="-4,4 -4,-40 267.7935,-40 267.7935,4 -4,4"/>
<!-- Node1 -->
<g id="node1" class="node">
<title>Node1</title>
<ellipse fill="none" stroke="#ff0000" cx="27" cy="-18" rx="27" ry="18"/>
<text text-anchor="middle" x="27" y="-14.3" font-family="Times,serif" font-size="14.00" fill="#000000">ली</text>
</g>
<!-- Node2 -->
<g id="node2" class="node">
<title>Node2</title>
<ellipse fill="none" stroke="#ff0000" cx="127.3968" cy="-18" rx="36.2938" ry="18"/>
<text text-anchor="middle" x="127.3968" y="-14.3" font-family="Times,serif" font-size="14.00" fill="#000000">पोट_ली</text>
</g>
<!-- Node1&#45;&gt;Node2 -->
<g id="edge1" class="edge">
<title>Node1&#45;&gt;Node2</title>
<path fill="none" stroke="#000000" d="M54.1688,-18C62.3543,-18 71.5827,-18 80.6596,-18"/>
<polygon fill="#000000" stroke="#000000" points="80.7795,-21.5001 90.7795,-18 80.7795,-14.5001 80.7795,-21.5001"/>
</g>
<!-- Node3 -->
<g id="node3" class="node">
<title>Node3</title>
<g id="a_node3"><a xlink:title="पोटली, पुलिंदा, गठरी">
<polygon fill="none" stroke="#0000ff" points="263.7935,-36 209.7935,-36 209.7935,0 263.7935,0 263.7935,-36"/>
<text text-anchor="middle" x="236.7935" y="-14.3" font-family="Times,serif" font-size="14.00" fill="#000000">पोट्टली</text>
</a>
</g>
</g>
<!-- Node2&#45;&gt;Node3 -->
<g id="edge2" class="edge">
<title>Node2&#45;&gt;Node3</title>
<path fill="none" stroke="#000000" d="M163.8243,-18C175.2454,-18 187.8671,-18 199.3567,-18"/>
<polygon fill="#000000" stroke="#000000" points="199.5232,-21.5001 209.5231,-18 199.5231,-14.5001 199.5232,-21.5001"/>
<text text-anchor="middle" x="186.7935" y="-21.8" font-family="Times,serif" font-size="14.00" fill="#000000">ड</text>
</g>
</g>
</svg>
