<?xml version="1.0" encoding="UTF-8" standalone="no"?>
<!DOCTYPE svg PUBLIC "-//W3C//DTD SVG 1.1//EN"
 "http://www.w3.org/Graphics/SVG/1.1/DTD/svg11.dtd">
<!-- Generated by graphviz version 2.40.1 (20161225.0304)
 -->
<!-- Title: G Pages: 1 -->
<svg width="479pt" height="314pt"
 viewBox="0.00 0.00 478.58 314.00" xmlns="http://www.w3.org/2000/svg" xmlns:xlink="http://www.w3.org/1999/xlink">
<g id="graph0" class="graph" transform="scale(1 1) rotate(0) translate(4 310)">
<title>G</title>
<polygon fill="#ffffff" stroke="transparent" points="-4,4 -4,-310 474.5836,-310 474.5836,4 -4,4"/>
<!-- Node1 -->
<g id="node1" class="node">
<title>Node1</title>
<ellipse fill="none" stroke="#ff0000" cx="27" cy="-153" rx="27" ry="18"/>
<text text-anchor="middle" x="27" y="-149.3" font-family="Times,serif" font-size="14.00" fill="#000000">लोड्</text>
</g>
<!-- Node2 -->
<g id="node2" class="node">
<title>Node2</title>
<ellipse fill="none" stroke="#ff0000" cx="155.5963" cy="-288" rx="40.0939" ry="18"/>
<text text-anchor="middle" x="155.5963" y="-284.3" font-family="Times,serif" font-size="14.00" fill="#000000">उद्_लोड्</text>
</g>
<!-- Node1&#45;&gt;Node2 -->
<g id="edge1" class="edge">
<title>Node1&#45;&gt;Node2</title>
<path fill="none" stroke="#000000" d="M37.5457,-169.851C46.2313,-183.3124 59.1636,-202.4341 72,-218 88.9965,-238.6106 93.3361,-244.0683 114,-261 116.747,-263.2509 119.6888,-265.4774 122.6912,-267.629"/>
<polygon fill="#000000" stroke="#000000" points="120.9724,-270.6938 131.2019,-273.4521 124.9253,-264.9167 120.9724,-270.6938"/>
</g>
<!-- Node4 -->
<g id="node4" class="node">
<title>Node4</title>
<g id="a_node4"><a xlink:title="अशान्त करना, उद्विग्न करना, आलोडित करना">
<polygon fill="none" stroke="#0000ff" points="182.5963,-252 128.5963,-252 128.5963,-216 182.5963,-216 182.5963,-252"/>
<text text-anchor="middle" x="155.5963" y="-230.3" font-family="Times,serif" font-size="14.00" fill="#000000">लोडन</text>
</a>
</g>
</g>
<!-- Node1&#45;&gt;Node4 -->
<g id="edge3" class="edge">
<title>Node1&#45;&gt;Node4</title>
<path fill="none" stroke="#000000" d="M44.6327,-166.6352C52.8075,-172.7723 62.7436,-179.9753 72,-186 87.2163,-195.9038 104.5483,-206.0336 119.4705,-214.4193"/>
<polygon fill="#000000" stroke="#000000" points="117.9702,-217.5899 128.4097,-219.3976 121.3761,-211.4743 117.9702,-217.5899"/>
<text text-anchor="middle" x="84" y="-202.8" font-family="Times,serif" font-size="14.00" fill="#000000">ल्युट्</text>
</g>
<!-- Node5 -->
<g id="node5" class="node">
<title>Node5</title>
<g id="a_node5"><a xlink:title="विक्षुब्ध, अशान्त, बेचैन, परेशान">
<polygon fill="none" stroke="#0000ff" points="182.5963,-198 128.5963,-198 128.5963,-162 182.5963,-162 182.5963,-198"/>
<text text-anchor="middle" x="155.5963" y="-176.3" font-family="Times,serif" font-size="14.00" fill="#000000">लोल</text>
</a>
</g>
</g>
<!-- Node1&#45;&gt;Node5 -->
<g id="edge4" class="edge">
<title>Node1&#45;&gt;Node5</title>
<path fill="none" stroke="#000000" d="M53.0234,-158.4639C71.8184,-162.41 97.4735,-167.7966 118.4239,-172.1953"/>
<polygon fill="#000000" stroke="#000000" points="117.7743,-175.6351 128.2801,-174.2647 119.2127,-168.7845 117.7743,-175.6351"/>
<text text-anchor="middle" x="84" y="-170.8" font-family="Times,serif" font-size="14.00" fill="#000000">अच्</text>
</g>
<!-- Node6 -->
<g id="node6" class="node">
<title>Node6</title>
<ellipse fill="none" stroke="#ff0000" cx="155.5963" cy="-126" rx="37.0935" ry="18"/>
<text text-anchor="middle" x="155.5963" y="-122.3" font-family="Times,serif" font-size="14.00" fill="#000000">वि_लोड्</text>
</g>
<!-- Node1&#45;&gt;Node6 -->
<g id="edge5" class="edge">
<title>Node1&#45;&gt;Node6</title>
<path fill="none" stroke="#000000" d="M53.0234,-147.5361C69.7726,-144.0195 91.9698,-139.359 111.4305,-135.273"/>
<polygon fill="#000000" stroke="#000000" points="112.2469,-138.678 121.3143,-133.1978 110.8085,-131.8274 112.2469,-138.678"/>
</g>
<!-- Node9 -->
<g id="node9" class="node">
<title>Node9</title>
<ellipse fill="none" stroke="#ff0000" cx="155.5963" cy="-72" rx="38.9931" ry="18"/>
<text text-anchor="middle" x="155.5963" y="-68.3" font-family="Times,serif" font-size="14.00" fill="#000000">आ_लोड्</text>
</g>
<!-- Node1&#45;&gt;Node9 -->
<g id="edge8" class="edge">
<title>Node1&#45;&gt;Node9</title>
<path fill="none" stroke="#000000" d="M46.8114,-140.5213C67.3926,-127.5576 99.9016,-107.0808 124.0276,-91.8845"/>
<polygon fill="#000000" stroke="#000000" points="125.9031,-94.8396 132.4992,-86.5484 122.1724,-88.9166 125.9031,-94.8396"/>
</g>
<!-- Node12 -->
<g id="node12" class="node">
<title>Node12</title>
<ellipse fill="none" stroke="#ff0000" cx="155.5963" cy="-18" rx="41.6928" ry="18"/>
<text text-anchor="middle" x="155.5963" y="-14.3" font-family="Times,serif" font-size="14.00" fill="#000000">सम्_लोड्</text>
</g>
<!-- Node1&#45;&gt;Node12 -->
<g id="edge11" class="edge">
<title>Node1&#45;&gt;Node12</title>
<path fill="none" stroke="#000000" d="M37.9621,-136.269C53.2177,-113.7916 82.5421,-73.3915 114,-45 116.5705,-42.68 119.3601,-40.4226 122.2363,-38.2653"/>
<polygon fill="#000000" stroke="#000000" points="124.2946,-41.0967 130.4621,-32.4821 120.2685,-35.3704 124.2946,-41.0967"/>
</g>
<!-- Node3 -->
<g id="node3" class="node">
<title>Node3</title>
<g id="a_node3"><a xlink:title="अति चंचल, अत्यन्त कंपनशील#एक बड़ी लहर या तरंग">
<polygon fill="none" stroke="#0000ff" points="334.8881,-306 280.8881,-306 280.8881,-270 334.8881,-270 334.8881,-306"/>
<text text-anchor="middle" x="307.8881" y="-284.3" font-family="Times,serif" font-size="14.00" fill="#000000">उल्लोल</text>
</a>
</g>
</g>
<!-- Node2&#45;&gt;Node3 -->
<g id="edge2" class="edge">
<title>Node2&#45;&gt;Node3</title>
<path fill="none" stroke="#000000" d="M196.0079,-288C219.1338,-288 247.9467,-288 270.5407,-288"/>
<polygon fill="#000000" stroke="#000000" points="270.7602,-291.5001 280.7602,-288 270.7601,-284.5001 270.7602,-291.5001"/>
<text text-anchor="middle" x="227.1926" y="-291.8" font-family="Times,serif" font-size="14.00" fill="#000000">घञ्</text>
</g>
<!-- Node7 -->
<g id="node7" class="node">
<title>Node7</title>
<g id="a_node7"><a xlink:title="विक्षुब्ध होना, दोलायमान होना, हिल&#45;जुल, मन्थन करना">
<polygon fill="none" stroke="#0000ff" points="337.3881,-198 278.3881,-198 278.3881,-162 337.3881,-162 337.3881,-198"/>
<text text-anchor="middle" x="307.8881" y="-176.3" font-family="Times,serif" font-size="14.00" fill="#000000">विलोडन</text>
</a>
</g>
</g>
<!-- Node6&#45;&gt;Node7 -->
<g id="edge6" class="edge">
<title>Node6&#45;&gt;Node7</title>
<path fill="none" stroke="#000000" d="M185.6843,-136.6687C209.5124,-145.1177 242.9789,-156.9843 268.8663,-166.1635"/>
<polygon fill="#000000" stroke="#000000" points="267.7861,-169.494 278.3809,-169.5372 270.1255,-162.8965 267.7861,-169.494"/>
<text text-anchor="middle" x="227.1926" y="-157.8" font-family="Times,serif" font-size="14.00" fill="#000000">ल्युट्</text>
</g>
<!-- Node8 -->
<g id="node8" class="node">
<title>Node8</title>
<g id="a_node8"><a xlink:title="डुलाया हुआ, बिलोया हुआ, हिलाया हुआ, विक्षुब्ध#बिलोया हुआ दूध">
<polygon fill="none" stroke="#0000ff" points="338.8881,-144 276.8881,-144 276.8881,-108 338.8881,-108 338.8881,-144"/>
<text text-anchor="middle" x="307.8881" y="-122.3" font-family="Times,serif" font-size="14.00" fill="#000000">विलोडित</text>
</a>
</g>
</g>
<!-- Node6&#45;&gt;Node8 -->
<g id="edge7" class="edge">
<title>Node6&#45;&gt;Node8</title>
<path fill="none" stroke="#000000" d="M192.8511,-126C215.1491,-126 243.5291,-126 266.5211,-126"/>
<polygon fill="#000000" stroke="#000000" points="266.6647,-129.5001 276.6647,-126 266.6647,-122.5001 266.6647,-129.5001"/>
<text text-anchor="middle" x="227.1926" y="-129.8" font-family="Times,serif" font-size="14.00" fill="#000000">क्त</text>
</g>
<!-- Node10 -->
<g id="node10" class="node">
<title>Node10</title>
<ellipse fill="none" stroke="#ff0000" cx="307.8881" cy="-72" rx="50.8918" ry="18"/>
<text text-anchor="middle" x="307.8881" y="-68.3" font-family="Times,serif" font-size="14.00" fill="#000000">वि_आ_लोड्</text>
</g>
<!-- Node9&#45;&gt;Node10 -->
<g id="edge9" class="edge">
<title>Node9&#45;&gt;Node10</title>
<path fill="none" stroke="#000000" d="M194.8152,-72C210.6547,-72 229.3069,-72 246.8454,-72"/>
<polygon fill="#000000" stroke="#000000" points="247.0134,-75.5001 257.0134,-72 247.0134,-68.5001 247.0134,-75.5001"/>
</g>
<!-- Node11 -->
<g id="node11" class="node">
<title>Node11</title>
<g id="a_node11"><a xlink:title="कांपने वाला, थरथराने वाला">
<polygon fill="none" stroke="#0000ff" points="470.5836,-90 414.5836,-90 414.5836,-54 470.5836,-54 470.5836,-90"/>
<text text-anchor="middle" x="442.5836" y="-68.3" font-family="Times,serif" font-size="14.00" fill="#000000">व्यालोल</text>
</a>
</g>
</g>
<!-- Node10&#45;&gt;Node11 -->
<g id="edge10" class="edge">
<title>Node10&#45;&gt;Node11</title>
<path fill="none" stroke="#000000" d="M358.8107,-72C373.771,-72 389.8829,-72 403.9417,-72"/>
<polygon fill="#000000" stroke="#000000" points="404.2393,-75.5001 414.2393,-72 404.2392,-68.5001 404.2393,-75.5001"/>
<text text-anchor="middle" x="386.5836" y="-75.8" font-family="Times,serif" font-size="14.00" fill="#000000">अच्</text>
</g>
<!-- Node13 -->
<g id="node13" class="node">
<title>Node13</title>
<g id="a_node13"><a xlink:title="बाधा डालना, गड़बड़ करना">
<polygon fill="none" stroke="#0000ff" points="336.3881,-36 279.3881,-36 279.3881,0 336.3881,0 336.3881,-36"/>
<text text-anchor="middle" x="307.8881" y="-14.3" font-family="Times,serif" font-size="14.00" fill="#000000">संलोडन</text>
</a>
</g>
</g>
<!-- Node12&#45;&gt;Node13 -->
<g id="edge12" class="edge">
<title>Node12&#45;&gt;Node13</title>
<path fill="none" stroke="#000000" d="M197.2107,-18C219.613,-18 247.0744,-18 269.0382,-18"/>
<polygon fill="#000000" stroke="#000000" points="269.3326,-21.5001 279.3326,-18 269.3325,-14.5001 269.3326,-21.5001"/>
<text text-anchor="middle" x="227.1926" y="-21.8" font-family="Times,serif" font-size="14.00" fill="#000000">ल्युट्</text>
</g>
</g>
</svg>
