<?xml version="1.0" encoding="UTF-8" standalone="no"?>
<!DOCTYPE svg PUBLIC "-//W3C//DTD SVG 1.1//EN"
 "http://www.w3.org/Graphics/SVG/1.1/DTD/svg11.dtd">
<!-- Generated by graphviz version 2.40.1 (20161225.0304)
 -->
<!-- Title: G Pages: 1 -->
<svg width="326pt" height="800pt"
 viewBox="0.00 0.00 325.79 800.00" xmlns="http://www.w3.org/2000/svg" xmlns:xlink="http://www.w3.org/1999/xlink">
<g id="graph0" class="graph" transform="scale(1 1) rotate(0) translate(4 796)">
<title>G</title>
<polygon fill="#ffffff" stroke="transparent" points="-4,4 -4,-796 321.7935,-796 321.7935,4 -4,4"/>
<!-- Node1 -->
<g id="node1" class="node">
<title>Node1</title>
<ellipse fill="none" stroke="#ff0000" cx="27" cy="-396" rx="27" ry="18"/>
<text text-anchor="middle" x="27" y="-392.3" font-family="Times,serif" font-size="14.00" fill="#000000">लू</text>
</g>
<!-- Node2 -->
<g id="node2" class="node">
<title>Node2</title>
<ellipse fill="none" stroke="#ff0000" cx="164.3968" cy="-774" rx="36.2938" ry="18"/>
<text text-anchor="middle" x="164.3968" y="-770.3" font-family="Times,serif" font-size="14.00" fill="#000000">अभि_लू</text>
</g>
<!-- Node1&#45;&gt;Node2 -->
<g id="edge1" class="edge">
<title>Node1&#45;&gt;Node2</title>
<path fill="none" stroke="#000000" d="M28.4239,-414.0486C33.0194,-469.6023 48.5356,-637.2155 72,-686 85.5027,-714.0733 112.0515,-737.8582 133.2391,-753.595"/>
<polygon fill="#000000" stroke="#000000" points="131.4793,-756.6403 141.6432,-759.6314 135.563,-750.9549 131.4793,-756.6403"/>
</g>
<!-- Node4 -->
<g id="node4" class="node">
<title>Node4</title>
<ellipse fill="none" stroke="#ff0000" cx="164.3968" cy="-720" rx="27" ry="18"/>
<text text-anchor="middle" x="164.3968" y="-716.3" font-family="Times,serif" font-size="14.00" fill="#000000">प्र_लू</text>
</g>
<!-- Node1&#45;&gt;Node4 -->
<g id="edge3" class="edge">
<title>Node1&#45;&gt;Node4</title>
<path fill="none" stroke="#000000" d="M28.374,-414.0829C32.582,-465.8668 46.5756,-613.5917 72,-654 86.3842,-676.8614 111.8388,-694.1574 132.3932,-705.2965"/>
<polygon fill="#000000" stroke="#000000" points="130.9455,-708.4883 141.4349,-709.9791 134.1647,-702.2724 130.9455,-708.4883"/>
</g>
<!-- Node6 -->
<g id="node6" class="node">
<title>Node6</title>
<g id="a_node6"><a xlink:title="लौंग का पौधा, द्वीपान्तरानीतलवङ्गपुष्पैः">
<polygon fill="none" stroke="#0000ff" points="191.3968,-684 137.3968,-684 137.3968,-648 191.3968,-648 191.3968,-684"/>
<text text-anchor="middle" x="164.3968" y="-662.3" font-family="Times,serif" font-size="14.00" fill="#000000">लवङ्ग</text>
</a>
</g>
</g>
<!-- Node1&#45;&gt;Node6 -->
<g id="edge5" class="edge">
<title>Node1&#45;&gt;Node6</title>
<path fill="none" stroke="#000000" d="M29.3587,-414.2365C35.2986,-458.1291 51.8471,-568.2921 72,-599 85.7965,-620.0224 108.6195,-636.6666 128.1297,-648.1074"/>
<polygon fill="#000000" stroke="#000000" points="126.6684,-651.301 137.101,-653.1483 130.0975,-645.1984 126.6684,-651.301"/>
<text text-anchor="middle" x="91" y="-638.8" font-family="Times,serif" font-size="14.00" fill="#000000">अङ्गच्</text>
</g>
<!-- Node7 -->
<g id="node7" class="node">
<title>Node7</title>
<g id="a_node7"><a xlink:title="क्षारीय, सलोना, नमकीन#खारी स्वाद#नमक">
<polygon fill="none" stroke="#0000ff" points="191.3968,-630 137.3968,-630 137.3968,-594 191.3968,-594 191.3968,-630"/>
<text text-anchor="middle" x="164.3968" y="-608.3" font-family="Times,serif" font-size="14.00" fill="#000000">लवण</text>
</a>
</g>
</g>
<!-- Node1&#45;&gt;Node7 -->
<g id="edge6" class="edge">
<title>Node1&#45;&gt;Node7</title>
<path fill="none" stroke="#000000" d="M28.7823,-413.9989C32.4668,-443.5716 43.1489,-503.2224 72,-544 86.4991,-564.4927 109.1181,-581.2897 128.3469,-593.0628"/>
<polygon fill="#000000" stroke="#000000" points="126.7903,-596.2081 137.1819,-598.273 130.3461,-590.1784 126.7903,-596.2081"/>
<text text-anchor="middle" x="91" y="-583.8" font-family="Times,serif" font-size="14.00" fill="#000000">ल्युट्</text>
</g>
<!-- Node8 -->
<g id="node8" class="node">
<title>Node8</title>
<g id="a_node8"><a xlink:title="एक प्रकार का लवा पक्षी, बटेर">
<polygon fill="none" stroke="#0000ff" points="191.3968,-576 137.3968,-576 137.3968,-540 191.3968,-540 191.3968,-576"/>
<text text-anchor="middle" x="164.3968" y="-554.3" font-family="Times,serif" font-size="14.00" fill="#000000">लाबक</text>
</a>
</g>
</g>
<!-- Node1&#45;&gt;Node8 -->
<g id="edge7" class="edge">
<title>Node1&#45;&gt;Node8</title>
<path fill="none" stroke="#000000" d="M32.2812,-413.8089C39.0148,-434.3198 52.2105,-468.2378 72,-492 87.6826,-510.8308 109.9219,-526.9363 128.652,-538.5229"/>
<polygon fill="#000000" stroke="#000000" points="126.8713,-541.5362 137.2469,-543.6807 130.4733,-535.534 126.8713,-541.5362"/>
<text text-anchor="middle" x="91" y="-528.8" font-family="Times,serif" font-size="14.00" fill="#000000">घञ्</text>
</g>
<!-- Node9 -->
<g id="node9" class="node">
<title>Node9</title>
<g id="a_node9"><a xlink:title="एक प्रकार का लवा पक्षी, बटेर">
<polygon fill="none" stroke="#0000ff" points="191.3968,-522 137.3968,-522 137.3968,-486 191.3968,-486 191.3968,-522"/>
<text text-anchor="middle" x="164.3968" y="-500.3" font-family="Times,serif" font-size="14.00" fill="#000000">लाब</text>
</a>
</g>
</g>
<!-- Node1&#45;&gt;Node9 -->
<g id="edge8" class="edge">
<title>Node1&#45;&gt;Node9</title>
<path fill="none" stroke="#000000" d="M38.8446,-412.1848C47.3181,-423.0913 59.4111,-437.3715 72,-448 89.0869,-462.426 110.2977,-475.5607 128.0856,-485.4781"/>
<polygon fill="#000000" stroke="#000000" points="126.5808,-488.6441 137.0356,-490.3608 129.9333,-482.4991 126.5808,-488.6441"/>
<text text-anchor="middle" x="91" y="-476.8" font-family="Times,serif" font-size="14.00" fill="#000000">घञ्</text>
</g>
<!-- Node10 -->
<g id="node10" class="node">
<title>Node10</title>
<g id="a_node10"><a xlink:title="काटने वला, खंड&#45;खंड करने वाला">
<polygon fill="none" stroke="#0000ff" points="191.3968,-468 137.3968,-468 137.3968,-432 191.3968,-432 191.3968,-468"/>
<text text-anchor="middle" x="164.3968" y="-446.3" font-family="Times,serif" font-size="14.00" fill="#000000">लावक</text>
</a>
</g>
</g>
<!-- Node1&#45;&gt;Node10 -->
<g id="edge9" class="edge">
<title>Node1&#45;&gt;Node10</title>
<path fill="none" stroke="#000000" d="M49.8243,-405.832C56.9081,-408.8309 64.757,-412.1003 72,-415 90.2374,-422.3013 110.6488,-430.0746 127.6392,-436.4363"/>
<polygon fill="#000000" stroke="#000000" points="126.6127,-439.7889 137.2053,-440.0046 129.0592,-433.2303 126.6127,-439.7889"/>
<text text-anchor="middle" x="91" y="-432.8" font-family="Times,serif" font-size="14.00" fill="#000000">ण्वुल्</text>
</g>
<!-- Node11 -->
<g id="node11" class="node">
<title>Node11</title>
<g id="a_node11"><a xlink:title="मगध के निकट एक जिले का नाम">
<polygon fill="none" stroke="#0000ff" points="194.8968,-414 133.8968,-414 133.8968,-378 194.8968,-378 194.8968,-414"/>
<text text-anchor="middle" x="164.3968" y="-392.3" font-family="Times,serif" font-size="14.00" fill="#000000">लावाणक</text>
</a>
</g>
</g>
<!-- Node1&#45;&gt;Node11 -->
<g id="edge10" class="edge">
<title>Node1&#45;&gt;Node11</title>
<path fill="none" stroke="#000000" d="M54.1452,-396C73.8593,-396 100.8861,-396 123.2464,-396"/>
<polygon fill="#000000" stroke="#000000" points="123.4713,-399.5001 133.4713,-396 123.4712,-392.5001 123.4713,-399.5001"/>
<text text-anchor="middle" x="91" y="-399.8" font-family="Times,serif" font-size="14.00" fill="#000000">आनकः</text>
</g>
<!-- Node12 -->
<g id="node12" class="node">
<title>Node12</title>
<g id="a_node12"><a xlink:title="मकड़ी">
<polygon fill="none" stroke="#0000ff" points="191.3968,-360 137.3968,-360 137.3968,-324 191.3968,-324 191.3968,-360"/>
<text text-anchor="middle" x="164.3968" y="-338.3" font-family="Times,serif" font-size="14.00" fill="#000000">लूता</text>
</a>
</g>
</g>
<!-- Node1&#45;&gt;Node12 -->
<g id="edge11" class="edge">
<title>Node1&#45;&gt;Node12</title>
<path fill="none" stroke="#000000" d="M49.8243,-386.168C56.9081,-383.1691 64.757,-379.8997 72,-377 90.2374,-369.6987 110.6488,-361.9254 127.6392,-355.5637"/>
<polygon fill="#000000" stroke="#000000" points="129.0592,-358.7697 137.2053,-351.9954 126.6127,-352.2111 129.0592,-358.7697"/>
<text text-anchor="middle" x="91" y="-380.8" font-family="Times,serif" font-size="14.00" fill="#000000">तक्</text>
</g>
<!-- Node13 -->
<g id="node13" class="node">
<title>Node13</title>
<g id="a_node13"><a xlink:title="काटा गया, छाँटा गया, वियुक्त किया गया, काट दिया गया">
<polygon fill="none" stroke="#0000ff" points="191.3968,-306 137.3968,-306 137.3968,-270 191.3968,-270 191.3968,-306"/>
<text text-anchor="middle" x="164.3968" y="-284.3" font-family="Times,serif" font-size="14.00" fill="#000000">लून</text>
</a>
</g>
</g>
<!-- Node1&#45;&gt;Node13 -->
<g id="edge12" class="edge">
<title>Node1&#45;&gt;Node13</title>
<path fill="none" stroke="#000000" d="M38.761,-379.4543C47.1972,-368.316 59.2799,-353.7551 72,-343 89.1164,-328.5277 110.5026,-315.532 128.388,-305.8115"/>
<polygon fill="#000000" stroke="#000000" points="130.19,-308.8175 137.3806,-301.0363 126.9071,-302.635 130.19,-308.8175"/>
<text text-anchor="middle" x="91" y="-346.8" font-family="Times,serif" font-size="14.00" fill="#000000">क्त</text>
</g>
<!-- Node14 -->
<g id="node14" class="node">
<title>Node14</title>
<g id="a_node14"><a xlink:title="पूंछ">
<polygon fill="none" stroke="#0000ff" points="191.3968,-252 137.3968,-252 137.3968,-216 191.3968,-216 191.3968,-252"/>
<text text-anchor="middle" x="164.3968" y="-230.3" font-family="Times,serif" font-size="14.00" fill="#000000">लूम</text>
</a>
</g>
</g>
<!-- Node1&#45;&gt;Node14 -->
<g id="edge13" class="edge">
<title>Node1&#45;&gt;Node14</title>
<path fill="none" stroke="#000000" d="M32.0158,-378.1384C38.5719,-357.1884 51.6718,-322.2456 72,-298 87.5147,-279.4955 109.6205,-263.926 128.3199,-252.7779"/>
<polygon fill="#000000" stroke="#000000" points="130.268,-255.6948 137.1821,-247.6669 126.7709,-249.6309 130.268,-255.6948"/>
<text text-anchor="middle" x="91" y="-301.8" font-family="Times,serif" font-size="14.00" fill="#000000">मक्</text>
</g>
<!-- Node15 -->
<g id="node15" class="node">
<title>Node15</title>
<g id="a_node15"><a xlink:title="आँसू">
<polygon fill="none" stroke="#0000ff" points="191.3968,-198 137.3968,-198 137.3968,-162 191.3968,-162 191.3968,-198"/>
<text text-anchor="middle" x="164.3968" y="-176.3" font-family="Times,serif" font-size="14.00" fill="#000000">लोत</text>
</a>
</g>
</g>
<!-- Node1&#45;&gt;Node15 -->
<g id="edge14" class="edge">
<title>Node1&#45;&gt;Node15</title>
<path fill="none" stroke="#000000" d="M28.6538,-377.7131C32.1536,-347.6763 42.576,-287.1288 72,-246 86.4567,-225.7925 109.075,-209.4846 128.3141,-198.1347"/>
<polygon fill="#000000" stroke="#000000" points="130.1838,-201.098 137.1547,-193.1195 126.7298,-195.0095 130.1838,-201.098"/>
<text text-anchor="middle" x="91" y="-249.8" font-family="Times,serif" font-size="14.00" fill="#000000">तन्</text>
</g>
<!-- Node16 -->
<g id="node16" class="node">
<title>Node16</title>
<polygon fill="none" stroke="#0000ff" points="191.3968,-144 137.3968,-144 137.3968,-108 191.3968,-108 191.3968,-144"/>
<text text-anchor="middle" x="164.3968" y="-122.3" font-family="Times,serif" font-size="14.00" fill="#000000">लोत्र</text>
</g>
<!-- Node1&#45;&gt;Node16 -->
<g id="edge15" class="edge">
<title>Node1&#45;&gt;Node16</title>
<path fill="none" stroke="#000000" d="M29.2681,-377.892C35.063,-333.7492 51.4176,-221.9468 72,-191 85.7833,-170.2759 108.6063,-154.1257 128.1197,-143.1073"/>
<polygon fill="#000000" stroke="#000000" points="129.9575,-146.0926 137.0927,-138.2606 126.6308,-139.9336 129.9575,-146.0926"/>
<text text-anchor="middle" x="91" y="-194.8" font-family="Times,serif" font-size="14.00" fill="#000000">ष्ट्रन्</text>
</g>
<!-- Node17 -->
<g id="node17" class="node">
<title>Node17</title>
<g id="a_node17"><a xlink:title="मनुष्य और जानवरों के शरीर पर उगने वाले बाल, दे* रोमन्">
<polygon fill="none" stroke="#0000ff" points="191.3968,-90 137.3968,-90 137.3968,-54 191.3968,-54 191.3968,-90"/>
<text text-anchor="middle" x="164.3968" y="-68.3" font-family="Times,serif" font-size="14.00" fill="#000000">लोमन्</text>
</a>
</g>
</g>
<!-- Node1&#45;&gt;Node17 -->
<g id="edge16" class="edge">
<title>Node1&#45;&gt;Node17</title>
<path fill="none" stroke="#000000" d="M28.307,-377.6806C32.3334,-325.2232 45.8836,-175.6067 72,-135 85.4183,-114.1367 108.4576,-98.4061 128.1721,-87.8817"/>
<polygon fill="#000000" stroke="#000000" points="129.909,-90.9251 137.2372,-83.2734 126.7368,-84.6851 129.909,-90.9251"/>
<text text-anchor="middle" x="91" y="-138.8" font-family="Times,serif" font-size="14.00" fill="#000000">मनिन्</text>
</g>
<!-- Node18 -->
<g id="node18" class="node">
<title>Node18</title>
<ellipse fill="none" stroke="#ff0000" cx="164.3968" cy="-18" rx="28.6953" ry="18"/>
<text text-anchor="middle" x="164.3968" y="-14.3" font-family="Times,serif" font-size="14.00" fill="#000000">वि_लू</text>
</g>
<!-- Node1&#45;&gt;Node18 -->
<g id="edge17" class="edge">
<title>Node1&#45;&gt;Node18</title>
<path fill="none" stroke="#000000" d="M28.0928,-377.9703C31.8019,-320.833 45.1977,-144.6294 72,-95 85.9781,-69.117 112.5519,-48.4031 133.6259,-35.0073"/>
<polygon fill="#000000" stroke="#000000" points="135.5641,-37.9246 142.2681,-29.7205 131.9112,-31.9533 135.5641,-37.9246"/>
</g>
<!-- Node3 -->
<g id="node3" class="node">
<title>Node3</title>
<g id="a_node3"><a xlink:title="काटना, कटाई, लवन">
<polygon fill="none" stroke="#0000ff" points="317.7935,-792 256.7935,-792 256.7935,-756 317.7935,-756 317.7935,-792"/>
<text text-anchor="middle" x="287.2935" y="-770.3" font-family="Times,serif" font-size="14.00" fill="#000000">अभिलाव</text>
</a>
</g>
</g>
<!-- Node2&#45;&gt;Node3 -->
<g id="edge2" class="edge">
<title>Node2&#45;&gt;Node3</title>
<path fill="none" stroke="#000000" d="M200.9371,-774C215.1711,-774 231.5514,-774 246.194,-774"/>
<polygon fill="#000000" stroke="#000000" points="246.4934,-777.5001 256.4934,-774 246.4933,-770.5001 246.4934,-777.5001"/>
<text text-anchor="middle" x="228.7935" y="-777.8" font-family="Times,serif" font-size="14.00" fill="#000000">घञ्</text>
</g>
<!-- Node5 -->
<g id="node5" class="node">
<title>Node5</title>
<g id="a_node5"><a xlink:title="काट कर गिराया हुआ">
<polygon fill="none" stroke="#0000ff" points="314.2935,-738 260.2935,-738 260.2935,-702 314.2935,-702 314.2935,-738"/>
<text text-anchor="middle" x="287.2935" y="-716.3" font-family="Times,serif" font-size="14.00" fill="#000000">प्रलून</text>
</a>
</g>
</g>
<!-- Node4&#45;&gt;Node5 -->
<g id="edge4" class="edge">
<title>Node4&#45;&gt;Node5</title>
<path fill="none" stroke="#000000" d="M191.6715,-720C208.8554,-720 231.2673,-720 250.0739,-720"/>
<polygon fill="#000000" stroke="#000000" points="250.095,-723.5001 260.095,-720 250.095,-716.5001 250.095,-723.5001"/>
<text text-anchor="middle" x="228.7935" y="-723.8" font-family="Times,serif" font-size="14.00" fill="#000000">क्त</text>
</g>
<!-- Node19 -->
<g id="node19" class="node">
<title>Node19</title>
<g id="a_node19"><a xlink:title="कटा हुआ, काट डाला हुआ, चीरा हुआ, काट कर टुकड़े टुकड़े किया हुआ">
<polygon fill="none" stroke="#0000ff" points="314.2935,-36 260.2935,-36 260.2935,0 314.2935,0 314.2935,-36"/>
<text text-anchor="middle" x="287.2935" y="-14.3" font-family="Times,serif" font-size="14.00" fill="#000000">विलून</text>
</a>
</g>
</g>
<!-- Node18&#45;&gt;Node19 -->
<g id="edge18" class="edge">
<title>Node18&#45;&gt;Node19</title>
<path fill="none" stroke="#000000" d="M193.2106,-18C210.1324,-18 231.7058,-18 249.9245,-18"/>
<polygon fill="#000000" stroke="#000000" points="249.9258,-21.5001 259.9258,-18 249.9257,-14.5001 249.9258,-21.5001"/>
<text text-anchor="middle" x="228.7935" y="-21.8" font-family="Times,serif" font-size="14.00" fill="#000000">क्त</text>
</g>
</g>
</svg>
