<?xml version="1.0" encoding="UTF-8" standalone="no"?>
<!DOCTYPE svg PUBLIC "-//W3C//DTD SVG 1.1//EN"
 "http://www.w3.org/Graphics/SVG/1.1/DTD/svg11.dtd">
<!-- Generated by graphviz version 2.40.1 (20161225.0304)
 -->
<!-- Title: G Pages: 1 -->
<svg width="322pt" height="368pt"
 viewBox="0.00 0.00 321.69 368.00" xmlns="http://www.w3.org/2000/svg" xmlns:xlink="http://www.w3.org/1999/xlink">
<g id="graph0" class="graph" transform="scale(1 1) rotate(0) translate(4 364)">
<title>G</title>
<polygon fill="#ffffff" stroke="transparent" points="-4,4 -4,-364 317.6932,-364 317.6932,4 -4,4"/>
<!-- Node1 -->
<g id="node1" class="node">
<title>Node1</title>
<ellipse fill="none" stroke="#ff0000" cx="27" cy="-141" rx="27" ry="18"/>
<text text-anchor="middle" x="27" y="-137.3" font-family="Times,serif" font-size="14.00" fill="#000000">मल्</text>
</g>
<!-- Node2 -->
<g id="node2" class="node">
<title>Node2</title>
<ellipse fill="none" stroke="#ff0000" cx="152.3466" cy="-288" rx="36.2938" ry="18"/>
<text text-anchor="middle" x="152.3466" y="-284.3" font-family="Times,serif" font-size="14.00" fill="#000000">आ_मल्</text>
</g>
<!-- Node1&#45;&gt;Node2 -->
<g id="edge1" class="edge">
<title>Node1&#45;&gt;Node2</title>
<path fill="none" stroke="#000000" d="M36.731,-157.8492C51.4079,-182.3622 81.0221,-228.4751 114,-261 116.3188,-263.2869 118.8492,-265.5184 121.4684,-267.6559"/>
<polygon fill="#000000" stroke="#000000" points="119.3932,-270.4749 129.4698,-273.7478 123.6336,-264.9054 119.3932,-270.4749"/>
</g>
<!-- Node5 -->
<g id="node5" class="node">
<title>Node5</title>
<ellipse fill="none" stroke="#ff0000" cx="152.3466" cy="-234" rx="38.1938" ry="18"/>
<text text-anchor="middle" x="152.3466" y="-230.3" font-family="Times,serif" font-size="14.00" fill="#000000">निर्_मल्</text>
</g>
<!-- Node1&#45;&gt;Node5 -->
<g id="edge4" class="edge">
<title>Node1&#45;&gt;Node5</title>
<path fill="none" stroke="#000000" d="M44.8556,-154.8392C62.3453,-168.3249 89.8177,-189.3225 114,-207 116.695,-208.97 119.5103,-211.0016 122.3383,-213.0245"/>
<polygon fill="#000000" stroke="#000000" points="120.5721,-216.0629 130.7527,-218.9966 124.6237,-210.3545 120.5721,-216.0629"/>
</g>
<!-- Node7 -->
<g id="node7" class="node">
<title>Node7</title>
<ellipse fill="none" stroke="#ff0000" cx="152.3466" cy="-180" rx="38.1938" ry="18"/>
<text text-anchor="middle" x="152.3466" y="-176.3" font-family="Times,serif" font-size="14.00" fill="#000000">परि_मल्</text>
</g>
<!-- Node1&#45;&gt;Node7 -->
<g id="edge6" class="edge">
<title>Node1&#45;&gt;Node7</title>
<path fill="none" stroke="#000000" d="M51.7645,-148.7051C68.4882,-153.9085 90.9803,-160.9067 110.454,-166.9657"/>
<polygon fill="#000000" stroke="#000000" points="109.4351,-170.3141 120.0235,-169.9431 111.5148,-163.6301 109.4351,-170.3141"/>
</g>
<!-- Node10 -->
<g id="node10" class="node">
<title>Node10</title>
<g id="a_node10"><a xlink:title="कुचलना, पीसना#तंबू">
<polygon fill="none" stroke="#0000ff" points="179.3466,-144 125.3466,-144 125.3466,-108 179.3466,-108 179.3466,-144"/>
<text text-anchor="middle" x="152.3466" y="-122.3" font-family="Times,serif" font-size="14.00" fill="#000000">मलन</text>
</a>
</g>
</g>
<!-- Node1&#45;&gt;Node10 -->
<g id="edge9" class="edge">
<title>Node1&#45;&gt;Node10</title>
<path fill="none" stroke="#000000" d="M53.5828,-137.8189C71.3702,-135.6903 95.0412,-132.8576 114.7502,-130.4991"/>
<polygon fill="#000000" stroke="#000000" points="115.4223,-133.9437 124.9356,-129.2802 114.5905,-126.9933 115.4223,-133.9437"/>
<text text-anchor="middle" x="84" y="-139.8" font-family="Times,serif" font-size="14.00" fill="#000000">ल्युट्</text>
</g>
<!-- Node11 -->
<g id="node11" class="node">
<title>Node11</title>
<g id="a_node11"><a xlink:title="मलयशृंखला के पूर्व में स्थित देश, मलावार">
<polygon fill="none" stroke="#0000ff" points="179.3466,-90 125.3466,-90 125.3466,-54 179.3466,-54 179.3466,-90"/>
<text text-anchor="middle" x="152.3466" y="-68.3" font-family="Times,serif" font-size="14.00" fill="#000000">मलय</text>
</a>
</g>
</g>
<!-- Node1&#45;&gt;Node11 -->
<g id="edge10" class="edge">
<title>Node1&#45;&gt;Node11</title>
<path fill="none" stroke="#000000" d="M47.9802,-129.451C66.6015,-119.2004 94.2096,-104.0029 116.3539,-91.813"/>
<polygon fill="#000000" stroke="#000000" points="118.0853,-94.8552 125.1579,-86.9667 114.7096,-88.7229 118.0853,-94.8552"/>
</g>
<!-- Node12 -->
<g id="node12" class="node">
<title>Node12</title>
<g id="a_node12"><a xlink:title="पाप, दोष, अपराध#मैला, गन्दा, घिनौना अपवित्र, अशुद्ध, भ्रष्ट, कलंकित, कलुषित (आलं से भी), धन्यास्तदङ्गरजसा मलिनीभवंति">
<polygon fill="none" stroke="#0000ff" points="179.3466,-36 125.3466,-36 125.3466,0 179.3466,0 179.3466,-36"/>
<text text-anchor="middle" x="152.3466" y="-14.3" font-family="Times,serif" font-size="14.00" fill="#000000">मलिन</text>
</a>
</g>
</g>
<!-- Node1&#45;&gt;Node12 -->
<g id="edge11" class="edge">
<title>Node1&#45;&gt;Node12</title>
<path fill="none" stroke="#000000" d="M39.3436,-124.7621C55.2013,-104.5634 84.2469,-69.7275 114,-45 115.135,-44.0567 116.3014,-43.1117 117.4892,-42.1699"/>
<polygon fill="#000000" stroke="#000000" points="119.6905,-44.893 125.5309,-36.0533 115.4527,-39.3215 119.6905,-44.893"/>
<text text-anchor="middle" x="84" y="-88.8" font-family="Times,serif" font-size="14.00" fill="#000000">इनन्</text>
</g>
<!-- Node3 -->
<g id="node3" class="node">
<title>Node3</title>
<polygon fill="none" stroke="#0000ff" points="311.1932,-360 252.1932,-360 252.1932,-324 311.1932,-324 311.1932,-360"/>
<text text-anchor="middle" x="281.6932" y="-338.3" font-family="Times,serif" font-size="14.00" fill="#000000">आमलक</text>
</g>
<!-- Node2&#45;&gt;Node3 -->
<g id="edge2" class="edge">
<title>Node2&#45;&gt;Node3</title>
<path fill="none" stroke="#000000" d="M180.4129,-299.7172C198.5469,-307.2878 222.4062,-317.2487 242.412,-325.6008"/>
<polygon fill="#000000" stroke="#000000" points="241.3049,-328.9313 251.8815,-329.5541 244.0018,-322.4716 241.3049,-328.9313"/>
<text text-anchor="middle" x="220.1932" y="-322.8" font-family="Times,serif" font-size="14.00" fill="#000000">वुन्</text>
</g>
<!-- Node4 -->
<g id="node4" class="node">
<title>Node4</title>
<g id="a_node4"><a xlink:title="आँवले का वृक्ष">
<polygon fill="none" stroke="#0000ff" points="313.1932,-306 250.1932,-306 250.1932,-270 313.1932,-270 313.1932,-306"/>
<text text-anchor="middle" x="281.6932" y="-284.3" font-family="Times,serif" font-size="14.00" fill="#000000">आमलकी</text>
</a>
</g>
</g>
<!-- Node2&#45;&gt;Node4 -->
<g id="edge3" class="edge">
<title>Node2&#45;&gt;Node4</title>
<path fill="none" stroke="#000000" d="M189.0662,-288C204.8733,-288 223.4392,-288 239.7823,-288"/>
<polygon fill="#000000" stroke="#000000" points="240.1497,-291.5001 250.1497,-288 240.1497,-284.5001 240.1497,-291.5001"/>
<text text-anchor="middle" x="220.1932" y="-291.8" font-family="Times,serif" font-size="14.00" fill="#000000">वुन्</text>
</g>
<!-- Node6 -->
<g id="node6" class="node">
<title>Node6</title>
<g id="a_node6"><a xlink:title="शुद्धता, स्वच्छता, निष्कलंकता">
<polygon fill="none" stroke="#0000ff" points="309.6932,-252 253.6932,-252 253.6932,-216 309.6932,-216 309.6932,-252"/>
<text text-anchor="middle" x="281.6932" y="-230.3" font-family="Times,serif" font-size="14.00" fill="#000000">निर्माल्य</text>
</a>
</g>
</g>
<!-- Node5&#45;&gt;Node6 -->
<g id="edge5" class="edge">
<title>Node5&#45;&gt;Node6</title>
<path fill="none" stroke="#000000" d="M190.8046,-234C207.2982,-234 226.5301,-234 243.0447,-234"/>
<polygon fill="#000000" stroke="#000000" points="243.4487,-237.5001 253.4487,-234 243.4486,-230.5001 243.4487,-237.5001"/>
<text text-anchor="middle" x="220.1932" y="-237.8" font-family="Times,serif" font-size="14.00" fill="#000000">ण्यत्</text>
</g>
<!-- Node8 -->
<g id="node8" class="node">
<title>Node8</title>
<g id="a_node8"><a xlink:title="सुगंध, सुवास, सौरभ, महक, परिमलो गीर्वाणचेतो हरः">
<polygon fill="none" stroke="#0000ff" points="308.6932,-198 254.6932,-198 254.6932,-162 308.6932,-162 308.6932,-198"/>
<text text-anchor="middle" x="281.6932" y="-176.3" font-family="Times,serif" font-size="14.00" fill="#000000">परिमल</text>
</a>
</g>
</g>
<!-- Node7&#45;&gt;Node8 -->
<g id="edge7" class="edge">
<title>Node7&#45;&gt;Node8</title>
<path fill="none" stroke="#000000" d="M190.8046,-180C207.8253,-180 227.7621,-180 244.6195,-180"/>
<polygon fill="#000000" stroke="#000000" points="244.6641,-183.5001 254.6641,-180 244.664,-176.5001 244.6641,-183.5001"/>
<text text-anchor="middle" x="220.1932" y="-183.8" font-family="Times,serif" font-size="14.00" fill="#000000">अच्</text>
</g>
<!-- Node9 -->
<g id="node9" class="node">
<title>Node9</title>
<g id="a_node9"><a xlink:title="सुगंधित">
<polygon fill="none" stroke="#0000ff" points="313.6932,-144 249.6932,-144 249.6932,-108 313.6932,-108 313.6932,-144"/>
<text text-anchor="middle" x="281.6932" y="-122.3" font-family="Times,serif" font-size="14.00" fill="#000000">परिमलित</text>
</a>
</g>
</g>
<!-- Node7&#45;&gt;Node9 -->
<g id="edge8" class="edge">
<title>Node7&#45;&gt;Node9</title>
<path fill="none" stroke="#000000" d="M181.0528,-168.0156C198.371,-160.7856 220.7344,-151.4492 239.9804,-143.4144"/>
<polygon fill="#000000" stroke="#000000" points="241.5492,-146.5523 249.4289,-139.4698 238.8524,-140.0926 241.5492,-146.5523"/>
<text text-anchor="middle" x="220.1932" y="-159.8" font-family="Times,serif" font-size="14.00" fill="#000000">क्त</text>
</g>
</g>
</svg>
