<?xml version="1.0" encoding="UTF-8" standalone="no"?>
<!DOCTYPE svg PUBLIC "-//W3C//DTD SVG 1.1//EN"
 "http://www.w3.org/Graphics/SVG/1.1/DTD/svg11.dtd">
<!-- Generated by graphviz version 2.36.0 (20140111.2315)
 -->
<!-- Title: G Pages: 1 -->
<svg width="320pt" height="368pt"
 viewBox="0.00 0.00 320.00 368.00" xmlns="http://www.w3.org/2000/svg" xmlns:xlink="http://www.w3.org/1999/xlink">
<g id="graph0" class="graph" transform="scale(1 1) rotate(0) translate(4 364)">
<title>G</title>
<polygon fill="white" stroke="none" points="-4,4 -4,-364 316,-364 316,4 -4,4"/>
<!-- Node1 -->
<g id="node1" class="node"><title>Node1</title>
<ellipse fill="none" stroke="red" cx="27" cy="-180" rx="27" ry="18"/>
<text text-anchor="middle" x="27" y="-176.3" font-family="Times,serif" font-size="14.00">मान्</text>
</g>
<!-- Node2 -->
<g id="node2" class="node"><title>Node2</title>
<g id="a_node2"><a xlink:title="एक विशेष बाट (आठ पल वजन के बराबर) या तोल">
<polygon fill="none" stroke="blue" points="197,-360 141,-360 141,-324 197,-324 197,-360"/>
<text text-anchor="middle" x="169" y="-338.3" font-family="Times,serif" font-size="14.00">माणिका</text>
</a>
</g>
</g>
<!-- Node1&#45;&gt;Node2 -->
<g id="edge1" class="edge"><title>Node1&#45;&gt;Node2</title>
<path fill="none" stroke="black" d="M32.8138,-197.714C39.137,-218.484 51.8621,-253.102 72,-277 88.5338,-296.621 112.405,-312.818 132.208,-324.137"/>
<polygon fill="black" stroke="black" points="130.534,-327.211 140.978,-328.989 133.922,-321.085 130.534,-327.211"/>
<text text-anchor="middle" x="91" y="-313.8" font-family="Times,serif" font-size="14.00">घञ्</text>
</g>
<!-- Node3 -->
<g id="node3" class="node"><title>Node3</title>
<g id="a_node3"><a xlink:title="सम्मान करना, आदर करना">
<polygon fill="none" stroke="blue" points="196,-306 142,-306 142,-270 196,-270 196,-306"/>
<text text-anchor="middle" x="169" y="-284.3" font-family="Times,serif" font-size="14.00">मानन</text>
</a>
</g>
</g>
<!-- Node1&#45;&gt;Node3 -->
<g id="edge2" class="edge"><title>Node1&#45;&gt;Node3</title>
<path fill="none" stroke="black" d="M39.4598,-196.272C47.6908,-207.217 59.5001,-221.508 72,-232 90.4156,-247.458 113.649,-261.136 132.646,-271.104"/>
<polygon fill="black" stroke="black" points="131.097,-274.242 141.593,-275.691 134.291,-268.013 131.097,-274.242"/>
<text text-anchor="middle" x="91" y="-261.8" font-family="Times,serif" font-size="14.00">ल्युट्</text>
</g>
<!-- Node4 -->
<g id="node4" class="node"><title>Node4</title>
<g id="a_node4"><a xlink:title="सम्मान करना, आदर करना">
<polygon fill="none" stroke="blue" points="196,-252 142,-252 142,-216 196,-216 196,-252"/>
<text text-anchor="middle" x="169" y="-230.3" font-family="Times,serif" font-size="14.00">मानना</text>
</a>
</g>
</g>
<!-- Node1&#45;&gt;Node4 -->
<g id="edge3" class="edge"><title>Node1&#45;&gt;Node4</title>
<path fill="none" stroke="black" d="M49.8286,-189.723C56.8697,-192.779 64.7325,-196.109 72,-199 91.7492,-206.856 114.04,-215.025 132.168,-221.493"/>
<polygon fill="black" stroke="black" points="131.174,-224.854 141.768,-224.899 133.514,-218.257 131.174,-224.854"/>
<text text-anchor="middle" x="91" y="-216.8" font-family="Times,serif" font-size="14.00">स्त्रियां</text>
</g>
<!-- Node5 -->
<g id="node5" class="node"><title>Node5</title>
<g id="a_node5"><a xlink:title="सम्मान के योग्य, आदरणीय, प्रतिष्ठित होने का अधिकारी (संबं के साथ) मेनां मुनीनामपि माननीयाम्">
<polygon fill="none" stroke="blue" points="197.5,-198 140.5,-198 140.5,-162 197.5,-162 197.5,-198"/>
<text text-anchor="middle" x="169" y="-176.3" font-family="Times,serif" font-size="14.00">माननीय</text>
</a>
</g>
</g>
<!-- Node1&#45;&gt;Node5 -->
<g id="edge4" class="edge"><title>Node1&#45;&gt;Node5</title>
<path fill="none" stroke="black" d="M54.0048,-180C75.3585,-180 105.898,-180 129.993,-180"/>
<polygon fill="black" stroke="black" points="130.216,-183.5 140.216,-180 130.216,-176.5 130.216,-183.5"/>
<text text-anchor="middle" x="91" y="-183.8" font-family="Times,serif" font-size="14.00">अनीयर्</text>
</g>
<!-- Node6 -->
<g id="node6" class="node"><title>Node6</title>
<g id="a_node6"><a xlink:title="आत्माभिमानिनी स्त्री, दृढ़ संकल्प वाली, पक्के निश्चय वाली, गर्वयुक्त (अच्छे अर्थों में), चतुर्दिगीशानवमत्यमानिनी">
<polygon fill="none" stroke="blue" points="196,-144 142,-144 142,-108 196,-108 196,-144"/>
<text text-anchor="middle" x="169" y="-122.3" font-family="Times,serif" font-size="14.00">मानिनी</text>
</a>
</g>
</g>
<!-- Node1&#45;&gt;Node6 -->
<g id="edge5" class="edge"><title>Node1&#45;&gt;Node6</title>
<path fill="none" stroke="black" d="M49.8286,-170.277C56.8697,-167.221 64.7325,-163.891 72,-161 91.7492,-153.144 114.04,-144.975 132.168,-138.507"/>
<polygon fill="black" stroke="black" points="133.514,-141.743 141.768,-135.101 131.174,-135.146 133.514,-141.743"/>
<text text-anchor="middle" x="91" y="-164.8" font-family="Times,serif" font-size="14.00">णिनि</text>
</g>
<!-- Node7 -->
<g id="node7" class="node"><title>Node7</title>
<g id="a_node7"><a xlink:title="मानने वाला, समझने वाला, अभिमान करने वाला (समास के अन्त में) जैसा कि ‘पंडितमानिन्’ में">
<polygon fill="none" stroke="blue" points="196,-90 142,-90 142,-54 196,-54 196,-90"/>
<text text-anchor="middle" x="169" y="-68.3" font-family="Times,serif" font-size="14.00">मानिन्</text>
</a>
</g>
</g>
<!-- Node1&#45;&gt;Node7 -->
<g id="edge6" class="edge"><title>Node1&#45;&gt;Node7</title>
<path fill="none" stroke="black" d="M39.0215,-163.852C47.227,-152.615 59.1847,-137.774 72,-127 90.447,-111.491 113.872,-97.9727 132.964,-88.2192"/>
<polygon fill="black" stroke="black" points="134.559,-91.3349 141.948,-83.7414 131.437,-85.07 134.559,-91.3349"/>
<text text-anchor="middle" x="91" y="-130.8" font-family="Times,serif" font-size="14.00">णिनि</text>
</g>
<!-- Node8 -->
<g id="node8" class="node"><title>Node8</title>
<ellipse fill="none" stroke="red" cx="169" cy="-18" rx="40.0939" ry="18"/>
<text text-anchor="middle" x="169" y="-14.3" font-family="Times,serif" font-size="14.00">सम्_मान्</text>
</g>
<!-- Node1&#45;&gt;Node8 -->
<g id="edge7" class="edge"><title>Node1&#45;&gt;Node8</title>
<path fill="none" stroke="black" d="M35.0731,-162.797C42.7265,-145.284 56.0061,-117.825 72,-97 92.688,-70.0633 101.4,-66.1197 128,-45 130.774,-42.7972 133.723,-40.5855 136.714,-38.428"/>
<polygon fill="black" stroke="black" points="138.945,-41.1385 145.14,-32.5433 134.937,-35.3996 138.945,-41.1385"/>
</g>
<!-- Node9 -->
<g id="node9" class="node"><title>Node9</title>
<g id="a_node9"><a xlink:title="मापा हुआ, नापा हुआ">
<polygon fill="none" stroke="blue" points="312,-36 258,-36 258,-0 312,-0 312,-36"/>
<text text-anchor="middle" x="285" y="-14.3" font-family="Times,serif" font-size="14.00">सम्मित</text>
</a>
</g>
</g>
<!-- Node8&#45;&gt;Node9 -->
<g id="edge8" class="edge"><title>Node8&#45;&gt;Node9</title>
<path fill="none" stroke="black" d="M209.552,-18C221.887,-18 235.429,-18 247.542,-18"/>
<polygon fill="black" stroke="black" points="247.752,-21.5001 257.752,-18 247.752,-14.5001 247.752,-21.5001"/>
<text text-anchor="middle" x="234" y="-21.8" font-family="Times,serif" font-size="14.00">क्त</text>
</g>
</g>
</svg>
