<?xml version="1.0" encoding="UTF-8" standalone="no"?>
<!DOCTYPE svg PUBLIC "-//W3C//DTD SVG 1.1//EN"
 "http://www.w3.org/Graphics/SVG/1.1/DTD/svg11.dtd">
<!-- Generated by graphviz version 2.36.0 (20140111.2315)
 -->
<!-- Title: G Pages: 1 -->
<svg width="442pt" height="314pt"
 viewBox="0.00 0.00 442.00 314.00" xmlns="http://www.w3.org/2000/svg" xmlns:xlink="http://www.w3.org/1999/xlink">
<g id="graph0" class="graph" transform="scale(1 1) rotate(0) translate(4 310)">
<title>G</title>
<polygon fill="white" stroke="none" points="-4,4 -4,-310 438,-310 438,4 -4,4"/>
<!-- Node1 -->
<g id="node1" class="node"><title>Node1</title>
<ellipse fill="none" stroke="red" cx="27" cy="-167" rx="27" ry="18"/>
<text text-anchor="middle" x="27" y="-163.3" font-family="Times,serif" font-size="14.00">मिष्</text>
</g>
<!-- Node2 -->
<g id="node2" class="node"><title>Node2</title>
<ellipse fill="none" stroke="red" cx="131" cy="-207" rx="38.1938" ry="18"/>
<text text-anchor="middle" x="131" y="-203.3" font-family="Times,serif" font-size="14.00">उद्_मिष्</text>
</g>
<!-- Node1&#45;&gt;Node2 -->
<g id="edge1" class="edge"><title>Node1&#45;&gt;Node2</title>
<path fill="none" stroke="black" d="M50.6371,-175.877C62.5386,-180.545 77.4618,-186.397 91.1461,-191.763"/>
<polygon fill="black" stroke="black" points="90.2431,-195.169 100.831,-195.561 92.7987,-188.652 90.2431,-195.169"/>
</g>
<!-- Node6 -->
<g id="node6" class="node"><title>Node6</title>
<ellipse fill="none" stroke="red" cx="131" cy="-86" rx="35.9954" ry="18"/>
<text text-anchor="middle" x="131" y="-82.3" font-family="Times,serif" font-size="14.00">नि_मिष्</text>
</g>
<!-- Node1&#45;&gt;Node6 -->
<g id="edge5" class="edge"><title>Node1&#45;&gt;Node6</title>
<path fill="none" stroke="black" d="M45.3029,-153.259C61.0755,-140.734 84.631,-122.028 102.9,-107.521"/>
<polygon fill="black" stroke="black" points="105.22,-110.148 110.874,-101.188 100.867,-104.666 105.22,-110.148"/>
</g>
<!-- Node3 -->
<g id="node3" class="node"><title>Node3</title>
<g id="a_node3"><a xlink:title="खुला हुआ, इला हुआ, फुलाया हुआ, आँख आदि#दृष्टि, झलक">
<polygon fill="none" stroke="blue" points="305,-306 243,-306 243,-270 305,-270 305,-306"/>
<text text-anchor="middle" x="274" y="-284.3" font-family="Times,serif" font-size="14.00">उन्मिषित</text>
</a>
</g>
</g>
<!-- Node2&#45;&gt;Node3 -->
<g id="edge2" class="edge"><title>Node2&#45;&gt;Node3</title>
<path fill="none" stroke="black" d="M155.376,-220.905C165.397,-226.832 177.248,-233.797 188,-240 202.811,-248.545 219.151,-257.811 233.514,-265.902"/>
<polygon fill="black" stroke="black" points="232.2,-269.178 242.631,-271.029 235.631,-263.077 232.2,-269.178"/>
<text text-anchor="middle" x="198" y="-253.8" font-family="Times,serif" font-size="14.00">क्त</text>
</g>
<!-- Node4 -->
<g id="node4" class="node"><title>Node4</title>
<g id="a_node4"><a xlink:title="खिलना, खुलना, फूलनाउन्मेषं यो मम न सहते जाति &#45; वैरी निशायाम्">
<polygon fill="none" stroke="blue" points="301,-252 247,-252 247,-216 301,-216 301,-252"/>
<text text-anchor="middle" x="274" y="-230.3" font-family="Times,serif" font-size="14.00">उन्मेष</text>
</a>
</g>
</g>
<!-- Node2&#45;&gt;Node4 -->
<g id="edge3" class="edge"><title>Node2&#45;&gt;Node4</title>
<path fill="none" stroke="black" d="M166.854,-213.674C188.159,-217.754 215.358,-222.962 236.89,-227.085"/>
<polygon fill="black" stroke="black" points="236.474,-230.569 246.954,-229.012 237.79,-223.694 236.474,-230.569"/>
<text text-anchor="middle" x="198" y="-224.8" font-family="Times,serif" font-size="14.00">घञ्</text>
</g>
<!-- Node5 -->
<g id="node5" class="node"><title>Node5</title>
<g id="a_node5"><a xlink:title="खोलना, पलक मारना">
<polygon fill="none" stroke="blue" points="302,-198 246,-198 246,-162 302,-162 302,-198"/>
<text text-anchor="middle" x="274" y="-176.3" font-family="Times,serif" font-size="14.00">उन्मेषण</text>
</a>
</g>
</g>
<!-- Node2&#45;&gt;Node5 -->
<g id="edge4" class="edge"><title>Node2&#45;&gt;Node5</title>
<path fill="none" stroke="black" d="M166.854,-200.326C187.739,-196.327 214.287,-191.243 235.608,-187.16"/>
<polygon fill="black" stroke="black" points="236.444,-190.564 245.607,-185.245 235.128,-183.689 236.444,-190.564"/>
<text text-anchor="middle" x="198" y="-198.8" font-family="Times,serif" font-size="14.00">घञ्</text>
</g>
<!-- Node7 -->
<g id="node7" class="node"><title>Node7</title>
<g id="a_node7"><a xlink:title="आँख झपकना, आँख बन्द करना, पलक झपकाना">
<polygon fill="none" stroke="blue" points="301,-144 247,-144 247,-108 301,-108 301,-144"/>
<text text-anchor="middle" x="274" y="-122.3" font-family="Times,serif" font-size="14.00">निमिष</text>
</a>
</g>
</g>
<!-- Node6&#45;&gt;Node7 -->
<g id="edge6" class="edge"><title>Node6&#45;&gt;Node7</title>
<path fill="none" stroke="black" d="M162.595,-94.6794C184.467,-100.884 213.979,-109.256 236.988,-115.784"/>
<polygon fill="black" stroke="black" points="236.154,-119.185 246.73,-118.547 238.064,-112.451 236.154,-119.185"/>
<text text-anchor="middle" x="198" y="-110.8" font-family="Times,serif" font-size="14.00">क</text>
</g>
<!-- Node8 -->
<g id="node8" class="node"><title>Node8</title>
<polygon fill="none" stroke="blue" points="301,-90 247,-90 247,-54 301,-54 301,-90"/>
<text text-anchor="middle" x="274" y="-68.3" font-family="Times,serif" font-size="14.00">निमेष</text>
</g>
<!-- Node6&#45;&gt;Node8 -->
<g id="edge7" class="edge"><title>Node6&#45;&gt;Node8</title>
<path fill="none" stroke="black" d="M166.132,-82.611C187.425,-80.4968 214.812,-77.7775 236.531,-75.6211"/>
<polygon fill="black" stroke="black" points="237.08,-79.0838 246.686,-74.6128 236.389,-72.118 237.08,-79.0838"/>
<text text-anchor="middle" x="198" y="-83.8" font-family="Times,serif" font-size="14.00">घञ्</text>
</g>
<!-- Node9 -->
<g id="node9" class="node"><title>Node9</title>
<ellipse fill="none" stroke="red" cx="274" cy="-18" rx="47.3916" ry="18"/>
<text text-anchor="middle" x="274" y="-14.3" font-family="Times,serif" font-size="14.00">वि_नि_मिष्</text>
</g>
<!-- Node6&#45;&gt;Node9 -->
<g id="edge8" class="edge"><title>Node6&#45;&gt;Node9</title>
<path fill="none" stroke="black" d="M157.534,-73.6857C179.067,-63.3009 210.206,-48.2837 234.722,-36.4605"/>
<polygon fill="black" stroke="black" points="236.272,-39.5984 243.759,-32.1019 233.232,-33.2933 236.272,-39.5984"/>
</g>
<!-- Node10 -->
<g id="node10" class="node"><title>Node10</title>
<g id="a_node10"><a xlink:title="(आँखों का) झपकना">
<polygon fill="none" stroke="blue" points="434,-36 378,-36 378,-0 434,-0 434,-36"/>
<text text-anchor="middle" x="406" y="-14.3" font-family="Times,serif" font-size="14.00">विनिमेष</text>
</a>
</g>
</g>
<!-- Node9&#45;&gt;Node10 -->
<g id="edge9" class="edge"><title>Node9&#45;&gt;Node10</title>
<path fill="none" stroke="black" d="M321.566,-18C336.691,-18 353.269,-18 367.634,-18"/>
<polygon fill="black" stroke="black" points="367.65,-21.5001 377.65,-18 367.65,-14.5001 367.65,-21.5001"/>
<text text-anchor="middle" x="350" y="-21.8" font-family="Times,serif" font-size="14.00">घञ्</text>
</g>
</g>
</svg>
