<?xml version="1.0" encoding="UTF-8" standalone="no"?>
<!DOCTYPE svg PUBLIC "-//W3C//DTD SVG 1.1//EN"
 "http://www.w3.org/Graphics/SVG/1.1/DTD/svg11.dtd">
<!-- Generated by graphviz version 2.40.1 (20161225.0304)
 -->
<!-- Title: G Pages: 1 -->
<svg width="302pt" height="98pt"
 viewBox="0.00 0.00 301.59 98.00" xmlns="http://www.w3.org/2000/svg" xmlns:xlink="http://www.w3.org/1999/xlink">
<g id="graph0" class="graph" transform="scale(1 1) rotate(0) translate(4 94)">
<title>G</title>
<polygon fill="#ffffff" stroke="transparent" points="-4,4 -4,-94 297.5928,-94 297.5928,4 -4,4"/>
<!-- Node1 -->
<g id="node1" class="node">
<title>Node1</title>
<ellipse fill="none" stroke="#ff0000" cx="27" cy="-33" rx="27" ry="18"/>
<text text-anchor="middle" x="27" y="-29.3" font-family="Times,serif" font-size="14.00" fill="#000000">मृग</text>
</g>
<!-- Node2 -->
<g id="node2" class="node">
<title>Node2</title>
<ellipse fill="none" stroke="#ff0000" cx="153.2964" cy="-72" rx="40.0939" ry="18"/>
<text text-anchor="middle" x="153.2964" y="-68.3" font-family="Times,serif" font-size="14.00" fill="#000000">मृग+व्यध्</text>
</g>
<!-- Node1&#45;&gt;Node2 -->
<g id="edge1" class="edge">
<title>Node1&#45;&gt;Node2</title>
<path fill="none" stroke="#000000" d="M51.651,-40.6122C68.3548,-45.7703 90.8699,-52.7228 110.4641,-58.7735"/>
<polygon fill="#000000" stroke="#000000" points="109.5157,-62.1436 120.1032,-61.75 111.5811,-55.4553 109.5157,-62.1436"/>
</g>
<!-- Node4 -->
<g id="node4" class="node">
<title>Node4</title>
<g id="a_node4"><a xlink:title="खोजे जाने या त्याग किये जाने के योग्य, तत्र मूलम् मृग्यम्">
<polygon fill="none" stroke="#0000ff" points="180.2964,-36 126.2964,-36 126.2964,0 180.2964,0 180.2964,-36"/>
<text text-anchor="middle" x="153.2964" y="-14.3" font-family="Times,serif" font-size="14.00" fill="#000000">मृग्य</text>
</a>
</g>
</g>
<!-- Node1&#45;&gt;Node4 -->
<g id="edge3" class="edge">
<title>Node1&#45;&gt;Node4</title>
<path fill="none" stroke="#000000" d="M53.7842,-29.8189C71.9124,-27.6658 96.1056,-24.7924 116.098,-22.418"/>
<polygon fill="#000000" stroke="#000000" points="116.598,-25.8833 126.1154,-21.2282 115.7724,-18.9321 116.598,-25.8833"/>
<text text-anchor="middle" x="83.5" y="-31.8" font-family="Times,serif" font-size="14.00" fill="#000000">ण्यत्</text>
</g>
<!-- Node3 -->
<g id="node3" class="node">
<title>Node3</title>
<g id="a_node3"><a xlink:title="पीछा करना, शिकार">
<polygon fill="none" stroke="#0000ff" points="293.5928,-90 239.5928,-90 239.5928,-54 293.5928,-54 293.5928,-90"/>
<text text-anchor="middle" x="266.5928" y="-68.3" font-family="Times,serif" font-size="14.00" fill="#000000">मृगव्य</text>
</a>
</g>
</g>
<!-- Node2&#45;&gt;Node3 -->
<g id="edge2" class="edge">
<title>Node2&#45;&gt;Node3</title>
<path fill="none" stroke="#000000" d="M193.879,-72C205.4489,-72 217.9935,-72 229.3536,-72"/>
<polygon fill="#000000" stroke="#000000" points="229.3914,-75.5001 239.3914,-72 229.3913,-68.5001 229.3914,-75.5001"/>
<text text-anchor="middle" x="216.5928" y="-75.8" font-family="Times,serif" font-size="14.00" fill="#000000">ड</text>
</g>
</g>
</svg>
