<?xml version="1.0" encoding="UTF-8" standalone="no"?>
<!DOCTYPE svg PUBLIC "-//W3C//DTD SVG 1.1//EN"
 "http://www.w3.org/Graphics/SVG/1.1/DTD/svg11.dtd">
<!-- Generated by graphviz version 2.36.0 (20140111.2315)
 -->
<!-- Title: G Pages: 1 -->
<svg width="504pt" height="260pt"
 viewBox="0.00 0.00 504.00 260.00" xmlns="http://www.w3.org/2000/svg" xmlns:xlink="http://www.w3.org/1999/xlink">
<g id="graph0" class="graph" transform="scale(1 1) rotate(0) translate(4 256)">
<title>G</title>
<polygon fill="white" stroke="none" points="-4,4 -4,-256 500,-256 500,4 -4,4"/>
<!-- Node1 -->
<g id="node1" class="node"><title>Node1</title>
<ellipse fill="none" stroke="red" cx="27" cy="-93" rx="27" ry="18"/>
<text text-anchor="middle" x="27" y="-89.3" font-family="Times,serif" font-size="14.00">मूल्</text>
</g>
<!-- Node2 -->
<g id="node2" class="node"><title>Node2</title>
<ellipse fill="none" stroke="red" cx="152" cy="-180" rx="37.8943" ry="18"/>
<text text-anchor="middle" x="152" y="-176.3" font-family="Times,serif" font-size="14.00">उद्_मूल्</text>
</g>
<!-- Node1&#45;&gt;Node2 -->
<g id="edge1" class="edge"><title>Node1&#45;&gt;Node2</title>
<path fill="none" stroke="black" d="M45.7329,-106.366C62.219,-118.698 87.5425,-137.403 110,-153 113.292,-155.286 116.759,-157.644 120.224,-159.97"/>
<polygon fill="black" stroke="black" points="118.471,-163.007 128.737,-165.625 122.344,-157.176 118.471,-163.007"/>
</g>
<!-- Node4 -->
<g id="node4" class="node"><title>Node4</title>
<ellipse fill="none" stroke="red" cx="152" cy="-126" rx="42.4939" ry="18"/>
<text text-anchor="middle" x="152" y="-122.3" font-family="Times,serif" font-size="14.00">मूल्+णिच्</text>
</g>
<!-- Node1&#45;&gt;Node4 -->
<g id="edge3" class="edge"><title>Node1&#45;&gt;Node4</title>
<path fill="none" stroke="black" d="M52.3008,-99.5197C67.5415,-103.609 87.6643,-109.007 105.763,-113.863"/>
<polygon fill="black" stroke="black" points="105,-117.282 115.565,-116.493 106.814,-110.521 105,-117.282"/>
</g>
<!-- Node7 -->
<g id="node7" class="node"><title>Node7</title>
<g id="a_node7"><a xlink:title="एक प्रकार का विष#मूली">
<polygon fill="none" stroke="blue" points="179,-90 125,-90 125,-54 179,-54 179,-90"/>
<text text-anchor="middle" x="152" y="-68.3" font-family="Times,serif" font-size="14.00">मूलक</text>
</a>
</g>
</g>
<!-- Node1&#45;&gt;Node7 -->
<g id="edge6" class="edge"><title>Node1&#45;&gt;Node7</title>
<path fill="none" stroke="black" d="M53.1167,-88.3583C59.2878,-87.2386 65.8798,-86.0599 72,-85 85.8328,-82.6045 101.047,-80.0757 114.4,-77.8916"/>
<polygon fill="black" stroke="black" points="115.341,-81.2847 124.648,-76.2231 114.216,-74.3757 115.341,-81.2847"/>
<text text-anchor="middle" x="82" y="-88.8" font-family="Times,serif" font-size="14.00">कन्</text>
</g>
<!-- Node8 -->
<g id="node8" class="node"><title>Node8</title>
<polygon fill="none" stroke="blue" points="179,-36 125,-36 125,-0 179,-0 179,-36"/>
<text text-anchor="middle" x="152" y="-14.3" font-family="Times,serif" font-size="14.00">मूल</text>
</g>
<!-- Node1&#45;&gt;Node8 -->
<g id="edge7" class="edge"><title>Node1&#45;&gt;Node8</title>
<path fill="none" stroke="black" d="M46.1922,-80.1121C54.0362,-74.6821 63.3731,-68.3858 72,-63 86.1685,-54.1545 102.122,-44.9327 115.964,-37.1572"/>
<polygon fill="black" stroke="black" points="117.688,-40.2035 124.715,-32.2749 114.277,-34.0905 117.688,-40.2035"/>
<text text-anchor="middle" x="82" y="-66.8" font-family="Times,serif" font-size="14.00">क</text>
</g>
<!-- Node3 -->
<g id="node3" class="node"><title>Node3</title>
<g id="a_node3"><a xlink:title="जड़ से फाड़ लेना, उखाड़ना, मूलोच्छेदन करना, न पादपोन्मूलनशक्ति रंहः">
<polygon fill="none" stroke="blue" points="340.5,-252 283.5,-252 283.5,-216 340.5,-216 340.5,-252"/>
<text text-anchor="middle" x="312" y="-230.3" font-family="Times,serif" font-size="14.00">उन्मूलन</text>
</a>
</g>
</g>
<!-- Node2&#45;&gt;Node3 -->
<g id="edge2" class="edge"><title>Node2&#45;&gt;Node3</title>
<path fill="none" stroke="black" d="M183.09,-190.284C208.847,-199.087 246.04,-211.798 273.687,-221.247"/>
<polygon fill="black" stroke="black" points="272.807,-224.645 283.402,-224.568 275.071,-218.022 272.807,-224.645"/>
<text text-anchor="middle" x="224" y="-210.8" font-family="Times,serif" font-size="14.00">ल्युट्</text>
</g>
<!-- Node9 -->
<g id="node9" class="node"><title>Node9</title>
<ellipse fill="none" stroke="red" cx="312" cy="-180" rx="53.8905" ry="18"/>
<text text-anchor="middle" x="312" y="-176.3" font-family="Times,serif" font-size="14.00">सम्_उद्_मूल्</text>
</g>
<!-- Node2&#45;&gt;Node9 -->
<g id="edge8" class="edge"><title>Node2&#45;&gt;Node9</title>
<path fill="none" stroke="black" d="M190.044,-180C207.287,-180 228.287,-180 247.919,-180"/>
<polygon fill="black" stroke="black" points="248.033,-183.5 258.033,-180 248.033,-176.5 248.033,-183.5"/>
</g>
<!-- Node5 -->
<g id="node5" class="node"><title>Node5</title>
<ellipse fill="none" stroke="red" cx="312" cy="-126" rx="57.6901" ry="18"/>
<text text-anchor="middle" x="312" y="-122.3" font-family="Times,serif" font-size="14.00">निर्_मूल्+णिच्</text>
</g>
<!-- Node4&#45;&gt;Node5 -->
<g id="edge4" class="edge"><title>Node4&#45;&gt;Node5</title>
<path fill="none" stroke="black" d="M194.513,-126C209.58,-126 227.016,-126 243.735,-126"/>
<polygon fill="black" stroke="black" points="244.025,-129.5 254.025,-126 244.025,-122.5 244.025,-129.5"/>
</g>
<!-- Node6 -->
<g id="node6" class="node"><title>Node6</title>
<polygon fill="none" stroke="blue" points="490.5,-144 435.5,-144 435.5,-108 490.5,-108 490.5,-144"/>
<text text-anchor="middle" x="463" y="-122.3" font-family="Times,serif" font-size="14.00">निर्मूलन</text>
</g>
<!-- Node5&#45;&gt;Node6 -->
<g id="edge5" class="edge"><title>Node5&#45;&gt;Node6</title>
<path fill="none" stroke="black" d="M370.181,-126C388.493,-126 408.282,-126 424.783,-126"/>
<polygon fill="black" stroke="black" points="425.104,-129.5 435.104,-126 425.103,-122.5 425.104,-129.5"/>
<text text-anchor="middle" x="400" y="-129.8" font-family="Times,serif" font-size="14.00">ल्युट्</text>
</g>
<!-- Node10 -->
<g id="node10" class="node"><title>Node10</title>
<g id="a_node10"><a xlink:title="जड़ से उखाड़ना, समूलोच्छेदन, पूर्ण विनाश">
<polygon fill="none" stroke="blue" points="496,-198 430,-198 430,-162 496,-162 496,-198"/>
<text text-anchor="middle" x="463" y="-176.3" font-family="Times,serif" font-size="14.00">समुन्मूलन</text>
</a>
</g>
</g>
<!-- Node9&#45;&gt;Node10 -->
<g id="edge9" class="edge"><title>Node9&#45;&gt;Node10</title>
<path fill="none" stroke="black" d="M365.951,-180C383.546,-180 402.895,-180 419.587,-180"/>
<polygon fill="black" stroke="black" points="419.598,-183.5 429.597,-180 419.597,-176.5 419.598,-183.5"/>
<text text-anchor="middle" x="400" y="-183.8" font-family="Times,serif" font-size="14.00">ल्युट्</text>
</g>
</g>
</svg>
