<?xml version="1.0" encoding="UTF-8" standalone="no"?>
<!DOCTYPE svg PUBLIC "-//W3C//DTD SVG 1.1//EN"
 "http://www.w3.org/Graphics/SVG/1.1/DTD/svg11.dtd">
<!-- Generated by graphviz version 2.40.1 (20161225.0304)
 -->
<!-- Title: G Pages: 1 -->
<svg width="394pt" height="44pt"
 viewBox="0.00 0.00 393.89 44.00" xmlns="http://www.w3.org/2000/svg" xmlns:xlink="http://www.w3.org/1999/xlink">
<g id="graph0" class="graph" transform="scale(1 1) rotate(0) translate(4 40)">
<title>G</title>
<polygon fill="#ffffff" stroke="transparent" points="-4,4 -4,-40 389.887,-40 389.887,4 -4,4"/>
<!-- Node1 -->
<g id="node1" class="node">
<title>Node1</title>
<ellipse fill="none" stroke="#ff0000" cx="27" cy="-18" rx="27" ry="18"/>
<text text-anchor="middle" x="27" y="-14.3" font-family="Times,serif" font-size="14.00" fill="#000000">णी</text>
</g>
<!-- Node2 -->
<g id="node2" class="node">
<title>Node2</title>
<ellipse fill="none" stroke="#ff0000" cx="119.5975" cy="-18" rx="28.6953" ry="18"/>
<text text-anchor="middle" x="119.5975" y="-14.3" font-family="Times,serif" font-size="14.00" fill="#000000">प्र_णी</text>
</g>
<!-- Node1&#45;&gt;Node2 -->
<g id="edge1" class="edge">
<title>Node1&#45;&gt;Node2</title>
<path fill="none" stroke="#000000" d="M54.2815,-18C62.5637,-18 71.8286,-18 80.7188,-18"/>
<polygon fill="#000000" stroke="#000000" points="80.9016,-21.5001 90.9016,-18 80.9015,-14.5001 80.9016,-21.5001"/>
</g>
<!-- Node3 -->
<g id="node3" class="node">
<title>Node3</title>
<ellipse fill="none" stroke="#ff0000" cx="230.0409" cy="-18" rx="44.6926" ry="18"/>
<text text-anchor="middle" x="230.0409" y="-14.3" font-family="Times,serif" font-size="14.00" fill="#000000">सम्_प्र_णी</text>
</g>
<!-- Node2&#45;&gt;Node3 -->
<g id="edge2" class="edge">
<title>Node2&#45;&gt;Node3</title>
<path fill="none" stroke="#000000" d="M148.3269,-18C156.5877,-18 165.8852,-18 175.1695,-18"/>
<polygon fill="#000000" stroke="#000000" points="175.1891,-21.5001 185.189,-18 175.189,-14.5001 175.1891,-21.5001"/>
</g>
<!-- Node4 -->
<g id="node4" class="node">
<title>Node4</title>
<g id="a_node4"><a xlink:title="शासक, न्यायधीश">
<polygon fill="none" stroke="#0000ff" points="385.887,-36 328.887,-36 328.887,0 385.887,0 385.887,-36"/>
<text text-anchor="middle" x="357.387" y="-14.3" font-family="Times,serif" font-size="14.00" fill="#000000">सम्प्रणेतृ</text>
</a>
</g>
</g>
<!-- Node3&#45;&gt;Node4 -->
<g id="edge3" class="edge">
<title>Node3&#45;&gt;Node4</title>
<path fill="none" stroke="#000000" d="M274.9384,-18C289.2042,-18 304.8509,-18 318.6442,-18"/>
<polygon fill="#000000" stroke="#000000" points="318.7771,-21.5001 328.777,-18 318.777,-14.5001 318.7771,-21.5001"/>
<text text-anchor="middle" x="301.887" y="-21.8" font-family="Times,serif" font-size="14.00" fill="#000000">तृच्</text>
</g>
</g>
</svg>
