<?xml version="1.0" encoding="UTF-8" standalone="no"?>
<!DOCTYPE svg PUBLIC "-//W3C//DTD SVG 1.1//EN"
 "http://www.w3.org/Graphics/SVG/1.1/DTD/svg11.dtd">
<!-- Generated by graphviz version 2.40.1 (20161225.0304)
 -->
<!-- Title: G Pages: 1 -->
<svg width="280pt" height="44pt"
 viewBox="0.00 0.00 280.49 44.00" xmlns="http://www.w3.org/2000/svg" xmlns:xlink="http://www.w3.org/1999/xlink">
<g id="graph0" class="graph" transform="scale(1 1) rotate(0) translate(4 40)">
<title>G</title>
<polygon fill="#ffffff" stroke="transparent" points="-4,4 -4,-40 276.4937,-40 276.4937,4 -4,4"/>
<!-- Node1 -->
<g id="node1" class="node">
<title>Node1</title>
<ellipse fill="none" stroke="#ff0000" cx="27" cy="-18" rx="27" ry="18"/>
<text text-anchor="middle" x="27" y="-14.3" font-family="Times,serif" font-size="14.00" fill="#000000">ओण्</text>
</g>
<!-- Node2 -->
<g id="node2" class="node">
<title>Node2</title>
<ellipse fill="none" stroke="#ff0000" cx="126.7468" cy="-18" rx="35.9954" ry="18"/>
<text text-anchor="middle" x="126.7468" y="-14.3" font-family="Times,serif" font-size="14.00" fill="#000000">प्र_ओण्</text>
</g>
<!-- Node1&#45;&gt;Node2 -->
<g id="edge1" class="edge">
<title>Node1&#45;&gt;Node2</title>
<path fill="none" stroke="#000000" d="M54.2563,-18C62.4705,-18 71.7233,-18 80.8014,-18"/>
<polygon fill="#000000" stroke="#000000" points="80.9121,-21.5001 90.9121,-18 80.912,-14.5001 80.9121,-21.5001"/>
</g>
<!-- Node3 -->
<g id="node3" class="node">
<title>Node3</title>
<g id="a_node3"><a xlink:title="चतुर, विद्वान्, कुशल">
<polygon fill="none" stroke="#0000ff" points="272.4937,-36 218.4937,-36 218.4937,0 272.4937,0 272.4937,-36"/>
<text text-anchor="middle" x="245.4937" y="-14.3" font-family="Times,serif" font-size="14.00" fill="#000000">प्रौण</text>
</a>
</g>
</g>
<!-- Node2&#45;&gt;Node3 -->
<g id="edge2" class="edge">
<title>Node2&#45;&gt;Node3</title>
<path fill="none" stroke="#000000" d="M162.697,-18C177.0886,-18 193.6669,-18 208.1907,-18"/>
<polygon fill="#000000" stroke="#000000" points="208.3427,-21.5001 218.3426,-18 208.3426,-14.5001 208.3427,-21.5001"/>
<text text-anchor="middle" x="190.4937" y="-21.8" font-family="Times,serif" font-size="14.00" fill="#000000">अच्</text>
</g>
</g>
</svg>
