<?xml version="1.0" encoding="UTF-8" standalone="no"?>
<!DOCTYPE svg PUBLIC "-//W3C//DTD SVG 1.1//EN"
 "http://www.w3.org/Graphics/SVG/1.1/DTD/svg11.dtd">
<!-- Generated by graphviz version 2.36.0 (20140111.2315)
 -->
<!-- Title: G Pages: 1 -->
<svg width="282pt" height="44pt"
 viewBox="0.00 0.00 282.00 44.00" xmlns="http://www.w3.org/2000/svg" xmlns:xlink="http://www.w3.org/1999/xlink">
<g id="graph0" class="graph" transform="scale(1 1) rotate(0) translate(4 40)">
<title>G</title>
<polygon fill="white" stroke="none" points="-4,4 -4,-40 278,-40 278,4 -4,4"/>
<!-- Node1 -->
<g id="node1" class="node"><title>Node1</title>
<ellipse fill="none" stroke="red" cx="27" cy="-18" rx="27" ry="18"/>
<text text-anchor="middle" x="27" y="-14.3" font-family="Times,serif" font-size="14.00">ओण्</text>
</g>
<!-- Node2 -->
<g id="node2" class="node"><title>Node2</title>
<ellipse fill="none" stroke="red" cx="128" cy="-18" rx="35.9954" ry="18"/>
<text text-anchor="middle" x="128" y="-14.3" font-family="Times,serif" font-size="14.00">प्र_ओण्</text>
</g>
<!-- Node1&#45;&gt;Node2 -->
<g id="edge1" class="edge"><title>Node1&#45;&gt;Node2</title>
<path fill="none" stroke="black" d="M54.0111,-18C62.5937,-18 72.4028,-18 81.9857,-18"/>
<polygon fill="black" stroke="black" points="82.2268,-21.5001 92.2268,-18 82.2268,-14.5001 82.2268,-21.5001"/>
</g>
<!-- Node3 -->
<g id="node3" class="node"><title>Node3</title>
<g id="a_node3"><a xlink:title="चतुर, विद्वान्, कुशल">
<polygon fill="none" stroke="blue" points="274,-36 220,-36 220,-0 274,-0 274,-36"/>
<text text-anchor="middle" x="247" y="-14.3" font-family="Times,serif" font-size="14.00">प्रौण</text>
</a>
</g>
</g>
<!-- Node2&#45;&gt;Node3 -->
<g id="edge2" class="edge"><title>Node2&#45;&gt;Node3</title>
<path fill="none" stroke="black" d="M163.787,-18C178.205,-18 194.937,-18 209.528,-18"/>
<polygon fill="black" stroke="black" points="209.71,-21.5001 219.71,-18 209.71,-14.5001 209.71,-21.5001"/>
<text text-anchor="middle" x="192" y="-21.8" font-family="Times,serif" font-size="14.00">अच्</text>
</g>
</g>
</svg>
