<?xml version="1.0" encoding="UTF-8" standalone="no"?>
<!DOCTYPE svg PUBLIC "-//W3C//DTD SVG 1.1//EN"
 "http://www.w3.org/Graphics/SVG/1.1/DTD/svg11.dtd">
<!-- Generated by graphviz version 2.40.1 (20161225.0304)
 -->
<!-- Title: G Pages: 1 -->
<svg width="522pt" height="476pt"
 viewBox="0.00 0.00 521.88 476.00" xmlns="http://www.w3.org/2000/svg" xmlns:xlink="http://www.w3.org/1999/xlink">
<g id="graph0" class="graph" transform="scale(1 1) rotate(0) translate(4 472)">
<title>G</title>
<polygon fill="#ffffff" stroke="transparent" points="-4,4 -4,-472 517.8812,-472 517.8812,4 -4,4"/>
<!-- Node1 -->
<g id="node1" class="node">
<title>Node1</title>
<ellipse fill="none" stroke="#ff0000" cx="27" cy="-234" rx="27" ry="18"/>
<text text-anchor="middle" x="27" y="-230.3" font-family="Times,serif" font-size="14.00" fill="#000000">पाल्</text>
</g>
<!-- Node2 -->
<g id="node2" class="node">
<title>Node2</title>
<ellipse fill="none" stroke="#ff0000" cx="158.1961" cy="-450" rx="40.8928" ry="18"/>
<text text-anchor="middle" x="158.1961" y="-446.3" font-family="Times,serif" font-size="14.00" fill="#000000">अनु_पाल्</text>
</g>
<!-- Node1&#45;&gt;Node2 -->
<g id="edge1" class="edge">
<title>Node1&#45;&gt;Node2</title>
<path fill="none" stroke="#000000" d="M30.891,-251.8203C37.1416,-278.4136 50.9001,-329.5745 72,-369 86.3467,-395.807 91.3246,-402.7449 114,-423 116.9338,-425.6206 120.1556,-428.1341 123.4813,-430.5005"/>
<polygon fill="#000000" stroke="#000000" points="121.5894,-433.4455 131.8574,-436.0571 125.4591,-427.6124 121.5894,-433.4455"/>
</g>
<!-- Node4 -->
<g id="node4" class="node">
<title>Node4</title>
<g id="a_node4"><a xlink:title="अभिभावक, प्ररक्षक">
<polygon fill="none" stroke="#0000ff" points="185.1961,-414 131.1961,-414 131.1961,-378 185.1961,-378 185.1961,-414"/>
<text text-anchor="middle" x="158.1961" y="-392.3" font-family="Times,serif" font-size="14.00" fill="#000000">पालक</text>
</a>
</g>
</g>
<!-- Node1&#45;&gt;Node4 -->
<g id="edge3" class="edge">
<title>Node1&#45;&gt;Node4</title>
<path fill="none" stroke="#000000" d="M34.3006,-251.6761C46.7795,-279.9505 74.7232,-335.561 114,-369 116.6829,-371.2841 119.58,-373.5017 122.563,-375.6194"/>
<polygon fill="#000000" stroke="#000000" points="120.8263,-378.6679 131.09,-381.2962 124.7055,-372.8411 120.8263,-378.6679"/>
<text text-anchor="middle" x="84" y="-353.8" font-family="Times,serif" font-size="14.00" fill="#000000">ण्वुल्</text>
</g>
<!-- Node5 -->
<g id="node5" class="node">
<title>Node5</title>
<g id="a_node5"><a xlink:title="पालक का साग">
<polygon fill="none" stroke="#0000ff" points="185.1961,-360 131.1961,-360 131.1961,-324 185.1961,-324 185.1961,-360"/>
<text text-anchor="middle" x="158.1961" y="-338.3" font-family="Times,serif" font-size="14.00" fill="#000000">पालङ्क</text>
</a>
</g>
</g>
<!-- Node1&#45;&gt;Node5 -->
<g id="edge4" class="edge">
<title>Node1&#45;&gt;Node5</title>
<path fill="none" stroke="#000000" d="M41.1188,-249.7226C49.7576,-259.0915 61.193,-271.0561 72,-281 89.6733,-297.2618 94.3766,-301.154 114,-315 116.8033,-316.9779 119.7527,-318.9661 122.7425,-320.9174"/>
<polygon fill="#000000" stroke="#000000" points="120.8693,-323.8739 131.1873,-326.2803 124.622,-317.9648 120.8693,-323.8739"/>
<text text-anchor="middle" x="84" y="-304.8" font-family="Times,serif" font-size="14.00" fill="#000000">किप्</text>
</g>
<!-- Node6 -->
<g id="node6" class="node">
<title>Node6</title>
<g id="a_node6"><a xlink:title="बनाये रखना, अनुपालन करना, (व्रत, प्रतिज्ञा, आदि को) पूरा करना#रक्षा करने वाला, संरक्षण देने वाला">
<polygon fill="none" stroke="#0000ff" points="185.1961,-306 131.1961,-306 131.1961,-270 185.1961,-270 185.1961,-306"/>
<text text-anchor="middle" x="158.1961" y="-284.3" font-family="Times,serif" font-size="14.00" fill="#000000">पालन</text>
</a>
</g>
</g>
<!-- Node1&#45;&gt;Node6 -->
<g id="edge5" class="edge">
<title>Node1&#45;&gt;Node6</title>
<path fill="none" stroke="#000000" d="M49.8671,-243.7269C56.9526,-246.7216 64.7917,-250.015 72,-253 88.1581,-259.6913 106.0683,-266.9838 121.3577,-273.1719"/>
<polygon fill="#000000" stroke="#000000" points="120.3989,-276.5593 130.9818,-277.0614 123.0218,-270.0693 120.3989,-276.5593"/>
<text text-anchor="middle" x="84" y="-265.8" font-family="Times,serif" font-size="14.00" fill="#000000">ल्युट्</text>
</g>
<!-- Node7 -->
<g id="node7" class="node">
<title>Node7</title>
<g id="a_node7"><a xlink:title="प्ररक्षक, अभिभावक, संरक्षक, यथा गोपाल, वृष्णिपाल आदि">
<polygon fill="none" stroke="#0000ff" points="185.1961,-252 131.1961,-252 131.1961,-216 185.1961,-216 185.1961,-252"/>
<text text-anchor="middle" x="158.1961" y="-230.3" font-family="Times,serif" font-size="14.00" fill="#000000">पाल</text>
</a>
</g>
</g>
<!-- Node1&#45;&gt;Node7 -->
<g id="edge6" class="edge">
<title>Node1&#45;&gt;Node7</title>
<path fill="none" stroke="#000000" d="M54.1839,-234C73.4461,-234 99.5312,-234 120.7596,-234"/>
<polygon fill="#000000" stroke="#000000" points="121.047,-237.5001 131.047,-234 121.047,-230.5001 121.047,-237.5001"/>
<text text-anchor="middle" x="84" y="-237.8" font-family="Times,serif" font-size="14.00" fill="#000000">अच्</text>
</g>
<!-- Node8 -->
<g id="node8" class="node">
<title>Node8</title>
<ellipse fill="none" stroke="#ff0000" cx="158.1961" cy="-180" rx="44.393" ry="18"/>
<text text-anchor="middle" x="158.1961" y="-176.3" font-family="Times,serif" font-size="14.00" fill="#000000">पाल्+णिच्</text>
</g>
<!-- Node1&#45;&gt;Node8 -->
<g id="edge7" class="edge">
<title>Node1&#45;&gt;Node8</title>
<path fill="none" stroke="#000000" d="M50.1532,-224.4702C68.7363,-216.8214 95.2834,-205.8947 117.412,-196.7866"/>
<polygon fill="#000000" stroke="#000000" points="118.9903,-199.9219 126.9055,-192.8791 116.326,-193.4488 118.9903,-199.9219"/>
</g>
<!-- Node10 -->
<g id="node10" class="node">
<title>Node10</title>
<g id="a_node10"><a xlink:title="प्ररक्षित, संरक्षित, आरक्षित">
<polygon fill="none" stroke="#0000ff" points="185.1961,-144 131.1961,-144 131.1961,-108 185.1961,-108 185.1961,-144"/>
<text text-anchor="middle" x="158.1961" y="-122.3" font-family="Times,serif" font-size="14.00" fill="#000000">पालित</text>
</a>
</g>
</g>
<!-- Node1&#45;&gt;Node10 -->
<g id="edge9" class="edge">
<title>Node1&#45;&gt;Node10</title>
<path fill="none" stroke="#000000" d="M41.3715,-218.4021C57.8368,-201.0846 86.1498,-172.9487 114,-153 116.7891,-151.0022 119.7286,-149.0001 122.7118,-147.0394"/>
<polygon fill="#000000" stroke="#000000" points="124.596,-149.989 131.1457,-141.6612 120.8323,-144.0869 124.596,-149.989"/>
<text text-anchor="middle" x="84" y="-189.8" font-family="Times,serif" font-size="14.00" fill="#000000">क्त</text>
</g>
<!-- Node11 -->
<g id="node11" class="node">
<title>Node11</title>
<g id="a_node11"><a xlink:title="कान का सिरा, श्रवणपालिः">
<polygon fill="none" stroke="#0000ff" points="185.1961,-90 131.1961,-90 131.1961,-54 185.1961,-54 185.1961,-90"/>
<text text-anchor="middle" x="158.1961" y="-68.3" font-family="Times,serif" font-size="14.00" fill="#000000">पालि</text>
</a>
</g>
</g>
<!-- Node1&#45;&gt;Node11 -->
<g id="edge10" class="edge">
<title>Node1&#45;&gt;Node11</title>
<path fill="none" stroke="#000000" d="M34.3391,-216.3689C46.8722,-188.1579 74.8904,-132.6343 114,-99 116.6715,-96.7025 119.5607,-94.4757 122.5384,-92.3519"/>
<polygon fill="#000000" stroke="#000000" points="124.6831,-95.1284 131.0572,-86.6655 120.7967,-89.3063 124.6831,-95.1284"/>
<text text-anchor="middle" x="84" y="-149.8" font-family="Times,serif" font-size="14.00" fill="#000000">इन्</text>
</g>
<!-- Node12 -->
<g id="node12" class="node">
<title>Node12</title>
<g id="a_node12"><a xlink:title="कान का सिरा">
<polygon fill="none" stroke="#0000ff" points="185.1961,-36 131.1961,-36 131.1961,0 185.1961,0 185.1961,-36"/>
<text text-anchor="middle" x="158.1961" y="-14.3" font-family="Times,serif" font-size="14.00" fill="#000000">पाली</text>
</a>
</g>
</g>
<!-- Node1&#45;&gt;Node12 -->
<g id="edge11" class="edge">
<title>Node1&#45;&gt;Node12</title>
<path fill="none" stroke="#000000" d="M30.891,-216.1797C37.1416,-189.5864 50.9001,-138.4255 72,-99 86.3467,-72.193 91.3246,-65.2551 114,-45 116.6278,-42.6527 119.4867,-40.3913 122.4444,-38.2446"/>
<polygon fill="#000000" stroke="#000000" points="124.5969,-41.0146 130.9315,-32.5221 120.6835,-35.2107 124.5969,-41.0146"/>
<text text-anchor="middle" x="84" y="-102.8" font-family="Times,serif" font-size="14.00" fill="#000000">इन्</text>
</g>
<!-- Node3 -->
<g id="node3" class="node">
<title>Node3</title>
<g id="a_node3"><a xlink:title="प्ररक्षण, सुरक्षण, आज्ञापालन">
<polygon fill="none" stroke="#0000ff" points="356.6367,-468 291.6367,-468 291.6367,-432 356.6367,-432 356.6367,-468"/>
<text text-anchor="middle" x="324.1367" y="-446.3" font-family="Times,serif" font-size="14.00" fill="#000000">अनुपालन</text>
</a>
</g>
</g>
<!-- Node2&#45;&gt;Node3 -->
<g id="edge2" class="edge">
<title>Node2&#45;&gt;Node3</title>
<path fill="none" stroke="#000000" d="M199.2151,-450C224.2682,-450 256.2465,-450 281.5764,-450"/>
<polygon fill="#000000" stroke="#000000" points="281.632,-453.5001 291.632,-450 281.632,-446.5001 281.632,-453.5001"/>
<text text-anchor="middle" x="232.3922" y="-453.8" font-family="Times,serif" font-size="14.00" fill="#000000">ल्युट्</text>
</g>
<!-- Node9 -->
<g id="node9" class="node">
<title>Node9</title>
<g id="a_node9"><a xlink:title="प्ररक्षक, संरक्षक, परवरिश करने वाला">
<polygon fill="none" stroke="#0000ff" points="353.1367,-220 295.1367,-220 295.1367,-184 353.1367,-184 353.1367,-220"/>
<text text-anchor="middle" x="324.1367" y="-198.3" font-family="Times,serif" font-size="14.00" fill="#000000">पालयितृ</text>
</a>
</g>
</g>
<!-- Node8&#45;&gt;Node9 -->
<g id="edge8" class="edge">
<title>Node8&#45;&gt;Node9</title>
<path fill="none" stroke="#000000" d="M200.4993,-185.6085C226.4931,-189.0547 259.562,-193.4388 284.9582,-196.8058"/>
<polygon fill="#000000" stroke="#000000" points="284.6065,-200.2897 294.9797,-198.1344 285.5265,-193.3504 284.6065,-200.2897"/>
<text text-anchor="middle" x="232.3922" y="-194.8" font-family="Times,serif" font-size="14.00" fill="#000000">तृच्</text>
</g>
<!-- Node13 -->
<g id="node13" class="node">
<title>Node13</title>
<ellipse fill="none" stroke="#ff0000" cx="324.1367" cy="-148" rx="61.99" ry="18"/>
<text text-anchor="middle" x="324.1367" y="-144.3" font-family="Times,serif" font-size="14.00" fill="#000000">प्रति_पाल्+णिच्</text>
</g>
<!-- Node8&#45;&gt;Node13 -->
<g id="edge12" class="edge">
<title>Node8&#45;&gt;Node13</title>
<path fill="none" stroke="#000000" d="M198.3657,-172.2537C217.5765,-168.5491 241.0029,-164.0315 262.4072,-159.9039"/>
<polygon fill="#000000" stroke="#000000" points="263.2434,-163.3072 272.3998,-157.9769 261.9179,-156.4339 263.2434,-163.3072"/>
</g>
<!-- Node14 -->
<g id="node14" class="node">
<title>Node14</title>
<g id="a_node14"><a xlink:title="बचाने वाला, संरक्षक, अभिभावक">
<polygon fill="none" stroke="#0000ff" points="513.8812,-193 445.8812,-193 445.8812,-157 513.8812,-157 513.8812,-193"/>
<text text-anchor="middle" x="479.8812" y="-171.3" font-family="Times,serif" font-size="14.00" fill="#000000">प्रतिपालक</text>
</a>
</g>
</g>
<!-- Node13&#45;&gt;Node14 -->
<g id="edge13" class="edge">
<title>Node13&#45;&gt;Node14</title>
<path fill="none" stroke="#000000" d="M377.2995,-157.2164C396.2455,-160.5009 417.3685,-164.1628 435.4994,-167.3059"/>
<polygon fill="#000000" stroke="#000000" points="435.0587,-170.7817 445.5096,-169.0413 436.2544,-163.8845 435.0587,-170.7817"/>
<text text-anchor="middle" x="415.8812" y="-168.8" font-family="Times,serif" font-size="14.00" fill="#000000">ण्वुल्</text>
</g>
<!-- Node15 -->
<g id="node15" class="node">
<title>Node15</title>
<g id="a_node15"><a xlink:title="संरक्षण, बचाना, रक्षा करना, पालन करना, अभ्यास करना">
<polygon fill="none" stroke="#0000ff" points="512.8812,-139 446.8812,-139 446.8812,-103 512.8812,-103 512.8812,-139"/>
<text text-anchor="middle" x="479.8812" y="-117.3" font-family="Times,serif" font-size="14.00" fill="#000000">प्रतिपालन</text>
</a>
</g>
</g>
<!-- Node13&#45;&gt;Node15 -->
<g id="edge14" class="edge">
<title>Node13&#45;&gt;Node15</title>
<path fill="none" stroke="#000000" d="M377.2995,-138.7836C396.5416,-135.4478 418.0292,-131.7227 436.347,-128.5471"/>
<polygon fill="#000000" stroke="#000000" points="437.188,-131.9536 446.4432,-126.7968 435.9923,-125.0565 437.188,-131.9536"/>
<text text-anchor="middle" x="415.8812" y="-137.8" font-family="Times,serif" font-size="14.00" fill="#000000">ल्युट्</text>
</g>
</g>
</svg>
