<?xml version="1.0" encoding="UTF-8" standalone="no"?>
<!DOCTYPE svg PUBLIC "-//W3C//DTD SVG 1.1//EN"
 "http://www.w3.org/Graphics/SVG/1.1/DTD/svg11.dtd">
<!-- Generated by graphviz version 2.40.1 (20161225.0304)
 -->
<!-- Title: G Pages: 1 -->
<svg width="181pt" height="98pt"
 viewBox="0.00 0.00 181.00 98.00" xmlns="http://www.w3.org/2000/svg" xmlns:xlink="http://www.w3.org/1999/xlink">
<g id="graph0" class="graph" transform="scale(1 1) rotate(0) translate(4 94)">
<title>G</title>
<polygon fill="#ffffff" stroke="transparent" points="-4,4 -4,-94 177,-94 177,4 -4,4"/>
<!-- Node1 -->
<g id="node1" class="node">
<title>Node1</title>
<ellipse fill="none" stroke="#ff0000" cx="27" cy="-45" rx="27" ry="18"/>
<text text-anchor="middle" x="27" y="-41.3" font-family="Times,serif" font-size="14.00" fill="#000000">पक्ष्</text>
</g>
<!-- Node2 -->
<g id="node2" class="node">
<title>Node2</title>
<g id="a_node2"><a xlink:title="फूल की पंखड़ी">
<polygon fill="none" stroke="#0000ff" points="173,-90 119,-90 119,-54 173,-54 173,-90"/>
<text text-anchor="middle" x="146" y="-68.3" font-family="Times,serif" font-size="14.00" fill="#000000">पक्षमन्</text>
</a>
</g>
</g>
<!-- Node1&#45;&gt;Node2 -->
<g id="edge1" class="edge">
<title>Node1&#45;&gt;Node2</title>
<path fill="none" stroke="#000000" d="M52.8212,-50.8586C69.3167,-54.6013 90.9614,-59.5123 109.2374,-63.6589"/>
<polygon fill="#000000" stroke="#000000" points="108.4635,-67.0722 118.9901,-65.8717 110.0124,-60.2457 108.4635,-67.0722"/>
<text text-anchor="middle" x="86.5" y="-64.8" font-family="Times,serif" font-size="14.00" fill="#000000">मनिन्</text>
</g>
<!-- Node3 -->
<g id="node3" class="node">
<title>Node3</title>
<polygon fill="none" stroke="#0000ff" points="173,-36 119,-36 119,0 173,0 173,-36"/>
<text text-anchor="middle" x="146" y="-14.3" font-family="Times,serif" font-size="14.00" fill="#000000">पक्ष्मन्</text>
</g>
<!-- Node1&#45;&gt;Node3 -->
<g id="edge2" class="edge">
<title>Node1&#45;&gt;Node3</title>
<path fill="none" stroke="#000000" d="M52.8212,-39.1414C69.3167,-35.3987 90.9614,-30.4877 109.2374,-26.3411"/>
<polygon fill="#000000" stroke="#000000" points="110.0124,-29.7543 118.9901,-24.1283 108.4635,-22.9278 110.0124,-29.7543"/>
<text text-anchor="middle" x="86.5" y="-37.8" font-family="Times,serif" font-size="14.00" fill="#000000">मनिन्</text>
</g>
</g>
</svg>
