<?xml version="1.0" encoding="UTF-8" standalone="no"?>
<!DOCTYPE svg PUBLIC "-//W3C//DTD SVG 1.1//EN"
 "http://www.w3.org/Graphics/SVG/1.1/DTD/svg11.dtd">
<!-- Generated by graphviz version 2.40.1 (20161225.0304)
 -->
<!-- Title: G Pages: 1 -->
<svg width="484pt" height="665pt"
 viewBox="0.00 0.00 483.88 665.00" xmlns="http://www.w3.org/2000/svg" xmlns:xlink="http://www.w3.org/1999/xlink">
<g id="graph0" class="graph" transform="scale(1 1) rotate(0) translate(4 661)">
<title>G</title>
<polygon fill="#ffffff" stroke="transparent" points="-4,4 -4,-661 479.8847,-661 479.8847,4 -4,4"/>
<!-- Node1 -->
<g id="node1" class="node">
<title>Node1</title>
<ellipse fill="none" stroke="#ff0000" cx="27" cy="-352" rx="27" ry="18"/>
<text text-anchor="middle" x="27" y="-348.3" font-family="Times,serif" font-size="14.00" fill="#000000">पण्</text>
</g>
<!-- Node2 -->
<g id="node2" class="node">
<title>Node2</title>
<g id="a_node2"><a xlink:title="अदल&#45;बदल करना, खरीदना">
<polygon fill="none" stroke="#0000ff" points="182.5963,-657 128.5963,-657 128.5963,-621 182.5963,-621 182.5963,-657"/>
<text text-anchor="middle" x="155.5963" y="-635.3" font-family="Times,serif" font-size="14.00" fill="#000000">पणन</text>
</a>
</g>
</g>
<!-- Node1&#45;&gt;Node2 -->
<g id="edge1" class="edge">
<title>Node1&#45;&gt;Node2</title>
<path fill="none" stroke="#000000" d="M28.6392,-370.2288C32.4144,-406.453 43.6744,-489.4766 72,-553 85.1086,-582.3975 90.7569,-589.7333 114,-612 115.904,-613.824 117.9477,-615.598 120.0705,-617.3078"/>
<polygon fill="#000000" stroke="#000000" points="118.3994,-620.425 128.5215,-623.5547 122.5604,-614.7959 118.3994,-620.425"/>
<text text-anchor="middle" x="84" y="-596.8" font-family="Times,serif" font-size="14.00" fill="#000000">ल्युट्</text>
</g>
<!-- Node3 -->
<g id="node3" class="node">
<title>Node3</title>
<g id="a_node3"><a xlink:title="पासों से या दाँव लगार कर खेलना">
<polygon fill="none" stroke="#0000ff" points="182.5963,-603 128.5963,-603 128.5963,-567 182.5963,-567 182.5963,-603"/>
<text text-anchor="middle" x="155.5963" y="-581.3" font-family="Times,serif" font-size="14.00" fill="#000000">पण</text>
</a>
</g>
</g>
<!-- Node1&#45;&gt;Node3 -->
<g id="edge2" class="edge">
<title>Node1&#45;&gt;Node3</title>
<path fill="none" stroke="#000000" d="M30.2218,-369.9973C38.0258,-408.8824 61.3149,-501.7599 114,-558 115.9865,-560.1206 118.1722,-562.1513 120.4701,-564.079"/>
<polygon fill="#000000" stroke="#000000" points="118.5007,-566.9777 128.5882,-570.217 122.7224,-561.3941 118.5007,-566.9777"/>
<text text-anchor="middle" x="84" y="-537.8" font-family="Times,serif" font-size="14.00" fill="#000000">अप्</text>
</g>
<!-- Node4 -->
<g id="node4" class="node">
<title>Node4</title>
<ellipse fill="none" stroke="#ff0000" cx="155.5963" cy="-531" rx="41.6928" ry="18"/>
<text text-anchor="middle" x="155.5963" y="-527.3" font-family="Times,serif" font-size="14.00" fill="#000000">पण्+आय</text>
</g>
<!-- Node1&#45;&gt;Node4 -->
<g id="edge3" class="edge">
<title>Node1&#45;&gt;Node4</title>
<path fill="none" stroke="#000000" d="M33.2816,-369.8765C40.955,-390.6478 55.0326,-425.5743 72,-453 87.4488,-477.9711 92.0956,-484.4444 114,-504 116.583,-506.306 119.3811,-508.5539 122.2629,-510.705"/>
<polygon fill="#000000" stroke="#000000" points="120.3001,-513.6033 130.4973,-516.4788 124.3189,-507.8719 120.3001,-513.6033"/>
</g>
<!-- Node6 -->
<g id="node6" class="node">
<title>Node6</title>
<g id="a_node6"><a xlink:title="(व्यापार में) किया गया लेन&#45;देन">
<polygon fill="none" stroke="#0000ff" points="182.5963,-495 128.5963,-495 128.5963,-459 182.5963,-459 182.5963,-495"/>
<text text-anchor="middle" x="155.5963" y="-473.3" font-family="Times,serif" font-size="14.00" fill="#000000">पणित</text>
</a>
</g>
</g>
<!-- Node1&#45;&gt;Node6 -->
<g id="edge5" class="edge">
<title>Node1&#45;&gt;Node6</title>
<path fill="none" stroke="#000000" d="M38.3262,-368.3647C47.0289,-380.5479 59.6192,-397.3589 72,-411 89.1199,-429.8626 93.9085,-434.3405 114,-450 115.8207,-451.4191 117.7164,-452.8371 119.6512,-454.2387"/>
<polygon fill="#000000" stroke="#000000" points="118.0657,-457.399 128.275,-460.231 122.0601,-451.6505 118.0657,-457.399"/>
<text text-anchor="middle" x="84" y="-437.8" font-family="Times,serif" font-size="14.00" fill="#000000">क्त</text>
</g>
<!-- Node7 -->
<g id="node7" class="node">
<title>Node7</title>
<g id="a_node7"><a xlink:title="बाजार">
<polygon fill="none" stroke="#0000ff" points="182.5963,-441 128.5963,-441 128.5963,-405 182.5963,-405 182.5963,-441"/>
<text text-anchor="middle" x="155.5963" y="-419.3" font-family="Times,serif" font-size="14.00" fill="#000000">पणि</text>
</a>
</g>
</g>
<!-- Node1&#45;&gt;Node7 -->
<g id="edge6" class="edge">
<title>Node1&#45;&gt;Node7</title>
<path fill="none" stroke="#000000" d="M46.5051,-364.6186C54.3423,-369.5615 63.5157,-375.1889 72,-380 87.2562,-388.6511 104.4345,-397.6161 119.2329,-405.1072"/>
<polygon fill="#000000" stroke="#000000" points="118.0629,-408.4362 128.5697,-409.7989 121.2059,-402.1815 118.0629,-408.4362"/>
<text text-anchor="middle" x="84" y="-395.8" font-family="Times,serif" font-size="14.00" fill="#000000">इन्</text>
</g>
<!-- Node8 -->
<g id="node8" class="node">
<title>Node8</title>
<g id="a_node8"><a xlink:title="बिकाऊ, विक्रयार्थ#वर्तन, वस्तु, विक्रेयवस्तु, पूराबभासे विपणिस्थपण्या">
<polygon fill="none" stroke="#0000ff" points="182.5963,-387 128.5963,-387 128.5963,-351 182.5963,-351 182.5963,-387"/>
<text text-anchor="middle" x="155.5963" y="-365.3" font-family="Times,serif" font-size="14.00" fill="#000000">पण्य</text>
</a>
</g>
</g>
<!-- Node1&#45;&gt;Node8 -->
<g id="edge7" class="edge">
<title>Node1&#45;&gt;Node8</title>
<path fill="none" stroke="#000000" d="M53.6452,-355.5224C72.3998,-358.0017 97.7533,-361.3534 118.4849,-364.094"/>
<polygon fill="#000000" stroke="#000000" points="118.1703,-367.5828 128.5428,-365.4236 119.0878,-360.6432 118.1703,-367.5828"/>
<text text-anchor="middle" x="84" y="-364.8" font-family="Times,serif" font-size="14.00" fill="#000000">यत्</text>
</g>
<!-- Node9 -->
<g id="node9" class="node">
<title>Node9</title>
<ellipse fill="none" stroke="#ff0000" cx="155.5963" cy="-315" rx="37.0935" ry="18"/>
<text text-anchor="middle" x="155.5963" y="-311.3" font-family="Times,serif" font-size="14.00" fill="#000000">परि_पण्</text>
</g>
<!-- Node1&#45;&gt;Node9 -->
<g id="edge8" class="edge">
<title>Node1&#45;&gt;Node9</title>
<path fill="none" stroke="#000000" d="M51.7947,-344.866C69.3568,-339.813 93.3385,-332.913 113.8267,-327.018"/>
<polygon fill="#000000" stroke="#000000" points="114.9182,-330.3461 123.5605,-324.2174 112.9826,-323.619 114.9182,-330.3461"/>
</g>
<!-- Node13 -->
<g id="node13" class="node">
<title>Node13</title>
<g id="a_node13"><a xlink:title="व्यापार, व्यवसाय">
<polygon fill="none" stroke="#0000ff" points="182.5963,-279 128.5963,-279 128.5963,-243 182.5963,-243 182.5963,-279"/>
<text text-anchor="middle" x="155.5963" y="-257.3" font-family="Times,serif" font-size="14.00" fill="#000000">पाण</text>
</a>
</g>
</g>
<!-- Node1&#45;&gt;Node13 -->
<g id="edge12" class="edge">
<title>Node1&#45;&gt;Node13</title>
<path fill="none" stroke="#000000" d="M42.7363,-337.2818C51.1521,-329.6926 61.848,-320.4844 72,-313 87.1805,-301.8085 104.8056,-290.6038 119.9475,-281.4766"/>
<polygon fill="#000000" stroke="#000000" points="121.739,-284.4834 128.5387,-276.3584 118.1564,-278.4697 121.739,-284.4834"/>
<text text-anchor="middle" x="84" y="-316.8" font-family="Times,serif" font-size="14.00" fill="#000000">घञ्</text>
</g>
<!-- Node14 -->
<g id="node14" class="node">
<title>Node14</title>
<g id="a_node14"><a xlink:title="हाथ, दानेन पाणिर्न तु कंकणेन (विभाति)">
<polygon fill="none" stroke="#0000ff" points="182.5963,-225 128.5963,-225 128.5963,-189 182.5963,-189 182.5963,-225"/>
<text text-anchor="middle" x="155.5963" y="-203.3" font-family="Times,serif" font-size="14.00" fill="#000000">पाणि</text>
</a>
</g>
</g>
<!-- Node1&#45;&gt;Node14 -->
<g id="edge13" class="edge">
<title>Node1&#45;&gt;Node14</title>
<path fill="none" stroke="#000000" d="M36.0275,-334.8692C44.4861,-319.4208 57.9082,-296.3741 72,-278 88.4523,-256.5481 93.1876,-251.2542 114,-234 115.9718,-232.3653 118.0471,-230.7459 120.1752,-229.1603"/>
<polygon fill="#000000" stroke="#000000" points="122.3903,-231.8807 128.5376,-223.2516 118.3508,-226.1638 122.3903,-231.8807"/>
<text text-anchor="middle" x="84" y="-281.8" font-family="Times,serif" font-size="14.00" fill="#000000">इण्</text>
</g>
<!-- Node15 -->
<g id="node15" class="node">
<title>Node15</title>
<ellipse fill="none" stroke="#ff0000" cx="155.5963" cy="-153" rx="35.194" ry="18"/>
<text text-anchor="middle" x="155.5963" y="-149.3" font-family="Times,serif" font-size="14.00" fill="#000000">आ_पण्</text>
</g>
<!-- Node1&#45;&gt;Node15 -->
<g id="edge14" class="edge">
<title>Node1&#45;&gt;Node15</title>
<path fill="none" stroke="#000000" d="M31.9535,-334.2115C42.1754,-300.3389 68.5377,-225.8738 114,-180 116.784,-177.1908 119.9082,-174.5204 123.161,-172.0295"/>
<polygon fill="#000000" stroke="#000000" points="125.2323,-174.8516 131.3906,-166.2303 121.2001,-169.1295 125.2323,-174.8516"/>
</g>
<!-- Node18 -->
<g id="node18" class="node">
<title>Node18</title>
<g id="a_node18"><a xlink:title="सौदागर, व्यापारी, यस्यागमः केवलजीविकायै तं ज्ञानपण्यं वणिजं वदन्ति">
<polygon fill="none" stroke="#0000ff" points="182.5963,-117 128.5963,-117 128.5963,-81 182.5963,-81 182.5963,-117"/>
<text text-anchor="middle" x="155.5963" y="-95.3" font-family="Times,serif" font-size="14.00" fill="#000000">वणिज्</text>
</a>
</g>
</g>
<!-- Node1&#45;&gt;Node18 -->
<g id="edge17" class="edge">
<title>Node1&#45;&gt;Node18</title>
<path fill="none" stroke="#000000" d="M29.2267,-333.9931C35.2873,-292.1971 55.7246,-187.4887 114,-126 115.8137,-124.0863 117.7888,-122.244 119.8606,-120.4835"/>
<polygon fill="#000000" stroke="#000000" points="122.3706,-122.9707 128.1948,-114.1204 118.1226,-117.407 122.3706,-122.9707"/>
</g>
<!-- Node19 -->
<g id="node19" class="node">
<title>Node19</title>
<ellipse fill="none" stroke="#ff0000" cx="155.5963" cy="-45" rx="33.2948" ry="18"/>
<text text-anchor="middle" x="155.5963" y="-41.3" font-family="Times,serif" font-size="14.00" fill="#000000">वि_पण्</text>
</g>
<!-- Node1&#45;&gt;Node19 -->
<g id="edge18" class="edge">
<title>Node1&#45;&gt;Node19</title>
<path fill="none" stroke="#000000" d="M29.1467,-333.9414C33.8577,-297.5956 46.7513,-213.4161 72,-147 85.5758,-111.2893 87.8812,-99.8812 114,-72 116.7683,-69.0449 119.9233,-66.2644 123.2296,-63.6939"/>
<polygon fill="#000000" stroke="#000000" points="125.4811,-66.3886 131.6256,-57.7575 121.4398,-60.6729 125.4811,-66.3886"/>
</g>
<!-- Node5 -->
<g id="node5" class="node">
<title>Node5</title>
<g id="a_node5"><a xlink:title="लेनदेन, व्यवसाय, व्यापार">
<polygon fill="none" stroke="#0000ff" points="329.0386,-549 275.0386,-549 275.0386,-513 329.0386,-513 329.0386,-549"/>
<text text-anchor="middle" x="302.0386" y="-527.3" font-family="Times,serif" font-size="14.00" fill="#000000">पणाया</text>
</a>
</g>
</g>
<!-- Node4&#45;&gt;Node5 -->
<g id="edge4" class="edge">
<title>Node4&#45;&gt;Node5</title>
<path fill="none" stroke="#000000" d="M197.5608,-531C218.7208,-531 244.1681,-531 264.6505,-531"/>
<polygon fill="#000000" stroke="#000000" points="264.8599,-534.5001 274.8599,-531 264.8599,-527.5001 264.8599,-534.5001"/>
<text text-anchor="middle" x="227.1926" y="-534.8" font-family="Times,serif" font-size="14.00" fill="#000000">अप्</text>
</g>
<!-- Node10 -->
<g id="node10" class="node">
<title>Node10</title>
<g id="a_node10"><a xlink:title="वादा करना, प्रतिज्ञा करना">
<polygon fill="none" stroke="#0000ff" points="331.5386,-387 272.5386,-387 272.5386,-351 331.5386,-351 331.5386,-387"/>
<text text-anchor="middle" x="302.0386" y="-365.3" font-family="Times,serif" font-size="14.00" fill="#000000">परिपणन</text>
</a>
</g>
</g>
<!-- Node9&#45;&gt;Node10 -->
<g id="edge9" class="edge">
<title>Node9&#45;&gt;Node10</title>
<path fill="none" stroke="#000000" d="M185.2311,-325.9277C207.5615,-334.162 238.3956,-345.5319 262.7769,-354.5224"/>
<polygon fill="#000000" stroke="#000000" points="261.8545,-357.9126 272.4479,-358.0885 264.2764,-351.3449 261.8545,-357.9126"/>
<text text-anchor="middle" x="227.1926" y="-348.8" font-family="Times,serif" font-size="14.00" fill="#000000">ल्युट्</text>
</g>
<!-- Node11 -->
<g id="node11" class="node">
<title>Node11</title>
<g id="a_node11"><a xlink:title="पूंजी, मूलधन, वारदाना">
<polygon fill="none" stroke="#0000ff" points="329.0386,-333 275.0386,-333 275.0386,-297 329.0386,-297 329.0386,-333"/>
<text text-anchor="middle" x="302.0386" y="-311.3" font-family="Times,serif" font-size="14.00" fill="#000000">परिपण</text>
</a>
</g>
</g>
<!-- Node9&#45;&gt;Node11 -->
<g id="edge10" class="edge">
<title>Node9&#45;&gt;Node11</title>
<path fill="none" stroke="#000000" d="M192.9288,-315C214.9216,-315 242.6535,-315 264.6552,-315"/>
<polygon fill="#000000" stroke="#000000" points="264.9455,-318.5001 274.9454,-315 264.9454,-311.5001 264.9455,-318.5001"/>
<text text-anchor="middle" x="227.1926" y="-318.8" font-family="Times,serif" font-size="14.00" fill="#000000">घ</text>
</g>
<!-- Node12 -->
<g id="node12" class="node">
<title>Node12</title>
<g id="a_node12"><a xlink:title="वादा किया हुआ, वचन दिया हुआ, प्रतिज्ञा की हुई">
<polygon fill="none" stroke="#0000ff" points="333.0386,-279 271.0386,-279 271.0386,-243 333.0386,-243 333.0386,-279"/>
<text text-anchor="middle" x="302.0386" y="-257.3" font-family="Times,serif" font-size="14.00" fill="#000000">परिपणित</text>
</a>
</g>
</g>
<!-- Node9&#45;&gt;Node12 -->
<g id="edge11" class="edge">
<title>Node9&#45;&gt;Node12</title>
<path fill="none" stroke="#000000" d="M185.2311,-304.0723C207.1208,-296.0006 237.1818,-284.9157 261.3259,-276.0127"/>
<polygon fill="#000000" stroke="#000000" points="262.7601,-279.2142 270.9316,-272.4706 260.3382,-272.6465 262.7601,-279.2142"/>
<text text-anchor="middle" x="227.1926" y="-295.8" font-family="Times,serif" font-size="14.00" fill="#000000">क्त</text>
</g>
<!-- Node16 -->
<g id="node16" class="node">
<title>Node16</title>
<ellipse fill="none" stroke="#ff0000" cx="302.0386" cy="-153" rx="44.6926" ry="18"/>
<text text-anchor="middle" x="302.0386" y="-149.3" font-family="Times,serif" font-size="14.00" fill="#000000">प्र_आ_पण्</text>
</g>
<!-- Node15&#45;&gt;Node16 -->
<g id="edge15" class="edge">
<title>Node15&#45;&gt;Node16</title>
<path fill="none" stroke="#000000" d="M191.0459,-153C207.7587,-153 228.0868,-153 246.7568,-153"/>
<polygon fill="#000000" stroke="#000000" points="246.925,-156.5001 256.9249,-153 246.9249,-149.5001 246.925,-156.5001"/>
</g>
<!-- Node17 -->
<g id="node17" class="node">
<title>Node17</title>
<g id="a_node17"><a xlink:title="सौदागर, व्यापारी, आढयादिव प्रापणिकादजस्रम्&#45;">
<polygon fill="none" stroke="#0000ff" points="475.8847,-171 416.8847,-171 416.8847,-135 475.8847,-135 475.8847,-171"/>
<text text-anchor="middle" x="446.3847" y="-149.3" font-family="Times,serif" font-size="14.00" fill="#000000">प्रापणिक</text>
</a>
</g>
</g>
<!-- Node16&#45;&gt;Node17 -->
<g id="edge16" class="edge">
<title>Node16&#45;&gt;Node17</title>
<path fill="none" stroke="#000000" d="M346.9194,-153C365.9639,-153 387.9817,-153 406.453,-153"/>
<polygon fill="#000000" stroke="#000000" points="406.5883,-156.5001 416.5882,-153 406.5882,-149.5001 406.5883,-156.5001"/>
<text text-anchor="middle" x="381.8847" y="-156.8" font-family="Times,serif" font-size="14.00" fill="#000000">किकन्</text>
</g>
<!-- Node20 -->
<g id="node20" class="node">
<title>Node20</title>
<g id="a_node20"><a xlink:title="विक्री">
<polygon fill="none" stroke="#0000ff" points="329.0386,-90 275.0386,-90 275.0386,-54 329.0386,-54 329.0386,-90"/>
<text text-anchor="middle" x="302.0386" y="-68.3" font-family="Times,serif" font-size="14.00" fill="#000000">विपणन</text>
</a>
</g>
</g>
<!-- Node19&#45;&gt;Node20 -->
<g id="edge19" class="edge">
<title>Node19&#45;&gt;Node20</title>
<path fill="none" stroke="#000000" d="M187.0119,-50.7922C209.8083,-54.9952 240.7351,-60.6973 264.7793,-65.1304"/>
<polygon fill="#000000" stroke="#000000" points="264.1499,-68.5733 274.6188,-66.9445 265.4192,-61.6893 264.1499,-68.5733"/>
<text text-anchor="middle" x="227.1926" y="-64.8" font-family="Times,serif" font-size="14.00" fill="#000000">ल्युट्</text>
</g>
<!-- Node21 -->
<g id="node21" class="node">
<title>Node21</title>
<g id="a_node21"><a xlink:title="विक्री">
<polygon fill="none" stroke="#0000ff" points="329.0386,-36 275.0386,-36 275.0386,0 329.0386,0 329.0386,-36"/>
<text text-anchor="middle" x="302.0386" y="-14.3" font-family="Times,serif" font-size="14.00" fill="#000000">विपण</text>
</a>
</g>
</g>
<!-- Node19&#45;&gt;Node21 -->
<g id="edge20" class="edge">
<title>Node19&#45;&gt;Node21</title>
<path fill="none" stroke="#000000" d="M187.0119,-39.2078C209.8083,-35.0048 240.7351,-29.3027 264.7793,-24.8696"/>
<polygon fill="#000000" stroke="#000000" points="265.4192,-28.3107 274.6188,-23.0555 264.1499,-21.4267 265.4192,-28.3107"/>
<text text-anchor="middle" x="227.1926" y="-37.8" font-family="Times,serif" font-size="14.00" fill="#000000">घञ्</text>
</g>
</g>
</svg>
