<?xml version="1.0" encoding="UTF-8" standalone="no"?>
<!DOCTYPE svg PUBLIC "-//W3C//DTD SVG 1.1//EN"
 "http://www.w3.org/Graphics/SVG/1.1/DTD/svg11.dtd">
<!-- Generated by graphviz version 2.36.0 (20140111.2315)
 -->
<!-- Title: G Pages: 1 -->
<svg width="320pt" height="449pt"
 viewBox="0.00 0.00 320.00 449.00" xmlns="http://www.w3.org/2000/svg" xmlns:xlink="http://www.w3.org/1999/xlink">
<g id="graph0" class="graph" transform="scale(1 1) rotate(0) translate(4 445)">
<title>G</title>
<polygon fill="white" stroke="none" points="-4,4 -4,-445 316,-445 316,4 -4,4"/>
<!-- Node1 -->
<g id="node1" class="node"><title>Node1</title>
<ellipse fill="none" stroke="red" cx="27" cy="-212" rx="27" ry="18"/>
<text text-anchor="middle" x="27" y="-208.3" font-family="Times,serif" font-size="14.00">पठ्</text>
</g>
<!-- Node2 -->
<g id="node2" class="node"><title>Node2</title>
<ellipse fill="none" stroke="red" cx="157" cy="-396" rx="33.2948" ry="18"/>
<text text-anchor="middle" x="157" y="-392.3" font-family="Times,serif" font-size="14.00">नि_पठ्</text>
</g>
<!-- Node1&#45;&gt;Node2 -->
<g id="edge1" class="edge"><title>Node1&#45;&gt;Node2</title>
<path fill="none" stroke="black" d="M33.2145,-229.522C40.1737,-251.44 53.7692,-289.654 72,-319 87.6208,-344.144 93.7737,-349.449 116,-369 119.028,-371.663 122.33,-374.279 125.698,-376.772"/>
<polygon fill="black" stroke="black" points="123.89,-379.779 134.083,-382.669 127.917,-374.053 123.89,-379.779"/>
</g>
<!-- Node5 -->
<g id="node5" class="node"><title>Node5</title>
<g id="a_node5"><a xlink:title="पढ़ने वाला">
<polygon fill="none" stroke="blue" points="184,-360 130,-360 130,-324 184,-324 184,-360"/>
<text text-anchor="middle" x="157" y="-338.3" font-family="Times,serif" font-size="14.00">पठक</text>
</a>
</g>
</g>
<!-- Node1&#45;&gt;Node5 -->
<g id="edge4" class="edge"><title>Node1&#45;&gt;Node5</title>
<path fill="none" stroke="black" d="M38.094,-228.528C46.4636,-241.686 59.0492,-260.273 72,-275 89.4528,-294.846 95.2157,-298.676 116,-315 117.767,-316.388 119.602,-317.781 121.472,-319.163"/>
<polygon fill="black" stroke="black" points="119.619,-322.14 129.792,-325.103 123.687,-316.444 119.619,-322.14"/>
<text text-anchor="middle" x="85" y="-303.8" font-family="Times,serif" font-size="14.00">ण्वुल्</text>
</g>
<!-- Node6 -->
<g id="node6" class="node"><title>Node6</title>
<g id="a_node6"><a xlink:title="पढ़ना, पाठ करना">
<polygon fill="none" stroke="blue" points="184,-306 130,-306 130,-270 184,-270 184,-306"/>
<text text-anchor="middle" x="157" y="-284.3" font-family="Times,serif" font-size="14.00">पठन</text>
</a>
</g>
</g>
<!-- Node1&#45;&gt;Node6 -->
<g id="edge5" class="edge"><title>Node1&#45;&gt;Node6</title>
<path fill="none" stroke="black" d="M46.1484,-224.959C53.985,-230.401 63.3283,-236.687 72,-242 87.7323,-251.639 105.609,-261.565 120.815,-269.718"/>
<polygon fill="black" stroke="black" points="119.422,-272.941 129.895,-274.547 122.709,-266.761 119.422,-272.941"/>
<text text-anchor="middle" x="85" y="-259.8" font-family="Times,serif" font-size="14.00">ल्युट्</text>
</g>
<!-- Node7 -->
<g id="node7" class="node"><title>Node7</title>
<g id="a_node7"><a xlink:title="पढ़ना, अध्ययन करना, अनुशीलन करना">
<polygon fill="none" stroke="blue" points="184,-252 130,-252 130,-216 184,-216 184,-252"/>
<text text-anchor="middle" x="157" y="-230.3" font-family="Times,serif" font-size="14.00">पठि</text>
</a>
</g>
</g>
<!-- Node1&#45;&gt;Node7 -->
<g id="edge6" class="edge"><title>Node1&#45;&gt;Node7</title>
<path fill="none" stroke="black" d="M53.2887,-216.346C72.3227,-219.618 98.6742,-224.147 119.92,-227.799"/>
<polygon fill="black" stroke="black" points="119.437,-231.267 129.885,-229.511 120.622,-224.368 119.437,-231.267"/>
<text text-anchor="middle" x="85" y="-226.8" font-family="Times,serif" font-size="14.00">इन्</text>
</g>
<!-- Node8 -->
<g id="node8" class="node"><title>Node8</title>
<ellipse fill="none" stroke="red" cx="157" cy="-180" rx="40.0939" ry="18"/>
<text text-anchor="middle" x="157" y="-176.3" font-family="Times,serif" font-size="14.00">पठ्+णिच्</text>
</g>
<!-- Node1&#45;&gt;Node8 -->
<g id="edge7" class="edge"><title>Node1&#45;&gt;Node8</title>
<path fill="none" stroke="black" d="M52.6797,-205.83C69.3352,-201.666 91.7914,-196.052 111.514,-191.122"/>
<polygon fill="black" stroke="black" points="112.382,-194.512 121.235,-188.691 110.684,-187.721 112.382,-194.512"/>
</g>
<!-- Node11 -->
<g id="node11" class="node"><title>Node11</title>
<g id="a_node11"><a xlink:title="प्रपठन, सस्वर पाठ, आवृति करना">
<polygon fill="none" stroke="blue" points="184,-144 130,-144 130,-108 184,-108 184,-144"/>
<text text-anchor="middle" x="157" y="-122.3" font-family="Times,serif" font-size="14.00">पाठ</text>
</a>
</g>
</g>
<!-- Node1&#45;&gt;Node11 -->
<g id="edge10" class="edge"><title>Node1&#45;&gt;Node11</title>
<path fill="none" stroke="black" d="M44.2587,-197.722C52.3693,-190.855 62.4628,-182.684 72,-176 87.5676,-165.089 105.594,-154.153 120.947,-145.304"/>
<polygon fill="black" stroke="black" points="122.684,-148.343 129.639,-140.35 119.218,-142.261 122.684,-148.343"/>
<text text-anchor="middle" x="85" y="-179.8" font-family="Times,serif" font-size="14.00">घञ्</text>
</g>
<!-- Node13 -->
<g id="node13" class="node"><title>Node13</title>
<g id="a_node13"><a xlink:title="जिसने किसी विषय का अध्ययन किया हो">
<polygon fill="none" stroke="blue" points="184,-90 130,-90 130,-54 184,-54 184,-90"/>
<text text-anchor="middle" x="157" y="-68.3" font-family="Times,serif" font-size="14.00">पाठिन्</text>
</a>
</g>
</g>
<!-- Node1&#45;&gt;Node13 -->
<g id="edge12" class="edge"><title>Node1&#45;&gt;Node13</title>
<path fill="none" stroke="black" d="M36.5946,-195.141C44.7089,-179.982 57.7337,-157.476 72,-140 88.9031,-119.294 95.0809,-115.639 116,-99 117.758,-97.6016 119.587,-96.1999 121.452,-94.811"/>
<polygon fill="black" stroke="black" points="123.672,-97.5261 129.757,-88.853 119.591,-91.8383 123.672,-97.5261"/>
<text text-anchor="middle" x="85" y="-143.8" font-family="Times,serif" font-size="14.00">णिनि</text>
</g>
<!-- Node14 -->
<g id="node14" class="node"><title>Node14</title>
<g id="a_node14"><a xlink:title="पुराना या अन्य धार्मिक ग्रंथों की कथा करने वाला">
<polygon fill="none" stroke="blue" points="184,-36 130,-36 130,-0 184,-0 184,-36"/>
<text text-anchor="middle" x="157" y="-14.3" font-family="Times,serif" font-size="14.00">पाठीन</text>
</a>
</g>
</g>
<!-- Node1&#45;&gt;Node14 -->
<g id="edge13" class="edge"><title>Node1&#45;&gt;Node14</title>
<path fill="none" stroke="black" d="M32.3674,-194.276C38.7494,-170.348 52.074,-126.92 72,-94 87.1562,-68.9604 93.9264,-64.221 116,-45 117.746,-43.4801 119.58,-41.9737 121.464,-40.4958"/>
<polygon fill="black" stroke="black" points="123.96,-43.0035 129.919,-34.2437 119.798,-37.3752 123.96,-43.0035"/>
<text text-anchor="middle" x="85" y="-97.8" font-family="Times,serif" font-size="14.00">ईनण्</text>
</g>
<!-- Node3 -->
<g id="node3" class="node"><title>Node3</title>
<g id="a_node3"><a xlink:title="पढ़ना, सस्वर पाठ करना, अध्ययन करना">
<polygon fill="none" stroke="blue" points="312,-441 258,-441 258,-405 312,-405 312,-441"/>
<text text-anchor="middle" x="285" y="-419.3" font-family="Times,serif" font-size="14.00">निपठ</text>
</a>
</g>
</g>
<!-- Node2&#45;&gt;Node3 -->
<g id="edge2" class="edge"><title>Node2&#45;&gt;Node3</title>
<path fill="none" stroke="black" d="M188.18,-402.467C206.117,-406.311 228.979,-411.21 247.873,-415.258"/>
<polygon fill="black" stroke="black" points="247.393,-418.735 257.905,-417.408 248.86,-411.89 247.393,-418.735"/>
<text text-anchor="middle" x="228" y="-416.8" font-family="Times,serif" font-size="14.00">अप्</text>
</g>
<!-- Node4 -->
<g id="node4" class="node"><title>Node4</title>
<g id="a_node4"><a xlink:title="पढ़ना, सस्वर पाठ करना, अध्ययन करना">
<polygon fill="none" stroke="blue" points="312,-387 258,-387 258,-351 312,-351 312,-387"/>
<text text-anchor="middle" x="285" y="-365.3" font-family="Times,serif" font-size="14.00">निपाठ</text>
</a>
</g>
</g>
<!-- Node2&#45;&gt;Node4 -->
<g id="edge3" class="edge"><title>Node2&#45;&gt;Node4</title>
<path fill="none" stroke="black" d="M188.18,-389.533C206.117,-385.689 228.979,-380.79 247.873,-376.742"/>
<polygon fill="black" stroke="black" points="248.86,-380.11 257.905,-374.592 247.393,-373.265 248.86,-380.11"/>
<text text-anchor="middle" x="228" y="-386.8" font-family="Times,serif" font-size="14.00">घञ्</text>
</g>
<!-- Node9 -->
<g id="node9" class="node"><title>Node9</title>
<g id="a_node9"><a xlink:title="अध्यापक, प्राध्यापक, गुरु">
<polygon fill="none" stroke="blue" points="312,-252 258,-252 258,-216 312,-216 312,-252"/>
<text text-anchor="middle" x="285" y="-230.3" font-family="Times,serif" font-size="14.00">पाठक</text>
</a>
</g>
</g>
<!-- Node8&#45;&gt;Node9 -->
<g id="edge8" class="edge"><title>Node8&#45;&gt;Node9</title>
<path fill="none" stroke="black" d="M186.591,-192.253C204.936,-200.116 228.896,-210.384 248.462,-218.769"/>
<polygon fill="black" stroke="black" points="247.1,-221.994 257.67,-222.716 249.857,-215.56 247.1,-221.994"/>
<text text-anchor="middle" x="228" y="-217.8" font-family="Times,serif" font-size="14.00">ण्वुल्</text>
</g>
<!-- Node10 -->
<g id="node10" class="node"><title>Node10</title>
<g id="a_node10"><a xlink:title="अध्यापन, व्याख्यान देना">
<polygon fill="none" stroke="blue" points="312,-198 258,-198 258,-162 312,-162 312,-198"/>
<text text-anchor="middle" x="285" y="-176.3" font-family="Times,serif" font-size="14.00">पाठन</text>
</a>
</g>
</g>
<!-- Node8&#45;&gt;Node10 -->
<g id="edge9" class="edge"><title>Node8&#45;&gt;Node10</title>
<path fill="none" stroke="black" d="M197.521,-180C213.471,-180 231.764,-180 247.406,-180"/>
<polygon fill="black" stroke="black" points="247.749,-183.5 257.749,-180 247.749,-176.5 247.749,-183.5"/>
<text text-anchor="middle" x="228" y="-183.8" font-family="Times,serif" font-size="14.00">ल्युट्</text>
</g>
<!-- Node12 -->
<g id="node12" class="node"><title>Node12</title>
<g id="a_node12"><a xlink:title="पढ़ाया हुआ, शिक्षा दिया हुआ">
<polygon fill="none" stroke="blue" points="312,-144 258,-144 258,-108 312,-108 312,-144"/>
<text text-anchor="middle" x="285" y="-122.3" font-family="Times,serif" font-size="14.00">पाठित</text>
</a>
</g>
</g>
<!-- Node8&#45;&gt;Node12 -->
<g id="edge11" class="edge"><title>Node8&#45;&gt;Node12</title>
<path fill="none" stroke="black" d="M186.591,-167.747C204.936,-159.884 228.896,-149.616 248.462,-141.231"/>
<polygon fill="black" stroke="black" points="249.857,-144.44 257.67,-137.284 247.1,-138.006 249.857,-144.44"/>
<text text-anchor="middle" x="228" y="-157.8" font-family="Times,serif" font-size="14.00">क्त</text>
</g>
</g>
</svg>
