<?xml version="1.0" encoding="UTF-8" standalone="no"?>
<!DOCTYPE svg PUBLIC "-//W3C//DTD SVG 1.1//EN"
 "http://www.w3.org/Graphics/SVG/1.1/DTD/svg11.dtd">
<!-- Generated by graphviz version 2.40.1 (20161225.0304)
 -->
<!-- Title: G Pages: 1 -->
<svg width="331pt" height="422pt"
 viewBox="0.00 0.00 330.59 422.00" xmlns="http://www.w3.org/2000/svg" xmlns:xlink="http://www.w3.org/1999/xlink">
<g id="graph0" class="graph" transform="scale(1 1) rotate(0) translate(4 418)">
<title>G</title>
<polygon fill="#ffffff" stroke="transparent" points="-4,4 -4,-418 326.5928,-418 326.5928,4 -4,4"/>
<!-- Node1 -->
<g id="node1" class="node">
<title>Node1</title>
<ellipse fill="none" stroke="#ff0000" cx="27" cy="-200" rx="27" ry="18"/>
<text text-anchor="middle" x="27" y="-196.3" font-family="Times,serif" font-size="14.00" fill="#000000">पुष्</text>
</g>
<!-- Node2 -->
<g id="node2" class="node">
<title>Node2</title>
<ellipse fill="none" stroke="#ff0000" cx="155.2964" cy="-396" rx="36.2938" ry="18"/>
<text text-anchor="middle" x="155.2964" y="-392.3" font-family="Times,serif" font-size="14.00" fill="#000000">परि_पुष्</text>
</g>
<!-- Node1&#45;&gt;Node2 -->
<g id="edge1" class="edge">
<title>Node1&#45;&gt;Node2</title>
<path fill="none" stroke="#000000" d="M32.577,-217.7449C43.7054,-250.8405 71.4109,-322.8061 115,-369 117.384,-371.5265 120.046,-373.9398 122.8345,-376.2108"/>
<polygon fill="#000000" stroke="#000000" points="120.7891,-379.0514 130.9022,-382.21 124.9661,-373.4343 120.7891,-379.0514"/>
</g>
<!-- Node4 -->
<g id="node4" class="node">
<title>Node4</title>
<ellipse fill="none" stroke="#ff0000" cx="155.2964" cy="-342" rx="40.0939" ry="18"/>
<text text-anchor="middle" x="155.2964" y="-338.3" font-family="Times,serif" font-size="14.00" fill="#000000">पुष्+णिच्</text>
</g>
<!-- Node1&#45;&gt;Node4 -->
<g id="edge3" class="edge">
<title>Node1&#45;&gt;Node4</title>
<path fill="none" stroke="#000000" d="M36.9159,-216.8959C51.6319,-240.917 81.1809,-285.3128 115,-315 117.4682,-317.1666 120.1196,-319.2997 122.8411,-321.3593"/>
<polygon fill="#000000" stroke="#000000" points="120.9349,-324.2992 131.1027,-327.277 125.0112,-318.6084 120.9349,-324.2992"/>
</g>
<!-- Node6 -->
<g id="node6" class="node">
<title>Node6</title>
<g id="a_node6"><a xlink:title="पोषण, संपालन, संधारण">
<polygon fill="none" stroke="#0000ff" points="182.2964,-306 128.2964,-306 128.2964,-270 182.2964,-270 182.2964,-306"/>
<text text-anchor="middle" x="155.2964" y="-284.3" font-family="Times,serif" font-size="14.00" fill="#000000">पोष</text>
</a>
</g>
</g>
<!-- Node1&#45;&gt;Node6 -->
<g id="edge5" class="edge">
<title>Node1&#45;&gt;Node6</title>
<path fill="none" stroke="#000000" d="M45.8233,-213.1756C63.6011,-225.589 91.0369,-244.668 115,-261 116.4352,-261.9782 117.9007,-262.974 119.3824,-263.9782"/>
<polygon fill="#000000" stroke="#000000" points="117.6986,-267.0644 127.9453,-269.7583 121.615,-261.2625 117.6986,-267.0644"/>
<text text-anchor="middle" x="84.5" y="-250.8" font-family="Times,serif" font-size="14.00" fill="#000000">घञ्</text>
</g>
<!-- Node7 -->
<g id="node7" class="node">
<title>Node7</title>
<ellipse fill="none" stroke="#ff0000" cx="155.2964" cy="-234" rx="40.0939" ry="18"/>
<text text-anchor="middle" x="155.2964" y="-230.3" font-family="Times,serif" font-size="14.00" fill="#000000">पुष्+णिच</text>
</g>
<!-- Node1&#45;&gt;Node7 -->
<g id="edge6" class="edge">
<title>Node1&#45;&gt;Node7</title>
<path fill="none" stroke="#000000" d="M52.3472,-206.7173C68.8889,-211.101 90.9442,-216.9459 110.3969,-222.1011"/>
<polygon fill="#000000" stroke="#000000" points="109.7263,-225.5441 120.2892,-224.7227 111.5195,-218.7777 109.7263,-225.5441"/>
</g>
<!-- Node9 -->
<g id="node9" class="node">
<title>Node9</title>
<ellipse fill="none" stroke="#ff0000" cx="155.2964" cy="-180" rx="40.0939" ry="18"/>
<text text-anchor="middle" x="155.2964" y="-176.3" font-family="Times,serif" font-size="14.00" fill="#000000">पुष्+णीच्</text>
</g>
<!-- Node1&#45;&gt;Node9 -->
<g id="edge8" class="edge">
<title>Node1&#45;&gt;Node9</title>
<path fill="none" stroke="#000000" d="M53.5831,-195.856C68.9934,-193.4537 88.8695,-190.3552 106.9572,-187.5356"/>
<polygon fill="#000000" stroke="#000000" points="107.725,-190.9582 117.0666,-185.9596 106.6468,-184.0417 107.725,-190.9582"/>
</g>
<!-- Node11 -->
<g id="node11" class="node">
<title>Node11</title>
<g id="a_node11"><a xlink:title="दूध पिलाने वाला, पालन&#45;पोषण करने वाला">
<polygon fill="none" stroke="#0000ff" points="182.2964,-144 128.2964,-144 128.2964,-108 182.2964,-108 182.2964,-144"/>
<text text-anchor="middle" x="155.2964" y="-122.3" font-family="Times,serif" font-size="14.00" fill="#000000">पोषिन्</text>
</a>
</g>
</g>
<!-- Node1&#45;&gt;Node11 -->
<g id="edge10" class="edge">
<title>Node1&#45;&gt;Node11</title>
<path fill="none" stroke="#000000" d="M45.9938,-186.7144C53.9162,-181.3374 63.2867,-175.1875 72,-170 87.1013,-161.0095 104.2019,-151.8138 118.9623,-144.1693"/>
<polygon fill="#000000" stroke="#000000" points="120.9808,-147.0674 128.2795,-139.3876 117.7846,-140.8397 120.9808,-147.0674"/>
<text text-anchor="middle" x="84.5" y="-173.8" font-family="Times,serif" font-size="14.00" fill="#000000">णिनि</text>
</g>
<!-- Node12 -->
<g id="node12" class="node">
<title>Node12</title>
<g id="a_node12"><a xlink:title="दूध पिलाने वाला, पालन&#45;पोषण करने वाला">
<polygon fill="none" stroke="#0000ff" points="182.2964,-90 128.2964,-90 128.2964,-54 182.2964,-54 182.2964,-90"/>
<text text-anchor="middle" x="155.2964" y="-68.3" font-family="Times,serif" font-size="14.00" fill="#000000">पोष्टृ</text>
</a>
</g>
</g>
<!-- Node1&#45;&gt;Node12 -->
<g id="edge11" class="edge">
<title>Node1&#45;&gt;Node12</title>
<path fill="none" stroke="#000000" d="M37.507,-183.174C46.0713,-170.017 58.86,-151.5755 72,-137 89.0773,-118.057 94.8056,-114.5774 115,-99 116.5503,-97.8042 118.1513,-96.6028 119.7812,-95.4069"/>
<polygon fill="#000000" stroke="#000000" points="121.9413,-98.1657 128.0682,-89.5221 117.8884,-92.4583 121.9413,-98.1657"/>
<text text-anchor="middle" x="84.5" y="-140.8" font-family="Times,serif" font-size="14.00" fill="#000000">णिनि</text>
</g>
<!-- Node13 -->
<g id="node13" class="node">
<title>Node13</title>
<g id="a_node13"><a xlink:title="खिलाये जाने के योग्य, पालन&#45;पोषण किये जाने योग्य, संपालनीय">
<polygon fill="none" stroke="#0000ff" points="182.2964,-36 128.2964,-36 128.2964,0 182.2964,0 182.2964,-36"/>
<text text-anchor="middle" x="155.2964" y="-14.3" font-family="Times,serif" font-size="14.00" fill="#000000">पोष्य</text>
</a>
</g>
</g>
<!-- Node1&#45;&gt;Node13 -->
<g id="edge12" class="edge">
<title>Node1&#45;&gt;Node13</title>
<path fill="none" stroke="#000000" d="M32.7832,-182.0984C40.1696,-160.5245 54.1598,-123.609 72,-95 87.5088,-70.1296 93.07,-64.4457 115,-45 116.5122,-43.6591 118.095,-42.3323 119.7219,-41.0288"/>
<polygon fill="#000000" stroke="#000000" points="122.1993,-43.546 128.1012,-34.7472 118.0005,-37.9451 122.1993,-43.546"/>
<text text-anchor="middle" x="84.5" y="-98.8" font-family="Times,serif" font-size="14.00" fill="#000000">ण्यत्</text>
</g>
<!-- Node3 -->
<g id="node3" class="node">
<title>Node3</title>
<g id="a_node3"><a xlink:title="खिलाना&#45;पिलाना &#160;भरण&#45;पोषण">
<polygon fill="none" stroke="#0000ff" points="322.5928,-414 260.5928,-414 260.5928,-378 322.5928,-378 322.5928,-414"/>
<text text-anchor="middle" x="291.5928" y="-392.3" font-family="Times,serif" font-size="14.00" fill="#000000">परिपोषण</text>
</a>
</g>
</g>
<!-- Node2&#45;&gt;Node3 -->
<g id="edge2" class="edge">
<title>Node2&#45;&gt;Node3</title>
<path fill="none" stroke="#000000" d="M191.8214,-396C209.8343,-396 231.6347,-396 250.2571,-396"/>
<polygon fill="#000000" stroke="#000000" points="250.5159,-399.5001 260.5159,-396 250.5158,-392.5001 250.5159,-399.5001"/>
<text text-anchor="middle" x="228.0928" y="-399.8" font-family="Times,serif" font-size="14.00" fill="#000000">ल्युट्</text>
</g>
<!-- Node5 -->
<g id="node5" class="node">
<title>Node5</title>
<g id="a_node5"><a xlink:title="पोसना, दूध पिलाना, पालना, संधारण करना, छाती का">
<polygon fill="none" stroke="#0000ff" points="318.5928,-360 264.5928,-360 264.5928,-324 318.5928,-324 318.5928,-360"/>
<text text-anchor="middle" x="291.5928" y="-338.3" font-family="Times,serif" font-size="14.00" fill="#000000">पोषण</text>
</a>
</g>
</g>
<!-- Node4&#45;&gt;Node5 -->
<g id="edge4" class="edge">
<title>Node4&#45;&gt;Node5</title>
<path fill="none" stroke="#000000" d="M195.8208,-342C214.3188,-342 236.0854,-342 254.1895,-342"/>
<polygon fill="#000000" stroke="#000000" points="254.3733,-345.5001 264.3733,-342 254.3732,-338.5001 254.3733,-345.5001"/>
<text text-anchor="middle" x="228.0928" y="-345.8" font-family="Times,serif" font-size="14.00" fill="#000000">ल्युट्</text>
</g>
<!-- Node8 -->
<g id="node8" class="node">
<title>Node8</title>
<g id="a_node8"><a xlink:title="कोयल">
<polygon fill="none" stroke="#0000ff" points="322.0928,-252 261.0928,-252 261.0928,-216 322.0928,-216 322.0928,-252"/>
<text text-anchor="middle" x="291.5928" y="-230.3" font-family="Times,serif" font-size="14.00" fill="#000000">पोषयित्नु</text>
</a>
</g>
</g>
<!-- Node7&#45;&gt;Node8 -->
<g id="edge7" class="edge">
<title>Node7&#45;&gt;Node8</title>
<path fill="none" stroke="#000000" d="M195.8208,-234C213.1062,-234 233.2457,-234 250.5839,-234"/>
<polygon fill="#000000" stroke="#000000" points="250.9668,-237.5001 260.9668,-234 250.9668,-230.5001 250.9668,-237.5001"/>
<text text-anchor="middle" x="228.0928" y="-237.8" font-family="Times,serif" font-size="14.00" fill="#000000">इत्वुच्</text>
</g>
<!-- Node10 -->
<g id="node10" class="node">
<title>Node10</title>
<g id="a_node10"><a xlink:title="दूध पिला कर पालने वाला, पालन&#45;पोषण करने वाला">
<polygon fill="none" stroke="#0000ff" points="318.5928,-198 264.5928,-198 264.5928,-162 318.5928,-162 318.5928,-198"/>
<text text-anchor="middle" x="291.5928" y="-176.3" font-family="Times,serif" font-size="14.00" fill="#000000">पोषितृ</text>
</a>
</g>
</g>
<!-- Node9&#45;&gt;Node10 -->
<g id="edge9" class="edge">
<title>Node9&#45;&gt;Node10</title>
<path fill="none" stroke="#000000" d="M195.8208,-180C214.3188,-180 236.0854,-180 254.1895,-180"/>
<polygon fill="#000000" stroke="#000000" points="254.3733,-183.5001 264.3733,-180 254.3732,-176.5001 254.3733,-183.5001"/>
<text text-anchor="middle" x="228.0928" y="-183.8" font-family="Times,serif" font-size="14.00" fill="#000000">तृच्</text>
</g>
</g>
</svg>
