<?xml version="1.0" encoding="UTF-8" standalone="no"?>
<!DOCTYPE svg PUBLIC "-//W3C//DTD SVG 1.1//EN"
 "http://www.w3.org/Graphics/SVG/1.1/DTD/svg11.dtd">
<!-- Generated by graphviz version 2.40.1 (20161225.0304)
 -->
<!-- Title: G Pages: 1 -->
<svg width="296pt" height="152pt"
 viewBox="0.00 0.00 295.79 152.00" xmlns="http://www.w3.org/2000/svg" xmlns:xlink="http://www.w3.org/1999/xlink">
<g id="graph0" class="graph" transform="scale(1 1) rotate(0) translate(4 148)">
<title>G</title>
<polygon fill="#ffffff" stroke="transparent" points="-4,4 -4,-148 291.7935,-148 291.7935,4 -4,4"/>
<!-- Node1 -->
<g id="node1" class="node">
<title>Node1</title>
<ellipse fill="none" stroke="#ff0000" cx="27" cy="-72" rx="27" ry="18"/>
<text text-anchor="middle" x="27" y="-68.3" font-family="Times,serif" font-size="14.00" fill="#000000">पुट्</text>
</g>
<!-- Node2 -->
<g id="node2" class="node">
<title>Node2</title>
<g id="a_node2"><a xlink:title="इलायची">
<polygon fill="none" stroke="#0000ff" points="177.3968,-144 123.3968,-144 123.3968,-108 177.3968,-108 177.3968,-144"/>
<text text-anchor="middle" x="150.3968" y="-122.3" font-family="Times,serif" font-size="14.00" fill="#000000">पुटिका</text>
</a>
</g>
</g>
<!-- Node1&#45;&gt;Node2 -->
<g id="edge1" class="edge">
<title>Node1&#45;&gt;Node2</title>
<path fill="none" stroke="#000000" d="M49.6329,-81.9044C67.6132,-89.7728 93.1129,-100.9319 113.961,-110.0553"/>
<polygon fill="#000000" stroke="#000000" points="112.6045,-113.282 123.1688,-114.0847 115.4108,-106.8692 112.6045,-113.282"/>
<text text-anchor="middle" x="84" y="-103.8" font-family="Times,serif" font-size="14.00" fill="#000000">ण्वुल्</text>
</g>
<!-- Node3 -->
<g id="node3" class="node">
<title>Node3</title>
<g id="a_node3"><a xlink:title="रगड़ा हुआ, पीसा हुआ">
<polygon fill="none" stroke="#0000ff" points="177.3968,-90 123.3968,-90 123.3968,-54 177.3968,-54 177.3968,-90"/>
<text text-anchor="middle" x="150.3968" y="-68.3" font-family="Times,serif" font-size="14.00" fill="#000000">पुटित</text>
</a>
</g>
</g>
<!-- Node1&#45;&gt;Node3 -->
<g id="edge2" class="edge">
<title>Node1&#45;&gt;Node3</title>
<path fill="none" stroke="#000000" d="M54.0799,-72C71.4393,-72 94.2045,-72 113.2439,-72"/>
<polygon fill="#000000" stroke="#000000" points="113.38,-75.5001 123.38,-72 113.38,-68.5001 113.38,-75.5001"/>
<text text-anchor="middle" x="84" y="-75.8" font-family="Times,serif" font-size="14.00" fill="#000000">क्त</text>
</g>
<!-- Node4 -->
<g id="node4" class="node">
<title>Node4</title>
<ellipse fill="none" stroke="#ff0000" cx="150.3968" cy="-18" rx="36.2938" ry="18"/>
<text text-anchor="middle" x="150.3968" y="-14.3" font-family="Times,serif" font-size="14.00" fill="#000000">सम्_पुट्</text>
</g>
<!-- Node1&#45;&gt;Node4 -->
<g id="edge3" class="edge">
<title>Node1&#45;&gt;Node4</title>
<path fill="none" stroke="#000000" d="M49.6329,-62.0956C67.4925,-54.28 92.771,-43.2178 113.5407,-34.1287"/>
<polygon fill="#000000" stroke="#000000" points="114.9653,-37.3258 122.7233,-30.1102 112.1589,-30.9129 114.9653,-37.3258"/>
</g>
<!-- Node5 -->
<g id="node5" class="node">
<title>Node5</title>
<g id="a_node5"><a xlink:title="गह्वर, स्वात्यां सागरशुक्तिसम्पुटगतं (पयः) सन्मौक्तिकं जायते">
<polygon fill="none" stroke="#0000ff" points="287.7935,-36 233.7935,-36 233.7935,0 287.7935,0 287.7935,-36"/>
<text text-anchor="middle" x="260.7935" y="-14.3" font-family="Times,serif" font-size="14.00" fill="#000000">सम्पुट</text>
</a>
</g>
</g>
<!-- Node4&#45;&gt;Node5 -->
<g id="edge4" class="edge">
<title>Node4&#45;&gt;Node5</title>
<path fill="none" stroke="#000000" d="M186.8508,-18C198.6061,-18 211.6484,-18 223.4658,-18"/>
<polygon fill="#000000" stroke="#000000" points="223.4724,-21.5001 233.4723,-18 223.4723,-14.5001 223.4724,-21.5001"/>
<text text-anchor="middle" x="210.2935" y="-21.8" font-family="Times,serif" font-size="14.00" fill="#000000">क</text>
</g>
</g>
</svg>
