<?xml version="1.0" encoding="UTF-8" standalone="no"?>
<!DOCTYPE svg PUBLIC "-//W3C//DTD SVG 1.1//EN"
 "http://www.w3.org/Graphics/SVG/1.1/DTD/svg11.dtd">
<!-- Generated by graphviz version 2.40.1 (20161225.0304)
 -->
<!-- Title: G Pages: 1 -->
<svg width="309pt" height="260pt"
 viewBox="0.00 0.00 309.49 260.00" xmlns="http://www.w3.org/2000/svg" xmlns:xlink="http://www.w3.org/1999/xlink">
<g id="graph0" class="graph" transform="scale(1 1) rotate(0) translate(4 256)">
<title>G</title>
<polygon fill="#ffffff" stroke="transparent" points="-4,4 -4,-256 305.4879,-256 305.4879,4 -4,4"/>
<!-- Node1 -->
<g id="node1" class="node">
<title>Node1</title>
<ellipse fill="none" stroke="#ff0000" cx="27.2976" cy="-126" rx="27.0966" ry="18"/>
<text text-anchor="middle" x="27.2976" y="-122.3" font-family="Times,serif" font-size="14.00" fill="#000000">प्याय्</text>
</g>
<!-- Node2 -->
<g id="node2" class="node">
<title>Node2</title>
<ellipse fill="none" stroke="#ff0000" cx="156.5415" cy="-234" rx="40.8928" ry="18"/>
<text text-anchor="middle" x="156.5415" y="-230.3" font-family="Times,serif" font-size="14.00" fill="#000000">आ_प्याय्</text>
</g>
<!-- Node1&#45;&gt;Node2 -->
<g id="edge1" class="edge">
<title>Node1&#45;&gt;Node2</title>
<path fill="none" stroke="#000000" d="M41.4834,-141.7581C50.17,-151.1395 61.6806,-163.105 72.5952,-173 90.6452,-189.3639 95.8515,-192.7253 115.5952,-207 118.4416,-209.058 121.4338,-211.1538 124.451,-213.2218"/>
<polygon fill="#000000" stroke="#000000" points="122.6694,-216.2416 132.9197,-218.9217 126.578,-210.4344 122.6694,-216.2416"/>
</g>
<!-- Node4 -->
<g id="node4" class="node">
<title>Node4</title>
<g id="a_node4"><a xlink:title="हो, अहो आदि अव्यय जो बुलाने या पुकारने के लिए व्यवहृत होते हैं">
<polygon fill="none" stroke="#0000ff" points="183.5415,-198 129.5415,-198 129.5415,-162 183.5415,-162 183.5415,-198"/>
<text text-anchor="middle" x="156.5415" y="-176.3" font-family="Times,serif" font-size="14.00" fill="#000000">प्याट्</text>
</a>
</g>
</g>
<!-- Node1&#45;&gt;Node4 -->
<g id="edge3" class="edge">
<title>Node1&#45;&gt;Node4</title>
<path fill="none" stroke="#000000" d="M50.3376,-135.6753C57.4709,-138.6678 65.3569,-141.973 72.5952,-145 88.13,-151.4965 105.2893,-158.654 120.0238,-164.7945"/>
<polygon fill="#000000" stroke="#000000" points="118.738,-168.0504 129.3149,-168.6656 121.4302,-161.5888 118.738,-168.0504"/>
<text text-anchor="middle" x="85.0952" y="-157.8" font-family="Times,serif" font-size="14.00" fill="#000000">डाटि</text>
</g>
<!-- Node5 -->
<g id="node5" class="node">
<title>Node5</title>
<g id="a_node5"><a xlink:title="वर्धन, वृद्धि">
<polygon fill="none" stroke="#0000ff" points="183.5415,-144 129.5415,-144 129.5415,-108 183.5415,-108 183.5415,-144"/>
<text text-anchor="middle" x="156.5415" y="-122.3" font-family="Times,serif" font-size="14.00" fill="#000000">प्यायन</text>
</a>
</g>
</g>
<!-- Node1&#45;&gt;Node5 -->
<g id="edge4" class="edge">
<title>Node1&#45;&gt;Node5</title>
<path fill="none" stroke="#000000" d="M54.7069,-126C73.3843,-126 98.3531,-126 118.8919,-126"/>
<polygon fill="#000000" stroke="#000000" points="119.1717,-129.5001 129.1717,-126 119.1717,-122.5001 119.1717,-129.5001"/>
<text text-anchor="middle" x="85.0952" y="-129.8" font-family="Times,serif" font-size="14.00" fill="#000000">ल्युट्</text>
</g>
<!-- Node6 -->
<g id="node6" class="node">
<title>Node6</title>
<g id="a_node6"><a xlink:title="वर्धित, वृद्धि को प्राप्त">
<polygon fill="none" stroke="#0000ff" points="183.5415,-90 129.5415,-90 129.5415,-54 183.5415,-54 183.5415,-90"/>
<text text-anchor="middle" x="156.5415" y="-68.3" font-family="Times,serif" font-size="14.00" fill="#000000">प्यायित</text>
</a>
</g>
</g>
<!-- Node1&#45;&gt;Node6 -->
<g id="edge5" class="edge">
<title>Node1&#45;&gt;Node6</title>
<path fill="none" stroke="#000000" d="M50.3376,-116.3247C57.4709,-113.3322 65.3569,-110.027 72.5952,-107 88.13,-100.5035 105.2893,-93.346 120.0238,-87.2055"/>
<polygon fill="#000000" stroke="#000000" points="121.4302,-90.4112 129.3149,-83.3344 118.738,-83.9496 121.4302,-90.4112"/>
<text text-anchor="middle" x="85.0952" y="-110.8" font-family="Times,serif" font-size="14.00" fill="#000000">क्त</text>
</g>
<!-- Node7 -->
<g id="node7" class="node">
<title>Node7</title>
<ellipse fill="none" stroke="#ff0000" cx="156.5415" cy="-18" rx="37.0935" ry="18"/>
<text text-anchor="middle" x="156.5415" y="-14.3" font-family="Times,serif" font-size="14.00" fill="#000000">प्र_प्याय्</text>
</g>
<!-- Node1&#45;&gt;Node7 -->
<g id="edge6" class="edge">
<title>Node1&#45;&gt;Node7</title>
<path fill="none" stroke="#000000" d="M42.2695,-110.8824C59.3265,-93.9955 88.3709,-66.2441 115.5952,-45 118.5909,-42.6623 121.7864,-40.3192 125.021,-38.0436"/>
<polygon fill="#000000" stroke="#000000" points="127.2675,-40.7483 133.5642,-32.2276 123.3283,-34.9619 127.2675,-40.7483"/>
</g>
<!-- Node3 -->
<g id="node3" class="node">
<title>Node3</title>
<g id="a_node3"><a xlink:title="प्रेम#मोटा, बलवान्, हृष्टपुष्ट, ताकतवर">
<polygon fill="none" stroke="#0000ff" points="301.4879,-252 245.4879,-252 245.4879,-216 301.4879,-216 301.4879,-252"/>
<text text-anchor="middle" x="273.4879" y="-230.3" font-family="Times,serif" font-size="14.00" fill="#000000">आप्यान</text>
</a>
</g>
</g>
<!-- Node2&#45;&gt;Node3 -->
<g id="edge2" class="edge">
<title>Node2&#45;&gt;Node3</title>
<path fill="none" stroke="#000000" d="M197.7724,-234C209.9793,-234 223.2872,-234 235.2932,-234"/>
<polygon fill="#000000" stroke="#000000" points="235.4485,-237.5001 245.4484,-234 235.4484,-230.5001 235.4485,-237.5001"/>
<text text-anchor="middle" x="221.4879" y="-237.8" font-family="Times,serif" font-size="14.00" fill="#000000">क्त</text>
</g>
<!-- Node8 -->
<g id="node8" class="node">
<title>Node8</title>
<g id="a_node8"><a xlink:title="सूजा हुआ, फूला हुआ">
<polygon fill="none" stroke="#0000ff" points="300.4879,-36 246.4879,-36 246.4879,0 300.4879,0 300.4879,-36"/>
<text text-anchor="middle" x="273.4879" y="-14.3" font-family="Times,serif" font-size="14.00" fill="#000000">प्रपीन</text>
</a>
</g>
</g>
<!-- Node7&#45;&gt;Node8 -->
<g id="edge7" class="edge">
<title>Node7&#45;&gt;Node8</title>
<path fill="none" stroke="#000000" d="M193.8656,-18C207.263,-18 222.3723,-18 235.8004,-18"/>
<polygon fill="#000000" stroke="#000000" points="236.1442,-21.5001 246.1441,-18 236.1441,-14.5001 236.1442,-21.5001"/>
<text text-anchor="middle" x="221.4879" y="-21.8" font-family="Times,serif" font-size="14.00" fill="#000000">क्त</text>
</g>
</g>
</svg>
