<?xml version="1.0" encoding="UTF-8" standalone="no"?>
<!DOCTYPE svg PUBLIC "-//W3C//DTD SVG 1.1//EN"
 "http://www.w3.org/Graphics/SVG/1.1/DTD/svg11.dtd">
<!-- Generated by graphviz version 2.36.0 (20140111.2315)
 -->
<!-- Title: G Pages: 1 -->
<svg width="440pt" height="530pt"
 viewBox="0.00 0.00 440.00 530.00" xmlns="http://www.w3.org/2000/svg" xmlns:xlink="http://www.w3.org/1999/xlink">
<g id="graph0" class="graph" transform="scale(1 1) rotate(0) translate(4 526)">
<title>G</title>
<polygon fill="white" stroke="none" points="-4,4 -4,-526 436,-526 436,4 -4,4"/>
<!-- Node1 -->
<g id="node1" class="node"><title>Node1</title>
<ellipse fill="none" stroke="red" cx="27" cy="-261" rx="27" ry="18"/>
<text text-anchor="middle" x="27" y="-257.3" font-family="Times,serif" font-size="14.00">रा</text>
</g>
<!-- Node2 -->
<g id="node2" class="node"><title>Node2</title>
<g id="a_node2"><a xlink:title="अंदर होने वाला, भीतर का &#160;विप* बाह्य्">
<polygon fill="none" stroke="blue" points="162,-522 108,-522 108,-486 162,-486 162,-522"/>
<text text-anchor="middle" x="135" y="-500.3" font-family="Times,serif" font-size="14.00">अन्तर</text>
</a>
</g>
</g>
<!-- Node1&#45;&gt;Node2 -->
<g id="edge1" class="edge"><title>Node1&#45;&gt;Node2</title>
<path fill="none" stroke="black" d="M30.5962,-279.109C36.9503,-318.381 56.2347,-412.994 102,-477 102.275,-477.384 102.556,-477.767 102.844,-478.147"/>
<polygon fill="black" stroke="black" points="100.348,-480.607 109.613,-485.747 105.576,-475.951 100.348,-480.607"/>
</g>
<!-- Node3 -->
<g id="node3" class="node"><title>Node3</title>
<g id="a_node3"><a xlink:title="ग्वाला, आभीरवामनयनाहृतमानसाय दत्तं मनो यदुपते तदिदं गृहाण">
<polygon fill="none" stroke="blue" points="162,-468 108,-468 108,-432 162,-432 162,-468"/>
<text text-anchor="middle" x="135" y="-446.3" font-family="Times,serif" font-size="14.00">आभीर</text>
</a>
</g>
</g>
<!-- Node1&#45;&gt;Node3 -->
<g id="edge2" class="edge"><title>Node1&#45;&gt;Node3</title>
<path fill="none" stroke="black" d="M33.2931,-278.915C43.1725,-310.334 66.6698,-376.45 102,-423 102.371,-423.489 102.752,-423.974 103.142,-424.457"/>
<polygon fill="black" stroke="black" points="100.729,-427.001 110.103,-431.937 105.853,-422.232 100.729,-427.001"/>
</g>
<!-- Node4 -->
<g id="node4" class="node"><title>Node4</title>
<ellipse fill="none" stroke="red" cx="135" cy="-396" rx="30.5947" ry="18"/>
<text text-anchor="middle" x="135" y="-392.3" font-family="Times,serif" font-size="14.00">आ_रा</text>
</g>
<!-- Node1&#45;&gt;Node4 -->
<g id="edge3" class="edge"><title>Node1&#45;&gt;Node4</title>
<path fill="none" stroke="black" d="M37.523,-277.735C50.5345,-299.865 75.3171,-339.502 102,-369 103.92,-371.123 106.006,-373.231 108.163,-375.279"/>
<polygon fill="black" stroke="black" points="105.833,-377.892 115.622,-381.946 110.498,-372.672 105.833,-377.892"/>
</g>
<!-- Node7 -->
<g id="node7" class="node"><title>Node7</title>
<g id="a_node7"><a xlink:title="अग्नि">
<polygon fill="none" stroke="blue" points="162,-360 108,-360 108,-324 162,-324 162,-360"/>
<text text-anchor="middle" x="135" y="-338.3" font-family="Times,serif" font-size="14.00">र</text>
</a>
</g>
</g>
<!-- Node1&#45;&gt;Node7 -->
<g id="edge6" class="edge"><title>Node1&#45;&gt;Node7</title>
<path fill="none" stroke="black" d="M45.5037,-274.376C60.8016,-286.065 83.4015,-303.335 101.933,-317.496"/>
<polygon fill="black" stroke="black" points="100.05,-320.462 110.121,-323.753 104.3,-314.9 100.05,-320.462"/>
<text text-anchor="middle" x="78" y="-304.8" font-family="Times,serif" font-size="14.00">ड</text>
</g>
<!-- Node8 -->
<g id="node8" class="node"><title>Node8</title>
<g id="a_node8"><a xlink:title="पूर्णिमा की अधिष्ठात्री देवी">
<polygon fill="none" stroke="blue" points="162,-306 108,-306 108,-270 162,-270 162,-306"/>
<text text-anchor="middle" x="135" y="-284.3" font-family="Times,serif" font-size="14.00">राका</text>
</a>
</g>
</g>
<!-- Node1&#45;&gt;Node8 -->
<g id="edge7" class="edge"><title>Node1&#45;&gt;Node8</title>
<path fill="none" stroke="black" d="M52.585,-267.262C66.0017,-270.68 82.8677,-274.976 97.7641,-278.77"/>
<polygon fill="black" stroke="black" points="97.1411,-282.223 107.696,-281.3 98.869,-275.44 97.1411,-282.223"/>
<text text-anchor="middle" x="78" y="-277.8" font-family="Times,serif" font-size="14.00">क</text>
</g>
<!-- Node9 -->
<g id="node9" class="node"><title>Node9</title>
<g id="a_node9"><a xlink:title="संबोधनात्मक अव्यय, रे रे शंकरगृहाधिवासिनो जानपदाः">
<polygon fill="none" stroke="blue" points="162,-252 108,-252 108,-216 162,-216 162,-252"/>
<text text-anchor="middle" x="135" y="-230.3" font-family="Times,serif" font-size="14.00">रे</text>
</a>
</g>
</g>
<!-- Node1&#45;&gt;Node9 -->
<g id="edge8" class="edge"><title>Node1&#45;&gt;Node9</title>
<path fill="none" stroke="black" d="M52.585,-254.738C66.0017,-251.32 82.8677,-247.024 97.7641,-243.23"/>
<polygon fill="black" stroke="black" points="98.869,-246.56 107.696,-240.7 97.1411,-239.777 98.869,-246.56"/>
<text text-anchor="middle" x="78" y="-252.8" font-family="Times,serif" font-size="14.00">के</text>
</g>
<!-- Node10 -->
<g id="node10" class="node"><title>Node10</title>
<g id="a_node10"><a xlink:title="बन्दर, लंगूर">
<polygon fill="none" stroke="blue" points="162,-198 108,-198 108,-162 162,-162 162,-198"/>
<text text-anchor="middle" x="135" y="-176.3" font-family="Times,serif" font-size="14.00">वानर</text>
</a>
</g>
</g>
<!-- Node1&#45;&gt;Node10 -->
<g id="edge9" class="edge"><title>Node1&#45;&gt;Node10</title>
<path fill="none" stroke="black" d="M45.5037,-247.624C60.8016,-235.935 83.4015,-218.665 101.933,-204.504"/>
<polygon fill="black" stroke="black" points="104.3,-207.1 110.121,-198.247 100.05,-201.538 104.3,-207.1"/>
</g>
<!-- Node11 -->
<g id="node11" class="node"><title>Node11</title>
<ellipse fill="none" stroke="red" cx="135" cy="-126" rx="28.6953" ry="18"/>
<text text-anchor="middle" x="135" y="-122.3" font-family="Times,serif" font-size="14.00">वि_रा</text>
</g>
<!-- Node1&#45;&gt;Node11 -->
<g id="edge10" class="edge"><title>Node1&#45;&gt;Node11</title>
<path fill="none" stroke="black" d="M37.523,-244.265C50.5345,-222.135 75.3171,-182.498 102,-153 103.966,-150.827 106.106,-148.669 108.317,-146.574"/>
<polygon fill="black" stroke="black" points="110.814,-149.037 115.955,-139.773 106.159,-143.809 110.814,-149.037"/>
</g>
<!-- Node13 -->
<g id="node13" class="node"><title>Node13</title>
<ellipse fill="none" stroke="red" cx="135" cy="-72" rx="32.4942" ry="18"/>
<text text-anchor="middle" x="135" y="-68.3" font-family="Times,serif" font-size="14.00">उद्_रा</text>
</g>
<!-- Node1&#45;&gt;Node13 -->
<g id="edge12" class="edge"><title>Node1&#45;&gt;Node13</title>
<path fill="none" stroke="black" d="M33.2931,-243.085C43.1725,-211.666 66.6698,-145.55 102,-99 103.538,-96.9735 105.254,-94.9964 107.07,-93.0931"/>
<polygon fill="black" stroke="black" points="109.536,-95.5783 114.407,-86.1696 104.732,-90.4871 109.536,-95.5783"/>
</g>
<!-- Node16 -->
<g id="node16" class="node"><title>Node16</title>
<g id="a_node16"><a xlink:title="देव, देवता, सुराप्रतिगृहाद् देवाः सुरा इत्यभिविश्रुताः">
<polygon fill="none" stroke="blue" points="162,-36 108,-36 108,-0 162,-0 162,-36"/>
<text text-anchor="middle" x="135" y="-14.3" font-family="Times,serif" font-size="14.00">सुर</text>
</a>
</g>
</g>
<!-- Node1&#45;&gt;Node16 -->
<g id="edge15" class="edge"><title>Node1&#45;&gt;Node16</title>
<path fill="none" stroke="black" d="M30.6173,-242.906C37.0128,-203.663 56.3738,-109.106 102,-45 102.274,-44.6151 102.555,-44.2323 102.842,-43.8518"/>
<polygon fill="black" stroke="black" points="105.575,-46.0446 109.6,-36.244 100.342,-41.3956 105.575,-46.0446"/>
</g>
<!-- Node5 -->
<g id="node5" class="node"><title>Node5</title>
<ellipse fill="none" stroke="red" cx="282" cy="-396" rx="46.2923" ry="18"/>
<text text-anchor="middle" x="282" y="-392.3" font-family="Times,serif" font-size="14.00">उद्_आ_रा</text>
</g>
<!-- Node4&#45;&gt;Node5 -->
<g id="edge4" class="edge"><title>Node4&#45;&gt;Node5</title>
<path fill="none" stroke="black" d="M165.693,-396C182.917,-396 205.162,-396 225.513,-396"/>
<polygon fill="black" stroke="black" points="225.631,-399.5 235.631,-396 225.631,-392.5 225.631,-399.5"/>
</g>
<!-- Node6 -->
<g id="node6" class="node"><title>Node6</title>
<g id="a_node6"><a xlink:title="दानशील, मुक्त&#45;हृदय, दानी">
<polygon fill="none" stroke="blue" points="432,-414 378,-414 378,-378 432,-378 432,-414"/>
<text text-anchor="middle" x="405" y="-392.3" font-family="Times,serif" font-size="14.00">उदार</text>
</a>
</g>
</g>
<!-- Node5&#45;&gt;Node6 -->
<g id="edge5" class="edge"><title>Node5&#45;&gt;Node6</title>
<path fill="none" stroke="black" d="M328.4,-396C341.263,-396 355.099,-396 367.373,-396"/>
<polygon fill="black" stroke="black" points="367.694,-399.5 377.694,-396 367.693,-392.5 367.694,-399.5"/>
<text text-anchor="middle" x="354" y="-399.8" font-family="Times,serif" font-size="14.00">क</text>
</g>
<!-- Node12 -->
<g id="node12" class="node"><title>Node12</title>
<g id="a_node12"><a xlink:title="छिद्रों से युक्त, जिसके बीच में अन्तराल हों, पतला, जो सघन न हो, सटा हुआ न हो विपर्यासं यातो घनविरलभावः क्षितिरुहाम्">
<polygon fill="none" stroke="blue" points="309,-144 255,-144 255,-108 309,-108 309,-144"/>
<text text-anchor="middle" x="282" y="-122.3" font-family="Times,serif" font-size="14.00">विरल</text>
</a>
</g>
</g>
<!-- Node11&#45;&gt;Node12 -->
<g id="edge11" class="edge"><title>Node11&#45;&gt;Node12</title>
<path fill="none" stroke="black" d="M163.615,-126C186.622,-126 219.572,-126 244.709,-126"/>
<polygon fill="black" stroke="black" points="244.951,-129.5 254.951,-126 244.951,-122.5 244.951,-129.5"/>
<text text-anchor="middle" x="201" y="-129.8" font-family="Times,serif" font-size="14.00">कलन्</text>
</g>
<!-- Node14 -->
<g id="node14" class="node"><title>Node14</title>
<ellipse fill="none" stroke="red" cx="282" cy="-72" rx="48.1917" ry="18"/>
<text text-anchor="middle" x="282" y="-68.3" font-family="Times,serif" font-size="14.00">सम्_उद्_रा</text>
</g>
<!-- Node13&#45;&gt;Node14 -->
<g id="edge13" class="edge"><title>Node13&#45;&gt;Node14</title>
<path fill="none" stroke="black" d="M167.821,-72C184.215,-72 204.713,-72 223.743,-72"/>
<polygon fill="black" stroke="black" points="223.829,-75.5001 233.829,-72 223.829,-68.5001 223.829,-75.5001"/>
</g>
<!-- Node15 -->
<g id="node15" class="node"><title>Node15</title>
<g id="a_node15"><a xlink:title="सागर, महासागर">
<polygon fill="none" stroke="blue" points="432,-90 378,-90 378,-54 432,-54 432,-90"/>
<text text-anchor="middle" x="405" y="-68.3" font-family="Times,serif" font-size="14.00">समुद्र</text>
</a>
</g>
</g>
<!-- Node14&#45;&gt;Node15 -->
<g id="edge14" class="edge"><title>Node14&#45;&gt;Node15</title>
<path fill="none" stroke="black" d="M330.128,-72C342.525,-72 355.709,-72 367.457,-72"/>
<polygon fill="black" stroke="black" points="367.777,-75.5001 377.777,-72 367.777,-68.5001 367.777,-75.5001"/>
<text text-anchor="middle" x="354" y="-75.8" font-family="Times,serif" font-size="14.00">क</text>
</g>
</g>
</svg>
