<?xml version="1.0" encoding="UTF-8" standalone="no"?>
<!DOCTYPE svg PUBLIC "-//W3C//DTD SVG 1.1//EN"
 "http://www.w3.org/Graphics/SVG/1.1/DTD/svg11.dtd">
<!-- Generated by graphviz version 2.40.1 (20161225.0304)
 -->
<!-- Title: G Pages: 1 -->
<svg width="340pt" height="395pt"
 viewBox="0.00 0.00 340.09 395.00" xmlns="http://www.w3.org/2000/svg" xmlns:xlink="http://www.w3.org/1999/xlink">
<g id="graph0" class="graph" transform="scale(1 1) rotate(0) translate(4 391)">
<title>G</title>
<polygon fill="#ffffff" stroke="transparent" points="-4,4 -4,-391 336.0923,-391 336.0923,4 -4,4"/>
<!-- Node1 -->
<g id="node1" class="node">
<title>Node1</title>
<ellipse fill="none" stroke="#ff0000" cx="27" cy="-180" rx="27" ry="18"/>
<text text-anchor="middle" x="27" y="-176.3" font-family="Times,serif" font-size="14.00" fill="#000000">राज्</text>
</g>
<!-- Node2 -->
<g id="node2" class="node">
<title>Node2</title>
<ellipse fill="none" stroke="#ff0000" cx="164.5461" cy="-342" rx="43.5923" ry="18"/>
<text text-anchor="middle" x="164.5461" y="-338.3" font-family="Times,serif" font-size="14.00" fill="#000000">अधि_राज्</text>
</g>
<!-- Node1&#45;&gt;Node2 -->
<g id="edge1" class="edge">
<title>Node1&#45;&gt;Node2</title>
<path fill="none" stroke="#000000" d="M33.8058,-197.7576C41.4691,-216.5026 55.0882,-246.4062 72,-269 89.8995,-292.9135 97.3008,-296.8177 121,-315 123.9245,-317.2437 127.0431,-319.4684 130.2165,-321.6216"/>
<polygon fill="#000000" stroke="#000000" points="128.3598,-324.5892 138.6485,-327.1177 132.1822,-318.725 128.3598,-324.5892"/>
</g>
<!-- Node5 -->
<g id="node5" class="node">
<title>Node5</title>
<g id="a_node5"><a xlink:title="सैनिक जाति का पुरूष, क्षत्रिय">
<polygon fill="none" stroke="#0000ff" points="191.5461,-306 137.5461,-306 137.5461,-270 191.5461,-270 191.5461,-306"/>
<text text-anchor="middle" x="164.5461" y="-284.3" font-family="Times,serif" font-size="14.00" fill="#000000">राजन्</text>
</a>
</g>
</g>
<!-- Node1&#45;&gt;Node5 -->
<g id="edge4" class="edge">
<title>Node1&#45;&gt;Node5</title>
<path fill="none" stroke="#000000" d="M39.8758,-195.9593C48.4187,-206.0351 60.1947,-218.9913 72,-229 91.8397,-245.8205 99.0566,-247.0347 121,-261 123.4624,-262.5671 126.009,-264.1761 128.5777,-265.7904"/>
<polygon fill="#000000" stroke="#000000" points="126.9715,-268.9139 137.3063,-271.2468 130.682,-262.9782 126.9715,-268.9139"/>
<text text-anchor="middle" x="87.5" y="-253.8" font-family="Times,serif" font-size="14.00" fill="#000000">कनिन्</text>
</g>
<!-- Node6 -->
<g id="node6" class="node">
<title>Node6</title>
<polygon fill="none" stroke="#0000ff" points="191.5461,-252 137.5461,-252 137.5461,-216 191.5461,-216 191.5461,-252"/>
<text text-anchor="middle" x="164.5461" y="-230.3" font-family="Times,serif" font-size="14.00" fill="#000000">राजि</text>
</g>
<!-- Node1&#45;&gt;Node6 -->
<g id="edge5" class="edge">
<title>Node1&#45;&gt;Node6</title>
<path fill="none" stroke="#000000" d="M49.8233,-189.8344C56.9071,-192.8333 64.7562,-196.1022 72,-199 90.2652,-206.3068 110.7093,-214.0806 127.7276,-220.4412"/>
<polygon fill="#000000" stroke="#000000" points="126.7166,-223.7995 137.3094,-224.0088 129.1591,-217.2395 126.7166,-223.7995"/>
<text text-anchor="middle" x="87.5" y="-213.8" font-family="Times,serif" font-size="14.00" fill="#000000">इन्</text>
</g>
<!-- Node7 -->
<g id="node7" class="node">
<title>Node7</title>
<polygon fill="none" stroke="#0000ff" points="191.5461,-198 137.5461,-198 137.5461,-162 191.5461,-162 191.5461,-198"/>
<text text-anchor="middle" x="164.5461" y="-176.3" font-family="Times,serif" font-size="14.00" fill="#000000">राजिल</text>
</g>
<!-- Node1&#45;&gt;Node7 -->
<g id="edge6" class="edge">
<title>Node1&#45;&gt;Node7</title>
<path fill="none" stroke="#000000" d="M54.1747,-180C75.0858,-180 104.2158,-180 127.2989,-180"/>
<polygon fill="#000000" stroke="#000000" points="127.4279,-183.5001 137.4279,-180 127.4279,-176.5001 127.4279,-183.5001"/>
<text text-anchor="middle" x="87.5" y="-183.8" font-family="Times,serif" font-size="14.00" fill="#000000">इलच्</text>
</g>
<!-- Node8 -->
<g id="node8" class="node">
<title>Node8</title>
<g id="a_node8"><a xlink:title="कोई राष्ट्रीय या सार्वजनिक संकट#जिला, प्रदेश, देश, मण्डल जैसा कि ‘महाराष्ट्र’ में">
<polygon fill="none" stroke="#0000ff" points="191.5461,-144 137.5461,-144 137.5461,-108 191.5461,-108 191.5461,-144"/>
<text text-anchor="middle" x="164.5461" y="-122.3" font-family="Times,serif" font-size="14.00" fill="#000000">राष्ट्र</text>
</a>
</g>
</g>
<!-- Node1&#45;&gt;Node8 -->
<g id="edge7" class="edge">
<title>Node1&#45;&gt;Node8</title>
<path fill="none" stroke="#000000" d="M49.8233,-170.1656C56.9071,-167.1667 64.7562,-163.8978 72,-161 90.2652,-153.6932 110.7093,-145.9194 127.7276,-139.5588"/>
<polygon fill="#000000" stroke="#000000" points="129.1591,-142.7605 137.3094,-135.9912 126.7166,-136.2005 129.1591,-142.7605"/>
<text text-anchor="middle" x="87.5" y="-164.8" font-family="Times,serif" font-size="14.00" fill="#000000">ष्ट्रन्</text>
</g>
<!-- Node9 -->
<g id="node9" class="node">
<title>Node9</title>
<ellipse fill="none" stroke="#ff0000" cx="164.5461" cy="-72" rx="35.9954" ry="18"/>
<text text-anchor="middle" x="164.5461" y="-68.3" font-family="Times,serif" font-size="14.00" fill="#000000">वि_राज्</text>
</g>
<!-- Node1&#45;&gt;Node9 -->
<g id="edge8" class="edge">
<title>Node1&#45;&gt;Node9</title>
<path fill="none" stroke="#000000" d="M42.6679,-165.1552C60.8319,-148.2702 91.997,-120.286 121,-99 124.6484,-96.3224 128.5665,-93.6427 132.503,-91.0674"/>
<polygon fill="#000000" stroke="#000000" points="134.4871,-93.9536 141.0525,-85.6382 130.7346,-88.0444 134.4871,-93.9536"/>
</g>
<!-- Node13 -->
<g id="node13" class="node">
<title>Node13</title>
<g id="a_node13"><a xlink:title="सर्वोपरि प्रभु, विश्वराट्, विशेषतः वह जो अन्य राजाओं पर शासन करता हो तथा जिसने राजसूय यज्ञ का अनुष्ठान कर लिया है, येनेष्टं राजसूयेन मण्डलस्येश्वरश्च यः। शास्ति यश्चाज्ञया राज्ञः स सम्राट्&#45;अमरः">
<polygon fill="none" stroke="#0000ff" points="191.5461,-36 137.5461,-36 137.5461,0 191.5461,0 191.5461,-36"/>
<text text-anchor="middle" x="164.5461" y="-14.3" font-family="Times,serif" font-size="14.00" fill="#000000">सम्राज</text>
</a>
</g>
</g>
<!-- Node1&#45;&gt;Node13 -->
<g id="edge12" class="edge">
<title>Node1&#45;&gt;Node13</title>
<path fill="none" stroke="#000000" d="M35.646,-162.7942C50.1929,-135.1801 81.8478,-80.4772 121,-45 123.4389,-42.79 126.0825,-40.6548 128.8206,-38.619"/>
<polygon fill="#000000" stroke="#000000" points="130.9636,-41.3928 137.2085,-32.8341 126.9893,-35.6303 130.9636,-41.3928"/>
</g>
<!-- Node3 -->
<g id="node3" class="node">
<title>Node3</title>
<g id="a_node3"><a xlink:title="प्रभुसत्ता प्राप्त या परमशासक, सम्राट, राजा, प्रधान, स्वामी">
<polygon fill="none" stroke="#0000ff" points="332.0923,-387 272.0923,-387 272.0923,-351 332.0923,-351 332.0923,-387"/>
<text text-anchor="middle" x="302.0923" y="-365.3" font-family="Times,serif" font-size="14.00" fill="#000000">अधिराज</text>
</a>
</g>
</g>
<!-- Node2&#45;&gt;Node3 -->
<g id="edge2" class="edge">
<title>Node2&#45;&gt;Node3</title>
<path fill="none" stroke="#000000" d="M203.9613,-349.7371C222.0956,-353.2968 243.5825,-357.5147 261.8204,-361.0947"/>
<polygon fill="#000000" stroke="#000000" points="261.3671,-364.5725 271.854,-363.0643 262.7155,-357.7035 261.3671,-364.5725"/>
<text text-anchor="middle" x="240.0923" y="-362.8" font-family="Times,serif" font-size="14.00" fill="#000000">क्विप्</text>
</g>
<!-- Node4 -->
<g id="node4" class="node">
<title>Node4</title>
<polygon fill="none" stroke="#0000ff" points="332.0923,-333 272.0923,-333 272.0923,-297 332.0923,-297 332.0923,-333"/>
<text text-anchor="middle" x="302.0923" y="-311.3" font-family="Times,serif" font-size="14.00" fill="#000000">अधिराज्</text>
</g>
<!-- Node2&#45;&gt;Node4 -->
<g id="edge3" class="edge">
<title>Node2&#45;&gt;Node4</title>
<path fill="none" stroke="#000000" d="M203.9613,-334.2629C222.0956,-330.7032 243.5825,-326.4853 261.8204,-322.9053"/>
<polygon fill="#000000" stroke="#000000" points="262.7155,-326.2965 271.854,-320.9357 261.3671,-319.4275 262.7155,-326.2965"/>
<text text-anchor="middle" x="240.0923" y="-332.8" font-family="Times,serif" font-size="14.00" fill="#000000">क्विप्</text>
</g>
<!-- Node10 -->
<g id="node10" class="node">
<title>Node10</title>
<g id="a_node10"><a xlink:title="सौन्दर्य, आभा">
<polygon fill="none" stroke="#0000ff" points="329.0923,-144 275.0923,-144 275.0923,-108 329.0923,-108 329.0923,-144"/>
<text text-anchor="middle" x="302.0923" y="-122.3" font-family="Times,serif" font-size="14.00" fill="#000000">विराज</text>
</a>
</g>
</g>
<!-- Node9&#45;&gt;Node10 -->
<g id="edge9" class="edge">
<title>Node9&#45;&gt;Node10</title>
<path fill="none" stroke="#000000" d="M193.0458,-83.1888C214.1144,-91.4603 242.969,-102.7885 265.7044,-111.7143"/>
<polygon fill="#000000" stroke="#000000" points="264.4456,-114.9801 275.033,-115.3767 267.0037,-108.4643 264.4456,-114.9801"/>
<text text-anchor="middle" x="240.0923" y="-109.8" font-family="Times,serif" font-size="14.00" fill="#000000">क्विप्</text>
</g>
<!-- Node11 -->
<g id="node11" class="node">
<title>Node11</title>
<g id="a_node11"><a xlink:title="देदीप्यमान, प्रकाशित">
<polygon fill="none" stroke="#0000ff" points="332.0923,-90 272.0923,-90 272.0923,-54 332.0923,-54 332.0923,-90"/>
<text text-anchor="middle" x="302.0923" y="-68.3" font-family="Times,serif" font-size="14.00" fill="#000000">विराजित</text>
</a>
</g>
</g>
<!-- Node9&#45;&gt;Node11 -->
<g id="edge10" class="edge">
<title>Node9&#45;&gt;Node11</title>
<path fill="none" stroke="#000000" d="M200.3257,-72C219.2178,-72 242.4632,-72 261.9661,-72"/>
<polygon fill="#000000" stroke="#000000" points="262.0719,-75.5001 272.0718,-72 262.0718,-68.5001 262.0719,-75.5001"/>
<text text-anchor="middle" x="240.0923" y="-75.8" font-family="Times,serif" font-size="14.00" fill="#000000">क्त</text>
</g>
<!-- Node12 -->
<g id="node12" class="node">
<title>Node12</title>
<g id="a_node12"><a xlink:title="सौन्दर्य, आभा">
<polygon fill="none" stroke="#0000ff" points="329.0923,-36 275.0923,-36 275.0923,0 329.0923,0 329.0923,-36"/>
<text text-anchor="middle" x="302.0923" y="-14.3" font-family="Times,serif" font-size="14.00" fill="#000000">विराज्</text>
</a>
</g>
</g>
<!-- Node9&#45;&gt;Node12 -->
<g id="edge11" class="edge">
<title>Node9&#45;&gt;Node12</title>
<path fill="none" stroke="#000000" d="M193.0458,-60.8112C214.1144,-52.5397 242.969,-41.2115 265.7044,-32.2857"/>
<polygon fill="#000000" stroke="#000000" points="267.0037,-35.5357 275.033,-28.6233 264.4456,-29.0199 267.0037,-35.5357"/>
<text text-anchor="middle" x="240.0923" y="-49.8" font-family="Times,serif" font-size="14.00" fill="#000000">क्विप्</text>
</g>
</g>
</svg>
