<?xml version="1.0" encoding="UTF-8" standalone="no"?>
<!DOCTYPE svg PUBLIC "-//W3C//DTD SVG 1.1//EN"
 "http://www.w3.org/Graphics/SVG/1.1/DTD/svg11.dtd">
<!-- Generated by graphviz version 2.40.1 (20161225.0304)
 -->
<!-- Title: G Pages: 1 -->
<svg width="325pt" height="206pt"
 viewBox="0.00 0.00 324.79 206.00" xmlns="http://www.w3.org/2000/svg" xmlns:xlink="http://www.w3.org/1999/xlink">
<g id="graph0" class="graph" transform="scale(1 1) rotate(0) translate(4 202)">
<title>G</title>
<polygon fill="#ffffff" stroke="transparent" points="-4,4 -4,-202 320.7935,-202 320.7935,4 -4,4"/>
<!-- Node1 -->
<g id="node1" class="node">
<title>Node1</title>
<ellipse fill="none" stroke="#ff0000" cx="27" cy="-98" rx="27" ry="18"/>
<text text-anchor="middle" x="27" y="-94.3" font-family="Times,serif" font-size="14.00" fill="#000000">रट्</text>
</g>
<!-- Node2 -->
<g id="node2" class="node">
<title>Node2</title>
<ellipse fill="none" stroke="#ff0000" cx="150.3968" cy="-180" rx="33.2948" ry="18"/>
<text text-anchor="middle" x="150.3968" y="-176.3" font-family="Times,serif" font-size="14.00" fill="#000000">आ_रट्</text>
</g>
<!-- Node1&#45;&gt;Node2 -->
<g id="edge1" class="edge">
<title>Node1&#45;&gt;Node2</title>
<path fill="none" stroke="#000000" d="M46.2807,-110.8125C66.2357,-124.073 97.6643,-144.9581 120.7752,-160.3158"/>
<polygon fill="#000000" stroke="#000000" points="118.9182,-163.2841 129.1841,-165.9037 122.7925,-157.454 118.9182,-163.2841"/>
</g>
<!-- Node4 -->
<g id="node4" class="node">
<title>Node4</title>
<ellipse fill="none" stroke="#ff0000" cx="150.3968" cy="-126" rx="35.194" ry="18"/>
<text text-anchor="middle" x="150.3968" y="-122.3" font-family="Times,serif" font-size="14.00" fill="#000000">परि_रट्</text>
</g>
<!-- Node1&#45;&gt;Node4 -->
<g id="edge3" class="edge">
<title>Node1&#45;&gt;Node4</title>
<path fill="none" stroke="#000000" d="M52.5679,-103.8016C68.6499,-107.4508 89.7885,-112.2474 108.3001,-116.4478"/>
<polygon fill="#000000" stroke="#000000" points="107.7386,-119.9093 118.2652,-118.709 109.2876,-113.0829 107.7386,-119.9093"/>
</g>
<!-- Node6 -->
<g id="node6" class="node">
<title>Node6</title>
<ellipse fill="none" stroke="#ff0000" cx="150.3968" cy="-72" rx="36.2938" ry="18"/>
<text text-anchor="middle" x="150.3968" y="-68.3" font-family="Times,serif" font-size="14.00" fill="#000000">भृङ्ग_रट्</text>
</g>
<!-- Node1&#45;&gt;Node6 -->
<g id="edge5" class="edge">
<title>Node1&#45;&gt;Node6</title>
<path fill="none" stroke="#000000" d="M52.868,-92.5495C68.4185,-89.273 88.6162,-85.0173 106.5946,-81.2292"/>
<polygon fill="#000000" stroke="#000000" points="107.5266,-84.6098 116.5901,-79.1231 106.0833,-77.7602 107.5266,-84.6098"/>
</g>
<!-- Node9 -->
<g id="node9" class="node">
<title>Node9</title>
<g id="a_node9"><a xlink:title="क्रन्दन की क्रिया, चिलाना, जोर से आवाज देना">
<polygon fill="none" stroke="#0000ff" points="177.3968,-36 123.3968,-36 123.3968,0 177.3968,0 177.3968,-36"/>
<text text-anchor="middle" x="150.3968" y="-14.3" font-family="Times,serif" font-size="14.00" fill="#000000">रटन</text>
</a>
</g>
</g>
<!-- Node1&#45;&gt;Node9 -->
<g id="edge8" class="edge">
<title>Node1&#45;&gt;Node9</title>
<path fill="none" stroke="#000000" d="M45.1179,-84.1219C53.2191,-78.0714 62.9621,-71.0044 72,-65 85.5319,-56.0099 100.7782,-46.6939 114.2038,-38.7502"/>
<polygon fill="#000000" stroke="#000000" points="116.3116,-41.5714 123.1641,-33.4909 112.7682,-35.5345 116.3116,-41.5714"/>
<text text-anchor="middle" x="84" y="-68.8" font-family="Times,serif" font-size="14.00" fill="#000000">ल्युट्</text>
</g>
<!-- Node3 -->
<g id="node3" class="node">
<title>Node3</title>
<g id="a_node3"><a xlink:title="नट, नाटक का पात्र">
<polygon fill="none" stroke="#0000ff" points="312.2935,-198 258.2935,-198 258.2935,-162 312.2935,-162 312.2935,-198"/>
<text text-anchor="middle" x="285.2935" y="-176.3" font-family="Times,serif" font-size="14.00" fill="#000000">आरट</text>
</a>
</g>
</g>
<!-- Node2&#45;&gt;Node3 -->
<g id="edge2" class="edge">
<title>Node2&#45;&gt;Node3</title>
<path fill="none" stroke="#000000" d="M183.742,-180C203.2754,-180 227.9872,-180 248.1426,-180"/>
<polygon fill="#000000" stroke="#000000" points="248.2157,-183.5001 258.2157,-180 248.2156,-176.5001 248.2157,-183.5001"/>
<text text-anchor="middle" x="220.2935" y="-183.8" font-family="Times,serif" font-size="14.00" fill="#000000">अच्</text>
</g>
<!-- Node5 -->
<g id="node5" class="node">
<title>Node5</title>
<g id="a_node5"><a xlink:title="जोर से चिल्लाने वाला, चीखने वाला, रट लगाने वाला">
<polygon fill="none" stroke="#0000ff" points="316.7935,-144 253.7935,-144 253.7935,-108 316.7935,-108 316.7935,-144"/>
<text text-anchor="middle" x="285.2935" y="-122.3" font-family="Times,serif" font-size="14.00" fill="#000000">परिराटिन्</text>
</a>
</g>
</g>
<!-- Node4&#45;&gt;Node5 -->
<g id="edge4" class="edge">
<title>Node4&#45;&gt;Node5</title>
<path fill="none" stroke="#000000" d="M185.8393,-126C203.5404,-126 225.0701,-126 243.5652,-126"/>
<polygon fill="#000000" stroke="#000000" points="243.7674,-129.5001 253.7674,-126 243.7673,-122.5001 243.7674,-129.5001"/>
<text text-anchor="middle" x="220.2935" y="-129.8" font-family="Times,serif" font-size="14.00" fill="#000000">घिनुण्</text>
</g>
<!-- Node7 -->
<g id="node7" class="node">
<title>Node7</title>
<g id="a_node7"><a xlink:title="शिव का एक गणजो बहुत कुरुप कहा जाता हैं">
<polygon fill="none" stroke="#0000ff" points="313.2935,-90 257.2935,-90 257.2935,-54 313.2935,-54 313.2935,-90"/>
<text text-anchor="middle" x="285.2935" y="-68.3" font-family="Times,serif" font-size="14.00" fill="#000000">भृङ्गरीटि</text>
</a>
</g>
</g>
<!-- Node6&#45;&gt;Node7 -->
<g id="edge6" class="edge">
<title>Node6&#45;&gt;Node7</title>
<path fill="none" stroke="#000000" d="M186.9018,-72C205.4675,-72 228.0268,-72 246.8582,-72"/>
<polygon fill="#000000" stroke="#000000" points="246.8876,-75.5001 256.8875,-72 246.8875,-68.5001 246.8876,-75.5001"/>
<text text-anchor="middle" x="220.2935" y="-75.8" font-family="Times,serif" font-size="14.00" fill="#000000">इन्</text>
</g>
<!-- Node8 -->
<g id="node8" class="node">
<title>Node8</title>
<g id="a_node8"><a xlink:title="शिव का एक गणजो बहुत कुरुप कहा जाता हैं">
<polygon fill="none" stroke="#0000ff" points="315.2935,-36 255.2935,-36 255.2935,0 315.2935,0 315.2935,-36"/>
<text text-anchor="middle" x="285.2935" y="-14.3" font-family="Times,serif" font-size="14.00" fill="#000000">भृङ्गिरिटि</text>
</a>
</g>
</g>
<!-- Node6&#45;&gt;Node8 -->
<g id="edge7" class="edge">
<title>Node6&#45;&gt;Node8</title>
<path fill="none" stroke="#000000" d="M179.0049,-60.548C198.3204,-52.8159 224.0825,-42.5032 245.406,-33.9672"/>
<polygon fill="#000000" stroke="#000000" points="246.8688,-37.1517 254.8519,-30.186 244.2673,-30.6531 246.8688,-37.1517"/>
<text text-anchor="middle" x="220.2935" y="-52.8" font-family="Times,serif" font-size="14.00" fill="#000000">इन्</text>
</g>
</g>
</svg>
