<?xml version="1.0" encoding="UTF-8" standalone="no"?>
<!DOCTYPE svg PUBLIC "-//W3C//DTD SVG 1.1//EN"
 "http://www.w3.org/Graphics/SVG/1.1/DTD/svg11.dtd">
<!-- Generated by graphviz version 2.40.1 (20161225.0304)
 -->
<!-- Title: G Pages: 1 -->
<svg width="469pt" height="476pt"
 viewBox="0.00 0.00 469.38 476.00" xmlns="http://www.w3.org/2000/svg" xmlns:xlink="http://www.w3.org/1999/xlink">
<g id="graph0" class="graph" transform="scale(1 1) rotate(0) translate(4 472)">
<title>G</title>
<polygon fill="#ffffff" stroke="transparent" points="-4,4 -4,-472 465.3829,-472 465.3829,4 -4,4"/>
<!-- Node1 -->
<g id="node1" class="node">
<title>Node1</title>
<ellipse fill="none" stroke="#ff0000" cx="27" cy="-207" rx="27" ry="18"/>
<text text-anchor="middle" x="27" y="-203.3" font-family="Times,serif" font-size="14.00" fill="#000000">रिच्</text>
</g>
<!-- Node2 -->
<g id="node2" class="node">
<title>Node2</title>
<ellipse fill="none" stroke="#ff0000" cx="133.2463" cy="-342" rx="42.4939" ry="18"/>
<text text-anchor="middle" x="133.2463" y="-338.3" font-family="Times,serif" font-size="14.00" fill="#000000">अति_रिच्</text>
</g>
<!-- Node1&#45;&gt;Node2 -->
<g id="edge1" class="edge">
<title>Node1&#45;&gt;Node2</title>
<path fill="none" stroke="#000000" d="M39.6051,-223.0164C57.8372,-246.1828 91.7461,-289.2686 113.3685,-316.7426"/>
<polygon fill="#000000" stroke="#000000" points="110.7185,-319.0349 119.6535,-324.7285 116.2193,-314.7057 110.7185,-319.0349"/>
</g>
<!-- Node6 -->
<g id="node6" class="node">
<title>Node6</title>
<ellipse fill="none" stroke="#ff0000" cx="133.2463" cy="-207" rx="38.1938" ry="18"/>
<text text-anchor="middle" x="133.2463" y="-203.3" font-family="Times,serif" font-size="14.00" fill="#000000">उद्_रिच्</text>
</g>
<!-- Node1&#45;&gt;Node6 -->
<g id="edge5" class="edge">
<title>Node1&#45;&gt;Node6</title>
<path fill="none" stroke="#000000" d="M54.0853,-207C63.3074,-207 73.9204,-207 84.3177,-207"/>
<polygon fill="#000000" stroke="#000000" points="84.5837,-210.5001 94.5837,-207 84.5836,-203.5001 84.5837,-210.5001"/>
</g>
<!-- Node9 -->
<g id="node9" class="node">
<title>Node9</title>
<ellipse fill="none" stroke="#ff0000" cx="133.2463" cy="-126" rx="34.394" ry="18"/>
<text text-anchor="middle" x="133.2463" y="-122.3" font-family="Times,serif" font-size="14.00" fill="#000000">वि_रिच्</text>
</g>
<!-- Node1&#45;&gt;Node9 -->
<g id="edge8" class="edge">
<title>Node1&#45;&gt;Node9</title>
<path fill="none" stroke="#000000" d="M45.0232,-193.2595C61.6295,-180.5991 86.5187,-161.6242 105.6314,-147.053"/>
<polygon fill="#000000" stroke="#000000" points="107.8609,-149.7545 113.6914,-140.9082 103.6169,-144.1877 107.8609,-149.7545"/>
</g>
<!-- Node3 -->
<g id="node3" class="node">
<title>Node3</title>
<g id="a_node3"><a xlink:title="आगे बढ़ा हुआ">
<polygon fill="none" stroke="#0000ff" points="319.4377,-468 259.4377,-468 259.4377,-432 319.4377,-432 319.4377,-468"/>
<text text-anchor="middle" x="289.4377" y="-446.3" font-family="Times,serif" font-size="14.00" fill="#000000">अतिरिक्त</text>
</a>
</g>
</g>
<!-- Node2&#45;&gt;Node3 -->
<g id="edge2" class="edge">
<title>Node2&#45;&gt;Node3</title>
<path fill="none" stroke="#000000" d="M151.5958,-358.4529C171.4179,-375.7564 204.3556,-403.1733 235.4925,-423 240.1856,-425.9884 245.254,-428.8992 250.3399,-431.636"/>
<polygon fill="#000000" stroke="#000000" points="248.9473,-434.8565 259.4359,-436.3534 252.1701,-428.6424 248.9473,-434.8565"/>
<text text-anchor="middle" x="205.4925" y="-412.8" font-family="Times,serif" font-size="14.00" fill="#000000">क्त</text>
</g>
<!-- Node4 -->
<g id="node4" class="node">
<title>Node4</title>
<g id="a_node4"><a xlink:title="आधिक्य, अतिशयता, महत्ता, गौरव">
<polygon fill="none" stroke="#0000ff" points="317.4377,-414 261.4377,-414 261.4377,-378 317.4377,-378 317.4377,-414"/>
<text text-anchor="middle" x="289.4377" y="-392.3" font-family="Times,serif" font-size="14.00" fill="#000000">अतिरेक</text>
</a>
</g>
</g>
<!-- Node2&#45;&gt;Node4 -->
<g id="edge3" class="edge">
<title>Node2&#45;&gt;Node4</title>
<path fill="none" stroke="#000000" d="M166.3704,-353.452C191.3827,-362.0995 225.7311,-373.9747 251.7852,-382.9824"/>
<polygon fill="#000000" stroke="#000000" points="250.733,-386.3219 261.3278,-386.2816 253.0203,-379.7061 250.733,-386.3219"/>
<text text-anchor="middle" x="205.4925" y="-373.8" font-family="Times,serif" font-size="14.00" fill="#000000">घञ्</text>
</g>
<!-- Node5 -->
<g id="node5" class="node">
<title>Node5</title>
<g id="a_node5"><a xlink:title="आधिक्य, अतिशयता, महत्ता, गौरव">
<polygon fill="none" stroke="#0000ff" points="317.4377,-360 261.4377,-360 261.4377,-324 317.4377,-324 317.4377,-360"/>
<text text-anchor="middle" x="289.4377" y="-338.3" font-family="Times,serif" font-size="14.00" fill="#000000">अतीरेक</text>
</a>
</g>
</g>
<!-- Node2&#45;&gt;Node5 -->
<g id="edge4" class="edge">
<title>Node2&#45;&gt;Node5</title>
<path fill="none" stroke="#000000" d="M175.5139,-342C199.1745,-342 228.4368,-342 251.3797,-342"/>
<polygon fill="#000000" stroke="#000000" points="251.4336,-345.5001 261.4335,-342 251.4335,-338.5001 251.4336,-345.5001"/>
<text text-anchor="middle" x="205.4925" y="-345.8" font-family="Times,serif" font-size="14.00" fill="#000000">घञ्</text>
</g>
<!-- Node13 -->
<g id="node13" class="node">
<title>Node13</title>
<ellipse fill="none" stroke="#ff0000" cx="289.4377" cy="-288" rx="53.8905" ry="18"/>
<text text-anchor="middle" x="289.4377" y="-284.3" font-family="Times,serif" font-size="14.00" fill="#000000">वि_अति_रिच्</text>
</g>
<!-- Node2&#45;&gt;Node13 -->
<g id="edge12" class="edge">
<title>Node2&#45;&gt;Node13</title>
<path fill="none" stroke="#000000" d="M166.3704,-330.548C188.4265,-322.9225 217.7424,-312.7872 242.2289,-304.3215"/>
<polygon fill="#000000" stroke="#000000" points="243.3891,-307.6237 251.6966,-301.0482 241.1018,-301.0079 243.3891,-307.6237"/>
</g>
<!-- Node7 -->
<g id="node7" class="node">
<title>Node7</title>
<g id="a_node7"><a xlink:title="बढ़ा हुआ, अत्यधिक, अतिशय">
<polygon fill="none" stroke="#0000ff" points="316.4377,-252 262.4377,-252 262.4377,-216 316.4377,-216 316.4377,-252"/>
<text text-anchor="middle" x="289.4377" y="-230.3" font-family="Times,serif" font-size="14.00" fill="#000000">उद्रिक्त</text>
</a>
</g>
</g>
<!-- Node6&#45;&gt;Node7 -->
<g id="edge6" class="edge">
<title>Node6&#45;&gt;Node7</title>
<path fill="none" stroke="#000000" d="M169.4723,-213.2622C194.3428,-217.5614 227.2567,-223.2511 252.3171,-227.5832"/>
<polygon fill="#000000" stroke="#000000" points="251.7365,-231.0346 262.1866,-229.2892 252.929,-224.1369 251.7365,-231.0346"/>
<text text-anchor="middle" x="205.4925" y="-225.8" font-family="Times,serif" font-size="14.00" fill="#000000">क्त</text>
</g>
<!-- Node8 -->
<g id="node8" class="node">
<title>Node8</title>
<g id="a_node8"><a xlink:title="वृद्धि, आधिक्य, प्राबल्य, प्राचुर्य, ज्ञानोद्रेकाद्विघटिततमोग्रन्थयः सत्त्वनिष्ठाः">
<polygon fill="none" stroke="#0000ff" points="316.4377,-198 262.4377,-198 262.4377,-162 316.4377,-162 316.4377,-198"/>
<text text-anchor="middle" x="289.4377" y="-176.3" font-family="Times,serif" font-size="14.00" fill="#000000">उद्रेक</text>
</a>
</g>
</g>
<!-- Node6&#45;&gt;Node8 -->
<g id="edge7" class="edge">
<title>Node6&#45;&gt;Node8</title>
<path fill="none" stroke="#000000" d="M169.4723,-200.7378C194.3428,-196.4386 227.2567,-190.7489 252.3171,-186.4168"/>
<polygon fill="#000000" stroke="#000000" points="252.929,-189.8631 262.1866,-184.7108 251.7365,-182.9654 252.929,-189.8631"/>
<text text-anchor="middle" x="205.4925" y="-199.8" font-family="Times,serif" font-size="14.00" fill="#000000">घञ्</text>
</g>
<!-- Node10 -->
<g id="node10" class="node">
<title>Node10</title>
<g id="a_node10"><a xlink:title="ब्रह्मा">
<polygon fill="none" stroke="#0000ff" points="317.4377,-144 261.4377,-144 261.4377,-108 317.4377,-108 317.4377,-144"/>
<text text-anchor="middle" x="289.4377" y="-122.3" font-family="Times,serif" font-size="14.00" fill="#000000">विरिञ्चन</text>
</a>
</g>
</g>
<!-- Node9&#45;&gt;Node10 -->
<g id="edge9" class="edge">
<title>Node9&#45;&gt;Node10</title>
<path fill="none" stroke="#000000" d="M167.9102,-126C192.5552,-126 225.6614,-126 251.0961,-126"/>
<polygon fill="#000000" stroke="#000000" points="251.13,-129.5001 261.13,-126 251.13,-122.5001 251.13,-129.5001"/>
<text text-anchor="middle" x="205.4925" y="-129.8" font-family="Times,serif" font-size="14.00" fill="#000000">ल्युट्</text>
</g>
<!-- Node11 -->
<g id="node11" class="node">
<title>Node11</title>
<g id="a_node11"><a xlink:title="ब्रह्मा">
<polygon fill="none" stroke="#0000ff" points="316.4377,-90 262.4377,-90 262.4377,-54 316.4377,-54 316.4377,-90"/>
<text text-anchor="middle" x="289.4377" y="-68.3" font-family="Times,serif" font-size="14.00" fill="#000000">विरिञ्च</text>
</a>
</g>
</g>
<!-- Node9&#45;&gt;Node11 -->
<g id="edge10" class="edge">
<title>Node9&#45;&gt;Node11</title>
<path fill="none" stroke="#000000" d="M162.2586,-115.9696C187.7946,-107.141 225.105,-94.2417 252.7153,-84.696"/>
<polygon fill="#000000" stroke="#000000" points="254.1014,-87.9202 262.4089,-81.3447 251.8141,-81.3044 254.1014,-87.9202"/>
<text text-anchor="middle" x="205.4925" y="-107.8" font-family="Times,serif" font-size="14.00" fill="#000000">अच्</text>
</g>
<!-- Node12 -->
<g id="node12" class="node">
<title>Node12</title>
<g id="a_node12"><a xlink:title="ब्रह्मा">
<polygon fill="none" stroke="#0000ff" points="316.4377,-36 262.4377,-36 262.4377,0 316.4377,0 316.4377,-36"/>
<text text-anchor="middle" x="289.4377" y="-14.3" font-family="Times,serif" font-size="14.00" fill="#000000">विरिञ्चि</text>
</a>
</g>
</g>
<!-- Node9&#45;&gt;Node12 -->
<g id="edge11" class="edge">
<title>Node9&#45;&gt;Node12</title>
<path fill="none" stroke="#000000" d="M150.8721,-110.1795C170.6093,-92.9176 203.9736,-65.07 235.4925,-45 241,-41.493 247.0244,-38.0929 252.9872,-34.9555"/>
<polygon fill="#000000" stroke="#000000" points="254.8928,-37.9133 262.2236,-30.264 251.7227,-31.6722 254.8928,-37.9133"/>
<text text-anchor="middle" x="205.4925" y="-78.8" font-family="Times,serif" font-size="14.00" fill="#000000">इन्</text>
</g>
<!-- Node14 -->
<g id="node14" class="node">
<title>Node14</title>
<g id="a_node14"><a xlink:title="आगे बढ़ने वाला, सर्वोत्कृष्ट होने वाला, आगे निकल जाने वाला">
<polygon fill="none" stroke="#0000ff" points="461.3829,-333 399.3829,-333 399.3829,-297 461.3829,-297 461.3829,-333"/>
<text text-anchor="middle" x="430.3829" y="-311.3" font-family="Times,serif" font-size="14.00" fill="#000000">व्यतिरिक्त</text>
</a>
</g>
</g>
<!-- Node13&#45;&gt;Node14 -->
<g id="edge13" class="edge">
<title>Node13&#45;&gt;Node14</title>
<path fill="none" stroke="#000000" d="M336.3704,-296.9906C353.4801,-300.2682 372.6811,-303.9464 389.2487,-307.1202"/>
<polygon fill="#000000" stroke="#000000" points="388.7019,-310.579 399.1819,-309.023 390.019,-303.704 388.7019,-310.579"/>
<text text-anchor="middle" x="371.3829" y="-308.8" font-family="Times,serif" font-size="14.00" fill="#000000">क्त</text>
</g>
<!-- Node15 -->
<g id="node15" class="node">
<title>Node15</title>
<g id="a_node15"><a xlink:title="भेद, अन्तर">
<polygon fill="none" stroke="#0000ff" points="459.3829,-279 401.3829,-279 401.3829,-243 459.3829,-243 459.3829,-279"/>
<text text-anchor="middle" x="430.3829" y="-257.3" font-family="Times,serif" font-size="14.00" fill="#000000">व्यतिरेक</text>
</a>
</g>
</g>
<!-- Node13&#45;&gt;Node15 -->
<g id="edge14" class="edge">
<title>Node13&#45;&gt;Node15</title>
<path fill="none" stroke="#000000" d="M336.3704,-279.0094C354.1432,-275.6048 374.1727,-271.7678 391.1631,-268.5131"/>
<polygon fill="#000000" stroke="#000000" points="392.139,-271.8899 401.3019,-266.5709 390.8219,-265.0149 392.139,-271.8899"/>
<text text-anchor="middle" x="371.3829" y="-276.8" font-family="Times,serif" font-size="14.00" fill="#000000">घञ्</text>
</g>
</g>
</svg>
