<?xml version="1.0" encoding="UTF-8" standalone="no"?>
<!DOCTYPE svg PUBLIC "-//W3C//DTD SVG 1.1//EN"
 "http://www.w3.org/Graphics/SVG/1.1/DTD/svg11.dtd">
<!-- Generated by graphviz version 2.40.1 (20161225.0304)
 -->
<!-- Title: G Pages: 1 -->
<svg width="962pt" height="1745pt"
 viewBox="0.00 0.00 961.55 1745.00" xmlns="http://www.w3.org/2000/svg" xmlns:xlink="http://www.w3.org/1999/xlink">
<g id="graph0" class="graph" transform="scale(1 1) rotate(0) translate(4 1741)">
<title>G</title>
<polygon fill="#ffffff" stroke="transparent" points="-4,4 -4,-1741 957.5536,-1741 957.5536,4 -4,4"/>
<!-- Node1 -->
<g id="node1" class="node">
<title>Node1</title>
<ellipse fill="none" stroke="#ff0000" cx="27" cy="-558" rx="27" ry="18"/>
<text text-anchor="middle" x="27" y="-554.3" font-family="Times,serif" font-size="14.00" fill="#000000">रुह्</text>
</g>
<!-- Node2 -->
<g id="node2" class="node">
<title>Node2</title>
<ellipse fill="none" stroke="#ff0000" cx="158.9464" cy="-1557" rx="40.8928" ry="18"/>
<text text-anchor="middle" x="158.9464" y="-1553.3" font-family="Times,serif" font-size="14.00" fill="#000000">अधि_रुह्</text>
</g>
<!-- Node1&#45;&gt;Node2 -->
<g id="edge1" class="edge">
<title>Node1&#45;&gt;Node2</title>
<path fill="none" stroke="#000000" d="M28.8056,-576.0559C34.5172,-632.7092 52.9429,-811.9882 72,-960 100.2826,-1179.6643 141.1638,-1443.7621 154.5341,-1529.0174"/>
<polygon fill="#000000" stroke="#000000" points="151.0861,-1529.6219 156.0956,-1538.9576 158.0013,-1528.5356 151.0861,-1529.6219"/>
</g>
<!-- Node9 -->
<g id="node9" class="node">
<title>Node9</title>
<ellipse fill="none" stroke="#ff0000" cx="158.9464" cy="-1233" rx="35.194" ry="18"/>
<text text-anchor="middle" x="158.9464" y="-1229.3" font-family="Times,serif" font-size="14.00" fill="#000000">आ_रुह्</text>
</g>
<!-- Node1&#45;&gt;Node9 -->
<g id="edge8" class="edge">
<title>Node1&#45;&gt;Node9</title>
<path fill="none" stroke="#000000" d="M28.8143,-576.1352C33.9227,-625.7161 49.5329,-767.5955 72,-884 95.3313,-1004.8815 134.2972,-1146.5762 150.9763,-1205.3237"/>
<polygon fill="#000000" stroke="#000000" points="147.6234,-1206.3291 153.7314,-1214.986 154.3551,-1204.4096 147.6234,-1206.3291"/>
</g>
<!-- Node12 -->
<g id="node12" class="node">
<title>Node12</title>
<ellipse fill="none" stroke="#ff0000" cx="158.9464" cy="-1017" rx="40.8928" ry="18"/>
<text text-anchor="middle" x="158.9464" y="-1013.3" font-family="Times,serif" font-size="14.00" fill="#000000">रुह्+णिच्</text>
</g>
<!-- Node1&#45;&gt;Node12 -->
<g id="edge11" class="edge">
<title>Node1&#45;&gt;Node12</title>
<path fill="none" stroke="#000000" d="M28.0858,-576.2287C31.1826,-621.7058 41.866,-743.4549 72,-840 86.0965,-885.1631 97.1044,-893.5525 118,-936 126.9329,-954.1463 137.2019,-974.4592 145.2215,-990.2039"/>
<polygon fill="#000000" stroke="#000000" points="142.2291,-992.0403 149.892,-999.3567 148.4643,-988.8585 142.2291,-992.0403"/>
</g>
<!-- Node26 -->
<g id="node26" class="node">
<title>Node26</title>
<ellipse fill="none" stroke="#ff0000" cx="158.9464" cy="-909" rx="37.8943" ry="18"/>
<text text-anchor="middle" x="158.9464" y="-905.3" font-family="Times,serif" font-size="14.00" fill="#000000">सम्_रुह्</text>
</g>
<!-- Node1&#45;&gt;Node26 -->
<g id="edge25" class="edge">
<title>Node1&#45;&gt;Node26</title>
<path fill="none" stroke="#000000" d="M28.6402,-576.231C32.6546,-616.4865 44.7078,-715.6115 72,-794 86.511,-835.6784 88.4136,-849.254 118,-882 120.3548,-884.6062 123.0138,-887.0736 125.8179,-889.3792"/>
<polygon fill="#000000" stroke="#000000" points="123.856,-892.2817 133.9725,-895.4294 128.027,-886.66 123.856,-892.2817"/>
</g>
<!-- Node29 -->
<g id="node29" class="node">
<title>Node29</title>
<ellipse fill="none" stroke="#ff0000" cx="158.9464" cy="-855" rx="33.5952" ry="18"/>
<text text-anchor="middle" x="158.9464" y="-851.3" font-family="Times,serif" font-size="14.00" fill="#000000">नि_रुह्</text>
</g>
<!-- Node1&#45;&gt;Node29 -->
<g id="edge28" class="edge">
<title>Node1&#45;&gt;Node29</title>
<path fill="none" stroke="#000000" d="M28.2199,-576.2414C32.321,-623.6972 49.5084,-752.5519 118,-828 120.5541,-830.8135 123.4619,-833.4665 126.5226,-835.9296"/>
<polygon fill="#000000" stroke="#000000" points="124.6983,-838.9307 134.8433,-841.9853 128.8175,-833.2709 124.6983,-838.9307"/>
</g>
<!-- Node33 -->
<g id="node33" class="node">
<title>Node33</title>
<g id="a_node33"><a xlink:title="कमल">
<polygon fill="none" stroke="#0000ff" points="185.9464,-819 131.9464,-819 131.9464,-783 185.9464,-783 185.9464,-819"/>
<text text-anchor="middle" x="158.9464" y="-797.3" font-family="Times,serif" font-size="14.00" fill="#000000">पङ्केरुह</text>
</a>
</g>
</g>
<!-- Node1&#45;&gt;Node33 -->
<g id="edge32" class="edge">
<title>Node1&#45;&gt;Node33</title>
<path fill="none" stroke="#000000" d="M30.1987,-575.9338C38.1999,-616.1006 62.553,-714.4264 118,-774 119.7767,-775.9089 121.7142,-777.7475 123.7488,-779.5052"/>
<polygon fill="#000000" stroke="#000000" points="121.8952,-782.497 131.9414,-785.8621 126.1864,-776.9665 121.8952,-782.497"/>
</g>
<!-- Node34 -->
<g id="node34" class="node">
<title>Node34</title>
<g id="a_node34"><a xlink:title="कमल#शारस पक्षी">
<polygon fill="none" stroke="#0000ff" points="185.9464,-765 131.9464,-765 131.9464,-729 185.9464,-729 185.9464,-765"/>
<text text-anchor="middle" x="158.9464" y="-743.3" font-family="Times,serif" font-size="14.00" fill="#000000">पङ्केरुह</text>
</a>
</g>
</g>
<!-- Node1&#45;&gt;Node34 -->
<g id="edge33" class="edge">
<title>Node1&#45;&gt;Node34</title>
<path fill="none" stroke="#000000" d="M33.145,-575.6518C45.09,-607.8286 74.1761,-676.6904 118,-720 119.8018,-721.7807 121.7378,-723.5121 123.7525,-725.1817"/>
<polygon fill="#000000" stroke="#000000" points="121.7145,-728.0289 131.7956,-731.2881 125.9474,-722.4536 121.7145,-728.0289"/>
</g>
<!-- Node35 -->
<g id="node35" class="node">
<title>Node35</title>
<ellipse fill="none" stroke="#ff0000" cx="158.9464" cy="-693" rx="31.3957" ry="18"/>
<text text-anchor="middle" x="158.9464" y="-689.3" font-family="Times,serif" font-size="14.00" fill="#000000">प्र_रुह्</text>
</g>
<!-- Node1&#45;&gt;Node35 -->
<g id="edge34" class="edge">
<title>Node1&#45;&gt;Node35</title>
<path fill="none" stroke="#000000" d="M36.8213,-575.0828C45.2856,-589.149 58.2786,-609.2643 72,-625 89.999,-645.6413 96.289,-649.307 118,-666 121.4174,-668.6276 125.0845,-671.2718 128.7688,-673.8233"/>
<polygon fill="#000000" stroke="#000000" points="127.0374,-676.8769 137.2876,-679.5572 130.9461,-671.0698 127.0374,-676.8769"/>
</g>
<!-- Node40 -->
<g id="node40" class="node">
<title>Node40</title>
<g id="a_node40"><a xlink:title="उगा हुआ या उत्पन्न, जैसा कि ‘महीरुह्’ और ‘पङ्केरुह्’ में, समास के अन्त में">
<polygon fill="none" stroke="#0000ff" points="185.9464,-657 131.9464,-657 131.9464,-621 185.9464,-621 185.9464,-657"/>
<text text-anchor="middle" x="158.9464" y="-635.3" font-family="Times,serif" font-size="14.00" fill="#000000">रुह</text>
</a>
</g>
</g>
<!-- Node1&#45;&gt;Node40 -->
<g id="edge39" class="edge">
<title>Node1&#45;&gt;Node40</title>
<path fill="none" stroke="#000000" d="M44.5863,-571.7072C52.7517,-577.8588 62.6933,-585.0532 72,-591 88.2753,-601.3996 106.9544,-611.8883 122.8177,-620.3971"/>
<polygon fill="#000000" stroke="#000000" points="121.3193,-623.5642 131.7929,-625.1625 124.602,-617.3816 121.3193,-623.5642"/>
<text text-anchor="middle" x="86" y="-609.8" font-family="Times,serif" font-size="14.00" fill="#000000">क्</text>
</g>
<!-- Node41 -->
<g id="node41" class="node">
<title>Node41</title>
<g id="a_node41"><a xlink:title="उगा हुआ, अंकुरित, फूटा हुआ, उपजा हुआ, दे० लभ्*">
<polygon fill="none" stroke="#0000ff" points="185.9464,-603 131.9464,-603 131.9464,-567 185.9464,-567 185.9464,-603"/>
<text text-anchor="middle" x="158.9464" y="-581.3" font-family="Times,serif" font-size="14.00" fill="#000000">रूढ</text>
</a>
</g>
</g>
<!-- Node1&#45;&gt;Node41 -->
<g id="edge40" class="edge">
<title>Node1&#45;&gt;Node41</title>
<path fill="none" stroke="#000000" d="M53.0684,-563.3343C72.6488,-567.341 99.7411,-572.8849 121.6183,-577.3616"/>
<polygon fill="#000000" stroke="#000000" points="121.0708,-580.822 131.5695,-579.3979 122.4741,-573.9641 121.0708,-580.822"/>
<text text-anchor="middle" x="86" y="-575.8" font-family="Times,serif" font-size="14.00" fill="#000000">क्त</text>
</g>
<!-- Node42 -->
<g id="node42" class="node">
<title>Node42</title>
<g id="a_node42"><a xlink:title="उगना, उपजना, उसकी उन्नति तुम्हारे बदौलत हुई">
<polygon fill="none" stroke="#0000ff" points="185.9464,-549 131.9464,-549 131.9464,-513 185.9464,-513 185.9464,-549"/>
<text text-anchor="middle" x="158.9464" y="-527.3" font-family="Times,serif" font-size="14.00" fill="#000000">रूढि</text>
</a>
</g>
</g>
<!-- Node1&#45;&gt;Node42 -->
<g id="edge41" class="edge">
<title>Node1&#45;&gt;Node42</title>
<path fill="none" stroke="#000000" d="M52.6762,-552.1752C58.988,-550.7762 65.7327,-549.3088 72,-548 88.2697,-544.6023 106.2965,-541.0439 121.6978,-538.0659"/>
<polygon fill="#000000" stroke="#000000" points="122.7281,-541.432 131.887,-536.1061 121.4059,-534.558 122.7281,-541.432"/>
<text text-anchor="middle" x="86" y="-551.8" font-family="Times,serif" font-size="14.00" fill="#000000">क्तिन्</text>
</g>
<!-- Node43 -->
<g id="node43" class="node">
<title>Node43</title>
<g id="a_node43"><a xlink:title="लंका के एक पहाड़ का नाम#सवार होने, सवारी करने, चढ़ने और स्वस्थ होने की क्रिया">
<polygon fill="none" stroke="#0000ff" points="185.9464,-495 131.9464,-495 131.9464,-459 185.9464,-459 185.9464,-495"/>
<text text-anchor="middle" x="158.9464" y="-473.3" font-family="Times,serif" font-size="14.00" fill="#000000">रोहण</text>
</a>
</g>
</g>
<!-- Node1&#45;&gt;Node43 -->
<g id="edge42" class="edge">
<title>Node1&#45;&gt;Node43</title>
<path fill="none" stroke="#000000" d="M44.5095,-543.7935C52.6594,-537.4385 62.6101,-530.036 72,-524 88.1685,-513.6066 106.8343,-503.3101 122.7164,-495.0156"/>
<polygon fill="#000000" stroke="#000000" points="124.4237,-498.0732 131.7059,-490.3777 121.2142,-491.8523 124.4237,-498.0732"/>
<text text-anchor="middle" x="86" y="-527.8" font-family="Times,serif" font-size="14.00" fill="#000000">ल्युट्</text>
</g>
<!-- Node44 -->
<g id="node44" class="node">
<title>Node44</title>
<g id="a_node44"><a xlink:title="उठान, ऊँचाई, गहराई">
<polygon fill="none" stroke="#0000ff" points="185.9464,-441 131.9464,-441 131.9464,-405 185.9464,-405 185.9464,-441"/>
<text text-anchor="middle" x="158.9464" y="-419.3" font-family="Times,serif" font-size="14.00" fill="#000000">रोह</text>
</a>
</g>
</g>
<!-- Node1&#45;&gt;Node44 -->
<g id="edge43" class="edge">
<title>Node1&#45;&gt;Node44</title>
<path fill="none" stroke="#000000" d="M36.2919,-540.8729C44.6264,-526.2924 57.716,-505.1966 72,-489 89.7287,-468.8975 96.5507,-466.0732 118,-450 119.7717,-448.6724 121.6059,-447.3359 123.4715,-446.0061"/>
<polygon fill="#000000" stroke="#000000" points="125.5299,-448.838 131.7572,-440.2665 121.5438,-443.0838 125.5299,-448.838"/>
<text text-anchor="middle" x="86" y="-492.8" font-family="Times,serif" font-size="14.00" fill="#000000">अच्</text>
</g>
<!-- Node45 -->
<g id="node45" class="node">
<title>Node45</title>
<g id="a_node45"><a xlink:title="लाल रंग की गाय">
<polygon fill="none" stroke="#0000ff" points="185.9464,-387 131.9464,-387 131.9464,-351 185.9464,-351 185.9464,-387"/>
<text text-anchor="middle" x="158.9464" y="-365.3" font-family="Times,serif" font-size="14.00" fill="#000000">रोहिणी</text>
</a>
</g>
</g>
<!-- Node1&#45;&gt;Node45 -->
<g id="edge44" class="edge">
<title>Node1&#45;&gt;Node45</title>
<path fill="none" stroke="#000000" d="M31.8246,-540.1891C38.5805,-517.0656 52.2839,-476.0047 72,-445 88.0286,-419.7942 95.153,-415.2422 118,-396 119.7463,-394.5292 121.5759,-393.0704 123.4523,-391.6371"/>
<polygon fill="#000000" stroke="#000000" points="125.809,-394.2524 131.8649,-385.5588 121.7094,-388.5784 125.809,-394.2524"/>
<text text-anchor="middle" x="86" y="-448.8" font-family="Times,serif" font-size="14.00" fill="#000000">इनन्</text>
</g>
<!-- Node46 -->
<g id="node46" class="node">
<title>Node46</title>
<g id="a_node46"><a xlink:title="एक प्रकार का हरिण">
<polygon fill="none" stroke="#0000ff" points="185.9464,-333 131.9464,-333 131.9464,-297 185.9464,-297 185.9464,-333"/>
<text text-anchor="middle" x="158.9464" y="-311.3" font-family="Times,serif" font-size="14.00" fill="#000000">रोहि</text>
</a>
</g>
</g>
<!-- Node1&#45;&gt;Node46 -->
<g id="edge45" class="edge">
<title>Node1&#45;&gt;Node46</title>
<path fill="none" stroke="#000000" d="M29.1729,-539.628C33.5119,-508.0092 45.2343,-441.9856 72,-393 86.6363,-366.2132 94.8498,-361.8953 118,-342 119.7315,-340.5119 121.5495,-339.0394 123.4169,-337.5954"/>
<polygon fill="#000000" stroke="#000000" points="125.7807,-340.2038 131.8049,-331.4883 121.6605,-334.5448 125.7807,-340.2038"/>
<text text-anchor="middle" x="86" y="-396.8" font-family="Times,serif" font-size="14.00" fill="#000000">इन्</text>
</g>
<!-- Node47 -->
<g id="node47" class="node">
<title>Node47</title>
<g id="a_node47"><a xlink:title="एक प्रकार की मछली">
<polygon fill="none" stroke="#0000ff" points="185.9464,-279 131.9464,-279 131.9464,-243 185.9464,-243 185.9464,-279"/>
<text text-anchor="middle" x="158.9464" y="-257.3" font-family="Times,serif" font-size="14.00" fill="#000000">रोहिष</text>
</a>
</g>
</g>
<!-- Node1&#45;&gt;Node47 -->
<g id="edge46" class="edge">
<title>Node1&#45;&gt;Node47</title>
<path fill="none" stroke="#000000" d="M27.5413,-539.9304C29.3627,-501.0826 37.3119,-407.5805 72,-339 83.509,-316.246 104.6885,-297.0265 123.262,-283.3589"/>
<polygon fill="#000000" stroke="#000000" points="125.4298,-286.1126 131.5683,-277.4772 121.3845,-280.3998 125.4298,-286.1126"/>
<text text-anchor="middle" x="86" y="-342.8" font-family="Times,serif" font-size="14.00" fill="#000000">इषन्</text>
</g>
<!-- Node48 -->
<g id="node48" class="node">
<title>Node48</title>
<g id="a_node48"><a xlink:title=", दे* ‘रोहिष्’">
<polygon fill="none" stroke="#0000ff" points="185.9464,-225 131.9464,-225 131.9464,-189 185.9464,-189 185.9464,-225"/>
<text text-anchor="middle" x="158.9464" y="-203.3" font-family="Times,serif" font-size="14.00" fill="#000000">रौहिष</text>
</a>
</g>
</g>
<!-- Node1&#45;&gt;Node48 -->
<g id="edge47" class="edge">
<title>Node1&#45;&gt;Node48</title>
<path fill="none" stroke="#000000" d="M28.645,-539.892C33.7024,-486.5121 50.0196,-330.6624 72,-285 83.1361,-261.8658 104.5239,-242.5359 123.2993,-228.9059"/>
<polygon fill="#000000" stroke="#000000" points="125.4947,-231.6419 131.6957,-223.0513 121.491,-225.8999 125.4947,-231.6419"/>
<text text-anchor="middle" x="86" y="-288.8" font-family="Times,serif" font-size="14.00" fill="#000000">टिषच्</text>
</g>
<!-- Node49 -->
<g id="node49" class="node">
<title>Node49</title>
<g id="a_node49"><a xlink:title="एक प्रकार का हरिण">
<polygon fill="none" stroke="#0000ff" points="185.9464,-171 131.9464,-171 131.9464,-135 185.9464,-135 185.9464,-171"/>
<text text-anchor="middle" x="158.9464" y="-149.3" font-family="Times,serif" font-size="14.00" fill="#000000">रौहिष्</text>
</a>
</g>
</g>
<!-- Node1&#45;&gt;Node49 -->
<g id="edge48" class="edge">
<title>Node1&#45;&gt;Node49</title>
<path fill="none" stroke="#000000" d="M28.094,-539.8223C31.9385,-479.5374 46.0213,-286.8582 72,-231 82.9014,-207.5603 104.5052,-188.1236 123.4496,-174.5154"/>
<polygon fill="#000000" stroke="#000000" points="125.6702,-177.2357 131.9187,-168.6796 121.6983,-171.4717 125.6702,-177.2357"/>
<text text-anchor="middle" x="86" y="-234.8" font-family="Times,serif" font-size="14.00" fill="#000000">टिषच्</text>
</g>
<!-- Node50 -->
<g id="node50" class="node">
<title>Node50</title>
<g id="a_node50"><a xlink:title="लाल, लाल रंग का स्रस्तांसावतिमात्रलोहिततलौ बाहू घटोत्क्षेपणात्">
<polygon fill="none" stroke="#0000ff" points="185.9464,-117 131.9464,-117 131.9464,-81 185.9464,-81 185.9464,-117"/>
<text text-anchor="middle" x="158.9464" y="-95.3" font-family="Times,serif" font-size="14.00" fill="#000000">लोहित</text>
</a>
</g>
</g>
<!-- Node1&#45;&gt;Node50 -->
<g id="edge49" class="edge">
<title>Node1&#45;&gt;Node50</title>
<path fill="none" stroke="#000000" d="M27.6983,-539.6783C30.4667,-472.9147 42.0171,-243.1196 72,-177 82.676,-153.4568 104.2789,-134.0196 123.2792,-120.4371"/>
<polygon fill="#000000" stroke="#000000" points="125.506,-123.1541 131.7773,-114.6147 121.5495,-117.3794 125.506,-123.1541"/>
<text text-anchor="middle" x="86" y="-180.8" font-family="Times,serif" font-size="14.00" fill="#000000">इतन्</text>
</g>
<!-- Node51 -->
<g id="node51" class="node">
<title>Node51</title>
<ellipse fill="none" stroke="#ff0000" cx="158.9464" cy="-45" rx="33.2948" ry="18"/>
<text text-anchor="middle" x="158.9464" y="-41.3" font-family="Times,serif" font-size="14.00" fill="#000000">वि_रुह्</text>
</g>
<!-- Node1&#45;&gt;Node51 -->
<g id="edge50" class="edge">
<title>Node1&#45;&gt;Node51</title>
<path fill="none" stroke="#000000" d="M27.7438,-539.9017C30.8227,-469.4322 43.7557,-213.5612 72,-138 84.519,-104.5083 92.3942,-96.9552 118,-72 120.868,-69.2049 124.0642,-66.5255 127.3712,-64.0136"/>
<polygon fill="#000000" stroke="#000000" points="129.5398,-66.7672 135.6961,-58.1444 125.5063,-61.046 129.5398,-66.7672"/>
</g>
<!-- Node3 -->
<g id="node3" class="node">
<title>Node3</title>
<g id="a_node3"><a xlink:title="सवार, चढ़ा हुआ">
<polygon fill="none" stroke="#0000ff" points="348.2376,-1737 289.2376,-1737 289.2376,-1701 348.2376,-1701 348.2376,-1737"/>
<text text-anchor="middle" x="318.7376" y="-1715.3" font-family="Times,serif" font-size="14.00" fill="#000000">अधिरूढ</text>
</a>
</g>
</g>
<!-- Node2&#45;&gt;Node3 -->
<g id="edge2" class="edge">
<title>Node2&#45;&gt;Node3</title>
<path fill="none" stroke="#000000" d="M168.0922,-1574.8685C183.5446,-1603.413 217.4295,-1659.3948 260.8927,-1692 266.7439,-1696.3894 273.4228,-1700.3101 280.1138,-1703.7121"/>
<polygon fill="#000000" stroke="#000000" points="278.6354,-1706.8846 289.1687,-1708.0249 281.6455,-1700.5649 278.6354,-1706.8846"/>
<text text-anchor="middle" x="230.3927" y="-1677.8" font-family="Times,serif" font-size="14.00" fill="#000000">क्त</text>
</g>
<!-- Node4 -->
<g id="node4" class="node">
<title>Node4</title>
<g id="a_node4"><a xlink:title="गजारोही">
<polygon fill="none" stroke="#0000ff" points="347.2376,-1683 290.2376,-1683 290.2376,-1647 347.2376,-1647 347.2376,-1683"/>
<text text-anchor="middle" x="318.7376" y="-1661.3" font-family="Times,serif" font-size="14.00" fill="#000000">अधिरोह</text>
</a>
</g>
</g>
<!-- Node2&#45;&gt;Node4 -->
<g id="edge3" class="edge">
<title>Node2&#45;&gt;Node4</title>
<path fill="none" stroke="#000000" d="M176.7671,-1573.3071C196.394,-1590.7379 229.3659,-1618.4944 260.8927,-1638 267.1778,-1641.8886 274.1137,-1645.5834 280.9348,-1648.9215"/>
<polygon fill="#000000" stroke="#000000" points="279.5554,-1652.1406 290.0933,-1653.2372 282.5392,-1645.8084 279.5554,-1652.1406"/>
<text text-anchor="middle" x="230.3927" y="-1627.8" font-family="Times,serif" font-size="14.00" fill="#000000">घञ्</text>
</g>
<!-- Node5 -->
<g id="node5" class="node">
<title>Node5</title>
<g id="a_node5"><a xlink:title="चढ़ना, सवार होना, चिताधिरोहणम्, &#45;">
<polygon fill="none" stroke="#0000ff" points="351.7376,-1629 285.7376,-1629 285.7376,-1593 351.7376,-1593 351.7376,-1629"/>
<text text-anchor="middle" x="318.7376" y="-1607.3" font-family="Times,serif" font-size="14.00" fill="#000000">अधिरोहण</text>
</a>
</g>
</g>
<!-- Node2&#45;&gt;Node5 -->
<g id="edge4" class="edge">
<title>Node2&#45;&gt;Node5</title>
<path fill="none" stroke="#000000" d="M191.6681,-1568.058C215.9571,-1576.2663 249.3085,-1587.5371 275.7487,-1596.4723"/>
<polygon fill="#000000" stroke="#000000" points="274.9163,-1599.8854 285.5105,-1599.7712 277.1574,-1593.2538 274.9163,-1599.8854"/>
<text text-anchor="middle" x="230.3927" y="-1587.8" font-family="Times,serif" font-size="14.00" fill="#000000">ल्युट्</text>
</g>
<!-- Node6 -->
<g id="node6" class="node">
<title>Node6</title>
<g id="a_node6"><a xlink:title="सीढ़ी, सीढ़ी का डंडा, लकड़ी आदि का">
<polygon fill="none" stroke="#0000ff" points="353.7376,-1575 283.7376,-1575 283.7376,-1539 353.7376,-1539 353.7376,-1575"/>
<text text-anchor="middle" x="318.7376" y="-1553.3" font-family="Times,serif" font-size="14.00" fill="#000000">अधिरोहणी</text>
</a>
</g>
</g>
<!-- Node2&#45;&gt;Node6 -->
<g id="edge5" class="edge">
<title>Node2&#45;&gt;Node6</title>
<path fill="none" stroke="#000000" d="M200.0966,-1557C222.5496,-1557 250.3894,-1557 273.4568,-1557"/>
<polygon fill="#000000" stroke="#000000" points="273.6831,-1560.5001 283.6831,-1557 273.6831,-1553.5001 273.6831,-1560.5001"/>
<text text-anchor="middle" x="230.3927" y="-1560.8" font-family="Times,serif" font-size="14.00" fill="#000000">ल्युट्</text>
</g>
<!-- Node7 -->
<g id="node7" class="node">
<title>Node7</title>
<g id="a_node7"><a xlink:title="सीढ़ी, जीने की पौड़ी या डंडा">
<polygon fill="none" stroke="#0000ff" points="355.7376,-1521 281.7376,-1521 281.7376,-1485 355.7376,-1485 355.7376,-1521"/>
<text text-anchor="middle" x="318.7376" y="-1499.3" font-family="Times,serif" font-size="14.00" fill="#000000">अधिरोहिणी</text>
</a>
</g>
</g>
<!-- Node2&#45;&gt;Node7 -->
<g id="edge6" class="edge">
<title>Node2&#45;&gt;Node7</title>
<path fill="none" stroke="#000000" d="M191.6681,-1545.942C214.8236,-1538.1168 246.2155,-1527.5082 272.0036,-1518.7933"/>
<polygon fill="#000000" stroke="#000000" points="273.2308,-1522.0731 281.5839,-1515.5558 270.9897,-1515.4416 273.2308,-1522.0731"/>
<text text-anchor="middle" x="230.3927" y="-1539.8" font-family="Times,serif" font-size="14.00" fill="#000000">णिनि</text>
</g>
<!-- Node8 -->
<g id="node8" class="node">
<title>Node8</title>
<g id="a_node8"><a xlink:title="चढ़ने वाला, सवार होने वाला, ऊपर उठने वाला">
<polygon fill="none" stroke="#0000ff" points="353.2376,-1467 284.2376,-1467 284.2376,-1431 353.2376,-1431 353.2376,-1467"/>
<text text-anchor="middle" x="318.7376" y="-1445.3" font-family="Times,serif" font-size="14.00" fill="#000000">अधिरोहिन्</text>
</a>
</g>
</g>
<!-- Node2&#45;&gt;Node8 -->
<g id="edge7" class="edge">
<title>Node2&#45;&gt;Node8</title>
<path fill="none" stroke="#000000" d="M176.7671,-1540.6929C196.394,-1523.2621 229.3659,-1495.5056 260.8927,-1476 265.315,-1473.264 270.0594,-1470.6239 274.8593,-1468.1364"/>
<polygon fill="#000000" stroke="#000000" points="276.6867,-1471.1369 284.0882,-1463.556 273.5747,-1464.8667 276.6867,-1471.1369"/>
<text text-anchor="middle" x="230.3927" y="-1507.8" font-family="Times,serif" font-size="14.00" fill="#000000">णिनि</text>
</g>
<!-- Node10 -->
<g id="node10" class="node">
<title>Node10</title>
<ellipse fill="none" stroke="#ff0000" cx="318.7376" cy="-1395" rx="54.6905" ry="18"/>
<text text-anchor="middle" x="318.7376" y="-1391.3" font-family="Times,serif" font-size="14.00" fill="#000000">अधि_आ_रुह्</text>
</g>
<!-- Node9&#45;&gt;Node10 -->
<g id="edge9" class="edge">
<title>Node9&#45;&gt;Node10</title>
<path fill="none" stroke="#000000" d="M168.3753,-1250.5052C184.2251,-1278.5396 218.6565,-1333.8203 260.8927,-1368 264.8301,-1371.1863 269.2052,-1374.0955 273.7364,-1376.7249"/>
<polygon fill="#000000" stroke="#000000" points="272.0976,-1379.8175 282.5681,-1381.436 275.3922,-1373.6413 272.0976,-1379.8175"/>
</g>
<!-- Node18 -->
<g id="node18" class="node">
<title>Node18</title>
<ellipse fill="none" stroke="#ff0000" cx="318.7376" cy="-1341" rx="54.6905" ry="18"/>
<text text-anchor="middle" x="318.7376" y="-1337.3" font-family="Times,serif" font-size="14.00" fill="#000000">अभि_आ_रुह्</text>
</g>
<!-- Node9&#45;&gt;Node18 -->
<g id="edge17" class="edge">
<title>Node9&#45;&gt;Node18</title>
<path fill="none" stroke="#000000" d="M176.4096,-1248.9894C195.9918,-1266.3991 229.1736,-1294.3755 260.8927,-1314 265.5462,-1316.8791 270.5563,-1319.6519 275.6126,-1322.2525"/>
<polygon fill="#000000" stroke="#000000" points="274.1797,-1325.4483 284.6964,-1326.733 277.2763,-1319.1704 274.1797,-1325.4483"/>
</g>
<!-- Node21 -->
<g id="node21" class="node">
<title>Node21</title>
<polygon fill="none" stroke="#0000ff" points="345.7376,-1305 291.7376,-1305 291.7376,-1269 345.7376,-1269 345.7376,-1305"/>
<text text-anchor="middle" x="318.7376" y="-1283.3" font-family="Times,serif" font-size="14.00" fill="#000000">आरूढ</text>
</g>
<!-- Node9&#45;&gt;Node21 -->
<g id="edge20" class="edge">
<title>Node9&#45;&gt;Node21</title>
<path fill="none" stroke="#000000" d="M188.2545,-1242.9044C214.6094,-1251.8108 253.4399,-1264.9332 281.8889,-1274.5473"/>
<polygon fill="#000000" stroke="#000000" points="280.887,-1277.9031 291.4812,-1277.789 283.1281,-1271.2716 280.887,-1277.9031"/>
<text text-anchor="middle" x="230.3927" y="-1263.8" font-family="Times,serif" font-size="14.00" fill="#000000">क्त</text>
</g>
<!-- Node24 -->
<g id="node24" class="node">
<title>Node24</title>
<g id="a_node24"><a xlink:title="चढ़ने वाला, सवार जैसा कि ’अश्वारोह’ तथा ’स्यंदनारोह’">
<polygon fill="none" stroke="#0000ff" points="345.7376,-1251 291.7376,-1251 291.7376,-1215 345.7376,-1215 345.7376,-1251"/>
<text text-anchor="middle" x="318.7376" y="-1229.3" font-family="Times,serif" font-size="14.00" fill="#000000">आरोह</text>
</a>
</g>
</g>
<!-- Node9&#45;&gt;Node24 -->
<g id="edge23" class="edge">
<title>Node9&#45;&gt;Node24</title>
<path fill="none" stroke="#000000" d="M194.4092,-1233C220.1879,-1233 255.0156,-1233 281.2517,-1233"/>
<polygon fill="#000000" stroke="#000000" points="281.5605,-1236.5001 291.5605,-1233 281.5605,-1229.5001 281.5605,-1236.5001"/>
<text text-anchor="middle" x="230.3927" y="-1236.8" font-family="Times,serif" font-size="14.00" fill="#000000">घञ्</text>
</g>
<!-- Node25 -->
<g id="node25" class="node">
<title>Node25</title>
<g id="a_node25"><a xlink:title="सवार, चालक, हाँकने वाला">
<polygon fill="none" stroke="#0000ff" points="348.2376,-1197 289.2376,-1197 289.2376,-1161 348.2376,-1161 348.2376,-1197"/>
<text text-anchor="middle" x="318.7376" y="-1175.3" font-family="Times,serif" font-size="14.00" fill="#000000">आरोहक</text>
</a>
</g>
</g>
<!-- Node9&#45;&gt;Node25 -->
<g id="edge24" class="edge">
<title>Node9&#45;&gt;Node25</title>
<path fill="none" stroke="#000000" d="M188.2545,-1223.0956C213.884,-1214.4343 251.3119,-1201.7859 279.5168,-1192.2543"/>
<polygon fill="#000000" stroke="#000000" points="280.721,-1195.5419 289.0741,-1189.0245 278.4799,-1188.9103 280.721,-1195.5419"/>
<text text-anchor="middle" x="230.3927" y="-1215.8" font-family="Times,serif" font-size="14.00" fill="#000000">ण्वुल्</text>
</g>
<!-- Node57 -->
<g id="node57" class="node">
<title>Node57</title>
<ellipse fill="none" stroke="#ff0000" cx="318.7376" cy="-1125" rx="51.1914" ry="18"/>
<text text-anchor="middle" x="318.7376" y="-1121.3" font-family="Times,serif" font-size="14.00" fill="#000000">सम्_आ_रुह्</text>
</g>
<!-- Node9&#45;&gt;Node57 -->
<g id="edge56" class="edge">
<title>Node9&#45;&gt;Node57</title>
<path fill="none" stroke="#000000" d="M176.4096,-1217.0106C195.9918,-1199.6009 229.1736,-1171.6245 260.8927,-1152 265.8436,-1148.9369 271.1983,-1145.994 276.5827,-1143.251"/>
<polygon fill="#000000" stroke="#000000" points="278.161,-1146.3753 285.6061,-1138.8374 275.0852,-1140.0872 278.161,-1146.3753"/>
</g>
<!-- Node11 -->
<g id="node11" class="node">
<title>Node11</title>
<g id="a_node11"><a xlink:title="सवार चढ़ा हुआ">
<polygon fill="none" stroke="#0000ff" points="540.5761,-1413 475.5761,-1413 475.5761,-1377 540.5761,-1377 540.5761,-1413"/>
<text text-anchor="middle" x="508.0761" y="-1391.3" font-family="Times,serif" font-size="14.00" fill="#000000">अध्यारूढ़</text>
</a>
</g>
</g>
<!-- Node10&#45;&gt;Node11 -->
<g id="edge10" class="edge">
<title>Node10&#45;&gt;Node11</title>
<path fill="none" stroke="#000000" d="M373.5021,-1395C402.6203,-1395 437.9034,-1395 465.0356,-1395"/>
<polygon fill="#000000" stroke="#000000" points="465.3761,-1398.5001 475.3761,-1395 465.3761,-1391.5001 465.3761,-1398.5001"/>
<text text-anchor="middle" x="406.5825" y="-1398.8" font-family="Times,serif" font-size="14.00" fill="#000000">क्त</text>
</g>
<!-- Node13 -->
<g id="node13" class="node">
<title>Node13</title>
<ellipse fill="none" stroke="#ff0000" cx="318.7376" cy="-1071" rx="57.6901" ry="18"/>
<text text-anchor="middle" x="318.7376" y="-1067.3" font-family="Times,serif" font-size="14.00" fill="#000000">रुह्+णिच्+पुक्</text>
</g>
<!-- Node12&#45;&gt;Node13 -->
<g id="edge12" class="edge">
<title>Node12&#45;&gt;Node13</title>
<path fill="none" stroke="#000000" d="M191.6681,-1028.058C214.0768,-1035.6308 244.199,-1045.8104 269.4912,-1054.3576"/>
<polygon fill="#000000" stroke="#000000" points="268.6845,-1057.7794 279.2787,-1057.6652 270.9256,-1051.1478 268.6845,-1057.7794"/>
</g>
<!-- Node22 -->
<g id="node22" class="node">
<title>Node22</title>
<ellipse fill="none" stroke="#ff0000" cx="318.7376" cy="-1017" rx="54.6905" ry="18"/>
<text text-anchor="middle" x="318.7376" y="-1013.3" font-family="Times,serif" font-size="14.00" fill="#000000">आ_रुह्+णिच्</text>
</g>
<!-- Node12&#45;&gt;Node22 -->
<g id="edge21" class="edge">
<title>Node12&#45;&gt;Node22</title>
<path fill="none" stroke="#000000" d="M200.0966,-1017C216.4054,-1017 235.5562,-1017 253.6558,-1017"/>
<polygon fill="#000000" stroke="#000000" points="253.8688,-1020.5001 263.8688,-1017 253.8688,-1013.5001 253.8688,-1020.5001"/>
</g>
<!-- Node14 -->
<g id="node14" class="node">
<title>Node14</title>
<ellipse fill="none" stroke="#ff0000" cx="508.0761" cy="-1071" rx="71.4873" ry="18"/>
<text text-anchor="middle" x="508.0761" y="-1067.3" font-family="Times,serif" font-size="14.00" fill="#000000">आ_रुह्+णिच्+पुक्</text>
</g>
<!-- Node13&#45;&gt;Node14 -->
<g id="edge13" class="edge">
<title>Node13&#45;&gt;Node14</title>
<path fill="none" stroke="#000000" d="M376.8321,-1071C392.4058,-1071 409.5399,-1071 426.1419,-1071"/>
<polygon fill="#000000" stroke="#000000" points="426.3915,-1074.5001 436.3915,-1071 426.3915,-1067.5001 426.3915,-1074.5001"/>
</g>
<!-- Node15 -->
<g id="node15" class="node">
<title>Node15</title>
<ellipse fill="none" stroke="#ff0000" cx="730.5617" cy="-1071" rx="90.9839" ry="18"/>
<text text-anchor="middle" x="730.5617" y="-1067.3" font-family="Times,serif" font-size="14.00" fill="#000000">अधि_आ_रुह्+णिच्+पुक्</text>
</g>
<!-- Node14&#45;&gt;Node15 -->
<g id="edge14" class="edge">
<title>Node14&#45;&gt;Node15</title>
<path fill="none" stroke="#000000" d="M579.6966,-1071C595.4762,-1071 612.4793,-1071 629.1833,-1071"/>
<polygon fill="#000000" stroke="#000000" points="629.5318,-1074.5001 639.5317,-1071 629.5317,-1067.5001 629.5318,-1074.5001"/>
</g>
<!-- Node16 -->
<g id="node16" class="node">
<title>Node16</title>
<g id="a_node16"><a xlink:title="उठना, उन्नत होना आदि">
<polygon fill="none" stroke="#0000ff" points="949.0536,-1116 886.0536,-1116 886.0536,-1080 949.0536,-1080 949.0536,-1116"/>
<text text-anchor="middle" x="917.5536" y="-1094.3" font-family="Times,serif" font-size="14.00" fill="#000000">अध्यारोप</text>
</a>
</g>
</g>
<!-- Node15&#45;&gt;Node16 -->
<g id="edge15" class="edge">
<title>Node15&#45;&gt;Node16</title>
<path fill="none" stroke="#000000" d="M804.1974,-1081.6324C828.6141,-1085.1579 854.9254,-1088.957 876.0469,-1092.0068"/>
<polygon fill="#000000" stroke="#000000" points="875.5701,-1095.4742 885.9677,-1093.4393 876.5705,-1088.546 875.5701,-1095.4742"/>
<text text-anchor="middle" x="851.5536" y="-1093.8" font-family="Times,serif" font-size="14.00" fill="#000000">घञ्</text>
</g>
<!-- Node17 -->
<g id="node17" class="node">
<title>Node17</title>
<g id="a_node17"><a xlink:title="उठना आदि">
<polygon fill="none" stroke="#0000ff" points="953.5536,-1062 881.5536,-1062 881.5536,-1026 953.5536,-1026 953.5536,-1062"/>
<text text-anchor="middle" x="917.5536" y="-1040.3" font-family="Times,serif" font-size="14.00" fill="#000000">अध्यारोपण</text>
</a>
</g>
</g>
<!-- Node15&#45;&gt;Node17 -->
<g id="edge16" class="edge">
<title>Node15&#45;&gt;Node17</title>
<path fill="none" stroke="#000000" d="M804.1974,-1060.3676C826.9294,-1057.0853 851.3035,-1053.5659 871.603,-1050.6349"/>
<polygon fill="#000000" stroke="#000000" points="872.1181,-1054.0969 881.5153,-1049.2036 871.1177,-1047.1687 872.1181,-1054.0969"/>
<text text-anchor="middle" x="851.5536" y="-1058.8" font-family="Times,serif" font-size="14.00" fill="#000000">ल्युट्</text>
</g>
<!-- Node19 -->
<g id="node19" class="node">
<title>Node19</title>
<g id="a_node19"><a xlink:title="चढ़ना, सवार होना, ऊपर तक जाना">
<polygon fill="none" stroke="#0000ff" points="539.5761,-1359 476.5761,-1359 476.5761,-1323 539.5761,-1323 539.5761,-1359"/>
<text text-anchor="middle" x="508.0761" y="-1337.3" font-family="Times,serif" font-size="14.00" fill="#000000">अभ्यारोह</text>
</a>
</g>
</g>
<!-- Node18&#45;&gt;Node19 -->
<g id="edge18" class="edge">
<title>Node18&#45;&gt;Node19</title>
<path fill="none" stroke="#000000" d="M373.5021,-1341C403.1365,-1341 439.1564,-1341 466.4709,-1341"/>
<polygon fill="#000000" stroke="#000000" points="466.4818,-1344.5001 476.4817,-1341 466.4817,-1337.5001 466.4818,-1344.5001"/>
<text text-anchor="middle" x="406.5825" y="-1344.8" font-family="Times,serif" font-size="14.00" fill="#000000">घञ्</text>
</g>
<!-- Node20 -->
<g id="node20" class="node">
<title>Node20</title>
<g id="a_node20"><a xlink:title="चढ़ना, सवार होना, ऊपर तक जाना">
<polygon fill="none" stroke="#0000ff" points="544.0761,-1305 472.0761,-1305 472.0761,-1269 544.0761,-1269 544.0761,-1305"/>
<text text-anchor="middle" x="508.0761" y="-1283.3" font-family="Times,serif" font-size="14.00" fill="#000000">अभ्यारोहण</text>
</a>
</g>
</g>
<!-- Node18&#45;&gt;Node20 -->
<g id="edge19" class="edge">
<title>Node18&#45;&gt;Node20</title>
<path fill="none" stroke="#000000" d="M360.2887,-1329.1495C390.4443,-1320.549 431.2315,-1308.9164 462.318,-1300.0504"/>
<polygon fill="#000000" stroke="#000000" points="463.3878,-1303.3849 472.0444,-1297.2764 461.4679,-1296.6533 463.3878,-1303.3849"/>
<text text-anchor="middle" x="406.5825" y="-1321.8" font-family="Times,serif" font-size="14.00" fill="#000000">ल्युट्</text>
</g>
<!-- Node23 -->
<g id="node23" class="node">
<title>Node23</title>
<g id="a_node23"><a xlink:title="एक वस्तु के गुणों को दूसरी वस्तु में आरोपित करना, गले मढ़ना, वस्तुन्यवस्त्वारोपोऽध्यारोपः">
<polygon fill="none" stroke="#0000ff" points="535.0761,-1035 481.0761,-1035 481.0761,-999 535.0761,-999 535.0761,-1035"/>
<text text-anchor="middle" x="508.0761" y="-1013.3" font-family="Times,serif" font-size="14.00" fill="#000000">आरोप</text>
</a>
</g>
</g>
<!-- Node22&#45;&gt;Node23 -->
<g id="edge22" class="edge">
<title>Node22&#45;&gt;Node23</title>
<path fill="none" stroke="#000000" d="M373.5021,-1017C404.7829,-1017 443.1783,-1017 470.9401,-1017"/>
<polygon fill="#000000" stroke="#000000" points="471.0225,-1020.5001 481.0224,-1017 471.0224,-1013.5001 471.0225,-1020.5001"/>
<text text-anchor="middle" x="406.5825" y="-1020.8" font-family="Times,serif" font-size="14.00" fill="#000000">घञ्</text>
</g>
<!-- Node54 -->
<g id="node54" class="node">
<title>Node54</title>
<ellipse fill="none" stroke="#ff0000" cx="508.0761" cy="-963" rx="70.6878" ry="18"/>
<text text-anchor="middle" x="508.0761" y="-959.3" font-family="Times,serif" font-size="14.00" fill="#000000">सम्_आ_रुह्+णिच्</text>
</g>
<!-- Node22&#45;&gt;Node54 -->
<g id="edge53" class="edge">
<title>Node22&#45;&gt;Node54</title>
<path fill="none" stroke="#000000" d="M360.2887,-1005.1495C386.8907,-997.5625 421.7662,-987.6159 450.9572,-979.2905"/>
<polygon fill="#000000" stroke="#000000" points="451.9621,-982.6435 460.6187,-976.535 450.0422,-975.912 451.9621,-982.6435"/>
</g>
<!-- Node27 -->
<g id="node27" class="node">
<title>Node27</title>
<ellipse fill="none" stroke="#ff0000" cx="318.7376" cy="-963" rx="52.7911" ry="18"/>
<text text-anchor="middle" x="318.7376" y="-959.3" font-family="Times,serif" font-size="14.00" fill="#000000">उप_सम्_रुह्</text>
</g>
<!-- Node26&#45;&gt;Node27 -->
<g id="edge26" class="edge">
<title>Node26&#45;&gt;Node27</title>
<path fill="none" stroke="#000000" d="M189.7557,-919.4117C212.9158,-927.2385 245.0605,-938.1015 271.4655,-947.0248"/>
<polygon fill="#000000" stroke="#000000" points="270.6794,-950.4536 281.2737,-950.3394 272.9206,-943.822 270.6794,-950.4536"/>
</g>
<!-- Node59 -->
<g id="node59" class="node">
<title>Node59</title>
<g id="a_node59"><a xlink:title="साथ&#45;साथ उगा हुआ">
<polygon fill="none" stroke="#0000ff" points="345.7376,-927 291.7376,-927 291.7376,-891 345.7376,-891 345.7376,-927"/>
<text text-anchor="middle" x="318.7376" y="-905.3" font-family="Times,serif" font-size="14.00" fill="#000000">संरुढ</text>
</a>
</g>
</g>
<!-- Node26&#45;&gt;Node59 -->
<g id="edge58" class="edge">
<title>Node26&#45;&gt;Node59</title>
<path fill="none" stroke="#000000" d="M196.8147,-909C222.4467,-909 256.1466,-909 281.6193,-909"/>
<polygon fill="#000000" stroke="#000000" points="281.6369,-912.5001 291.6368,-909 281.6368,-905.5001 281.6369,-912.5001"/>
<text text-anchor="middle" x="230.3927" y="-912.8" font-family="Times,serif" font-size="14.00" fill="#000000">क्त</text>
</g>
<!-- Node28 -->
<g id="node28" class="node">
<title>Node28</title>
<g id="a_node28"><a xlink:title="एक साथ उगना, ऊपर उगना, अंगूर आना, जख्म भरना">
<polygon fill="none" stroke="#0000ff" points="538.0761,-927 478.0761,-927 478.0761,-891 538.0761,-891 538.0761,-927"/>
<text text-anchor="middle" x="508.0761" y="-905.3" font-family="Times,serif" font-size="14.00" fill="#000000">उपसंरोह</text>
</a>
</g>
</g>
<!-- Node27&#45;&gt;Node28 -->
<g id="edge27" class="edge">
<title>Node27&#45;&gt;Node28</title>
<path fill="none" stroke="#000000" d="M359.3555,-951.4156C391.5154,-942.2435 436.1905,-929.502 468.1652,-920.3827"/>
<polygon fill="#000000" stroke="#000000" points="469.4118,-923.6669 478.0683,-917.5583 467.4918,-916.9353 469.4118,-923.6669"/>
<text text-anchor="middle" x="406.5825" y="-943.8" font-family="Times,serif" font-size="14.00" fill="#000000">घञ्</text>
</g>
<!-- Node30 -->
<g id="node30" class="node">
<title>Node30</title>
<g id="a_node30"><a xlink:title="अविवाहित">
<polygon fill="none" stroke="#0000ff" points="345.7376,-873 291.7376,-873 291.7376,-837 345.7376,-837 345.7376,-873"/>
<text text-anchor="middle" x="318.7376" y="-851.3" font-family="Times,serif" font-size="14.00" fill="#000000">निरूढ</text>
</a>
</g>
</g>
<!-- Node29&#45;&gt;Node30 -->
<g id="edge29" class="edge">
<title>Node29&#45;&gt;Node30</title>
<path fill="none" stroke="#000000" d="M192.834,-855C218.7952,-855 254.5879,-855 281.376,-855"/>
<polygon fill="#000000" stroke="#000000" points="281.5237,-858.5001 291.5237,-855 281.5237,-851.5001 281.5237,-858.5001"/>
<text text-anchor="middle" x="230.3927" y="-858.8" font-family="Times,serif" font-size="14.00" fill="#000000">क्त</text>
</g>
<!-- Node31 -->
<g id="node31" class="node">
<title>Node31</title>
<g id="a_node31"><a xlink:title="प्रसिद्धि, ख्याति">
<polygon fill="none" stroke="#0000ff" points="345.7376,-819 291.7376,-819 291.7376,-783 345.7376,-783 345.7376,-819"/>
<text text-anchor="middle" x="318.7376" y="-797.3" font-family="Times,serif" font-size="14.00" fill="#000000">निरूढि</text>
</a>
</g>
</g>
<!-- Node29&#45;&gt;Node31 -->
<g id="edge30" class="edge">
<title>Node29&#45;&gt;Node31</title>
<path fill="none" stroke="#000000" d="M187.5138,-845.3459C213.8526,-836.4449 253.0974,-823.1825 281.807,-813.4804"/>
<polygon fill="#000000" stroke="#000000" points="283.131,-816.7275 291.4841,-810.2101 280.8898,-810.0959 283.131,-816.7275"/>
<text text-anchor="middle" x="230.3927" y="-837.8" font-family="Times,serif" font-size="14.00" fill="#000000">क्तिन्</text>
</g>
<!-- Node32 -->
<g id="node32" class="node">
<title>Node32</title>
<g id="a_node32"><a xlink:title="वस्तिकर्म का एक प्रकार">
<polygon fill="none" stroke="#0000ff" points="345.7376,-765 291.7376,-765 291.7376,-729 345.7376,-729 345.7376,-765"/>
<text text-anchor="middle" x="318.7376" y="-743.3" font-family="Times,serif" font-size="14.00" fill="#000000">निरूह</text>
</a>
</g>
</g>
<!-- Node29&#45;&gt;Node32 -->
<g id="edge31" class="edge">
<title>Node29&#45;&gt;Node32</title>
<path fill="none" stroke="#000000" d="M181.7105,-841.3179C187.8186,-837.2954 194.2809,-832.7046 199.8927,-828 208.8069,-820.5269 209.3642,-816.9103 217.8927,-809 235.9596,-792.2429 240.0143,-787.0882 260.8927,-774 267.6272,-769.7783 275.1283,-765.8029 282.4379,-762.2672"/>
<polygon fill="#000000" stroke="#000000" points="283.9334,-765.4317 291.5222,-758.0384 280.9792,-759.0857 283.9334,-765.4317"/>
<text text-anchor="middle" x="230.3927" y="-812.8" font-family="Times,serif" font-size="14.00" fill="#000000">घञ्</text>
</g>
<!-- Node36 -->
<g id="node36" class="node">
<title>Node36</title>
<g id="a_node36"><a xlink:title="पूरा बढ़ा हुआ, पूर्ण विकसित">
<polygon fill="none" stroke="#0000ff" points="345.7376,-711 291.7376,-711 291.7376,-675 345.7376,-675 345.7376,-711"/>
<text text-anchor="middle" x="318.7376" y="-689.3" font-family="Times,serif" font-size="14.00" fill="#000000">प्ररूढ</text>
</a>
</g>
</g>
<!-- Node35&#45;&gt;Node36 -->
<g id="edge35" class="edge">
<title>Node35&#45;&gt;Node36</title>
<path fill="none" stroke="#000000" d="M190.516,-693C216.6466,-693 253.8243,-693 281.4239,-693"/>
<polygon fill="#000000" stroke="#000000" points="281.4898,-696.5001 291.4897,-693 281.4897,-689.5001 281.4898,-696.5001"/>
<text text-anchor="middle" x="230.3927" y="-696.8" font-family="Times,serif" font-size="14.00" fill="#000000">क्त</text>
</g>
<!-- Node37 -->
<g id="node37" class="node">
<title>Node37</title>
<g id="a_node37"><a xlink:title="वर्धन, वृद्धि">
<polygon fill="none" stroke="#0000ff" points="345.7376,-657 291.7376,-657 291.7376,-621 345.7376,-621 345.7376,-657"/>
<text text-anchor="middle" x="318.7376" y="-635.3" font-family="Times,serif" font-size="14.00" fill="#000000">प्ररूढि</text>
</a>
</g>
</g>
<!-- Node35&#45;&gt;Node37 -->
<g id="edge36" class="edge">
<title>Node35&#45;&gt;Node37</title>
<path fill="none" stroke="#000000" d="M186.0528,-683.8396C212.3373,-674.957 252.4193,-661.4117 281.6514,-651.533"/>
<polygon fill="#000000" stroke="#000000" points="283.1451,-654.7227 291.4982,-648.2053 280.904,-648.0911 283.1451,-654.7227"/>
<text text-anchor="middle" x="230.3927" y="-675.8" font-family="Times,serif" font-size="14.00" fill="#000000">क्तिन्</text>
</g>
<!-- Node38 -->
<g id="node38" class="node">
<title>Node38</title>
<g id="a_node38"><a xlink:title="वर्धन, अंकुरण, स्फुटन">
<polygon fill="none" stroke="#0000ff" points="345.7376,-603 291.7376,-603 291.7376,-567 345.7376,-567 345.7376,-603"/>
<text text-anchor="middle" x="318.7376" y="-581.3" font-family="Times,serif" font-size="14.00" fill="#000000">प्ररोहण</text>
</a>
</g>
</g>
<!-- Node35&#45;&gt;Node38 -->
<g id="edge37" class="edge">
<title>Node35&#45;&gt;Node38</title>
<path fill="none" stroke="#000000" d="M180.8606,-679.8754C187.2156,-675.7222 194.0199,-670.9234 199.8927,-666 208.8069,-658.5269 209.3642,-654.9103 217.8927,-647 235.9596,-630.2429 240.0143,-625.0882 260.8927,-612 267.6272,-607.7783 275.1283,-603.8029 282.4379,-600.2672"/>
<polygon fill="#000000" stroke="#000000" points="283.9334,-603.4317 291.5222,-596.0384 280.9792,-597.0857 283.9334,-603.4317"/>
<text text-anchor="middle" x="230.3927" y="-650.8" font-family="Times,serif" font-size="14.00" fill="#000000">ल्युट्</text>
</g>
<!-- Node39 -->
<g id="node39" class="node">
<title>Node39</title>
<g id="a_node39"><a xlink:title="अंकुरित होना, अंखुवा निकलना, बढ़ना, बीजांकुरण, यथा&#45; यवांकुरप्ररोह">
<polygon fill="none" stroke="#0000ff" points="345.7376,-549 291.7376,-549 291.7376,-513 345.7376,-513 345.7376,-549"/>
<text text-anchor="middle" x="318.7376" y="-527.3" font-family="Times,serif" font-size="14.00" fill="#000000">प्ररोह</text>
</a>
</g>
</g>
<!-- Node35&#45;&gt;Node39 -->
<g id="edge38" class="edge">
<title>Node35&#45;&gt;Node39</title>
<path fill="none" stroke="#000000" d="M182.9426,-681.1582C189.2016,-677.0943 195.4335,-672.022 199.8927,-666 216.7143,-643.2833 203.9959,-629.6149 217.8927,-605 231.8119,-580.3456 238.0702,-574.7545 260.8927,-558 267.4255,-553.2041 274.9459,-548.9451 282.3567,-545.3075"/>
<polygon fill="#000000" stroke="#000000" points="283.9906,-548.4082 291.6025,-541.0386 281.0563,-542.0529 283.9906,-548.4082"/>
<text text-anchor="middle" x="230.3927" y="-608.8" font-family="Times,serif" font-size="14.00" fill="#000000">घञ्</text>
</g>
<!-- Node52 -->
<g id="node52" class="node">
<title>Node52</title>
<g id="a_node52"><a xlink:title="(घाव आदि का) भरना, व्रणविरोपणं तैलम्">
<polygon fill="none" stroke="#0000ff" points="345.7376,-90 291.7376,-90 291.7376,-54 345.7376,-54 345.7376,-90"/>
<text text-anchor="middle" x="318.7376" y="-68.3" font-family="Times,serif" font-size="14.00" fill="#000000">विरोपण</text>
</a>
</g>
</g>
<!-- Node51&#45;&gt;Node52 -->
<g id="edge51" class="edge">
<title>Node51&#45;&gt;Node52</title>
<path fill="none" stroke="#000000" d="M190.8985,-50.399C217.0644,-54.8202 254.1174,-61.0811 281.6007,-65.725"/>
<polygon fill="#000000" stroke="#000000" points="281.1793,-69.2033 291.6227,-67.4184 282.3456,-62.3011 281.1793,-69.2033"/>
<text text-anchor="middle" x="230.3927" y="-62.8" font-family="Times,serif" font-size="14.00" fill="#000000">ल्युट्</text>
</g>
<!-- Node53 -->
<g id="node53" class="node">
<title>Node53</title>
<g id="a_node53"><a xlink:title="(घाव आदि का) भरना, व्रणविरोपणं तैलम्">
<polygon fill="none" stroke="#0000ff" points="345.7376,-36 291.7376,-36 291.7376,0 345.7376,0 345.7376,-36"/>
<text text-anchor="middle" x="318.7376" y="-14.3" font-family="Times,serif" font-size="14.00" fill="#000000">विरोहण</text>
</a>
</g>
</g>
<!-- Node51&#45;&gt;Node53 -->
<g id="edge52" class="edge">
<title>Node51&#45;&gt;Node53</title>
<path fill="none" stroke="#000000" d="M190.8985,-39.601C217.0644,-35.1798 254.1174,-28.9189 281.6007,-24.275"/>
<polygon fill="#000000" stroke="#000000" points="282.3456,-27.6989 291.6227,-22.5816 281.1793,-20.7967 282.3456,-27.6989"/>
<text text-anchor="middle" x="230.3927" y="-38.8" font-family="Times,serif" font-size="14.00" fill="#000000">ल्युट्</text>
</g>
<!-- Node55 -->
<g id="node55" class="node">
<title>Node55</title>
<g id="a_node55"><a xlink:title="अवस्थित करना, रखना">
<polygon fill="none" stroke="#0000ff" points="763.0617,-1008 698.0617,-1008 698.0617,-972 763.0617,-972 763.0617,-1008"/>
<text text-anchor="middle" x="730.5617" y="-986.3" font-family="Times,serif" font-size="14.00" fill="#000000">समारोपण</text>
</a>
</g>
</g>
<!-- Node54&#45;&gt;Node55 -->
<g id="edge54" class="edge">
<title>Node54&#45;&gt;Node55</title>
<path fill="none" stroke="#000000" d="M572.1297,-970.7733C609.1972,-975.2717 654.8455,-980.8114 687.6065,-984.7871"/>
<polygon fill="#000000" stroke="#000000" points="687.4142,-988.2894 697.7631,-986.0197 688.2576,-981.3404 687.4142,-988.2894"/>
<text text-anchor="middle" x="609.5698" y="-979.8" font-family="Times,serif" font-size="14.00" fill="#000000">ल्युट्</text>
</g>
<!-- Node56 -->
<g id="node56" class="node">
<title>Node56</title>
<g id="a_node56"><a xlink:title="चढ़ाया हुआ, सवार किया हुआ">
<polygon fill="none" stroke="#0000ff" points="764.5617,-954 696.5617,-954 696.5617,-918 764.5617,-918 764.5617,-954"/>
<text text-anchor="middle" x="730.5617" y="-932.3" font-family="Times,serif" font-size="14.00" fill="#000000">समारोपित</text>
</a>
</g>
</g>
<!-- Node54&#45;&gt;Node56 -->
<g id="edge55" class="edge">
<title>Node54&#45;&gt;Node56</title>
<path fill="none" stroke="#000000" d="M572.1297,-955.2267C608.7339,-950.7846 653.7056,-945.327 686.3719,-941.3627"/>
<polygon fill="#000000" stroke="#000000" points="687.0138,-944.8106 696.5193,-940.1313 686.1704,-937.8616 687.0138,-944.8106"/>
<text text-anchor="middle" x="609.5698" y="-954.8" font-family="Times,serif" font-size="14.00" fill="#000000">क्त</text>
</g>
<!-- Node58 -->
<g id="node58" class="node">
<title>Node58</title>
<g id="a_node58"><a xlink:title="चढ़ना, ऊपर जाना">
<polygon fill="none" stroke="#0000ff" points="536.0761,-1143 480.0761,-1143 480.0761,-1107 536.0761,-1107 536.0761,-1143"/>
<text text-anchor="middle" x="508.0761" y="-1121.3" font-family="Times,serif" font-size="14.00" fill="#000000">समारोह</text>
</a>
</g>
</g>
<!-- Node57&#45;&gt;Node58 -->
<g id="edge57" class="edge">
<title>Node57&#45;&gt;Node58</title>
<path fill="none" stroke="#000000" d="M370.4752,-1125C401.8753,-1125 441.2699,-1125 469.8519,-1125"/>
<polygon fill="#000000" stroke="#000000" points="469.8581,-1128.5001 479.8581,-1125 469.858,-1121.5001 469.8581,-1128.5001"/>
<text text-anchor="middle" x="406.5825" y="-1128.8" font-family="Times,serif" font-size="14.00" fill="#000000">घञ्</text>
</g>
</g>
</svg>
