<?xml version="1.0" encoding="UTF-8" standalone="no"?>
<!DOCTYPE svg PUBLIC "-//W3C//DTD SVG 1.1//EN"
 "http://www.w3.org/Graphics/SVG/1.1/DTD/svg11.dtd">
<!-- Generated by graphviz version 2.36.0 (20140111.2315)
 -->
<!-- Title: G Pages: 1 -->
<svg width="184pt" height="98pt"
 viewBox="0.00 0.00 184.00 98.00" xmlns="http://www.w3.org/2000/svg" xmlns:xlink="http://www.w3.org/1999/xlink">
<g id="graph0" class="graph" transform="scale(1 1) rotate(0) translate(4 94)">
<title>G</title>
<polygon fill="white" stroke="none" points="-4,4 -4,-94 180,-94 180,4 -4,4"/>
<!-- Node1 -->
<g id="node1" class="node"><title>Node1</title>
<ellipse fill="none" stroke="red" cx="27" cy="-45" rx="27" ry="18"/>
<text text-anchor="middle" x="27" y="-41.3" font-family="Times,serif" font-size="14.00">शाख्</text>
</g>
<!-- Node2 -->
<g id="node2" class="node"><title>Node2</title>
<g id="a_node2"><a xlink:title="(वृक्ष आदि की) डाली, शाख, आवर्ज्य शाखा:">
<polygon fill="none" stroke="blue" points="176,-90 122,-90 122,-54 176,-54 176,-90"/>
<text text-anchor="middle" x="149" y="-68.3" font-family="Times,serif" font-size="14.00">शाखा</text>
</a>
</g>
</g>
<!-- Node1&#45;&gt;Node2 -->
<g id="edge1" class="edge"><title>Node1&#45;&gt;Node2</title>
<path fill="none" stroke="black" d="M52.8641,-50.5944C69.9724,-54.4438 92.9653,-59.6172 112.061,-63.9137"/>
<polygon fill="black" stroke="black" points="111.398,-67.352 121.922,-66.1326 112.935,-60.5227 111.398,-67.352"/>
</g>
<!-- Node3 -->
<g id="node3" class="node"><title>Node3</title>
<g id="a_node3"><a xlink:title="एक वृक्ष, पेड़, कस्त्वं भो: कथयामि दैवहतकं मां विद्धि शाखोटकम्">
<polygon fill="none" stroke="blue" points="176,-36 122,-36 122,-0 176,-0 176,-36"/>
<text text-anchor="middle" x="149" y="-14.3" font-family="Times,serif" font-size="14.00">शाखोट</text>
</a>
</g>
</g>
<!-- Node1&#45;&gt;Node3 -->
<g id="edge2" class="edge"><title>Node1&#45;&gt;Node3</title>
<path fill="none" stroke="black" d="M52.8641,-39.4056C69.9724,-35.5562 92.9653,-30.3828 112.061,-26.0863"/>
<polygon fill="black" stroke="black" points="112.935,-29.4773 121.922,-23.8674 111.398,-22.648 112.935,-29.4773"/>
<text text-anchor="middle" x="88" y="-37.8" font-family="Times,serif" font-size="14.00">ओटन</text>
</g>
</g>
</svg>
