<?xml version="1.0" encoding="UTF-8" standalone="no"?>
<!DOCTYPE svg PUBLIC "-//W3C//DTD SVG 1.1//EN"
 "http://www.w3.org/Graphics/SVG/1.1/DTD/svg11.dtd">
<!-- Generated by graphviz version 2.40.1 (20161225.0304)
 -->
<!-- Title: G Pages: 1 -->
<svg width="186pt" height="98pt"
 viewBox="0.00 0.00 185.79 98.00" xmlns="http://www.w3.org/2000/svg" xmlns:xlink="http://www.w3.org/1999/xlink">
<g id="graph0" class="graph" transform="scale(1 1) rotate(0) translate(4 94)">
<title>G</title>
<polygon fill="#ffffff" stroke="transparent" points="-4,4 -4,-94 181.7947,-94 181.7947,4 -4,4"/>
<!-- Node1 -->
<g id="node1" class="node">
<title>Node1</title>
<ellipse fill="none" stroke="#ff0000" cx="29.8973" cy="-45" rx="29.795" ry="18"/>
<text text-anchor="middle" x="29.8973" y="-41.3" font-family="Times,serif" font-size="14.00" fill="#000000">श्च्युत्</text>
</g>
<!-- Node2 -->
<g id="node2" class="node">
<title>Node2</title>
<g id="a_node2"><a xlink:title="रिसना, बहना, स्रवित होना, चूना">
<polygon fill="none" stroke="#0000ff" points="177.7947,-90 119.7947,-90 119.7947,-54 177.7947,-54 177.7947,-90"/>
<text text-anchor="middle" x="148.7947" y="-68.3" font-family="Times,serif" font-size="14.00" fill="#000000">श्च्योतन</text>
</a>
</g>
</g>
<!-- Node1&#45;&gt;Node2 -->
<g id="edge1" class="edge">
<title>Node1&#45;&gt;Node2</title>
<path fill="none" stroke="#000000" d="M58.0744,-51.3986C73.4288,-54.8854 92.6739,-59.2557 109.4834,-63.0729"/>
<polygon fill="#000000" stroke="#000000" points="109.0515,-66.5639 119.5783,-65.3653 110.6017,-59.7377 109.0515,-66.5639"/>
<text text-anchor="middle" x="89.7947" y="-63.8" font-family="Times,serif" font-size="14.00" fill="#000000">ल्युट्</text>
</g>
<!-- Node3 -->
<g id="node3" class="node">
<title>Node3</title>
<g id="a_node3"><a xlink:title="रिसना, बहना, स्रवित होना, चूना">
<polygon fill="none" stroke="#0000ff" points="175.7947,-36 121.7947,-36 121.7947,0 175.7947,0 175.7947,-36"/>
<text text-anchor="middle" x="148.7947" y="-14.3" font-family="Times,serif" font-size="14.00" fill="#000000">श्च्योत</text>
</a>
</g>
</g>
<!-- Node1&#45;&gt;Node3 -->
<g id="edge2" class="edge">
<title>Node1&#45;&gt;Node3</title>
<path fill="none" stroke="#000000" d="M58.0744,-38.6014C74.1477,-34.9513 94.4846,-30.3331 111.8278,-26.3947"/>
<polygon fill="#000000" stroke="#000000" points="112.6617,-29.7945 121.6383,-24.1668 111.1115,-22.9683 112.6617,-29.7945"/>
<text text-anchor="middle" x="89.7947" y="-36.8" font-family="Times,serif" font-size="14.00" fill="#000000">घञ्</text>
</g>
</g>
</svg>
