<?xml version="1.0" encoding="UTF-8" standalone="no"?>
<!DOCTYPE svg PUBLIC "-//W3C//DTD SVG 1.1//EN"
 "http://www.w3.org/Graphics/SVG/1.1/DTD/svg11.dtd">
<!-- Generated by graphviz version 2.40.1 (20161225.0304)
 -->
<!-- Title: G Pages: 1 -->
<svg width="316pt" height="557pt"
 viewBox="0.00 0.00 316.09 557.00" xmlns="http://www.w3.org/2000/svg" xmlns:xlink="http://www.w3.org/1999/xlink">
<g id="graph0" class="graph" transform="scale(1 1) rotate(0) translate(4 553)">
<title>G</title>
<polygon fill="#ffffff" stroke="transparent" points="-4,4 -4,-553 312.0934,-553 312.0934,4 -4,4"/>
<!-- Node1 -->
<g id="node1" class="node">
<title>Node1</title>
<ellipse fill="none" stroke="#ff0000" cx="27" cy="-234" rx="27" ry="18"/>
<text text-anchor="middle" x="27" y="-230.3" font-family="Times,serif" font-size="14.00" fill="#000000">सेव्</text>
</g>
<!-- Node2 -->
<g id="node2" class="node">
<title>Node2</title>
<ellipse fill="none" stroke="#ff0000" cx="152.0467" cy="-477" rx="37.0935" ry="18"/>
<text text-anchor="middle" x="152.0467" y="-473.3" font-family="Times,serif" font-size="14.00" fill="#000000">उप_सेव्</text>
</g>
<!-- Node1&#45;&gt;Node2 -->
<g id="edge1" class="edge">
<title>Node1&#45;&gt;Node2</title>
<path fill="none" stroke="#000000" d="M33.0393,-251.8933C40.9949,-274.8222 55.8774,-315.5973 72,-349 88.5347,-383.2566 94.6707,-390.8498 115,-423 120.9242,-432.369 127.7097,-442.4344 133.8409,-451.3067"/>
<polygon fill="#000000" stroke="#000000" points="131.109,-453.5081 139.698,-459.7113 136.852,-449.5059 131.109,-453.5081"/>
</g>
<!-- Node5 -->
<g id="node5" class="node">
<title>Node5</title>
<ellipse fill="none" stroke="#ff0000" cx="152.0467" cy="-396" rx="34.394" ry="18"/>
<text text-anchor="middle" x="152.0467" y="-392.3" font-family="Times,serif" font-size="14.00" fill="#000000">नि_सेव्</text>
</g>
<!-- Node1&#45;&gt;Node5 -->
<g id="edge4" class="edge">
<title>Node1&#45;&gt;Node5</title>
<path fill="none" stroke="#000000" d="M34.652,-251.4963C42.8125,-269.3797 56.6549,-297.6266 72,-320 88.3882,-343.8942 93.6066,-349.4596 115,-369 117.4093,-371.2006 119.9971,-373.3889 122.6445,-375.5124"/>
<polygon fill="#000000" stroke="#000000" points="120.5776,-378.3379 130.6462,-381.6357 124.8318,-372.7789 120.5776,-378.3379"/>
</g>
<!-- Node9 -->
<g id="node9" class="node">
<title>Node9</title>
<g id="a_node9"><a xlink:title="टहलुआ, आश्रित सेवया धनमिच्छद्भिः सेवकैः पश्य किं कृतम् । स्वातंत्र्यं यच्छरीरस्य मूढैस्तदपि हारितम्#सेवा करने वाला, पूजा करने वाला, सम्मान करने वाला">
<polygon fill="none" stroke="#0000ff" points="179.0467,-360 125.0467,-360 125.0467,-324 179.0467,-324 179.0467,-360"/>
<text text-anchor="middle" x="152.0467" y="-338.3" font-family="Times,serif" font-size="14.00" fill="#000000">सेवक</text>
</a>
</g>
</g>
<!-- Node1&#45;&gt;Node9 -->
<g id="edge8" class="edge">
<title>Node1&#45;&gt;Node9</title>
<path fill="none" stroke="#000000" d="M40.5806,-249.7498C49.2109,-259.4311 60.8258,-271.8765 72,-282 89.8531,-298.1745 95.7087,-300.5711 115,-315 116.195,-315.8938 117.4136,-316.8015 118.6461,-317.7162"/>
<polygon fill="#000000" stroke="#000000" points="116.7498,-320.6666 126.8757,-323.7838 120.9038,-315.0324 116.7498,-320.6666"/>
<text text-anchor="middle" x="84.5" y="-304.8" font-family="Times,serif" font-size="14.00" fill="#000000">ण्वुल्</text>
</g>
<!-- Node10 -->
<g id="node10" class="node">
<title>Node10</title>
<g id="a_node10"><a xlink:title="सेवा करना सेवा हाजरी में खड़े रहना, पूजा करना, पात्रीकृतात्मा गुरुसेवनेन">
<polygon fill="none" stroke="#0000ff" points="179.0467,-306 125.0467,-306 125.0467,-270 179.0467,-270 179.0467,-306"/>
<text text-anchor="middle" x="152.0467" y="-284.3" font-family="Times,serif" font-size="14.00" fill="#000000">सेवन</text>
</a>
</g>
</g>
<!-- Node1&#45;&gt;Node10 -->
<g id="edge9" class="edge">
<title>Node1&#45;&gt;Node10</title>
<path fill="none" stroke="#000000" d="M49.9355,-243.9044C68.2785,-251.8257 94.3441,-263.0818 115.5485,-272.2387"/>
<polygon fill="#000000" stroke="#000000" points="114.3356,-275.5273 124.9038,-276.2786 117.1108,-269.1009 114.3356,-275.5273"/>
<text text-anchor="middle" x="84.5" y="-266.8" font-family="Times,serif" font-size="14.00" fill="#000000">ल्युट्</text>
</g>
<!-- Node11 -->
<g id="node11" class="node">
<title>Node11</title>
<g id="a_node11"><a xlink:title="प्रिचर्या, खिदमत, दासता, टहल, सेवां लाघवकारिणीं कृतधियः स्थाने श्ववृत्तिं विदुः">
<polygon fill="none" stroke="#0000ff" points="179.0467,-252 125.0467,-252 125.0467,-216 179.0467,-216 179.0467,-252"/>
<text text-anchor="middle" x="152.0467" y="-230.3" font-family="Times,serif" font-size="14.00" fill="#000000">सेवा</text>
</a>
</g>
</g>
<!-- Node1&#45;&gt;Node11 -->
<g id="edge10" class="edge">
<title>Node1&#45;&gt;Node11</title>
<path fill="none" stroke="#000000" d="M54.1333,-234C71.9125,-234 95.3844,-234 114.89,-234"/>
<polygon fill="#000000" stroke="#000000" points="114.9664,-237.5001 124.9664,-234 114.9664,-230.5001 114.9664,-237.5001"/>
<text text-anchor="middle" x="84.5" y="-237.8" font-family="Times,serif" font-size="14.00" fill="#000000">अङ्</text>
</g>
<!-- Node12 -->
<g id="node12" class="node">
<title>Node12</title>
<g id="a_node12"><a xlink:title="सेव#सेवा किया गया, जिसकी टहल की गई है, पूजा किया गया">
<polygon fill="none" stroke="#0000ff" points="179.0467,-198 125.0467,-198 125.0467,-162 179.0467,-162 179.0467,-198"/>
<text text-anchor="middle" x="152.0467" y="-176.3" font-family="Times,serif" font-size="14.00" fill="#000000">सेवित</text>
</a>
</g>
</g>
<!-- Node1&#45;&gt;Node12 -->
<g id="edge11" class="edge">
<title>Node1&#45;&gt;Node12</title>
<path fill="none" stroke="#000000" d="M49.9355,-224.0956C68.2785,-216.1743 94.3441,-204.9182 115.5485,-195.7613"/>
<polygon fill="#000000" stroke="#000000" points="117.1108,-198.8991 124.9038,-191.7214 114.3356,-192.4727 117.1108,-198.8991"/>
<text text-anchor="middle" x="84.5" y="-217.8" font-family="Times,serif" font-size="14.00" fill="#000000">क्त</text>
</g>
<!-- Node13 -->
<g id="node13" class="node">
<title>Node13</title>
<g id="a_node13"><a xlink:title="सेवा करने वाला, पूजा करने वाला">
<polygon fill="none" stroke="#0000ff" points="179.0467,-144 125.0467,-144 125.0467,-108 179.0467,-108 179.0467,-144"/>
<text text-anchor="middle" x="152.0467" y="-122.3" font-family="Times,serif" font-size="14.00" fill="#000000">सेविन्</text>
</a>
</g>
</g>
<!-- Node1&#45;&gt;Node13 -->
<g id="edge12" class="edge">
<title>Node1&#45;&gt;Node13</title>
<path fill="none" stroke="#000000" d="M41.0774,-218.2322C49.7016,-208.8473 61.1361,-196.8817 72,-187 90.0231,-170.6064 95.5961,-167.7332 115,-153 116.1885,-152.0976 117.4016,-151.1826 118.6294,-150.2615"/>
<polygon fill="#000000" stroke="#000000" points="120.8955,-152.9383 126.8391,-144.1677 116.7233,-147.3175 120.8955,-152.9383"/>
<text text-anchor="middle" x="84.5" y="-190.8" font-family="Times,serif" font-size="14.00" fill="#000000">णिनि</text>
</g>
<!-- Node14 -->
<g id="node14" class="node">
<title>Node14</title>
<g id="a_node14"><a xlink:title="बेर">
<polygon fill="none" stroke="#0000ff" points="179.0467,-90 125.0467,-90 125.0467,-54 179.0467,-54 179.0467,-90"/>
<text text-anchor="middle" x="152.0467" y="-68.3" font-family="Times,serif" font-size="14.00" fill="#000000">सेवि</text>
</a>
</g>
</g>
<!-- Node1&#45;&gt;Node14 -->
<g id="edge13" class="edge">
<title>Node1&#45;&gt;Node14</title>
<path fill="none" stroke="#000000" d="M34.652,-216.5037C42.8125,-198.6203 56.6549,-170.3734 72,-148 88.3882,-124.1058 93.6066,-118.5404 115,-99 115.8227,-98.2486 116.6662,-97.4986 117.5258,-96.7521"/>
<polygon fill="#000000" stroke="#000000" points="120.0357,-99.2213 125.5682,-90.1856 115.6086,-93.799 120.0357,-99.2213"/>
<text text-anchor="middle" x="84.5" y="-151.8" font-family="Times,serif" font-size="14.00" fill="#000000">इन्</text>
</g>
<!-- Node15 -->
<g id="node15" class="node">
<title>Node15</title>
<g id="a_node15"><a xlink:title="अश्वत्थवृक्ष#एक प्रकार की जड़#सेवा किये जाने के योग्य, टहल किये जाने के योग्य">
<polygon fill="none" stroke="#0000ff" points="179.0467,-36 125.0467,-36 125.0467,0 179.0467,0 179.0467,-36"/>
<text text-anchor="middle" x="152.0467" y="-14.3" font-family="Times,serif" font-size="14.00" fill="#000000">सेव्य</text>
</a>
</g>
</g>
<!-- Node1&#45;&gt;Node15 -->
<g id="edge14" class="edge">
<title>Node1&#45;&gt;Node15</title>
<path fill="none" stroke="#000000" d="M30.7612,-215.9895C36.8463,-189.1252 50.3961,-137.4918 72,-98 86.5578,-71.3885 93.0029,-65.8861 115,-45 115.808,-44.2328 116.6384,-43.4688 117.4864,-42.7099"/>
<polygon fill="#000000" stroke="#000000" points="120.0154,-45.1586 125.4607,-36.0702 115.5362,-39.7792 120.0154,-45.1586"/>
<text text-anchor="middle" x="84.5" y="-101.8" font-family="Times,serif" font-size="14.00" fill="#000000">ण्यत्</text>
</g>
<!-- Node3 -->
<g id="node3" class="node">
<title>Node3</title>
<g id="a_node3"><a xlink:title="पूजा करना, सम्मान करना, आराधना">
<polygon fill="none" stroke="#0000ff" points="308.0934,-549 249.0934,-549 249.0934,-513 308.0934,-513 308.0934,-549"/>
<text text-anchor="middle" x="278.5934" y="-527.3" font-family="Times,serif" font-size="14.00" fill="#000000">उपसेवन</text>
</a>
</g>
</g>
<!-- Node2&#45;&gt;Node3 -->
<g id="edge2" class="edge">
<title>Node2&#45;&gt;Node3</title>
<path fill="none" stroke="#000000" d="M180.1315,-488.9844C197.5732,-496.4271 220.2455,-506.1018 239.4369,-514.2911"/>
<polygon fill="#000000" stroke="#000000" points="238.2526,-517.5911 248.8239,-518.2967 241,-511.1527 238.2526,-517.5911"/>
<text text-anchor="middle" x="219.0934" y="-513.8" font-family="Times,serif" font-size="14.00" fill="#000000">ल्युट्</text>
</g>
<!-- Node4 -->
<g id="node4" class="node">
<title>Node4</title>
<g id="a_node4"><a xlink:title="पूजा करना, सम्मान करना, आराधना">
<polygon fill="none" stroke="#0000ff" points="305.5934,-495 251.5934,-495 251.5934,-459 305.5934,-459 305.5934,-495"/>
<text text-anchor="middle" x="278.5934" y="-473.3" font-family="Times,serif" font-size="14.00" fill="#000000">उपसेवा</text>
</a>
</g>
</g>
<!-- Node2&#45;&gt;Node4 -->
<g id="edge3" class="edge">
<title>Node2&#45;&gt;Node4</title>
<path fill="none" stroke="#000000" d="M189.3305,-477C205.5977,-477 224.639,-477 240.9471,-477"/>
<polygon fill="#000000" stroke="#000000" points="241.2126,-480.5001 251.2126,-477 241.2126,-473.5001 241.2126,-480.5001"/>
<text text-anchor="middle" x="219.0934" y="-480.8" font-family="Times,serif" font-size="14.00" fill="#000000">अ</text>
</g>
<!-- Node6 -->
<g id="node6" class="node">
<title>Node6</title>
<g id="a_node6"><a xlink:title="अभ्यास करने वाला, अनुगमन करने वाला, भक्त, अनुरक्त">
<polygon fill="none" stroke="#0000ff" points="305.5934,-441 251.5934,-441 251.5934,-405 305.5934,-405 305.5934,-441"/>
<text text-anchor="middle" x="278.5934" y="-419.3" font-family="Times,serif" font-size="14.00" fill="#000000">निषेवक</text>
</a>
</g>
</g>
<!-- Node5&#45;&gt;Node6 -->
<g id="edge5" class="edge">
<title>Node5&#45;&gt;Node6</title>
<path fill="none" stroke="#000000" d="M183.9798,-402.8132C201.4438,-406.5394 223.1693,-411.1747 241.3959,-415.0635"/>
<polygon fill="#000000" stroke="#000000" points="240.8775,-418.5316 251.3877,-417.1954 242.3382,-411.6857 240.8775,-418.5316"/>
<text text-anchor="middle" x="219.0934" y="-415.8" font-family="Times,serif" font-size="14.00" fill="#000000">ण्वुल्</text>
</g>
<!-- Node7 -->
<g id="node7" class="node">
<title>Node7</title>
<g id="a_node7"><a xlink:title="सेवा करना, नौकरी, हाजरी में खड़े रहना">
<polygon fill="none" stroke="#0000ff" points="305.5934,-387 251.5934,-387 251.5934,-351 305.5934,-351 305.5934,-387"/>
<text text-anchor="middle" x="278.5934" y="-365.3" font-family="Times,serif" font-size="14.00" fill="#000000">निषेवन</text>
</a>
</g>
</g>
<!-- Node5&#45;&gt;Node7 -->
<g id="edge6" class="edge">
<title>Node5&#45;&gt;Node7</title>
<path fill="none" stroke="#000000" d="M183.9798,-389.1868C201.4438,-385.4606 223.1693,-380.8253 241.3959,-376.9365"/>
<polygon fill="#000000" stroke="#000000" points="242.3382,-380.3143 251.3877,-374.8046 240.8775,-373.4684 242.3382,-380.3143"/>
<text text-anchor="middle" x="219.0934" y="-387.8" font-family="Times,serif" font-size="14.00" fill="#000000">ल्युट्</text>
</g>
<!-- Node8 -->
<g id="node8" class="node">
<title>Node8</title>
<g id="a_node8"><a xlink:title="सेवा करना, नौकरी, हाजरी में खड़े रहना">
<polygon fill="none" stroke="#0000ff" points="305.5934,-333 251.5934,-333 251.5934,-297 305.5934,-297 305.5934,-333"/>
<text text-anchor="middle" x="278.5934" y="-311.3" font-family="Times,serif" font-size="14.00" fill="#000000">निषेवा</text>
</a>
</g>
</g>
<!-- Node5&#45;&gt;Node8 -->
<g id="edge7" class="edge">
<title>Node5&#45;&gt;Node8</title>
<path fill="none" stroke="#000000" d="M173.69,-381.721C183.8101,-375.0763 196.0409,-367.0914 207.0934,-360 218.7012,-352.5523 231.4282,-344.5046 242.8862,-337.3025"/>
<polygon fill="#000000" stroke="#000000" points="244.7515,-340.264 251.3612,-331.9837 241.0305,-334.3349 244.7515,-340.264"/>
<text text-anchor="middle" x="219.0934" y="-363.8" font-family="Times,serif" font-size="14.00" fill="#000000">ल्युट्</text>
</g>
</g>
</svg>
