<?xml version="1.0" encoding="UTF-8" standalone="no"?>
<!DOCTYPE svg PUBLIC "-//W3C//DTD SVG 1.1//EN"
 "http://www.w3.org/Graphics/SVG/1.1/DTD/svg11.dtd">
<!-- Generated by graphviz version 2.40.1 (20161225.0304)
 -->
<!-- Title: G Pages: 1 -->
<svg width="344pt" height="314pt"
 viewBox="0.00 0.00 343.69 314.00" xmlns="http://www.w3.org/2000/svg" xmlns:xlink="http://www.w3.org/1999/xlink">
<g id="graph0" class="graph" transform="scale(1 1) rotate(0) translate(4 310)">
<title>G</title>
<polygon fill="#ffffff" stroke="transparent" points="-4,4 -4,-310 339.692,-310 339.692,4 -4,4"/>
<!-- Node1 -->
<g id="node1" class="node">
<title>Node1</title>
<ellipse fill="none" stroke="#ff0000" cx="27" cy="-126" rx="27" ry="18"/>
<text text-anchor="middle" x="27" y="-122.3" font-family="Times,serif" font-size="14.00" fill="#000000">शिक्ष्</text>
</g>
<!-- Node2 -->
<g id="node2" class="node">
<title>Node2</title>
<ellipse fill="none" stroke="#ff0000" cx="165.846" cy="-234" rx="40.0939" ry="18"/>
<text text-anchor="middle" x="165.846" y="-230.3" font-family="Times,serif" font-size="14.00" fill="#000000">उप_शिक्ष्</text>
</g>
<!-- Node1&#45;&gt;Node2 -->
<g id="edge1" class="edge">
<title>Node1&#45;&gt;Node2</title>
<path fill="none" stroke="#000000" d="M42.6076,-140.9277C60.7163,-157.8887 91.8307,-185.9424 121,-207 124.4816,-209.5134 128.2058,-212.0188 131.9643,-214.4335"/>
<polygon fill="#000000" stroke="#000000" points="130.3583,-217.5564 140.6987,-219.8644 134.0546,-211.6118 130.3583,-217.5564"/>
</g>
<!-- Node5 -->
<g id="node5" class="node">
<title>Node5</title>
<ellipse fill="none" stroke="#ff0000" cx="165.846" cy="-180" rx="44.6926" ry="18"/>
<text text-anchor="middle" x="165.846" y="-176.3" font-family="Times,serif" font-size="14.00" fill="#000000">शिक्ष्+णिच्</text>
</g>
<!-- Node1&#45;&gt;Node5 -->
<g id="edge4" class="edge">
<title>Node1&#45;&gt;Node5</title>
<path fill="none" stroke="#000000" d="M49.8152,-135.8548C56.8986,-138.8547 64.7496,-142.1188 72,-145 88.4603,-151.541 106.6791,-158.4178 122.6511,-164.3277"/>
<polygon fill="#000000" stroke="#000000" points="121.6764,-167.6985 132.2698,-167.8709 124.096,-161.13 121.6764,-167.6985"/>
</g>
<!-- Node7 -->
<g id="node7" class="node">
<title>Node7</title>
<g id="a_node7"><a xlink:title="सीखना, अधिगम, ज्ञानार्जन">
<polygon fill="none" stroke="#0000ff" points="192.846,-144 138.846,-144 138.846,-108 192.846,-108 192.846,-144"/>
<text text-anchor="middle" x="165.846" y="-122.3" font-family="Times,serif" font-size="14.00" fill="#000000">शिक्षण</text>
</a>
</g>
</g>
<!-- Node1&#45;&gt;Node7 -->
<g id="edge6" class="edge">
<title>Node1&#45;&gt;Node7</title>
<path fill="none" stroke="#000000" d="M54.1005,-126C75.3163,-126 105.0595,-126 128.5265,-126"/>
<polygon fill="#000000" stroke="#000000" points="128.8139,-129.5001 138.8139,-126 128.8138,-122.5001 128.8139,-129.5001"/>
<text text-anchor="middle" x="87.5" y="-129.8" font-family="Times,serif" font-size="14.00" fill="#000000">ल्युट्</text>
</g>
<!-- Node8 -->
<g id="node8" class="node">
<title>Node8</title>
<g id="a_node8"><a xlink:title="शिष्य, विद्यार्थी, विद्याभ्यासी">
<polygon fill="none" stroke="#0000ff" points="195.846,-90 135.846,-90 135.846,-54 195.846,-54 195.846,-90"/>
<text text-anchor="middle" x="165.846" y="-68.3" font-family="Times,serif" font-size="14.00" fill="#000000">शिक्षमाण</text>
</a>
</g>
</g>
<!-- Node1&#45;&gt;Node8 -->
<g id="edge7" class="edge">
<title>Node1&#45;&gt;Node8</title>
<path fill="none" stroke="#000000" d="M49.8152,-116.1452C56.8986,-113.1453 64.7496,-109.8812 72,-107 89.6962,-99.9679 109.425,-92.5476 126.2093,-86.3579"/>
<polygon fill="#000000" stroke="#000000" points="127.5331,-89.6004 135.7138,-82.868 125.1202,-83.0294 127.5331,-89.6004"/>
<text text-anchor="middle" x="87.5" y="-110.8" font-family="Times,serif" font-size="14.00" fill="#000000">शानच्</text>
</g>
<!-- Node9 -->
<g id="node9" class="node">
<title>Node9</title>
<g id="a_node9"><a xlink:title="अधिगत, अधीत">
<polygon fill="none" stroke="#0000ff" points="192.846,-36 138.846,-36 138.846,0 192.846,0 192.846,-36"/>
<text text-anchor="middle" x="165.846" y="-14.3" font-family="Times,serif" font-size="14.00" fill="#000000">शिक्षित</text>
</a>
</g>
</g>
<!-- Node1&#45;&gt;Node9 -->
<g id="edge8" class="edge">
<title>Node1&#45;&gt;Node9</title>
<path fill="none" stroke="#000000" d="M39.8758,-110.0407C48.4187,-99.9649 60.1947,-87.0087 72,-77 91.8397,-60.1795 98.9657,-58.8214 121,-45 123.9375,-43.1574 126.9957,-41.2642 130.0732,-39.3765"/>
<polygon fill="#000000" stroke="#000000" points="131.9912,-42.3065 138.7137,-34.1176 128.3518,-36.327 131.9912,-42.3065"/>
<text text-anchor="middle" x="87.5" y="-80.8" font-family="Times,serif" font-size="14.00" fill="#000000">क्त</text>
</g>
<!-- Node3 -->
<g id="node3" class="node">
<title>Node3</title>
<g id="a_node3"><a xlink:title="अधिगम, सीखना, प्रशिक्षण">
<polygon fill="none" stroke="#0000ff" points="335.692,-306 270.692,-306 270.692,-270 335.692,-270 335.692,-306"/>
<text text-anchor="middle" x="303.192" y="-284.3" font-family="Times,serif" font-size="14.00" fill="#000000">उपशिक्षण</text>
</a>
</g>
</g>
<!-- Node2&#45;&gt;Node3 -->
<g id="edge2" class="edge">
<title>Node2&#45;&gt;Node3</title>
<path fill="none" stroke="#000000" d="M196.3276,-245.9844C215.2941,-253.4414 239.9595,-263.139 260.8141,-271.3384"/>
<polygon fill="#000000" stroke="#000000" points="259.8107,-274.7046 270.3979,-275.1064 262.372,-268.19 259.8107,-274.7046"/>
<text text-anchor="middle" x="240.692" y="-270.8" font-family="Times,serif" font-size="14.00" fill="#000000">ल्युट्</text>
</g>
<!-- Node4 -->
<g id="node4" class="node">
<title>Node4</title>
<g id="a_node4"><a xlink:title="अधिगम, सीखना, प्रशिक्षण">
<polygon fill="none" stroke="#0000ff" points="332.692,-252 273.692,-252 273.692,-216 332.692,-216 332.692,-252"/>
<text text-anchor="middle" x="303.192" y="-230.3" font-family="Times,serif" font-size="14.00" fill="#000000">उपशिक्षा</text>
</a>
</g>
</g>
<!-- Node2&#45;&gt;Node4 -->
<g id="edge3" class="edge">
<title>Node2&#45;&gt;Node4</title>
<path fill="none" stroke="#000000" d="M206.3115,-234C224.3033,-234 245.4216,-234 263.3412,-234"/>
<polygon fill="#000000" stroke="#000000" points="263.4746,-237.5001 273.4746,-234 263.4746,-230.5001 263.4746,-237.5001"/>
<text text-anchor="middle" x="240.692" y="-237.8" font-family="Times,serif" font-size="14.00" fill="#000000">अ</text>
</g>
<!-- Node6 -->
<g id="node6" class="node">
<title>Node6</title>
<g id="a_node6"><a xlink:title="सीखने वाला, शिक्षका, शिक्षिका &#45;स्त्री*">
<polygon fill="none" stroke="#0000ff" points="330.192,-198 276.192,-198 276.192,-162 330.192,-162 330.192,-198"/>
<text text-anchor="middle" x="303.192" y="-176.3" font-family="Times,serif" font-size="14.00" fill="#000000">शिक्षक</text>
</a>
</g>
</g>
<!-- Node5&#45;&gt;Node6 -->
<g id="edge5" class="edge">
<title>Node5&#45;&gt;Node6</title>
<path fill="none" stroke="#000000" d="M210.8182,-180C228.6996,-180 249.0246,-180 266.0481,-180"/>
<polygon fill="#000000" stroke="#000000" points="266.1696,-183.5001 276.1696,-180 266.1696,-176.5001 266.1696,-183.5001"/>
<text text-anchor="middle" x="240.692" y="-183.8" font-family="Times,serif" font-size="14.00" fill="#000000">ण्वुल्</text>
</g>
</g>
</svg>
