<?xml version="1.0" encoding="UTF-8" standalone="no"?>
<!DOCTYPE svg PUBLIC "-//W3C//DTD SVG 1.1//EN"
 "http://www.w3.org/Graphics/SVG/1.1/DTD/svg11.dtd">
<!-- Generated by graphviz version 2.36.0 (20140111.2315)
 -->
<!-- Title: G Pages: 1 -->
<svg width="334pt" height="260pt"
 viewBox="0.00 0.00 334.00 260.00" xmlns="http://www.w3.org/2000/svg" xmlns:xlink="http://www.w3.org/1999/xlink">
<g id="graph0" class="graph" transform="scale(1 1) rotate(0) translate(4 256)">
<title>G</title>
<polygon fill="white" stroke="none" points="-4,4 -4,-256 330,-256 330,4 -4,4"/>
<!-- Node1 -->
<g id="node1" class="node"><title>Node1</title>
<ellipse fill="none" stroke="red" cx="27" cy="-126" rx="27" ry="18"/>
<text text-anchor="middle" x="27" y="-122.3" font-family="Times,serif" font-size="14.00">शील्</text>
</g>
<!-- Node2 -->
<g id="node2" class="node"><title>Node2</title>
<ellipse fill="none" stroke="red" cx="156" cy="-234" rx="42.4939" ry="18"/>
<text text-anchor="middle" x="156" y="-230.3" font-family="Times,serif" font-size="14.00">अनु_शील्</text>
</g>
<!-- Node1&#45;&gt;Node2 -->
<g id="edge1" class="edge"><title>Node1&#45;&gt;Node2</title>
<path fill="none" stroke="black" d="M42.5104,-141.166C59.059,-158.096 87.29,-185.886 114,-207 116.758,-209.18 119.692,-211.359 122.673,-213.48"/>
<polygon fill="black" stroke="black" points="120.868,-216.486 131.094,-219.258 124.828,-210.714 120.868,-216.486"/>
</g>
<!-- Node4 -->
<g id="node4" class="node"><title>Node4</title>
<ellipse fill="none" stroke="red" cx="156" cy="-180" rx="41.6928" ry="18"/>
<text text-anchor="middle" x="156" y="-176.3" font-family="Times,serif" font-size="14.00">परि_शील्</text>
</g>
<!-- Node1&#45;&gt;Node4 -->
<g id="edge3" class="edge"><title>Node1&#45;&gt;Node4</title>
<path fill="none" stroke="black" d="M50.368,-135.703C57.2965,-138.697 64.9593,-141.995 72,-145 86.3746,-151.134 102.175,-157.813 116.097,-163.676"/>
<polygon fill="black" stroke="black" points="114.821,-166.936 125.395,-167.589 117.535,-160.484 114.821,-166.936"/>
</g>
<!-- Node6 -->
<g id="node6" class="node"><title>Node6</title>
<g id="a_node6"><a xlink:title="बार बार अभ्यास, प्रयोग, अध्ययन, संवर्धन">
<polygon fill="none" stroke="blue" points="183,-144 129,-144 129,-108 183,-108 183,-144"/>
<text text-anchor="middle" x="156" y="-122.3" font-family="Times,serif" font-size="14.00">शीलन</text>
</a>
</g>
</g>
<!-- Node1&#45;&gt;Node6 -->
<g id="edge5" class="edge"><title>Node1&#45;&gt;Node6</title>
<path fill="none" stroke="black" d="M54.0068,-126C72.6311,-126 97.9593,-126 118.591,-126"/>
<polygon fill="black" stroke="black" points="118.592,-129.5 128.592,-126 118.591,-122.5 118.592,-129.5"/>
<text text-anchor="middle" x="84" y="-129.8" font-family="Times,serif" font-size="14.00">ल्युट्</text>
</g>
<!-- Node7 -->
<g id="node7" class="node"><title>Node7</title>
<g id="a_node7"><a xlink:title="अजगर#स्वभाव, प्रकृति, चरित्र, प्रवृत्ति, रुचि, आदत, प्रथा समानशीलव्यसनेषु सख्यम्">
<polygon fill="none" stroke="blue" points="183,-90 129,-90 129,-54 183,-54 183,-90"/>
<text text-anchor="middle" x="156" y="-68.3" font-family="Times,serif" font-size="14.00">शील</text>
</a>
</g>
</g>
<!-- Node1&#45;&gt;Node7 -->
<g id="edge6" class="edge"><title>Node1&#45;&gt;Node7</title>
<path fill="none" stroke="black" d="M50.368,-116.297C57.2965,-113.303 64.9593,-110.005 72,-107 87.5747,-100.354 104.823,-93.068 119.543,-86.873"/>
<polygon fill="black" stroke="black" points="120.947,-90.0797 128.808,-82.9771 118.233,-83.627 120.947,-90.0797"/>
<text text-anchor="middle" x="84" y="-110.8" font-family="Times,serif" font-size="14.00">अच्</text>
</g>
<!-- Node8 -->
<g id="node8" class="node"><title>Node8</title>
<g id="a_node8"><a xlink:title="अभ्यस्त, प्रयुक्त">
<polygon fill="none" stroke="blue" points="183,-36 129,-36 129,-0 183,-0 183,-36"/>
<text text-anchor="middle" x="156" y="-14.3" font-family="Times,serif" font-size="14.00">शीलित</text>
</a>
</g>
</g>
<!-- Node1&#45;&gt;Node8 -->
<g id="edge7" class="edge"><title>Node1&#45;&gt;Node8</title>
<path fill="none" stroke="black" d="M41.3667,-110.676C49.8382,-101.233 61.1989,-89.0509 72,-79 89.5818,-62.6393 94.6144,-59.177 114,-45 116.047,-43.5032 118.171,-41.9897 120.328,-40.4836"/>
<polygon fill="black" stroke="black" points="122.424,-43.2904 128.71,-34.7618 118.478,-37.509 122.424,-43.2904"/>
<text text-anchor="middle" x="84" y="-82.8" font-family="Times,serif" font-size="14.00">क्त</text>
</g>
<!-- Node3 -->
<g id="node3" class="node"><title>Node3</title>
<g id="a_node3"><a xlink:title="अभिप्रेत तथा श्रमपूर्ण प्रयोग, सतत प्रयत्न या अभ्यास, सतत या बारंवार अभ्यास या अध्ययन">
<polygon fill="none" stroke="blue" points="325.5,-252 258.5,-252 258.5,-216 325.5,-216 325.5,-252"/>
<text text-anchor="middle" x="292" y="-230.3" font-family="Times,serif" font-size="14.00">अनुशीलन</text>
</a>
</g>
</g>
<!-- Node2&#45;&gt;Node3 -->
<g id="edge2" class="edge"><title>Node2&#45;&gt;Node3</title>
<path fill="none" stroke="black" d="M198.298,-234C214.068,-234 232.078,-234 248.003,-234"/>
<polygon fill="black" stroke="black" points="248.122,-237.5 258.122,-234 248.122,-230.5 248.122,-237.5"/>
<text text-anchor="middle" x="228" y="-237.8" font-family="Times,serif" font-size="14.00">ल्युट्</text>
</g>
<!-- Node5 -->
<g id="node5" class="node"><title>Node5</title>
<g id="a_node5"><a xlink:title="स्पर्श, सम्पर्क, ललितलवंगलतापरिशीलनकोमलमलयसमीरे">
<polygon fill="none" stroke="blue" points="324.5,-198 259.5,-198 259.5,-162 324.5,-162 324.5,-198"/>
<text text-anchor="middle" x="292" y="-176.3" font-family="Times,serif" font-size="14.00">परिशीलन</text>
</a>
</g>
</g>
<!-- Node4&#45;&gt;Node5 -->
<g id="edge4" class="edge"><title>Node4&#45;&gt;Node5</title>
<path fill="none" stroke="black" d="M197.933,-180C214.096,-180 232.656,-180 248.929,-180"/>
<polygon fill="black" stroke="black" points="249.244,-183.5 259.244,-180 249.244,-176.5 249.244,-183.5"/>
<text text-anchor="middle" x="228" y="-183.8" font-family="Times,serif" font-size="14.00">ल्युट्</text>
</g>
</g>
</svg>
