<?xml version="1.0" encoding="UTF-8" standalone="no"?>
<!DOCTYPE svg PUBLIC "-//W3C//DTD SVG 1.1//EN"
 "http://www.w3.org/Graphics/SVG/1.1/DTD/svg11.dtd">
<!-- Generated by graphviz version 2.40.1 (20161225.0304)
 -->
<!-- Title: G Pages: 1 -->
<svg width="189pt" height="476pt"
 viewBox="0.00 0.00 189.09 476.00" xmlns="http://www.w3.org/2000/svg" xmlns:xlink="http://www.w3.org/1999/xlink">
<g id="graph0" class="graph" transform="scale(1 1) rotate(0) translate(4 472)">
<title>G</title>
<polygon fill="#ffffff" stroke="transparent" points="-4,4 -4,-472 185.0946,-472 185.0946,4 -4,4"/>
<!-- Node1 -->
<g id="node1" class="node">
<title>Node1</title>
<ellipse fill="none" stroke="#ff0000" cx="30.5473" cy="-234" rx="30.5947" ry="18"/>
<text text-anchor="middle" x="30.5473" y="-230.3" font-family="Times,serif" font-size="14.00" fill="#000000">स्फाय्</text>
</g>
<!-- Node2 -->
<g id="node2" class="node">
<title>Node2</title>
<g id="a_node2"><a xlink:title="मुँह का झाग या बुलबुला">
<polygon fill="none" stroke="#0000ff" points="181.0946,-468 127.0946,-468 127.0946,-432 181.0946,-432 181.0946,-468"/>
<text text-anchor="middle" x="154.0946" y="-446.3" font-family="Times,serif" font-size="14.00" fill="#000000">फेण</text>
</a>
</g>
</g>
<!-- Node1&#45;&gt;Node2 -->
<g id="edge1" class="edge">
<title>Node1&#45;&gt;Node2</title>
<path fill="none" stroke="#000000" d="M33.7352,-252.0383C39.3838,-280.5542 53.0836,-337.0131 79.0946,-378 90.4374,-395.8735 107.1285,-412.4818 121.8868,-425.2328"/>
<polygon fill="#000000" stroke="#000000" points="119.9295,-428.1593 129.8407,-431.9034 124.4276,-422.7958 119.9295,-428.1593"/>
<text text-anchor="middle" x="94.0946" y="-415.8" font-family="Times,serif" font-size="14.00" fill="#000000">न</text>
</g>
<!-- Node3 -->
<g id="node3" class="node">
<title>Node3</title>
<g id="a_node3"><a xlink:title="मुँह का झाग या बुलबुला">
<polygon fill="none" stroke="#0000ff" points="181.0946,-414 127.0946,-414 127.0946,-378 181.0946,-378 181.0946,-414"/>
<text text-anchor="middle" x="154.0946" y="-392.3" font-family="Times,serif" font-size="14.00" fill="#000000">फेन</text>
</a>
</g>
</g>
<!-- Node1&#45;&gt;Node3 -->
<g id="edge2" class="edge">
<title>Node1&#45;&gt;Node3</title>
<path fill="none" stroke="#000000" d="M37.2201,-251.5823C45.299,-271.5434 60.2021,-304.5086 79.0946,-329 91.1293,-344.6013 107.1281,-359.4676 121.2575,-371.2152"/>
<polygon fill="#000000" stroke="#000000" points="119.3457,-374.1712 129.3165,-377.7536 123.756,-368.7352 119.3457,-374.1712"/>
<text text-anchor="middle" x="94.0946" y="-362.8" font-family="Times,serif" font-size="14.00" fill="#000000">न</text>
</g>
<!-- Node4 -->
<g id="node4" class="node">
<title>Node4</title>
<g id="a_node4"><a xlink:title="सूजन, शोथ">
<polygon fill="none" stroke="#0000ff" points="181.0946,-360 127.0946,-360 127.0946,-324 181.0946,-324 181.0946,-360"/>
<text text-anchor="middle" x="154.0946" y="-338.3" font-family="Times,serif" font-size="14.00" fill="#000000">स्फाति</text>
</a>
</g>
</g>
<!-- Node1&#45;&gt;Node4 -->
<g id="edge3" class="edge">
<title>Node1&#45;&gt;Node4</title>
<path fill="none" stroke="#000000" d="M44.3016,-250.1775C53.6647,-260.8166 66.5841,-274.7919 79.0946,-286 91.6044,-297.2075 106.2385,-308.4937 119.2423,-317.968"/>
<polygon fill="#000000" stroke="#000000" points="117.3507,-320.9187 127.5135,-323.9134 121.4363,-315.2347 117.3507,-320.9187"/>
<text text-anchor="middle" x="94.0946" y="-313.8" font-family="Times,serif" font-size="14.00" fill="#000000">क्तिन्</text>
</g>
<!-- Node5 -->
<g id="node5" class="node">
<title>Node5</title>
<g id="a_node5"><a xlink:title="प्रचुरता, आधिक्य, पुष्कलता#विस्तृत, बड़ा, बढ़ा हुआ, फुलाया हुआ, स्फारफुल्लत्फणापीठनिर्यत् आदि#सूजन, वृद्धि, विकास, विस्तार">
<polygon fill="none" stroke="#0000ff" points="181.0946,-306 127.0946,-306 127.0946,-270 181.0946,-270 181.0946,-306"/>
<text text-anchor="middle" x="154.0946" y="-284.3" font-family="Times,serif" font-size="14.00" fill="#000000">स्फार</text>
</a>
</g>
</g>
<!-- Node1&#45;&gt;Node5 -->
<g id="edge4" class="edge">
<title>Node1&#45;&gt;Node5</title>
<path fill="none" stroke="#000000" d="M55.252,-244.7979C73.1245,-252.6096 97.5664,-263.2927 117.6729,-272.0808"/>
<polygon fill="#000000" stroke="#000000" points="116.2914,-275.2967 126.8562,-276.0946 119.0949,-268.8826 116.2914,-275.2967"/>
<text text-anchor="middle" x="94.0946" y="-270.8" font-family="Times,serif" font-size="14.00" fill="#000000">रक्</text>
</g>
<!-- Node6 -->
<g id="node6" class="node">
<title>Node6</title>
<g id="a_node6"><a xlink:title="चूतड़, कूल्हा, अंसस्फिक्पृष्ठपिण्दाद्यवयवसुलभान्युग्रपूतानि जग्ध्वा">
<polygon fill="none" stroke="#0000ff" points="181.0946,-252 127.0946,-252 127.0946,-216 181.0946,-216 181.0946,-252"/>
<text text-anchor="middle" x="154.0946" y="-230.3" font-family="Times,serif" font-size="14.00" fill="#000000">स्फिच्</text>
</a>
</g>
</g>
<!-- Node1&#45;&gt;Node6 -->
<g id="edge5" class="edge">
<title>Node1&#45;&gt;Node6</title>
<path fill="none" stroke="#000000" d="M61.4048,-234C78.2533,-234 99.2359,-234 116.9742,-234"/>
<polygon fill="#000000" stroke="#000000" points="116.9876,-237.5001 126.9876,-234 116.9875,-230.5001 116.9876,-237.5001"/>
<text text-anchor="middle" x="94.0946" y="-237.8" font-family="Times,serif" font-size="14.00" fill="#000000">डिच्</text>
</g>
<!-- Node7 -->
<g id="node7" class="node">
<title>Node7</title>
<g id="a_node7"><a xlink:title="प्रचुर, प्रभूत, बहुत">
<polygon fill="none" stroke="#0000ff" points="181.0946,-198 127.0946,-198 127.0946,-162 181.0946,-162 181.0946,-198"/>
<text text-anchor="middle" x="154.0946" y="-176.3" font-family="Times,serif" font-size="14.00" fill="#000000">स्फिर</text>
</a>
</g>
</g>
<!-- Node1&#45;&gt;Node7 -->
<g id="edge6" class="edge">
<title>Node1&#45;&gt;Node7</title>
<path fill="none" stroke="#000000" d="M55.252,-223.2021C73.1245,-215.3904 97.5664,-204.7073 117.6729,-195.9192"/>
<polygon fill="#000000" stroke="#000000" points="119.0949,-199.1174 126.8562,-191.9054 116.2914,-192.7033 119.0949,-199.1174"/>
<text text-anchor="middle" x="94.0946" y="-214.8" font-family="Times,serif" font-size="14.00" fill="#000000">किरच्</text>
</g>
<!-- Node8 -->
<g id="node8" class="node">
<title>Node8</title>
<g id="a_node8"><a xlink:title="वृद्धि, बढ़ती, विस्तार">
<polygon fill="none" stroke="#0000ff" points="181.0946,-144 127.0946,-144 127.0946,-108 181.0946,-108 181.0946,-144"/>
<text text-anchor="middle" x="154.0946" y="-122.3" font-family="Times,serif" font-size="14.00" fill="#000000">स्फीती</text>
</a>
</g>
</g>
<!-- Node1&#45;&gt;Node8 -->
<g id="edge7" class="edge">
<title>Node1&#45;&gt;Node8</title>
<path fill="none" stroke="#000000" d="M44.2198,-217.4492C53.5483,-206.5793 66.46,-192.3293 79.0946,-181 91.4214,-169.9467 105.906,-158.9241 118.8421,-149.681"/>
<polygon fill="#000000" stroke="#000000" points="120.9185,-152.4996 127.0812,-143.8815 116.8892,-146.7755 120.9185,-152.4996"/>
<text text-anchor="middle" x="94.0946" y="-184.8" font-family="Times,serif" font-size="14.00" fill="#000000">क्तिन्</text>
</g>
<!-- Node9 -->
<g id="node9" class="node">
<title>Node9</title>
<g id="a_node9"><a xlink:title="सूजा हुआ, बढ़ हुआ">
<polygon fill="none" stroke="#0000ff" points="181.0946,-90 127.0946,-90 127.0946,-54 181.0946,-54 181.0946,-90"/>
<text text-anchor="middle" x="154.0946" y="-68.3" font-family="Times,serif" font-size="14.00" fill="#000000">स्फोत</text>
</a>
</g>
</g>
<!-- Node1&#45;&gt;Node9 -->
<g id="edge8" class="edge">
<title>Node1&#45;&gt;Node9</title>
<path fill="none" stroke="#000000" d="M36.9336,-216.3516C44.845,-195.9523 59.688,-161.9859 79.0946,-137 90.8455,-121.8707 106.5356,-107.6228 120.527,-96.3442"/>
<polygon fill="#000000" stroke="#000000" points="122.823,-98.9914 128.526,-90.0625 118.4996,-93.4861 122.823,-98.9914"/>
<text text-anchor="middle" x="94.0946" y="-140.8" font-family="Times,serif" font-size="14.00" fill="#000000">क्त</text>
</g>
<!-- Node10 -->
<g id="node10" class="node">
<title>Node10</title>
<g id="a_node10"><a xlink:title="यज्ञों में प्रयुक्त होने वाला तलवार के आकार का एक उपकरण">
<polygon fill="none" stroke="#0000ff" points="181.0946,-36 127.0946,-36 127.0946,0 181.0946,0 181.0946,-36"/>
<text text-anchor="middle" x="154.0946" y="-14.3" font-family="Times,serif" font-size="14.00" fill="#000000">स्फ्य</text>
</a>
</g>
</g>
<!-- Node1&#45;&gt;Node10 -->
<g id="edge9" class="edge">
<title>Node1&#45;&gt;Node10</title>
<path fill="none" stroke="#000000" d="M33.6094,-215.6664C39.0857,-186.693 52.5536,-129.3674 79.0946,-88 90.2124,-70.6715 106.5815,-54.7199 121.1927,-42.4348"/>
<polygon fill="#000000" stroke="#000000" points="123.5452,-45.0327 129.0848,-36.0015 119.1223,-39.607 123.5452,-45.0327"/>
<text text-anchor="middle" x="94.0946" y="-91.8" font-family="Times,serif" font-size="14.00" fill="#000000">यत्</text>
</g>
</g>
</svg>
