<?xml version="1.0" encoding="UTF-8" standalone="no"?>
<!DOCTYPE svg PUBLIC "-//W3C//DTD SVG 1.1//EN"
 "http://www.w3.org/Graphics/SVG/1.1/DTD/svg11.dtd">
<!-- Generated by graphviz version 2.40.1 (20161225.0304)
 -->
<!-- Title: G Pages: 1 -->
<svg width="319pt" height="179pt"
 viewBox="0.00 0.00 318.69 179.00" xmlns="http://www.w3.org/2000/svg" xmlns:xlink="http://www.w3.org/1999/xlink">
<g id="graph0" class="graph" transform="scale(1 1) rotate(0) translate(4 175)">
<title>G</title>
<polygon fill="#ffffff" stroke="transparent" points="-4,4 -4,-175 314.6886,-175 314.6886,4 -4,4"/>
<!-- Node1 -->
<g id="node1" class="node">
<title>Node1</title>
<ellipse fill="none" stroke="#ff0000" cx="27.2976" cy="-72" rx="27.0966" ry="18"/>
<text text-anchor="middle" x="27.2976" y="-68.3" font-family="Times,serif" font-size="14.00" fill="#000000">स्फुट्</text>
</g>
<!-- Node2 -->
<g id="node2" class="node">
<title>Node2</title>
<ellipse fill="none" stroke="#ff0000" cx="151.6419" cy="-126" rx="37.0935" ry="18"/>
<text text-anchor="middle" x="151.6419" y="-122.3" font-family="Times,serif" font-size="14.00" fill="#000000">प्र_स्फुट्</text>
</g>
<!-- Node1&#45;&gt;Node2 -->
<g id="edge1" class="edge">
<title>Node1&#45;&gt;Node2</title>
<path fill="none" stroke="#000000" d="M50.1042,-81.9044C68.101,-89.72 93.5736,-100.7822 114.5027,-109.8713"/>
<polygon fill="#000000" stroke="#000000" points="113.1893,-113.1167 123.7559,-113.8898 115.9777,-106.696 113.1893,-113.1167"/>
</g>
<!-- Node5 -->
<g id="node5" class="node">
<title>Node5</title>
<g id="a_node5"><a xlink:title="साँप का प्रसारित किया हुआ फणा, निर्विषेणापि सर्पेण कर्तव्या महती फटा विषं भवतु मा भूद्वा फटाटोपो भयङ्करः">
<polygon fill="none" stroke="#0000ff" points="178.6419,-90 124.6419,-90 124.6419,-54 178.6419,-54 178.6419,-90"/>
<text text-anchor="middle" x="151.6419" y="-68.3" font-family="Times,serif" font-size="14.00" fill="#000000">फट</text>
</a>
</g>
</g>
<!-- Node1&#45;&gt;Node5 -->
<g id="edge4" class="edge">
<title>Node1&#45;&gt;Node5</title>
<path fill="none" stroke="#000000" d="M54.8936,-72C72.4006,-72 95.2709,-72 114.3797,-72"/>
<polygon fill="#000000" stroke="#000000" points="114.5508,-75.5001 124.5508,-72 114.5508,-68.5001 114.5508,-75.5001"/>
<text text-anchor="middle" x="84.5952" y="-75.8" font-family="Times,serif" font-size="14.00" fill="#000000">अच्</text>
</g>
<!-- Node6 -->
<g id="node6" class="node">
<title>Node6</title>
<g id="a_node6"><a xlink:title="एक पक्षीविशेष">
<polygon fill="none" stroke="#0000ff" points="183.6419,-36 119.6419,-36 119.6419,0 183.6419,0 183.6419,-36"/>
<text text-anchor="middle" x="151.6419" y="-14.3" font-family="Times,serif" font-size="14.00" fill="#000000">स्फोटिका</text>
</a>
</g>
</g>
<!-- Node1&#45;&gt;Node6 -->
<g id="edge5" class="edge">
<title>Node1&#45;&gt;Node6</title>
<path fill="none" stroke="#000000" d="M50.1042,-62.0956C66.9305,-54.7883 90.2917,-44.643 110.3646,-35.9258"/>
<polygon fill="#000000" stroke="#000000" points="111.8369,-39.1023 119.6151,-31.9085 109.0485,-32.6816 111.8369,-39.1023"/>
<text text-anchor="middle" x="84.5952" y="-55.8" font-family="Times,serif" font-size="14.00" fill="#000000">ण्वुल्</text>
</g>
<!-- Node3 -->
<g id="node3" class="node">
<title>Node3</title>
<g id="a_node3"><a xlink:title="खिला हुआ, विकसित, फूला हुआ, फूल आदि">
<polygon fill="none" stroke="#0000ff" points="306.6886,-171 252.6886,-171 252.6886,-135 306.6886,-135 306.6886,-171"/>
<text text-anchor="middle" x="279.6886" y="-149.3" font-family="Times,serif" font-size="14.00" fill="#000000">प्रस्फुट</text>
</a>
</g>
</g>
<!-- Node2&#45;&gt;Node3 -->
<g id="edge2" class="edge">
<title>Node2&#45;&gt;Node3</title>
<path fill="none" stroke="#000000" d="M185.956,-133.2355C203.5009,-136.935 224.8703,-141.441 242.772,-145.2158"/>
<polygon fill="#000000" stroke="#000000" points="242.0775,-148.6462 252.5845,-147.2848 243.5219,-141.7968 242.0775,-148.6462"/>
<text text-anchor="middle" x="218.6886" y="-144.8" font-family="Times,serif" font-size="14.00" fill="#000000">क</text>
</g>
<!-- Node4 -->
<g id="node4" class="node">
<title>Node4</title>
<g id="a_node4"><a xlink:title="फूट निकलना, खिलना, मुकुलित होना">
<polygon fill="none" stroke="#0000ff" points="310.6886,-117 248.6886,-117 248.6886,-81 310.6886,-81 310.6886,-117"/>
<text text-anchor="middle" x="279.6886" y="-95.3" font-family="Times,serif" font-size="14.00" fill="#000000">प्रस्फोटन</text>
</a>
</g>
</g>
<!-- Node2&#45;&gt;Node4 -->
<g id="edge3" class="edge">
<title>Node2&#45;&gt;Node4</title>
<path fill="none" stroke="#000000" d="M185.956,-118.7645C202.0291,-115.3753 221.312,-111.3093 238.198,-107.7487"/>
<polygon fill="#000000" stroke="#000000" points="239.2893,-111.0956 248.352,-105.6076 237.845,-104.2463 239.2893,-111.0956"/>
<text text-anchor="middle" x="218.6886" y="-117.8" font-family="Times,serif" font-size="14.00" fill="#000000">ल्युट्</text>
</g>
</g>
</svg>
