<?xml version="1.0" encoding="UTF-8" standalone="no"?>
<!DOCTYPE svg PUBLIC "-//W3C//DTD SVG 1.1//EN"
 "http://www.w3.org/Graphics/SVG/1.1/DTD/svg11.dtd">
<!-- Generated by graphviz version 2.36.0 (20140111.2315)
 -->
<!-- Title: G Pages: 1 -->
<svg width="474pt" height="125pt"
 viewBox="0.00 0.00 474.00 125.00" xmlns="http://www.w3.org/2000/svg" xmlns:xlink="http://www.w3.org/1999/xlink">
<g id="graph0" class="graph" transform="scale(1 1) rotate(0) translate(4 121)">
<title>G</title>
<polygon fill="white" stroke="none" points="-4,4 -4,-121 470,-121 470,4 -4,4"/>
<!-- Node1 -->
<g id="node1" class="node"><title>Node1</title>
<ellipse fill="none" stroke="red" cx="27" cy="-75" rx="27" ry="18"/>
<text text-anchor="middle" x="27" y="-71.3" font-family="Times,serif" font-size="14.00">श्रण्</text>
</g>
<!-- Node2 -->
<g id="node2" class="node"><title>Node2</title>
<ellipse fill="none" stroke="red" cx="134" cy="-99" rx="34.394" ry="18"/>
<text text-anchor="middle" x="134" y="-95.3" font-family="Times,serif" font-size="14.00">वि_श्रण्</text>
</g>
<!-- Node1&#45;&gt;Node2 -->
<g id="edge1" class="edge"><title>Node1&#45;&gt;Node2</title>
<path fill="none" stroke="black" d="M52.8835,-80.6877C64.5784,-83.3608 78.8292,-86.6181 92.0515,-89.6403"/>
<polygon fill="black" stroke="black" points="91.3743,-93.0757 101.903,-91.8921 92.9341,-86.2517 91.3743,-93.0757"/>
</g>
<!-- Node4 -->
<g id="node4" class="node"><title>Node4</title>
<ellipse fill="none" stroke="red" cx="134" cy="-45" rx="42.4939" ry="18"/>
<text text-anchor="middle" x="134" y="-41.3" font-family="Times,serif" font-size="14.00">श्रण्+णिच्</text>
</g>
<!-- Node1&#45;&gt;Node4 -->
<g id="edge3" class="edge"><title>Node1&#45;&gt;Node4</title>
<path fill="none" stroke="black" d="M52.0891,-68.1174C62.8862,-65.0325 75.9775,-61.2922 88.455,-57.7271"/>
<polygon fill="black" stroke="black" points="89.6209,-61.0342 98.2746,-54.9215 87.6978,-54.3035 89.6209,-61.0342"/>
</g>
<!-- Node3 -->
<g id="node3" class="node"><title>Node3</title>
<g id="a_node3"><a xlink:title="प्रदान करना, समर्पण करना, अनुदान, उपहार, दानविश्राणनाच्चान्यपयस्विनीनाम्">
<polygon fill="none" stroke="blue" points="317.5,-117 262.5,-117 262.5,-81 317.5,-81 317.5,-117"/>
<text text-anchor="middle" x="290" y="-95.3" font-family="Times,serif" font-size="14.00">विश्रणन</text>
</a>
</g>
</g>
<!-- Node2&#45;&gt;Node3 -->
<g id="edge2" class="edge"><title>Node2&#45;&gt;Node3</title>
<path fill="none" stroke="black" d="M168.796,-99C193.432,-99 226.793,-99 252.119,-99"/>
<polygon fill="black" stroke="black" points="252.432,-102.5 262.432,-99 252.432,-95.5001 252.432,-102.5"/>
<text text-anchor="middle" x="206" y="-102.8" font-family="Times,serif" font-size="14.00">ल्युट्</text>
</g>
<!-- Node5 -->
<g id="node5" class="node"><title>Node5</title>
<ellipse fill="none" stroke="red" cx="290" cy="-45" rx="53.8905" ry="18"/>
<text text-anchor="middle" x="290" y="-41.3" font-family="Times,serif" font-size="14.00">वि_श्रण्+णिच्</text>
</g>
<!-- Node4&#45;&gt;Node5 -->
<g id="edge4" class="edge"><title>Node4&#45;&gt;Node5</title>
<path fill="none" stroke="black" d="M176.269,-45C191.468,-45 209.054,-45 225.748,-45"/>
<polygon fill="black" stroke="black" points="225.999,-48.5001 235.999,-45 225.999,-41.5001 225.999,-48.5001"/>
</g>
<!-- Node6 -->
<g id="node6" class="node"><title>Node6</title>
<g id="a_node6"><a xlink:title="प्रदान करना, समर्पण करना, अनुदान, उपहार, दानविश्राणनाच्चान्यपयस्विनीनाम्">
<polygon fill="none" stroke="blue" points="464.5,-90 405.5,-90 405.5,-54 464.5,-54 464.5,-90"/>
<text text-anchor="middle" x="435" y="-68.3" font-family="Times,serif" font-size="14.00">विश्राणन</text>
</a>
</g>
</g>
<!-- Node5&#45;&gt;Node6 -->
<g id="edge5" class="edge"><title>Node5&#45;&gt;Node6</title>
<path fill="none" stroke="black" d="M337.428,-53.7661C356.107,-57.293 377.401,-61.3135 395.231,-64.68"/>
<polygon fill="black" stroke="black" points="394.808,-68.1618 405.283,-66.578 396.107,-61.2834 394.808,-68.1618"/>
<text text-anchor="middle" x="374" y="-65.8" font-family="Times,serif" font-size="14.00">ल्युट्</text>
</g>
<!-- Node7 -->
<g id="node7" class="node"><title>Node7</title>
<g id="a_node7"><a xlink:title="प्रदान किया गया, अर्पित किया गया, निःशेषविश्राणितकोशजातम्">
<polygon fill="none" stroke="blue" points="466,-36 404,-36 404,-0 466,-0 466,-36"/>
<text text-anchor="middle" x="435" y="-14.3" font-family="Times,serif" font-size="14.00">विश्राणित</text>
</a>
</g>
</g>
<!-- Node5&#45;&gt;Node7 -->
<g id="edge6" class="edge"><title>Node5&#45;&gt;Node7</title>
<path fill="none" stroke="black" d="M337.428,-36.2339C355.698,-32.7842 376.47,-28.8624 394.055,-25.542"/>
<polygon fill="black" stroke="black" points="394.821,-28.9594 403.998,-23.6647 393.522,-22.0809 394.821,-28.9594"/>
<text text-anchor="middle" x="374" y="-34.8" font-family="Times,serif" font-size="14.00">क्त</text>
</g>
</g>
</svg>
