<?xml version="1.0" encoding="UTF-8" standalone="no"?>
<!DOCTYPE svg PUBLIC "-//W3C//DTD SVG 1.1//EN"
 "http://www.w3.org/Graphics/SVG/1.1/DTD/svg11.dtd">
<!-- Generated by graphviz version 2.40.1 (20161225.0304)
 -->
<!-- Title: G Pages: 1 -->
<svg width="475pt" height="233pt"
 viewBox="0.00 0.00 474.68 233.00" xmlns="http://www.w3.org/2000/svg" xmlns:xlink="http://www.w3.org/1999/xlink">
<g id="graph0" class="graph" transform="scale(1 1) rotate(0) translate(4 229)">
<title>G</title>
<polygon fill="#ffffff" stroke="transparent" points="-4,4 -4,-229 470.6828,-229 470.6828,4 -4,4"/>
<!-- Node1 -->
<g id="node1" class="node">
<title>Node1</title>
<ellipse fill="none" stroke="#ff0000" cx="27" cy="-87" rx="27" ry="18"/>
<text text-anchor="middle" x="27" y="-83.3" font-family="Times,serif" font-size="14.00" fill="#000000">शम्</text>
</g>
<!-- Node2 -->
<g id="node2" class="node">
<title>Node2</title>
<ellipse fill="none" stroke="#ff0000" cx="140.2463" cy="-180" rx="42.4939" ry="18"/>
<text text-anchor="middle" x="140.2463" y="-176.3" font-family="Times,serif" font-size="14.00" fill="#000000">शम्+णिच्</text>
</g>
<!-- Node1&#45;&gt;Node2 -->
<g id="edge1" class="edge">
<title>Node1&#45;&gt;Node2</title>
<path fill="none" stroke="#000000" d="M41.8022,-102.2565C55.6961,-116.2045 77.3733,-137.0311 98,-153 100.9252,-155.2646 104.0435,-157.5215 107.2101,-159.7107"/>
<polygon fill="#000000" stroke="#000000" points="105.3438,-162.6729 115.606,-165.3068 109.2261,-156.8482 105.3438,-162.6729"/>
</g>
<!-- Node6 -->
<g id="node6" class="node">
<title>Node6</title>
<ellipse fill="none" stroke="#ff0000" cx="140.2463" cy="-126" rx="34.394" ry="18"/>
<text text-anchor="middle" x="140.2463" y="-122.3" font-family="Times,serif" font-size="14.00" fill="#000000">नि_शम्</text>
</g>
<!-- Node1&#45;&gt;Node6 -->
<g id="edge5" class="edge">
<title>Node1&#45;&gt;Node6</title>
<path fill="none" stroke="#000000" d="M51.0166,-95.2709C65.7793,-100.3549 85.0277,-106.9837 101.8661,-112.7826"/>
<polygon fill="#000000" stroke="#000000" points="100.8551,-116.1361 111.4498,-116.083 103.1344,-109.5175 100.8551,-116.1361"/>
</g>
<!-- Node8 -->
<g id="node8" class="node">
<title>Node8</title>
<g id="a_node8"><a xlink:title="प्रसन्न, भाग्यशाली">
<polygon fill="none" stroke="#0000ff" points="167.2463,-90 113.2463,-90 113.2463,-54 167.2463,-54 167.2463,-90"/>
<text text-anchor="middle" x="140.2463" y="-68.3" font-family="Times,serif" font-size="14.00" fill="#000000">शंव</text>
</a>
</g>
</g>
<!-- Node1&#45;&gt;Node8 -->
<g id="edge7" class="edge">
<title>Node1&#45;&gt;Node8</title>
<path fill="none" stroke="#000000" d="M53.5512,-83.4832C68.2453,-81.5369 86.7458,-79.0864 102.8788,-76.9495"/>
<polygon fill="#000000" stroke="#000000" points="103.621,-80.3818 113.0748,-75.599 102.7018,-73.4425 103.621,-80.3818"/>
<text text-anchor="middle" x="76" y="-83.8" font-family="Times,serif" font-size="14.00" fill="#000000">व</text>
</g>
<!-- Node9 -->
<g id="node9" class="node">
<title>Node9</title>
<ellipse fill="none" stroke="#ff0000" cx="140.2463" cy="-18" rx="38.1938" ry="18"/>
<text text-anchor="middle" x="140.2463" y="-14.3" font-family="Times,serif" font-size="14.00" fill="#000000">शम्+उद्</text>
</g>
<!-- Node1&#45;&gt;Node9 -->
<g id="edge8" class="edge">
<title>Node1&#45;&gt;Node9</title>
<path fill="none" stroke="#000000" d="M46.9855,-74.823C63.8351,-64.5567 88.2703,-49.6685 107.902,-37.7071"/>
<polygon fill="#000000" stroke="#000000" points="109.8209,-40.6364 116.5395,-32.4443 106.1787,-34.6586 109.8209,-40.6364"/>
</g>
<!-- Node3 -->
<g id="node3" class="node">
<title>Node3</title>
<ellipse fill="none" stroke="#ff0000" cx="293.0877" cy="-180" rx="53.8905" ry="18"/>
<text text-anchor="middle" x="293.0877" y="-176.3" font-family="Times,serif" font-size="14.00" fill="#000000">नि_शम्+णिच्</text>
</g>
<!-- Node2&#45;&gt;Node3 -->
<g id="edge2" class="edge">
<title>Node2&#45;&gt;Node3</title>
<path fill="none" stroke="#000000" d="M182.8211,-180C197.0952,-180 213.3436,-180 228.898,-180"/>
<polygon fill="#000000" stroke="#000000" points="228.9915,-183.5001 238.9914,-180 228.9914,-176.5001 228.9915,-183.5001"/>
</g>
<!-- Node4 -->
<g id="node4" class="node">
<title>Node4</title>
<g id="a_node4"><a xlink:title="देखना, अवलोकन करना">
<polygon fill="none" stroke="#0000ff" points="464.6828,-225 409.6828,-225 409.6828,-189 464.6828,-189 464.6828,-225"/>
<text text-anchor="middle" x="437.1828" y="-203.3" font-family="Times,serif" font-size="14.00" fill="#000000">निशमन</text>
</a>
</g>
</g>
<!-- Node3&#45;&gt;Node4 -->
<g id="edge3" class="edge">
<title>Node3&#45;&gt;Node4</title>
<path fill="none" stroke="#000000" d="M340.2698,-188.8408C359.5711,-192.4574 381.5861,-196.5825 399.7506,-199.9861"/>
<polygon fill="#000000" stroke="#000000" points="399.2031,-203.4443 409.6767,-201.846 400.4924,-196.5641 399.2031,-203.4443"/>
<text text-anchor="middle" x="377.6828" y="-200.8" font-family="Times,serif" font-size="14.00" fill="#000000">ल्युट्</text>
</g>
<!-- Node5 -->
<g id="node5" class="node">
<title>Node5</title>
<g id="a_node5"><a xlink:title="दर्शन करना, अवलोकन करना">
<polygon fill="none" stroke="#0000ff" points="466.6828,-171 407.6828,-171 407.6828,-135 466.6828,-135 466.6828,-171"/>
<text text-anchor="middle" x="437.1828" y="-149.3" font-family="Times,serif" font-size="14.00" fill="#000000">निशामन</text>
</a>
</g>
</g>
<!-- Node3&#45;&gt;Node5 -->
<g id="edge4" class="edge">
<title>Node3&#45;&gt;Node5</title>
<path fill="none" stroke="#000000" d="M340.2698,-171.1592C358.7952,-167.688 379.8205,-163.7483 397.5417,-160.4278"/>
<polygon fill="#000000" stroke="#000000" points="398.3657,-163.8344 407.55,-158.5525 397.0764,-156.9541 398.3657,-163.8344"/>
<text text-anchor="middle" x="377.6828" y="-168.8" font-family="Times,serif" font-size="14.00" fill="#000000">ल्युट्</text>
</g>
<!-- Node7 -->
<g id="node7" class="node">
<title>Node7</title>
<g id="a_node7"><a xlink:title="निरीक्षण करना, प्रत्यक्ष ज्ञान प्राप्त करना, दर्शन करना">
<polygon fill="none" stroke="#0000ff" points="320.0877,-144 266.0877,-144 266.0877,-108 320.0877,-108 320.0877,-144"/>
<text text-anchor="middle" x="293.0877" y="-122.3" font-family="Times,serif" font-size="14.00" fill="#000000">निशाम</text>
</a>
</g>
</g>
<!-- Node6&#45;&gt;Node7 -->
<g id="edge6" class="edge">
<title>Node6&#45;&gt;Node7</title>
<path fill="none" stroke="#000000" d="M174.9283,-126C198.9729,-126 230.9696,-126 255.6021,-126"/>
<polygon fill="#000000" stroke="#000000" points="255.6635,-129.5001 265.6634,-126 255.6634,-122.5001 255.6635,-129.5001"/>
<text text-anchor="middle" x="210.4925" y="-129.8" font-family="Times,serif" font-size="14.00" fill="#000000">घञ्</text>
</g>
<!-- Node10 -->
<g id="node10" class="node">
<title>Node10</title>
<ellipse fill="none" stroke="#ff0000" cx="293.0877" cy="-18" rx="54.6905" ry="18"/>
<text text-anchor="middle" x="293.0877" y="-14.3" font-family="Times,serif" font-size="14.00" fill="#000000">शम्+उद्+नम्</text>
</g>
<!-- Node9&#45;&gt;Node10 -->
<g id="edge9" class="edge">
<title>Node9&#45;&gt;Node10</title>
<path fill="none" stroke="#000000" d="M178.8146,-18C193.7543,-18 211.2762,-18 228.0497,-18"/>
<polygon fill="#000000" stroke="#000000" points="228.3671,-21.5001 238.3671,-18 228.367,-14.5001 228.3671,-21.5001"/>
</g>
<!-- Node11 -->
<g id="node11" class="node">
<title>Node11</title>
<g id="a_node11"><a xlink:title="ऊपर उठाया हुआ, ऊँचा किया हुआ">
<polygon fill="none" stroke="#0000ff" points="464.1828,-36 410.1828,-36 410.1828,0 464.1828,0 464.1828,-36"/>
<text text-anchor="middle" x="437.1828" y="-14.3" font-family="Times,serif" font-size="14.00" fill="#000000">समुन्नत</text>
</a>
</g>
</g>
<!-- Node10&#45;&gt;Node11 -->
<g id="edge10" class="edge">
<title>Node10&#45;&gt;Node11</title>
<path fill="none" stroke="#000000" d="M347.9749,-18C365.1641,-18 383.737,-18 399.4626,-18"/>
<polygon fill="#000000" stroke="#000000" points="399.8427,-21.5001 409.8426,-18 399.8426,-14.5001 399.8427,-21.5001"/>
<text text-anchor="middle" x="377.6828" y="-21.8" font-family="Times,serif" font-size="14.00" fill="#000000">क्त</text>
</g>
</g>
</svg>
