<?xml version="1.0" encoding="UTF-8" standalone="no"?>
<!DOCTYPE svg PUBLIC "-//W3C//DTD SVG 1.1//EN"
 "http://www.w3.org/Graphics/SVG/1.1/DTD/svg11.dtd">
<!-- Generated by graphviz version 2.40.1 (20161225.0304)
 -->
<!-- Title: G Pages: 1 -->
<svg width="181pt" height="152pt"
 viewBox="0.00 0.00 181.00 152.00" xmlns="http://www.w3.org/2000/svg" xmlns:xlink="http://www.w3.org/1999/xlink">
<g id="graph0" class="graph" transform="scale(1 1) rotate(0) translate(4 148)">
<title>G</title>
<polygon fill="#ffffff" stroke="transparent" points="-4,4 -4,-148 177,-148 177,4 -4,4"/>
<!-- Node1 -->
<g id="node1" class="node">
<title>Node1</title>
<ellipse fill="none" stroke="#ff0000" cx="27" cy="-72" rx="27" ry="18"/>
<text text-anchor="middle" x="27" y="-68.3" font-family="Times,serif" font-size="14.00" fill="#000000">श्लिष्</text>
</g>
<!-- Node2 -->
<g id="node2" class="node">
<title>Node2</title>
<g id="a_node2"><a xlink:title="कामुक, लंपट">
<polygon fill="none" stroke="#0000ff" points="173,-144 119,-144 119,-108 173,-108 173,-144"/>
<text text-anchor="middle" x="146" y="-122.3" font-family="Times,serif" font-size="14.00" fill="#000000">श्लिकु</text>
</a>
</g>
</g>
<!-- Node1&#45;&gt;Node2 -->
<g id="edge1" class="edge">
<title>Node1&#45;&gt;Node2</title>
<path fill="none" stroke="#000000" d="M49.383,-82.157C66.2778,-89.8236 89.8203,-100.5067 109.436,-109.4079"/>
<polygon fill="#000000" stroke="#000000" points="108.1511,-112.6683 118.7037,-113.6134 111.0437,-106.2939 108.1511,-112.6683"/>
<text text-anchor="middle" x="86.5" y="-108.8" font-family="Times,serif" font-size="14.00" fill="#000000">कु</text>
</g>
<!-- Node3 -->
<g id="node3" class="node">
<title>Node3</title>
<g id="a_node3"><a xlink:title="लंपट">
<polygon fill="none" stroke="#0000ff" points="173,-90 119,-90 119,-54 173,-54 173,-90"/>
<text text-anchor="middle" x="146" y="-68.3" font-family="Times,serif" font-size="14.00" fill="#000000">श्लिक्यु</text>
</a>
</g>
</g>
<!-- Node1&#45;&gt;Node3 -->
<g id="edge2" class="edge">
<title>Node1&#45;&gt;Node3</title>
<path fill="none" stroke="#000000" d="M54.0029,-72C70.1682,-72 90.95,-72 108.6703,-72"/>
<polygon fill="#000000" stroke="#000000" points="108.692,-75.5001 118.692,-72 108.692,-68.5001 108.692,-75.5001"/>
<text text-anchor="middle" x="86.5" y="-75.8" font-family="Times,serif" font-size="14.00" fill="#000000">क्यु</text>
</g>
<!-- Node4 -->
<g id="node4" class="node">
<title>Node4</title>
<g id="a_node4"><a xlink:title="कफ, बलगम, कफ की प्रकृति">
<polygon fill="none" stroke="#0000ff" points="173,-36 119,-36 119,0 173,0 173,-36"/>
<text text-anchor="middle" x="146" y="-14.3" font-family="Times,serif" font-size="14.00" fill="#000000">श्लेष्मन्</text>
</a>
</g>
</g>
<!-- Node1&#45;&gt;Node4 -->
<g id="edge3" class="edge">
<title>Node1&#45;&gt;Node4</title>
<path fill="none" stroke="#000000" d="M49.383,-61.843C66.2778,-54.1764 89.8203,-43.4933 109.436,-34.5921"/>
<polygon fill="#000000" stroke="#000000" points="111.0437,-37.7061 118.7037,-30.3866 108.1511,-31.3317 111.0437,-37.7061"/>
<text text-anchor="middle" x="86.5" y="-54.8" font-family="Times,serif" font-size="14.00" fill="#000000">मनिन्</text>
</g>
</g>
</svg>
