<?xml version="1.0" encoding="UTF-8" standalone="no"?>
<!DOCTYPE svg PUBLIC "-//W3C//DTD SVG 1.1//EN"
 "http://www.w3.org/Graphics/SVG/1.1/DTD/svg11.dtd">
<!-- Generated by graphviz version 2.40.1 (20161225.0304)
 -->
<!-- Title: G Pages: 1 -->
<svg width="171pt" height="98pt"
 viewBox="0.00 0.00 171.00 98.00" xmlns="http://www.w3.org/2000/svg" xmlns:xlink="http://www.w3.org/1999/xlink">
<g id="graph0" class="graph" transform="scale(1 1) rotate(0) translate(4 94)">
<title>G</title>
<polygon fill="#ffffff" stroke="transparent" points="-4,4 -4,-94 167,-94 167,4 -4,4"/>
<!-- Node1 -->
<g id="node1" class="node">
<title>Node1</title>
<ellipse fill="none" stroke="#ff0000" cx="27" cy="-45" rx="27" ry="18"/>
<text text-anchor="middle" x="27" y="-41.3" font-family="Times,serif" font-size="14.00" fill="#000000">शु</text>
</g>
<!-- Node2 -->
<g id="node2" class="node">
<title>Node2</title>
<g id="a_node2"><a xlink:title="सूजन, स्फीति">
<polygon fill="none" stroke="#0000ff" points="163,-90 109,-90 109,-54 163,-54 163,-90"/>
<text text-anchor="middle" x="136" y="-68.3" font-family="Times,serif" font-size="14.00" fill="#000000">शोथ</text>
</a>
</g>
</g>
<!-- Node1&#45;&gt;Node2 -->
<g id="edge1" class="edge">
<title>Node1&#45;&gt;Node2</title>
<path fill="none" stroke="#000000" d="M52.5557,-51.3303C66.2574,-54.7243 83.3975,-58.97 98.5731,-62.7291"/>
<polygon fill="#000000" stroke="#000000" points="98.1509,-66.2302 108.6991,-65.2374 99.834,-59.4356 98.1509,-66.2302"/>
<text text-anchor="middle" x="81.5" y="-63.8" font-family="Times,serif" font-size="14.00" fill="#000000">थन्</text>
</g>
<!-- Node3 -->
<g id="node3" class="node">
<title>Node3</title>
<g id="a_node3"><a xlink:title="सूजन, अर्बुद, रसौली, शोथ">
<polygon fill="none" stroke="#0000ff" points="163,-36 109,-36 109,0 163,0 163,-36"/>
<text text-anchor="middle" x="136" y="-14.3" font-family="Times,serif" font-size="14.00" fill="#000000">शोफ</text>
</a>
</g>
</g>
<!-- Node1&#45;&gt;Node3 -->
<g id="edge2" class="edge">
<title>Node1&#45;&gt;Node3</title>
<path fill="none" stroke="#000000" d="M52.5557,-38.6697C66.2574,-35.2757 83.3975,-31.03 98.5731,-27.2709"/>
<polygon fill="#000000" stroke="#000000" points="99.834,-30.5644 108.6991,-24.7626 98.1509,-23.7698 99.834,-30.5644"/>
<text text-anchor="middle" x="81.5" y="-36.8" font-family="Times,serif" font-size="14.00" fill="#000000">फन्</text>
</g>
</g>
</svg>
