<?xml version="1.0" encoding="UTF-8" standalone="no"?>
<!DOCTYPE svg PUBLIC "-//W3C//DTD SVG 1.1//EN"
 "http://www.w3.org/Graphics/SVG/1.1/DTD/svg11.dtd">
<!-- Generated by graphviz version 2.40.1 (20161225.0304)
 -->
<!-- Title: G Pages: 1 -->
<svg width="306pt" height="206pt"
 viewBox="0.00 0.00 306.19 206.00" xmlns="http://www.w3.org/2000/svg" xmlns:xlink="http://www.w3.org/1999/xlink">
<g id="graph0" class="graph" transform="scale(1 1) rotate(0) translate(4 202)">
<title>G</title>
<polygon fill="#ffffff" stroke="transparent" points="-4,4 -4,-202 302.1938,-202 302.1938,4 -4,4"/>
<!-- Node1 -->
<g id="node1" class="node">
<title>Node1</title>
<ellipse fill="none" stroke="#ff0000" cx="27" cy="-99" rx="27" ry="18"/>
<text text-anchor="middle" x="27" y="-95.3" font-family="Times,serif" font-size="14.00" fill="#000000">शुभ्</text>
</g>
<!-- Node2 -->
<g id="node2" class="node">
<title>Node2</title>
<ellipse fill="none" stroke="#ff0000" cx="142.0969" cy="-180" rx="35.194" ry="18"/>
<text text-anchor="middle" x="142.0969" y="-176.3" font-family="Times,serif" font-size="14.00" fill="#000000">नि_शुभ्</text>
</g>
<!-- Node1&#45;&gt;Node2 -->
<g id="edge1" class="edge">
<title>Node1&#45;&gt;Node2</title>
<path fill="none" stroke="#000000" d="M44.7841,-112.8009C52.9894,-119.0741 62.9076,-126.5246 72,-133 84.7729,-142.0965 99.1173,-151.8017 111.4868,-160.0167"/>
<polygon fill="#000000" stroke="#000000" points="109.8215,-163.1114 120.094,-165.7052 113.6811,-157.2716 109.8215,-163.1114"/>
</g>
<!-- Node4 -->
<g id="node4" class="node">
<title>Node4</title>
<g id="a_node4"><a xlink:title="चमकीला, उज्ज्वल">
<polygon fill="none" stroke="#0000ff" points="169.0969,-144 115.0969,-144 115.0969,-108 169.0969,-108 169.0969,-144"/>
<text text-anchor="middle" x="142.0969" y="-122.3" font-family="Times,serif" font-size="14.00" fill="#000000">शुभ</text>
</a>
</g>
</g>
<!-- Node1&#45;&gt;Node4 -->
<g id="edge3" class="edge">
<title>Node1&#45;&gt;Node4</title>
<path fill="none" stroke="#000000" d="M52.5437,-104.9922C68.0451,-108.6286 88.0891,-113.3306 105.2828,-117.364"/>
<polygon fill="#000000" stroke="#000000" points="104.4858,-120.7719 115.0209,-119.6484 106.0845,-113.9569 104.4858,-120.7719"/>
<text text-anchor="middle" x="80.5" y="-117.8" font-family="Times,serif" font-size="14.00" fill="#000000">क</text>
</g>
<!-- Node5 -->
<g id="node5" class="node">
<title>Node5</title>
<g id="a_node5"><a xlink:title="चमकीला, उज्ज्वल, देदीप्यमान">
<polygon fill="none" stroke="#0000ff" points="169.0969,-90 115.0969,-90 115.0969,-54 169.0969,-54 169.0969,-90"/>
<text text-anchor="middle" x="142.0969" y="-68.3" font-family="Times,serif" font-size="14.00" fill="#000000">शुभ्र</text>
</a>
</g>
</g>
<!-- Node1&#45;&gt;Node5 -->
<g id="edge4" class="edge">
<title>Node1&#45;&gt;Node5</title>
<path fill="none" stroke="#000000" d="M52.5437,-93.0078C68.0451,-89.3714 88.0891,-84.6694 105.2828,-80.636"/>
<polygon fill="#000000" stroke="#000000" points="106.0845,-84.0431 115.0209,-78.3516 104.4858,-77.2281 106.0845,-84.0431"/>
<text text-anchor="middle" x="80.5" y="-91.8" font-family="Times,serif" font-size="14.00" fill="#000000">रक्</text>
</g>
<!-- Node6 -->
<g id="node6" class="node">
<title>Node6</title>
<g id="a_node6"><a xlink:title="प्रकाश, क्रान्ति, दीप्ति, चमक">
<polygon fill="none" stroke="#0000ff" points="169.0969,-36 115.0969,-36 115.0969,0 169.0969,0 169.0969,-36"/>
<text text-anchor="middle" x="142.0969" y="-14.3" font-family="Times,serif" font-size="14.00" fill="#000000">शोभा</text>
</a>
</g>
</g>
<!-- Node1&#45;&gt;Node6 -->
<g id="edge5" class="edge">
<title>Node1&#45;&gt;Node6</title>
<path fill="none" stroke="#000000" d="M45.2938,-85.3782C53.4276,-79.3751 63.1475,-72.2744 72,-66 83.3151,-57.9802 95.7751,-49.3759 107.0124,-41.6985"/>
<polygon fill="#000000" stroke="#000000" points="109.0343,-44.5561 115.3281,-36.0332 105.0931,-38.7711 109.0343,-44.5561"/>
<text text-anchor="middle" x="80.5" y="-69.8" font-family="Times,serif" font-size="14.00" fill="#000000">अ</text>
</g>
<!-- Node3 -->
<g id="node3" class="node">
<title>Node3</title>
<g id="a_node3"><a xlink:title="वध करना, हत्या करना">
<polygon fill="none" stroke="#0000ff" points="298.1938,-198 237.1938,-198 237.1938,-162 298.1938,-162 298.1938,-198"/>
<text text-anchor="middle" x="267.6938" y="-176.3" font-family="Times,serif" font-size="14.00" fill="#000000">निशुम्भन</text>
</a>
</g>
</g>
<!-- Node2&#45;&gt;Node3 -->
<g id="edge2" class="edge">
<title>Node2&#45;&gt;Node3</title>
<path fill="none" stroke="#000000" d="M177.4169,-180C192.7726,-180 210.8587,-180 226.7942,-180"/>
<polygon fill="#000000" stroke="#000000" points="226.9053,-183.5001 236.9053,-180 226.9052,-176.5001 226.9053,-183.5001"/>
<text text-anchor="middle" x="207.1938" y="-183.8" font-family="Times,serif" font-size="14.00" fill="#000000">ल्युट्</text>
</g>
</g>
</svg>
