<?xml version="1.0" encoding="UTF-8" standalone="no"?>
<!DOCTYPE svg PUBLIC "-//W3C//DTD SVG 1.1//EN"
 "http://www.w3.org/Graphics/SVG/1.1/DTD/svg11.dtd">
<!-- Generated by graphviz version 2.40.1 (20161225.0304)
 -->
<!-- Title: G Pages: 1 -->
<svg width="324pt" height="530pt"
 viewBox="0.00 0.00 324.49 530.00" xmlns="http://www.w3.org/2000/svg" xmlns:xlink="http://www.w3.org/1999/xlink">
<g id="graph0" class="graph" transform="scale(1 1) rotate(0) translate(4 526)">
<title>G</title>
<polygon fill="#ffffff" stroke="transparent" points="-4,4 -4,-526 320.4925,-526 320.4925,4 -4,4"/>
<!-- Node1 -->
<g id="node1" class="node">
<title>Node1</title>
<ellipse fill="none" stroke="#ff0000" cx="27" cy="-234" rx="27" ry="18"/>
<text text-anchor="middle" x="27" y="-230.3" font-family="Times,serif" font-size="14.00" fill="#000000">स्वन्</text>
</g>
<!-- Node2 -->
<g id="node2" class="node">
<title>Node2</title>
<ellipse fill="none" stroke="#ff0000" cx="152.2463" cy="-477" rx="42.4939" ry="18"/>
<text text-anchor="middle" x="152.2463" y="-473.3" font-family="Times,serif" font-size="14.00" fill="#000000">अनु_स्वन्</text>
</g>
<!-- Node1&#45;&gt;Node2 -->
<g id="edge1" class="edge">
<title>Node1&#45;&gt;Node2</title>
<path fill="none" stroke="#000000" d="M32.7998,-251.8143C44.4865,-286.3999 72.9441,-364.3862 110,-423 116.1699,-432.7593 123.7294,-442.8756 130.7397,-451.6773"/>
<polygon fill="#000000" stroke="#000000" points="128.205,-454.1079 137.2294,-459.6587 133.6362,-449.6917 128.205,-454.1079"/>
</g>
<!-- Node4 -->
<g id="node4" class="node">
<title>Node4</title>
<ellipse fill="none" stroke="#ff0000" cx="152.2463" cy="-396" rx="38.1938" ry="18"/>
<text text-anchor="middle" x="152.2463" y="-392.3" font-family="Times,serif" font-size="14.00" fill="#000000">नि_स्वन्</text>
</g>
<!-- Node1&#45;&gt;Node4 -->
<g id="edge3" class="edge">
<title>Node1&#45;&gt;Node4</title>
<path fill="none" stroke="#000000" d="M34.583,-251.461C47.163,-278.9486 74.5172,-332.8929 110,-369 112.5929,-371.6386 115.4893,-374.1452 118.5169,-376.491"/>
<polygon fill="#000000" stroke="#000000" points="116.5368,-379.3775 126.7192,-382.3048 120.5847,-373.6666 116.5368,-379.3775"/>
</g>
<!-- Node7 -->
<g id="node7" class="node">
<title>Node7</title>
<ellipse fill="none" stroke="#ff0000" cx="152.2463" cy="-342" rx="35.9954" ry="18"/>
<text text-anchor="middle" x="152.2463" y="-338.3" font-family="Times,serif" font-size="14.00" fill="#000000">प्र_स्वन्</text>
</g>
<!-- Node1&#45;&gt;Node7 -->
<g id="edge6" class="edge">
<title>Node1&#45;&gt;Node7</title>
<path fill="none" stroke="#000000" d="M41.1434,-249.5989C57.0212,-266.6667 83.9795,-294.3452 110,-315 113.298,-317.6179 116.8581,-320.2106 120.4635,-322.694"/>
<polygon fill="#000000" stroke="#000000" points="118.586,-325.6485 128.8563,-328.251 122.4505,-319.8119 118.586,-325.6485"/>
</g>
<!-- Node9 -->
<g id="node9" class="node">
<title>Node9</title>
<ellipse fill="none" stroke="#ff0000" cx="152.2463" cy="-288" rx="37.8943" ry="18"/>
<text text-anchor="middle" x="152.2463" y="-284.3" font-family="Times,serif" font-size="14.00" fill="#000000">वि_स्वन्</text>
</g>
<!-- Node1&#45;&gt;Node9 -->
<g id="edge8" class="edge">
<title>Node1&#45;&gt;Node9</title>
<path fill="none" stroke="#000000" d="M49.6812,-243.779C67.7759,-251.5805 93.5065,-262.6743 114.6685,-271.7983"/>
<polygon fill="#000000" stroke="#000000" points="113.4577,-275.0877 124.0263,-275.833 116.2292,-268.6597 113.4577,-275.0877"/>
</g>
<!-- Node12 -->
<g id="node12" class="node">
<title>Node12</title>
<polygon fill="none" stroke="#0000ff" points="179.2463,-252 125.2463,-252 125.2463,-216 179.2463,-216 179.2463,-252"/>
<text text-anchor="middle" x="152.2463" y="-230.3" font-family="Times,serif" font-size="14.00" fill="#000000">स्वन</text>
</g>
<!-- Node1&#45;&gt;Node12 -->
<g id="edge11" class="edge">
<title>Node1&#45;&gt;Node12</title>
<path fill="none" stroke="#000000" d="M54.1766,-234C71.9841,-234 95.4935,-234 115.0302,-234"/>
<polygon fill="#000000" stroke="#000000" points="115.1228,-237.5001 125.1227,-234 115.1227,-230.5001 115.1228,-237.5001"/>
<text text-anchor="middle" x="82" y="-237.8" font-family="Times,serif" font-size="14.00" fill="#000000">अप्</text>
</g>
<!-- Node13 -->
<g id="node13" class="node">
<title>Node13</title>
<g id="a_node13"><a xlink:title="ध्वनित, शब्दायमान, कोलाहल करने वाला">
<polygon fill="none" stroke="#0000ff" points="179.2463,-198 125.2463,-198 125.2463,-162 179.2463,-162 179.2463,-198"/>
<text text-anchor="middle" x="152.2463" y="-176.3" font-family="Times,serif" font-size="14.00" fill="#000000">स्वनित</text>
</a>
</g>
</g>
<!-- Node1&#45;&gt;Node13 -->
<g id="edge12" class="edge">
<title>Node1&#45;&gt;Node13</title>
<path fill="none" stroke="#000000" d="M49.6812,-224.221C68.0204,-216.314 94.2033,-205.0253 115.5239,-195.8329"/>
<polygon fill="#000000" stroke="#000000" points="117.135,-198.9498 124.9321,-191.7765 114.3635,-192.5218 117.135,-198.9498"/>
<text text-anchor="middle" x="82" y="-217.8" font-family="Times,serif" font-size="14.00" fill="#000000">क्त</text>
</g>
<!-- Node14 -->
<g id="node14" class="node">
<title>Node14</title>
<g id="a_node14"><a xlink:title="ध्वनि, कोलाहल">
<polygon fill="none" stroke="#0000ff" points="179.2463,-144 125.2463,-144 125.2463,-108 179.2463,-108 179.2463,-144"/>
<text text-anchor="middle" x="152.2463" y="-122.3" font-family="Times,serif" font-size="14.00" fill="#000000">स्वनि</text>
</a>
</g>
</g>
<!-- Node1&#45;&gt;Node14 -->
<g id="edge13" class="edge">
<title>Node1&#45;&gt;Node14</title>
<path fill="none" stroke="#000000" d="M41.0313,-218.2579C56.8111,-201.0647 83.684,-173.2769 110,-153 112.0513,-151.4195 114.1963,-149.8416 116.3856,-148.2873"/>
<polygon fill="#000000" stroke="#000000" points="118.6537,-150.977 124.9445,-142.452 114.7105,-145.1933 118.6537,-150.977"/>
<text text-anchor="middle" x="82" y="-188.8" font-family="Times,serif" font-size="14.00" fill="#000000">इन्</text>
</g>
<!-- Node15 -->
<g id="node15" class="node">
<title>Node15</title>
<g id="a_node15"><a xlink:title="अन्तर्जात, प्राकृतिक, अन्तर्हित, विशेष, अन्तर्जन्मासूर्यापाये न खलु कमलं पुष्यति स्वामभिख्याम्">
<polygon fill="none" stroke="#0000ff" points="179.2463,-90 125.2463,-90 125.2463,-54 179.2463,-54 179.2463,-90"/>
<text text-anchor="middle" x="152.2463" y="-68.3" font-family="Times,serif" font-size="14.00" fill="#000000">स्व</text>
</a>
</g>
</g>
<!-- Node1&#45;&gt;Node15 -->
<g id="edge14" class="edge">
<title>Node1&#45;&gt;Node15</title>
<path fill="none" stroke="#000000" d="M34.2478,-216.1962C46.3683,-188.2387 73.1045,-133.6623 110,-99 112.1411,-96.9885 114.4519,-95.0381 116.8504,-93.1677"/>
<polygon fill="#000000" stroke="#000000" points="119.1506,-95.8246 125.2244,-87.1437 115.0628,-90.1422 119.1506,-95.8246"/>
<text text-anchor="middle" x="82" y="-146.8" font-family="Times,serif" font-size="14.00" fill="#000000">ड</text>
</g>
<!-- Node16 -->
<g id="node16" class="node">
<title>Node16</title>
<g id="a_node16"><a xlink:title="ध्वनि, कोलाहल">
<polygon fill="none" stroke="#0000ff" points="179.2463,-36 125.2463,-36 125.2463,0 179.2463,0 179.2463,-36"/>
<text text-anchor="middle" x="152.2463" y="-14.3" font-family="Times,serif" font-size="14.00" fill="#000000">स्वान</text>
</a>
</g>
</g>
<!-- Node1&#45;&gt;Node16 -->
<g id="edge15" class="edge">
<title>Node1&#45;&gt;Node16</title>
<path fill="none" stroke="#000000" d="M30.3096,-215.8589C37.9338,-178.9379 60.0519,-94.3858 110,-45 112.089,-42.9345 114.3615,-40.9443 116.7327,-39.0455"/>
<polygon fill="#000000" stroke="#000000" points="119.044,-41.6915 125.0523,-32.9651 114.9135,-36.04 119.044,-41.6915"/>
<text text-anchor="middle" x="82" y="-98.8" font-family="Times,serif" font-size="14.00" fill="#000000">घञ्</text>
</g>
<!-- Node3 -->
<g id="node3" class="node">
<title>Node3</title>
<g id="a_node3"><a xlink:title="अनुरुप शब्द करना">
<polygon fill="none" stroke="#0000ff" points="316.4925,-522 254.4925,-522 254.4925,-486 316.4925,-486 316.4925,-522"/>
<text text-anchor="middle" x="285.4925" y="-500.3" font-family="Times,serif" font-size="14.00" fill="#000000">अनुस्वान</text>
</a>
</g>
</g>
<!-- Node2&#45;&gt;Node3 -->
<g id="edge2" class="edge">
<title>Node2&#45;&gt;Node3</title>
<path fill="none" stroke="#000000" d="M190.4293,-484.7371C207.4007,-488.1761 227.4032,-492.2292 244.6708,-495.7282"/>
<polygon fill="#000000" stroke="#000000" points="243.9822,-499.1597 254.4781,-497.7155 245.3724,-492.2991 243.9822,-499.1597"/>
<text text-anchor="middle" x="224.4925" y="-496.8" font-family="Times,serif" font-size="14.00" fill="#000000">घञ्</text>
</g>
<!-- Node5 -->
<g id="node5" class="node">
<title>Node5</title>
<g id="a_node5"><a xlink:title="शब्द, आवाज">
<polygon fill="none" stroke="#0000ff" points="312.4925,-468 258.4925,-468 258.4925,-432 312.4925,-432 312.4925,-468"/>
<text text-anchor="middle" x="285.4925" y="-446.3" font-family="Times,serif" font-size="14.00" fill="#000000">निस्वन</text>
</a>
</g>
</g>
<!-- Node4&#45;&gt;Node5 -->
<g id="edge4" class="edge">
<title>Node4&#45;&gt;Node5</title>
<path fill="none" stroke="#000000" d="M181.4877,-407.8505C201.2849,-415.8736 227.5931,-426.5354 248.7963,-435.1283"/>
<polygon fill="#000000" stroke="#000000" points="247.5549,-438.4017 258.1374,-438.9139 250.1841,-431.9142 247.5549,-438.4017"/>
<text text-anchor="middle" x="224.4925" y="-432.8" font-family="Times,serif" font-size="14.00" fill="#000000">अप्</text>
</g>
<!-- Node6 -->
<g id="node6" class="node">
<title>Node6</title>
<g id="a_node6"><a xlink:title="शब्द, आवाज">
<polygon fill="none" stroke="#0000ff" points="313.4925,-414 257.4925,-414 257.4925,-378 313.4925,-378 313.4925,-414"/>
<text text-anchor="middle" x="285.4925" y="-392.3" font-family="Times,serif" font-size="14.00" fill="#000000">निस्वान</text>
</a>
</g>
</g>
<!-- Node4&#45;&gt;Node6 -->
<g id="edge5" class="edge">
<title>Node4&#45;&gt;Node6</title>
<path fill="none" stroke="#000000" d="M190.7866,-396C208.3541,-396 229.1102,-396 246.7071,-396"/>
<polygon fill="#000000" stroke="#000000" points="247.1988,-399.5001 257.1987,-396 247.1987,-392.5001 247.1988,-399.5001"/>
<text text-anchor="middle" x="224.4925" y="-399.8" font-family="Times,serif" font-size="14.00" fill="#000000">घञ्</text>
</g>
<!-- Node8 -->
<g id="node8" class="node">
<title>Node8</title>
<g id="a_node8"><a xlink:title="ऊँची आवाज, प्रस्वानः">
<polygon fill="none" stroke="#0000ff" points="312.4925,-360 258.4925,-360 258.4925,-324 312.4925,-324 312.4925,-360"/>
<text text-anchor="middle" x="285.4925" y="-338.3" font-family="Times,serif" font-size="14.00" fill="#000000">प्रस्वन</text>
</a>
</g>
</g>
<!-- Node7&#45;&gt;Node8 -->
<g id="edge7" class="edge">
<title>Node7&#45;&gt;Node8</title>
<path fill="none" stroke="#000000" d="M188.3046,-342C206.8172,-342 229.3497,-342 248.0559,-342"/>
<polygon fill="#000000" stroke="#000000" points="248.2859,-345.5001 258.2858,-342 248.2858,-338.5001 248.2859,-345.5001"/>
<text text-anchor="middle" x="224.4925" y="-345.8" font-family="Times,serif" font-size="14.00" fill="#000000">अप्</text>
</g>
<!-- Node10 -->
<g id="node10" class="node">
<title>Node10</title>
<g id="a_node10"><a xlink:title="भोजन करना, खाना">
<polygon fill="none" stroke="#0000ff" points="312.4925,-306 258.4925,-306 258.4925,-270 312.4925,-270 312.4925,-306"/>
<text text-anchor="middle" x="285.4925" y="-284.3" font-family="Times,serif" font-size="14.00" fill="#000000">विष्बाण</text>
</a>
</g>
</g>
<!-- Node9&#45;&gt;Node10 -->
<g id="edge9" class="edge">
<title>Node9&#45;&gt;Node10</title>
<path fill="none" stroke="#000000" d="M190.0729,-288C208.2103,-288 229.8737,-288 247.9713,-288"/>
<polygon fill="#000000" stroke="#000000" points="248.1613,-291.5001 258.1613,-288 248.1612,-284.5001 248.1613,-291.5001"/>
<text text-anchor="middle" x="224.4925" y="-291.8" font-family="Times,serif" font-size="14.00" fill="#000000">घञ्</text>
</g>
<!-- Node11 -->
<g id="node11" class="node">
<title>Node11</title>
<g id="a_node11"><a xlink:title="भोजन करना, खाना">
<polygon fill="none" stroke="#0000ff" points="314.4925,-252 256.4925,-252 256.4925,-216 314.4925,-216 314.4925,-252"/>
<text text-anchor="middle" x="285.4925" y="-230.3" font-family="Times,serif" font-size="14.00" fill="#000000">विष्वणन</text>
</a>
</g>
</g>
<!-- Node9&#45;&gt;Node11 -->
<g id="edge10" class="edge">
<title>Node9&#45;&gt;Node11</title>
<path fill="none" stroke="#000000" d="M181.1587,-276.2828C200.4075,-268.482 225.9184,-258.1433 246.8958,-249.6419"/>
<polygon fill="#000000" stroke="#000000" points="248.2231,-252.8805 256.1763,-245.8808 245.5939,-246.393 248.2231,-252.8805"/>
<text text-anchor="middle" x="224.4925" y="-265.8" font-family="Times,serif" font-size="14.00" fill="#000000">ल्युट्</text>
</g>
</g>
</svg>
