<?xml version="1.0" encoding="UTF-8" standalone="no"?>
<!DOCTYPE svg PUBLIC "-//W3C//DTD SVG 1.1//EN"
 "http://www.w3.org/Graphics/SVG/1.1/DTD/svg11.dtd">
<!-- Generated by graphviz version 2.40.1 (20161225.0304)
 -->
<!-- Title: G Pages: 1 -->
<svg width="522pt" height="1016pt"
 viewBox="0.00 0.00 521.88 1016.00" xmlns="http://www.w3.org/2000/svg" xmlns:xlink="http://www.w3.org/1999/xlink">
<g id="graph0" class="graph" transform="scale(1 1) rotate(0) translate(4 1012)">
<title>G</title>
<polygon fill="#ffffff" stroke="transparent" points="-4,4 -4,-1012 517.8824,-1012 517.8824,4 -4,4"/>
<!-- Node1 -->
<g id="node1" class="node">
<title>Node1</title>
<ellipse fill="none" stroke="#ff0000" cx="27" cy="-450" rx="27" ry="18"/>
<text text-anchor="middle" x="27" y="-446.3" font-family="Times,serif" font-size="14.00" fill="#000000">स्तृ</text>
</g>
<!-- Node2 -->
<g id="node2" class="node">
<title>Node2</title>
<ellipse fill="none" stroke="#ff0000" cx="168.5963" cy="-966" rx="37.8943" ry="18"/>
<text text-anchor="middle" x="168.5963" y="-962.3" font-family="Times,serif" font-size="14.00" fill="#000000">अनु_स्तृ</text>
</g>
<!-- Node1&#45;&gt;Node2 -->
<g id="edge1" class="edge">
<title>Node1&#45;&gt;Node2</title>
<path fill="none" stroke="#000000" d="M27.3798,-468.0819C29.4358,-532.7251 42.6116,-756.928 127,-915 132.0043,-924.3738 138.8622,-933.6676 145.5666,-941.7024"/>
<polygon fill="#000000" stroke="#000000" points="142.9445,-944.0209 152.1455,-949.2739 148.2285,-939.4297 142.9445,-944.0209"/>
</g>
<!-- Node4 -->
<g id="node4" class="node">
<title>Node4</title>
<ellipse fill="none" stroke="#ff0000" cx="168.5963" cy="-888" rx="41.6928" ry="18"/>
<text text-anchor="middle" x="168.5963" y="-884.3" font-family="Times,serif" font-size="14.00" fill="#000000">स्तृ+ल्युट्</text>
</g>
<!-- Node1&#45;&gt;Node4 -->
<g id="edge3" class="edge">
<title>Node1&#45;&gt;Node4</title>
<path fill="none" stroke="#000000" d="M29.6343,-467.924C35.4169,-505.743 50.446,-596.2856 72,-670 91.1105,-735.3577 98.1946,-751.2984 127,-813 134.7501,-829.6009 144.6599,-847.5703 152.8627,-861.7574"/>
<polygon fill="#000000" stroke="#000000" points="149.8961,-863.6177 157.9668,-870.4817 155.938,-860.0829 149.8961,-863.6177"/>
</g>
<!-- Node7 -->
<g id="node7" class="node">
<title>Node7</title>
<ellipse fill="none" stroke="#ff0000" cx="168.5963" cy="-786" rx="34.394" ry="18"/>
<text text-anchor="middle" x="168.5963" y="-782.3" font-family="Times,serif" font-size="14.00" fill="#000000">आ_स्तृ</text>
</g>
<!-- Node1&#45;&gt;Node7 -->
<g id="edge6" class="edge">
<title>Node1&#45;&gt;Node7</title>
<path fill="none" stroke="#000000" d="M30.9805,-467.9265C41.7492,-514.2802 74.2475,-641.0384 127,-735 132.2858,-744.415 139.3373,-753.8286 146.1307,-761.9589"/>
<polygon fill="#000000" stroke="#000000" points="143.5696,-764.3479 152.763,-769.6139 148.8601,-759.7641 143.5696,-764.3479"/>
</g>
<!-- Node11 -->
<g id="node11" class="node">
<title>Node11</title>
<ellipse fill="none" stroke="#ff0000" cx="168.5963" cy="-708" rx="36.2938" ry="18"/>
<text text-anchor="middle" x="168.5963" y="-704.3" font-family="Times,serif" font-size="14.00" fill="#000000">उप्_स्तृ</text>
</g>
<!-- Node1&#45;&gt;Node11 -->
<g id="edge10" class="edge">
<title>Node1&#45;&gt;Node11</title>
<path fill="none" stroke="#000000" d="M36.3392,-467.1759C53.9878,-499.6149 93.4756,-572.1048 127,-633 135.8946,-649.1565 145.9201,-667.2369 153.8999,-681.5969"/>
<polygon fill="#000000" stroke="#000000" points="150.8974,-683.3995 158.8158,-690.4387 157.0154,-679.9979 150.8974,-683.3995"/>
</g>
<!-- Node13 -->
<g id="node13" class="node">
<title>Node13</title>
<ellipse fill="none" stroke="#ff0000" cx="168.5963" cy="-606" rx="36.2938" ry="18"/>
<text text-anchor="middle" x="168.5963" y="-602.3" font-family="Times,serif" font-size="14.00" fill="#000000">परि_स्तृ</text>
</g>
<!-- Node1&#45;&gt;Node13 -->
<g id="edge12" class="edge">
<title>Node1&#45;&gt;Node13</title>
<path fill="none" stroke="#000000" d="M41.0945,-465.5282C65.7283,-492.6679 116.7936,-548.9278 146.2773,-581.4107"/>
<polygon fill="#000000" stroke="#000000" points="143.9664,-584.0722 153.279,-589.1246 149.1496,-579.3675 143.9664,-584.0722"/>
</g>
<!-- Node15 -->
<g id="node15" class="node">
<title>Node15</title>
<ellipse fill="none" stroke="#ff0000" cx="168.5963" cy="-450" rx="32.4942" ry="18"/>
<text text-anchor="middle" x="168.5963" y="-446.3" font-family="Times,serif" font-size="14.00" fill="#000000">वि_स्तृ</text>
</g>
<!-- Node1&#45;&gt;Node15 -->
<g id="edge14" class="edge">
<title>Node1&#45;&gt;Node15</title>
<path fill="none" stroke="#000000" d="M54.3012,-450C74.5114,-450 102.4425,-450 125.634,-450"/>
<polygon fill="#000000" stroke="#000000" points="125.9113,-453.5001 135.9112,-450 125.9112,-446.5001 125.9113,-453.5001"/>
</g>
<!-- Node18 -->
<g id="node18" class="node">
<title>Node18</title>
<ellipse fill="none" stroke="#ff0000" cx="168.5963" cy="-315" rx="30.5947" ry="18"/>
<text text-anchor="middle" x="168.5963" y="-311.3" font-family="Times,serif" font-size="14.00" fill="#000000">प्र_स्तृ</text>
</g>
<!-- Node1&#45;&gt;Node18 -->
<g id="edge17" class="edge">
<title>Node1&#45;&gt;Node18</title>
<path fill="none" stroke="#000000" d="M42.6943,-435.0368C67.5471,-411.3418 116.1086,-365.0426 145.1186,-337.384"/>
<polygon fill="#000000" stroke="#000000" points="147.5741,-339.8788 152.3965,-330.4451 142.7437,-334.8124 147.5741,-339.8788"/>
</g>
<!-- Node29 -->
<g id="node29" class="node">
<title>Node29</title>
<ellipse fill="none" stroke="#ff0000" cx="168.5963" cy="-261" rx="37.0935" ry="18"/>
<text text-anchor="middle" x="168.5963" y="-257.3" font-family="Times,serif" font-size="14.00" fill="#000000">सम्_स्तृ</text>
</g>
<!-- Node1&#45;&gt;Node29 -->
<g id="edge28" class="edge">
<title>Node1&#45;&gt;Node29</title>
<path fill="none" stroke="#000000" d="M34.3925,-432.5643C48.559,-400.7388 82.15,-332.4269 127,-288 129.6646,-285.3606 132.6268,-282.8376 135.7082,-280.4679"/>
<polygon fill="#000000" stroke="#000000" points="137.8845,-283.2154 144.0206,-274.5783 133.8376,-277.5037 137.8845,-283.2154"/>
</g>
<!-- Node31 -->
<g id="node31" class="node">
<title>Node31</title>
<g id="a_node31"><a xlink:title="शय्या, पलंग">
<polygon fill="none" stroke="#0000ff" points="198.0963,-225 139.0963,-225 139.0963,-189 198.0963,-189 198.0963,-225"/>
<text text-anchor="middle" x="168.5963" y="-203.3" font-family="Times,serif" font-size="14.00" fill="#000000">स्तरिमन्</text>
</a>
</g>
</g>
<!-- Node1&#45;&gt;Node31 -->
<g id="edge30" class="edge">
<title>Node1&#45;&gt;Node31</title>
<path fill="none" stroke="#000000" d="M29.288,-431.8508C33.7489,-401.2832 45.5841,-338.3339 72,-292 86.0999,-267.2685 110.1002,-246.0957 130.6494,-231.0674"/>
<polygon fill="#000000" stroke="#000000" points="132.7763,-233.8499 138.9117,-225.2123 128.7289,-228.1386 132.7763,-233.8499"/>
<text text-anchor="middle" x="90.5" y="-295.8" font-family="Times,serif" font-size="14.00" fill="#000000">इमनिच्</text>
</g>
<!-- Node32 -->
<g id="node32" class="node">
<title>Node32</title>
<g id="a_node32"><a xlink:title="यज्ञ में स्थानापन्न ऋत्विक्">
<polygon fill="none" stroke="#0000ff" points="195.5963,-171 141.5963,-171 141.5963,-135 195.5963,-135 195.5963,-171"/>
<text text-anchor="middle" x="168.5963" y="-149.3" font-family="Times,serif" font-size="14.00" fill="#000000">स्तीर्वि</text>
</a>
</g>
</g>
<!-- Node1&#45;&gt;Node32 -->
<g id="edge31" class="edge">
<title>Node1&#45;&gt;Node32</title>
<path fill="none" stroke="#000000" d="M29.2496,-431.7588C35.1862,-385.4996 52.1877,-264.8147 72,-230 86.0149,-205.3726 111.2939,-185.6556 132.4767,-172.3403"/>
<polygon fill="#000000" stroke="#000000" points="134.5129,-175.1992 141.2594,-167.0301 130.8911,-169.209 134.5129,-175.1992"/>
<text text-anchor="middle" x="90.5" y="-233.8" font-family="Times,serif" font-size="14.00" fill="#000000">क्विन्</text>
</g>
<!-- Node33 -->
<g id="node33" class="node">
<title>Node33</title>
<g id="a_node33"><a xlink:title="फैलाना, बिछाना, प्रसार करना">
<polygon fill="none" stroke="#0000ff" points="195.5963,-117 141.5963,-117 141.5963,-81 195.5963,-81 195.5963,-117"/>
<text text-anchor="middle" x="168.5963" y="-95.3" font-family="Times,serif" font-size="14.00" fill="#000000">स्तृति</text>
</a>
</g>
</g>
<!-- Node1&#45;&gt;Node33 -->
<g id="edge32" class="edge">
<title>Node1&#45;&gt;Node33</title>
<path fill="none" stroke="#000000" d="M28.2594,-431.7156C32.2831,-377.0656 46.1075,-215.9622 72,-171 85.8826,-146.893 111.4129,-128.4009 132.7411,-116.1964"/>
<polygon fill="#000000" stroke="#000000" points="134.4913,-119.2284 141.5783,-111.3527 131.1268,-113.0899 134.4913,-119.2284"/>
<text text-anchor="middle" x="90.5" y="-174.8" font-family="Times,serif" font-size="14.00" fill="#000000">क्तिन्</text>
</g>
<!-- Node3 -->
<g id="node3" class="node">
<title>Node3</title>
<g id="a_node3"><a xlink:title="चारों ओर बखेरना या फैलाना">
<polygon fill="none" stroke="#0000ff" points="361.0375,-1008 295.0375,-1008 295.0375,-972 361.0375,-972 361.0375,-1008"/>
<text text-anchor="middle" x="328.0375" y="-986.3" font-family="Times,serif" font-size="14.00" fill="#000000">अनुस्तरण</text>
</a>
</g>
</g>
<!-- Node2&#45;&gt;Node3 -->
<g id="edge2" class="edge">
<title>Node2&#45;&gt;Node3</title>
<path fill="none" stroke="#000000" d="M204.776,-971.446C228.598,-975.0318 259.9025,-979.7439 285.0022,-983.5221"/>
<polygon fill="#000000" stroke="#000000" points="284.578,-986.9976 294.9876,-985.0251 285.62,-980.0756 284.578,-986.9976"/>
<text text-anchor="middle" x="240.1926" y="-981.8" font-family="Times,serif" font-size="14.00" fill="#000000">ल्युट्</text>
</g>
<!-- Node5 -->
<g id="node5" class="node">
<title>Node5</title>
<ellipse fill="none" stroke="#ff0000" cx="328.0375" cy="-936" rx="57.6901" ry="18"/>
<text text-anchor="middle" x="328.0375" y="-932.3" font-family="Times,serif" font-size="14.00" fill="#000000">अनु_स्तृ+ल्युट्</text>
</g>
<!-- Node4&#45;&gt;Node5 -->
<g id="edge4" class="edge">
<title>Node4&#45;&gt;Node5</title>
<path fill="none" stroke="#000000" d="M202.8004,-898.2972C224.273,-904.7616 252.3711,-913.2205 276.5104,-920.4877"/>
<polygon fill="#000000" stroke="#000000" points="275.6504,-923.8839 286.2349,-923.4153 277.6684,-917.1811 275.6504,-923.8839"/>
</g>
<!-- Node6 -->
<g id="node6" class="node">
<title>Node6</title>
<g id="a_node6"><a xlink:title="गाय, विशेषतया वह गाय जिसका बलिदान अंत्येष्ट संस्कार के समय किया जाय">
<polygon fill="none" stroke="#0000ff" points="513.8824,-954 443.8824,-954 443.8824,-918 513.8824,-918 513.8824,-954"/>
<text text-anchor="middle" x="478.8824" y="-932.3" font-family="Times,serif" font-size="14.00" fill="#000000">अनुस्तरणी</text>
</a>
</g>
</g>
<!-- Node5&#45;&gt;Node6 -->
<g id="edge5" class="edge">
<title>Node5&#45;&gt;Node6</title>
<path fill="none" stroke="#000000" d="M385.9266,-936C401.723,-936 418.6056,-936 433.5896,-936"/>
<polygon fill="#000000" stroke="#000000" points="433.6231,-939.5001 443.6231,-936 433.623,-932.5001 433.6231,-939.5001"/>
<text text-anchor="middle" x="414.8824" y="-939.8" font-family="Times,serif" font-size="14.00" fill="#000000">ङीप्</text>
</g>
<!-- Node8 -->
<g id="node8" class="node">
<title>Node8</title>
<g id="a_node8"><a xlink:title="चादर, ओढ़ने का वस्त्र">
<polygon fill="none" stroke="#0000ff" points="355.0375,-900 301.0375,-900 301.0375,-864 355.0375,-864 355.0375,-900"/>
<text text-anchor="middle" x="328.0375" y="-878.3" font-family="Times,serif" font-size="14.00" fill="#000000">आस्तर</text>
</a>
</g>
</g>
<!-- Node7&#45;&gt;Node8 -->
<g id="edge7" class="edge">
<title>Node7&#45;&gt;Node8</title>
<path fill="none" stroke="#000000" d="M188.6055,-800.999C208.6635,-815.6921 240.7163,-838.2537 270.1926,-855 276.8837,-858.8014 284.2007,-862.527 291.3118,-865.9383"/>
<polygon fill="#000000" stroke="#000000" points="290.2616,-869.3108 300.8031,-870.3728 293.2247,-862.9688 290.2616,-869.3108"/>
<text text-anchor="middle" x="240.1926" y="-845.8" font-family="Times,serif" font-size="14.00" fill="#000000">अप्</text>
</g>
<!-- Node9 -->
<g id="node9" class="node">
<title>Node9</title>
<g id="a_node9"><a xlink:title="विस्तरण, बिछावन">
<polygon fill="none" stroke="#0000ff" points="359.0375,-846 297.0375,-846 297.0375,-810 359.0375,-810 359.0375,-846"/>
<text text-anchor="middle" x="328.0375" y="-824.3" font-family="Times,serif" font-size="14.00" fill="#000000">आस्तरण</text>
</a>
</g>
</g>
<!-- Node7&#45;&gt;Node9 -->
<g id="edge8" class="edge">
<title>Node7&#45;&gt;Node9</title>
<path fill="none" stroke="#000000" d="M199.7167,-794.1977C224.6281,-800.7599 259.7779,-810.0191 286.992,-817.1878"/>
<polygon fill="#000000" stroke="#000000" points="286.4339,-820.6601 296.9956,-819.8229 288.2171,-813.891 286.4339,-820.6601"/>
<text text-anchor="middle" x="240.1926" y="-810.8" font-family="Times,serif" font-size="14.00" fill="#000000">ल्युट्</text>
</g>
<!-- Node10 -->
<g id="node10" class="node">
<title>Node10</title>
<g id="a_node10"><a xlink:title="फैलाना, बिछाना, बखेरना">
<polygon fill="none" stroke="#0000ff" points="356.0375,-792 300.0375,-792 300.0375,-756 356.0375,-756 356.0375,-792"/>
<text text-anchor="middle" x="328.0375" y="-770.3" font-family="Times,serif" font-size="14.00" fill="#000000">आस्तार</text>
</a>
</g>
</g>
<!-- Node7&#45;&gt;Node10 -->
<g id="edge9" class="edge">
<title>Node7&#45;&gt;Node10</title>
<path fill="none" stroke="#000000" d="M202.8004,-783.4257C228.4074,-781.4984 263.4369,-778.862 289.9382,-776.8675"/>
<polygon fill="#000000" stroke="#000000" points="290.2899,-780.351 299.999,-776.1103 289.7645,-773.3707 290.2899,-780.351"/>
<text text-anchor="middle" x="240.1926" y="-784.8" font-family="Times,serif" font-size="14.00" fill="#000000">घञ्</text>
</g>
<!-- Node12 -->
<g id="node12" class="node">
<title>Node12</title>
<g id="a_node12"><a xlink:title="फैलाना, बिछाना, बखेरना">
<polygon fill="none" stroke="#0000ff" points="360.0375,-738 296.0375,-738 296.0375,-702 360.0375,-702 360.0375,-738"/>
<text text-anchor="middle" x="328.0375" y="-716.3" font-family="Times,serif" font-size="14.00" fill="#000000">उपस्तरण</text>
</a>
</g>
</g>
<!-- Node11&#45;&gt;Node12 -->
<g id="edge11" class="edge">
<title>Node11&#45;&gt;Node12</title>
<path fill="none" stroke="#000000" d="M204.776,-710.723C228.8403,-712.5341 260.5399,-714.9199 285.766,-716.8185"/>
<polygon fill="#000000" stroke="#000000" points="285.5527,-720.3123 295.7872,-717.5727 286.0781,-713.332 285.5527,-720.3123"/>
<text text-anchor="middle" x="240.1926" y="-717.8" font-family="Times,serif" font-size="14.00" fill="#000000">ल्युट्</text>
</g>
<!-- Node14 -->
<g id="node14" class="node">
<title>Node14</title>
<g id="a_node14"><a xlink:title="बिछाना, फैलाना, इधर उधर बखेरना">
<polygon fill="none" stroke="#0000ff" points="360.5375,-684 295.5375,-684 295.5375,-648 360.5375,-648 360.5375,-684"/>
<text text-anchor="middle" x="328.0375" y="-662.3" font-family="Times,serif" font-size="14.00" fill="#000000">परिस्तरण</text>
</a>
</g>
</g>
<!-- Node13&#45;&gt;Node14 -->
<g id="edge13" class="edge">
<title>Node13&#45;&gt;Node14</title>
<path fill="none" stroke="#000000" d="M197.8403,-617.0049C222.529,-626.2956 258.1899,-639.7153 285.9499,-650.1618"/>
<polygon fill="#000000" stroke="#000000" points="284.8165,-653.4749 295.4085,-653.7213 287.282,-646.9234 284.8165,-653.4749"/>
<text text-anchor="middle" x="240.1926" y="-639.8" font-family="Times,serif" font-size="14.00" fill="#000000">ल्युट्</text>
</g>
<!-- Node16 -->
<g id="node16" class="node">
<title>Node16</title>
<ellipse fill="none" stroke="#ff0000" cx="328.0375" cy="-612" rx="42.4939" ry="18"/>
<text text-anchor="middle" x="328.0375" y="-608.3" font-family="Times,serif" font-size="14.00" fill="#000000">प्र_वि_स्तृ</text>
</g>
<!-- Node15&#45;&gt;Node16 -->
<g id="edge15" class="edge">
<title>Node15&#45;&gt;Node16</title>
<path fill="none" stroke="#000000" d="M177.4841,-467.3603C192.7976,-495.6907 226.7403,-552.0058 270.1926,-585 275.2899,-588.8705 281.0311,-592.3687 286.8663,-595.4657"/>
<polygon fill="#000000" stroke="#000000" points="285.5187,-598.7038 296.0343,-599.9979 288.6209,-592.4287 285.5187,-598.7038"/>
</g>
<!-- Node23 -->
<g id="node23" class="node">
<title>Node23</title>
<g id="a_node23"><a xlink:title="आसन, (स्टूल, कुर्सी आदि)">
<polygon fill="none" stroke="#0000ff" points="355.0375,-576 301.0375,-576 301.0375,-540 355.0375,-540 355.0375,-576"/>
<text text-anchor="middle" x="328.0375" y="-554.3" font-family="Times,serif" font-size="14.00" fill="#000000">विष्टर</text>
</a>
</g>
</g>
<!-- Node15&#45;&gt;Node23 -->
<g id="edge22" class="edge">
<title>Node15&#45;&gt;Node23</title>
<path fill="none" stroke="#000000" d="M185.6366,-465.6795C205.0955,-483.0702 238.3649,-511.2714 270.1926,-531 276.9484,-535.1876 284.4588,-539.1479 291.7708,-542.6797"/>
<polygon fill="#000000" stroke="#000000" points="290.312,-545.8612 300.8549,-546.909 293.2665,-539.5153 290.312,-545.8612"/>
<text text-anchor="middle" x="240.1926" y="-520.8" font-family="Times,serif" font-size="14.00" fill="#000000">अप्</text>
</g>
<!-- Node24 -->
<g id="node24" class="node">
<title>Node24</title>
<g id="a_node24"><a xlink:title="विस्तार, फैलाव">
<polygon fill="none" stroke="#0000ff" points="355.0375,-522 301.0375,-522 301.0375,-486 355.0375,-486 355.0375,-522"/>
<text text-anchor="middle" x="328.0375" y="-500.3" font-family="Times,serif" font-size="14.00" fill="#000000">विस्तर</text>
</a>
</g>
</g>
<!-- Node15&#45;&gt;Node24 -->
<g id="edge23" class="edge">
<title>Node15&#45;&gt;Node24</title>
<path fill="none" stroke="#000000" d="M196.3688,-459.4061C222.6265,-468.2991 262.2017,-481.7025 291.1087,-491.4929"/>
<polygon fill="#000000" stroke="#000000" points="290.255,-494.899 300.8493,-494.7918 292.5005,-488.2689 290.255,-494.899"/>
<text text-anchor="middle" x="240.1926" y="-480.8" font-family="Times,serif" font-size="14.00" fill="#000000">अप्</text>
</g>
<!-- Node25 -->
<g id="node25" class="node">
<title>Node25</title>
<g id="a_node25"><a xlink:title="फैलाव, विस्तृति, प्रसारण, प्रांतविस्तारभाजाम्">
<polygon fill="none" stroke="#0000ff" points="355.0375,-468 301.0375,-468 301.0375,-432 355.0375,-432 355.0375,-468"/>
<text text-anchor="middle" x="328.0375" y="-446.3" font-family="Times,serif" font-size="14.00" fill="#000000">विस्तार</text>
</a>
</g>
</g>
<!-- Node15&#45;&gt;Node25 -->
<g id="edge24" class="edge">
<title>Node15&#45;&gt;Node25</title>
<path fill="none" stroke="#000000" d="M201.2464,-450C227.2253,-450 263.5943,-450 290.7224,-450"/>
<polygon fill="#000000" stroke="#000000" points="290.9912,-453.5001 300.9912,-450 290.9911,-446.5001 290.9912,-453.5001"/>
<text text-anchor="middle" x="240.1926" y="-453.8" font-family="Times,serif" font-size="14.00" fill="#000000">घञ्</text>
</g>
<!-- Node26 -->
<g id="node26" class="node">
<title>Node26</title>
<g id="a_node26"><a xlink:title="बिछाया गया, फैलाया गया, विस्तार किया गया">
<polygon fill="none" stroke="#0000ff" points="356.0375,-414 300.0375,-414 300.0375,-378 356.0375,-378 356.0375,-414"/>
<text text-anchor="middle" x="328.0375" y="-392.3" font-family="Times,serif" font-size="14.00" fill="#000000">विस्तीर्ण</text>
</a>
</g>
</g>
<!-- Node15&#45;&gt;Node26 -->
<g id="edge25" class="edge">
<title>Node15&#45;&gt;Node26</title>
<path fill="none" stroke="#000000" d="M196.3688,-440.5939C222.3073,-431.809 261.2413,-418.6227 290.0497,-408.8658"/>
<polygon fill="#000000" stroke="#000000" points="291.4306,-412.0935 299.7794,-405.5705 289.1851,-405.4634 291.4306,-412.0935"/>
<text text-anchor="middle" x="240.1926" y="-432.8" font-family="Times,serif" font-size="14.00" fill="#000000">क्त</text>
</g>
<!-- Node27 -->
<g id="node27" class="node">
<title>Node27</title>
<g id="a_node27"><a xlink:title="प्रसारित, फैलाया गया, विस्तारयुक्त">
<polygon fill="none" stroke="#0000ff" points="355.0375,-360 301.0375,-360 301.0375,-324 355.0375,-324 355.0375,-360"/>
<text text-anchor="middle" x="328.0375" y="-338.3" font-family="Times,serif" font-size="14.00" fill="#000000">विस्तृत</text>
</a>
</g>
</g>
<!-- Node15&#45;&gt;Node27 -->
<g id="edge26" class="edge">
<title>Node15&#45;&gt;Node27</title>
<path fill="none" stroke="#000000" d="M185.6366,-434.3205C205.0955,-416.9298 238.3649,-388.7286 270.1926,-369 276.9484,-364.8124 284.4588,-360.8521 291.7708,-357.3203"/>
<polygon fill="#000000" stroke="#000000" points="293.2665,-360.4847 300.8549,-353.091 290.312,-354.1388 293.2665,-360.4847"/>
<text text-anchor="middle" x="240.1926" y="-400.8" font-family="Times,serif" font-size="14.00" fill="#000000">क्त</text>
</g>
<!-- Node28 -->
<g id="node28" class="node">
<title>Node28</title>
<g id="a_node28"><a xlink:title="विस्तार, फैलाव">
<polygon fill="none" stroke="#0000ff" points="356.0375,-306 300.0375,-306 300.0375,-270 356.0375,-270 356.0375,-306"/>
<text text-anchor="middle" x="328.0375" y="-284.3" font-family="Times,serif" font-size="14.00" fill="#000000">विस्तृति</text>
</a>
</g>
</g>
<!-- Node15&#45;&gt;Node28 -->
<g id="edge27" class="edge">
<title>Node15&#45;&gt;Node28</title>
<path fill="none" stroke="#000000" d="M177.4465,-432.5898C192.7059,-404.1878 226.5725,-347.7721 270.1926,-315 276.3452,-310.3776 283.4158,-306.2763 290.4538,-302.7535"/>
<polygon fill="#000000" stroke="#000000" points="292.3677,-305.7222 299.9416,-298.3137 289.4008,-299.3821 292.3677,-305.7222"/>
<text text-anchor="middle" x="240.1926" y="-356.8" font-family="Times,serif" font-size="14.00" fill="#000000">क्तिन्</text>
</g>
<!-- Node17 -->
<g id="node17" class="node">
<title>Node17</title>
<g id="a_node17"><a xlink:title="परिधि, वृत्त, &#160;प्रविस्तारः">
<polygon fill="none" stroke="#0000ff" points="507.8824,-630 449.8824,-630 449.8824,-594 507.8824,-594 507.8824,-630"/>
<text text-anchor="middle" x="478.8824" y="-608.3" font-family="Times,serif" font-size="14.00" fill="#000000">प्रविस्तर</text>
</a>
</g>
</g>
<!-- Node16&#45;&gt;Node17 -->
<g id="edge16" class="edge">
<title>Node16&#45;&gt;Node17</title>
<path fill="none" stroke="#000000" d="M370.4576,-612C392.0761,-612 418.2005,-612 439.3887,-612"/>
<polygon fill="#000000" stroke="#000000" points="439.6597,-615.5001 449.6596,-612 439.6596,-608.5001 439.6597,-615.5001"/>
<text text-anchor="middle" x="414.8824" y="-615.8" font-family="Times,serif" font-size="14.00" fill="#000000">अप्</text>
</g>
<!-- Node19 -->
<g id="node19" class="node">
<title>Node19</title>
<g id="a_node19"><a xlink:title="पलंग">
<polygon fill="none" stroke="#0000ff" points="356.0375,-252 300.0375,-252 300.0375,-216 356.0375,-216 356.0375,-252"/>
<text text-anchor="middle" x="328.0375" y="-230.3" font-family="Times,serif" font-size="14.00" fill="#000000">प्रस्तरण</text>
</a>
</g>
</g>
<!-- Node18&#45;&gt;Node19 -->
<g id="edge18" class="edge">
<title>Node18&#45;&gt;Node19</title>
<path fill="none" stroke="#000000" d="M191.9104,-302.9879C198.3958,-298.8659 205.0605,-293.8054 210.1926,-288 222.3047,-274.299 213.561,-261.9698 228.1926,-251 245.684,-237.8861 269.7354,-233.5003 289.8494,-232.4578"/>
<polygon fill="#000000" stroke="#000000" points="290.05,-235.9538 299.9533,-232.189 289.8637,-228.9563 290.05,-235.9538"/>
<text text-anchor="middle" x="240.1926" y="-254.8" font-family="Times,serif" font-size="14.00" fill="#000000">ल्युट्</text>
</g>
<!-- Node20 -->
<g id="node20" class="node">
<title>Node20</title>
<g id="a_node20"><a xlink:title="पलंग">
<polygon fill="none" stroke="#0000ff" points="357.5375,-198 298.5375,-198 298.5375,-162 357.5375,-162 357.5375,-198"/>
<text text-anchor="middle" x="328.0375" y="-176.3" font-family="Times,serif" font-size="14.00" fill="#000000">प्रस्तरणा</text>
</a>
</g>
</g>
<!-- Node18&#45;&gt;Node20 -->
<g id="edge19" class="edge">
<title>Node18&#45;&gt;Node20</title>
<path fill="none" stroke="#000000" d="M192.6501,-303.5804C199.1563,-299.4751 205.6469,-294.2751 210.1926,-288 228.5331,-262.6818 207.4782,-243.4157 228.1926,-220 243.6102,-202.5719 267.6749,-192.633 288.3158,-187.0217"/>
<polygon fill="#000000" stroke="#000000" points="289.2512,-190.396 298.1207,-184.6009 287.5732,-183.6 289.2512,-190.396"/>
<text text-anchor="middle" x="240.1926" y="-223.8" font-family="Times,serif" font-size="14.00" fill="#000000">ल्युट्</text>
</g>
<!-- Node21 -->
<g id="node21" class="node">
<title>Node21</title>
<g id="a_node21"><a xlink:title="पर्णशय्या, पुष्पशय्या">
<polygon fill="none" stroke="#0000ff" points="355.0375,-144 301.0375,-144 301.0375,-108 355.0375,-108 355.0375,-144"/>
<text text-anchor="middle" x="328.0375" y="-122.3" font-family="Times,serif" font-size="14.00" fill="#000000">प्रस्तर</text>
</a>
</g>
</g>
<!-- Node18&#45;&gt;Node21 -->
<g id="edge20" class="edge">
<title>Node18&#45;&gt;Node21</title>
<path fill="none" stroke="#000000" d="M193.0078,-303.8276C199.5241,-299.7293 205.9306,-294.4711 210.1926,-288 236.2358,-248.4585 203.0358,-223.1113 228.1926,-183 242.4194,-160.3162 269.1528,-145.7539 291.3789,-137.0304"/>
<polygon fill="#000000" stroke="#000000" points="292.7156,-140.2681 300.8948,-133.5338 290.3013,-133.6976 292.7156,-140.2681"/>
<text text-anchor="middle" x="240.1926" y="-186.8" font-family="Times,serif" font-size="14.00" fill="#000000">अच्</text>
</g>
<!-- Node22 -->
<g id="node22" class="node">
<title>Node22</title>
<g id="a_node22"><a xlink:title="बखेरना, फैलाना, आच्छादित करना">
<polygon fill="none" stroke="#0000ff" points="355.0375,-90 301.0375,-90 301.0375,-54 355.0375,-54 355.0375,-90"/>
<text text-anchor="middle" x="328.0375" y="-68.3" font-family="Times,serif" font-size="14.00" fill="#000000">प्रस्तार</text>
</a>
</g>
</g>
<!-- Node18&#45;&gt;Node22 -->
<g id="edge21" class="edge">
<title>Node18&#45;&gt;Node22</title>
<path fill="none" stroke="#000000" d="M193.2117,-303.9583C199.7337,-299.8637 206.0922,-294.5747 210.1926,-288 245.4912,-231.4015 198.281,-198.6211 228.1926,-139 241.0274,-113.4172 268.7545,-96.0189 291.74,-85.3766"/>
<polygon fill="#000000" stroke="#000000" points="293.1619,-88.5749 300.9194,-81.3587 290.355,-82.1622 293.1619,-88.5749"/>
<text text-anchor="middle" x="240.1926" y="-142.8" font-family="Times,serif" font-size="14.00" fill="#000000">घञ्</text>
</g>
<!-- Node30 -->
<g id="node30" class="node">
<title>Node30</title>
<g id="a_node30"><a xlink:title="शय्या, पलंग, बिस्तर, नवपल्लवसंस्तरेऽपि ते">
<polygon fill="none" stroke="#0000ff" points="355.0375,-36 301.0375,-36 301.0375,0 355.0375,0 355.0375,-36"/>
<text text-anchor="middle" x="328.0375" y="-14.3" font-family="Times,serif" font-size="14.00" fill="#000000">संस्तर</text>
</a>
</g>
</g>
<!-- Node29&#45;&gt;Node30 -->
<g id="edge29" class="edge">
<title>Node29&#45;&gt;Node30</title>
<path fill="none" stroke="#000000" d="M195.3525,-248.5339C201.0953,-244.6577 206.5307,-239.8335 210.1926,-234 244.0155,-180.1203 201.807,-149.8862 228.1926,-92 239.8118,-66.5091 247.7078,-61.71 270.1926,-45 276.6972,-40.166 284.2056,-35.8906 291.6134,-32.2491"/>
<polygon fill="#000000" stroke="#000000" points="293.2472,-35.3499 300.86,-27.9812 290.3137,-28.9942 293.2472,-35.3499"/>
<text text-anchor="middle" x="240.1926" y="-95.8" font-family="Times,serif" font-size="14.00" fill="#000000">अप्</text>
</g>
</g>
</svg>
