<?xml version="1.0" encoding="UTF-8" standalone="no"?>
<!DOCTYPE svg PUBLIC "-//W3C//DTD SVG 1.1//EN"
 "http://www.w3.org/Graphics/SVG/1.1/DTD/svg11.dtd">
<!-- Generated by graphviz version 2.40.1 (20161225.0304)
 -->
<!-- Title: G Pages: 1 -->
<svg width="181pt" height="314pt"
 viewBox="0.00 0.00 181.00 314.00" xmlns="http://www.w3.org/2000/svg" xmlns:xlink="http://www.w3.org/1999/xlink">
<g id="graph0" class="graph" transform="scale(1 1) rotate(0) translate(4 310)">
<title>G</title>
<polygon fill="#ffffff" stroke="transparent" points="-4,4 -4,-310 177,-310 177,4 -4,4"/>
<!-- Node1 -->
<g id="node1" class="node">
<title>Node1</title>
<ellipse fill="none" stroke="#ff0000" cx="27" cy="-153" rx="27" ry="18"/>
<text text-anchor="middle" x="27" y="-149.3" font-family="Times,serif" font-size="14.00" fill="#000000">स्थग्</text>
</g>
<!-- Node2 -->
<g id="node2" class="node">
<title>Node2</title>
<g id="a_node2"><a xlink:title="छिपाना, गुप्त रखना">
<polygon fill="none" stroke="#0000ff" points="170.5,-306 116.5,-306 116.5,-270 170.5,-270 170.5,-306"/>
<text text-anchor="middle" x="143.5" y="-284.3" font-family="Times,serif" font-size="14.00" fill="#000000">स्थगन</text>
</a>
</g>
</g>
<!-- Node1&#45;&gt;Node2 -->
<g id="edge1" class="edge">
<title>Node1&#45;&gt;Node2</title>
<path fill="none" stroke="#000000" d="M36.7437,-169.9474C45.2597,-184.1725 58.3659,-204.7204 72,-221 88.5511,-240.7625 95.158,-243.4082 114,-261 114.6661,-261.6219 115.3414,-262.2509 116.0232,-262.8849"/>
<polygon fill="#000000" stroke="#000000" points="113.7366,-265.5374 123.4564,-269.7535 118.4873,-260.3962 113.7366,-265.5374"/>
<text text-anchor="middle" x="84" y="-248.8" font-family="Times,serif" font-size="14.00" fill="#000000">ल्युट्</text>
</g>
<!-- Node3 -->
<g id="node3" class="node">
<title>Node3</title>
<g id="a_node3"><a xlink:title="जालसाज, बेईमान#धूर्तः, छली">
<polygon fill="none" stroke="#0000ff" points="170.5,-252 116.5,-252 116.5,-216 170.5,-216 170.5,-252"/>
<text text-anchor="middle" x="143.5" y="-230.3" font-family="Times,serif" font-size="14.00" fill="#000000">स्थग</text>
</a>
</g>
</g>
<!-- Node1&#45;&gt;Node3 -->
<g id="edge2" class="edge">
<title>Node1&#45;&gt;Node3</title>
<path fill="none" stroke="#000000" d="M44.7569,-166.8393C52.9567,-173.1202 62.8781,-180.5662 72,-187 83.5114,-195.1192 96.3054,-203.6723 107.8522,-211.2238"/>
<polygon fill="#000000" stroke="#000000" points="106.1055,-214.2629 116.3971,-216.7795 109.9212,-208.3942 106.1055,-214.2629"/>
<text text-anchor="middle" x="84" y="-205.8" font-family="Times,serif" font-size="14.00" fill="#000000">अच्</text>
</g>
<!-- Node4 -->
<g id="node4" class="node">
<title>Node4</title>
<g id="a_node4"><a xlink:title="वेश्या">
<polygon fill="none" stroke="#0000ff" points="173,-198 114,-198 114,-162 173,-162 173,-198"/>
<text text-anchor="middle" x="143.5" y="-176.3" font-family="Times,serif" font-size="14.00" fill="#000000">स्थगिका</text>
</a>
</g>
</g>
<!-- Node1&#45;&gt;Node4 -->
<g id="edge3" class="edge">
<title>Node1&#45;&gt;Node4</title>
<path fill="none" stroke="#000000" d="M52.5664,-158.9253C67.5427,-162.3962 86.7807,-166.8547 103.702,-170.7764"/>
<polygon fill="#000000" stroke="#000000" points="103.3476,-174.287 113.8797,-173.1352 104.9281,-167.4677 103.3476,-174.287"/>
<text text-anchor="middle" x="84" y="-171.8" font-family="Times,serif" font-size="14.00" fill="#000000">ण्वुल्</text>
</g>
<!-- Node5 -->
<g id="node5" class="node">
<title>Node5</title>
<g id="a_node5"><a xlink:title="ढका हुआ, छिपा हुआ, गुप्त रखा हुआ">
<polygon fill="none" stroke="#0000ff" points="170.5,-144 116.5,-144 116.5,-108 170.5,-108 170.5,-144"/>
<text text-anchor="middle" x="143.5" y="-122.3" font-family="Times,serif" font-size="14.00" fill="#000000">स्थगित</text>
</a>
</g>
</g>
<!-- Node1&#45;&gt;Node5 -->
<g id="edge4" class="edge">
<title>Node1&#45;&gt;Node5</title>
<path fill="none" stroke="#000000" d="M52.5664,-147.0747C68.3559,-143.4154 88.8824,-138.6582 106.4368,-134.5898"/>
<polygon fill="#000000" stroke="#000000" points="107.4193,-137.9549 116.3708,-132.2874 105.8388,-131.1357 107.4193,-137.9549"/>
<text text-anchor="middle" x="84" y="-144.8" font-family="Times,serif" font-size="14.00" fill="#000000">क्त</text>
</g>
<!-- Node6 -->
<g id="node6" class="node">
<title>Node6</title>
<g id="a_node6"><a xlink:title="पान की डिबिया">
<polygon fill="none" stroke="#0000ff" points="170.5,-90 116.5,-90 116.5,-54 170.5,-54 170.5,-90"/>
<text text-anchor="middle" x="143.5" y="-68.3" font-family="Times,serif" font-size="14.00" fill="#000000">स्थगी</text>
</a>
</g>
</g>
<!-- Node1&#45;&gt;Node6 -->
<g id="edge5" class="edge">
<title>Node1&#45;&gt;Node6</title>
<path fill="none" stroke="#000000" d="M44.2494,-139.001C52.514,-132.4453 62.6317,-124.6368 72,-118 83.4212,-109.9088 96.1918,-101.5001 107.7449,-94.1194"/>
<polygon fill="#000000" stroke="#000000" points="109.7267,-97.0072 116.2999,-88.698 105.9796,-91.0945 109.7267,-97.0072"/>
<text text-anchor="middle" x="84" y="-121.8" font-family="Times,serif" font-size="14.00" fill="#000000">क्</text>
</g>
<!-- Node7 -->
<g id="node7" class="node">
<title>Node7</title>
<g id="a_node7"><a xlink:title="कूबड़, कुब्ज">
<polygon fill="none" stroke="#0000ff" points="170.5,-36 116.5,-36 116.5,0 170.5,0 170.5,-36"/>
<text text-anchor="middle" x="143.5" y="-14.3" font-family="Times,serif" font-size="14.00" fill="#000000">स्थगु</text>
</a>
</g>
</g>
<!-- Node1&#45;&gt;Node7 -->
<g id="edge6" class="edge">
<title>Node1&#45;&gt;Node7</title>
<path fill="none" stroke="#000000" d="M36.2237,-136.0292C44.6119,-121.2995 57.8168,-99.7653 72,-83 84.1132,-68.6815 99.2826,-54.4727 112.5286,-43.0084"/>
<polygon fill="#000000" stroke="#000000" points="115.1295,-45.3913 120.4831,-36.2485 110.5965,-40.0572 115.1295,-45.3913"/>
<text text-anchor="middle" x="84" y="-86.8" font-family="Times,serif" font-size="14.00" fill="#000000">उन्</text>
</g>
</g>
</svg>
