<?xml version="1.0" encoding="UTF-8" standalone="no"?>
<!DOCTYPE svg PUBLIC "-//W3C//DTD SVG 1.1//EN"
 "http://www.w3.org/Graphics/SVG/1.1/DTD/svg11.dtd">
<!-- Generated by graphviz version 2.40.1 (20161225.0304)
 -->
<!-- Title: G Pages: 1 -->
<svg width="198pt" height="206pt"
 viewBox="0.00 0.00 198.19 206.00" xmlns="http://www.w3.org/2000/svg" xmlns:xlink="http://www.w3.org/1999/xlink">
<g id="graph0" class="graph" transform="scale(1 1) rotate(0) translate(4 202)">
<title>G</title>
<polygon fill="#ffffff" stroke="transparent" points="-4,4 -4,-202 194.1949,-202 194.1949,4 -4,4"/>
<!-- Node1 -->
<g id="node1" class="node">
<title>Node1</title>
<ellipse fill="none" stroke="#ff0000" cx="28.5975" cy="-99" rx="28.6953" ry="18"/>
<text text-anchor="middle" x="28.5975" y="-95.3" font-family="Times,serif" font-size="14.00" fill="#000000">स्थूल</text>
</g>
<!-- Node2 -->
<g id="node2" class="node">
<title>Node2</title>
<g id="a_node2"><a xlink:title="सबसे बड़ा, अपेक्षाकृत विस्तृत, ‘स्थूल’ की मध्यमावस्था">
<polygon fill="none" stroke="#0000ff" points="190.1949,-198 127.1949,-198 127.1949,-162 190.1949,-162 190.1949,-198"/>
<text text-anchor="middle" x="158.6949" y="-176.3" font-family="Times,serif" font-size="14.00" fill="#000000">स्थवीयस्</text>
</a>
</g>
</g>
<!-- Node1&#45;&gt;Node2 -->
<g id="edge1" class="edge">
<title>Node1&#45;&gt;Node2</title>
<path fill="none" stroke="#000000" d="M46.3197,-113.237C54.847,-119.8447 65.3385,-127.6284 75.1949,-134 88.8771,-142.8448 104.3832,-151.689 118.2874,-159.2253"/>
<polygon fill="#000000" stroke="#000000" points="116.6901,-162.3401 127.158,-163.9757 119.9948,-156.1693 116.6901,-162.3401"/>
<text text-anchor="middle" x="92.1949" y="-157.8" font-family="Times,serif" font-size="14.00" fill="#000000">ईयसुन्</text>
</g>
<!-- Node3 -->
<g id="node3" class="node">
<title>Node3</title>
<g id="a_node3"><a xlink:title="एक प्रकार की घास या नरकुल, सरकंडा#विस्तृत, बड़ा, विशाल, महान">
<polygon fill="none" stroke="#0000ff" points="185.6949,-144 131.6949,-144 131.6949,-108 185.6949,-108 185.6949,-144"/>
<text text-anchor="middle" x="158.6949" y="-122.3" font-family="Times,serif" font-size="14.00" fill="#000000">स्थूलक</text>
</a>
</g>
</g>
<!-- Node1&#45;&gt;Node3 -->
<g id="edge2" class="edge">
<title>Node1&#45;&gt;Node3</title>
<path fill="none" stroke="#000000" d="M55.8702,-104.6601C74.9515,-108.6202 100.6695,-113.9576 121.6113,-118.3038"/>
<polygon fill="#000000" stroke="#000000" points="120.9555,-121.7422 131.4581,-120.3474 122.378,-114.8882 120.9555,-121.7422"/>
<text text-anchor="middle" x="92.1949" y="-118.8" font-family="Times,serif" font-size="14.00" fill="#000000">कन्</text>
</g>
<!-- Node4 -->
<g id="node4" class="node">
<title>Node4</title>
<g id="a_node4"><a xlink:title="ऊँट">
<polygon fill="none" stroke="#0000ff" points="186.6949,-90 130.6949,-90 130.6949,-54 186.6949,-54 186.6949,-90"/>
<text text-anchor="middle" x="158.6949" y="-68.3" font-family="Times,serif" font-size="14.00" fill="#000000">स्थूलिन्</text>
</a>
</g>
</g>
<!-- Node1&#45;&gt;Node4 -->
<g id="edge3" class="edge">
<title>Node1&#45;&gt;Node4</title>
<path fill="none" stroke="#000000" d="M55.8702,-93.3399C74.6954,-89.433 99.9803,-84.1854 120.7655,-79.8718"/>
<polygon fill="#000000" stroke="#000000" points="121.4795,-83.2982 130.5596,-77.8391 120.057,-76.4443 121.4795,-83.2982"/>
<text text-anchor="middle" x="92.1949" y="-91.8" font-family="Times,serif" font-size="14.00" fill="#000000">इनि</text>
</g>
<!-- Node5 -->
<g id="node5" class="node">
<title>Node5</title>
<g id="a_node5"><a xlink:title="बड़प्पन, विशालता, हृष्टपुष्टता">
<polygon fill="none" stroke="#0000ff" points="185.6949,-36 131.6949,-36 131.6949,0 185.6949,0 185.6949,-36"/>
<text text-anchor="middle" x="158.6949" y="-14.3" font-family="Times,serif" font-size="14.00" fill="#000000">स्थौल्य</text>
</a>
</g>
</g>
<!-- Node1&#45;&gt;Node5 -->
<g id="edge4" class="edge">
<title>Node1&#45;&gt;Node5</title>
<path fill="none" stroke="#000000" d="M46.2403,-84.2717C54.7502,-77.4567 65.25,-69.4595 75.1949,-63 90.1768,-53.2688 107.4558,-43.7041 122.3947,-35.9123"/>
<polygon fill="#000000" stroke="#000000" points="124.061,-38.9911 131.3524,-31.3042 120.8589,-32.7664 124.061,-38.9911"/>
<text text-anchor="middle" x="92.1949" y="-66.8" font-family="Times,serif" font-size="14.00" fill="#000000">ष्यञ्</text>
</g>
</g>
</svg>
