<?xml version="1.0" encoding="UTF-8" standalone="no"?>
<!DOCTYPE svg PUBLIC "-//W3C//DTD SVG 1.1//EN"
 "http://www.w3.org/Graphics/SVG/1.1/DTD/svg11.dtd">
<!-- Generated by graphviz version 2.40.1 (20161225.0304)
 -->
<!-- Title: G Pages: 1 -->
<svg width="355pt" height="611pt"
 viewBox="0.00 0.00 354.99 611.00" xmlns="http://www.w3.org/2000/svg" xmlns:xlink="http://www.w3.org/1999/xlink">
<g id="graph0" class="graph" transform="scale(1 1) rotate(0) translate(4 607)">
<title>G</title>
<polygon fill="#ffffff" stroke="transparent" points="-4,4 -4,-607 350.9862,-607 350.9862,4 -4,4"/>
<!-- Node1 -->
<g id="node1" class="node">
<title>Node1</title>
<ellipse fill="none" stroke="#ff0000" cx="29.2474" cy="-260" rx="29.4969" ry="18"/>
<text text-anchor="middle" x="29.2474" y="-256.3" font-family="Times,serif" font-size="14.00" fill="#000000">स्यन्द्</text>
</g>
<!-- Node2 -->
<g id="node2" class="node">
<title>Node2</title>
<ellipse fill="none" stroke="#ff0000" cx="168.2405" cy="-558" rx="46.2923" ry="18"/>
<text text-anchor="middle" x="168.2405" y="-554.3" font-family="Times,serif" font-size="14.00" fill="#000000">अनु_स्यन्द्</text>
</g>
<!-- Node1&#45;&gt;Node2 -->
<g id="edge1" class="edge">
<title>Node1&#45;&gt;Node2</title>
<path fill="none" stroke="#000000" d="M32.6369,-277.9984C41.2985,-320.5027 67.3313,-429.1483 119.4948,-504 126.6436,-514.2582 135.5533,-524.658 143.7927,-533.5559"/>
<polygon fill="#000000" stroke="#000000" points="141.3799,-536.0981 150.7998,-540.9473 146.4599,-531.2821 141.3799,-536.0981"/>
</g>
<!-- Node4 -->
<g id="node4" class="node">
<title>Node4</title>
<ellipse fill="none" stroke="#ff0000" cx="168.2405" cy="-477" rx="48.9926" ry="18"/>
<text text-anchor="middle" x="168.2405" y="-473.3" font-family="Times,serif" font-size="14.00" fill="#000000">अभि_स्यन्द्</text>
</g>
<!-- Node1&#45;&gt;Node4 -->
<g id="edge3" class="edge">
<title>Node1&#45;&gt;Node4</title>
<path fill="none" stroke="#000000" d="M33.7196,-277.8221C43.6208,-314.1729 70.4866,-397.8346 119.4948,-450 122.0637,-452.7344 124.9729,-455.2599 128.0604,-457.5772"/>
<polygon fill="#000000" stroke="#000000" points="126.2754,-460.5935 136.5383,-463.2248 130.1563,-454.7678 126.2754,-460.5935"/>
</g>
<!-- Node7 -->
<g id="node7" class="node">
<title>Node7</title>
<ellipse fill="none" stroke="#ff0000" cx="168.2405" cy="-423" rx="42.7926" ry="18"/>
<text text-anchor="middle" x="168.2405" y="-419.3" font-family="Times,serif" font-size="14.00" fill="#000000">आ_स्यन्द्</text>
</g>
<!-- Node1&#45;&gt;Node7 -->
<g id="edge6" class="edge">
<title>Node1&#45;&gt;Node7</title>
<path fill="none" stroke="#000000" d="M42.4878,-276.4325C59.8911,-297.9289 91.5351,-336.6631 119.4948,-369 127.9283,-378.7538 137.3879,-389.3162 145.7138,-398.4911"/>
<polygon fill="#000000" stroke="#000000" points="143.3623,-401.107 152.6845,-406.1415 148.5366,-396.3924 143.3623,-401.107"/>
</g>
<!-- Node9 -->
<g id="node9" class="node">
<title>Node9</title>
<ellipse fill="none" stroke="#ff0000" cx="168.2405" cy="-342" rx="41.6928" ry="18"/>
<text text-anchor="middle" x="168.2405" y="-338.3" font-family="Times,serif" font-size="14.00" fill="#000000">नि_स्यन्द्</text>
</g>
<!-- Node1&#45;&gt;Node9 -->
<g id="edge8" class="edge">
<title>Node1&#45;&gt;Node9</title>
<path fill="none" stroke="#000000" d="M49.8909,-272.9164C68.0886,-284.2218 95.3835,-300.9834 119.4948,-315 123.9798,-317.6073 128.7248,-320.307 133.424,-322.946"/>
<polygon fill="#000000" stroke="#000000" points="131.885,-326.0951 142.3239,-327.9058 135.2926,-319.9805 131.885,-326.0951"/>
</g>
<!-- Node13 -->
<g id="node13" class="node">
<title>Node13</title>
<ellipse fill="none" stroke="#ff0000" cx="168.2405" cy="-288" rx="44.6926" ry="18"/>
<text text-anchor="middle" x="168.2405" y="-284.3" font-family="Times,serif" font-size="14.00" fill="#000000">परि_स्यन्द्</text>
</g>
<!-- Node1&#45;&gt;Node13 -->
<g id="edge12" class="edge">
<title>Node1&#45;&gt;Node13</title>
<path fill="none" stroke="#000000" d="M57.3747,-265.6662C74.8261,-269.1818 97.7495,-273.7997 118.2204,-277.9235"/>
<polygon fill="#000000" stroke="#000000" points="117.5436,-281.3574 128.0379,-279.9012 118.9261,-274.4953 117.5436,-281.3574"/>
</g>
<!-- Node15 -->
<g id="node15" class="node">
<title>Node15</title>
<ellipse fill="none" stroke="#ff0000" cx="168.2405" cy="-234" rx="40.8928" ry="18"/>
<text text-anchor="middle" x="168.2405" y="-230.3" font-family="Times,serif" font-size="14.00" fill="#000000">वि_स्यन्द्</text>
</g>
<!-- Node1&#45;&gt;Node15 -->
<g id="edge14" class="edge">
<title>Node1&#45;&gt;Node15</title>
<path fill="none" stroke="#000000" d="M57.3747,-254.7385C75.4397,-251.3593 99.3681,-246.8832 120.3699,-242.9546"/>
<polygon fill="#000000" stroke="#000000" points="121.2204,-246.3564 130.4063,-241.0772 119.9333,-239.4757 121.2204,-246.3564"/>
</g>
<!-- Node17 -->
<g id="node17" class="node">
<title>Node17</title>
<g id="a_node17"><a xlink:title="एक प्रकार का वृक्ष#लाल रंग का सूरमा, स्वयं सिन्दूरेण द्विपरणमुदा मुदित इव">
<polygon fill="none" stroke="#0000ff" points="195.2405,-198 141.2405,-198 141.2405,-162 195.2405,-162 195.2405,-198"/>
<text text-anchor="middle" x="168.2405" y="-176.3" font-family="Times,serif" font-size="14.00" fill="#000000">सिन्दूर</text>
</a>
</g>
</g>
<!-- Node1&#45;&gt;Node17 -->
<g id="edge16" class="edge">
<title>Node1&#45;&gt;Node17</title>
<path fill="none" stroke="#000000" d="M48.6936,-246.1022C57.1015,-240.2848 67.1403,-233.5905 76.4948,-228 94.3317,-217.3402 114.7663,-206.5205 131.8159,-197.8586"/>
<polygon fill="#000000" stroke="#000000" points="133.5444,-200.907 140.9016,-193.2832 130.396,-194.6549 133.5444,-200.907"/>
<text text-anchor="middle" x="88.9948" y="-231.8" font-family="Times,serif" font-size="14.00" fill="#000000">उरन्</text>
</g>
<!-- Node18 -->
<g id="node18" class="node">
<title>Node18</title>
<g id="a_node18"><a xlink:title="समुद्र, सागर">
<polygon fill="none" stroke="#0000ff" points="195.2405,-144 141.2405,-144 141.2405,-108 195.2405,-108 195.2405,-144"/>
<text text-anchor="middle" x="168.2405" y="-122.3" font-family="Times,serif" font-size="14.00" fill="#000000">सिन्धु</text>
</a>
</g>
</g>
<!-- Node1&#45;&gt;Node18 -->
<g id="edge17" class="edge">
<title>Node1&#45;&gt;Node18</title>
<path fill="none" stroke="#000000" d="M39.8233,-242.9966C54.9597,-219.8704 84.8328,-178.4702 119.4948,-153 123.4756,-150.0749 127.8077,-147.2425 132.1926,-144.5821"/>
<polygon fill="#000000" stroke="#000000" points="134.2678,-147.4252 141.1717,-139.3886 130.763,-141.3657 134.2678,-147.4252"/>
<text text-anchor="middle" x="88.9948" y="-195.8" font-family="Times,serif" font-size="14.00" fill="#000000">उद्</text>
</g>
<!-- Node19 -->
<g id="node19" class="node">
<title>Node19</title>
<g id="a_node19"><a xlink:title="जल्दी से जाने वाला, द्रुतगामी, बहने वाला#बहना, टपकना, रिसना#युद्ध&#45;रथ, गाड़ी या रथ, धर्मारण्यं प्रविशति गजः स्यन्दनालोकभीतः">
<polygon fill="none" stroke="#0000ff" points="195.2405,-90 141.2405,-90 141.2405,-54 195.2405,-54 195.2405,-90"/>
<text text-anchor="middle" x="168.2405" y="-68.3" font-family="Times,serif" font-size="14.00" fill="#000000">स्यन्दन</text>
</a>
</g>
</g>
<!-- Node1&#45;&gt;Node19 -->
<g id="edge18" class="edge">
<title>Node1&#45;&gt;Node19</title>
<path fill="none" stroke="#000000" d="M34.5072,-242.2532C45.1537,-209.3209 72.341,-138.5168 119.4948,-99 123.4258,-95.7057 127.8192,-92.6178 132.3149,-89.7923"/>
<polygon fill="#000000" stroke="#000000" points="134.1413,-92.7787 140.9917,-84.6965 130.5964,-86.7426 134.1413,-92.7787"/>
<text text-anchor="middle" x="88.9948" y="-152.8" font-family="Times,serif" font-size="14.00" fill="#000000">ल्युट्</text>
</g>
<!-- Node20 -->
<g id="node20" class="node">
<title>Node20</title>
<g id="a_node20"><a xlink:title="रिसने वाला, बहने वाला, टपकने वाला, स्त्री &#45; स्यन्दिनी">
<polygon fill="none" stroke="#0000ff" points="196.7405,-36 139.7405,-36 139.7405,0 196.7405,0 196.7405,-36"/>
<text text-anchor="middle" x="168.2405" y="-14.3" font-family="Times,serif" font-size="14.00" fill="#000000">स्यन्दिन्</text>
</a>
</g>
</g>
<!-- Node1&#45;&gt;Node20 -->
<g id="edge19" class="edge">
<title>Node1&#45;&gt;Node20</title>
<path fill="none" stroke="#000000" d="M32.5203,-241.6785C38.4045,-211.3927 52.4514,-149.5165 76.4948,-102 90.8222,-73.685 95.5365,-65.8089 119.4948,-45 122.9573,-41.9926 126.8091,-39.1732 130.7871,-36.5752"/>
<polygon fill="#000000" stroke="#000000" points="132.8455,-39.4209 139.5954,-31.2546 129.2261,-33.4292 132.8455,-39.4209"/>
<text text-anchor="middle" x="88.9948" y="-105.8" font-family="Times,serif" font-size="14.00" fill="#000000">णिनि</text>
</g>
<!-- Node3 -->
<g id="node3" class="node">
<title>Node3</title>
<g id="a_node3"><a xlink:title="पिछला पहिया">
<polygon fill="none" stroke="#0000ff" points="343.4862,-603 281.4862,-603 281.4862,-567 343.4862,-567 343.4862,-603"/>
<text text-anchor="middle" x="312.4862" y="-581.3" font-family="Times,serif" font-size="14.00" fill="#000000">अनुष्यन्द</text>
</a>
</g>
</g>
<!-- Node2&#45;&gt;Node3 -->
<g id="edge2" class="edge">
<title>Node2&#45;&gt;Node3</title>
<path fill="none" stroke="#000000" d="M209.9623,-565.8095C229.2874,-569.4268 252.177,-573.7113 271.4203,-577.3133"/>
<polygon fill="#000000" stroke="#000000" points="270.9273,-580.7817 281.4006,-579.1814 272.2153,-573.9012 270.9273,-580.7817"/>
<text text-anchor="middle" x="247.4862" y="-577.8" font-family="Times,serif" font-size="14.00" fill="#000000">घञ्</text>
</g>
<!-- Node5 -->
<g id="node5" class="node">
<title>Node5</title>
<g id="a_node5"><a xlink:title="स्राव, बहाव, टपकना">
<polygon fill="none" stroke="#0000ff" points="345.4862,-549 279.4862,-549 279.4862,-513 345.4862,-513 345.4862,-549"/>
<text text-anchor="middle" x="312.4862" y="-527.3" font-family="Times,serif" font-size="14.00" fill="#000000">अभिष्यन्द</text>
</a>
</g>
</g>
<!-- Node4&#45;&gt;Node5 -->
<g id="edge4" class="edge">
<title>Node4&#45;&gt;Node5</title>
<path fill="none" stroke="#000000" d="M202.7909,-489.9343C222.8841,-497.4565 248.3753,-506.9994 269.7264,-514.9924"/>
<polygon fill="#000000" stroke="#000000" points="268.6184,-518.3148 279.2108,-518.543 271.0726,-511.7591 268.6184,-518.3148"/>
<text text-anchor="middle" x="247.4862" y="-513.8" font-family="Times,serif" font-size="14.00" fill="#000000">घञ्</text>
</g>
<!-- Node6 -->
<g id="node6" class="node">
<title>Node6</title>
<g id="a_node6"><a xlink:title="स्राव, बहाव, टपकना">
<polygon fill="none" stroke="#0000ff" points="346.4862,-495 278.4862,-495 278.4862,-459 346.4862,-459 346.4862,-495"/>
<text text-anchor="middle" x="312.4862" y="-473.3" font-family="Times,serif" font-size="14.00" fill="#000000">अभिस्यन्द</text>
</a>
</g>
</g>
<!-- Node4&#45;&gt;Node6 -->
<g id="edge5" class="edge">
<title>Node4&#45;&gt;Node6</title>
<path fill="none" stroke="#000000" d="M217.0755,-477C233.5688,-477 251.8822,-477 268.0189,-477"/>
<polygon fill="#000000" stroke="#000000" points="268.2677,-480.5001 278.2677,-477 268.2676,-473.5001 268.2677,-480.5001"/>
<text text-anchor="middle" x="247.4862" y="-480.8" font-family="Times,serif" font-size="14.00" fill="#000000">घञ्</text>
</g>
<!-- Node8 -->
<g id="node8" class="node">
<title>Node8</title>
<g id="a_node8"><a xlink:title="बहना, रिसना">
<polygon fill="none" stroke="#0000ff" points="341.9862,-441 282.9862,-441 282.9862,-405 341.9862,-405 341.9862,-441"/>
<text text-anchor="middle" x="312.4862" y="-419.3" font-family="Times,serif" font-size="14.00" fill="#000000">आस्यन्द</text>
</a>
</g>
</g>
<!-- Node7&#45;&gt;Node8 -->
<g id="edge7" class="edge">
<title>Node7&#45;&gt;Node8</title>
<path fill="none" stroke="#000000" d="M211.5189,-423C230.9842,-423 253.8055,-423 272.8224,-423"/>
<polygon fill="#000000" stroke="#000000" points="272.9506,-426.5001 282.9505,-423 272.9505,-419.5001 272.9506,-426.5001"/>
<text text-anchor="middle" x="247.4862" y="-426.8" font-family="Times,serif" font-size="14.00" fill="#000000">ल्युट्</text>
</g>
<!-- Node10 -->
<g id="node10" class="node">
<title>Node10</title>
<g id="a_node10"><a xlink:title="आगे, या नीचे की ओर वहना, चूना, टपकना, बूंद&#45;बूंद करके गिरना, झरना, रिसना, मदनिस्यंदरेखयोः">
<polygon fill="none" stroke="#0000ff" points="339.9862,-387 284.9862,-387 284.9862,-351 339.9862,-351 339.9862,-387"/>
<text text-anchor="middle" x="312.4862" y="-365.3" font-family="Times,serif" font-size="14.00" fill="#000000">निष्यन्द</text>
</a>
</g>
</g>
<!-- Node9&#45;&gt;Node10 -->
<g id="edge9" class="edge">
<title>Node9&#45;&gt;Node10</title>
<path fill="none" stroke="#000000" d="M206.517,-349.1646C227.6046,-353.1118 253.6848,-357.9935 274.6951,-361.9263"/>
<polygon fill="#000000" stroke="#000000" points="274.0847,-365.3727 284.5579,-363.7724 275.3726,-358.4922 274.0847,-365.3727"/>
<text text-anchor="middle" x="247.4862" y="-361.8" font-family="Times,serif" font-size="14.00" fill="#000000">घञ्</text>
</g>
<!-- Node11 -->
<g id="node11" class="node">
<title>Node11</title>
<g id="a_node11"><a xlink:title="आगे, या नीचे की ओर वहना, चूना, टपकना, बूंद&#45;बूंद करके गिरना, झरना, रिसना, वल्कलशिखा निस्यंदरेखांकिताः">
<polygon fill="none" stroke="#0000ff" points="340.9862,-333 283.9862,-333 283.9862,-297 340.9862,-297 340.9862,-333"/>
<text text-anchor="middle" x="312.4862" y="-311.3" font-family="Times,serif" font-size="14.00" fill="#000000">निस्यन्द</text>
</a>
</g>
</g>
<!-- Node9&#45;&gt;Node11 -->
<g id="edge10" class="edge">
<title>Node9&#45;&gt;Node11</title>
<path fill="none" stroke="#000000" d="M206.517,-334.8354C227.2232,-330.9596 252.7429,-326.1828 273.5501,-322.2881"/>
<polygon fill="#000000" stroke="#000000" points="274.4613,-325.6784 283.6466,-320.3982 273.1734,-318.7979 274.4613,-325.6784"/>
<text text-anchor="middle" x="247.4862" y="-332.8" font-family="Times,serif" font-size="14.00" fill="#000000">घञ्</text>
</g>
<!-- Node12 -->
<g id="node12" class="node">
<title>Node12</title>
<g id="a_node12"><a xlink:title="टपकने वाला, बहने वाला, रिसने वाला">
<polygon fill="none" stroke="#0000ff" points="346.9862,-279 277.9862,-279 277.9862,-243 346.9862,-243 346.9862,-279"/>
<text text-anchor="middle" x="312.4862" y="-257.3" font-family="Times,serif" font-size="14.00" fill="#000000">निस्यन्दिन्</text>
</a>
</g>
</g>
<!-- Node9&#45;&gt;Node12 -->
<g id="edge11" class="edge">
<title>Node9&#45;&gt;Node12</title>
<path fill="none" stroke="#000000" d="M194.0679,-327.7496C201.4756,-323.6474 209.5571,-319.1577 216.9862,-315 234.9368,-304.9538 254.7385,-293.7733 271.6346,-284.2035"/>
<polygon fill="#000000" stroke="#000000" points="273.7181,-287.0458 280.6922,-279.0701 270.2666,-280.9558 273.7181,-287.0458"/>
<text text-anchor="middle" x="247.4862" y="-307.8" font-family="Times,serif" font-size="14.00" fill="#000000">णिनि</text>
</g>
<!-- Node14 -->
<g id="node14" class="node">
<title>Node14</title>
<g id="a_node14"><a xlink:title="रसना, बूंद २ टपकना, चूना">
<polygon fill="none" stroke="#0000ff" points="340.9862,-225 283.9862,-225 283.9862,-189 340.9862,-189 340.9862,-225"/>
<text text-anchor="middle" x="312.4862" y="-203.3" font-family="Times,serif" font-size="14.00" fill="#000000">परिस्यंद</text>
</a>
</g>
</g>
<!-- Node13&#45;&gt;Node14 -->
<g id="edge13" class="edge">
<title>Node13&#45;&gt;Node14</title>
<path fill="none" stroke="#000000" d="M194.8278,-273.3287C202.0258,-269.3417 209.8104,-265.016 216.9862,-261 236.0937,-250.3063 257.2987,-238.3273 274.8642,-228.3739"/>
<polygon fill="#000000" stroke="#000000" points="276.7149,-231.348 283.6876,-223.371 273.2623,-225.2587 276.7149,-231.348"/>
<text text-anchor="middle" x="247.4862" y="-253.8" font-family="Times,serif" font-size="14.00" fill="#000000">घञ्</text>
</g>
<!-- Node16 -->
<g id="node16" class="node">
<title>Node16</title>
<g id="a_node16"><a xlink:title="बहना, टपकना">
<polygon fill="none" stroke="#0000ff" points="339.4862,-171 285.4862,-171 285.4862,-135 339.4862,-135 339.4862,-171"/>
<text text-anchor="middle" x="312.4862" y="-149.3" font-family="Times,serif" font-size="14.00" fill="#000000">विष्यन्द</text>
</a>
</g>
</g>
<!-- Node15&#45;&gt;Node16 -->
<g id="edge15" class="edge">
<title>Node15&#45;&gt;Node16</title>
<path fill="none" stroke="#000000" d="M193.8157,-219.8893C201.2918,-215.7495 209.4727,-211.205 216.9862,-207 236.6599,-195.9895 258.5572,-183.6163 276.4158,-173.4946"/>
<polygon fill="#000000" stroke="#000000" points="278.3815,-176.4035 285.3534,-168.4259 274.9283,-170.3145 278.3815,-176.4035"/>
<text text-anchor="middle" x="247.4862" y="-199.8" font-family="Times,serif" font-size="14.00" fill="#000000">घञ्</text>
</g>
</g>
</svg>
