<?xml version="1.0" encoding="UTF-8" standalone="no"?>
<!DOCTYPE svg PUBLIC "-//W3C//DTD SVG 1.1//EN"
 "http://www.w3.org/Graphics/SVG/1.1/DTD/svg11.dtd">
<!-- Generated by graphviz version 2.36.0 (20140111.2315)
 -->
<!-- Title: G Pages: 1 -->
<svg width="316pt" height="1124pt"
 viewBox="0.00 0.00 316.00 1124.00" xmlns="http://www.w3.org/2000/svg" xmlns:xlink="http://www.w3.org/1999/xlink">
<g id="graph0" class="graph" transform="scale(1 1) rotate(0) translate(4 1120)">
<title>G</title>
<polygon fill="white" stroke="none" points="-4,4 -4,-1120 312,-1120 312,4 -4,4"/>
<!-- Node1 -->
<g id="node1" class="node"><title>Node1</title>
<ellipse fill="none" stroke="red" cx="27" cy="-558" rx="27" ry="18"/>
<text text-anchor="middle" x="27" y="-554.3" font-family="Times,serif" font-size="14.00">उष्</text>
</g>
<!-- Node2 -->
<g id="node2" class="node"><title>Node2</title>
<g id="a_node2"><a xlink:title="आकाश में रहने वाला दाहक तत्त्व, लूक">
<polygon fill="none" stroke="blue" points="184,-1116 130,-1116 130,-1080 184,-1080 184,-1116"/>
<text text-anchor="middle" x="157" y="-1094.3" font-family="Times,serif" font-size="14.00">उल्का</text>
</a>
</g>
</g>
<!-- Node1&#45;&gt;Node2 -->
<g id="edge1" class="edge"><title>Node1&#45;&gt;Node2</title>
<path fill="none" stroke="black" d="M28.0116,-576.012C28.3136,-651.793 32.0899,-944.567 72,-1026 82.6057,-1047.64 102.993,-1065.36 121.026,-1077.81"/>
<polygon fill="black" stroke="black" points="119.362,-1080.91 129.637,-1083.49 123.217,-1075.06 119.362,-1080.91"/>
<text text-anchor="middle" x="87" y="-1065.8" font-family="Times,serif" font-size="14.00">कक्</text>
</g>
<!-- Node3 -->
<g id="node3" class="node"><title>Node3</title>
<g id="a_node3"><a xlink:title="जलती लकड़ी, मशाल">
<polygon fill="none" stroke="blue" points="184,-1062 130,-1062 130,-1026 184,-1026 184,-1062"/>
<text text-anchor="middle" x="157" y="-1040.3" font-family="Times,serif" font-size="14.00">उल्मुक</text>
</a>
</g>
</g>
<!-- Node1&#45;&gt;Node3 -->
<g id="edge2" class="edge"><title>Node1&#45;&gt;Node3</title>
<path fill="none" stroke="black" d="M28.3291,-576.405C29.8368,-646.849 37.5779,-898.951 72,-970 82.6321,-991.945 103.02,-1010.15 121.047,-1023.02"/>
<polygon fill="black" stroke="black" points="119.422,-1026.15 129.654,-1028.9 123.37,-1020.37 119.422,-1026.15"/>
<text text-anchor="middle" x="87" y="-1010.8" font-family="Times,serif" font-size="14.00">मुक्</text>
</g>
<!-- Node4 -->
<g id="node4" class="node"><title>Node4</title>
<g id="a_node4"><a xlink:title="प्रभात काल, पौ फटना">
<polygon fill="none" stroke="blue" points="184,-1008 130,-1008 130,-972 184,-972 184,-1008"/>
<text text-anchor="middle" x="157" y="-986.3" font-family="Times,serif" font-size="14.00">उष</text>
</a>
</g>
</g>
<!-- Node1&#45;&gt;Node4 -->
<g id="edge3" class="edge"><title>Node1&#45;&gt;Node4</title>
<path fill="none" stroke="black" d="M28.6834,-576.092C31.3309,-639.935 42.2837,-854.108 72,-915 82.7581,-937.045 103.148,-955.496 121.145,-968.582"/>
<polygon fill="black" stroke="black" points="119.529,-971.721 129.735,-974.566 123.531,-965.978 119.529,-971.721"/>
<text text-anchor="middle" x="87" y="-954.8" font-family="Times,serif" font-size="14.00">क</text>
</g>
<!-- Node5 -->
<g id="node5" class="node"><title>Node5</title>
<g id="a_node5"><a xlink:title="काली मिर्च">
<polygon fill="none" stroke="blue" points="184,-954 130,-954 130,-918 184,-918 184,-954"/>
<text text-anchor="middle" x="157" y="-932.3" font-family="Times,serif" font-size="14.00">उषण</text>
</a>
</g>
</g>
<!-- Node1&#45;&gt;Node5 -->
<g id="edge4" class="edge"><title>Node1&#45;&gt;Node5</title>
<path fill="none" stroke="black" d="M29.1323,-576.086C32.9514,-633.412 46.5648,-810.276 72,-861 82.9953,-882.927 103.39,-901.377 121.33,-914.49"/>
<polygon fill="black" stroke="black" points="119.691,-917.615 129.888,-920.491 123.71,-911.884 119.691,-917.615"/>
<text text-anchor="middle" x="87" y="-899.8" font-family="Times,serif" font-size="14.00">ल्युट्</text>
</g>
<!-- Node6 -->
<g id="node6" class="node"><title>Node6</title>
<g id="a_node6"><a xlink:title="अग्नि">
<polygon fill="none" stroke="blue" points="184,-900 130,-900 130,-864 184,-864 184,-900"/>
<text text-anchor="middle" x="157" y="-878.3" font-family="Times,serif" font-size="14.00">उषप</text>
</a>
</g>
</g>
<!-- Node1&#45;&gt;Node6 -->
<g id="edge5" class="edge"><title>Node1&#45;&gt;Node6</title>
<path fill="none" stroke="black" d="M27.6508,-576.282C27.5711,-618.997 31.6764,-727.657 72,-806 83.215,-827.789 103.414,-846.373 121.194,-859.71"/>
<polygon fill="black" stroke="black" points="119.52,-862.817 129.678,-865.826 123.614,-857.139 119.52,-862.817"/>
<text text-anchor="middle" x="87" y="-845.8" font-family="Times,serif" font-size="14.00">कपन्</text>
</g>
<!-- Node7 -->
<g id="node7" class="node"><title>Node7</title>
<g id="a_node7"><a xlink:title="दिन का अवसान, सायंकालीन संध्या">
<polygon fill="none" stroke="blue" points="184,-846 130,-846 130,-810 184,-810 184,-846"/>
<text text-anchor="middle" x="157" y="-824.3" font-family="Times,serif" font-size="14.00">उषसी</text>
</a>
</g>
</g>
<!-- Node1&#45;&gt;Node7 -->
<g id="edge6" class="edge"><title>Node1&#45;&gt;Node7</title>
<path fill="none" stroke="black" d="M28.9238,-576.152C31.4033,-611.74 40.3542,-692.318 72,-751 83.7011,-772.698 103.913,-791.516 121.578,-805.118"/>
<polygon fill="black" stroke="black" points="119.881,-808.217 129.997,-811.365 124.053,-802.595 119.881,-808.217"/>
<text text-anchor="middle" x="87" y="-790.8" font-family="Times,serif" font-size="14.00">असि</text>
</g>
<!-- Node8 -->
<g id="node8" class="node"><title>Node8</title>
<g id="a_node8"><a xlink:title="प्रातः कालीन प्रकाश">
<polygon fill="none" stroke="blue" points="184,-792 130,-792 130,-756 184,-756 184,-792"/>
<text text-anchor="middle" x="157" y="-770.3" font-family="Times,serif" font-size="14.00">उषस्</text>
</a>
</g>
</g>
<!-- Node1&#45;&gt;Node8 -->
<g id="edge7" class="edge"><title>Node1&#45;&gt;Node8</title>
<path fill="none" stroke="black" d="M31.0087,-576.199C36.1645,-603.844 48.4817,-657.387 72,-697 84.4115,-717.905 104.264,-736.483 121.553,-750.151"/>
<polygon fill="black" stroke="black" points="119.722,-753.158 129.791,-756.455 123.976,-747.599 119.722,-753.158"/>
<text text-anchor="middle" x="87" y="-735.8" font-family="Times,serif" font-size="14.00">असि</text>
</g>
<!-- Node9 -->
<g id="node9" class="node"><title>Node9</title>
<g id="a_node9"><a xlink:title="वीरणमूल, खस">
<polygon fill="none" stroke="blue" points="184,-738 130,-738 130,-702 184,-702 184,-738"/>
<text text-anchor="middle" x="157" y="-716.3" font-family="Times,serif" font-size="14.00">उषीर</text>
</a>
</g>
</g>
<!-- Node1&#45;&gt;Node9 -->
<g id="edge8" class="edge"><title>Node1&#45;&gt;Node9</title>
<path fill="none" stroke="black" d="M34.1752,-575.515C41.4345,-594.681 54.7172,-625.769 72,-649 89.2739,-672.219 97.7303,-674.518 120,-693 120.981,-693.814 121.983,-694.634 122.999,-695.455"/>
<polygon fill="black" stroke="black" points="120.941,-698.29 130.964,-701.723 125.27,-692.788 120.941,-698.29"/>
<text text-anchor="middle" x="87" y="-681.8" font-family="Times,serif" font-size="14.00">कीरच्</text>
</g>
<!-- Node10 -->
<g id="node10" class="node"><title>Node10</title>
<g id="a_node10"><a xlink:title="वीरणमूल, खस">
<polygon fill="none" stroke="blue" points="184,-684 130,-684 130,-648 184,-648 184,-684"/>
<text text-anchor="middle" x="157" y="-662.3" font-family="Times,serif" font-size="14.00">उषीरक</text>
</a>
</g>
</g>
<!-- Node1&#45;&gt;Node10 -->
<g id="edge9" class="edge"><title>Node1&#45;&gt;Node10</title>
<path fill="none" stroke="black" d="M40.193,-573.772C48.5638,-584.093 60.2473,-597.551 72,-608 87.1982,-621.512 105.649,-634.564 121.382,-644.854"/>
<polygon fill="black" stroke="black" points="119.502,-647.805 129.806,-650.271 123.289,-641.918 119.502,-647.805"/>
<text text-anchor="middle" x="87" y="-633.8" font-family="Times,serif" font-size="14.00">कीरच्</text>
</g>
<!-- Node11 -->
<g id="node11" class="node"><title>Node11</title>
<g id="a_node11"><a xlink:title="भैंसा">
<polygon fill="none" stroke="blue" points="184,-630 130,-630 130,-594 184,-594 184,-630"/>
<text text-anchor="middle" x="157" y="-608.3" font-family="Times,serif" font-size="14.00">उष्ट्र</text>
</a>
</g>
</g>
<!-- Node1&#45;&gt;Node11 -->
<g id="edge10" class="edge"><title>Node1&#45;&gt;Node11</title>
<path fill="none" stroke="black" d="M49.9093,-567.527C56.9547,-570.572 64.7997,-573.945 72,-577 87.8678,-583.731 105.467,-591.082 120.44,-597.302"/>
<polygon fill="black" stroke="black" points="119.278,-600.609 129.856,-601.208 121.96,-594.143 119.278,-600.609"/>
<text text-anchor="middle" x="87" y="-592.8" font-family="Times,serif" font-size="14.00">ष्ट्रन्</text>
</g>
<!-- Node12 -->
<g id="node12" class="node"><title>Node12</title>
<g id="a_node12"><a xlink:title="तप्त, गर्म, उष्ण अंशुः, उष्ण करः आदि#ताप, गर्मी">
<polygon fill="none" stroke="blue" points="184,-576 130,-576 130,-540 184,-540 184,-576"/>
<text text-anchor="middle" x="157" y="-554.3" font-family="Times,serif" font-size="14.00">उष्ण</text>
</a>
</g>
</g>
<!-- Node1&#45;&gt;Node12 -->
<g id="edge11" class="edge"><title>Node1&#45;&gt;Node12</title>
<path fill="none" stroke="black" d="M54.2116,-558C73.1076,-558 98.8508,-558 119.72,-558"/>
<polygon fill="black" stroke="black" points="119.824,-561.5 129.823,-558 119.823,-554.5 119.824,-561.5"/>
<text text-anchor="middle" x="87" y="-561.8" font-family="Times,serif" font-size="14.00">नक्</text>
</g>
<!-- Node13 -->
<g id="node13" class="node"><title>Node13</title>
<g id="a_node13"><a xlink:title="गर्मी">
<polygon fill="none" stroke="blue" points="184,-522 130,-522 130,-486 184,-486 184,-522"/>
<text text-anchor="middle" x="157" y="-500.3" font-family="Times,serif" font-size="14.00">उष्म</text>
</a>
</g>
</g>
<!-- Node1&#45;&gt;Node13 -->
<g id="edge12" class="edge"><title>Node1&#45;&gt;Node13</title>
<path fill="none" stroke="black" d="M49.9093,-548.473C56.9547,-545.428 64.7997,-542.055 72,-539 87.8678,-532.269 105.467,-524.918 120.44,-518.698"/>
<polygon fill="black" stroke="black" points="121.96,-521.857 129.856,-514.792 119.278,-515.391 121.96,-521.857"/>
<text text-anchor="middle" x="87" y="-542.8" font-family="Times,serif" font-size="14.00">मक्</text>
</g>
<!-- Node14 -->
<g id="node14" class="node"><title>Node14</title>
<g id="a_node14"><a xlink:title="गर्मी">
<polygon fill="none" stroke="blue" points="184,-468 130,-468 130,-432 184,-432 184,-468"/>
<text text-anchor="middle" x="157" y="-446.3" font-family="Times,serif" font-size="14.00">उष्मक</text>
</a>
</g>
</g>
<!-- Node1&#45;&gt;Node14 -->
<g id="edge13" class="edge"><title>Node1&#45;&gt;Node14</title>
<path fill="none" stroke="black" d="M40.1112,-541.86C48.4475,-531.309 60.1232,-517.577 72,-507 86.9628,-493.675 105.202,-480.943 120.857,-470.906"/>
<polygon fill="black" stroke="black" points="123.13,-473.611 129.731,-465.324 119.403,-467.686 123.13,-473.611"/>
<text text-anchor="middle" x="87" y="-510.8" font-family="Times,serif" font-size="14.00">मक्</text>
</g>
<!-- Node15 -->
<g id="node15" class="node"><title>Node15</title>
<g id="a_node15"><a xlink:title="वाष्प, भाप">
<polygon fill="none" stroke="blue" points="184,-414 130,-414 130,-378 184,-378 184,-414"/>
<text text-anchor="middle" x="157" y="-392.3" font-family="Times,serif" font-size="14.00">उष्मन्</text>
</a>
</g>
</g>
<!-- Node1&#45;&gt;Node15 -->
<g id="edge14" class="edge"><title>Node1&#45;&gt;Node15</title>
<path fill="none" stroke="black" d="M33.8643,-540.371C40.9332,-520.739 54.1283,-488.659 72,-465 85.5616,-447.047 104.709,-430.851 121.299,-418.669"/>
<polygon fill="black" stroke="black" points="123.591,-421.334 129.699,-412.676 119.525,-415.635 123.591,-421.334"/>
<text text-anchor="middle" x="87" y="-468.8" font-family="Times,serif" font-size="14.00">मनिन्</text>
</g>
<!-- Node16 -->
<g id="node16" class="node"><title>Node16</title>
<g id="a_node16"><a xlink:title="जलन, संवाह">
<polygon fill="none" stroke="blue" points="184,-360 130,-360 130,-324 184,-324 184,-360"/>
<text text-anchor="middle" x="157" y="-338.3" font-family="Times,serif" font-size="14.00">ओष</text>
</a>
</g>
</g>
<!-- Node1&#45;&gt;Node16 -->
<g id="edge15" class="edge"><title>Node1&#45;&gt;Node16</title>
<path fill="none" stroke="black" d="M30.6885,-539.779C35.478,-511.551 47.3856,-456.31 72,-416 84.4472,-395.616 104.301,-377.75 121.582,-364.681"/>
<polygon fill="black" stroke="black" points="123.809,-367.389 129.815,-358.661 119.677,-361.738 123.809,-367.389"/>
<text text-anchor="middle" x="87" y="-419.8" font-family="Times,serif" font-size="14.00">घञ्</text>
</g>
<!-- Node17 -->
<g id="node17" class="node"><title>Node17</title>
<g id="a_node17"><a xlink:title="तिक्तता, तीक्ष्णता, तीखा रस">
<polygon fill="none" stroke="blue" points="184,-306 130,-306 130,-270 184,-270 184,-306"/>
<text text-anchor="middle" x="157" y="-284.3" font-family="Times,serif" font-size="14.00">ओषण</text>
</a>
</g>
</g>
<!-- Node1&#45;&gt;Node17 -->
<g id="edge16" class="edge"><title>Node1&#45;&gt;Node17</title>
<path fill="none" stroke="black" d="M28.6814,-539.759C30.7374,-503.609 38.9825,-421.253 72,-362 83.7071,-340.991 103.724,-323.001 121.282,-310.021"/>
<polygon fill="black" stroke="black" points="123.539,-312.711 129.656,-304.061 119.48,-307.008 123.539,-312.711"/>
<text text-anchor="middle" x="87" y="-365.8" font-family="Times,serif" font-size="14.00">ल्युट्</text>
</g>
<!-- Node18 -->
<g id="node18" class="node"><title>Node18</title>
<g id="a_node18"><a xlink:title="होठ, ऊपर का या नीचे का">
<polygon fill="none" stroke="blue" points="184,-252 130,-252 130,-216 184,-216 184,-252"/>
<text text-anchor="middle" x="157" y="-230.3" font-family="Times,serif" font-size="14.00">ओष्ठ</text>
</a>
</g>
</g>
<!-- Node1&#45;&gt;Node18 -->
<g id="edge17" class="edge"><title>Node1&#45;&gt;Node18</title>
<path fill="none" stroke="black" d="M27.4322,-539.732C26.858,-496.541 29.9336,-385.847 72,-307 83.3328,-285.759 103.535,-267.9 121.287,-255.164"/>
<polygon fill="black" stroke="black" points="123.506,-257.886 129.756,-249.33 119.535,-252.121 123.506,-257.886"/>
<text text-anchor="middle" x="87" y="-310.8" font-family="Times,serif" font-size="14.00">थन्</text>
</g>
<!-- Node19 -->
<g id="node19" class="node"><title>Node19</title>
<ellipse fill="none" stroke="red" cx="157" cy="-180" rx="37.0935" ry="18"/>
<text text-anchor="middle" x="157" y="-176.3" font-family="Times,serif" font-size="14.00">परि_उष्</text>
</g>
<!-- Node1&#45;&gt;Node19 -->
<g id="edge18" class="edge"><title>Node1&#45;&gt;Node19</title>
<path fill="none" stroke="black" d="M27.548,-539.726C27.0431,-492.468 29.9145,-363.197 72,-267 83.7813,-240.071 107.799,-216.576 127.146,-200.813"/>
<polygon fill="black" stroke="black" points="129.414,-203.482 135.102,-194.544 125.081,-197.984 129.414,-203.482"/>
</g>
<!-- Node21 -->
<g id="node21" class="node"><title>Node21</title>
<g id="a_node21"><a xlink:title="भोर, प्रभात, तड़का">
<polygon fill="none" stroke="blue" points="184,-144 130,-144 130,-108 184,-108 184,-144"/>
<text text-anchor="middle" x="157" y="-122.3" font-family="Times,serif" font-size="14.00">प्रत्युष</text>
</a>
</g>
</g>
<!-- Node1&#45;&gt;Node21 -->
<g id="edge20" class="edge"><title>Node1&#45;&gt;Node21</title>
<path fill="none" stroke="black" d="M27.3176,-539.639C26.0163,-487.531 26.6366,-335.057 72,-220 85.4358,-185.922 94.3824,-179.183 120,-153 120.645,-152.34 121.308,-151.684 121.984,-151.032"/>
<polygon fill="black" stroke="black" points="124.462,-153.513 129.64,-144.27 119.828,-148.267 124.462,-153.513"/>
</g>
<!-- Node22 -->
<g id="node22" class="node"><title>Node22</title>
<g id="a_node22"><a xlink:title="भोर, प्रभात, तड़का">
<polygon fill="none" stroke="blue" points="184,-90 130,-90 130,-54 184,-54 184,-90"/>
<text text-anchor="middle" x="157" y="-68.3" font-family="Times,serif" font-size="14.00">प्रत्युष</text>
</a>
</g>
</g>
<!-- Node1&#45;&gt;Node22 -->
<g id="edge21" class="edge"><title>Node1&#45;&gt;Node22</title>
<path fill="none" stroke="black" d="M28.8483,-539.779C32.1756,-472.276 45.4754,-236.756 72,-167 85.1481,-132.422 94.2218,-125.533 120,-99 120.762,-98.2155 121.549,-97.4361 122.354,-96.6635"/>
<polygon fill="black" stroke="black" points="124.798,-99.1755 129.997,-89.9436 120.176,-93.9187 124.798,-99.1755"/>
</g>
<!-- Node23 -->
<g id="node23" class="node"><title>Node23</title>
<ellipse fill="none" stroke="red" cx="157" cy="-18" rx="33.2948" ry="18"/>
<text text-anchor="middle" x="157" y="-14.3" font-family="Times,serif" font-size="14.00">वि_उष्</text>
</g>
<!-- Node1&#45;&gt;Node23 -->
<g id="edge22" class="edge"><title>Node1&#45;&gt;Node23</title>
<path fill="none" stroke="black" d="M28.5631,-539.828C31.02,-466.619 42.0525,-193.388 72,-113 84.9143,-78.3342 94.2218,-71.5326 120,-45 122.286,-42.6466 124.792,-40.3387 127.382,-38.1246"/>
<polygon fill="black" stroke="black" points="129.652,-40.7909 135.277,-31.8126 125.281,-35.3235 129.652,-40.7909"/>
</g>
<!-- Node20 -->
<g id="node20" class="node"><title>Node20</title>
<g id="a_node20"><a xlink:title="पूजा, अर्चा, सेवा">
<polygon fill="none" stroke="blue" points="308,-198 254,-198 254,-162 308,-162 308,-198"/>
<text text-anchor="middle" x="281" y="-176.3" font-family="Times,serif" font-size="14.00">पर्युषण</text>
</a>
</g>
</g>
<!-- Node19&#45;&gt;Node20 -->
<g id="edge19" class="edge"><title>Node19&#45;&gt;Node20</title>
<path fill="none" stroke="black" d="M194.274,-180C209.796,-180 227.891,-180 243.444,-180"/>
<polygon fill="black" stroke="black" points="243.744,-183.5 253.744,-180 243.744,-176.5 243.744,-183.5"/>
<text text-anchor="middle" x="224" y="-183.8" font-family="Times,serif" font-size="14.00">ल्युट्</text>
</g>
<!-- Node24 -->
<g id="node24" class="node"><title>Node24</title>
<g id="a_node24"><a xlink:title="जलाया गया#पौ फटना, प्रभात">
<polygon fill="none" stroke="blue" points="308,-36 254,-36 254,-0 308,-0 308,-36"/>
<text text-anchor="middle" x="281" y="-14.3" font-family="Times,serif" font-size="14.00">व्युष्ट</text>
</a>
</g>
</g>
<!-- Node23&#45;&gt;Node24 -->
<g id="edge23" class="edge"><title>Node23&#45;&gt;Node24</title>
<path fill="none" stroke="black" d="M190.373,-18C206.742,-18 226.667,-18 243.57,-18"/>
<polygon fill="black" stroke="black" points="243.645,-21.5001 253.645,-18 243.645,-14.5001 243.645,-21.5001"/>
<text text-anchor="middle" x="224" y="-21.8" font-family="Times,serif" font-size="14.00">क्त</text>
</g>
</g>
</svg>
