<?xml version="1.0" encoding="UTF-8" standalone="no"?>
<!DOCTYPE svg PUBLIC "-//W3C//DTD SVG 1.1//EN"
 "http://www.w3.org/Graphics/SVG/1.1/DTD/svg11.dtd">
<!-- Generated by graphviz version 2.40.1 (20161225.0304)
 -->
<!-- Title: G Pages: 1 -->
<svg width="306pt" height="314pt"
 viewBox="0.00 0.00 306.39 314.00" xmlns="http://www.w3.org/2000/svg" xmlns:xlink="http://www.w3.org/1999/xlink">
<g id="graph0" class="graph" transform="scale(1 1) rotate(0) translate(4 310)">
<title>G</title>
<polygon fill="#ffffff" stroke="transparent" points="-4,4 -4,-310 302.3933,-310 302.3933,4 -4,4"/>
<!-- Node1 -->
<g id="node1" class="node">
<title>Node1</title>
<ellipse fill="none" stroke="#ff0000" cx="27" cy="-153" rx="27" ry="18"/>
<text text-anchor="middle" x="27" y="-149.3" font-family="Times,serif" font-size="14.00" fill="#000000">वात</text>
</g>
<!-- Node2 -->
<g id="node2" class="node">
<title>Node2</title>
<g id="a_node2"><a xlink:title="उपपति, जार">
<polygon fill="none" stroke="#0000ff" points="186.6967,-306 132.6967,-306 132.6967,-270 186.6967,-270 186.6967,-306"/>
<text text-anchor="middle" x="159.6967" y="-284.3" font-family="Times,serif" font-size="14.00" fill="#000000">वातक</text>
</a>
</g>
</g>
<!-- Node1&#45;&gt;Node2 -->
<g id="edge1" class="edge">
<title>Node1&#45;&gt;Node2</title>
<path fill="none" stroke="#000000" d="M38.9678,-169.291C55.8701,-191.6223 88.4351,-232.242 122,-261 122.9972,-261.8544 124.0204,-262.7095 125.0622,-263.5619"/>
<polygon fill="#000000" stroke="#000000" points="123.2538,-266.5902 133.2912,-269.9816 127.5595,-261.071 123.2538,-266.5902"/>
<text text-anchor="middle" x="88" y="-245.8" font-family="Times,serif" font-size="14.00" fill="#000000">कन्</text>
</g>
<!-- Node3 -->
<g id="node3" class="node">
<title>Node3</title>
<ellipse fill="none" stroke="#ff0000" cx="159.6967" cy="-234" rx="35.194" ry="18"/>
<text text-anchor="middle" x="159.6967" y="-230.3" font-family="Times,serif" font-size="14.00" fill="#000000">वात+रा</text>
</g>
<!-- Node1&#45;&gt;Node3 -->
<g id="edge2" class="edge">
<title>Node1&#45;&gt;Node3</title>
<path fill="none" stroke="#000000" d="M44.4995,-167.2221C52.6475,-173.5802 62.5993,-180.9809 72,-187 88.9034,-197.823 108.529,-208.5038 124.9234,-216.9418"/>
<polygon fill="#000000" stroke="#000000" points="123.6573,-220.2243 134.1578,-221.6349 126.8288,-213.984 123.6573,-220.2243"/>
</g>
<!-- Node5 -->
<g id="node5" class="node">
<title>Node5</title>
<g id="a_node5"><a xlink:title="भात का मांड#हवादार">
<polygon fill="none" stroke="#0000ff" points="186.6967,-198 132.6967,-198 132.6967,-162 186.6967,-162 186.6967,-198"/>
<text text-anchor="middle" x="159.6967" y="-176.3" font-family="Times,serif" font-size="14.00" fill="#000000">वातीय</text>
</a>
</g>
</g>
<!-- Node1&#45;&gt;Node5 -->
<g id="edge4" class="edge">
<title>Node1&#45;&gt;Node5</title>
<path fill="none" stroke="#000000" d="M52.9003,-158.27C72.6944,-162.2975 100.2554,-167.9054 122.4205,-172.4154"/>
<polygon fill="#000000" stroke="#000000" points="121.9961,-175.9007 132.4932,-174.4649 123.3919,-169.0412 121.9961,-175.9007"/>
<text text-anchor="middle" x="88" y="-171.8" font-family="Times,serif" font-size="14.00" fill="#000000">छ</text>
</g>
<!-- Node6 -->
<g id="node6" class="node">
<title>Node6</title>
<g id="a_node6"><a xlink:title="भँवर#वायु रोग से ग्रस्त, गठिया पीड़ित">
<polygon fill="none" stroke="#0000ff" points="186.6967,-144 132.6967,-144 132.6967,-108 186.6967,-108 186.6967,-144"/>
<text text-anchor="middle" x="159.6967" y="-122.3" font-family="Times,serif" font-size="14.00" fill="#000000">वातुल</text>
</a>
</g>
</g>
<!-- Node1&#45;&gt;Node6 -->
<g id="edge5" class="edge">
<title>Node1&#45;&gt;Node6</title>
<path fill="none" stroke="#000000" d="M52.6747,-147.1681C58.9865,-145.7693 65.7317,-144.3038 72,-143 88.5655,-139.5544 106.9395,-135.9581 122.5716,-132.9652"/>
<polygon fill="#000000" stroke="#000000" points="123.233,-136.4022 132.4017,-131.0933 121.9235,-129.5258 123.233,-136.4022"/>
<text text-anchor="middle" x="88" y="-146.8" font-family="Times,serif" font-size="14.00" fill="#000000">उलच्</text>
</g>
<!-- Node7 -->
<g id="node7" class="node">
<title>Node7</title>
<g id="a_node7"><a xlink:title="वायु रोग से ग्रस्त, गठिया पीड़ित">
<polygon fill="none" stroke="#0000ff" points="186.6967,-90 132.6967,-90 132.6967,-54 186.6967,-54 186.6967,-90"/>
<text text-anchor="middle" x="159.6967" y="-68.3" font-family="Times,serif" font-size="14.00" fill="#000000">वातूल</text>
</a>
</g>
</g>
<!-- Node1&#45;&gt;Node7 -->
<g id="edge6" class="edge">
<title>Node1&#45;&gt;Node7</title>
<path fill="none" stroke="#000000" d="M43.4913,-138.487C51.7538,-131.5645 62.089,-123.4146 72,-117 88.2124,-106.507 107.173,-96.5204 123.3083,-88.6329"/>
<polygon fill="#000000" stroke="#000000" points="124.9435,-91.7303 132.4399,-84.2434 121.9108,-85.4213 124.9435,-91.7303"/>
<text text-anchor="middle" x="88" y="-120.8" font-family="Times,serif" font-size="14.00" fill="#000000">ऊलच्</text>
</g>
<!-- Node8 -->
<g id="node8" class="node">
<title>Node8</title>
<ellipse fill="none" stroke="#ff0000" cx="159.6967" cy="-18" rx="37.8943" ry="18"/>
<text text-anchor="middle" x="159.6967" y="-14.3" font-family="Times,serif" font-size="14.00" fill="#000000">वात+ला</text>
</g>
<!-- Node1&#45;&gt;Node8 -->
<g id="edge7" class="edge">
<title>Node1&#45;&gt;Node8</title>
<path fill="none" stroke="#000000" d="M38.8892,-136.5628C47.6712,-124.7048 60.1154,-108.4789 72,-95 92.7844,-71.4275 98.0338,-65.3291 122,-45 124.3021,-43.0472 126.7387,-41.0872 129.2209,-39.164"/>
<polygon fill="#000000" stroke="#000000" points="131.7862,-41.6167 137.7071,-32.8307 127.5995,-36.0068 131.7862,-41.6167"/>
</g>
<!-- Node4 -->
<g id="node4" class="node">
<title>Node4</title>
<g id="a_node4"><a xlink:title="तूफ़ानी, झंझामय">
<polygon fill="none" stroke="#0000ff" points="298.3933,-252 244.3933,-252 244.3933,-216 298.3933,-216 298.3933,-252"/>
<text text-anchor="middle" x="271.3933" y="-230.3" font-family="Times,serif" font-size="14.00" fill="#000000">वातर</text>
</a>
</g>
</g>
<!-- Node3&#45;&gt;Node4 -->
<g id="edge3" class="edge">
<title>Node3&#45;&gt;Node4</title>
<path fill="none" stroke="#000000" d="M195.0382,-234C207.4214,-234 221.3666,-234 233.9184,-234"/>
<polygon fill="#000000" stroke="#000000" points="234.0693,-237.5001 244.0692,-234 234.0692,-230.5001 234.0693,-237.5001"/>
<text text-anchor="middle" x="220.8933" y="-237.8" font-family="Times,serif" font-size="14.00" fill="#000000">क</text>
</g>
<!-- Node9 -->
<g id="node9" class="node">
<title>Node9</title>
<g id="a_node9"><a xlink:title="जर्मन मछली">
<polygon fill="none" stroke="#0000ff" points="298.3933,-36 244.3933,-36 244.3933,0 298.3933,0 298.3933,-36"/>
<text text-anchor="middle" x="271.3933" y="-14.3" font-family="Times,serif" font-size="14.00" fill="#000000">वादाल</text>
</a>
</g>
</g>
<!-- Node8&#45;&gt;Node9 -->
<g id="edge8" class="edge">
<title>Node8&#45;&gt;Node9</title>
<path fill="none" stroke="#000000" d="M197.512,-18C209.2383,-18 222.1528,-18 233.8599,-18"/>
<polygon fill="#000000" stroke="#000000" points="234.2032,-21.5001 244.2031,-18 234.2031,-14.5001 234.2032,-21.5001"/>
<text text-anchor="middle" x="220.8933" y="-21.8" font-family="Times,serif" font-size="14.00" fill="#000000">क</text>
</g>
</g>
</svg>
