<?xml version="1.0" encoding="UTF-8" standalone="no"?>
<!DOCTYPE svg PUBLIC "-//W3C//DTD SVG 1.1//EN"
 "http://www.w3.org/Graphics/SVG/1.1/DTD/svg11.dtd">
<!-- Generated by graphviz version 2.36.0 (20140111.2315)
 -->
<!-- Title: G Pages: 1 -->
<svg width="472pt" height="314pt"
 viewBox="0.00 0.00 472.00 314.00" xmlns="http://www.w3.org/2000/svg" xmlns:xlink="http://www.w3.org/1999/xlink">
<g id="graph0" class="graph" transform="scale(1 1) rotate(0) translate(4 310)">
<title>G</title>
<polygon fill="white" stroke="none" points="-4,4 -4,-310 468,-310 468,4 -4,4"/>
<!-- Node1 -->
<g id="node1" class="node"><title>Node1</title>
<ellipse fill="none" stroke="red" cx="27" cy="-153" rx="27" ry="18"/>
<text text-anchor="middle" x="27" y="-149.3" font-family="Times,serif" font-size="14.00">वल्ग्</text>
</g>
<!-- Node2 -->
<g id="node2" class="node"><title>Node2</title>
<g id="a_node2"><a xlink:title="उछलना, कूदना, सरपट दौड़ना">
<polygon fill="none" stroke="blue" points="183,-306 129,-306 129,-270 183,-270 183,-306"/>
<text text-anchor="middle" x="156" y="-284.3" font-family="Times,serif" font-size="14.00">वल्गन</text>
</a>
</g>
</g>
<!-- Node1&#45;&gt;Node2 -->
<g id="edge1" class="edge"><title>Node1&#45;&gt;Node2</title>
<path fill="none" stroke="black" d="M37.8166,-169.635C46.2199,-183.377 58.9911,-203.132 72,-219 88.7365,-239.415 93.5376,-244.321 114,-261 116.023,-262.649 118.149,-264.29 120.324,-265.901"/>
<polygon fill="black" stroke="black" points="118.657,-269.009 128.844,-271.922 122.697,-263.292 118.657,-269.009"/>
<text text-anchor="middle" x="84" y="-248.8" font-family="Times,serif" font-size="14.00">ल्युट्</text>
</g>
<!-- Node3 -->
<g id="node3" class="node"><title>Node3</title>
<g id="a_node3"><a xlink:title="लगाम, रास, आलाने गृह्यते हस्ती वाजी वल्गासु गृह्यते">
<polygon fill="none" stroke="blue" points="183,-252 129,-252 129,-216 183,-216 183,-252"/>
<text text-anchor="middle" x="156" y="-230.3" font-family="Times,serif" font-size="14.00">वल्गा</text>
</a>
</g>
</g>
<!-- Node1&#45;&gt;Node3 -->
<g id="edge2" class="edge"><title>Node1&#45;&gt;Node3</title>
<path fill="none" stroke="black" d="M45.2121,-166.657C53.1995,-172.799 62.9182,-179.999 72,-186 87.2962,-196.107 104.794,-206.402 119.768,-214.853"/>
<polygon fill="black" stroke="black" points="118.286,-218.034 128.722,-219.858 121.701,-211.924 118.286,-218.034"/>
<text text-anchor="middle" x="84" y="-203.8" font-family="Times,serif" font-size="14.00">अच्</text>
</g>
<!-- Node4 -->
<g id="node4" class="node"><title>Node4</title>
<g id="a_node4"><a xlink:title="कूदा हुआ, छलांग लगाई हुई, उछला हुआ#सरपट दौड़, घोड़ की एक प्रकार की दौड़">
<polygon fill="none" stroke="blue" points="183,-198 129,-198 129,-162 183,-162 183,-198"/>
<text text-anchor="middle" x="156" y="-176.3" font-family="Times,serif" font-size="14.00">वल्गित</text>
</a>
</g>
</g>
<!-- Node1&#45;&gt;Node4 -->
<g id="edge3" class="edge"><title>Node1&#45;&gt;Node4</title>
<path fill="none" stroke="black" d="M53.0911,-158.334C71.8522,-162.323 97.7784,-167.835 118.785,-172.301"/>
<polygon fill="black" stroke="black" points="118.14,-175.742 128.649,-174.398 119.596,-168.895 118.14,-175.742"/>
<text text-anchor="middle" x="84" y="-170.8" font-family="Times,serif" font-size="14.00">क्त</text>
</g>
<!-- Node5 -->
<g id="node5" class="node"><title>Node5</title>
<g id="a_node5"><a xlink:title="गीदड़">
<polygon fill="none" stroke="blue" points="183,-144 129,-144 129,-108 183,-108 183,-144"/>
<text text-anchor="middle" x="156" y="-122.3" font-family="Times,serif" font-size="14.00">वल्गुल</text>
</a>
</g>
</g>
<!-- Node1&#45;&gt;Node5 -->
<g id="edge4" class="edge"><title>Node1&#45;&gt;Node5</title>
<path fill="none" stroke="black" d="M52.6469,-147.301C58.9504,-145.87 65.7212,-144.356 72,-143 87.2713,-139.701 104.159,-136.213 118.693,-133.261"/>
<polygon fill="black" stroke="black" points="119.695,-136.629 128.802,-131.216 118.307,-129.768 119.695,-136.629"/>
<text text-anchor="middle" x="84" y="-146.8" font-family="Times,serif" font-size="14.00">उल</text>
</g>
<!-- Node6 -->
<g id="node6" class="node"><title>Node6</title>
<ellipse fill="none" stroke="red" cx="156" cy="-72" rx="38.9931" ry="18"/>
<text text-anchor="middle" x="156" y="-68.3" font-family="Times,serif" font-size="14.00">आ_वल्ग्</text>
</g>
<!-- Node1&#45;&gt;Node6 -->
<g id="edge5" class="edge"><title>Node1&#45;&gt;Node6</title>
<path fill="none" stroke="black" d="M47.0132,-140.873C67.3505,-127.902 99.9226,-107.128 123.982,-91.7834"/>
<polygon fill="black" stroke="black" points="125.873,-94.7285 132.422,-86.4002 122.109,-88.8267 125.873,-94.7285"/>
</g>
<!-- Node9 -->
<g id="node9" class="node"><title>Node9</title>
<ellipse fill="none" stroke="red" cx="156" cy="-18" rx="41.6928" ry="18"/>
<text text-anchor="middle" x="156" y="-14.3" font-family="Times,serif" font-size="14.00">सम्_वल्ग्</text>
</g>
<!-- Node1&#45;&gt;Node9 -->
<g id="edge8" class="edge"><title>Node1&#45;&gt;Node9</title>
<path fill="none" stroke="black" d="M38.5671,-136.669C53.5585,-114.29 82.6808,-73.6165 114,-45 116.454,-42.7579 119.112,-40.5723 121.854,-38.478"/>
<polygon fill="black" stroke="black" points="124.115,-41.1647 130.217,-32.504 120.046,-35.4687 124.115,-41.1647"/>
</g>
<!-- Node7 -->
<g id="node7" class="node"><title>Node7</title>
<ellipse fill="none" stroke="red" cx="297" cy="-72" rx="50.8918" ry="18"/>
<text text-anchor="middle" x="297" y="-68.3" font-family="Times,serif" font-size="14.00">वि_आ_वल्ग्</text>
</g>
<!-- Node6&#45;&gt;Node7 -->
<g id="edge6" class="edge"><title>Node6&#45;&gt;Node7</title>
<path fill="none" stroke="black" d="M195.35,-72C207.837,-72 222.015,-72 235.708,-72"/>
<polygon fill="black" stroke="black" points="236.049,-75.5001 246.049,-72 236.049,-68.5001 236.049,-75.5001"/>
</g>
<!-- Node8 -->
<g id="node8" class="node"><title>Node8</title>
<g id="a_node8"><a xlink:title="पसीजा हुआ, द्रवित, विक्षुब्ध">
<polygon fill="none" stroke="blue" points="464,-90 396,-90 396,-54 464,-54 464,-90"/>
<text text-anchor="middle" x="430" y="-68.3" font-family="Times,serif" font-size="14.00">व्यावल्गित</text>
</a>
</g>
</g>
<!-- Node7&#45;&gt;Node8 -->
<g id="edge7" class="edge"><title>Node7&#45;&gt;Node8</title>
<path fill="none" stroke="black" d="M347.899,-72C360.314,-72 373.523,-72 385.598,-72"/>
<polygon fill="black" stroke="black" points="385.868,-75.5001 395.868,-72 385.868,-68.5001 385.868,-75.5001"/>
<text text-anchor="middle" x="372" y="-75.8" font-family="Times,serif" font-size="14.00">क्त</text>
</g>
<!-- Node10 -->
<g id="node10" class="node"><title>Node10</title>
<g id="a_node10"><a xlink:title="ध्वनि#पददलित किया हुआ">
<polygon fill="none" stroke="blue" points="327.5,-36 266.5,-36 266.5,-0 327.5,-0 327.5,-36"/>
<text text-anchor="middle" x="297" y="-14.3" font-family="Times,serif" font-size="14.00">संवल्गित</text>
</a>
</g>
</g>
<!-- Node9&#45;&gt;Node10 -->
<g id="edge9" class="edge"><title>Node9&#45;&gt;Node10</title>
<path fill="none" stroke="black" d="M197.953,-18C216.381,-18 238.05,-18 256.324,-18"/>
<polygon fill="black" stroke="black" points="256.362,-21.5001 266.362,-18 256.362,-14.5001 256.362,-21.5001"/>
<text text-anchor="middle" x="222" y="-21.8" font-family="Times,serif" font-size="14.00">क्त</text>
</g>
</g>
</svg>
