<?xml version="1.0" encoding="UTF-8" standalone="no"?>
<!DOCTYPE svg PUBLIC "-//W3C//DTD SVG 1.1//EN"
 "http://www.w3.org/Graphics/SVG/1.1/DTD/svg11.dtd">
<!-- Generated by graphviz version 2.36.0 (20140111.2315)
 -->
<!-- Title: G Pages: 1 -->
<svg width="308pt" height="314pt"
 viewBox="0.00 0.00 308.00 314.00" xmlns="http://www.w3.org/2000/svg" xmlns:xlink="http://www.w3.org/1999/xlink">
<g id="graph0" class="graph" transform="scale(1 1) rotate(0) translate(4 310)">
<title>G</title>
<polygon fill="white" stroke="none" points="-4,4 -4,-310 304,-310 304,4 -4,4"/>
<!-- Node1 -->
<g id="node1" class="node"><title>Node1</title>
<ellipse fill="none" stroke="red" cx="27" cy="-153" rx="27" ry="18"/>
<text text-anchor="middle" x="27" y="-149.3" font-family="Times,serif" font-size="14.00">वण्</text>
</g>
<!-- Node2 -->
<g id="node2" class="node"><title>Node2</title>
<ellipse fill="none" stroke="red" cx="153" cy="-288" rx="37.0935" ry="18"/>
<text text-anchor="middle" x="153" y="-284.3" font-family="Times,serif" font-size="14.00">उत्_वण्</text>
</g>
<!-- Node1&#45;&gt;Node2 -->
<g id="edge1" class="edge"><title>Node1&#45;&gt;Node2</title>
<path fill="none" stroke="black" d="M38.9892,-169.203C54.5338,-191.433 84.5696,-231.935 116,-261 118.151,-262.989 120.444,-264.975 122.792,-266.915"/>
<polygon fill="black" stroke="black" points="120.838,-269.832 130.856,-273.279 125.174,-264.337 120.838,-269.832"/>
</g>
<!-- Node4 -->
<g id="node4" class="node"><title>Node4</title>
<ellipse fill="none" stroke="red" cx="153" cy="-234" rx="31.3957" ry="18"/>
<text text-anchor="middle" x="153" y="-230.3" font-family="Times,serif" font-size="14.00">प्र_वण्</text>
</g>
<!-- Node1&#45;&gt;Node4 -->
<g id="edge3" class="edge"><title>Node1&#45;&gt;Node4</title>
<path fill="none" stroke="black" d="M44.2683,-166.903C52.3812,-173.584 62.4738,-181.526 72,-188 87.4725,-198.515 105.474,-209.008 120.478,-217.311"/>
<polygon fill="black" stroke="black" points="118.93,-220.454 129.384,-222.179 122.288,-214.311 118.93,-220.454"/>
</g>
<!-- Node6 -->
<g id="node6" class="node"><title>Node6</title>
<g id="a_node6"><a xlink:title="चतुर और धूर्त स्त्री">
<polygon fill="none" stroke="blue" points="180,-198 126,-198 126,-162 180,-162 180,-198"/>
<text text-anchor="middle" x="153" y="-176.3" font-family="Times,serif" font-size="14.00">वणिनी</text>
</a>
</g>
</g>
<!-- Node1&#45;&gt;Node6 -->
<g id="edge5" class="edge"><title>Node1&#45;&gt;Node6</title>
<path fill="none" stroke="black" d="M52.7952,-158.399C70.9337,-162.348 95.8138,-167.766 116.12,-172.187"/>
<polygon fill="black" stroke="black" points="115.45,-175.623 125.965,-174.331 116.939,-168.784 115.45,-175.623"/>
<text text-anchor="middle" x="85" y="-172.8" font-family="Times,serif" font-size="14.00">णिनि</text>
</g>
<!-- Node7 -->
<g id="node7" class="node"><title>Node7</title>
<g id="a_node7"><a xlink:title="तीर, बाण, शर, धनुष्यमोघं समधत्त बाणम्">
<polygon fill="none" stroke="blue" points="180,-144 126,-144 126,-108 180,-108 180,-144"/>
<text text-anchor="middle" x="153" y="-122.3" font-family="Times,serif" font-size="14.00">वाण</text>
</a>
</g>
</g>
<!-- Node1&#45;&gt;Node7 -->
<g id="edge6" class="edge"><title>Node1&#45;&gt;Node7</title>
<path fill="none" stroke="black" d="M52.7952,-147.601C70.9337,-143.652 95.8138,-138.234 116.12,-133.813"/>
<polygon fill="black" stroke="black" points="116.939,-137.216 125.965,-131.669 115.45,-130.377 116.939,-137.216"/>
<text text-anchor="middle" x="85" y="-146.8" font-family="Times,serif" font-size="14.00">घञ्</text>
</g>
<!-- Node8 -->
<g id="node8" class="node"><title>Node8</title>
<g id="a_node8"><a xlink:title="बुनना">
<polygon fill="none" stroke="blue" points="180,-90 126,-90 126,-54 180,-54 180,-90"/>
<text text-anchor="middle" x="153" y="-68.3" font-family="Times,serif" font-size="14.00">वाणि</text>
</a>
</g>
</g>
<!-- Node1&#45;&gt;Node8 -->
<g id="edge7" class="edge"><title>Node1&#45;&gt;Node8</title>
<path fill="none" stroke="black" d="M44.7613,-139.244C52.8193,-132.841 62.7231,-125.272 72,-119 86.34,-109.304 102.738,-99.4666 116.938,-91.3149"/>
<polygon fill="black" stroke="black" points="118.942,-94.2018 125.91,-86.2198 115.486,-88.115 118.942,-94.2018"/>
<text text-anchor="middle" x="85" y="-122.8" font-family="Times,serif" font-size="14.00">इण्</text>
</g>
<!-- Node9 -->
<g id="node9" class="node"><title>Node9</title>
<g id="a_node9"><a xlink:title="भाषण, वचन, भाषा, बाण्येका समलंकरोति पुरुषं या संस्कृता धार्यते">
<polygon fill="none" stroke="blue" points="180,-36 126,-36 126,-0 180,-0 180,-36"/>
<text text-anchor="middle" x="153" y="-14.3" font-family="Times,serif" font-size="14.00">वाणी</text>
</a>
</g>
</g>
<!-- Node1&#45;&gt;Node9 -->
<g id="edge8" class="edge"><title>Node1&#45;&gt;Node9</title>
<path fill="none" stroke="black" d="M36.9429,-136.222C45.0961,-121.67 57.9789,-100.425 72,-84 88.9664,-64.1252 95.7527,-61.52 116,-45 117.135,-44.074 118.297,-43.1387 119.476,-42.2006"/>
<polygon fill="black" stroke="black" points="121.654,-44.9405 127.393,-36.0346 117.352,-39.4178 121.654,-44.9405"/>
<text text-anchor="middle" x="85" y="-87.8" font-family="Times,serif" font-size="14.00">इण्</text>
</g>
<!-- Node3 -->
<g id="node3" class="node"><title>Node3</title>
<g id="a_node3"><a xlink:title="गाढ़ा, जमा हुआ, पर्याप्त, प्रचुर">
<polygon fill="none" stroke="blue" points="300,-306 246,-306 246,-270 300,-270 300,-306"/>
<text text-anchor="middle" x="273" y="-284.3" font-family="Times,serif" font-size="14.00">उल्वण</text>
</a>
</g>
</g>
<!-- Node2&#45;&gt;Node3 -->
<g id="edge2" class="edge"><title>Node2&#45;&gt;Node3</title>
<path fill="none" stroke="black" d="M190.367,-288C204.752,-288 221.254,-288 235.639,-288"/>
<polygon fill="black" stroke="black" points="235.679,-291.5 245.679,-288 235.679,-284.5 235.679,-291.5"/>
<text text-anchor="middle" x="218" y="-291.8" font-family="Times,serif" font-size="14.00">अच्</text>
</g>
<!-- Node5 -->
<g id="node5" class="node"><title>Node5</title>
<g id="a_node5"><a xlink:title="उतार, ढलवाँ उतार, चट्टान#चौराहा#ढलवाँ, रुझान वाला, झुकावदार, नीचे को वहने वाला">
<polygon fill="none" stroke="blue" points="300,-252 246,-252 246,-216 300,-216 300,-252"/>
<text text-anchor="middle" x="273" y="-230.3" font-family="Times,serif" font-size="14.00">प्रवण</text>
</a>
</g>
</g>
<!-- Node4&#45;&gt;Node5 -->
<g id="edge4" class="edge"><title>Node4&#45;&gt;Node5</title>
<path fill="none" stroke="black" d="M184.388,-234C199.96,-234 219.042,-234 235.417,-234"/>
<polygon fill="black" stroke="black" points="235.723,-237.5 245.723,-234 235.723,-230.5 235.723,-237.5"/>
<text text-anchor="middle" x="218" y="-237.8" font-family="Times,serif" font-size="14.00">अच्</text>
</g>
</g>
</svg>
