<?xml version="1.0" encoding="UTF-8" standalone="no"?>
<!DOCTYPE svg PUBLIC "-//W3C//DTD SVG 1.1//EN"
 "http://www.w3.org/Graphics/SVG/1.1/DTD/svg11.dtd">
<!-- Generated by graphviz version 2.36.0 (20140111.2315)
 -->
<!-- Title: G Pages: 1 -->
<svg width="744pt" height="1070pt"
 viewBox="0.00 0.00 744.00 1070.00" xmlns="http://www.w3.org/2000/svg" xmlns:xlink="http://www.w3.org/1999/xlink">
<g id="graph0" class="graph" transform="scale(1 1) rotate(0) translate(4 1066)">
<title>G</title>
<polygon fill="white" stroke="none" points="-4,4 -4,-1066 740,-1066 740,4 -4,4"/>
<!-- Node1 -->
<g id="node1" class="node"><title>Node1</title>
<ellipse fill="none" stroke="red" cx="27" cy="-450" rx="27" ry="18"/>
<text text-anchor="middle" x="27" y="-446.3" font-family="Times,serif" font-size="14.00">वद्</text>
</g>
<!-- Node2 -->
<g id="node2" class="node"><title>Node2</title>
<ellipse fill="none" stroke="red" cx="165" cy="-1017" rx="39.7935" ry="18"/>
<text text-anchor="middle" x="165" y="-1013.3" font-family="Times,serif" font-size="14.00">अति_वद्</text>
</g>
<!-- Node1&#45;&gt;Node2 -->
<g id="edge1" class="edge"><title>Node1&#45;&gt;Node2</title>
<path fill="none" stroke="black" d="M28.0136,-468.332C28.7486,-537.1 37.5865,-784.875 124,-963 128.94,-973.182 135.879,-983.401 142.593,-992.166"/>
<polygon fill="black" stroke="black" points="139.923,-994.432 148.889,-1000.08 145.4,-990.073 139.923,-994.432"/>
</g>
<!-- Node4 -->
<g id="node4" class="node"><title>Node4</title>
<ellipse fill="none" stroke="red" cx="165" cy="-936" rx="37.0935" ry="18"/>
<text text-anchor="middle" x="165" y="-932.3" font-family="Times,serif" font-size="14.00">अनु_वद्</text>
</g>
<!-- Node1&#45;&gt;Node4 -->
<g id="edge3" class="edge"><title>Node1&#45;&gt;Node4</title>
<path fill="none" stroke="black" d="M30.0205,-467.979C34.9918,-510.184 49.1048,-618.707 72,-707 89.5001,-774.488 96.9599,-790.737 124,-855 131.808,-873.556 141.842,-893.868 149.907,-909.509"/>
<polygon fill="black" stroke="black" points="146.912,-911.336 154.637,-918.588 153.12,-908.102 146.912,-911.336"/>
</g>
<!-- Node7 -->
<g id="node7" class="node"><title>Node7</title>
<ellipse fill="none" stroke="red" cx="165" cy="-828" rx="40.0939" ry="18"/>
<text text-anchor="middle" x="165" y="-824.3" font-family="Times,serif" font-size="14.00">वद्+णिच्</text>
</g>
<!-- Node1&#45;&gt;Node7 -->
<g id="edge6" class="edge"><title>Node1&#45;&gt;Node7</title>
<path fill="none" stroke="black" d="M30.0669,-467.92C34.6498,-504.405 47.2681,-589.565 72,-657 91.947,-711.389 126.569,-769.811 147.177,-802.344"/>
<polygon fill="black" stroke="black" points="144.256,-804.272 152.594,-810.809 150.152,-800.499 144.256,-804.272"/>
</g>
<!-- Node10 -->
<g id="node10" class="node"><title>Node10</title>
<ellipse fill="none" stroke="red" cx="165" cy="-720" rx="40.0939" ry="18"/>
<text text-anchor="middle" x="165" y="-716.3" font-family="Times,serif" font-size="14.00">अभि_वद्</text>
</g>
<!-- Node1&#45;&gt;Node10 -->
<g id="edge9" class="edge"><title>Node1&#45;&gt;Node10</title>
<path fill="none" stroke="black" d="M30.4291,-468.029C37.2423,-512.017 60.3774,-626.12 124,-693 126.252,-695.367 128.746,-697.64 131.357,-699.792"/>
<polygon fill="black" stroke="black" points="129.317,-702.638 139.41,-705.86 133.529,-697.047 129.317,-702.638"/>
</g>
<!-- Node14 -->
<g id="node14" class="node"><title>Node14</title>
<ellipse fill="none" stroke="red" cx="165" cy="-666" rx="38.1938" ry="18"/>
<text text-anchor="middle" x="165" y="-662.3" font-family="Times,serif" font-size="14.00">प्रति_वद्</text>
</g>
<!-- Node1&#45;&gt;Node14 -->
<g id="edge13" class="edge"><title>Node1&#45;&gt;Node14</title>
<path fill="none" stroke="black" d="M32.9918,-467.825C43.9568,-504.164 73.2911,-587.699 124,-639 126.43,-641.458 129.115,-643.825 131.91,-646.066"/>
<polygon fill="black" stroke="black" points="129.838,-648.887 139.959,-652.022 134.002,-643.26 129.838,-648.887"/>
</g>
<!-- Node21 -->
<g id="node21" class="node"><title>Node21</title>
<ellipse fill="none" stroke="red" cx="165" cy="-612" rx="30.5947" ry="18"/>
<text text-anchor="middle" x="165" y="-608.3" font-family="Times,serif" font-size="14.00">प्र_वद्</text>
</g>
<!-- Node1&#45;&gt;Node21 -->
<g id="edge20" class="edge"><title>Node1&#45;&gt;Node21</title>
<path fill="none" stroke="black" d="M36.5385,-466.892C44.8103,-482.694 58.1109,-506.693 72,-526 92.4115,-554.374 97.7465,-561.924 124,-585 127.257,-587.862 130.831,-590.671 134.462,-593.33"/>
<polygon fill="black" stroke="black" points="132.708,-596.374 142.913,-599.22 136.71,-590.631 132.708,-596.374"/>
</g>
<!-- Node23 -->
<g id="node23" class="node"><title>Node23</title>
<g id="a_node23"><a xlink:title="एक प्रकार का पक्षी#मधुरभाषी, प्रिय बोलने वाला, प्यारी बातें करने वाला, मिलनसार">
<polygon fill="none" stroke="blue" points="192,-576 138,-576 138,-540 192,-540 192,-576"/>
<text text-anchor="middle" x="165" y="-554.3" font-family="Times,serif" font-size="14.00">प्रियंवद</text>
</a>
</g>
</g>
<!-- Node1&#45;&gt;Node23 -->
<g id="edge22" class="edge"><title>Node1&#45;&gt;Node23</title>
<path fill="none" stroke="black" d="M40.0507,-465.935C48.3615,-476.326 60.0314,-489.799 72,-500 89.3767,-514.81 110.864,-528.57 128.702,-538.967"/>
<polygon fill="black" stroke="black" points="127.238,-542.161 137.656,-544.085 130.712,-536.084 127.238,-542.161"/>
</g>
<!-- Node24 -->
<g id="node24" class="node"><title>Node24</title>
<g id="a_node24"><a xlink:title="छाति#बछड़ा, किसी जानवर का बच्चा, तेनाद्य वत्समिव लोकममुं पुषाण">
<polygon fill="none" stroke="blue" points="192,-522 138,-522 138,-486 192,-486 192,-522"/>
<text text-anchor="middle" x="165" y="-500.3" font-family="Times,serif" font-size="14.00">वत्स</text>
</a>
</g>
</g>
<!-- Node1&#45;&gt;Node24 -->
<g id="edge23" class="edge"><title>Node1&#45;&gt;Node24</title>
<path fill="none" stroke="black" d="M49.853,-459.662C56.8954,-462.715 64.7528,-466.058 72,-469 90.3988,-476.468 111.049,-484.367 128.116,-490.768"/>
<polygon fill="black" stroke="black" points="127.115,-494.13 137.707,-494.348 129.563,-487.572 127.115,-494.13"/>
<text text-anchor="middle" x="89" y="-484.8" font-family="Times,serif" font-size="14.00">सः</text>
</g>
<!-- Node25 -->
<g id="node25" class="node"><title>Node25</title>
<g id="a_node25"><a xlink:title="बछिया">
<polygon fill="none" stroke="blue" points="192,-468 138,-468 138,-432 192,-432 192,-468"/>
<text text-anchor="middle" x="165" y="-446.3" font-family="Times,serif" font-size="14.00">वत्सा</text>
</a>
</g>
</g>
<!-- Node1&#45;&gt;Node25 -->
<g id="edge24" class="edge"><title>Node1&#45;&gt;Node25</title>
<path fill="none" stroke="black" d="M54.2222,-450C75.1062,-450 104.574,-450 127.721,-450"/>
<polygon fill="black" stroke="black" points="127.858,-453.5 137.858,-450 127.858,-446.5 127.858,-453.5"/>
<text text-anchor="middle" x="89" y="-453.8" font-family="Times,serif" font-size="14.00">सः</text>
</g>
<!-- Node26 -->
<g id="node26" class="node"><title>Node26</title>
<g id="a_node26"><a xlink:title="चेहरा, आसीद्विवृत्तावदना च विमोचयन्ती">
<polygon fill="none" stroke="blue" points="192,-414 138,-414 138,-378 192,-378 192,-414"/>
<text text-anchor="middle" x="165" y="-392.3" font-family="Times,serif" font-size="14.00">वदन</text>
</a>
</g>
</g>
<!-- Node1&#45;&gt;Node26 -->
<g id="edge25" class="edge"><title>Node1&#45;&gt;Node26</title>
<path fill="none" stroke="black" d="M49.853,-440.338C56.8954,-437.285 64.7528,-433.942 72,-431 90.3988,-423.532 111.049,-415.633 128.116,-409.232"/>
<polygon fill="black" stroke="black" points="129.563,-412.428 137.707,-405.652 127.115,-405.87 129.563,-412.428"/>
<text text-anchor="middle" x="89" y="-434.8" font-family="Times,serif" font-size="14.00">ल्युट्</text>
</g>
<!-- Node27 -->
<g id="node27" class="node"><title>Node27</title>
<g id="a_node27"><a xlink:title="भाषण, प्रवचन">
<polygon fill="none" stroke="blue" points="192,-360 138,-360 138,-324 192,-324 192,-360"/>
<text text-anchor="middle" x="165" y="-338.3" font-family="Times,serif" font-size="14.00">वदन्ती</text>
</a>
</g>
</g>
<!-- Node1&#45;&gt;Node27 -->
<g id="edge26" class="edge"><title>Node1&#45;&gt;Node27</title>
<path fill="none" stroke="black" d="M40.0507,-434.065C48.3615,-423.674 60.0314,-410.201 72,-400 89.3767,-385.19 110.864,-371.43 128.702,-361.033"/>
<polygon fill="black" stroke="black" points="130.712,-363.916 137.656,-355.915 127.238,-357.839 130.712,-363.916"/>
<text text-anchor="middle" x="89" y="-403.8" font-family="Times,serif" font-size="14.00">झच्</text>
</g>
<!-- Node28 -->
<g id="node28" class="node"><title>Node28</title>
<g id="a_node28"><a xlink:title="धारा प्रवाह से वोलने वाला, वाक्पटु">
<polygon fill="none" stroke="blue" points="192,-306 138,-306 138,-270 192,-270 192,-306"/>
<text text-anchor="middle" x="165" y="-284.3" font-family="Times,serif" font-size="14.00">वदन्य</text>
</a>
</g>
</g>
<!-- Node1&#45;&gt;Node28 -->
<g id="edge27" class="edge"><title>Node1&#45;&gt;Node28</title>
<path fill="none" stroke="black" d="M33.6927,-432.239C40.6078,-412.488 53.6655,-380.302 72,-357 87.5603,-337.224 110.099,-320.195 128.974,-308.002"/>
<polygon fill="black" stroke="black" points="131.008,-310.858 137.623,-302.582 127.291,-304.927 131.008,-310.858"/>
<text text-anchor="middle" x="89" y="-360.8" font-family="Times,serif" font-size="14.00">अन्य</text>
</g>
<!-- Node29 -->
<g id="node29" class="node"><title>Node29</title>
<g id="a_node29"><a xlink:title="बोलने वाला, बातें करने वाला, अच्छा बोलने वाला">
<polygon fill="none" stroke="blue" points="192,-252 138,-252 138,-216 192,-216 192,-252"/>
<text text-anchor="middle" x="165" y="-230.3" font-family="Times,serif" font-size="14.00">वद</text>
</a>
</g>
</g>
<!-- Node1&#45;&gt;Node29 -->
<g id="edge28" class="edge"><title>Node1&#45;&gt;Node29</title>
<path fill="none" stroke="black" d="M30.2571,-431.802C34.5104,-403.066 45.7615,-346.313 72,-306 86.2959,-284.036 109.598,-265.902 129.173,-253.326"/>
<polygon fill="black" stroke="black" points="131.201,-256.187 137.859,-247.946 127.514,-250.237 131.201,-256.187"/>
<text text-anchor="middle" x="89" y="-309.8" font-family="Times,serif" font-size="14.00">अच्</text>
</g>
<!-- Node30 -->
<g id="node30" class="node"><title>Node30</title>
<g id="a_node30"><a xlink:title="#धारा प्रवाह से वोलने वाला, वाक्पटु">
<polygon fill="none" stroke="blue" points="192,-198 138,-198 138,-162 192,-162 192,-198"/>
<text text-anchor="middle" x="165" y="-176.3" font-family="Times,serif" font-size="14.00">वदान्य</text>
</a>
</g>
</g>
<!-- Node1&#45;&gt;Node30 -->
<g id="edge29" class="edge"><title>Node1&#45;&gt;Node30</title>
<path fill="none" stroke="black" d="M28.3882,-431.799C29.9189,-395.349 37.2686,-311.852 72,-253 85.5405,-230.056 109.226,-211.516 129.173,-198.861"/>
<polygon fill="black" stroke="black" points="131.025,-201.832 137.738,-193.635 127.378,-195.856 131.025,-201.832"/>
<text text-anchor="middle" x="89" y="-256.8" font-family="Times,serif" font-size="14.00">आन्यः</text>
</g>
<!-- Node31 -->
<g id="node31" class="node"><title>Node31</title>
<g id="a_node31"><a xlink:title="क्हने के योग्य, दूषण देने के अयोग्य तु* अवद्य#भाषण, इधर&#45;उधर की बातें करना">
<polygon fill="none" stroke="blue" points="192,-144 138,-144 138,-108 192,-108 192,-144"/>
<text text-anchor="middle" x="165" y="-122.3" font-family="Times,serif" font-size="14.00">वद्य</text>
</a>
</g>
</g>
<!-- Node1&#45;&gt;Node31 -->
<g id="edge30" class="edge"><title>Node1&#45;&gt;Node31</title>
<path fill="none" stroke="black" d="M27.2311,-431.939C26.1879,-388.731 28.2621,-277.185 72,-199 85.0936,-175.594 109.02,-156.969 129.19,-144.39"/>
<polygon fill="black" stroke="black" points="131.067,-147.346 137.851,-139.207 127.473,-141.339 131.067,-147.346"/>
<text text-anchor="middle" x="89" y="-202.8" font-family="Times,serif" font-size="14.00">यत्</text>
</g>
<!-- Node32 -->
<g id="node32" class="node"><title>Node32</title>
<ellipse fill="none" stroke="red" cx="165" cy="-72" rx="36.2938" ry="18"/>
<text text-anchor="middle" x="165" y="-68.3" font-family="Times,serif" font-size="14.00">वश_वद्</text>
</g>
<!-- Node1&#45;&gt;Node32 -->
<g id="edge31" class="edge"><title>Node1&#45;&gt;Node32</title>
<path fill="none" stroke="black" d="M27.2757,-431.89C26.0873,-384.471 27.4003,-253.73 72,-158 84.9843,-130.13 111.465,-106.929 132.696,-91.6763"/>
<polygon fill="black" stroke="black" points="134.899,-94.4074 141.123,-85.8333 130.911,-88.6548 134.899,-94.4074"/>
</g>
<!-- Node34 -->
<g id="node34" class="node"><title>Node34</title>
<ellipse fill="none" stroke="red" cx="165" cy="-18" rx="32.4942" ry="18"/>
<text text-anchor="middle" x="165" y="-14.3" font-family="Times,serif" font-size="14.00">वि_वद्</text>
</g>
<!-- Node1&#45;&gt;Node34 -->
<g id="edge33" class="edge"><title>Node1&#45;&gt;Node34</title>
<path fill="none" stroke="black" d="M29.0935,-431.657C32.9752,-369.873 47.2045,-169.944 72,-111 86.4801,-76.5777 96.6408,-70.4173 124,-45 126.954,-42.2556 130.211,-39.5889 133.553,-37.0676"/>
<polygon fill="black" stroke="black" points="135.779,-39.7797 141.909,-31.1386 131.728,-34.0707 135.779,-39.7797"/>
</g>
<!-- Node3 -->
<g id="node3" class="node"><title>Node3</title>
<g id="a_node3"><a xlink:title="बहुत बोलने वाला, वाग्मी">
<polygon fill="none" stroke="blue" points="359,-1062 297,-1062 297,-1026 359,-1026 359,-1062"/>
<text text-anchor="middle" x="328" y="-1040.3" font-family="Times,serif" font-size="14.00">अतिवादी</text>
</a>
</g>
</g>
<!-- Node2&#45;&gt;Node3 -->
<g id="edge2" class="edge"><title>Node2&#45;&gt;Node3</title>
<path fill="none" stroke="black" d="M202.533,-1023.13C227.678,-1027.34 261.078,-1032.94 286.949,-1037.28"/>
<polygon fill="black" stroke="black" points="286.375,-1040.74 296.816,-1038.94 287.533,-1033.83 286.375,-1040.74"/>
<text text-anchor="middle" x="237" y="-1033.8" font-family="Times,serif" font-size="14.00">णिनि</text>
</g>
<!-- Node5 -->
<g id="node5" class="node"><title>Node5</title>
<g id="a_node5"><a xlink:title="व्याख्यापरक">
<polygon fill="none" stroke="blue" points="360.5,-1008 295.5,-1008 295.5,-972 360.5,-972 360.5,-1008"/>
<text text-anchor="middle" x="328" y="-986.3" font-family="Times,serif" font-size="14.00">अनुवादक</text>
</a>
</g>
</g>
<!-- Node4&#45;&gt;Node5 -->
<g id="edge4" class="edge"><title>Node4&#45;&gt;Node5</title>
<path fill="none" stroke="black" d="M195.906,-946.03C221.204,-954.516 257.715,-966.761 285.783,-976.176"/>
<polygon fill="black" stroke="black" points="284.734,-979.515 295.327,-979.377 286.96,-972.879 284.734,-979.515"/>
<text text-anchor="middle" x="237" y="-966.8" font-family="Times,serif" font-size="14.00">ण्वुल्</text>
</g>
<!-- Node6 -->
<g id="node6" class="node"><title>Node6</title>
<g id="a_node6"><a xlink:title="व्याख्यापरक">
<polygon fill="none" stroke="blue" points="361,-954 295,-954 295,-918 361,-918 361,-954"/>
<text text-anchor="middle" x="328" y="-932.3" font-family="Times,serif" font-size="14.00">अनुवादिन्</text>
</a>
</g>
</g>
<!-- Node4&#45;&gt;Node6 -->
<g id="edge5" class="edge"><title>Node4&#45;&gt;Node6</title>
<path fill="none" stroke="black" d="M202.132,-936C226.577,-936 258.961,-936 284.623,-936"/>
<polygon fill="black" stroke="black" points="284.809,-939.5 294.809,-936 284.809,-932.5 284.809,-939.5"/>
<text text-anchor="middle" x="237" y="-939.8" font-family="Times,serif" font-size="14.00">णिनि</text>
</g>
<!-- Node8 -->
<g id="node8" class="node"><title>Node8</title>
<ellipse fill="none" stroke="red" cx="328" cy="-882" rx="56.59" ry="18"/>
<text text-anchor="middle" x="328" y="-878.3" font-family="Times,serif" font-size="14.00">अनु_वद्+णिच्</text>
</g>
<!-- Node7&#45;&gt;Node8 -->
<g id="edge7" class="edge"><title>Node7&#45;&gt;Node8</title>
<path fill="none" stroke="black" d="M197.808,-838.669C220.886,-846.409 252.516,-857.018 278.702,-865.801"/>
<polygon fill="black" stroke="black" points="277.849,-869.206 288.443,-869.068 280.075,-862.569 277.849,-869.206"/>
</g>
<!-- Node17 -->
<g id="node17" class="node"><title>Node17</title>
<ellipse fill="none" stroke="red" cx="328" cy="-828" rx="59.5901" ry="18"/>
<text text-anchor="middle" x="328" y="-824.3" font-family="Times,serif" font-size="14.00">अभि_वद्+णिच्</text>
</g>
<!-- Node7&#45;&gt;Node17 -->
<g id="edge16" class="edge"><title>Node7&#45;&gt;Node17</title>
<path fill="none" stroke="black" d="M205.385,-828C221.178,-828 239.857,-828 257.776,-828"/>
<polygon fill="black" stroke="black" points="257.919,-831.5 267.919,-828 257.919,-824.5 257.919,-831.5"/>
</g>
<!-- Node9 -->
<g id="node9" class="node"><title>Node9</title>
<g id="a_node9"><a xlink:title="व्याख्येय, उदाहरणसापेक्ष">
<polygon fill="none" stroke="blue" points="548,-900 492,-900 492,-864 548,-864 548,-900"/>
<text text-anchor="middle" x="520" y="-878.3" font-family="Times,serif" font-size="14.00">अनुवाद्य</text>
</a>
</g>
</g>
<!-- Node8&#45;&gt;Node9 -->
<g id="edge8" class="edge"><title>Node8&#45;&gt;Node9</title>
<path fill="none" stroke="black" d="M384.722,-882C415.987,-882 454.14,-882 481.776,-882"/>
<polygon fill="black" stroke="black" points="481.816,-885.5 491.816,-882 481.816,-878.5 481.816,-885.5"/>
<text text-anchor="middle" x="415" y="-885.8" font-family="Times,serif" font-size="14.00">यत्</text>
</g>
<!-- Node11 -->
<g id="node11" class="node"><title>Node11</title>
<g id="a_node11"><a xlink:title="संबोधन">
<polygon fill="none" stroke="blue" points="359.5,-792 296.5,-792 296.5,-756 359.5,-756 359.5,-792"/>
<text text-anchor="middle" x="328" y="-770.3" font-family="Times,serif" font-size="14.00">अभिवदन</text>
</a>
</g>
</g>
<!-- Node10&#45;&gt;Node11 -->
<g id="edge10" class="edge"><title>Node10&#45;&gt;Node11</title>
<path fill="none" stroke="black" d="M197.808,-730.669C223.273,-739.21 259.151,-751.243 286.638,-760.462"/>
<polygon fill="black" stroke="black" points="285.756,-763.858 296.35,-763.72 287.982,-757.222 285.756,-763.858"/>
<text text-anchor="middle" x="237" y="-750.8" font-family="Times,serif" font-size="14.00">ल्युट्</text>
</g>
<!-- Node12 -->
<g id="node12" class="node"><title>Node12</title>
<g id="a_node12"><a xlink:title="ससम्मान नमस्कार, छोटों के द्वारा बड़ों को प्रणाम, शिष्य के द्वारा गुरू को प्रणाम, इसमें तीन बातें निहित हैं&#45; १ प्रत्युथान&#45;अपने स्थान से उठना, २ पादोपसंग्रहः&#45; पैर पकड़ना या छूना, ३ अभिवाद&#45;’प्रणाम’शब्द मुँह से कहना&#45;जिसमें अभिवाद्य व्यक्ति की उपाधि तथा अभिवादक का नाम&#45;वर्ण्य है">
<polygon fill="none" stroke="blue" points="357.5,-738 298.5,-738 298.5,-702 357.5,-702 357.5,-738"/>
<text text-anchor="middle" x="328" y="-716.3" font-family="Times,serif" font-size="14.00">अभिवाद</text>
</a>
</g>
</g>
<!-- Node10&#45;&gt;Node12 -->
<g id="edge11" class="edge"><title>Node10&#45;&gt;Node12</title>
<path fill="none" stroke="black" d="M205.385,-720C230.555,-720 263.056,-720 288.126,-720"/>
<polygon fill="black" stroke="black" points="288.372,-723.5 298.372,-720 288.372,-716.5 288.372,-723.5"/>
<text text-anchor="middle" x="237" y="-723.8" font-family="Times,serif" font-size="14.00">घञ्</text>
</g>
<!-- Node13 -->
<g id="node13" class="node"><title>Node13</title>
<g id="a_node13"><a xlink:title="ससम्मान नमस्कार, छोटों के द्वारा बड़ों को प्रणाम, शिष्य के द्वारा गुरू को प्रणाम, इसमें तीन बातें निहित हैं&#45; १ प्रत्युथान&#45;अपने स्थान से उठना, २ पादोपसंग्रहः&#45; पैर पकड़ना या छूना, ३ अभिवाद&#45;’प्रणाम’शब्द मुँह से कहना&#45;जिसमें अभिवाद्य व्यक्ति की उपाधि तथा अभिवादक का नाम&#45;वर्ण्य है">
<polygon fill="none" stroke="blue" points="361.5,-684 294.5,-684 294.5,-648 361.5,-648 361.5,-684"/>
<text text-anchor="middle" x="328" y="-662.3" font-family="Times,serif" font-size="14.00">अभिवादन</text>
</a>
</g>
</g>
<!-- Node10&#45;&gt;Node13 -->
<g id="edge12" class="edge"><title>Node10&#45;&gt;Node13</title>
<path fill="none" stroke="black" d="M197.808,-709.331C222.702,-700.982 257.546,-689.295 284.775,-680.162"/>
<polygon fill="black" stroke="black" points="286.062,-683.422 294.43,-676.924 283.836,-676.786 286.062,-683.422"/>
<text text-anchor="middle" x="237" y="-702.8" font-family="Times,serif" font-size="14.00">ल्युट्</text>
</g>
<!-- Node15 -->
<g id="node15" class="node"><title>Node15</title>
<g id="a_node15"><a xlink:title="उत्तर, प्रत्युत्तर, जवाब">
<polygon fill="none" stroke="blue" points="356,-630 300,-630 300,-594 356,-594 356,-630"/>
<text text-anchor="middle" x="328" y="-608.3" font-family="Times,serif" font-size="14.00">प्रतिवाद</text>
</a>
</g>
</g>
<!-- Node14&#45;&gt;Node15 -->
<g id="edge14" class="edge"><title>Node14&#45;&gt;Node15</title>
<path fill="none" stroke="black" d="M196.662,-655.716C223.349,-646.765 262.085,-633.773 290.392,-624.279"/>
<polygon fill="black" stroke="black" points="291.564,-627.577 299.932,-621.079 289.338,-620.94 291.564,-627.577"/>
<text text-anchor="middle" x="237" y="-648.8" font-family="Times,serif" font-size="14.00">घञ्</text>
</g>
<!-- Node16 -->
<g id="node16" class="node"><title>Node16</title>
<g id="a_node16"><a xlink:title="विपक्षी">
<polygon fill="none" stroke="blue" points="362,-576 294,-576 294,-540 362,-540 362,-576"/>
<text text-anchor="middle" x="328" y="-554.3" font-family="Times,serif" font-size="14.00">प्रतिवादिन्</text>
</a>
</g>
</g>
<!-- Node14&#45;&gt;Node16 -->
<g id="edge15" class="edge"><title>Node14&#45;&gt;Node16</title>
<path fill="none" stroke="black" d="M189.053,-651.692C194.771,-647.809 200.759,-643.442 206,-639 214.874,-631.479 215.427,-627.862 224,-620 242.416,-603.111 246.705,-598.073 268,-585 273.166,-581.829 278.767,-578.798 284.392,-575.988"/>
<polygon fill="black" stroke="black" points="286.299,-578.956 293.809,-571.483 283.278,-572.641 286.299,-578.956"/>
<text text-anchor="middle" x="237" y="-623.8" font-family="Times,serif" font-size="14.00">णिनि</text>
</g>
<!-- Node18 -->
<g id="node18" class="node"><title>Node18</title>
<ellipse fill="none" stroke="red" cx="520" cy="-828" rx="77.1866" ry="18"/>
<text text-anchor="middle" x="520" y="-824.3" font-family="Times,serif" font-size="14.00">प्रति_अभि_वद्+णिच्</text>
</g>
<!-- Node17&#45;&gt;Node18 -->
<g id="edge17" class="edge"><title>Node17&#45;&gt;Node18</title>
<path fill="none" stroke="black" d="M387.816,-828C401.896,-828 417.222,-828 432.27,-828"/>
<polygon fill="black" stroke="black" points="432.624,-831.5 442.624,-828 432.624,-824.5 432.624,-831.5"/>
</g>
<!-- Node19 -->
<g id="node19" class="node"><title>Node19</title>
<g id="a_node19"><a xlink:title="नमस्कार के बदले नमस्कार">
<polygon fill="none" stroke="blue" points="736,-873 658,-873 658,-837 736,-837 736,-873"/>
<text text-anchor="middle" x="697" y="-851.3" font-family="Times,serif" font-size="14.00">प्रत्यभिवादन</text>
</a>
</g>
</g>
<!-- Node18&#45;&gt;Node19 -->
<g id="edge18" class="edge"><title>Node18&#45;&gt;Node19</title>
<path fill="none" stroke="black" d="M585.17,-837.9C605.842,-841.09 628.388,-844.568 647.715,-847.55"/>
<polygon fill="black" stroke="black" points="647.378,-851.04 657.795,-849.105 648.446,-844.122 647.378,-851.04"/>
<text text-anchor="middle" x="628" y="-849.8" font-family="Times,serif" font-size="14.00">ल्युट्</text>
</g>
<!-- Node20 -->
<g id="node20" class="node"><title>Node20</title>
<polygon fill="none" stroke="blue" points="732,-819 662,-819 662,-783 732,-783 732,-819"/>
<text text-anchor="middle" x="697" y="-797.3" font-family="Times,serif" font-size="14.00">प्रत्यभिवाद</text>
</g>
<!-- Node18&#45;&gt;Node20 -->
<g id="edge19" class="edge"><title>Node18&#45;&gt;Node20</title>
<path fill="none" stroke="black" d="M585.17,-818.1C607.266,-814.69 631.504,-810.951 651.663,-807.841"/>
<polygon fill="black" stroke="black" points="652.451,-811.26 661.801,-806.276 651.384,-804.342 652.451,-811.26"/>
<text text-anchor="middle" x="628" y="-815.8" font-family="Times,serif" font-size="14.00">घञ्</text>
</g>
<!-- Node22 -->
<g id="node22" class="node"><title>Node22</title>
<g id="a_node22"><a xlink:title="शब्द या ध्वनि का उच्चारण">
<polygon fill="none" stroke="blue" points="355,-522 301,-522 301,-486 355,-486 355,-522"/>
<text text-anchor="middle" x="328" y="-500.3" font-family="Times,serif" font-size="14.00">प्रवाद</text>
</a>
</g>
</g>
<!-- Node21&#45;&gt;Node22 -->
<g id="edge21" class="edge"><title>Node21&#45;&gt;Node22</title>
<path fill="none" stroke="black" d="M186.279,-599.012C192.703,-594.713 199.755,-589.798 206,-585 234.976,-562.736 237.292,-550.807 268,-531 275.348,-526.26 283.665,-521.912 291.687,-518.155"/>
<polygon fill="black" stroke="black" points="293.201,-521.312 300.893,-514.026 290.337,-514.924 293.201,-521.312"/>
<text text-anchor="middle" x="237" y="-572.8" font-family="Times,serif" font-size="14.00">घञ्</text>
</g>
<!-- Node33 -->
<g id="node33" class="node"><title>Node33</title>
<polygon fill="none" stroke="blue" points="355,-90 301,-90 301,-54 355,-54 355,-90"/>
<text text-anchor="middle" x="328" y="-68.3" font-family="Times,serif" font-size="14.00">वशंवद</text>
</g>
<!-- Node32&#45;&gt;Node33 -->
<g id="edge32" class="edge"><title>Node32&#45;&gt;Node33</title>
<path fill="none" stroke="black" d="M201.731,-72C228.229,-72 264.217,-72 290.821,-72"/>
<polygon fill="black" stroke="black" points="290.875,-75.5001 300.875,-72 290.875,-68.5001 290.875,-75.5001"/>
<text text-anchor="middle" x="237" y="-75.8" font-family="Times,serif" font-size="14.00">खच्,</text>
</g>
<!-- Node35 -->
<g id="node35" class="node"><title>Node35</title>
<g id="a_node35"><a xlink:title="तर्क, तर्कना, चर्चा">
<polygon fill="none" stroke="blue" points="355,-36 301,-36 301,-0 355,-0 355,-36"/>
<text text-anchor="middle" x="328" y="-14.3" font-family="Times,serif" font-size="14.00">विवाद</text>
</a>
</g>
</g>
<!-- Node34&#45;&gt;Node35 -->
<g id="edge34" class="edge"><title>Node34&#45;&gt;Node35</title>
<path fill="none" stroke="black" d="M197.808,-18C224.543,-18 262.754,-18 290.684,-18"/>
<polygon fill="black" stroke="black" points="290.84,-21.5001 300.84,-18 290.84,-14.5001 290.84,-21.5001"/>
<text text-anchor="middle" x="237" y="-21.8" font-family="Times,serif" font-size="14.00">घञ्</text>
</g>
</g>
</svg>
