<?xml version="1.0" encoding="UTF-8" standalone="no"?>
<!DOCTYPE svg PUBLIC "-//W3C//DTD SVG 1.1//EN"
 "http://www.w3.org/Graphics/SVG/1.1/DTD/svg11.dtd">
<!-- Generated by graphviz version 2.36.0 (20140111.2315)
 -->
<!-- Title: G Pages: 1 -->
<svg width="298pt" height="206pt"
 viewBox="0.00 0.00 298.00 206.00" xmlns="http://www.w3.org/2000/svg" xmlns:xlink="http://www.w3.org/1999/xlink">
<g id="graph0" class="graph" transform="scale(1 1) rotate(0) translate(4 202)">
<title>G</title>
<polygon fill="white" stroke="none" points="-4,4 -4,-202 294,-202 294,4 -4,4"/>
<!-- Node1 -->
<g id="node1" class="node"><title>Node1</title>
<ellipse fill="none" stroke="red" cx="27" cy="-99" rx="27" ry="18"/>
<text text-anchor="middle" x="27" y="-95.3" font-family="Times,serif" font-size="14.00">वेल्ल्</text>
</g>
<!-- Node2 -->
<g id="node2" class="node"><title>Node2</title>
<ellipse fill="none" stroke="red" cx="148" cy="-180" rx="37.8943" ry="18"/>
<text text-anchor="middle" x="148" y="-176.3" font-family="Times,serif" font-size="14.00">उद्_वेल्ल्</text>
</g>
<!-- Node1&#45;&gt;Node2 -->
<g id="edge1" class="edge"><title>Node1&#45;&gt;Node2</title>
<path fill="none" stroke="black" d="M44.8427,-112.637C52.9185,-119.014 62.8139,-126.595 72,-133 85.7238,-142.568 101.34,-152.499 114.756,-160.753"/>
<polygon fill="black" stroke="black" points="113.284,-163.954 123.643,-166.175 116.929,-157.979 113.284,-163.954"/>
</g>
<!-- Node4 -->
<g id="node4" class="node"><title>Node4</title>
<g id="a_node4"><a xlink:title="हिलना, गतिशील होना">
<polygon fill="none" stroke="blue" points="175,-144 121,-144 121,-108 175,-108 175,-144"/>
<text text-anchor="middle" x="148" y="-122.3" font-family="Times,serif" font-size="14.00">वेल्ल</text>
</a>
</g>
</g>
<!-- Node1&#45;&gt;Node4 -->
<g id="edge3" class="edge"><title>Node1&#45;&gt;Node4</title>
<path fill="none" stroke="black" d="M52.9463,-104.66C69.7376,-108.47 92.1475,-113.554 110.881,-117.805"/>
<polygon fill="black" stroke="black" points="110.324,-121.267 120.85,-120.067 111.873,-114.441 110.324,-121.267"/>
<text text-anchor="middle" x="82" y="-117.8" font-family="Times,serif" font-size="14.00">घञ्</text>
</g>
<!-- Node5 -->
<g id="node5" class="node"><title>Node5</title>
<g id="a_node5"><a xlink:title="कंपायमान, थरथराने वाला, हिलाया हुआ#जाना, चलना&#45;फिरना">
<polygon fill="none" stroke="blue" points="175,-90 121,-90 121,-54 175,-54 175,-90"/>
<text text-anchor="middle" x="148" y="-68.3" font-family="Times,serif" font-size="14.00">वेल्लित</text>
</a>
</g>
</g>
<!-- Node1&#45;&gt;Node5 -->
<g id="edge4" class="edge"><title>Node1&#45;&gt;Node5</title>
<path fill="none" stroke="black" d="M52.9463,-93.3399C69.7376,-89.5301 92.1475,-84.4455 110.881,-80.1952"/>
<polygon fill="black" stroke="black" points="111.873,-83.5591 120.85,-77.9331 110.324,-76.7326 111.873,-83.5591"/>
<text text-anchor="middle" x="82" y="-92.8" font-family="Times,serif" font-size="14.00">क्त</text>
</g>
<!-- Node6 -->
<g id="node6" class="node"><title>Node6</title>
<g id="a_node6"><a xlink:title="लता, वेल, तु* वल्लि">
<polygon fill="none" stroke="blue" points="175,-36 121,-36 121,-0 175,-0 175,-36"/>
<text text-anchor="middle" x="148" y="-14.3" font-family="Times,serif" font-size="14.00">वेल्लि</text>
</a>
</g>
</g>
<!-- Node1&#45;&gt;Node6 -->
<g id="edge5" class="edge"><title>Node1&#45;&gt;Node6</title>
<path fill="none" stroke="black" d="M45.3388,-85.5301C53.3518,-79.4264 63.0554,-72.2038 72,-66 84.9013,-57.0519 99.3705,-47.6488 112.133,-39.5601"/>
<polygon fill="black" stroke="black" points="114.059,-42.4832 120.656,-34.192 110.329,-36.5601 114.059,-42.4832"/>
<text text-anchor="middle" x="82" y="-69.8" font-family="Times,serif" font-size="14.00">इन्</text>
</g>
<!-- Node3 -->
<g id="node3" class="node"><title>Node3</title>
<g id="a_node3"><a xlink:title="हिलाना, झंझोड़ना#हिलाया हुआ, उछाला हुआ">
<polygon fill="none" stroke="blue" points="290,-198 234,-198 234,-162 290,-162 290,-198"/>
<text text-anchor="middle" x="262" y="-176.3" font-family="Times,serif" font-size="14.00">उद्वेल्लित</text>
</a>
</g>
</g>
<!-- Node2&#45;&gt;Node3 -->
<g id="edge2" class="edge"><title>Node2&#45;&gt;Node3</title>
<path fill="none" stroke="black" d="M185.983,-180C198.107,-180 211.579,-180 223.724,-180"/>
<polygon fill="black" stroke="black" points="223.987,-183.5 233.987,-180 223.987,-176.5 223.987,-183.5"/>
<text text-anchor="middle" x="210" y="-183.8" font-family="Times,serif" font-size="14.00">क्त</text>
</g>
</g>
</svg>
