<?xml version="1.0" encoding="UTF-8" standalone="no"?>
<!DOCTYPE svg PUBLIC "-//W3C//DTD SVG 1.1//EN"
 "http://www.w3.org/Graphics/SVG/1.1/DTD/svg11.dtd">
<!-- Generated by graphviz version 2.36.0 (20140111.2315)
 -->
<!-- Title: G Pages: 1 -->
<svg width="292pt" height="368pt"
 viewBox="0.00 0.00 292.00 368.00" xmlns="http://www.w3.org/2000/svg" xmlns:xlink="http://www.w3.org/1999/xlink">
<g id="graph0" class="graph" transform="scale(1 1) rotate(0) translate(4 364)">
<title>G</title>
<polygon fill="white" stroke="none" points="-4,4 -4,-364 288,-364 288,4 -4,4"/>
<!-- Node1 -->
<g id="node1" class="node"><title>Node1</title>
<ellipse fill="none" stroke="red" cx="27" cy="-180" rx="27" ry="18"/>
<text text-anchor="middle" x="27" y="-176.3" font-family="Times,serif" font-size="14.00">वेण्</text>
</g>
<!-- Node2 -->
<g id="node2" class="node"><title>Node2</title>
<g id="a_node2"><a xlink:title="मछलियाँ रखने की टोकरी, कुत्सिता वेणी">
<polygon fill="none" stroke="blue" points="174,-360 120,-360 120,-324 174,-324 174,-360"/>
<text text-anchor="middle" x="147" y="-338.3" font-family="Times,serif" font-size="14.00">कुवेणी</text>
</a>
</g>
</g>
<!-- Node1&#45;&gt;Node2 -->
<g id="edge1" class="edge"><title>Node1&#45;&gt;Node2</title>
<path fill="none" stroke="black" d="M36.7358,-197.003C51.0273,-223.863 81.3124,-276.964 116,-315 116.513,-315.563 117.037,-316.127 117.57,-316.691"/>
<polygon fill="black" stroke="black" points="115.278,-319.348 124.837,-323.919 120.215,-314.385 115.278,-319.348"/>
</g>
<!-- Node3 -->
<g id="node3" class="node"><title>Node3</title>
<ellipse fill="none" stroke="red" cx="147" cy="-288" rx="31.3957" ry="18"/>
<text text-anchor="middle" x="147" y="-284.3" font-family="Times,serif" font-size="14.00">प्र_वेण्</text>
</g>
<!-- Node1&#45;&gt;Node3 -->
<g id="edge2" class="edge"><title>Node1&#45;&gt;Node3</title>
<path fill="none" stroke="black" d="M40.3244,-195.908C48.7507,-206.36 60.4466,-220.071 72,-231 86.2435,-244.474 103.539,-257.935 117.827,-268.39"/>
<polygon fill="black" stroke="black" points="116.121,-271.475 126.28,-274.484 120.215,-265.797 116.121,-271.475"/>
</g>
<!-- Node5 -->
<g id="node5" class="node"><title>Node5</title>
<g id="a_node5"><a xlink:title="एक राजा का नाम, अङ्ग का पुत्र और स्वायंभुव मनु का वंशजजब वह राजा बना तो उसने सब प्रकार की पूजा व यज्ञादि को बन्द करने की घोषणा कर दी। ऋषियों ने इसका बड़ा विरोध किया, परन्तु जब उसने उनकी एक न सुनी तो उन्होंने अभिमन्त्रित कुशतृण की पत्ती से उसकी हत्या कर दी। अब देश में कोई शासक न रहा। अतः उन्होंने उस मृतक शरीर की जंघा को मसला, तब उसमें से एक निषाद निकला जो शरीर का गिट्टा तथा चौड़े मुख वाला था। उसके पश्चात् उन्होंने उसकी दक्षिण भुजा को रगड़ा जहाँ से भव्य पृथु दे पृथु का जन्म हुआ। पद्मपुराण के अनुसार वह भली भांति शासन करने लगा, परन्तु बाद में वह जैन&#45;नास्तिकता में फंस गया। यह भी कहा जाता है कि उसने वर्णव्यवस्था में गड़बड़ी फैलाई, तु* मनु* ७/४१, ९/६६&#45;६७">
<polygon fill="none" stroke="blue" points="174,-252 120,-252 120,-216 174,-216 174,-252"/>
<text text-anchor="middle" x="147" y="-230.3" font-family="Times,serif" font-size="14.00">वेण</text>
</a>
</g>
</g>
<!-- Node1&#45;&gt;Node5 -->
<g id="edge4" class="edge"><title>Node1&#45;&gt;Node5</title>
<path fill="none" stroke="black" d="M49.643,-189.904C66.6821,-197.702 90.7827,-208.731 110.618,-217.808"/>
<polygon fill="black" stroke="black" points="109.413,-221.106 119.963,-222.085 112.326,-214.741 109.413,-221.106"/>
<text text-anchor="middle" x="85" y="-215.8" font-family="Times,serif" font-size="14.00">अच्</text>
</g>
<!-- Node6 -->
<g id="node6" class="node"><title>Node6</title>
<g id="a_node6"><a xlink:title="गुंथे हुए बाल, बालो की मींढी, तरङ्गिणी वेणिरिवायता भुवः">
<polygon fill="none" stroke="blue" points="174,-198 120,-198 120,-162 174,-162 174,-198"/>
<text text-anchor="middle" x="147" y="-176.3" font-family="Times,serif" font-size="14.00">वेणि</text>
</a>
</g>
</g>
<!-- Node1&#45;&gt;Node6 -->
<g id="edge5" class="edge"><title>Node1&#45;&gt;Node6</title>
<path fill="none" stroke="black" d="M54.188,-180C70.5345,-180 91.808,-180 109.761,-180"/>
<polygon fill="black" stroke="black" points="109.885,-183.5 119.885,-180 109.885,-176.5 109.885,-183.5"/>
<text text-anchor="middle" x="85" y="-183.8" font-family="Times,serif" font-size="14.00">इन्</text>
</g>
<!-- Node7 -->
<g id="node7" class="node"><title>Node7</title>
<g id="a_node7"><a xlink:title="गुंथे हुए बाल, बालो की मींढी, तरङ्गिणी वेणिरिवायता भुवः">
<polygon fill="none" stroke="blue" points="174,-144 120,-144 120,-108 174,-108 174,-144"/>
<text text-anchor="middle" x="147" y="-122.3" font-family="Times,serif" font-size="14.00">वेणी</text>
</a>
</g>
</g>
<!-- Node1&#45;&gt;Node7 -->
<g id="edge6" class="edge"><title>Node1&#45;&gt;Node7</title>
<path fill="none" stroke="black" d="M49.643,-170.096C66.6821,-162.298 90.7827,-151.269 110.618,-142.192"/>
<polygon fill="black" stroke="black" points="112.326,-145.259 119.963,-137.915 109.413,-138.894 112.326,-145.259"/>
<text text-anchor="middle" x="85" y="-163.8" font-family="Times,serif" font-size="14.00">इन्</text>
</g>
<!-- Node8 -->
<g id="node8" class="node"><title>Node8</title>
<g id="a_node8"><a xlink:title="काली मिर्च">
<polygon fill="none" stroke="blue" points="174,-90 120,-90 120,-54 174,-54 174,-90"/>
<text text-anchor="middle" x="147" y="-68.3" font-family="Times,serif" font-size="14.00">वेणुन</text>
</a>
</g>
</g>
<!-- Node1&#45;&gt;Node8 -->
<g id="edge7" class="edge"><title>Node1&#45;&gt;Node8</title>
<path fill="none" stroke="black" d="M40.7801,-164.006C49.2091,-153.841 60.7366,-140.64 72,-130 84.459,-118.23 99.1467,-106.358 112.139,-96.4476"/>
<polygon fill="black" stroke="black" points="114.504,-99.0479 120.391,-90.2391 110.296,-93.4542 114.504,-99.0479"/>
<text text-anchor="middle" x="85" y="-133.8" font-family="Times,serif" font-size="14.00">उनन्</text>
</g>
<!-- Node9 -->
<g id="node9" class="node"><title>Node9</title>
<g id="a_node9"><a xlink:title="बाँस, मलयेऽपि स्थितो वेणुर्वेणुरेव न चन्दनम्">
<polygon fill="none" stroke="blue" points="174,-36 120,-36 120,-0 174,-0 174,-36"/>
<text text-anchor="middle" x="147" y="-14.3" font-family="Times,serif" font-size="14.00">वेणु</text>
</a>
</g>
</g>
<!-- Node1&#45;&gt;Node9 -->
<g id="edge8" class="edge"><title>Node1&#45;&gt;Node9</title>
<path fill="none" stroke="black" d="M34.5923,-162.514C42.1234,-143.687 55.5562,-113.306 72,-90 88.1258,-67.1444 95.8163,-64.3659 116,-45 116.664,-44.3633 117.338,-43.7209 118.02,-43.075"/>
<polygon fill="black" stroke="black" points="120.558,-45.4953 125.506,-36.127 115.796,-40.3646 120.558,-45.4953"/>
<text text-anchor="middle" x="85" y="-93.8" font-family="Times,serif" font-size="14.00">उण्</text>
</g>
<!-- Node4 -->
<g id="node4" class="node"><title>Node4</title>
<g id="a_node4"><a xlink:title="बालों का जूड़ा">
<polygon fill="none" stroke="blue" points="284,-306 230,-306 230,-270 284,-270 284,-306"/>
<text text-anchor="middle" x="257" y="-284.3" font-family="Times,serif" font-size="14.00">प्रवेणि</text>
</a>
</g>
</g>
<!-- Node3&#45;&gt;Node4 -->
<g id="edge3" class="edge"><title>Node3&#45;&gt;Node4</title>
<path fill="none" stroke="black" d="M178.371,-288C191.171,-288 206.177,-288 219.566,-288"/>
<polygon fill="black" stroke="black" points="219.884,-291.5 229.884,-288 219.884,-284.5 219.884,-291.5"/>
<text text-anchor="middle" x="204" y="-291.8" font-family="Times,serif" font-size="14.00">इन्</text>
</g>
</g>
</svg>
