<?xml version="1.0" encoding="UTF-8" standalone="no"?>
<!DOCTYPE svg PUBLIC "-//W3C//DTD SVG 1.1//EN"
 "http://www.w3.org/Graphics/SVG/1.1/DTD/svg11.dtd">
<!-- Generated by graphviz version 2.40.1 (20161225.0304)
 -->
<!-- Title: G Pages: 1 -->
<svg width="318pt" height="206pt"
 viewBox="0.00 0.00 317.69 206.00" xmlns="http://www.w3.org/2000/svg" xmlns:xlink="http://www.w3.org/1999/xlink">
<g id="graph0" class="graph" transform="scale(1 1) rotate(0) translate(4 202)">
<title>G</title>
<polygon fill="#ffffff" stroke="transparent" points="-4,4 -4,-202 313.6932,-202 313.6932,4 -4,4"/>
<!-- Node1 -->
<g id="node1" class="node">
<title>Node1</title>
<ellipse fill="none" stroke="#ff0000" cx="27" cy="-60" rx="27" ry="18"/>
<text text-anchor="middle" x="27" y="-56.3" font-family="Times,serif" font-size="14.00" fill="#000000">विष्</text>
</g>
<!-- Node2 -->
<g id="node2" class="node">
<title>Node2</title>
<ellipse fill="none" stroke="#ff0000" cx="152.3466" cy="-99" rx="38.1938" ry="18"/>
<text text-anchor="middle" x="152.3466" y="-95.3" font-family="Times,serif" font-size="14.00" fill="#000000">परि_विष्</text>
</g>
<!-- Node1&#45;&gt;Node2 -->
<g id="edge1" class="edge">
<title>Node1&#45;&gt;Node2</title>
<path fill="none" stroke="#000000" d="M51.7645,-67.7051C68.4882,-72.9085 90.9803,-79.9067 110.454,-85.9657"/>
<polygon fill="#000000" stroke="#000000" points="109.4351,-89.3141 120.0235,-88.9431 111.5148,-82.6301 109.4351,-89.3141"/>
</g>
<!-- Node7 -->
<g id="node7" class="node">
<title>Node7</title>
<g id="a_node7"><a xlink:title="अधिकृत वस्तु, स्वामित्व, कब्जा">
<polygon fill="none" stroke="#0000ff" points="179.3466,-63 125.3466,-63 125.3466,-27 179.3466,-27 179.3466,-63"/>
<text text-anchor="middle" x="152.3466" y="-41.3" font-family="Times,serif" font-size="14.00" fill="#000000">वेषण</text>
</a>
</g>
</g>
<!-- Node1&#45;&gt;Node7 -->
<g id="edge6" class="edge">
<title>Node1&#45;&gt;Node7</title>
<path fill="none" stroke="#000000" d="M53.5828,-56.8189C71.3702,-54.6903 95.0412,-51.8576 114.7502,-49.4991"/>
<polygon fill="#000000" stroke="#000000" points="115.4223,-52.9437 124.9356,-48.2802 114.5905,-45.9933 115.4223,-52.9437"/>
<text text-anchor="middle" x="84" y="-58.8" font-family="Times,serif" font-size="14.00" fill="#000000">ल्युट्</text>
</g>
<!-- Node3 -->
<g id="node3" class="node">
<title>Node3</title>
<g id="a_node3"><a xlink:title="भोजन परोसने वाला">
<polygon fill="none" stroke="#0000ff" points="309.6932,-198 250.6932,-198 250.6932,-162 309.6932,-162 309.6932,-198"/>
<text text-anchor="middle" x="280.1932" y="-176.3" font-family="Times,serif" font-size="14.00" fill="#000000">परिवेषक</text>
</a>
</g>
</g>
<!-- Node2&#45;&gt;Node3 -->
<g id="edge2" class="edge">
<title>Node2&#45;&gt;Node3</title>
<path fill="none" stroke="#000000" d="M175.203,-113.4812C194.0144,-125.3995 221.0541,-142.5311 242.9811,-156.4234"/>
<polygon fill="#000000" stroke="#000000" points="241.3977,-159.5636 251.7182,-161.959 245.1441,-153.6505 241.3977,-159.5636"/>
<text text-anchor="middle" x="220.6932" y="-152.8" font-family="Times,serif" font-size="14.00" fill="#000000">ण्वुल्</text>
</g>
<!-- Node4 -->
<g id="node4" class="node">
<title>Node4</title>
<g id="a_node4"><a xlink:title="भोजन परोसना, (सेवा के लिए) प्रस्तुत रहना, भोजन वितरण करना">
<polygon fill="none" stroke="#0000ff" points="309.1932,-144 251.1932,-144 251.1932,-108 309.1932,-108 309.1932,-144"/>
<text text-anchor="middle" x="280.1932" y="-122.3" font-family="Times,serif" font-size="14.00" fill="#000000">परिवेषण</text>
</a>
</g>
</g>
<!-- Node2&#45;&gt;Node4 -->
<g id="edge3" class="edge">
<title>Node2&#45;&gt;Node4</title>
<path fill="none" stroke="#000000" d="M187.6197,-106.4493C204.1454,-109.9394 223.8923,-114.1098 240.8953,-117.7007"/>
<polygon fill="#000000" stroke="#000000" points="240.5667,-121.2084 251.0741,-119.8503 242.0132,-114.3595 240.5667,-121.2084"/>
<text text-anchor="middle" x="220.6932" y="-118.8" font-family="Times,serif" font-size="14.00" fill="#000000">ल्युट्</text>
</g>
<!-- Node5 -->
<g id="node5" class="node">
<title>Node5</title>
<g id="a_node5"><a xlink:title="भोजन के समय सेवा करना, भोजन बांटना, भोजन परोसना">
<polygon fill="none" stroke="#0000ff" points="307.1932,-90 253.1932,-90 253.1932,-54 307.1932,-54 307.1932,-90"/>
<text text-anchor="middle" x="280.1932" y="-68.3" font-family="Times,serif" font-size="14.00" fill="#000000">परिवेष</text>
</a>
</g>
</g>
<!-- Node2&#45;&gt;Node5 -->
<g id="edge4" class="edge">
<title>Node2&#45;&gt;Node5</title>
<path fill="none" stroke="#000000" d="M187.6197,-91.5507C204.9192,-87.8972 225.7485,-83.4982 243.2649,-79.7989"/>
<polygon fill="#000000" stroke="#000000" points="244.0828,-83.2035 253.1437,-77.7126 242.6363,-76.3545 244.0828,-83.2035"/>
<text text-anchor="middle" x="220.6932" y="-89.8" font-family="Times,serif" font-size="14.00" fill="#000000">घञ्</text>
</g>
<!-- Node6 -->
<g id="node6" class="node">
<title>Node6</title>
<g id="a_node6"><a xlink:title="भोजन के समय सेवा करना, भोजन बांटना, भोजन परोसना">
<polygon fill="none" stroke="#0000ff" points="307.1932,-36 253.1932,-36 253.1932,0 307.1932,0 307.1932,-36"/>
<text text-anchor="middle" x="280.1932" y="-14.3" font-family="Times,serif" font-size="14.00" fill="#000000">परीवेष</text>
</a>
</g>
</g>
<!-- Node2&#45;&gt;Node6 -->
<g id="edge5" class="edge">
<title>Node2&#45;&gt;Node6</title>
<path fill="none" stroke="#000000" d="M175.0796,-84.4263C185.3384,-77.8623 197.6151,-70.0249 208.6932,-63 220.3404,-55.6142 233.0779,-47.5829 244.5333,-40.3768"/>
<polygon fill="#000000" stroke="#000000" points="246.4009,-43.3369 253.0041,-35.0514 242.6753,-37.4107 246.4009,-43.3369"/>
<text text-anchor="middle" x="220.6932" y="-66.8" font-family="Times,serif" font-size="14.00" fill="#000000">घञ्</text>
</g>
</g>
</svg>
