<?xml version="1.0" encoding="UTF-8" standalone="no"?>
<!DOCTYPE svg PUBLIC "-//W3C//DTD SVG 1.1//EN"
 "http://www.w3.org/Graphics/SVG/1.1/DTD/svg11.dtd">
<!-- Generated by graphviz version 2.36.0 (20140111.2315)
 -->
<!-- Title: G Pages: 1 -->
<svg width="328pt" height="260pt"
 viewBox="0.00 0.00 328.00 260.00" xmlns="http://www.w3.org/2000/svg" xmlns:xlink="http://www.w3.org/1999/xlink">
<g id="graph0" class="graph" transform="scale(1 1) rotate(0) translate(4 256)">
<title>G</title>
<polygon fill="white" stroke="none" points="-4,4 -4,-256 324,-256 324,4 -4,4"/>
<!-- Node1 -->
<g id="node1" class="node"><title>Node1</title>
<ellipse fill="none" stroke="red" cx="27" cy="-126" rx="27" ry="18"/>
<text text-anchor="middle" x="27" y="-122.3" font-family="Times,serif" font-size="14.00">व्यथ्</text>
</g>
<!-- Node2 -->
<g id="node2" class="node"><title>Node2</title>
<g id="a_node2"><a xlink:title="राक्षस">
<polygon fill="none" stroke="blue" points="188,-252 134,-252 134,-216 188,-216 188,-252"/>
<text text-anchor="middle" x="161" y="-230.3" font-family="Times,serif" font-size="14.00">विथुर</text>
</a>
</g>
</g>
<!-- Node1&#45;&gt;Node2 -->
<g id="edge1" class="edge"><title>Node1&#45;&gt;Node2</title>
<path fill="none" stroke="black" d="M42.482,-140.982C59.316,-157.992 88.3356,-186.092 116,-207 118.963,-209.239 122.119,-211.461 125.329,-213.612"/>
<polygon fill="black" stroke="black" points="123.552,-216.631 133.854,-219.106 127.344,-210.747 123.552,-216.631"/>
<text text-anchor="middle" x="85" y="-193.8" font-family="Times,serif" font-size="14.00">उरच्</text>
</g>
<!-- Node3 -->
<g id="node3" class="node"><title>Node3</title>
<ellipse fill="none" stroke="red" cx="161" cy="-180" rx="44.6926" ry="18"/>
<text text-anchor="middle" x="161" y="-176.3" font-family="Times,serif" font-size="14.00">व्यथ्+णिच्</text>
</g>
<!-- Node1&#45;&gt;Node3 -->
<g id="edge2" class="edge"><title>Node1&#45;&gt;Node3</title>
<path fill="none" stroke="black" d="M49.8798,-135.597C56.9236,-138.647 64.7751,-142.004 72,-145 87.1997,-151.303 103.964,-158.027 118.747,-163.879"/>
<polygon fill="black" stroke="black" points="117.552,-167.17 128.139,-167.586 120.122,-160.659 117.552,-167.17"/>
</g>
<!-- Node5 -->
<g id="node5" class="node"><title>Node5</title>
<g id="a_node5"><a xlink:title="पीडा देना, सताना">
<polygon fill="none" stroke="blue" points="188,-144 134,-144 134,-108 188,-108 188,-144"/>
<text text-anchor="middle" x="161" y="-122.3" font-family="Times,serif" font-size="14.00">व्यथन</text>
</a>
</g>
</g>
<!-- Node1&#45;&gt;Node5 -->
<g id="edge4" class="edge"><title>Node1&#45;&gt;Node5</title>
<path fill="none" stroke="black" d="M54.079,-126C74.0565,-126 101.851,-126 123.955,-126"/>
<polygon fill="black" stroke="black" points="123.975,-129.5 133.975,-126 123.975,-122.5 123.975,-129.5"/>
<text text-anchor="middle" x="85" y="-129.8" font-family="Times,serif" font-size="14.00">ल्युट्</text>
</g>
<!-- Node6 -->
<g id="node6" class="node"><title>Node6</title>
<g id="a_node6"><a xlink:title="भय, आतंक, चिन्तास्वन्तमित्यलघशत्स तद्व्यथाम्">
<polygon fill="none" stroke="blue" points="188,-90 134,-90 134,-54 188,-54 188,-90"/>
<text text-anchor="middle" x="161" y="-68.3" font-family="Times,serif" font-size="14.00">व्यथा</text>
</a>
</g>
</g>
<!-- Node1&#45;&gt;Node6 -->
<g id="edge5" class="edge"><title>Node1&#45;&gt;Node6</title>
<path fill="none" stroke="black" d="M49.8798,-116.403C56.9236,-113.353 64.7751,-109.996 72,-107 89.1053,-99.907 108.192,-92.2808 124.206,-85.9634"/>
<polygon fill="black" stroke="black" points="125.71,-89.1329 133.735,-82.2155 123.148,-82.6187 125.71,-89.1329"/>
<text text-anchor="middle" x="85" y="-110.8" font-family="Times,serif" font-size="14.00">अङ्</text>
</g>
<!-- Node7 -->
<g id="node7" class="node"><title>Node7</title>
<g id="a_node7"><a xlink:title="कष्टग्रस्त, दुःखी, पीडित">
<polygon fill="none" stroke="blue" points="188,-36 134,-36 134,-0 188,-0 188,-36"/>
<text text-anchor="middle" x="161" y="-14.3" font-family="Times,serif" font-size="14.00">व्यथित</text>
</a>
</g>
</g>
<!-- Node1&#45;&gt;Node7 -->
<g id="edge6" class="edge"><title>Node1&#45;&gt;Node7</title>
<path fill="none" stroke="black" d="M41.2871,-110.589C49.7287,-101.114 61.0859,-88.928 72,-79 90.2815,-62.3702 95.6608,-59.0387 116,-45 118.89,-43.0049 121.927,-40.988 124.997,-39.0026"/>
<polygon fill="black" stroke="black" points="127.063,-41.8373 133.645,-33.5353 123.323,-35.9205 127.063,-41.8373"/>
<text text-anchor="middle" x="85" y="-82.8" font-family="Times,serif" font-size="14.00">क्त</text>
</g>
<!-- Node4 -->
<g id="node4" class="node"><title>Node4</title>
<polygon fill="none" stroke="blue" points="320,-198 266,-198 266,-162 320,-162 320,-198"/>
<text text-anchor="middle" x="293" y="-176.3" font-family="Times,serif" font-size="14.00">व्यथक</text>
</g>
<!-- Node3&#45;&gt;Node4 -->
<g id="edge3" class="edge"><title>Node3&#45;&gt;Node4</title>
<path fill="none" stroke="black" d="M206.012,-180C222.171,-180 240.269,-180 255.678,-180"/>
<polygon fill="black" stroke="black" points="255.859,-183.5 265.859,-180 255.859,-176.5 255.859,-183.5"/>
<text text-anchor="middle" x="236" y="-183.8" font-family="Times,serif" font-size="14.00">ण्वुल्</text>
</g>
</g>
</svg>
