<?xml version="1.0" encoding="UTF-8" standalone="no"?>
<!DOCTYPE svg PUBLIC "-//W3C//DTD SVG 1.1//EN"
 "http://www.w3.org/Graphics/SVG/1.1/DTD/svg11.dtd">
<!-- Generated by graphviz version 2.36.0 (20140111.2315)
 -->
<!-- Title: G Pages: 1 -->
<svg width="486pt" height="260pt"
 viewBox="0.00 0.00 486.00 260.00" xmlns="http://www.w3.org/2000/svg" xmlns:xlink="http://www.w3.org/1999/xlink">
<g id="graph0" class="graph" transform="scale(1 1) rotate(0) translate(4 256)">
<title>G</title>
<polygon fill="white" stroke="none" points="-4,4 -4,-256 482,-256 482,4 -4,4"/>
<!-- Node1 -->
<g id="node1" class="node"><title>Node1</title>
<ellipse fill="none" stroke="red" cx="27" cy="-98" rx="27" ry="18"/>
<text text-anchor="middle" x="27" y="-94.3" font-family="Times,serif" font-size="14.00">व्ये</text>
</g>
<!-- Node2 -->
<g id="node2" class="node"><title>Node2</title>
<ellipse fill="none" stroke="red" cx="155" cy="-213" rx="32.4942" ry="18"/>
<text text-anchor="middle" x="155" y="-209.3" font-family="Times,serif" font-size="14.00">आ_व्ये</text>
</g>
<!-- Node1&#45;&gt;Node2 -->
<g id="edge1" class="edge"><title>Node1&#45;&gt;Node2</title>
<path fill="none" stroke="black" d="M43.7032,-112.332C65.3454,-132.085 104.536,-167.855 129.902,-191.006"/>
<polygon fill="black" stroke="black" points="127.55,-193.598 137.296,-197.754 132.269,-188.427 127.55,-193.598"/>
</g>
<!-- Node4 -->
<g id="node4" class="node"><title>Node4</title>
<ellipse fill="none" stroke="red" cx="155" cy="-126" rx="35.194" ry="18"/>
<text text-anchor="middle" x="155" y="-122.3" font-family="Times,serif" font-size="14.00">सम्_व्ये</text>
</g>
<!-- Node1&#45;&gt;Node4 -->
<g id="edge3" class="edge"><title>Node1&#45;&gt;Node4</title>
<path fill="none" stroke="black" d="M52.8935,-103.532C69.872,-107.305 92.765,-112.392 112.473,-116.772"/>
<polygon fill="black" stroke="black" points="111.92,-120.234 122.441,-118.987 113.439,-113.401 111.92,-120.234"/>
</g>
<!-- Node7 -->
<g id="node7" class="node"><title>Node7</title>
<ellipse fill="none" stroke="red" cx="155" cy="-72" rx="31.3957" ry="18"/>
<text text-anchor="middle" x="155" y="-68.3" font-family="Times,serif" font-size="14.00">नि_व्ये</text>
</g>
<!-- Node1&#45;&gt;Node7 -->
<g id="edge6" class="edge"><title>Node1&#45;&gt;Node7</title>
<path fill="none" stroke="black" d="M52.8935,-92.8632C70.6861,-89.1918 94.9741,-84.18 115.286,-79.9887"/>
<polygon fill="black" stroke="black" points="116.103,-83.3938 125.189,-77.9451 114.688,-76.5383 116.103,-83.3938"/>
</g>
<!-- Node9 -->
<g id="node9" class="node"><title>Node9</title>
<g id="a_node9"><a xlink:title="आकाश, अन्तरिक्ष, अस्त्वेवं जडधामता तु भवतो यद् व्योम्नि विस्फूर्जसे">
<polygon fill="none" stroke="blue" points="182,-36 128,-36 128,-0 182,-0 182,-36"/>
<text text-anchor="middle" x="155" y="-14.3" font-family="Times,serif" font-size="14.00">व्योमन्</text>
</a>
</g>
</g>
<!-- Node1&#45;&gt;Node9 -->
<g id="edge8" class="edge"><title>Node1&#45;&gt;Node9</title>
<path fill="none" stroke="black" d="M45.2014,-84.3267C53.1866,-78.1819 62.9066,-70.9835 72,-65 86.984,-55.1405 104.123,-45.1315 118.844,-36.8984"/>
<polygon fill="black" stroke="black" points="120.604,-39.9248 127.657,-32.0188 117.213,-33.8009 120.604,-39.9248"/>
<text text-anchor="middle" x="87" y="-68.8" font-family="Times,serif" font-size="14.00">मनिन्</text>
</g>
<!-- Node3 -->
<g id="node3" class="node"><title>Node3</title>
<g id="a_node3"><a xlink:title="यज्ञोपवीत, चाहे किसी प्रकार सव्य, अपसव्य पहना हुआ हो">
<polygon fill="none" stroke="blue" points="327,-252 273,-252 273,-216 327,-216 327,-252"/>
<text text-anchor="middle" x="300" y="-230.3" font-family="Times,serif" font-size="14.00">आवीत</text>
</a>
</g>
</g>
<!-- Node2&#45;&gt;Node3 -->
<g id="edge2" class="edge"><title>Node2&#45;&gt;Node3</title>
<path fill="none" stroke="black" d="M186.677,-217.505C208.981,-220.78 239.256,-225.226 262.754,-228.677"/>
<polygon fill="black" stroke="black" points="262.291,-232.147 272.694,-230.137 263.308,-225.221 262.291,-232.147"/>
<text text-anchor="middle" x="220" y="-227.8" font-family="Times,serif" font-size="14.00">क्त</text>
</g>
<!-- Node5 -->
<g id="node5" class="node"><title>Node5</title>
<ellipse fill="none" stroke="red" cx="300" cy="-180" rx="50.0912" ry="18"/>
<text text-anchor="middle" x="300" y="-176.3" font-family="Times,serif" font-size="14.00">उप्_सम्_व्ये</text>
</g>
<!-- Node4&#45;&gt;Node5 -->
<g id="edge4" class="edge"><title>Node4&#45;&gt;Node5</title>
<path fill="none" stroke="black" d="M183.911,-136.54C204.181,-144.194 232.007,-154.702 255.221,-163.468"/>
<polygon fill="black" stroke="black" points="254.261,-166.847 264.852,-167.105 256.734,-160.298 254.261,-166.847"/>
</g>
<!-- Node10 -->
<g id="node10" class="node"><title>Node10</title>
<g id="a_node10"><a xlink:title="वस्त्रों से सज्जित, कपड़े पहने हुए">
<polygon fill="none" stroke="blue" points="327,-144 273,-144 273,-108 327,-108 327,-144"/>
<text text-anchor="middle" x="300" y="-122.3" font-family="Times,serif" font-size="14.00">संवीत</text>
</a>
</g>
</g>
<!-- Node4&#45;&gt;Node10 -->
<g id="edge9" class="edge"><title>Node4&#45;&gt;Node10</title>
<path fill="none" stroke="black" d="M190.252,-126C212.079,-126 240.332,-126 262.569,-126"/>
<polygon fill="black" stroke="black" points="262.632,-129.5 272.632,-126 262.632,-122.5 262.632,-129.5"/>
<text text-anchor="middle" x="220" y="-129.8" font-family="Times,serif" font-size="14.00">क्त</text>
</g>
<!-- Node11 -->
<g id="node11" class="node"><title>Node11</title>
<g id="a_node11"><a xlink:title="आवरण, परिवेष्टन">
<polygon fill="none" stroke="blue" points="327,-90 273,-90 273,-54 327,-54 327,-90"/>
<text text-anchor="middle" x="300" y="-68.3" font-family="Times,serif" font-size="14.00">संव्यान</text>
</a>
</g>
</g>
<!-- Node4&#45;&gt;Node11 -->
<g id="edge10" class="edge"><title>Node4&#45;&gt;Node11</title>
<path fill="none" stroke="black" d="M183.911,-115.46C206.486,-106.935 238.434,-94.871 262.944,-85.6154"/>
<polygon fill="black" stroke="black" points="264.489,-88.7735 272.608,-81.9664 262.016,-82.2249 264.489,-88.7735"/>
<text text-anchor="middle" x="220" y="-109.8" font-family="Times,serif" font-size="14.00">ल्युट्</text>
</g>
<!-- Node6 -->
<g id="node6" class="node"><title>Node6</title>
<g id="a_node6"><a xlink:title="अन्तःपट, अन्तरं बहिर्योगोपसंव्यानयोः">
<polygon fill="none" stroke="blue" points="478,-198 410,-198 410,-162 478,-162 478,-198"/>
<text text-anchor="middle" x="444" y="-176.3" font-family="Times,serif" font-size="14.00">उपसंव्यान</text>
</a>
</g>
</g>
<!-- Node5&#45;&gt;Node6 -->
<g id="edge5" class="edge"><title>Node5&#45;&gt;Node6</title>
<path fill="none" stroke="black" d="M350.266,-180C366.277,-180 383.919,-180 399.48,-180"/>
<polygon fill="black" stroke="black" points="399.874,-183.5 409.874,-180 399.874,-176.5 399.874,-183.5"/>
<text text-anchor="middle" x="380" y="-183.8" font-family="Times,serif" font-size="14.00">ल्युट्</text>
</g>
<!-- Node8 -->
<g id="node8" class="node"><title>Node8</title>
<g id="a_node8"><a xlink:title="धारण किया हुआ जनेऊ">
<polygon fill="none" stroke="blue" points="327,-36 273,-36 273,-0 327,-0 327,-36"/>
<text text-anchor="middle" x="300" y="-14.3" font-family="Times,serif" font-size="14.00">निवीत</text>
</a>
</g>
</g>
<!-- Node7&#45;&gt;Node8 -->
<g id="edge7" class="edge"><title>Node7&#45;&gt;Node8</title>
<path fill="none" stroke="black" d="M174.215,-57.7649C186.191,-48.6593 200.912,-38.0098 208,-35 225.151,-27.7171 245.432,-23.5441 262.489,-21.1578"/>
<polygon fill="black" stroke="black" points="263.147,-24.6029 272.637,-19.8911 262.28,-17.6568 263.147,-24.6029"/>
<text text-anchor="middle" x="220" y="-38.8" font-family="Times,serif" font-size="14.00">क्त</text>
</g>
</g>
</svg>
