<?xml version="1.0" encoding="UTF-8" standalone="no"?>
<!DOCTYPE svg PUBLIC "-//W3C//DTD SVG 1.1//EN"
 "http://www.w3.org/Graphics/SVG/1.1/DTD/svg11.dtd">
<!-- Generated by graphviz version 2.40.1 (20161225.0304)
 -->
<!-- Title: G Pages: 1 -->
<svg width="319pt" height="206pt"
 viewBox="0.00 0.00 318.99 206.00" xmlns="http://www.w3.org/2000/svg" xmlns:xlink="http://www.w3.org/1999/xlink">
<g id="graph0" class="graph" transform="scale(1 1) rotate(0) translate(4 202)">
<title>G</title>
<polygon fill="#ffffff" stroke="transparent" points="-4,4 -4,-202 314.9931,-202 314.9931,4 -4,4"/>
<!-- Node1 -->
<g id="node1" class="node">
<title>Node1</title>
<ellipse fill="none" stroke="#ff0000" cx="27" cy="-99" rx="27" ry="18"/>
<text text-anchor="middle" x="27" y="-95.3" font-family="Times,serif" font-size="14.00" fill="#000000">तर्ज्</text>
</g>
<!-- Node2 -->
<g id="node2" class="node">
<title>Node2</title>
<ellipse fill="none" stroke="#ff0000" cx="152.9965" cy="-180" rx="38.1938" ry="18"/>
<text text-anchor="middle" x="152.9965" y="-176.3" font-family="Times,serif" font-size="14.00" fill="#000000">उद्_तर्ज्</text>
</g>
<!-- Node1&#45;&gt;Node2 -->
<g id="edge1" class="edge">
<title>Node1&#45;&gt;Node2</title>
<path fill="none" stroke="#000000" d="M45.1034,-112.9C53.202,-118.9545 62.9469,-126.0186 72,-132 87.2467,-142.0735 104.6238,-152.5029 119.3628,-161.0562"/>
<polygon fill="#000000" stroke="#000000" points="117.7438,-164.1627 128.1564,-166.1194 121.2368,-158.0964 117.7438,-164.1627"/>
</g>
<!-- Node4 -->
<g id="node4" class="node">
<title>Node4</title>
<g id="a_node4"><a xlink:title="धमकाना, डराना">
<polygon fill="none" stroke="#0000ff" points="179.9965,-144 125.9965,-144 125.9965,-108 179.9965,-108 179.9965,-144"/>
<text text-anchor="middle" x="152.9965" y="-122.3" font-family="Times,serif" font-size="14.00" fill="#000000">तर्जन</text>
</a>
</g>
</g>
<!-- Node1&#45;&gt;Node4 -->
<g id="edge3" class="edge">
<title>Node1&#45;&gt;Node4</title>
<path fill="none" stroke="#000000" d="M52.8013,-104.529C71.0321,-108.4357 95.7376,-113.7299 116.0543,-118.0836"/>
<polygon fill="#000000" stroke="#000000" points="115.4122,-121.5254 125.9236,-120.1985 116.879,-114.6808 115.4122,-121.5254"/>
<text text-anchor="middle" x="84" y="-116.8" font-family="Times,serif" font-size="14.00" fill="#000000">ल्युट्</text>
</g>
<!-- Node5 -->
<g id="node5" class="node">
<title>Node5</title>
<g id="a_node5"><a xlink:title="धमकाना, डराना">
<polygon fill="none" stroke="#0000ff" points="179.9965,-90 125.9965,-90 125.9965,-54 179.9965,-54 179.9965,-90"/>
<text text-anchor="middle" x="152.9965" y="-68.3" font-family="Times,serif" font-size="14.00" fill="#000000">तर्जना</text>
</a>
</g>
</g>
<!-- Node1&#45;&gt;Node5 -->
<g id="edge4" class="edge">
<title>Node1&#45;&gt;Node5</title>
<path fill="none" stroke="#000000" d="M52.8013,-93.471C71.0321,-89.5643 95.7376,-84.2701 116.0543,-79.9164"/>
<polygon fill="#000000" stroke="#000000" points="116.879,-83.3192 125.9236,-77.8015 115.4122,-76.4746 116.879,-83.3192"/>
<text text-anchor="middle" x="84" y="-91.8" font-family="Times,serif" font-size="14.00" fill="#000000">ल्युट्</text>
</g>
<!-- Node6 -->
<g id="node6" class="node">
<title>Node6</title>
<ellipse fill="none" stroke="#ff0000" cx="152.9965" cy="-18" rx="38.9931" ry="18"/>
<text text-anchor="middle" x="152.9965" y="-14.3" font-family="Times,serif" font-size="14.00" fill="#000000">सम्_तर्ज्</text>
</g>
<!-- Node1&#45;&gt;Node6 -->
<g id="edge5" class="edge">
<title>Node1&#45;&gt;Node6</title>
<path fill="none" stroke="#000000" d="M46.687,-86.3438C66.6941,-73.4817 97.997,-53.3578 121.4633,-38.2719"/>
<polygon fill="#000000" stroke="#000000" points="123.5143,-41.1143 130.0333,-32.7625 119.7289,-35.2261 123.5143,-41.1143"/>
</g>
<!-- Node3 -->
<g id="node3" class="node">
<title>Node3</title>
<g id="a_node3"><a xlink:title="जबरदस्त झिड़की">
<polygon fill="none" stroke="#0000ff" points="308.9931,-198 253.9931,-198 253.9931,-162 308.9931,-162 308.9931,-198"/>
<text text-anchor="middle" x="281.4931" y="-176.3" font-family="Times,serif" font-size="14.00" fill="#000000">उत्तर्जन</text>
</a>
</g>
</g>
<!-- Node2&#45;&gt;Node3 -->
<g id="edge2" class="edge">
<title>Node2&#45;&gt;Node3</title>
<path fill="none" stroke="#000000" d="M191.5497,-180C208.0442,-180 227.2439,-180 243.6584,-180"/>
<polygon fill="#000000" stroke="#000000" points="243.9865,-183.5001 253.9865,-180 243.9865,-176.5001 243.9865,-183.5001"/>
<text text-anchor="middle" x="221.9931" y="-183.8" font-family="Times,serif" font-size="14.00" fill="#000000">ल्युट्</text>
</g>
<!-- Node7 -->
<g id="node7" class="node">
<title>Node7</title>
<g id="a_node7"><a xlink:title="धमकाना, डांटना&#45;डपटना">
<polygon fill="none" stroke="#0000ff" points="310.9931,-36 251.9931,-36 251.9931,0 310.9931,0 310.9931,-36"/>
<text text-anchor="middle" x="281.4931" y="-14.3" font-family="Times,serif" font-size="14.00" fill="#000000">सन्तर्जन</text>
</a>
</g>
</g>
<!-- Node6&#45;&gt;Node7 -->
<g id="edge6" class="edge">
<title>Node6&#45;&gt;Node7</title>
<path fill="none" stroke="#000000" d="M192.2479,-18C207.8394,-18 225.7577,-18 241.4284,-18"/>
<polygon fill="#000000" stroke="#000000" points="241.8622,-21.5001 251.8621,-18 241.8621,-14.5001 241.8622,-21.5001"/>
<text text-anchor="middle" x="221.9931" y="-21.8" font-family="Times,serif" font-size="14.00" fill="#000000">ल्युट्</text>
</g>
</g>
</svg>
