<?xml version="1.0" encoding="UTF-8" standalone="no"?>
<!DOCTYPE svg PUBLIC "-//W3C//DTD SVG 1.1//EN"
 "http://www.w3.org/Graphics/SVG/1.1/DTD/svg11.dtd">
<!-- Generated by graphviz version 2.40.1 (20161225.0304)
 -->
<!-- Title: G Pages: 1 -->
<svg width="517pt" height="584pt"
 viewBox="0.00 0.00 517.28 584.00" xmlns="http://www.w3.org/2000/svg" xmlns:xlink="http://www.w3.org/1999/xlink">
<g id="graph0" class="graph" transform="scale(1 1) rotate(0) translate(4 580)">
<title>G</title>
<polygon fill="#ffffff" stroke="transparent" points="-4,4 -4,-580 513.2814,-580 513.2814,4 -4,4"/>
<!-- Node1 -->
<g id="node1" class="node">
<title>Node1</title>
<ellipse fill="none" stroke="#ff0000" cx="27" cy="-234" rx="27" ry="18"/>
<text text-anchor="middle" x="27" y="-230.3" font-family="Times,serif" font-size="14.00" fill="#000000">तिज्</text>
</g>
<!-- Node2 -->
<g id="node2" class="node">
<title>Node2</title>
<ellipse fill="none" stroke="#ff0000" cx="159.846" cy="-450" rx="44.6926" ry="18"/>
<text text-anchor="middle" x="159.846" y="-446.3" font-family="Times,serif" font-size="14.00" fill="#000000">तिज्+णिच्</text>
</g>
<!-- Node1&#45;&gt;Node2 -->
<g id="edge1" class="edge">
<title>Node1&#45;&gt;Node2</title>
<path fill="none" stroke="#000000" d="M30.6877,-252.1704C36.679,-279.2673 50.1107,-331.3245 72,-371 86.4868,-397.2581 92.2747,-403.4317 115,-423 117.7805,-425.3942 120.7994,-427.7048 123.9124,-429.8987"/>
<polygon fill="#000000" stroke="#000000" points="121.9978,-432.8286 132.2733,-435.4103 125.8505,-426.9842 121.9978,-432.8286"/>
</g>
<!-- Node7 -->
<g id="node7" class="node">
<title>Node7</title>
<g id="a_node7"><a xlink:title="सुगंधित">
<polygon fill="none" stroke="#0000ff" points="186.846,-414 132.846,-414 132.846,-378 186.846,-378 186.846,-414"/>
<text text-anchor="middle" x="159.846" y="-392.3" font-family="Times,serif" font-size="14.00" fill="#000000">तिक्त</text>
</a>
</g>
</g>
<!-- Node1&#45;&gt;Node7 -->
<g id="edge6" class="edge">
<title>Node1&#45;&gt;Node7</title>
<path fill="none" stroke="#000000" d="M34.652,-251.4963C42.8125,-269.3797 56.6549,-297.6266 72,-320 88.3882,-343.8942 92.769,-350.418 115,-369 117.8894,-371.4151 121.0184,-373.7558 124.2337,-375.9829"/>
<polygon fill="#000000" stroke="#000000" points="122.5509,-379.0637 132.8412,-381.5858 126.3697,-373.197 122.5509,-379.0637"/>
<text text-anchor="middle" x="84.5" y="-355.8" font-family="Times,serif" font-size="14.00" fill="#000000">क्त</text>
</g>
<!-- Node8 -->
<g id="node8" class="node">
<title>Node8</title>
<g id="a_node8"><a xlink:title="गर्मी">
<polygon fill="none" stroke="#0000ff" points="186.846,-360 132.846,-360 132.846,-324 186.846,-324 186.846,-360"/>
<text text-anchor="middle" x="159.846" y="-338.3" font-family="Times,serif" font-size="14.00" fill="#000000">तिग्म</text>
</a>
</g>
</g>
<!-- Node1&#45;&gt;Node8 -->
<g id="edge7" class="edge">
<title>Node1&#45;&gt;Node8</title>
<path fill="none" stroke="#000000" d="M41.0774,-249.7678C49.7016,-259.1527 61.1361,-271.1183 72,-281 90.0231,-297.3936 94.9677,-301.1332 115,-315 117.8512,-316.9736 120.8487,-318.9588 123.8856,-320.9081"/>
<polygon fill="#000000" stroke="#000000" points="122.1248,-323.935 132.4597,-326.2677 125.8353,-317.9992 122.1248,-323.935"/>
<text text-anchor="middle" x="84.5" y="-304.8" font-family="Times,serif" font-size="14.00" fill="#000000">मक्</text>
</g>
<!-- Node9 -->
<g id="node9" class="node">
<title>Node9</title>
<g id="a_node9"><a xlink:title="पैन, नुकीला शास्त्रों की भांति">
<polygon fill="none" stroke="#0000ff" points="186.846,-306 132.846,-306 132.846,-270 186.846,-270 186.846,-306"/>
<text text-anchor="middle" x="159.846" y="-284.3" font-family="Times,serif" font-size="14.00" fill="#000000">तिग्म</text>
</a>
</g>
</g>
<!-- Node1&#45;&gt;Node9 -->
<g id="edge8" class="edge">
<title>Node1&#45;&gt;Node9</title>
<path fill="none" stroke="#000000" d="M49.8551,-243.7561C56.9401,-246.7519 64.782,-250.0386 72,-253 88.7286,-259.8633 107.3233,-267.2995 123.0818,-273.5453"/>
<polygon fill="#000000" stroke="#000000" points="121.8988,-276.8412 132.4852,-277.2646 124.4735,-270.3318 121.8988,-276.8412"/>
<text text-anchor="middle" x="84.5" y="-265.8" font-family="Times,serif" font-size="14.00" fill="#000000">मक्</text>
</g>
<!-- Node10 -->
<g id="node10" class="node">
<title>Node10</title>
<g id="a_node10"><a xlink:title="प्रचंड">
<polygon fill="none" stroke="#0000ff" points="186.846,-252 132.846,-252 132.846,-216 186.846,-216 186.846,-252"/>
<text text-anchor="middle" x="159.846" y="-230.3" font-family="Times,serif" font-size="14.00" fill="#000000">तिग्म</text>
</a>
</g>
</g>
<!-- Node1&#45;&gt;Node10 -->
<g id="edge9" class="edge">
<title>Node1&#45;&gt;Node10</title>
<path fill="none" stroke="#000000" d="M54.2039,-234C73.9049,-234 100.7773,-234 122.4887,-234"/>
<polygon fill="#000000" stroke="#000000" points="122.6785,-237.5001 132.6785,-234 122.6784,-230.5001 122.6785,-237.5001"/>
<text text-anchor="middle" x="84.5" y="-237.8" font-family="Times,serif" font-size="14.00" fill="#000000">मक्</text>
</g>
<!-- Node11 -->
<g id="node11" class="node">
<title>Node11</title>
<ellipse fill="none" stroke="#ff0000" cx="159.846" cy="-180" rx="42.4939" ry="18"/>
<text text-anchor="middle" x="159.846" y="-176.3" font-family="Times,serif" font-size="14.00" fill="#000000">तिज्+सन्</text>
</g>
<!-- Node1&#45;&gt;Node11 -->
<g id="edge10" class="edge">
<title>Node1&#45;&gt;Node11</title>
<path fill="none" stroke="#000000" d="M50.14,-224.5939C69.2636,-216.8205 96.8652,-205.6008 119.5977,-196.3604"/>
<polygon fill="#000000" stroke="#000000" points="121.0573,-199.5452 129.0032,-192.5372 118.4213,-193.0605 121.0573,-199.5452"/>
</g>
<!-- Node13 -->
<g id="node13" class="node">
<title>Node13</title>
<g id="a_node13"><a xlink:title="अग्नि">
<polygon fill="none" stroke="#0000ff" points="186.846,-144 132.846,-144 132.846,-108 186.846,-108 186.846,-144"/>
<text text-anchor="middle" x="159.846" y="-122.3" font-family="Times,serif" font-size="14.00" fill="#000000">तिथ</text>
</a>
</g>
</g>
<!-- Node1&#45;&gt;Node13 -->
<g id="edge12" class="edge">
<title>Node1&#45;&gt;Node13</title>
<path fill="none" stroke="#000000" d="M41.1767,-218.6544C49.836,-209.5 61.2727,-197.7908 72,-188 90.2006,-171.3883 94.8388,-167.1681 115,-153 117.8371,-151.0062 120.8248,-149.007 123.8551,-147.0482"/>
<polygon fill="#000000" stroke="#000000" points="125.8094,-149.9539 132.4184,-141.6731 122.0879,-144.0251 125.8094,-149.9539"/>
<text text-anchor="middle" x="84.5" y="-191.8" font-family="Times,serif" font-size="14.00" fill="#000000">थक्</text>
</g>
<!-- Node14 -->
<g id="node14" class="node">
<title>Node14</title>
<g id="a_node14"><a xlink:title="गरम, उष्ण#जवाखार#लोहा">
<polygon fill="none" stroke="#0000ff" points="186.846,-90 132.846,-90 132.846,-54 186.846,-54 186.846,-90"/>
<text text-anchor="middle" x="159.846" y="-68.3" font-family="Times,serif" font-size="14.00" fill="#000000">तीक्ष्ण</text>
</a>
</g>
</g>
<!-- Node1&#45;&gt;Node14 -->
<g id="edge13" class="edge">
<title>Node1&#45;&gt;Node14</title>
<path fill="none" stroke="#000000" d="M34.652,-216.5037C42.8125,-198.6203 56.6549,-170.3734 72,-148 88.3882,-124.1058 92.769,-117.582 115,-99 117.8894,-96.5849 121.0184,-94.2442 124.2337,-92.0171"/>
<polygon fill="#000000" stroke="#000000" points="126.3697,-94.803 132.8412,-86.4142 122.5509,-88.9363 126.3697,-94.803"/>
<text text-anchor="middle" x="84.5" y="-151.8" font-family="Times,serif" font-size="14.00" fill="#000000">क्स्न</text>
</g>
<!-- Node15 -->
<g id="node15" class="node">
<title>Node15</title>
<g id="a_node15"><a xlink:title="बाँस">
<polygon fill="none" stroke="#0000ff" points="186.846,-36 132.846,-36 132.846,0 186.846,0 186.846,-36"/>
<text text-anchor="middle" x="159.846" y="-14.3" font-family="Times,serif" font-size="14.00" fill="#000000">तेजन</text>
</a>
</g>
</g>
<!-- Node1&#45;&gt;Node15 -->
<g id="edge14" class="edge">
<title>Node1&#45;&gt;Node15</title>
<path fill="none" stroke="#000000" d="M30.6877,-215.8296C36.679,-188.7327 50.1107,-136.6755 72,-97 86.4868,-70.7419 92.2747,-64.5683 115,-45 117.8537,-42.5428 120.9585,-40.1736 124.1584,-37.9284"/>
<polygon fill="#000000" stroke="#000000" points="126.3001,-40.7094 132.7436,-32.2993 122.4618,-34.8556 126.3001,-40.7094"/>
<text text-anchor="middle" x="84.5" y="-100.8" font-family="Times,serif" font-size="14.00" fill="#000000">ल्युट्</text>
</g>
<!-- Node3 -->
<g id="node3" class="node">
<title>Node3</title>
<ellipse fill="none" stroke="#ff0000" cx="330.4867" cy="-504" rx="59.5901" ry="18"/>
<text text-anchor="middle" x="330.4867" y="-500.3" font-family="Times,serif" font-size="14.00" fill="#000000">उद्_तिज्+णिच्</text>
</g>
<!-- Node2&#45;&gt;Node3 -->
<g id="edge2" class="edge">
<title>Node2&#45;&gt;Node3</title>
<path fill="none" stroke="#000000" d="M195.2029,-461.1888C219.547,-468.8926 252.2701,-479.248 279.435,-487.8444"/>
<polygon fill="#000000" stroke="#000000" points="278.5758,-491.2436 289.1658,-490.9238 280.6878,-484.5698 278.5758,-491.2436"/>
</g>
<!-- Node16 -->
<g id="node16" class="node">
<title>Node16</title>
<g id="a_node16"><a xlink:title="एक प्रकार का तीतर">
<polygon fill="none" stroke="#0000ff" points="357.4867,-468 303.4867,-468 303.4867,-432 357.4867,-432 357.4867,-468"/>
<text text-anchor="middle" x="330.4867" y="-446.3" font-family="Times,serif" font-size="14.00" fill="#000000">तेजल</text>
</a>
</g>
</g>
<!-- Node2&#45;&gt;Node16 -->
<g id="edge15" class="edge">
<title>Node2&#45;&gt;Node16</title>
<path fill="none" stroke="#000000" d="M205.1266,-450C232.5492,-450 267.1084,-450 292.9927,-450"/>
<polygon fill="#000000" stroke="#000000" points="293.1562,-453.5001 303.1561,-450 293.1561,-446.5001 293.1562,-453.5001"/>
<text text-anchor="middle" x="237.692" y="-453.8" font-family="Times,serif" font-size="14.00" fill="#000000">कलच्</text>
</g>
<!-- Node17 -->
<g id="node17" class="node">
<title>Node17</title>
<g id="a_node17"><a xlink:title="पनाया हुआ, तेज किया हुआ">
<polygon fill="none" stroke="#0000ff" points="357.4867,-414 303.4867,-414 303.4867,-378 357.4867,-378 357.4867,-414"/>
<text text-anchor="middle" x="330.4867" y="-392.3" font-family="Times,serif" font-size="14.00" fill="#000000">तेजित</text>
</a>
</g>
</g>
<!-- Node2&#45;&gt;Node17 -->
<g id="edge16" class="edge">
<title>Node2&#45;&gt;Node17</title>
<path fill="none" stroke="#000000" d="M195.2029,-438.8112C223.9327,-429.7195 264.3324,-416.9348 293.4938,-407.7066"/>
<polygon fill="#000000" stroke="#000000" points="294.8243,-410.9567 303.3023,-404.6026 292.7123,-404.2829 294.8243,-410.9567"/>
<text text-anchor="middle" x="237.692" y="-432.8" font-family="Times,serif" font-size="14.00" fill="#000000">क्त</text>
</g>
<!-- Node4 -->
<g id="node4" class="node">
<title>Node4</title>
<g id="a_node4"><a xlink:title="भड़काने वाला, उकसाने वाला, उद्दीपक &#45; क्षुध&#45;उत्तेजक, काम&#45;उत्तेजक आदि">
<polygon fill="none" stroke="#0000ff" points="508.2814,-576 451.2814,-576 451.2814,-540 508.2814,-540 508.2814,-576"/>
<text text-anchor="middle" x="479.7814" y="-554.3" font-family="Times,serif" font-size="14.00" fill="#000000">उत्तेजक</text>
</a>
</g>
</g>
<!-- Node3&#45;&gt;Node4 -->
<g id="edge3" class="edge">
<title>Node3&#45;&gt;Node4</title>
<path fill="none" stroke="#000000" d="M368.9338,-517.9063C391.2106,-525.9639 419.1627,-536.0741 441.4242,-544.1261"/>
<polygon fill="#000000" stroke="#000000" points="440.3021,-547.4422 450.8964,-547.5523 442.6831,-540.8595 440.3021,-547.4422"/>
<text text-anchor="middle" x="420.2814" y="-543.8" font-family="Times,serif" font-size="14.00" fill="#000000">ण्वुल्</text>
</g>
<!-- Node5 -->
<g id="node5" class="node">
<title>Node5</title>
<g id="a_node5"><a xlink:title="जोश दिलाना, भड़काना, उकसाना, उत्तेजनम् समर्थैः श्लोकैः">
<polygon fill="none" stroke="#0000ff" points="507.2814,-522 452.2814,-522 452.2814,-486 507.2814,-486 507.2814,-522"/>
<text text-anchor="middle" x="479.7814" y="-500.3" font-family="Times,serif" font-size="14.00" fill="#000000">उत्तेजन</text>
</a>
</g>
</g>
<!-- Node3&#45;&gt;Node5 -->
<g id="edge4" class="edge">
<title>Node3&#45;&gt;Node5</title>
<path fill="none" stroke="#000000" d="M390.3504,-504C407.7512,-504 426.2686,-504 441.9128,-504"/>
<polygon fill="#000000" stroke="#000000" points="442.2354,-507.5001 452.2354,-504 442.2353,-500.5001 442.2354,-507.5001"/>
<text text-anchor="middle" x="420.2814" y="-507.8" font-family="Times,serif" font-size="14.00" fill="#000000">ल्युट्</text>
</g>
<!-- Node6 -->
<g id="node6" class="node">
<title>Node6</title>
<g id="a_node6"><a xlink:title="जोश दिलाना, भड़काना, उकसाना">
<polygon fill="none" stroke="#0000ff" points="509.2814,-468 450.2814,-468 450.2814,-432 509.2814,-432 509.2814,-468"/>
<text text-anchor="middle" x="479.7814" y="-446.3" font-family="Times,serif" font-size="14.00" fill="#000000">उत्तेजना</text>
</a>
</g>
</g>
<!-- Node3&#45;&gt;Node6 -->
<g id="edge5" class="edge">
<title>Node3&#45;&gt;Node6</title>
<path fill="none" stroke="#000000" d="M368.9338,-490.0937C390.9096,-482.145 418.4082,-472.1987 440.5186,-464.2014"/>
<polygon fill="#000000" stroke="#000000" points="441.7317,-467.4846 449.945,-460.7919 439.3508,-460.9019 441.7317,-467.4846"/>
<text text-anchor="middle" x="420.2814" y="-478.8" font-family="Times,serif" font-size="14.00" fill="#000000">ल्युट्</text>
</g>
<!-- Node12 -->
<g id="node12" class="node">
<title>Node12</title>
<g id="a_node12"><a xlink:title="सहिष्णु, सहन करने वाला, सहनशील">
<polygon fill="none" stroke="#0000ff" points="357.4867,-198 303.4867,-198 303.4867,-162 357.4867,-162 357.4867,-198"/>
<text text-anchor="middle" x="330.4867" y="-176.3" font-family="Times,serif" font-size="14.00" fill="#000000">तितिक्षा</text>
</a>
</g>
</g>
<!-- Node11&#45;&gt;Node12 -->
<g id="edge11" class="edge">
<title>Node11&#45;&gt;Node12</title>
<path fill="none" stroke="#000000" d="M202.4657,-180C230.353,-180 266.4405,-180 293.1893,-180"/>
<polygon fill="#000000" stroke="#000000" points="293.3068,-183.5001 303.3067,-180 293.3067,-176.5001 293.3068,-183.5001"/>
<text text-anchor="middle" x="237.692" y="-183.8" font-family="Times,serif" font-size="14.00" fill="#000000">उ</text>
</g>
</g>
</svg>
