<?xml version="1.0" encoding="UTF-8" standalone="no"?>
<!DOCTYPE svg PUBLIC "-//W3C//DTD SVG 1.1//EN"
 "http://www.w3.org/Graphics/SVG/1.1/DTD/svg11.dtd">
<!-- Generated by graphviz version 2.40.1 (20161225.0304)
 -->
<!-- Title: G Pages: 1 -->
<svg width="173pt" height="260pt"
 viewBox="0.00 0.00 173.00 260.00" xmlns="http://www.w3.org/2000/svg" xmlns:xlink="http://www.w3.org/1999/xlink">
<g id="graph0" class="graph" transform="scale(1 1) rotate(0) translate(4 256)">
<title>G</title>
<polygon fill="#ffffff" stroke="transparent" points="-4,4 -4,-256 169,-256 169,4 -4,4"/>
<!-- Node1 -->
<g id="node1" class="node">
<title>Node1</title>
<ellipse fill="none" stroke="#ff0000" cx="27" cy="-126" rx="27" ry="18"/>
<text text-anchor="middle" x="27" y="-122.3" font-family="Times,serif" font-size="14.00" fill="#000000">त्रप्</text>
</g>
<!-- Node2 -->
<g id="node2" class="node">
<title>Node2</title>
<g id="a_node2"><a xlink:title="शर्म, लाज, मन्दत्रपाभर">
<polygon fill="none" stroke="#0000ff" points="165,-252 111,-252 111,-216 165,-216 165,-252"/>
<text text-anchor="middle" x="138" y="-230.3" font-family="Times,serif" font-size="14.00" fill="#000000">त्रपा</text>
</a>
</g>
</g>
<!-- Node1&#45;&gt;Node2 -->
<g id="edge1" class="edge">
<title>Node1&#45;&gt;Node2</title>
<path fill="none" stroke="#000000" d="M40.3352,-141.7488C49.0614,-151.8164 60.869,-165.0001 72,-176 83.4603,-187.3253 96.6992,-199.1788 108.2981,-209.1966"/>
<polygon fill="#000000" stroke="#000000" points="106.1511,-211.9659 116.0241,-215.8096 110.703,-206.6479 106.1511,-211.9659"/>
<text text-anchor="middle" x="82.5" y="-197.8" font-family="Times,serif" font-size="14.00" fill="#000000">अङ्</text>
</g>
<!-- Node3 -->
<g id="node3" class="node">
<title>Node3</title>
<g id="a_node3"><a xlink:title="टीन, रांगा">
<polygon fill="none" stroke="#0000ff" points="165,-198 111,-198 111,-162 165,-162 165,-198"/>
<text text-anchor="middle" x="138" y="-176.3" font-family="Times,serif" font-size="14.00" fill="#000000">त्रपुल</text>
</a>
</g>
</g>
<!-- Node1&#45;&gt;Node3 -->
<g id="edge2" class="edge">
<title>Node1&#45;&gt;Node3</title>
<path fill="none" stroke="#000000" d="M48.93,-136.6687C63.8566,-143.9302 83.9724,-153.7163 101.3104,-162.151"/>
<polygon fill="#000000" stroke="#000000" points="100.0828,-165.446 110.6063,-166.6733 103.1451,-159.1513 100.0828,-165.446"/>
<text text-anchor="middle" x="82.5" y="-160.8" font-family="Times,serif" font-size="14.00" fill="#000000">उल</text>
</g>
<!-- Node4 -->
<g id="node4" class="node">
<title>Node4</title>
<g id="a_node4"><a xlink:title="टीन, रांगा">
<polygon fill="none" stroke="#0000ff" points="165,-144 111,-144 111,-108 165,-108 165,-144"/>
<text text-anchor="middle" x="138" y="-122.3" font-family="Times,serif" font-size="14.00" fill="#000000">त्रपुष</text>
</a>
</g>
</g>
<!-- Node1&#45;&gt;Node4 -->
<g id="edge3" class="edge">
<title>Node1&#45;&gt;Node4</title>
<path fill="none" stroke="#000000" d="M54.1537,-126C68.1294,-126 85.3832,-126 100.5989,-126"/>
<polygon fill="#000000" stroke="#000000" points="100.742,-129.5001 110.742,-126 100.7419,-122.5001 100.742,-129.5001"/>
<text text-anchor="middle" x="82.5" y="-129.8" font-family="Times,serif" font-size="14.00" fill="#000000">उष</text>
</g>
<!-- Node5 -->
<g id="node5" class="node">
<title>Node5</title>
<g id="a_node5"><a xlink:title="टीन, रांगा">
<polygon fill="none" stroke="#0000ff" points="165,-90 111,-90 111,-54 165,-54 165,-90"/>
<text text-anchor="middle" x="138" y="-68.3" font-family="Times,serif" font-size="14.00" fill="#000000">त्रपुस</text>
</a>
</g>
</g>
<!-- Node1&#45;&gt;Node5 -->
<g id="edge4" class="edge">
<title>Node1&#45;&gt;Node5</title>
<path fill="none" stroke="#000000" d="M48.93,-115.3313C63.8566,-108.0698 83.9724,-98.2837 101.3104,-89.849"/>
<polygon fill="#000000" stroke="#000000" points="103.1451,-92.8487 110.6063,-85.3267 100.0828,-86.554 103.1451,-92.8487"/>
<text text-anchor="middle" x="82.5" y="-106.8" font-family="Times,serif" font-size="14.00" fill="#000000">उल</text>
</g>
<!-- Node6 -->
<g id="node6" class="node">
<title>Node6</title>
<g id="a_node6"><a xlink:title="टीन, रांगा">
<polygon fill="none" stroke="#0000ff" points="165,-36 111,-36 111,0 165,0 165,-36"/>
<text text-anchor="middle" x="138" y="-14.3" font-family="Times,serif" font-size="14.00" fill="#000000">त्रपुस्</text>
</a>
</g>
</g>
<!-- Node1&#45;&gt;Node6 -->
<g id="edge5" class="edge">
<title>Node1&#45;&gt;Node6</title>
<path fill="none" stroke="#000000" d="M40.2557,-109.8742C48.9501,-99.5805 60.7523,-86.1289 72,-75 83.2803,-63.8389 96.3872,-52.2623 107.9341,-42.4813"/>
<polygon fill="#000000" stroke="#000000" points="110.2221,-45.1303 115.6372,-36.0238 105.7252,-39.7658 110.2221,-45.1303"/>
<text text-anchor="middle" x="82.5" y="-78.8" font-family="Times,serif" font-size="14.00" fill="#000000">उल</text>
</g>
</g>
</svg>
