<?xml version="1.0" encoding="UTF-8" standalone="no"?>
<!DOCTYPE svg PUBLIC "-//W3C//DTD SVG 1.1//EN"
 "http://www.w3.org/Graphics/SVG/1.1/DTD/svg11.dtd">
<!-- Generated by graphviz version 2.40.1 (20161225.0304)
 -->
<!-- Title: G Pages: 1 -->
<svg width="171pt" height="152pt"
 viewBox="0.00 0.00 171.00 152.00" xmlns="http://www.w3.org/2000/svg" xmlns:xlink="http://www.w3.org/1999/xlink">
<g id="graph0" class="graph" transform="scale(1 1) rotate(0) translate(4 148)">
<title>G</title>
<polygon fill="#ffffff" stroke="transparent" points="-4,4 -4,-148 167,-148 167,4 -4,4"/>
<!-- Node1 -->
<g id="node1" class="node">
<title>Node1</title>
<ellipse fill="none" stroke="#ff0000" cx="27" cy="-72" rx="27" ry="18"/>
<text text-anchor="middle" x="27" y="-68.3" font-family="Times,serif" font-size="14.00" fill="#000000">तूल्</text>
</g>
<!-- Node2 -->
<g id="node2" class="node">
<title>Node2</title>
<g id="a_node2"><a xlink:title="रुई">
<polygon fill="none" stroke="#0000ff" points="163,-144 109,-144 109,-108 163,-108 163,-144"/>
<text text-anchor="middle" x="136" y="-122.3" font-family="Times,serif" font-size="14.00" fill="#000000">तूलक</text>
</a>
</g>
</g>
<!-- Node1&#45;&gt;Node2 -->
<g id="edge1" class="edge">
<title>Node1&#45;&gt;Node2</title>
<path fill="none" stroke="#000000" d="M48.7958,-82.7979C63.3684,-90.0174 82.8914,-99.6893 99.7704,-108.0514"/>
<polygon fill="#000000" stroke="#000000" points="98.313,-111.2353 108.8274,-112.5383 101.4205,-104.9628 98.313,-111.2353"/>
<text text-anchor="middle" x="81.5" y="-105.8" font-family="Times,serif" font-size="14.00" fill="#000000">कन्</text>
</g>
<!-- Node3 -->
<g id="node3" class="node">
<title>Node3</title>
<g id="a_node3"><a xlink:title="रुई">
<polygon fill="none" stroke="#0000ff" points="163,-90 109,-90 109,-54 163,-54 163,-90"/>
<text text-anchor="middle" x="136" y="-68.3" font-family="Times,serif" font-size="14.00" fill="#000000">तूल</text>
</a>
</g>
</g>
<!-- Node1&#45;&gt;Node3 -->
<g id="edge2" class="edge">
<title>Node1&#45;&gt;Node3</title>
<path fill="none" stroke="#000000" d="M54.2241,-72C67.6197,-72 83.9774,-72 98.533,-72"/>
<polygon fill="#000000" stroke="#000000" points="98.7452,-75.5001 108.7452,-72 98.7451,-68.5001 98.7452,-75.5001"/>
<text text-anchor="middle" x="81.5" y="-75.8" font-family="Times,serif" font-size="14.00" fill="#000000">क</text>
</g>
<!-- Node4 -->
<g id="node4" class="node">
<title>Node4</title>
<g id="a_node4"><a xlink:title="चितेरे की कूची">
<polygon fill="none" stroke="#0000ff" points="163,-36 109,-36 109,0 163,0 163,-36"/>
<text text-anchor="middle" x="136" y="-14.3" font-family="Times,serif" font-size="14.00" fill="#000000">तूलि</text>
</a>
</g>
</g>
<!-- Node1&#45;&gt;Node4 -->
<g id="edge3" class="edge">
<title>Node1&#45;&gt;Node4</title>
<path fill="none" stroke="#000000" d="M48.7958,-61.2021C63.3684,-53.9826 82.8914,-44.3107 99.7704,-35.9486"/>
<polygon fill="#000000" stroke="#000000" points="101.4205,-39.0372 108.8274,-31.4617 98.313,-32.7647 101.4205,-39.0372"/>
<text text-anchor="middle" x="81.5" y="-51.8" font-family="Times,serif" font-size="14.00" fill="#000000">इन्</text>
</g>
</g>
</svg>
