<?xml version="1.0" encoding="UTF-8" standalone="no"?>
<!DOCTYPE svg PUBLIC "-//W3C//DTD SVG 1.1//EN"
 "http://www.w3.org/Graphics/SVG/1.1/DTD/svg11.dtd">
<!-- Generated by graphviz version 2.40.1 (20161225.0304)
 -->
<!-- Title: G Pages: 1 -->
<svg width="309pt" height="800pt"
 viewBox="0.00 0.00 308.79 800.00" xmlns="http://www.w3.org/2000/svg" xmlns:xlink="http://www.w3.org/1999/xlink">
<g id="graph0" class="graph" transform="scale(1 1) rotate(0) translate(4 796)">
<title>G</title>
<polygon fill="#ffffff" stroke="transparent" points="-4,4 -4,-796 304.7935,-796 304.7935,4 -4,4"/>
<!-- Node1 -->
<g id="node1" class="node">
<title>Node1</title>
<ellipse fill="none" stroke="#ff0000" cx="27" cy="-423" rx="27" ry="18"/>
<text text-anchor="middle" x="27" y="-419.3" font-family="Times,serif" font-size="14.00" fill="#000000">दह्</text>
</g>
<!-- Node2 -->
<g id="node2" class="node">
<title>Node2</title>
<ellipse fill="none" stroke="#ff0000" cx="150.3968" cy="-774" rx="34.394" ry="18"/>
<text text-anchor="middle" x="150.3968" y="-770.3" font-family="Times,serif" font-size="14.00" fill="#000000">आ_दह्</text>
</g>
<!-- Node1&#45;&gt;Node2 -->
<g id="edge1" class="edge">
<title>Node1&#45;&gt;Node2</title>
<path fill="none" stroke="#000000" d="M28.8311,-441.2904C34.3422,-494.4594 51.6539,-648.1116 72,-694 82.5668,-717.8323 103.566,-738.6429 121.1733,-753.0608"/>
<polygon fill="#000000" stroke="#000000" points="119.4633,-756.1695 129.4838,-759.6104 123.7962,-750.6716 119.4633,-756.1695"/>
</g>
<!-- Node4 -->
<g id="node4" class="node">
<title>Node4</title>
<g id="a_node4"><a xlink:title="जला हुआ, आग में भस्म हुआ">
<polygon fill="none" stroke="#0000ff" points="177.3968,-738 123.3968,-738 123.3968,-702 177.3968,-702 177.3968,-738"/>
<text text-anchor="middle" x="150.3968" y="-716.3" font-family="Times,serif" font-size="14.00" fill="#000000">दग्ध</text>
</a>
</g>
</g>
<!-- Node1&#45;&gt;Node4 -->
<g id="edge3" class="edge">
<title>Node1&#45;&gt;Node4</title>
<path fill="none" stroke="#000000" d="M28.0211,-441.217C30.7503,-479.5199 40.3218,-570.51 72,-639 84.7637,-666.5959 92.257,-671.7471 114,-693 114.7877,-693.7699 115.5981,-694.5364 116.4263,-695.2975"/>
<polygon fill="#000000" stroke="#000000" points="114.3509,-698.1274 124.2322,-701.9499 118.8914,-692.7997 114.3509,-698.1274"/>
<text text-anchor="middle" x="84" y="-678.8" font-family="Times,serif" font-size="14.00" fill="#000000">क्त</text>
</g>
<!-- Node5 -->
<g id="node5" class="node">
<title>Node5</title>
<g id="a_node5"><a xlink:title="जलाना, आग में जलाकर समाप्त कर देना">
<polygon fill="none" stroke="#0000ff" points="177.3968,-684 123.3968,-684 123.3968,-648 177.3968,-648 177.3968,-684"/>
<text text-anchor="middle" x="150.3968" y="-662.3" font-family="Times,serif" font-size="14.00" fill="#000000">दहन</text>
</a>
</g>
</g>
<!-- Node1&#45;&gt;Node5 -->
<g id="edge4" class="edge">
<title>Node1&#45;&gt;Node5</title>
<path fill="none" stroke="#000000" d="M29.5503,-440.9754C34.4591,-471.9484 47.0171,-536.7865 72,-586 85.6047,-612.7997 92.4119,-618.0892 114,-639 114.7912,-639.7664 115.6047,-640.5296 116.4357,-641.2879"/>
<polygon fill="#000000" stroke="#000000" points="114.3679,-644.1235 124.2577,-647.9237 118.8963,-638.7855 114.3679,-644.1235"/>
<text text-anchor="middle" x="84" y="-623.8" font-family="Times,serif" font-size="14.00" fill="#000000">ल्युट्</text>
</g>
<!-- Node6 -->
<g id="node6" class="node">
<title>Node6</title>
<g id="a_node6"><a xlink:title="रञ्चमात्र, सूक्ष्म, बारीक, लघु">
<polygon fill="none" stroke="#0000ff" points="177.3968,-630 123.3968,-630 123.3968,-594 177.3968,-594 177.3968,-630"/>
<text text-anchor="middle" x="150.3968" y="-608.3" font-family="Times,serif" font-size="14.00" fill="#000000">दहर</text>
</a>
</g>
</g>
<!-- Node1&#45;&gt;Node6 -->
<g id="edge5" class="edge">
<title>Node1&#45;&gt;Node6</title>
<path fill="none" stroke="#000000" d="M32.3198,-440.6907C39.5154,-463.2654 53.5958,-503.0902 72,-534 87.0223,-559.23 92.7174,-564.7695 114,-585 114.7983,-585.7589 115.6182,-586.5155 116.4549,-587.2679"/>
<polygon fill="#000000" stroke="#000000" points="114.4027,-590.115 124.3102,-593.8689 118.9061,-584.756 114.4027,-590.115"/>
<text text-anchor="middle" x="84" y="-570.8" font-family="Times,serif" font-size="14.00" fill="#000000">अर</text>
</g>
<!-- Node7 -->
<g id="node7" class="node">
<title>Node7</title>
<g id="a_node7"><a xlink:title="जलाना, जलन">
<polygon fill="none" stroke="#0000ff" points="177.3968,-576 123.3968,-576 123.3968,-540 177.3968,-540 177.3968,-576"/>
<text text-anchor="middle" x="150.3968" y="-554.3" font-family="Times,serif" font-size="14.00" fill="#000000">दाघ</text>
</a>
</g>
</g>
<!-- Node1&#45;&gt;Node7 -->
<g id="edge6" class="edge">
<title>Node1&#45;&gt;Node7</title>
<path fill="none" stroke="#000000" d="M37.0102,-439.9219C45.5868,-453.8922 58.639,-473.9572 72,-490 88.6941,-510.045 94.1459,-514.0793 114,-531 114.9768,-531.8325 115.9769,-532.6685 116.9934,-533.5042"/>
<polygon fill="#000000" stroke="#000000" points="114.9797,-536.3742 124.9911,-539.8417 119.3272,-530.8879 114.9797,-536.3742"/>
<text text-anchor="middle" x="84" y="-518.8" font-family="Times,serif" font-size="14.00" fill="#000000">घञ्</text>
</g>
<!-- Node8 -->
<g id="node8" class="node">
<title>Node8</title>
<g id="a_node8"><a xlink:title="जलाने वाला, सुलगाने वाला, स्त्री*&#45; दाहिका">
<polygon fill="none" stroke="#0000ff" points="177.3968,-522 123.3968,-522 123.3968,-486 177.3968,-486 177.3968,-522"/>
<text text-anchor="middle" x="150.3968" y="-500.3" font-family="Times,serif" font-size="14.00" fill="#000000">दाहक</text>
</a>
</g>
</g>
<!-- Node1&#45;&gt;Node8 -->
<g id="edge7" class="edge">
<title>Node1&#45;&gt;Node8</title>
<path fill="none" stroke="#000000" d="M45.1445,-436.8382C53.2507,-442.8813 62.9902,-449.9535 72,-456 85.5662,-465.1044 100.8195,-474.6033 114.2409,-482.7252"/>
<polygon fill="#000000" stroke="#000000" points="112.8225,-485.9561 123.1968,-488.1063 116.4277,-479.9559 112.8225,-485.9561"/>
<text text-anchor="middle" x="84" y="-474.8" font-family="Times,serif" font-size="14.00" fill="#000000">ण्वुल्</text>
</g>
<!-- Node9 -->
<g id="node9" class="node">
<title>Node9</title>
<g id="a_node9"><a xlink:title="जलन, दावाग्नि, दाहशक्तिमिव कृष्णवर्त्मनि&#45;">
<polygon fill="none" stroke="#0000ff" points="177.3968,-468 123.3968,-468 123.3968,-432 177.3968,-432 177.3968,-468"/>
<text text-anchor="middle" x="150.3968" y="-446.3" font-family="Times,serif" font-size="14.00" fill="#000000">दाह</text>
</a>
</g>
</g>
<!-- Node1&#45;&gt;Node9 -->
<g id="edge8" class="edge">
<title>Node1&#45;&gt;Node9</title>
<path fill="none" stroke="#000000" d="M52.868,-428.6601C70.441,-432.5052 93.9484,-437.6487 113.4814,-441.9227"/>
<polygon fill="#000000" stroke="#000000" points="112.764,-445.3484 123.281,-444.0669 114.2603,-438.5102 112.764,-445.3484"/>
<text text-anchor="middle" x="84" y="-440.8" font-family="Times,serif" font-size="14.00" fill="#000000">घञ्</text>
</g>
<!-- Node10 -->
<g id="node10" class="node">
<title>Node10</title>
<g id="a_node10"><a xlink:title="जलाना, भस्म करना">
<polygon fill="none" stroke="#0000ff" points="177.3968,-414 123.3968,-414 123.3968,-378 177.3968,-378 177.3968,-414"/>
<text text-anchor="middle" x="150.3968" y="-392.3" font-family="Times,serif" font-size="14.00" fill="#000000">दाहन</text>
</a>
</g>
</g>
<!-- Node1&#45;&gt;Node10 -->
<g id="edge9" class="edge">
<title>Node1&#45;&gt;Node10</title>
<path fill="none" stroke="#000000" d="M52.868,-417.3399C70.441,-413.4948 93.9484,-408.3513 113.4814,-404.0773"/>
<polygon fill="#000000" stroke="#000000" points="114.2603,-407.4898 123.281,-401.9331 112.764,-400.6516 114.2603,-407.4898"/>
<text text-anchor="middle" x="84" y="-415.8" font-family="Times,serif" font-size="14.00" fill="#000000">ल्युट्</text>
</g>
<!-- Node11 -->
<g id="node11" class="node">
<title>Node11</title>
<g id="a_node11"><a xlink:title="जलाने के योग्य">
<polygon fill="none" stroke="#0000ff" points="177.3968,-360 123.3968,-360 123.3968,-324 177.3968,-324 177.3968,-360"/>
<text text-anchor="middle" x="150.3968" y="-338.3" font-family="Times,serif" font-size="14.00" fill="#000000">दाह्य</text>
</a>
</g>
</g>
<!-- Node1&#45;&gt;Node11 -->
<g id="edge10" class="edge">
<title>Node1&#45;&gt;Node11</title>
<path fill="none" stroke="#000000" d="M44.6356,-408.9849C52.811,-402.6685 62.7467,-395.2434 72,-389 85.4672,-379.9134 100.7007,-370.578 114.134,-362.6459"/>
<polygon fill="#000000" stroke="#000000" points="116.2386,-365.4697 123.1026,-357.399 112.7038,-359.4277 116.2386,-365.4697"/>
<text text-anchor="middle" x="84" y="-392.8" font-family="Times,serif" font-size="14.00" fill="#000000">ण्यत्</text>
</g>
<!-- Node12 -->
<g id="node12" class="node">
<title>Node12</title>
<ellipse fill="none" stroke="#ff0000" cx="150.3968" cy="-288" rx="36.2938" ry="18"/>
<text text-anchor="middle" x="150.3968" y="-284.3" font-family="Times,serif" font-size="14.00" fill="#000000">निर्_दह्</text>
</g>
<!-- Node1&#45;&gt;Node12 -->
<g id="edge11" class="edge">
<title>Node1&#45;&gt;Node12</title>
<path fill="none" stroke="#000000" d="M38.2265,-406.5529C53.7819,-384.3973 83.4447,-344.3607 114,-315 116.1274,-312.9558 118.4126,-310.9311 120.7636,-308.964"/>
<polygon fill="#000000" stroke="#000000" points="123.2002,-311.4996 128.8771,-302.554 118.8607,-306.0069 123.2002,-311.4996"/>
</g>
<!-- Node14 -->
<g id="node14" class="node">
<title>Node14</title>
<ellipse fill="none" stroke="#ff0000" cx="150.3968" cy="-234" rx="36.2938" ry="18"/>
<text text-anchor="middle" x="150.3968" y="-230.3" font-family="Times,serif" font-size="14.00" fill="#000000">परि_दह्</text>
</g>
<!-- Node1&#45;&gt;Node14 -->
<g id="edge13" class="edge">
<title>Node1&#45;&gt;Node14</title>
<path fill="none" stroke="#000000" d="M33.2138,-405.1834C44.9956,-373.3396 73.1153,-305.806 114,-261 115.939,-258.8751 118.0665,-256.8063 120.2892,-254.8211"/>
<polygon fill="#000000" stroke="#000000" points="122.5652,-257.4811 128.0771,-248.4329 118.1257,-252.069 122.5652,-257.4811"/>
</g>
<!-- Node17 -->
<g id="node17" class="node">
<title>Node17</title>
<ellipse fill="none" stroke="#ff0000" cx="150.3968" cy="-180" rx="30.5947" ry="18"/>
<text text-anchor="middle" x="150.3968" y="-176.3" font-family="Times,serif" font-size="14.00" fill="#000000">प्र_दह्</text>
</g>
<!-- Node1&#45;&gt;Node17 -->
<g id="edge16" class="edge">
<title>Node1&#45;&gt;Node17</title>
<path fill="none" stroke="#000000" d="M30.0067,-404.8837C37.4947,-364.7699 60.3763,-267.2444 114,-207 116.2493,-204.473 118.7699,-202.0331 121.4072,-199.7224"/>
<polygon fill="#000000" stroke="#000000" points="123.9034,-202.207 129.5143,-193.2198 119.5236,-196.7464 123.9034,-202.207"/>
</g>
<!-- Node19 -->
<g id="node19" class="node">
<title>Node19</title>
<ellipse fill="none" stroke="#ff0000" cx="150.3968" cy="-126" rx="32.4942" ry="18"/>
<text text-anchor="middle" x="150.3968" y="-122.3" font-family="Times,serif" font-size="14.00" fill="#000000">वि_दह्</text>
</g>
<!-- Node1&#45;&gt;Node19 -->
<g id="edge18" class="edge">
<title>Node1&#45;&gt;Node19</title>
<path fill="none" stroke="#000000" d="M29.3578,-404.9153C34.3325,-369.7224 47.5102,-289.9617 72,-227 85.7089,-191.7553 88.9395,-181.3213 114,-153 116.004,-150.7352 118.2268,-148.5418 120.5574,-146.4495"/>
<polygon fill="#000000" stroke="#000000" points="123.2061,-148.8051 128.7359,-139.7679 118.7773,-143.3842 123.2061,-148.8051"/>
</g>
<!-- Node22 -->
<g id="node22" class="node">
<title>Node22</title>
<ellipse fill="none" stroke="#ff0000" cx="150.3968" cy="-45" rx="36.2938" ry="18"/>
<text text-anchor="middle" x="150.3968" y="-41.3" font-family="Times,serif" font-size="14.00" fill="#000000">सम्_दह्</text>
</g>
<!-- Node1&#45;&gt;Node22 -->
<g id="edge21" class="edge">
<title>Node1&#45;&gt;Node22</title>
<path fill="none" stroke="#000000" d="M28.1165,-404.7974C31.157,-362.655 41.5085,-255.5979 72,-172 85.9784,-133.6758 112.4143,-94.4565 130.6984,-69.9379"/>
<polygon fill="#000000" stroke="#000000" points="133.5374,-71.9865 136.792,-61.904 127.9602,-67.7563 133.5374,-71.9865"/>
</g>
<!-- Node3 -->
<g id="node3" class="node">
<title>Node3</title>
<g id="a_node3"><a xlink:title="जलन">
<polygon fill="none" stroke="#0000ff" points="300.7935,-792 246.7935,-792 246.7935,-756 300.7935,-756 300.7935,-792"/>
<text text-anchor="middle" x="273.7935" y="-770.3" font-family="Times,serif" font-size="14.00" fill="#000000">आदहन</text>
</a>
</g>
</g>
<!-- Node2&#45;&gt;Node3 -->
<g id="edge2" class="edge">
<title>Node2&#45;&gt;Node3</title>
<path fill="none" stroke="#000000" d="M185.098,-774C201.1203,-774 220.1683,-774 236.4977,-774"/>
<polygon fill="#000000" stroke="#000000" points="236.7768,-777.5001 246.7768,-774 236.7767,-770.5001 236.7768,-777.5001"/>
<text text-anchor="middle" x="216.7935" y="-777.8" font-family="Times,serif" font-size="14.00" fill="#000000">ल्युट्</text>
</g>
<!-- Node13 -->
<g id="node13" class="node">
<title>Node13</title>
<g id="a_node13"><a xlink:title="जलाना, दग्ध करना">
<polygon fill="none" stroke="#0000ff" points="300.7935,-360 246.7935,-360 246.7935,-324 300.7935,-324 300.7935,-360"/>
<text text-anchor="middle" x="273.7935" y="-338.3" font-family="Times,serif" font-size="14.00" fill="#000000">निर्दहन</text>
</a>
</g>
</g>
<!-- Node12&#45;&gt;Node13 -->
<g id="edge12" class="edge">
<title>Node12&#45;&gt;Node13</title>
<path fill="none" stroke="#000000" d="M177.7825,-299.9844C195.276,-307.6397 218.1655,-317.6564 237.2072,-325.9893"/>
<polygon fill="#000000" stroke="#000000" points="235.92,-329.2465 246.4844,-330.0492 238.7263,-322.8336 235.92,-329.2465"/>
<text text-anchor="middle" x="216.7935" y="-324.8" font-family="Times,serif" font-size="14.00" fill="#000000">ल्यु</text>
</g>
<!-- Node15 -->
<g id="node15" class="node">
<title>Node15</title>
<g id="a_node15"><a xlink:title="जलन">
<polygon fill="none" stroke="#0000ff" points="300.7935,-306 246.7935,-306 246.7935,-270 300.7935,-270 300.7935,-306"/>
<text text-anchor="middle" x="273.7935" y="-284.3" font-family="Times,serif" font-size="14.00" fill="#000000">परिदाह</text>
</a>
</g>
</g>
<!-- Node14&#45;&gt;Node15 -->
<g id="edge14" class="edge">
<title>Node14&#45;&gt;Node15</title>
<path fill="none" stroke="#000000" d="M177.7825,-245.9844C195.276,-253.6397 218.1655,-263.6564 237.2072,-271.9893"/>
<polygon fill="#000000" stroke="#000000" points="235.92,-275.2465 246.4844,-276.0492 238.7263,-268.8336 235.92,-275.2465"/>
<text text-anchor="middle" x="216.7935" y="-270.8" font-family="Times,serif" font-size="14.00" fill="#000000">घञ्</text>
</g>
<!-- Node16 -->
<g id="node16" class="node">
<title>Node16</title>
<g id="a_node16"><a xlink:title="जलन">
<polygon fill="none" stroke="#0000ff" points="300.7935,-252 246.7935,-252 246.7935,-216 300.7935,-216 300.7935,-252"/>
<text text-anchor="middle" x="273.7935" y="-230.3" font-family="Times,serif" font-size="14.00" fill="#000000">परीदाह</text>
</a>
</g>
</g>
<!-- Node14&#45;&gt;Node16 -->
<g id="edge15" class="edge">
<title>Node14&#45;&gt;Node16</title>
<path fill="none" stroke="#000000" d="M187.0858,-234C202.5554,-234 220.55,-234 236.1237,-234"/>
<polygon fill="#000000" stroke="#000000" points="236.4581,-237.5001 246.458,-234 236.458,-230.5001 236.4581,-237.5001"/>
<text text-anchor="middle" x="216.7935" y="-237.8" font-family="Times,serif" font-size="14.00" fill="#000000">घञ्</text>
</g>
<!-- Node18 -->
<g id="node18" class="node">
<title>Node18</title>
<g id="a_node18"><a xlink:title="जलाया गया, भस्म किया गया">
<polygon fill="none" stroke="#0000ff" points="300.7935,-198 246.7935,-198 246.7935,-162 300.7935,-162 300.7935,-198"/>
<text text-anchor="middle" x="273.7935" y="-176.3" font-family="Times,serif" font-size="14.00" fill="#000000">प्रदग्ध</text>
</a>
</g>
</g>
<!-- Node17&#45;&gt;Node18 -->
<g id="edge17" class="edge">
<title>Node17&#45;&gt;Node18</title>
<path fill="none" stroke="#000000" d="M181.2167,-180C198.0446,-180 219.0017,-180 236.7184,-180"/>
<polygon fill="#000000" stroke="#000000" points="236.7196,-183.5001 246.7196,-180 236.7195,-176.5001 236.7196,-183.5001"/>
<text text-anchor="middle" x="216.7935" y="-183.8" font-family="Times,serif" font-size="14.00" fill="#000000">क्त</text>
</g>
<!-- Node20 -->
<g id="node20" class="node">
<title>Node20</title>
<g id="a_node20"><a xlink:title="जला हुआ, आग से भस्म हुआ#बुद्धिमान या विद्वान् पुरुष, विद्याव्यसनी">
<polygon fill="none" stroke="#0000ff" points="300.7935,-144 246.7935,-144 246.7935,-108 300.7935,-108 300.7935,-144"/>
<text text-anchor="middle" x="273.7935" y="-122.3" font-family="Times,serif" font-size="14.00" fill="#000000">विदग्ध</text>
</a>
</g>
</g>
<!-- Node19&#45;&gt;Node20 -->
<g id="edge19" class="edge">
<title>Node19&#45;&gt;Node20</title>
<path fill="none" stroke="#000000" d="M183.1409,-126C199.5785,-126 219.5622,-126 236.5797,-126"/>
<polygon fill="#000000" stroke="#000000" points="236.7339,-129.5001 246.7339,-126 236.7338,-122.5001 236.7339,-129.5001"/>
<text text-anchor="middle" x="216.7935" y="-129.8" font-family="Times,serif" font-size="14.00" fill="#000000">क्त</text>
</g>
<!-- Node21 -->
<g id="node21" class="node">
<title>Node21</title>
<g id="a_node21"><a xlink:title="चालाक, चतुर स्त्री, कलाविद् स्त्री">
<polygon fill="none" stroke="#0000ff" points="300.7935,-90 246.7935,-90 246.7935,-54 300.7935,-54 300.7935,-90"/>
<text text-anchor="middle" x="273.7935" y="-68.3" font-family="Times,serif" font-size="14.00" fill="#000000">विदग्धा</text>
</a>
</g>
</g>
<!-- Node19&#45;&gt;Node21 -->
<g id="edge20" class="edge">
<title>Node19&#45;&gt;Node21</title>
<path fill="none" stroke="#000000" d="M175.9647,-114.8112C193.6791,-107.0591 217.5289,-96.6221 237.2448,-87.9942"/>
<polygon fill="#000000" stroke="#000000" points="238.7885,-91.1392 246.5465,-83.9237 235.9821,-84.7263 238.7885,-91.1392"/>
<text text-anchor="middle" x="216.7935" y="-103.8" font-family="Times,serif" font-size="14.00" fill="#000000">क्त</text>
</g>
<!-- Node23 -->
<g id="node23" class="node">
<title>Node23</title>
<g id="a_node23"><a xlink:title="जलन, उपभोग">
<polygon fill="none" stroke="#0000ff" points="300.7935,-36 246.7935,-36 246.7935,0 300.7935,0 300.7935,-36"/>
<text text-anchor="middle" x="273.7935" y="-14.3" font-family="Times,serif" font-size="14.00" fill="#000000">सन्दाह</text>
</a>
</g>
</g>
<!-- Node22&#45;&gt;Node23 -->
<g id="edge22" class="edge">
<title>Node22&#45;&gt;Node23</title>
<path fill="none" stroke="#000000" d="M183.7897,-37.6934C200.1036,-34.1238 219.7883,-29.8167 236.5832,-26.1419"/>
<polygon fill="#000000" stroke="#000000" points="237.5903,-29.5044 246.611,-23.9477 236.094,-22.6662 237.5903,-29.5044"/>
<text text-anchor="middle" x="216.7935" y="-35.8" font-family="Times,serif" font-size="14.00" fill="#000000">घञ्</text>
</g>
</g>
</svg>
