<?xml version="1.0" encoding="UTF-8" standalone="no"?>
<!DOCTYPE svg PUBLIC "-//W3C//DTD SVG 1.1//EN"
 "http://www.w3.org/Graphics/SVG/1.1/DTD/svg11.dtd">
<!-- Generated by graphviz version 2.40.1 (20161225.0304)
 -->
<!-- Title: G Pages: 1 -->
<svg width="174pt" height="206pt"
 viewBox="0.00 0.00 174.00 206.00" xmlns="http://www.w3.org/2000/svg" xmlns:xlink="http://www.w3.org/1999/xlink">
<g id="graph0" class="graph" transform="scale(1 1) rotate(0) translate(4 202)">
<title>G</title>
<polygon fill="#ffffff" stroke="transparent" points="-4,4 -4,-202 170,-202 170,4 -4,4"/>
<!-- Node1 -->
<g id="node1" class="node">
<title>Node1</title>
<ellipse fill="none" stroke="#ff0000" cx="27" cy="-99" rx="27" ry="18"/>
<text text-anchor="middle" x="27" y="-95.3" font-family="Times,serif" font-size="14.00" fill="#000000">दण्ड</text>
</g>
<!-- Node2 -->
<g id="node2" class="node">
<title>Node2</title>
<g id="a_node2"><a xlink:title="छड़ी, डण्डा, आदि">
<polygon fill="none" stroke="#0000ff" points="164.5,-198 110.5,-198 110.5,-162 164.5,-162 164.5,-198"/>
<text text-anchor="middle" x="137.5" y="-176.3" font-family="Times,serif" font-size="14.00" fill="#000000">दण्डक</text>
</a>
</g>
</g>
<!-- Node1&#45;&gt;Node2 -->
<g id="edge1" class="edge">
<title>Node1&#45;&gt;Node2</title>
<path fill="none" stroke="#000000" d="M44.88,-112.6684C53.1048,-118.9148 63.0115,-126.381 72,-133 82.2136,-140.5211 93.4042,-148.6072 103.6003,-155.9157"/>
<polygon fill="#000000" stroke="#000000" points="101.7177,-158.8723 111.8877,-161.8425 105.7897,-153.1785 101.7177,-158.8723"/>
<text text-anchor="middle" x="81.5" y="-149.8" font-family="Times,serif" font-size="14.00" fill="#000000">कन्</text>
</g>
<!-- Node3 -->
<g id="node3" class="node">
<title>Node3</title>
<g id="a_node3"><a xlink:title="दण्डधारी, छड़ीबरदार">
<polygon fill="none" stroke="#0000ff" points="164.5,-144 110.5,-144 110.5,-108 164.5,-108 164.5,-144"/>
<text text-anchor="middle" x="137.5" y="-122.3" font-family="Times,serif" font-size="14.00" fill="#000000">दण्डिक</text>
</a>
</g>
</g>
<!-- Node1&#45;&gt;Node3 -->
<g id="edge2" class="edge">
<title>Node1&#45;&gt;Node3</title>
<path fill="none" stroke="#000000" d="M52.3509,-105.1943C66.5679,-108.6682 84.5646,-113.0656 100.3467,-116.9218"/>
<polygon fill="#000000" stroke="#000000" points="99.791,-120.3889 110.336,-119.3626 101.4526,-113.589 99.791,-120.3889"/>
<text text-anchor="middle" x="81.5" y="-117.8" font-family="Times,serif" font-size="14.00" fill="#000000">ठन्</text>
</g>
<!-- Node4 -->
<g id="node4" class="node">
<title>Node4</title>
<g id="a_node4"><a xlink:title="चौथे आश्रम में स्थित ब्राह्मण, संन्यासी">
<polygon fill="none" stroke="#0000ff" points="164.5,-90 110.5,-90 110.5,-54 164.5,-54 164.5,-90"/>
<text text-anchor="middle" x="137.5" y="-68.3" font-family="Times,serif" font-size="14.00" fill="#000000">दण्डिन्</text>
</a>
</g>
</g>
<!-- Node1&#45;&gt;Node4 -->
<g id="edge3" class="edge">
<title>Node1&#45;&gt;Node4</title>
<path fill="none" stroke="#000000" d="M52.3509,-92.8057C66.5679,-89.3318 84.5646,-84.9344 100.3467,-81.0782"/>
<polygon fill="#000000" stroke="#000000" points="101.4526,-84.411 110.336,-78.6374 99.791,-77.6111 101.4526,-84.411"/>
<text text-anchor="middle" x="81.5" y="-90.8" font-family="Times,serif" font-size="14.00" fill="#000000">इनि</text>
</g>
<!-- Node5 -->
<g id="node5" class="node">
<title>Node5</title>
<g id="a_node5"><a xlink:title="ताड़ना देने वाला, दण्ड देने वाला">
<polygon fill="none" stroke="#0000ff" points="166,-36 109,-36 109,0 166,0 166,-36"/>
<text text-anchor="middle" x="137.5" y="-14.3" font-family="Times,serif" font-size="14.00" fill="#000000">दाण्डिक</text>
</a>
</g>
</g>
<!-- Node1&#45;&gt;Node5 -->
<g id="edge4" class="edge">
<title>Node1&#45;&gt;Node5</title>
<path fill="none" stroke="#000000" d="M44.3719,-85.1702C52.6633,-78.6517 62.7683,-70.8255 72,-64 81.8518,-56.7161 92.6872,-48.9928 102.6601,-41.9969"/>
<polygon fill="#000000" stroke="#000000" points="104.9599,-44.66 111.1557,-36.0656 100.9527,-38.9204 104.9599,-44.66"/>
<text text-anchor="middle" x="81.5" y="-67.8" font-family="Times,serif" font-size="14.00" fill="#000000">ठञ्</text>
</g>
</g>
</svg>
