<?xml version="1.0" encoding="UTF-8" standalone="no"?>
<!DOCTYPE svg PUBLIC "-//W3C//DTD SVG 1.1//EN"
 "http://www.w3.org/Graphics/SVG/1.1/DTD/svg11.dtd">
<!-- Generated by graphviz version 2.40.1 (20161225.0304)
 -->
<!-- Title: G Pages: 1 -->
<svg width="337pt" height="368pt"
 viewBox="0.00 0.00 337.09 368.00" xmlns="http://www.w3.org/2000/svg" xmlns:xlink="http://www.w3.org/1999/xlink">
<g id="graph0" class="graph" transform="scale(1 1) rotate(0) translate(4 364)">
<title>G</title>
<polygon fill="#ffffff" stroke="transparent" points="-4,4 -4,-364 333.0923,-364 333.0923,4 -4,4"/>
<!-- Node1 -->
<g id="node1" class="node">
<title>Node1</title>
<ellipse fill="none" stroke="#ff0000" cx="27" cy="-180" rx="27" ry="18"/>
<text text-anchor="middle" x="27" y="-176.3" font-family="Times,serif" font-size="14.00" fill="#000000">धाव्</text>
</g>
<!-- Node2 -->
<g id="node2" class="node">
<title>Node2</title>
<ellipse fill="none" stroke="#ff0000" cx="157.5461" cy="-342" rx="40.0939" ry="18"/>
<text text-anchor="middle" x="157.5461" y="-338.3" font-family="Times,serif" font-size="14.00" fill="#000000">अनु_धाव्</text>
</g>
<!-- Node1&#45;&gt;Node2 -->
<g id="edge1" class="edge">
<title>Node1&#45;&gt;Node2</title>
<path fill="none" stroke="#000000" d="M35.0555,-197.532C48.3886,-225.1169 77.2585,-279.1921 114,-315 116.7074,-317.6386 119.7161,-320.1453 122.8513,-322.4911"/>
<polygon fill="#000000" stroke="#000000" points="121.1001,-325.5341 131.3262,-328.305 125.06,-319.7618 121.1001,-325.5341"/>
</g>
<!-- Node4 -->
<g id="node4" class="node">
<title>Node4</title>
<ellipse fill="none" stroke="#ff0000" cx="157.5461" cy="-288" rx="43.5923" ry="18"/>
<text text-anchor="middle" x="157.5461" y="-284.3" font-family="Times,serif" font-size="14.00" fill="#000000">अभि_धाव्</text>
</g>
<!-- Node1&#45;&gt;Node4 -->
<g id="edge3" class="edge">
<title>Node1&#45;&gt;Node4</title>
<path fill="none" stroke="#000000" d="M41.1188,-195.7226C49.7576,-205.0915 61.193,-217.0561 72,-227 89.6733,-243.2618 94.4225,-247.0892 114,-261 117.0818,-263.1898 120.3405,-265.3966 123.6325,-267.5545"/>
<polygon fill="#000000" stroke="#000000" points="122.0138,-270.6736 132.3255,-273.1069 125.7819,-264.7743 122.0138,-270.6736"/>
</g>
<!-- Node6 -->
<g id="node6" class="node">
<title>Node6</title>
<g id="a_node6"><a xlink:title="धोबी">
<polygon fill="none" stroke="#0000ff" points="184.5461,-252 130.5461,-252 130.5461,-216 184.5461,-216 184.5461,-252"/>
<text text-anchor="middle" x="157.5461" y="-230.3" font-family="Times,serif" font-size="14.00" fill="#000000">धावक</text>
</a>
</g>
</g>
<!-- Node1&#45;&gt;Node6 -->
<g id="edge5" class="edge">
<title>Node1&#45;&gt;Node6</title>
<path fill="none" stroke="#000000" d="M49.8719,-189.7152C56.9577,-192.7093 64.7957,-196.0054 72,-199 88.0447,-205.6692 105.8212,-212.9584 120.994,-219.1498"/>
<polygon fill="#000000" stroke="#000000" points="119.9629,-222.5091 130.5443,-223.0425 122.6051,-216.0269 119.9629,-222.5091"/>
<text text-anchor="middle" x="84" y="-211.8" font-family="Times,serif" font-size="14.00" fill="#000000">ण्वुल्</text>
</g>
<!-- Node7 -->
<g id="node7" class="node">
<title>Node7</title>
<g id="a_node7"><a xlink:title="दौड़ना, सरपट भागना">
<polygon fill="none" stroke="#0000ff" points="184.5461,-198 130.5461,-198 130.5461,-162 184.5461,-162 184.5461,-198"/>
<text text-anchor="middle" x="157.5461" y="-176.3" font-family="Times,serif" font-size="14.00" fill="#000000">धावन</text>
</a>
</g>
</g>
<!-- Node1&#45;&gt;Node7 -->
<g id="edge6" class="edge">
<title>Node1&#45;&gt;Node7</title>
<path fill="none" stroke="#000000" d="M54.0492,-180C73.216,-180 99.1719,-180 120.2951,-180"/>
<polygon fill="#000000" stroke="#000000" points="120.5316,-183.5001 130.5315,-180 120.5315,-176.5001 120.5316,-183.5001"/>
<text text-anchor="middle" x="84" y="-183.8" font-family="Times,serif" font-size="14.00" fill="#000000">ल्युट्</text>
</g>
<!-- Node8 -->
<g id="node8" class="node">
<title>Node8</title>
<g id="a_node8"><a xlink:title="चमकाया हुआ, उजला किया हुआ">
<polygon fill="none" stroke="#0000ff" points="184.5461,-144 130.5461,-144 130.5461,-108 184.5461,-108 184.5461,-144"/>
<text text-anchor="middle" x="157.5461" y="-122.3" font-family="Times,serif" font-size="14.00" fill="#000000">धौत</text>
</a>
</g>
</g>
<!-- Node1&#45;&gt;Node8 -->
<g id="edge7" class="edge">
<title>Node1&#45;&gt;Node8</title>
<path fill="none" stroke="#000000" d="M49.8719,-170.2848C56.9577,-167.2907 64.7957,-163.9946 72,-161 88.0447,-154.3308 105.8212,-147.0416 120.994,-140.8502"/>
<polygon fill="#000000" stroke="#000000" points="122.6051,-143.9731 130.5443,-136.9575 119.9629,-137.4909 122.6051,-143.9731"/>
<text text-anchor="middle" x="84" y="-164.8" font-family="Times,serif" font-size="14.00" fill="#000000">क्त</text>
</g>
<!-- Node9 -->
<g id="node9" class="node">
<title>Node9</title>
<ellipse fill="none" stroke="#ff0000" cx="157.5461" cy="-72" rx="40.0939" ry="18"/>
<text text-anchor="middle" x="157.5461" y="-68.3" font-family="Times,serif" font-size="14.00" fill="#000000">निर्_धाव्</text>
</g>
<!-- Node1&#45;&gt;Node9 -->
<g id="edge8" class="edge">
<title>Node1&#45;&gt;Node9</title>
<path fill="none" stroke="#000000" d="M41.604,-164.7164C58.2779,-147.6807 86.7771,-119.7965 114,-99 117.1699,-96.5784 120.5654,-94.1767 124.0103,-91.8623"/>
<polygon fill="#000000" stroke="#000000" points="126.0759,-94.6947 132.5746,-86.3271 122.2762,-88.8157 126.0759,-94.6947"/>
</g>
<!-- Node11 -->
<g id="node11" class="node">
<title>Node11</title>
<ellipse fill="none" stroke="#ff0000" cx="157.5461" cy="-18" rx="33.5952" ry="18"/>
<text text-anchor="middle" x="157.5461" y="-14.3" font-family="Times,serif" font-size="14.00" fill="#000000">प्र_धाव्</text>
</g>
<!-- Node1&#45;&gt;Node11 -->
<g id="edge10" class="edge">
<title>Node1&#45;&gt;Node11</title>
<path fill="none" stroke="#000000" d="M35.0909,-162.5041C48.4723,-134.9687 77.4073,-80.96 114,-45 117.2278,-41.828 120.8925,-38.8504 124.6929,-36.1152"/>
<polygon fill="#000000" stroke="#000000" points="126.7119,-38.9761 133.1127,-30.5334 122.8439,-33.1418 126.7119,-38.9761"/>
</g>
<!-- Node3 -->
<g id="node3" class="node">
<title>Node3</title>
<g id="a_node3"><a xlink:title="पीछे जाना या भागना, पीछा करना, अनुसरण करना###, तुरगकंडितसंघेः&#45;">
<polygon fill="none" stroke="#0000ff" points="327.0923,-360 263.0923,-360 263.0923,-324 327.0923,-324 327.0923,-360"/>
<text text-anchor="middle" x="295.0923" y="-338.3" font-family="Times,serif" font-size="14.00" fill="#000000">अनुधावन</text>
</a>
</g>
</g>
<!-- Node2&#45;&gt;Node3 -->
<g id="edge2" class="edge">
<title>Node2&#45;&gt;Node3</title>
<path fill="none" stroke="#000000" d="M198.0706,-342C215.1327,-342 235.0025,-342 252.3012,-342"/>
<polygon fill="#000000" stroke="#000000" points="252.6917,-345.5001 262.6917,-342 252.6916,-338.5001 252.6917,-345.5001"/>
<text text-anchor="middle" x="231.0923" y="-345.8" font-family="Times,serif" font-size="14.00" fill="#000000">ल्युट्</text>
</g>
<!-- Node5 -->
<g id="node5" class="node">
<title>Node5</title>
<g id="a_node5"><a xlink:title="आक्रमण, पीछा करना">
<polygon fill="none" stroke="#0000ff" points="329.0923,-306 261.0923,-306 261.0923,-270 329.0923,-270 329.0923,-306"/>
<text text-anchor="middle" x="295.0923" y="-284.3" font-family="Times,serif" font-size="14.00" fill="#000000">अभिधावन</text>
</a>
</g>
</g>
<!-- Node4&#45;&gt;Node5 -->
<g id="edge4" class="edge">
<title>Node4&#45;&gt;Node5</title>
<path fill="none" stroke="#000000" d="M201.4448,-288C217.1812,-288 234.9258,-288 250.7034,-288"/>
<polygon fill="#000000" stroke="#000000" points="250.7467,-291.5001 260.7467,-288 250.7467,-284.5001 250.7467,-291.5001"/>
<text text-anchor="middle" x="231.0923" y="-291.8" font-family="Times,serif" font-size="14.00" fill="#000000">ल्युट्</text>
</g>
<!-- Node10 -->
<g id="node10" class="node">
<title>Node10</title>
<g id="a_node10"><a xlink:title="धो दिया गया">
<polygon fill="none" stroke="#0000ff" points="322.0923,-90 268.0923,-90 268.0923,-54 322.0923,-54 322.0923,-90"/>
<text text-anchor="middle" x="295.0923" y="-68.3" font-family="Times,serif" font-size="14.00" fill="#000000">निर्धात</text>
</a>
</g>
</g>
<!-- Node9&#45;&gt;Node10 -->
<g id="edge9" class="edge">
<title>Node9&#45;&gt;Node10</title>
<path fill="none" stroke="#000000" d="M198.0706,-72C216.9714,-72 239.3177,-72 257.7974,-72"/>
<polygon fill="#000000" stroke="#000000" points="257.8971,-75.5001 267.897,-72 257.897,-68.5001 257.8971,-75.5001"/>
<text text-anchor="middle" x="231.0923" y="-75.8" font-family="Times,serif" font-size="14.00" fill="#000000">क्त</text>
</g>
<!-- Node12 -->
<g id="node12" class="node">
<title>Node12</title>
<g id="a_node12"><a xlink:title="रगड़ देना, धो देना#वायु, हवा">
<polygon fill="none" stroke="#0000ff" points="322.0923,-36 268.0923,-36 268.0923,0 322.0923,0 322.0923,-36"/>
<text text-anchor="middle" x="295.0923" y="-14.3" font-family="Times,serif" font-size="14.00" fill="#000000">प्रधावन</text>
</a>
</g>
</g>
<!-- Node11&#45;&gt;Node12 -->
<g id="edge11" class="edge">
<title>Node11&#45;&gt;Node12</title>
<path fill="none" stroke="#000000" d="M191.5463,-18C211.6907,-18 237.2367,-18 257.914,-18"/>
<polygon fill="#000000" stroke="#000000" points="257.9279,-21.5001 267.9278,-18 257.9278,-14.5001 257.9279,-21.5001"/>
<text text-anchor="middle" x="231.0923" y="-21.8" font-family="Times,serif" font-size="14.00" fill="#000000">ल्युट्</text>
</g>
</g>
</svg>
