<?xml version="1.0" encoding="UTF-8" standalone="no"?>
<!DOCTYPE svg PUBLIC "-//W3C//DTD SVG 1.1//EN"
 "http://www.w3.org/Graphics/SVG/1.1/DTD/svg11.dtd">
<!-- Generated by graphviz version 2.40.1 (20161225.0304)
 -->
<!-- Title: G Pages: 1 -->
<svg width="480pt" height="638pt"
 viewBox="0.00 0.00 480.28 638.00" xmlns="http://www.w3.org/2000/svg" xmlns:xlink="http://www.w3.org/1999/xlink">
<g id="graph0" class="graph" transform="scale(1 1) rotate(0) translate(4 634)">
<title>G</title>
<polygon fill="#ffffff" stroke="transparent" points="-4,4 -4,-634 476.2837,-634 476.2837,4 -4,4"/>
<!-- Node1 -->
<g id="node1" class="node">
<title>Node1</title>
<ellipse fill="none" stroke="#ff0000" cx="27" cy="-315" rx="27" ry="18"/>
<text text-anchor="middle" x="27" y="-311.3" font-family="Times,serif" font-size="14.00" fill="#000000">धृष्</text>
</g>
<!-- Node2 -->
<g id="node2" class="node">
<title>Node2</title>
<ellipse fill="none" stroke="#ff0000" cx="155.9464" cy="-558" rx="35.194" ry="18"/>
<text text-anchor="middle" x="155.9464" y="-554.3" font-family="Times,serif" font-size="14.00" fill="#000000">आ_धृष्</text>
</g>
<!-- Node1&#45;&gt;Node2 -->
<g id="edge1" class="edge">
<title>Node1&#45;&gt;Node2</title>
<path fill="none" stroke="#000000" d="M29.4906,-333.006C34.3092,-364.025 46.735,-428.9308 72,-478 85.8856,-504.9683 92.5198,-510.6349 115,-531 117.8161,-533.5512 120.8947,-536.0333 124.0585,-538.393"/>
<polygon fill="#000000" stroke="#000000" points="122.3133,-541.4439 132.5113,-544.3166 126.3306,-535.7114 122.3133,-541.4439"/>
</g>
<!-- Node6 -->
<g id="node6" class="node">
<title>Node6</title>
<g id="a_node6"><a xlink:title="हमला करने वाला, आक्रमणकारी, प्रहार करने वाला">
<polygon fill="none" stroke="#0000ff" points="182.9464,-522 128.9464,-522 128.9464,-486 182.9464,-486 182.9464,-522"/>
<text text-anchor="middle" x="155.9464" y="-500.3" font-family="Times,serif" font-size="14.00" fill="#000000">धर्षक</text>
</a>
</g>
</g>
<!-- Node1&#45;&gt;Node6 -->
<g id="edge5" class="edge">
<title>Node1&#45;&gt;Node6</title>
<path fill="none" stroke="#000000" d="M32.2635,-332.7244C39.3997,-355.3348 53.4173,-395.1972 72,-426 87.315,-451.3863 92.8404,-457.3032 115,-477 116.7064,-478.5168 118.5046,-480.012 120.3565,-481.4736"/>
<polygon fill="#000000" stroke="#000000" points="118.5773,-484.5102 128.7029,-487.6284 122.7318,-478.8764 118.5773,-484.5102"/>
<text text-anchor="middle" x="84.5" y="-462.8" font-family="Times,serif" font-size="14.00" fill="#000000">ण्वुल्</text>
</g>
<!-- Node7 -->
<g id="node7" class="node">
<title>Node7</title>
<g id="a_node7"><a xlink:title="धृष्टता, अविनय">
<polygon fill="none" stroke="#0000ff" points="182.9464,-468 128.9464,-468 128.9464,-432 182.9464,-432 182.9464,-468"/>
<text text-anchor="middle" x="155.9464" y="-446.3" font-family="Times,serif" font-size="14.00" fill="#000000">धर्षण</text>
</a>
</g>
</g>
<!-- Node1&#45;&gt;Node7 -->
<g id="edge6" class="edge">
<title>Node1&#45;&gt;Node7</title>
<path fill="none" stroke="#000000" d="M36.9609,-331.9632C45.5082,-345.9581 58.5449,-366.036 72,-382 89.0178,-402.1911 94.3396,-406.5551 115,-423 116.7322,-424.3788 118.5349,-425.756 120.3759,-427.1177"/>
<polygon fill="#000000" stroke="#000000" points="118.4116,-430.0155 128.5931,-432.9459 122.4613,-424.3058 118.4116,-430.0155"/>
<text text-anchor="middle" x="84.5" y="-410.8" font-family="Times,serif" font-size="14.00" fill="#000000">ल्युट्</text>
</g>
<!-- Node8 -->
<g id="node8" class="node">
<title>Node8</title>
<g id="a_node8"><a xlink:title="असती, स्वैरिणी, कुलटा स्त्री">
<polygon fill="none" stroke="#0000ff" points="182.9464,-414 128.9464,-414 128.9464,-378 182.9464,-378 182.9464,-414"/>
<text text-anchor="middle" x="155.9464" y="-392.3" font-family="Times,serif" font-size="14.00" fill="#000000">धर्षणि</text>
</a>
</g>
</g>
<!-- Node1&#45;&gt;Node8 -->
<g id="edge7" class="edge">
<title>Node1&#45;&gt;Node8</title>
<path fill="none" stroke="#000000" d="M44.6277,-328.6429C52.8015,-334.7816 62.7382,-341.9836 72,-348 87.2732,-357.9213 104.6768,-368.0537 119.6625,-376.4367"/>
<polygon fill="#000000" stroke="#000000" points="118.1969,-379.626 128.6401,-381.4126 121.5904,-373.5035 118.1969,-379.626"/>
<text text-anchor="middle" x="84.5" y="-366.8" font-family="Times,serif" font-size="14.00" fill="#000000">अनि</text>
</g>
<!-- Node9 -->
<g id="node9" class="node">
<title>Node9</title>
<g id="a_node9"><a xlink:title="धृष्टता, अविनय अहंकार, ढिठाई">
<polygon fill="none" stroke="#0000ff" points="182.9464,-360 128.9464,-360 128.9464,-324 182.9464,-324 182.9464,-360"/>
<text text-anchor="middle" x="155.9464" y="-338.3" font-family="Times,serif" font-size="14.00" fill="#000000">धर्ष</text>
</a>
</g>
</g>
<!-- Node1&#45;&gt;Node9 -->
<g id="edge8" class="edge">
<title>Node1&#45;&gt;Node9</title>
<path fill="none" stroke="#000000" d="M52.7843,-320.399C71.7324,-324.3665 97.7553,-329.8154 118.9237,-334.2478"/>
<polygon fill="#000000" stroke="#000000" points="118.3682,-337.7074 128.8732,-336.3312 119.8028,-330.8559 118.3682,-337.7074"/>
<text text-anchor="middle" x="84.5" y="-332.8" font-family="Times,serif" font-size="14.00" fill="#000000">घञ्</text>
</g>
<!-- Node10 -->
<g id="node10" class="node">
<title>Node10</title>
<g id="a_node10"><a xlink:title="घमंडी, उद्धत, उद्दंड">
<polygon fill="none" stroke="#0000ff" points="182.9464,-306 128.9464,-306 128.9464,-270 182.9464,-270 182.9464,-306"/>
<text text-anchor="middle" x="155.9464" y="-284.3" font-family="Times,serif" font-size="14.00" fill="#000000">धर्षिन्</text>
</a>
</g>
</g>
<!-- Node1&#45;&gt;Node10 -->
<g id="edge9" class="edge">
<title>Node1&#45;&gt;Node10</title>
<path fill="none" stroke="#000000" d="M52.6825,-309.2051C58.9941,-307.8052 65.7372,-306.3299 72,-305 87.216,-301.7689 104.0138,-298.3399 118.56,-295.4141"/>
<polygon fill="#000000" stroke="#000000" points="119.5815,-298.7791 128.699,-293.3827 118.2063,-291.9155 119.5815,-298.7791"/>
<text text-anchor="middle" x="84.5" y="-308.8" font-family="Times,serif" font-size="14.00" fill="#000000">णिनि</text>
</g>
<!-- Node11 -->
<g id="node11" class="node">
<title>Node11</title>
<g id="a_node11"><a xlink:title="देवों के गुरू बृहस्पति का नाम">
<polygon fill="none" stroke="#0000ff" points="182.9464,-252 128.9464,-252 128.9464,-216 182.9464,-216 182.9464,-252"/>
<text text-anchor="middle" x="155.9464" y="-230.3" font-family="Times,serif" font-size="14.00" fill="#000000">धिषण</text>
</a>
</g>
</g>
<!-- Node1&#45;&gt;Node11 -->
<g id="edge10" class="edge">
<title>Node1&#45;&gt;Node11</title>
<path fill="none" stroke="#000000" d="M44.551,-300.8576C52.7094,-294.5155 62.6551,-287.1054 72,-281 87.2851,-271.0136 104.8227,-260.986 119.9021,-252.7734"/>
<polygon fill="#000000" stroke="#000000" points="121.7864,-255.7339 128.9315,-247.9109 118.4675,-249.5708 121.7864,-255.7339"/>
<text text-anchor="middle" x="84.5" y="-284.8" font-family="Times,serif" font-size="14.00" fill="#000000">क्यु</text>
</g>
<!-- Node12 -->
<g id="node12" class="node">
<title>Node12</title>
<ellipse fill="none" stroke="#ff0000" cx="155.9464" cy="-180" rx="37.0935" ry="18"/>
<text text-anchor="middle" x="155.9464" y="-176.3" font-family="Times,serif" font-size="14.00" fill="#000000">परि_धृष्</text>
</g>
<!-- Node1&#45;&gt;Node12 -->
<g id="edge11" class="edge">
<title>Node1&#45;&gt;Node12</title>
<path fill="none" stroke="#000000" d="M38.1589,-298.3143C53.6703,-275.8881 83.4225,-235.546 115,-207 117.7517,-204.5125 120.7526,-202.0897 123.8381,-199.7817"/>
<polygon fill="#000000" stroke="#000000" points="125.9266,-202.5918 132.0906,-193.9746 121.8982,-196.8671 125.9266,-202.5918"/>
</g>
<!-- Node14 -->
<g id="node14" class="node">
<title>Node14</title>
<ellipse fill="none" stroke="#ff0000" cx="155.9464" cy="-126" rx="40.8928" ry="18"/>
<text text-anchor="middle" x="155.9464" y="-122.3" font-family="Times,serif" font-size="14.00" fill="#000000">धृष्+णिच्</text>
</g>
<!-- Node1&#45;&gt;Node14 -->
<g id="edge13" class="edge">
<title>Node1&#45;&gt;Node14</title>
<path fill="none" stroke="#000000" d="M32.8585,-297.4117C44.2734,-265.3381 72.1871,-196.6379 115,-153 117.1244,-150.8346 119.4506,-148.749 121.8811,-146.763"/>
<polygon fill="#000000" stroke="#000000" points="124.4705,-149.199 130.4055,-140.4226 120.2928,-143.5823 124.4705,-149.199"/>
</g>
<!-- Node18 -->
<g id="node18" class="node">
<title>Node18</title>
<ellipse fill="none" stroke="#ff0000" cx="155.9464" cy="-72" rx="31.3957" ry="18"/>
<text text-anchor="middle" x="155.9464" y="-68.3" font-family="Times,serif" font-size="14.00" fill="#000000">प्र_धृष्</text>
</g>
<!-- Node1&#45;&gt;Node18 -->
<g id="edge17" class="edge">
<title>Node1&#45;&gt;Node18</title>
<path fill="none" stroke="#000000" d="M29.7551,-296.9161C36.8001,-256.4417 59.0252,-157.5275 115,-99 117.9133,-95.9539 121.2308,-93.0763 124.6874,-90.4159"/>
<polygon fill="#000000" stroke="#000000" points="126.7339,-93.2554 132.8802,-84.6256 122.6938,-87.539 126.7339,-93.2554"/>
</g>
<!-- Node3 -->
<g id="node3" class="node">
<title>Node3</title>
<g id="a_node3"><a xlink:title="घृणा">
<polygon fill="none" stroke="#0000ff" points="334.5882,-630 280.5882,-630 280.5882,-594 334.5882,-594 334.5882,-630"/>
<text text-anchor="middle" x="307.5882" y="-608.3" font-family="Times,serif" font-size="14.00" fill="#000000">आधर्ष</text>
</a>
</g>
</g>
<!-- Node2&#45;&gt;Node3 -->
<g id="edge2" class="edge">
<title>Node2&#45;&gt;Node3</title>
<path fill="none" stroke="#000000" d="M184.826,-568.2841C209.2094,-576.9671 244.271,-589.4526 270.6862,-598.8591"/>
<polygon fill="#000000" stroke="#000000" points="269.7517,-602.2416 280.3464,-602.2991 272.1,-595.6472 269.7517,-602.2416"/>
<text text-anchor="middle" x="226.8927" y="-589.8" font-family="Times,serif" font-size="14.00" fill="#000000">घञ्</text>
</g>
<!-- Node4 -->
<g id="node4" class="node">
<title>Node4</title>
<g id="a_node4"><a xlink:title="दोष या अपराध का निश्चय, दण्डादेश">
<polygon fill="none" stroke="#0000ff" points="335.5882,-576 279.5882,-576 279.5882,-540 335.5882,-540 335.5882,-576"/>
<text text-anchor="middle" x="307.5882" y="-554.3" font-family="Times,serif" font-size="14.00" fill="#000000">आधर्षण</text>
</a>
</g>
</g>
<!-- Node2&#45;&gt;Node4 -->
<g id="edge3" class="edge">
<title>Node2&#45;&gt;Node4</title>
<path fill="none" stroke="#000000" d="M191.1172,-558C214.4389,-558 245.0457,-558 269.0309,-558"/>
<polygon fill="#000000" stroke="#000000" points="269.199,-561.5001 279.199,-558 269.199,-554.5001 269.199,-561.5001"/>
<text text-anchor="middle" x="226.8927" y="-561.8" font-family="Times,serif" font-size="14.00" fill="#000000">ल्युट्</text>
</g>
<!-- Node5 -->
<g id="node5" class="node">
<title>Node5</title>
<g id="a_node5"><a xlink:title="चोट पहुँचाया हुआ">
<polygon fill="none" stroke="#0000ff" points="337.0882,-522 278.0882,-522 278.0882,-486 337.0882,-486 337.0882,-522"/>
<text text-anchor="middle" x="307.5882" y="-500.3" font-family="Times,serif" font-size="14.00" fill="#000000">आधर्षित</text>
</a>
</g>
</g>
<!-- Node2&#45;&gt;Node5 -->
<g id="edge4" class="edge">
<title>Node2&#45;&gt;Node5</title>
<path fill="none" stroke="#000000" d="M184.826,-547.7159C208.5236,-539.2771 242.3073,-527.2467 268.4373,-517.9417"/>
<polygon fill="#000000" stroke="#000000" points="269.7938,-521.174 278.0402,-514.5221 267.4455,-514.5797 269.7938,-521.174"/>
<text text-anchor="middle" x="226.8927" y="-538.8" font-family="Times,serif" font-size="14.00" fill="#000000">क्त</text>
</g>
<!-- Node13 -->
<g id="node13" class="node">
<title>Node13</title>
<g id="a_node13"><a xlink:title="हमला, आक्रमण, बलात्कार">
<polygon fill="none" stroke="#0000ff" points="337.0882,-198 278.0882,-198 278.0882,-162 337.0882,-162 337.0882,-198"/>
<text text-anchor="middle" x="307.5882" y="-176.3" font-family="Times,serif" font-size="14.00" fill="#000000">परिधर्षण</text>
</a>
</g>
</g>
<!-- Node12&#45;&gt;Node13 -->
<g id="edge12" class="edge">
<title>Node12&#45;&gt;Node13</title>
<path fill="none" stroke="#000000" d="M193.0421,-180C215.7012,-180 244.6677,-180 267.8022,-180"/>
<polygon fill="#000000" stroke="#000000" points="267.9775,-183.5001 277.9775,-180 267.9775,-176.5001 267.9775,-183.5001"/>
<text text-anchor="middle" x="226.8927" y="-183.8" font-family="Times,serif" font-size="14.00" fill="#000000">ल्युट्</text>
</g>
<!-- Node15 -->
<g id="node15" class="node">
<title>Node15</title>
<ellipse fill="none" stroke="#ff0000" cx="307.5882" cy="-126" rx="50.8918" ry="18"/>
<text text-anchor="middle" x="307.5882" y="-122.3" font-family="Times,serif" font-size="14.00" fill="#000000">प्र_धृष्+णिच्</text>
</g>
<!-- Node14&#45;&gt;Node15 -->
<g id="edge14" class="edge">
<title>Node14&#45;&gt;Node15</title>
<path fill="none" stroke="#000000" d="M196.9828,-126C212.2368,-126 229.8889,-126 246.5502,-126"/>
<polygon fill="#000000" stroke="#000000" points="246.7659,-129.5001 256.7658,-126 246.7658,-122.5001 246.7659,-129.5001"/>
</g>
<!-- Node16 -->
<g id="node16" class="node">
<title>Node16</title>
<g id="a_node16"><a xlink:title="हमला, आक्रमण">
<polygon fill="none" stroke="#0000ff" points="472.2837,-198 418.2837,-198 418.2837,-162 472.2837,-162 472.2837,-198"/>
<text text-anchor="middle" x="445.2837" y="-176.3" font-family="Times,serif" font-size="14.00" fill="#000000">प्रधर्षण</text>
</a>
</g>
</g>
<!-- Node15&#45;&gt;Node16 -->
<g id="edge15" class="edge">
<title>Node15&#45;&gt;Node16</title>
<path fill="none" stroke="#000000" d="M341.6253,-139.3483C361.9758,-147.3292 387.8328,-157.4695 408.631,-165.6259"/>
<polygon fill="#000000" stroke="#000000" points="407.5023,-168.9427 418.0898,-169.3354 410.058,-162.4259 407.5023,-168.9427"/>
<text text-anchor="middle" x="388.2837" y="-163.8" font-family="Times,serif" font-size="14.00" fill="#000000">ल्युट्</text>
</g>
<!-- Node17 -->
<g id="node17" class="node">
<title>Node17</title>
<g id="a_node17"><a xlink:title="हमला, आक्रमण">
<polygon fill="none" stroke="#0000ff" points="472.2837,-144 418.2837,-144 418.2837,-108 472.2837,-108 472.2837,-144"/>
<text text-anchor="middle" x="445.2837" y="-122.3" font-family="Times,serif" font-size="14.00" fill="#000000">प्रधर्षणा</text>
</a>
</g>
</g>
<!-- Node15&#45;&gt;Node17 -->
<g id="edge16" class="edge">
<title>Node15&#45;&gt;Node17</title>
<path fill="none" stroke="#000000" d="M358.4697,-126C374.9026,-126 392.8037,-126 408.0586,-126"/>
<polygon fill="#000000" stroke="#000000" points="408.1464,-129.5001 418.1463,-126 408.1463,-122.5001 408.1464,-129.5001"/>
<text text-anchor="middle" x="388.2837" y="-129.8" font-family="Times,serif" font-size="14.00" fill="#000000">ल्युट्</text>
</g>
<!-- Node20 -->
<g id="node20" class="node">
<title>Node20</title>
<g id="a_node20"><a xlink:title="हमला किया गया, आक्रान्त">
<polygon fill="none" stroke="#0000ff" points="472.2837,-90 418.2837,-90 418.2837,-54 472.2837,-54 472.2837,-90"/>
<text text-anchor="middle" x="445.2837" y="-68.3" font-family="Times,serif" font-size="14.00" fill="#000000">प्रधर्षित</text>
</a>
</g>
</g>
<!-- Node15&#45;&gt;Node20 -->
<g id="edge19" class="edge">
<title>Node15&#45;&gt;Node20</title>
<path fill="none" stroke="#000000" d="M341.6253,-112.6517C361.9758,-104.6708 387.8328,-94.5305 408.631,-86.3741"/>
<polygon fill="#000000" stroke="#000000" points="410.058,-89.5741 418.0898,-82.6646 407.5023,-83.0573 410.058,-89.5741"/>
<text text-anchor="middle" x="388.2837" y="-102.8" font-family="Times,serif" font-size="14.00" fill="#000000">क्त</text>
</g>
<!-- Node19 -->
<g id="node19" class="node">
<title>Node19</title>
<g id="a_node19"><a xlink:title="हमला, आक्रमण">
<polygon fill="none" stroke="#0000ff" points="334.5882,-90 280.5882,-90 280.5882,-54 334.5882,-54 334.5882,-90"/>
<text text-anchor="middle" x="307.5882" y="-68.3" font-family="Times,serif" font-size="14.00" fill="#000000">प्रधर्ष</text>
</a>
</g>
</g>
<!-- Node18&#45;&gt;Node19 -->
<g id="edge18" class="edge">
<title>Node18&#45;&gt;Node19</title>
<path fill="none" stroke="#000000" d="M187.3667,-72C211.4606,-72 244.7904,-72 270.2465,-72"/>
<polygon fill="#000000" stroke="#000000" points="270.2752,-75.5001 280.2752,-72 270.2751,-68.5001 270.2752,-75.5001"/>
<text text-anchor="middle" x="226.8927" y="-75.8" font-family="Times,serif" font-size="14.00" fill="#000000">घञ्</text>
</g>
<!-- Node21 -->
<g id="node21" class="node">
<title>Node21</title>
<g id="a_node21"><a xlink:title="तिरस्कार पूर्वक बर्ताव किया गया">
<polygon fill="none" stroke="#0000ff" points="334.5882,-36 280.5882,-36 280.5882,0 334.5882,0 334.5882,-36"/>
<text text-anchor="middle" x="307.5882" y="-14.3" font-family="Times,serif" font-size="14.00" fill="#000000">प्रधृष्ट</text>
</a>
</g>
</g>
<!-- Node18&#45;&gt;Node21 -->
<g id="edge20" class="edge">
<title>Node18&#45;&gt;Node21</title>
<path fill="none" stroke="#000000" d="M182.7078,-62.4702C207.2432,-53.7331 243.7898,-40.7188 271.0151,-31.0238"/>
<polygon fill="#000000" stroke="#000000" points="272.3379,-34.2681 280.5842,-27.6162 269.9896,-27.6737 272.3379,-34.2681"/>
<text text-anchor="middle" x="226.8927" y="-53.8" font-family="Times,serif" font-size="14.00" fill="#000000">क्त</text>
</g>
</g>
</svg>
