<?xml version="1.0" encoding="UTF-8" standalone="no"?>
<!DOCTYPE svg PUBLIC "-//W3C//DTD SVG 1.1//EN"
 "http://www.w3.org/Graphics/SVG/1.1/DTD/svg11.dtd">
<!-- Generated by graphviz version 2.36.0 (20140111.2315)
 -->
<!-- Title: G Pages: 1 -->
<svg width="266pt" height="44pt"
 viewBox="0.00 0.00 266.00 44.00" xmlns="http://www.w3.org/2000/svg" xmlns:xlink="http://www.w3.org/1999/xlink">
<g id="graph0" class="graph" transform="scale(1 1) rotate(0) translate(4 40)">
<title>G</title>
<polygon fill="white" stroke="none" points="-4,4 -4,-40 262,-40 262,4 -4,4"/>
<!-- Node1 -->
<g id="node1" class="node"><title>Node1</title>
<ellipse fill="none" stroke="red" cx="27" cy="-18" rx="27" ry="18"/>
<text text-anchor="middle" x="27" y="-14.3" font-family="Times,serif" font-size="14.00">दॄ</text>
</g>
<!-- Node2 -->
<g id="node2" class="node"><title>Node2</title>
<ellipse fill="none" stroke="red" cx="120" cy="-18" rx="27.0966" ry="18"/>
<text text-anchor="middle" x="120" y="-14.3" font-family="Times,serif" font-size="14.00">वि_दॄ</text>
</g>
<!-- Node1&#45;&gt;Node2 -->
<g id="edge1" class="edge"><title>Node1&#45;&gt;Node2</title>
<path fill="none" stroke="black" d="M54.321,-18C63.0166,-18 72.8561,-18 82.189,-18"/>
<polygon fill="black" stroke="black" points="82.423,-21.5001 92.4229,-18 82.4229,-14.5001 82.423,-21.5001"/>
</g>
<!-- Node3 -->
<g id="node3" class="node"><title>Node3</title>
<g id="a_node3"><a xlink:title="फाड़ना, चीरना, खण खण्ड करना">
<polygon fill="none" stroke="blue" points="258,-36 204,-36 204,-0 258,-0 258,-36"/>
<text text-anchor="middle" x="231" y="-14.3" font-family="Times,serif" font-size="14.00">विदार</text>
</a>
</g>
</g>
<!-- Node2&#45;&gt;Node3 -->
<g id="edge2" class="edge"><title>Node2&#45;&gt;Node3</title>
<path fill="none" stroke="black" d="M147.386,-18C161.31,-18 178.606,-18 193.768,-18"/>
<polygon fill="black" stroke="black" points="193.857,-21.5001 203.857,-18 193.857,-14.5001 193.857,-21.5001"/>
<text text-anchor="middle" x="176" y="-21.8" font-family="Times,serif" font-size="14.00">घञ्</text>
</g>
</g>
</svg>
