<?xml version="1.0" encoding="UTF-8" standalone="no"?>
<!DOCTYPE svg PUBLIC "-//W3C//DTD SVG 1.1//EN"
 "http://www.w3.org/Graphics/SVG/1.1/DTD/svg11.dtd">
<!-- Generated by graphviz version 2.36.0 (20140111.2315)
 -->
<!-- Title: G Pages: 1 -->
<svg width="310pt" height="287pt"
 viewBox="0.00 0.00 310.00 287.00" xmlns="http://www.w3.org/2000/svg" xmlns:xlink="http://www.w3.org/1999/xlink">
<g id="graph0" class="graph" transform="scale(1 1) rotate(0) translate(4 283)">
<title>G</title>
<polygon fill="white" stroke="none" points="-4,4 -4,-283 306,-283 306,4 -4,4"/>
<!-- Node1 -->
<g id="node1" class="node"><title>Node1</title>
<ellipse fill="none" stroke="red" cx="27" cy="-153" rx="27" ry="18"/>
<text text-anchor="middle" x="27" y="-149.3" font-family="Times,serif" font-size="14.00">द्रा</text>
</g>
<!-- Node2 -->
<g id="node2" class="node"><title>Node2</title>
<g id="a_node2"><a xlink:title="जल्दी से, तुरन्त, उसी समय तत्काल">
<polygon fill="none" stroke="blue" points="167,-279 113,-279 113,-243 167,-243 167,-279"/>
<text text-anchor="middle" x="140" y="-257.3" font-family="Times,serif" font-size="14.00">द्राक्</text>
</a>
</g>
</g>
<!-- Node1&#45;&gt;Node2 -->
<g id="edge1" class="edge"><title>Node1&#45;&gt;Node2</title>
<path fill="none" stroke="black" d="M40.787,-168.789C54.9066,-185.777 78.7321,-213.158 102,-234 102.829,-234.743 103.678,-235.485 104.543,-236.225"/>
<polygon fill="black" stroke="black" points="102.635,-239.183 112.611,-242.751 107.037,-233.741 102.635,-239.183"/>
<text text-anchor="middle" x="78" y="-218.8" font-family="Times,serif" font-size="14.00">कु</text>
</g>
<!-- Node3 -->
<g id="node3" class="node"><title>Node3</title>
<g id="a_node3"><a xlink:title="उड़ा हुआ, भागा हुआ">
<polygon fill="none" stroke="blue" points="167,-225 113,-225 113,-189 167,-189 167,-225"/>
<text text-anchor="middle" x="140" y="-203.3" font-family="Times,serif" font-size="14.00">द्राण</text>
</a>
</g>
</g>
<!-- Node1&#45;&gt;Node3 -->
<g id="edge2" class="edge"><title>Node1&#45;&gt;Node3</title>
<path fill="none" stroke="black" d="M49.4019,-163.412C64.8523,-170.928 86.0589,-181.245 103.962,-189.955"/>
<polygon fill="black" stroke="black" points="102.452,-193.112 112.975,-194.339 105.514,-186.817 102.452,-193.112"/>
<text text-anchor="middle" x="78" y="-183.8" font-family="Times,serif" font-size="14.00">क्त</text>
</g>
<!-- Node4 -->
<g id="node4" class="node"><title>Node4</title>
<ellipse fill="none" stroke="red" cx="140" cy="-153" rx="37.8943" ry="18"/>
<text text-anchor="middle" x="140" y="-149.3" font-family="Times,serif" font-size="14.00">द्रा+णिच्</text>
</g>
<!-- Node1&#45;&gt;Node4 -->
<g id="edge3" class="edge"><title>Node1&#45;&gt;Node4</title>
<path fill="none" stroke="black" d="M54.0246,-153C65.3505,-153 78.9834,-153 91.9808,-153"/>
<polygon fill="black" stroke="black" points="92.2121,-156.5 102.212,-153 92.212,-149.5 92.2121,-156.5"/>
</g>
<!-- Node6 -->
<g id="node6" class="node"><title>Node6</title>
<ellipse fill="none" stroke="red" cx="140" cy="-99" rx="30.5947" ry="18"/>
<text text-anchor="middle" x="140" y="-95.3" font-family="Times,serif" font-size="14.00">नि_द्रा</text>
</g>
<!-- Node1&#45;&gt;Node6 -->
<g id="edge5" class="edge"><title>Node1&#45;&gt;Node6</title>
<path fill="none" stroke="black" d="M49.4019,-142.588C65.6034,-134.706 88.1343,-123.745 106.549,-114.787"/>
<polygon fill="black" stroke="black" points="108.286,-117.834 115.748,-110.312 105.224,-111.539 108.286,-117.834"/>
</g>
<!-- Node9 -->
<g id="node9" class="node"><title>Node9</title>
<ellipse fill="none" stroke="red" cx="140" cy="-32" rx="29.795" ry="18"/>
<text text-anchor="middle" x="140" y="-28.3" font-family="Times,serif" font-size="14.00">वि_द्रा</text>
</g>
<!-- Node1&#45;&gt;Node9 -->
<g id="edge8" class="edge"><title>Node1&#45;&gt;Node9</title>
<path fill="none" stroke="black" d="M41.8834,-137.747C56.7332,-121.445 80.9882,-94.857 102,-72 106.99,-66.5722 112.371,-60.7419 117.442,-55.2572"/>
<polygon fill="black" stroke="black" points="120.346,-57.2726 124.569,-47.556 115.208,-52.518 120.346,-57.2726"/>
</g>
<!-- Node5 -->
<g id="node5" class="node"><title>Node5</title>
<g id="a_node5"><a xlink:title="कीचड़, दलदल">
<polygon fill="none" stroke="blue" points="302,-198 248,-198 248,-162 302,-162 302,-198"/>
<text text-anchor="middle" x="275" y="-176.3" font-family="Times,serif" font-size="14.00">द्राप</text>
</a>
</g>
</g>
<!-- Node4&#45;&gt;Node5 -->
<g id="edge4" class="edge"><title>Node4&#45;&gt;Node5</title>
<path fill="none" stroke="black" d="M174.906,-159.883C194.085,-163.777 218.071,-168.646 237.64,-172.619"/>
<polygon fill="black" stroke="black" points="237.213,-176.103 247.71,-174.663 238.606,-169.243 237.213,-176.103"/>
<text text-anchor="middle" x="213" y="-173.8" font-family="Times,serif" font-size="14.00">अच्</text>
</g>
<!-- Node7 -->
<g id="node7" class="node"><title>Node7</title>
<g id="a_node7"><a xlink:title="सोता हुआ, शयान">
<polygon fill="none" stroke="blue" points="302,-144 248,-144 248,-108 302,-108 302,-144"/>
<text text-anchor="middle" x="275" y="-122.3" font-family="Times,serif" font-size="14.00">निद्राण</text>
</a>
</g>
</g>
<!-- Node6&#45;&gt;Node7 -->
<g id="edge6" class="edge"><title>Node6&#45;&gt;Node7</title>
<path fill="none" stroke="black" d="M169.206,-104.726C189.217,-108.788 216.247,-114.276 237.842,-118.66"/>
<polygon fill="black" stroke="black" points="237.148,-122.09 247.644,-120.65 238.54,-115.23 237.148,-122.09"/>
<text text-anchor="middle" x="213" y="-119.8" font-family="Times,serif" font-size="14.00">क्त</text>
</g>
<!-- Node8 -->
<g id="node8" class="node"><title>Node8</title>
<g id="a_node8"><a xlink:title="शयान, निद्रित">
<polygon fill="none" stroke="blue" points="302,-90 248,-90 248,-54 302,-54 302,-90"/>
<text text-anchor="middle" x="275" y="-68.3" font-family="Times,serif" font-size="14.00">निद्रालु</text>
</a>
</g>
</g>
<!-- Node6&#45;&gt;Node8 -->
<g id="edge7" class="edge"><title>Node6&#45;&gt;Node8</title>
<path fill="none" stroke="black" d="M169.206,-93.274C189.217,-89.2115 216.247,-83.7244 237.842,-79.3403"/>
<polygon fill="black" stroke="black" points="238.54,-82.7701 247.644,-77.3505 237.148,-75.91 238.54,-82.7701"/>
<text text-anchor="middle" x="213" y="-90.8" font-family="Times,serif" font-size="14.00">आलुच्</text>
</g>
<!-- Node10 -->
<g id="node10" class="node"><title>Node10</title>
<g id="a_node10"><a xlink:title="नींद से जागा हुआ, उद्वुद्ध">
<polygon fill="none" stroke="blue" points="302,-36 248,-36 248,-0 302,-0 302,-36"/>
<text text-anchor="middle" x="275" y="-14.3" font-family="Times,serif" font-size="14.00">विद्राण</text>
</a>
</g>
</g>
<!-- Node9&#45;&gt;Node10 -->
<g id="edge9" class="edge"><title>Node9&#45;&gt;Node10</title>
<path fill="none" stroke="black" d="M169.532,-28.9966C189.472,-26.8976 216.263,-24.0776 237.721,-21.8189"/>
<polygon fill="black" stroke="black" points="238.194,-25.2884 247.773,-20.7607 237.462,-18.3269 238.194,-25.2884"/>
<text text-anchor="middle" x="213" y="-28.8" font-family="Times,serif" font-size="14.00">क्त</text>
</g>
</g>
</svg>
