<?xml version="1.0" encoding="UTF-8" standalone="no"?>
<!DOCTYPE svg PUBLIC "-//W3C//DTD SVG 1.1//EN"
 "http://www.w3.org/Graphics/SVG/1.1/DTD/svg11.dtd">
<!-- Generated by graphviz version 2.36.0 (20140111.2315)
 -->
<!-- Title: G Pages: 1 -->
<svg width="464pt" height="1052pt"
 viewBox="0.00 0.00 464.00 1052.00" xmlns="http://www.w3.org/2000/svg" xmlns:xlink="http://www.w3.org/1999/xlink">
<g id="graph0" class="graph" transform="scale(1 1) rotate(0) translate(4 1048)">
<title>G</title>
<polygon fill="white" stroke="none" points="-4,4 -4,-1048 460,-1048 460,4 -4,4"/>
<!-- Node1 -->
<g id="node1" class="node"><title>Node1</title>
<ellipse fill="none" stroke="red" cx="27" cy="-540" rx="27" ry="18"/>
<text text-anchor="middle" x="27" y="-536.3" font-family="Times,serif" font-size="14.00">द्रु</text>
</g>
<!-- Node2 -->
<g id="node2" class="node"><title>Node2</title>
<ellipse fill="none" stroke="red" cx="153" cy="-1026" rx="32.4942" ry="18"/>
<text text-anchor="middle" x="153" y="-1022.3" font-family="Times,serif" font-size="14.00">अनु_द्रु</text>
</g>
<!-- Node1&#45;&gt;Node2 -->
<g id="edge1" class="edge"><title>Node1&#45;&gt;Node2</title>
<path fill="none" stroke="black" d="M27.8534,-558.24C27.8972,-612.999 31.5749,-780.25 72,-911 85.0359,-953.163 89.8858,-964.982 118,-999 119.846,-1001.23 121.904,-1003.4 124.068,-1005.48"/>
<polygon fill="black" stroke="black" points="121.854,-1008.2 131.687,-1012.14 126.46,-1002.92 121.854,-1008.2"/>
</g>
<!-- Node4 -->
<g id="node4" class="node"><title>Node4</title>
<ellipse fill="none" stroke="red" cx="153" cy="-972" rx="30.5947" ry="18"/>
<text text-anchor="middle" x="153" y="-968.3" font-family="Times,serif" font-size="14.00">उद्_द्रु</text>
</g>
<!-- Node1&#45;&gt;Node4 -->
<g id="edge3" class="edge"><title>Node1&#45;&gt;Node4</title>
<path fill="none" stroke="black" d="M27.724,-558.274C27.5132,-609.468 30.7704,-757.999 72,-872 85.0424,-908.063 92.3988,-916.448 118,-945 120.029,-947.262 122.261,-949.482 124.584,-951.615"/>
<polygon fill="black" stroke="black" points="122.772,-954.669 132.658,-958.479 127.306,-949.335 122.772,-954.669"/>
</g>
<!-- Node6 -->
<g id="node6" class="node"><title>Node6</title>
<ellipse fill="none" stroke="red" cx="153" cy="-918" rx="27" ry="18"/>
<text text-anchor="middle" x="153" y="-914.3" font-family="Times,serif" font-size="14.00">उ_द्रु</text>
</g>
<!-- Node1&#45;&gt;Node6 -->
<g id="edge5" class="edge"><title>Node1&#45;&gt;Node6</title>
<path fill="none" stroke="black" d="M29.287,-558.255C33.522,-615.276 48.1329,-789.272 72,-840 83.4969,-864.436 106.149,-885.362 124.423,-899.369"/>
<polygon fill="black" stroke="black" points="122.848,-902.557 132.974,-905.675 127.003,-896.923 122.848,-902.557"/>
</g>
<!-- Node8 -->
<g id="node8" class="node"><title>Node8</title>
<g id="a_node8"><a xlink:title="दौड़ने वाला, घोड़े की भांति">
<polygon fill="none" stroke="blue" points="180,-882 126,-882 126,-846 180,-846 180,-882"/>
<text text-anchor="middle" x="153" y="-860.3" font-family="Times,serif" font-size="14.00">द्रव</text>
</a>
</g>
</g>
<!-- Node1&#45;&gt;Node8 -->
<g id="edge7" class="edge"><title>Node1&#45;&gt;Node8</title>
<path fill="none" stroke="black" d="M27.9778,-558.241C28.608,-600.373 34.1416,-706.822 72,-785 82.3817,-806.438 101.044,-825.389 117.734,-839.352"/>
<polygon fill="black" stroke="black" points="115.742,-842.243 125.723,-845.796 120.136,-836.794 115.742,-842.243"/>
<text text-anchor="middle" x="86" y="-824.8" font-family="Times,serif" font-size="14.00">अप्</text>
</g>
<!-- Node9 -->
<g id="node9" class="node"><title>Node9</title>
<g id="a_node9"><a xlink:title="नदी, दरिया">
<polygon fill="none" stroke="blue" points="180,-828 126,-828 126,-792 180,-792 180,-828"/>
<text text-anchor="middle" x="153" y="-806.3" font-family="Times,serif" font-size="14.00">द्रवन्ती</text>
</a>
</g>
</g>
<!-- Node1&#45;&gt;Node9 -->
<g id="edge8" class="edge"><title>Node1&#45;&gt;Node9</title>
<path fill="none" stroke="black" d="M29.3625,-558.157C32.5793,-593.003 42.718,-670.945 72,-729 83.0915,-750.99 102.34,-770.764 119.176,-785.269"/>
<polygon fill="black" stroke="black" points="117.277,-788.243 127.201,-791.953 121.757,-782.864 117.277,-788.243"/>
<text text-anchor="middle" x="86" y="-769.8" font-family="Times,serif" font-size="14.00">शतृ</text>
</g>
<!-- Node10 -->
<g id="node10" class="node"><title>Node10</title>
<g id="a_node10"><a xlink:title="दौलतमन्दी, धन, संपत्ति, द्रव्य">
<polygon fill="none" stroke="blue" points="180,-774 126,-774 126,-738 180,-738 180,-774"/>
<text text-anchor="middle" x="153" y="-752.3" font-family="Times,serif" font-size="14.00">द्रविण</text>
</a>
</g>
</g>
<!-- Node1&#45;&gt;Node10 -->
<g id="edge9" class="edge"><title>Node1&#45;&gt;Node10</title>
<path fill="none" stroke="black" d="M31.4318,-558.107C37.0681,-585.095 49.9215,-636.884 72,-676 84.0307,-697.315 103.304,-716.834 119.918,-731.255"/>
<polygon fill="black" stroke="black" points="117.915,-734.144 127.818,-737.911 122.425,-728.791 117.915,-734.144"/>
<text text-anchor="middle" x="86" y="-713.8" font-family="Times,serif" font-size="14.00">इनन्</text>
</g>
<!-- Node11 -->
<g id="node11" class="node"><title>Node11</title>
<g id="a_node11"><a xlink:title="वस्तु, सामग्री, पदार्थ, सामान">
<polygon fill="none" stroke="blue" points="180,-720 126,-720 126,-684 180,-684 180,-720"/>
<text text-anchor="middle" x="153" y="-698.3" font-family="Times,serif" font-size="14.00">द्रव्य</text>
</a>
</g>
</g>
<!-- Node1&#45;&gt;Node11 -->
<g id="edge10" class="edge"><title>Node1&#45;&gt;Node11</title>
<path fill="none" stroke="black" d="M35.8835,-557.288C43.9763,-574.341 57.4181,-600.852 72,-622 89.7052,-647.678 95.4689,-653.432 118,-675 118.79,-675.756 119.599,-676.513 120.423,-677.268"/>
<polygon fill="black" stroke="black" points="118.27,-680.034 128.112,-683.955 122.863,-674.752 118.27,-680.034"/>
<text text-anchor="middle" x="86" y="-660.8" font-family="Times,serif" font-size="14.00">यत्</text>
</g>
<!-- Node12 -->
<g id="node12" class="node"><title>Node12</title>
<g id="a_node12"><a xlink:title="पिघलाने वाला पदार्थ">
<polygon fill="none" stroke="blue" points="180,-666 126,-666 126,-630 180,-630 180,-666"/>
<text text-anchor="middle" x="153" y="-644.3" font-family="Times,serif" font-size="14.00">द्रावक</text>
</a>
</g>
</g>
<!-- Node1&#45;&gt;Node12 -->
<g id="edge11" class="edge"><title>Node1&#45;&gt;Node12</title>
<path fill="none" stroke="black" d="M43.3505,-554.343C61.0622,-570.768 91.1946,-598.331 118,-621 118.971,-621.821 119.962,-622.652 120.966,-623.486"/>
<polygon fill="black" stroke="black" points="118.843,-626.271 128.8,-629.89 123.273,-620.851 118.843,-626.271"/>
<text text-anchor="middle" x="86" y="-606.8" font-family="Times,serif" font-size="14.00">ण्वुल</text>
</g>
<!-- Node13 -->
<g id="node13" class="node"><title>Node13</title>
<ellipse fill="none" stroke="red" cx="153" cy="-594" rx="35.194" ry="18"/>
<text text-anchor="middle" x="153" y="-590.3" font-family="Times,serif" font-size="14.00">द्रु+णिच्</text>
</g>
<!-- Node1&#45;&gt;Node13 -->
<g id="edge12" class="edge"><title>Node1&#45;&gt;Node13</title>
<path fill="none" stroke="black" d="M50.1687,-549.654C68.5333,-557.652 94.9832,-569.17 116.324,-578.464"/>
<polygon fill="black" stroke="black" points="115.156,-581.772 125.722,-582.556 117.951,-575.355 115.156,-581.772"/>
</g>
<!-- Node15 -->
<g id="node15" class="node"><title>Node15</title>
<g id="a_node15"><a xlink:title="भगदड़, प्रत्यावर्तन">
<polygon fill="none" stroke="blue" points="180,-558 126,-558 126,-522 180,-522 180,-558"/>
<text text-anchor="middle" x="153" y="-536.3" font-family="Times,serif" font-size="14.00">द्राव</text>
</a>
</g>
</g>
<!-- Node1&#45;&gt;Node15 -->
<g id="edge14" class="edge"><title>Node1&#45;&gt;Node15</title>
<path fill="none" stroke="black" d="M54.2972,-540C72.1346,-540 95.9529,-540 115.607,-540"/>
<polygon fill="black" stroke="black" points="115.741,-543.5 125.741,-540 115.741,-536.5 115.741,-543.5"/>
<text text-anchor="middle" x="86" y="-543.8" font-family="Times,serif" font-size="14.00">घञ्</text>
</g>
<!-- Node16 -->
<g id="node16" class="node"><title>Node16</title>
<g id="a_node16"><a xlink:title="आशुगामी, फुर्तीला, द्रुतगामी">
<polygon fill="none" stroke="blue" points="180,-504 126,-504 126,-468 180,-468 180,-504"/>
<text text-anchor="middle" x="153" y="-482.3" font-family="Times,serif" font-size="14.00">द्रुत</text>
</a>
</g>
</g>
<!-- Node1&#45;&gt;Node16 -->
<g id="edge15" class="edge"><title>Node1&#45;&gt;Node16</title>
<path fill="none" stroke="black" d="M50.1687,-530.346C68.5333,-522.348 94.9832,-510.83 116.324,-501.536"/>
<polygon fill="black" stroke="black" points="117.951,-504.645 125.722,-497.444 115.156,-498.228 117.951,-504.645"/>
<text text-anchor="middle" x="86" y="-522.8" font-family="Times,serif" font-size="14.00">क्त</text>
</g>
<!-- Node17 -->
<g id="node17" class="node"><title>Node17</title>
<g id="a_node17"><a xlink:title="पिघलना, घुलना">
<polygon fill="none" stroke="blue" points="180,-450 126,-450 126,-414 180,-414 180,-450"/>
<text text-anchor="middle" x="153" y="-428.3" font-family="Times,serif" font-size="14.00">द्रुति</text>
</a>
</g>
</g>
<!-- Node1&#45;&gt;Node17 -->
<g id="edge16" class="edge"><title>Node1&#45;&gt;Node17</title>
<path fill="none" stroke="black" d="M40.2727,-524.317C48.6772,-514.033 60.3682,-500.583 72,-490 86.0015,-477.261 102.796,-464.728 117.374,-454.59"/>
<polygon fill="black" stroke="black" points="119.39,-457.452 125.664,-448.915 115.435,-451.676 119.39,-457.452"/>
<text text-anchor="middle" x="86" y="-493.8" font-family="Times,serif" font-size="14.00">क्तिन्</text>
</g>
<!-- Node18 -->
<g id="node18" class="node"><title>Node18</title>
<g id="a_node18"><a xlink:title="माप, मान">
<polygon fill="none" stroke="blue" points="180,-396 126,-396 126,-360 180,-360 180,-396"/>
<text text-anchor="middle" x="153" y="-374.3" font-family="Times,serif" font-size="14.00">द्रुवय</text>
</a>
</g>
</g>
<!-- Node1&#45;&gt;Node18 -->
<g id="edge17" class="edge"><title>Node1&#45;&gt;Node18</title>
<path fill="none" stroke="black" d="M34.1792,-522.321C41.4421,-502.969 54.7279,-471.56 72,-448 88.5465,-425.43 96.8026,-423.272 118,-405 118.963,-404.17 119.948,-403.331 120.946,-402.49"/>
<polygon fill="black" stroke="black" points="123.263,-405.115 128.752,-396.053 118.809,-399.715 123.263,-405.115"/>
<text text-anchor="middle" x="86" y="-451.8" font-family="Times,serif" font-size="14.00">वय</text>
</g>
<!-- Node19 -->
<g id="node19" class="node"><title>Node19</title>
<g id="a_node19"><a xlink:title="सोना">
<polygon fill="none" stroke="blue" points="180,-342 126,-342 126,-306 180,-306 180,-342"/>
<text text-anchor="middle" x="153" y="-320.3" font-family="Times,serif" font-size="14.00">द्रू</text>
</a>
</g>
</g>
<!-- Node1&#45;&gt;Node19 -->
<g id="edge18" class="edge"><title>Node1&#45;&gt;Node19</title>
<path fill="none" stroke="black" d="M31.1145,-521.863C36.4084,-494.299 48.9037,-440.86 72,-401 83.7939,-380.646 102.522,-362.2 118.894,-348.469"/>
<polygon fill="black" stroke="black" points="121.151,-351.144 126.701,-342.119 116.734,-345.713 121.151,-351.144"/>
<text text-anchor="middle" x="86" y="-404.8" font-family="Times,serif" font-size="14.00">क्विप्</text>
</g>
<!-- Node20 -->
<g id="node20" class="node"><title>Node20</title>
<g id="a_node20"><a xlink:title="लकड़ी का बना एक अण्डाकार पात्र जिसमें पानी रखते हैं, अथवा पानी जिससे बाहर निकालते हैं, डोल, चिलमची कुप्पी">
<polygon fill="none" stroke="blue" points="180,-288 126,-288 126,-252 180,-252 180,-288"/>
<text text-anchor="middle" x="153" y="-266.3" font-family="Times,serif" font-size="14.00">द्रोणि</text>
</a>
</g>
</g>
<!-- Node1&#45;&gt;Node20 -->
<g id="edge19" class="edge"><title>Node1&#45;&gt;Node20</title>
<path fill="none" stroke="black" d="M29.1058,-522.027C31.9042,-486.771 41.3885,-406.859 72,-348 82.9223,-326.999 101.61,-308.296 118.178,-294.472"/>
<polygon fill="black" stroke="black" points="120.508,-297.089 126.097,-288.089 116.115,-291.639 120.508,-297.089"/>
<text text-anchor="middle" x="86" y="-351.8" font-family="Times,serif" font-size="14.00">नि</text>
</g>
<!-- Node21 -->
<g id="node21" class="node"><title>Node21</title>
<ellipse fill="none" stroke="red" cx="153" cy="-216" rx="27" ry="18"/>
<text text-anchor="middle" x="153" y="-212.3" font-family="Times,serif" font-size="14.00">प्र_द्रु</text>
</g>
<!-- Node1&#45;&gt;Node21 -->
<g id="edge20" class="edge"><title>Node1&#45;&gt;Node21</title>
<path fill="none" stroke="black" d="M28.7559,-521.992C30.9976,-481.822 39.6464,-382.486 72,-307 85.7997,-274.803 93.8313,-268.356 118,-243 120.467,-240.412 123.187,-237.856 125.982,-235.409"/>
<polygon fill="black" stroke="black" points="128.425,-237.931 133.908,-228.865 123.968,-232.533 128.425,-237.931"/>
</g>
<!-- Node24 -->
<g id="node24" class="node"><title>Node24</title>
<ellipse fill="none" stroke="red" cx="153" cy="-162" rx="27.0966" ry="18"/>
<text text-anchor="middle" x="153" y="-158.3" font-family="Times,serif" font-size="14.00">वि_द्रु</text>
</g>
<!-- Node1&#45;&gt;Node24 -->
<g id="edge23" class="edge"><title>Node1&#45;&gt;Node24</title>
<path fill="none" stroke="black" d="M28.1608,-521.818C29.1265,-475.942 35.2257,-352.423 72,-258 85.3758,-223.656 93.0439,-216.122 118,-189 120.297,-186.504 122.837,-184.051 125.463,-181.703"/>
<polygon fill="black" stroke="black" points="128.013,-184.134 133.446,-175.038 123.527,-178.76 128.013,-184.134"/>
</g>
<!-- Node28 -->
<g id="node28" class="node"><title>Node28</title>
<ellipse fill="none" stroke="red" cx="153" cy="-103" rx="34.394" ry="18"/>
<text text-anchor="middle" x="153" y="-99.3" font-family="Times,serif" font-size="14.00">द्रु+णिव्</text>
</g>
<!-- Node1&#45;&gt;Node28 -->
<g id="edge27" class="edge"><title>Node1&#45;&gt;Node28</title>
<path fill="none" stroke="black" d="M27.5841,-521.891C26.9842,-470.478 29.2726,-319.911 72,-205 84.9744,-170.107 94.0592,-163.508 118,-135 120.756,-131.718 123.825,-128.426 126.958,-125.269"/>
<polygon fill="black" stroke="black" points="129.504,-127.676 134.273,-118.215 124.645,-122.638 129.504,-127.676"/>
</g>
<!-- Node31 -->
<g id="node31" class="node"><title>Node31</title>
<ellipse fill="none" stroke="red" cx="153" cy="-39" rx="31.6951" ry="18"/>
<text text-anchor="middle" x="153" y="-35.3" font-family="Times,serif" font-size="14.00">सम्_द्रु</text>
</g>
<!-- Node1&#45;&gt;Node31 -->
<g id="edge30" class="edge"><title>Node1&#45;&gt;Node31</title>
<path fill="none" stroke="black" d="M29.0172,-521.975C32.944,-455.191 48.0983,-222.101 72,-152 83.8996,-117.1 110.264,-83.4506 129.485,-62.0849"/>
<polygon fill="black" stroke="black" points="132.253,-64.2459 136.457,-54.5207 127.106,-59.5018 132.253,-64.2459"/>
</g>
<!-- Node3 -->
<g id="node3" class="node"><title>Node3</title>
<g id="a_node3"><a xlink:title="अनुगत, पीछा किया गया, कई बार कर्तृ में प्रयुक्त#संगीत में काल की माप=आधा द्रुत">
<polygon fill="none" stroke="blue" points="321,-1044 267,-1044 267,-1008 321,-1008 321,-1044"/>
<text text-anchor="middle" x="294" y="-1022.3" font-family="Times,serif" font-size="14.00">अनुद्रुत</text>
</a>
</g>
</g>
<!-- Node2&#45;&gt;Node3 -->
<g id="edge2" class="edge"><title>Node2&#45;&gt;Node3</title>
<path fill="none" stroke="black" d="M185.541,-1026C206.701,-1026 234.631,-1026 256.713,-1026"/>
<polygon fill="black" stroke="black" points="256.715,-1029.5 266.715,-1026 256.715,-1022.5 256.715,-1029.5"/>
<text text-anchor="middle" x="218" y="-1029.8" font-family="Times,serif" font-size="14.00">क्त</text>
</g>
<!-- Node5 -->
<g id="node5" class="node"><title>Node5</title>
<g id="a_node5"><a xlink:title="भागना, पीछे हटना">
<polygon fill="none" stroke="blue" points="321,-990 267,-990 267,-954 321,-954 321,-990"/>
<text text-anchor="middle" x="294" y="-968.3" font-family="Times,serif" font-size="14.00">उद्द्राव</text>
</a>
</g>
</g>
<!-- Node4&#45;&gt;Node5 -->
<g id="edge4" class="edge"><title>Node4&#45;&gt;Node5</title>
<path fill="none" stroke="black" d="M183.819,-972C205.167,-972 234.027,-972 256.714,-972"/>
<polygon fill="black" stroke="black" points="256.974,-975.5 266.974,-972 256.974,-968.5 256.974,-975.5"/>
<text text-anchor="middle" x="218" y="-975.8" font-family="Times,serif" font-size="14.00">घञ्</text>
</g>
<!-- Node7 -->
<g id="node7" class="node"><title>Node7</title>
<g id="a_node7"><a xlink:title="दुःखद दुर्घटना, मुसीबत, संकट">
<polygon fill="none" stroke="blue" points="321,-936 267,-936 267,-900 321,-900 321,-936"/>
<text text-anchor="middle" x="294" y="-914.3" font-family="Times,serif" font-size="14.00">उपद्रव</text>
</a>
</g>
</g>
<!-- Node6&#45;&gt;Node7 -->
<g id="edge6" class="edge"><title>Node6&#45;&gt;Node7</title>
<path fill="none" stroke="black" d="M180.145,-918C201.792,-918 232.783,-918 256.814,-918"/>
<polygon fill="black" stroke="black" points="256.972,-921.5 266.972,-918 256.972,-914.5 256.972,-921.5"/>
<text text-anchor="middle" x="218" y="-921.8" font-family="Times,serif" font-size="14.00">अप्</text>
</g>
<!-- Node14 -->
<g id="node14" class="node"><title>Node14</title>
<g id="a_node14"><a xlink:title="भाग जाना">
<polygon fill="none" stroke="blue" points="321,-612 267,-612 267,-576 321,-576 321,-612"/>
<text text-anchor="middle" x="294" y="-590.3" font-family="Times,serif" font-size="14.00">द्रावण</text>
</a>
</g>
</g>
<!-- Node13&#45;&gt;Node14 -->
<g id="edge13" class="edge"><title>Node13&#45;&gt;Node14</title>
<path fill="none" stroke="black" d="M188.36,-594C209.13,-594 235.582,-594 256.693,-594"/>
<polygon fill="black" stroke="black" points="256.883,-597.5 266.883,-594 256.883,-590.5 256.883,-597.5"/>
<text text-anchor="middle" x="218" y="-597.8" font-family="Times,serif" font-size="14.00">ल्युट्</text>
</g>
<!-- Node22 -->
<g id="node22" class="node"><title>Node22</title>
<g id="a_node22"><a xlink:title="दौड़ना, पलायन">
<polygon fill="none" stroke="blue" points="321,-306 267,-306 267,-270 321,-270 321,-306"/>
<text text-anchor="middle" x="294" y="-284.3" font-family="Times,serif" font-size="14.00">प्रद्रव</text>
</a>
</g>
</g>
<!-- Node21&#45;&gt;Node22 -->
<g id="edge21" class="edge"><title>Node21&#45;&gt;Node22</title>
<path fill="none" stroke="black" d="M174.684,-227.295C184.193,-232.447 195.638,-238.591 206,-244 222.933,-252.839 241.844,-262.435 257.698,-270.404"/>
<polygon fill="black" stroke="black" points="256.133,-273.535 266.641,-274.89 259.271,-267.278 256.133,-273.535"/>
<text text-anchor="middle" x="218" y="-259.8" font-family="Times,serif" font-size="14.00">अप्</text>
</g>
<!-- Node23 -->
<g id="node23" class="node"><title>Node23</title>
<g id="a_node23"><a xlink:title="भाग जाना, पलायन, प्रत्यावर्तन, बच निकलना">
<polygon fill="none" stroke="blue" points="321,-252 267,-252 267,-216 321,-216 321,-252"/>
<text text-anchor="middle" x="294" y="-230.3" font-family="Times,serif" font-size="14.00">प्रद्राव</text>
</a>
</g>
</g>
<!-- Node21&#45;&gt;Node23 -->
<g id="edge22" class="edge"><title>Node21&#45;&gt;Node23</title>
<path fill="none" stroke="black" d="M179.819,-219.343C201.431,-222.142 232.518,-226.168 256.646,-229.292"/>
<polygon fill="black" stroke="black" points="256.481,-232.8 266.848,-230.613 257.38,-225.858 256.481,-232.8"/>
<text text-anchor="middle" x="218" y="-228.8" font-family="Times,serif" font-size="14.00">घञ्</text>
</g>
<!-- Node25 -->
<g id="node25" class="node"><title>Node25</title>
<ellipse fill="none" stroke="red" cx="294" cy="-180" rx="37.0935" ry="18"/>
<text text-anchor="middle" x="294" y="-176.3" font-family="Times,serif" font-size="14.00">प्र_वि_द्रु</text>
</g>
<!-- Node24&#45;&gt;Node25 -->
<g id="edge24" class="edge"><title>Node24&#45;&gt;Node25</title>
<path fill="none" stroke="black" d="M180.145,-165.386C199.24,-167.858 225.606,-171.273 248.051,-174.179"/>
<polygon fill="black" stroke="black" points="247.681,-177.661 258.048,-175.474 248.58,-170.718 247.681,-177.661"/>
</g>
<!-- Node27 -->
<g id="node27" class="node"><title>Node27</title>
<g id="a_node27"><a xlink:title="भाग जाना, उड़ान, प्रत्यावर्तन">
<polygon fill="none" stroke="blue" points="321,-144 267,-144 267,-108 321,-108 321,-144"/>
<text text-anchor="middle" x="294" y="-122.3" font-family="Times,serif" font-size="14.00">विद्रव</text>
</a>
</g>
</g>
<!-- Node24&#45;&gt;Node27 -->
<g id="edge26" class="edge"><title>Node24&#45;&gt;Node27</title>
<path fill="none" stroke="black" d="M178.85,-155.564C200.676,-149.911 232.688,-141.62 257.262,-135.256"/>
<polygon fill="black" stroke="black" points="258.146,-138.642 266.949,-132.747 256.391,-131.866 258.146,-138.642"/>
<text text-anchor="middle" x="218" y="-151.8" font-family="Times,serif" font-size="14.00">अप्</text>
</g>
<!-- Node26 -->
<g id="node26" class="node"><title>Node26</title>
<g id="a_node26"><a xlink:title="तितर&#45;बितर किया हुआ, भगाया हुआ, बखेरा हुआ">
<polygon fill="none" stroke="blue" points="455,-198 401,-198 401,-162 455,-162 455,-198"/>
<text text-anchor="middle" x="428" y="-176.3" font-family="Times,serif" font-size="14.00">प्रविद्रुत</text>
</a>
</g>
</g>
<!-- Node25&#45;&gt;Node26 -->
<g id="edge25" class="edge"><title>Node25&#45;&gt;Node26</title>
<path fill="none" stroke="black" d="M331.07,-180C349.533,-180 371.961,-180 390.487,-180"/>
<polygon fill="black" stroke="black" points="390.605,-183.5 400.605,-180 390.605,-176.5 390.605,-183.5"/>
<text text-anchor="middle" x="370" y="-183.8" font-family="Times,serif" font-size="14.00">क्त</text>
</g>
<!-- Node29 -->
<g id="node29" class="node"><title>Node29</title>
<ellipse fill="none" stroke="red" cx="294" cy="-72" rx="46.2923" ry="18"/>
<text text-anchor="middle" x="294" y="-68.3" font-family="Times,serif" font-size="14.00">वि_द्रु+णिव्</text>
</g>
<!-- Node28&#45;&gt;Node29 -->
<g id="edge28" class="edge"><title>Node28&#45;&gt;Node29</title>
<path fill="none" stroke="black" d="M184.849,-96.1201C202.08,-92.2771 223.96,-87.3974 243.525,-83.034"/>
<polygon fill="black" stroke="black" points="244.51,-86.4004 253.508,-80.8076 242.986,-79.5683 244.51,-86.4004"/>
</g>
<!-- Node30 -->
<g id="node30" class="node"><title>Node30</title>
<g id="a_node30"><a xlink:title="भगाना, खदेड़ना, हाँक कर दूर करना, परास्त करना">
<polygon fill="none" stroke="blue" points="456,-90 400,-90 400,-54 456,-54 456,-90"/>
<text text-anchor="middle" x="428" y="-68.3" font-family="Times,serif" font-size="14.00">विद्रावण</text>
</a>
</g>
</g>
<!-- Node29&#45;&gt;Node30 -->
<g id="edge29" class="edge"><title>Node29&#45;&gt;Node30</title>
<path fill="none" stroke="black" d="M340.427,-72C356.545,-72 374.481,-72 389.829,-72"/>
<polygon fill="black" stroke="black" points="389.987,-75.5001 399.987,-72 389.987,-68.5001 389.987,-75.5001"/>
<text text-anchor="middle" x="370" y="-75.8" font-family="Times,serif" font-size="14.00">ल्युट्</text>
</g>
<!-- Node32 -->
<g id="node32" class="node"><title>Node32</title>
<g id="a_node32"><a xlink:title="भगदड़, प्रत्यावर्तन">
<polygon fill="none" stroke="blue" points="321,-36 267,-36 267,-0 321,-0 321,-36"/>
<text text-anchor="middle" x="294" y="-14.3" font-family="Times,serif" font-size="14.00">सन्द्राव</text>
</a>
</g>
</g>
<!-- Node31&#45;&gt;Node32 -->
<g id="edge31" class="edge"><title>Node31&#45;&gt;Node32</title>
<path fill="none" stroke="black" d="M184.161,-34.4433C205.487,-31.2214 234.182,-26.8861 256.754,-23.476"/>
<polygon fill="black" stroke="black" points="257.281,-26.9362 266.646,-21.9816 256.235,-20.0148 257.281,-26.9362"/>
<text text-anchor="middle" x="218" y="-34.8" font-family="Times,serif" font-size="14.00">घञ्</text>
</g>
</g>
</svg>
