<?xml version="1.0" encoding="UTF-8" standalone="no"?>
<!DOCTYPE svg PUBLIC "-//W3C//DTD SVG 1.1//EN"
 "http://www.w3.org/Graphics/SVG/1.1/DTD/svg11.dtd">
<!-- Generated by graphviz version 2.36.0 (20140111.2315)
 -->
<!-- Title: G Pages: 1 -->
<svg width="294pt" height="206pt"
 viewBox="0.00 0.00 294.00 206.00" xmlns="http://www.w3.org/2000/svg" xmlns:xlink="http://www.w3.org/1999/xlink">
<g id="graph0" class="graph" transform="scale(1 1) rotate(0) translate(4 202)">
<title>G</title>
<polygon fill="white" stroke="none" points="-4,4 -4,-202 290,-202 290,4 -4,4"/>
<!-- Node1 -->
<g id="node1" class="node"><title>Node1</title>
<ellipse fill="none" stroke="red" cx="27" cy="-99" rx="27" ry="18"/>
<text text-anchor="middle" x="27" y="-95.3" font-family="Times,serif" font-size="14.00">दु</text>
</g>
<!-- Node2 -->
<g id="node2" class="node"><title>Node2</title>
<g id="a_node2"><a xlink:title="वन, जंगल">
<polygon fill="none" stroke="blue" points="171,-198 117,-198 117,-162 171,-162 171,-198"/>
<text text-anchor="middle" x="144" y="-176.3" font-family="Times,serif" font-size="14.00">दव</text>
</a>
</g>
</g>
<!-- Node1&#45;&gt;Node2 -->
<g id="edge1" class="edge"><title>Node1&#45;&gt;Node2</title>
<path fill="none" stroke="black" d="M44.915,-112.535C53.0066,-118.889 62.8945,-126.481 72,-133 83.5897,-141.297 96.5213,-150.012 108.14,-157.652"/>
<polygon fill="black" stroke="black" points="106.438,-160.721 116.724,-163.261 110.267,-154.861 106.438,-160.721"/>
<text text-anchor="middle" x="83" y="-150.8" font-family="Times,serif" font-size="14.00">अच्</text>
</g>
<!-- Node3 -->
<g id="node3" class="node"><title>Node3</title>
<g id="a_node3"><a xlink:title="बुरा, खराब, दुष्ट, घटिया, कठिन या मुश्किल आदि अर्थों को प्रकट करने के लिए संज्ञा शब्दों से पूर्व लगाया जाने वाला उपसर्ग, कभी&#45; कभी धातुओं के पूर्व भी &#160;विशे* स्वर और व्यंजनों से पूर्व दुस् का स् बदल कर र् हो जाता है, ऊष्म वर्णों के पूर्व विसर्ग, च् और छ् से पूर्व श् तथा क् और प् से पूर्व ष् हो जाता है।">
<polygon fill="none" stroke="blue" points="171,-144 117,-144 117,-108 171,-108 171,-144"/>
<text text-anchor="middle" x="144" y="-122.3" font-family="Times,serif" font-size="14.00">दुस्</text>
</a>
</g>
</g>
<!-- Node1&#45;&gt;Node3 -->
<g id="edge2" class="edge"><title>Node1&#45;&gt;Node3</title>
<path fill="none" stroke="black" d="M52.6704,-104.792C68.449,-108.497 89.1876,-113.366 106.814,-117.504"/>
<polygon fill="black" stroke="black" points="106.236,-120.963 116.771,-119.842 107.836,-114.149 106.236,-120.963"/>
<text text-anchor="middle" x="83" y="-117.8" font-family="Times,serif" font-size="14.00">सुक्</text>
</g>
<!-- Node4 -->
<g id="node4" class="node"><title>Node4</title>
<g id="a_node4"><a xlink:title="सन्देशहर, संदेशवाहक, राजदूत">
<polygon fill="none" stroke="blue" points="171,-90 117,-90 117,-54 171,-54 171,-90"/>
<text text-anchor="middle" x="144" y="-68.3" font-family="Times,serif" font-size="14.00">दूत</text>
</a>
</g>
</g>
<!-- Node1&#45;&gt;Node4 -->
<g id="edge3" class="edge"><title>Node1&#45;&gt;Node4</title>
<path fill="none" stroke="black" d="M52.6704,-93.2078C68.449,-89.5033 89.1876,-84.6342 106.814,-80.4959"/>
<polygon fill="black" stroke="black" points="107.836,-83.8512 116.771,-78.1581 106.236,-77.0365 107.836,-83.8512"/>
<text text-anchor="middle" x="83" y="-90.8" font-family="Times,serif" font-size="14.00">क्त,</text>
</g>
<!-- Node5 -->
<g id="node5" class="node"><title>Node5</title>
<ellipse fill="none" stroke="red" cx="144" cy="-18" rx="31.6951" ry="18"/>
<text text-anchor="middle" x="144" y="-14.3" font-family="Times,serif" font-size="14.00">सम्_दु</text>
</g>
<!-- Node1&#45;&gt;Node5 -->
<g id="edge4" class="edge"><title>Node1&#45;&gt;Node5</title>
<path fill="none" stroke="black" d="M46.2221,-86.1653C64.7027,-73.1485 93.5524,-52.8283 114.95,-37.7573"/>
<polygon fill="black" stroke="black" points="117.163,-40.4796 123.323,-31.8597 113.132,-34.7567 117.163,-40.4796"/>
</g>
<!-- Node6 -->
<g id="node6" class="node"><title>Node6</title>
<g id="a_node6"><a xlink:title="भगदड़, प्रत्यावर्तन">
<polygon fill="none" stroke="blue" points="286,-36 232,-36 232,-0 286,-0 286,-36"/>
<text text-anchor="middle" x="259" y="-14.3" font-family="Times,serif" font-size="14.00">सन्दाव</text>
</a>
</g>
</g>
<!-- Node5&#45;&gt;Node6 -->
<g id="edge5" class="edge"><title>Node5&#45;&gt;Node6</title>
<path fill="none" stroke="black" d="M175.878,-18C189.97,-18 206.76,-18 221.476,-18"/>
<polygon fill="black" stroke="black" points="221.756,-21.5001 231.756,-18 221.756,-14.5001 221.756,-21.5001"/>
<text text-anchor="middle" x="204" y="-21.8" font-family="Times,serif" font-size="14.00">घञ्</text>
</g>
</g>
</svg>
