<?xml version="1.0" encoding="UTF-8" standalone="no"?>
<!DOCTYPE svg PUBLIC "-//W3C//DTD SVG 1.1//EN"
 "http://www.w3.org/Graphics/SVG/1.1/DTD/svg11.dtd">
<!-- Generated by graphviz version 2.40.1 (20161225.0304)
 -->
<!-- Title: G Pages: 1 -->
<svg width="280pt" height="98pt"
 viewBox="0.00 0.00 280.19 98.00" xmlns="http://www.w3.org/2000/svg" xmlns:xlink="http://www.w3.org/1999/xlink">
<g id="graph0" class="graph" transform="scale(1 1) rotate(0) translate(4 94)">
<title>G</title>
<polygon fill="#ffffff" stroke="transparent" points="-4,4 -4,-94 276.1938,-94 276.1938,4 -4,4"/>
<!-- Node1 -->
<g id="node1" class="node">
<title>Node1</title>
<ellipse fill="none" stroke="#ff0000" cx="27" cy="-45" rx="27" ry="18"/>
<text text-anchor="middle" x="27" y="-41.3" font-family="Times,serif" font-size="14.00" fill="#000000">द्वृ</text>
</g>
<!-- Node2 -->
<g id="node2" class="node">
<title>Node2</title>
<ellipse fill="none" stroke="#ff0000" cx="126.0969" cy="-45" rx="35.194" ry="18"/>
<text text-anchor="middle" x="126.0969" y="-41.3" font-family="Times,serif" font-size="14.00" fill="#000000">द्वृ+णिच्</text>
</g>
<!-- Node1&#45;&gt;Node2 -->
<g id="edge1" class="edge">
<title>Node1&#45;&gt;Node2</title>
<path fill="none" stroke="#000000" d="M54.0787,-45C62.3227,-45 71.6196,-45 80.7269,-45"/>
<polygon fill="#000000" stroke="#000000" points="80.8626,-48.5001 90.8626,-45 80.8625,-41.5001 80.8626,-48.5001"/>
</g>
<!-- Node3 -->
<g id="node3" class="node">
<title>Node3</title>
<g id="a_node3"><a xlink:title="दरवाजा, तोरण, प्रवेशद्वार, फाटक">
<polygon fill="none" stroke="#0000ff" points="272.1938,-90 218.1938,-90 218.1938,-54 272.1938,-54 272.1938,-90"/>
<text text-anchor="middle" x="245.1938" y="-68.3" font-family="Times,serif" font-size="14.00" fill="#000000">द्वार</text>
</a>
</g>
</g>
<!-- Node2&#45;&gt;Node3 -->
<g id="edge2" class="edge">
<title>Node2&#45;&gt;Node3</title>
<path fill="none" stroke="#000000" d="M158.3262,-52.3066C173.697,-55.7912 192.1683,-59.9788 208.1185,-63.5948"/>
<polygon fill="#000000" stroke="#000000" points="207.6518,-67.0777 218.1782,-65.8754 209.1995,-60.251 207.6518,-67.0777"/>
<text text-anchor="middle" x="189.6938" y="-64.8" font-family="Times,serif" font-size="14.00" fill="#000000">अच्</text>
</g>
<!-- Node4 -->
<g id="node4" class="node">
<title>Node4</title>
<g id="a_node4"><a xlink:title="दरवाजा, फाटक">
<polygon fill="none" stroke="#0000ff" points="272.1938,-36 218.1938,-36 218.1938,0 272.1938,0 272.1938,-36"/>
<text text-anchor="middle" x="245.1938" y="-14.3" font-family="Times,serif" font-size="14.00" fill="#000000">द्वार</text>
</a>
</g>
</g>
<!-- Node2&#45;&gt;Node4 -->
<g id="edge3" class="edge">
<title>Node2&#45;&gt;Node4</title>
<path fill="none" stroke="#000000" d="M158.3262,-37.6934C173.697,-34.2088 192.1683,-30.0212 208.1185,-26.4052"/>
<polygon fill="#000000" stroke="#000000" points="209.1995,-29.749 218.1782,-24.1246 207.6518,-22.9223 209.1995,-29.749"/>
<text text-anchor="middle" x="189.6938" y="-35.8" font-family="Times,serif" font-size="14.00" fill="#000000">विच्</text>
</g>
</g>
</svg>
