<?xml version="1.0" encoding="UTF-8" standalone="no"?>
<!DOCTYPE svg PUBLIC "-//W3C//DTD SVG 1.1//EN"
 "http://www.w3.org/Graphics/SVG/1.1/DTD/svg11.dtd">
<!-- Generated by graphviz version 2.40.1 (20161225.0304)
 -->
<!-- Title: G Pages: 1 -->
<svg width="167pt" height="152pt"
 viewBox="0.00 0.00 167.00 152.00" xmlns="http://www.w3.org/2000/svg" xmlns:xlink="http://www.w3.org/1999/xlink">
<g id="graph0" class="graph" transform="scale(1 1) rotate(0) translate(4 148)">
<title>G</title>
<polygon fill="#ffffff" stroke="transparent" points="-4,4 -4,-148 163,-148 163,4 -4,4"/>
<!-- Node1 -->
<g id="node1" class="node">
<title>Node1</title>
<ellipse fill="none" stroke="#ff0000" cx="27" cy="-72" rx="27" ry="18"/>
<text text-anchor="middle" x="27" y="-68.3" font-family="Times,serif" font-size="14.00" fill="#000000">यूष्</text>
</g>
<!-- Node2 -->
<g id="node2" class="node">
<title>Node2</title>
<g id="a_node2"><a xlink:title="रसा, झोल, शोरबा, मटर का रसा ‘यूषन्’ शब्द के पहले पाँच वचनों में कोई रूप नहीं होते, कर्म* द्वि* व* के पश्चात् ‘यूष् के स्थान में विकल्प से यूषन् हो जाता है">
<polygon fill="none" stroke="#0000ff" points="159,-144 105,-144 105,-108 159,-108 159,-144"/>
<text text-anchor="middle" x="132" y="-122.3" font-family="Times,serif" font-size="14.00" fill="#000000">यूषन्</text>
</a>
</g>
</g>
<!-- Node1&#45;&gt;Node2 -->
<g id="edge1" class="edge">
<title>Node1&#45;&gt;Node2</title>
<path fill="none" stroke="#000000" d="M48.5017,-83.058C62.1438,-90.074 80.1365,-99.3274 95.9253,-107.4473"/>
<polygon fill="#000000" stroke="#000000" points="94.4236,-110.6107 104.9172,-112.0717 97.6251,-104.3857 94.4236,-110.6107"/>
<text text-anchor="middle" x="79.5" y="-105.8" font-family="Times,serif" font-size="14.00" fill="#000000">क</text>
</g>
<!-- Node3 -->
<g id="node3" class="node">
<title>Node3</title>
<g id="a_node3"><a xlink:title="रसा, झोल, शोरबा, मटर का रसा">
<polygon fill="none" stroke="#0000ff" points="159,-90 105,-90 105,-54 159,-54 159,-90"/>
<text text-anchor="middle" x="132" y="-68.3" font-family="Times,serif" font-size="14.00" fill="#000000">यूष</text>
</a>
</g>
</g>
<!-- Node1&#45;&gt;Node3 -->
<g id="edge2" class="edge">
<title>Node1&#45;&gt;Node3</title>
<path fill="none" stroke="#000000" d="M54.0401,-72C66.3143,-72 81.0382,-72 94.3683,-72"/>
<polygon fill="#000000" stroke="#000000" points="94.6866,-75.5001 104.6866,-72 94.6866,-68.5001 94.6866,-75.5001"/>
<text text-anchor="middle" x="79.5" y="-75.8" font-family="Times,serif" font-size="14.00" fill="#000000">क,</text>
</g>
<!-- Node4 -->
<g id="node4" class="node">
<title>Node4</title>
<g id="a_node4"><a xlink:title="रसा, झोल, शोरबा, मटर का रसा">
<polygon fill="none" stroke="#0000ff" points="159,-36 105,-36 105,0 159,0 159,-36"/>
<text text-anchor="middle" x="132" y="-14.3" font-family="Times,serif" font-size="14.00" fill="#000000">यूष</text>
</a>
</g>
</g>
<!-- Node1&#45;&gt;Node4 -->
<g id="edge3" class="edge">
<title>Node1&#45;&gt;Node4</title>
<path fill="none" stroke="#000000" d="M48.5017,-60.942C62.1438,-53.926 80.1365,-44.6726 95.9253,-36.5527"/>
<polygon fill="#000000" stroke="#000000" points="97.6251,-39.6143 104.9172,-31.9283 94.4236,-33.3893 97.6251,-39.6143"/>
<text text-anchor="middle" x="79.5" y="-51.8" font-family="Times,serif" font-size="14.00" fill="#000000">क</text>
</g>
</g>
</svg>
