<?xml version="1.0" encoding="UTF-8" standalone="no"?>
<!DOCTYPE svg PUBLIC "-//W3C//DTD SVG 1.1//EN"
 "http://www.w3.org/Graphics/SVG/1.1/DTD/svg11.dtd">
<!-- Generated by graphviz version 2.43.0 (0)
 -->
<!-- Title: %3 Pages: 1 -->
<svg width="517pt" height="392pt"
 viewBox="0.00 0.00 516.64 392.00" xmlns="http://www.w3.org/2000/svg" xmlns:xlink="http://www.w3.org/1999/xlink">
<g id="graph0" class="graph" transform="scale(1 1) rotate(0) translate(4 388)">
<title>%3</title>
<polygon fill="#fffacd" stroke="transparent" points="-4,4 -4,-388 512.64,-388 512.64,4 -4,4"/>
<!-- 1 -->
<g id="node1" class="node">
<title>1</title>
<g id="a_node1"><a xlink:title="तद्{पुं}{1;एक}">
<ellipse fill="#00bfff" stroke="#00bfff" cx="36.4" cy="-192" rx="36.29" ry="18"/>
<text text-anchor="middle" x="36.4" y="-188.3" font-family="Times,serif" font-size="14.00">सः (1)</text>
</a>
</g>
</g>
<!-- 2 -->
<g id="node2" class="node">
<title>2</title>
<g id="a_node2"><a xlink:title="घोष{पुं}{1;एक}">
<ellipse fill="#00bfff" stroke="#00bfff" cx="45.4" cy="-279" rx="44.39" ry="18"/>
<text text-anchor="middle" x="45.4" y="-275.3" font-family="Times,serif" font-size="14.00">घोषः (2)</text>
</a>
</g>
</g>
<!-- 2&#45;&gt;1 -->
<g id="edge1" class="edge">
<title>2&#45;&gt;1</title>
<path fill="none" stroke="black" d="M43.58,-260.8C42.34,-249.16 40.69,-233.55 39.28,-220.24"/>
<polygon fill="black" stroke="black" points="42.75,-219.75 38.22,-210.18 35.79,-220.49 42.75,-219.75"/>
<text text-anchor="middle" x="67.9" y="-231.8" font-family="Times,serif" font-size="14.00">विशेषणम्</text>
</g>
<!-- 3 -->
<g id="node3" class="node">
<title>3</title>
<g id="a_node3"><a xlink:title="धार्तराष्ट्र{पुं}{6;बहु}">
<ellipse fill="#87ceeb" stroke="#87ceeb" cx="170.4" cy="-192" rx="79.89" ry="18"/>
<text text-anchor="middle" x="170.4" y="-188.3" font-family="Times,serif" font-size="14.00">धार्तराष्ट्राणाम् (3)</text>
</a>
</g>
</g>
<!-- 4 -->
<g id="node4" class="node">
<title>4</title>
<g id="a_node4"><a xlink:title="हृदय{नपुं}{2;बहु}">
<ellipse fill="#7cfc00" stroke="#7cfc00" cx="170.4" cy="-279" rx="53.89" ry="18"/>
<text text-anchor="middle" x="170.4" y="-275.3" font-family="Times,serif" font-size="14.00">हृदयानि (4)</text>
</a>
</g>
</g>
<!-- 4&#45;&gt;3 -->
<g id="edge3" class="edge">
<title>4&#45;&gt;3</title>
<path fill="none" stroke="black" d="M170.4,-260.8C170.4,-249.16 170.4,-233.55 170.4,-220.24"/>
<polygon fill="black" stroke="black" points="173.9,-220.18 170.4,-210.18 166.9,-220.18 173.9,-220.18"/>
<text text-anchor="middle" x="206.4" y="-231.8" font-family="Times,serif" font-size="14.00">षष्ठीसम्बन्धः</text>
</g>
<!-- 5 -->
<g id="node5" class="node">
<title>5</title>
<g id="a_node5"><a xlink:title="वि_दॄ2_णिच्{कर्तरि;लङ्;प्र;एक;परस्मैपदी;वि_दॄ_णिच्;क्र्यादिः}">
<ellipse fill="#ff6347" stroke="#ff6347" cx="170.4" cy="-366" rx="59.29" ry="18"/>
<text text-anchor="middle" x="170.4" y="-362.3" font-family="Times,serif" font-size="14.00">व्यदारयत् (5)</text>
</a>
</g>
</g>
<!-- 5&#45;&gt;2 -->
<g id="edge2" class="edge">
<title>5&#45;&gt;2</title>
<path fill="none" stroke="black" d="M147.18,-349.21C126.98,-335.48 97.59,-315.49 75.57,-300.52"/>
<polygon fill="black" stroke="black" points="77.47,-297.58 67.23,-294.85 73.54,-303.37 77.47,-297.58"/>
<text text-anchor="middle" x="127.9" y="-318.8" font-family="Times,serif" font-size="14.00">कर्ता</text>
</g>
<!-- 5&#45;&gt;4 -->
<g id="edge4" class="edge">
<title>5&#45;&gt;4</title>
<path fill="none" stroke="black" d="M170.4,-347.8C170.4,-336.16 170.4,-320.55 170.4,-307.24"/>
<polygon fill="black" stroke="black" points="173.9,-307.18 170.4,-297.18 166.9,-307.18 173.9,-307.18"/>
<text text-anchor="middle" x="180.4" y="-318.8" font-family="Times,serif" font-size="14.00">कर्म</text>
</g>
<!-- 12 -->
<g id="node12" class="node">
<title>12</title>
<g id="a_node12"><a xlink:title="वि_अनु_नद्2{कृत्_प्रत्ययः:शतृ;वि_अनु_णदँ;चुरादिः;पुं}{1;एक}">
<ellipse fill="#00bfff" stroke="#00bfff" cx="324.4" cy="-279" rx="72.29" ry="18"/>
<text text-anchor="middle" x="324.4" y="-275.3" font-family="Times,serif" font-size="14.00">व्यनुनादयन् (12)</text>
</a>
</g>
</g>
<!-- 5&#45;&gt;12 -->
<g id="edge11" class="edge">
<title>5&#45;&gt;12</title>
<path fill="none" stroke="black" d="M197.57,-350C222.48,-336.25 259.56,-315.78 287.21,-300.53"/>
<polygon fill="black" stroke="black" points="289.13,-303.47 296.19,-295.57 285.74,-297.34 289.13,-303.47"/>
<text text-anchor="middle" x="307.4" y="-318.8" font-family="Times,serif" font-size="14.00">वर्तमानसमानकालः</text>
</g>
<!-- 6 -->
<g id="node6" class="node">
<title>6</title>
<g id="a_node6"><a xlink:title="नभस्{नपुं}{1;एक}">
<ellipse fill="#00bfff" stroke="#00bfff" cx="216.4" cy="-105" rx="42.49" ry="18"/>
<text text-anchor="middle" x="216.4" y="-101.3" font-family="Times,serif" font-size="14.00">नभः (6)</text>
</a>
</g>
</g>
<!-- 7 -->
<g id="node7" class="node">
<title>7</title>
<g id="a_node7"><a xlink:title="च{अव्य}">
<ellipse fill="#ff00ff" stroke="#ff00ff" cx="216.4" cy="-18" rx="33.29" ry="18"/>
<text text-anchor="middle" x="216.4" y="-14.3" font-family="Times,serif" font-size="14.00">च (7)</text>
</a>
</g>
</g>
<!-- 6&#45;&gt;7 -->
<g id="edge6" class="edge">
<title>6&#45;&gt;7</title>
<path fill="none" stroke="black" d="M216.4,-86.8C216.4,-75.16 216.4,-59.55 216.4,-46.24"/>
<polygon fill="black" stroke="black" points="219.9,-46.18 216.4,-36.18 212.9,-46.18 219.9,-46.18"/>
<text text-anchor="middle" x="258.9" y="-57.8" font-family="Times,serif" font-size="14.00">समुच्चयद्योतकः</text>
</g>
<!-- 8 -->
<g id="node8" class="node">
<title>8</title>
<g id="a_node8"><a xlink:title="पृथिवी{स्त्री}{2;एक}">
<ellipse fill="#7cfc00" stroke="#7cfc00" cx="324.4" cy="-192" rx="55.79" ry="18"/>
<text text-anchor="middle" x="324.4" y="-188.3" font-family="Times,serif" font-size="14.00">पृथिवीम् (8)</text>
</a>
</g>
</g>
<!-- 8&#45;&gt;6 -->
<g id="edge5" class="edge">
<title>8&#45;&gt;6</title>
<path fill="none" stroke="black" d="M278.99,-181.16C263.53,-175.89 247.19,-167.93 235.4,-156 229.18,-149.71 224.96,-141.18 222.11,-132.94"/>
<polygon fill="black" stroke="black" points="225.43,-131.83 219.27,-123.21 218.71,-133.79 225.43,-131.83"/>
<text text-anchor="middle" x="277.9" y="-144.8" font-family="Times,serif" font-size="14.00">सुप्_समुच्चितम्</text>
</g>
<!-- 9 -->
<g id="node9" class="node">
<title>9</title>
<g id="a_node9"><a xlink:title="च{अव्य}">
<ellipse fill="#ff00ff" stroke="#ff00ff" cx="324.4" cy="-105" rx="33.29" ry="18"/>
<text text-anchor="middle" x="324.4" y="-101.3" font-family="Times,serif" font-size="14.00">च (9)</text>
</a>
</g>
</g>
<!-- 8&#45;&gt;9 -->
<g id="edge8" class="edge">
<title>8&#45;&gt;9</title>
<path fill="none" stroke="black" d="M324.4,-173.8C324.4,-162.16 324.4,-146.55 324.4,-133.24"/>
<polygon fill="black" stroke="black" points="327.9,-133.18 324.4,-123.18 320.9,-133.18 327.9,-133.18"/>
<text text-anchor="middle" x="366.9" y="-144.8" font-family="Times,serif" font-size="14.00">समुच्चयद्योतकः</text>
</g>
<!-- 10 -->
<g id="node10" class="node">
<title>10</title>
<g id="a_node10"><a xlink:title="एव{अव्य}">
<ellipse fill="#ff00ff" stroke="#ff00ff" cx="432.4" cy="-105" rx="43.59" ry="18"/>
<text text-anchor="middle" x="432.4" y="-101.3" font-family="Times,serif" font-size="14.00">एव (10)</text>
</a>
</g>
</g>
<!-- 8&#45;&gt;10 -->
<g id="edge9" class="edge">
<title>8&#45;&gt;10</title>
<path fill="none" stroke="black" d="M367.96,-180.53C382.88,-175.19 398.72,-167.35 410.4,-156 416.95,-149.63 421.68,-140.98 425.04,-132.66"/>
<polygon fill="black" stroke="black" points="428.35,-133.8 428.38,-123.21 421.75,-131.47 428.35,-133.8"/>
<text text-anchor="middle" x="444.4" y="-144.8" font-family="Times,serif" font-size="14.00">सम्बन्धः</text>
</g>
<!-- 11 -->
<g id="node11" class="node">
<title>11</title>
<g id="a_node11"><a xlink:title="तुमुल{पुं}{1;एक}">
<ellipse fill="#00bfff" stroke="#00bfff" cx="453.4" cy="-192" rx="55.49" ry="18"/>
<text text-anchor="middle" x="453.4" y="-188.3" font-family="Times,serif" font-size="14.00">तुमुलः (11)</text>
</a>
</g>
</g>
<!-- 12&#45;&gt;8 -->
<g id="edge7" class="edge">
<title>12&#45;&gt;8</title>
<path fill="none" stroke="black" d="M324.4,-260.8C324.4,-249.16 324.4,-233.55 324.4,-220.24"/>
<polygon fill="black" stroke="black" points="327.9,-220.18 324.4,-210.18 320.9,-220.18 327.9,-220.18"/>
<text text-anchor="middle" x="334.4" y="-231.8" font-family="Times,serif" font-size="14.00">कर्म</text>
</g>
<!-- 12&#45;&gt;11 -->
<g id="edge10" class="edge">
<title>12&#45;&gt;11</title>
<path fill="none" stroke="black" d="M348.66,-262.01C369.28,-248.43 399.03,-228.82 421.56,-213.98"/>
<polygon fill="black" stroke="black" points="423.69,-216.77 430.11,-208.34 419.83,-210.92 423.69,-216.77"/>
<text text-anchor="middle" x="422.9" y="-231.8" font-family="Times,serif" font-size="14.00">विशेषणम्</text>
</g>
</g>
</svg>
