<?xml version="1.0" encoding="UTF-8" standalone="no"?>
<!DOCTYPE svg PUBLIC "-//W3C//DTD SVG 1.1//EN"
 "http://www.w3.org/Graphics/SVG/1.1/DTD/svg11.dtd">
<!-- Generated by graphviz version 2.43.0 (0)
 -->
<!-- Title: %3 Pages: 1 -->
<svg width="623pt" height="305pt"
 viewBox="0.00 0.00 622.94 305.00" xmlns="http://www.w3.org/2000/svg" xmlns:xlink="http://www.w3.org/1999/xlink">
<g id="graph0" class="graph" transform="scale(1 1) rotate(0) translate(4 301)">
<title>%3</title>
<polygon fill="#fffacd" stroke="transparent" points="-4,4 -4,-301 618.94,-301 618.94,4 -4,4"/>
<!-- 1 -->
<g id="node1" class="node">
<title>1</title>
<g id="a_node1"><a xlink:title="यावत्{अव्य}">
<ellipse fill="#ff00ff" stroke="#ff00ff" cx="46.8" cy="-192" rx="46.59" ry="18"/>
<text text-anchor="middle" x="46.8" y="-188.3" font-family="Times,serif" font-size="14.00">यावत् (1)</text>
</a>
</g>
</g>
<!-- 2 -->
<g id="node2" class="node">
<title>2</title>
<g id="a_node2"><a xlink:title="एतद्{पुं}{2;बहु}">
<ellipse fill="#7cfc00" stroke="#7cfc00" cx="158.8" cy="-105" rx="46.29" ry="18"/>
<text text-anchor="middle" x="158.8" y="-101.3" font-family="Times,serif" font-size="14.00">एतान् (2)</text>
</a>
</g>
</g>
<!-- 3 -->
<g id="node3" class="node">
<title>3</title>
<g id="a_node3"><a xlink:title="निर्_ईक्ष्1{कर्तरि;लट्;उ;एक;आत्मनेपदी;निर्_ईक्षँ;भ्वादिः}">
<ellipse fill="#ff6347" stroke="#ff6347" cx="156.8" cy="-279" rx="48.19" ry="18"/>
<text text-anchor="middle" x="156.8" y="-275.3" font-family="Times,serif" font-size="14.00">निरीक्षे (3)</text>
</a>
</g>
</g>
<!-- 3&#45;&gt;1 -->
<g id="edge1" class="edge">
<title>3&#45;&gt;1</title>
<path fill="none" stroke="black" d="M127,-264.68C115.46,-258.84 102.48,-251.39 91.8,-243 82.37,-235.6 73.28,-226.1 65.76,-217.37"/>
<polygon fill="black" stroke="black" points="68.42,-215.1 59.33,-209.66 63.04,-219.58 68.42,-215.1"/>
<text text-anchor="middle" x="122.3" y="-231.8" font-family="Times,serif" font-size="14.00">अधिकरणम्</text>
</g>
<!-- 4 -->
<g id="node4" class="node">
<title>4</title>
<g id="a_node4"><a xlink:title="अस्मद्{1;एक}">
<ellipse fill="#00bfff" stroke="#00bfff" cx="156.8" cy="-192" rx="44.69" ry="18"/>
<text text-anchor="middle" x="156.8" y="-188.3" font-family="Times,serif" font-size="14.00">अहम् (4)</text>
</a>
</g>
</g>
<!-- 3&#45;&gt;4 -->
<g id="edge3" class="edge">
<title>3&#45;&gt;4</title>
<path fill="none" stroke="black" d="M156.8,-260.8C156.8,-249.16 156.8,-233.55 156.8,-220.24"/>
<polygon fill="black" stroke="black" points="160.3,-220.18 156.8,-210.18 153.3,-220.18 160.3,-220.18"/>
<text text-anchor="middle" x="169.3" y="-231.8" font-family="Times,serif" font-size="14.00">कर्ता</text>
</g>
<!-- 5 -->
<g id="node5" class="node">
<title>5</title>
<g id="a_node5"><a xlink:title="योद्धु&#45;काम{पुं}{2;बहु}">
<ellipse fill="#7cfc00" stroke="#7cfc00" cx="286.8" cy="-192" rx="67.69" ry="18"/>
<text text-anchor="middle" x="286.8" y="-188.3" font-family="Times,serif" font-size="14.00">योद्धु&#45;कामान् (5)</text>
</a>
</g>
</g>
<!-- 3&#45;&gt;5 -->
<g id="edge4" class="edge">
<title>3&#45;&gt;5</title>
<path fill="none" stroke="black" d="M179.74,-263C200.29,-249.56 230.68,-229.69 253.83,-214.55"/>
<polygon fill="black" stroke="black" points="255.86,-217.41 262.32,-209.01 252.03,-211.55 255.86,-217.41"/>
<text text-anchor="middle" x="239.8" y="-231.8" font-family="Times,serif" font-size="14.00">कर्म</text>
</g>
<!-- 5&#45;&gt;2 -->
<g id="edge2" class="edge">
<title>5&#45;&gt;2</title>
<path fill="none" stroke="black" d="M262,-175.07C252.8,-169.12 242.3,-162.29 232.8,-156 218.37,-146.45 202.47,-135.73 189.11,-126.67"/>
<polygon fill="black" stroke="black" points="190.98,-123.71 180.74,-120.99 187.05,-129.5 190.98,-123.71"/>
<text text-anchor="middle" x="258.3" y="-144.8" font-family="Times,serif" font-size="14.00">विशेषणम्</text>
</g>
<!-- 6 -->
<g id="node6" class="node">
<title>6</title>
<g id="a_node6"><a xlink:title="अव_स्था1{कृत्_प्रत्ययः:क्त;अव_ष्ठा;भ्वादिः;पुं}{2;बहु}">
<ellipse fill="#7cfc00" stroke="#7cfc00" cx="288.8" cy="-105" rx="66.09" ry="18"/>
<text text-anchor="middle" x="288.8" y="-101.3" font-family="Times,serif" font-size="14.00">अवस्थितान् (6)</text>
</a>
</g>
</g>
<!-- 5&#45;&gt;6 -->
<g id="edge5" class="edge">
<title>5&#45;&gt;6</title>
<path fill="none" stroke="black" d="M287.2,-173.8C287.47,-162.16 287.84,-146.55 288.15,-133.24"/>
<polygon fill="black" stroke="black" points="291.66,-133.26 288.39,-123.18 284.66,-133.09 291.66,-133.26"/>
<text text-anchor="middle" x="314.3" y="-144.8" font-family="Times,serif" font-size="14.00">विशेषणम्</text>
</g>
<!-- 7 -->
<g id="node7" class="node">
<title>7</title>
<g id="a_node7"><a xlink:title="किम्{पुं}{3;बहु}">
<ellipse fill="#40e0d0" stroke="#40e0d0" cx="412.8" cy="-105" rx="36.29" ry="18"/>
<text text-anchor="middle" x="412.8" y="-101.3" font-family="Times,serif" font-size="14.00">कैः (7)</text>
</a>
</g>
</g>
<!-- 9 -->
<g id="node9" class="node">
<title>9</title>
<g id="a_node9"><a xlink:title="सह{अव्य}">
<ellipse fill="#ff00ff" stroke="#ff00ff" cx="412.8" cy="-18" rx="38.19" ry="18"/>
<text text-anchor="middle" x="412.8" y="-14.3" font-family="Times,serif" font-size="14.00">सह (9)</text>
</a>
</g>
</g>
<!-- 7&#45;&gt;9 -->
<g id="edge8" class="edge">
<title>7&#45;&gt;9</title>
<path fill="none" stroke="black" d="M412.8,-86.8C412.8,-75.16 412.8,-59.55 412.8,-46.24"/>
<polygon fill="black" stroke="black" points="416.3,-46.18 412.8,-36.18 409.3,-46.18 416.3,-46.18"/>
<text text-anchor="middle" x="433.8" y="-57.8" font-family="Times,serif" font-size="14.00">उप_सह</text>
</g>
<!-- 8 -->
<g id="node8" class="node">
<title>8</title>
<g id="a_node8"><a xlink:title="अस्मद्{3;एक}">
<ellipse fill="#40e0d0" stroke="#40e0d0" cx="412.8" cy="-192" rx="40.09" ry="18"/>
<text text-anchor="middle" x="412.8" y="-188.3" font-family="Times,serif" font-size="14.00">मया (8)</text>
</a>
</g>
</g>
<!-- 8&#45;&gt;7 -->
<g id="edge6" class="edge">
<title>8&#45;&gt;7</title>
<path fill="none" stroke="black" d="M412.8,-173.8C412.8,-162.16 412.8,-146.55 412.8,-133.24"/>
<polygon fill="black" stroke="black" points="416.3,-133.18 412.8,-123.18 409.3,-133.18 416.3,-133.18"/>
<text text-anchor="middle" x="431.3" y="-144.8" font-family="Times,serif" font-size="14.00">सहार्थः</text>
</g>
<!-- 10 -->
<g id="node10" class="node">
<title>10</title>
<g id="a_node10"><a xlink:title="युध्1{कृत्_प्रत्ययः:तव्यत्;युधँ;दिवादिः;पुं}{2;एक}">
<ellipse fill="#7cfc00" stroke="#7cfc00" cx="476.8" cy="-279" rx="63.89" ry="18"/>
<text text-anchor="middle" x="476.8" y="-275.3" font-family="Times,serif" font-size="14.00">योद्धव्यम् (10)</text>
</a>
</g>
</g>
<!-- 10&#45;&gt;8 -->
<g id="edge7" class="edge">
<title>10&#45;&gt;8</title>
<path fill="none" stroke="black" d="M464.15,-261.21C454.74,-248.71 441.75,-231.45 431.19,-217.43"/>
<polygon fill="black" stroke="black" points="433.79,-215.07 424.98,-209.18 428.2,-219.28 433.79,-215.07"/>
<text text-anchor="middle" x="461.3" y="-231.8" font-family="Times,serif" font-size="14.00">कर्ता</text>
</g>
<!-- 12 -->
<g id="node12" class="node">
<title>12</title>
<g id="a_node12"><a xlink:title="रण&#45;समुद्यम{पुं}{7;एक}">
<ellipse fill="#708090" stroke="#708090" cx="542.8" cy="-192" rx="72.29" ry="18"/>
<text text-anchor="middle" x="542.8" y="-188.3" font-family="Times,serif" font-size="14.00">रण&#45;समुद्यमे (12)</text>
</a>
</g>
</g>
<!-- 10&#45;&gt;12 -->
<g id="edge10" class="edge">
<title>10&#45;&gt;12</title>
<path fill="none" stroke="black" d="M489.84,-261.21C499.42,-248.87 512.6,-231.89 523.41,-217.97"/>
<polygon fill="black" stroke="black" points="526.41,-219.8 529.78,-209.76 520.89,-215.51 526.41,-219.8"/>
<text text-anchor="middle" x="544.3" y="-231.8" font-family="Times,serif" font-size="14.00">अधिकरणम्</text>
</g>
<!-- 11 -->
<g id="node11" class="node">
<title>11</title>
<g id="a_node11"><a xlink:title="इदम्{पुं}{7;एक}">
<ellipse fill="#708090" stroke="#708090" cx="542.8" cy="-105" rx="59.29" ry="18"/>
<text text-anchor="middle" x="542.8" y="-101.3" font-family="Times,serif" font-size="14.00">अस्मिन् (11)</text>
</a>
</g>
</g>
<!-- 12&#45;&gt;11 -->
<g id="edge9" class="edge">
<title>12&#45;&gt;11</title>
<path fill="none" stroke="black" d="M542.8,-173.8C542.8,-162.16 542.8,-146.55 542.8,-133.24"/>
<polygon fill="black" stroke="black" points="546.3,-133.18 542.8,-123.18 539.3,-133.18 546.3,-133.18"/>
<text text-anchor="middle" x="568.3" y="-144.8" font-family="Times,serif" font-size="14.00">विशेषणम्</text>
</g>
</g>
</svg>
