<?xml version="1.0" encoding="UTF-8" standalone="no"?>
<!DOCTYPE svg PUBLIC "-//W3C//DTD SVG 1.1//EN"
 "http://www.w3.org/Graphics/SVG/1.1/DTD/svg11.dtd">
<!-- Generated by graphviz version 2.43.0 (0)
 -->
<!-- Title: %3 Pages: 1 -->
<svg width="730pt" height="392pt"
 viewBox="0.00 0.00 730.35 392.00" xmlns="http://www.w3.org/2000/svg" xmlns:xlink="http://www.w3.org/1999/xlink">
<g id="graph0" class="graph" transform="scale(1 1) rotate(0) translate(4 388)">
<title>%3</title>
<polygon fill="#fffacd" stroke="transparent" points="-4,4 -4,-388 726.35,-388 726.35,4 -4,4"/>
<!-- 1 -->
<g id="node1" class="node">
<title>1</title>
<g id="a_node1"><a xlink:title="तद्{नपुं}{5;एक}">
<ellipse fill="#90ee90" stroke="#90ee90" cx="51.35" cy="-105" rx="51.19" ry="18"/>
<text text-anchor="middle" x="51.35" y="-101.3" font-family="Times,serif" font-size="14.00">तस्मात् (1)</text>
</a>
</g>
</g>
<!-- 2 -->
<g id="node2" class="node">
<title>2</title>
<g id="a_node2"><a xlink:title="न{अव्य}">
<ellipse fill="#ff00ff" stroke="#ff00ff" cx="153.35" cy="-105" rx="32.49" ry="18"/>
<text text-anchor="middle" x="153.35" y="-101.3" font-family="Times,serif" font-size="14.00">न (2)</text>
</a>
</g>
</g>
<!-- 3 -->
<g id="node3" class="node">
<title>3</title>
<g id="a_node3"><a xlink:title="अर्ह्1{कृत्_प्रत्ययः:अच्;अर्हँ;भ्वादिः;पुं}{1;बहु}">
<ellipse fill="#00bfff" stroke="#00bfff" cx="121.35" cy="-279" rx="44.69" ry="18"/>
<text text-anchor="middle" x="121.35" y="-275.3" font-family="Times,serif" font-size="14.00">अर्हाः (3)</text>
</a>
</g>
</g>
<!-- 4 -->
<g id="node5" class="node">
<title>4</title>
<g id="a_node5"><a xlink:title="अस्मद्{1;बहु}">
<ellipse fill="#00bfff" stroke="#00bfff" cx="93.35" cy="-192" rx="43.59" ry="18"/>
<text text-anchor="middle" x="93.35" y="-188.3" font-family="Times,serif" font-size="14.00">वयम् (4)</text>
</a>
</g>
</g>
<!-- 3&#45;&gt;4 -->
<g id="edge4" class="edge">
<title>3&#45;&gt;4</title>
<path fill="none" stroke="black" d="M115.68,-260.8C111.78,-248.97 106.53,-233.03 102.1,-219.58"/>
<polygon fill="black" stroke="black" points="105.36,-218.29 98.91,-209.89 98.71,-220.48 105.36,-218.29"/>
<text text-anchor="middle" x="121.85" y="-231.8" font-family="Times,serif" font-size="14.00">कर्ता</text>
</g>
<!-- 5 -->
<g id="node6" class="node">
<title>5</title>
<g id="a_node6"><a xlink:title="हन्1{कृत्_प्रत्ययः:तुमुन्;हनँ;अदादिः}">
<ellipse fill="#808080" stroke="#808080" cx="202.35" cy="-192" rx="47.39" ry="18"/>
<text text-anchor="middle" x="202.35" y="-188.3" font-family="Times,serif" font-size="14.00">हन्तुम् (5)</text>
</a>
</g>
</g>
<!-- 3&#45;&gt;5 -->
<g id="edge5" class="edge">
<title>3&#45;&gt;5</title>
<path fill="none" stroke="black" d="M136.58,-262.01C148.72,-249.27 165.91,-231.24 179.67,-216.8"/>
<polygon fill="black" stroke="black" points="182.54,-218.86 186.9,-209.21 177.47,-214.03 182.54,-218.86"/>
<text text-anchor="middle" x="204.35" y="-231.8" font-family="Times,serif" font-size="14.00">सहायकक्रिया</text>
</g>
<!-- 3.1 -->
<g id="node4" class="node">
<title>3.1</title>
<g id="a_node4"><a xlink:title="अस्2{कर्तरि;लट्;उ;बहु;परस्मैपदी;असँ;अदादिः}">
<ellipse fill="#ff6347" stroke="#ff6347" cx="121.35" cy="-366" rx="55.79" ry="18"/>
<text text-anchor="middle" x="121.35" y="-362.3" font-family="Times,serif" font-size="14.00">(स्मः) (3.1)</text>
</a>
</g>
</g>
<!-- 3.1&#45;&gt;3 -->
<g id="edge3" class="edge">
<title>3.1&#45;&gt;3</title>
<path fill="none" stroke="black" d="M121.35,-347.8C121.35,-336.16 121.35,-320.55 121.35,-307.24"/>
<polygon fill="black" stroke="black" points="124.85,-307.18 121.35,-297.18 117.85,-307.18 124.85,-307.18"/>
<text text-anchor="middle" x="133.85" y="-318.8" font-family="Times,serif" font-size="14.00">कर्ता</text>
</g>
<!-- 5&#45;&gt;1 -->
<g id="edge1" class="edge">
<title>5&#45;&gt;1</title>
<path fill="none" stroke="black" d="M176.73,-176.58C151.86,-162.58 113.91,-141.22 86.28,-125.67"/>
<polygon fill="black" stroke="black" points="87.77,-122.49 77.34,-120.63 84.34,-128.59 87.77,-122.49"/>
<text text-anchor="middle" x="147.85" y="-144.8" font-family="Times,serif" font-size="14.00">हेतुः</text>
</g>
<!-- 5&#45;&gt;2 -->
<g id="edge2" class="edge">
<title>5&#45;&gt;2</title>
<path fill="none" stroke="black" d="M189.53,-174.31C185.42,-168.64 180.99,-162.17 177.35,-156 172.82,-148.34 168.43,-139.69 164.67,-131.77"/>
<polygon fill="black" stroke="black" points="167.8,-130.2 160.43,-122.58 161.44,-133.13 167.8,-130.2"/>
<text text-anchor="middle" x="203.35" y="-144.8" font-family="Times,serif" font-size="14.00">प्रतिषेधः</text>
</g>
<!-- 6 -->
<g id="node7" class="node">
<title>6</title>
<g id="a_node7"><a xlink:title="धार्तराष्ट्र{पुं}{2;बहु}">
<ellipse fill="#7cfc00" stroke="#7cfc00" cx="273.35" cy="-105" rx="69.59" ry="18"/>
<text text-anchor="middle" x="273.35" y="-101.3" font-family="Times,serif" font-size="14.00">धार्तराष्ट्रान् (6)</text>
</a>
</g>
</g>
<!-- 5&#45;&gt;6 -->
<g id="edge6" class="edge">
<title>5&#45;&gt;6</title>
<path fill="none" stroke="black" d="M216.03,-174.61C226.41,-162.19 240.84,-144.91 252.63,-130.8"/>
<polygon fill="black" stroke="black" points="255.49,-132.84 259.21,-122.92 250.12,-128.35 255.49,-132.84"/>
<text text-anchor="middle" x="252.35" y="-144.8" font-family="Times,serif" font-size="14.00">कर्म</text>
</g>
<!-- 14 -->
<g id="node15" class="node">
<title>14</title>
<g id="a_node15"><a xlink:title="माधव{पुं}{8;एक}">
<ellipse fill="#7fffd4" stroke="#7fffd4" cx="413.35" cy="-105" rx="52.79" ry="18"/>
<text text-anchor="middle" x="413.35" y="-101.3" font-family="Times,serif" font-size="14.00">माधव (14)</text>
</a>
</g>
</g>
<!-- 5&#45;&gt;14 -->
<g id="edge14" class="edge">
<title>5&#45;&gt;14</title>
<path fill="none" stroke="black" d="M233.93,-178.27C270.44,-163.57 330.67,-139.3 371.16,-122.99"/>
<polygon fill="black" stroke="black" points="372.53,-126.22 380.5,-119.23 369.91,-119.72 372.53,-126.22"/>
<text text-anchor="middle" x="345.85" y="-144.8" font-family="Times,serif" font-size="14.00">सम्बोध्यः</text>
</g>
<!-- 7 -->
<g id="node8" class="node">
<title>7</title>
<g id="a_node8"><a xlink:title="स्व&#45;बान्धव{पुं}{2;बहु}">
<ellipse fill="#7cfc00" stroke="#7cfc00" cx="273.35" cy="-18" rx="70.39" ry="18"/>
<text text-anchor="middle" x="273.35" y="-14.3" font-family="Times,serif" font-size="14.00">स्व&#45;बान्धवान् (7)</text>
</a>
</g>
</g>
<!-- 6&#45;&gt;7 -->
<g id="edge7" class="edge">
<title>6&#45;&gt;7</title>
<path fill="none" stroke="black" d="M273.35,-86.8C273.35,-75.16 273.35,-59.55 273.35,-46.24"/>
<polygon fill="black" stroke="black" points="276.85,-46.18 273.35,-36.18 269.85,-46.18 276.85,-46.18"/>
<text text-anchor="middle" x="298.85" y="-57.8" font-family="Times,serif" font-size="14.00">विशेषणम्</text>
</g>
<!-- 8 -->
<g id="node9" class="node">
<title>8</title>
<g id="a_node9"><a xlink:title="स्व&#45;जन{पुं}{2;एक}">
<ellipse fill="#7cfc00" stroke="#7cfc00" cx="473.35" cy="-192" rx="57.69" ry="18"/>
<text text-anchor="middle" x="473.35" y="-188.3" font-family="Times,serif" font-size="14.00">स्व&#45;जनम् (8)</text>
</a>
</g>
</g>
<!-- 9 -->
<g id="node10" class="node">
<title>9</title>
<g id="a_node10"><a xlink:title="हि{अव्य}">
<ellipse fill="#ff00ff" stroke="#ff00ff" cx="526.35" cy="-279" rx="34.39" ry="18"/>
<text text-anchor="middle" x="526.35" y="-275.3" font-family="Times,serif" font-size="14.00">हि (9)</text>
</a>
</g>
</g>
<!-- 10 -->
<g id="node11" class="node">
<title>10</title>
<g id="a_node11"><a xlink:title="कथम्{अव्य}">
<ellipse fill="#ff00ff" stroke="#ff00ff" cx="630.35" cy="-279" rx="51.99" ry="18"/>
<text text-anchor="middle" x="630.35" y="-275.3" font-family="Times,serif" font-size="14.00">कथम् (10)</text>
</a>
</g>
</g>
<!-- 11 -->
<g id="node12" class="node">
<title>11</title>
<g id="a_node12"><a xlink:title="हन्1{कृत्_प्रत्ययः:क्त्वा;हनँ;अदादिः}">
<ellipse fill="#808080" stroke="#808080" cx="424.35" cy="-279" rx="49.29" ry="18"/>
<text text-anchor="middle" x="424.35" y="-275.3" font-family="Times,serif" font-size="14.00">हत्वा (11)</text>
</a>
</g>
</g>
<!-- 11&#45;&gt;8 -->
<g id="edge8" class="edge">
<title>11&#45;&gt;8</title>
<path fill="none" stroke="black" d="M434.03,-261.21C441.01,-249.1 450.56,-232.53 458.5,-218.76"/>
<polygon fill="black" stroke="black" points="461.72,-220.17 463.68,-209.76 455.66,-216.67 461.72,-220.17"/>
<text text-anchor="middle" x="461.35" y="-231.8" font-family="Times,serif" font-size="14.00">कर्म</text>
</g>
<!-- 12 -->
<g id="node13" class="node">
<title>12</title>
<g id="a_node13"><a xlink:title="सुखिन्{पुं}{1;बहु}">
<ellipse fill="#00bfff" stroke="#00bfff" cx="662.35" cy="-192" rx="57.39" ry="18"/>
<text text-anchor="middle" x="662.35" y="-188.3" font-family="Times,serif" font-size="14.00">सुखिनः (12)</text>
</a>
</g>
</g>
<!-- 11&#45;&gt;12 -->
<g id="edge13" class="edge">
<title>11&#45;&gt;12</title>
<path fill="none" stroke="black" stroke-dasharray="1,5" d="M458.45,-265.82C499.96,-250.99 570.25,-225.89 616.49,-209.38"/>
<polygon fill="black" stroke="black" points="617.73,-212.65 625.97,-205.99 615.37,-206.06 617.73,-212.65"/>
<text text-anchor="middle" x="569.85" y="-231.8" font-family="Times,serif" font-size="14.00">कर्ता</text>
</g>
<!-- 14.1 -->
<g id="node16" class="node">
<title>14.1</title>
<g id="a_node16"><a xlink:title="अस्मद्{1;बहु}">
<ellipse fill="#00bfff" stroke="#00bfff" cx="332.35" cy="-192" rx="64.99" ry="18"/>
<text text-anchor="middle" x="332.35" y="-188.3" font-family="Times,serif" font-size="14.00">(वयम्) (14.1)</text>
</a>
</g>
</g>
<!-- 11&#45;&gt;14.1 -->
<g id="edge16" class="edge">
<title>11&#45;&gt;14.1</title>
<path fill="none" stroke="black" stroke-dasharray="1,5" d="M407.04,-262.01C393.21,-249.24 373.62,-231.14 357.97,-216.68"/>
<polygon fill="black" stroke="black" points="359.92,-213.71 350.2,-209.5 355.17,-218.85 359.92,-213.71"/>
<text text-anchor="middle" x="395.85" y="-231.8" font-family="Times,serif" font-size="14.00">कर्ता</text>
</g>
<!-- 13 -->
<g id="node14" class="node">
<title>13</title>
<g id="a_node14"><a xlink:title="अस्2{कर्तरि;विधिलिङ्;उ;बहु;परस्मैपदी;असँ;अदादिः}">
<ellipse fill="#ff6347" stroke="#ff6347" cx="526.35" cy="-366" rx="51.99" ry="18"/>
<text text-anchor="middle" x="526.35" y="-362.3" font-family="Times,serif" font-size="14.00">स्याम (13)</text>
</a>
</g>
</g>
<!-- 13&#45;&gt;9 -->
<g id="edge9" class="edge">
<title>13&#45;&gt;9</title>
<path fill="none" stroke="black" d="M526.35,-347.8C526.35,-336.16 526.35,-320.55 526.35,-307.24"/>
<polygon fill="black" stroke="black" points="529.85,-307.18 526.35,-297.18 522.85,-307.18 529.85,-307.18"/>
<text text-anchor="middle" x="549.35" y="-318.8" font-family="Times,serif" font-size="14.00">सम्बन्धः</text>
</g>
<!-- 13&#45;&gt;10 -->
<g id="edge10" class="edge">
<title>13&#45;&gt;10</title>
<path fill="none" stroke="black" d="M549.47,-349.78C558.1,-343.86 567.85,-336.85 576.35,-330 586.6,-321.73 597.36,-312.01 606.54,-303.35"/>
<polygon fill="black" stroke="black" points="609.03,-305.81 613.85,-296.38 604.2,-300.75 609.03,-305.81"/>
<text text-anchor="middle" x="634.85" y="-318.8" font-family="Times,serif" font-size="14.00">क्रियाविशेषणम्</text>
</g>
<!-- 13&#45;&gt;11 -->
<g id="edge11" class="edge">
<title>13&#45;&gt;11</title>
<path fill="none" stroke="black" d="M501.3,-350.01C492.2,-344.17 482.02,-337.16 473.35,-330 463.87,-322.19 454.24,-312.75 446.05,-304.19"/>
<polygon fill="black" stroke="black" points="448.38,-301.55 438.99,-296.64 443.27,-306.34 448.38,-301.55"/>
<text text-anchor="middle" x="497.85" y="-318.8" font-family="Times,serif" font-size="14.00">पूर्वकालः</text>
</g>
<!-- 13&#45;&gt;12 -->
<g id="edge12" class="edge">
<title>13&#45;&gt;12</title>
<path fill="none" stroke="black" d="M575.09,-359.38C614.57,-353.88 666.05,-344.23 681.35,-330 711.46,-301.99 692.77,-250.13 677.1,-218.88"/>
<polygon fill="black" stroke="black" points="680.14,-217.12 672.4,-209.89 673.94,-220.37 680.14,-217.12"/>
<text text-anchor="middle" x="709.85" y="-275.3" font-family="Times,serif" font-size="14.00">कर्ता</text>
</g>
<!-- 13&#45;&gt;14.1 -->
<g id="edge15" class="edge">
<title>13&#45;&gt;14.1</title>
<path fill="none" stroke="black" d="M476.04,-361.04C433,-354.77 373.13,-338.6 341.35,-297 324.72,-275.24 324.58,-242.95 327.26,-220.13"/>
<polygon fill="black" stroke="black" points="330.75,-220.47 328.7,-210.08 323.82,-219.48 330.75,-220.47"/>
<text text-anchor="middle" x="353.85" y="-275.3" font-family="Times,serif" font-size="14.00">कर्ता</text>
</g>
</g>
</svg>
