<?xml version="1.0" encoding="UTF-8" standalone="no"?>
<!DOCTYPE svg PUBLIC "-//W3C//DTD SVG 1.1//EN"
 "http://www.w3.org/Graphics/SVG/1.1/DTD/svg11.dtd">
<!-- Generated by graphviz version 2.43.0 (0)
 -->
<!-- Title: %3 Pages: 1 -->
<svg width="609pt" height="305pt"
 viewBox="0.00 0.00 608.54 305.00" xmlns="http://www.w3.org/2000/svg" xmlns:xlink="http://www.w3.org/1999/xlink">
<g id="graph0" class="graph" transform="scale(1 1) rotate(0) translate(4 301)">
<title>%3</title>
<polygon fill="#fffacd" stroke="transparent" points="-4,4 -4,-301 604.54,-301 604.54,4 -4,4"/>
<!-- 1 -->
<g id="node1" class="node">
<title>1</title>
<g id="a_node1"><a xlink:title="एवम्{अव्य}">
<ellipse fill="#ff00ff" stroke="#ff00ff" cx="42.9" cy="-105" rx="42.79" ry="18"/>
<text text-anchor="middle" x="42.9" y="-101.3" font-family="Times,serif" font-size="14.00">एवम् (1)</text>
</a>
</g>
</g>
<!-- 2 -->
<g id="node2" class="node">
<title>2</title>
<g id="a_node2"><a xlink:title="वच्1{कृत्_प्रत्ययः:क्त्वा;वचँ;अदादिः}">
<ellipse fill="#808080" stroke="#808080" cx="106.9" cy="-192" rx="48.19" ry="18"/>
<text text-anchor="middle" x="106.9" y="-188.3" font-family="Times,serif" font-size="14.00">उक्त्वा (2)</text>
</a>
</g>
</g>
<!-- 2&#45;&gt;1 -->
<g id="edge1" class="edge">
<title>2&#45;&gt;1</title>
<path fill="none" stroke="black" d="M71.75,-179.47C60.93,-174.1 50.22,-166.51 43.9,-156 39.89,-149.35 38.56,-141.25 38.53,-133.52"/>
<polygon fill="black" stroke="black" points="42.03,-133.58 39.15,-123.39 35.05,-133.15 42.03,-133.58"/>
<text text-anchor="middle" x="86.4" y="-144.8" font-family="Times,serif" font-size="14.00">क्रियाविशेषणम्</text>
</g>
<!-- 3 -->
<g id="node3" class="node">
<title>3</title>
<g id="a_node3"><a xlink:title="अर्जुन{पुं}{1;एक}">
<ellipse fill="#00bfff" stroke="#00bfff" cx="190.9" cy="-105" rx="50.09" ry="18"/>
<text text-anchor="middle" x="190.9" y="-101.3" font-family="Times,serif" font-size="14.00">अर्जुनः (3)</text>
</a>
</g>
</g>
<!-- 2&#45;&gt;3 -->
<g id="edge4" class="edge">
<title>2&#45;&gt;3</title>
<path fill="none" stroke="black" stroke-dasharray="1,5" d="M121.06,-174.38C129.72,-164.45 141.15,-151.73 151.9,-141 155.92,-136.98 160.3,-132.84 164.63,-128.87"/>
<polygon fill="black" stroke="black" points="167.19,-131.28 172.27,-121.99 162.5,-126.08 167.19,-131.28"/>
<text text-anchor="middle" x="164.4" y="-144.8" font-family="Times,serif" font-size="14.00">कर्ता</text>
</g>
<!-- 10 -->
<g id="node10" class="node">
<title>10</title>
<g id="a_node10"><a xlink:title="शोक&#45;संविग्न&#45;मानस{पुं}{1;एक}">
<ellipse fill="#00bfff" stroke="#00bfff" cx="190.9" cy="-18" rx="102.88" ry="18"/>
<text text-anchor="middle" x="190.9" y="-14.3" font-family="Times,serif" font-size="14.00">शोक&#45;संविग्न&#45;मानसः (10)</text>
</a>
</g>
</g>
<!-- 3&#45;&gt;10 -->
<g id="edge11" class="edge">
<title>3&#45;&gt;10</title>
<path fill="none" stroke="black" d="M190.9,-86.8C190.9,-75.16 190.9,-59.55 190.9,-46.24"/>
<polygon fill="black" stroke="black" points="194.4,-46.18 190.9,-36.18 187.4,-46.18 194.4,-46.18"/>
<text text-anchor="middle" x="216.4" y="-57.8" font-family="Times,serif" font-size="14.00">विशेषणम्</text>
</g>
<!-- 4 -->
<g id="node4" class="node">
<title>4</title>
<g id="a_node4"><a xlink:title="सङ्ख्य{नपुं}{7;एक}">
<ellipse fill="#708090" stroke="#708090" cx="284.9" cy="-192" rx="51.19" ry="18"/>
<text text-anchor="middle" x="284.9" y="-188.3" font-family="Times,serif" font-size="14.00">सङ्ख्ये (4)</text>
</a>
</g>
</g>
<!-- 5 -->
<g id="node5" class="node">
<title>5</title>
<g id="a_node5"><a xlink:title="रथ&#45;उपस्थ{पुं}{7;एक}">
<ellipse fill="#708090" stroke="#708090" cx="415.9" cy="-192" rx="61.99" ry="18"/>
<text text-anchor="middle" x="415.9" y="-188.3" font-family="Times,serif" font-size="14.00">रथ&#45;उपस्थे (5)</text>
</a>
</g>
</g>
<!-- 6 -->
<g id="node6" class="node">
<title>6</title>
<g id="a_node6"><a xlink:title="उप_विश्1{कर्तरि;लङ्;प्र;एक;परस्मैपदी;उप_विशँ;तुदादिः}">
<ellipse fill="#ff6347" stroke="#ff6347" cx="284.9" cy="-279" rx="61.19" ry="18"/>
<text text-anchor="middle" x="284.9" y="-275.3" font-family="Times,serif" font-size="14.00">उपाविशत् (6)</text>
</a>
</g>
</g>
<!-- 6&#45;&gt;2 -->
<g id="edge2" class="edge">
<title>6&#45;&gt;2</title>
<path fill="none" stroke="black" d="M229.49,-271.11C190.74,-265.29 143.27,-255.85 127.9,-243 120.84,-237.1 116.1,-228.41 112.95,-219.93"/>
<polygon fill="black" stroke="black" points="116.25,-218.75 109.94,-210.25 109.57,-220.83 116.25,-218.75"/>
<text text-anchor="middle" x="152.4" y="-231.8" font-family="Times,serif" font-size="14.00">पूर्वकालः</text>
</g>
<!-- 6&#45;&gt;3 -->
<g id="edge3" class="edge">
<title>6&#45;&gt;3</title>
<path fill="none" stroke="black" d="M255.63,-262.89C236.28,-251.22 212.29,-233.16 199.9,-210 187.19,-186.24 186.2,-155 187.61,-132.98"/>
<polygon fill="black" stroke="black" points="191.1,-133.25 188.46,-122.99 184.13,-132.66 191.1,-133.25"/>
<text text-anchor="middle" x="212.4" y="-188.3" font-family="Times,serif" font-size="14.00">कर्ता</text>
</g>
<!-- 6&#45;&gt;4 -->
<g id="edge6" class="edge">
<title>6&#45;&gt;4</title>
<path fill="none" stroke="black" d="M284.9,-260.8C284.9,-249.16 284.9,-233.55 284.9,-220.24"/>
<polygon fill="black" stroke="black" points="288.4,-220.18 284.9,-210.18 281.4,-220.18 288.4,-220.18"/>
<text text-anchor="middle" x="315.4" y="-231.8" font-family="Times,serif" font-size="14.00">अधिकरणम्</text>
</g>
<!-- 6&#45;&gt;5 -->
<g id="edge7" class="edge">
<title>6&#45;&gt;5</title>
<path fill="none" stroke="black" d="M314.57,-263.26C325.85,-257.33 338.68,-250.21 349.9,-243 362.94,-234.62 376.7,-224.43 388.27,-215.44"/>
<polygon fill="black" stroke="black" points="390.56,-218.08 396.26,-209.15 386.23,-212.58 390.56,-218.08"/>
<text text-anchor="middle" x="401.4" y="-231.8" font-family="Times,serif" font-size="14.00">अधिकरणम्</text>
</g>
<!-- 7 -->
<g id="node7" class="node">
<title>7</title>
<g id="a_node7"><a xlink:title="वि_सृज्2{कृत्_प्रत्ययः:ल्यप्;वि_सृजँ;तुदादिः}">
<ellipse fill="#808080" stroke="#808080" cx="547.9" cy="-192" rx="51.99" ry="18"/>
<text text-anchor="middle" x="547.9" y="-188.3" font-family="Times,serif" font-size="14.00">विसृज्य (7)</text>
</a>
</g>
</g>
<!-- 6&#45;&gt;7 -->
<g id="edge8" class="edge">
<title>6&#45;&gt;7</title>
<path fill="none" stroke="black" d="M335.56,-268.79C365.2,-262.78 403.11,-254 435.9,-243 461.57,-234.38 489.38,-221.99 510.86,-211.69"/>
<polygon fill="black" stroke="black" points="512.49,-214.8 519.96,-207.28 509.43,-208.5 512.49,-214.8"/>
<text text-anchor="middle" x="498.4" y="-231.8" font-family="Times,serif" font-size="14.00">पूर्वकालः</text>
</g>
<!-- 7&#45;&gt;3 -->
<g id="edge5" class="edge">
<title>7&#45;&gt;3</title>
<path fill="none" stroke="black" stroke-dasharray="1,5" d="M509.24,-179.94C501.84,-177.9 494.14,-175.84 486.9,-174 401.63,-152.34 301.77,-130.03 242.57,-117.12"/>
<polygon fill="black" stroke="black" points="243.22,-113.68 232.71,-114.97 241.74,-120.52 243.22,-113.68"/>
<text text-anchor="middle" x="418.4" y="-144.8" font-family="Times,serif" font-size="14.00">कर्ता</text>
</g>
<!-- 9 -->
<g id="node9" class="node">
<title>9</title>
<g id="a_node9"><a xlink:title="चाप{नपुं}{2;एक}">
<ellipse fill="#7cfc00" stroke="#7cfc00" cx="547.9" cy="-105" rx="46.29" ry="18"/>
<text text-anchor="middle" x="547.9" y="-101.3" font-family="Times,serif" font-size="14.00">चापम् (9)</text>
</a>
</g>
</g>
<!-- 7&#45;&gt;9 -->
<g id="edge10" class="edge">
<title>7&#45;&gt;9</title>
<path fill="none" stroke="black" d="M547.9,-173.8C547.9,-162.16 547.9,-146.55 547.9,-133.24"/>
<polygon fill="black" stroke="black" points="551.4,-133.18 547.9,-123.18 544.4,-133.18 551.4,-133.18"/>
<text text-anchor="middle" x="557.9" y="-144.8" font-family="Times,serif" font-size="14.00">कर्म</text>
</g>
<!-- 8 -->
<g id="node8" class="node">
<title>8</title>
<g id="a_node8"><a xlink:title="स&#45;शर{पुं}{2;एक}">
<ellipse fill="#7cfc00" stroke="#7cfc00" cx="547.9" cy="-18" rx="52.79" ry="18"/>
<text text-anchor="middle" x="547.9" y="-14.3" font-family="Times,serif" font-size="14.00">स&#45;शरम् (8)</text>
</a>
</g>
</g>
<!-- 9&#45;&gt;8 -->
<g id="edge9" class="edge">
<title>9&#45;&gt;8</title>
<path fill="none" stroke="black" d="M547.9,-86.8C547.9,-75.16 547.9,-59.55 547.9,-46.24"/>
<polygon fill="black" stroke="black" points="551.4,-46.18 547.9,-36.18 544.4,-46.18 551.4,-46.18"/>
<text text-anchor="middle" x="573.4" y="-57.8" font-family="Times,serif" font-size="14.00">विशेषणम्</text>
</g>
</g>
</svg>
