<?xml version="1.0" encoding="UTF-8" standalone="no"?>
<!DOCTYPE svg PUBLIC "-//W3C//DTD SVG 1.1//EN"
 "http://www.w3.org/Graphics/SVG/1.1/DTD/svg11.dtd">
<!-- Generated by graphviz version 2.43.0 (0)
 -->
<!-- Title: %3 Pages: 1 -->
<svg width="721pt" height="218pt"
 viewBox="0.00 0.00 720.64 218.00" xmlns="http://www.w3.org/2000/svg" xmlns:xlink="http://www.w3.org/1999/xlink">
<g id="graph0" class="graph" transform="scale(1 1) rotate(0) translate(4 214)">
<title>%3</title>
<polygon fill="#fffacd" stroke="transparent" points="-4,4 -4,-214 716.64,-214 716.64,4 -4,4"/>
<!-- 1 -->
<g id="node1" class="node">
<title>1</title>
<g id="a_node1"><a xlink:title="धर्मन्&#45;क्षेत्र{नपुं}{7;एक}">
<ellipse fill="#708090" stroke="#708090" cx="58.49" cy="-18" rx="58.49" ry="18"/>
<text text-anchor="middle" x="58.49" y="-14.3" font-family="Times,serif" font-size="14.00">धर्म&#45;क्षेत्रे (1)</text>
</a>
</g>
</g>
<!-- 2 -->
<g id="node2" class="node">
<title>2</title>
<g id="a_node2"><a xlink:title="कुरु&#45;क्षेत्र{नपुं}{7;एक}">
<ellipse fill="#708090" stroke="#708090" cx="188.49" cy="-105" rx="58.49" ry="18"/>
<text text-anchor="middle" x="188.49" y="-101.3" font-family="Times,serif" font-size="14.00">कुरु&#45;क्षेत्रे (2)</text>
</a>
</g>
</g>
<!-- 2&#45;&gt;1 -->
<g id="edge1" class="edge">
<title>2&#45;&gt;1</title>
<path fill="none" stroke="black" d="M156.27,-89.82C144.09,-83.96 130.32,-76.73 118.49,-69 106.29,-61.02 93.74,-50.91 83.3,-41.88"/>
<polygon fill="black" stroke="black" points="85.58,-39.23 75.77,-35.24 80.95,-44.48 85.58,-39.23"/>
<text text-anchor="middle" x="143.99" y="-57.8" font-family="Times,serif" font-size="14.00">विशेषणम्</text>
</g>
<!-- 3 -->
<g id="node3" class="node">
<title>3</title>
<g id="a_node3"><a xlink:title="समवेत{पुं}{1;बहु}">
<ellipse fill="#00bfff" stroke="#00bfff" cx="191.49" cy="-18" rx="56.59" ry="18"/>
<text text-anchor="middle" x="191.49" y="-14.3" font-family="Times,serif" font-size="14.00">समवेताः (3)</text>
</a>
</g>
</g>
<!-- 4 -->
<g id="node4" class="node">
<title>4</title>
<g id="a_node4"><a xlink:title="युयुत्सु{पुं}{1;बहु}">
<ellipse fill="#00bfff" stroke="#00bfff" cx="323.49" cy="-18" rx="57.69" ry="18"/>
<text text-anchor="middle" x="323.49" y="-14.3" font-family="Times,serif" font-size="14.00">युयुत्सवः (4)</text>
</a>
</g>
</g>
<!-- 5 -->
<g id="node5" class="node">
<title>5</title>
<g id="a_node5"><a xlink:title="मामक{पुं}{1;बहु}">
<ellipse fill="#00bfff" stroke="#00bfff" cx="453.49" cy="-18" rx="53.89" ry="18"/>
<text text-anchor="middle" x="453.49" y="-14.3" font-family="Times,serif" font-size="14.00">मामकाः (5)</text>
</a>
</g>
</g>
<!-- 6 -->
<g id="node6" class="node">
<title>6</title>
<g id="a_node6"><a xlink:title="पाण्डव{पुं}{1;बहु}">
<ellipse fill="#00bfff" stroke="#00bfff" cx="386.49" cy="-105" rx="55.79" ry="18"/>
<text text-anchor="middle" x="386.49" y="-101.3" font-family="Times,serif" font-size="14.00">पाण्डवाः (6)</text>
</a>
</g>
</g>
<!-- 6&#45;&gt;3 -->
<g id="edge3" class="edge">
<title>6&#45;&gt;3</title>
<path fill="none" stroke="black" d="M351.2,-90.96C334.5,-84.62 314.35,-76.71 296.49,-69 274.09,-59.33 249.44,-47.64 229.65,-38"/>
<polygon fill="black" stroke="black" points="231.17,-34.85 220.65,-33.59 228.09,-41.13 231.17,-34.85"/>
<text text-anchor="middle" x="321.99" y="-57.8" font-family="Times,serif" font-size="14.00">विशेषणम्</text>
</g>
<!-- 6&#45;&gt;4 -->
<g id="edge4" class="edge">
<title>6&#45;&gt;4</title>
<path fill="none" stroke="black" d="M374.05,-87.21C364.9,-74.87 352.32,-57.89 342,-43.97"/>
<polygon fill="black" stroke="black" points="344.68,-41.71 335.92,-35.76 339.06,-45.88 344.68,-41.71"/>
<text text-anchor="middle" x="384.99" y="-57.8" font-family="Times,serif" font-size="14.00">विशेषणम्</text>
</g>
<!-- 6&#45;&gt;5 -->
<g id="edge5" class="edge">
<title>6&#45;&gt;5</title>
<path fill="none" stroke="black" d="M399.92,-87.3C404.56,-81.52 409.77,-74.98 414.49,-69 420.98,-60.79 428.02,-51.79 434.31,-43.72"/>
<polygon fill="black" stroke="black" points="437.17,-45.75 440.55,-35.71 431.64,-41.45 437.17,-45.75"/>
<text text-anchor="middle" x="467.99" y="-57.8" font-family="Times,serif" font-size="14.00">सुप्_समुच्चितम्</text>
</g>
<!-- 7 -->
<g id="node7" class="node">
<title>7</title>
<g id="a_node7"><a xlink:title="च{अव्य}">
<ellipse fill="#ff00ff" stroke="#ff00ff" cx="558.49" cy="-18" rx="33.29" ry="18"/>
<text text-anchor="middle" x="558.49" y="-14.3" font-family="Times,serif" font-size="14.00">च (7)</text>
</a>
</g>
</g>
<!-- 6&#45;&gt;7 -->
<g id="edge7" class="edge">
<title>6&#45;&gt;7</title>
<path fill="none" stroke="black" d="M428.26,-92.88C464.87,-83.09 512.58,-70.2 514.49,-69 525.01,-62.44 534.43,-52.6 541.83,-43.39"/>
<polygon fill="black" stroke="black" points="544.78,-45.3 548.04,-35.21 539.21,-41.07 544.78,-45.3"/>
<text text-anchor="middle" x="573.99" y="-57.8" font-family="Times,serif" font-size="14.00">समुच्चयद्योतकः</text>
</g>
<!-- 7.1 -->
<g id="node8" class="node">
<title>7.1</title>
<g id="a_node8"><a xlink:title="एव{अव्य}">
<ellipse fill="#ff00ff" stroke="#ff00ff" cx="666.49" cy="-18" rx="46.29" ry="18"/>
<text text-anchor="middle" x="666.49" y="-14.3" font-family="Times,serif" font-size="14.00">एव (7.1)</text>
</a>
</g>
</g>
<!-- 6&#45;&gt;7.1 -->
<g id="edge8" class="edge">
<title>6&#45;&gt;7.1</title>
<path fill="none" stroke="black" d="M426.57,-92.34C434.45,-90.34 442.69,-88.44 450.49,-87 525.21,-73.21 552.63,-103.16 620.49,-69 631.9,-63.26 641.89,-53.43 649.62,-44"/>
<polygon fill="black" stroke="black" points="652.5,-45.99 655.81,-35.92 646.94,-41.73 652.5,-45.99"/>
<text text-anchor="middle" x="659.99" y="-57.8" font-family="Times,serif" font-size="14.00">सम्बन्ध</text>
</g>
<!-- 8 -->
<g id="node9" class="node">
<title>8</title>
<g id="a_node9"><a xlink:title="किम्{नपुं}{2;एक}">
<ellipse fill="#7cfc00" stroke="#7cfc00" cx="501.49" cy="-105" rx="41.69" ry="18"/>
<text text-anchor="middle" x="501.49" y="-101.3" font-family="Times,serif" font-size="14.00">किम् (8)</text>
</a>
</g>
</g>
<!-- 9 -->
<g id="node10" class="node">
<title>9</title>
<g id="a_node10"><a xlink:title="कृ3{कर्तरि;लङ्;प्र;बहु;आत्मनेपदी;डुकृञ्;तनादिः}">
<ellipse fill="#ff6347" stroke="#ff6347" cx="472.49" cy="-192" rx="51.99" ry="18"/>
<text text-anchor="middle" x="472.49" y="-188.3" font-family="Times,serif" font-size="14.00">अकुर्वत (9)</text>
</a>
</g>
</g>
<!-- 9&#45;&gt;2 -->
<g id="edge2" class="edge">
<title>9&#45;&gt;2</title>
<path fill="none" stroke="black" d="M434.49,-179.62C384.01,-164.52 294.73,-137.8 238.74,-121.04"/>
<polygon fill="black" stroke="black" points="239.61,-117.65 229.03,-118.13 237.6,-124.35 239.61,-117.65"/>
<text text-anchor="middle" x="378.99" y="-144.8" font-family="Times,serif" font-size="14.00">अधिकरणम्</text>
</g>
<!-- 9&#45;&gt;6 -->
<g id="edge6" class="edge">
<title>9&#45;&gt;6</title>
<path fill="none" stroke="black" d="M455.91,-174.61C442.94,-161.79 424.74,-143.8 410.23,-129.46"/>
<polygon fill="black" stroke="black" points="412.6,-126.88 403.03,-122.34 407.68,-131.86 412.6,-126.88"/>
<text text-anchor="middle" x="447.99" y="-144.8" font-family="Times,serif" font-size="14.00">कर्ता</text>
</g>
<!-- 9&#45;&gt;8 -->
<g id="edge9" class="edge">
<title>9&#45;&gt;8</title>
<path fill="none" stroke="black" d="M478.36,-173.8C482.4,-161.97 487.84,-146.03 492.43,-132.58"/>
<polygon fill="black" stroke="black" points="495.82,-133.48 495.73,-122.89 489.19,-131.22 495.82,-133.48"/>
<text text-anchor="middle" x="499.49" y="-144.8" font-family="Times,serif" font-size="14.00">कर्म</text>
</g>
<!-- 10 -->
<g id="node11" class="node">
<title>10</title>
<g id="a_node11"><a xlink:title="सञ्जय{पुं}{8;एक}">
<ellipse fill="#7fffd4" stroke="#7fffd4" cx="617.49" cy="-105" rx="56.59" ry="18"/>
<text text-anchor="middle" x="617.49" y="-101.3" font-family="Times,serif" font-size="14.00">सञ्जय (10)</text>
</a>
</g>
</g>
<!-- 9&#45;&gt;10 -->
<g id="edge10" class="edge">
<title>9&#45;&gt;10</title>
<path fill="none" stroke="black" d="M497.75,-176.19C521.27,-162.41 556.53,-141.74 582.71,-126.39"/>
<polygon fill="black" stroke="black" points="584.69,-129.29 591.55,-121.21 581.15,-123.25 584.69,-129.29"/>
<text text-anchor="middle" x="579.99" y="-144.8" font-family="Times,serif" font-size="14.00">सम्बोध्यः</text>
</g>
</g>
</svg>
