<?xml version="1.0" encoding="UTF-8" standalone="no"?>
<!DOCTYPE svg PUBLIC "-//W3C//DTD SVG 1.1//EN"
 "http://www.w3.org/Graphics/SVG/1.1/DTD/svg11.dtd">
<!-- Generated by graphviz version 2.43.0 (0)
 -->
<!-- Title: %3 Pages: 1 -->
<svg width="3014pt" height="305pt"
 viewBox="0.00 0.00 3013.99 305.00" xmlns="http://www.w3.org/2000/svg" xmlns:xlink="http://www.w3.org/1999/xlink">
<g id="graph0" class="graph" transform="scale(1 1) rotate(0) translate(4 301)">
<title>%3</title>
<polygon fill="#fffacd" stroke="transparent" points="-4,4 -4,-301 3009.99,-301 3009.99,4 -4,4"/>
<!-- 1 -->
<g id="node1" class="node">
<title>1</title>
<g id="a_node1"><a xlink:title="अत्र{अव्य}">
<ellipse fill="#ff00ff" stroke="#ff00ff" cx="329.44" cy="-105" rx="44.39" ry="18"/>
<text text-anchor="middle" x="329.44" y="-101.3" font-family="Times,serif" font-size="14.00">अत्र (1)</text>
</a>
</g>
</g>
<!-- 2 -->
<g id="node2" class="node">
<title>2</title>
<g id="a_node2"><a xlink:title="शूर{पुं}{1;बहु}">
<ellipse fill="#00bfff" stroke="#00bfff" cx="86.44" cy="-105" rx="44.39" ry="18"/>
<text text-anchor="middle" x="86.44" y="-101.3" font-family="Times,serif" font-size="14.00">शूराः (2)</text>
</a>
</g>
</g>
<!-- 4 -->
<g id="node4" class="node">
<title>4</title>
<g id="a_node4"><a xlink:title="भीम&#45;अर्जुन&#45;सम{पुं}{1;बहु}">
<ellipse fill="#00bfff" stroke="#00bfff" cx="86.44" cy="-18" rx="86.38" ry="18"/>
<text text-anchor="middle" x="86.44" y="-14.3" font-family="Times,serif" font-size="14.00">भीम&#45;अर्जुन&#45;समाः (4)</text>
</a>
</g>
</g>
<!-- 2&#45;&gt;4 -->
<g id="edge4" class="edge">
<title>2&#45;&gt;4</title>
<path fill="none" stroke="black" d="M86.44,-86.8C86.44,-75.16 86.44,-59.55 86.44,-46.24"/>
<polygon fill="black" stroke="black" points="89.94,-46.18 86.44,-36.18 82.94,-46.18 89.94,-46.18"/>
<text text-anchor="middle" x="111.94" y="-57.8" font-family="Times,serif" font-size="14.00">विशेषणम्</text>
</g>
<!-- 3 -->
<g id="node3" class="node">
<title>3</title>
<g id="a_node3"><a xlink:title="महत्&#45;इष्वास{पुं}{1;बहु}">
<ellipse fill="#00bfff" stroke="#00bfff" cx="194.44" cy="-192" rx="75.29" ry="18"/>
<text text-anchor="middle" x="194.44" y="-188.3" font-family="Times,serif" font-size="14.00">महत्&#45;इष्वासाः (3)</text>
</a>
</g>
</g>
<!-- 3&#45;&gt;2 -->
<g id="edge2" class="edge">
<title>3&#45;&gt;2</title>
<path fill="none" stroke="black" d="M142.57,-178.81C129.13,-173.61 115.6,-166.27 105.44,-156 99.22,-149.71 95,-141.18 92.15,-132.94"/>
<polygon fill="black" stroke="black" points="95.47,-131.83 89.31,-123.21 88.76,-133.79 95.47,-131.83"/>
<text text-anchor="middle" x="147.94" y="-144.8" font-family="Times,serif" font-size="14.00">सुप्_समुच्चितम्</text>
</g>
<!-- 8 -->
<g id="node8" class="node">
<title>8</title>
<g id="a_node8"><a xlink:title="च{अव्य}">
<ellipse fill="#ff00ff" stroke="#ff00ff" cx="194.44" cy="-105" rx="33.29" ry="18"/>
<text text-anchor="middle" x="194.44" y="-101.3" font-family="Times,serif" font-size="14.00">च (8)</text>
</a>
</g>
</g>
<!-- 3&#45;&gt;8 -->
<g id="edge8" class="edge">
<title>3&#45;&gt;8</title>
<path fill="none" stroke="black" d="M194.44,-173.8C194.44,-162.16 194.44,-146.55 194.44,-133.24"/>
<polygon fill="black" stroke="black" points="197.94,-133.18 194.44,-123.18 190.94,-133.18 197.94,-133.18"/>
<text text-anchor="middle" x="249.94" y="-144.8" font-family="Times,serif" font-size="14.00">सुप्_समुच्चयद्योतकः</text>
</g>
<!-- 5 -->
<g id="node5" class="node">
<title>5</title>
<g id="a_node5"><a xlink:title="युध्{स्त्री}{7;एक}">
<ellipse fill="#708090" stroke="#708090" cx="329.44" cy="-192" rx="41.69" ry="18"/>
<text text-anchor="middle" x="329.44" y="-188.3" font-family="Times,serif" font-size="14.00">युधि (5)</text>
</a>
</g>
</g>
<!-- 5&#45;&gt;1 -->
<g id="edge1" class="edge">
<title>5&#45;&gt;1</title>
<path fill="none" stroke="black" d="M329.44,-173.8C329.44,-162.16 329.44,-146.55 329.44,-133.24"/>
<polygon fill="black" stroke="black" points="332.94,-133.18 329.44,-123.18 325.94,-133.18 332.94,-133.18"/>
<text text-anchor="middle" x="354.94" y="-144.8" font-family="Times,serif" font-size="14.00">विशेषणम्</text>
</g>
<!-- 6 -->
<g id="node6" class="node">
<title>6</title>
<g id="a_node6"><a xlink:title="युयुधान{पुं}{1;एक}">
<ellipse fill="#00bfff" stroke="#00bfff" cx="447.44" cy="-105" rx="55.79" ry="18"/>
<text text-anchor="middle" x="447.44" y="-101.3" font-family="Times,serif" font-size="14.00">युयुधानः (6)</text>
</a>
</g>
</g>
<!-- 7 -->
<g id="node7" class="node">
<title>7</title>
<g id="a_node7"><a xlink:title="विराट{पुं}{1;एक}">
<ellipse fill="#00bfff" stroke="#00bfff" cx="571.44" cy="-105" rx="50.09" ry="18"/>
<text text-anchor="middle" x="571.44" y="-101.3" font-family="Times,serif" font-size="14.00">विराटः (7)</text>
</a>
</g>
</g>
<!-- 9 -->
<g id="node9" class="node">
<title>9</title>
<g id="a_node9"><a xlink:title="द्रुपद{पुं}{1;एक}">
<ellipse fill="#00bfff" stroke="#00bfff" cx="690.44" cy="-105" rx="51.19" ry="18"/>
<text text-anchor="middle" x="690.44" y="-101.3" font-family="Times,serif" font-size="14.00">द्रुपदः (9)</text>
</a>
</g>
</g>
<!-- 11 -->
<g id="node11" class="node">
<title>11</title>
<g id="a_node11"><a xlink:title="महान्&#45;रथ{पुं}{1;एक}">
<ellipse fill="#00bfff" stroke="#00bfff" cx="690.44" cy="-18" rx="67.69" ry="18"/>
<text text-anchor="middle" x="690.44" y="-14.3" font-family="Times,serif" font-size="14.00">महान्&#45;रथः (11)</text>
</a>
</g>
</g>
<!-- 9&#45;&gt;11 -->
<g id="edge11" class="edge">
<title>9&#45;&gt;11</title>
<path fill="none" stroke="black" d="M690.44,-86.8C690.44,-75.16 690.44,-59.55 690.44,-46.24"/>
<polygon fill="black" stroke="black" points="693.94,-46.18 690.44,-36.18 686.94,-46.18 693.94,-46.18"/>
<text text-anchor="middle" x="715.94" y="-57.8" font-family="Times,serif" font-size="14.00">विशेषणम्</text>
</g>
<!-- 10 -->
<g id="node10" class="node">
<title>10</title>
<g id="a_node10"><a xlink:title="च{अव्य}">
<ellipse fill="#ff00ff" stroke="#ff00ff" cx="798.44" cy="-105" rx="38.99" ry="18"/>
<text text-anchor="middle" x="798.44" y="-101.3" font-family="Times,serif" font-size="14.00">च (10)</text>
</a>
</g>
</g>
<!-- 12 -->
<g id="node12" class="node">
<title>12</title>
<g id="a_node12"><a xlink:title="धृष्टकेतु{पुं}{1;एक}">
<ellipse fill="#00bfff" stroke="#00bfff" cx="919.44" cy="-105" rx="63.89" ry="18"/>
<text text-anchor="middle" x="919.44" y="-101.3" font-family="Times,serif" font-size="14.00">धृष्टकेतुः (12)</text>
</a>
</g>
</g>
<!-- 13 -->
<g id="node13" class="node">
<title>13</title>
<g id="a_node13"><a xlink:title="चेकितान{पुं}{1;एक}">
<ellipse fill="#00bfff" stroke="#00bfff" cx="1066.44" cy="-105" rx="64.99" ry="18"/>
<text text-anchor="middle" x="1066.44" y="-101.3" font-family="Times,serif" font-size="14.00">चेकितानः (13)</text>
</a>
</g>
</g>
<!-- 14 -->
<g id="node14" class="node">
<title>14</title>
<g id="a_node14"><a xlink:title="काशिराज{पुं}{1;एक}">
<ellipse fill="#00bfff" stroke="#00bfff" cx="1217.44" cy="-105" rx="67.69" ry="18"/>
<text text-anchor="middle" x="1217.44" y="-101.3" font-family="Times,serif" font-size="14.00">काशिराजः (14)</text>
</a>
</g>
</g>
<!-- 16 -->
<g id="node16" class="node">
<title>16</title>
<g id="a_node16"><a xlink:title="वीर्यवत्{पुं}{1;एक}">
<ellipse fill="#00bfff" stroke="#00bfff" cx="1217.44" cy="-18" rx="59.59" ry="18"/>
<text text-anchor="middle" x="1217.44" y="-14.3" font-family="Times,serif" font-size="14.00">वीर्यवान् (16)</text>
</a>
</g>
</g>
<!-- 14&#45;&gt;16 -->
<g id="edge16" class="edge">
<title>14&#45;&gt;16</title>
<path fill="none" stroke="black" d="M1217.44,-86.8C1217.44,-75.16 1217.44,-59.55 1217.44,-46.24"/>
<polygon fill="black" stroke="black" points="1220.94,-46.18 1217.44,-36.18 1213.94,-46.18 1220.94,-46.18"/>
<text text-anchor="middle" x="1242.94" y="-57.8" font-family="Times,serif" font-size="14.00">विशेषणम्</text>
</g>
<!-- 15 -->
<g id="node15" class="node">
<title>15</title>
<g id="a_node15"><a xlink:title="च{अव्य}">
<ellipse fill="#ff00ff" stroke="#ff00ff" cx="1342.44" cy="-105" rx="38.99" ry="18"/>
<text text-anchor="middle" x="1342.44" y="-101.3" font-family="Times,serif" font-size="14.00">च (15)</text>
</a>
</g>
</g>
<!-- 17 -->
<g id="node17" class="node">
<title>17</title>
<g id="a_node17"><a xlink:title="पुरुजित्{पुं}{1;एक}">
<ellipse fill="#00bfff" stroke="#00bfff" cx="1457.44" cy="-105" rx="57.69" ry="18"/>
<text text-anchor="middle" x="1457.44" y="-101.3" font-family="Times,serif" font-size="14.00">पुरुजित् (17)</text>
</a>
</g>
</g>
<!-- 18 -->
<g id="node18" class="node">
<title>18</title>
<g id="a_node18"><a xlink:title="कुन्तिभोज{पुं}{1;एक}">
<ellipse fill="#00bfff" stroke="#00bfff" cx="1602.44" cy="-105" rx="69.59" ry="18"/>
<text text-anchor="middle" x="1602.44" y="-101.3" font-family="Times,serif" font-size="14.00">कुन्तिभोजः (18)</text>
</a>
</g>
</g>
<!-- 19 -->
<g id="node19" class="node">
<title>19</title>
<g id="a_node19"><a xlink:title="च{अव्य}">
<ellipse fill="#ff00ff" stroke="#ff00ff" cx="1729.44" cy="-105" rx="38.99" ry="18"/>
<text text-anchor="middle" x="1729.44" y="-101.3" font-family="Times,serif" font-size="14.00">च (19)</text>
</a>
</g>
</g>
<!-- 20 -->
<g id="node20" class="node">
<title>20</title>
<g id="a_node20"><a xlink:title="शैब्य{पुं}{1;एक}">
<ellipse fill="#00bfff" stroke="#00bfff" cx="1839.44" cy="-105" rx="52.79" ry="18"/>
<text text-anchor="middle" x="1839.44" y="-101.3" font-family="Times,serif" font-size="14.00">शैब्यः (20)</text>
</a>
</g>
</g>
<!-- 22 -->
<g id="node22" class="node">
<title>22</title>
<g id="a_node22"><a xlink:title="नर&#45;पुङ्गव{पुं}{1;एक}">
<ellipse fill="#00bfff" stroke="#00bfff" cx="1839.44" cy="-18" rx="72.29" ry="18"/>
<text text-anchor="middle" x="1839.44" y="-14.3" font-family="Times,serif" font-size="14.00">नर&#45;पुङ्गवः (22)</text>
</a>
</g>
</g>
<!-- 20&#45;&gt;22 -->
<g id="edge22" class="edge">
<title>20&#45;&gt;22</title>
<path fill="none" stroke="black" d="M1839.44,-86.8C1839.44,-75.16 1839.44,-59.55 1839.44,-46.24"/>
<polygon fill="black" stroke="black" points="1842.94,-46.18 1839.44,-36.18 1835.94,-46.18 1842.94,-46.18"/>
<text text-anchor="middle" x="1864.94" y="-57.8" font-family="Times,serif" font-size="14.00">विशेषणम्</text>
</g>
<!-- 21 -->
<g id="node21" class="node">
<title>21</title>
<g id="a_node21"><a xlink:title="च{अव्य}">
<ellipse fill="#ff00ff" stroke="#ff00ff" cx="1949.44" cy="-105" rx="38.99" ry="18"/>
<text text-anchor="middle" x="1949.44" y="-101.3" font-family="Times,serif" font-size="14.00">च (21)</text>
</a>
</g>
</g>
<!-- 23 -->
<g id="node23" class="node">
<title>23</title>
<g id="a_node23"><a xlink:title="युधामन्यु{पुं}{1;एक}">
<ellipse fill="#00bfff" stroke="#00bfff" cx="2073.44" cy="-105" rx="66.89" ry="18"/>
<text text-anchor="middle" x="2073.44" y="-101.3" font-family="Times,serif" font-size="14.00">युधामन्युः (23)</text>
</a>
</g>
</g>
<!-- 25 -->
<g id="node25" class="node">
<title>25</title>
<g id="a_node25"><a xlink:title="विक्रान्त{पुं}{1;एक}">
<ellipse fill="#00bfff" stroke="#00bfff" cx="2073.44" cy="-18" rx="67.69" ry="18"/>
<text text-anchor="middle" x="2073.44" y="-14.3" font-family="Times,serif" font-size="14.00">विक्रान्तः (25)</text>
</a>
</g>
</g>
<!-- 23&#45;&gt;25 -->
<g id="edge25" class="edge">
<title>23&#45;&gt;25</title>
<path fill="none" stroke="black" d="M2073.44,-86.8C2073.44,-75.16 2073.44,-59.55 2073.44,-46.24"/>
<polygon fill="black" stroke="black" points="2076.94,-46.18 2073.44,-36.18 2069.94,-46.18 2076.94,-46.18"/>
<text text-anchor="middle" x="2098.94" y="-57.8" font-family="Times,serif" font-size="14.00">विशेषणम्</text>
</g>
<!-- 24 -->
<g id="node24" class="node">
<title>24</title>
<g id="a_node24"><a xlink:title="च{अव्य}">
<ellipse fill="#ff00ff" stroke="#ff00ff" cx="2197.44" cy="-105" rx="38.99" ry="18"/>
<text text-anchor="middle" x="2197.44" y="-101.3" font-family="Times,serif" font-size="14.00">च (24)</text>
</a>
</g>
</g>
<!-- 26 -->
<g id="node26" class="node">
<title>26</title>
<g id="a_node26"><a xlink:title="उत्तमौजस्{पुं}{1;एक}">
<ellipse fill="#00bfff" stroke="#00bfff" cx="2322.44" cy="-105" rx="67.69" ry="18"/>
<text text-anchor="middle" x="2322.44" y="-101.3" font-family="Times,serif" font-size="14.00">उत्तमौजाः (26)</text>
</a>
</g>
</g>
<!-- 28 -->
<g id="node28" class="node">
<title>28</title>
<g id="a_node28"><a xlink:title="वीर्यवत्{पुं}{1;एक}">
<ellipse fill="#00bfff" stroke="#00bfff" cx="2322.44" cy="-18" rx="59.59" ry="18"/>
<text text-anchor="middle" x="2322.44" y="-14.3" font-family="Times,serif" font-size="14.00">वीर्यवान् (28)</text>
</a>
</g>
</g>
<!-- 26&#45;&gt;28 -->
<g id="edge28" class="edge">
<title>26&#45;&gt;28</title>
<path fill="none" stroke="black" d="M2322.44,-86.8C2322.44,-75.16 2322.44,-59.55 2322.44,-46.24"/>
<polygon fill="black" stroke="black" points="2325.94,-46.18 2322.44,-36.18 2318.94,-46.18 2325.94,-46.18"/>
<text text-anchor="middle" x="2347.94" y="-57.8" font-family="Times,serif" font-size="14.00">विशेषणम्</text>
</g>
<!-- 27 -->
<g id="node27" class="node">
<title>27</title>
<g id="a_node27"><a xlink:title="च{अव्य}">
<ellipse fill="#ff00ff" stroke="#ff00ff" cx="2447.44" cy="-105" rx="38.99" ry="18"/>
<text text-anchor="middle" x="2447.44" y="-101.3" font-family="Times,serif" font-size="14.00">च (27)</text>
</a>
</g>
</g>
<!-- 29 -->
<g id="node29" class="node">
<title>29</title>
<g id="a_node29"><a xlink:title="सौभद्र{पुं}{1;एक}">
<ellipse fill="#00bfff" stroke="#00bfff" cx="2565.44" cy="-105" rx="61.19" ry="18"/>
<text text-anchor="middle" x="2565.44" y="-101.3" font-family="Times,serif" font-size="14.00">सौभद्रः (29)</text>
</a>
</g>
</g>
<!-- 30 -->
<g id="node30" class="node">
<title>30</title>
<g id="a_node30"><a xlink:title="द्रौपदेय{पुं}{1;बहु}">
<ellipse fill="#00bfff" stroke="#00bfff" cx="2712.44" cy="-105" rx="67.69" ry="18"/>
<text text-anchor="middle" x="2712.44" y="-101.3" font-family="Times,serif" font-size="14.00">द्रौपदेयाः (30)</text>
</a>
</g>
</g>
<!-- 31 -->
<g id="node31" class="node">
<title>31</title>
<g id="a_node31"><a xlink:title="च{अव्य}">
<ellipse fill="#ff00ff" stroke="#ff00ff" cx="2837.44" cy="-105" rx="38.99" ry="18"/>
<text text-anchor="middle" x="2837.44" y="-101.3" font-family="Times,serif" font-size="14.00">च (31)</text>
</a>
</g>
</g>
<!-- 32 -->
<g id="node32" class="node">
<title>32</title>
<g id="a_node32"><a xlink:title="सर्व{पुं}{1;बहु}">
<ellipse fill="#00bfff" stroke="#00bfff" cx="1705.44" cy="-192" rx="44.39" ry="18"/>
<text text-anchor="middle" x="1705.44" y="-188.3" font-family="Times,serif" font-size="14.00">सर्वे (32)</text>
</a>
</g>
</g>
<!-- 32&#45;&gt;6 -->
<g id="edge6" class="edge">
<title>32&#45;&gt;6</title>
<path fill="none" stroke="black" d="M1661.06,-191.15C1459.03,-191.63 631.29,-191.42 521.44,-156 503.72,-150.29 486.34,-138.93 472.89,-128.49"/>
<polygon fill="black" stroke="black" points="475.03,-125.72 465.05,-122.16 470.63,-131.16 475.03,-125.72"/>
<text text-anchor="middle" x="563.94" y="-144.8" font-family="Times,serif" font-size="14.00">सुप्_समुच्चितम्</text>
</g>
<!-- 32&#45;&gt;7 -->
<g id="edge7" class="edge">
<title>32&#45;&gt;7</title>
<path fill="none" stroke="black" d="M1661.05,-191.11C1471.58,-191.36 735.85,-190.12 638.44,-156 622.3,-150.35 606.83,-139.31 594.83,-129.04"/>
<polygon fill="black" stroke="black" points="596.89,-126.19 587.11,-122.12 592.22,-131.4 596.89,-126.19"/>
<text text-anchor="middle" x="680.94" y="-144.8" font-family="Times,serif" font-size="14.00">सुप्_समुच्चितम्</text>
</g>
<!-- 32&#45;&gt;9 -->
<g id="edge9" class="edge">
<title>32&#45;&gt;9</title>
<path fill="none" stroke="black" d="M1661.24,-190.95C1485.43,-190.54 841.12,-186.91 755.44,-156 739.77,-150.35 724.85,-139.42 713.26,-129.21"/>
<polygon fill="black" stroke="black" points="715.53,-126.55 705.81,-122.34 710.79,-131.69 715.53,-126.55"/>
<text text-anchor="middle" x="797.94" y="-144.8" font-family="Times,serif" font-size="14.00">सुप्_समुच्चितम्</text>
</g>
<!-- 32&#45;&gt;10 -->
<g id="edge10" class="edge">
<title>32&#45;&gt;10</title>
<path fill="none" stroke="black" d="M1661.35,-190.47C1500.72,-188.34 952.32,-179.43 877.44,-156 858.15,-149.96 838.93,-137.96 824.28,-127.23"/>
<polygon fill="black" stroke="black" points="826.29,-124.37 816.21,-121.12 822.06,-129.95 826.29,-124.37"/>
<text text-anchor="middle" x="932.94" y="-144.8" font-family="Times,serif" font-size="14.00">सुप्_समुच्चयद्योतकः</text>
</g>
<!-- 32&#45;&gt;12 -->
<g id="edge12" class="edge">
<title>32&#45;&gt;12</title>
<path fill="none" stroke="black" d="M1661.25,-190.72C1531.77,-189.59 1154.96,-183.93 1035.44,-156 1007.79,-149.54 978.43,-136.82 956.17,-125.83"/>
<polygon fill="black" stroke="black" points="957.59,-122.62 947.08,-121.24 954.44,-128.87 957.59,-122.62"/>
<text text-anchor="middle" x="1077.94" y="-144.8" font-family="Times,serif" font-size="14.00">सुप्_समुच्चितम्</text>
</g>
<!-- 32&#45;&gt;13 -->
<g id="edge13" class="edge">
<title>32&#45;&gt;13</title>
<path fill="none" stroke="black" d="M1661.13,-190.56C1548.61,-189.05 1254.16,-182.59 1160.44,-156 1138.49,-149.77 1115.84,-137.92 1098.28,-127.32"/>
<polygon fill="black" stroke="black" points="1099.93,-124.22 1089.59,-121.92 1096.24,-130.17 1099.93,-124.22"/>
<text text-anchor="middle" x="1202.94" y="-144.8" font-family="Times,serif" font-size="14.00">सुप्_समुच्चितम्</text>
</g>
<!-- 32&#45;&gt;14 -->
<g id="edge14" class="edge">
<title>32&#45;&gt;14</title>
<path fill="none" stroke="black" d="M1661.2,-191.01C1565.31,-190.46 1341.37,-185.9 1272.44,-156 1259.36,-150.33 1247.33,-140.24 1237.88,-130.6"/>
<polygon fill="black" stroke="black" points="1240.25,-128.01 1230.88,-123.07 1235.12,-132.78 1240.25,-128.01"/>
<text text-anchor="middle" x="1314.94" y="-144.8" font-family="Times,serif" font-size="14.00">सुप्_समुच्चितम्</text>
</g>
<!-- 32&#45;&gt;15 -->
<g id="edge15" class="edge">
<title>32&#45;&gt;15</title>
<path fill="none" stroke="black" d="M1661.24,-190.74C1583.11,-189.57 1424.42,-183.73 1377.44,-156 1367.86,-150.34 1360.25,-140.92 1354.61,-131.76"/>
<polygon fill="black" stroke="black" points="1357.56,-129.87 1349.62,-122.85 1351.45,-133.29 1357.56,-129.87"/>
<text text-anchor="middle" x="1432.94" y="-144.8" font-family="Times,serif" font-size="14.00">सुप्_समुच्चयद्योतकः</text>
</g>
<!-- 32&#45;&gt;17 -->
<g id="edge17" class="edge">
<title>32&#45;&gt;17</title>
<path fill="none" stroke="black" d="M1661.45,-189.25C1621.83,-186.22 1562.87,-178.03 1516.44,-156 1502.91,-149.58 1489.97,-139.26 1479.67,-129.66"/>
<polygon fill="black" stroke="black" points="1481.95,-127 1472.35,-122.53 1477.07,-132.01 1481.95,-127"/>
<text text-anchor="middle" x="1558.94" y="-144.8" font-family="Times,serif" font-size="14.00">सुप्_समुच्चितम्</text>
</g>
<!-- 32&#45;&gt;18 -->
<g id="edge18" class="edge">
<title>32&#45;&gt;18</title>
<path fill="none" stroke="black" d="M1665.17,-184.3C1647.28,-179.34 1627.38,-170.77 1614.44,-156 1608.9,-149.67 1605.81,-141.23 1604.12,-133.09"/>
<polygon fill="black" stroke="black" points="1607.57,-132.5 1602.65,-123.11 1600.65,-133.52 1607.57,-132.5"/>
<text text-anchor="middle" x="1656.94" y="-144.8" font-family="Times,serif" font-size="14.00">सुप्_समुच्चितम्</text>
</g>
<!-- 32&#45;&gt;19 -->
<g id="edge19" class="edge">
<title>32&#45;&gt;19</title>
<path fill="none" stroke="black" d="M1703.47,-173.96C1702.9,-164.11 1703.15,-151.61 1706.44,-141 1707.51,-137.56 1709.02,-134.15 1710.77,-130.87"/>
<polygon fill="black" stroke="black" points="1713.9,-132.47 1716.14,-122.11 1707.93,-128.81 1713.9,-132.47"/>
<text text-anchor="middle" x="1761.94" y="-144.8" font-family="Times,serif" font-size="14.00">सुप्_समुच्चयद्योतकः</text>
</g>
<!-- 32&#45;&gt;20 -->
<g id="edge20" class="edge">
<title>32&#45;&gt;20</title>
<path fill="none" stroke="black" d="M1747.68,-186.38C1770.66,-181.92 1798.23,-173.18 1817.44,-156 1824.35,-149.82 1829.19,-141.07 1832.54,-132.61"/>
<polygon fill="black" stroke="black" points="1835.9,-133.59 1835.81,-122.99 1829.28,-131.33 1835.9,-133.59"/>
<text text-anchor="middle" x="1869.94" y="-144.8" font-family="Times,serif" font-size="14.00">सुप्_समुच्चितम्</text>
</g>
<!-- 32&#45;&gt;21 -->
<g id="edge21" class="edge">
<title>32&#45;&gt;21</title>
<path fill="none" stroke="black" d="M1748.64,-187.9C1802.11,-183.38 1889.43,-173.54 1916.44,-156 1925.38,-150.2 1932.44,-141.04 1937.71,-132.13"/>
<polygon fill="black" stroke="black" points="1940.91,-133.56 1942.54,-123.09 1934.74,-130.26 1940.91,-133.56"/>
<text text-anchor="middle" x="1986.94" y="-144.8" font-family="Times,serif" font-size="14.00">सुप्_समुच्चयद्योतकः</text>
</g>
<!-- 32&#45;&gt;23 -->
<g id="edge23" class="edge">
<title>32&#45;&gt;23</title>
<path fill="none" stroke="black" d="M1749.82,-191.48C1830.88,-191.56 1998.94,-187.74 2046.44,-156 2054.76,-150.45 2060.72,-141.45 2064.89,-132.62"/>
<polygon fill="black" stroke="black" points="2068.17,-133.84 2068.74,-123.26 2061.7,-131.17 2068.17,-133.84"/>
<text text-anchor="middle" x="2101.94" y="-144.8" font-family="Times,serif" font-size="14.00">सुप्_समुच्चितम्</text>
</g>
<!-- 32&#45;&gt;24 -->
<g id="edge24" class="edge">
<title>32&#45;&gt;24</title>
<path fill="none" stroke="black" d="M1749.73,-191.4C1847.48,-191.65 2078.55,-188.66 2148.44,-156 2160.66,-150.29 2171.49,-140.14 2179.84,-130.47"/>
<polygon fill="black" stroke="black" points="2182.67,-132.54 2186.25,-122.57 2177.23,-128.13 2182.67,-132.54"/>
<text text-anchor="middle" x="2223.94" y="-144.8" font-family="Times,serif" font-size="14.00">सुप्_समुच्चयद्योतकः</text>
</g>
<!-- 32&#45;&gt;26 -->
<g id="edge26" class="edge">
<title>32&#45;&gt;26</title>
<path fill="none" stroke="black" d="M1749.74,-190.4C1876.86,-188.4 2236.68,-180.61 2283.44,-156 2293.78,-150.56 2302.25,-141.04 2308.62,-131.76"/>
<polygon fill="black" stroke="black" points="2311.72,-133.4 2314.08,-123.07 2305.79,-129.68 2311.72,-133.4"/>
<text text-anchor="middle" x="2342.94" y="-144.8" font-family="Times,serif" font-size="14.00">सुप्_समुच्चितम्</text>
</g>
<!-- 32&#45;&gt;27 -->
<g id="edge27" class="edge">
<title>32&#45;&gt;27</title>
<path fill="none" stroke="black" d="M1749.87,-190.39C1892.09,-188.23 2330.4,-179.67 2389.44,-156 2403.6,-150.32 2416.72,-139.69 2426.89,-129.68"/>
<polygon fill="black" stroke="black" points="2429.64,-131.88 2434.05,-122.25 2424.6,-127.02 2429.64,-131.88"/>
<text text-anchor="middle" x="2467.94" y="-144.8" font-family="Times,serif" font-size="14.00">सुप्_समुच्चयद्योतकः</text>
</g>
<!-- 32&#45;&gt;29 -->
<g id="edge29" class="edge">
<title>32&#45;&gt;29</title>
<path fill="none" stroke="black" d="M1749.54,-190.16C1915.21,-186.87 2492.77,-174.13 2527.44,-156 2537.69,-150.64 2545.97,-141.14 2552.16,-131.84"/>
<polygon fill="black" stroke="black" points="2555.24,-133.5 2557.44,-123.14 2549.26,-129.87 2555.24,-133.5"/>
<text text-anchor="middle" x="2585.94" y="-144.8" font-family="Times,serif" font-size="14.00">सुप्_समुच्चितम्</text>
</g>
<!-- 32&#45;&gt;30 -->
<g id="edge30" class="edge">
<title>32&#45;&gt;30</title>
<path fill="none" stroke="black" d="M1749.39,-189.97C1927.72,-185.71 2589.84,-169.09 2632.44,-156 2651.29,-150.21 2670.1,-138.81 2684.74,-128.35"/>
<polygon fill="black" stroke="black" points="2686.89,-131.12 2692.85,-122.36 2682.73,-125.49 2686.89,-131.12"/>
<text text-anchor="middle" x="2706.94" y="-144.8" font-family="Times,serif" font-size="14.00">सुप्_समुच्चितम्</text>
</g>
<!-- 32&#45;&gt;31 -->
<g id="edge31" class="edge">
<title>32&#45;&gt;31</title>
<path fill="none" stroke="black" d="M1749.33,-189.83C1944.95,-184.59 2728.99,-163.17 2753.44,-156 2774.05,-149.96 2794.82,-137.67 2810.54,-126.79"/>
<polygon fill="black" stroke="black" points="2812.63,-129.6 2818.73,-120.93 2808.56,-123.9 2812.63,-129.6"/>
<text text-anchor="middle" x="2842.94" y="-144.8" font-family="Times,serif" font-size="14.00">सुप्_समुच्चयद्योतकः</text>
</g>
<!-- 33 -->
<g id="node33" class="node">
<title>33</title>
<g id="a_node33"><a xlink:title="एव{अव्य}">
<ellipse fill="#ff00ff" stroke="#ff00ff" cx="2962.44" cy="-105" rx="43.59" ry="18"/>
<text text-anchor="middle" x="2962.44" y="-101.3" font-family="Times,serif" font-size="14.00">एव (33)</text>
</a>
</g>
</g>
<!-- 34 -->
<g id="node34" class="node">
<title>34</title>
<g id="a_node34"><a xlink:title="महान्&#45;रथ{पुं}{1;बहु}">
<ellipse fill="#00bfff" stroke="#00bfff" cx="2395.44" cy="-192" rx="70.39" ry="18"/>
<text text-anchor="middle" x="2395.44" y="-188.3" font-family="Times,serif" font-size="14.00">महान्&#45;रथाः (34)</text>
</a>
</g>
</g>
<!-- 34&#45;&gt;33 -->
<g id="edge33" class="edge">
<title>34&#45;&gt;33</title>
<path fill="none" stroke="black" d="M2465.48,-190.51C2603.89,-188.98 2902.42,-182.59 2940.44,-156 2948.24,-150.55 2953.3,-141.7 2956.57,-132.95"/>
<polygon fill="black" stroke="black" points="2959.95,-133.88 2959.57,-123.3 2953.26,-131.81 2959.95,-133.88"/>
<text text-anchor="middle" x="2975.44" y="-144.8" font-family="Times,serif" font-size="14.00">सम्बन्धः</text>
</g>
<!-- 34.1 -->
<g id="node35" class="node">
<title>34.1</title>
<g id="a_node35"><a xlink:title="(अस्2{कर्तरि;लट्;प्र;बहु;परस्मैपदी;असँ;अदादिः})">
<ellipse fill="#ff6347" stroke="#ff6347" cx="2050.44" cy="-279" rx="66.09" ry="18"/>
<text text-anchor="middle" x="2050.44" y="-275.3" font-family="Times,serif" font-size="14.00">(सन्ति) (34.1)</text>
</a>
</g>
</g>
<!-- 34.1&#45;&gt;32 -->
<g id="edge32" class="edge">
<title>34.1&#45;&gt;32</title>
<path fill="none" stroke="black" d="M2003.19,-266.36C1937.33,-250.13 1818.61,-220.88 1752.72,-204.65"/>
<polygon fill="black" stroke="black" points="1753.17,-201.15 1742.62,-202.16 1751.49,-207.95 1753.17,-201.15"/>
<text text-anchor="middle" x="1910.94" y="-231.8" font-family="Times,serif" font-size="14.00">कर्ता</text>
</g>
<!-- 34.1&#45;&gt;34 -->
<g id="edge34" class="edge">
<title>34.1&#45;&gt;34</title>
<path fill="none" stroke="black" d="M2097.69,-266.36C2159.83,-251.05 2269.01,-224.15 2336.49,-207.52"/>
<polygon fill="black" stroke="black" points="2337.67,-210.84 2346.54,-205.05 2335.99,-204.04 2337.67,-210.84"/>
<text text-anchor="middle" x="2295.44" y="-231.8" font-family="Times,serif" font-size="14.00">कर्तृसमानाधिकरणम्</text>
</g>
<!-- 35 -->
<g id="node36" class="node">
<title>35</title>
<ellipse fill="lightgrey" stroke="black" cx="261.44" cy="-279" rx="27" ry="18"/>
<text text-anchor="middle" x="261.44" y="-275.3" font-family="Times,serif" font-size="14.00">35</text>
</g>
<!-- 35&#45;&gt;3 -->
<g id="edge3" class="edge">
<title>35&#45;&gt;3</title>
<path fill="none" stroke="black" d="M237.24,-270.56C223.83,-265.14 208.16,-256.35 199.44,-243 195.07,-236.29 193.18,-227.97 192.57,-220.05"/>
<polygon fill="black" stroke="black" points="196.07,-219.98 192.4,-210.04 189.07,-220.1 196.07,-219.98"/>
<text text-anchor="middle" x="251.44" y="-231.8" font-family="Times,serif" font-size="14.00">कर्तृसमानाधिकरणम्</text>
</g>
<!-- 35&#45;&gt;5 -->
<g id="edge5" class="edge">
<title>35&#45;&gt;5</title>
<path fill="none" stroke="black" d="M279.61,-265.42C287.59,-259.29 296.66,-251.43 303.44,-243 309.17,-235.88 314.19,-227.3 318.24,-219.27"/>
<polygon fill="black" stroke="black" points="321.41,-220.75 322.54,-210.21 315.09,-217.74 321.41,-220.75"/>
<text text-anchor="middle" x="343.94" y="-231.8" font-family="Times,serif" font-size="14.00">अधिकरणम्</text>
</g>
</g>
</svg>
