<?xml version="1.0" encoding="UTF-8" standalone="no"?>
<!DOCTYPE svg PUBLIC "-//W3C//DTD SVG 1.1//EN"
 "http://www.w3.org/Graphics/SVG/1.1/DTD/svg11.dtd">
<!-- Generated by graphviz version 2.43.0 (0)
 -->
<!-- Title: %3 Pages: 1 -->
<svg width="2057pt" height="392pt"
 viewBox="0.00 0.00 2057.45 392.00" xmlns="http://www.w3.org/2000/svg" xmlns:xlink="http://www.w3.org/1999/xlink">
<g id="graph0" class="graph" transform="scale(1 1) rotate(0) translate(4 388)">
<title>%3</title>
<polygon fill="#fffacd" stroke="transparent" points="-4,4 -4,-388 2053.45,-388 2053.45,4 -4,4"/>
<!-- 1 -->
<g id="node1" class="node">
<title>1</title>
<g id="a_node1"><a xlink:title="यद्{पुं}{6;बहु}">
<ellipse fill="#87ceeb" stroke="#87ceeb" cx="47.45" cy="-192" rx="47.39" ry="18"/>
<text text-anchor="middle" x="47.45" y="-188.3" font-family="Times,serif" font-size="14.00">येषाम् (1)</text>
</a>
</g>
</g>
<!-- 2 -->
<g id="node2" class="node">
<title>2</title>
<g id="a_node2"><a xlink:title="अर्थ{पुं}{7;एक}">
<ellipse fill="#708090" stroke="#708090" cx="78.45" cy="-279" rx="40.09" ry="18"/>
<text text-anchor="middle" x="78.45" y="-275.3" font-family="Times,serif" font-size="14.00">अर्थे (2)</text>
</a>
</g>
</g>
<!-- 2&#45;&gt;1 -->
<g id="edge1" class="edge">
<title>2&#45;&gt;1</title>
<path fill="none" stroke="black" d="M72.32,-261.21C68.02,-249.41 62.17,-233.38 57.23,-219.82"/>
<polygon fill="black" stroke="black" points="60.38,-218.24 53.66,-210.05 53.8,-220.64 60.38,-218.24"/>
<text text-anchor="middle" x="101.45" y="-231.8" font-family="Times,serif" font-size="14.00">षष्ठीसम्बन्धः</text>
</g>
<!-- 3 -->
<g id="node3" class="node">
<title>3</title>
<g id="a_node3"><a xlink:title="काङ्क्ष्1{कृत्_प्रत्ययः:क्त;काक्षिँ;भ्वादिः;नपुं}{1;एक}">
<ellipse fill="#00bfff" stroke="#00bfff" cx="152.45" cy="-366" rx="63.89" ry="18"/>
<text text-anchor="middle" x="152.45" y="-362.3" font-family="Times,serif" font-size="14.00">काङ्क्षितम् (3)</text>
</a>
</g>
</g>
<!-- 3&#45;&gt;2 -->
<g id="edge2" class="edge">
<title>3&#45;&gt;2</title>
<path fill="none" stroke="black" d="M137.83,-348.21C126.84,-335.59 111.64,-318.13 99.37,-304.03"/>
<polygon fill="black" stroke="black" points="101.74,-301.43 92.53,-296.18 96.46,-306.02 101.74,-301.43"/>
<text text-anchor="middle" x="147.95" y="-318.8" font-family="Times,serif" font-size="14.00">प्रयोजनम्</text>
</g>
<!-- 5 -->
<g id="node5" class="node">
<title>5</title>
<g id="a_node5"><a xlink:title="राज्य{नपुं}{1;एक}">
<ellipse fill="#00bfff" stroke="#00bfff" cx="217.45" cy="-279" rx="50.89" ry="18"/>
<text text-anchor="middle" x="217.45" y="-275.3" font-family="Times,serif" font-size="14.00">राज्यम् (5)</text>
</a>
</g>
</g>
<!-- 3&#45;&gt;5 -->
<g id="edge4" class="edge">
<title>3&#45;&gt;5</title>
<path fill="none" stroke="black" d="M165.29,-348.21C174.79,-335.79 187.87,-318.67 198.56,-304.7"/>
<polygon fill="black" stroke="black" points="201.56,-306.54 204.85,-296.47 196,-302.29 201.56,-306.54"/>
<text text-anchor="middle" x="199.45" y="-318.8" font-family="Times,serif" font-size="14.00">कर्म</text>
</g>
<!-- 4 -->
<g id="node4" class="node">
<title>4</title>
<g id="a_node4"><a xlink:title="अस्मद्{6;बहु}">
<ellipse fill="#87ceeb" stroke="#87ceeb" cx="381.45" cy="-105" rx="36" ry="18"/>
<text text-anchor="middle" x="381.45" y="-101.3" font-family="Times,serif" font-size="14.00">नः (4)</text>
</a>
</g>
</g>
<!-- 6 -->
<g id="node6" class="node">
<title>6</title>
<g id="a_node6"><a xlink:title="भोग{पुं}{1;बहु}">
<ellipse fill="#00bfff" stroke="#00bfff" cx="160.45" cy="-192" rx="47.39" ry="18"/>
<text text-anchor="middle" x="160.45" y="-188.3" font-family="Times,serif" font-size="14.00">भोगाः (6)</text>
</a>
</g>
</g>
<!-- 5&#45;&gt;6 -->
<g id="edge5" class="edge">
<title>5&#45;&gt;6</title>
<path fill="none" stroke="black" d="M188.31,-264.07C179.94,-258.65 171.67,-251.64 166.45,-243 162.4,-236.32 160.45,-228.2 159.62,-220.48"/>
<polygon fill="black" stroke="black" points="163.11,-220.15 159.1,-210.35 156.12,-220.51 163.11,-220.15"/>
<text text-anchor="middle" x="208.95" y="-231.8" font-family="Times,serif" font-size="14.00">सुप्_समुच्चितम्</text>
</g>
<!-- 7 -->
<g id="node7" class="node">
<title>7</title>
<g id="a_node7"><a xlink:title="सुख{नपुं}{2;बहु}">
<ellipse fill="#7cfc00" stroke="#7cfc00" cx="276.45" cy="-192" rx="50.89" ry="18"/>
<text text-anchor="middle" x="276.45" y="-188.3" font-family="Times,serif" font-size="14.00">सुखानि (7)</text>
</a>
</g>
</g>
<!-- 5&#45;&gt;7 -->
<g id="edge6" class="edge">
<title>5&#45;&gt;7</title>
<path fill="none" stroke="black" d="M235.17,-261.85C240.78,-256.21 246.74,-249.63 251.45,-243 256.64,-235.69 261.34,-227.14 265.23,-219.2"/>
<polygon fill="black" stroke="black" points="268.49,-220.48 269.55,-209.94 262.15,-217.52 268.49,-220.48"/>
<text text-anchor="middle" x="302.95" y="-231.8" font-family="Times,serif" font-size="14.00">सुप्_समुच्चितम्</text>
</g>
<!-- 8 -->
<g id="node8" class="node">
<title>8</title>
<g id="a_node8"><a xlink:title="च{अव्य}">
<ellipse fill="#ff00ff" stroke="#ff00ff" cx="381.45" cy="-192" rx="33.29" ry="18"/>
<text text-anchor="middle" x="381.45" y="-188.3" font-family="Times,serif" font-size="14.00">च (8)</text>
</a>
</g>
</g>
<!-- 5&#45;&gt;8 -->
<g id="edge7" class="edge">
<title>5&#45;&gt;8</title>
<path fill="none" stroke="black" d="M266.01,-273.76C292.7,-269.43 325.22,-260.68 349.45,-243 357.97,-236.78 364.8,-227.53 369.92,-218.68"/>
<polygon fill="black" stroke="black" points="373.07,-220.21 374.64,-209.73 366.88,-216.94 373.07,-220.21"/>
<text text-anchor="middle" x="405.95" y="-231.8" font-family="Times,serif" font-size="14.00">समुच्चयद्योतकः</text>
</g>
<!-- 8&#45;&gt;4 -->
<g id="edge3" class="edge">
<title>8&#45;&gt;4</title>
<path fill="none" stroke="black" d="M381.45,-173.8C381.45,-162.16 381.45,-146.55 381.45,-133.24"/>
<polygon fill="black" stroke="black" points="384.95,-133.18 381.45,-123.18 377.95,-133.18 384.95,-133.18"/>
<text text-anchor="middle" x="417.45" y="-144.8" font-family="Times,serif" font-size="14.00">षष्ठीसम्बन्धः</text>
</g>
<!-- 9 -->
<g id="node9" class="node">
<title>9</title>
<g id="a_node9"><a xlink:title="तद्{पुं}{1;बहु}">
<ellipse fill="#00bfff" stroke="#00bfff" cx="699.45" cy="-105" rx="32.49" ry="18"/>
<text text-anchor="middle" x="699.45" y="-101.3" font-family="Times,serif" font-size="14.00">ते (9)</text>
</a>
</g>
</g>
<!-- 10 -->
<g id="node10" class="node">
<title>10</title>
<g id="a_node10"><a xlink:title="इदम्{पुं}{1;बहु}">
<ellipse fill="#00bfff" stroke="#00bfff" cx="793.45" cy="-105" rx="43.59" ry="18"/>
<text text-anchor="middle" x="793.45" y="-101.3" font-family="Times,serif" font-size="14.00">इमे (10)</text>
</a>
</g>
</g>
<!-- 11 -->
<g id="node11" class="node">
<title>11</title>
<g id="a_node11"><a xlink:title="अव_स्था1{कृत्_प्रत्ययः:क्त;अव_ष्ठा;भ्वादिः;पुं}{1;बहु}">
<ellipse fill="#00bfff" stroke="#00bfff" cx="1173.45" cy="-366" rx="70.69" ry="18"/>
<text text-anchor="middle" x="1173.45" y="-362.3" font-family="Times,serif" font-size="14.00">अवस्थिताः (11)</text>
</a>
</g>
</g>
<!-- 12 -->
<g id="node12" class="node">
<title>12</title>
<g id="a_node12"><a xlink:title="युद्ध{नपुं}{7;एक}">
<ellipse fill="#708090" stroke="#708090" cx="989.45" cy="-279" rx="45.49" ry="18"/>
<text text-anchor="middle" x="989.45" y="-275.3" font-family="Times,serif" font-size="14.00">युद्धे (12)</text>
</a>
</g>
</g>
<!-- 11&#45;&gt;12 -->
<g id="edge10" class="edge">
<title>11&#45;&gt;12</title>
<path fill="none" stroke="black" d="M1126.81,-352.37C1107.96,-346.56 1086.26,-338.96 1067.45,-330 1050.49,-321.92 1032.77,-310.81 1018.52,-301.12"/>
<polygon fill="black" stroke="black" points="1020.34,-298.12 1010.13,-295.3 1016.35,-303.87 1020.34,-298.12"/>
<text text-anchor="middle" x="1097.95" y="-318.8" font-family="Times,serif" font-size="14.00">अधिकरणम्</text>
</g>
<!-- 14 -->
<g id="node14" class="node">
<title>14</title>
<g id="a_node14"><a xlink:title="त्यज्1{कृत्_प्रत्ययः:क्त्वा;त्यजँ;भ्वादिः}">
<ellipse fill="#808080" stroke="#808080" cx="1111.45" cy="-279" rx="58.49" ry="18"/>
<text text-anchor="middle" x="1111.45" y="-275.3" font-family="Times,serif" font-size="14.00">त्यक्त्वा (14)</text>
</a>
</g>
</g>
<!-- 11&#45;&gt;14 -->
<g id="edge12" class="edge">
<title>11&#45;&gt;14</title>
<path fill="none" stroke="black" d="M1157.71,-348.4C1152.62,-342.74 1147.1,-336.25 1142.45,-330 1136.77,-322.38 1131.13,-313.7 1126.25,-305.73"/>
<polygon fill="black" stroke="black" points="1129.24,-303.91 1121.09,-297.14 1123.23,-307.51 1129.24,-303.91"/>
<text text-anchor="middle" x="1166.95" y="-318.8" font-family="Times,serif" font-size="14.00">पूर्वकालः</text>
</g>
<!-- 17 -->
<g id="node17" class="node">
<title>17</title>
<g id="a_node17"><a xlink:title="आचार्य{पुं}{1;बहु}">
<ellipse fill="#00bfff" stroke="#00bfff" cx="1205.45" cy="-192" rx="62.29" ry="18"/>
<text text-anchor="middle" x="1205.45" y="-188.3" font-family="Times,serif" font-size="14.00">आचार्याः (17)</text>
</a>
</g>
</g>
<!-- 11&#45;&gt;17 -->
<g id="edge15" class="edge">
<title>11&#45;&gt;17</title>
<path fill="none" stroke="black" d="M1183.75,-348.09C1186.71,-342.51 1189.62,-336.16 1191.45,-330 1202.37,-293.17 1205.1,-248.61 1205.61,-220.52"/>
<polygon fill="black" stroke="black" points="1209.12,-220.3 1205.72,-210.27 1202.12,-220.23 1209.12,-220.3"/>
<text text-anchor="middle" x="1215.95" y="-275.3" font-family="Times,serif" font-size="14.00">कर्ता</text>
</g>
<!-- 20 -->
<g id="node20" class="node">
<title>20</title>
<g id="a_node20"><a xlink:title="तथैव{अव्य}">
<ellipse fill="#ff00ff" stroke="#ff00ff" cx="1310.45" cy="-279" rx="62.29" ry="18"/>
<text text-anchor="middle" x="1310.45" y="-275.3" font-family="Times,serif" font-size="14.00">तथा_एव (20)</text>
</a>
</g>
</g>
<!-- 11&#45;&gt;20 -->
<g id="edge19" class="edge">
<title>11&#45;&gt;20</title>
<path fill="none" stroke="black" d="M1199.21,-349.01C1221.07,-335.45 1252.59,-315.9 1276.5,-301.06"/>
<polygon fill="black" stroke="black" points="1278.6,-303.88 1285.26,-295.63 1274.91,-297.93 1278.6,-303.88"/>
<text text-anchor="middle" x="1273.45" y="-318.8" font-family="Times,serif" font-size="14.00">सम्बन्धः</text>
</g>
<!-- 13 -->
<g id="node13" class="node">
<title>13</title>
<g id="a_node13"><a xlink:title="प्राण{पुं}{2;बहु}">
<ellipse fill="#7cfc00" stroke="#7cfc00" cx="601.45" cy="-192" rx="58.49" ry="18"/>
<text text-anchor="middle" x="601.45" y="-188.3" font-family="Times,serif" font-size="14.00">प्राणान् (13)</text>
</a>
</g>
</g>
<!-- 15 -->
<g id="node15" class="node">
<title>15</title>
<g id="a_node15"><a xlink:title="धन{नपुं}{2;बहु}">
<ellipse fill="#7cfc00" stroke="#7cfc00" cx="489.45" cy="-105" rx="54.69" ry="18"/>
<text text-anchor="middle" x="489.45" y="-101.3" font-family="Times,serif" font-size="14.00">धनानि (15)</text>
</a>
</g>
</g>
<!-- 13&#45;&gt;15 -->
<g id="edge13" class="edge">
<title>13&#45;&gt;15</title>
<path fill="none" stroke="black" d="M556.02,-180.55C540.73,-175.24 524.51,-167.4 512.45,-156 505.76,-149.68 500.85,-141.04 497.32,-132.72"/>
<polygon fill="black" stroke="black" points="500.57,-131.4 493.8,-123.25 494.01,-133.84 500.57,-131.4"/>
<text text-anchor="middle" x="554.95" y="-144.8" font-family="Times,serif" font-size="14.00">सुप्_समुच्चितम्</text>
</g>
<!-- 16 -->
<g id="node16" class="node">
<title>16</title>
<g id="a_node16"><a xlink:title="च{अव्य}">
<ellipse fill="#ff00ff" stroke="#ff00ff" cx="601.45" cy="-105" rx="38.99" ry="18"/>
<text text-anchor="middle" x="601.45" y="-101.3" font-family="Times,serif" font-size="14.00">च (16)</text>
</a>
</g>
</g>
<!-- 13&#45;&gt;16 -->
<g id="edge14" class="edge">
<title>13&#45;&gt;16</title>
<path fill="none" stroke="black" d="M601.45,-173.8C601.45,-162.16 601.45,-146.55 601.45,-133.24"/>
<polygon fill="black" stroke="black" points="604.95,-133.18 601.45,-123.18 597.95,-133.18 604.95,-133.18"/>
<text text-anchor="middle" x="643.95" y="-144.8" font-family="Times,serif" font-size="14.00">समुच्चयद्योतकः</text>
</g>
<!-- 14&#45;&gt;13 -->
<g id="edge11" class="edge">
<title>14&#45;&gt;13</title>
<path fill="none" stroke="black" d="M1068.41,-266.61C1060.16,-264.6 1051.56,-262.63 1043.45,-261 909.61,-234.03 751.08,-212.03 664.93,-200.89"/>
<polygon fill="black" stroke="black" points="665.16,-197.39 654.79,-199.59 664.27,-204.34 665.16,-197.39"/>
<text text-anchor="middle" x="945.45" y="-231.8" font-family="Times,serif" font-size="14.00">कर्म</text>
</g>
<!-- 14&#45;&gt;17 -->
<g id="edge16" class="edge">
<title>14&#45;&gt;17</title>
<path fill="none" stroke="black" stroke-dasharray="1,5" d="M1129.25,-261.76C1140.01,-251.96 1154,-239.24 1166.45,-228 1170.67,-224.19 1175.15,-220.15 1179.52,-216.23"/>
<polygon fill="black" stroke="black" points="1182.07,-218.64 1187.17,-209.36 1177.39,-213.43 1182.07,-218.64"/>
<text text-anchor="middle" x="1178.95" y="-231.8" font-family="Times,serif" font-size="14.00">कर्ता</text>
</g>
<!-- 17&#45;&gt;9 -->
<g id="edge8" class="edge">
<title>17&#45;&gt;9</title>
<path fill="none" stroke="black" d="M1143.93,-188.66C1046.18,-184.46 859.96,-174.31 796.45,-156 772.2,-149.01 746.92,-135.76 728.25,-124.65"/>
<polygon fill="black" stroke="black" points="730.01,-121.63 719.65,-119.41 726.37,-127.6 730.01,-121.63"/>
<text text-anchor="middle" x="821.95" y="-144.8" font-family="Times,serif" font-size="14.00">विशेषणम्</text>
</g>
<!-- 17&#45;&gt;10 -->
<g id="edge9" class="edge">
<title>17&#45;&gt;10</title>
<path fill="none" stroke="black" d="M1142.95,-191.26C1077.37,-189.9 971.98,-183.09 885.45,-156 863.58,-149.16 840.95,-136.93 823.6,-126.28"/>
<polygon fill="black" stroke="black" points="825.37,-123.26 815.04,-120.9 821.64,-129.19 825.37,-123.26"/>
<text text-anchor="middle" x="910.95" y="-144.8" font-family="Times,serif" font-size="14.00">विशेषणम्</text>
</g>
<!-- 18 -->
<g id="node18" class="node">
<title>18</title>
<g id="a_node18"><a xlink:title="पितृ{पुं}{1;बहु}">
<ellipse fill="#00bfff" stroke="#00bfff" cx="908.45" cy="-105" rx="53.09" ry="18"/>
<text text-anchor="middle" x="908.45" y="-101.3" font-family="Times,serif" font-size="14.00">पितरः (18)</text>
</a>
</g>
</g>
<!-- 17&#45;&gt;18 -->
<g id="edge17" class="edge">
<title>17&#45;&gt;18</title>
<path fill="none" stroke="black" d="M1145.8,-186.59C1084.3,-181.32 993.05,-171.24 961.45,-156 948.86,-149.93 937.27,-139.79 928.15,-130.22"/>
<polygon fill="black" stroke="black" points="930.71,-127.83 921.4,-122.76 925.52,-132.52 930.71,-127.83"/>
<text text-anchor="middle" x="1003.95" y="-144.8" font-family="Times,serif" font-size="14.00">सुप्_समुच्चितम्</text>
</g>
<!-- 19 -->
<g id="node19" class="node">
<title>19</title>
<g id="a_node19"><a xlink:title="पुत्र{पुं}{1;बहु}">
<ellipse fill="#00bfff" stroke="#00bfff" cx="1033.45" cy="-105" rx="53.89" ry="18"/>
<text text-anchor="middle" x="1033.45" y="-101.3" font-family="Times,serif" font-size="14.00">पुत्राः (19)</text>
</a>
</g>
</g>
<!-- 17&#45;&gt;19 -->
<g id="edge18" class="edge">
<title>17&#45;&gt;19</title>
<path fill="none" stroke="black" d="M1145.93,-186.44C1118.99,-181.95 1087.99,-173.15 1064.45,-156 1056.2,-149.99 1049.67,-141.06 1044.77,-132.41"/>
<polygon fill="black" stroke="black" points="1047.77,-130.57 1040.09,-123.27 1041.54,-133.76 1047.77,-130.57"/>
<text text-anchor="middle" x="1106.95" y="-144.8" font-family="Times,serif" font-size="14.00">सुप्_समुच्चितम्</text>
</g>
<!-- 21 -->
<g id="node21" class="node">
<title>21</title>
<g id="a_node21"><a xlink:title="च{अव्य}">
<ellipse fill="#ff00ff" stroke="#ff00ff" cx="1144.45" cy="-105" rx="38.99" ry="18"/>
<text text-anchor="middle" x="1144.45" y="-101.3" font-family="Times,serif" font-size="14.00">च (21)</text>
</a>
</g>
</g>
<!-- 17&#45;&gt;21 -->
<g id="edge20" class="edge">
<title>17&#45;&gt;21</title>
<path fill="none" stroke="black" d="M1180.12,-175.5C1172.94,-170.08 1165.66,-163.46 1160.45,-156 1155.73,-149.25 1152.35,-141.03 1149.95,-133.22"/>
<polygon fill="black" stroke="black" points="1153.28,-132.12 1147.33,-123.35 1146.51,-133.92 1153.28,-132.12"/>
<text text-anchor="middle" x="1202.95" y="-144.8" font-family="Times,serif" font-size="14.00">समुच्चयद्योतकः</text>
</g>
<!-- 22 -->
<g id="node22" class="node">
<title>22</title>
<g id="a_node22"><a xlink:title="पितामह{पुं}{1;बहु}">
<ellipse fill="#00bfff" stroke="#00bfff" cx="1267.45" cy="-105" rx="65.79" ry="18"/>
<text text-anchor="middle" x="1267.45" y="-101.3" font-family="Times,serif" font-size="14.00">पितामहाः (22)</text>
</a>
</g>
</g>
<!-- 17&#45;&gt;22 -->
<g id="edge21" class="edge">
<title>17&#45;&gt;22</title>
<path fill="none" stroke="black" d="M1227.06,-175.09C1233.56,-169.57 1240.31,-162.99 1245.45,-156 1250.63,-148.93 1254.94,-140.45 1258.33,-132.5"/>
<polygon fill="black" stroke="black" points="1261.59,-133.78 1262.01,-123.19 1255.08,-131.21 1261.59,-133.78"/>
<text text-anchor="middle" x="1296.95" y="-144.8" font-family="Times,serif" font-size="14.00">सुप्_समुच्चितम्</text>
</g>
<!-- 23 -->
<g id="node23" class="node">
<title>23</title>
<g id="a_node23"><a xlink:title="मातुल{पुं}{1;बहु}">
<ellipse fill="#00bfff" stroke="#00bfff" cx="1410.45" cy="-105" rx="59.59" ry="18"/>
<text text-anchor="middle" x="1410.45" y="-101.3" font-family="Times,serif" font-size="14.00">मातुलाः (23)</text>
</a>
</g>
</g>
<!-- 17&#45;&gt;23 -->
<g id="edge22" class="edge">
<title>17&#45;&gt;23</title>
<path fill="none" stroke="black" d="M1258.9,-182.53C1285.21,-177.11 1316.89,-168.65 1343.45,-156 1358.24,-148.95 1373.02,-138.39 1384.92,-128.79"/>
<polygon fill="black" stroke="black" points="1387.22,-131.43 1392.67,-122.35 1382.74,-126.05 1387.22,-131.43"/>
<text text-anchor="middle" x="1409.95" y="-144.8" font-family="Times,serif" font-size="14.00">सुप्_समुच्चितम्</text>
</g>
<!-- 24 -->
<g id="node24" class="node">
<title>24</title>
<g id="a_node24"><a xlink:title="श्वशुर{पुं}{1;बहु}">
<ellipse fill="#00bfff" stroke="#00bfff" cx="1548.45" cy="-105" rx="59.59" ry="18"/>
<text text-anchor="middle" x="1548.45" y="-101.3" font-family="Times,serif" font-size="14.00">श्वशुराः (24)</text>
</a>
</g>
</g>
<!-- 17&#45;&gt;24 -->
<g id="edge23" class="edge">
<title>17&#45;&gt;24</title>
<path fill="none" stroke="black" d="M1266.93,-188.57C1318.61,-185.09 1393.87,-176.61 1456.45,-156 1477.62,-149.03 1499.62,-137.26 1516.79,-126.89"/>
<polygon fill="black" stroke="black" points="1518.64,-129.87 1525.3,-121.63 1514.96,-123.91 1518.64,-129.87"/>
<text text-anchor="middle" x="1532.95" y="-144.8" font-family="Times,serif" font-size="14.00">सुप्_समुच्चितम्</text>
</g>
<!-- 25 -->
<g id="node25" class="node">
<title>25</title>
<g id="a_node25"><a xlink:title="पौत्र{पुं}{1;बहु}">
<ellipse fill="#00bfff" stroke="#00bfff" cx="1683.45" cy="-105" rx="57.39" ry="18"/>
<text text-anchor="middle" x="1683.45" y="-101.3" font-family="Times,serif" font-size="14.00">पौत्राः (25)</text>
</a>
</g>
</g>
<!-- 17&#45;&gt;25 -->
<g id="edge24" class="edge">
<title>17&#45;&gt;25</title>
<path fill="none" stroke="black" d="M1267.87,-191.84C1343.13,-191.34 1472.78,-185.61 1579.45,-156 1603.94,-149.2 1629.71,-136.86 1649.47,-126.13"/>
<polygon fill="black" stroke="black" points="1651.33,-129.1 1658.37,-121.19 1647.93,-122.98 1651.33,-129.1"/>
<text text-anchor="middle" x="1659.95" y="-144.8" font-family="Times,serif" font-size="14.00">सुप्_समुच्चितम्</text>
</g>
<!-- 26 -->
<g id="node26" class="node">
<title>26</title>
<g id="a_node26"><a xlink:title="श्याल{पुं}{1;बहु}">
<ellipse fill="#00bfff" stroke="#00bfff" cx="1817.45" cy="-105" rx="59.29" ry="18"/>
<text text-anchor="middle" x="1817.45" y="-101.3" font-family="Times,serif" font-size="14.00">श्यालाः (26)</text>
</a>
</g>
</g>
<!-- 17&#45;&gt;26 -->
<g id="edge25" class="edge">
<title>17&#45;&gt;26</title>
<path fill="none" stroke="black" d="M1267.61,-189.39C1382.79,-185.95 1625.06,-176.48 1706.45,-156 1732.87,-149.35 1760.83,-136.72 1782.08,-125.82"/>
<polygon fill="black" stroke="black" points="1783.81,-128.86 1791.04,-121.11 1780.56,-122.66 1783.81,-128.86"/>
<text text-anchor="middle" x="1789.95" y="-144.8" font-family="Times,serif" font-size="14.00">सुप्_समुच्चितम्</text>
</g>
<!-- 27 -->
<g id="node27" class="node">
<title>27</title>
<g id="a_node27"><a xlink:title="सम्बन्धिन्{पुं}{1;बहु}">
<ellipse fill="#00bfff" stroke="#00bfff" cx="1964.45" cy="-105" rx="69.59" ry="18"/>
<text text-anchor="middle" x="1964.45" y="-101.3" font-family="Times,serif" font-size="14.00">सम्बन्धिनः (27)</text>
</a>
</g>
</g>
<!-- 17&#45;&gt;27 -->
<g id="edge26" class="edge">
<title>17&#45;&gt;27</title>
<path fill="none" stroke="black" d="M1267.68,-190.05C1404.81,-187.54 1729.3,-179.28 1836.45,-156 1866.91,-149.38 1899.62,-136.5 1924.35,-125.46"/>
<polygon fill="black" stroke="black" points="1926.09,-128.51 1933.75,-121.19 1923.2,-122.14 1926.09,-128.51"/>
<text text-anchor="middle" x="1924.95" y="-144.8" font-family="Times,serif" font-size="14.00">सुप्_समुच्चितम्</text>
</g>
<!-- 28 -->
<g id="node28" class="node">
<title>28</title>
<g id="a_node28"><a xlink:title="तथा{अव्य}">
<ellipse fill="#ff00ff" stroke="#ff00ff" cx="1964.45" cy="-18" rx="46.59" ry="18"/>
<text text-anchor="middle" x="1964.45" y="-14.3" font-family="Times,serif" font-size="14.00">तथा (28)</text>
</a>
</g>
</g>
<!-- 27&#45;&gt;28 -->
<g id="edge27" class="edge">
<title>27&#45;&gt;28</title>
<path fill="none" stroke="black" d="M1964.45,-86.8C1964.45,-75.16 1964.45,-59.55 1964.45,-46.24"/>
<polygon fill="black" stroke="black" points="1967.95,-46.18 1964.45,-36.18 1960.95,-46.18 1967.95,-46.18"/>
<text text-anchor="middle" x="2006.95" y="-57.8" font-family="Times,serif" font-size="14.00">समुच्चयद्योतकः</text>
</g>
</g>
</svg>
