<?xml version="1.0" encoding="UTF-8" standalone="no"?>
<!DOCTYPE svg PUBLIC "-//W3C//DTD SVG 1.1//EN"
 "http://www.w3.org/Graphics/SVG/1.1/DTD/svg11.dtd">
<!-- Generated by graphviz version 2.43.0 (0)
 -->
<!-- Title: %3 Pages: 1 -->
<svg width="737pt" height="305pt"
 viewBox="0.00 0.00 737.40 305.00" xmlns="http://www.w3.org/2000/svg" xmlns:xlink="http://www.w3.org/1999/xlink">
<g id="graph0" class="graph" transform="scale(1 1) rotate(0) translate(4 301)">
<title>%3</title>
<polygon fill="#fffacd" stroke="transparent" points="-4,4 -4,-301 733.4,-301 733.4,4 -4,4"/>
<!-- 1 -->
<g id="node1" class="node">
<title>1</title>
<g id="a_node1"><a xlink:title="वि_हा2{कृत्_प्रत्ययः:ल्यप्;वि_ओँहाङ्;जुहोत्यादिः}">
<ellipse fill="#808080" stroke="#808080" cx="91.4" cy="-192" rx="48.19" ry="18"/>
<text text-anchor="middle" x="91.4" y="-188.3" font-family="Times,serif" font-size="14.00">विहाय (1)</text>
</a>
</g>
</g>
<!-- 2 -->
<g id="node2" class="node">
<title>2</title>
<g id="a_node2"><a xlink:title="काम{पुं}{2;बहु}">
<ellipse fill="#7cfc00" stroke="#7cfc00" cx="49.4" cy="-105" rx="49.29" ry="18"/>
<text text-anchor="middle" x="49.4" y="-101.3" font-family="Times,serif" font-size="14.00">कामान् (2)</text>
</a>
</g>
</g>
<!-- 1&#45;&gt;2 -->
<g id="edge2" class="edge">
<title>1&#45;&gt;2</title>
<path fill="none" stroke="black" d="M83.1,-174.21C77.12,-162.1 68.93,-145.53 62.12,-131.76"/>
<polygon fill="black" stroke="black" points="65.24,-130.17 57.68,-122.76 58.97,-133.27 65.24,-130.17"/>
<text text-anchor="middle" x="83.4" y="-144.8" font-family="Times,serif" font-size="14.00">कर्म</text>
</g>
<!-- 5 -->
<g id="node5" class="node">
<title>5</title>
<g id="a_node5"><a xlink:title="पुमत्{पुं}{1;एक}">
<ellipse fill="#00bfff" stroke="#00bfff" cx="162.4" cy="-105" rx="45.49" ry="18"/>
<text text-anchor="middle" x="162.4" y="-101.3" font-family="Times,serif" font-size="14.00">पुमान् (5)</text>
</a>
</g>
</g>
<!-- 1&#45;&gt;5 -->
<g id="edge7" class="edge">
<title>1&#45;&gt;5</title>
<path fill="none" stroke="black" stroke-dasharray="1,5" d="M105.09,-174.61C115.59,-162.03 130.27,-144.46 142.14,-130.25"/>
<polygon fill="black" stroke="black" points="145.02,-132.26 148.75,-122.34 139.65,-127.77 145.02,-132.26"/>
<text text-anchor="middle" x="143.9" y="-144.8" font-family="Times,serif" font-size="14.00">कर्ता</text>
</g>
<!-- 4 -->
<g id="node4" class="node">
<title>4</title>
<g id="a_node4"><a xlink:title="सर्व{पुं}{2;बहु}">
<ellipse fill="#7cfc00" stroke="#7cfc00" cx="49.4" cy="-18" rx="46.29" ry="18"/>
<text text-anchor="middle" x="49.4" y="-14.3" font-family="Times,serif" font-size="14.00">सर्वान् (4)</text>
</a>
</g>
</g>
<!-- 2&#45;&gt;4 -->
<g id="edge5" class="edge">
<title>2&#45;&gt;4</title>
<path fill="none" stroke="black" d="M49.4,-86.8C49.4,-75.16 49.4,-59.55 49.4,-46.24"/>
<polygon fill="black" stroke="black" points="52.9,-46.18 49.4,-36.18 45.9,-46.18 52.9,-46.18"/>
<text text-anchor="middle" x="74.9" y="-57.8" font-family="Times,serif" font-size="14.00">विशेषणम्</text>
</g>
<!-- 3 -->
<g id="node3" class="node">
<title>3</title>
<g id="a_node3"><a xlink:title="यद्{पुं}{1;एक}">
<ellipse fill="#00bfff" stroke="#00bfff" cx="207.4" cy="-18" rx="36.29" ry="18"/>
<text text-anchor="middle" x="207.4" y="-14.3" font-family="Times,serif" font-size="14.00">यः (3)</text>
</a>
</g>
</g>
<!-- 5&#45;&gt;3 -->
<g id="edge3" class="edge">
<title>5&#45;&gt;3</title>
<path fill="none" stroke="black" d="M166.67,-86.72C169.51,-76.79 173.76,-64.29 179.4,-54 181.5,-50.16 184.03,-46.32 186.7,-42.66"/>
<polygon fill="black" stroke="black" points="189.64,-44.58 193.04,-34.55 184.12,-40.27 189.64,-44.58"/>
<text text-anchor="middle" x="204.9" y="-57.8" font-family="Times,serif" font-size="14.00">विशेषणम्</text>
</g>
<!-- 6 -->
<g id="node6" class="node">
<title>6</title>
<g id="a_node6"><a xlink:title="चर्1{कर्तरि;लट्;प्र;एक;परस्मैपदी;चरँ;भ्वादिः}">
<ellipse fill="#ff6347" stroke="#ff6347" cx="175.4" cy="-279" rx="45.49" ry="18"/>
<text text-anchor="middle" x="175.4" y="-275.3" font-family="Times,serif" font-size="14.00">चरति (6)</text>
</a>
</g>
</g>
<!-- 6&#45;&gt;1 -->
<g id="edge1" class="edge">
<title>6&#45;&gt;1</title>
<path fill="none" stroke="black" d="M144,-265.72C132.87,-260.14 121,-252.6 112.4,-243 106.5,-236.42 102.1,-227.95 98.9,-219.85"/>
<polygon fill="black" stroke="black" points="102.17,-218.6 95.57,-210.31 95.56,-220.91 102.17,-218.6"/>
<text text-anchor="middle" x="136.9" y="-231.8" font-family="Times,serif" font-size="14.00">पूर्वकालः</text>
</g>
<!-- 6&#45;&gt;5 -->
<g id="edge6" class="edge">
<title>6&#45;&gt;5</title>
<path fill="none" stroke="black" d="M174.1,-260.88C171.84,-231 167.17,-169.11 164.46,-133.27"/>
<polygon fill="black" stroke="black" points="167.93,-132.76 163.68,-123.05 160.95,-133.29 167.93,-132.76"/>
<text text-anchor="middle" x="182.9" y="-188.3" font-family="Times,serif" font-size="14.00">कर्ता</text>
</g>
<!-- 9.2 -->
<g id="node11" class="node">
<title>9.2</title>
<g id="a_node11"><a xlink:title="अस्1{कृत्_प्रत्ययः:शतृ;स्मृ;अदादिः;पुं}{1;एक}">
<ellipse fill="#00bfff" stroke="#00bfff" cx="477.4" cy="-192" rx="53.89" ry="18"/>
<text text-anchor="middle" x="477.4" y="-188.3" font-family="Times,serif" font-size="14.00">(सन्) (9.2)</text>
</a>
</g>
</g>
<!-- 6&#45;&gt;9.2 -->
<g id="edge12" class="edge">
<title>6&#45;&gt;9.2</title>
<path fill="none" stroke="black" d="M211.52,-267.83C265.36,-252.68 366.8,-224.13 427.63,-207.01"/>
<polygon fill="black" stroke="black" points="428.71,-210.34 437.39,-204.26 426.82,-203.6 428.71,-210.34"/>
<text text-anchor="middle" x="395.4" y="-231.8" font-family="Times,serif" font-size="14.00">वर्तमानसमानकालः</text>
</g>
<!-- 7 -->
<g id="node7" class="node">
<title>7</title>
<g id="a_node7"><a xlink:title="निःस्पृह{पुं}{1;एक}">
<ellipse fill="#00bfff" stroke="#00bfff" cx="406.4" cy="-18" rx="61.99" ry="18"/>
<text text-anchor="middle" x="406.4" y="-14.3" font-family="Times,serif" font-size="14.00">निस्&#45;स्पृहः (7)</text>
</a>
</g>
</g>
<!-- 8 -->
<g id="node8" class="node">
<title>8</title>
<g id="a_node8"><a xlink:title="निर्मम{पुं}{1;एक}">
<ellipse fill="#00bfff" stroke="#00bfff" cx="542.4" cy="-18" rx="56.59" ry="18"/>
<text text-anchor="middle" x="542.4" y="-14.3" font-family="Times,serif" font-size="14.00">निर्&#45;ममः (8)</text>
</a>
</g>
</g>
<!-- 9 -->
<g id="node9" class="node">
<title>9</title>
<g id="a_node9"><a xlink:title="निर्&#45;अहङ्कार{पुं}{1;एक}">
<ellipse fill="#00bfff" stroke="#00bfff" cx="542.4" cy="-105" rx="76.89" ry="18"/>
<text text-anchor="middle" x="542.4" y="-101.3" font-family="Times,serif" font-size="14.00">निर्&#45;अहङ्कारः (9)</text>
</a>
</g>
</g>
<!-- 9&#45;&gt;7 -->
<g id="edge8" class="edge">
<title>9&#45;&gt;7</title>
<path fill="none" stroke="black" d="M496.56,-90.38C482.08,-84.95 466.45,-77.85 453.4,-69 443.13,-62.04 433.43,-52.47 425.55,-43.57"/>
<polygon fill="black" stroke="black" points="427.99,-41.03 418.85,-35.67 422.65,-45.56 427.99,-41.03"/>
<text text-anchor="middle" x="495.9" y="-57.8" font-family="Times,serif" font-size="14.00">सुप्_समुच्चितम्</text>
</g>
<!-- 9&#45;&gt;8 -->
<g id="edge9" class="edge">
<title>9&#45;&gt;8</title>
<path fill="none" stroke="black" d="M542.4,-86.8C542.4,-75.16 542.4,-59.55 542.4,-46.24"/>
<polygon fill="black" stroke="black" points="545.9,-46.18 542.4,-36.18 538.9,-46.18 545.9,-46.18"/>
<text text-anchor="middle" x="584.9" y="-57.8" font-family="Times,serif" font-size="14.00">सुप्_समुच्चितम्</text>
</g>
<!-- 9.1 -->
<g id="node10" class="node">
<title>9.1</title>
<g id="a_node10"><a xlink:title="(च{अव्य})">
<ellipse fill="#ff00ff" stroke="#ff00ff" cx="665.4" cy="-18" rx="48.99" ry="18"/>
<text text-anchor="middle" x="665.4" y="-14.3" font-family="Times,serif" font-size="14.00">(च) (9.1)</text>
</a>
</g>
</g>
<!-- 9&#45;&gt;9.1 -->
<g id="edge11" class="edge">
<title>9&#45;&gt;9.1</title>
<path fill="none" stroke="black" d="M590.94,-90.88C604.93,-85.58 619.59,-78.43 631.4,-69 639.67,-62.39 646.71,-53.21 652.2,-44.53"/>
<polygon fill="black" stroke="black" points="655.29,-46.18 657.34,-35.78 649.25,-42.63 655.29,-46.18"/>
<text text-anchor="middle" x="686.9" y="-57.8" font-family="Times,serif" font-size="14.00">समुच्चयद्योतकः</text>
</g>
<!-- 9.2&#45;&gt;9 -->
<g id="edge10" class="edge">
<title>9.2&#45;&gt;9</title>
<path fill="none" stroke="black" d="M490.24,-174.21C499.67,-161.87 512.65,-144.89 523.3,-130.97"/>
<polygon fill="black" stroke="black" points="526.29,-132.83 529.58,-122.76 520.73,-128.58 526.29,-132.83"/>
<text text-anchor="middle" x="566.4" y="-144.8" font-family="Times,serif" font-size="14.00">कर्तृसमानाधिकरणम्</text>
</g>
<!-- 10 -->
<g id="node12" class="node">
<title>10</title>
<g id="a_node12"><a xlink:title="तद्{पुं}{1;एक}">
<ellipse fill="#00bfff" stroke="#00bfff" cx="268.4" cy="-105" rx="42.49" ry="18"/>
<text text-anchor="middle" x="268.4" y="-101.3" font-family="Times,serif" font-size="14.00">सः (10)</text>
</a>
</g>
</g>
<!-- 10&#45;&gt;3 -->
<g id="edge4" class="edge">
<title>10&#45;&gt;3</title>
<path fill="none" stroke="black" stroke-dasharray="1,5" d="M256.63,-87.61C247.69,-75.15 235.23,-57.79 225.09,-43.65"/>
<polygon fill="black" stroke="black" points="227.79,-41.42 219.12,-35.34 222.11,-45.5 227.79,-41.42"/>
<text text-anchor="middle" x="278.4" y="-57.8" font-family="Times,serif" font-size="14.00">नित्यसम्बन्धः</text>
</g>
<!-- 11 -->
<g id="node13" class="node">
<title>11</title>
<g id="a_node13"><a xlink:title="शान्ति{स्त्री}{2;एक}">
<ellipse fill="#7cfc00" stroke="#7cfc00" cx="388.4" cy="-105" rx="59.59" ry="18"/>
<text text-anchor="middle" x="388.4" y="-101.3" font-family="Times,serif" font-size="14.00">शान्तिम् (11)</text>
</a>
</g>
</g>
<!-- 12 -->
<g id="node14" class="node">
<title>12</title>
<g id="a_node14"><a xlink:title="अधि_गम्1{कर्तरि;लट्;प्र;एक;परस्मैपदी;अधि_गमॢँ;भ्वादिः}">
<ellipse fill="#ff6347" stroke="#ff6347" cx="302.4" cy="-192" rx="77.19" ry="18"/>
<text text-anchor="middle" x="302.4" y="-188.3" font-family="Times,serif" font-size="14.00">अधिगच्छति (12)</text>
</a>
</g>
</g>
<!-- 12&#45;&gt;10 -->
<g id="edge13" class="edge">
<title>12&#45;&gt;10</title>
<path fill="none" stroke="black" d="M295.52,-173.8C290.74,-161.85 284.28,-145.72 278.87,-132.18"/>
<polygon fill="black" stroke="black" points="282.11,-130.87 275.15,-122.89 275.61,-133.47 282.11,-130.87"/>
<text text-anchor="middle" x="300.9" y="-144.8" font-family="Times,serif" font-size="14.00">कर्ता</text>
</g>
<!-- 12&#45;&gt;11 -->
<g id="edge14" class="edge">
<title>12&#45;&gt;11</title>
<path fill="none" stroke="black" d="M319.39,-174.21C332.31,-161.43 350.25,-143.7 364.6,-129.52"/>
<polygon fill="black" stroke="black" points="367.08,-131.99 371.73,-122.47 362.16,-127.01 367.08,-131.99"/>
<text text-anchor="middle" x="361.4" y="-144.8" font-family="Times,serif" font-size="14.00">कर्म</text>
</g>
</g>
</svg>
