<?xml version="1.0" encoding="UTF-8" standalone="no"?>
<!DOCTYPE svg PUBLIC "-//W3C//DTD SVG 1.1//EN"
 "http://www.w3.org/Graphics/SVG/1.1/DTD/svg11.dtd">
<!-- Generated by graphviz version 2.43.0 (0)
 -->
<!-- Title: %3 Pages: 1 -->
<svg width="986pt" height="218pt"
 viewBox="0.00 0.00 985.99 218.00" xmlns="http://www.w3.org/2000/svg" xmlns:xlink="http://www.w3.org/1999/xlink">
<g id="graph0" class="graph" transform="scale(1 1) rotate(0) translate(4 214)">
<title>%3</title>
<polygon fill="#fffacd" stroke="transparent" points="-4,4 -4,-214 981.99,-214 981.99,4 -4,4"/>
<!-- 1 -->
<g id="node1" class="node">
<title>1</title>
<g id="a_node1"><a xlink:title="विद्1{कर्तरि;लट्;उ;एक;परस्मैपदी;विदँ;अदादिः}">
<ellipse fill="#ff6347" stroke="#ff6347" cx="228.39" cy="-192" rx="37.89" ry="18"/>
<text text-anchor="middle" x="228.39" y="-188.3" font-family="Times,serif" font-size="14.00">वेद (1)</text>
</a>
</g>
</g>
<!-- 4 -->
<g id="node4" class="node">
<title>4</title>
<g id="a_node4"><a xlink:title="यद्{पुं}{1;एक}">
<ellipse fill="#00bfff" stroke="#00bfff" cx="130.39" cy="-105" rx="36.29" ry="18"/>
<text text-anchor="middle" x="130.39" y="-101.3" font-family="Times,serif" font-size="14.00">यः (4)</text>
</a>
</g>
</g>
<!-- 1&#45;&gt;4 -->
<g id="edge3" class="edge">
<title>1&#45;&gt;4</title>
<path fill="none" stroke="black" d="M210.87,-175.8C195.54,-162.51 173.09,-143.03 155.79,-128.02"/>
<polygon fill="black" stroke="black" points="157.61,-124.97 147.76,-121.06 153.02,-130.26 157.61,-124.97"/>
<text text-anchor="middle" x="197.89" y="-144.8" font-family="Times,serif" font-size="14.00">कर्ता</text>
</g>
<!-- 5 -->
<g id="node5" class="node">
<title>5</title>
<g id="a_node5"><a xlink:title="इदम्{पुं}{2;एक}">
<ellipse fill="#7cfc00" stroke="#7cfc00" cx="228.39" cy="-105" rx="43.59" ry="18"/>
<text text-anchor="middle" x="228.39" y="-101.3" font-family="Times,serif" font-size="14.00">एनम् (5)</text>
</a>
</g>
</g>
<!-- 1&#45;&gt;5 -->
<g id="edge4" class="edge">
<title>1&#45;&gt;5</title>
<path fill="none" stroke="black" d="M228.39,-173.8C228.39,-162.16 228.39,-146.55 228.39,-133.24"/>
<polygon fill="black" stroke="black" points="231.89,-133.18 228.39,-123.18 224.89,-133.18 231.89,-133.18"/>
<text text-anchor="middle" x="238.39" y="-144.8" font-family="Times,serif" font-size="14.00">कर्म</text>
</g>
<!-- 11 -->
<g id="node11" class="node">
<title>11</title>
<g id="a_node11"><a xlink:title="पार्थ{पुं}{8;एक}">
<ellipse fill="#7fffd4" stroke="#7fffd4" cx="336.39" cy="-105" rx="46.59" ry="18"/>
<text text-anchor="middle" x="336.39" y="-101.3" font-family="Times,serif" font-size="14.00">पार्थ (11)</text>
</a>
</g>
</g>
<!-- 1&#45;&gt;11 -->
<g id="edge10" class="edge">
<title>1&#45;&gt;11</title>
<path fill="none" stroke="black" d="M247.21,-176.19C264.23,-162.79 289.53,-142.88 308.84,-127.69"/>
<polygon fill="black" stroke="black" points="311.01,-130.43 316.7,-121.5 306.68,-124.93 311.01,-130.43"/>
<text text-anchor="middle" x="314.89" y="-144.8" font-family="Times,serif" font-size="14.00">सम्बोध्यः</text>
</g>
<!-- 2 -->
<g id="node2" class="node">
<title>2</title>
<g id="a_node2"><a xlink:title="अ&#45;विनाशिन्{पुं}{2;एक}">
<ellipse fill="#7cfc00" stroke="#7cfc00" cx="75.39" cy="-18" rx="75.29" ry="18"/>
<text text-anchor="middle" x="75.39" y="-14.3" font-family="Times,serif" font-size="14.00">अ&#45;विनाशिनम् (2)</text>
</a>
</g>
</g>
<!-- 3 -->
<g id="node3" class="node">
<title>3</title>
<g id="a_node3"><a xlink:title="नित्य{पुं}{2;एक}">
<ellipse fill="#7cfc00" stroke="#7cfc00" cx="218.39" cy="-18" rx="50.09" ry="18"/>
<text text-anchor="middle" x="218.39" y="-14.3" font-family="Times,serif" font-size="14.00">नित्यम् (3)</text>
</a>
</g>
</g>
<!-- 5&#45;&gt;2 -->
<g id="edge1" class="edge">
<title>5&#45;&gt;2</title>
<path fill="none" stroke="black" d="M203.47,-90.15C178.79,-76.44 140.71,-55.28 112.48,-39.6"/>
<polygon fill="black" stroke="black" points="114.13,-36.51 103.69,-34.72 110.73,-42.63 114.13,-36.51"/>
<text text-anchor="middle" x="186.89" y="-57.8" font-family="Times,serif" font-size="14.00">विशेषणम्</text>
</g>
<!-- 5&#45;&gt;3 -->
<g id="edge2" class="edge">
<title>5&#45;&gt;3</title>
<path fill="none" stroke="black" d="M226.37,-86.8C225,-75.16 223.16,-59.55 221.6,-46.24"/>
<polygon fill="black" stroke="black" points="225.06,-45.7 220.41,-36.18 218.11,-46.52 225.06,-45.7"/>
<text text-anchor="middle" x="249.89" y="-57.8" font-family="Times,serif" font-size="14.00">विशेषणम्</text>
</g>
<!-- 6 -->
<g id="node6" class="node">
<title>6</title>
<g id="a_node6"><a xlink:title="अज{पुं}{2;एक}">
<ellipse fill="#7cfc00" stroke="#7cfc00" cx="336.39" cy="-18" rx="50.09" ry="18"/>
<text text-anchor="middle" x="336.39" y="-14.3" font-family="Times,serif" font-size="14.00">अ&#45;जम् (6)</text>
</a>
</g>
</g>
<!-- 5&#45;&gt;6 -->
<g id="edge5" class="edge">
<title>5&#45;&gt;6</title>
<path fill="none" stroke="black" d="M250.89,-89.4C259.92,-83.32 270.32,-76.05 279.39,-69 290.22,-60.59 301.67,-50.74 311.45,-42.02"/>
<polygon fill="black" stroke="black" points="313.8,-44.62 318.88,-35.32 309.11,-39.42 313.8,-44.62"/>
<text text-anchor="middle" x="322.89" y="-57.8" font-family="Times,serif" font-size="14.00">विशेषणम्</text>
</g>
<!-- 7 -->
<g id="node7" class="node">
<title>7</title>
<g id="a_node7"><a xlink:title="अ&#45;व्यय{पुं}{2;एक}">
<ellipse fill="#7cfc00" stroke="#7cfc00" cx="462.39" cy="-18" rx="57.69" ry="18"/>
<text text-anchor="middle" x="462.39" y="-14.3" font-family="Times,serif" font-size="14.00">अ&#45;व्ययम् (7)</text>
</a>
</g>
</g>
<!-- 5&#45;&gt;7 -->
<g id="edge6" class="edge">
<title>5&#45;&gt;7</title>
<path fill="none" stroke="black" d="M261.02,-92.94C267.42,-90.89 274.1,-88.81 280.39,-87 312.09,-77.87 321.25,-79.87 352.39,-69 376.95,-60.43 403.53,-48.43 424.41,-38.33"/>
<polygon fill="black" stroke="black" points="426.13,-41.39 433.57,-33.85 423.05,-35.1 426.13,-41.39"/>
<text text-anchor="middle" x="415.89" y="-57.8" font-family="Times,serif" font-size="14.00">विशेषणम्</text>
</g>
<!-- 8 -->
<g id="node8" class="node">
<title>8</title>
<g id="a_node8"><a xlink:title="कथम्{अव्य}">
<ellipse fill="#ff00ff" stroke="#ff00ff" cx="458.39" cy="-105" rx="46.29" ry="18"/>
<text text-anchor="middle" x="458.39" y="-101.3" font-family="Times,serif" font-size="14.00">कथम् (8)</text>
</a>
</g>
</g>
<!-- 9 -->
<g id="node9" class="node">
<title>9</title>
<g id="a_node9"><a xlink:title="तद्{पुं}{1;एक}">
<ellipse fill="#00bfff" stroke="#00bfff" cx="574.39" cy="-18" rx="36.29" ry="18"/>
<text text-anchor="middle" x="574.39" y="-14.3" font-family="Times,serif" font-size="14.00">सः (9)</text>
</a>
</g>
</g>
<!-- 10 -->
<g id="node10" class="node">
<title>10</title>
<g id="a_node10"><a xlink:title="पुरुष{पुं}{1;एक}">
<ellipse fill="#00bfff" stroke="#00bfff" cx="574.39" cy="-105" rx="51.99" ry="18"/>
<text text-anchor="middle" x="574.39" y="-101.3" font-family="Times,serif" font-size="14.00">पुरुषः (10)</text>
</a>
</g>
</g>
<!-- 10&#45;&gt;9 -->
<g id="edge8" class="edge">
<title>10&#45;&gt;9</title>
<path fill="none" stroke="black" d="M574.39,-86.8C574.39,-75.16 574.39,-59.55 574.39,-46.24"/>
<polygon fill="black" stroke="black" points="577.89,-46.18 574.39,-36.18 570.89,-46.18 577.89,-46.18"/>
<text text-anchor="middle" x="599.89" y="-57.8" font-family="Times,serif" font-size="14.00">विशेषणम्</text>
</g>
<!-- 12 -->
<g id="node12" class="node">
<title>12</title>
<g id="a_node12"><a xlink:title="किम्{पुं}{2;एक}">
<ellipse fill="#7cfc00" stroke="#7cfc00" cx="689.39" cy="-105" rx="44.69" ry="18"/>
<text text-anchor="middle" x="689.39" y="-101.3" font-family="Times,serif" font-size="14.00">कम् (12)</text>
</a>
</g>
</g>
<!-- 13 -->
<g id="node13" class="node">
<title>13</title>
<g id="a_node13"><a xlink:title="हन्1_णिच्{कर्तरि;लट्;प्र;एक;परस्मैपदी;हनँ_णिच्;अदादिः}">
<ellipse fill="#ff6347" stroke="#ff6347" cx="689.39" cy="-192" rx="61.19" ry="18"/>
<text text-anchor="middle" x="689.39" y="-188.3" font-family="Times,serif" font-size="14.00">घातयति (13)</text>
</a>
</g>
</g>
<!-- 13&#45;&gt;8 -->
<g id="edge7" class="edge">
<title>13&#45;&gt;8</title>
<path fill="none" stroke="black" d="M635.59,-183.37C605.61,-177.98 568.05,-169.29 536.39,-156 518.83,-148.63 500.82,-137.38 486.55,-127.41"/>
<polygon fill="black" stroke="black" points="488.34,-124.39 478.17,-121.42 484.27,-130.09 488.34,-124.39"/>
<text text-anchor="middle" x="578.89" y="-144.8" font-family="Times,serif" font-size="14.00">क्रियाविशेषणम्</text>
</g>
<!-- 13&#45;&gt;10 -->
<g id="edge9" class="edge">
<title>13&#45;&gt;10</title>
<path fill="none" stroke="black" d="M667.76,-175.01C649.66,-161.63 623.66,-142.41 603.69,-127.65"/>
<polygon fill="black" stroke="black" points="605.66,-124.76 595.54,-121.63 601.5,-130.39 605.66,-124.76"/>
<text text-anchor="middle" x="651.89" y="-144.8" font-family="Times,serif" font-size="14.00">कर्ता</text>
</g>
<!-- 13&#45;&gt;12 -->
<g id="edge11" class="edge">
<title>13&#45;&gt;12</title>
<path fill="none" stroke="black" d="M689.39,-173.8C689.39,-162.16 689.39,-146.55 689.39,-133.24"/>
<polygon fill="black" stroke="black" points="692.89,-133.18 689.39,-123.18 685.89,-133.18 692.89,-133.18"/>
<text text-anchor="middle" x="699.39" y="-144.8" font-family="Times,serif" font-size="14.00">कर्म</text>
</g>
<!-- 14 -->
<g id="node14" class="node">
<title>14</title>
<g id="a_node14"><a xlink:title="हन्1{कर्तरि;लट्;प्र;एक;परस्मैपदी;हनँ;अदादिः}">
<ellipse fill="#ff6347" stroke="#ff6347" cx="801.39" cy="-105" rx="49.29" ry="18"/>
<text text-anchor="middle" x="801.39" y="-101.3" font-family="Times,serif" font-size="14.00">हन्ति (14)</text>
</a>
</g>
</g>
<!-- 13&#45;&gt;14 -->
<g id="edge12" class="edge">
<title>13&#45;&gt;14</title>
<path fill="none" stroke="black" d="M710.46,-175.01C728.01,-161.69 753.19,-142.58 772.6,-127.85"/>
<polygon fill="black" stroke="black" points="774.95,-130.46 780.8,-121.63 770.72,-124.89 774.95,-130.46"/>
<text text-anchor="middle" x="781.89" y="-144.8" font-family="Times,serif" font-size="14.00">समुच्चितम्</text>
</g>
<!-- 15.1 -->
<g id="node16" class="node">
<title>15.1</title>
<g id="a_node16"><a xlink:title="(च{अव्य})">
<ellipse fill="#ff00ff" stroke="#ff00ff" cx="923.39" cy="-105" rx="54.69" ry="18"/>
<text text-anchor="middle" x="923.39" y="-101.3" font-family="Times,serif" font-size="14.00">(च) (15.1)</text>
</a>
</g>
</g>
<!-- 13&#45;&gt;15.1 -->
<g id="edge14" class="edge">
<title>13&#45;&gt;15.1</title>
<path fill="none" stroke="black" d="M735.45,-180.13C759.56,-173.95 789.4,-165.56 815.39,-156 839.44,-147.16 865.53,-135.15 886.05,-125.12"/>
<polygon fill="black" stroke="black" points="887.64,-128.24 895.05,-120.67 884.54,-121.96 887.64,-128.24"/>
<text text-anchor="middle" x="894.89" y="-144.8" font-family="Times,serif" font-size="14.00">समुच्चयद्योतकः</text>
</g>
<!-- 15 -->
<g id="node15" class="node">
<title>15</title>
<g id="a_node15"><a xlink:title="किम्{पुं}{2;एक}">
<ellipse fill="#7cfc00" stroke="#7cfc00" cx="801.39" cy="-18" rx="44.69" ry="18"/>
<text text-anchor="middle" x="801.39" y="-14.3" font-family="Times,serif" font-size="14.00">कम् (15)</text>
</a>
</g>
</g>
<!-- 14&#45;&gt;15 -->
<g id="edge13" class="edge">
<title>14&#45;&gt;15</title>
<path fill="none" stroke="black" d="M801.39,-86.8C801.39,-75.16 801.39,-59.55 801.39,-46.24"/>
<polygon fill="black" stroke="black" points="804.89,-46.18 801.39,-36.18 797.89,-46.18 804.89,-46.18"/>
<text text-anchor="middle" x="811.39" y="-57.8" font-family="Times,serif" font-size="14.00">कर्म</text>
</g>
</g>
</svg>
