<?xml version="1.0" encoding="UTF-8" standalone="no"?>
<!DOCTYPE svg PUBLIC "-//W3C//DTD SVG 1.1//EN"
 "http://www.w3.org/Graphics/SVG/1.1/DTD/svg11.dtd">
<!-- Generated by graphviz version 2.43.0 (0)
 -->
<!-- Title: %3 Pages: 1 -->
<svg width="624pt" height="305pt"
 viewBox="0.00 0.00 623.84 305.00" xmlns="http://www.w3.org/2000/svg" xmlns:xlink="http://www.w3.org/1999/xlink">
<g id="graph0" class="graph" transform="scale(1 1) rotate(0) translate(4 301)">
<title>%3</title>
<polygon fill="#fffacd" stroke="transparent" points="-4,4 -4,-301 619.84,-301 619.84,4 -4,4"/>
<!-- 1 -->
<g id="node1" class="node">
<title>1</title>
<g id="a_node1"><a xlink:title="कर्मज{नपुं}{2;एक}">
<ellipse fill="#7cfc00" stroke="#7cfc00" cx="89.45" cy="-18" rx="55.49" ry="18"/>
<text text-anchor="middle" x="89.45" y="-14.3" font-family="Times,serif" font-size="14.00">कर्म&#45;जम् (1)</text>
</a>
</g>
</g>
<!-- 2 -->
<g id="node2" class="node">
<title>2</title>
<g id="a_node2"><a xlink:title="बुद्धि&#45;युक्त{पुं}{1;बहु}">
<ellipse fill="#00bfff" stroke="#00bfff" cx="236.45" cy="-18" rx="73.39" ry="18"/>
<text text-anchor="middle" x="236.45" y="-14.3" font-family="Times,serif" font-size="14.00">बुद्धि&#45;युक्ताः (2)</text>
</a>
</g>
</g>
<!-- 3 -->
<g id="node3" class="node">
<title>3</title>
<g id="a_node3"><a xlink:title="हि{अव्य}">
<ellipse fill="#ff00ff" stroke="#ff00ff" cx="34.45" cy="-192" rx="34.39" ry="18"/>
<text text-anchor="middle" x="34.45" y="-188.3" font-family="Times,serif" font-size="14.00">हि (3)</text>
</a>
</g>
</g>
<!-- 4 -->
<g id="node4" class="node">
<title>4</title>
<g id="a_node4"><a xlink:title="फल{नपुं}{2;एक}">
<ellipse fill="#7cfc00" stroke="#7cfc00" cx="96.45" cy="-105" rx="46.29" ry="18"/>
<text text-anchor="middle" x="96.45" y="-101.3" font-family="Times,serif" font-size="14.00">फलम् (4)</text>
</a>
</g>
</g>
<!-- 4&#45;&gt;1 -->
<g id="edge1" class="edge">
<title>4&#45;&gt;1</title>
<path fill="none" stroke="black" d="M95.03,-86.8C94.07,-75.16 92.79,-59.55 91.69,-46.24"/>
<polygon fill="black" stroke="black" points="95.17,-45.85 90.86,-36.18 88.19,-46.43 95.17,-45.85"/>
<text text-anchor="middle" x="118.95" y="-57.8" font-family="Times,serif" font-size="14.00">विशेषणम्</text>
</g>
<!-- 5 -->
<g id="node5" class="node">
<title>5</title>
<g id="a_node5"><a xlink:title="त्यज्1{कृत्_प्रत्ययः:क्त्वा;त्यजँ;भ्वादिः}">
<ellipse fill="#808080" stroke="#808080" cx="139.45" cy="-192" rx="52.79" ry="18"/>
<text text-anchor="middle" x="139.45" y="-188.3" font-family="Times,serif" font-size="14.00">त्यक्त्वा (5)</text>
</a>
</g>
</g>
<!-- 5&#45;&gt;4 -->
<g id="edge4" class="edge">
<title>5&#45;&gt;4</title>
<path fill="none" stroke="black" d="M130,-174C126.89,-168.31 123.47,-161.91 120.45,-156 116.46,-148.2 112.27,-139.62 108.54,-131.81"/>
<polygon fill="black" stroke="black" points="111.69,-130.3 104.24,-122.77 105.37,-133.3 111.69,-130.3"/>
<text text-anchor="middle" x="130.45" y="-144.8" font-family="Times,serif" font-size="14.00">कर्म</text>
</g>
<!-- 6 -->
<g id="node6" class="node">
<title>6</title>
<g id="a_node6"><a xlink:title="मनीषिन्{पुं}{1;बहु}">
<ellipse fill="#00bfff" stroke="#00bfff" cx="228.45" cy="-105" rx="59.29" ry="18"/>
<text text-anchor="middle" x="228.45" y="-101.3" font-family="Times,serif" font-size="14.00">मनीषिणः (6)</text>
</a>
</g>
</g>
<!-- 5&#45;&gt;6 -->
<g id="edge7" class="edge">
<title>5&#45;&gt;6</title>
<path fill="none" stroke="black" stroke-dasharray="1,5" d="M155.44,-174.56C165.15,-164.7 177.86,-151.98 189.45,-141 193.57,-137.09 198.01,-133 202.36,-129.06"/>
<polygon fill="black" stroke="black" points="204.91,-131.47 210.01,-122.18 200.23,-126.26 204.91,-131.47"/>
<text text-anchor="middle" x="201.95" y="-144.8" font-family="Times,serif" font-size="14.00">कर्ता</text>
</g>
<!-- 6&#45;&gt;2 -->
<g id="edge2" class="edge">
<title>6&#45;&gt;2</title>
<path fill="none" stroke="black" d="M230.07,-86.8C231.16,-75.16 232.63,-59.55 233.88,-46.24"/>
<polygon fill="black" stroke="black" points="237.38,-46.46 234.83,-36.18 230.41,-45.8 237.38,-46.46"/>
<text text-anchor="middle" x="258.95" y="-57.8" font-family="Times,serif" font-size="14.00">विशेषणम्</text>
</g>
<!-- 7 -->
<g id="node7" class="node">
<title>7</title>
<g id="a_node7"><a xlink:title="जन्मन्&#45;बन्ध&#45;विनिर्मुक्त{पुं}{2;बहु}">
<ellipse fill="#7cfc00" stroke="#7cfc00" cx="375.45" cy="-192" rx="103.98" ry="18"/>
<text text-anchor="middle" x="375.45" y="-188.3" font-family="Times,serif" font-size="14.00">जन्म&#45;बन्ध&#45;विनिर्मुक्ताः (7)</text>
</a>
</g>
</g>
<!-- 8 -->
<g id="node8" class="node">
<title>8</title>
<g id="a_node8"><a xlink:title="पद{नपुं}{2;एक}">
<ellipse fill="#7cfc00" stroke="#7cfc00" cx="540.45" cy="-192" rx="42.79" ry="18"/>
<text text-anchor="middle" x="540.45" y="-188.3" font-family="Times,serif" font-size="14.00">पदम् (8)</text>
</a>
</g>
</g>
<!-- 10 -->
<g id="node10" class="node">
<title>10</title>
<g id="a_node10"><a xlink:title="अनामय{नपुं}{2;एक}">
<ellipse fill="#7cfc00" stroke="#7cfc00" cx="540.45" cy="-105" rx="75.29" ry="18"/>
<text text-anchor="middle" x="540.45" y="-101.3" font-family="Times,serif" font-size="14.00">अन्&#45;आमयम् (10)</text>
</a>
</g>
</g>
<!-- 8&#45;&gt;10 -->
<g id="edge10" class="edge">
<title>8&#45;&gt;10</title>
<path fill="none" stroke="black" d="M540.45,-173.8C540.45,-162.16 540.45,-146.55 540.45,-133.24"/>
<polygon fill="black" stroke="black" points="543.95,-133.18 540.45,-123.18 536.95,-133.18 543.95,-133.18"/>
<text text-anchor="middle" x="565.95" y="-144.8" font-family="Times,serif" font-size="14.00">विशेषणम्</text>
</g>
<!-- 9 -->
<g id="node9" class="node">
<title>9</title>
<g id="a_node9"><a xlink:title="गम्1{कर्तरि;लट्;प्र;बहु;परस्मैपदी;गमॢँ;भ्वादिः}">
<ellipse fill="#ff6347" stroke="#ff6347" cx="228.45" cy="-279" rx="57.69" ry="18"/>
<text text-anchor="middle" x="228.45" y="-275.3" font-family="Times,serif" font-size="14.00">गच्छन्ति (9)</text>
</a>
</g>
</g>
<!-- 9&#45;&gt;3 -->
<g id="edge3" class="edge">
<title>9&#45;&gt;3</title>
<path fill="none" stroke="black" d="M180.83,-268.63C157.16,-262.97 128.54,-254.57 104.45,-243 88.43,-235.31 72.19,-223.97 59.39,-214.04"/>
<polygon fill="black" stroke="black" points="61.51,-211.25 51.51,-207.76 57.15,-216.73 61.51,-211.25"/>
<text text-anchor="middle" x="127.45" y="-231.8" font-family="Times,serif" font-size="14.00">सम्बन्धः</text>
</g>
<!-- 9&#45;&gt;5 -->
<g id="edge5" class="edge">
<title>9&#45;&gt;5</title>
<path fill="none" stroke="black" d="M195.2,-264.16C184.78,-258.68 173.82,-251.61 165.45,-243 158.97,-236.35 153.73,-227.76 149.69,-219.58"/>
<polygon fill="black" stroke="black" points="152.81,-217.98 145.5,-210.31 146.43,-220.87 152.81,-217.98"/>
<text text-anchor="middle" x="189.95" y="-231.8" font-family="Times,serif" font-size="14.00">पूर्वकालः</text>
</g>
<!-- 9&#45;&gt;6 -->
<g id="edge6" class="edge">
<title>9&#45;&gt;6</title>
<path fill="none" stroke="black" d="M228.45,-260.88C228.45,-231 228.45,-169.11 228.45,-133.27"/>
<polygon fill="black" stroke="black" points="231.95,-133.05 228.45,-123.05 224.95,-133.05 231.95,-133.05"/>
<text text-anchor="middle" x="240.95" y="-188.3" font-family="Times,serif" font-size="14.00">कर्ता</text>
</g>
<!-- 9&#45;&gt;7 -->
<g id="edge8" class="edge">
<title>9&#45;&gt;7</title>
<path fill="none" stroke="black" d="M254.73,-262.8C278,-249.35 312.22,-229.56 338.29,-214.49"/>
<polygon fill="black" stroke="black" points="340.23,-217.4 347.14,-209.37 336.73,-211.35 340.23,-217.4"/>
<text text-anchor="middle" x="363.45" y="-231.8" font-family="Times,serif" font-size="14.00">कर्तृसमानाधिकरणम्</text>
</g>
<!-- 9&#45;&gt;8 -->
<g id="edge9" class="edge">
<title>9&#45;&gt;8</title>
<path fill="none" stroke="black" d="M281.02,-271.41C319.78,-265.82 373.53,-256.53 419.45,-243 448.57,-234.42 480.25,-221.18 503.89,-210.48"/>
<polygon fill="black" stroke="black" points="505.54,-213.57 513.17,-206.22 502.62,-207.21 505.54,-213.57"/>
<text text-anchor="middle" x="470.45" y="-231.8" font-family="Times,serif" font-size="14.00">कर्म</text>
</g>
</g>
</svg>
