<?xml version="1.0" encoding="UTF-8" standalone="no"?>
<!DOCTYPE svg PUBLIC "-//W3C//DTD SVG 1.1//EN"
 "http://www.w3.org/Graphics/SVG/1.1/DTD/svg11.dtd">
<!-- Generated by graphviz version 2.43.0 (0)
 -->
<!-- Title: %3 Pages: 1 -->
<svg width="821pt" height="218pt"
 viewBox="0.00 0.00 820.99 218.00" xmlns="http://www.w3.org/2000/svg" xmlns:xlink="http://www.w3.org/1999/xlink">
<g id="graph0" class="graph" transform="scale(1 1) rotate(0) translate(4 214)">
<title>%3</title>
<polygon fill="#fffacd" stroke="transparent" points="-4,4 -4,-214 816.99,-214 816.99,4 -4,4"/>
<!-- 1 -->
<g id="node1" class="node">
<title>1</title>
<g id="a_node1"><a xlink:title="अव्यक्त&#45;आदिन्{नपुं}{1;बहु}">
<ellipse fill="#00bfff" stroke="#00bfff" cx="85.79" cy="-18" rx="85.59" ry="18"/>
<text text-anchor="middle" x="85.79" y="-14.3" font-family="Times,serif" font-size="14.00">अ&#45;व्यक्त&#45;आदीनि (1)</text>
</a>
</g>
</g>
<!-- 2 -->
<g id="node2" class="node">
<title>2</title>
<g id="a_node2"><a xlink:title="भूत{नपुं}{1;बहु}">
<ellipse fill="#00bfff" stroke="#00bfff" cx="656.79" cy="-18" rx="49.29" ry="18"/>
<text text-anchor="middle" x="656.79" y="-14.3" font-family="Times,serif" font-size="14.00">भूतानि (2)</text>
</a>
</g>
</g>
<!-- 3 -->
<g id="node3" class="node">
<title>3</title>
<g id="a_node3"><a xlink:title="व्यक्त&#45;मध्य{नपुं}{1;बहु}">
<ellipse fill="#00bfff" stroke="#00bfff" cx="265.79" cy="-18" rx="76.89" ry="18"/>
<text text-anchor="middle" x="265.79" y="-14.3" font-family="Times,serif" font-size="14.00">व्यक्त&#45;मध्यानि (3)</text>
</a>
</g>
</g>
<!-- 4 -->
<g id="node4" class="node">
<title>4</title>
<g id="a_node4"><a xlink:title="भारत{पुं}{8;एक}">
<ellipse fill="#7fffd4" stroke="#7fffd4" cx="768.79" cy="-18" rx="44.39" ry="18"/>
<text text-anchor="middle" x="768.79" y="-14.3" font-family="Times,serif" font-size="14.00">भारत (4)</text>
</a>
</g>
</g>
<!-- 5 -->
<g id="node5" class="node">
<title>5</title>
<g id="a_node5"><a xlink:title="अव्यक्त&#45;निधन{नपुं}{1;बहु}">
<ellipse fill="#00bfff" stroke="#00bfff" cx="335.79" cy="-105" rx="90.98" ry="18"/>
<text text-anchor="middle" x="335.79" y="-101.3" font-family="Times,serif" font-size="14.00">अ&#45;व्यक्त&#45;निधनानि (5)</text>
</a>
</g>
</g>
<!-- 5&#45;&gt;1 -->
<g id="edge1" class="edge">
<title>5&#45;&gt;1</title>
<path fill="none" stroke="black" d="M277.27,-91.13C253.03,-85.24 224.8,-77.64 199.79,-69 175.24,-60.52 148.61,-48.98 127.26,-39.12"/>
<polygon fill="black" stroke="black" points="128.7,-35.93 118.16,-34.87 125.74,-42.27 128.7,-35.93"/>
<text text-anchor="middle" x="242.29" y="-57.8" font-family="Times,serif" font-size="14.00">सुप्_समुच्चितम्</text>
</g>
<!-- 5&#45;&gt;3 -->
<g id="edge3" class="edge">
<title>5&#45;&gt;3</title>
<path fill="none" stroke="black" d="M317.12,-87.23C311.31,-81.66 305.06,-75.28 299.79,-69 293.52,-61.52 287.31,-52.88 281.96,-44.9"/>
<polygon fill="black" stroke="black" points="284.72,-42.73 276.31,-36.28 278.86,-46.57 284.72,-42.73"/>
<text text-anchor="middle" x="342.29" y="-57.8" font-family="Times,serif" font-size="14.00">सुप्_समुच्चितम्</text>
</g>
<!-- 5.1 -->
<g id="node6" class="node">
<title>5.1</title>
<g id="a_node6"><a xlink:title="(च{अव्य})">
<ellipse fill="#ff00ff" stroke="#ff00ff" cx="408.79" cy="-18" rx="48.99" ry="18"/>
<text text-anchor="middle" x="408.79" y="-14.3" font-family="Times,serif" font-size="14.00">(च) (5.1)</text>
</a>
</g>
</g>
<!-- 5&#45;&gt;5.1 -->
<g id="edge6" class="edge">
<title>5&#45;&gt;5.1</title>
<path fill="none" stroke="black" d="M363.5,-87.84C371.06,-82.52 378.81,-76.12 384.79,-69 390.61,-62.08 395.38,-53.52 399.1,-45.44"/>
<polygon fill="black" stroke="black" points="402.43,-46.55 403.11,-35.98 395.99,-43.82 402.43,-46.55"/>
<text text-anchor="middle" x="437.29" y="-57.8" font-family="Times,serif" font-size="14.00">समुच्चयद्योतकः</text>
</g>
<!-- 6 -->
<g id="node7" class="node">
<title>6</title>
<g id="a_node7"><a xlink:title="एव{अव्य}">
<ellipse fill="#ff00ff" stroke="#ff00ff" cx="514.79" cy="-18" rx="37.89" ry="18"/>
<text text-anchor="middle" x="514.79" y="-14.3" font-family="Times,serif" font-size="14.00">एव (6)</text>
</a>
</g>
</g>
<!-- 5&#45;&gt;6 -->
<g id="edge7" class="edge">
<title>5&#45;&gt;6</title>
<path fill="none" stroke="black" d="M404.25,-93.01C436.5,-86.8 470.72,-78.41 483.79,-69 492.28,-62.89 498.94,-53.66 503.87,-44.79"/>
<polygon fill="black" stroke="black" points="507.02,-46.33 508.4,-35.83 500.77,-43.18 507.02,-46.33"/>
<text text-anchor="middle" x="520.79" y="-57.8" font-family="Times,serif" font-size="14.00">सम्बन्धः</text>
</g>
<!-- 6.1 -->
<g id="node8" class="node">
<title>6.1</title>
<g id="a_node8"><a xlink:title="(अस्2{कर्तरि;लट्;प्र;बहु;परस्मैपदी;असँ;अदादिः}">
<ellipse fill="#ff6347" stroke="#ff6347" cx="335.79" cy="-192" rx="60.39" ry="18"/>
<text text-anchor="middle" x="335.79" y="-188.3" font-family="Times,serif" font-size="14.00">(सन्ति) (6.1)</text>
</a>
</g>
</g>
<!-- 6.1&#45;&gt;5 -->
<g id="edge5" class="edge">
<title>6.1&#45;&gt;5</title>
<path fill="none" stroke="black" d="M335.79,-173.8C335.79,-162.16 335.79,-146.55 335.79,-133.24"/>
<polygon fill="black" stroke="black" points="339.29,-133.18 335.79,-123.18 332.29,-133.18 339.29,-133.18"/>
<text text-anchor="middle" x="387.79" y="-144.8" font-family="Times,serif" font-size="14.00">कर्तृसमानाधिकरणम्</text>
</g>
<!-- 7 -->
<g id="node9" class="node">
<title>7</title>
<g id="a_node9"><a xlink:title="तत्र{अव्य}">
<ellipse fill="#ff00ff" stroke="#ff00ff" cx="486.79" cy="-105" rx="42.49" ry="18"/>
<text text-anchor="middle" x="486.79" y="-101.3" font-family="Times,serif" font-size="14.00">तत्र (7)</text>
</a>
</g>
</g>
<!-- 8 -->
<g id="node10" class="node">
<title>8</title>
<g id="a_node10"><a xlink:title="किम्{स्त्री}{1;एक}">
<ellipse fill="#00bfff" stroke="#00bfff" cx="582.79" cy="-105" rx="36" ry="18"/>
<text text-anchor="middle" x="582.79" y="-101.3" font-family="Times,serif" font-size="14.00">का (8)</text>
</a>
</g>
</g>
<!-- 9 -->
<g id="node11" class="node">
<title>9</title>
<g id="a_node11"><a xlink:title="परि_दिव्1{कृत्_प्रत्ययः:ल्युट्;परि_दिवुँ;दिवादिः;स्त्री}{1;एक}">
<ellipse fill="#00bfff" stroke="#00bfff" cx="692.79" cy="-105" rx="56.59" ry="18"/>
<text text-anchor="middle" x="692.79" y="-101.3" font-family="Times,serif" font-size="14.00">परिदेवना (9)</text>
</a>
</g>
</g>
<!-- 9&#45;&gt;2 -->
<g id="edge2" class="edge">
<title>9&#45;&gt;2</title>
<path fill="none" stroke="black" d="M685.51,-86.8C680.45,-74.85 673.61,-58.72 667.88,-45.18"/>
<polygon fill="black" stroke="black" points="671.07,-43.73 663.94,-35.89 664.62,-46.46 671.07,-43.73"/>
<text text-anchor="middle" x="689.29" y="-57.8" font-family="Times,serif" font-size="14.00">कर्ता</text>
</g>
<!-- 9&#45;&gt;4 -->
<g id="edge4" class="edge">
<title>9&#45;&gt;4</title>
<path fill="none" stroke="black" d="M707.45,-87.61C718.87,-74.83 734.9,-56.9 747.71,-42.58"/>
<polygon fill="black" stroke="black" points="750.39,-44.84 754.44,-35.05 745.17,-40.17 750.39,-44.84"/>
<text text-anchor="middle" x="760.29" y="-57.8" font-family="Times,serif" font-size="14.00">सम्बोध्यः</text>
</g>
<!-- 9.1 -->
<g id="node12" class="node">
<title>9.1</title>
<g id="a_node12"><a xlink:title="(अस्2{कर्तरि;लट्;प्र;एक;परस्मैपदी;असँ;अदादिः}">
<ellipse fill="#ff6347" stroke="#ff6347" cx="582.79" cy="-192" rx="63.09" ry="18"/>
<text text-anchor="middle" x="582.79" y="-188.3" font-family="Times,serif" font-size="14.00">(अस्ति) (9.1)</text>
</a>
</g>
</g>
<!-- 9.1&#45;&gt;7 -->
<g id="edge8" class="edge">
<title>9.1&#45;&gt;7</title>
<path fill="none" stroke="black" d="M548.53,-176.78C537.9,-171.31 526.66,-164.34 517.79,-156 510.47,-149.11 504.2,-140.13 499.25,-131.69"/>
<polygon fill="black" stroke="black" points="502.29,-129.94 494.41,-122.85 496.15,-133.31 502.29,-129.94"/>
<text text-anchor="middle" x="548.29" y="-144.8" font-family="Times,serif" font-size="14.00">अधिकरणम्</text>
</g>
<!-- 9.1&#45;&gt;8 -->
<g id="edge9" class="edge">
<title>9.1&#45;&gt;8</title>
<path fill="none" stroke="black" d="M582.79,-173.8C582.79,-162.16 582.79,-146.55 582.79,-133.24"/>
<polygon fill="black" stroke="black" points="586.29,-133.18 582.79,-123.18 579.29,-133.18 586.29,-133.18"/>
<text text-anchor="middle" x="605.79" y="-144.8" font-family="Times,serif" font-size="14.00">सम्बन्धः</text>
</g>
<!-- 9.1&#45;&gt;9 -->
<g id="edge10" class="edge">
<title>9.1&#45;&gt;9</title>
<path fill="none" stroke="black" d="M606.24,-175.19C614.71,-169.32 624.29,-162.5 632.79,-156 644.01,-147.42 656.03,-137.55 666.35,-128.85"/>
<polygon fill="black" stroke="black" points="668.85,-131.32 674.21,-122.18 664.32,-125.98 668.85,-131.32"/>
<text text-anchor="middle" x="663.29" y="-144.8" font-family="Times,serif" font-size="14.00">कर्ता</text>
</g>
</g>
</svg>
