<?xml version="1.0" encoding="UTF-8" standalone="no"?>
<!DOCTYPE svg PUBLIC "-//W3C//DTD SVG 1.1//EN"
 "http://www.w3.org/Graphics/SVG/1.1/DTD/svg11.dtd">
<!-- Generated by graphviz version 2.43.0 (0)
 -->
<!-- Title: %3 Pages: 1 -->
<svg width="680pt" height="218pt"
 viewBox="0.00 0.00 679.89 218.00" xmlns="http://www.w3.org/2000/svg" xmlns:xlink="http://www.w3.org/1999/xlink">
<g id="graph0" class="graph" transform="scale(1 1) rotate(0) translate(4 214)">
<title>%3</title>
<polygon fill="#fffacd" stroke="transparent" points="-4,4 -4,-214 675.89,-214 675.89,4 -4,4"/>
<!-- 1 -->
<g id="node1" class="node">
<title>1</title>
<g id="a_node1"><a xlink:title="कुतः{अव्य}">
<ellipse fill="#ff00ff" stroke="#ff00ff" cx="168.25" cy="-105" rx="42.49" ry="18"/>
<text text-anchor="middle" x="168.25" y="-101.3" font-family="Times,serif" font-size="14.00">कुतः (1)</text>
</a>
</g>
</g>
<!-- 2 -->
<g id="node2" class="node">
<title>2</title>
<g id="a_node2"><a xlink:title="युष्मद्{2;एक}">
<ellipse fill="#7cfc00" stroke="#7cfc00" cx="267.25" cy="-105" rx="38.19" ry="18"/>
<text text-anchor="middle" x="267.25" y="-101.3" font-family="Times,serif" font-size="14.00">त्वा (2)</text>
</a>
</g>
</g>
<!-- 4 -->
<g id="node4" class="node">
<title>4</title>
<g id="a_node4"><a xlink:title="इदम्{नपुं}{2;एक}">
<ellipse fill="#7cfc00" stroke="#7cfc00" cx="42.25" cy="-18" rx="42.49" ry="18"/>
<text text-anchor="middle" x="42.25" y="-14.3" font-family="Times,serif" font-size="14.00">इदम् (4)</text>
</a>
</g>
</g>
<!-- 2&#45;&gt;4 -->
<g id="edge4" class="edge">
<title>2&#45;&gt;4</title>
<path fill="none" stroke="black" d="M237.56,-93.45C231.5,-91.31 225.17,-89.07 219.25,-87 196.16,-78.92 190.16,-77.54 167.25,-69 138.05,-58.12 105.37,-45.01 80.74,-34.95"/>
<polygon fill="black" stroke="black" points="81.97,-31.67 71.39,-31.11 79.32,-38.14 81.97,-31.67"/>
<text text-anchor="middle" x="192.75" y="-57.8" font-family="Times,serif" font-size="14.00">विशेषणम्</text>
</g>
<!-- 7 -->
<g id="node7" class="node">
<title>7</title>
<g id="a_node7"><a xlink:title="अनार्य&#45;जुष्ट{पुं}{2;एक}">
<ellipse fill="#7cfc00" stroke="#7cfc00" cx="185.25" cy="-18" rx="83.39" ry="18"/>
<text text-anchor="middle" x="185.25" y="-14.3" font-family="Times,serif" font-size="14.00">अन्&#45;आर्य&#45;जुष्टम् (7)</text>
</a>
</g>
</g>
<!-- 2&#45;&gt;7 -->
<g id="edge6" class="edge">
<title>2&#45;&gt;7</title>
<path fill="none" stroke="black" d="M252.21,-88.41C240,-75.76 222.58,-57.7 208.57,-43.18"/>
<polygon fill="black" stroke="black" points="211.06,-40.72 201.6,-35.95 206.02,-45.58 211.06,-40.72"/>
<text text-anchor="middle" x="256.75" y="-57.8" font-family="Times,serif" font-size="14.00">विशेषणम्</text>
</g>
<!-- 8 -->
<g id="node8" class="node">
<title>8</title>
<g id="a_node8"><a xlink:title="अ&#45;स्वर्ग्य{पुं}{2;एक}">
<ellipse fill="#7cfc00" stroke="#7cfc00" cx="350.25" cy="-18" rx="63.89" ry="18"/>
<text text-anchor="middle" x="350.25" y="-14.3" font-family="Times,serif" font-size="14.00">अ&#45;स्वर्ग्यम् (8)</text>
</a>
</g>
</g>
<!-- 2&#45;&gt;8 -->
<g id="edge7" class="edge">
<title>2&#45;&gt;8</title>
<path fill="none" stroke="black" d="M282.47,-88.41C294.9,-75.68 312.68,-57.47 326.91,-42.89"/>
<polygon fill="black" stroke="black" points="329.5,-45.25 333.98,-35.65 324.49,-40.36 329.5,-45.25"/>
<text text-anchor="middle" x="339.75" y="-57.8" font-family="Times,serif" font-size="14.00">विशेषणम्</text>
</g>
<!-- 9 -->
<g id="node9" class="node">
<title>9</title>
<g id="a_node9"><a xlink:title="अ&#45;कीर्तिकर{पुं}{2;एक}">
<ellipse fill="#7cfc00" stroke="#7cfc00" cx="506.25" cy="-18" rx="74.99" ry="18"/>
<text text-anchor="middle" x="506.25" y="-14.3" font-family="Times,serif" font-size="14.00">अ&#45;कीर्ति&#45;करम् (9)</text>
</a>
</g>
</g>
<!-- 2&#45;&gt;9 -->
<g id="edge8" class="edge">
<title>2&#45;&gt;9</title>
<path fill="none" stroke="black" d="M296.92,-93.39C302.97,-91.26 309.31,-89.04 315.25,-87 339.17,-78.78 345.36,-77.34 369.25,-69 398.71,-58.72 431.56,-46.74 457.7,-37.09"/>
<polygon fill="black" stroke="black" points="459.21,-40.27 467.38,-33.52 456.78,-33.7 459.21,-40.27"/>
<text text-anchor="middle" x="436.75" y="-57.8" font-family="Times,serif" font-size="14.00">विशेषणम्</text>
</g>
<!-- 3 -->
<g id="node3" class="node">
<title>3</title>
<g id="a_node3"><a xlink:title="कश्मल{नपुं}{2;एक}">
<ellipse fill="#7cfc00" stroke="#7cfc00" cx="381.25" cy="-105" rx="57.39" ry="18"/>
<text text-anchor="middle" x="381.25" y="-101.3" font-family="Times,serif" font-size="14.00">कश्मलम् (3)</text>
</a>
</g>
</g>
<!-- 5 -->
<g id="node5" class="node">
<title>5</title>
<g id="a_node5"><a xlink:title="विषम{नपुं}{7;एक}">
<ellipse fill="#708090" stroke="#708090" cx="502.25" cy="-105" rx="46.29" ry="18"/>
<text text-anchor="middle" x="502.25" y="-101.3" font-family="Times,serif" font-size="14.00">विषमे (5)</text>
</a>
</g>
</g>
<!-- 6 -->
<g id="node6" class="node">
<title>6</title>
<g id="a_node6"><a xlink:title="सम्_उप_स्था1{कृत्_प्रत्ययः:क्त;सम्_उप_ष्ठा;भ्वादिः;नपुं}{1;एक}">
<ellipse fill="#00bfff" stroke="#00bfff" cx="381.25" cy="-192" rx="69.59" ry="18"/>
<text text-anchor="middle" x="381.25" y="-188.3" font-family="Times,serif" font-size="14.00">समुपस्थितम् (6)</text>
</a>
</g>
</g>
<!-- 6&#45;&gt;1 -->
<g id="edge1" class="edge">
<title>6&#45;&gt;1</title>
<path fill="none" stroke="black" d="M332.28,-179.21C310.21,-173.27 284.04,-165.33 261.25,-156 240.15,-147.37 217.61,-135.32 200.01,-125.22"/>
<polygon fill="black" stroke="black" points="201.69,-122.15 191.28,-120.15 198.16,-128.2 201.69,-122.15"/>
<text text-anchor="middle" x="287.75" y="-144.8" font-family="Times,serif" font-size="14.00">अपादानम्</text>
</g>
<!-- 6&#45;&gt;2 -->
<g id="edge2" class="edge">
<title>6&#45;&gt;2</title>
<path fill="none" stroke="black" d="M359.54,-174.81C341.22,-161.16 314.89,-141.53 295.04,-126.72"/>
<polygon fill="black" stroke="black" points="297.08,-123.88 286.97,-120.71 292.9,-129.49 297.08,-123.88"/>
<text text-anchor="middle" x="341.25" y="-144.8" font-family="Times,serif" font-size="14.00">कर्म</text>
</g>
<!-- 6&#45;&gt;3 -->
<g id="edge3" class="edge">
<title>6&#45;&gt;3</title>
<path fill="none" stroke="black" d="M381.25,-173.8C381.25,-162.16 381.25,-146.55 381.25,-133.24"/>
<polygon fill="black" stroke="black" points="384.75,-133.18 381.25,-123.18 377.75,-133.18 384.75,-133.18"/>
<text text-anchor="middle" x="393.75" y="-144.8" font-family="Times,serif" font-size="14.00">कर्ता</text>
</g>
<!-- 6&#45;&gt;5 -->
<g id="edge5" class="edge">
<title>6&#45;&gt;5</title>
<path fill="none" stroke="black" d="M404.29,-174.81C423.7,-161.18 451.58,-141.59 472.64,-126.8"/>
<polygon fill="black" stroke="black" points="474.74,-129.6 480.91,-120.99 470.72,-123.87 474.74,-129.6"/>
<text text-anchor="middle" x="479.75" y="-144.8" font-family="Times,serif" font-size="14.00">अधिकरणम्</text>
</g>
<!-- 10 -->
<g id="node10" class="node">
<title>10</title>
<g id="a_node10"><a xlink:title="अर्जुन{पुं}{8;एक}">
<ellipse fill="#7fffd4" stroke="#7fffd4" cx="619.25" cy="-105" rx="52.79" ry="18"/>
<text text-anchor="middle" x="619.25" y="-101.3" font-family="Times,serif" font-size="14.00">अर्जुन (10)</text>
</a>
</g>
</g>
<!-- 6&#45;&gt;10 -->
<g id="edge9" class="edge">
<title>6&#45;&gt;10</title>
<path fill="none" stroke="black" d="M432.78,-179.82C457.72,-173.81 487.9,-165.64 514.25,-156 537.82,-147.37 563.25,-135.33 583.19,-125.23"/>
<polygon fill="black" stroke="black" points="584.92,-128.28 592.22,-120.6 581.72,-122.05 584.92,-128.28"/>
<text text-anchor="middle" x="574.75" y="-144.8" font-family="Times,serif" font-size="14.00">सम्बोध्यः</text>
</g>
</g>
</svg>
