<?xml version="1.0" encoding="UTF-8" standalone="no"?>
<!DOCTYPE svg PUBLIC "-//W3C//DTD SVG 1.1//EN"
 "http://www.w3.org/Graphics/SVG/1.1/DTD/svg11.dtd">
<!-- Generated by graphviz version 2.43.0 (0)
 -->
<!-- Title: %3 Pages: 1 -->
<svg width="1170pt" height="218pt"
 viewBox="0.00 0.00 1170.49 218.00" xmlns="http://www.w3.org/2000/svg" xmlns:xlink="http://www.w3.org/1999/xlink">
<g id="graph0" class="graph" transform="scale(1 1) rotate(0) translate(4 214)">
<title>%3</title>
<polygon fill="#fffacd" stroke="transparent" points="-4,4 -4,-214 1166.49,-214 1166.49,4 -4,4"/>
<!-- 1 -->
<g id="node1" class="node">
<title>1</title>
<g id="a_node1"><a xlink:title="अ&#45;छिद्1{कृत्_प्रत्ययः:ण्यत्;छिदिँर्;रुधादिः;पुं}{1;एक}">
<ellipse fill="#00bfff" stroke="#00bfff" cx="55.9" cy="-105" rx="55.79" ry="18"/>
<text text-anchor="middle" x="55.9" y="-101.3" font-family="Times,serif" font-size="14.00">अ&#45;छेद्यः (1)</text>
</a>
</g>
</g>
<!-- 2 -->
<g id="node2" class="node">
<title>2</title>
<g id="a_node2"><a xlink:title="इदम्{पुं}{1;एक}">
<ellipse fill="#00bfff" stroke="#00bfff" cx="182.9" cy="-105" rx="46.29" ry="18"/>
<text text-anchor="middle" x="182.9" y="-101.3" font-family="Times,serif" font-size="14.00">अयम् (2)</text>
</a>
</g>
</g>
<!-- 2.1 -->
<g id="node3" class="node">
<title>2.1</title>
<g id="a_node3"><a xlink:title="(अस्2{कर्तरि;लट्;प्र;एक;परस्मैपदी;असँ;अदादिः})">
<ellipse fill="#ff6347" stroke="#ff6347" cx="114.9" cy="-192" rx="63.09" ry="18"/>
<text text-anchor="middle" x="114.9" y="-188.3" font-family="Times,serif" font-size="14.00">(अस्ति) (2.1)</text>
</a>
</g>
</g>
<!-- 2.1&#45;&gt;1 -->
<g id="edge1" class="edge">
<title>2.1&#45;&gt;1</title>
<path fill="none" stroke="black" d="M79.13,-176.96C70.35,-171.74 62.01,-164.86 56.9,-156 53.01,-149.28 51.72,-141.16 51.68,-133.43"/>
<polygon fill="black" stroke="black" points="55.18,-133.5 52.28,-123.31 48.19,-133.09 55.18,-133.5"/>
<text text-anchor="middle" x="108.9" y="-144.8" font-family="Times,serif" font-size="14.00">कर्तृसमानाधिकरणम्</text>
</g>
<!-- 2.1&#45;&gt;2 -->
<g id="edge2" class="edge">
<title>2.1&#45;&gt;2</title>
<path fill="none" stroke="black" d="M140.31,-175.24C147.63,-169.81 155.18,-163.25 160.9,-156 166.4,-149.01 170.83,-140.43 174.23,-132.36"/>
<polygon fill="black" stroke="black" points="177.54,-133.5 177.86,-122.91 171.01,-130.98 177.54,-133.5"/>
<text text-anchor="middle" x="182.4" y="-144.8" font-family="Times,serif" font-size="14.00">कर्ता</text>
</g>
<!-- 3 -->
<g id="node4" class="node">
<title>3</title>
<g id="a_node4"><a xlink:title="अ&#45;दह्1{कृत्_प्रत्ययः:ण्यत्;दहँ;भ्वादिः;पुं}{1;एक}">
<ellipse fill="#00bfff" stroke="#00bfff" cx="131.9" cy="-18" rx="57.39" ry="18"/>
<text text-anchor="middle" x="131.9" y="-14.3" font-family="Times,serif" font-size="14.00">अ&#45;दाह्यः (3)</text>
</a>
</g>
</g>
<!-- 4 -->
<g id="node5" class="node">
<title>4</title>
<g id="a_node5"><a xlink:title="इदम्{पुं}{1;एक}">
<ellipse fill="#00bfff" stroke="#00bfff" cx="494.9" cy="-105" rx="46.29" ry="18"/>
<text text-anchor="middle" x="494.9" y="-101.3" font-family="Times,serif" font-size="14.00">अयम् (4)</text>
</a>
</g>
</g>
<!-- 5 -->
<g id="node6" class="node">
<title>5</title>
<g id="a_node6"><a xlink:title="अ&#45;क्लिद्1{कृत्_प्रत्ययः:ण्यत्;क्लिदूँ;दिवादिः;पुं}{1;एक}">
<ellipse fill="#00bfff" stroke="#00bfff" cx="266.9" cy="-18" rx="59.59" ry="18"/>
<text text-anchor="middle" x="266.9" y="-14.3" font-family="Times,serif" font-size="14.00">अ&#45;क्लेद्यः (5)</text>
</a>
</g>
</g>
<!-- 6 -->
<g id="node7" class="node">
<title>6</title>
<g id="a_node7"><a xlink:title="अ&#45;शुष्1{कृत्_प्रत्ययः:ण्यत्;शुषँ;दिवादिः;पुं}{1;एक}">
<ellipse fill="#00bfff" stroke="#00bfff" cx="316.9" cy="-105" rx="59.59" ry="18"/>
<text text-anchor="middle" x="316.9" y="-101.3" font-family="Times,serif" font-size="14.00">अ&#45;शोष्यः (6)</text>
</a>
</g>
</g>
<!-- 6&#45;&gt;3 -->
<g id="edge3" class="edge">
<title>6&#45;&gt;3</title>
<path fill="none" stroke="black" d="M269,-94.22C236.8,-87.13 197.64,-77.36 182.9,-69 171.26,-62.41 160.38,-52.5 151.69,-43.24"/>
<polygon fill="black" stroke="black" points="154.21,-40.81 144.92,-35.7 148.99,-45.48 154.21,-40.81"/>
<text text-anchor="middle" x="224.9" y="-57.8" font-family="Times,serif" font-size="14.00">सुप्सममुच्चितम्</text>
</g>
<!-- 6&#45;&gt;5 -->
<g id="edge5" class="edge">
<title>6&#45;&gt;5</title>
<path fill="none" stroke="black" d="M292.82,-88.15C286.4,-82.8 280.09,-76.3 275.9,-69 271.97,-62.16 269.69,-54.01 268.38,-46.28"/>
<polygon fill="black" stroke="black" points="271.84,-45.69 267.14,-36.19 264.89,-46.54 271.84,-45.69"/>
<text text-anchor="middle" x="317.9" y="-57.8" font-family="Times,serif" font-size="14.00">सुप्सममुच्चितम्</text>
</g>
<!-- 7 -->
<g id="node8" class="node">
<title>7</title>
<g id="a_node8"><a xlink:title="एव{अव्य}">
<ellipse fill="#ff00ff" stroke="#ff00ff" cx="381.9" cy="-18" rx="37.89" ry="18"/>
<text text-anchor="middle" x="381.9" y="-14.3" font-family="Times,serif" font-size="14.00">एव (7)</text>
</a>
</g>
</g>
<!-- 6&#45;&gt;7 -->
<g id="edge7" class="edge">
<title>6&#45;&gt;7</title>
<path fill="none" stroke="black" d="M340.17,-88.34C347.16,-82.83 354.41,-76.2 359.9,-69 365.21,-62.03 369.55,-53.57 372.93,-45.61"/>
<polygon fill="black" stroke="black" points="376.2,-46.87 376.58,-36.29 369.68,-44.32 376.2,-46.87"/>
<text text-anchor="middle" x="391.9" y="-57.8" font-family="Times,serif" font-size="14.00">सम्बन्धः</text>
</g>
<!-- 8 -->
<g id="node9" class="node">
<title>8</title>
<g id="a_node9"><a xlink:title="च{अव्य}">
<ellipse fill="#ff00ff" stroke="#ff00ff" cx="470.9" cy="-18" rx="33.29" ry="18"/>
<text text-anchor="middle" x="470.9" y="-14.3" font-family="Times,serif" font-size="14.00">च (8)</text>
</a>
</g>
</g>
<!-- 6&#45;&gt;8 -->
<g id="edge8" class="edge">
<title>6&#45;&gt;8</title>
<path fill="none" stroke="black" d="M361.94,-93.15C380.4,-87.56 401.48,-79.63 418.9,-69 430.59,-61.86 441.78,-51.7 450.77,-42.39"/>
<polygon fill="black" stroke="black" points="453.52,-44.57 457.76,-34.87 448.39,-39.81 453.52,-44.57"/>
<text text-anchor="middle" x="480.4" y="-57.8" font-family="Times,serif" font-size="14.00">समुच्चयद्योतकः</text>
</g>
<!-- 8.1 -->
<g id="node10" class="node">
<title>8.1</title>
<g id="a_node10"><a xlink:title="(अस्2{कर्तरि;लट्;प्र;एक;परस्मैपदी;असँ;अदादिः})">
<ellipse fill="#ff6347" stroke="#ff6347" cx="316.9" cy="-192" rx="63.09" ry="18"/>
<text text-anchor="middle" x="316.9" y="-188.3" font-family="Times,serif" font-size="14.00">(अस्ति) (8.1)</text>
</a>
</g>
</g>
<!-- 8.1&#45;&gt;6 -->
<g id="edge6" class="edge">
<title>8.1&#45;&gt;6</title>
<path fill="none" stroke="black" d="M316.9,-173.8C316.9,-162.16 316.9,-146.55 316.9,-133.24"/>
<polygon fill="black" stroke="black" points="320.4,-133.18 316.9,-123.18 313.4,-133.18 320.4,-133.18"/>
<text text-anchor="middle" x="368.9" y="-144.8" font-family="Times,serif" font-size="14.00">कर्तृसमानाधिकरणम्</text>
</g>
<!-- 9 -->
<g id="node11" class="node">
<title>9</title>
<g id="a_node11"><a xlink:title="नित्य{पुं}{1;एक}">
<ellipse fill="#00bfff" stroke="#00bfff" cx="578.9" cy="-18" rx="47.39" ry="18"/>
<text text-anchor="middle" x="578.9" y="-14.3" font-family="Times,serif" font-size="14.00">नित्यः (9)</text>
</a>
</g>
</g>
<!-- 10 -->
<g id="node12" class="node">
<title>10</title>
<g id="a_node12"><a xlink:title="सर्व&#45;गत{पुं}{1;एक}">
<ellipse fill="#00bfff" stroke="#00bfff" cx="706.9" cy="-18" rx="63.09" ry="18"/>
<text text-anchor="middle" x="706.9" y="-14.3" font-family="Times,serif" font-size="14.00">सर्व&#45;गतः (10)</text>
</a>
</g>
</g>
<!-- 11 -->
<g id="node13" class="node">
<title>11</title>
<g id="a_node13"><a xlink:title="स्थाणु{पुं}{1;एक}">
<ellipse fill="#00bfff" stroke="#00bfff" cx="842.9" cy="-18" rx="55.49" ry="18"/>
<text text-anchor="middle" x="842.9" y="-14.3" font-family="Times,serif" font-size="14.00">स्थाणुः (11)</text>
</a>
</g>
</g>
<!-- 12 -->
<g id="node14" class="node">
<title>12</title>
<g id="a_node14"><a xlink:title="अचल{पुं}{1;एक}">
<ellipse fill="#00bfff" stroke="#00bfff" cx="975.9" cy="-18" rx="59.59" ry="18"/>
<text text-anchor="middle" x="975.9" y="-14.3" font-family="Times,serif" font-size="14.00">अ&#45;चलः (12)</text>
</a>
</g>
</g>
<!-- 13 -->
<g id="node15" class="node">
<title>13</title>
<g id="a_node15"><a xlink:title="इदम्{पुं}{1;एक}">
<ellipse fill="#00bfff" stroke="#00bfff" cx="710.9" cy="-105" rx="51.99" ry="18"/>
<text text-anchor="middle" x="710.9" y="-101.3" font-family="Times,serif" font-size="14.00">अयम् (13)</text>
</a>
</g>
</g>
<!-- 14 -->
<g id="node16" class="node">
<title>14</title>
<g id="a_node16"><a xlink:title="सनातन{पुं}{1;एक}">
<ellipse fill="#00bfff" stroke="#00bfff" cx="842.9" cy="-105" rx="61.99" ry="18"/>
<text text-anchor="middle" x="842.9" y="-101.3" font-family="Times,serif" font-size="14.00">सनातनः (14)</text>
</a>
</g>
</g>
<!-- 14&#45;&gt;9 -->
<g id="edge9" class="edge">
<title>14&#45;&gt;9</title>
<path fill="none" stroke="black" d="M797.96,-92.6C789.34,-90.59 780.36,-88.63 771.9,-87 717.64,-76.56 700.15,-89.64 648.9,-69 632.64,-62.46 616.59,-51.41 603.96,-41.36"/>
<polygon fill="black" stroke="black" points="606.13,-38.62 596.19,-34.96 601.68,-44.02 606.13,-38.62"/>
<text text-anchor="middle" x="690.9" y="-57.8" font-family="Times,serif" font-size="14.00">सुप्सममुच्चितम्</text>
</g>
<!-- 14&#45;&gt;10 -->
<g id="edge10" class="edge">
<title>14&#45;&gt;10</title>
<path fill="none" stroke="black" d="M801.23,-91.57C785.94,-85.96 768.95,-78.45 754.9,-69 744.39,-61.94 734.42,-52.23 726.31,-43.26"/>
<polygon fill="black" stroke="black" points="728.89,-40.9 719.7,-35.64 723.61,-45.48 728.89,-40.9"/>
<text text-anchor="middle" x="796.9" y="-57.8" font-family="Times,serif" font-size="14.00">सुप्सममुच्चितम्</text>
</g>
<!-- 14&#45;&gt;11 -->
<g id="edge11" class="edge">
<title>14&#45;&gt;11</title>
<path fill="none" stroke="black" d="M842.9,-86.8C842.9,-75.16 842.9,-59.55 842.9,-46.24"/>
<polygon fill="black" stroke="black" points="846.4,-46.18 842.9,-36.18 839.4,-46.18 846.4,-46.18"/>
<text text-anchor="middle" x="884.9" y="-57.8" font-family="Times,serif" font-size="14.00">सुप्सममुच्चितम्</text>
</g>
<!-- 14&#45;&gt;12 -->
<g id="edge12" class="edge">
<title>14&#45;&gt;12</title>
<path fill="none" stroke="black" d="M885.18,-91.65C900.37,-86.09 917.13,-78.58 930.9,-69 940.87,-62.05 950.18,-52.48 957.71,-43.58"/>
<polygon fill="black" stroke="black" points="960.53,-45.65 964.09,-35.68 955.09,-41.25 960.53,-45.65"/>
<text text-anchor="middle" x="988.9" y="-57.8" font-family="Times,serif" font-size="14.00">सुप्सममुच्चितम्</text>
</g>
<!-- 14.1 -->
<g id="node17" class="node">
<title>14.1</title>
<g id="a_node17"><a xlink:title="(च{अव्य})">
<ellipse fill="#ff00ff" stroke="#ff00ff" cx="1107.9" cy="-18" rx="54.69" ry="18"/>
<text text-anchor="middle" x="1107.9" y="-14.3" font-family="Times,serif" font-size="14.00">(च) (14.1)</text>
</a>
</g>
</g>
<!-- 14&#45;&gt;14.1 -->
<g id="edge15" class="edge">
<title>14&#45;&gt;14.1</title>
<path fill="none" stroke="black" d="M902.25,-99.65C941.14,-95.25 992.44,-86.47 1034.9,-69 1051.44,-62.19 1068.04,-51.23 1081.23,-41.3"/>
<polygon fill="black" stroke="black" points="1083.61,-43.88 1089.36,-34.98 1079.32,-38.35 1083.61,-43.88"/>
<text text-anchor="middle" x="1104.4" y="-57.8" font-family="Times,serif" font-size="14.00">समुच्चयद्योतकः</text>
</g>
<!-- 14.2 -->
<g id="node18" class="node">
<title>14.2</title>
<g id="a_node18"><a xlink:title="(अस्2{कर्तरि;लट्;प्र;एक;परस्मैपदी;असँ;अदादिः})">
<ellipse fill="#ff6347" stroke="#ff6347" cx="734.9" cy="-192" rx="68.79" ry="18"/>
<text text-anchor="middle" x="734.9" y="-188.3" font-family="Times,serif" font-size="14.00">(अस्ति) (14.2)</text>
</a>
</g>
</g>
<!-- 14.2&#45;&gt;13 -->
<g id="edge13" class="edge">
<title>14.2&#45;&gt;13</title>
<path fill="none" stroke="black" d="M730.04,-173.8C726.72,-162.05 722.26,-146.24 718.47,-132.84"/>
<polygon fill="black" stroke="black" points="721.83,-131.85 715.74,-123.18 715.09,-133.75 721.83,-131.85"/>
<text text-anchor="middle" x="737.4" y="-144.8" font-family="Times,serif" font-size="14.00">कर्ता</text>
</g>
<!-- 14.2&#45;&gt;14 -->
<g id="edge14" class="edge">
<title>14.2&#45;&gt;14</title>
<path fill="none" stroke="black" d="M755.46,-174.81C772.13,-161.7 795.8,-143.07 814.31,-128.5"/>
<polygon fill="black" stroke="black" points="816.71,-131.06 822.4,-122.13 812.38,-125.56 816.71,-131.06"/>
<text text-anchor="middle" x="846.9" y="-144.8" font-family="Times,serif" font-size="14.00">कर्तृसमानाधिकरणम्</text>
</g>
<!-- 0 -->
<g id="node19" class="node">
<title>0</title>
<ellipse fill="lightgrey" stroke="black" cx="494.9" cy="-192" rx="27" ry="18"/>
<text text-anchor="middle" x="494.9" y="-188.3" font-family="Times,serif" font-size="14.00">0</text>
</g>
<!-- 0&#45;&gt;4 -->
<g id="edge4" class="edge">
<title>0&#45;&gt;4</title>
<path fill="none" stroke="black" d="M494.9,-173.8C494.9,-162.16 494.9,-146.55 494.9,-133.24"/>
<polygon fill="black" stroke="black" points="498.4,-133.18 494.9,-123.18 491.4,-133.18 498.4,-133.18"/>
<text text-anchor="middle" x="507.4" y="-144.8" font-family="Times,serif" font-size="14.00">कर्ता</text>
</g>
</g>
</svg>
