<?xml version="1.0" encoding="UTF-8" standalone="no"?>
<!DOCTYPE svg PUBLIC "-//W3C//DTD SVG 1.1//EN"
 "http://www.w3.org/Graphics/SVG/1.1/DTD/svg11.dtd">
<!-- Generated by graphviz version 2.43.0 (0)
 -->
<!-- Title: %3 Pages: 1 -->
<svg width="805pt" height="479pt"
 viewBox="0.00 0.00 804.54 479.00" xmlns="http://www.w3.org/2000/svg" xmlns:xlink="http://www.w3.org/1999/xlink">
<g id="graph0" class="graph" transform="scale(1 1) rotate(0) translate(4 475)">
<title>%3</title>
<polygon fill="#fffacd" stroke="transparent" points="-4,4 -4,-475 800.54,-475 800.54,4 -4,4"/>
<!-- 1 -->
<g id="node1" class="node">
<title>1</title>
<g id="a_node1"><a xlink:title="न{अव्य}">
<ellipse fill="#ff00ff" stroke="#ff00ff" cx="189.54" cy="-279" rx="32.49" ry="18"/>
<text text-anchor="middle" x="189.54" y="-275.3" font-family="Times,serif" font-size="14.00">न (1)</text>
</a>
</g>
</g>
<!-- 2 -->
<g id="node2" class="node">
<title>2</title>
<g id="a_node2"><a xlink:title="हि{अव्य}">
<ellipse fill="#ff00ff" stroke="#ff00ff" cx="274.54" cy="-279" rx="34.39" ry="18"/>
<text text-anchor="middle" x="274.54" y="-275.3" font-family="Times,serif" font-size="14.00">हि (2)</text>
</a>
</g>
</g>
<!-- 3 -->
<g id="node3" class="node">
<title>3</title>
<g id="a_node3"><a xlink:title="प्र_दृश्1{कर्तरि;लट्;उ;एक;परस्मैपदी;प्र_दृशिँर्;भ्वादिः}">
<ellipse fill="#ff6347" stroke="#ff6347" cx="384.54" cy="-366" rx="63.89" ry="18"/>
<text text-anchor="middle" x="384.54" y="-362.3" font-family="Times,serif" font-size="14.00">प्रपश्यामि (3)</text>
</a>
</g>
</g>
<!-- 3&#45;&gt;1 -->
<g id="edge1" class="edge">
<title>3&#45;&gt;1</title>
<path fill="none" stroke="black" d="M334.27,-354.91C311.15,-349.24 283.77,-341.06 260.54,-330 244.24,-322.24 227.65,-310.8 214.61,-300.81"/>
<polygon fill="black" stroke="black" points="216.62,-297.94 206.6,-294.52 212.3,-303.45 216.62,-297.94"/>
<text text-anchor="middle" x="286.54" y="-318.8" font-family="Times,serif" font-size="14.00">प्रतिषेधः</text>
</g>
<!-- 3&#45;&gt;2 -->
<g id="edge2" class="edge">
<title>3&#45;&gt;2</title>
<path fill="none" stroke="black" d="M361.1,-349.19C352.62,-343.32 343.05,-336.5 334.54,-330 322.7,-320.94 309.96,-310.44 299.28,-301.41"/>
<polygon fill="black" stroke="black" points="301.44,-298.65 291.56,-294.83 296.9,-303.98 301.44,-298.65"/>
<text text-anchor="middle" x="357.54" y="-318.8" font-family="Times,serif" font-size="14.00">सम्बन्धः</text>
</g>
<!-- 10 -->
<g id="node10" class="node">
<title>10</title>
<g id="a_node10"><a xlink:title="अव_आप्1{कृत्_प्रत्ययः:ल्यप्;अव_आपॢँ;स्वादिः}">
<ellipse fill="#808080" stroke="#808080" cx="384.54" cy="-279" rx="57.69" ry="18"/>
<text text-anchor="middle" x="384.54" y="-275.3" font-family="Times,serif" font-size="14.00">अवाप्य (10)</text>
</a>
</g>
</g>
<!-- 3&#45;&gt;10 -->
<g id="edge8" class="edge">
<title>3&#45;&gt;10</title>
<path fill="none" stroke="black" d="M384.54,-347.8C384.54,-336.16 384.54,-320.55 384.54,-307.24"/>
<polygon fill="black" stroke="black" points="388.04,-307.18 384.54,-297.18 381.04,-307.18 388.04,-307.18"/>
<text text-anchor="middle" x="409.04" y="-318.8" font-family="Times,serif" font-size="14.00">पूर्वकालः</text>
</g>
<!-- 18.1 -->
<g id="node19" class="node">
<title>18.1</title>
<g id="a_node19"><a xlink:title="(अस्मद्{1;एक})">
<ellipse fill="#00bfff" stroke="#00bfff" cx="494.54" cy="-192" rx="66.09" ry="18"/>
<text text-anchor="middle" x="494.54" y="-188.3" font-family="Times,serif" font-size="14.00">(अहम्) (18.1)</text>
</a>
</g>
</g>
<!-- 3&#45;&gt;18.1 -->
<g id="edge17" class="edge">
<title>3&#45;&gt;18.1</title>
<path fill="none" stroke="black" d="M413.94,-349.91C422.38,-344.51 431.05,-337.8 437.54,-330 464.7,-297.38 480.51,-250 488.33,-220.37"/>
<polygon fill="black" stroke="black" points="491.82,-220.87 490.86,-210.32 485.03,-219.16 491.82,-220.87"/>
<text text-anchor="middle" x="488.04" y="-275.3" font-family="Times,serif" font-size="14.00">कर्ता</text>
</g>
<!-- 18.2 -->
<g id="node20" class="node">
<title>18.2</title>
<g id="a_node20"><a xlink:title="(तद्{नपुं}{2;एक})">
<ellipse fill="#7cfc00" stroke="#7cfc00" cx="581.54" cy="-279" rx="59.59" ry="18"/>
<text text-anchor="middle" x="581.54" y="-275.3" font-family="Times,serif" font-size="14.00">(तत्) (18.2)</text>
</a>
</g>
</g>
<!-- 3&#45;&gt;18.2 -->
<g id="edge19" class="edge">
<title>3&#45;&gt;18.2</title>
<path fill="none" stroke="black" d="M428.63,-352.88C448.5,-346.87 472.05,-338.97 492.54,-330 511.58,-321.66 531.86,-310.47 548.24,-300.79"/>
<polygon fill="black" stroke="black" points="550.13,-303.74 556.91,-295.59 546.53,-297.73 550.13,-303.74"/>
<text text-anchor="middle" x="533.54" y="-318.8" font-family="Times,serif" font-size="14.00">कर्म</text>
</g>
<!-- 4 -->
<g id="node4" class="node">
<title>4</title>
<g id="a_node4"><a xlink:title="अस्मद्{6;एक}">
<ellipse fill="#87ceeb" stroke="#87ceeb" cx="724.54" cy="-105" rx="38.19" ry="18"/>
<text text-anchor="middle" x="724.54" y="-101.3" font-family="Times,serif" font-size="14.00">मम (4)</text>
</a>
</g>
</g>
<!-- 5 -->
<g id="node5" class="node">
<title>5</title>
<g id="a_node5"><a xlink:title="अप_नुद्1{कर्तरि;आशीर्लिङ्;प्र;एक;उभयपदी;अप_णुदँ;तुदादिः}">
<ellipse fill="#808080" stroke="#808080" cx="640.54" cy="-453" rx="60.39" ry="18"/>
<text text-anchor="middle" x="640.54" y="-449.3" font-family="Times,serif" font-size="14.00">अपनुद्यात् (5)</text>
</a>
</g>
</g>
<!-- 6 -->
<g id="node6" class="node">
<title>6</title>
<g id="a_node6"><a xlink:title="यद्{नपुं}{1;एक}">
<ellipse fill="#00bfff" stroke="#00bfff" cx="588.54" cy="-366" rx="38.19" ry="18"/>
<text text-anchor="middle" x="588.54" y="-362.3" font-family="Times,serif" font-size="14.00">यत् (6)</text>
</a>
</g>
</g>
<!-- 5&#45;&gt;6 -->
<g id="edge4" class="edge">
<title>5&#45;&gt;6</title>
<path fill="none" stroke="black" d="M630.27,-435.21C622.74,-422.9 612.4,-406 603.89,-392.09"/>
<polygon fill="black" stroke="black" points="606.82,-390.17 598.62,-383.47 600.85,-393.83 606.82,-390.17"/>
<text text-anchor="middle" x="631.04" y="-405.8" font-family="Times,serif" font-size="14.00">कर्ता</text>
</g>
<!-- 7 -->
<g id="node7" class="node">
<title>7</title>
<g id="a_node7"><a xlink:title="शोक{पुं}{2;एक}">
<ellipse fill="#7cfc00" stroke="#7cfc00" cx="702.54" cy="-366" rx="48.19" ry="18"/>
<text text-anchor="middle" x="702.54" y="-362.3" font-family="Times,serif" font-size="14.00">शोकम् (7)</text>
</a>
</g>
</g>
<!-- 5&#45;&gt;7 -->
<g id="edge5" class="edge">
<title>5&#45;&gt;7</title>
<path fill="none" stroke="black" d="M652.79,-435.21C661.85,-422.79 674.33,-405.67 684.53,-391.7"/>
<polygon fill="black" stroke="black" points="687.47,-393.61 690.53,-383.47 681.81,-389.49 687.47,-393.61"/>
<text text-anchor="middle" x="685.54" y="-405.8" font-family="Times,serif" font-size="14.00">कर्म</text>
</g>
<!-- 6&#45;&gt;18.2 -->
<g id="edge20" class="edge">
<title>6&#45;&gt;18.2</title>
<path fill="none" stroke="black" stroke-dasharray="1,5" d="M587.13,-347.8C586.17,-336.16 584.88,-320.55 583.79,-307.24"/>
<polygon fill="black" stroke="black" points="587.27,-306.85 582.96,-297.18 580.29,-307.43 587.27,-306.85"/>
<text text-anchor="middle" x="621.54" y="-318.8" font-family="Times,serif" font-size="14.00">नित्यसम्बन्धः</text>
</g>
<!-- 8 -->
<g id="node8" class="node">
<title>8</title>
<g id="a_node8"><a xlink:title="उच्छोषण{नपुं}{2;एक}">
<ellipse fill="#7cfc00" stroke="#7cfc00" cx="724.54" cy="-279" rx="64.99" ry="18"/>
<text text-anchor="middle" x="724.54" y="-275.3" font-family="Times,serif" font-size="14.00">उच्छोषणम् (8)</text>
</a>
</g>
</g>
<!-- 7&#45;&gt;8 -->
<g id="edge6" class="edge">
<title>7&#45;&gt;8</title>
<path fill="none" stroke="black" d="M707,-347.8C710.01,-336.16 714.05,-320.55 717.49,-307.24"/>
<polygon fill="black" stroke="black" points="720.98,-307.73 720.1,-297.18 714.2,-305.98 720.98,-307.73"/>
<text text-anchor="middle" x="741.04" y="-318.8" font-family="Times,serif" font-size="14.00">विशेषणम्</text>
</g>
<!-- 9 -->
<g id="node9" class="node">
<title>9</title>
<g id="a_node9"><a xlink:title="इन्द्रिय{नपुं}{6;बहु}">
<ellipse fill="#87ceeb" stroke="#87ceeb" cx="724.54" cy="-192" rx="70.69" ry="18"/>
<text text-anchor="middle" x="724.54" y="-188.3" font-family="Times,serif" font-size="14.00">इन्द्रियाणाम् (9)</text>
</a>
</g>
</g>
<!-- 8&#45;&gt;9 -->
<g id="edge7" class="edge">
<title>8&#45;&gt;9</title>
<path fill="none" stroke="black" d="M724.54,-260.8C724.54,-249.16 724.54,-233.55 724.54,-220.24"/>
<polygon fill="black" stroke="black" points="728.04,-220.18 724.54,-210.18 721.04,-220.18 728.04,-220.18"/>
<text text-anchor="middle" x="760.54" y="-231.8" font-family="Times,serif" font-size="14.00">षष्ठीसम्बन्धः</text>
</g>
<!-- 9&#45;&gt;4 -->
<g id="edge3" class="edge">
<title>9&#45;&gt;4</title>
<path fill="none" stroke="black" d="M724.54,-173.8C724.54,-162.16 724.54,-146.55 724.54,-133.24"/>
<polygon fill="black" stroke="black" points="728.04,-133.18 724.54,-123.18 721.04,-133.18 728.04,-133.18"/>
<text text-anchor="middle" x="760.54" y="-144.8" font-family="Times,serif" font-size="14.00">षष्ठीसम्बन्धः</text>
</g>
<!-- 11 -->
<g id="node11" class="node">
<title>11</title>
<g id="a_node11"><a xlink:title="भूमि{स्त्री}{7;एक}">
<ellipse fill="#708090" stroke="#708090" cx="200.54" cy="-192" rx="48.19" ry="18"/>
<text text-anchor="middle" x="200.54" y="-188.3" font-family="Times,serif" font-size="14.00">भूमौ (11)</text>
</a>
</g>
</g>
<!-- 10&#45;&gt;11 -->
<g id="edge9" class="edge">
<title>10&#45;&gt;11</title>
<path fill="none" stroke="black" d="M347.79,-264.83C331.32,-258.64 311.76,-250.9 294.54,-243 274.23,-233.68 252.13,-222.01 234.47,-212.29"/>
<polygon fill="black" stroke="black" points="236.11,-209.2 225.67,-207.41 232.71,-215.32 236.11,-209.2"/>
<text text-anchor="middle" x="325.04" y="-231.8" font-family="Times,serif" font-size="14.00">अधिकरणम्</text>
</g>
<!-- 18 -->
<g id="node18" class="node">
<title>18</title>
<g id="a_node18"><a xlink:title="आधिपत्य{नपुं}{2;एक}">
<ellipse fill="#7cfc00" stroke="#7cfc00" cx="338.54" cy="-192" rx="71.49" ry="18"/>
<text text-anchor="middle" x="338.54" y="-188.3" font-family="Times,serif" font-size="14.00">आधिपत्यम् (18)</text>
</a>
</g>
</g>
<!-- 10&#45;&gt;18 -->
<g id="edge16" class="edge">
<title>10&#45;&gt;18</title>
<path fill="none" stroke="black" d="M375.46,-261.21C368.95,-249.18 360.05,-232.75 352.63,-219.03"/>
<polygon fill="black" stroke="black" points="355.61,-217.18 347.77,-210.05 349.45,-220.51 355.61,-217.18"/>
<text text-anchor="middle" x="374.54" y="-231.8" font-family="Times,serif" font-size="14.00">कर्म</text>
</g>
<!-- 10&#45;&gt;18.1 -->
<g id="edge18" class="edge">
<title>10&#45;&gt;18.1</title>
<path fill="none" stroke="black" stroke-dasharray="1,5" d="M401.23,-261.45C411.81,-251.31 426.01,-238.34 439.54,-228 445.67,-223.32 452.42,-218.66 459.04,-214.33"/>
<polygon fill="black" stroke="black" points="461.36,-217 467.91,-208.67 457.59,-211.1 461.36,-217"/>
<text text-anchor="middle" x="452.04" y="-231.8" font-family="Times,serif" font-size="14.00">कर्ता</text>
</g>
<!-- 12 -->
<g id="node12" class="node">
<title>12</title>
<g id="a_node12"><a xlink:title="अ&#45;सपत्न{नपुं}{2;एक}">
<ellipse fill="#7cfc00" stroke="#7cfc00" cx="69.54" cy="-18" rx="69.59" ry="18"/>
<text text-anchor="middle" x="69.54" y="-14.3" font-family="Times,serif" font-size="14.00">अ&#45;सपत्नम् (12)</text>
</a>
</g>
</g>
<!-- 13 -->
<g id="node13" class="node">
<title>13</title>
<g id="a_node13"><a xlink:title="ऋध्1{कृत्_प्रत्ययः:क्त;ऋधुँ;दिवादिः;नपुं}{2;एक}">
<ellipse fill="#7cfc00" stroke="#7cfc00" cx="210.54" cy="-18" rx="53.89" ry="18"/>
<text text-anchor="middle" x="210.54" y="-14.3" font-family="Times,serif" font-size="14.00">ऋद्धम् (13)</text>
</a>
</g>
</g>
<!-- 14 -->
<g id="node14" class="node">
<title>14</title>
<g id="a_node14"><a xlink:title="राज्य{नपुं}{2;एक}">
<ellipse fill="#7cfc00" stroke="#7cfc00" cx="202.54" cy="-105" rx="56.59" ry="18"/>
<text text-anchor="middle" x="202.54" y="-101.3" font-family="Times,serif" font-size="14.00">राज्यम् (14)</text>
</a>
</g>
</g>
<!-- 14&#45;&gt;12 -->
<g id="edge10" class="edge">
<title>14&#45;&gt;12</title>
<path fill="none" stroke="black" d="M178.46,-88.61C157.35,-75.12 126.46,-55.37 102.96,-40.36"/>
<polygon fill="black" stroke="black" points="104.66,-37.29 94.35,-34.85 100.89,-43.19 104.66,-37.29"/>
<text text-anchor="middle" x="170.04" y="-57.8" font-family="Times,serif" font-size="14.00">विशेषणम्</text>
</g>
<!-- 14&#45;&gt;13 -->
<g id="edge11" class="edge">
<title>14&#45;&gt;13</title>
<path fill="none" stroke="black" d="M204.16,-86.8C205.26,-75.16 206.73,-59.55 207.98,-46.24"/>
<polygon fill="black" stroke="black" points="211.47,-46.46 208.93,-36.18 204.51,-45.8 211.47,-46.46"/>
<text text-anchor="middle" x="233.04" y="-57.8" font-family="Times,serif" font-size="14.00">विशेषणम्</text>
</g>
<!-- 15 -->
<g id="node15" class="node">
<title>15</title>
<g id="a_node15"><a xlink:title="सुर{पुं}{6;बहु}">
<ellipse fill="#87ceeb" stroke="#87ceeb" cx="338.54" cy="-105" rx="61.99" ry="18"/>
<text text-anchor="middle" x="338.54" y="-101.3" font-family="Times,serif" font-size="14.00">सुराणाम् (15)</text>
</a>
</g>
</g>
<!-- 16 -->
<g id="node16" class="node">
<title>16</title>
<g id="a_node16"><a xlink:title="अपि{अव्य}">
<ellipse fill="#ff00ff" stroke="#ff00ff" cx="338.54" cy="-18" rx="48.19" ry="18"/>
<text text-anchor="middle" x="338.54" y="-14.3" font-family="Times,serif" font-size="14.00">अपि (16)</text>
</a>
</g>
</g>
<!-- 15&#45;&gt;16 -->
<g id="edge14" class="edge">
<title>15&#45;&gt;16</title>
<path fill="none" stroke="black" d="M338.54,-86.8C338.54,-75.16 338.54,-59.55 338.54,-46.24"/>
<polygon fill="black" stroke="black" points="342.04,-46.18 338.54,-36.18 335.04,-46.18 342.04,-46.18"/>
<text text-anchor="middle" x="361.54" y="-57.8" font-family="Times,serif" font-size="14.00">सम्बन्धः</text>
</g>
<!-- 17 -->
<g id="node17" class="node">
<title>17</title>
<g id="a_node17"><a xlink:title="च{अव्य}">
<ellipse fill="#ff00ff" stroke="#ff00ff" cx="457.54" cy="-105" rx="38.99" ry="18"/>
<text text-anchor="middle" x="457.54" y="-101.3" font-family="Times,serif" font-size="14.00">च (17)</text>
</a>
</g>
</g>
<!-- 18&#45;&gt;14 -->
<g id="edge12" class="edge">
<title>18&#45;&gt;14</title>
<path fill="none" stroke="black" d="M294.08,-177.89C279.21,-172.4 263.01,-165.13 249.54,-156 239.27,-149.04 229.58,-139.47 221.7,-130.57"/>
<polygon fill="black" stroke="black" points="224.14,-128.03 215,-122.67 218.8,-132.56 224.14,-128.03"/>
<text text-anchor="middle" x="292.04" y="-144.8" font-family="Times,serif" font-size="14.00">सुप्_समुच्चितम्</text>
</g>
<!-- 18&#45;&gt;15 -->
<g id="edge13" class="edge">
<title>18&#45;&gt;15</title>
<path fill="none" stroke="black" d="M338.54,-173.8C338.54,-162.16 338.54,-146.55 338.54,-133.24"/>
<polygon fill="black" stroke="black" points="342.04,-133.18 338.54,-123.18 335.04,-133.18 342.04,-133.18"/>
<text text-anchor="middle" x="374.54" y="-144.8" font-family="Times,serif" font-size="14.00">षष्ठीसम्बन्धः</text>
</g>
<!-- 18&#45;&gt;17 -->
<g id="edge15" class="edge">
<title>18&#45;&gt;17</title>
<path fill="none" stroke="black" d="M377.84,-176.74C390.22,-171.27 403.52,-164.31 414.54,-156 423.97,-148.9 432.77,-139.41 439.93,-130.61"/>
<polygon fill="black" stroke="black" points="442.87,-132.52 446.25,-122.48 437.35,-128.22 442.87,-132.52"/>
<text text-anchor="middle" x="473.04" y="-144.8" font-family="Times,serif" font-size="14.00">समुच्चयद्योतकः</text>
</g>
</g>
</svg>
