<?xml version="1.0" encoding="UTF-8" standalone="no"?>
<!DOCTYPE svg PUBLIC "-//W3C//DTD SVG 1.1//EN"
 "http://www.w3.org/Graphics/SVG/1.1/DTD/svg11.dtd">
<!-- Generated by graphviz version 2.43.0 (0)
 -->
<!-- Title: %3 Pages: 1 -->
<svg width="1282pt" height="218pt"
 viewBox="0.00 0.00 1282.49 218.00" xmlns="http://www.w3.org/2000/svg" xmlns:xlink="http://www.w3.org/1999/xlink">
<g id="graph0" class="graph" transform="scale(1 1) rotate(0) translate(4 214)">
<title>%3</title>
<polygon fill="#fffacd" stroke="transparent" points="-4,4 -4,-214 1278.49,-214 1278.49,4 -4,4"/>
<!-- 1 -->
<g id="node1" class="node">
<title>1</title>
<g id="a_node1"><a xlink:title="जात{पुं}{6;एक}">
<ellipse fill="#87ceeb" stroke="#87ceeb" cx="174.45" cy="-18" rx="53.09" ry="18"/>
<text text-anchor="middle" x="174.45" y="-14.3" font-family="Times,serif" font-size="14.00">जातस्य (1)</text>
</a>
</g>
</g>
<!-- 2 -->
<g id="node2" class="node">
<title>2</title>
<g id="a_node2"><a xlink:title="हि{अव्य}">
<ellipse fill="#ff00ff" stroke="#ff00ff" cx="307.45" cy="-105" rx="34.39" ry="18"/>
<text text-anchor="middle" x="307.45" y="-101.3" font-family="Times,serif" font-size="14.00">हि (2)</text>
</a>
</g>
</g>
<!-- 3 -->
<g id="node3" class="node">
<title>3</title>
<g id="a_node3"><a xlink:title="ध्रुव{पुं}{1;एक}">
<ellipse fill="#00bfff" stroke="#00bfff" cx="47.45" cy="-105" rx="47.39" ry="18"/>
<text text-anchor="middle" x="47.45" y="-101.3" font-family="Times,serif" font-size="14.00">ध्रुवः (3)</text>
</a>
</g>
</g>
<!-- 4 -->
<g id="node4" class="node">
<title>4</title>
<g id="a_node4"><a xlink:title="मृत्यु{पुं}{1;एक}">
<ellipse fill="#00bfff" stroke="#00bfff" cx="174.45" cy="-105" rx="46.29" ry="18"/>
<text text-anchor="middle" x="174.45" y="-101.3" font-family="Times,serif" font-size="14.00">मृत्युः (4)</text>
</a>
</g>
</g>
<!-- 4&#45;&gt;1 -->
<g id="edge1" class="edge">
<title>4&#45;&gt;1</title>
<path fill="none" stroke="black" d="M174.45,-86.8C174.45,-75.16 174.45,-59.55 174.45,-46.24"/>
<polygon fill="black" stroke="black" points="177.95,-46.18 174.45,-36.18 170.95,-46.18 177.95,-46.18"/>
<text text-anchor="middle" x="210.45" y="-57.8" font-family="Times,serif" font-size="14.00">षष्ठीसम्बन्धः</text>
</g>
<!-- 4.1 -->
<g id="node5" class="node">
<title>4.1</title>
<g id="a_node5"><a xlink:title="(अस्2{कर्तरि;लट्;प्र;एक;परस्मैपदी;असँ;अदादिः})">
<ellipse fill="#ff6347" stroke="#ff6347" cx="139.45" cy="-192" rx="63.09" ry="18"/>
<text text-anchor="middle" x="139.45" y="-188.3" font-family="Times,serif" font-size="14.00">(अस्ति) (4.1)</text>
</a>
</g>
</g>
<!-- 4.1&#45;&gt;3 -->
<g id="edge3" class="edge">
<title>4.1&#45;&gt;3</title>
<path fill="none" stroke="black" d="M86.02,-182.41C71.08,-177.28 56.47,-169.08 47.45,-156 42.92,-149.44 41.64,-141.16 41.86,-133.23"/>
<polygon fill="black" stroke="black" points="45.35,-133.49 42.87,-123.19 38.39,-132.79 45.35,-133.49"/>
<text text-anchor="middle" x="99.45" y="-144.8" font-family="Times,serif" font-size="14.00">कर्तृसमानाधिकरणम्</text>
</g>
<!-- 4.1&#45;&gt;4 -->
<g id="edge4" class="edge">
<title>4.1&#45;&gt;4</title>
<path fill="none" stroke="black" d="M146.53,-173.8C151.45,-161.85 158.09,-145.72 163.66,-132.18"/>
<polygon fill="black" stroke="black" points="166.92,-133.46 167.49,-122.89 160.45,-130.8 166.92,-133.46"/>
<text text-anchor="middle" x="171.95" y="-144.8" font-family="Times,serif" font-size="14.00">कर्ता</text>
</g>
<!-- 5 -->
<g id="node6" class="node">
<title>5</title>
<g id="a_node6"><a xlink:title="ध्रुव{नपुं}{1;एक}">
<ellipse fill="#00bfff" stroke="#00bfff" cx="439.45" cy="-105" rx="49.29" ry="18"/>
<text text-anchor="middle" x="439.45" y="-101.3" font-family="Times,serif" font-size="14.00">ध्रुवम् (5)</text>
</a>
</g>
</g>
<!-- 6 -->
<g id="node7" class="node">
<title>6</title>
<g id="a_node7"><a xlink:title="जन्मन्{नपुं}{1;एक}">
<ellipse fill="#00bfff" stroke="#00bfff" cx="566.45" cy="-105" rx="43.59" ry="18"/>
<text text-anchor="middle" x="566.45" y="-101.3" font-family="Times,serif" font-size="14.00">जन्म (6)</text>
</a>
</g>
</g>
<!-- 7 -->
<g id="node8" class="node">
<title>7</title>
<g id="a_node8"><a xlink:title="मृत{नपुं}{6;एक}">
<ellipse fill="#87ceeb" stroke="#87ceeb" cx="566.45" cy="-18" rx="49.29" ry="18"/>
<text text-anchor="middle" x="566.45" y="-14.3" font-family="Times,serif" font-size="14.00">मृतस्य (7)</text>
</a>
</g>
</g>
<!-- 6&#45;&gt;7 -->
<g id="edge7" class="edge">
<title>6&#45;&gt;7</title>
<path fill="none" stroke="black" d="M566.45,-86.8C566.45,-75.16 566.45,-59.55 566.45,-46.24"/>
<polygon fill="black" stroke="black" points="569.95,-46.18 566.45,-36.18 562.95,-46.18 569.95,-46.18"/>
<text text-anchor="middle" x="602.45" y="-57.8" font-family="Times,serif" font-size="14.00">षष्ठीसम्बन्धः</text>
</g>
<!-- 8 -->
<g id="node9" class="node">
<title>8</title>
<g id="a_node9"><a xlink:title="च{अव्य}">
<ellipse fill="#ff00ff" stroke="#ff00ff" cx="661.45" cy="-105" rx="33.29" ry="18"/>
<text text-anchor="middle" x="661.45" y="-101.3" font-family="Times,serif" font-size="14.00">च (8)</text>
</a>
</g>
</g>
<!-- 8.1 -->
<g id="node10" class="node">
<title>8.1</title>
<g id="a_node10"><a xlink:title="(अस्2{कर्तरि;लट्;प्र;एक;परस्मैपदी;असँ;अदादिः})">
<ellipse fill="#ff6347" stroke="#ff6347" cx="469.45" cy="-192" rx="63.09" ry="18"/>
<text text-anchor="middle" x="469.45" y="-188.3" font-family="Times,serif" font-size="14.00">(अस्ति) (8.1)</text>
</a>
</g>
</g>
<!-- 8.1&#45;&gt;5 -->
<g id="edge5" class="edge">
<title>8.1&#45;&gt;5</title>
<path fill="none" stroke="black" d="M452.1,-174.69C447.43,-169.24 442.98,-162.8 440.45,-156 437.81,-148.92 436.85,-140.88 436.74,-133.34"/>
<polygon fill="black" stroke="black" points="440.24,-133.29 437.04,-123.19 433.24,-133.08 440.24,-133.29"/>
<text text-anchor="middle" x="492.45" y="-144.8" font-family="Times,serif" font-size="14.00">कर्तृसमानाधिकरणम्</text>
</g>
<!-- 8.1&#45;&gt;6 -->
<g id="edge6" class="edge">
<title>8.1&#45;&gt;6</title>
<path fill="none" stroke="black" d="M510.58,-178.12C522.65,-172.78 535.1,-165.55 544.45,-156 550.83,-149.47 555.53,-140.78 558.9,-132.47"/>
<polygon fill="black" stroke="black" points="562.2,-133.65 562.27,-123.05 555.61,-131.29 562.2,-133.65"/>
<text text-anchor="middle" x="567.95" y="-144.8" font-family="Times,serif" font-size="14.00">कर्ता</text>
</g>
<!-- 9 -->
<g id="node11" class="node">
<title>9</title>
<g id="a_node11"><a xlink:title="तद्{पुं}{5;एक}">
<ellipse fill="#90ee90" stroke="#90ee90" cx="763.45" cy="-105" rx="51.19" ry="18"/>
<text text-anchor="middle" x="763.45" y="-101.3" font-family="Times,serif" font-size="14.00">तस्मात् (9)</text>
</a>
</g>
</g>
<!-- 10 -->
<g id="node12" class="node">
<title>10</title>
<g id="a_node12"><a xlink:title="अ&#45;परिहार्य{पुं}{7;एक}">
<ellipse fill="#708090" stroke="#708090" cx="878.45" cy="-18" rx="68.49" ry="18"/>
<text text-anchor="middle" x="878.45" y="-14.3" font-family="Times,serif" font-size="14.00">अ&#45;परिहार्ये (10)</text>
</a>
</g>
</g>
<!-- 11 -->
<g id="node13" class="node">
<title>11</title>
<g id="a_node13"><a xlink:title="अर्थ{पुं}{7;एक}">
<ellipse fill="#708090" stroke="#708090" cx="878.45" cy="-105" rx="46.29" ry="18"/>
<text text-anchor="middle" x="878.45" y="-101.3" font-family="Times,serif" font-size="14.00">अर्थे (11)</text>
</a>
</g>
</g>
<!-- 11&#45;&gt;10 -->
<g id="edge10" class="edge">
<title>11&#45;&gt;10</title>
<path fill="none" stroke="black" d="M878.45,-86.8C878.45,-75.16 878.45,-59.55 878.45,-46.24"/>
<polygon fill="black" stroke="black" points="881.95,-46.18 878.45,-36.18 874.95,-46.18 881.95,-46.18"/>
<text text-anchor="middle" x="903.95" y="-57.8" font-family="Times,serif" font-size="14.00">विशेषणम्</text>
</g>
<!-- 12 -->
<g id="node14" class="node">
<title>12</title>
<g id="a_node14"><a xlink:title="न{अव्य}">
<ellipse fill="#ff00ff" stroke="#ff00ff" cx="980.45" cy="-105" rx="38.19" ry="18"/>
<text text-anchor="middle" x="980.45" y="-101.3" font-family="Times,serif" font-size="14.00">न (12)</text>
</a>
</g>
</g>
<!-- 13 -->
<g id="node15" class="node">
<title>13</title>
<g id="a_node15"><a xlink:title="युष्मद्{1;एक}">
<ellipse fill="#00bfff" stroke="#00bfff" cx="1083.45" cy="-105" rx="46.59" ry="18"/>
<text text-anchor="middle" x="1083.45" y="-101.3" font-family="Times,serif" font-size="14.00">त्वम् (13)</text>
</a>
</g>
</g>
<!-- 14 -->
<g id="node16" class="node">
<title>14</title>
<g id="a_node16"><a xlink:title="शुच्1{कृत्_प्रत्ययः:तुमुन्;शुचँ;भ्वादिः}">
<ellipse fill="#808080" stroke="#808080" cx="1211.45" cy="-105" rx="63.09" ry="18"/>
<text text-anchor="middle" x="1211.45" y="-101.3" font-family="Times,serif" font-size="14.00">शोचितुम् (14)</text>
</a>
</g>
</g>
<!-- 15 -->
<g id="node17" class="node">
<title>15</title>
<g id="a_node17"><a xlink:title="अर्ह्1{कर्तरि;लट्;म;एक;परस्मैपदी;अर्हँ;भ्वादिः}">
<ellipse fill="#ff6347" stroke="#ff6347" cx="980.45" cy="-192" rx="53.89" ry="18"/>
<text text-anchor="middle" x="980.45" y="-188.3" font-family="Times,serif" font-size="14.00">अर्हसि (15)</text>
</a>
</g>
</g>
<!-- 15&#45;&gt;9 -->
<g id="edge9" class="edge">
<title>15&#45;&gt;9</title>
<path fill="none" stroke="black" d="M941.83,-179.32C921.59,-172.92 896.48,-164.57 874.45,-156 849.85,-146.43 822.84,-134.3 801.62,-124.38"/>
<polygon fill="black" stroke="black" points="802.85,-121.09 792.31,-120 799.86,-127.43 802.85,-121.09"/>
<text text-anchor="middle" x="885.95" y="-144.8" font-family="Times,serif" font-size="14.00">हेतुः</text>
</g>
<!-- 15&#45;&gt;11 -->
<g id="edge11" class="edge">
<title>15&#45;&gt;11</title>
<path fill="none" stroke="black" d="M948.58,-177.37C937.41,-171.71 925.23,-164.48 915.45,-156 907.33,-148.97 899.93,-139.85 893.93,-131.34"/>
<polygon fill="black" stroke="black" points="896.67,-129.14 888.19,-122.79 890.86,-133.04 896.67,-129.14"/>
<text text-anchor="middle" x="945.95" y="-144.8" font-family="Times,serif" font-size="14.00">अधिकरणम्</text>
</g>
<!-- 15&#45;&gt;12 -->
<g id="edge12" class="edge">
<title>15&#45;&gt;12</title>
<path fill="none" stroke="black" d="M980.45,-173.8C980.45,-162.16 980.45,-146.55 980.45,-133.24"/>
<polygon fill="black" stroke="black" points="983.95,-133.18 980.45,-123.18 976.95,-133.18 983.95,-133.18"/>
<text text-anchor="middle" x="1006.45" y="-144.8" font-family="Times,serif" font-size="14.00">प्रतिषेधः</text>
</g>
<!-- 15&#45;&gt;13 -->
<g id="edge13" class="edge">
<title>15&#45;&gt;13</title>
<path fill="none" stroke="black" d="M1007.05,-176.3C1016.68,-170.48 1027.41,-163.42 1036.45,-156 1045.89,-148.24 1055.32,-138.67 1063.22,-129.99"/>
<polygon fill="black" stroke="black" points="1065.98,-132.14 1070,-122.34 1060.75,-127.5 1065.98,-132.14"/>
<text text-anchor="middle" x="1064.95" y="-144.8" font-family="Times,serif" font-size="14.00">कर्ता</text>
</g>
<!-- 15&#45;&gt;14 -->
<g id="edge14" class="edge">
<title>15&#45;&gt;14</title>
<path fill="none" stroke="black" d="M1017.02,-178.66C1036.25,-172.08 1060.18,-163.77 1081.45,-156 1109.82,-145.63 1141.45,-133.48 1166.41,-123.75"/>
<polygon fill="black" stroke="black" points="1167.94,-126.91 1175.98,-120.01 1165.39,-120.39 1167.94,-126.91"/>
<text text-anchor="middle" x="1158.45" y="-144.8" font-family="Times,serif" font-size="14.00">सहायकक्रिया</text>
</g>
<!--  4.1 -->
<g id="node18" class="node">
<title> 4.1</title>
<ellipse fill="lightgrey" stroke="black" cx="307.45" cy="-192" rx="28.7" ry="18"/>
<text text-anchor="middle" x="307.45" y="-188.3" font-family="Times,serif" font-size="14.00"> 4.1</text>
</g>
<!--  4.1&#45;&gt;2 -->
<g id="edge2" class="edge">
<title> 4.1&#45;&gt;2</title>
<path fill="none" stroke="black" d="M307.45,-173.8C307.45,-162.16 307.45,-146.55 307.45,-133.24"/>
<polygon fill="black" stroke="black" points="310.95,-133.18 307.45,-123.18 303.95,-133.18 310.95,-133.18"/>
<text text-anchor="middle" x="330.45" y="-144.8" font-family="Times,serif" font-size="14.00">सम्बन्धः</text>
</g>
<!--  8.1 -->
<g id="node19" class="node">
<title> 8.1</title>
<ellipse fill="lightgrey" stroke="black" cx="661.45" cy="-192" rx="28.7" ry="18"/>
<text text-anchor="middle" x="661.45" y="-188.3" font-family="Times,serif" font-size="14.00"> 8.1</text>
</g>
<!--  8.1&#45;&gt;8 -->
<g id="edge8" class="edge">
<title> 8.1&#45;&gt;8</title>
<path fill="none" stroke="black" d="M661.45,-173.8C661.45,-162.16 661.45,-146.55 661.45,-133.24"/>
<polygon fill="black" stroke="black" points="664.95,-133.18 661.45,-123.18 657.95,-133.18 664.95,-133.18"/>
<text text-anchor="middle" x="684.45" y="-144.8" font-family="Times,serif" font-size="14.00">सम्बन्धः</text>
</g>
</g>
</svg>
