<?xml version="1.0" encoding="UTF-8" standalone="no"?>
<!DOCTYPE svg PUBLIC "-//W3C//DTD SVG 1.1//EN"
 "http://www.w3.org/Graphics/SVG/1.1/DTD/svg11.dtd">
<!-- Generated by graphviz version 2.43.0 (0)
 -->
<!-- Title: %3 Pages: 1 -->
<svg width="826pt" height="305pt"
 viewBox="0.00 0.00 825.64 305.00" xmlns="http://www.w3.org/2000/svg" xmlns:xlink="http://www.w3.org/1999/xlink">
<g id="graph0" class="graph" transform="scale(1 1) rotate(0) translate(4 301)">
<title>%3</title>
<polygon fill="#fffacd" stroke="transparent" points="-4,4 -4,-301 821.64,-301 821.64,4 -4,4"/>
<!-- 1 -->
<g id="node1" class="node">
<title>1</title>
<g id="a_node1"><a xlink:title="भय{नपुं}{5;एक}">
<ellipse fill="#90ee90" stroke="#90ee90" cx="46.15" cy="-105" rx="46.29" ry="18"/>
<text text-anchor="middle" x="46.15" y="-101.3" font-family="Times,serif" font-size="14.00">भयात् (1)</text>
</a>
</g>
</g>
<!-- 2 -->
<g id="node2" class="node">
<title>2</title>
<g id="a_node2"><a xlink:title="रण{नपुं}{5;एक}">
<ellipse fill="#90ee90" stroke="#90ee90" cx="156.15" cy="-105" rx="45.49" ry="18"/>
<text text-anchor="middle" x="156.15" y="-101.3" font-family="Times,serif" font-size="14.00">रणात् (2)</text>
</a>
</g>
</g>
<!-- 3 -->
<g id="node3" class="node">
<title>3</title>
<g id="a_node3"><a xlink:title="उप_रम्1{कृत्_प्रत्ययः:क्त;उप_रमुँ;भ्वादिः;नपुं}{2;एक}">
<ellipse fill="#7cfc00" stroke="#7cfc00" cx="101.15" cy="-192" rx="52.79" ry="18"/>
<text text-anchor="middle" x="101.15" y="-188.3" font-family="Times,serif" font-size="14.00">उपरतम् (3)</text>
</a>
</g>
</g>
<!-- 3&#45;&gt;1 -->
<g id="edge1" class="edge">
<title>3&#45;&gt;1</title>
<path fill="none" stroke="black" d="M90.28,-174.21C82.37,-161.98 71.52,-145.21 62.56,-131.36"/>
<polygon fill="black" stroke="black" points="65.36,-129.25 56.99,-122.76 59.48,-133.06 65.36,-129.25"/>
<text text-anchor="middle" x="88.65" y="-144.8" font-family="Times,serif" font-size="14.00">हेतुः</text>
</g>
<!-- 3&#45;&gt;2 -->
<g id="edge2" class="edge">
<title>3&#45;&gt;2</title>
<path fill="none" stroke="black" d="M112.01,-174.21C119.92,-161.98 130.77,-145.21 139.73,-131.36"/>
<polygon fill="black" stroke="black" points="142.81,-133.06 145.3,-122.76 136.93,-129.25 142.81,-133.06"/>
<text text-anchor="middle" x="158.65" y="-144.8" font-family="Times,serif" font-size="14.00">अपादानम्</text>
</g>
<!-- 4 -->
<g id="node4" class="node">
<title>4</title>
<g id="a_node4"><a xlink:title="मन्1{कर्तरि;लृट्;प्र;बहु;आत्मनेपदी;मनँ;दिवादिः}">
<ellipse fill="#ff6347" stroke="#ff6347" cx="228.15" cy="-279" rx="52.79" ry="18"/>
<text text-anchor="middle" x="228.15" y="-275.3" font-family="Times,serif" font-size="14.00">मंस्यन्ते (4)</text>
</a>
</g>
</g>
<!-- 4&#45;&gt;3 -->
<g id="edge3" class="edge">
<title>4&#45;&gt;3</title>
<path fill="none" stroke="black" d="M179.8,-271.81C159.22,-266.97 136.28,-258.35 120.15,-243 113.74,-236.9 109.47,-228.42 106.63,-220.17"/>
<polygon fill="black" stroke="black" points="109.95,-219.05 103.84,-210.4 103.22,-220.98 109.95,-219.05"/>
<text text-anchor="middle" x="172.15" y="-231.8" font-family="Times,serif" font-size="14.00">कर्मसमानाधिकरणम्</text>
</g>
<!-- 5 -->
<g id="node5" class="node">
<title>5</title>
<g id="a_node5"><a xlink:title="युष्मद्{2;एक}">
<ellipse fill="#7cfc00" stroke="#7cfc00" cx="228.15" cy="-192" rx="44.39" ry="18"/>
<text text-anchor="middle" x="228.15" y="-188.3" font-family="Times,serif" font-size="14.00">त्वाम् (5)</text>
</a>
</g>
</g>
<!-- 4&#45;&gt;5 -->
<g id="edge4" class="edge">
<title>4&#45;&gt;5</title>
<path fill="none" stroke="black" d="M228.15,-260.8C228.15,-249.16 228.15,-233.55 228.15,-220.24"/>
<polygon fill="black" stroke="black" points="231.65,-220.18 228.15,-210.18 224.65,-220.18 231.65,-220.18"/>
<text text-anchor="middle" x="238.15" y="-231.8" font-family="Times,serif" font-size="14.00">कर्म</text>
</g>
<!-- 6 -->
<g id="node6" class="node">
<title>6</title>
<g id="a_node6"><a xlink:title="महारथ{पुं}{1;बहु}">
<ellipse fill="#00bfff" stroke="#00bfff" cx="355.15" cy="-192" rx="64.19" ry="18"/>
<text text-anchor="middle" x="355.15" y="-188.3" font-family="Times,serif" font-size="14.00">महान्&#45;रथाः (6)</text>
</a>
</g>
</g>
<!-- 4&#45;&gt;6 -->
<g id="edge5" class="edge">
<title>4&#45;&gt;6</title>
<path fill="none" stroke="black" d="M251.14,-262.61C271.21,-249.18 300.54,-229.55 322.94,-214.55"/>
<polygon fill="black" stroke="black" points="325.09,-217.33 331.46,-208.85 321.2,-211.51 325.09,-217.33"/>
<text text-anchor="middle" x="312.65" y="-231.8" font-family="Times,serif" font-size="14.00">कर्ता</text>
</g>
<!-- 7 -->
<g id="node7" class="node">
<title>7</title>
<g id="a_node7"><a xlink:title="यद्{पुं}{6;बहु}">
<ellipse fill="#87ceeb" stroke="#87ceeb" cx="660.15" cy="-18" rx="47.39" ry="18"/>
<text text-anchor="middle" x="660.15" y="-14.3" font-family="Times,serif" font-size="14.00">येषाम् (7)</text>
</a>
</g>
</g>
<!-- 8 -->
<g id="node8" class="node">
<title>8</title>
<g id="a_node8"><a xlink:title="च{अव्य}">
<ellipse fill="#ff00ff" stroke="#ff00ff" cx="470.15" cy="-192" rx="33.29" ry="18"/>
<text text-anchor="middle" x="470.15" y="-188.3" font-family="Times,serif" font-size="14.00">च (8)</text>
</a>
</g>
</g>
<!-- 9 -->
<g id="node9" class="node">
<title>9</title>
<g id="a_node9"><a xlink:title="युष्मद्{1;एक}">
<ellipse fill="#00bfff" stroke="#00bfff" cx="539.15" cy="-105" rx="40.89" ry="18"/>
<text text-anchor="middle" x="539.15" y="-101.3" font-family="Times,serif" font-size="14.00">त्वम् (9)</text>
</a>
</g>
</g>
<!-- 10 -->
<g id="node10" class="node">
<title>10</title>
<g id="a_node10"><a xlink:title="बहु&#45;मत{पुं}{1;एक}">
<ellipse fill="#00bfff" stroke="#00bfff" cx="660.15" cy="-105" rx="61.99" ry="18"/>
<text text-anchor="middle" x="660.15" y="-101.3" font-family="Times,serif" font-size="14.00">बहु&#45;मतः (10)</text>
</a>
</g>
</g>
<!-- 10&#45;&gt;7 -->
<g id="edge6" class="edge">
<title>10&#45;&gt;7</title>
<path fill="none" stroke="black" d="M660.15,-86.8C660.15,-75.16 660.15,-59.55 660.15,-46.24"/>
<polygon fill="black" stroke="black" points="663.65,-46.18 660.15,-36.18 656.65,-46.18 663.65,-46.18"/>
<text text-anchor="middle" x="696.15" y="-57.8" font-family="Times,serif" font-size="14.00">षष्ठीसम्बन्धः</text>
</g>
<!-- 11 -->
<g id="node11" class="node">
<title>11</title>
<g id="a_node11"><a xlink:title="भू1{कृत्_प्रत्ययः:क्त्वा;भू;भ्वादिः}">
<ellipse fill="#808080" stroke="#808080" cx="632.15" cy="-192" rx="50.09" ry="18"/>
<text text-anchor="middle" x="632.15" y="-188.3" font-family="Times,serif" font-size="14.00">भूत्वा (11)</text>
</a>
</g>
</g>
<!-- 11&#45;&gt;9 -->
<g id="edge9" class="edge">
<title>11&#45;&gt;9</title>
<path fill="none" stroke="black" stroke-dasharray="1,5" d="M614.65,-175.01C600.27,-161.87 579.73,-143.1 563.71,-128.45"/>
<polygon fill="black" stroke="black" points="565.99,-125.79 556.25,-121.63 561.27,-130.96 565.99,-125.79"/>
<text text-anchor="middle" x="604.65" y="-144.8" font-family="Times,serif" font-size="14.00">कर्ता</text>
</g>
<!-- 11&#45;&gt;10 -->
<g id="edge10" class="edge">
<title>11&#45;&gt;10</title>
<path fill="none" stroke="black" d="M637.81,-173.8C641.68,-162.05 646.89,-146.24 651.3,-132.84"/>
<polygon fill="black" stroke="black" points="654.68,-133.77 654.49,-123.18 648.04,-131.58 654.68,-133.77"/>
<text text-anchor="middle" x="700.15" y="-144.8" font-family="Times,serif" font-size="14.00">कर्तृसमानाधिकरणम्</text>
</g>
<!-- 12 -->
<g id="node12" class="node">
<title>12</title>
<g id="a_node12"><a xlink:title="या1{कर्तरि;लृट्;म;एक;परस्मैपदी;या;अदादिः}">
<ellipse fill="#ff6347" stroke="#ff6347" cx="570.15" cy="-279" rx="60.39" ry="18"/>
<text text-anchor="middle" x="570.15" y="-275.3" font-family="Times,serif" font-size="14.00">यास्यसि (12)</text>
</a>
</g>
</g>
<!-- 12&#45;&gt;8 -->
<g id="edge7" class="edge">
<title>12&#45;&gt;8</title>
<path fill="none" stroke="black" d="M520.07,-268.75C504.89,-263.58 489.5,-255.52 479.15,-243 473.91,-236.67 471.29,-228.32 470.08,-220.27"/>
<polygon fill="black" stroke="black" points="473.55,-219.7 469.2,-210.04 466.57,-220.3 473.55,-219.7"/>
<text text-anchor="middle" x="502.15" y="-231.8" font-family="Times,serif" font-size="14.00">सम्बन्धः</text>
</g>
<!-- 12&#45;&gt;9 -->
<g id="edge8" class="edge">
<title>12&#45;&gt;9</title>
<path fill="none" stroke="black" d="M563.44,-260.96C558.39,-247.38 551.74,-227.76 548.15,-210 542.94,-184.29 540.75,-154.4 539.82,-133.28"/>
<polygon fill="black" stroke="black" points="543.31,-132.96 539.44,-123.1 536.32,-133.22 543.31,-132.96"/>
<text text-anchor="middle" x="560.65" y="-188.3" font-family="Times,serif" font-size="14.00">कर्ता</text>
</g>
<!-- 12&#45;&gt;11 -->
<g id="edge11" class="edge">
<title>12&#45;&gt;11</title>
<path fill="none" stroke="black" d="M582.4,-261.21C591.4,-248.87 603.78,-231.89 613.93,-217.97"/>
<polygon fill="black" stroke="black" points="616.86,-219.9 619.92,-209.76 611.2,-215.77 616.86,-219.9"/>
<text text-anchor="middle" x="629.65" y="-231.8" font-family="Times,serif" font-size="14.00">पूर्वकालः</text>
</g>
<!-- 13 -->
<g id="node13" class="node">
<title>13</title>
<g id="a_node13"><a xlink:title="लाघव{नपुं}{2;एक}">
<ellipse fill="#7cfc00" stroke="#7cfc00" cx="759.15" cy="-192" rx="58.49" ry="18"/>
<text text-anchor="middle" x="759.15" y="-188.3" font-family="Times,serif" font-size="14.00">लाघवम् (13)</text>
</a>
</g>
</g>
<!-- 12&#45;&gt;13 -->
<g id="edge12" class="edge">
<title>12&#45;&gt;13</title>
<path fill="none" stroke="black" d="M606.39,-264.35C622.38,-258.13 641.32,-250.49 658.15,-243 679.4,-233.53 702.7,-222.07 721.56,-212.51"/>
<polygon fill="black" stroke="black" points="723.39,-215.51 730.71,-207.85 720.21,-209.27 723.39,-215.51"/>
<text text-anchor="middle" x="698.15" y="-231.8" font-family="Times,serif" font-size="14.00">कर्म</text>
</g>
</g>
</svg>
