<?xml version="1.0" encoding="UTF-8" standalone="no"?>
<!DOCTYPE svg PUBLIC "-//W3C//DTD SVG 1.1//EN"
 "http://www.w3.org/Graphics/SVG/1.1/DTD/svg11.dtd">
<!-- Generated by graphviz version 2.43.0 (0)
 -->
<!-- Title: %3 Pages: 1 -->
<svg width="1042pt" height="305pt"
 viewBox="0.00 0.00 1041.89 305.00" xmlns="http://www.w3.org/2000/svg" xmlns:xlink="http://www.w3.org/1999/xlink">
<g id="graph0" class="graph" transform="scale(1 1) rotate(0) translate(4 301)">
<title>%3</title>
<polygon fill="#fffacd" stroke="transparent" points="-4,4 -4,-301 1037.89,-301 1037.89,4 -4,4"/>
<!-- 1 -->
<g id="node1" class="node">
<title>1</title>
<g id="a_node1"><a xlink:title="प्र_हा2{कर्तरि;लट्;प्र;एक;परस्मैपदी;प्र_ओँहाङ्;जुहोत्यादिः}">
<ellipse fill="#ff6347" stroke="#ff6347" cx="217.15" cy="-279" rx="59.29" ry="18"/>
<text text-anchor="middle" x="217.15" y="-275.3" font-family="Times,serif" font-size="14.00">प्रजहाति (1)</text>
</a>
</g>
</g>
<!-- 3 -->
<g id="node3" class="node">
<title>3</title>
<g id="a_node3"><a xlink:title="काम{पुं}{2;बहु}">
<ellipse fill="#7cfc00" stroke="#7cfc00" cx="109.15" cy="-192" rx="49.29" ry="18"/>
<text text-anchor="middle" x="109.15" y="-188.3" font-family="Times,serif" font-size="14.00">कामान् (3)</text>
</a>
</g>
</g>
<!-- 1&#45;&gt;3 -->
<g id="edge2" class="edge">
<title>1&#45;&gt;3</title>
<path fill="none" stroke="black" d="M196.83,-262.01C179.91,-248.69 155.63,-229.58 136.91,-214.85"/>
<polygon fill="black" stroke="black" points="139.03,-212.06 129,-208.63 134.7,-217.56 139.03,-212.06"/>
<text text-anchor="middle" x="180.15" y="-231.8" font-family="Times,serif" font-size="14.00">कर्म</text>
</g>
<!-- 5 -->
<g id="node5" class="node">
<title>5</title>
<g id="a_node5"><a xlink:title="पार्थ{पुं}{8;एक}">
<ellipse fill="#7fffd4" stroke="#7fffd4" cx="217.15" cy="-192" rx="40.89" ry="18"/>
<text text-anchor="middle" x="217.15" y="-188.3" font-family="Times,serif" font-size="14.00">पार्थ (5)</text>
</a>
</g>
</g>
<!-- 1&#45;&gt;5 -->
<g id="edge4" class="edge">
<title>1&#45;&gt;5</title>
<path fill="none" stroke="black" d="M217.15,-260.8C217.15,-249.16 217.15,-233.55 217.15,-220.24"/>
<polygon fill="black" stroke="black" points="220.65,-220.18 217.15,-210.18 213.65,-220.18 220.65,-220.18"/>
<text text-anchor="middle" x="242.65" y="-231.8" font-family="Times,serif" font-size="14.00">सम्बोध्यः</text>
</g>
<!-- 14 -->
<g id="node16" class="node">
<title>14</title>
<g id="a_node16"><a xlink:title="(नर{पुं}{1;एक})">
<ellipse fill="#00bfff" stroke="#00bfff" cx="328.15" cy="-192" rx="51.99" ry="18"/>
<text text-anchor="middle" x="328.15" y="-188.3" font-family="Times,serif" font-size="14.00">(नरः) (14)</text>
</a>
</g>
</g>
<!-- 1&#45;&gt;14 -->
<g id="edge14" class="edge">
<title>1&#45;&gt;14</title>
<path fill="none" stroke="black" d="M243.19,-262.63C252.55,-256.8 263.03,-249.9 272.15,-243 282.86,-234.89 294.03,-225.2 303.55,-216.52"/>
<polygon fill="black" stroke="black" points="306.15,-218.88 311.11,-209.52 301.4,-213.74 306.15,-218.88"/>
<text text-anchor="middle" x="302.65" y="-231.8" font-family="Times,serif" font-size="14.00">कर्ता</text>
</g>
<!-- 2 -->
<g id="node2" class="node">
<title>2</title>
<g id="a_node2"><a xlink:title="यदा{अव्य}">
<ellipse fill="#ff00ff" stroke="#ff00ff" cx="712.15" cy="-18" rx="40.09" ry="18"/>
<text text-anchor="middle" x="712.15" y="-14.3" font-family="Times,serif" font-size="14.00">यदा (2)</text>
</a>
</g>
</g>
<!-- 4 -->
<g id="node4" class="node">
<title>4</title>
<g id="a_node4"><a xlink:title="सर्व{पुं}{2;बहु}">
<ellipse fill="#7cfc00" stroke="#7cfc00" cx="46.15" cy="-105" rx="46.29" ry="18"/>
<text text-anchor="middle" x="46.15" y="-101.3" font-family="Times,serif" font-size="14.00">सर्वान् (4)</text>
</a>
</g>
</g>
<!-- 3&#45;&gt;4 -->
<g id="edge3" class="edge">
<title>3&#45;&gt;4</title>
<path fill="none" stroke="black" d="M96.12,-174.35C91.65,-168.57 86.64,-162.03 82.15,-156 76.14,-147.94 69.69,-139.06 63.93,-131.04"/>
<polygon fill="black" stroke="black" points="66.67,-128.86 58.01,-122.77 60.98,-132.94 66.67,-128.86"/>
<text text-anchor="middle" x="107.65" y="-144.8" font-family="Times,serif" font-size="14.00">विशेषणम्</text>
</g>
<!-- 6 -->
<g id="node6" class="node">
<title>6</title>
<g id="a_node6"><a xlink:title="मनः&#45;गत{पुं}{2;बहु}">
<ellipse fill="#7cfc00" stroke="#7cfc00" cx="171.15" cy="-105" rx="61.19" ry="18"/>
<text text-anchor="middle" x="171.15" y="-101.3" font-family="Times,serif" font-size="14.00">मन&#45;गतान् (6)</text>
</a>
</g>
</g>
<!-- 3&#45;&gt;6 -->
<g id="edge5" class="edge">
<title>3&#45;&gt;6</title>
<path fill="none" stroke="black" d="M121.4,-174.21C130.4,-161.87 142.78,-144.89 152.93,-130.97"/>
<polygon fill="black" stroke="black" points="155.86,-132.9 158.92,-122.76 150.2,-128.77 155.86,-132.9"/>
<text text-anchor="middle" x="169.65" y="-144.8" font-family="Times,serif" font-size="14.00">विशेषणम्</text>
</g>
<!-- 7 -->
<g id="node7" class="node">
<title>7</title>
<g id="a_node7"><a xlink:title="आत्मन्{पुं}{7;एक}">
<ellipse fill="#708090" stroke="#708090" cx="303.15" cy="-105" rx="53.09" ry="18"/>
<text text-anchor="middle" x="303.15" y="-101.3" font-family="Times,serif" font-size="14.00">आत्मनि (7)</text>
</a>
</g>
</g>
<!-- 8 -->
<g id="node8" class="node">
<title>8</title>
<g id="a_node8"><a xlink:title="एव{अव्य}">
<ellipse fill="#ff00ff" stroke="#ff00ff" cx="303.15" cy="-18" rx="37.89" ry="18"/>
<text text-anchor="middle" x="303.15" y="-14.3" font-family="Times,serif" font-size="14.00">एव (8)</text>
</a>
</g>
</g>
<!-- 7&#45;&gt;8 -->
<g id="edge7" class="edge">
<title>7&#45;&gt;8</title>
<path fill="none" stroke="black" d="M303.15,-86.8C303.15,-75.16 303.15,-59.55 303.15,-46.24"/>
<polygon fill="black" stroke="black" points="306.65,-46.18 303.15,-36.18 299.65,-46.18 306.65,-46.18"/>
<text text-anchor="middle" x="326.15" y="-57.8" font-family="Times,serif" font-size="14.00">सम्बन्धः</text>
</g>
<!-- 9 -->
<g id="node9" class="node">
<title>9</title>
<g id="a_node9"><a xlink:title="आत्मन्{पुं}{3;एक}">
<ellipse fill="#40e0d0" stroke="#40e0d0" cx="428.15" cy="-105" rx="53.89" ry="18"/>
<text text-anchor="middle" x="428.15" y="-101.3" font-family="Times,serif" font-size="14.00">आत्मना (9)</text>
</a>
</g>
</g>
<!-- 10 -->
<g id="node10" class="node">
<title>10</title>
<g id="a_node10"><a xlink:title="तुष्1{कृत्_प्रत्ययः:क्त;तुषँ;दिवादिः;पुं}{1;एक}">
<ellipse fill="#00bfff" stroke="#00bfff" cx="643.15" cy="-192" rx="50.89" ry="18"/>
<text text-anchor="middle" x="643.15" y="-188.3" font-family="Times,serif" font-size="14.00">तुष्टः (10)</text>
</a>
</g>
</g>
<!-- 10&#45;&gt;7 -->
<g id="edge6" class="edge">
<title>10&#45;&gt;7</title>
<path fill="none" stroke="black" d="M595.79,-185.45C553.9,-179.95 491.33,-170.26 438.15,-156 405.89,-147.35 370.54,-134.12 344.1,-123.43"/>
<polygon fill="black" stroke="black" points="345.37,-120.17 334.79,-119.63 342.72,-126.65 345.37,-120.17"/>
<text text-anchor="middle" x="468.65" y="-144.8" font-family="Times,serif" font-size="14.00">अधिकरणम्</text>
</g>
<!-- 10&#45;&gt;9 -->
<g id="edge8" class="edge">
<title>10&#45;&gt;9</title>
<path fill="none" stroke="black" d="M605.26,-179.98C584.36,-173.59 558.07,-165.03 535.15,-156 511.76,-146.79 486.24,-134.93 465.98,-125.08"/>
<polygon fill="black" stroke="black" points="467.31,-121.83 456.79,-120.57 464.22,-128.11 467.31,-121.83"/>
<text text-anchor="middle" x="553.15" y="-144.8" font-family="Times,serif" font-size="14.00">करणम्</text>
</g>
<!-- 11 -->
<g id="node11" class="node">
<title>11</title>
<g id="a_node11"><a xlink:title="स्थित&#45;प्रज्ञ{पुं}{1;एक}">
<ellipse fill="#00bfff" stroke="#00bfff" cx="574.15" cy="-105" rx="74.19" ry="18"/>
<text text-anchor="middle" x="574.15" y="-101.3" font-family="Times,serif" font-size="14.00">स्थित&#45;प्रज्ञः (11)</text>
</a>
</g>
</g>
<!-- 10&#45;&gt;11 -->
<g id="edge10" class="edge">
<title>10&#45;&gt;11</title>
<path fill="none" stroke="black" d="M608.59,-178.57C598.22,-173.18 587.83,-165.81 581.15,-156 576.62,-149.35 574.44,-141.04 573.5,-133.12"/>
<polygon fill="black" stroke="black" points="576.99,-132.87 572.9,-123.1 570,-133.29 576.99,-132.87"/>
<text text-anchor="middle" x="633.15" y="-144.8" font-family="Times,serif" font-size="14.00">कर्मसमानाधिकरणम्</text>
</g>
<!-- 12 -->
<g id="node12" class="node">
<title>12</title>
<g id="a_node12"><a xlink:title="तदा{अव्य}">
<ellipse fill="#ff00ff" stroke="#ff00ff" cx="712.15" cy="-105" rx="46.29" ry="18"/>
<text text-anchor="middle" x="712.15" y="-101.3" font-family="Times,serif" font-size="14.00">तदा (12)</text>
</a>
</g>
</g>
<!-- 10&#45;&gt;12 -->
<g id="edge11" class="edge">
<title>10&#45;&gt;12</title>
<path fill="none" stroke="black" d="M664.66,-175.69C671.72,-170.02 679.26,-163.2 685.15,-156 690.98,-148.86 696.15,-140.28 700.37,-132.25"/>
<polygon fill="black" stroke="black" points="703.55,-133.71 704.86,-123.2 697.28,-130.6 703.55,-133.71"/>
<text text-anchor="middle" x="733.65" y="-144.8" font-family="Times,serif" font-size="14.00">कालाधिकरणम्</text>
</g>
<!-- 12.1 -->
<g id="node13" class="node">
<title>12.1</title>
<g id="a_node13"><a xlink:title="तद्{सर्वनाम;पुं;1;एक}">
<ellipse fill="#808080" stroke="#808080" cx="834.15" cy="-105" rx="57.69" ry="18"/>
<text text-anchor="middle" x="834.15" y="-101.3" font-family="Times,serif" font-size="14.00">(सः) (12.1)</text>
</a>
</g>
</g>
<!-- 10&#45;&gt;12.1 -->
<g id="edge12" class="edge">
<title>10&#45;&gt;12.1</title>
<path fill="none" stroke="black" d="M689.44,-184.38C716.2,-179.24 749.85,-170.48 777.15,-156 789.81,-149.28 802.01,-139.23 811.85,-129.9"/>
<polygon fill="black" stroke="black" points="814.55,-132.16 819.21,-122.65 809.63,-127.18 814.55,-132.16"/>
<text text-anchor="middle" x="809.65" y="-144.8" font-family="Times,serif" font-size="14.00">कर्ता</text>
</g>
<!-- 12.2 -->
<g id="node14" class="node">
<title>12.2</title>
<g id="a_node14"><a xlink:title="इति{अव्य">
<ellipse fill="#ff00ff" stroke="#ff00ff" cx="972.15" cy="-105" rx="61.99" ry="18"/>
<text text-anchor="middle" x="972.15" y="-101.3" font-family="Times,serif" font-size="14.00">(इति) (12.2)</text>
</a>
</g>
</g>
<!-- 10&#45;&gt;12.2 -->
<g id="edge13" class="edge">
<title>10&#45;&gt;12.2</title>
<path fill="none" stroke="black" d="M689.05,-184.06C726.31,-178 780.03,-168.24 826.15,-156 860.43,-146.9 898.3,-133.84 926.88,-123.35"/>
<polygon fill="black" stroke="black" points="928.42,-126.51 936.58,-119.76 925.99,-119.95 928.42,-126.51"/>
<text text-anchor="middle" x="918.65" y="-144.8" font-family="Times,serif" font-size="14.00">वाक्यकर्मद्योतकः</text>
</g>
<!-- 12&#45;&gt;2 -->
<g id="edge1" class="edge">
<title>12&#45;&gt;2</title>
<path fill="none" stroke="black" stroke-dasharray="1,5" d="M712.15,-86.8C712.15,-75.16 712.15,-59.55 712.15,-46.24"/>
<polygon fill="black" stroke="black" points="715.65,-46.18 712.15,-36.18 708.65,-46.18 715.65,-46.18"/>
<text text-anchor="middle" x="752.15" y="-57.8" font-family="Times,serif" font-size="14.00">नित्य_सम्बन्धः</text>
</g>
<!-- 13 -->
<g id="node15" class="node">
<title>13</title>
<g id="a_node15"><a xlink:title="वच्1{कर्मणि;लट्;प्र;एक;आत्मनेपदी;वचँ;अदादिः}">
<ellipse fill="#ff6347" stroke="#ff6347" cx="643.15" cy="-279" rx="53.89" ry="18"/>
<text text-anchor="middle" x="643.15" y="-275.3" font-family="Times,serif" font-size="14.00">उच्यते (13)</text>
</a>
</g>
</g>
<!-- 13&#45;&gt;10 -->
<g id="edge9" class="edge">
<title>13&#45;&gt;10</title>
<path fill="none" stroke="black" d="M643.15,-260.8C643.15,-249.16 643.15,-233.55 643.15,-220.24"/>
<polygon fill="black" stroke="black" points="646.65,-220.18 643.15,-210.18 639.65,-220.18 646.65,-220.18"/>
<text text-anchor="middle" x="653.15" y="-231.8" font-family="Times,serif" font-size="14.00">कर्म</text>
</g>
</g>
</svg>
