<?xml version="1.0" encoding="UTF-8" standalone="no"?>
<!DOCTYPE svg PUBLIC "-//W3C//DTD SVG 1.1//EN"
 "http://www.w3.org/Graphics/SVG/1.1/DTD/svg11.dtd">
<!-- Generated by graphviz version 2.43.0 (0)
 -->
<!-- Title: %3 Pages: 1 -->
<svg width="817pt" height="305pt"
 viewBox="0.00 0.00 816.84 305.00" xmlns="http://www.w3.org/2000/svg" xmlns:xlink="http://www.w3.org/1999/xlink">
<g id="graph0" class="graph" transform="scale(1 1) rotate(0) translate(4 301)">
<title>%3</title>
<polygon fill="#fffacd" stroke="transparent" points="-4,4 -4,-301 812.84,-301 812.84,4 -4,4"/>
<!-- 1 -->
<g id="node1" class="node">
<title>1</title>
<g id="a_node1"><a xlink:title="प्रकृति{स्त्री}{6;एक}">
<ellipse fill="#87ceeb" stroke="#87ceeb" cx="70.84" cy="-18" rx="51.99" ry="18"/>
<text text-anchor="middle" x="70.84" y="-14.3" font-family="Times,serif" font-size="14.00">प्रकृतेः (1)</text>
</a>
</g>
</g>
<!-- 2 -->
<g id="node2" class="node">
<title>2</title>
<g id="a_node2"><a xlink:title="कृ3{कृत्_प्रत्ययः:यक्;डुकृञ्;तनादिः;नपुं}{1;बहु}">
<ellipse fill="#00bfff" stroke="#00bfff" cx="70.84" cy="-192" rx="70.69" ry="18"/>
<text text-anchor="middle" x="70.84" y="-188.3" font-family="Times,serif" font-size="14.00">क्रियमाणानि (2)</text>
</a>
</g>
</g>
<!-- 3 -->
<g id="node3" class="node">
<title>3</title>
<g id="a_node3"><a xlink:title="गुण{पुं}{3;बहु}">
<ellipse fill="#40e0d0" stroke="#40e0d0" cx="70.84" cy="-105" rx="42.49" ry="18"/>
<text text-anchor="middle" x="70.84" y="-101.3" font-family="Times,serif" font-size="14.00">गुणैः (3)</text>
</a>
</g>
</g>
<!-- 2&#45;&gt;3 -->
<g id="edge3" class="edge">
<title>2&#45;&gt;3</title>
<path fill="none" stroke="black" d="M70.84,-173.8C70.84,-162.16 70.84,-146.55 70.84,-133.24"/>
<polygon fill="black" stroke="black" points="74.34,-133.18 70.84,-123.18 67.34,-133.18 74.34,-133.18"/>
<text text-anchor="middle" x="83.34" y="-144.8" font-family="Times,serif" font-size="14.00">कर्ता</text>
</g>
<!-- 3&#45;&gt;1 -->
<g id="edge1" class="edge">
<title>3&#45;&gt;1</title>
<path fill="none" stroke="black" d="M70.84,-86.8C70.84,-75.16 70.84,-59.55 70.84,-46.24"/>
<polygon fill="black" stroke="black" points="74.34,-46.18 70.84,-36.18 67.34,-46.18 74.34,-46.18"/>
<text text-anchor="middle" x="106.84" y="-57.8" font-family="Times,serif" font-size="14.00">षष्ठीसम्बन्धः</text>
</g>
<!-- 4 -->
<g id="node4" class="node">
<title>4</title>
<g id="a_node4"><a xlink:title="कर्मन्{नपुं}{1;बहु}">
<ellipse fill="#00bfff" stroke="#00bfff" cx="210.84" cy="-192" rx="50.89" ry="18"/>
<text text-anchor="middle" x="210.84" y="-188.3" font-family="Times,serif" font-size="14.00">कर्माणि (4)</text>
</a>
</g>
</g>
<!-- 5 -->
<g id="node5" class="node">
<title>5</title>
<g id="a_node5"><a xlink:title="सर्वशः{अव्य}">
<ellipse fill="#ff00ff" stroke="#ff00ff" cx="328.84" cy="-192" rx="49.29" ry="18"/>
<text text-anchor="middle" x="328.84" y="-188.3" font-family="Times,serif" font-size="14.00">सर्वशः (5)</text>
</a>
</g>
</g>
<!-- 5.1 -->
<g id="node6" class="node">
<title>5.1</title>
<g id="a_node6"><a xlink:title="(भू1{कर्तरि;लट्;प्र;बहु;परस्मैपदी;भू;भ्वादिः})">
<ellipse fill="#ff6347" stroke="#ff6347" cx="210.84" cy="-279" rx="65.79" ry="18"/>
<text text-anchor="middle" x="210.84" y="-275.3" font-family="Times,serif" font-size="14.00">(भवन्ति) (5.1)</text>
</a>
</g>
</g>
<!-- 5.1&#45;&gt;2 -->
<g id="edge2" class="edge">
<title>5.1&#45;&gt;2</title>
<path fill="none" stroke="black" d="M157.34,-268.42C138.74,-263.18 118.6,-255.17 102.84,-243 94.7,-236.71 88.04,-227.72 82.94,-219.09"/>
<polygon fill="black" stroke="black" points="85.87,-217.14 78.03,-210.01 79.71,-220.47 85.87,-217.14"/>
<text text-anchor="middle" x="154.84" y="-231.8" font-family="Times,serif" font-size="14.00">कर्तृसमानाधिकरणम्</text>
</g>
<!-- 5.1&#45;&gt;4 -->
<g id="edge4" class="edge">
<title>5.1&#45;&gt;4</title>
<path fill="none" stroke="black" d="M210.84,-260.8C210.84,-249.16 210.84,-233.55 210.84,-220.24"/>
<polygon fill="black" stroke="black" points="214.34,-220.18 210.84,-210.18 207.34,-220.18 214.34,-220.18"/>
<text text-anchor="middle" x="223.34" y="-231.8" font-family="Times,serif" font-size="14.00">कर्ता</text>
</g>
<!-- 5.1&#45;&gt;5 -->
<g id="edge5" class="edge">
<title>5.1&#45;&gt;5</title>
<path fill="none" stroke="black" d="M233.04,-262.01C251.73,-248.55 278.63,-229.17 299.17,-214.37"/>
<polygon fill="black" stroke="black" points="301.47,-217.03 307.54,-208.34 297.38,-211.35 301.47,-217.03"/>
<text text-anchor="middle" x="308.34" y="-231.8" font-family="Times,serif" font-size="14.00">अधिकरणम्</text>
</g>
<!-- 6 -->
<g id="node7" class="node">
<title>6</title>
<g id="a_node7"><a xlink:title="अहङ्कार&#45;विमूढ&#45;आत्मन्{पुं}{1;एक}">
<ellipse fill="#00bfff" stroke="#00bfff" cx="505.84" cy="-192" rx="109.68" ry="18"/>
<text text-anchor="middle" x="505.84" y="-188.3" font-family="Times,serif" font-size="14.00">अहङ्कार&#45;वि&#45;मूढ&#45;आत्मा (6)</text>
</a>
</g>
</g>
<!-- 7 -->
<g id="node8" class="node">
<title>7</title>
<g id="a_node8"><a xlink:title="कर्तृ{पुं}{1;एक}">
<ellipse fill="#00bfff" stroke="#00bfff" cx="632.84" cy="-18" rx="42.49" ry="18"/>
<text text-anchor="middle" x="632.84" y="-14.3" font-family="Times,serif" font-size="14.00">कर्ता (7)</text>
</a>
</g>
</g>
<!-- 8 -->
<g id="node9" class="node">
<title>8</title>
<g id="a_node9"><a xlink:title="अस्मद्{1;एक}">
<ellipse fill="#00bfff" stroke="#00bfff" cx="632.84" cy="-105" rx="44.69" ry="18"/>
<text text-anchor="middle" x="632.84" y="-101.3" font-family="Times,serif" font-size="14.00">अहम् (8)</text>
</a>
</g>
</g>
<!-- 8&#45;&gt;7 -->
<g id="edge7" class="edge">
<title>8&#45;&gt;7</title>
<path fill="none" stroke="black" d="M632.84,-86.8C632.84,-75.16 632.84,-59.55 632.84,-46.24"/>
<polygon fill="black" stroke="black" points="636.34,-46.18 632.84,-36.18 629.34,-46.18 636.34,-46.18"/>
<text text-anchor="middle" x="684.84" y="-57.8" font-family="Times,serif" font-size="14.00">कर्तृसमानाधिकरणम्</text>
</g>
<!-- 8.1 -->
<g id="node10" class="node">
<title>8.1</title>
<g id="a_node10"><a xlink:title="(अस्2{कर्तरि;लट्;उ;एक;परस्मैपदी;असँ;अदादिः})">
<ellipse fill="#ff6347" stroke="#ff6347" cx="697.84" cy="-192" rx="63.89" ry="18"/>
<text text-anchor="middle" x="697.84" y="-188.3" font-family="Times,serif" font-size="14.00">(अस्मि) (8.1)</text>
</a>
</g>
</g>
<!-- 8.1&#45;&gt;8 -->
<g id="edge8" class="edge">
<title>8.1&#45;&gt;8</title>
<path fill="none" stroke="black" d="M685,-174.21C675.5,-161.79 662.42,-144.67 651.73,-130.7"/>
<polygon fill="black" stroke="black" points="654.29,-128.29 645.44,-122.47 648.73,-132.54 654.29,-128.29"/>
<text text-anchor="middle" x="682.34" y="-144.8" font-family="Times,serif" font-size="14.00">कर्ता</text>
</g>
<!-- 9 -->
<g id="node11" class="node">
<title>9</title>
<g id="a_node11"><a xlink:title="इति{अव्य}">
<ellipse fill="#ff00ff" stroke="#ff00ff" cx="735.84" cy="-105" rx="40.09" ry="18"/>
<text text-anchor="middle" x="735.84" y="-101.3" font-family="Times,serif" font-size="14.00">इति (9)</text>
</a>
</g>
</g>
<!-- 8.1&#45;&gt;9 -->
<g id="edge10" class="edge">
<title>8.1&#45;&gt;9</title>
<path fill="none" stroke="black" d="M705.53,-173.8C710.87,-161.85 718.09,-145.72 724.14,-132.18"/>
<polygon fill="black" stroke="black" points="727.41,-133.44 728.29,-122.89 721.02,-130.59 727.41,-133.44"/>
<text text-anchor="middle" x="764.34" y="-144.8" font-family="Times,serif" font-size="14.00">वाक्यकर्मद्योतकः</text>
</g>
<!-- 10 -->
<g id="node12" class="node">
<title>10</title>
<g id="a_node12"><a xlink:title="मन्1{कर्तरि;लट्;प्र;एक;आत्मनेपदी;मनँ;दिवादिः}">
<ellipse fill="#ff6347" stroke="#ff6347" cx="565.84" cy="-279" rx="53.89" ry="18"/>
<text text-anchor="middle" x="565.84" y="-275.3" font-family="Times,serif" font-size="14.00">मन्यते (10)</text>
</a>
</g>
</g>
<!-- 10&#45;&gt;6 -->
<g id="edge6" class="edge">
<title>10&#45;&gt;6</title>
<path fill="none" stroke="black" d="M553.99,-261.21C545.34,-248.95 533.45,-232.11 523.66,-218.24"/>
<polygon fill="black" stroke="black" points="526.5,-216.2 517.88,-210.05 520.79,-220.24 526.5,-216.2"/>
<text text-anchor="middle" x="552.34" y="-231.8" font-family="Times,serif" font-size="14.00">कर्ता</text>
</g>
<!-- 10&#45;&gt;8.1 -->
<g id="edge9" class="edge">
<title>10&#45;&gt;8.1</title>
<path fill="none" stroke="black" d="M589.44,-262.8C610.35,-249.34 641.11,-229.53 664.53,-214.45"/>
<polygon fill="black" stroke="black" points="666.59,-217.29 673.11,-208.93 662.8,-211.4 666.59,-217.29"/>
<text text-anchor="middle" x="666.84" y="-231.8" font-family="Times,serif" font-size="14.00">वााक्यकर्म</text>
</g>
</g>
</svg>
