<?xml version="1.0" encoding="UTF-8" standalone="no"?>
<!DOCTYPE svg PUBLIC "-//W3C//DTD SVG 1.1//EN"
 "http://www.w3.org/Graphics/SVG/1.1/DTD/svg11.dtd">
<!-- Generated by graphviz version 2.43.0 (0)
 -->
<!-- Title: %3 Pages: 1 -->
<svg width="429pt" height="392pt"
 viewBox="0.00 0.00 429.19 392.00" xmlns="http://www.w3.org/2000/svg" xmlns:xlink="http://www.w3.org/1999/xlink">
<g id="graph0" class="graph" transform="scale(1 1) rotate(0) translate(4 388)">
<title>%3</title>
<polygon fill="#fffacd" stroke="transparent" points="-4,4 -4,-388 425.19,-388 425.19,4 -4,4"/>
<!-- 1 -->
<g id="node1" class="node">
<title>1</title>
<g id="a_node1"><a xlink:title="आङ्_वृ2{कृत्_प्रत्ययः:क्त;आङ्_वृञ्;स्वादिः;नपुं}{1;एक}">
<ellipse fill="#00bfff" stroke="#00bfff" cx="246.2" cy="-279" rx="53.09" ry="18"/>
<text text-anchor="middle" x="246.2" y="-275.3" font-family="Times,serif" font-size="14.00">आवृतम् (1)</text>
</a>
</g>
</g>
<!-- 2 -->
<g id="node2" class="node">
<title>2</title>
<g id="a_node2"><a xlink:title="ज्ञान{नपुं}{2;एक}">
<ellipse fill="#7cfc00" stroke="#7cfc00" cx="130.2" cy="-192" rx="46.29" ry="18"/>
<text text-anchor="middle" x="130.2" y="-188.3" font-family="Times,serif" font-size="14.00">ज्ञानम् (2)</text>
</a>
</g>
</g>
<!-- 1&#45;&gt;2 -->
<g id="edge2" class="edge">
<title>1&#45;&gt;2</title>
<path fill="none" stroke="black" d="M224.92,-262.41C206.49,-248.91 179.66,-229.25 159.26,-214.29"/>
<polygon fill="black" stroke="black" points="161.08,-211.29 150.95,-208.21 156.94,-216.94 161.08,-211.29"/>
<text text-anchor="middle" x="205.2" y="-231.8" font-family="Times,serif" font-size="14.00">कर्म</text>
</g>
<!-- 9 -->
<g id="node9" class="node">
<title>9</title>
<g id="a_node9"><a xlink:title="अनल{पुं}{3;एक}">
<ellipse fill="#40e0d0" stroke="#40e0d0" cx="246.2" cy="-192" rx="51.99" ry="18"/>
<text text-anchor="middle" x="246.2" y="-188.3" font-family="Times,serif" font-size="14.00">अनलेन (9)</text>
</a>
</g>
</g>
<!-- 1&#45;&gt;9 -->
<g id="edge9" class="edge">
<title>1&#45;&gt;9</title>
<path fill="none" stroke="black" d="M246.2,-260.8C246.2,-249.16 246.2,-233.55 246.2,-220.24"/>
<polygon fill="black" stroke="black" points="249.7,-220.18 246.2,-210.18 242.7,-220.18 249.7,-220.18"/>
<text text-anchor="middle" x="258.7" y="-231.8" font-family="Times,serif" font-size="14.00">कर्ता</text>
</g>
<!-- 10 -->
<g id="node10" class="node">
<title>10</title>
<g id="a_node10"><a xlink:title="च{अव्य}">
<ellipse fill="#ff00ff" stroke="#ff00ff" cx="355.2" cy="-192" rx="38.99" ry="18"/>
<text text-anchor="middle" x="355.2" y="-188.3" font-family="Times,serif" font-size="14.00">च (10)</text>
</a>
</g>
</g>
<!-- 1&#45;&gt;10 -->
<g id="edge10" class="edge">
<title>1&#45;&gt;10</title>
<path fill="none" stroke="black" d="M266.44,-262.21C283.82,-248.66 309.01,-229.02 328.11,-214.12"/>
<polygon fill="black" stroke="black" points="330.42,-216.76 336.15,-207.85 326.12,-211.24 330.42,-216.76"/>
<text text-anchor="middle" x="330.2" y="-231.8" font-family="Times,serif" font-size="14.00">सम्बन्धः</text>
</g>
<!-- 3 -->
<g id="node3" class="node">
<title>3</title>
<g id="a_node3"><a xlink:title="एतद्{नपुं}{3;एक}">
<ellipse fill="#40e0d0" stroke="#40e0d0" cx="44.2" cy="-18" rx="44.39" ry="18"/>
<text text-anchor="middle" x="44.2" y="-14.3" font-family="Times,serif" font-size="14.00">एतेन (3)</text>
</a>
</g>
</g>
<!-- 4 -->
<g id="node4" class="node">
<title>4</title>
<g id="a_node4"><a xlink:title="ज्ञानिन्{पुं}{6;एक}">
<ellipse fill="#87ceeb" stroke="#87ceeb" cx="158.2" cy="-18" rx="51.99" ry="18"/>
<text text-anchor="middle" x="158.2" y="-14.3" font-family="Times,serif" font-size="14.00">ज्ञानिनः (4)</text>
</a>
</g>
</g>
<!-- 5 -->
<g id="node5" class="node">
<title>5</title>
<g id="a_node5"><a xlink:title="नित्यवैरिन्{नपुं}{3;एक}">
<ellipse fill="#40e0d0" stroke="#40e0d0" cx="158.2" cy="-105" rx="67.69" ry="18"/>
<text text-anchor="middle" x="158.2" y="-101.3" font-family="Times,serif" font-size="14.00">नित्य&#45;वैरिणा (5)</text>
</a>
</g>
</g>
<!-- 5&#45;&gt;3 -->
<g id="edge3" class="edge">
<title>5&#45;&gt;3</title>
<path fill="none" stroke="black" d="M131.97,-88.33C122.69,-82.52 112.31,-75.71 103.2,-69 91.68,-60.52 79.53,-50.44 69.27,-41.56"/>
<polygon fill="black" stroke="black" points="71.33,-38.7 61.5,-34.75 66.71,-43.97 71.33,-38.7"/>
<text text-anchor="middle" x="128.7" y="-57.8" font-family="Times,serif" font-size="14.00">विशेषणम्</text>
</g>
<!-- 5&#45;&gt;4 -->
<g id="edge4" class="edge">
<title>5&#45;&gt;4</title>
<path fill="none" stroke="black" d="M158.2,-86.8C158.2,-75.16 158.2,-59.55 158.2,-46.24"/>
<polygon fill="black" stroke="black" points="161.7,-46.18 158.2,-36.18 154.7,-46.18 161.7,-46.18"/>
<text text-anchor="middle" x="194.2" y="-57.8" font-family="Times,serif" font-size="14.00">षष्ठीसम्बन्धः</text>
</g>
<!-- 6 -->
<g id="node6" class="node">
<title>6</title>
<g id="a_node6"><a xlink:title="काम&#45;रूप{नपुं}{3;एक}">
<ellipse fill="#40e0d0" stroke="#40e0d0" cx="291.2" cy="-18" rx="63.09" ry="18"/>
<text text-anchor="middle" x="291.2" y="-14.3" font-family="Times,serif" font-size="14.00">काम&#45;रूपेण (6)</text>
</a>
</g>
</g>
<!-- 5&#45;&gt;6 -->
<g id="edge6" class="edge">
<title>5&#45;&gt;6</title>
<path fill="none" stroke="black" d="M194.89,-89.66C207.75,-83.98 222.01,-76.91 234.2,-69 245.87,-61.42 257.62,-51.57 267.4,-42.62"/>
<polygon fill="black" stroke="black" points="269.88,-45.09 274.78,-35.7 265.09,-39.99 269.88,-45.09"/>
<text text-anchor="middle" x="280.7" y="-57.8" font-family="Times,serif" font-size="14.00">विशेषणम्</text>
</g>
<!-- 7 -->
<g id="node7" class="node">
<title>7</title>
<g id="a_node7"><a xlink:title="कौन्तेय{पुं}{8;एक}">
<ellipse fill="#7fffd4" stroke="#7fffd4" cx="369.2" cy="-279" rx="51.99" ry="18"/>
<text text-anchor="middle" x="369.2" y="-275.3" font-family="Times,serif" font-size="14.00">कौन्तेय (7)</text>
</a>
</g>
</g>
<!-- 8 -->
<g id="node8" class="node">
<title>8</title>
<g id="a_node8"><a xlink:title="दुष्पूर{नपुं}{3;एक}">
<ellipse fill="#40e0d0" stroke="#40e0d0" cx="299.2" cy="-105" rx="55.79" ry="18"/>
<text text-anchor="middle" x="299.2" y="-101.3" font-family="Times,serif" font-size="14.00">दुष्&#45;पूरेण (8)</text>
</a>
</g>
</g>
<!-- 9&#45;&gt;5 -->
<g id="edge5" class="edge">
<title>9&#45;&gt;5</title>
<path fill="none" stroke="black" d="M229.23,-174.61C216.04,-161.88 197.57,-144.03 182.77,-129.74"/>
<polygon fill="black" stroke="black" points="185.04,-127.06 175.41,-122.63 180.17,-132.09 185.04,-127.06"/>
<text text-anchor="middle" x="233.7" y="-144.8" font-family="Times,serif" font-size="14.00">विशेषणम्</text>
</g>
<!-- 9&#45;&gt;8 -->
<g id="edge8" class="edge">
<title>9&#45;&gt;8</title>
<path fill="none" stroke="black" d="M256.67,-174.21C264.29,-161.98 274.75,-145.21 283.38,-131.36"/>
<polygon fill="black" stroke="black" points="286.43,-133.1 288.75,-122.76 280.49,-129.39 286.43,-133.1"/>
<text text-anchor="middle" x="301.7" y="-144.8" font-family="Times,serif" font-size="14.00">विशेषणम्</text>
</g>
<!-- 10.1 -->
<g id="node11" class="node">
<title>10.1</title>
<g id="a_node11"><a xlink:title="(अस्2{कर्तरि;लट्;प्र;एक;परस्मैपदी;असँ;अदादिः})">
<ellipse fill="#ff6347" stroke="#ff6347" cx="307.2" cy="-366" rx="68.79" ry="18"/>
<text text-anchor="middle" x="307.2" y="-362.3" font-family="Times,serif" font-size="14.00">(अस्ति) (10.1)</text>
</a>
</g>
</g>
<!-- 10.1&#45;&gt;1 -->
<g id="edge1" class="edge">
<title>10.1&#45;&gt;1</title>
<path fill="none" stroke="black" d="M295.14,-348.21C286.29,-335.87 274.11,-318.89 264.11,-304.97"/>
<polygon fill="black" stroke="black" points="266.9,-302.84 258.22,-296.76 261.21,-306.92 266.9,-302.84"/>
<text text-anchor="middle" x="304.2" y="-318.8" font-family="Times,serif" font-size="14.00">सम्बन्धः</text>
</g>
<!-- 10.1&#45;&gt;7 -->
<g id="edge7" class="edge">
<title>10.1&#45;&gt;7</title>
<path fill="none" stroke="black" d="M319.45,-348.21C328.45,-335.87 340.83,-318.89 350.98,-304.97"/>
<polygon fill="black" stroke="black" points="353.91,-306.9 356.97,-296.76 348.25,-302.77 353.91,-306.9"/>
<text text-anchor="middle" x="366.7" y="-318.8" font-family="Times,serif" font-size="14.00">सम्बोध्यः</text>
</g>
</g>
</svg>
