<?xml version="1.0" encoding="UTF-8" standalone="no"?>
<!DOCTYPE svg PUBLIC "-//W3C//DTD SVG 1.1//EN"
 "http://www.w3.org/Graphics/SVG/1.1/DTD/svg11.dtd">
<!-- Generated by graphviz version 2.43.0 (0)
 -->
<!-- Title: %3 Pages: 1 -->
<svg width="1168pt" height="305pt"
 viewBox="0.00 0.00 1167.54 305.00" xmlns="http://www.w3.org/2000/svg" xmlns:xlink="http://www.w3.org/1999/xlink">
<g id="graph0" class="graph" transform="scale(1 1) rotate(0) translate(4 301)">
<title>%3</title>
<polygon fill="#fffacd" stroke="transparent" points="-4,4 -4,-301 1163.54,-301 1163.54,4 -4,4"/>
<!-- 1 -->
<g id="node1" class="node">
<title>1</title>
<g id="a_node1"><a xlink:title="सह&#45;यज्ञ{पुं}{1;बहु}">
<ellipse fill="#00bfff" stroke="#00bfff" cx="59.79" cy="-18" rx="59.59" ry="18"/>
<text text-anchor="middle" x="59.79" y="-14.3" font-family="Times,serif" font-size="14.00">सह&#45;यज्ञाः (1)</text>
</a>
</g>
</g>
<!-- 2 -->
<g id="node2" class="node">
<title>2</title>
<g id="a_node2"><a xlink:title="प्रजा{पुं}{1;बहु}">
<ellipse fill="#00bfff" stroke="#00bfff" cx="59.79" cy="-105" rx="49.29" ry="18"/>
<text text-anchor="middle" x="59.79" y="-101.3" font-family="Times,serif" font-size="14.00">प्रजाः (2)</text>
</a>
</g>
</g>
<!-- 2&#45;&gt;1 -->
<g id="edge1" class="edge">
<title>2&#45;&gt;1</title>
<path fill="none" stroke="black" d="M59.79,-86.8C59.79,-75.16 59.79,-59.55 59.79,-46.24"/>
<polygon fill="black" stroke="black" points="63.29,-46.18 59.79,-36.18 56.29,-46.18 63.29,-46.18"/>
<text text-anchor="middle" x="85.29" y="-57.8" font-family="Times,serif" font-size="14.00">विशेषणम्</text>
</g>
<!-- 3 -->
<g id="node3" class="node">
<title>3</title>
<g id="a_node3"><a xlink:title="सृज्2{अव्य;क्त्वा;सृजँ;:तुदादिः}">
<ellipse fill="#ff00ff" stroke="#ff00ff" cx="61.79" cy="-192" rx="50.89" ry="18"/>
<text text-anchor="middle" x="61.79" y="-188.3" font-family="Times,serif" font-size="14.00">सृष्ट्वा (3)</text>
</a>
</g>
</g>
<!-- 3&#45;&gt;2 -->
<g id="edge2" class="edge">
<title>3&#45;&gt;2</title>
<path fill="none" stroke="black" d="M61.39,-173.8C61.12,-162.16 60.75,-146.55 60.44,-133.24"/>
<polygon fill="black" stroke="black" points="63.93,-133.09 60.2,-123.18 56.94,-133.26 63.93,-133.09"/>
<text text-anchor="middle" x="71.79" y="-144.8" font-family="Times,serif" font-size="14.00">कर्म</text>
</g>
<!-- 6 -->
<g id="node8" class="node">
<title>6</title>
<g id="a_node8"><a xlink:title="प्रजा&#45;पति{पुं}{1;एक}">
<ellipse fill="#00bfff" stroke="#00bfff" cx="189.79" cy="-105" rx="63.09" ry="18"/>
<text text-anchor="middle" x="189.79" y="-101.3" font-family="Times,serif" font-size="14.00">प्रजापतिः (6)</text>
</a>
</g>
</g>
<!-- 3&#45;&gt;6 -->
<g id="edge9" class="edge">
<title>3&#45;&gt;6</title>
<path fill="none" stroke="black" stroke-dasharray="1,5" d="M84.68,-175.8C104.87,-162.4 134.52,-142.71 157.19,-127.65"/>
<polygon fill="black" stroke="black" points="159.41,-130.38 165.81,-121.93 155.54,-124.55 159.41,-130.38"/>
<text text-anchor="middle" x="146.29" y="-144.8" font-family="Times,serif" font-size="14.00">कर्ता</text>
</g>
<!-- 3.1 -->
<g id="node4" class="node">
<title>3.1</title>
<g id="a_node4"><a xlink:title="यथा{अव्य}">
<ellipse fill="#ff00ff" stroke="#ff00ff" cx="398.79" cy="-18" rx="57.39" ry="18"/>
<text text-anchor="middle" x="398.79" y="-14.3" font-family="Times,serif" font-size="14.00">(यथा) (3.1)</text>
</a>
</g>
</g>
<!-- 3.2 -->
<g id="node5" class="node">
<title>3.2</title>
<g id="a_node5"><a xlink:title="युष्मद्{1;बहु}">
<ellipse fill="#00bfff" stroke="#00bfff" cx="451.79" cy="-105" rx="60.39" ry="18"/>
<text text-anchor="middle" x="451.79" y="-101.3" font-family="Times,serif" font-size="14.00">(यूयम्) (3.2)</text>
</a>
</g>
</g>
<!-- 4 -->
<g id="node6" class="node">
<title>4</title>
<g id="a_node6"><a xlink:title="पुरा{अव्य}">
<ellipse fill="#ff00ff" stroke="#ff00ff" cx="169.79" cy="-192" rx="38.99" ry="18"/>
<text text-anchor="middle" x="169.79" y="-188.3" font-family="Times,serif" font-size="14.00">पुरा (4)</text>
</a>
</g>
</g>
<!-- 5 -->
<g id="node7" class="node">
<title>5</title>
<g id="a_node7"><a xlink:title="वच्1{कर्तरि;लिट्;प्र;एक;परस्मैपदी;वचँ;अदादिः}">
<ellipse fill="#ff6347" stroke="#ff6347" cx="263.79" cy="-279" rx="46.29" ry="18"/>
<text text-anchor="middle" x="263.79" y="-275.3" font-family="Times,serif" font-size="14.00">उवाच (5)</text>
</a>
</g>
</g>
<!-- 5&#45;&gt;3 -->
<g id="edge3" class="edge">
<title>5&#45;&gt;3</title>
<path fill="none" stroke="black" d="M219.23,-274.11C187.89,-269.89 145.83,-261.12 112.79,-243 101.07,-236.57 90.18,-226.69 81.49,-217.4"/>
<polygon fill="black" stroke="black" points="84.01,-214.97 74.75,-209.83 78.79,-219.63 84.01,-214.97"/>
<text text-anchor="middle" x="137.29" y="-231.8" font-family="Times,serif" font-size="14.00">पूर्वकालः</text>
</g>
<!-- 5&#45;&gt;4 -->
<g id="edge7" class="edge">
<title>5&#45;&gt;4</title>
<path fill="none" stroke="black" d="M220.66,-272.59C202.18,-267.91 182.25,-259.2 170.79,-243 166.19,-236.49 164.76,-228.23 164.82,-220.3"/>
<polygon fill="black" stroke="black" points="168.32,-220.49 165.61,-210.24 161.34,-219.94 168.32,-220.49"/>
<text text-anchor="middle" x="210.29" y="-231.8" font-family="Times,serif" font-size="14.00">कालाधिकरणम्</text>
</g>
<!-- 5&#45;&gt;6 -->
<g id="edge8" class="edge">
<title>5&#45;&gt;6</title>
<path fill="none" stroke="black" d="M259.77,-260.62C257.3,-250.89 253.85,-238.61 249.79,-228 236.7,-193.74 217.4,-156.13 204.25,-131.85"/>
<polygon fill="black" stroke="black" points="207.24,-130.02 199.37,-122.93 201.1,-133.38 207.24,-130.02"/>
<text text-anchor="middle" x="255.29" y="-188.3" font-family="Times,serif" font-size="14.00">कर्ता</text>
</g>
<!-- 8 -->
<g id="node10" class="node">
<title>8</title>
<g id="a_node10"><a xlink:title="प्र_सू2{कर्तरि;लृट्;म;बहु;आत्मनेपदी;षूङ्;:दिवादिः}">
<ellipse fill="#ff6347" stroke="#ff6347" cx="416.79" cy="-192" rx="75.29" ry="18"/>
<text text-anchor="middle" x="416.79" y="-188.3" font-family="Times,serif" font-size="14.00">प्रसविष्यध्वम् (8)</text>
</a>
</g>
</g>
<!-- 5&#45;&gt;8 -->
<g id="edge11" class="edge">
<title>5&#45;&gt;8</title>
<path fill="none" stroke="black" d="M289.4,-263.77C314.01,-250.1 351.48,-229.28 379.42,-213.76"/>
<polygon fill="black" stroke="black" points="381.46,-216.63 388.5,-208.72 378.06,-210.51 381.46,-216.63"/>
<text text-anchor="middle" x="374.29" y="-231.8" font-family="Times,serif" font-size="14.00">वाक्यकर्म</text>
</g>
<!-- 11 -->
<g id="node14" class="node">
<title>11</title>
<g id="a_node14"><a xlink:title="अस्2{कर्तरि;लोट्;प्र;एक;परस्मैपदी;असँ;अदादिः}">
<ellipse fill="#ff6347" stroke="#ff6347" cx="810.79" cy="-192" rx="50.09" ry="18"/>
<text text-anchor="middle" x="810.79" y="-188.3" font-family="Times,serif" font-size="14.00">अस्तु (11)</text>
</a>
</g>
</g>
<!-- 5&#45;&gt;11 -->
<g id="edge15" class="edge">
<title>5&#45;&gt;11</title>
<path fill="none" stroke="black" d="M305.81,-271.47C403.48,-256.29 645.81,-218.64 755.4,-201.61"/>
<polygon fill="black" stroke="black" points="756.24,-205.02 765.59,-200.03 755.17,-198.1 756.24,-205.02"/>
<text text-anchor="middle" x="594.29" y="-231.8" font-family="Times,serif" font-size="14.00">वाक्यकर्म</text>
</g>
<!-- 7 -->
<g id="node9" class="node">
<title>7</title>
<g id="a_node9"><a xlink:title="इदम्{पुं}{3;एक}">
<ellipse fill="#40e0d0" stroke="#40e0d0" cx="575.79" cy="-105" rx="45.49" ry="18"/>
<text text-anchor="middle" x="575.79" y="-101.3" font-family="Times,serif" font-size="14.00">अनेन (7)</text>
</a>
</g>
</g>
<!-- 8&#45;&gt;3.1 -->
<g id="edge5" class="edge">
<title>8&#45;&gt;3.1</title>
<path fill="none" stroke="black" d="M370.88,-177.6C344.47,-167.27 313.5,-150.06 297.79,-123 277.71,-88.38 321.55,-56.64 357.65,-37.56"/>
<polygon fill="black" stroke="black" points="359.29,-40.65 366.61,-32.99 356.11,-34.41 359.29,-40.65"/>
<text text-anchor="middle" x="340.29" y="-101.3" font-family="Times,serif" font-size="14.00">क्रियाविशेषणम्</text>
</g>
<!-- 8&#45;&gt;3.2 -->
<g id="edge6" class="edge">
<title>8&#45;&gt;3.2</title>
<path fill="none" stroke="black" d="M423.88,-173.8C428.8,-161.85 435.44,-145.72 441.01,-132.18"/>
<polygon fill="black" stroke="black" points="444.27,-133.46 444.84,-122.89 437.8,-130.8 444.27,-133.46"/>
<text text-anchor="middle" x="449.29" y="-144.8" font-family="Times,serif" font-size="14.00">कर्ता</text>
</g>
<!-- 8&#45;&gt;7 -->
<g id="edge10" class="edge">
<title>8&#45;&gt;7</title>
<path fill="none" stroke="black" d="M446.33,-175.21C473.04,-160.93 512.4,-139.89 540.7,-124.76"/>
<polygon fill="black" stroke="black" points="542.67,-127.68 549.84,-119.88 539.37,-121.5 542.67,-127.68"/>
<text text-anchor="middle" x="518.29" y="-144.8" font-family="Times,serif" font-size="14.00">हेतुः</text>
</g>
<!-- 8.1 -->
<g id="node11" class="node">
<title>8.1</title>
<g id="a_node11"><a xlink:title="प्र_सू2{कर्तरि;लृट्;म;बहु;आत्मनेपदी;षूङ्;:दिवादिः}">
<ellipse fill="#ff6347" stroke="#ff6347" cx="695.79" cy="-105" rx="56.59" ry="18"/>
<text text-anchor="middle" x="695.79" y="-101.3" font-family="Times,serif" font-size="14.00">(तथा) (8.1)</text>
</a>
</g>
</g>
<!-- 8.1&#45;&gt;3.1 -->
<g id="edge4" class="edge">
<title>8.1&#45;&gt;3.1</title>
<path fill="none" stroke="black" stroke-dasharray="1,5" d="M655.12,-92.36C601.66,-77.06 507.74,-50.18 449.64,-33.55"/>
<polygon fill="black" stroke="black" points="450.51,-30.16 439.93,-30.77 448.58,-36.89 450.51,-30.16"/>
<text text-anchor="middle" x="604.79" y="-57.8" font-family="Times,serif" font-size="14.00">नित्य_सम्बन्धः</text>
</g>
<!-- 9 -->
<g id="node12" class="node">
<title>9</title>
<g id="a_node12"><a xlink:title="एतद्{पुं}{1;एक}">
<ellipse fill="#00bfff" stroke="#00bfff" cx="810.79" cy="-105" rx="40.09" ry="18"/>
<text text-anchor="middle" x="810.79" y="-101.3" font-family="Times,serif" font-size="14.00">एषः (9)</text>
</a>
</g>
</g>
<!-- 10 -->
<g id="node13" class="node">
<title>10</title>
<g id="a_node13"><a xlink:title="युष्मद्{2;बहु}">
<ellipse fill="#7cfc00" stroke="#7cfc00" cx="1084.79" cy="-18" rx="41.69" ry="18"/>
<text text-anchor="middle" x="1084.79" y="-14.3" font-family="Times,serif" font-size="14.00">वः (10)</text>
</a>
</g>
</g>
<!-- 11&#45;&gt;8.1 -->
<g id="edge12" class="edge">
<title>11&#45;&gt;8.1</title>
<path fill="none" stroke="black" d="M788.24,-175.53C779.6,-169.52 769.68,-162.52 760.79,-156 748.72,-147.14 735.6,-137.12 724.32,-128.39"/>
<polygon fill="black" stroke="black" points="726.15,-125.38 716.11,-122 721.86,-130.9 726.15,-125.38"/>
<text text-anchor="middle" x="783.79" y="-144.8" font-family="Times,serif" font-size="14.00">सम्बन्धः</text>
</g>
<!-- 11&#45;&gt;9 -->
<g id="edge13" class="edge">
<title>11&#45;&gt;9</title>
<path fill="none" stroke="black" d="M810.79,-173.8C810.79,-162.16 810.79,-146.55 810.79,-133.24"/>
<polygon fill="black" stroke="black" points="814.29,-133.18 810.79,-123.18 807.29,-133.18 814.29,-133.18"/>
<text text-anchor="middle" x="823.29" y="-144.8" font-family="Times,serif" font-size="14.00">कर्ता</text>
</g>
<!-- 11.1 -->
<g id="node15" class="node">
<title>11.1</title>
<g id="a_node15"><a xlink:title="इति{अव्य}">
<ellipse fill="#ff00ff" stroke="#ff00ff" cx="930.79" cy="-105" rx="61.99" ry="18"/>
<text text-anchor="middle" x="930.79" y="-101.3" font-family="Times,serif" font-size="14.00">(इति) (11.1)</text>
</a>
</g>
</g>
<!-- 11&#45;&gt;11.1 -->
<g id="edge16" class="edge">
<title>11&#45;&gt;11.1</title>
<path fill="none" stroke="black" d="M832.53,-175.61C851.4,-162.24 878.95,-142.72 900.08,-127.75"/>
<polygon fill="black" stroke="black" points="902.27,-130.49 908.41,-121.85 898.23,-124.78 902.27,-130.49"/>
<text text-anchor="middle" x="922.29" y="-144.8" font-family="Times,serif" font-size="14.00">वाक्यकर्मद्योतकः</text>
</g>
<!-- 12 -->
<g id="node16" class="node">
<title>12</title>
<g id="a_node16"><a xlink:title="इष्ट&#45;काम&#45;धुक्{स्त्री}{1;एक}">
<ellipse fill="#00bfff" stroke="#00bfff" cx="1084.79" cy="-105" rx="74.99" ry="18"/>
<text text-anchor="middle" x="1084.79" y="-101.3" font-family="Times,serif" font-size="14.00">इष्टकामधुक् (12)</text>
</a>
</g>
</g>
<!-- 11&#45;&gt;12 -->
<g id="edge17" class="edge">
<title>11&#45;&gt;12</title>
<path fill="none" stroke="black" d="M855.57,-183.66C888,-177.75 932.67,-168.4 970.79,-156 996.04,-147.79 1023.3,-135.95 1044.83,-125.85"/>
<polygon fill="black" stroke="black" points="1046.46,-128.95 1053.99,-121.5 1043.46,-122.63 1046.46,-128.95"/>
<text text-anchor="middle" x="1060.79" y="-144.8" font-family="Times,serif" font-size="14.00">कर्तृसमानाधिकरणम्</text>
</g>
<!-- 12&#45;&gt;10 -->
<g id="edge14" class="edge">
<title>12&#45;&gt;10</title>
<path fill="none" stroke="black" d="M1084.79,-86.8C1084.79,-75.16 1084.79,-59.55 1084.79,-46.24"/>
<polygon fill="black" stroke="black" points="1088.29,-46.18 1084.79,-36.18 1081.29,-46.18 1088.29,-46.18"/>
<text text-anchor="middle" x="1120.79" y="-57.8" font-family="Times,serif" font-size="14.00">षष्ठीसम्बन्धः</text>
</g>
</g>
</svg>
