<?xml version="1.0" encoding="UTF-8" standalone="no"?>
<!DOCTYPE svg PUBLIC "-//W3C//DTD SVG 1.1//EN"
 "http://www.w3.org/Graphics/SVG/1.1/DTD/svg11.dtd">
<!-- Generated by graphviz version 2.43.0 (0)
 -->
<!-- Title: %3 Pages: 1 -->
<svg width="1153pt" height="218pt"
 viewBox="0.00 0.00 1152.79 218.00" xmlns="http://www.w3.org/2000/svg" xmlns:xlink="http://www.w3.org/1999/xlink">
<g id="graph0" class="graph" transform="scale(1 1) rotate(0) translate(4 214)">
<title>%3</title>
<polygon fill="#fffacd" stroke="transparent" points="-4,4 -4,-214 1148.79,-214 1148.79,4 -4,4"/>
<!-- 1 -->
<g id="node1" class="node">
<title>1</title>
<g id="a_node1"><a xlink:title="न{अव्य}">
<ellipse fill="#ff00ff" stroke="#ff00ff" cx="32.5" cy="-105" rx="32.49" ry="18"/>
<text text-anchor="middle" x="32.5" y="-101.3" font-family="Times,serif" font-size="14.00">न (1)</text>
</a>
</g>
</g>
<!-- 2 -->
<g id="node2" class="node">
<title>2</title>
<g id="a_node2"><a xlink:title="अस्मद्{6;एक}">
<ellipse fill="#87ceeb" stroke="#87ceeb" cx="138.5" cy="-18" rx="32.49" ry="18"/>
<text text-anchor="middle" x="138.5" y="-14.3" font-family="Times,serif" font-size="14.00">मे (2)</text>
</a>
</g>
</g>
<!-- 3 -->
<g id="node3" class="node">
<title>3</title>
<g id="a_node3"><a xlink:title="पार्थ{पुं}{8;एक}">
<ellipse fill="#7fffd4" stroke="#7fffd4" cx="123.5" cy="-105" rx="40.89" ry="18"/>
<text text-anchor="middle" x="123.5" y="-101.3" font-family="Times,serif" font-size="14.00">पार्थ (3)</text>
</a>
</g>
</g>
<!-- 4 -->
<g id="node4" class="node">
<title>4</title>
<g id="a_node4"><a xlink:title="अस्2{कर्तरि;लट्;प्र;एक;परस्मैपदी;असँ;अदादिः}">
<ellipse fill="#ff6347" stroke="#ff6347" cx="160.5" cy="-192" rx="47.39" ry="18"/>
<text text-anchor="middle" x="160.5" y="-188.3" font-family="Times,serif" font-size="14.00">अस्ति (4)</text>
</a>
</g>
</g>
<!-- 4&#45;&gt;1 -->
<g id="edge1" class="edge">
<title>4&#45;&gt;1</title>
<path fill="none" stroke="black" d="M127.31,-178.91C113.2,-173.02 96.94,-165.22 83.5,-156 72.47,-148.44 61.69,-138.38 52.9,-129.27"/>
<polygon fill="black" stroke="black" points="55.41,-126.82 46.02,-121.91 50.29,-131.6 55.41,-126.82"/>
<text text-anchor="middle" x="109.5" y="-144.8" font-family="Times,serif" font-size="14.00">प्रतिषेधः</text>
</g>
<!-- 4&#45;&gt;3 -->
<g id="edge3" class="edge">
<title>4&#45;&gt;3</title>
<path fill="none" stroke="black" d="M152.58,-173.96C149.97,-168.26 147.07,-161.87 144.5,-156 141.18,-148.45 137.68,-140.21 134.5,-132.63"/>
<polygon fill="black" stroke="black" points="137.64,-131.06 130.56,-123.18 131.18,-133.76 137.64,-131.06"/>
<text text-anchor="middle" x="170" y="-144.8" font-family="Times,serif" font-size="14.00">सम्बोध्यः</text>
</g>
<!-- 5 -->
<g id="node5" class="node">
<title>5</title>
<g id="a_node5"><a xlink:title="कृ3{कृत्_प्रत्ययः:तव्यत्;डुकृञ्;तनादिः;नपुं}{1;एक}">
<ellipse fill="#00bfff" stroke="#00bfff" cx="237.5" cy="-105" rx="54.69" ry="18"/>
<text text-anchor="middle" x="237.5" y="-101.3" font-family="Times,serif" font-size="14.00">कर्तव्यम् (5)</text>
</a>
</g>
</g>
<!-- 4&#45;&gt;5 -->
<g id="edge4" class="edge">
<title>4&#45;&gt;5</title>
<path fill="none" stroke="black" d="M177.18,-174.91C183.08,-169.06 189.69,-162.33 195.5,-156 202.97,-147.85 210.84,-138.66 217.72,-130.4"/>
<polygon fill="black" stroke="black" points="220.56,-132.46 224.23,-122.52 215.16,-128 220.56,-132.46"/>
<text text-anchor="middle" x="222" y="-144.8" font-family="Times,serif" font-size="14.00">कर्ता</text>
</g>
<!-- 7 -->
<g id="node7" class="node">
<title>7</title>
<g id="a_node7"><a xlink:title="लोक{पुं}{7;बहु}">
<ellipse fill="#708090" stroke="#708090" cx="358.5" cy="-105" rx="48.19" ry="18"/>
<text text-anchor="middle" x="358.5" y="-101.3" font-family="Times,serif" font-size="14.00">लोकेषु (7)</text>
</a>
</g>
</g>
<!-- 4&#45;&gt;7 -->
<g id="edge6" class="edge">
<title>4&#45;&gt;7</title>
<path fill="none" stroke="black" d="M191,-177.91C225.16,-163.24 280.65,-139.42 318.32,-123.25"/>
<polygon fill="black" stroke="black" points="320.15,-126.27 327.96,-119.11 317.39,-119.84 320.15,-126.27"/>
<text text-anchor="middle" x="302" y="-144.8" font-family="Times,serif" font-size="14.00">अधिकरणम्</text>
</g>
<!-- 5&#45;&gt;2 -->
<g id="edge2" class="edge">
<title>5&#45;&gt;2</title>
<path fill="none" stroke="black" d="M199.87,-91.92C187.17,-86.45 173.66,-78.94 163.5,-69 156.82,-62.46 151.62,-53.77 147.74,-45.46"/>
<polygon fill="black" stroke="black" points="150.89,-43.91 143.79,-36.05 144.44,-46.62 150.89,-43.91"/>
<text text-anchor="middle" x="199.5" y="-57.8" font-family="Times,serif" font-size="14.00">षष्ठीसम्बन्धः</text>
</g>
<!-- 8 -->
<g id="node8" class="node">
<title>8</title>
<g id="a_node8"><a xlink:title="किञ्चन{नपुं}{1;एक}">
<ellipse fill="#00bfff" stroke="#00bfff" cx="240.5" cy="-18" rx="51.99" ry="18"/>
<text text-anchor="middle" x="240.5" y="-14.3" font-family="Times,serif" font-size="14.00">किञ्चन (8)</text>
</a>
</g>
</g>
<!-- 5&#45;&gt;8 -->
<g id="edge7" class="edge">
<title>5&#45;&gt;8</title>
<path fill="none" stroke="black" d="M238.1,-86.8C238.51,-75.16 239.07,-59.55 239.54,-46.24"/>
<polygon fill="black" stroke="black" points="243.04,-46.29 239.89,-36.18 236.04,-46.05 243.04,-46.29"/>
<text text-anchor="middle" x="265" y="-57.8" font-family="Times,serif" font-size="14.00">विशेषणम्</text>
</g>
<!-- 6 -->
<g id="node6" class="node">
<title>6</title>
<g id="a_node6"><a xlink:title="त्रि{पुं}{7;बहु}">
<ellipse fill="#708090" stroke="#708090" cx="358.5" cy="-18" rx="44.39" ry="18"/>
<text text-anchor="middle" x="358.5" y="-14.3" font-family="Times,serif" font-size="14.00">त्रिषु (6)</text>
</a>
</g>
</g>
<!-- 7&#45;&gt;6 -->
<g id="edge5" class="edge">
<title>7&#45;&gt;6</title>
<path fill="none" stroke="black" d="M358.5,-86.8C358.5,-75.16 358.5,-59.55 358.5,-46.24"/>
<polygon fill="black" stroke="black" points="362,-46.18 358.5,-36.18 355,-46.18 362,-46.18"/>
<text text-anchor="middle" x="384" y="-57.8" font-family="Times,serif" font-size="14.00">विशेषणम्</text>
</g>
<!-- 9 -->
<g id="node9" class="node">
<title>9</title>
<g id="a_node9"><a xlink:title="न{अव्य}">
<ellipse fill="#ff00ff" stroke="#ff00ff" cx="457.5" cy="-105" rx="32.49" ry="18"/>
<text text-anchor="middle" x="457.5" y="-101.3" font-family="Times,serif" font-size="14.00">न (9)</text>
</a>
</g>
</g>
<!-- 10 -->
<g id="node10" class="node">
<title>10</title>
<g id="a_node10"><a xlink:title="न&#45;अव_आप्1{कृत्_प्रत्ययः:तव्यत्;अव_आपॢँ;स्वादिः;नपुं}{1;एक}">
<ellipse fill="#00bfff" stroke="#00bfff" cx="587.5" cy="-105" rx="79.09" ry="18"/>
<text text-anchor="middle" x="587.5" y="-101.3" font-family="Times,serif" font-size="14.00">अन्&#45;अवाप्तम् (10)</text>
</a>
</g>
</g>
<!-- 11 -->
<g id="node11" class="node">
<title>11</title>
<g id="a_node11"><a xlink:title="अव_आप्1{कृत्_प्रत्ययः:तव्यत्;अव_आपॢँ;स्वादिः;नपुं}{1;एक}">
<ellipse fill="#00bfff" stroke="#00bfff" cx="522.5" cy="-192" rx="72.59" ry="18"/>
<text text-anchor="middle" x="522.5" y="-188.3" font-family="Times,serif" font-size="14.00">अवाप्तव्यम् (11)</text>
</a>
</g>
</g>
<!-- 11&#45;&gt;9 -->
<g id="edge8" class="edge">
<title>11&#45;&gt;9</title>
<path fill="none" stroke="black" d="M509.66,-174.21C500.03,-161.63 486.73,-144.23 475.97,-130.16"/>
<polygon fill="black" stroke="black" points="478.51,-127.71 469.65,-121.9 472.95,-131.97 478.51,-127.71"/>
<text text-anchor="middle" x="520.5" y="-144.8" font-family="Times,serif" font-size="14.00">प्रतिषेधः</text>
</g>
<!-- 11&#45;&gt;10 -->
<g id="edge9" class="edge">
<title>11&#45;&gt;10</title>
<path fill="none" stroke="black" d="M536.3,-174.01C540.86,-168.32 545.94,-161.92 550.5,-156 556.59,-148.08 563.11,-139.35 568.96,-131.44"/>
<polygon fill="black" stroke="black" points="571.88,-133.37 574.98,-123.24 566.24,-129.23 571.88,-133.37"/>
<text text-anchor="middle" x="572.5" y="-144.8" font-family="Times,serif" font-size="14.00">कर्म</text>
</g>
<!-- 12 -->
<g id="node12" class="node">
<title>12</title>
<g id="a_node12"><a xlink:title="वृत्1{कर्तरि;लट्;उ;एक;आत्मनेपदी;वृतुँ;भ्वादिः}">
<ellipse fill="#ff6347" stroke="#ff6347" cx="884.5" cy="-192" rx="44.39" ry="18"/>
<text text-anchor="middle" x="884.5" y="-188.3" font-family="Times,serif" font-size="14.00">वर्ते (12)</text>
</a>
</g>
</g>
<!-- 13 -->
<g id="node13" class="node">
<title>13</title>
<g id="a_node13"><a xlink:title="एव{अव्य}">
<ellipse fill="#ff00ff" stroke="#ff00ff" cx="728.5" cy="-105" rx="43.59" ry="18"/>
<text text-anchor="middle" x="728.5" y="-101.3" font-family="Times,serif" font-size="14.00">एव (13)</text>
</a>
</g>
</g>
<!-- 12&#45;&gt;13 -->
<g id="edge10" class="edge">
<title>12&#45;&gt;13</title>
<path fill="none" stroke="black" d="M853.53,-178.89C838.45,-172.63 820.22,-164.53 804.5,-156 788.55,-147.35 771.62,-136.4 757.79,-126.95"/>
<polygon fill="black" stroke="black" points="759.41,-123.81 749.2,-121 755.43,-129.57 759.41,-123.81"/>
<text text-anchor="middle" x="827.5" y="-144.8" font-family="Times,serif" font-size="14.00">सम्बन्धः</text>
</g>
<!-- 14 -->
<g id="node14" class="node">
<title>14</title>
<g id="a_node14"><a xlink:title="च{अव्य}">
<ellipse fill="#ff00ff" stroke="#ff00ff" cx="829.5" cy="-105" rx="38.99" ry="18"/>
<text text-anchor="middle" x="829.5" y="-101.3" font-family="Times,serif" font-size="14.00">च (14)</text>
</a>
</g>
</g>
<!-- 12&#45;&gt;14 -->
<g id="edge11" class="edge">
<title>12&#45;&gt;14</title>
<path fill="none" stroke="black" d="M873.63,-174.21C865.67,-161.9 854.73,-145 845.73,-131.09"/>
<polygon fill="black" stroke="black" points="848.52,-128.96 840.15,-122.47 842.65,-132.77 848.52,-128.96"/>
<text text-anchor="middle" x="883.5" y="-144.8" font-family="Times,serif" font-size="14.00">सम्बन्धः</text>
</g>
<!-- 15 -->
<g id="node15" class="node">
<title>15</title>
<g id="a_node15"><a xlink:title="कर्मन्{नपुं}{7;एक}">
<ellipse fill="#708090" stroke="#708090" cx="940.5" cy="-105" rx="53.89" ry="18"/>
<text text-anchor="middle" x="940.5" y="-101.3" font-family="Times,serif" font-size="14.00">कर्मणि (15)</text>
</a>
</g>
</g>
<!-- 12&#45;&gt;15 -->
<g id="edge12" class="edge">
<title>12&#45;&gt;15</title>
<path fill="none" stroke="black" d="M897.27,-174.51C901.6,-168.74 906.37,-162.17 910.5,-156 915.68,-148.26 921.01,-139.62 925.71,-131.74"/>
<polygon fill="black" stroke="black" points="928.84,-133.32 930.9,-122.92 922.81,-129.77 928.84,-133.32"/>
<text text-anchor="middle" x="951" y="-144.8" font-family="Times,serif" font-size="14.00">अधिकरणम्</text>
</g>
<!-- 15.1 -->
<g id="node16" class="node">
<title>15.1</title>
<g id="a_node16"><a xlink:title="(अस्मद्{1;एक})">
<ellipse fill="#00bfff" stroke="#00bfff" cx="1078.5" cy="-105" rx="66.09" ry="18"/>
<text text-anchor="middle" x="1078.5" y="-101.3" font-family="Times,serif" font-size="14.00">(अहम्) (15.1)</text>
</a>
</g>
</g>
<!-- 12&#45;&gt;15.1 -->
<g id="edge13" class="edge">
<title>12&#45;&gt;15.1</title>
<path fill="none" stroke="black" d="M919.15,-180.51C938.89,-174.16 963.91,-165.47 985.5,-156 1005.04,-147.42 1026.05,-136.31 1043.14,-126.73"/>
<polygon fill="black" stroke="black" points="1045.23,-129.57 1052.2,-121.6 1041.78,-123.48 1045.23,-129.57"/>
<text text-anchor="middle" x="1026" y="-144.8" font-family="Times,serif" font-size="14.00">कर्ता</text>
</g>
</g>
</svg>
