<?xml version="1.0" encoding="UTF-8" standalone="no"?>
<!DOCTYPE svg PUBLIC "-//W3C//DTD SVG 1.1//EN"
 "http://www.w3.org/Graphics/SVG/1.1/DTD/svg11.dtd">
<!-- Generated by graphviz version 2.43.0 (0)
 -->
<!-- Title: %3 Pages: 1 -->
<svg width="934pt" height="305pt"
 viewBox="0.00 0.00 933.74 305.00" xmlns="http://www.w3.org/2000/svg" xmlns:xlink="http://www.w3.org/1999/xlink">
<g id="graph0" class="graph" transform="scale(1 1) rotate(0) translate(4 301)">
<title>%3</title>
<polygon fill="#fffacd" stroke="transparent" points="-4,4 -4,-301 929.74,-301 929.74,4 -4,4"/>
<!-- 1 -->
<g id="node1" class="node">
<title>1</title>
<g id="a_node1"><a xlink:title="त्यज्1{कृत्_प्रत्ययः:क्त्वा;त्यजँ;भ्वादिः}">
<ellipse fill="#808080" stroke="#808080" cx="357.64" cy="-105" rx="52.79" ry="18"/>
<text text-anchor="middle" x="357.64" y="-101.3" font-family="Times,serif" font-size="14.00">त्यक्त्वा (1)</text>
</a>
</g>
</g>
<!-- 2 -->
<g id="node2" class="node">
<title>2</title>
<g id="a_node2"><a xlink:title="कर्मन्&#45;फल&#45;आसङ्ग{पुं}{2;एक}">
<ellipse fill="#7cfc00" stroke="#7cfc00" cx="357.64" cy="-18" rx="93.68" ry="18"/>
<text text-anchor="middle" x="357.64" y="-14.3" font-family="Times,serif" font-size="14.00">कर्म&#45;फल&#45;आसङ्गम् (2)</text>
</a>
</g>
</g>
<!-- 1&#45;&gt;2 -->
<g id="edge2" class="edge">
<title>1&#45;&gt;2</title>
<path fill="none" stroke="black" d="M357.64,-86.8C357.64,-75.16 357.64,-59.55 357.64,-46.24"/>
<polygon fill="black" stroke="black" points="361.14,-46.18 357.64,-36.18 354.14,-46.18 361.14,-46.18"/>
<text text-anchor="middle" x="367.64" y="-57.8" font-family="Times,serif" font-size="14.00">कर्म</text>
</g>
<!-- 4.2 -->
<g id="node6" class="node">
<title>4.2</title>
<g id="a_node6"><a xlink:title="(यद्{पुं}{1;एक})">
<ellipse fill="#00bfff" stroke="#00bfff" cx="521.64" cy="-18" rx="51.99" ry="18"/>
<text text-anchor="middle" x="521.64" y="-14.3" font-family="Times,serif" font-size="14.00">(यः) (4.2)</text>
</a>
</g>
</g>
<!-- 1&#45;&gt;4.2 -->
<g id="edge7" class="edge">
<title>1&#45;&gt;4.2</title>
<path fill="none" stroke="black" stroke-dasharray="1,5" d="M370.47,-87.49C379.73,-76.58 393.13,-62.73 407.64,-54 413.6,-50.42 444.63,-40.98 472.81,-32.8"/>
<polygon fill="black" stroke="black" points="473.98,-36.11 482.62,-29.97 472.04,-29.38 473.98,-36.11"/>
<text text-anchor="middle" x="420.14" y="-57.8" font-family="Times,serif" font-size="14.00">कर्ता</text>
</g>
<!-- 3 -->
<g id="node3" class="node">
<title>3</title>
<g id="a_node3"><a xlink:title="नित्य&#45;तृप्त{पुं}{1;एक}">
<ellipse fill="#00bfff" stroke="#00bfff" cx="65.64" cy="-18" rx="65.79" ry="18"/>
<text text-anchor="middle" x="65.64" y="-14.3" font-family="Times,serif" font-size="14.00">नित्य&#45;तृप्तः (3)</text>
</a>
</g>
</g>
<!-- 4 -->
<g id="node4" class="node">
<title>4</title>
<g id="a_node4"><a xlink:title="निर्&#45;आश्रय{पुं}{1;एक}">
<ellipse fill="#00bfff" stroke="#00bfff" cx="197.64" cy="-105" rx="70.69" ry="18"/>
<text text-anchor="middle" x="197.64" y="-101.3" font-family="Times,serif" font-size="14.00">निर्&#45;आश्रयः (4)</text>
</a>
</g>
</g>
<!-- 4&#45;&gt;3 -->
<g id="edge3" class="edge">
<title>4&#45;&gt;3</title>
<path fill="none" stroke="black" d="M152.49,-91.06C137.73,-85.61 121.77,-78.33 108.64,-69 99.17,-62.27 90.44,-53.01 83.36,-44.29"/>
<polygon fill="black" stroke="black" points="85.99,-41.97 77.11,-36.19 80.45,-46.24 85.99,-41.97"/>
<text text-anchor="middle" x="151.14" y="-57.8" font-family="Times,serif" font-size="14.00">सुप्_समुच्चितम्</text>
</g>
<!-- 4.1 -->
<g id="node5" class="node">
<title>4.1</title>
<g id="a_node5"><a xlink:title="(च{अव्य})">
<ellipse fill="#ff00ff" stroke="#ff00ff" cx="197.64" cy="-18" rx="48.99" ry="18"/>
<text text-anchor="middle" x="197.64" y="-14.3" font-family="Times,serif" font-size="14.00">(च) (4.1)</text>
</a>
</g>
</g>
<!-- 4&#45;&gt;4.1 -->
<g id="edge5" class="edge">
<title>4&#45;&gt;4.1</title>
<path fill="none" stroke="black" d="M197.64,-86.8C197.64,-75.16 197.64,-59.55 197.64,-46.24"/>
<polygon fill="black" stroke="black" points="201.14,-46.18 197.64,-36.18 194.14,-46.18 201.14,-46.18"/>
<text text-anchor="middle" x="240.14" y="-57.8" font-family="Times,serif" font-size="14.00">समुच्चयद्योतकः</text>
</g>
<!-- 4.3 -->
<g id="node7" class="node">
<title>4.3</title>
<g id="a_node7"><a xlink:title="(अस्2{कर्तरि;लट्;प्र;एक;परस्मैपदी;असँ;अदादिः})">
<ellipse fill="#ff6347" stroke="#ff6347" cx="357.64" cy="-192" rx="63.09" ry="18"/>
<text text-anchor="middle" x="357.64" y="-188.3" font-family="Times,serif" font-size="14.00">(अस्ति) (4.3)</text>
</a>
</g>
</g>
<!-- 4.3&#45;&gt;1 -->
<g id="edge1" class="edge">
<title>4.3&#45;&gt;1</title>
<path fill="none" stroke="black" d="M357.64,-173.8C357.64,-162.16 357.64,-146.55 357.64,-133.24"/>
<polygon fill="black" stroke="black" points="361.14,-133.18 357.64,-123.18 354.14,-133.18 361.14,-133.18"/>
<text text-anchor="middle" x="382.14" y="-144.8" font-family="Times,serif" font-size="14.00">पूर्वकालः</text>
</g>
<!-- 4.3&#45;&gt;4 -->
<g id="edge4" class="edge">
<title>4.3&#45;&gt;4</title>
<path fill="none" stroke="black" d="M309.4,-180.4C289.98,-174.88 267.91,-166.94 249.64,-156 238.23,-149.16 227.33,-139.39 218.49,-130.29"/>
<polygon fill="black" stroke="black" points="220.96,-127.81 211.58,-122.89 215.84,-132.59 220.96,-127.81"/>
<text text-anchor="middle" x="301.64" y="-144.8" font-family="Times,serif" font-size="14.00">कर्तृसमानाधिकरणम्</text>
</g>
<!-- 4.3&#45;&gt;4.2 -->
<g id="edge6" class="edge">
<title>4.3&#45;&gt;4.2</title>
<path fill="none" stroke="black" d="M385.4,-175.7C394.06,-170.16 403.26,-163.43 410.64,-156 436.46,-130.04 432.79,-115.6 455.64,-87 468.26,-71.21 483.98,-54.91 496.9,-42.23"/>
<polygon fill="black" stroke="black" points="499.4,-44.68 504.15,-35.21 494.53,-39.65 499.4,-44.68"/>
<text text-anchor="middle" x="468.14" y="-101.3" font-family="Times,serif" font-size="14.00">कर्ता</text>
</g>
<!-- 5 -->
<g id="node8" class="node">
<title>5</title>
<g id="a_node8"><a xlink:title="कर्मन्{नपुं}{7;एक}">
<ellipse fill="#708090" stroke="#708090" cx="741.64" cy="-105" rx="48.19" ry="18"/>
<text text-anchor="middle" x="741.64" y="-101.3" font-family="Times,serif" font-size="14.00">कर्मणि (5)</text>
</a>
</g>
</g>
<!-- 6 -->
<g id="node9" class="node">
<title>6</title>
<g id="a_node9"><a xlink:title="अभिप्रवृत्त{पुं}{1;एक}">
<ellipse fill="#00bfff" stroke="#00bfff" cx="633.64" cy="-192" rx="68.49" ry="18"/>
<text text-anchor="middle" x="633.64" y="-188.3" font-family="Times,serif" font-size="14.00">अभिप्रवृत्तः (6)</text>
</a>
</g>
</g>
<!-- 6&#45;&gt;5 -->
<g id="edge9" class="edge">
<title>6&#45;&gt;5</title>
<path fill="none" stroke="black" d="M660.35,-175.42C669.57,-169.68 679.8,-162.88 688.64,-156 699.09,-147.86 709.86,-138.02 718.94,-129.23"/>
<polygon fill="black" stroke="black" points="721.45,-131.66 726.12,-122.15 716.54,-126.68 721.45,-131.66"/>
<text text-anchor="middle" x="736.14" y="-144.8" font-family="Times,serif" font-size="14.00">अधिकरणम्</text>
</g>
<!-- 7 -->
<g id="node10" class="node">
<title>7</title>
<g id="a_node10"><a xlink:title="अपि{अव्य}">
<ellipse fill="#ff00ff" stroke="#ff00ff" cx="531.64" cy="-105" rx="42.49" ry="18"/>
<text text-anchor="middle" x="531.64" y="-101.3" font-family="Times,serif" font-size="14.00">अपि (7)</text>
</a>
</g>
</g>
<!-- 6&#45;&gt;7 -->
<g id="edge11" class="edge">
<title>6&#45;&gt;7</title>
<path fill="none" stroke="black" d="M609.18,-175C600.87,-169.27 591.66,-162.6 583.64,-156 573.62,-147.76 563.19,-137.99 554.32,-129.29"/>
<polygon fill="black" stroke="black" points="556.54,-126.56 546.99,-121.98 551.6,-131.52 556.54,-126.56"/>
<text text-anchor="middle" x="606.64" y="-144.8" font-family="Times,serif" font-size="14.00">सम्बन्धः</text>
</g>
<!-- 12 -->
<g id="node15" class="node">
<title>12</title>
<g id="a_node15"><a xlink:title="तद्{पुं}{1;एक}">
<ellipse fill="#00bfff" stroke="#00bfff" cx="633.64" cy="-105" rx="42.49" ry="18"/>
<text text-anchor="middle" x="633.64" y="-101.3" font-family="Times,serif" font-size="14.00">सः (12)</text>
</a>
</g>
</g>
<!-- 6&#45;&gt;12 -->
<g id="edge15" class="edge">
<title>6&#45;&gt;12</title>
<path fill="none" stroke="black" d="M633.64,-173.8C633.64,-162.16 633.64,-146.55 633.64,-133.24"/>
<polygon fill="black" stroke="black" points="637.14,-133.18 633.64,-123.18 630.14,-133.18 637.14,-133.18"/>
<text text-anchor="middle" x="659.14" y="-144.8" font-family="Times,serif" font-size="14.00">विशेषणम्</text>
</g>
<!-- 8 -->
<g id="node11" class="node">
<title>8</title>
<g id="a_node11"><a xlink:title="न{अव्य}">
<ellipse fill="#ff00ff" stroke="#ff00ff" cx="752.64" cy="-192" rx="32.49" ry="18"/>
<text text-anchor="middle" x="752.64" y="-188.3" font-family="Times,serif" font-size="14.00">न (8)</text>
</a>
</g>
</g>
<!-- 9 -->
<g id="node12" class="node">
<title>9</title>
<g id="a_node12"><a xlink:title="एव{अव्य}">
<ellipse fill="#ff00ff" stroke="#ff00ff" cx="864.64" cy="-105" rx="37.89" ry="18"/>
<text text-anchor="middle" x="864.64" y="-101.3" font-family="Times,serif" font-size="14.00">एव (9)</text>
</a>
</g>
</g>
<!-- 10 -->
<g id="node13" class="node">
<title>10</title>
<g id="a_node13"><a xlink:title="किञ्चित्{नपुं}{2;एक}">
<ellipse fill="#7cfc00" stroke="#7cfc00" cx="864.64" cy="-192" rx="61.19" ry="18"/>
<text text-anchor="middle" x="864.64" y="-188.3" font-family="Times,serif" font-size="14.00">किञ्चित् (10)</text>
</a>
</g>
</g>
<!-- 10&#45;&gt;9 -->
<g id="edge13" class="edge">
<title>10&#45;&gt;9</title>
<path fill="none" stroke="black" d="M864.64,-173.8C864.64,-162.16 864.64,-146.55 864.64,-133.24"/>
<polygon fill="black" stroke="black" points="868.14,-133.18 864.64,-123.18 861.14,-133.18 868.14,-133.18"/>
<text text-anchor="middle" x="887.64" y="-144.8" font-family="Times,serif" font-size="14.00">सम्बन्धः</text>
</g>
<!-- 11 -->
<g id="node14" class="node">
<title>11</title>
<g id="a_node14"><a xlink:title="कृ3{कर्तरि;लट्;प्र;एक;परस्मैपदी;डुकृञ्;तनादिः}">
<ellipse fill="#ff6347" stroke="#ff6347" cx="752.64" cy="-279" rx="54.69" ry="18"/>
<text text-anchor="middle" x="752.64" y="-275.3" font-family="Times,serif" font-size="14.00">करोति (11)</text>
</a>
</g>
</g>
<!-- 11&#45;&gt;6 -->
<g id="edge10" class="edge">
<title>11&#45;&gt;6</title>
<path fill="none" stroke="black" d="M730.82,-262.41C712.18,-249.1 685.17,-229.8 664.35,-214.94"/>
<polygon fill="black" stroke="black" points="666.31,-212.03 656.14,-209.07 662.24,-217.73 666.31,-212.03"/>
<text text-anchor="middle" x="713.14" y="-231.8" font-family="Times,serif" font-size="14.00">कर्ता</text>
</g>
<!-- 11&#45;&gt;8 -->
<g id="edge12" class="edge">
<title>11&#45;&gt;8</title>
<path fill="none" stroke="black" d="M752.64,-260.8C752.64,-249.16 752.64,-233.55 752.64,-220.24"/>
<polygon fill="black" stroke="black" points="756.14,-220.18 752.64,-210.18 749.14,-220.18 756.14,-220.18"/>
<text text-anchor="middle" x="778.64" y="-231.8" font-family="Times,serif" font-size="14.00">प्रतिषेधः</text>
</g>
<!-- 11&#45;&gt;10 -->
<g id="edge14" class="edge">
<title>11&#45;&gt;10</title>
<path fill="none" stroke="black" d="M778.62,-263.03C788.29,-257.14 799.2,-250.09 808.64,-243 819.4,-234.93 830.57,-225.25 840.09,-216.57"/>
<polygon fill="black" stroke="black" points="842.69,-218.93 847.64,-209.56 837.93,-213.79 842.69,-218.93"/>
<text text-anchor="middle" x="835.64" y="-231.8" font-family="Times,serif" font-size="14.00">कर्म</text>
</g>
<!-- 12&#45;&gt;4.2 -->
<g id="edge8" class="edge">
<title>12&#45;&gt;4.2</title>
<path fill="none" stroke="black" stroke-dasharray="1,5" d="M613.88,-89C596.29,-75.65 570.36,-55.97 550.46,-40.87"/>
<polygon fill="black" stroke="black" points="552.43,-37.97 542.35,-34.71 548.2,-43.55 552.43,-37.97"/>
<text text-anchor="middle" x="620.64" y="-57.8" font-family="Times,serif" font-size="14.00">नित्यसम्बन्धः</text>
</g>
</g>
</svg>
