<?xml version="1.0" encoding="UTF-8" standalone="no"?>
<!DOCTYPE svg PUBLIC "-//W3C//DTD SVG 1.1//EN"
 "http://www.w3.org/Graphics/SVG/1.1/DTD/svg11.dtd">
<!-- Generated by graphviz version 2.43.0 (0)
 -->
<!-- Title: %3 Pages: 1 -->
<svg width="806pt" height="218pt"
 viewBox="0.00 0.00 805.59 218.00" xmlns="http://www.w3.org/2000/svg" xmlns:xlink="http://www.w3.org/1999/xlink">
<g id="graph0" class="graph" transform="scale(1 1) rotate(0) translate(4 214)">
<title>%3</title>
<polygon fill="#fffacd" stroke="transparent" points="-4,4 -4,-214 801.59,-214 801.59,4 -4,4"/>
<!-- 1 -->
<g id="node1" class="node">
<title>1</title>
<g id="a_node1"><a xlink:title="दैव{पुं}{2;एक}">
<ellipse fill="#7cfc00" stroke="#7cfc00" cx="42.9" cy="-18" rx="42.79" ry="18"/>
<text text-anchor="middle" x="42.9" y="-14.3" font-family="Times,serif" font-size="14.00">दैवम् (1)</text>
</a>
</g>
</g>
<!-- 2 -->
<g id="node2" class="node">
<title>2</title>
<g id="a_node2"><a xlink:title="एव{अव्य}">
<ellipse fill="#ff00ff" stroke="#ff00ff" cx="141.9" cy="-18" rx="37.89" ry="18"/>
<text text-anchor="middle" x="141.9" y="-14.3" font-family="Times,serif" font-size="14.00">एव (2)</text>
</a>
</g>
</g>
<!-- 3 -->
<g id="node3" class="node">
<title>3</title>
<g id="a_node3"><a xlink:title="अपर{पुं}{1;बहु}">
<ellipse fill="#00bfff" stroke="#00bfff" cx="250.9" cy="-18" rx="46.29" ry="18"/>
<text text-anchor="middle" x="250.9" y="-14.3" font-family="Times,serif" font-size="14.00">अ&#45;परे (3)</text>
</a>
</g>
</g>
<!-- 4 -->
<g id="node4" class="node">
<title>4</title>
<g id="a_node4"><a xlink:title="यज्ञ{पुं}{2;एक}">
<ellipse fill="#7cfc00" stroke="#7cfc00" cx="133.9" cy="-105" rx="45.49" ry="18"/>
<text text-anchor="middle" x="133.9" y="-101.3" font-family="Times,serif" font-size="14.00">यज्ञम् (4)</text>
</a>
</g>
</g>
<!-- 4&#45;&gt;1 -->
<g id="edge1" class="edge">
<title>4&#45;&gt;1</title>
<path fill="none" stroke="black" d="M109.96,-89.68C101.03,-83.8 91.08,-76.6 82.9,-69 74.83,-61.51 67.03,-52.33 60.48,-43.9"/>
<polygon fill="black" stroke="black" points="63.2,-41.69 54.39,-35.8 57.6,-45.89 63.2,-41.69"/>
<text text-anchor="middle" x="108.4" y="-57.8" font-family="Times,serif" font-size="14.00">विशेषणम्</text>
</g>
<!-- 4&#45;&gt;2 -->
<g id="edge2" class="edge">
<title>4&#45;&gt;2</title>
<path fill="none" stroke="black" d="M135.52,-86.8C136.61,-75.16 138.08,-59.55 139.33,-46.24"/>
<polygon fill="black" stroke="black" points="142.83,-46.46 140.28,-36.18 135.86,-45.8 142.83,-46.46"/>
<text text-anchor="middle" x="161.9" y="-57.8" font-family="Times,serif" font-size="14.00">सम्बन्धः</text>
</g>
<!-- 5 -->
<g id="node5" class="node">
<title>5</title>
<g id="a_node5"><a xlink:title="योगिन्{पुं}{1;बहु}">
<ellipse fill="#00bfff" stroke="#00bfff" cx="250.9" cy="-105" rx="53.09" ry="18"/>
<text text-anchor="middle" x="250.9" y="-101.3" font-family="Times,serif" font-size="14.00">योगिनः (5)</text>
</a>
</g>
</g>
<!-- 5&#45;&gt;3 -->
<g id="edge3" class="edge">
<title>5&#45;&gt;3</title>
<path fill="none" stroke="black" d="M250.9,-86.8C250.9,-75.16 250.9,-59.55 250.9,-46.24"/>
<polygon fill="black" stroke="black" points="254.4,-46.18 250.9,-36.18 247.4,-46.18 254.4,-46.18"/>
<text text-anchor="middle" x="276.4" y="-57.8" font-family="Times,serif" font-size="14.00">विशेषणम्</text>
</g>
<!-- 6 -->
<g id="node6" class="node">
<title>6</title>
<g id="a_node6"><a xlink:title="परि_उप_आस्1{कर्तरि;लट्;प्र;बहु;आत्मनेपदी;परि_उप_आसँ;अदादिः}">
<ellipse fill="#ff6347" stroke="#ff6347" cx="183.9" cy="-192" rx="57.69" ry="18"/>
<text text-anchor="middle" x="183.9" y="-188.3" font-family="Times,serif" font-size="14.00">पर्युपासते (6)</text>
</a>
</g>
</g>
<!-- 6&#45;&gt;4 -->
<g id="edge4" class="edge">
<title>6&#45;&gt;4</title>
<path fill="none" stroke="black" d="M174.02,-174.21C166.9,-162.1 157.15,-145.53 149.05,-131.76"/>
<polygon fill="black" stroke="black" points="151.84,-129.6 143.75,-122.76 145.81,-133.15 151.84,-129.6"/>
<text text-anchor="middle" x="171.9" y="-144.8" font-family="Times,serif" font-size="14.00">कर्म</text>
</g>
<!-- 6&#45;&gt;5 -->
<g id="edge5" class="edge">
<title>6&#45;&gt;5</title>
<path fill="none" stroke="black" d="M197.13,-174.21C206.92,-161.79 220.41,-144.67 231.43,-130.7"/>
<polygon fill="black" stroke="black" points="234.47,-132.49 237.91,-122.47 228.98,-128.16 234.47,-132.49"/>
<text text-anchor="middle" x="234.4" y="-144.8" font-family="Times,serif" font-size="14.00">कर्ता</text>
</g>
<!-- 7 -->
<g id="node7" class="node">
<title>7</title>
<g id="a_node7"><a xlink:title="ब्रह्मन्&#45;अग्नि{पुं}{7;एक}">
<ellipse fill="#708090" stroke="#708090" cx="390.9" cy="-105" rx="68.49" ry="18"/>
<text text-anchor="middle" x="390.9" y="-101.3" font-family="Times,serif" font-size="14.00">ब्रह्म&#45;अग्नौ (7)</text>
</a>
</g>
</g>
<!-- 8 -->
<g id="node8" class="node">
<title>8</title>
<g id="a_node8"><a xlink:title="अपर{पुं}{1;बहु}">
<ellipse fill="#00bfff" stroke="#00bfff" cx="522.9" cy="-105" rx="46.29" ry="18"/>
<text text-anchor="middle" x="522.9" y="-101.3" font-family="Times,serif" font-size="14.00">अ&#45;परे (8)</text>
</a>
</g>
</g>
<!-- 9 -->
<g id="node9" class="node">
<title>9</title>
<g id="a_node9"><a xlink:title="यज्ञ{पुं}{2;एक}">
<ellipse fill="#7cfc00" stroke="#7cfc00" cx="632.9" cy="-105" rx="45.49" ry="18"/>
<text text-anchor="middle" x="632.9" y="-101.3" font-family="Times,serif" font-size="14.00">यज्ञम् (9)</text>
</a>
</g>
</g>
<!-- 10 -->
<g id="node10" class="node">
<title>10</title>
<g id="a_node10"><a xlink:title="यज्ञ{पुं}{3;एक}">
<ellipse fill="#40e0d0" stroke="#40e0d0" cx="746.9" cy="-105" rx="50.89" ry="18"/>
<text text-anchor="middle" x="746.9" y="-101.3" font-family="Times,serif" font-size="14.00">यज्ञेन (10)</text>
</a>
</g>
</g>
<!-- 11 -->
<g id="node11" class="node">
<title>11</title>
<g id="a_node11"><a xlink:title="एव{अव्य}">
<ellipse fill="#ff00ff" stroke="#ff00ff" cx="746.9" cy="-18" rx="43.59" ry="18"/>
<text text-anchor="middle" x="746.9" y="-14.3" font-family="Times,serif" font-size="14.00">एव (11)</text>
</a>
</g>
</g>
<!-- 10&#45;&gt;11 -->
<g id="edge10" class="edge">
<title>10&#45;&gt;11</title>
<path fill="none" stroke="black" d="M746.9,-86.8C746.9,-75.16 746.9,-59.55 746.9,-46.24"/>
<polygon fill="black" stroke="black" points="750.4,-46.18 746.9,-36.18 743.4,-46.18 750.4,-46.18"/>
<text text-anchor="middle" x="769.9" y="-57.8" font-family="Times,serif" font-size="14.00">सम्बन्धः</text>
</g>
<!-- 12 -->
<g id="node12" class="node">
<title>12</title>
<g id="a_node12"><a xlink:title="उप_हु1{कर्तरि;लट्;प्र;बहु;परस्मैपदी;उप_हु;जुहोत्यादिः}">
<ellipse fill="#ff6347" stroke="#ff6347" cx="577.9" cy="-192" rx="65.79" ry="18"/>
<text text-anchor="middle" x="577.9" y="-188.3" font-family="Times,serif" font-size="14.00">उपजुह्वति (12)</text>
</a>
</g>
</g>
<!-- 12&#45;&gt;7 -->
<g id="edge6" class="edge">
<title>12&#45;&gt;7</title>
<path fill="none" stroke="black" d="M537.63,-177.62C520.52,-171.56 500.51,-163.98 482.9,-156 463.76,-147.33 443.14,-136.29 426.29,-126.8"/>
<polygon fill="black" stroke="black" points="427.77,-123.61 417.35,-121.71 424.31,-129.69 427.77,-123.61"/>
<text text-anchor="middle" x="513.4" y="-144.8" font-family="Times,serif" font-size="14.00">अधिकरणम्</text>
</g>
<!-- 12&#45;&gt;8 -->
<g id="edge7" class="edge">
<title>12&#45;&gt;8</title>
<path fill="none" stroke="black" d="M567.03,-174.21C559.12,-161.98 548.27,-145.21 539.31,-131.36"/>
<polygon fill="black" stroke="black" points="542.11,-129.25 533.74,-122.76 536.23,-133.06 542.11,-129.25"/>
<text text-anchor="middle" x="566.4" y="-144.8" font-family="Times,serif" font-size="14.00">कर्ता</text>
</g>
<!-- 12&#45;&gt;9 -->
<g id="edge8" class="edge">
<title>12&#45;&gt;9</title>
<path fill="none" stroke="black" d="M588.76,-174.21C596.67,-161.98 607.52,-145.21 616.49,-131.36"/>
<polygon fill="black" stroke="black" points="619.56,-133.06 622.05,-122.76 613.68,-129.25 619.56,-133.06"/>
<text text-anchor="middle" x="618.9" y="-144.8" font-family="Times,serif" font-size="14.00">कर्म</text>
</g>
<!-- 12&#45;&gt;10 -->
<g id="edge9" class="edge">
<title>12&#45;&gt;10</title>
<path fill="none" stroke="black" d="M608.11,-175.8C636.59,-161.48 679.34,-139.98 709.86,-124.63"/>
<polygon fill="black" stroke="black" points="711.55,-127.7 718.91,-120.08 708.4,-121.44 711.55,-127.7"/>
<text text-anchor="middle" x="690.9" y="-144.8" font-family="Times,serif" font-size="14.00">करणम्</text>
</g>
</g>
</svg>
