<?xml version="1.0" encoding="UTF-8" standalone="no"?>
<!DOCTYPE svg PUBLIC "-//W3C//DTD SVG 1.1//EN"
 "http://www.w3.org/Graphics/SVG/1.1/DTD/svg11.dtd">
<!-- Generated by graphviz version 2.43.0 (0)
 -->
<!-- Title: %3 Pages: 1 -->
<svg width="846pt" height="305pt"
 viewBox="0.00 0.00 845.89 305.00" xmlns="http://www.w3.org/2000/svg" xmlns:xlink="http://www.w3.org/1999/xlink">
<g id="graph0" class="graph" transform="scale(1 1) rotate(0) translate(4 301)">
<title>%3</title>
<polygon fill="#fffacd" stroke="transparent" points="-4,4 -4,-301 841.89,-301 841.89,4 -4,4"/>
<!-- 1 -->
<g id="node1" class="node">
<title>1</title>
<g id="a_node1"><a xlink:title="चातुर्वर्ण्य{नपुं}{2;एक}">
<ellipse fill="#7cfc00" stroke="#7cfc00" cx="71.49" cy="-192" rx="71.49" ry="18"/>
<text text-anchor="middle" x="71.49" y="-188.3" font-family="Times,serif" font-size="14.00">चातुर्&#45;वर्ण्यम् (1)</text>
</a>
</g>
</g>
<!-- 2 -->
<g id="node2" class="node">
<title>2</title>
<g id="a_node2"><a xlink:title="अस्मद्{3;एक}">
<ellipse fill="#40e0d0" stroke="#40e0d0" cx="201.49" cy="-192" rx="40.09" ry="18"/>
<text text-anchor="middle" x="201.49" y="-188.3" font-family="Times,serif" font-size="14.00">मया (2)</text>
</a>
</g>
</g>
<!-- 3 -->
<g id="node3" class="node">
<title>3</title>
<g id="a_node3"><a xlink:title="सृज्2{कृत्_प्रत्ययः:क्त;सृजँ;तुदादिः;नपुं}{1;एक}">
<ellipse fill="#00bfff" stroke="#00bfff" cx="201.49" cy="-279" rx="48.19" ry="18"/>
<text text-anchor="middle" x="201.49" y="-275.3" font-family="Times,serif" font-size="14.00">सृष्टम् (3)</text>
</a>
</g>
</g>
<!-- 3&#45;&gt;1 -->
<g id="edge1" class="edge">
<title>3&#45;&gt;1</title>
<path fill="none" stroke="black" d="M178.55,-263C158,-249.56 127.61,-229.69 104.46,-214.55"/>
<polygon fill="black" stroke="black" points="106.26,-211.55 95.97,-209.01 102.43,-217.41 106.26,-211.55"/>
<text text-anchor="middle" x="154.49" y="-231.8" font-family="Times,serif" font-size="14.00">कर्म</text>
</g>
<!-- 3&#45;&gt;2 -->
<g id="edge2" class="edge">
<title>3&#45;&gt;2</title>
<path fill="none" stroke="black" d="M201.49,-260.8C201.49,-249.16 201.49,-233.55 201.49,-220.24"/>
<polygon fill="black" stroke="black" points="204.99,-220.18 201.49,-210.18 197.99,-220.18 204.99,-220.18"/>
<text text-anchor="middle" x="213.99" y="-231.8" font-family="Times,serif" font-size="14.00">कर्ता</text>
</g>
<!-- 4 -->
<g id="node4" class="node">
<title>4</title>
<g id="a_node4"><a xlink:title="गुण&#45;कर्मन्&#45;विभागशः{अव्यय}">
<ellipse fill="#ff00ff" stroke="#ff00ff" cx="350.49" cy="-192" rx="90.98" ry="18"/>
<text text-anchor="middle" x="350.49" y="-188.3" font-family="Times,serif" font-size="14.00">गुण&#45;कर्म&#45;विभागशः (4)</text>
</a>
</g>
</g>
<!-- 3&#45;&gt;4 -->
<g id="edge3" class="edge">
<title>3&#45;&gt;4</title>
<path fill="none" stroke="black" d="M226.77,-263.58C250.49,-250.05 286.26,-229.64 313.25,-214.25"/>
<polygon fill="black" stroke="black" points="315.09,-217.23 322.04,-209.23 311.62,-211.15 315.09,-217.23"/>
<text text-anchor="middle" x="327.99" y="-231.8" font-family="Times,serif" font-size="14.00">क्रियाविशेषणम्</text>
</g>
<!-- 5 -->
<g id="node5" class="node">
<title>5</title>
<g id="a_node5"><a xlink:title="तद्{नपुं}{6;एक}">
<ellipse fill="#87ceeb" stroke="#87ceeb" cx="443.49" cy="-18" rx="42.79" ry="18"/>
<text text-anchor="middle" x="443.49" y="-14.3" font-family="Times,serif" font-size="14.00">तस्य (5)</text>
</a>
</g>
</g>
<!-- 6 -->
<g id="node6" class="node">
<title>6</title>
<g id="a_node6"><a xlink:title="कर्तृ{पुं}{2;एक}">
<ellipse fill="#7cfc00" stroke="#7cfc00" cx="494.49" cy="-105" rx="51.19" ry="18"/>
<text text-anchor="middle" x="494.49" y="-101.3" font-family="Times,serif" font-size="14.00">कर्तारम् (6)</text>
</a>
</g>
</g>
<!-- 6&#45;&gt;5 -->
<g id="edge4" class="edge">
<title>6&#45;&gt;5</title>
<path fill="none" stroke="black" d="M470.71,-88.96C463.84,-83.48 456.98,-76.71 452.49,-69 448.53,-62.19 446.23,-54.04 444.93,-46.31"/>
<polygon fill="black" stroke="black" points="448.38,-45.71 443.7,-36.21 441.43,-46.56 448.38,-45.71"/>
<text text-anchor="middle" x="488.49" y="-57.8" font-family="Times,serif" font-size="14.00">षष्ठीसम्बन्धः</text>
</g>
<!-- 7 -->
<g id="node7" class="node">
<title>7</title>
<g id="a_node7"><a xlink:title="अपि{अव्य}">
<ellipse fill="#ff00ff" stroke="#ff00ff" cx="546.49" cy="-18" rx="42.49" ry="18"/>
<text text-anchor="middle" x="546.49" y="-14.3" font-family="Times,serif" font-size="14.00">अपि (7)</text>
</a>
</g>
</g>
<!-- 6&#45;&gt;7 -->
<g id="edge6" class="edge">
<title>6&#45;&gt;7</title>
<path fill="none" stroke="black" d="M510.21,-87.69C515.16,-82.05 520.4,-75.5 524.49,-69 529.11,-61.66 533.23,-53.19 536.63,-45.33"/>
<polygon fill="black" stroke="black" points="539.97,-46.41 540.52,-35.83 533.49,-43.76 539.97,-46.41"/>
<text text-anchor="middle" x="555.49" y="-57.8" font-family="Times,serif" font-size="14.00">सम्बन्धः</text>
</g>
<!-- 8 -->
<g id="node8" class="node">
<title>8</title>
<g id="a_node8"><a xlink:title="अस्मद्{2;एक}">
<ellipse fill="#7cfc00" stroke="#7cfc00" cx="501.49" cy="-192" rx="41.69" ry="18"/>
<text text-anchor="middle" x="501.49" y="-188.3" font-family="Times,serif" font-size="14.00">माम् (8)</text>
</a>
</g>
</g>
<!-- 8&#45;&gt;6 -->
<g id="edge5" class="edge">
<title>8&#45;&gt;6</title>
<path fill="none" stroke="black" d="M500.08,-173.8C499.12,-162.16 497.83,-146.55 496.74,-133.24"/>
<polygon fill="black" stroke="black" points="500.22,-132.85 495.91,-123.18 493.24,-133.43 500.22,-132.85"/>
<text text-anchor="middle" x="523.99" y="-144.8" font-family="Times,serif" font-size="14.00">विशेषणम्</text>
</g>
<!-- 9 -->
<g id="node9" class="node">
<title>9</title>
<g id="a_node9"><a xlink:title="विद्1{कर्तरि;लोट्;म;एक;परस्मैपदी;विदँ;अदादिः}">
<ellipse fill="#ff6347" stroke="#ff6347" cx="631.49" cy="-279" rx="49.29" ry="18"/>
<text text-anchor="middle" x="631.49" y="-275.3" font-family="Times,serif" font-size="14.00">विद्धि (9)</text>
</a>
</g>
</g>
<!-- 9&#45;&gt;8 -->
<g id="edge7" class="edge">
<title>9&#45;&gt;8</title>
<path fill="none" stroke="black" d="M608.55,-263C587.35,-249.14 555.69,-228.44 532.3,-213.14"/>
<polygon fill="black" stroke="black" points="534.06,-210.11 523.77,-207.57 530.23,-215.97 534.06,-210.11"/>
<text text-anchor="middle" x="584.49" y="-231.8" font-family="Times,serif" font-size="14.00">कर्म</text>
</g>
<!-- 11 -->
<g id="node11" class="node">
<title>11</title>
<g id="a_node11"><a xlink:title="अव्यय{पुं}{2;एक}">
<ellipse fill="#7cfc00" stroke="#7cfc00" cx="631.49" cy="-192" rx="63.89" ry="18"/>
<text text-anchor="middle" x="631.49" y="-188.3" font-family="Times,serif" font-size="14.00">अ&#45;व्ययम् (11)</text>
</a>
</g>
</g>
<!-- 9&#45;&gt;11 -->
<g id="edge9" class="edge">
<title>9&#45;&gt;11</title>
<path fill="none" stroke="black" d="M631.49,-260.8C631.49,-249.16 631.49,-233.55 631.49,-220.24"/>
<polygon fill="black" stroke="black" points="634.99,-220.18 631.49,-210.18 627.99,-220.18 634.99,-220.18"/>
<text text-anchor="middle" x="683.49" y="-231.8" font-family="Times,serif" font-size="14.00">कर्मसमानाधिकरणम्</text>
</g>
<!-- 12.1 -->
<g id="node13" class="node">
<title>12.1</title>
<g id="a_node13"><a xlink:title="युष्मद्{1;एक}">
<ellipse fill="#00bfff" stroke="#00bfff" cx="775.49" cy="-192" rx="62.29" ry="18"/>
<text text-anchor="middle" x="775.49" y="-188.3" font-family="Times,serif" font-size="14.00">(त्वम्) (12.1)</text>
</a>
</g>
</g>
<!-- 9&#45;&gt;12.1 -->
<g id="edge11" class="edge">
<title>9&#45;&gt;12.1</title>
<path fill="none" stroke="black" d="M675.16,-270.47C696.08,-265.28 720.62,-256.76 739.49,-243 748.31,-236.57 755.81,-227.33 761.65,-218.53"/>
<polygon fill="black" stroke="black" points="764.64,-220.36 766.93,-210.01 758.69,-216.67 764.64,-220.36"/>
<text text-anchor="middle" x="766.99" y="-231.8" font-family="Times,serif" font-size="14.00">कर्ता</text>
</g>
<!-- 10 -->
<g id="node10" class="node">
<title>10</title>
<g id="a_node10"><a xlink:title="न&#45;कर्तृ{पुं}{2;एक}">
<ellipse fill="#7cfc00" stroke="#7cfc00" cx="631.49" cy="-105" rx="67.69" ry="18"/>
<text text-anchor="middle" x="631.49" y="-101.3" font-family="Times,serif" font-size="14.00">अ&#45;कर्तारम् (10)</text>
</a>
</g>
</g>
<!-- 11&#45;&gt;10 -->
<g id="edge8" class="edge">
<title>11&#45;&gt;10</title>
<path fill="none" stroke="black" d="M631.49,-173.8C631.49,-162.16 631.49,-146.55 631.49,-133.24"/>
<polygon fill="black" stroke="black" points="634.99,-133.18 631.49,-123.18 627.99,-133.18 634.99,-133.18"/>
<text text-anchor="middle" x="673.99" y="-144.8" font-family="Times,serif" font-size="14.00">सुप्_समुच्चितम्</text>
</g>
<!-- 12 -->
<g id="node12" class="node">
<title>12</title>
<g id="a_node12"><a xlink:title="(च{अव्य})">
<ellipse fill="#ff00ff" stroke="#ff00ff" cx="763.49" cy="-105" rx="46.29" ry="18"/>
<text text-anchor="middle" x="763.49" y="-101.3" font-family="Times,serif" font-size="14.00">(च) (12)</text>
</a>
</g>
</g>
<!-- 11&#45;&gt;12 -->
<g id="edge10" class="edge">
<title>11&#45;&gt;12</title>
<path fill="none" stroke="black" d="M674.83,-178.72C690.09,-173.21 706.82,-165.71 720.49,-156 730.11,-149.17 738.96,-139.73 746.09,-130.9"/>
<polygon fill="black" stroke="black" points="749.06,-132.78 752.37,-122.72 743.51,-128.51 749.06,-132.78"/>
<text text-anchor="middle" x="781.99" y="-144.8" font-family="Times,serif" font-size="14.00">समुच्चयद्योतकम्</text>
</g>
</g>
</svg>
