<?xml version="1.0" encoding="UTF-8" standalone="no"?>
<!DOCTYPE svg PUBLIC "-//W3C//DTD SVG 1.1//EN"
 "http://www.w3.org/Graphics/SVG/1.1/DTD/svg11.dtd">
<!-- Generated by graphviz version 2.43.0 (0)
 -->
<!-- Title: %3 Pages: 1 -->
<svg width="880pt" height="305pt"
 viewBox="0.00 0.00 880.09 305.00" xmlns="http://www.w3.org/2000/svg" xmlns:xlink="http://www.w3.org/1999/xlink">
<g id="graph0" class="graph" transform="scale(1 1) rotate(0) translate(4 301)">
<title>%3</title>
<polygon fill="#fffacd" stroke="transparent" points="-4,4 -4,-301 876.09,-301 876.09,4 -4,4"/>
<!-- 1 -->
<g id="node1" class="node">
<title>1</title>
<g id="a_node1"><a xlink:title="बहु{नपुं}{1;बहु}">
<ellipse fill="#00bfff" stroke="#00bfff" cx="44.2" cy="-105" rx="44.39" ry="18"/>
<text text-anchor="middle" x="44.2" y="-101.3" font-family="Times,serif" font-size="14.00">बहूनि (1)</text>
</a>
</g>
</g>
<!-- 2 -->
<g id="node2" class="node">
<title>2</title>
<g id="a_node2"><a xlink:title="अस्मद्{6;एक}">
<ellipse fill="#87ceeb" stroke="#87ceeb" cx="90.2" cy="-18" rx="32.49" ry="18"/>
<text text-anchor="middle" x="90.2" y="-14.3" font-family="Times,serif" font-size="14.00">मे (2)</text>
</a>
</g>
</g>
<!-- 3 -->
<g id="node3" class="node">
<title>3</title>
<g id="a_node3"><a xlink:title="वि_अति_इ1{कृत्_प्रत्ययः:क्त;वि_अति_इण्;अदादिः;नपुं}{1;बहु}">
<ellipse fill="#00bfff" stroke="#00bfff" cx="173.2" cy="-279" rx="61.99" ry="18"/>
<text text-anchor="middle" x="173.2" y="-275.3" font-family="Times,serif" font-size="14.00">व्यतीतानि (3)</text>
</a>
</g>
</g>
<!-- 4 -->
<g id="node4" class="node">
<title>4</title>
<g id="a_node4"><a xlink:title="जन्मन्{नपुं}{1;बहु}">
<ellipse fill="#00bfff" stroke="#00bfff" cx="94.2" cy="-192" rx="53.89" ry="18"/>
<text text-anchor="middle" x="94.2" y="-188.3" font-family="Times,serif" font-size="14.00">जन्मानि (4)</text>
</a>
</g>
</g>
<!-- 3&#45;&gt;4 -->
<g id="edge3" class="edge">
<title>3&#45;&gt;4</title>
<path fill="none" stroke="black" d="M157.59,-261.21C145.83,-248.55 129.54,-231.03 116.42,-216.91"/>
<polygon fill="black" stroke="black" points="118.87,-214.41 109.5,-209.47 113.75,-219.18 118.87,-214.41"/>
<text text-anchor="middle" x="149.2" y="-231.8" font-family="Times,serif" font-size="14.00">कर्म</text>
</g>
<!-- 7 -->
<g id="node7" class="node">
<title>7</title>
<g id="a_node7"><a xlink:title="अर्जुन{पुं}{8;एक}">
<ellipse fill="#7fffd4" stroke="#7fffd4" cx="213.2" cy="-192" rx="46.59" ry="18"/>
<text text-anchor="middle" x="213.2" y="-188.3" font-family="Times,serif" font-size="14.00">अर्जुन (7)</text>
</a>
</g>
</g>
<!-- 3&#45;&gt;7 -->
<g id="edge6" class="edge">
<title>3&#45;&gt;7</title>
<path fill="none" stroke="black" d="M181.29,-260.8C186.91,-248.85 194.51,-232.72 200.87,-219.18"/>
<polygon fill="black" stroke="black" points="204.16,-220.42 205.25,-209.89 197.83,-217.44 204.16,-220.42"/>
<text text-anchor="middle" x="221.7" y="-231.8" font-family="Times,serif" font-size="14.00">सम्बोध्यः</text>
</g>
<!-- 4&#45;&gt;1 -->
<g id="edge1" class="edge">
<title>4&#45;&gt;1</title>
<path fill="none" stroke="black" d="M72.93,-175.43C66.72,-169.92 60.47,-163.27 56.2,-156 52.16,-149.12 49.47,-140.95 47.69,-133.23"/>
<polygon fill="black" stroke="black" points="51.08,-132.32 45.78,-123.14 44.21,-133.62 51.08,-132.32"/>
<text text-anchor="middle" x="83.7" y="-144.8" font-family="Times,serif" font-size="14.00">विशेषणम् </text>
</g>
<!-- 5 -->
<g id="node5" class="node">
<title>5</title>
<g id="a_node5"><a xlink:title="युष्मद्{6;एक}">
<ellipse fill="#87ceeb" stroke="#87ceeb" cx="144.2" cy="-105" rx="37.89" ry="18"/>
<text text-anchor="middle" x="144.2" y="-101.3" font-family="Times,serif" font-size="14.00">तव (5)</text>
</a>
</g>
</g>
<!-- 4&#45;&gt;5 -->
<g id="edge4" class="edge">
<title>4&#45;&gt;5</title>
<path fill="none" stroke="black" d="M104.07,-174.21C111.31,-161.9 121.26,-145 129.44,-131.09"/>
<polygon fill="black" stroke="black" points="132.45,-132.86 134.51,-122.47 126.42,-129.31 132.45,-132.86"/>
<text text-anchor="middle" x="158.2" y="-144.8" font-family="Times,serif" font-size="14.00">षष्ठीसम्बन्धः</text>
</g>
<!-- 5&#45;&gt;2 -->
<g id="edge2" class="edge">
<title>5&#45;&gt;2</title>
<path fill="none" stroke="black" d="M116.74,-92.58C106.89,-87 96.84,-79.24 91.2,-69 87.45,-62.2 86.2,-54.06 86.16,-46.33"/>
<polygon fill="black" stroke="black" points="89.66,-46.41 86.73,-36.23 82.67,-46.02 89.66,-46.41"/>
<text text-anchor="middle" x="133.7" y="-57.8" font-family="Times,serif" font-size="14.00">सुप्_समुच्चितम्</text>
</g>
<!-- 6 -->
<g id="node6" class="node">
<title>6</title>
<g id="a_node6"><a xlink:title="च{अव्य}">
<ellipse fill="#ff00ff" stroke="#ff00ff" cx="198.2" cy="-18" rx="33.29" ry="18"/>
<text text-anchor="middle" x="198.2" y="-14.3" font-family="Times,serif" font-size="14.00">च (6)</text>
</a>
</g>
</g>
<!-- 5&#45;&gt;6 -->
<g id="edge5" class="edge">
<title>5&#45;&gt;6</title>
<path fill="none" stroke="black" d="M160.35,-88.53C165.83,-82.75 171.7,-75.9 176.2,-69 180.93,-61.74 185.09,-53.29 188.48,-45.42"/>
<polygon fill="black" stroke="black" points="191.82,-46.49 192.35,-35.91 185.34,-43.85 191.82,-46.49"/>
<text text-anchor="middle" x="229.7" y="-57.8" font-family="Times,serif" font-size="14.00">समुच्चयद्योतकम्</text>
</g>
<!-- 8 -->
<g id="node8" class="node">
<title>8</title>
<g id="a_node8"><a xlink:title="तद्{नपुं}{1;बहु}">
<ellipse fill="#00bfff" stroke="#00bfff" cx="402.2" cy="-105" rx="42.79" ry="18"/>
<text text-anchor="middle" x="402.2" y="-101.3" font-family="Times,serif" font-size="14.00">तानि (8)</text>
</a>
</g>
</g>
<!-- 9 -->
<g id="node9" class="node">
<title>9</title>
<g id="a_node9"><a xlink:title="अस्मद्{1;एक}">
<ellipse fill="#00bfff" stroke="#00bfff" cx="323.2" cy="-192" rx="44.69" ry="18"/>
<text text-anchor="middle" x="323.2" y="-188.3" font-family="Times,serif" font-size="14.00">अहम् (9)</text>
</a>
</g>
</g>
<!-- 10 -->
<g id="node10" class="node">
<title>10</title>
<g id="a_node10"><a xlink:title="विद्1{कर्तरि;लट्;उ;एक;परस्मैपदी;विदँ;अदादिः}">
<ellipse fill="#ff6347" stroke="#ff6347" cx="358.2" cy="-279" rx="43.59" ry="18"/>
<text text-anchor="middle" x="358.2" y="-275.3" font-family="Times,serif" font-size="14.00">वेद (10)</text>
</a>
</g>
</g>
<!-- 10&#45;&gt;9 -->
<g id="edge8" class="edge">
<title>10&#45;&gt;9</title>
<path fill="none" stroke="black" d="M351.28,-261.21C346.38,-249.29 339.69,-233.06 334.08,-219.42"/>
<polygon fill="black" stroke="black" points="337.26,-217.96 330.22,-210.05 330.79,-220.63 337.26,-217.96"/>
<text text-anchor="middle" x="355.7" y="-231.8" font-family="Times,serif" font-size="14.00">कर्ता</text>
</g>
<!-- 11.1 -->
<g id="node12" class="node">
<title>11.1</title>
<g id="a_node12"><a xlink:title="(जन्मन्{नपुं}{1;बहु})">
<ellipse fill="#00bfff" stroke="#00bfff" cx="461.2" cy="-192" rx="75.29" ry="18"/>
<text text-anchor="middle" x="461.2" y="-188.3" font-family="Times,serif" font-size="14.00">(जन्मानि) (11.1)</text>
</a>
</g>
</g>
<!-- 10&#45;&gt;11.1 -->
<g id="edge10" class="edge">
<title>10&#45;&gt;11.1</title>
<path fill="none" stroke="black" d="M377.09,-262.41C392.8,-249.44 415.39,-230.8 433.21,-216.1"/>
<polygon fill="black" stroke="black" points="435.53,-218.72 441.02,-209.65 431.07,-213.32 435.53,-218.72"/>
<text text-anchor="middle" x="426.2" y="-231.8" font-family="Times,serif" font-size="14.00">कर्म</text>
</g>
<!-- 11 -->
<g id="node11" class="node">
<title>11</title>
<g id="a_node11"><a xlink:title="सर्व{नपुं}{1;बहु}">
<ellipse fill="#00bfff" stroke="#00bfff" cx="519.2" cy="-105" rx="55.79" ry="18"/>
<text text-anchor="middle" x="519.2" y="-101.3" font-family="Times,serif" font-size="14.00">सर्वाणि (11)</text>
</a>
</g>
</g>
<!-- 11.1&#45;&gt;8 -->
<g id="edge7" class="edge">
<title>11.1&#45;&gt;8</title>
<path fill="none" stroke="black" d="M446.5,-174.32C441.75,-168.65 436.57,-162.18 432.2,-156 426.67,-148.2 421.14,-139.35 416.36,-131.28"/>
<polygon fill="black" stroke="black" points="419.37,-129.5 411.32,-122.61 413.32,-133.01 419.37,-129.5"/>
<text text-anchor="middle" x="457.7" y="-144.8" font-family="Times,serif" font-size="14.00">विशेषणम्</text>
</g>
<!-- 11.1&#45;&gt;11 -->
<g id="edge9" class="edge">
<title>11.1&#45;&gt;11</title>
<path fill="none" stroke="black" d="M472.66,-174.21C481,-161.98 492.44,-145.21 501.89,-131.36"/>
<polygon fill="black" stroke="black" points="505.02,-132.99 507.76,-122.76 499.23,-129.05 505.02,-132.99"/>
<text text-anchor="middle" x="521.7" y="-144.8" font-family="Times,serif" font-size="14.00">विशेषणम् </text>
</g>
<!-- 12 -->
<g id="node13" class="node">
<title>12</title>
<g id="a_node13"><a xlink:title="युष्मद्{1;एक}">
<ellipse fill="#00bfff" stroke="#00bfff" cx="601.2" cy="-192" rx="46.59" ry="18"/>
<text text-anchor="middle" x="601.2" y="-188.3" font-family="Times,serif" font-size="14.00">त्वम् (12)</text>
</a>
</g>
</g>
<!-- 13 -->
<g id="node14" class="node">
<title>13</title>
<g id="a_node14"><a xlink:title="न{अव्य}">
<ellipse fill="#ff00ff" stroke="#ff00ff" cx="704.2" cy="-192" rx="38.19" ry="18"/>
<text text-anchor="middle" x="704.2" y="-188.3" font-family="Times,serif" font-size="14.00">न (13)</text>
</a>
</g>
</g>
<!-- 14 -->
<g id="node15" class="node">
<title>14</title>
<g id="a_node15"><a xlink:title="विद्1{कर्तरि;लट्;म;एक;परस्मैपदी;विदँ;अदादिः}">
<ellipse fill="#ff6347" stroke="#ff6347" cx="704.2" cy="-279" rx="48.19" ry="18"/>
<text text-anchor="middle" x="704.2" y="-275.3" font-family="Times,serif" font-size="14.00">वेत्थ (14)</text>
</a>
</g>
</g>
<!-- 14&#45;&gt;12 -->
<g id="edge11" class="edge">
<title>14&#45;&gt;12</title>
<path fill="none" stroke="black" d="M685.3,-262.41C669.19,-249.11 645.83,-229.84 627.82,-214.97"/>
<polygon fill="black" stroke="black" points="629.91,-212.16 619.97,-208.49 625.45,-217.56 629.91,-212.16"/>
<text text-anchor="middle" x="671.7" y="-231.8" font-family="Times,serif" font-size="14.00">कर्ता</text>
</g>
<!-- 14&#45;&gt;13 -->
<g id="edge12" class="edge">
<title>14&#45;&gt;13</title>
<path fill="none" stroke="black" d="M704.2,-260.8C704.2,-249.16 704.2,-233.55 704.2,-220.24"/>
<polygon fill="black" stroke="black" points="707.7,-220.18 704.2,-210.18 700.7,-220.18 707.7,-220.18"/>
<text text-anchor="middle" x="730.2" y="-231.8" font-family="Times,serif" font-size="14.00">प्रतिषेधः</text>
</g>
<!-- 15 -->
<g id="node16" class="node">
<title>15</title>
<g id="a_node16"><a xlink:title="परन्तप{पुं}{8;एक}">
<ellipse fill="#7fffd4" stroke="#7fffd4" cx="816.2" cy="-192" rx="55.79" ry="18"/>
<text text-anchor="middle" x="816.2" y="-188.3" font-family="Times,serif" font-size="14.00">परन्तप (15)</text>
</a>
</g>
</g>
<!-- 14&#45;&gt;15 -->
<g id="edge13" class="edge">
<title>14&#45;&gt;15</title>
<path fill="none" stroke="black" d="M729.33,-263.55C739.2,-257.55 750.48,-250.29 760.2,-243 770.95,-234.93 782.12,-225.25 791.64,-216.57"/>
<polygon fill="black" stroke="black" points="794.24,-218.93 799.19,-209.56 789.48,-213.79 794.24,-218.93"/>
<text text-anchor="middle" x="802.7" y="-231.8" font-family="Times,serif" font-size="14.00">सम्बोध्यः</text>
</g>
</g>
</svg>
