<?xml version="1.0" encoding="UTF-8" standalone="no"?>
<!DOCTYPE svg PUBLIC "-//W3C//DTD SVG 1.1//EN"
 "http://www.w3.org/Graphics/SVG/1.1/DTD/svg11.dtd">
<!-- Generated by graphviz version 2.43.0 (0)
 -->
<!-- Title: %3 Pages: 1 -->
<svg width="1233pt" height="305pt"
 viewBox="0.00 0.00 1232.99 305.00" xmlns="http://www.w3.org/2000/svg" xmlns:xlink="http://www.w3.org/1999/xlink">
<g id="graph0" class="graph" transform="scale(1 1) rotate(0) translate(4 301)">
<title>%3</title>
<polygon fill="#fffacd" stroke="transparent" points="-4,4 -4,-301 1228.99,-301 1228.99,4 -4,4"/>
<!-- 1 -->
<g id="node1" class="node">
<title>1</title>
<g id="a_node1"><a xlink:title="किम्{नपुं}{1;एक}">
<ellipse fill="#00bfff" stroke="#00bfff" cx="41.6" cy="-192" rx="41.69" ry="18"/>
<text text-anchor="middle" x="41.6" y="-188.3" font-family="Times,serif" font-size="14.00">किम् (1)</text>
</a>
</g>
</g>
<!-- 2 -->
<g id="node2" class="node">
<title>2</title>
<g id="a_node2"><a xlink:title="कर्मन्{नपुं}{1;एक}">
<ellipse fill="#00bfff" stroke="#00bfff" cx="140.6" cy="-192" rx="38.99" ry="18"/>
<text text-anchor="middle" x="140.6" y="-188.3" font-family="Times,serif" font-size="14.00">कर्म (2)</text>
</a>
</g>
</g>
<!-- 2.1 -->
<g id="node3" class="node">
<title>2.1</title>
<g id="a_node3"><a xlink:title="(अस्2{कर्तरि;लट्;प्र;एक;परस्मैपदी;असँ;अदादिः})">
<ellipse fill="#ff6347" stroke="#ff6347" cx="91.6" cy="-279" rx="63.09" ry="18"/>
<text text-anchor="middle" x="91.6" y="-275.3" font-family="Times,serif" font-size="14.00">(अस्ति) (2.1)</text>
</a>
</g>
</g>
<!-- 2.1&#45;&gt;1 -->
<g id="edge1" class="edge">
<title>2.1&#45;&gt;1</title>
<path fill="none" stroke="black" d="M76.7,-261.21C72.17,-255.64 67.39,-249.26 63.6,-243 59.17,-235.7 55.14,-227.35 51.77,-219.6"/>
<polygon fill="black" stroke="black" points="54.94,-218.11 47.88,-210.21 48.48,-220.79 54.94,-218.11"/>
<text text-anchor="middle" x="86.6" y="-231.8" font-family="Times,serif" font-size="14.00">सम्बन्धः</text>
</g>
<!-- 2.1&#45;&gt;2 -->
<g id="edge2" class="edge">
<title>2.1&#45;&gt;2</title>
<path fill="none" stroke="black" d="M101.28,-261.21C108.3,-249.02 117.93,-232.32 125.9,-218.49"/>
<polygon fill="black" stroke="black" points="129.14,-219.88 131.1,-209.47 123.08,-216.38 129.14,-219.88"/>
<text text-anchor="middle" x="132.1" y="-231.8" font-family="Times,serif" font-size="14.00">कर्ता</text>
</g>
<!-- 3 -->
<g id="node4" class="node">
<title>3</title>
<g id="a_node4"><a xlink:title="किम्{नपुं}{1;एक}">
<ellipse fill="#00bfff" stroke="#00bfff" cx="239.6" cy="-192" rx="41.69" ry="18"/>
<text text-anchor="middle" x="239.6" y="-188.3" font-family="Times,serif" font-size="14.00">किम् (3)</text>
</a>
</g>
</g>
<!-- 4 -->
<g id="node5" class="node">
<title>4</title>
<g id="a_node5"><a xlink:title="न&#45;कर्मन्{नपुं}{1;एक}">
<ellipse fill="#00bfff" stroke="#00bfff" cx="349.6" cy="-192" rx="50.09" ry="18"/>
<text text-anchor="middle" x="349.6" y="-188.3" font-family="Times,serif" font-size="14.00">अ&#45;कर्म (4)</text>
</a>
</g>
</g>
<!-- 4.1 -->
<g id="node6" class="node">
<title>4.1</title>
<g id="a_node6"><a xlink:title="(अस्2{कर्तरि;लट्;प्र;एक;परस्मैपदी;असँ;अदादिः})">
<ellipse fill="#ff6347" stroke="#ff6347" cx="286.6" cy="-279" rx="63.09" ry="18"/>
<text text-anchor="middle" x="286.6" y="-275.3" font-family="Times,serif" font-size="14.00">(अस्ति) (4.1)</text>
</a>
</g>
</g>
<!-- 4.1&#45;&gt;3 -->
<g id="edge3" class="edge">
<title>4.1&#45;&gt;3</title>
<path fill="none" stroke="black" d="M277.09,-260.8C270.37,-248.66 261.27,-232.19 253.71,-218.52"/>
<polygon fill="black" stroke="black" points="256.68,-216.65 248.77,-209.6 250.55,-220.04 256.68,-216.65"/>
<text text-anchor="middle" x="289.6" y="-231.8" font-family="Times,serif" font-size="14.00">सम्बन्धः</text>
</g>
<!-- 4.1&#45;&gt;4 -->
<g id="edge4" class="edge">
<title>4.1&#45;&gt;4</title>
<path fill="none" stroke="black" d="M301.68,-261.26C306.6,-255.59 311.97,-249.13 316.6,-243 322.42,-235.28 328.37,-226.57 333.58,-218.6"/>
<polygon fill="black" stroke="black" points="336.63,-220.33 339.11,-210.03 330.75,-216.54 336.63,-220.33"/>
<text text-anchor="middle" x="340.1" y="-231.8" font-family="Times,serif" font-size="14.00">कर्ता</text>
</g>
<!-- 5 -->
<g id="node7" class="node">
<title>5</title>
<g id="a_node7"><a xlink:title="इति{अव्य}">
<ellipse fill="#ff00ff" stroke="#ff00ff" cx="379.6" cy="-105" rx="40.09" ry="18"/>
<text text-anchor="middle" x="379.6" y="-101.3" font-family="Times,serif" font-size="14.00">इति (5)</text>
</a>
</g>
</g>
<!-- 6 -->
<g id="node8" class="node">
<title>6</title>
<g id="a_node8"><a xlink:title="कवि{पुं}{1;बहु}">
<ellipse fill="#00bfff" stroke="#00bfff" cx="480.6" cy="-192" rx="47.39" ry="18"/>
<text text-anchor="middle" x="480.6" y="-188.3" font-family="Times,serif" font-size="14.00">कवयः (6)</text>
</a>
</g>
</g>
<!-- 6&#45;&gt;5 -->
<g id="edge5" class="edge">
<title>6&#45;&gt;5</title>
<path fill="none" stroke="black" d="M457.61,-176.08C448.91,-170.14 439.07,-163.04 430.6,-156 420.71,-147.79 410.47,-138.03 401.78,-129.33"/>
<polygon fill="black" stroke="black" points="404.1,-126.69 394.6,-122.01 399.11,-131.6 404.1,-126.69"/>
<text text-anchor="middle" x="453.6" y="-144.8" font-family="Times,serif" font-size="14.00">सम्बन्धः</text>
</g>
<!-- 7 -->
<g id="node9" class="node">
<title>7</title>
<g id="a_node9"><a xlink:title="अपि{अव्य}">
<ellipse fill="#ff00ff" stroke="#ff00ff" cx="480.6" cy="-105" rx="42.49" ry="18"/>
<text text-anchor="middle" x="480.6" y="-101.3" font-family="Times,serif" font-size="14.00">अपि (7)</text>
</a>
</g>
</g>
<!-- 6&#45;&gt;7 -->
<g id="edge7" class="edge">
<title>6&#45;&gt;7</title>
<path fill="none" stroke="black" d="M480.6,-173.8C480.6,-162.16 480.6,-146.55 480.6,-133.24"/>
<polygon fill="black" stroke="black" points="484.1,-133.18 480.6,-123.18 477.1,-133.18 484.1,-133.18"/>
<text text-anchor="middle" x="503.6" y="-144.8" font-family="Times,serif" font-size="14.00">सम्बन्धः</text>
</g>
<!-- 9 -->
<g id="node11" class="node">
<title>9</title>
<g id="a_node11"><a xlink:title="मुह्1{कृत्_प्रत्ययः:क्त;मुहँ;दिवादिः;पुं}{1;बहु}">
<ellipse fill="#00bfff" stroke="#00bfff" cx="596.6" cy="-105" rx="55.79" ry="18"/>
<text text-anchor="middle" x="596.6" y="-101.3" font-family="Times,serif" font-size="14.00">मोहिताः (9)</text>
</a>
</g>
</g>
<!-- 6&#45;&gt;9 -->
<g id="edge9" class="edge">
<title>6&#45;&gt;9</title>
<path fill="none" stroke="black" d="M502.63,-175.84C511.38,-169.75 521.52,-162.61 530.6,-156 542.94,-147.01 556.4,-136.87 567.93,-128.09"/>
<polygon fill="black" stroke="black" points="570.12,-130.82 575.94,-121.97 565.87,-125.26 570.12,-130.82"/>
<text text-anchor="middle" x="577.1" y="-144.8" font-family="Times,serif" font-size="14.00">विशेषणम्</text>
</g>
<!-- 8 -->
<g id="node10" class="node">
<title>8</title>
<g id="a_node10"><a xlink:title="अत्र{अव्य}">
<ellipse fill="#ff00ff" stroke="#ff00ff" cx="596.6" cy="-18" rx="44.39" ry="18"/>
<text text-anchor="middle" x="596.6" y="-14.3" font-family="Times,serif" font-size="14.00">अत्र (8)</text>
</a>
</g>
</g>
<!-- 9&#45;&gt;8 -->
<g id="edge8" class="edge">
<title>9&#45;&gt;8</title>
<path fill="none" stroke="black" d="M596.6,-86.8C596.6,-75.16 596.6,-59.55 596.6,-46.24"/>
<polygon fill="black" stroke="black" points="600.1,-46.18 596.6,-36.18 593.1,-46.18 600.1,-46.18"/>
<text text-anchor="middle" x="627.1" y="-57.8" font-family="Times,serif" font-size="14.00">अधिकरणम्</text>
</g>
<!-- 9.1 -->
<g id="node12" class="node">
<title>9.1</title>
<g id="a_node12"><a xlink:title="(भू1{कर्तरि;लट्;प्र;बहु;परस्मैपदी;भू;भ्वादिः})">
<ellipse fill="#ff6347" stroke="#ff6347" cx="480.6" cy="-279" rx="65.79" ry="18"/>
<text text-anchor="middle" x="480.6" y="-275.3" font-family="Times,serif" font-size="14.00">(भवन्ति) (9.1)</text>
</a>
</g>
</g>
<!-- 9.1&#45;&gt;6 -->
<g id="edge6" class="edge">
<title>9.1&#45;&gt;6</title>
<path fill="none" stroke="black" d="M480.6,-260.8C480.6,-249.16 480.6,-233.55 480.6,-220.24"/>
<polygon fill="black" stroke="black" points="484.1,-220.18 480.6,-210.18 477.1,-220.18 484.1,-220.18"/>
<text text-anchor="middle" x="493.1" y="-231.8" font-family="Times,serif" font-size="14.00">कर्ता</text>
</g>
<!-- 10 -->
<g id="node13" class="node">
<title>10</title>
<g id="a_node13"><a xlink:title="तद्{नपुं}{1;एक}">
<ellipse fill="#00bfff" stroke="#00bfff" cx="714.6" cy="-105" rx="44.39" ry="18"/>
<text text-anchor="middle" x="714.6" y="-101.3" font-family="Times,serif" font-size="14.00">तत् (10)</text>
</a>
</g>
</g>
<!-- 11 -->
<g id="node14" class="node">
<title>11</title>
<g id="a_node14"><a xlink:title="युष्मद्{4;एक}">
<ellipse fill="#87cefa" stroke="#87cefa" cx="613.6" cy="-192" rx="38.19" ry="18"/>
<text text-anchor="middle" x="613.6" y="-188.3" font-family="Times,serif" font-size="14.00">ते (11)</text>
</a>
</g>
</g>
<!-- 12 -->
<g id="node15" class="node">
<title>12</title>
<g id="a_node15"><a xlink:title="कर्मन्{नपुं}{2;एक}">
<ellipse fill="#7cfc00" stroke="#7cfc00" cx="714.6" cy="-192" rx="44.69" ry="18"/>
<text text-anchor="middle" x="714.6" y="-188.3" font-family="Times,serif" font-size="14.00">कर्म (12)</text>
</a>
</g>
</g>
<!-- 12&#45;&gt;10 -->
<g id="edge10" class="edge">
<title>12&#45;&gt;10</title>
<path fill="none" stroke="black" d="M714.6,-173.8C714.6,-162.16 714.6,-146.55 714.6,-133.24"/>
<polygon fill="black" stroke="black" points="718.1,-133.18 714.6,-123.18 711.1,-133.18 718.1,-133.18"/>
<text text-anchor="middle" x="740.1" y="-144.8" font-family="Times,serif" font-size="14.00">विशेषणम्</text>
</g>
<!-- 13 -->
<g id="node16" class="node">
<title>13</title>
<g id="a_node16"><a xlink:title="प्र_वच्1{कर्तरि;लृट्;उ;एक;परस्मैपदी;प्र_वचँ;अदादिः}">
<ellipse fill="#ff6347" stroke="#ff6347" cx="714.6" cy="-279" rx="72.29" ry="18"/>
<text text-anchor="middle" x="714.6" y="-275.3" font-family="Times,serif" font-size="14.00">प्रवक्ष्यामि (13)</text>
</a>
</g>
</g>
<!-- 13&#45;&gt;11 -->
<g id="edge11" class="edge">
<title>13&#45;&gt;11</title>
<path fill="none" stroke="black" d="M679.99,-263.06C669.58,-257.63 658.55,-250.86 649.6,-243 641.6,-235.98 634.38,-226.87 628.55,-218.35"/>
<polygon fill="black" stroke="black" points="631.38,-216.28 622.99,-209.8 625.51,-220.09 631.38,-216.28"/>
<text text-anchor="middle" x="680.1" y="-231.8" font-family="Times,serif" font-size="14.00">सम्प्रदानम्</text>
</g>
<!-- 13&#45;&gt;12 -->
<g id="edge12" class="edge">
<title>13&#45;&gt;12</title>
<path fill="none" stroke="black" d="M714.6,-260.8C714.6,-249.16 714.6,-233.55 714.6,-220.24"/>
<polygon fill="black" stroke="black" points="718.1,-220.18 714.6,-210.18 711.1,-220.18 718.1,-220.18"/>
<text text-anchor="middle" x="724.6" y="-231.8" font-family="Times,serif" font-size="14.00">कर्म</text>
</g>
<!-- 13.1 -->
<g id="node17" class="node">
<title>13.1</title>
<g id="a_node17"><a xlink:title="(अस्मद्{1;एक})">
<ellipse fill="#00bfff" stroke="#00bfff" cx="843.6" cy="-192" rx="66.09" ry="18"/>
<text text-anchor="middle" x="843.6" y="-188.3" font-family="Times,serif" font-size="14.00">(अहम्) (13.1)</text>
</a>
</g>
</g>
<!-- 13&#45;&gt;13.1 -->
<g id="edge13" class="edge">
<title>13&#45;&gt;13.1</title>
<path fill="none" stroke="black" d="M738.86,-262.01C759.22,-248.6 788.49,-229.31 810.91,-214.54"/>
<polygon fill="black" stroke="black" points="813.02,-217.34 819.44,-208.92 809.17,-211.5 813.02,-217.34"/>
<text text-anchor="middle" x="800.1" y="-231.8" font-family="Times,serif" font-size="14.00">कर्ता</text>
</g>
<!-- 14 -->
<g id="node18" class="node">
<title>14</title>
<g id="a_node18"><a xlink:title="यद्{नपुं}{2;एक}">
<ellipse fill="#7cfc00" stroke="#7cfc00" cx="981.6" cy="-105" rx="44.39" ry="18"/>
<text text-anchor="middle" x="981.6" y="-101.3" font-family="Times,serif" font-size="14.00">यत् (14)</text>
</a>
</g>
</g>
<!-- 15 -->
<g id="node19" class="node">
<title>15</title>
<g id="a_node19"><a xlink:title="ज्ञा2{कृत्_प्रत्ययः:क्त्वा;ज्ञा;क्र्यादिः}">
<ellipse fill="#808080" stroke="#808080" cx="981.6" cy="-192" rx="53.09" ry="18"/>
<text text-anchor="middle" x="981.6" y="-188.3" font-family="Times,serif" font-size="14.00">ज्ञात्वा (15)</text>
</a>
</g>
</g>
<!-- 15&#45;&gt;14 -->
<g id="edge14" class="edge">
<title>15&#45;&gt;14</title>
<path fill="none" stroke="black" d="M981.6,-173.8C981.6,-162.16 981.6,-146.55 981.6,-133.24"/>
<polygon fill="black" stroke="black" points="985.1,-133.18 981.6,-123.18 978.1,-133.18 985.1,-133.18"/>
<text text-anchor="middle" x="991.6" y="-144.8" font-family="Times,serif" font-size="14.00">कर्म</text>
</g>
<!-- 17.1 -->
<g id="node22" class="node">
<title>17.1</title>
<g id="a_node22"><a xlink:title="(युष्मद्{1;एक})">
<ellipse fill="#00bfff" stroke="#00bfff" cx="1162.6" cy="-105" rx="62.29" ry="18"/>
<text text-anchor="middle" x="1162.6" y="-101.3" font-family="Times,serif" font-size="14.00">(त्वम्) (17.1)</text>
</a>
</g>
</g>
<!-- 15&#45;&gt;17.1 -->
<g id="edge18" class="edge">
<title>15&#45;&gt;17.1</title>
<path fill="none" stroke="black" stroke-dasharray="1,5" d="M1011.48,-176.96C1041.77,-162.74 1088.82,-140.65 1122.37,-124.89"/>
<polygon fill="black" stroke="black" points="1123.89,-128.05 1131.45,-120.63 1120.91,-121.71 1123.89,-128.05"/>
<text text-anchor="middle" x="1095.1" y="-144.8" font-family="Times,serif" font-size="14.00">कर्ता</text>
</g>
<!-- 16 -->
<g id="node20" class="node">
<title>16</title>
<g id="a_node20"><a xlink:title="मुच्1{कर्तरि;लृट्;म;एक;आत्मनेपदी;मुचॢँ;तुदादिः}">
<ellipse fill="#ff6347" stroke="#ff6347" cx="1117.6" cy="-279" rx="59.59" ry="18"/>
<text text-anchor="middle" x="1117.6" y="-275.3" font-family="Times,serif" font-size="14.00">मोक्ष्यसे (16)</text>
</a>
</g>
</g>
<!-- 16&#45;&gt;15 -->
<g id="edge15" class="edge">
<title>16&#45;&gt;15</title>
<path fill="none" stroke="black" d="M1092.65,-262.41C1070.76,-248.73 1038.74,-228.72 1014.71,-213.7"/>
<polygon fill="black" stroke="black" points="1016.26,-210.54 1005.93,-208.21 1012.55,-216.47 1016.26,-210.54"/>
<text text-anchor="middle" x="1082.1" y="-231.8" font-family="Times,serif" font-size="14.00">पूर्वकालः</text>
</g>
<!-- 17 -->
<g id="node21" class="node">
<title>17</title>
<g id="a_node21"><a xlink:title="अशुभ{पुं}{5;एक}">
<ellipse fill="#90ee90" stroke="#90ee90" cx="1117.6" cy="-192" rx="64.99" ry="18"/>
<text text-anchor="middle" x="1117.6" y="-188.3" font-family="Times,serif" font-size="14.00">अ&#45;शुभात् (17)</text>
</a>
</g>
</g>
<!-- 16&#45;&gt;17 -->
<g id="edge16" class="edge">
<title>16&#45;&gt;17</title>
<path fill="none" stroke="black" d="M1117.6,-260.8C1117.6,-249.16 1117.6,-233.55 1117.6,-220.24"/>
<polygon fill="black" stroke="black" points="1121.1,-220.18 1117.6,-210.18 1114.1,-220.18 1121.1,-220.18"/>
<text text-anchor="middle" x="1144.1" y="-231.8" font-family="Times,serif" font-size="14.00">अपादानम्</text>
</g>
<!-- 16&#45;&gt;17.1 -->
<g id="edge17" class="edge">
<title>16&#45;&gt;17.1</title>
<path fill="none" stroke="black" d="M1147.97,-263.48C1157.31,-257.99 1167.09,-251.09 1174.6,-243 1185.82,-230.9 1187.71,-226.03 1191.6,-210 1198.11,-183.14 1187.5,-152.73 1177.34,-131.76"/>
<polygon fill="black" stroke="black" points="1180.44,-130.14 1172.76,-122.84 1174.21,-133.34 1180.44,-130.14"/>
<text text-anchor="middle" x="1206.1" y="-188.3" font-family="Times,serif" font-size="14.00">कर्ता</text>
</g>
</g>
</svg>
