<?xml version="1.0" encoding="UTF-8" standalone="no"?>
<!DOCTYPE svg PUBLIC "-//W3C//DTD SVG 1.1//EN"
 "http://www.w3.org/Graphics/SVG/1.1/DTD/svg11.dtd">
<!-- Generated by graphviz version 2.43.0 (0)
 -->
<!-- Title: %3 Pages: 1 -->
<svg width="507pt" height="392pt"
 viewBox="0.00 0.00 507.49 392.00" xmlns="http://www.w3.org/2000/svg" xmlns:xlink="http://www.w3.org/1999/xlink">
<g id="graph0" class="graph" transform="scale(1 1) rotate(0) translate(4 388)">
<title>%3</title>
<polygon fill="#fffacd" stroke="transparent" points="-4,4 -4,-388 503.49,-388 503.49,4 -4,4"/>
<!-- 1 -->
<g id="node1" class="node">
<title>1</title>
<g id="a_node1"><a xlink:title="वीत&#45;राग&#45;भय&#45;क्रोध{पुं}{1;बहु}">
<ellipse fill="#00bfff" stroke="#00bfff" cx="100.74" cy="-18" rx="100.98" ry="18"/>
<text text-anchor="middle" x="100.74" y="-14.3" font-family="Times,serif" font-size="14.00">वीत&#45;राग&#45;भय&#45;क्रोधाः (1)</text>
</a>
</g>
</g>
<!-- 2 -->
<g id="node2" class="node">
<title>2</title>
<g id="a_node2"><a xlink:title="मन्मय{पुं}{1;बहु}">
<ellipse fill="#00bfff" stroke="#00bfff" cx="182.74" cy="-105" rx="53.89" ry="18"/>
<text text-anchor="middle" x="182.74" y="-101.3" font-family="Times,serif" font-size="14.00">मन्मयाः (2)</text>
</a>
</g>
</g>
<!-- 2&#45;&gt;1 -->
<g id="edge1" class="edge">
<title>2&#45;&gt;1</title>
<path fill="none" stroke="black" d="M166.93,-87.61C154.84,-75.07 137.97,-57.59 124.29,-43.41"/>
<polygon fill="black" stroke="black" points="126.53,-40.69 117.06,-35.92 121.49,-45.55 126.53,-40.69"/>
<text text-anchor="middle" x="172.24" y="-57.8" font-family="Times,serif" font-size="14.00">विशेषणम्</text>
</g>
<!-- 5 -->
<g id="node5" class="node">
<title>5</title>
<g id="a_node5"><a xlink:title="बहु{पुं}{1;बहु}">
<ellipse fill="#00bfff" stroke="#00bfff" cx="265.74" cy="-18" rx="46.29" ry="18"/>
<text text-anchor="middle" x="265.74" y="-14.3" font-family="Times,serif" font-size="14.00">बहवः (5)</text>
</a>
</g>
</g>
<!-- 2&#45;&gt;5 -->
<g id="edge5" class="edge">
<title>2&#45;&gt;5</title>
<path fill="none" stroke="black" d="M198.74,-87.61C211.22,-74.83 228.73,-56.9 242.71,-42.58"/>
<polygon fill="black" stroke="black" points="245.59,-44.65 250.07,-35.05 240.58,-39.76 245.59,-44.65"/>
<text text-anchor="middle" x="255.24" y="-57.8" font-family="Times,serif" font-size="14.00">विशेषणम्</text>
</g>
<!-- 3 -->
<g id="node3" class="node">
<title>3</title>
<g id="a_node3"><a xlink:title="अस्मद्{2;एक}">
<ellipse fill="#7cfc00" stroke="#7cfc00" cx="296.74" cy="-105" rx="41.69" ry="18"/>
<text text-anchor="middle" x="296.74" y="-101.3" font-family="Times,serif" font-size="14.00">माम् (3)</text>
</a>
</g>
</g>
<!-- 4 -->
<g id="node4" class="node">
<title>4</title>
<g id="a_node4"><a xlink:title="उप_श्रि1{कृत्_प्रत्ययः:क्त;उप_श्रिञ्;भ्वादिः;पुं}{1;बहु}">
<ellipse fill="#00bfff" stroke="#00bfff" cx="239.74" cy="-192" rx="66.89" ry="18"/>
<text text-anchor="middle" x="239.74" y="-188.3" font-family="Times,serif" font-size="14.00">उपाश्रिताः (4)</text>
</a>
</g>
</g>
<!-- 4&#45;&gt;2 -->
<g id="edge2" class="edge">
<title>4&#45;&gt;2</title>
<path fill="none" stroke="black" d="M228.48,-174.21C220.28,-161.98 209.04,-145.21 199.75,-131.36"/>
<polygon fill="black" stroke="black" points="202.46,-129.11 193.98,-122.76 196.64,-133.01 202.46,-129.11"/>
<text text-anchor="middle" x="227.24" y="-144.8" font-family="Times,serif" font-size="14.00">कर्ता</text>
</g>
<!-- 4&#45;&gt;3 -->
<g id="edge3" class="edge">
<title>4&#45;&gt;3</title>
<path fill="none" stroke="black" d="M251,-174.21C259.25,-161.9 270.59,-145 279.91,-131.09"/>
<polygon fill="black" stroke="black" points="283.03,-132.72 285.7,-122.47 277.22,-128.83 283.03,-132.72"/>
<text text-anchor="middle" x="281.74" y="-144.8" font-family="Times,serif" font-size="14.00">कर्म</text>
</g>
<!-- 6 -->
<g id="node6" class="node">
<title>6</title>
<g id="a_node6"><a xlink:title="ज्ञान&#45;तपस्{नपुं}{3;एक}">
<ellipse fill="#40e0d0" stroke="#40e0d0" cx="387.74" cy="-192" rx="63.09" ry="18"/>
<text text-anchor="middle" x="387.74" y="-188.3" font-family="Times,serif" font-size="14.00">ज्ञान&#45;तपसा (6)</text>
</a>
</g>
</g>
<!-- 7 -->
<g id="node7" class="node">
<title>7</title>
<g id="a_node7"><a xlink:title="पू2{कृत्_प्रत्ययः:क्त;पूञ्;क्र्यादिः;पुं}{1;बहु}">
<ellipse fill="#00bfff" stroke="#00bfff" cx="313.74" cy="-279" rx="44.39" ry="18"/>
<text text-anchor="middle" x="313.74" y="-275.3" font-family="Times,serif" font-size="14.00">पूताः (7)</text>
</a>
</g>
</g>
<!-- 7&#45;&gt;4 -->
<g id="edge4" class="edge">
<title>7&#45;&gt;4</title>
<path fill="none" stroke="black" d="M299.47,-261.61C288.59,-249.11 273.42,-231.69 261.09,-217.53"/>
<polygon fill="black" stroke="black" points="263.42,-214.87 254.22,-209.63 258.14,-219.47 263.42,-214.87"/>
<text text-anchor="middle" x="294.24" y="-231.8" font-family="Times,serif" font-size="14.00">कर्ता</text>
</g>
<!-- 7&#45;&gt;6 -->
<g id="edge6" class="edge">
<title>7&#45;&gt;6</title>
<path fill="none" stroke="black" d="M328.01,-261.61C338.89,-249.11 354.06,-231.69 366.39,-217.53"/>
<polygon fill="black" stroke="black" points="369.34,-219.47 373.26,-209.63 364.06,-214.87 369.34,-219.47"/>
<text text-anchor="middle" x="367.24" y="-231.8" font-family="Times,serif" font-size="14.00">हेतुः</text>
</g>
<!-- 8 -->
<g id="node8" class="node">
<title>8</title>
<g id="a_node8"><a xlink:title="अस्मद्&#45;भाव{पुं}{2;एक}">
<ellipse fill="#7cfc00" stroke="#7cfc00" cx="437.74" cy="-279" rx="61.99" ry="18"/>
<text text-anchor="middle" x="437.74" y="-275.3" font-family="Times,serif" font-size="14.00">मत्&#45;भावम् (8)</text>
</a>
</g>
</g>
<!-- 9 -->
<g id="node9" class="node">
<title>9</title>
<g id="a_node9"><a xlink:title="आङ्_गम्1{कृत्_प्रत्ययः:क्त;आङ्_गमॢँ;भ्वादिः;पुं}{1;बहु}">
<ellipse fill="#00bfff" stroke="#00bfff" cx="375.74" cy="-366" rx="54.69" ry="18"/>
<text text-anchor="middle" x="375.74" y="-362.3" font-family="Times,serif" font-size="14.00">आगताः (9)</text>
</a>
</g>
</g>
<!-- 9&#45;&gt;7 -->
<g id="edge7" class="edge">
<title>9&#45;&gt;7</title>
<path fill="none" stroke="black" d="M363.49,-348.21C354.43,-335.79 341.95,-318.67 331.76,-304.7"/>
<polygon fill="black" stroke="black" points="334.47,-302.49 325.75,-296.47 328.82,-306.61 334.47,-302.49"/>
<text text-anchor="middle" x="361.24" y="-318.8" font-family="Times,serif" font-size="14.00">कर्ता</text>
</g>
<!-- 9&#45;&gt;8 -->
<g id="edge8" class="edge">
<title>9&#45;&gt;8</title>
<path fill="none" stroke="black" d="M387.99,-348.21C396.99,-335.87 409.37,-318.89 419.53,-304.97"/>
<polygon fill="black" stroke="black" points="422.45,-306.9 425.52,-296.76 416.8,-302.77 422.45,-306.9"/>
<text text-anchor="middle" x="419.74" y="-318.8" font-family="Times,serif" font-size="14.00">कर्म</text>
</g>
</g>
</svg>
