<?xml version="1.0" encoding="UTF-8" standalone="no"?>
<!DOCTYPE svg PUBLIC "-//W3C//DTD SVG 1.1//EN"
 "http://www.w3.org/Graphics/SVG/1.1/DTD/svg11.dtd">
<!-- Generated by graphviz version 2.43.0 (0)
 -->
<!-- Title: %3 Pages: 1 -->
<svg width="1331pt" height="218pt"
 viewBox="0.00 0.00 1331.44 218.00" xmlns="http://www.w3.org/2000/svg" xmlns:xlink="http://www.w3.org/1999/xlink">
<g id="graph0" class="graph" transform="scale(1 1) rotate(0) translate(4 214)">
<title>%3</title>
<polygon fill="#fffacd" stroke="transparent" points="-4,4 -4,-214 1327.44,-214 1327.44,4 -4,4"/>
<!-- 1 -->
<g id="node1" class="node">
<title>1</title>
<g id="a_node1"><a xlink:title="सन्न्यास{पुं}{2;एक}">
<ellipse fill="#7cfc00" stroke="#7cfc00" cx="61.09" cy="-105" rx="61.19" ry="18"/>
<text text-anchor="middle" x="61.09" y="-101.3" font-family="Times,serif" font-size="14.00">सन्न्यासम् (1)</text>
</a>
</g>
</g>
<!-- 2 -->
<g id="node2" class="node">
<title>2</title>
<g id="a_node2"><a xlink:title="कर्मन्{नपुं}{6;बहु}">
<ellipse fill="#87ceeb" stroke="#87ceeb" cx="61.09" cy="-18" rx="53.89" ry="18"/>
<text text-anchor="middle" x="61.09" y="-14.3" font-family="Times,serif" font-size="14.00">कर्मणाम् (2)</text>
</a>
</g>
</g>
<!-- 1&#45;&gt;2 -->
<g id="edge2" class="edge">
<title>1&#45;&gt;2</title>
<path fill="none" stroke="black" d="M61.09,-86.8C61.09,-75.16 61.09,-59.55 61.09,-46.24"/>
<polygon fill="black" stroke="black" points="64.59,-46.18 61.09,-36.18 57.59,-46.18 64.59,-46.18"/>
<text text-anchor="middle" x="97.09" y="-57.8" font-family="Times,serif" font-size="14.00">षष्ठीसम्बन्धः</text>
</g>
<!-- 3 -->
<g id="node3" class="node">
<title>3</title>
<g id="a_node3"><a xlink:title="कृष्ण{पुं}{8;एक}">
<ellipse fill="#7fffd4" stroke="#7fffd4" cx="183.09" cy="-105" rx="42.79" ry="18"/>
<text text-anchor="middle" x="183.09" y="-101.3" font-family="Times,serif" font-size="14.00">कृष्ण (3)</text>
</a>
</g>
</g>
<!-- 4 -->
<g id="node4" class="node">
<title>4</title>
<g id="a_node4"><a xlink:title="पुनः{अव्य}">
<ellipse fill="#ff00ff" stroke="#ff00ff" cx="285.09" cy="-105" rx="40.89" ry="18"/>
<text text-anchor="middle" x="285.09" y="-101.3" font-family="Times,serif" font-size="14.00">पुनः (4)</text>
</a>
</g>
</g>
<!-- 5 -->
<g id="node5" class="node">
<title>5</title>
<g id="a_node5"><a xlink:title="योग{पुं}{2;एक}">
<ellipse fill="#7cfc00" stroke="#7cfc00" cx="393.09" cy="-105" rx="47.39" ry="18"/>
<text text-anchor="middle" x="393.09" y="-101.3" font-family="Times,serif" font-size="14.00">योगम् (5)</text>
</a>
</g>
</g>
<!-- 6 -->
<g id="node6" class="node">
<title>6</title>
<g id="a_node6"><a xlink:title="च{अव्य}">
<ellipse fill="#ff00ff" stroke="#ff00ff" cx="61.09" cy="-192" rx="33.29" ry="18"/>
<text text-anchor="middle" x="61.09" y="-188.3" font-family="Times,serif" font-size="14.00">च (6)</text>
</a>
</g>
</g>
<!-- 6&#45;&gt;1 -->
<g id="edge1" class="edge">
<title>6&#45;&gt;1</title>
<path fill="none" stroke="black" d="M61.09,-173.8C61.09,-162.16 61.09,-146.55 61.09,-133.24"/>
<polygon fill="black" stroke="black" points="64.59,-133.18 61.09,-123.18 57.59,-133.18 64.59,-133.18"/>
<text text-anchor="middle" x="90.59" y="-144.8" font-family="Times,serif" font-size="14.00">समुच्चितम्</text>
</g>
<!-- 6&#45;&gt;6 -->
<g id="edge6" class="edge">
<title>6&#45;&gt;6</title>
<path fill="none" stroke="black" d="M91.04,-199.84C102.62,-200.19 112.24,-197.58 112.24,-192 112.24,-188.17 107.69,-185.73 101.09,-184.7"/>
<polygon fill="black" stroke="black" points="101.21,-181.2 91.04,-184.16 100.84,-188.19 101.21,-181.2"/>
<text text-anchor="middle" x="156.74" y="-188.3" font-family="Times,serif" font-size="14.00">समुच्चयद्योतकम्</text>
</g>
<!-- 7 -->
<g id="node7" class="node">
<title>7</title>
<g id="a_node7"><a xlink:title="शंस्1{कर्तरि;लट्;म;एक;परस्मैपदी;शंसुँ;भ्वादिः}">
<ellipse fill="#ff6347" stroke="#ff6347" cx="339.09" cy="-192" rx="49.29" ry="18"/>
<text text-anchor="middle" x="339.09" y="-188.3" font-family="Times,serif" font-size="14.00">शंससि (7)</text>
</a>
</g>
</g>
<!-- 7&#45;&gt;3 -->
<g id="edge3" class="edge">
<title>7&#45;&gt;3</title>
<path fill="none" stroke="black" d="M295.75,-183.27C273.92,-177.98 247.77,-169.43 227.09,-156 216.85,-149.35 207.57,-139.67 200.2,-130.59"/>
<polygon fill="black" stroke="black" points="202.87,-128.33 193.99,-122.54 197.32,-132.6 202.87,-128.33"/>
<text text-anchor="middle" x="252.59" y="-144.8" font-family="Times,serif" font-size="14.00">सम्बोध्यः</text>
</g>
<!-- 7&#45;&gt;4 -->
<g id="edge4" class="edge">
<title>7&#45;&gt;4</title>
<path fill="none" stroke="black" d="M308.57,-177.77C299.75,-172.36 291.15,-165.17 286.09,-156 282.35,-149.2 281.1,-141.06 281.05,-133.33"/>
<polygon fill="black" stroke="black" points="284.56,-133.41 281.62,-123.23 277.57,-133.02 284.56,-133.41"/>
<text text-anchor="middle" x="328.59" y="-144.8" font-family="Times,serif" font-size="14.00">क्रियाविशेषणम्</text>
</g>
<!-- 7&#45;&gt;5 -->
<g id="edge5" class="edge">
<title>7&#45;&gt;5</title>
<path fill="none" stroke="black" d="M355.91,-174.83C361.2,-169.2 366.78,-162.62 371.09,-156 375.83,-148.74 379.99,-140.29 383.38,-132.42"/>
<polygon fill="black" stroke="black" points="386.72,-133.49 387.24,-122.91 380.24,-130.85 386.72,-133.49"/>
<text text-anchor="middle" x="390.09" y="-144.8" font-family="Times,serif" font-size="14.00">कर्म</text>
</g>
<!-- 7.1 -->
<g id="node8" class="node">
<title>7.1</title>
<g id="a_node8"><a xlink:title="(युष्मद्{1;एक})">
<ellipse fill="#00bfff" stroke="#00bfff" cx="515.09" cy="-105" rx="56.59" ry="18"/>
<text text-anchor="middle" x="515.09" y="-101.3" font-family="Times,serif" font-size="14.00">(त्वम) (7.1)</text>
</a>
</g>
</g>
<!-- 7&#45;&gt;7.1 -->
<g id="edge7" class="edge">
<title>7&#45;&gt;7.1</title>
<path fill="none" stroke="black" d="M367.76,-177.15C397.2,-162.94 443.21,-140.72 475.97,-124.89"/>
<polygon fill="black" stroke="black" points="477.78,-127.91 485.26,-120.41 474.73,-121.61 477.78,-127.91"/>
<text text-anchor="middle" x="450.59" y="-144.8" font-family="Times,serif" font-size="14.00">कर्ता</text>
</g>
<!-- 8 -->
<g id="node9" class="node">
<title>8</title>
<g id="a_node9"><a xlink:title="यद्{नपुं}{1;एक}">
<ellipse fill="#00bfff" stroke="#00bfff" cx="894.09" cy="-18" rx="38.19" ry="18"/>
<text text-anchor="middle" x="894.09" y="-14.3" font-family="Times,serif" font-size="14.00">यत् (8)</text>
</a>
</g>
</g>
<!-- 9 -->
<g id="node10" class="node">
<title>9</title>
<g id="a_node10"><a xlink:title="श्रेयस्{नपुं}{1;एक}">
<ellipse fill="#00bfff" stroke="#00bfff" cx="638.09" cy="-105" rx="48.19" ry="18"/>
<text text-anchor="middle" x="638.09" y="-101.3" font-family="Times,serif" font-size="14.00">श्रेयः (9)</text>
</a>
</g>
</g>
<!-- 10 -->
<g id="node11" class="node">
<title>10</title>
<g id="a_node11"><a xlink:title="एतद्{पुं}{6;द्वि}">
<ellipse fill="#87ceeb" stroke="#87ceeb" cx="765.09" cy="-18" rx="55.79" ry="18"/>
<text text-anchor="middle" x="765.09" y="-14.3" font-family="Times,serif" font-size="14.00">एतयोः (10)</text>
</a>
</g>
</g>
<!-- 11 -->
<g id="node12" class="node">
<title>11</title>
<g id="a_node12"><a xlink:title="एक{नपुं}{1;एक}">
<ellipse fill="#00bfff" stroke="#00bfff" cx="765.09" cy="-105" rx="50.09" ry="18"/>
<text text-anchor="middle" x="765.09" y="-101.3" font-family="Times,serif" font-size="14.00">एकम् (11)</text>
</a>
</g>
</g>
<!-- 11&#45;&gt;8 -->
<g id="edge8" class="edge">
<title>11&#45;&gt;8</title>
<path fill="none" stroke="black" d="M788.53,-88.91C798.03,-82.76 809.11,-75.57 819.09,-69 834.11,-59.13 850.75,-48.05 864.53,-38.84"/>
<polygon fill="black" stroke="black" points="866.77,-41.55 873.13,-33.08 862.87,-35.74 866.77,-41.55"/>
<text text-anchor="middle" x="865.59" y="-57.8" font-family="Times,serif" font-size="14.00">विशेषणम्</text>
</g>
<!-- 11&#45;&gt;10 -->
<g id="edge11" class="edge">
<title>11&#45;&gt;10</title>
<path fill="none" stroke="black" d="M765.09,-86.8C765.09,-75.16 765.09,-59.55 765.09,-46.24"/>
<polygon fill="black" stroke="black" points="768.59,-46.18 765.09,-36.18 761.59,-46.18 768.59,-46.18"/>
<text text-anchor="middle" x="790.09" y="-57.8" font-family="Times,serif" font-size="14.00">निर्धारणम्</text>
</g>
<!-- 11.1 -->
<g id="node13" class="node">
<title>11.1</title>
<g id="a_node13"><a xlink:title="(भू1{कर्तरि;लट्;प्र;एक;परस्मैपदी;भू;भ्वादिः})">
<ellipse fill="#ff6347" stroke="#ff6347" cx="701.09" cy="-192" rx="67.69" ry="18"/>
<text text-anchor="middle" x="701.09" y="-188.3" font-family="Times,serif" font-size="14.00">(भवति) (11.1)</text>
</a>
</g>
</g>
<!-- 11.1&#45;&gt;9 -->
<g id="edge10" class="edge">
<title>11.1&#45;&gt;9</title>
<path fill="none" stroke="black" d="M662.27,-177.09C653.13,-171.91 644.48,-165.02 639.09,-156 635.12,-149.34 633.79,-141.23 633.76,-133.51"/>
<polygon fill="black" stroke="black" points="637.26,-133.57 634.38,-123.37 630.27,-133.14 637.26,-133.57"/>
<text text-anchor="middle" x="691.09" y="-144.8" font-family="Times,serif" font-size="14.00">कर्तृसमानाधिकरणम्</text>
</g>
<!-- 11.1&#45;&gt;11 -->
<g id="edge12" class="edge">
<title>11.1&#45;&gt;11</title>
<path fill="none" stroke="black" d="M724.25,-174.9C730.94,-169.46 737.84,-162.98 743.09,-156 748.37,-149 752.7,-140.53 756.08,-132.58"/>
<polygon fill="black" stroke="black" points="759.35,-133.84 759.74,-123.26 752.83,-131.29 759.35,-133.84"/>
<text text-anchor="middle" x="764.59" y="-144.8" font-family="Times,serif" font-size="14.00">कर्ता</text>
</g>
<!-- 12 -->
<g id="node14" class="node">
<title>12</title>
<g id="a_node14"><a xlink:title="तद्{नपुं}{2;एक}">
<ellipse fill="#7cfc00" stroke="#7cfc00" cx="1184.09" cy="-105" rx="44.39" ry="18"/>
<text text-anchor="middle" x="1184.09" y="-101.3" font-family="Times,serif" font-size="14.00">तत् (12)</text>
</a>
</g>
</g>
<!-- 12&#45;&gt;8 -->
<g id="edge9" class="edge">
<title>12&#45;&gt;8</title>
<path fill="none" stroke="black" stroke-dasharray="1,5" d="M1150.43,-93.26C1143.7,-91.16 1136.68,-88.99 1130.09,-87 1062.39,-66.59 983.37,-44.09 936.11,-30.77"/>
<polygon fill="black" stroke="black" points="936.81,-27.33 926.23,-27.99 934.91,-34.07 936.81,-27.33"/>
<text text-anchor="middle" x="1101.09" y="-57.8" font-family="Times,serif" font-size="14.00">नित्यसम्बन्धः</text>
</g>
<!-- 13 -->
<g id="node15" class="node">
<title>13</title>
<g id="a_node15"><a xlink:title="अस्मद्{6;एक}">
<ellipse fill="#87ceeb" stroke="#87ceeb" cx="1285.09" cy="-105" rx="38.19" ry="18"/>
<text text-anchor="middle" x="1285.09" y="-101.3" font-family="Times,serif" font-size="14.00">मे (13)</text>
</a>
</g>
</g>
<!-- 14 -->
<g id="node16" class="node">
<title>14</title>
<g id="a_node16"><a xlink:title="ब्रू1{कर्तरि;लोट्;म;एक;परस्मैपदी;ब्रूञ्;अदादिः}">
<ellipse fill="#ff6347" stroke="#ff6347" cx="1102.09" cy="-192" rx="52.79" ry="18"/>
<text text-anchor="middle" x="1102.09" y="-188.3" font-family="Times,serif" font-size="14.00">ब्रूहि (14)</text>
</a>
</g>
</g>
<!-- 14&#45;&gt;12 -->
<g id="edge13" class="edge">
<title>14&#45;&gt;12</title>
<path fill="none" stroke="black" d="M1117.91,-174.61C1130.24,-161.83 1147.53,-143.9 1161.35,-129.58"/>
<polygon fill="black" stroke="black" points="1164.19,-131.68 1168.61,-122.05 1159.15,-126.82 1164.19,-131.68"/>
<text text-anchor="middle" x="1157.09" y="-144.8" font-family="Times,serif" font-size="14.00">कर्म</text>
</g>
<!-- 14&#45;&gt;13 -->
<g id="edge14" class="edge">
<title>14&#45;&gt;13</title>
<path fill="none" stroke="black" d="M1131.9,-177.15C1164.12,-162.19 1215.44,-138.36 1249.68,-122.45"/>
<polygon fill="black" stroke="black" points="1251.26,-125.57 1258.86,-118.19 1248.32,-119.22 1251.26,-125.57"/>
<text text-anchor="middle" x="1240.09" y="-144.8" font-family="Times,serif" font-size="14.00">षष्ठीसम्बन्धः</text>
</g>
<!-- 15 -->
<g id="node17" class="node">
<title>15</title>
<g id="a_node17"><a xlink:title="सुनिश्चित{नपुं}{1;एक}">
<ellipse fill="#00bfff" stroke="#00bfff" cx="906.09" cy="-105" rx="72.59" ry="18"/>
<text text-anchor="middle" x="906.09" y="-101.3" font-family="Times,serif" font-size="14.00">सुनिश्चितम् (15)</text>
</a>
</g>
</g>
<!-- 14&#45;&gt;15 -->
<g id="edge15" class="edge">
<title>14&#45;&gt;15</title>
<path fill="none" stroke="black" d="M1060.56,-180.93C1038.54,-174.93 1011.32,-166.45 988.09,-156 970.84,-148.24 952.78,-137.54 938.01,-128.02"/>
<polygon fill="black" stroke="black" points="939.55,-124.85 929.27,-122.29 935.71,-130.71 939.55,-124.85"/>
<text text-anchor="middle" x="1030.59" y="-144.8" font-family="Times,serif" font-size="14.00">क्रियाविशेषणम्</text>
</g>
<!-- 15.1 -->
<g id="node18" class="node">
<title>15.1</title>
<g id="a_node18"><a xlink:title="(युष्मद्{1;एक})">
<ellipse fill="#00bfff" stroke="#00bfff" cx="1059.09" cy="-105" rx="62.29" ry="18"/>
<text text-anchor="middle" x="1059.09" y="-101.3" font-family="Times,serif" font-size="14.00">(त्वम) (15.1)</text>
</a>
</g>
</g>
<!-- 14&#45;&gt;15.1 -->
<g id="edge16" class="edge">
<title>14&#45;&gt;15.1</title>
<path fill="none" stroke="black" d="M1093.6,-174.21C1087.51,-162.18 1079.2,-145.75 1072.26,-132.03"/>
<polygon fill="black" stroke="black" points="1075.36,-130.39 1067.72,-123.05 1069.11,-133.55 1075.36,-130.39"/>
<text text-anchor="middle" x="1095.59" y="-144.8" font-family="Times,serif" font-size="14.00">कर्ता</text>
</g>
</g>
</svg>
