<?xml version="1.0" encoding="UTF-8" standalone="no"?>
<!DOCTYPE svg PUBLIC "-//W3C//DTD SVG 1.1//EN"
 "http://www.w3.org/Graphics/SVG/1.1/DTD/svg11.dtd">
<!-- Generated by graphviz version 2.43.0 (0)
 -->
<!-- Title: %3 Pages: 1 -->
<svg width="602pt" height="305pt"
 viewBox="0.00 0.00 601.59 305.00" xmlns="http://www.w3.org/2000/svg" xmlns:xlink="http://www.w3.org/1999/xlink">
<g id="graph0" class="graph" transform="scale(1 1) rotate(0) translate(4 301)">
<title>%3</title>
<polygon fill="#fffacd" stroke="transparent" points="-4,4 -4,-301 597.59,-301 597.59,4 -4,4"/>
<!-- 1 -->
<g id="node1" class="node">
<title>1</title>
<g id="a_node1"><a xlink:title="लभ्1{कर्तरि;लट्;प्र;बहु;आत्मनेपदी;डुलभँष्;भ्वादिः}">
<ellipse fill="#ff6347" stroke="#ff6347" cx="191.74" cy="-279" rx="49.29" ry="18"/>
<text text-anchor="middle" x="191.74" y="-275.3" font-family="Times,serif" font-size="14.00">लभन्ते (1)</text>
</a>
</g>
</g>
<!-- 2 -->
<g id="node2" class="node">
<title>2</title>
<g id="a_node2"><a xlink:title="ब्रह्मन्&#45;निर्वाण{नपुं}{2;एक}">
<ellipse fill="#7cfc00" stroke="#7cfc00" cx="170.74" cy="-192" rx="75.29" ry="18"/>
<text text-anchor="middle" x="170.74" y="-188.3" font-family="Times,serif" font-size="14.00">ब्रह्म&#45;निर्वाणम् (2)</text>
</a>
</g>
</g>
<!-- 1&#45;&gt;2 -->
<g id="edge1" class="edge">
<title>1&#45;&gt;2</title>
<path fill="none" stroke="black" d="M187.49,-260.8C184.62,-249.16 180.76,-233.55 177.47,-220.24"/>
<polygon fill="black" stroke="black" points="180.78,-219.04 174.99,-210.18 173.99,-220.72 180.78,-219.04"/>
<text text-anchor="middle" x="192.74" y="-231.8" font-family="Times,serif" font-size="14.00">कर्म</text>
</g>
<!-- 3 -->
<g id="node3" class="node">
<title>3</title>
<g id="a_node3"><a xlink:title="ऋषि{पुं}{1;बहु}">
<ellipse fill="#00bfff" stroke="#00bfff" cx="312.74" cy="-192" rx="48.99" ry="18"/>
<text text-anchor="middle" x="312.74" y="-188.3" font-family="Times,serif" font-size="14.00">ऋषयः (3)</text>
</a>
</g>
</g>
<!-- 1&#45;&gt;3 -->
<g id="edge2" class="edge">
<title>1&#45;&gt;3</title>
<path fill="none" stroke="black" d="M213.38,-262.8C232.61,-249.29 260.94,-229.39 282.44,-214.29"/>
<polygon fill="black" stroke="black" points="284.72,-216.96 290.89,-208.35 280.7,-211.24 284.72,-216.96"/>
<text text-anchor="middle" x="272.24" y="-231.8" font-family="Times,serif" font-size="14.00">कर्ता</text>
</g>
<!-- 4 -->
<g id="node4" class="node">
<title>4</title>
<g id="a_node4"><a xlink:title="क्षीण&#45;कल्मष{पुं}{1;बहु}">
<ellipse fill="#00bfff" stroke="#00bfff" cx="74.74" cy="-105" rx="74.99" ry="18"/>
<text text-anchor="middle" x="74.74" y="-101.3" font-family="Times,serif" font-size="14.00">क्षीण&#45;कल्मषाः (4)</text>
</a>
</g>
</g>
<!-- 3&#45;&gt;4 -->
<g id="edge3" class="edge">
<title>3&#45;&gt;4</title>
<path fill="none" stroke="black" d="M278.9,-178.91C238.52,-164.49 170.68,-140.26 124.37,-123.72"/>
<polygon fill="black" stroke="black" points="125.43,-120.38 114.83,-120.32 123.07,-126.98 125.43,-120.38"/>
<text text-anchor="middle" x="234.24" y="-144.8" font-family="Times,serif" font-size="14.00">विशेषणम्</text>
</g>
<!-- 5 -->
<g id="node5" class="node">
<title>5</title>
<g id="a_node5"><a xlink:title="छिन्न&#45;द्वैध{पुं}{1;बहु}">
<ellipse fill="#00bfff" stroke="#00bfff" cx="234.74" cy="-105" rx="66.89" ry="18"/>
<text text-anchor="middle" x="234.74" y="-101.3" font-family="Times,serif" font-size="14.00">छिन्न&#45;द्वैधाः (5)</text>
</a>
</g>
</g>
<!-- 3&#45;&gt;5 -->
<g id="edge4" class="edge">
<title>3&#45;&gt;5</title>
<path fill="none" stroke="black" d="M297.7,-174.61C286.12,-161.99 269.94,-144.36 256.89,-130.13"/>
<polygon fill="black" stroke="black" points="259.34,-127.63 250,-122.63 254.18,-132.36 259.34,-127.63"/>
<text text-anchor="middle" x="304.24" y="-144.8" font-family="Times,serif" font-size="14.00">विशेषणम्</text>
</g>
<!-- 6 -->
<g id="node6" class="node">
<title>6</title>
<g id="a_node6"><a xlink:title="यत&#45;आत्मन्{पुं}{1;बहु}">
<ellipse fill="#00bfff" stroke="#00bfff" cx="390.74" cy="-105" rx="71.49" ry="18"/>
<text text-anchor="middle" x="390.74" y="-101.3" font-family="Times,serif" font-size="14.00">यत&#45;आत्मानः (6)</text>
</a>
</g>
</g>
<!-- 3&#45;&gt;6 -->
<g id="edge5" class="edge">
<title>3&#45;&gt;6</title>
<path fill="none" stroke="black" d="M327.78,-174.61C339.36,-161.99 355.54,-144.36 368.6,-130.13"/>
<polygon fill="black" stroke="black" points="371.3,-132.36 375.48,-122.63 366.14,-127.63 371.3,-132.36"/>
<text text-anchor="middle" x="381.24" y="-144.8" font-family="Times,serif" font-size="14.00">विशेषणम्</text>
</g>
<!-- 8 -->
<g id="node8" class="node">
<title>8</title>
<g id="a_node8"><a xlink:title="रम्1{कृत्_प्रत्ययः:क्त;रमुँ;भ्वादिः;पुं}{1;बहु}">
<ellipse fill="#00bfff" stroke="#00bfff" cx="522.74" cy="-105" rx="42.79" ry="18"/>
<text text-anchor="middle" x="522.74" y="-101.3" font-family="Times,serif" font-size="14.00">रताः (8)</text>
</a>
</g>
</g>
<!-- 3&#45;&gt;8 -->
<g id="edge7" class="edge">
<title>3&#45;&gt;8</title>
<path fill="none" stroke="black" d="M347.46,-179.33C366.31,-172.81 389.95,-164.34 410.74,-156 436.22,-145.78 464.44,-133.17 486.18,-123.18"/>
<polygon fill="black" stroke="black" points="487.77,-126.3 495.38,-118.92 484.83,-119.94 487.77,-126.3"/>
<text text-anchor="middle" x="470.24" y="-144.8" font-family="Times,serif" font-size="14.00">विशेषणम्</text>
</g>
<!-- 7 -->
<g id="node7" class="node">
<title>7</title>
<g id="a_node7"><a xlink:title="सर्व&#45;भूत&#45;हित{पुं}{7;एक}">
<ellipse fill="#708090" stroke="#708090" cx="522.74" cy="-18" rx="70.69" ry="18"/>
<text text-anchor="middle" x="522.74" y="-14.3" font-family="Times,serif" font-size="14.00">सर्व&#45;भूत&#45;हिते (7)</text>
</a>
</g>
</g>
<!-- 8&#45;&gt;7 -->
<g id="edge6" class="edge">
<title>8&#45;&gt;7</title>
<path fill="none" stroke="black" d="M522.74,-86.8C522.74,-75.16 522.74,-59.55 522.74,-46.24"/>
<polygon fill="black" stroke="black" points="526.24,-46.18 522.74,-36.18 519.24,-46.18 526.24,-46.18"/>
<text text-anchor="middle" x="553.24" y="-57.8" font-family="Times,serif" font-size="14.00">अधिकरणम्</text>
</g>
</g>
</svg>
