<?xml version="1.0" encoding="UTF-8" standalone="no"?>
<!DOCTYPE svg PUBLIC "-//W3C//DTD SVG 1.1//EN"
 "http://www.w3.org/Graphics/SVG/1.1/DTD/svg11.dtd">
<!-- Generated by graphviz version 2.43.0 (0)
 -->
<!-- Title: %3 Pages: 1 -->
<svg width="652pt" height="305pt"
 viewBox="0.00 0.00 652.34 305.00" xmlns="http://www.w3.org/2000/svg" xmlns:xlink="http://www.w3.org/1999/xlink">
<g id="graph0" class="graph" transform="scale(1 1) rotate(0) translate(4 301)">
<title>%3</title>
<polygon fill="#fffacd" stroke="transparent" points="-4,4 -4,-301 648.34,-301 648.34,4 -4,4"/>
<!-- 1 -->
<g id="node1" class="node">
<title>1</title>
<g id="a_node1"><a xlink:title="ज्ञान{नपुं}{3;एक}">
<ellipse fill="#40e0d0" stroke="#40e0d0" cx="54.6" cy="-192" rx="46.29" ry="18"/>
<text text-anchor="middle" x="54.6" y="-188.3" font-family="Times,serif" font-size="14.00">ज्ञानेन (1)</text>
</a>
</g>
</g>
<!-- 7 -->
<g id="node7" class="node">
<title>7</title>
<g id="a_node7"><a xlink:title="आत्मन्{पुं}{6;एक}">
<ellipse fill="#87ceeb" stroke="#87ceeb" cx="54.6" cy="-105" rx="54.69" ry="18"/>
<text text-anchor="middle" x="54.6" y="-101.3" font-family="Times,serif" font-size="14.00">आत्मनः (7)</text>
</a>
</g>
</g>
<!-- 1&#45;&gt;7 -->
<g id="edge6" class="edge">
<title>1&#45;&gt;7</title>
<path fill="none" stroke="black" d="M54.6,-173.8C54.6,-162.16 54.6,-146.55 54.6,-133.24"/>
<polygon fill="black" stroke="black" points="58.1,-133.18 54.6,-123.18 51.1,-133.18 58.1,-133.18"/>
<text text-anchor="middle" x="90.6" y="-144.8" font-family="Times,serif" font-size="14.00">षष्ठीसम्बन्धः</text>
</g>
<!-- 2 -->
<g id="node2" class="node">
<title>2</title>
<g id="a_node2"><a xlink:title="तु{अव्य}">
<ellipse fill="#ff00ff" stroke="#ff00ff" cx="274.6" cy="-18" rx="32.49" ry="18"/>
<text text-anchor="middle" x="274.6" y="-14.3" font-family="Times,serif" font-size="14.00">तु (2)</text>
</a>
</g>
</g>
<!-- 3 -->
<g id="node3" class="node">
<title>3</title>
<g id="a_node3"><a xlink:title="तद्{नपुं}{1;एक}">
<ellipse fill="#00bfff" stroke="#00bfff" cx="170.6" cy="-105" rx="38.19" ry="18"/>
<text text-anchor="middle" x="170.6" y="-101.3" font-family="Times,serif" font-size="14.00">तत् (3)</text>
</a>
</g>
</g>
<!-- 4 -->
<g id="node4" class="node">
<title>4</title>
<g id="a_node4"><a xlink:title="अज्ञान{नपुं}{1;एक}">
<ellipse fill="#00bfff" stroke="#00bfff" cx="175.6" cy="-192" rx="57.39" ry="18"/>
<text text-anchor="middle" x="175.6" y="-188.3" font-family="Times,serif" font-size="14.00">अ&#45;ज्ञानम् (4)</text>
</a>
</g>
</g>
<!-- 4&#45;&gt;3 -->
<g id="edge3" class="edge">
<title>4&#45;&gt;3</title>
<path fill="none" stroke="black" d="M174.58,-173.8C173.9,-162.16 172.98,-146.55 172.2,-133.24"/>
<polygon fill="black" stroke="black" points="175.69,-132.95 171.61,-123.18 168.7,-133.36 175.69,-132.95"/>
<text text-anchor="middle" x="199.1" y="-144.8" font-family="Times,serif" font-size="14.00">विशेषणम्</text>
</g>
<!-- 5 -->
<g id="node5" class="node">
<title>5</title>
<g id="a_node5"><a xlink:title="यद्{पुं}{6;बहु}">
<ellipse fill="#87ceeb" stroke="#87ceeb" cx="274.6" cy="-105" rx="47.39" ry="18"/>
<text text-anchor="middle" x="274.6" y="-101.3" font-family="Times,serif" font-size="14.00">येषाम् (5)</text>
</a>
</g>
</g>
<!-- 4&#45;&gt;5 -->
<g id="edge5" class="edge">
<title>4&#45;&gt;5</title>
<path fill="none" stroke="black" d="M201.3,-175.81C210.28,-170.05 220.2,-163.15 228.6,-156 237.67,-148.27 246.75,-138.85 254.42,-130.28"/>
<polygon fill="black" stroke="black" points="257.08,-132.56 261.02,-122.72 251.8,-127.95 257.08,-132.56"/>
<text text-anchor="middle" x="279.6" y="-144.8" font-family="Times,serif" font-size="14.00">षष्ठीसम्बन्धः</text>
</g>
<!-- 5&#45;&gt;2 -->
<g id="edge2" class="edge">
<title>5&#45;&gt;2</title>
<path fill="none" stroke="black" d="M274.6,-86.8C274.6,-75.16 274.6,-59.55 274.6,-46.24"/>
<polygon fill="black" stroke="black" points="278.1,-46.18 274.6,-36.18 271.1,-46.18 278.1,-46.18"/>
<text text-anchor="middle" x="297.6" y="-57.8" font-family="Times,serif" font-size="14.00">सम्बन्धः</text>
</g>
<!-- 6 -->
<g id="node6" class="node">
<title>6</title>
<g id="a_node6"><a xlink:title="नश्1_णिच्{कृत्_प्रत्ययः:क्त;णशँ_णिच्;दिवादिः;नपुं}{2;एक}">
<ellipse fill="#7cfc00" stroke="#7cfc00" cx="107.6" cy="-279" rx="57.39" ry="18"/>
<text text-anchor="middle" x="107.6" y="-275.3" font-family="Times,serif" font-size="14.00">नाशितम् (6)</text>
</a>
</g>
</g>
<!-- 6&#45;&gt;1 -->
<g id="edge1" class="edge">
<title>6&#45;&gt;1</title>
<path fill="none" stroke="black" d="M97.12,-261.21C89.5,-248.98 79.05,-232.21 70.41,-218.36"/>
<polygon fill="black" stroke="black" points="73.31,-216.39 65.04,-209.76 67.37,-220.1 73.31,-216.39"/>
<text text-anchor="middle" x="102.6" y="-231.8" font-family="Times,serif" font-size="14.00">करणम्</text>
</g>
<!-- 6&#45;&gt;4 -->
<g id="edge4" class="edge">
<title>6&#45;&gt;4</title>
<path fill="none" stroke="black" d="M121.03,-261.21C131,-248.75 144.74,-231.57 155.94,-217.57"/>
<polygon fill="black" stroke="black" points="158.67,-219.75 162.19,-209.76 153.21,-215.38 158.67,-219.75"/>
<text text-anchor="middle" x="181.1" y="-231.8" font-family="Times,serif" font-size="14.00">प्रयोज्यकर्ता</text>
</g>
<!-- 8 -->
<g id="node8" class="node">
<title>8</title>
<g id="a_node8"><a xlink:title="तद्{पुं}{6;बहु}">
<ellipse fill="#87ceeb" stroke="#87ceeb" cx="450.6" cy="-105" rx="46.59" ry="18"/>
<text text-anchor="middle" x="450.6" y="-101.3" font-family="Times,serif" font-size="14.00">तेषाम् (8)</text>
</a>
</g>
</g>
<!-- 9 -->
<g id="node9" class="node">
<title>9</title>
<g id="a_node9"><a xlink:title="आदित्यवत्{अव्य}">
<ellipse fill="#ff00ff" stroke="#ff00ff" cx="315.6" cy="-192" rx="64.99" ry="18"/>
<text text-anchor="middle" x="315.6" y="-188.3" font-family="Times,serif" font-size="14.00">आदित्यवत् (9)</text>
</a>
</g>
</g>
<!-- 10 -->
<g id="node10" class="node">
<title>10</title>
<g id="a_node10"><a xlink:title="ज्ञान{नपुं}{1;एक}">
<ellipse fill="#00bfff" stroke="#00bfff" cx="450.6" cy="-192" rx="51.99" ry="18"/>
<text text-anchor="middle" x="450.6" y="-188.3" font-family="Times,serif" font-size="14.00">ज्ञानम् (10)</text>
</a>
</g>
</g>
<!-- 10&#45;&gt;8 -->
<g id="edge7" class="edge">
<title>10&#45;&gt;8</title>
<path fill="none" stroke="black" d="M450.6,-173.8C450.6,-162.16 450.6,-146.55 450.6,-133.24"/>
<polygon fill="black" stroke="black" points="454.1,-133.18 450.6,-123.18 447.1,-133.18 454.1,-133.18"/>
<text text-anchor="middle" x="486.6" y="-144.8" font-family="Times,serif" font-size="14.00">षष्ठीसम्बन्धः</text>
</g>
<!-- 11 -->
<g id="node11" class="node">
<title>11</title>
<g id="a_node11"><a xlink:title="प्र_काश्1_णिच्{कर्तरि;लट्;प्र;एक;परस्मैपदी;प्र_काशृँ_णिच्;भ्वादिः}">
<ellipse fill="#ff6347" stroke="#ff6347" cx="450.6" cy="-279" rx="71.49" ry="18"/>
<text text-anchor="middle" x="450.6" y="-275.3" font-family="Times,serif" font-size="14.00">प्रकाशयति (11)</text>
</a>
</g>
</g>
<!-- 11&#45;&gt;9 -->
<g id="edge8" class="edge">
<title>11&#45;&gt;9</title>
<path fill="none" stroke="black" d="M405.62,-264.8C390.87,-259.34 374.88,-252.11 361.6,-243 351.61,-236.16 342.24,-226.77 334.6,-217.98"/>
<polygon fill="black" stroke="black" points="337.18,-215.61 328.1,-210.16 331.8,-220.08 337.18,-215.61"/>
<text text-anchor="middle" x="404.1" y="-231.8" font-family="Times,serif" font-size="14.00">क्रियाविशेषणम्</text>
</g>
<!-- 11&#45;&gt;10 -->
<g id="edge9" class="edge">
<title>11&#45;&gt;10</title>
<path fill="none" stroke="black" d="M450.6,-260.8C450.6,-249.16 450.6,-233.55 450.6,-220.24"/>
<polygon fill="black" stroke="black" points="454.1,-220.18 450.6,-210.18 447.1,-220.18 454.1,-220.18"/>
<text text-anchor="middle" x="463.1" y="-231.8" font-family="Times,serif" font-size="14.00">कर्ता</text>
</g>
<!-- 12 -->
<g id="node12" class="node">
<title>12</title>
<g id="a_node12"><a xlink:title="तत्पर{पुं}{2;एक}">
<ellipse fill="#7cfc00" stroke="#7cfc00" cx="582.6" cy="-192" rx="61.99" ry="18"/>
<text text-anchor="middle" x="582.6" y="-188.3" font-family="Times,serif" font-size="14.00">तत्&#45;परम् (12)</text>
</a>
</g>
</g>
<!-- 11&#45;&gt;12 -->
<g id="edge10" class="edge">
<title>11&#45;&gt;12</title>
<path fill="none" stroke="black" d="M475.42,-262.01C496.48,-248.45 526.85,-228.9 549.89,-214.06"/>
<polygon fill="black" stroke="black" points="551.81,-216.99 558.32,-208.63 548.02,-211.1 551.81,-216.99"/>
<text text-anchor="middle" x="533.6" y="-231.8" font-family="Times,serif" font-size="14.00">कर्म</text>
</g>
</g>
</svg>
