<?xml version="1.0" encoding="UTF-8" standalone="no"?>
<!DOCTYPE svg PUBLIC "-//W3C//DTD SVG 1.1//EN"
 "http://www.w3.org/Graphics/SVG/1.1/DTD/svg11.dtd">
<!-- Generated by graphviz version 2.43.0 (0)
 -->
<!-- Title: %3 Pages: 1 -->
<svg width="554pt" height="392pt"
 viewBox="0.00 0.00 553.54 392.00" xmlns="http://www.w3.org/2000/svg" xmlns:xlink="http://www.w3.org/1999/xlink">
<g id="graph0" class="graph" transform="scale(1 1) rotate(0) translate(4 388)">
<title>%3</title>
<polygon fill="#fffacd" stroke="transparent" points="-4,4 -4,-388 549.54,-388 549.54,4 -4,4"/>
<!-- 1 -->
<g id="node1" class="node">
<title>1</title>
<g id="a_node1"><a xlink:title="भोक्तृ{पुं}{2;एक}">
<ellipse fill="#7cfc00" stroke="#7cfc00" cx="162.59" cy="-105" rx="57.69" ry="18"/>
<text text-anchor="middle" x="162.59" y="-101.3" font-family="Times,serif" font-size="14.00">भोक्तारम् (1)</text>
</a>
</g>
</g>
<!-- 2 -->
<g id="node2" class="node">
<title>2</title>
<g id="a_node2"><a xlink:title="यज्ञ&#45;तपस्{नपुं}{6;बहु}">
<ellipse fill="#87ceeb" stroke="#87ceeb" cx="67.59" cy="-18" rx="67.69" ry="18"/>
<text text-anchor="middle" x="67.59" y="-14.3" font-family="Times,serif" font-size="14.00">यज्ञ&#45;तपसाम् (2)</text>
</a>
</g>
</g>
<!-- 1&#45;&gt;2 -->
<g id="edge2" class="edge">
<title>1&#45;&gt;2</title>
<path fill="none" stroke="black" d="M144.28,-87.61C129.82,-74.68 109.48,-56.47 93.37,-42.07"/>
<polygon fill="black" stroke="black" points="95.64,-39.4 85.85,-35.34 90.97,-44.61 95.64,-39.4"/>
<text text-anchor="middle" x="157.59" y="-57.8" font-family="Times,serif" font-size="14.00">षष्ठीसम्बन्धः</text>
</g>
<!-- 3 -->
<g id="node3" class="node">
<title>3</title>
<g id="a_node3"><a xlink:title="सर्व&#45;लोक&#45;महत्&#45;ईश्वर{पुं}{2;एक}">
<ellipse fill="#7cfc00" stroke="#7cfc00" cx="258.59" cy="-18" rx="105.08" ry="18"/>
<text text-anchor="middle" x="258.59" y="-14.3" font-family="Times,serif" font-size="14.00">सर्व&#45;लोक&#45;महत्&#45;ईश्वरम् (3)</text>
</a>
</g>
</g>
<!-- 1&#45;&gt;3 -->
<g id="edge3" class="edge">
<title>1&#45;&gt;3</title>
<path fill="none" stroke="black" d="M181.1,-87.61C195.53,-74.84 215.75,-56.94 231.91,-42.62"/>
<polygon fill="black" stroke="black" points="234.32,-45.17 239.48,-35.92 229.68,-39.93 234.32,-45.17"/>
<text text-anchor="middle" x="242.09" y="-57.8" font-family="Times,serif" font-size="14.00">विशेषणम्</text>
</g>
<!-- 4 -->
<g id="node4" class="node">
<title>4</title>
<g id="a_node4"><a xlink:title="सुहृद्{पुं}{2;एक}">
<ellipse fill="#7cfc00" stroke="#7cfc00" cx="309.59" cy="-192" rx="50.89" ry="18"/>
<text text-anchor="middle" x="309.59" y="-188.3" font-family="Times,serif" font-size="14.00">सुहृदम् (4)</text>
</a>
</g>
</g>
<!-- 4&#45;&gt;1 -->
<g id="edge1" class="edge">
<title>4&#45;&gt;1</title>
<path fill="none" stroke="black" d="M272.34,-179.51C255.88,-173.65 236.66,-165.7 220.59,-156 208.38,-148.63 196.21,-138.65 186.2,-129.55"/>
<polygon fill="black" stroke="black" points="188.37,-126.78 178.68,-122.5 183.58,-131.89 188.37,-126.78"/>
<text text-anchor="middle" x="263.09" y="-144.8" font-family="Times,serif" font-size="14.00">सुप्_समुच्चितम्</text>
</g>
<!-- 5 -->
<g id="node5" class="node">
<title>5</title>
<g id="a_node5"><a xlink:title="सर्व&#45;भूत{पुं}{6;बहु}">
<ellipse fill="#87ceeb" stroke="#87ceeb" cx="309.59" cy="-105" rx="70.69" ry="18"/>
<text text-anchor="middle" x="309.59" y="-101.3" font-family="Times,serif" font-size="14.00">सर्व&#45;भूतानाम् (5)</text>
</a>
</g>
</g>
<!-- 4&#45;&gt;5 -->
<g id="edge5" class="edge">
<title>4&#45;&gt;5</title>
<path fill="none" stroke="black" d="M309.59,-173.8C309.59,-162.16 309.59,-146.55 309.59,-133.24"/>
<polygon fill="black" stroke="black" points="313.09,-133.18 309.59,-123.18 306.09,-133.18 313.09,-133.18"/>
<text text-anchor="middle" x="345.59" y="-144.8" font-family="Times,serif" font-size="14.00">षष्ठीसम्बन्धः</text>
</g>
<!-- 6.1 -->
<g id="node6" class="node">
<title>6.1</title>
<g id="a_node6"><a xlink:title="(च{अव्य})">
<ellipse fill="#ff00ff" stroke="#ff00ff" cx="447.59" cy="-105" rx="48.99" ry="18"/>
<text text-anchor="middle" x="447.59" y="-101.3" font-family="Times,serif" font-size="14.00">(च) (6.1)</text>
</a>
</g>
</g>
<!-- 4&#45;&gt;6.1 -->
<g id="edge6" class="edge">
<title>4&#45;&gt;6.1</title>
<path fill="none" stroke="black" d="M342.31,-178.05C356.07,-172.07 372.01,-164.42 385.59,-156 398.42,-148.04 411.59,-137.78 422.46,-128.62"/>
<polygon fill="black" stroke="black" points="424.99,-131.07 430.29,-121.9 420.43,-125.76 424.99,-131.07"/>
<text text-anchor="middle" x="448.09" y="-144.8" font-family="Times,serif" font-size="14.00">समुच्चयद्योतकः</text>
</g>
<!-- 6 -->
<g id="node7" class="node">
<title>6</title>
<g id="a_node7"><a xlink:title="ज्ञा2{कृत्_प्रत्ययः:क्त्वा;ज्ञा;क्र्यादिः}">
<ellipse fill="#808080" stroke="#808080" cx="372.59" cy="-279" rx="47.39" ry="18"/>
<text text-anchor="middle" x="372.59" y="-275.3" font-family="Times,serif" font-size="14.00">ज्ञात्वा (6)</text>
</a>
</g>
</g>
<!-- 6&#45;&gt;4 -->
<g id="edge4" class="edge">
<title>6&#45;&gt;4</title>
<path fill="none" stroke="black" d="M338.32,-266.51C327.56,-261.12 316.87,-253.51 310.59,-243 306.61,-236.34 305.29,-228.23 305.26,-220.51"/>
<polygon fill="black" stroke="black" points="308.76,-220.57 305.88,-210.37 301.77,-220.14 308.76,-220.57"/>
<text text-anchor="middle" x="362.59" y="-231.8" font-family="Times,serif" font-size="14.00">कर्मसमानाधिकरणम्</text>
</g>
<!-- 7 -->
<g id="node8" class="node">
<title>7</title>
<g id="a_node8"><a xlink:title="अस्मद्{2;एक}">
<ellipse fill="#7cfc00" stroke="#7cfc00" cx="436.59" cy="-192" rx="41.69" ry="18"/>
<text text-anchor="middle" x="436.59" y="-188.3" font-family="Times,serif" font-size="14.00">माम् (7)</text>
</a>
</g>
</g>
<!-- 6&#45;&gt;7 -->
<g id="edge8" class="edge">
<title>6&#45;&gt;7</title>
<path fill="none" stroke="black" d="M394.45,-262.95C401.53,-257.3 409,-250.43 414.59,-243 419.87,-236 424.2,-227.53 427.58,-219.58"/>
<polygon fill="black" stroke="black" points="430.85,-220.84 431.24,-210.26 424.33,-218.29 430.85,-220.84"/>
<text text-anchor="middle" x="432.59" y="-231.8" font-family="Times,serif" font-size="14.00">कर्म</text>
</g>
<!-- 8 -->
<g id="node9" class="node">
<title>8</title>
<g id="a_node9"><a xlink:title="शान्ति{स्त्री}{2;एक}">
<ellipse fill="#7cfc00" stroke="#7cfc00" cx="491.59" cy="-279" rx="53.89" ry="18"/>
<text text-anchor="middle" x="491.59" y="-275.3" font-family="Times,serif" font-size="14.00">शान्तिम् (8)</text>
</a>
</g>
</g>
<!-- 9 -->
<g id="node10" class="node">
<title>9</title>
<g id="a_node10"><a xlink:title="ऋ1{कृत्_प्रत्ययः:शतृ;ऋ;भ्वादिः;पुं}{7;एक}">
<ellipse fill="#708090" stroke="#708090" cx="432.59" cy="-366" rx="56.59" ry="18"/>
<text text-anchor="middle" x="432.59" y="-362.3" font-family="Times,serif" font-size="14.00">ऋच्छति (9)</text>
</a>
</g>
</g>
<!-- 9&#45;&gt;6 -->
<g id="edge7" class="edge">
<title>9&#45;&gt;6</title>
<path fill="none" stroke="black" d="M418.55,-348.19C413.97,-342.51 408.95,-336.07 404.59,-330 399.01,-322.21 393.26,-313.48 388.2,-305.52"/>
<polygon fill="black" stroke="black" points="391.11,-303.57 382.83,-296.96 385.18,-307.29 391.11,-303.57"/>
<text text-anchor="middle" x="429.09" y="-318.8" font-family="Times,serif" font-size="14.00">पूर्वकालः</text>
</g>
<!-- 9&#45;&gt;8 -->
<g id="edge9" class="edge">
<title>9&#45;&gt;8</title>
<path fill="none" stroke="black" d="M444.25,-348.21C452.74,-335.98 464.37,-319.21 473.99,-305.36"/>
<polygon fill="black" stroke="black" points="477.13,-306.97 479.96,-296.76 471.38,-302.98 477.13,-306.97"/>
<text text-anchor="middle" x="475.59" y="-318.8" font-family="Times,serif" font-size="14.00">कर्म</text>
</g>
</g>
</svg>
