<?xml version="1.0" encoding="UTF-8" standalone="no"?>
<!DOCTYPE svg PUBLIC "-//W3C//DTD SVG 1.1//EN"
 "http://www.w3.org/Graphics/SVG/1.1/DTD/svg11.dtd">
<!-- Generated by graphviz version 2.43.0 (0)
 -->
<!-- Title: %3 Pages: 1 -->
<svg width="977pt" height="392pt"
 viewBox="0.00 0.00 976.89 392.00" xmlns="http://www.w3.org/2000/svg" xmlns:xlink="http://www.w3.org/1999/xlink">
<g id="graph0" class="graph" transform="scale(1 1) rotate(0) translate(4 388)">
<title>%3</title>
<polygon fill="#fffacd" stroke="transparent" points="-4,4 -4,-388 972.89,-388 972.89,4 -4,4"/>
<!-- 1 -->
<g id="node1" class="node">
<title>1</title>
<g id="a_node1"><a xlink:title="चञ्चल{नपुं}{1;एक}">
<ellipse fill="#00bfff" stroke="#00bfff" cx="56.54" cy="-279" rx="56.59" ry="18"/>
<text text-anchor="middle" x="56.54" y="-275.3" font-family="Times,serif" font-size="14.00">चञ्चलम् (1)</text>
</a>
</g>
</g>
<!-- 2 -->
<g id="node2" class="node">
<title>2</title>
<g id="a_node2"><a xlink:title="हि{अव्य}">
<ellipse fill="#ff00ff" stroke="#ff00ff" cx="531.54" cy="-192" rx="34.39" ry="18"/>
<text text-anchor="middle" x="531.54" y="-188.3" font-family="Times,serif" font-size="14.00">हि (2)</text>
</a>
</g>
</g>
<!-- 3 -->
<g id="node3" class="node">
<title>3</title>
<g id="a_node3"><a xlink:title="मनस्{नपुं}{1;एक}">
<ellipse fill="#00bfff" stroke="#00bfff" cx="531.54" cy="-279" rx="41.69" ry="18"/>
<text text-anchor="middle" x="531.54" y="-275.3" font-family="Times,serif" font-size="14.00">मनः (3)</text>
</a>
</g>
</g>
<!-- 3&#45;&gt;2 -->
<g id="edge2" class="edge">
<title>3&#45;&gt;2</title>
<path fill="none" stroke="black" d="M531.54,-260.8C531.54,-249.16 531.54,-233.55 531.54,-220.24"/>
<polygon fill="black" stroke="black" points="535.05,-220.18 531.54,-210.18 528.05,-220.18 535.05,-220.18"/>
<text text-anchor="middle" x="554.54" y="-231.8" font-family="Times,serif" font-size="14.00">सम्बन्धः</text>
</g>
<!-- 4 -->
<g id="node4" class="node">
<title>4</title>
<g id="a_node4"><a xlink:title="कृष्ण{पुं}{8;एक}">
<ellipse fill="#7fffd4" stroke="#7fffd4" cx="423.54" cy="-192" rx="42.79" ry="18"/>
<text text-anchor="middle" x="423.54" y="-188.3" font-family="Times,serif" font-size="14.00">कृष्ण (4)</text>
</a>
</g>
</g>
<!-- 5 -->
<g id="node5" class="node">
<title>5</title>
<g id="a_node5"><a xlink:title="प्रमाथिन्{नपुं}{1;एक}">
<ellipse fill="#00bfff" stroke="#00bfff" cx="184.54" cy="-279" rx="53.89" ry="18"/>
<text text-anchor="middle" x="184.54" y="-275.3" font-family="Times,serif" font-size="14.00">प्रमाथि (5)</text>
</a>
</g>
</g>
<!-- 6 -->
<g id="node6" class="node">
<title>6</title>
<g id="a_node6"><a xlink:title="बलवत्{नपुं}{1;एक}">
<ellipse fill="#00bfff" stroke="#00bfff" cx="306.54" cy="-279" rx="50.09" ry="18"/>
<text text-anchor="middle" x="306.54" y="-275.3" font-family="Times,serif" font-size="14.00">बलवत् (6)</text>
</a>
</g>
</g>
<!-- 7 -->
<g id="node7" class="node">
<title>7</title>
<g id="a_node7"><a xlink:title="दृढ{नपुं}{1;एक}">
<ellipse fill="#00bfff" stroke="#00bfff" cx="245.54" cy="-366" rx="43.59" ry="18"/>
<text text-anchor="middle" x="245.54" y="-362.3" font-family="Times,serif" font-size="14.00">दृढम् (7)</text>
</a>
</g>
</g>
<!-- 7&#45;&gt;1 -->
<g id="edge1" class="edge">
<title>7&#45;&gt;1</title>
<path fill="none" stroke="black" d="M203.4,-361C173.82,-356.72 134.23,-347.94 103.54,-330 92.57,-323.58 82.57,-313.83 74.65,-304.63"/>
<polygon fill="black" stroke="black" points="77.29,-302.32 68.25,-296.79 71.86,-306.75 77.29,-302.32"/>
<text text-anchor="middle" x="146.04" y="-318.8" font-family="Times,serif" font-size="14.00">सुप्_समुच्चितम्</text>
</g>
<!-- 7&#45;&gt;5 -->
<g id="edge5" class="edge">
<title>7&#45;&gt;5</title>
<path fill="none" stroke="black" d="M221.01,-350.7C213.2,-345.11 205.15,-338.08 199.54,-330 194.88,-323.27 191.64,-315.05 189.4,-307.25"/>
<polygon fill="black" stroke="black" points="192.76,-306.26 186.99,-297.38 185.96,-307.92 192.76,-306.26"/>
<text text-anchor="middle" x="242.04" y="-318.8" font-family="Times,serif" font-size="14.00">सुप्_समुच्चितम्</text>
</g>
<!-- 7&#45;&gt;6 -->
<g id="edge6" class="edge">
<title>7&#45;&gt;6</title>
<path fill="none" stroke="black" d="M265.8,-349.71C272.37,-344.04 279.31,-337.22 284.54,-330 289.69,-322.9 293.98,-314.41 297.38,-306.46"/>
<polygon fill="black" stroke="black" points="300.63,-307.74 301.06,-297.16 294.12,-305.17 300.63,-307.74"/>
<text text-anchor="middle" x="336.04" y="-318.8" font-family="Times,serif" font-size="14.00">सुप्_समुच्चितम्</text>
</g>
<!-- 7&#45;&gt;7 -->
<g id="edge7" class="edge">
<title>7&#45;&gt;7</title>
<path fill="none" stroke="black" d="M284.91,-373.87C297.31,-373.75 307.09,-371.13 307.09,-366 307.09,-362.4 302.25,-360.03 295.07,-358.9"/>
<polygon fill="black" stroke="black" points="295.14,-355.39 284.91,-358.13 294.62,-362.37 295.14,-355.39"/>
<text text-anchor="middle" x="349.59" y="-362.3" font-family="Times,serif" font-size="14.00">सुप्_समुच्चितम्</text>
</g>
<!-- 7.1 -->
<g id="node8" class="node">
<title>7.1</title>
<g id="a_node8"><a xlink:title="च{अव्य}">
<ellipse fill="#ff00ff" stroke="#ff00ff" cx="423.54" cy="-279" rx="48.99" ry="18"/>
<text text-anchor="middle" x="423.54" y="-275.3" font-family="Times,serif" font-size="14.00">(च) (7.1)</text>
</a>
</g>
</g>
<!-- 7&#45;&gt;7.1 -->
<g id="edge8" class="edge">
<title>7&#45;&gt;7.1</title>
<path fill="none" stroke="black" d="M287.51,-361.19C316.12,-357.01 353.87,-348.26 382.54,-330 392.45,-323.69 401.1,-314.2 407.87,-305.17"/>
<polygon fill="black" stroke="black" points="410.89,-306.97 413.77,-296.77 405.16,-302.94 410.89,-306.97"/>
<text text-anchor="middle" x="443.04" y="-318.8" font-family="Times,serif" font-size="14.00">समुच्चयद्योतकः</text>
</g>
<!-- 7.1&#45;&gt;4 -->
<g id="edge4" class="edge">
<title>7.1&#45;&gt;4</title>
<path fill="none" stroke="black" d="M423.54,-260.8C423.54,-249.16 423.54,-233.55 423.54,-220.24"/>
<polygon fill="black" stroke="black" points="427.05,-220.18 423.54,-210.18 420.05,-220.18 427.05,-220.18"/>
<text text-anchor="middle" x="449.04" y="-231.8" font-family="Times,serif" font-size="14.00">सम्बोध्यः</text>
</g>
<!-- 7.2 -->
<g id="node9" class="node">
<title>7.2</title>
<g id="a_node9"><a xlink:title="भू1{कर्तरि;लट्;प्र;एक;परस्मैपदी;भू;भ्वादिः}">
<ellipse fill="#ff6347" stroke="#ff6347" cx="531.54" cy="-366" rx="61.99" ry="18"/>
<text text-anchor="middle" x="531.54" y="-362.3" font-family="Times,serif" font-size="14.00">(भवति) (7.2)</text>
</a>
</g>
</g>
<!-- 7.2&#45;&gt;3 -->
<g id="edge3" class="edge">
<title>7.2&#45;&gt;3</title>
<path fill="none" stroke="black" d="M531.54,-347.8C531.54,-336.16 531.54,-320.55 531.54,-307.24"/>
<polygon fill="black" stroke="black" points="535.05,-307.18 531.54,-297.18 528.05,-307.18 535.05,-307.18"/>
<text text-anchor="middle" x="544.04" y="-318.8" font-family="Times,serif" font-size="14.00">कर्ता</text>
</g>
<!-- 8 -->
<g id="node10" class="node">
<title>8</title>
<g id="a_node10"><a xlink:title="तद्{पुं}{6;एक}">
<ellipse fill="#87ceeb" stroke="#87ceeb" cx="760.54" cy="-192" rx="42.79" ry="18"/>
<text text-anchor="middle" x="760.54" y="-188.3" font-family="Times,serif" font-size="14.00">तस्य (8)</text>
</a>
</g>
</g>
<!-- 13 -->
<g id="node15" class="node">
<title>13</title>
<g id="a_node15"><a xlink:title="इव{अव्य}">
<ellipse fill="#ff00ff" stroke="#ff00ff" cx="760.54" cy="-105" rx="42.79" ry="18"/>
<text text-anchor="middle" x="760.54" y="-101.3" font-family="Times,serif" font-size="14.00">इव (13)</text>
</a>
</g>
</g>
<!-- 8&#45;&gt;13 -->
<g id="edge13" class="edge">
<title>8&#45;&gt;13</title>
<path fill="none" stroke="black" d="M760.54,-173.8C760.54,-162.16 760.54,-146.55 760.54,-133.24"/>
<polygon fill="black" stroke="black" points="764.05,-133.18 760.54,-123.18 757.05,-133.18 764.05,-133.18"/>
<text text-anchor="middle" x="799.04" y="-144.8" font-family="Times,serif" font-size="14.00">उपमानद्योतकः</text>
</g>
<!-- 9 -->
<g id="node11" class="node">
<title>9</title>
<g id="a_node11"><a xlink:title="अस्मद्{1;एक}">
<ellipse fill="#00bfff" stroke="#00bfff" cx="635.54" cy="-279" rx="44.69" ry="18"/>
<text text-anchor="middle" x="635.54" y="-275.3" font-family="Times,serif" font-size="14.00">अहम् (9)</text>
</a>
</g>
</g>
<!-- 10 -->
<g id="node12" class="node">
<title>10</title>
<g id="a_node12"><a xlink:title="निग्रह{पुं}{2;एक}">
<ellipse fill="#7cfc00" stroke="#7cfc00" cx="760.54" cy="-279" rx="61.99" ry="18"/>
<text text-anchor="middle" x="760.54" y="-275.3" font-family="Times,serif" font-size="14.00">निग्रहम् (10)</text>
</a>
</g>
</g>
<!-- 10&#45;&gt;8 -->
<g id="edge9" class="edge">
<title>10&#45;&gt;8</title>
<path fill="none" stroke="black" d="M760.54,-260.8C760.54,-249.16 760.54,-233.55 760.54,-220.24"/>
<polygon fill="black" stroke="black" points="764.05,-220.18 760.54,-210.18 757.05,-220.18 764.05,-220.18"/>
<text text-anchor="middle" x="796.54" y="-231.8" font-family="Times,serif" font-size="14.00">षष्ठीसम्बन्धः</text>
</g>
<!-- 11 -->
<g id="node13" class="node">
<title>11</title>
<g id="a_node13"><a xlink:title="मन्1{कर्तरि;लट्;उ;एक;आत्मनेपदी;मनँ;दिवादिः}">
<ellipse fill="#ff6347" stroke="#ff6347" cx="760.54" cy="-366" rx="48.19" ry="18"/>
<text text-anchor="middle" x="760.54" y="-362.3" font-family="Times,serif" font-size="14.00">मन्ये (11)</text>
</a>
</g>
</g>
<!-- 11&#45;&gt;9 -->
<g id="edge10" class="edge">
<title>11&#45;&gt;9</title>
<path fill="none" stroke="black" d="M738.49,-350C718.31,-336.28 688.29,-315.87 665.87,-300.62"/>
<polygon fill="black" stroke="black" points="667.62,-297.58 657.38,-294.85 663.69,-303.37 667.62,-297.58"/>
<text text-anchor="middle" x="718.04" y="-318.8" font-family="Times,serif" font-size="14.00">कर्ता</text>
</g>
<!-- 11&#45;&gt;10 -->
<g id="edge11" class="edge">
<title>11&#45;&gt;10</title>
<path fill="none" stroke="black" d="M760.54,-347.8C760.54,-336.16 760.54,-320.55 760.54,-307.24"/>
<polygon fill="black" stroke="black" points="764.05,-307.18 760.54,-297.18 757.05,-307.18 764.05,-307.18"/>
<text text-anchor="middle" x="770.54" y="-318.8" font-family="Times,serif" font-size="14.00">कर्म</text>
</g>
<!-- 14 -->
<g id="node16" class="node">
<title>14</title>
<g id="a_node16"><a xlink:title="सुदुष्कर{पुं}{2;एक}">
<ellipse fill="#7cfc00" stroke="#7cfc00" cx="904.54" cy="-279" rx="64.19" ry="18"/>
<text text-anchor="middle" x="904.54" y="-275.3" font-family="Times,serif" font-size="14.00">सुदुष्करम् (14)</text>
</a>
</g>
</g>
<!-- 11&#45;&gt;14 -->
<g id="edge14" class="edge">
<title>11&#45;&gt;14</title>
<path fill="none" stroke="black" d="M785.3,-350.39C808.46,-336.72 843.3,-316.15 869.35,-300.77"/>
<polygon fill="black" stroke="black" points="871.33,-303.67 878.17,-295.57 867.78,-297.64 871.33,-303.67"/>
<text text-anchor="middle" x="892.54" y="-318.8" font-family="Times,serif" font-size="14.00">कर्मसमानाधिकरणम्</text>
</g>
<!-- 12 -->
<g id="node14" class="node">
<title>12</title>
<g id="a_node14"><a xlink:title="वायु{पुं}{6;एक}">
<ellipse fill="#87ceeb" stroke="#87ceeb" cx="760.54" cy="-18" rx="51.99" ry="18"/>
<text text-anchor="middle" x="760.54" y="-14.3" font-family="Times,serif" font-size="14.00">वायोः (12)</text>
</a>
</g>
</g>
<!-- 13&#45;&gt;12 -->
<g id="edge12" class="edge">
<title>13&#45;&gt;12</title>
<path fill="none" stroke="black" d="M760.54,-86.8C760.54,-75.16 760.54,-59.55 760.54,-46.24"/>
<polygon fill="black" stroke="black" points="764.05,-46.18 760.54,-36.18 757.05,-46.18 764.05,-46.18"/>
<text text-anchor="middle" x="783.54" y="-57.8" font-family="Times,serif" font-size="14.00">उपमानम्</text>
</g>
</g>
</svg>
