<?xml version="1.0" encoding="UTF-8" standalone="no"?>
<!DOCTYPE svg PUBLIC "-//W3C//DTD SVG 1.1//EN"
 "http://www.w3.org/Graphics/SVG/1.1/DTD/svg11.dtd">
<!-- Generated by graphviz version 2.43.0 (0)
 -->
<!-- Title: %3 Pages: 1 -->
<svg width="1050pt" height="218pt"
 viewBox="0.00 0.00 1049.74 218.00" xmlns="http://www.w3.org/2000/svg" xmlns:xlink="http://www.w3.org/1999/xlink">
<g id="graph0" class="graph" transform="scale(1 1) rotate(0) translate(4 214)">
<title>%3</title>
<polygon fill="#fffacd" stroke="transparent" points="-4,4 -4,-214 1045.74,-214 1045.74,4 -4,4"/>
<!-- 1 -->
<g id="node1" class="node">
<title>1</title>
<g id="a_node1"><a xlink:title="पार्थ{पुं}{8;एक}">
<ellipse fill="#7fffd4" stroke="#7fffd4" cx="40.95" cy="-105" rx="40.89" ry="18"/>
<text text-anchor="middle" x="40.95" y="-101.3" font-family="Times,serif" font-size="14.00">पार्थ (1)</text>
</a>
</g>
</g>
<!-- 2 -->
<g id="node2" class="node">
<title>2</title>
<g id="a_node2"><a xlink:title="न{अव्य}">
<ellipse fill="#ff00ff" stroke="#ff00ff" cx="435.95" cy="-18" rx="32.49" ry="18"/>
<text text-anchor="middle" x="435.95" y="-14.3" font-family="Times,serif" font-size="14.00">न (2)</text>
</a>
</g>
</g>
<!-- 3 -->
<g id="node3" class="node">
<title>3</title>
<g id="a_node3"><a xlink:title="एव{अव्य}">
<ellipse fill="#ff00ff" stroke="#ff00ff" cx="137.95" cy="-105" rx="37.89" ry="18"/>
<text text-anchor="middle" x="137.95" y="-101.3" font-family="Times,serif" font-size="14.00">एव (3)</text>
</a>
</g>
</g>
<!-- 4 -->
<g id="node4" class="node">
<title>4</title>
<g id="a_node4"><a xlink:title="इह{अव्य}">
<ellipse fill="#ff00ff" stroke="#ff00ff" cx="229.95" cy="-105" rx="36.29" ry="18"/>
<text text-anchor="middle" x="229.95" y="-101.3" font-family="Times,serif" font-size="14.00">इह (4)</text>
</a>
</g>
</g>
<!-- 5 -->
<g id="node5" class="node">
<title>5</title>
<g id="a_node5"><a xlink:title="न{अव्य}">
<ellipse fill="#ff00ff" stroke="#ff00ff" cx="333.95" cy="-18" rx="32.49" ry="18"/>
<text text-anchor="middle" x="333.95" y="-14.3" font-family="Times,serif" font-size="14.00">न (5)</text>
</a>
</g>
</g>
<!-- 6 -->
<g id="node6" class="node">
<title>6</title>
<g id="a_node6"><a xlink:title="अमुत्र{अव्य}">
<ellipse fill="#ff00ff" stroke="#ff00ff" cx="333.95" cy="-105" rx="50.09" ry="18"/>
<text text-anchor="middle" x="333.95" y="-101.3" font-family="Times,serif" font-size="14.00">अमुत्र (6)</text>
</a>
</g>
</g>
<!-- 6&#45;&gt;5 -->
<g id="edge5" class="edge">
<title>6&#45;&gt;5</title>
<path fill="none" stroke="black" d="M333.95,-86.8C333.95,-75.16 333.95,-59.55 333.95,-46.24"/>
<polygon fill="black" stroke="black" points="337.45,-46.18 333.95,-36.18 330.45,-46.18 337.45,-46.18"/>
<text text-anchor="middle" x="359.95" y="-57.8" font-family="Times,serif" font-size="14.00">प्रतिषेधः</text>
</g>
<!-- 7 -->
<g id="node7" class="node">
<title>7</title>
<g id="a_node7"><a xlink:title="विनाश{पुं}{1;एक}">
<ellipse fill="#00bfff" stroke="#00bfff" cx="455.95" cy="-105" rx="53.89" ry="18"/>
<text text-anchor="middle" x="455.95" y="-101.3" font-family="Times,serif" font-size="14.00">विनाशः (7)</text>
</a>
</g>
</g>
<!-- 7&#45;&gt;2 -->
<g id="edge2" class="edge">
<title>7&#45;&gt;2</title>
<path fill="none" stroke="black" d="M451.9,-86.8C449.14,-75.09 445.44,-59.34 442.29,-45.97"/>
<polygon fill="black" stroke="black" points="445.62,-44.82 439.92,-35.89 438.8,-46.42 445.62,-44.82"/>
<text text-anchor="middle" x="473.95" y="-57.8" font-family="Times,serif" font-size="14.00">प्रतिषेधः</text>
</g>
<!-- 8 -->
<g id="node8" class="node">
<title>8</title>
<g id="a_node8"><a xlink:title="तद्{पुं}{6;एक}">
<ellipse fill="#87ceeb" stroke="#87ceeb" cx="528.95" cy="-18" rx="42.79" ry="18"/>
<text text-anchor="middle" x="528.95" y="-14.3" font-family="Times,serif" font-size="14.00">तस्य (8)</text>
</a>
</g>
</g>
<!-- 7&#45;&gt;8 -->
<g id="edge8" class="edge">
<title>7&#45;&gt;8</title>
<path fill="none" stroke="black" d="M481.26,-88.93C489.2,-83.37 497.55,-76.56 503.95,-69 509.89,-61.97 514.87,-53.28 518.77,-45.13"/>
<polygon fill="black" stroke="black" points="521.99,-46.5 522.86,-35.94 515.6,-43.66 521.99,-46.5"/>
<text text-anchor="middle" x="536.95" y="-57.8" font-family="Times,serif" font-size="14.00">सम्बन्धः</text>
</g>
<!-- 9 -->
<g id="node9" class="node">
<title>9</title>
<g id="a_node9"><a xlink:title="विद्2{कर्तरि;लट्;प्र;एक;आत्मनेपदी;विदँ;दिवादिः}">
<ellipse fill="#ff6347" stroke="#ff6347" cx="229.95" cy="-192" rx="48.19" ry="18"/>
<text text-anchor="middle" x="229.95" y="-188.3" font-family="Times,serif" font-size="14.00">विद्यते (9)</text>
</a>
</g>
</g>
<!-- 9&#45;&gt;1 -->
<g id="edge1" class="edge">
<title>9&#45;&gt;1</title>
<path fill="none" stroke="black" d="M189.14,-182.37C165.83,-176.6 136.47,-167.87 111.95,-156 96.14,-148.35 80.02,-137.31 67.14,-127.55"/>
<polygon fill="black" stroke="black" points="69.23,-124.73 59.18,-121.36 64.93,-130.26 69.23,-124.73"/>
<text text-anchor="middle" x="137.45" y="-144.8" font-family="Times,serif" font-size="14.00">सम्बोध्यः</text>
</g>
<!-- 9&#45;&gt;3 -->
<g id="edge3" class="edge">
<title>9&#45;&gt;3</title>
<path fill="none" stroke="black" d="M206.09,-176.17C197.47,-170.34 187.92,-163.3 179.95,-156 171.46,-148.23 163.09,-138.75 156.09,-130.15"/>
<polygon fill="black" stroke="black" points="158.79,-127.92 149.84,-122.25 153.3,-132.27 158.79,-127.92"/>
<text text-anchor="middle" x="202.95" y="-144.8" font-family="Times,serif" font-size="14.00">सम्बन्धः</text>
</g>
<!-- 9&#45;&gt;4 -->
<g id="edge4" class="edge">
<title>9&#45;&gt;4</title>
<path fill="none" stroke="black" d="M229.95,-173.8C229.95,-162.16 229.95,-146.55 229.95,-133.24"/>
<polygon fill="black" stroke="black" points="233.45,-133.18 229.95,-123.18 226.45,-133.18 233.45,-133.18"/>
<text text-anchor="middle" x="260.45" y="-144.8" font-family="Times,serif" font-size="14.00">अधिकरणम्</text>
</g>
<!-- 9&#45;&gt;6 -->
<g id="edge6" class="edge">
<title>9&#45;&gt;6</title>
<path fill="none" stroke="black" d="M260.38,-177.9C271.88,-172.13 284.66,-164.68 294.95,-156 303.4,-148.86 311.23,-139.62 317.62,-131.03"/>
<polygon fill="black" stroke="black" points="320.56,-132.94 323.5,-122.76 314.85,-128.88 320.56,-132.94"/>
<text text-anchor="middle" x="340.45" y="-144.8" font-family="Times,serif" font-size="14.00">अधिकरणम्</text>
</g>
<!-- 9&#45;&gt;7 -->
<g id="edge7" class="edge">
<title>9&#45;&gt;7</title>
<path fill="none" stroke="black" d="M273.58,-184.19C302.97,-178.71 342.2,-169.65 374.95,-156 392.93,-148.51 411.52,-137.31 426.35,-127.42"/>
<polygon fill="black" stroke="black" points="428.33,-130.3 434.62,-121.78 424.38,-124.52 428.33,-130.3"/>
<text text-anchor="middle" x="415.45" y="-144.8" font-family="Times,serif" font-size="14.00">कर्ता</text>
</g>
<!-- 10 -->
<g id="node10" class="node">
<title>10</title>
<g id="a_node10"><a xlink:title="न{अव्य}">
<ellipse fill="#ff00ff" stroke="#ff00ff" cx="627.95" cy="-18" rx="38.19" ry="18"/>
<text text-anchor="middle" x="627.95" y="-14.3" font-family="Times,serif" font-size="14.00">न (10)</text>
</a>
</g>
</g>
<!-- 11 -->
<g id="node11" class="node">
<title>11</title>
<g id="a_node11"><a xlink:title="हि{अव्य}">
<ellipse fill="#ff00ff" stroke="#ff00ff" cx="604.95" cy="-105" rx="40.09" ry="18"/>
<text text-anchor="middle" x="604.95" y="-101.3" font-family="Times,serif" font-size="14.00">हि (11)</text>
</a>
</g>
</g>
<!-- 12 -->
<g id="node12" class="node">
<title>12</title>
<g id="a_node12"><a xlink:title="कल्याण&#45;कृत्{पुं}{1;एक}">
<ellipse fill="#00bfff" stroke="#00bfff" cx="758.95" cy="-18" rx="74.99" ry="18"/>
<text text-anchor="middle" x="758.95" y="-14.3" font-family="Times,serif" font-size="14.00">कल्याण&#45;कृत् (12)</text>
</a>
</g>
</g>
<!-- 13 -->
<g id="node13" class="node">
<title>13</title>
<g id="a_node13"><a xlink:title="किञ्चित्{पुं}{1;एक}">
<ellipse fill="#00bfff" stroke="#00bfff" cx="721.95" cy="-105" rx="59.29" ry="18"/>
<text text-anchor="middle" x="721.95" y="-101.3" font-family="Times,serif" font-size="14.00">कश्चित् (13)</text>
</a>
</g>
</g>
<!-- 13&#45;&gt;10 -->
<g id="edge9" class="edge">
<title>13&#45;&gt;10</title>
<path fill="none" stroke="black" d="M703.67,-87.64C697.13,-81.77 689.7,-75.1 682.95,-69 672.92,-59.94 661.9,-49.93 652.37,-41.26"/>
<polygon fill="black" stroke="black" points="654.52,-38.49 644.77,-34.35 649.81,-43.67 654.52,-38.49"/>
<text text-anchor="middle" x="708.95" y="-57.8" font-family="Times,serif" font-size="14.00">प्रतिषेधः</text>
</g>
<!-- 13&#45;&gt;12 -->
<g id="edge11" class="edge">
<title>13&#45;&gt;12</title>
<path fill="none" stroke="black" d="M729.43,-86.8C734.6,-74.93 741.57,-58.93 747.43,-45.45"/>
<polygon fill="black" stroke="black" points="750.69,-46.74 751.47,-36.18 744.27,-43.95 750.69,-46.74"/>
<text text-anchor="middle" x="769.45" y="-57.8" font-family="Times,serif" font-size="14.00">अपादानम्</text>
</g>
<!-- 14 -->
<g id="node14" class="node">
<title>14</title>
<g id="a_node14"><a xlink:title="दुर्&#45;गति{स्त्री}{2;एक}">
<ellipse fill="#7cfc00" stroke="#7cfc00" cx="864.95" cy="-105" rx="65.79" ry="18"/>
<text text-anchor="middle" x="864.95" y="-101.3" font-family="Times,serif" font-size="14.00">दुर्&#45;गतिम् (14)</text>
</a>
</g>
</g>
<!-- 15 -->
<g id="node15" class="node">
<title>15</title>
<g id="a_node15"><a xlink:title="तात{पुं}{8;एक}">
<ellipse fill="#7fffd4" stroke="#7fffd4" cx="994.95" cy="-105" rx="46.59" ry="18"/>
<text text-anchor="middle" x="994.95" y="-101.3" font-family="Times,serif" font-size="14.00">तात (15)</text>
</a>
</g>
</g>
<!-- 16 -->
<g id="node16" class="node">
<title>16</title>
<g id="a_node16"><a xlink:title="गम्1{कर्तरि;लट्;प्र;एक;परस्मैपदी;गमॢँ;भ्वादिः}">
<ellipse fill="#ff6347" stroke="#ff6347" cx="816.95" cy="-192" rx="59.59" ry="18"/>
<text text-anchor="middle" x="816.95" y="-188.3" font-family="Times,serif" font-size="14.00">गच्छति (16)</text>
</a>
</g>
</g>
<!-- 16&#45;&gt;11 -->
<g id="edge10" class="edge">
<title>16&#45;&gt;11</title>
<path fill="none" stroke="black" d="M778.55,-177.99C760.37,-171.65 738.42,-163.74 718.95,-156 692.7,-145.57 663.55,-132.76 641.3,-122.72"/>
<polygon fill="black" stroke="black" points="642.45,-119.4 631.9,-118.46 639.56,-125.78 642.45,-119.4"/>
<text text-anchor="middle" x="739.45" y="-144.8" font-family="Times,serif" font-size="14.00">सम्बन्ध</text>
</g>
<!-- 16&#45;&gt;13 -->
<g id="edge12" class="edge">
<title>16&#45;&gt;13</title>
<path fill="none" stroke="black" d="M798.63,-174.61C784.17,-161.68 763.83,-143.47 747.73,-129.07"/>
<polygon fill="black" stroke="black" points="749.99,-126.4 740.21,-122.34 745.33,-131.61 749.99,-126.4"/>
<text text-anchor="middle" x="788.45" y="-144.8" font-family="Times,serif" font-size="14.00">कर्ता</text>
</g>
<!-- 16&#45;&gt;14 -->
<g id="edge13" class="edge">
<title>16&#45;&gt;14</title>
<path fill="none" stroke="black" d="M826.43,-174.21C833.22,-162.18 842.5,-145.75 850.25,-132.03"/>
<polygon fill="black" stroke="black" points="853.45,-133.48 855.32,-123.05 847.35,-130.04 853.45,-133.48"/>
<text text-anchor="middle" x="853.95" y="-144.8" font-family="Times,serif" font-size="14.00">कर्म</text>
</g>
<!-- 16&#45;&gt;15 -->
<g id="edge14" class="edge">
<title>16&#45;&gt;15</title>
<path fill="none" stroke="black" d="M847.55,-176.39C878.03,-161.83 924.89,-139.45 957.57,-123.85"/>
<polygon fill="black" stroke="black" points="959.28,-126.91 966.8,-119.44 956.27,-120.59 959.28,-126.91"/>
<text text-anchor="middle" x="942.45" y="-144.8" font-family="Times,serif" font-size="14.00">सम्बोध्यः</text>
</g>
</g>
</svg>
