<?xml version="1.0" encoding="UTF-8" standalone="no"?>
<!DOCTYPE svg PUBLIC "-//W3C//DTD SVG 1.1//EN"
 "http://www.w3.org/Graphics/SVG/1.1/DTD/svg11.dtd">
<!-- Generated by graphviz version 2.43.0 (0)
 -->
<!-- Title: %3 Pages: 1 -->
<svg width="565pt" height="392pt"
 viewBox="0.00 0.00 565.14 392.00" xmlns="http://www.w3.org/2000/svg" xmlns:xlink="http://www.w3.org/1999/xlink">
<g id="graph0" class="graph" transform="scale(1 1) rotate(0) translate(4 388)">
<title>%3</title>
<polygon fill="#fffacd" stroke="transparent" points="-4,4 -4,-388 561.14,-388 561.14,4 -4,4"/>
<!-- 1 -->
<g id="node1" class="node">
<title>1</title>
<g id="a_node1"><a xlink:title="यदा{अव्य}">
<ellipse fill="#ff00ff" stroke="#ff00ff" cx="278.84" cy="-279" rx="40.09" ry="18"/>
<text text-anchor="middle" x="278.84" y="-275.3" font-family="Times,serif" font-size="14.00">यदा (1)</text>
</a>
</g>
</g>
<!-- 12 -->
<g id="node12" class="node">
<title>12</title>
<g id="a_node12"><a xlink:title="तदा{अव्य}">
<ellipse fill="#ff00ff" stroke="#ff00ff" cx="252.84" cy="-192" rx="46.29" ry="18"/>
<text text-anchor="middle" x="252.84" y="-188.3" font-family="Times,serif" font-size="14.00">तदा (12)</text>
</a>
</g>
</g>
<!-- 1&#45;&gt;12 -->
<g id="edge11" class="edge">
<title>1&#45;&gt;12</title>
<path fill="none" stroke="black" stroke-dasharray="1,5" d="M273.58,-260.8C269.99,-249.05 265.15,-233.24 261.05,-219.84"/>
<polygon fill="black" stroke="black" points="264.37,-218.71 258.1,-210.18 257.68,-220.76 264.37,-218.71"/>
<text text-anchor="middle" x="303.84" y="-231.8" font-family="Times,serif" font-size="14.00">नित्यसम्बन्धः</text>
</g>
<!-- 2 -->
<g id="node2" class="node">
<title>2</title>
<g id="a_node2"><a xlink:title="विनियत{नपुं}{1;एक}">
<ellipse fill="#00bfff" stroke="#00bfff" cx="384.84" cy="-192" rx="59.59" ry="18"/>
<text text-anchor="middle" x="384.84" y="-188.3" font-family="Times,serif" font-size="14.00">विनियतम् (2)</text>
</a>
</g>
</g>
<!-- 3 -->
<g id="node3" class="node">
<title>3</title>
<g id="a_node3"><a xlink:title="चित्त{नपुं}{1;एक}">
<ellipse fill="#00bfff" stroke="#00bfff" cx="384.84" cy="-279" rx="48.19" ry="18"/>
<text text-anchor="middle" x="384.84" y="-275.3" font-family="Times,serif" font-size="14.00">चित्तम् (3)</text>
</a>
</g>
</g>
<!-- 3&#45;&gt;2 -->
<g id="edge2" class="edge">
<title>3&#45;&gt;2</title>
<path fill="none" stroke="black" d="M384.84,-260.8C384.84,-249.16 384.84,-233.55 384.84,-220.24"/>
<polygon fill="black" stroke="black" points="388.34,-220.18 384.84,-210.18 381.34,-220.18 388.34,-220.18"/>
<text text-anchor="middle" x="410.34" y="-231.8" font-family="Times,serif" font-size="14.00">विशेषणम्</text>
</g>
<!-- 4 -->
<g id="node4" class="node">
<title>4</title>
<g id="a_node4"><a xlink:title="आत्मन्{पुं}{7;एक}">
<ellipse fill="#708090" stroke="#708090" cx="503.84" cy="-279" rx="53.09" ry="18"/>
<text text-anchor="middle" x="503.84" y="-275.3" font-family="Times,serif" font-size="14.00">आत्मनि (4)</text>
</a>
</g>
</g>
<!-- 5 -->
<g id="node5" class="node">
<title>5</title>
<g id="a_node5"><a xlink:title="एव{अव्य}">
<ellipse fill="#ff00ff" stroke="#ff00ff" cx="503.84" cy="-192" rx="37.89" ry="18"/>
<text text-anchor="middle" x="503.84" y="-188.3" font-family="Times,serif" font-size="14.00">एव (5)</text>
</a>
</g>
</g>
<!-- 4&#45;&gt;5 -->
<g id="edge5" class="edge">
<title>4&#45;&gt;5</title>
<path fill="none" stroke="black" d="M503.84,-260.8C503.84,-249.16 503.84,-233.55 503.84,-220.24"/>
<polygon fill="black" stroke="black" points="507.34,-220.18 503.84,-210.18 500.34,-220.18 507.34,-220.18"/>
<text text-anchor="middle" x="526.84" y="-231.8" font-family="Times,serif" font-size="14.00">सम्बन्धः</text>
</g>
<!-- 6 -->
<g id="node6" class="node">
<title>6</title>
<g id="a_node6"><a xlink:title="अव_स्था1{कर्तरि;लट्;प्र;एक;आत्मनेपदी;अव_ष्ठा;भ्वादिः}">
<ellipse fill="#ff6347" stroke="#ff6347" cx="384.84" cy="-366" rx="63.09" ry="18"/>
<text text-anchor="middle" x="384.84" y="-362.3" font-family="Times,serif" font-size="14.00">अवतिष्ठते (6)</text>
</a>
</g>
</g>
<!-- 6&#45;&gt;1 -->
<g id="edge1" class="edge">
<title>6&#45;&gt;1</title>
<path fill="none" stroke="black" d="M340.31,-353.15C326.7,-347.82 312.52,-340.34 301.84,-330 295.23,-323.6 290.34,-314.94 286.81,-306.62"/>
<polygon fill="black" stroke="black" points="290.06,-305.31 283.27,-297.17 283.5,-307.77 290.06,-305.31"/>
<text text-anchor="middle" x="341.34" y="-318.8" font-family="Times,serif" font-size="14.00">कालाधिकरणम्</text>
</g>
<!-- 6&#45;&gt;3 -->
<g id="edge3" class="edge">
<title>6&#45;&gt;3</title>
<path fill="none" stroke="black" d="M384.84,-347.8C384.84,-336.16 384.84,-320.55 384.84,-307.24"/>
<polygon fill="black" stroke="black" points="388.34,-307.18 384.84,-297.18 381.34,-307.18 388.34,-307.18"/>
<text text-anchor="middle" x="397.34" y="-318.8" font-family="Times,serif" font-size="14.00">कर्ता</text>
</g>
<!-- 6&#45;&gt;4 -->
<g id="edge4" class="edge">
<title>6&#45;&gt;4</title>
<path fill="none" stroke="black" d="M407.23,-349.01C426.04,-335.57 453.11,-316.24 473.81,-301.45"/>
<polygon fill="black" stroke="black" points="475.86,-304.29 481.96,-295.63 471.79,-298.59 475.86,-304.29"/>
<text text-anchor="middle" x="482.34" y="-318.8" font-family="Times,serif" font-size="14.00">अधिकरणम्</text>
</g>
<!-- 7 -->
<g id="node7" class="node">
<title>7</title>
<g id="a_node7"><a xlink:title="निस्&#45;स्पृह{पुं}{1;एक}">
<ellipse fill="#00bfff" stroke="#00bfff" cx="70.84" cy="-105" rx="61.99" ry="18"/>
<text text-anchor="middle" x="70.84" y="-101.3" font-family="Times,serif" font-size="14.00">निस्&#45;स्पृहः (7)</text>
</a>
</g>
</g>
<!-- 8 -->
<g id="node8" class="node">
<title>8</title>
<g id="a_node8"><a xlink:title="सर्व&#45;काम{पुं}{5;बहु}">
<ellipse fill="#90ee90" stroke="#90ee90" cx="70.84" cy="-18" rx="70.69" ry="18"/>
<text text-anchor="middle" x="70.84" y="-14.3" font-family="Times,serif" font-size="14.00">सर्व&#45;कामेभ्यः (8)</text>
</a>
</g>
</g>
<!-- 7&#45;&gt;8 -->
<g id="edge7" class="edge">
<title>7&#45;&gt;8</title>
<path fill="none" stroke="black" d="M70.84,-86.8C70.84,-75.16 70.84,-59.55 70.84,-46.24"/>
<polygon fill="black" stroke="black" points="74.34,-46.18 70.84,-36.18 67.34,-46.18 74.34,-46.18"/>
<text text-anchor="middle" x="97.34" y="-57.8" font-family="Times,serif" font-size="14.00">अपादानम्</text>
</g>
<!-- 9 -->
<g id="node9" class="node">
<title>9</title>
<g id="a_node9"><a xlink:title="युज्2{कृत्_प्रत्ययः:क्त;युजिँर्;रुधादिः;पुं}{1;एक}">
<ellipse fill="#00bfff" stroke="#00bfff" cx="133.84" cy="-192" rx="46.59" ry="18"/>
<text text-anchor="middle" x="133.84" y="-188.3" font-family="Times,serif" font-size="14.00">युक्तः (9)</text>
</a>
</g>
</g>
<!-- 9&#45;&gt;7 -->
<g id="edge6" class="edge">
<title>9&#45;&gt;7</title>
<path fill="none" stroke="black" d="M121.7,-174.61C112.58,-162.31 99.92,-145.23 89.52,-131.2"/>
<polygon fill="black" stroke="black" points="92.15,-128.87 83.38,-122.92 86.53,-133.04 92.15,-128.87"/>
<text text-anchor="middle" x="132.34" y="-144.8" font-family="Times,serif" font-size="14.00">विशेषणम्</text>
</g>
<!-- 10 -->
<g id="node10" class="node">
<title>10</title>
<g id="a_node10"><a xlink:title="इति{अव्य}">
<ellipse fill="#ff00ff" stroke="#ff00ff" cx="196.84" cy="-105" rx="46.29" ry="18"/>
<text text-anchor="middle" x="196.84" y="-101.3" font-family="Times,serif" font-size="14.00">इति (10)</text>
</a>
</g>
</g>
<!-- 9&#45;&gt;10 -->
<g id="edge9" class="edge">
<title>9&#45;&gt;10</title>
<path fill="none" stroke="black" d="M147.45,-174.44C152.1,-168.66 157.27,-162.1 161.84,-156 167.81,-148.03 174.12,-139.17 179.71,-131.15"/>
<polygon fill="black" stroke="black" points="182.63,-133.07 185.44,-122.86 176.87,-129.09 182.63,-133.07"/>
<text text-anchor="middle" x="202.84" y="-144.8" font-family="Times,serif" font-size="14.00">कर्मद्योतकः</text>
</g>
<!-- 11 -->
<g id="node11" class="node">
<title>11</title>
<g id="a_node11"><a xlink:title="वच्1{कर्मणि;लट्;प्र;एक;आत्मनेपदी;वचँ;अदादिः}">
<ellipse fill="#ff6347" stroke="#ff6347" cx="150.84" cy="-279" rx="53.89" ry="18"/>
<text text-anchor="middle" x="150.84" y="-275.3" font-family="Times,serif" font-size="14.00">उच्यते (11)</text>
</a>
</g>
</g>
<!-- 11&#45;&gt;9 -->
<g id="edge8" class="edge">
<title>11&#45;&gt;9</title>
<path fill="none" stroke="black" d="M141.41,-261.05C138.77,-255.47 136.24,-249.12 134.84,-243 133.21,-235.83 132.55,-227.94 132.39,-220.58"/>
<polygon fill="black" stroke="black" points="135.89,-220.36 132.47,-210.33 128.89,-220.31 135.89,-220.36"/>
<text text-anchor="middle" x="144.84" y="-231.8" font-family="Times,serif" font-size="14.00">कर्म</text>
</g>
<!-- 11&#45;&gt;12 -->
<g id="edge10" class="edge">
<title>11&#45;&gt;12</title>
<path fill="none" stroke="black" d="M158.35,-261.02C163.69,-250.47 171.71,-237.2 181.84,-228 190.18,-220.43 200.45,-214.13 210.57,-209.05"/>
<polygon fill="black" stroke="black" points="212.19,-212.15 219.75,-204.73 209.21,-205.82 212.19,-212.15"/>
<text text-anchor="middle" x="221.34" y="-231.8" font-family="Times,serif" font-size="14.00">कालाधिकरणम्</text>
</g>
</g>
</svg>
