<?xml version="1.0" encoding="UTF-8" standalone="no"?>
<!DOCTYPE svg PUBLIC "-//W3C//DTD SVG 1.1//EN"
 "http://www.w3.org/Graphics/SVG/1.1/DTD/svg11.dtd">
<!-- Generated by graphviz version 2.43.0 (0)
 -->
<!-- Title: %3 Pages: 1 -->
<svg width="846pt" height="305pt"
 viewBox="0.00 0.00 846.29 305.00" xmlns="http://www.w3.org/2000/svg" xmlns:xlink="http://www.w3.org/1999/xlink">
<g id="graph0" class="graph" transform="scale(1 1) rotate(0) translate(4 301)">
<title>%3</title>
<polygon fill="#fffacd" stroke="transparent" points="-4,4 -4,-301 842.29,-301 842.29,4 -4,4"/>
<!-- 1 -->
<g id="node1" class="node">
<title>1</title>
<g id="a_node1"><a xlink:title="यतः{अव्य}">
<ellipse fill="#ff00ff" stroke="#ff00ff" cx="42.25" cy="-105" rx="42.49" ry="18"/>
<text text-anchor="middle" x="42.25" y="-101.3" font-family="Times,serif" font-size="14.00">यतः (1)</text>
</a>
</g>
</g>
<!-- 2 -->
<g id="node2" class="node">
<title>2</title>
<g id="a_node2"><a xlink:title="यतः{अव्य}">
<ellipse fill="#ff00ff" stroke="#ff00ff" cx="84.25" cy="-192" rx="42.49" ry="18"/>
<text text-anchor="middle" x="84.25" y="-188.3" font-family="Times,serif" font-size="14.00">यतः (2)</text>
</a>
</g>
</g>
<!-- 2&#45;&gt;1 -->
<g id="edge1" class="edge">
<title>2&#45;&gt;1</title>
<path fill="none" stroke="black" d="M75.95,-174.21C69.97,-162.1 61.78,-145.53 54.97,-131.76"/>
<polygon fill="black" stroke="black" points="58.09,-130.17 50.53,-122.76 51.82,-133.27 58.09,-130.17"/>
<text text-anchor="middle" x="82.75" y="-144.8" font-family="Times,serif" font-size="14.00">वीप्सा</text>
</g>
<!-- 3 -->
<g id="node3" class="node">
<title>3</title>
<g id="a_node3"><a xlink:title="नि_चर्1{कर्तरि;लट्;प्र;एक;परस्मैपदी;नि_चरँ;भ्वादिः}">
<ellipse fill="#ff6347" stroke="#ff6347" cx="176.25" cy="-279" rx="57.69" ry="18"/>
<text text-anchor="middle" x="176.25" y="-275.3" font-family="Times,serif" font-size="14.00">निश्चरति (3)</text>
</a>
</g>
</g>
<!-- 3&#45;&gt;2 -->
<g id="edge2" class="edge">
<title>3&#45;&gt;2</title>
<path fill="none" stroke="black" d="M158.51,-261.61C144.46,-248.63 124.66,-230.34 109.04,-215.91"/>
<polygon fill="black" stroke="black" points="111.03,-212.98 101.31,-208.76 106.28,-218.12 111.03,-212.98"/>
<text text-anchor="middle" x="162.75" y="-231.8" font-family="Times,serif" font-size="14.00">अपादानम्</text>
</g>
<!-- 4 -->
<g id="node4" class="node">
<title>4</title>
<g id="a_node4"><a xlink:title="मनस्{नपुं}{1;एक}">
<ellipse fill="#00bfff" stroke="#00bfff" cx="227.25" cy="-192" rx="41.69" ry="18"/>
<text text-anchor="middle" x="227.25" y="-188.3" font-family="Times,serif" font-size="14.00">मनः (4)</text>
</a>
</g>
</g>
<!-- 3&#45;&gt;4 -->
<g id="edge3" class="edge">
<title>3&#45;&gt;4</title>
<path fill="none" stroke="black" d="M186.32,-261.21C193.66,-248.98 203.72,-232.21 212.03,-218.36"/>
<polygon fill="black" stroke="black" points="215.05,-220.13 217.19,-209.76 209.04,-216.53 215.05,-220.13"/>
<text text-anchor="middle" x="217.75" y="-231.8" font-family="Times,serif" font-size="14.00">कर्ता</text>
</g>
<!-- 5 -->
<g id="node5" class="node">
<title>5</title>
<g id="a_node5"><a xlink:title="चञ्चल{नपुं}{1;एक}">
<ellipse fill="#00bfff" stroke="#00bfff" cx="159.25" cy="-105" rx="56.59" ry="18"/>
<text text-anchor="middle" x="159.25" y="-101.3" font-family="Times,serif" font-size="14.00">चञ्चलम् (5)</text>
</a>
</g>
</g>
<!-- 4&#45;&gt;5 -->
<g id="edge4" class="edge">
<title>4&#45;&gt;5</title>
<path fill="none" stroke="black" d="M214.14,-174.61C204.13,-162.11 190.2,-144.69 178.87,-130.53"/>
<polygon fill="black" stroke="black" points="181.53,-128.25 172.55,-122.63 176.06,-132.62 181.53,-128.25"/>
<text text-anchor="middle" x="223.75" y="-144.8" font-family="Times,serif" font-size="14.00">विशेषणम्</text>
</g>
<!-- 6 -->
<g id="node6" class="node">
<title>6</title>
<g id="a_node6"><a xlink:title="अस्थिर{पुं}{1;एक}">
<ellipse fill="#00bfff" stroke="#00bfff" cx="295.25" cy="-105" rx="61.19" ry="18"/>
<text text-anchor="middle" x="295.25" y="-101.3" font-family="Times,serif" font-size="14.00">अ&#45;स्थिरम् (6)</text>
</a>
</g>
</g>
<!-- 4&#45;&gt;6 -->
<g id="edge5" class="edge">
<title>4&#45;&gt;6</title>
<path fill="none" stroke="black" d="M240.36,-174.61C250.36,-162.11 264.3,-144.69 275.62,-130.53"/>
<polygon fill="black" stroke="black" points="278.43,-132.62 281.94,-122.63 272.96,-128.25 278.43,-132.62"/>
<text text-anchor="middle" x="291.75" y="-144.8" font-family="Times,serif" font-size="14.00">विशेषणम्</text>
</g>
<!-- 10 -->
<g id="node10" class="node">
<title>10</title>
<g id="a_node10"><a xlink:title="एतद्{नपुं}{1;एक}">
<ellipse fill="#00bfff" stroke="#00bfff" cx="424.25" cy="-105" rx="50.09" ry="18"/>
<text text-anchor="middle" x="424.25" y="-101.3" font-family="Times,serif" font-size="14.00">एतत् (10)</text>
</a>
</g>
</g>
<!-- 4&#45;&gt;10 -->
<g id="edge9" class="edge">
<title>4&#45;&gt;10</title>
<path fill="none" stroke="black" d="M258.88,-180.07C277.25,-173.52 300.75,-164.77 321.25,-156 343.55,-146.46 367.99,-134.65 387.47,-124.91"/>
<polygon fill="black" stroke="black" points="389.24,-127.94 396.6,-120.31 386.1,-121.68 389.24,-127.94"/>
<text text-anchor="middle" x="378.75" y="-144.8" font-family="Times,serif" font-size="14.00">विशेषणम्</text>
</g>
<!-- 7 -->
<g id="node7" class="node">
<title>7</title>
<g id="a_node7"><a xlink:title="ततः{अव्य}">
<ellipse fill="#ff00ff" stroke="#ff00ff" cx="534.25" cy="-18" rx="41.69" ry="18"/>
<text text-anchor="middle" x="534.25" y="-14.3" font-family="Times,serif" font-size="14.00">ततः (7)</text>
</a>
</g>
</g>
<!-- 8 -->
<g id="node8" class="node">
<title>8</title>
<g id="a_node8"><a xlink:title="ततः{अव्य}">
<ellipse fill="#ff00ff" stroke="#ff00ff" cx="534.25" cy="-105" rx="41.69" ry="18"/>
<text text-anchor="middle" x="534.25" y="-101.3" font-family="Times,serif" font-size="14.00">ततः (8)</text>
</a>
</g>
</g>
<!-- 8&#45;&gt;7 -->
<g id="edge6" class="edge">
<title>8&#45;&gt;7</title>
<path fill="none" stroke="black" d="M534.25,-86.8C534.25,-75.16 534.25,-59.55 534.25,-46.24"/>
<polygon fill="black" stroke="black" points="537.75,-46.18 534.25,-36.18 530.75,-46.18 537.75,-46.18"/>
<text text-anchor="middle" x="550.75" y="-57.8" font-family="Times,serif" font-size="14.00">वीप्सा</text>
</g>
<!-- 9 -->
<g id="node9" class="node">
<title>9</title>
<g id="a_node9"><a xlink:title="नि_यम्1{कृत्_प्रत्ययः:ल्यप्;नि_यमोँ;भ्वादिः}">
<ellipse fill="#808080" stroke="#808080" cx="534.25" cy="-192" rx="50.09" ry="18"/>
<text text-anchor="middle" x="534.25" y="-188.3" font-family="Times,serif" font-size="14.00">नियम्य (9)</text>
</a>
</g>
</g>
<!-- 9&#45;&gt;8 -->
<g id="edge7" class="edge">
<title>9&#45;&gt;8</title>
<path fill="none" stroke="black" d="M534.25,-173.8C534.25,-162.16 534.25,-146.55 534.25,-133.24"/>
<polygon fill="black" stroke="black" points="537.75,-133.18 534.25,-123.18 530.75,-133.18 537.75,-133.18"/>
<text text-anchor="middle" x="560.75" y="-144.8" font-family="Times,serif" font-size="14.00">अपादानम्</text>
</g>
<!-- 11 -->
<g id="node11" class="node">
<title>11</title>
<g id="a_node11"><a xlink:title="आत्मन्{पुं}{7;एक}">
<ellipse fill="#708090" stroke="#708090" cx="661.25" cy="-192" rx="59.29" ry="18"/>
<text text-anchor="middle" x="661.25" y="-188.3" font-family="Times,serif" font-size="14.00">आत्मनि (11)</text>
</a>
</g>
</g>
<!-- 12 -->
<g id="node12" class="node">
<title>12</title>
<g id="a_node12"><a xlink:title="एव{अव्य}">
<ellipse fill="#ff00ff" stroke="#ff00ff" cx="661.25" cy="-105" rx="43.59" ry="18"/>
<text text-anchor="middle" x="661.25" y="-101.3" font-family="Times,serif" font-size="14.00">एव (12)</text>
</a>
</g>
</g>
<!-- 11&#45;&gt;12 -->
<g id="edge11" class="edge">
<title>11&#45;&gt;12</title>
<path fill="none" stroke="black" d="M661.25,-173.8C661.25,-162.16 661.25,-146.55 661.25,-133.24"/>
<polygon fill="black" stroke="black" points="664.75,-133.18 661.25,-123.18 657.75,-133.18 664.75,-133.18"/>
<text text-anchor="middle" x="684.25" y="-144.8" font-family="Times,serif" font-size="14.00">सम्बन्धः</text>
</g>
<!-- 13 -->
<g id="node13" class="node">
<title>13</title>
<g id="a_node13"><a xlink:title="वश{नपुं}{2;एक}">
<ellipse fill="#7cfc00" stroke="#7cfc00" cx="788.25" cy="-192" rx="50.09" ry="18"/>
<text text-anchor="middle" x="788.25" y="-188.3" font-family="Times,serif" font-size="14.00">वशम् (13)</text>
</a>
</g>
</g>
<!-- 14 -->
<g id="node14" class="node">
<title>14</title>
<g id="a_node14"><a xlink:title="नी1{कर्तरि;विधिलिङ्;प्र;एक;आत्मनेपदी;णीञ्;भ्वादिः}">
<ellipse fill="#ff6347" stroke="#ff6347" cx="661.25" cy="-279" rx="50.09" ry="18"/>
<text text-anchor="middle" x="661.25" y="-275.3" font-family="Times,serif" font-size="14.00">नयेत् (14)</text>
</a>
</g>
</g>
<!-- 14&#45;&gt;9 -->
<g id="edge8" class="edge">
<title>14&#45;&gt;9</title>
<path fill="none" stroke="black" d="M638.25,-262.89C628.93,-256.74 618.06,-249.55 608.25,-243 593.97,-233.46 578.2,-222.82 564.89,-213.81"/>
<polygon fill="black" stroke="black" points="566.79,-210.87 556.55,-208.16 562.86,-216.67 566.79,-210.87"/>
<text text-anchor="middle" x="632.75" y="-231.8" font-family="Times,serif" font-size="14.00">पूर्वकालः</text>
</g>
<!-- 14&#45;&gt;11 -->
<g id="edge10" class="edge">
<title>14&#45;&gt;11</title>
<path fill="none" stroke="black" d="M661.25,-260.8C661.25,-249.16 661.25,-233.55 661.25,-220.24"/>
<polygon fill="black" stroke="black" points="664.75,-220.18 661.25,-210.18 657.75,-220.18 664.75,-220.18"/>
<text text-anchor="middle" x="691.75" y="-231.8" font-family="Times,serif" font-size="14.00">अधिकरणम्</text>
</g>
<!-- 14&#45;&gt;13 -->
<g id="edge12" class="edge">
<title>14&#45;&gt;13</title>
<path fill="none" stroke="black" d="M689.74,-264.11C701.35,-258.08 714.72,-250.66 726.25,-243 738.64,-234.77 751.56,-224.63 762.39,-215.63"/>
<polygon fill="black" stroke="black" points="764.82,-218.15 770.21,-209.03 760.31,-212.81 764.82,-218.15"/>
<text text-anchor="middle" x="756.25" y="-231.8" font-family="Times,serif" font-size="14.00">कर्म</text>
</g>
</g>
</svg>
