<?xml version="1.0" encoding="UTF-8" standalone="no"?>
<!DOCTYPE svg PUBLIC "-//W3C//DTD SVG 1.1//EN"
 "http://www.w3.org/Graphics/SVG/1.1/DTD/svg11.dtd">
<!-- Generated by graphviz version 2.43.0 (0)
 -->
<!-- Title: %3 Pages: 1 -->
<svg width="817pt" height="218pt"
 viewBox="0.00 0.00 817.49 218.00" xmlns="http://www.w3.org/2000/svg" xmlns:xlink="http://www.w3.org/1999/xlink">
<g id="graph0" class="graph" transform="scale(1 1) rotate(0) translate(4 214)">
<title>%3</title>
<polygon fill="#fffacd" stroke="transparent" points="-4,4 -4,-214 813.49,-214 813.49,4 -4,4"/>
<!-- 1 -->
<g id="node1" class="node">
<title>1</title>
<g id="a_node1"><a xlink:title="युज्2{कृत्_प्रत्ययः:शतृ;युजिँर्;रुधादिः;पुं}{1;एक}">
<ellipse fill="#00bfff" stroke="#00bfff" cx="207.9" cy="-105" rx="50.09" ry="18"/>
<text text-anchor="middle" x="207.9" y="-101.3" font-family="Times,serif" font-size="14.00">युञ्जन् (1)</text>
</a>
</g>
</g>
<!-- 2 -->
<g id="node2" class="node">
<title>2</title>
<g id="a_node2"><a xlink:title="एवम्{अव्य}">
<ellipse fill="#ff00ff" stroke="#ff00ff" cx="42.9" cy="-18" rx="42.79" ry="18"/>
<text text-anchor="middle" x="42.9" y="-14.3" font-family="Times,serif" font-size="14.00">एवम् (2)</text>
</a>
</g>
</g>
<!-- 1&#45;&gt;2 -->
<g id="edge2" class="edge">
<title>1&#45;&gt;2</title>
<path fill="none" stroke="black" d="M161.08,-98.25C122.81,-92.65 72.71,-82.92 57.9,-69 51.51,-63 47.81,-54.4 45.67,-46.02"/>
<polygon fill="black" stroke="black" points="49.09,-45.26 43.77,-36.1 42.22,-46.58 49.09,-45.26"/>
<text text-anchor="middle" x="100.4" y="-57.8" font-family="Times,serif" font-size="14.00">क्रियाविशेषणम्</text>
</g>
<!-- 3 -->
<g id="node3" class="node">
<title>3</title>
<g id="a_node3"><a xlink:title="सदा{अव्य}">
<ellipse fill="#ff00ff" stroke="#ff00ff" cx="147.9" cy="-18" rx="40.89" ry="18"/>
<text text-anchor="middle" x="147.9" y="-14.3" font-family="Times,serif" font-size="14.00">सदा (3)</text>
</a>
</g>
</g>
<!-- 1&#45;&gt;3 -->
<g id="edge3" class="edge">
<title>1&#45;&gt;3</title>
<path fill="none" stroke="black" d="M175.35,-91.11C165.88,-85.72 156.57,-78.46 150.9,-69 146.9,-62.33 145.33,-54.23 144.98,-46.5"/>
<polygon fill="black" stroke="black" points="148.48,-46.42 145.14,-36.37 141.48,-46.31 148.48,-46.42"/>
<text text-anchor="middle" x="193.4" y="-57.8" font-family="Times,serif" font-size="14.00">क्रियाविशेषणम्</text>
</g>
<!-- 4 -->
<g id="node4" class="node">
<title>4</title>
<g id="a_node4"><a xlink:title="आत्मन्{पुं}{2;एक}">
<ellipse fill="#7cfc00" stroke="#7cfc00" cx="265.9" cy="-18" rx="59.29" ry="18"/>
<text text-anchor="middle" x="265.9" y="-14.3" font-family="Times,serif" font-size="14.00">आत्मानम् (4)</text>
</a>
</g>
</g>
<!-- 1&#45;&gt;4 -->
<g id="edge4" class="edge">
<title>1&#45;&gt;4</title>
<path fill="none" stroke="black" d="M224.46,-87.67C229.74,-82.02 235.37,-75.48 239.9,-69 245,-61.7 249.76,-53.28 253.77,-45.44"/>
<polygon fill="black" stroke="black" points="257,-46.82 258.28,-36.3 250.72,-43.73 257,-46.82"/>
<text text-anchor="middle" x="258.9" y="-57.8" font-family="Times,serif" font-size="14.00">कर्म</text>
</g>
<!-- 5 -->
<g id="node5" class="node">
<title>5</title>
<g id="a_node5"><a xlink:title="योगिन्{पुं}{1;एक}">
<ellipse fill="#00bfff" stroke="#00bfff" cx="414.9" cy="-105" rx="44.39" ry="18"/>
<text text-anchor="middle" x="414.9" y="-101.3" font-family="Times,serif" font-size="14.00">योगी (5)</text>
</a>
</g>
</g>
<!-- 6 -->
<g id="node6" class="node">
<title>6</title>
<g id="a_node6"><a xlink:title="नियत&#45;मानस{पुं}{1;एक}">
<ellipse fill="#00bfff" stroke="#00bfff" cx="414.9" cy="-18" rx="72.29" ry="18"/>
<text text-anchor="middle" x="414.9" y="-14.3" font-family="Times,serif" font-size="14.00">नियत&#45;मानसः (6)</text>
</a>
</g>
</g>
<!-- 5&#45;&gt;6 -->
<g id="edge6" class="edge">
<title>5&#45;&gt;6</title>
<path fill="none" stroke="black" d="M414.9,-86.8C414.9,-75.16 414.9,-59.55 414.9,-46.24"/>
<polygon fill="black" stroke="black" points="418.4,-46.18 414.9,-36.18 411.4,-46.18 418.4,-46.18"/>
<text text-anchor="middle" x="440.4" y="-57.8" font-family="Times,serif" font-size="14.00">विशेषणम्</text>
</g>
<!-- 7 -->
<g id="node7" class="node">
<title>7</title>
<g id="a_node7"><a xlink:title="शान्ति{स्त्री}{2;एक}">
<ellipse fill="#7cfc00" stroke="#7cfc00" cx="580.9" cy="-105" rx="53.89" ry="18"/>
<text text-anchor="middle" x="580.9" y="-101.3" font-family="Times,serif" font-size="14.00">शान्तिम् (7)</text>
</a>
</g>
</g>
<!-- 8 -->
<g id="node8" class="node">
<title>8</title>
<g id="a_node8"><a xlink:title="निर्वाण&#45;परमा{स्त्री}{2;एक}">
<ellipse fill="#7cfc00" stroke="#7cfc00" cx="580.9" cy="-18" rx="75.29" ry="18"/>
<text text-anchor="middle" x="580.9" y="-14.3" font-family="Times,serif" font-size="14.00">निर्वाण&#45;परमाम् (8)</text>
</a>
</g>
</g>
<!-- 7&#45;&gt;8 -->
<g id="edge8" class="edge">
<title>7&#45;&gt;8</title>
<path fill="none" stroke="black" d="M580.9,-86.8C580.9,-75.16 580.9,-59.55 580.9,-46.24"/>
<polygon fill="black" stroke="black" points="584.4,-46.18 580.9,-36.18 577.4,-46.18 584.4,-46.18"/>
<text text-anchor="middle" x="606.4" y="-57.8" font-family="Times,serif" font-size="14.00">विशेषणम्</text>
</g>
<!-- 9 -->
<g id="node9" class="node">
<title>9</title>
<g id="a_node9"><a xlink:title="अस्मद्&#45;संस्था{स्त्री}{2;एक}">
<ellipse fill="#7cfc00" stroke="#7cfc00" cx="741.9" cy="-18" rx="67.69" ry="18"/>
<text text-anchor="middle" x="741.9" y="-14.3" font-family="Times,serif" font-size="14.00">मत्&#45;संस्थाम् (9)</text>
</a>
</g>
</g>
<!-- 7&#45;&gt;9 -->
<g id="edge9" class="edge">
<title>7&#45;&gt;9</title>
<path fill="none" stroke="black" d="M608.57,-89.39C634.86,-75.51 674.6,-54.53 703.85,-39.09"/>
<polygon fill="black" stroke="black" points="705.74,-42.04 712.95,-34.28 702.48,-35.85 705.74,-42.04"/>
<text text-anchor="middle" x="696.4" y="-57.8" font-family="Times,serif" font-size="14.00">विशेषणम्</text>
</g>
<!-- 10 -->
<g id="node10" class="node">
<title>10</title>
<g id="a_node10"><a xlink:title="अधि_गम्1{कर्तरि;लट्;प्र;एक;परस्मैपदी;अधि_गमॢँ;भ्वादिः}">
<ellipse fill="#ff6347" stroke="#ff6347" cx="414.9" cy="-192" rx="77.19" ry="18"/>
<text text-anchor="middle" x="414.9" y="-188.3" font-family="Times,serif" font-size="14.00">अधिगच्छति (10)</text>
</a>
</g>
</g>
<!-- 10&#45;&gt;1 -->
<g id="edge1" class="edge">
<title>10&#45;&gt;1</title>
<path fill="none" stroke="black" d="M369.9,-177.24C351.42,-171.24 329.94,-163.79 310.9,-156 288.29,-146.75 263.65,-134.86 244.14,-125"/>
<polygon fill="black" stroke="black" points="245.51,-121.76 235.01,-120.34 242.32,-128 245.51,-121.76"/>
<text text-anchor="middle" x="360.9" y="-144.8" font-family="Times,serif" font-size="14.00">वर्तमानसमानकालः</text>
</g>
<!-- 10&#45;&gt;5 -->
<g id="edge5" class="edge">
<title>10&#45;&gt;5</title>
<path fill="none" stroke="black" d="M414.9,-173.8C414.9,-162.16 414.9,-146.55 414.9,-133.24"/>
<polygon fill="black" stroke="black" points="418.4,-133.18 414.9,-123.18 411.4,-133.18 418.4,-133.18"/>
<text text-anchor="middle" x="427.4" y="-144.8" font-family="Times,serif" font-size="14.00">कर्ता</text>
</g>
<!-- 10&#45;&gt;7 -->
<g id="edge7" class="edge">
<title>10&#45;&gt;7</title>
<path fill="none" stroke="black" d="M445.34,-175.41C472.96,-161.27 513.77,-140.37 543.39,-125.21"/>
<polygon fill="black" stroke="black" points="545.28,-128.17 552.58,-120.5 542.08,-121.94 545.28,-128.17"/>
<text text-anchor="middle" x="517.9" y="-144.8" font-family="Times,serif" font-size="14.00">कर्म</text>
</g>
</g>
</svg>
