<?xml version="1.0" encoding="UTF-8" standalone="no"?>
<!DOCTYPE svg PUBLIC "-//W3C//DTD SVG 1.1//EN"
 "http://www.w3.org/Graphics/SVG/1.1/DTD/svg11.dtd">
<!-- Generated by graphviz version 2.43.0 (0)
 -->
<!-- Title: %3 Pages: 1 -->
<svg width="650pt" height="305pt"
 viewBox="0.00 0.00 649.94 305.00" xmlns="http://www.w3.org/2000/svg" xmlns:xlink="http://www.w3.org/1999/xlink">
<g id="graph0" class="graph" transform="scale(1 1) rotate(0) translate(4 301)">
<title>%3</title>
<polygon fill="#fffacd" stroke="transparent" points="-4,4 -4,-301 645.94,-301 645.94,4 -4,4"/>
<!-- 1 -->
<g id="node1" class="node">
<title>1</title>
<g id="a_node1"><a xlink:title="योगिन्{पुं}{1;एक}">
<ellipse fill="#00bfff" stroke="#00bfff" cx="330.85" cy="-192" rx="44.39" ry="18"/>
<text text-anchor="middle" x="330.85" y="-188.3" font-family="Times,serif" font-size="14.00">योगी (1)</text>
</a>
</g>
</g>
<!-- 6 -->
<g id="node6" class="node">
<title>6</title>
<g id="a_node6"><a xlink:title="स्था1{कृत्_प्रत्ययः:क्त;ष्ठा;भ्वादिः;पुं}{1;एक}">
<ellipse fill="#00bfff" stroke="#00bfff" cx="100.85" cy="-105" rx="49.29" ry="18"/>
<text text-anchor="middle" x="100.85" y="-101.3" font-family="Times,serif" font-size="14.00">स्थितः (6)</text>
</a>
</g>
</g>
<!-- 1&#45;&gt;6 -->
<g id="edge5" class="edge">
<title>1&#45;&gt;6</title>
<path fill="none" stroke="black" d="M297.88,-179.74C278.34,-173 253.12,-164.18 230.85,-156 201.16,-145.1 167.87,-132.28 142.41,-122.36"/>
<polygon fill="black" stroke="black" points="143.65,-119.08 133.06,-118.71 141.11,-125.6 143.65,-119.08"/>
<text text-anchor="middle" x="256.35" y="-144.8" font-family="Times,serif" font-size="14.00">विशेषणम्</text>
</g>
<!-- 8 -->
<g id="node8" class="node">
<title>8</title>
<g id="a_node8"><a xlink:title="यत&#45;चित्त&#45;आत्मन्{पुं}{1;एक}">
<ellipse fill="#00bfff" stroke="#00bfff" cx="249.85" cy="-105" rx="81.79" ry="18"/>
<text text-anchor="middle" x="249.85" y="-101.3" font-family="Times,serif" font-size="14.00">यत&#45;चित्त&#45;आत्मा (8)</text>
</a>
</g>
</g>
<!-- 1&#45;&gt;8 -->
<g id="edge7" class="edge">
<title>1&#45;&gt;8</title>
<path fill="none" stroke="black" d="M315.61,-175.01C303.62,-162.43 286.72,-144.7 273.05,-130.35"/>
<polygon fill="black" stroke="black" points="275.28,-127.61 265.84,-122.79 270.21,-132.44 275.28,-127.61"/>
<text text-anchor="middle" x="321.35" y="-144.8" font-family="Times,serif" font-size="14.00">विशेषणम्</text>
</g>
<!-- 9 -->
<g id="node9" class="node">
<title>9</title>
<g id="a_node9"><a xlink:title="निर्&#45;आशिस्{स्त्री}{1;एक}">
<ellipse fill="#00bfff" stroke="#00bfff" cx="412.85" cy="-105" rx="63.09" ry="18"/>
<text text-anchor="middle" x="412.85" y="-101.3" font-family="Times,serif" font-size="14.00">निर्&#45;आशीः (9)</text>
</a>
</g>
</g>
<!-- 1&#45;&gt;9 -->
<g id="edge8" class="edge">
<title>1&#45;&gt;9</title>
<path fill="none" stroke="black" d="M346.27,-175.01C358.48,-162.35 375.74,-144.47 389.62,-130.08"/>
<polygon fill="black" stroke="black" points="392.51,-132.12 396.93,-122.5 387.47,-127.26 392.51,-132.12"/>
<text text-anchor="middle" x="402.35" y="-144.8" font-family="Times,serif" font-size="14.00">विशेषणम्</text>
</g>
<!-- 10 -->
<g id="node10" class="node">
<title>10</title>
<g id="a_node10"><a xlink:title="अपरिग्रह{पुं}{1;एक}">
<ellipse fill="#00bfff" stroke="#00bfff" cx="567.85" cy="-105" rx="74.19" ry="18"/>
<text text-anchor="middle" x="567.85" y="-101.3" font-family="Times,serif" font-size="14.00">अ&#45;परिग्रहः (10)</text>
</a>
</g>
</g>
<!-- 1&#45;&gt;10 -->
<g id="edge9" class="edge">
<title>1&#45;&gt;10</title>
<path fill="none" stroke="black" d="M363.65,-179.81C383.44,-173.01 409.13,-164.11 431.85,-156 461.05,-145.57 493.65,-133.6 519.62,-123.98"/>
<polygon fill="black" stroke="black" points="521.07,-127.18 529.23,-120.42 518.63,-120.61 521.07,-127.18"/>
<text text-anchor="middle" x="498.35" y="-144.8" font-family="Times,serif" font-size="14.00">विशेषणम्</text>
</g>
<!-- 2 -->
<g id="node2" class="node">
<title>2</title>
<g id="a_node2"><a xlink:title="युज्2{कर्तरि;विधिलिङ्;प्र;एक;परस्मैपदी;युजिँर्;रुधादिः}">
<ellipse fill="#ff6347" stroke="#ff6347" cx="443.85" cy="-279" rx="53.09" ry="18"/>
<text text-anchor="middle" x="443.85" y="-275.3" font-family="Times,serif" font-size="14.00">युञ्जीत (2)</text>
</a>
</g>
</g>
<!-- 2&#45;&gt;1 -->
<g id="edge1" class="edge">
<title>2&#45;&gt;1</title>
<path fill="none" stroke="black" d="M423.12,-262.41C405.17,-248.91 379.03,-229.25 359.15,-214.29"/>
<polygon fill="black" stroke="black" points="361.16,-211.42 351.06,-208.21 356.95,-217.01 361.16,-211.42"/>
<text text-anchor="middle" x="407.35" y="-231.8" font-family="Times,serif" font-size="14.00">कर्ता</text>
</g>
<!-- 3 -->
<g id="node3" class="node">
<title>3</title>
<g id="a_node3"><a xlink:title="सततम्{अव्य}">
<ellipse fill="#ff00ff" stroke="#ff00ff" cx="443.85" cy="-192" rx="50.89" ry="18"/>
<text text-anchor="middle" x="443.85" y="-188.3" font-family="Times,serif" font-size="14.00">सततम् (3)</text>
</a>
</g>
</g>
<!-- 2&#45;&gt;3 -->
<g id="edge2" class="edge">
<title>2&#45;&gt;3</title>
<path fill="none" stroke="black" d="M443.85,-260.8C443.85,-249.16 443.85,-233.55 443.85,-220.24"/>
<polygon fill="black" stroke="black" points="447.35,-220.18 443.85,-210.18 440.35,-220.18 447.35,-220.18"/>
<text text-anchor="middle" x="486.35" y="-231.8" font-family="Times,serif" font-size="14.00">क्रियाविशेषणम्</text>
</g>
<!-- 4 -->
<g id="node4" class="node">
<title>4</title>
<g id="a_node4"><a xlink:title="आत्मन्{पुं}{2;एक}">
<ellipse fill="#7cfc00" stroke="#7cfc00" cx="571.85" cy="-192" rx="59.29" ry="18"/>
<text text-anchor="middle" x="571.85" y="-188.3" font-family="Times,serif" font-size="14.00">आत्मानम् (4)</text>
</a>
</g>
</g>
<!-- 2&#45;&gt;4 -->
<g id="edge3" class="edge">
<title>2&#45;&gt;4</title>
<path fill="none" stroke="black" d="M484.29,-267.19C500.39,-261.64 518.48,-253.73 532.85,-243 541.84,-236.28 549.86,-226.98 556.25,-218.22"/>
<polygon fill="black" stroke="black" points="559.29,-219.98 562.08,-209.75 553.53,-216.01 559.29,-219.98"/>
<text text-anchor="middle" x="557.85" y="-231.8" font-family="Times,serif" font-size="14.00">कर्म</text>
</g>
<!-- 5 -->
<g id="node5" class="node">
<title>5</title>
<g id="a_node5"><a xlink:title="रहस्{नपुं}{7;एक}">
<ellipse fill="#708090" stroke="#708090" cx="44.85" cy="-18" rx="44.69" ry="18"/>
<text text-anchor="middle" x="44.85" y="-14.3" font-family="Times,serif" font-size="14.00">रहसि (5)</text>
</a>
</g>
</g>
<!-- 6&#45;&gt;5 -->
<g id="edge4" class="edge">
<title>6&#45;&gt;5</title>
<path fill="none" stroke="black" d="M88.07,-87.51C83.75,-81.74 78.97,-75.17 74.85,-69 69.67,-61.26 64.34,-52.62 59.63,-44.74"/>
<polygon fill="black" stroke="black" points="62.53,-42.77 54.44,-35.92 56.5,-46.32 62.53,-42.77"/>
<text text-anchor="middle" x="105.35" y="-57.8" font-family="Times,serif" font-size="14.00">अधिकरणम्</text>
</g>
<!-- 7 -->
<g id="node7" class="node">
<title>7</title>
<g id="a_node7"><a xlink:title="एकाकिन्{पुं}{1;एक}">
<ellipse fill="#00bfff" stroke="#00bfff" cx="157.85" cy="-18" rx="50.09" ry="18"/>
<text text-anchor="middle" x="157.85" y="-14.3" font-family="Times,serif" font-size="14.00">एकाकी (7)</text>
</a>
</g>
</g>
<!-- 6&#45;&gt;7 -->
<g id="edge6" class="edge">
<title>6&#45;&gt;7</title>
<path fill="none" stroke="black" d="M119.31,-88.05C125.1,-82.43 131.19,-75.81 135.85,-69 140.74,-61.85 144.94,-53.43 148.33,-45.56"/>
<polygon fill="black" stroke="black" points="151.68,-46.6 152.16,-36.02 145.18,-43.99 151.68,-46.6"/>
<text text-anchor="middle" x="157.35" y="-57.8" font-family="Times,serif" font-size="14.00">कर्ता</text>
</g>
</g>
</svg>
