<?xml version="1.0" encoding="UTF-8" standalone="no"?>
<!DOCTYPE svg PUBLIC "-//W3C//DTD SVG 1.1//EN"
 "http://www.w3.org/Graphics/SVG/1.1/DTD/svg11.dtd">
<!-- Generated by graphviz version 2.43.0 (0)
 -->
<!-- Title: %3 Pages: 1 -->
<svg width="795pt" height="305pt"
 viewBox="0.00 0.00 795.09 305.00" xmlns="http://www.w3.org/2000/svg" xmlns:xlink="http://www.w3.org/1999/xlink">
<g id="graph0" class="graph" transform="scale(1 1) rotate(0) translate(4 301)">
<title>%3</title>
<polygon fill="#fffacd" stroke="transparent" points="-4,4 -4,-301 791.09,-301 791.09,4 -4,4"/>
<!-- 1 -->
<g id="node1" class="node">
<title>1</title>
<g id="a_node1"><a xlink:title="असंयतात्मन्{पुं}{3;एक}">
<ellipse fill="#40e0d0" stroke="#40e0d0" cx="87.09" cy="-18" rx="87.18" ry="18"/>
<text text-anchor="middle" x="87.09" y="-14.3" font-family="Times,serif" font-size="14.00">अ&#45;संयत&#45;आत्मना (1)</text>
</a>
</g>
</g>
<!-- 2 -->
<g id="node2" class="node">
<title>2</title>
<g id="a_node2"><a xlink:title="योग{पुं}{1;एक}">
<ellipse fill="#00bfff" stroke="#00bfff" cx="237.09" cy="-18" rx="44.69" ry="18"/>
<text text-anchor="middle" x="237.09" y="-14.3" font-family="Times,serif" font-size="14.00">योगः (2)</text>
</a>
</g>
</g>
<!-- 3 -->
<g id="node3" class="node">
<title>3</title>
<g id="a_node3"><a xlink:title="दुस्_प्र_आप्1{कृत्_प्रत्ययः:क्त;दुस्_प्र_आपॢँ;स्वादिः;पुं}{1;एक}">
<ellipse fill="#00bfff" stroke="#00bfff" cx="237.09" cy="-105" rx="55.79" ry="18"/>
<text text-anchor="middle" x="237.09" y="-101.3" font-family="Times,serif" font-size="14.00">दुष्प्रापः (3)</text>
</a>
</g>
</g>
<!-- 3&#45;&gt;1 -->
<g id="edge1" class="edge">
<title>3&#45;&gt;1</title>
<path fill="none" stroke="black" d="M210.62,-89C186.67,-75.43 151.14,-55.29 124.33,-40.1"/>
<polygon fill="black" stroke="black" points="126.02,-37.04 115.6,-35.15 122.57,-43.13 126.02,-37.04"/>
<text text-anchor="middle" x="183.59" y="-57.8" font-family="Times,serif" font-size="14.00">कर्ता</text>
</g>
<!-- 3&#45;&gt;2 -->
<g id="edge2" class="edge">
<title>3&#45;&gt;2</title>
<path fill="none" stroke="black" d="M237.09,-86.8C237.09,-75.16 237.09,-59.55 237.09,-46.24"/>
<polygon fill="black" stroke="black" points="240.59,-46.18 237.09,-36.18 233.59,-46.18 240.59,-46.18"/>
<text text-anchor="middle" x="247.09" y="-57.8" font-family="Times,serif" font-size="14.00">कर्म</text>
</g>
<!-- 4 -->
<g id="node4" class="node">
<title>4</title>
<g id="a_node4"><a xlink:title="इति{अव्य}">
<ellipse fill="#ff00ff" stroke="#ff00ff" cx="340.09" cy="-18" rx="40.09" ry="18"/>
<text text-anchor="middle" x="340.09" y="-14.3" font-family="Times,serif" font-size="14.00">इति (4)</text>
</a>
</g>
</g>
<!-- 3&#45;&gt;4 -->
<g id="edge4" class="edge">
<title>3&#45;&gt;4</title>
<path fill="none" stroke="black" d="M256.47,-88.01C272.74,-74.58 296.13,-55.28 314.05,-40.5"/>
<polygon fill="black" stroke="black" points="316.36,-43.12 321.84,-34.06 311.9,-37.73 316.36,-43.12"/>
<text text-anchor="middle" x="325.09" y="-57.8" font-family="Times,serif" font-size="14.00">कर्मद्योतकः</text>
</g>
<!-- 5 -->
<g id="node5" class="node">
<title>5</title>
<g id="a_node5"><a xlink:title="अस्मद्{6;एक}">
<ellipse fill="#87ceeb" stroke="#87ceeb" cx="343.09" cy="-105" rx="32.49" ry="18"/>
<text text-anchor="middle" x="343.09" y="-101.3" font-family="Times,serif" font-size="14.00">मे (5)</text>
</a>
</g>
</g>
<!-- 6 -->
<g id="node6" class="node">
<title>6</title>
<g id="a_node6"><a xlink:title="मति{स्त्री}{1;एक}">
<ellipse fill="#00bfff" stroke="#00bfff" cx="297.09" cy="-192" rx="44.39" ry="18"/>
<text text-anchor="middle" x="297.09" y="-188.3" font-family="Times,serif" font-size="14.00">मतिः (6)</text>
</a>
</g>
</g>
<!-- 6&#45;&gt;3 -->
<g id="edge3" class="edge">
<title>6&#45;&gt;3</title>
<path fill="none" stroke="black" d="M285.52,-174.61C276.78,-162.23 264.63,-145.01 254.69,-130.92"/>
<polygon fill="black" stroke="black" points="257.46,-128.78 248.83,-122.63 251.74,-132.82 257.46,-128.78"/>
<text text-anchor="middle" x="281.09" y="-144.8" font-family="Times,serif" font-size="14.00">कर्म</text>
</g>
<!-- 6&#45;&gt;5 -->
<g id="edge5" class="edge">
<title>6&#45;&gt;5</title>
<path fill="none" stroke="black" d="M306.18,-174.21C312.78,-162.02 321.81,-145.32 329.3,-131.49"/>
<polygon fill="black" stroke="black" points="332.5,-132.93 334.18,-122.47 326.34,-129.6 332.5,-132.93"/>
<text text-anchor="middle" x="359.09" y="-144.8" font-family="Times,serif" font-size="14.00">षष्ठीसम्बन्धः</text>
</g>
<!-- 6.1 -->
<g id="node7" class="node">
<title>6.1</title>
<g id="a_node7"><a xlink:title="&#45;">
<ellipse fill="#808080" stroke="#808080" cx="297.09" cy="-279" rx="63.09" ry="18"/>
<text text-anchor="middle" x="297.09" y="-275.3" font-family="Times,serif" font-size="14.00">(अस्ति) (6.1)</text>
</a>
</g>
</g>
<!-- 6.1&#45;&gt;6 -->
<g id="edge6" class="edge">
<title>6.1&#45;&gt;6</title>
<path fill="none" stroke="black" d="M297.09,-260.8C297.09,-249.16 297.09,-233.55 297.09,-220.24"/>
<polygon fill="black" stroke="black" points="300.59,-220.18 297.09,-210.18 293.59,-220.18 300.59,-220.18"/>
<text text-anchor="middle" x="309.59" y="-231.8" font-family="Times,serif" font-size="14.00">कर्ता</text>
</g>
<!-- 7 -->
<g id="node8" class="node">
<title>7</title>
<g id="a_node8"><a xlink:title="वश्य&#45;आत्मन्{पुं}{3;एक}">
<ellipse fill="#40e0d0" stroke="#40e0d0" cx="460.09" cy="-192" rx="74.19" ry="18"/>
<text text-anchor="middle" x="460.09" y="-188.3" font-family="Times,serif" font-size="14.00">वश्य&#45;आत्मना (7)</text>
</a>
</g>
</g>
<!-- 9 -->
<g id="node10" class="node">
<title>9</title>
<g id="a_node10"><a xlink:title="यत्1{कृत्_प्रत्ययः:शतृ;यतीँ;भ्वादिः;पुं}{3;एक}">
<ellipse fill="#40e0d0" stroke="#40e0d0" cx="460.09" cy="-105" rx="47.39" ry="18"/>
<text text-anchor="middle" x="460.09" y="-101.3" font-family="Times,serif" font-size="14.00">यतता (9)</text>
</a>
</g>
</g>
<!-- 7&#45;&gt;9 -->
<g id="edge9" class="edge">
<title>7&#45;&gt;9</title>
<path fill="none" stroke="black" d="M460.09,-173.8C460.09,-162.16 460.09,-146.55 460.09,-133.24"/>
<polygon fill="black" stroke="black" points="463.59,-133.18 460.09,-123.18 456.59,-133.18 463.59,-133.18"/>
<text text-anchor="middle" x="485.59" y="-144.8" font-family="Times,serif" font-size="14.00">विशेषणम्</text>
</g>
<!-- 8 -->
<g id="node9" class="node">
<title>8</title>
<g id="a_node9"><a xlink:title="तु{अव्य}">
<ellipse fill="#ff00ff" stroke="#ff00ff" cx="585.09" cy="-192" rx="32.49" ry="18"/>
<text text-anchor="middle" x="585.09" y="-188.3" font-family="Times,serif" font-size="14.00">तु (8)</text>
</a>
</g>
</g>
<!-- 10 -->
<g id="node11" class="node">
<title>10</title>
<g id="a_node11"><a xlink:title="अव_आप्1{कृत्_प्रत्ययः:तुमुन्;अव_आपॢँ;स्वादिः}">
<ellipse fill="#808080" stroke="#808080" cx="699.09" cy="-192" rx="63.89" ry="18"/>
<text text-anchor="middle" x="699.09" y="-188.3" font-family="Times,serif" font-size="14.00">अवाप्तुम् (10)</text>
</a>
</g>
</g>
<!-- 11 -->
<g id="node13" class="node">
<title>11</title>
<g id="a_node13"><a xlink:title="उपायतः{अव्य}">
<ellipse fill="#ff00ff" stroke="#ff00ff" cx="699.09" cy="-105" rx="61.19" ry="18"/>
<text text-anchor="middle" x="699.09" y="-101.3" font-family="Times,serif" font-size="14.00">उपायतः (11)</text>
</a>
</g>
</g>
<!-- 10&#45;&gt;11 -->
<g id="edge11" class="edge">
<title>10&#45;&gt;11</title>
<path fill="none" stroke="black" d="M699.09,-173.8C699.09,-162.16 699.09,-146.55 699.09,-133.24"/>
<polygon fill="black" stroke="black" points="702.59,-133.18 699.09,-123.18 695.59,-133.18 702.59,-133.18"/>
<text text-anchor="middle" x="743.09" y="-144.8" font-family="Times,serif" font-size="14.00">क्रियाविशेषणम् </text>
</g>
<!-- 10.1 -->
<g id="node12" class="node">
<title>10.1</title>
<g id="a_node12"><a xlink:title="&#45;">
<ellipse fill="#808080" stroke="#808080" cx="585.09" cy="-279" rx="63.09" ry="18"/>
<text text-anchor="middle" x="585.09" y="-275.3" font-family="Times,serif" font-size="14.00">शक्यः (10.1)</text>
</a>
</g>
</g>
<!-- 10.1&#45;&gt;7 -->
<g id="edge7" class="edge">
<title>10.1&#45;&gt;7</title>
<path fill="none" stroke="black" d="M561.87,-262.21C542.3,-248.9 514.09,-229.72 492.33,-214.92"/>
<polygon fill="black" stroke="black" points="494.27,-212.01 484.04,-209.28 490.34,-217.8 494.27,-212.01"/>
<text text-anchor="middle" x="542.59" y="-231.8" font-family="Times,serif" font-size="14.00">कर्ता</text>
</g>
<!-- 10.1&#45;&gt;8 -->
<g id="edge8" class="edge">
<title>10.1&#45;&gt;8</title>
<path fill="none" stroke="black" d="M585.09,-260.8C585.09,-249.16 585.09,-233.55 585.09,-220.24"/>
<polygon fill="black" stroke="black" points="588.59,-220.18 585.09,-210.18 581.59,-220.18 588.59,-220.18"/>
<text text-anchor="middle" x="608.09" y="-231.8" font-family="Times,serif" font-size="14.00">सम्बन्धः</text>
</g>
<!-- 10.1&#45;&gt;10 -->
<g id="edge10" class="edge">
<title>10.1&#45;&gt;10</title>
<path fill="none" stroke="black" d="M608.17,-262.22C616.7,-256.29 626.4,-249.43 635.09,-243 646.92,-234.25 659.75,-224.32 670.79,-215.63"/>
<polygon fill="black" stroke="black" points="673.16,-218.21 678.84,-209.26 668.82,-212.72 673.16,-218.21"/>
<text text-anchor="middle" x="694.09" y="-231.8" font-family="Times,serif" font-size="14.00">सहायकक्रिया </text>
</g>
</g>
</svg>
