<?xml version="1.0" encoding="UTF-8" standalone="no"?>
<!DOCTYPE svg PUBLIC "-//W3C//DTD SVG 1.1//EN"
 "http://www.w3.org/Graphics/SVG/1.1/DTD/svg11.dtd">
<!-- Generated by graphviz version 2.43.0 (0)
 -->
<!-- Title: %3 Pages: 1 -->
<svg width="347pt" height="479pt"
 viewBox="0.00 0.00 347.18 479.00" xmlns="http://www.w3.org/2000/svg" xmlns:xlink="http://www.w3.org/1999/xlink">
<g id="graph0" class="graph" transform="scale(1 1) rotate(0) translate(4 475)">
<title>%3</title>
<polygon fill="#fffacd" stroke="transparent" points="-4,4 -4,-475 343.18,-475 343.18,4 -4,4"/>
<!-- 1 -->
<g id="node1" class="node">
<title>1</title>
<g id="a_node1"><a xlink:title="जित&#45;आत्मन्{पुं}{6;एक}">
<ellipse fill="#87ceeb" stroke="#87ceeb" cx="72.79" cy="-366" rx="72.59" ry="18"/>
<text text-anchor="middle" x="72.79" y="-362.3" font-family="Times,serif" font-size="14.00">जित&#45;आत्मनः (1)</text>
</a>
</g>
</g>
<!-- 2 -->
<g id="node2" class="node">
<title>2</title>
<g id="a_node2"><a xlink:title="प्रशान्त{पुं}{6;एक}">
<ellipse fill="#87ceeb" stroke="#87ceeb" cx="72.79" cy="-279" rx="65.79" ry="18"/>
<text text-anchor="middle" x="72.79" y="-275.3" font-family="Times,serif" font-size="14.00">प्रशान्तस्य (2)</text>
</a>
</g>
</g>
<!-- 1&#45;&gt;2 -->
<g id="edge2" class="edge">
<title>1&#45;&gt;2</title>
<path fill="none" stroke="black" d="M72.79,-347.8C72.79,-336.16 72.79,-320.55 72.79,-307.24"/>
<polygon fill="black" stroke="black" points="76.29,-307.18 72.79,-297.18 69.29,-307.18 76.29,-307.18"/>
<text text-anchor="middle" x="98.29" y="-318.8" font-family="Times,serif" font-size="14.00">विशेषणम्</text>
</g>
<!-- 3 -->
<g id="node3" class="node">
<title>3</title>
<g id="a_node3"><a xlink:title="परमात्मन्{पुं}{1;एक}">
<ellipse fill="#00bfff" stroke="#00bfff" cx="167.79" cy="-453" rx="66.09" ry="18"/>
<text text-anchor="middle" x="167.79" y="-449.3" font-family="Times,serif" font-size="14.00">परम&#45;आत्मा (3)</text>
</a>
</g>
</g>
<!-- 3&#45;&gt;1 -->
<g id="edge1" class="edge">
<title>3&#45;&gt;1</title>
<path fill="none" stroke="black" d="M119.84,-440.47C106.86,-435.24 93.9,-427.73 84.79,-417 79.35,-410.59 76.29,-402.12 74.59,-393.98"/>
<polygon fill="black" stroke="black" points="78.05,-393.4 73.1,-384.03 71.12,-394.44 78.05,-393.4"/>
<text text-anchor="middle" x="120.79" y="-405.8" font-family="Times,serif" font-size="14.00">षष्ठीसम्बन्धः</text>
</g>
<!-- 4 -->
<g id="node4" class="node">
<title>4</title>
<g id="a_node4"><a xlink:title="सम्_आङ्_धा1{कृत्_प्रत्ययः:क्त;सम्_आङ्_डुधाञ्;जुहोत्यादिः;पुं}{1;एक}">
<ellipse fill="#00bfff" stroke="#00bfff" cx="237.79" cy="-366" rx="59.29" ry="18"/>
<text text-anchor="middle" x="237.79" y="-362.3" font-family="Times,serif" font-size="14.00">समाहितः (4)</text>
</a>
</g>
</g>
<!-- 3&#45;&gt;4 -->
<g id="edge4" class="edge">
<title>3&#45;&gt;4</title>
<path fill="none" stroke="black" d="M162.06,-435.01C159.67,-424.7 158.68,-411.71 164.79,-402 169.8,-394.05 177.16,-387.87 185.32,-383.07"/>
<polygon fill="black" stroke="black" points="187.12,-386.08 194.4,-378.39 183.91,-379.86 187.12,-386.08"/>
<text text-anchor="middle" x="195.79" y="-405.8" font-family="Times,serif" font-size="14.00">अभिहिकर्ता</text>
</g>
<!-- 4&#45;&gt;3 -->
<g id="edge3" class="edge">
<title>4&#45;&gt;3</title>
<path fill="none" stroke="black" d="M239.07,-384.11C239,-394.46 237.34,-407.46 230.79,-417 226.56,-423.17 220.86,-428.37 214.62,-432.71"/>
<polygon fill="black" stroke="black" points="212.53,-429.89 205.86,-438.11 216.21,-435.85 212.53,-429.89"/>
<text text-anchor="middle" x="249.29" y="-405.8" font-family="Times,serif" font-size="14.00">कर्ता</text>
</g>
<!-- 7.1 -->
<g id="node8" class="node">
<title>7.1</title>
<g id="a_node8"><a xlink:title="(अस्2{कृत्_प्रत्ययः:शतृ;असँ;अदादिः;पुं}{7;बहु})">
<ellipse fill="#708090" stroke="#708090" cx="237.79" cy="-279" rx="59.29" ry="18"/>
<text text-anchor="middle" x="237.79" y="-275.3" font-family="Times,serif" font-size="14.00">(सत्सु) (7.1)</text>
</a>
</g>
</g>
<!-- 4&#45;&gt;7.1 -->
<g id="edge8" class="edge">
<title>4&#45;&gt;7.1</title>
<path fill="none" stroke="black" d="M237.79,-347.8C237.79,-336.16 237.79,-320.55 237.79,-307.24"/>
<polygon fill="black" stroke="black" points="241.29,-307.18 237.79,-297.18 234.29,-307.18 241.29,-307.18"/>
<text text-anchor="middle" x="282.29" y="-318.8" font-family="Times,serif" font-size="14.00">भावलक्षणसप्तमी</text>
</g>
<!-- 5 -->
<g id="node5" class="node">
<title>5</title>
<g id="a_node5"><a xlink:title="शीत&#45;उष्ण&#45;सुख&#45;दुःख{नपुं}{7;बहु}">
<ellipse fill="#708090" stroke="#708090" cx="237.79" cy="-192" rx="101.28" ry="18"/>
<text text-anchor="middle" x="237.79" y="-188.3" font-family="Times,serif" font-size="14.00">शीत&#45;उष्ण&#45;सुख&#45;दुःखेषु (5)</text>
</a>
</g>
</g>
<!-- 7 -->
<g id="node7" class="node">
<title>7</title>
<g id="a_node7"><a xlink:title="मान&#45;अपमान{पुं}{7;द्वि}">
<ellipse fill="#708090" stroke="#708090" cx="237.79" cy="-105" rx="80.69" ry="18"/>
<text text-anchor="middle" x="237.79" y="-101.3" font-family="Times,serif" font-size="14.00">मान&#45;अपमानयोः (7)</text>
</a>
</g>
</g>
<!-- 5&#45;&gt;7 -->
<g id="edge7" class="edge">
<title>5&#45;&gt;7</title>
<path fill="none" stroke="black" d="M237.79,-173.8C237.79,-162.16 237.79,-146.55 237.79,-133.24"/>
<polygon fill="black" stroke="black" points="241.29,-133.18 237.79,-123.18 234.29,-133.18 241.29,-133.18"/>
<text text-anchor="middle" x="280.29" y="-144.8" font-family="Times,serif" font-size="14.00">सुप्_समुच्चितम्</text>
</g>
<!-- 6 -->
<g id="node6" class="node">
<title>6</title>
<g id="a_node6"><a xlink:title="तथा{अव्य}">
<ellipse fill="#ff00ff" stroke="#ff00ff" cx="237.79" cy="-18" rx="40.89" ry="18"/>
<text text-anchor="middle" x="237.79" y="-14.3" font-family="Times,serif" font-size="14.00">तथा (6)</text>
</a>
</g>
</g>
<!-- 7&#45;&gt;6 -->
<g id="edge6" class="edge">
<title>7&#45;&gt;6</title>
<path fill="none" stroke="black" d="M237.79,-86.8C237.79,-75.16 237.79,-59.55 237.79,-46.24"/>
<polygon fill="black" stroke="black" points="241.29,-46.18 237.79,-36.18 234.29,-46.18 241.29,-46.18"/>
<text text-anchor="middle" x="280.29" y="-57.8" font-family="Times,serif" font-size="14.00">समुच्चयद्योतकः</text>
</g>
<!-- 7.1&#45;&gt;5 -->
<g id="edge5" class="edge">
<title>7.1&#45;&gt;5</title>
<path fill="none" stroke="black" d="M237.79,-260.8C237.79,-249.16 237.79,-233.55 237.79,-220.24"/>
<polygon fill="black" stroke="black" points="241.29,-220.18 237.79,-210.18 234.29,-220.18 241.29,-220.18"/>
<text text-anchor="middle" x="250.29" y="-231.8" font-family="Times,serif" font-size="14.00">कर्ता</text>
</g>
</g>
</svg>
