<?xml version="1.0" encoding="UTF-8" standalone="no"?>
<!DOCTYPE svg PUBLIC "-//W3C//DTD SVG 1.1//EN"
 "http://www.w3.org/Graphics/SVG/1.1/DTD/svg11.dtd">
<!-- Generated by graphviz version 2.43.0 (0)
 -->
<!-- Title: %3 Pages: 1 -->
<svg width="670pt" height="218pt"
 viewBox="0.00 0.00 670.44 218.00" xmlns="http://www.w3.org/2000/svg" xmlns:xlink="http://www.w3.org/1999/xlink">
<g id="graph0" class="graph" transform="scale(1 1) rotate(0) translate(4 214)">
<title>%3</title>
<polygon fill="#fffacd" stroke="transparent" points="-4,4 -4,-214 666.44,-214 666.44,4 -4,4"/>
<!-- 1 -->
<g id="node1" class="node">
<title>1</title>
<g id="a_node1"><a xlink:title="प्रयत्न{पुं}{5;एक}">
<ellipse fill="#90ee90" stroke="#90ee90" cx="59.79" cy="-105" rx="59.59" ry="18"/>
<text text-anchor="middle" x="59.79" y="-101.3" font-family="Times,serif" font-size="14.00">प्रयत्नात् (1)</text>
</a>
</g>
</g>
<!-- 2 -->
<g id="node2" class="node">
<title>2</title>
<g id="a_node2"><a xlink:title="यत्1{कृत्_प्रत्ययः:शानच्;यती;भ्वादिः;पुं}{1;एक}{पुं}{1;एक}">
<ellipse fill="#00bfff" stroke="#00bfff" cx="192.79" cy="-105" rx="55.49" ry="18"/>
<text text-anchor="middle" x="192.79" y="-101.3" font-family="Times,serif" font-size="14.00">यतमानः (2)</text>
</a>
</g>
</g>
<!-- 3 -->
<g id="node3" class="node">
<title>3</title>
<g id="a_node3"><a xlink:title="तु{अव्य}">
<ellipse fill="#ff00ff" stroke="#ff00ff" cx="298.79" cy="-105" rx="32.49" ry="18"/>
<text text-anchor="middle" x="298.79" y="-101.3" font-family="Times,serif" font-size="14.00">तु (3)</text>
</a>
</g>
</g>
<!-- 4 -->
<g id="node4" class="node">
<title>4</title>
<g id="a_node4"><a xlink:title="योगिन्{पुं}{1;एक}">
<ellipse fill="#00bfff" stroke="#00bfff" cx="393.79" cy="-105" rx="44.39" ry="18"/>
<text text-anchor="middle" x="393.79" y="-101.3" font-family="Times,serif" font-size="14.00">योगी (4)</text>
</a>
</g>
</g>
<!-- 5 -->
<g id="node5" class="node">
<title>5</title>
<g id="a_node5"><a xlink:title="संशुद्ध&#45;किल्बिष{पुं}{1;एक}">
<ellipse fill="#00bfff" stroke="#00bfff" cx="215.79" cy="-18" rx="81.49" ry="18"/>
<text text-anchor="middle" x="215.79" y="-14.3" font-family="Times,serif" font-size="14.00">संशुद्ध&#45;किल्बिषः (5)</text>
</a>
</g>
</g>
<!-- 4&#45;&gt;5 -->
<g id="edge5" class="edge">
<title>4&#45;&gt;5</title>
<path fill="none" stroke="black" d="M365.98,-90.72C336.94,-76.85 291.03,-54.93 257.62,-38.97"/>
<polygon fill="black" stroke="black" points="259.08,-35.79 248.55,-34.64 256.06,-42.11 259.08,-35.79"/>
<text text-anchor="middle" x="341.29" y="-57.8" font-family="Times,serif" font-size="14.00">विशेषणम्</text>
</g>
<!-- 6 -->
<g id="node6" class="node">
<title>6</title>
<g id="a_node6"><a xlink:title="अनेक&#45;जन्मन्&#45;संसिद्ध{पुं}{1;एक}">
<ellipse fill="#00bfff" stroke="#00bfff" cx="418.79" cy="-18" rx="103.18" ry="18"/>
<text text-anchor="middle" x="418.79" y="-14.3" font-family="Times,serif" font-size="14.00">अन्&#45;एक&#45;जन्म&#45;संसिद्धः (6)</text>
</a>
</g>
</g>
<!-- 4&#45;&gt;6 -->
<g id="edge6" class="edge">
<title>4&#45;&gt;6</title>
<path fill="none" stroke="black" d="M398.85,-86.8C402.31,-75.05 406.96,-59.24 410.9,-45.84"/>
<polygon fill="black" stroke="black" points="414.28,-46.76 413.74,-36.18 407.56,-44.78 414.28,-46.76"/>
<text text-anchor="middle" x="433.29" y="-57.8" font-family="Times,serif" font-size="14.00">विशेषणम्</text>
</g>
<!-- 7 -->
<g id="node7" class="node">
<title>7</title>
<g id="a_node7"><a xlink:title="ततः{अव्य}">
<ellipse fill="#ff00ff" stroke="#ff00ff" cx="497.79" cy="-105" rx="41.69" ry="18"/>
<text text-anchor="middle" x="497.79" y="-101.3" font-family="Times,serif" font-size="14.00">ततः (7)</text>
</a>
</g>
</g>
<!-- 8 -->
<g id="node8" class="node">
<title>8</title>
<g id="a_node8"><a xlink:title="या1{कर्तरि;लट्;प्र;एक;परस्मैपदी;या;अदादिः}">
<ellipse fill="#ff6347" stroke="#ff6347" cx="352.79" cy="-192" rx="44.39" ry="18"/>
<text text-anchor="middle" x="352.79" y="-188.3" font-family="Times,serif" font-size="14.00">याति (8)</text>
</a>
</g>
</g>
<!-- 8&#45;&gt;1 -->
<g id="edge1" class="edge">
<title>8&#45;&gt;1</title>
<path fill="none" stroke="black" d="M311.28,-185.53C274.58,-180.08 219.88,-170.42 173.79,-156 147.74,-147.85 119.65,-135.57 97.87,-125.22"/>
<polygon fill="black" stroke="black" points="99.17,-121.96 88.64,-120.77 96.13,-128.27 99.17,-121.96"/>
<text text-anchor="middle" x="185.29" y="-144.8" font-family="Times,serif" font-size="14.00">हेतुः</text>
</g>
<!-- 8&#45;&gt;2 -->
<g id="edge2" class="edge">
<title>8&#45;&gt;2</title>
<path fill="none" stroke="black" d="M308.57,-190.92C277.34,-188.54 236.46,-180.43 209.79,-156 203.26,-150.01 199.23,-141.42 196.76,-133.03"/>
<polygon fill="black" stroke="black" points="200.12,-132.05 194.44,-123.11 193.3,-133.64 200.12,-132.05"/>
<text text-anchor="middle" x="259.79" y="-144.8" font-family="Times,serif" font-size="14.00">वर्तमानसमानकालः</text>
</g>
<!-- 8&#45;&gt;3 -->
<g id="edge3" class="edge">
<title>8&#45;&gt;3</title>
<path fill="none" stroke="black" d="M336.91,-175.07C331.7,-169.35 326.14,-162.66 321.79,-156 316.97,-148.6 312.63,-140.03 309.06,-132.1"/>
<polygon fill="black" stroke="black" points="312.25,-130.66 305.09,-122.85 305.82,-133.42 312.25,-130.66"/>
<text text-anchor="middle" x="344.79" y="-144.8" font-family="Times,serif" font-size="14.00">सम्बन्धः</text>
</g>
<!-- 8&#45;&gt;4 -->
<g id="edge4" class="edge">
<title>8&#45;&gt;4</title>
<path fill="none" stroke="black" d="M360.89,-174.21C366.68,-162.22 374.57,-145.85 381.18,-132.16"/>
<polygon fill="black" stroke="black" points="384.52,-133.29 385.71,-122.76 378.21,-130.24 384.52,-133.29"/>
<text text-anchor="middle" x="388.29" y="-144.8" font-family="Times,serif" font-size="14.00">कर्ता</text>
</g>
<!-- 8&#45;&gt;7 -->
<g id="edge7" class="edge">
<title>8&#45;&gt;7</title>
<path fill="none" stroke="black" d="M377.06,-176.77C401.26,-162.59 438.56,-140.72 465.3,-125.05"/>
<polygon fill="black" stroke="black" points="467.07,-128.07 473.93,-119.99 463.53,-122.03 467.07,-128.07"/>
<text text-anchor="middle" x="461.29" y="-144.8" font-family="Times,serif" font-size="14.00">अपादानम्</text>
</g>
<!-- 10 -->
<g id="node10" class="node">
<title>10</title>
<g id="a_node10"><a xlink:title="गति{स्त्री}{2;एक}">
<ellipse fill="#7cfc00" stroke="#7cfc00" cx="609.79" cy="-105" rx="52.79" ry="18"/>
<text text-anchor="middle" x="609.79" y="-101.3" font-family="Times,serif" font-size="14.00">गतिम् (10)</text>
</a>
</g>
</g>
<!-- 8&#45;&gt;10 -->
<g id="edge9" class="edge">
<title>8&#45;&gt;10</title>
<path fill="none" stroke="black" d="M391.31,-182.98C419.47,-176.71 458.41,-167.2 491.79,-156 518.74,-146.96 548.18,-134.49 570.91,-124.27"/>
<polygon fill="black" stroke="black" points="572.56,-127.36 580.22,-120.04 569.66,-120.99 572.56,-127.36"/>
<text text-anchor="middle" x="541.79" y="-144.8" font-family="Times,serif" font-size="14.00">कर्म</text>
</g>
<!-- 9 -->
<g id="node9" class="node">
<title>9</title>
<g id="a_node9"><a xlink:title="परा{स्त्री}{2;एक}">
<ellipse fill="#7cfc00" stroke="#7cfc00" cx="609.79" cy="-18" rx="44.69" ry="18"/>
<text text-anchor="middle" x="609.79" y="-14.3" font-family="Times,serif" font-size="14.00">पराम् (9)</text>
</a>
</g>
</g>
<!-- 10&#45;&gt;9 -->
<g id="edge8" class="edge">
<title>10&#45;&gt;9</title>
<path fill="none" stroke="black" d="M609.79,-86.8C609.79,-75.16 609.79,-59.55 609.79,-46.24"/>
<polygon fill="black" stroke="black" points="613.29,-46.18 609.79,-36.18 606.29,-46.18 613.29,-46.18"/>
<text text-anchor="middle" x="635.29" y="-57.8" font-family="Times,serif" font-size="14.00">विशेषणम्</text>
</g>
</g>
</svg>
