<?xml version="1.0" encoding="UTF-8" standalone="no"?>
<!DOCTYPE svg PUBLIC "-//W3C//DTD SVG 1.1//EN"
 "http://www.w3.org/Graphics/SVG/1.1/DTD/svg11.dtd">
<!-- Generated by graphviz version 2.43.0 (0)
 -->
<!-- Title: %3 Pages: 1 -->
<svg width="277pt" height="479pt"
 viewBox="0.00 0.00 276.69 479.00" xmlns="http://www.w3.org/2000/svg" xmlns:xlink="http://www.w3.org/1999/xlink">
<g id="graph0" class="graph" transform="scale(1 1) rotate(0) translate(4 475)">
<title>%3</title>
<polygon fill="#fffacd" stroke="transparent" points="-4,4 -4,-475 272.69,-475 272.69,4 -4,4"/>
<!-- 1 -->
<g id="node1" class="node">
<title>1</title>
<g id="a_node1"><a xlink:title="इच्छा&#45;द्वेष&#45;समुत्थ{पुं}{3;एक}">
<ellipse fill="#40e0d0" stroke="#40e0d0" cx="177.05" cy="-18" rx="91.78" ry="18"/>
<text text-anchor="middle" x="177.05" y="-14.3" font-family="Times,serif" font-size="14.00">इच्छा&#45;द्वेष&#45;समुत्थेन (1)</text>
</a>
</g>
</g>
<!-- 2 -->
<g id="node2" class="node">
<title>2</title>
<g id="a_node2"><a xlink:title="द्वन्द्व&#45;मोह{पुं}{3;एक}">
<ellipse fill="#40e0d0" stroke="#40e0d0" cx="177.05" cy="-105" rx="63.89" ry="18"/>
<text text-anchor="middle" x="177.05" y="-101.3" font-family="Times,serif" font-size="14.00">द्वन्द्व&#45;मोहेन (2)</text>
</a>
</g>
</g>
<!-- 2&#45;&gt;1 -->
<g id="edge1" class="edge">
<title>2&#45;&gt;1</title>
<path fill="none" stroke="black" d="M177.05,-86.8C177.05,-75.16 177.05,-59.55 177.05,-46.24"/>
<polygon fill="black" stroke="black" points="180.55,-46.18 177.05,-36.18 173.55,-46.18 180.55,-46.18"/>
<text text-anchor="middle" x="202.55" y="-57.8" font-family="Times,serif" font-size="14.00">विशेषणम्</text>
</g>
<!-- 3 -->
<g id="node3" class="node">
<title>3</title>
<g id="a_node3"><a xlink:title="भारत{पुं}{8;एक}">
<ellipse fill="#7fffd4" stroke="#7fffd4" cx="50.05" cy="-366" rx="44.39" ry="18"/>
<text text-anchor="middle" x="50.05" y="-362.3" font-family="Times,serif" font-size="14.00">भारत (3)</text>
</a>
</g>
</g>
<!-- 8 -->
<g id="node8" class="node">
<title>8</title>
<g id="a_node8"><a xlink:title="परन्तप{पुं}{8;एक}">
<ellipse fill="#7fffd4" stroke="#7fffd4" cx="50.05" cy="-279" rx="50.09" ry="18"/>
<text text-anchor="middle" x="50.05" y="-275.3" font-family="Times,serif" font-size="14.00">परन्तप (8)</text>
</a>
</g>
</g>
<!-- 3&#45;&gt;8 -->
<g id="edge7" class="edge">
<title>3&#45;&gt;8</title>
<path fill="none" stroke="black" d="M50.05,-347.8C50.05,-336.16 50.05,-320.55 50.05,-307.24"/>
<polygon fill="black" stroke="black" points="53.55,-307.18 50.05,-297.18 46.55,-307.18 53.55,-307.18"/>
<text text-anchor="middle" x="75.55" y="-318.8" font-family="Times,serif" font-size="14.00">विशेषणम्</text>
</g>
<!-- 4 -->
<g id="node4" class="node">
<title>4</title>
<g id="a_node4"><a xlink:title="सर्व&#45;भूत{नपुं}{1;बहु}">
<ellipse fill="#00bfff" stroke="#00bfff" cx="177.05" cy="-366" rx="64.19" ry="18"/>
<text text-anchor="middle" x="177.05" y="-362.3" font-family="Times,serif" font-size="14.00">सर्व&#45;भूतानि (4)</text>
</a>
</g>
</g>
<!-- 5 -->
<g id="node5" class="node">
<title>5</title>
<g id="a_node5"><a xlink:title="सम्मोह{पुं}{2;एक}">
<ellipse fill="#7cfc00" stroke="#7cfc00" cx="177.05" cy="-279" rx="57.39" ry="18"/>
<text text-anchor="middle" x="177.05" y="-275.3" font-family="Times,serif" font-size="14.00">सम्मोहम् (5)</text>
</a>
</g>
</g>
<!-- 4&#45;&gt;5 -->
<g id="edge5" class="edge">
<title>4&#45;&gt;5</title>
<path fill="none" stroke="black" d="M177.05,-347.8C177.05,-336.16 177.05,-320.55 177.05,-307.24"/>
<polygon fill="black" stroke="black" points="180.55,-307.18 177.05,-297.18 173.55,-307.18 180.55,-307.18"/>
<text text-anchor="middle" x="187.05" y="-318.8" font-family="Times,serif" font-size="14.00">कर्म</text>
</g>
<!-- 6 -->
<g id="node6" class="node">
<title>6</title>
<g id="a_node6"><a xlink:title="सर्ग{पुं}{7;एक}">
<ellipse fill="#708090" stroke="#708090" cx="177.05" cy="-192" rx="39.79" ry="18"/>
<text text-anchor="middle" x="177.05" y="-188.3" font-family="Times,serif" font-size="14.00">सर्गे (6)</text>
</a>
</g>
</g>
<!-- 5&#45;&gt;6 -->
<g id="edge6" class="edge">
<title>5&#45;&gt;6</title>
<path fill="none" stroke="black" d="M177.05,-260.8C177.05,-249.16 177.05,-233.55 177.05,-220.24"/>
<polygon fill="black" stroke="black" points="180.55,-220.18 177.05,-210.18 173.55,-220.18 180.55,-220.18"/>
<text text-anchor="middle" x="207.55" y="-231.8" font-family="Times,serif" font-size="14.00">अधिकरणम्</text>
</g>
<!-- 6&#45;&gt;2 -->
<g id="edge2" class="edge">
<title>6&#45;&gt;2</title>
<path fill="none" stroke="black" d="M177.05,-173.8C177.05,-162.16 177.05,-146.55 177.05,-133.24"/>
<polygon fill="black" stroke="black" points="180.55,-133.18 177.05,-123.18 173.55,-133.18 180.55,-133.18"/>
<text text-anchor="middle" x="195.05" y="-144.8" font-family="Times,serif" font-size="14.00">करणम्</text>
</g>
<!-- 7 -->
<g id="node7" class="node">
<title>7</title>
<g id="a_node7"><a xlink:title="या1{कर्तरि;लट्;प्र;बहु;परस्मैपदी;या;अदादिः}">
<ellipse fill="#ff6347" stroke="#ff6347" cx="113.05" cy="-453" rx="47.39" ry="18"/>
<text text-anchor="middle" x="113.05" y="-449.3" font-family="Times,serif" font-size="14.00">यान्ति (7)</text>
</a>
</g>
</g>
<!-- 7&#45;&gt;3 -->
<g id="edge3" class="edge">
<title>7&#45;&gt;3</title>
<path fill="none" stroke="black" d="M100.6,-435.21C91.39,-422.79 78.71,-405.67 68.35,-391.7"/>
<polygon fill="black" stroke="black" points="71.02,-389.42 62.25,-383.47 65.39,-393.59 71.02,-389.42"/>
<text text-anchor="middle" x="111.55" y="-405.8" font-family="Times,serif" font-size="14.00">सम्बोध्यः</text>
</g>
<!-- 7&#45;&gt;4 -->
<g id="edge4" class="edge">
<title>7&#45;&gt;4</title>
<path fill="none" stroke="black" d="M126.61,-435.4C131.25,-429.63 136.43,-423.07 141.05,-417 147.13,-408.99 153.59,-400.12 159.35,-392.11"/>
<polygon fill="black" stroke="black" points="162.3,-394 165.25,-383.82 156.6,-389.93 162.3,-394"/>
<text text-anchor="middle" x="164.55" y="-405.8" font-family="Times,serif" font-size="14.00">कर्ता</text>
</g>
</g>
</svg>
