<?xml version="1.0" encoding="UTF-8" standalone="no"?>
<!DOCTYPE svg PUBLIC "-//W3C//DTD SVG 1.1//EN"
 "http://www.w3.org/Graphics/SVG/1.1/DTD/svg11.dtd">
<!-- Generated by graphviz version 2.43.0 (0)
 -->
<!-- Title: %3 Pages: 1 -->
<svg width="410pt" height="479pt"
 viewBox="0.00 0.00 409.59 479.00" xmlns="http://www.w3.org/2000/svg" xmlns:xlink="http://www.w3.org/1999/xlink">
<g id="graph0" class="graph" transform="scale(1 1) rotate(0) translate(4 475)">
<title>%3</title>
<polygon fill="#fffacd" stroke="transparent" points="-4,4 -4,-475 405.59,-475 405.59,4 -4,4"/>
<!-- 1 -->
<g id="node1" class="node">
<title>1</title>
<g id="a_node1"><a xlink:title="काम{पुं}{3;बहु}">
<ellipse fill="#40e0d0" stroke="#40e0d0" cx="45.5" cy="-192" rx="45.49" ry="18"/>
<text text-anchor="middle" x="45.5" y="-188.3" font-family="Times,serif" font-size="14.00">कामैः (1)</text>
</a>
</g>
</g>
<!-- 3 -->
<g id="node3" class="node">
<title>3</title>
<g id="a_node3"><a xlink:title="तद्{पुं}{3;बहु}">
<ellipse fill="#40e0d0" stroke="#40e0d0" cx="45.5" cy="-105" rx="36" ry="18"/>
<text text-anchor="middle" x="45.5" y="-101.3" font-family="Times,serif" font-size="14.00">तैः (3)</text>
</a>
</g>
</g>
<!-- 1&#45;&gt;3 -->
<g id="edge3" class="edge">
<title>1&#45;&gt;3</title>
<path fill="none" stroke="black" d="M45.5,-173.8C45.5,-162.16 45.5,-146.55 45.5,-133.24"/>
<polygon fill="black" stroke="black" points="49,-133.18 45.5,-123.18 42,-133.18 49,-133.18"/>
<text text-anchor="middle" x="71" y="-144.8" font-family="Times,serif" font-size="14.00">विशेषणम्</text>
</g>
<!-- 2 -->
<g id="node2" class="node">
<title>2</title>
<g id="a_node2"><a xlink:title="तद्{पुं}{3;बहु}">
<ellipse fill="#40e0d0" stroke="#40e0d0" cx="45.5" cy="-18" rx="36" ry="18"/>
<text text-anchor="middle" x="45.5" y="-14.3" font-family="Times,serif" font-size="14.00">तैः (2)</text>
</a>
</g>
</g>
<!-- 3&#45;&gt;2 -->
<g id="edge2" class="edge">
<title>3&#45;&gt;2</title>
<path fill="none" stroke="black" d="M45.5,-86.8C45.5,-75.16 45.5,-59.55 45.5,-46.24"/>
<polygon fill="black" stroke="black" points="49,-46.18 45.5,-36.18 42,-46.18 49,-46.18"/>
<text text-anchor="middle" x="62" y="-57.8" font-family="Times,serif" font-size="14.00">वीप्सा</text>
</g>
<!-- 4 -->
<g id="node4" class="node">
<title>4</title>
<g id="a_node4"><a xlink:title="हृत&#45;ज्ञान{पुं}{1;बहु}">
<ellipse fill="#00bfff" stroke="#00bfff" cx="135.5" cy="-279" rx="61.99" ry="18"/>
<text text-anchor="middle" x="135.5" y="-275.3" font-family="Times,serif" font-size="14.00">हृत&#45;ज्ञानाः (4)</text>
</a>
</g>
</g>
<!-- 4&#45;&gt;1 -->
<g id="edge1" class="edge">
<title>4&#45;&gt;1</title>
<path fill="none" stroke="black" d="M118.14,-261.61C104.4,-248.63 85.03,-230.34 69.75,-215.91"/>
<polygon fill="black" stroke="black" points="71.86,-213.09 62.19,-208.76 67.05,-218.17 71.86,-213.09"/>
<text text-anchor="middle" x="114.5" y="-231.8" font-family="Times,serif" font-size="14.00">करणम्</text>
</g>
<!-- 12 -->
<g id="node12" class="node">
<title>12</title>
<g id="a_node12"><a xlink:title="नि_यम्3{कृत्_प्रत्ययः:क्त;नि_यमँ;भ्वादिः;पुं}{2;बहु}">
<ellipse fill="#7cfc00" stroke="#7cfc00" cx="166.5" cy="-192" rx="57.69" ry="18"/>
<text text-anchor="middle" x="166.5" y="-188.3" font-family="Times,serif" font-size="14.00">नियताः (12)</text>
</a>
</g>
</g>
<!-- 4&#45;&gt;12 -->
<g id="edge12" class="edge">
<title>4&#45;&gt;12</title>
<path fill="none" stroke="black" d="M141.77,-260.8C146.06,-249.05 151.82,-233.24 156.71,-219.84"/>
<polygon fill="black" stroke="black" points="160.09,-220.77 160.23,-210.18 153.52,-218.37 160.09,-220.77"/>
<text text-anchor="middle" x="179" y="-231.8" font-family="Times,serif" font-size="14.00">विशेषणम्</text>
</g>
<!-- 5 -->
<g id="node5" class="node">
<title>5</title>
<g id="a_node5"><a xlink:title="प्र_पद्1{कर्तरि;लट्;प्र;बहु;आत्मनेपदी;प्र_पदँ;दिवादिः}">
<ellipse fill="#ff6347" stroke="#ff6347" cx="191.5" cy="-453" rx="57.69" ry="18"/>
<text text-anchor="middle" x="191.5" y="-449.3" font-family="Times,serif" font-size="14.00">प्रपद्यन्ते (5)</text>
</a>
</g>
</g>
<!-- 5&#45;&gt;4 -->
<g id="edge4" class="edge">
<title>5&#45;&gt;4</title>
<path fill="none" stroke="black" d="M155.12,-438.9C131.2,-428.16 101.76,-410.37 87.5,-384 73.07,-357.32 92.87,-325.52 111.23,-304.17"/>
<polygon fill="black" stroke="black" points="114.03,-306.3 118.13,-296.53 108.83,-301.61 114.03,-306.3"/>
<text text-anchor="middle" x="100" y="-362.3" font-family="Times,serif" font-size="14.00">कर्ता</text>
</g>
<!-- 6 -->
<g id="node6" class="node">
<title>6</title>
<g id="a_node6"><a xlink:title="अन्य&#45;देवता{स्त्री}{2;बहु}">
<ellipse fill="#7cfc00" stroke="#7cfc00" cx="191.5" cy="-366" rx="70.39" ry="18"/>
<text text-anchor="middle" x="191.5" y="-362.3" font-family="Times,serif" font-size="14.00">अन्य&#45;देवताः (6)</text>
</a>
</g>
</g>
<!-- 5&#45;&gt;6 -->
<g id="edge6" class="edge">
<title>5&#45;&gt;6</title>
<path fill="none" stroke="black" d="M191.5,-434.8C191.5,-423.16 191.5,-407.55 191.5,-394.24"/>
<polygon fill="black" stroke="black" points="195,-394.18 191.5,-384.18 188,-394.18 195,-394.18"/>
<text text-anchor="middle" x="214.5" y="-405.8" font-family="Times,serif" font-size="14.00">मुख्यकर्म</text>
</g>
<!-- 10 -->
<g id="node10" class="node">
<title>10</title>
<g id="a_node10"><a xlink:title="आङ्_स्था1{कृत्_प्रत्ययः:ल्यप्;आङ्_ष्ठा;भ्वादिः}">
<ellipse fill="#808080" stroke="#808080" cx="340.5" cy="-366" rx="61.19" ry="18"/>
<text text-anchor="middle" x="340.5" y="-362.3" font-family="Times,serif" font-size="14.00">आस्थाय (10)</text>
</a>
</g>
</g>
<!-- 5&#45;&gt;10 -->
<g id="edge10" class="edge">
<title>5&#45;&gt;10</title>
<path fill="none" stroke="black" d="M218.13,-436.8C242.32,-423.01 278.18,-402.55 304.83,-387.35"/>
<polygon fill="black" stroke="black" points="306.89,-390.2 313.84,-382.21 303.42,-384.12 306.89,-390.2"/>
<text text-anchor="middle" x="300" y="-405.8" font-family="Times,serif" font-size="14.00">पूर्वकालः</text>
</g>
<!-- 7 -->
<g id="node7" class="node">
<title>7</title>
<g id="a_node7"><a xlink:title="तद्{पुं}{2;एक}">
<ellipse fill="#7cfc00" stroke="#7cfc00" cx="340.5" cy="-105" rx="38.19" ry="18"/>
<text text-anchor="middle" x="340.5" y="-101.3" font-family="Times,serif" font-size="14.00">तम् (7)</text>
</a>
</g>
</g>
<!-- 8 -->
<g id="node8" class="node">
<title>8</title>
<g id="a_node8"><a xlink:title="तद्{पुं}{2;एक}">
<ellipse fill="#7cfc00" stroke="#7cfc00" cx="340.5" cy="-192" rx="38.19" ry="18"/>
<text text-anchor="middle" x="340.5" y="-188.3" font-family="Times,serif" font-size="14.00">तम् (8)</text>
</a>
</g>
</g>
<!-- 8&#45;&gt;7 -->
<g id="edge7" class="edge">
<title>8&#45;&gt;7</title>
<path fill="none" stroke="black" d="M340.5,-173.8C340.5,-162.16 340.5,-146.55 340.5,-133.24"/>
<polygon fill="black" stroke="black" points="344,-133.18 340.5,-123.18 337,-133.18 344,-133.18"/>
<text text-anchor="middle" x="357" y="-144.8" font-family="Times,serif" font-size="14.00">वीप्सा</text>
</g>
<!-- 9 -->
<g id="node9" class="node">
<title>9</title>
<g id="a_node9"><a xlink:title="नियम{पुं}{2;एक}">
<ellipse fill="#7cfc00" stroke="#7cfc00" cx="340.5" cy="-279" rx="51.99" ry="18"/>
<text text-anchor="middle" x="340.5" y="-275.3" font-family="Times,serif" font-size="14.00">नियमम् (9)</text>
</a>
</g>
</g>
<!-- 9&#45;&gt;8 -->
<g id="edge8" class="edge">
<title>9&#45;&gt;8</title>
<path fill="none" stroke="black" d="M340.5,-260.8C340.5,-249.16 340.5,-233.55 340.5,-220.24"/>
<polygon fill="black" stroke="black" points="344,-220.18 340.5,-210.18 337,-220.18 344,-220.18"/>
<text text-anchor="middle" x="366" y="-231.8" font-family="Times,serif" font-size="14.00">विशेषणम्</text>
</g>
<!-- 10&#45;&gt;4 -->
<g id="edge5" class="edge">
<title>10&#45;&gt;4</title>
<path fill="none" stroke="black" stroke-dasharray="1,5" d="M306.64,-350.96C271.63,-336.45 216.83,-313.72 178.71,-297.92"/>
<polygon fill="black" stroke="black" points="179.98,-294.65 169.4,-294.06 177.29,-301.12 179.98,-294.65"/>
<text text-anchor="middle" x="263" y="-318.8" font-family="Times,serif" font-size="14.00">कर्ता</text>
</g>
<!-- 10&#45;&gt;9 -->
<g id="edge9" class="edge">
<title>10&#45;&gt;9</title>
<path fill="none" stroke="black" d="M340.5,-347.8C340.5,-336.16 340.5,-320.55 340.5,-307.24"/>
<polygon fill="black" stroke="black" points="344,-307.18 340.5,-297.18 337,-307.18 344,-307.18"/>
<text text-anchor="middle" x="350.5" y="-318.8" font-family="Times,serif" font-size="14.00">कर्म</text>
</g>
<!-- 11 -->
<g id="node11" class="node">
<title>11</title>
<g id="a_node11"><a xlink:title="प्रकृति{स्त्री}{3;एक}">
<ellipse fill="#40e0d0" stroke="#40e0d0" cx="166.5" cy="-105" rx="60.39" ry="18"/>
<text text-anchor="middle" x="166.5" y="-101.3" font-family="Times,serif" font-size="14.00">प्रकृत्या (11)</text>
</a>
</g>
</g>
<!-- 13 -->
<g id="node13" class="node">
<title>13</title>
<g id="a_node13"><a xlink:title="स्वा{स्त्री}{3;एक}">
<ellipse fill="#40e0d0" stroke="#40e0d0" cx="166.5" cy="-18" rx="50.09" ry="18"/>
<text text-anchor="middle" x="166.5" y="-14.3" font-family="Times,serif" font-size="14.00">स्वया (13)</text>
</a>
</g>
</g>
<!-- 11&#45;&gt;13 -->
<g id="edge13" class="edge">
<title>11&#45;&gt;13</title>
<path fill="none" stroke="black" d="M166.5,-86.8C166.5,-75.16 166.5,-59.55 166.5,-46.24"/>
<polygon fill="black" stroke="black" points="170,-46.18 166.5,-36.18 163,-46.18 170,-46.18"/>
<text text-anchor="middle" x="192" y="-57.8" font-family="Times,serif" font-size="14.00">विशेषणम्</text>
</g>
<!-- 12&#45;&gt;11 -->
<g id="edge11" class="edge">
<title>12&#45;&gt;11</title>
<path fill="none" stroke="black" d="M166.5,-173.8C166.5,-162.16 166.5,-146.55 166.5,-133.24"/>
<polygon fill="black" stroke="black" points="170,-133.18 166.5,-123.18 163,-133.18 170,-133.18"/>
<text text-anchor="middle" x="184.5" y="-144.8" font-family="Times,serif" font-size="14.00">करणम्</text>
</g>
</g>
</svg>
