<?xml version="1.0" encoding="UTF-8" standalone="no"?>
<!DOCTYPE svg PUBLIC "-//W3C//DTD SVG 1.1//EN"
 "http://www.w3.org/Graphics/SVG/1.1/DTD/svg11.dtd">
<!-- Generated by graphviz version 2.43.0 (0)
 -->
<!-- Title: %3 Pages: 1 -->
<svg width="608pt" height="392pt"
 viewBox="0.00 0.00 607.59 392.00" xmlns="http://www.w3.org/2000/svg" xmlns:xlink="http://www.w3.org/1999/xlink">
<g id="graph0" class="graph" transform="scale(1 1) rotate(0) translate(4 388)">
<title>%3</title>
<polygon fill="#fffacd" stroke="transparent" points="-4,4 -4,-388 603.59,-388 603.59,4 -4,4"/>
<!-- 1 -->
<g id="node1" class="node">
<title>1</title>
<g id="a_node1"><a xlink:title="न{अव्य}">
<ellipse fill="#ff00ff" stroke="#ff00ff" cx="72.69" cy="-279" rx="32.49" ry="18"/>
<text text-anchor="middle" x="72.69" y="-275.3" font-family="Times,serif" font-size="14.00">न (1)</text>
</a>
</g>
</g>
<!-- 2 -->
<g id="node2" class="node">
<title>2</title>
<g id="a_node2"><a xlink:title="अस्मद्{2;एक}">
<ellipse fill="#7cfc00" stroke="#7cfc00" cx="164.69" cy="-279" rx="41.69" ry="18"/>
<text text-anchor="middle" x="164.69" y="-275.3" font-family="Times,serif" font-size="14.00">माम् (2)</text>
</a>
</g>
</g>
<!-- 3 -->
<g id="node3" class="node">
<title>3</title>
<g id="a_node3"><a xlink:title="दुष्कृतिन्{पुं}{1;बहु}">
<ellipse fill="#00bfff" stroke="#00bfff" cx="63.69" cy="-192" rx="63.89" ry="18"/>
<text text-anchor="middle" x="63.69" y="-188.3" font-family="Times,serif" font-size="14.00">दुष्&#45;कृतिनः (3)</text>
</a>
</g>
</g>
<!-- 4 -->
<g id="node4" class="node">
<title>4</title>
<g id="a_node4"><a xlink:title="मूढ{पुं}{1;बहु}">
<ellipse fill="#00bfff" stroke="#00bfff" cx="268.69" cy="-279" rx="44.39" ry="18"/>
<text text-anchor="middle" x="268.69" y="-275.3" font-family="Times,serif" font-size="14.00">मूढाः (4)</text>
</a>
</g>
</g>
<!-- 4&#45;&gt;3 -->
<g id="edge3" class="edge">
<title>4&#45;&gt;3</title>
<path fill="none" stroke="black" d="M238.04,-265.83C221.35,-259.16 200.35,-250.71 181.69,-243 156.68,-232.67 128.8,-220.87 106.42,-211.33"/>
<polygon fill="black" stroke="black" points="107.77,-208.1 97.2,-207.39 105.02,-214.53 107.77,-208.1"/>
<text text-anchor="middle" x="207.19" y="-231.8" font-family="Times,serif" font-size="14.00">विशेषणम्</text>
</g>
<!-- 6 -->
<g id="node6" class="node">
<title>6</title>
<g id="a_node6"><a xlink:title="नर&#45;अधम{पुं}{1;बहु}">
<ellipse fill="#00bfff" stroke="#00bfff" cx="210.69" cy="-192" rx="64.99" ry="18"/>
<text text-anchor="middle" x="210.69" y="-188.3" font-family="Times,serif" font-size="14.00">नर&#45;अधमाः (6)</text>
</a>
</g>
</g>
<!-- 4&#45;&gt;6 -->
<g id="edge5" class="edge">
<title>4&#45;&gt;6</title>
<path fill="none" stroke="black" d="M257.24,-261.21C248.89,-248.98 237.45,-232.21 228,-218.36"/>
<polygon fill="black" stroke="black" points="230.66,-216.05 222.13,-209.76 224.87,-219.99 230.66,-216.05"/>
<text text-anchor="middle" x="269.19" y="-231.8" font-family="Times,serif" font-size="14.00">विशेषणम्</text>
</g>
<!-- 8 -->
<g id="node8" class="node">
<title>8</title>
<g id="a_node8"><a xlink:title="अपहृत&#45;ज्ञान{पुं}{1;बहु}">
<ellipse fill="#00bfff" stroke="#00bfff" cx="368.69" cy="-192" rx="74.99" ry="18"/>
<text text-anchor="middle" x="368.69" y="-188.3" font-family="Times,serif" font-size="14.00">अपहृत&#45;ज्ञानाः (8)</text>
</a>
</g>
</g>
<!-- 4&#45;&gt;8 -->
<g id="edge7" class="edge">
<title>4&#45;&gt;8</title>
<path fill="none" stroke="black" d="M287.04,-262.41C302.15,-249.56 323.83,-231.13 341.05,-216.49"/>
<polygon fill="black" stroke="black" points="343.75,-218.8 349.1,-209.65 339.22,-213.46 343.75,-218.8"/>
<text text-anchor="middle" x="350.19" y="-231.8" font-family="Times,serif" font-size="14.00">विशेषणम्</text>
</g>
<!-- 11 -->
<g id="node11" class="node">
<title>11</title>
<g id="a_node11"><a xlink:title="आङ्_श्रि1{कृत्_प्रत्ययः:क्त;आङ्_श्रिञ्;भ्वादिः;पुं}{1;बहु}">
<ellipse fill="#00bfff" stroke="#00bfff" cx="530.69" cy="-192" rx="68.79" ry="18"/>
<text text-anchor="middle" x="530.69" y="-188.3" font-family="Times,serif" font-size="14.00">आश्रिताः (11)</text>
</a>
</g>
</g>
<!-- 4&#45;&gt;11 -->
<g id="edge10" class="edge">
<title>4&#45;&gt;11</title>
<path fill="none" stroke="black" d="M302.74,-267.4C324.73,-260.53 353.93,-251.33 379.69,-243 413.34,-232.13 451.09,-219.62 480.44,-209.84"/>
<polygon fill="black" stroke="black" points="481.67,-213.12 490.05,-206.63 479.46,-206.48 481.67,-213.12"/>
<text text-anchor="middle" x="451.19" y="-231.8" font-family="Times,serif" font-size="14.00">विशेषणम्</text>
</g>
<!-- 5 -->
<g id="node5" class="node">
<title>5</title>
<g id="a_node5"><a xlink:title="प्र_पद्1{कर्तरि;लट्;प्र;बहु;आत्मनेपदी;प्र_पदँ;दिवादिः}">
<ellipse fill="#ff6347" stroke="#ff6347" cx="164.69" cy="-366" rx="57.69" ry="18"/>
<text text-anchor="middle" x="164.69" y="-362.3" font-family="Times,serif" font-size="14.00">प्रपद्यन्ते (5)</text>
</a>
</g>
</g>
<!-- 5&#45;&gt;1 -->
<g id="edge1" class="edge">
<title>5&#45;&gt;1</title>
<path fill="none" stroke="black" d="M136.4,-350.24C127.02,-344.61 116.89,-337.68 108.69,-330 100.93,-322.73 93.77,-313.56 87.91,-305.07"/>
<polygon fill="black" stroke="black" points="90.73,-302.99 82.3,-296.57 84.88,-306.84 90.73,-302.99"/>
<text text-anchor="middle" x="134.69" y="-318.8" font-family="Times,serif" font-size="14.00">प्रतिषेधः</text>
</g>
<!-- 5&#45;&gt;2 -->
<g id="edge2" class="edge">
<title>5&#45;&gt;2</title>
<path fill="none" stroke="black" d="M164.69,-347.8C164.69,-336.16 164.69,-320.55 164.69,-307.24"/>
<polygon fill="black" stroke="black" points="168.19,-307.18 164.69,-297.18 161.19,-307.18 168.19,-307.18"/>
<text text-anchor="middle" x="174.69" y="-318.8" font-family="Times,serif" font-size="14.00">कर्म</text>
</g>
<!-- 5&#45;&gt;4 -->
<g id="edge4" class="edge">
<title>5&#45;&gt;4</title>
<path fill="none" stroke="black" d="M184.26,-349.01C200.58,-335.67 224.02,-316.52 242.06,-301.77"/>
<polygon fill="black" stroke="black" points="244.39,-304.38 249.92,-295.34 239.96,-298.96 244.39,-304.38"/>
<text text-anchor="middle" x="236.19" y="-318.8" font-family="Times,serif" font-size="14.00">कर्ता</text>
</g>
<!-- 7 -->
<g id="node7" class="node">
<title>7</title>
<g id="a_node7"><a xlink:title="माया{स्त्री}{3;एक}">
<ellipse fill="#40e0d0" stroke="#40e0d0" cx="368.69" cy="-105" rx="48.99" ry="18"/>
<text text-anchor="middle" x="368.69" y="-101.3" font-family="Times,serif" font-size="14.00">मायया (7)</text>
</a>
</g>
</g>
<!-- 8&#45;&gt;7 -->
<g id="edge6" class="edge">
<title>8&#45;&gt;7</title>
<path fill="none" stroke="black" d="M368.69,-173.8C368.69,-162.16 368.69,-146.55 368.69,-133.24"/>
<polygon fill="black" stroke="black" points="372.19,-133.18 368.69,-123.18 365.19,-133.18 372.19,-133.18"/>
<text text-anchor="middle" x="380.19" y="-144.8" font-family="Times,serif" font-size="14.00">हेतुः</text>
</g>
<!-- 9 -->
<g id="node9" class="node">
<title>9</title>
<g id="a_node9"><a xlink:title="आसुर{पुं}{2;एक}">
<ellipse fill="#7cfc00" stroke="#7cfc00" cx="530.69" cy="-18" rx="51.99" ry="18"/>
<text text-anchor="middle" x="530.69" y="-14.3" font-family="Times,serif" font-size="14.00">आसुरम् (9)</text>
</a>
</g>
</g>
<!-- 10 -->
<g id="node10" class="node">
<title>10</title>
<g id="a_node10"><a xlink:title="भाव{पुं}{2;एक}">
<ellipse fill="#7cfc00" stroke="#7cfc00" cx="530.69" cy="-105" rx="51.99" ry="18"/>
<text text-anchor="middle" x="530.69" y="-101.3" font-family="Times,serif" font-size="14.00">भावम् (10)</text>
</a>
</g>
</g>
<!-- 10&#45;&gt;9 -->
<g id="edge8" class="edge">
<title>10&#45;&gt;9</title>
<path fill="none" stroke="black" d="M530.69,-86.8C530.69,-75.16 530.69,-59.55 530.69,-46.24"/>
<polygon fill="black" stroke="black" points="534.19,-46.18 530.69,-36.18 527.19,-46.18 534.19,-46.18"/>
<text text-anchor="middle" x="556.19" y="-57.8" font-family="Times,serif" font-size="14.00">विशेषणम्</text>
</g>
<!-- 11&#45;&gt;10 -->
<g id="edge9" class="edge">
<title>11&#45;&gt;10</title>
<path fill="none" stroke="black" d="M530.69,-173.8C530.69,-162.16 530.69,-146.55 530.69,-133.24"/>
<polygon fill="black" stroke="black" points="534.19,-133.18 530.69,-123.18 527.19,-133.18 534.19,-133.18"/>
<text text-anchor="middle" x="540.69" y="-144.8" font-family="Times,serif" font-size="14.00">कर्म</text>
</g>
</g>
</svg>
