<?xml version="1.0" encoding="UTF-8" standalone="no"?>
<!DOCTYPE svg PUBLIC "-//W3C//DTD SVG 1.1//EN"
 "http://www.w3.org/Graphics/SVG/1.1/DTD/svg11.dtd">
<!-- Generated by graphviz version 2.43.0 (0)
 -->
<!-- Title: %3 Pages: 1 -->
<svg width="2379pt" height="218pt"
 viewBox="0.00 0.00 2378.54 218.00" xmlns="http://www.w3.org/2000/svg" xmlns:xlink="http://www.w3.org/1999/xlink">
<g id="graph0" class="graph" transform="scale(1 1) rotate(0) translate(4 214)">
<title>%3</title>
<polygon fill="#fffacd" stroke="transparent" points="-4,4 -4,-214 2374.54,-214 2374.54,4 -4,4"/>
<!-- 1 -->
<g id="node1" class="node">
<title>1</title>
<g id="a_node1"><a xlink:title="यद्{पुं}{1;बहु}">
<ellipse fill="#00bfff" stroke="#00bfff" cx="37.7" cy="-105" rx="32.49" ry="18"/>
<text text-anchor="middle" x="37.7" y="-101.3" font-family="Times,serif" font-size="14.00">ये (1)</text>
</a>
</g>
</g>
<!-- 3 -->
<g id="node3" class="node">
<title>3</title>
<g id="a_node3"><a xlink:title="एव{अव्य}">
<ellipse fill="#ff00ff" stroke="#ff00ff" cx="37.7" cy="-18" rx="37.89" ry="18"/>
<text text-anchor="middle" x="37.7" y="-14.3" font-family="Times,serif" font-size="14.00">एव (3)</text>
</a>
</g>
</g>
<!-- 1&#45;&gt;3 -->
<g id="edge3" class="edge">
<title>1&#45;&gt;3</title>
<path fill="none" stroke="black" d="M37.7,-86.8C37.7,-75.16 37.7,-59.55 37.7,-46.24"/>
<polygon fill="black" stroke="black" points="41.2,-46.18 37.7,-36.18 34.2,-46.18 41.2,-46.18"/>
<text text-anchor="middle" x="60.7" y="-57.8" font-family="Times,serif" font-size="14.00">सम्बन्धः</text>
</g>
<!-- 2 -->
<g id="node2" class="node">
<title>2</title>
<g id="a_node2"><a xlink:title="च{अव्य}">
<ellipse fill="#ff00ff" stroke="#ff00ff" cx="121.7" cy="-105" rx="33.29" ry="18"/>
<text text-anchor="middle" x="121.7" y="-101.3" font-family="Times,serif" font-size="14.00">च (2)</text>
</a>
</g>
</g>
<!-- 4 -->
<g id="node4" class="node">
<title>4</title>
<g id="a_node4"><a xlink:title="सात्त्विक{पुं}{1;बहु}">
<ellipse fill="#00bfff" stroke="#00bfff" cx="219.7" cy="-18" rx="63.89" ry="18"/>
<text text-anchor="middle" x="219.7" y="-14.3" font-family="Times,serif" font-size="14.00">सात्त्विकाः (4)</text>
</a>
</g>
</g>
<!-- 5 -->
<g id="node5" class="node">
<title>5</title>
<g id="a_node5"><a xlink:title="भाव{पुं}{1;बहु}">
<ellipse fill="#00bfff" stroke="#00bfff" cx="219.7" cy="-105" rx="46.59" ry="18"/>
<text text-anchor="middle" x="219.7" y="-101.3" font-family="Times,serif" font-size="14.00">भावाः (5)</text>
</a>
</g>
</g>
<!-- 5&#45;&gt;4 -->
<g id="edge4" class="edge">
<title>5&#45;&gt;4</title>
<path fill="none" stroke="black" d="M219.7,-86.8C219.7,-75.16 219.7,-59.55 219.7,-46.24"/>
<polygon fill="black" stroke="black" points="223.2,-46.18 219.7,-36.18 216.2,-46.18 223.2,-46.18"/>
<text text-anchor="middle" x="245.2" y="-57.8" font-family="Times,serif" font-size="14.00">विशेषणम्</text>
</g>
<!-- 6 -->
<g id="node6" class="node">
<title>6</title>
<g id="a_node6"><a xlink:title="राजस{पुं}{1;बहु}">
<ellipse fill="#00bfff" stroke="#00bfff" cx="353.7" cy="-18" rx="51.99" ry="18"/>
<text text-anchor="middle" x="353.7" y="-14.3" font-family="Times,serif" font-size="14.00">राजसाः (6)</text>
</a>
</g>
</g>
<!-- 7 -->
<g id="node7" class="node">
<title>7</title>
<g id="a_node7"><a xlink:title="तामस{पुं}{1;बहु}">
<ellipse fill="#00bfff" stroke="#00bfff" cx="407.7" cy="-105" rx="53.09" ry="18"/>
<text text-anchor="middle" x="407.7" y="-101.3" font-family="Times,serif" font-size="14.00">तामसाः (7)</text>
</a>
</g>
</g>
<!-- 7&#45;&gt;6 -->
<g id="edge6" class="edge">
<title>7&#45;&gt;6</title>
<path fill="none" stroke="black" d="M376.34,-90.25C367.81,-84.9 359.59,-77.89 354.7,-69 350.95,-62.2 349.7,-54.06 349.66,-46.33"/>
<polygon fill="black" stroke="black" points="353.16,-46.41 350.23,-36.23 346.17,-46.02 353.16,-46.41"/>
<text text-anchor="middle" x="397.2" y="-57.8" font-family="Times,serif" font-size="14.00">सुप्_समुच्चितम्</text>
</g>
<!-- 8 -->
<g id="node8" class="node">
<title>8</title>
<g id="a_node8"><a xlink:title="च{अव्य}">
<ellipse fill="#ff00ff" stroke="#ff00ff" cx="461.7" cy="-18" rx="33.29" ry="18"/>
<text text-anchor="middle" x="461.7" y="-14.3" font-family="Times,serif" font-size="14.00">च (8)</text>
</a>
</g>
</g>
<!-- 7&#45;&gt;8 -->
<g id="edge8" class="edge">
<title>7&#45;&gt;8</title>
<path fill="none" stroke="black" d="M424.51,-87.83C429.8,-82.2 435.38,-75.62 439.7,-69 444.43,-61.74 448.59,-53.29 451.98,-45.42"/>
<polygon fill="black" stroke="black" points="455.32,-46.49 455.85,-35.91 448.84,-43.85 455.32,-46.49"/>
<text text-anchor="middle" x="491.2" y="-57.8" font-family="Times,serif" font-size="14.00">समुच्चयद्योतकः</text>
</g>
<!-- 9 -->
<g id="node9" class="node">
<title>9</title>
<g id="a_node9"><a xlink:title="यद्{पुं}{1;बहु}">
<ellipse fill="#00bfff" stroke="#00bfff" cx="534.7" cy="-105" rx="32.49" ry="18"/>
<text text-anchor="middle" x="534.7" y="-101.3" font-family="Times,serif" font-size="14.00">ये (9)</text>
</a>
</g>
</g>
<!-- 10 -->
<g id="node10" class="node">
<title>10</title>
<g id="a_node10"><a xlink:title="मत्त{तसिल्}">
<ellipse fill="#808080" stroke="#808080" cx="633.7" cy="-105" rx="48.99" ry="18"/>
<text text-anchor="middle" x="633.7" y="-101.3" font-family="Times,serif" font-size="14.00">मत्तः (10)</text>
</a>
</g>
</g>
<!-- 11 -->
<g id="node11" class="node">
<title>11</title>
<g id="a_node11"><a xlink:title="एव{अव्य}">
<ellipse fill="#ff00ff" stroke="#ff00ff" cx="633.7" cy="-18" rx="43.59" ry="18"/>
<text text-anchor="middle" x="633.7" y="-14.3" font-family="Times,serif" font-size="14.00">एव (11)</text>
</a>
</g>
</g>
<!-- 10&#45;&gt;11 -->
<g id="edge11" class="edge">
<title>10&#45;&gt;11</title>
<path fill="none" stroke="black" d="M633.7,-86.8C633.7,-75.16 633.7,-59.55 633.7,-46.24"/>
<polygon fill="black" stroke="black" points="637.2,-46.18 633.7,-36.18 630.2,-46.18 637.2,-46.18"/>
<text text-anchor="middle" x="656.7" y="-57.8" font-family="Times,serif" font-size="14.00">सम्बन्धः</text>
</g>
<!-- 12 -->
<g id="node12" class="node">
<title>12</title>
<g id="a_node12"><a xlink:title="इति{अव्य}">
<ellipse fill="#ff00ff" stroke="#ff00ff" cx="746.7" cy="-105" rx="46.29" ry="18"/>
<text text-anchor="middle" x="746.7" y="-101.3" font-family="Times,serif" font-size="14.00">इति (12)</text>
</a>
</g>
</g>
<!-- 13 -->
<g id="node13" class="node">
<title>13</title>
<g id="a_node13"><a xlink:title="तद्{पुं}{2;बहु}">
<ellipse fill="#7cfc00" stroke="#7cfc00" cx="858.7" cy="-105" rx="46.29" ry="18"/>
<text text-anchor="middle" x="858.7" y="-101.3" font-family="Times,serif" font-size="14.00">तान् (13)</text>
</a>
</g>
</g>
<!-- 14 -->
<g id="node14" class="node">
<title>14</title>
<g id="a_node14"><a xlink:title="विद्1{कर्तरि;लोट्;म;एक;परस्मैपदी;विदँ;अदादिः}">
<ellipse fill="#ff6347" stroke="#ff6347" cx="858.7" cy="-192" rx="55.49" ry="18"/>
<text text-anchor="middle" x="858.7" y="-188.3" font-family="Times,serif" font-size="14.00">विद्धि (14)</text>
</a>
</g>
</g>
<!-- 14&#45;&gt;13 -->
<g id="edge13" class="edge">
<title>14&#45;&gt;13</title>
<path fill="none" stroke="black" d="M858.7,-173.8C858.7,-162.16 858.7,-146.55 858.7,-133.24"/>
<polygon fill="black" stroke="black" points="862.2,-133.18 858.7,-123.18 855.2,-133.18 862.2,-133.18"/>
<text text-anchor="middle" x="868.7" y="-144.8" font-family="Times,serif" font-size="14.00">कर्म</text>
</g>
<!-- 15 -->
<g id="node15" class="node">
<title>15</title>
<g id="a_node15"><a xlink:title="न{अव्य}">
<ellipse fill="#ff00ff" stroke="#ff00ff" cx="960.7" cy="-105" rx="38.19" ry="18"/>
<text text-anchor="middle" x="960.7" y="-101.3" font-family="Times,serif" font-size="14.00">न (15)</text>
</a>
</g>
</g>
<!-- 16 -->
<g id="node16" class="node">
<title>16</title>
<g id="a_node16"><a xlink:title="तु{अव्य}">
<ellipse fill="#ff00ff" stroke="#ff00ff" cx="1055.7" cy="-105" rx="38.19" ry="18"/>
<text text-anchor="middle" x="1055.7" y="-101.3" font-family="Times,serif" font-size="14.00">तु (16)</text>
</a>
</g>
</g>
<!-- 17 -->
<g id="node17" class="node">
<title>17</title>
<g id="a_node17"><a xlink:title="अस्मद्{1;एक}">
<ellipse fill="#00bfff" stroke="#00bfff" cx="1162.7" cy="-105" rx="50.89" ry="18"/>
<text text-anchor="middle" x="1162.7" y="-101.3" font-family="Times,serif" font-size="14.00">अहम् (17)</text>
</a>
</g>
</g>
<!-- 18 -->
<g id="node18" class="node">
<title>18</title>
<g id="a_node18"><a xlink:title="तद्{पुं}{7;बहु}">
<ellipse fill="#708090" stroke="#708090" cx="1274.7" cy="-105" rx="43.59" ry="18"/>
<text text-anchor="middle" x="1274.7" y="-101.3" font-family="Times,serif" font-size="14.00">तेषु (18)</text>
</a>
</g>
</g>
<!-- 19 -->
<g id="node19" class="node">
<title>19</title>
<g id="a_node19"><a xlink:title="तद्{पुं}{1;बहु}">
<ellipse fill="#00bfff" stroke="#00bfff" cx="1374.7" cy="-105" rx="38.19" ry="18"/>
<text text-anchor="middle" x="1374.7" y="-101.3" font-family="Times,serif" font-size="14.00">ते (19)</text>
</a>
</g>
</g>
<!-- 20 -->
<g id="node20" class="node">
<title>20</title>
<g id="a_node20"><a xlink:title="अस्मद्{7;एक}">
<ellipse fill="#708090" stroke="#708090" cx="1477.7" cy="-105" rx="46.59" ry="18"/>
<text text-anchor="middle" x="1477.7" y="-101.3" font-family="Times,serif" font-size="14.00">मयि (20)</text>
</a>
</g>
</g>
<!-- 21 -->
<g id="node21" class="node">
<title>21</title>
<g id="a_node21"><a xlink:title="(अस्2{कर्तरि;लट्;प्र;बहु;परस्मैपदी;असँ;अदादिः})">
<ellipse fill="#ff6347" stroke="#ff6347" cx="1532.7" cy="-192" rx="57.69" ry="18"/>
<text text-anchor="middle" x="1532.7" y="-188.3" font-family="Times,serif" font-size="14.00">(सन्ति) (21)</text>
</a>
</g>
</g>
<!-- 22 -->
<g id="node22" class="node">
<title>22</title>
<g id="a_node22"><a xlink:title="(अस्2{कर्तरि;लट्;उ;एक;परस्मैपदी;असँ;अदादिः})">
<ellipse fill="#ff6347" stroke="#ff6347" cx="1668.7" cy="-192" rx="60.39" ry="18"/>
<text text-anchor="middle" x="1668.7" y="-188.3" font-family="Times,serif" font-size="14.00">(अस्मि) (22)</text>
</a>
</g>
</g>
<!-- 23 -->
<g id="node23" class="node">
<title>23</title>
<g id="a_node23"><a xlink:title="(न{अव्य})">
<ellipse fill="#ff00ff" stroke="#ff00ff" cx="1791.7" cy="-192" rx="44.69" ry="18"/>
<text text-anchor="middle" x="1791.7" y="-188.3" font-family="Times,serif" font-size="14.00">(न) (23)</text>
</a>
</g>
</g>
<!-- 24 -->
<g id="node24" class="node">
<title>24</title>
<g id="a_node24"><a xlink:title="(युष्मद्{1;एक})">
<ellipse fill="#00bfff" stroke="#00bfff" cx="1908.7" cy="-192" rx="53.89" ry="18"/>
<text text-anchor="middle" x="1908.7" y="-188.3" font-family="Times,serif" font-size="14.00">(त्वम्) (24)</text>
</a>
</g>
</g>
<!-- 25 -->
<g id="node25" class="node">
<title>25</title>
<g id="a_node25"><a xlink:title="(भाव{पुं}{2;बहु})">
<ellipse fill="#7cfc00" stroke="#7cfc00" cx="2041.7" cy="-192" rx="61.19" ry="18"/>
<text text-anchor="middle" x="2041.7" y="-188.3" font-family="Times,serif" font-size="14.00">(भावान्) (25)</text>
</a>
</g>
</g>
<!-- 26 -->
<g id="node26" class="node">
<title>26</title>
<g id="a_node26"><a xlink:title="(अस्2{कर्तरि;लट्;प्र;बहु;परस्मैपदी;असँ;अदादिः})">
<ellipse fill="#ff6347" stroke="#ff6347" cx="2178.7" cy="-192" rx="57.69" ry="18"/>
<text text-anchor="middle" x="2178.7" y="-188.3" font-family="Times,serif" font-size="14.00">(सन्ति) (26)</text>
</a>
</g>
</g>
<!-- 27 -->
<g id="node27" class="node">
<title>27</title>
<g id="a_node27"><a xlink:title="(अस्2{कर्तरि;लट्;प्र;बहु;परस्मैपदी;असँ;अदादिः})">
<ellipse fill="#ff6347" stroke="#ff6347" cx="2312.7" cy="-192" rx="57.69" ry="18"/>
<text text-anchor="middle" x="2312.7" y="-188.3" font-family="Times,serif" font-size="14.00">(सन्ति) (27)</text>
</a>
</g>
</g>
<!-- 5.1 -->
<g id="node28" class="node">
<title>5.1</title>
<ellipse fill="lightgrey" stroke="black" cx="121.7" cy="-192" rx="27" ry="18"/>
<text text-anchor="middle" x="121.7" y="-188.3" font-family="Times,serif" font-size="14.00">5.1</text>
</g>
<!-- 5.1&#45;&gt;1 -->
<g id="edge1" class="edge">
<title>5.1&#45;&gt;1</title>
<path fill="none" stroke="black" d="M107.45,-176.58C94.45,-163.43 75.04,-143.79 60,-128.57"/>
<polygon fill="black" stroke="black" points="62.1,-125.72 52.58,-121.06 57.12,-130.64 62.1,-125.72"/>
<text text-anchor="middle" x="98.2" y="-144.8" font-family="Times,serif" font-size="14.00">कर्ता</text>
</g>
<!-- 5.1&#45;&gt;2 -->
<g id="edge2" class="edge">
<title>5.1&#45;&gt;2</title>
<path fill="none" stroke="black" d="M121.7,-173.8C121.7,-162.16 121.7,-146.55 121.7,-133.24"/>
<polygon fill="black" stroke="black" points="125.2,-133.18 121.7,-123.18 118.2,-133.18 125.2,-133.18"/>
<text text-anchor="middle" x="144.7" y="-144.8" font-family="Times,serif" font-size="14.00">सम्बन्धः</text>
</g>
<!-- 5.1&#45;&gt;5 -->
<g id="edge5" class="edge">
<title>5.1&#45;&gt;5</title>
<path fill="none" stroke="black" d="M140.86,-178.86C150.45,-172.48 162.04,-164.27 171.7,-156 180.93,-148.09 190.36,-138.63 198.38,-130.08"/>
<polygon fill="black" stroke="black" points="201.11,-132.28 205.31,-122.56 195.96,-127.54 201.11,-132.28"/>
<text text-anchor="middle" x="239.7" y="-144.8" font-family="Times,serif" font-size="14.00">कर्तृसमानाधिकरणम्</text>
</g>
<!-- 9.1 -->
<g id="node29" class="node">
<title>9.1</title>
<ellipse fill="lightgrey" stroke="black" cx="470.7" cy="-192" rx="27" ry="18"/>
<text text-anchor="middle" x="470.7" y="-188.3" font-family="Times,serif" font-size="14.00">9.1</text>
</g>
<!-- 9.1&#45;&gt;7 -->
<g id="edge7" class="edge">
<title>9.1&#45;&gt;7</title>
<path fill="none" stroke="black" d="M446.41,-183.94C432.8,-178.61 416.94,-169.8 408.7,-156 404.72,-149.34 403.39,-141.23 403.36,-133.51"/>
<polygon fill="black" stroke="black" points="406.86,-133.57 403.98,-123.37 399.87,-133.14 406.86,-133.57"/>
<text text-anchor="middle" x="460.7" y="-144.8" font-family="Times,serif" font-size="14.00">कर्तृसमानाधिकरणम्</text>
</g>
<!-- 9.1&#45;&gt;9 -->
<g id="edge9" class="edge">
<title>9.1&#45;&gt;9</title>
<path fill="none" stroke="black" d="M489.12,-178.62C497.15,-172.53 506.19,-164.64 512.7,-156 518.05,-148.89 522.43,-140.27 525.84,-132.21"/>
<polygon fill="black" stroke="black" points="529.14,-133.38 529.51,-122.79 522.62,-130.84 529.14,-133.38"/>
<text text-anchor="middle" x="534.2" y="-144.8" font-family="Times,serif" font-size="14.00">कर्ता</text>
</g>
<!-- 11.2 -->
<g id="node30" class="node">
<title>11.2</title>
<ellipse fill="lightgrey" stroke="black" cx="699.7" cy="-192" rx="31.4" ry="18"/>
<text text-anchor="middle" x="699.7" y="-188.3" font-family="Times,serif" font-size="14.00">11.2</text>
</g>
<!-- 11.2&#45;&gt;10 -->
<g id="edge10" class="edge">
<title>11.2&#45;&gt;10</title>
<path fill="none" stroke="black" d="M683.01,-176.49C676.59,-170.49 669.43,-163.24 663.7,-156 657.76,-148.51 652.12,-139.73 647.37,-131.65"/>
<polygon fill="black" stroke="black" points="650.39,-129.88 642.41,-122.92 644.3,-133.34 650.39,-129.88"/>
<text text-anchor="middle" x="690.2" y="-144.8" font-family="Times,serif" font-size="14.00">अपादानम्</text>
</g>
<!-- 11.2&#45;&gt;12 -->
<g id="edge12" class="edge">
<title>11.2&#45;&gt;12</title>
<path fill="none" stroke="black" d="M708.76,-174.61C715.43,-162.54 724.65,-145.88 732.32,-132"/>
<polygon fill="black" stroke="black" points="735.56,-133.37 737.34,-122.92 729.44,-129.98 735.56,-133.37"/>
<text text-anchor="middle" x="771.2" y="-144.8" font-family="Times,serif" font-size="14.00">वाक्यकर्मद्योतकः</text>
</g>
<!-- 18.1 -->
<g id="node31" class="node">
<title>18.1</title>
<ellipse fill="lightgrey" stroke="black" cx="1108.7" cy="-192" rx="31.4" ry="18"/>
<text text-anchor="middle" x="1108.7" y="-188.3" font-family="Times,serif" font-size="14.00">18.1</text>
</g>
<!-- 18.1&#45;&gt;15 -->
<g id="edge14" class="edge">
<title>18.1&#45;&gt;15</title>
<path fill="none" stroke="black" d="M1082.17,-182.48C1064.67,-176.31 1041.58,-167.13 1022.7,-156 1009.28,-148.09 995.66,-137.46 984.62,-128.03"/>
<polygon fill="black" stroke="black" points="986.91,-125.39 977.08,-121.44 982.3,-130.66 986.91,-125.39"/>
<text text-anchor="middle" x="1048.7" y="-144.8" font-family="Times,serif" font-size="14.00">प्रतिषेधः</text>
</g>
<!-- 18.1&#45;&gt;16 -->
<g id="edge15" class="edge">
<title>18.1&#45;&gt;16</title>
<path fill="none" stroke="black" d="M1098.48,-174.61C1090.83,-162.34 1080.22,-145.34 1071.49,-131.32"/>
<polygon fill="black" stroke="black" points="1074.33,-129.26 1066.07,-122.63 1068.39,-132.97 1074.33,-129.26"/>
<text text-anchor="middle" x="1107.7" y="-144.8" font-family="Times,serif" font-size="14.00">सम्बन्धः</text>
</g>
<!-- 18.1&#45;&gt;17 -->
<g id="edge16" class="edge">
<title>18.1&#45;&gt;17</title>
<path fill="none" stroke="black" d="M1121.05,-175.28C1125.52,-169.35 1130.5,-162.48 1134.7,-156 1139.67,-148.32 1144.69,-139.7 1149.07,-131.81"/>
<polygon fill="black" stroke="black" points="1152.17,-133.44 1153.89,-122.98 1146.03,-130.08 1152.17,-133.44"/>
<text text-anchor="middle" x="1156.2" y="-144.8" font-family="Times,serif" font-size="14.00">कर्ता</text>
</g>
<!-- 18.1&#45;&gt;18 -->
<g id="edge17" class="edge">
<title>18.1&#45;&gt;18</title>
<path fill="none" stroke="black" d="M1131.43,-179.36C1159.23,-165.12 1206.61,-140.87 1239.22,-124.17"/>
<polygon fill="black" stroke="black" points="1241.1,-127.13 1248.41,-119.46 1237.91,-120.9 1241.1,-127.13"/>
<text text-anchor="middle" x="1231.2" y="-144.8" font-family="Times,serif" font-size="14.00">अधिकरणम्</text>
</g>
<!-- 20.1 -->
<g id="node32" class="node">
<title>20.1</title>
<ellipse fill="lightgrey" stroke="black" cx="1425.7" cy="-192" rx="31.4" ry="18"/>
<text text-anchor="middle" x="1425.7" y="-188.3" font-family="Times,serif" font-size="14.00">20.1</text>
</g>
<!-- 20.1&#45;&gt;19 -->
<g id="edge18" class="edge">
<title>20.1&#45;&gt;19</title>
<path fill="none" stroke="black" d="M1415.86,-174.61C1408.5,-162.34 1398.3,-145.34 1389.89,-131.32"/>
<polygon fill="black" stroke="black" points="1392.82,-129.4 1384.67,-122.63 1386.82,-133 1392.82,-129.4"/>
<text text-anchor="middle" x="1415.2" y="-144.8" font-family="Times,serif" font-size="14.00">कर्ता</text>
</g>
<!-- 20.1&#45;&gt;20 -->
<g id="edge19" class="edge">
<title>20.1&#45;&gt;20</title>
<path fill="none" stroke="black" d="M1435.72,-174.61C1443.23,-162.34 1453.63,-145.34 1462.2,-131.32"/>
<polygon fill="black" stroke="black" points="1465.29,-132.99 1467.52,-122.63 1459.32,-129.33 1465.29,-132.99"/>
<text text-anchor="middle" x="1485.2" y="-144.8" font-family="Times,serif" font-size="14.00">अधिकरणम्</text>
</g>
</g>
</svg>
