<?xml version="1.0" encoding="UTF-8" standalone="no"?>
<!DOCTYPE svg PUBLIC "-//W3C//DTD SVG 1.1//EN"
 "http://www.w3.org/Graphics/SVG/1.1/DTD/svg11.dtd">
<!-- Generated by graphviz version 2.43.0 (0)
 -->
<!-- Title: %3 Pages: 1 -->
<svg width="927pt" height="392pt"
 viewBox="0.00 0.00 926.54 392.00" xmlns="http://www.w3.org/2000/svg" xmlns:xlink="http://www.w3.org/1999/xlink">
<g id="graph0" class="graph" transform="scale(1 1) rotate(0) translate(4 388)">
<title>%3</title>
<polygon fill="#fffacd" stroke="transparent" points="-4,4 -4,-388 922.54,-388 922.54,4 -4,4"/>
<!-- 1 -->
<g id="node1" class="node">
<title>1</title>
<g id="a_node1"><a xlink:title="भूत&#45;ग्राम{पुं}{1;एक}">
<ellipse fill="#00bfff" stroke="#00bfff" cx="88.7" cy="-192" rx="64.99" ry="18"/>
<text text-anchor="middle" x="88.7" y="-188.3" font-family="Times,serif" font-size="14.00">भूत&#45;ग्रामः (1)</text>
</a>
</g>
</g>
<!-- 2 -->
<g id="node2" class="node">
<title>2</title>
<g id="a_node2"><a xlink:title="तद्{पुं}{1;एक}">
<ellipse fill="#00bfff" stroke="#00bfff" cx="37.7" cy="-105" rx="36.29" ry="18"/>
<text text-anchor="middle" x="37.7" y="-101.3" font-family="Times,serif" font-size="14.00">सः (2)</text>
</a>
</g>
</g>
<!-- 1&#45;&gt;2 -->
<g id="edge3" class="edge">
<title>1&#45;&gt;2</title>
<path fill="none" stroke="black" d="M71.35,-174.61C66.15,-169.06 60.75,-162.59 56.7,-156 52.25,-148.77 48.55,-140.33 45.64,-132.47"/>
<polygon fill="black" stroke="black" points="48.93,-131.27 42.37,-122.94 42.31,-133.54 48.93,-131.27"/>
<text text-anchor="middle" x="82.2" y="-144.8" font-family="Times,serif" font-size="14.00">विशेषणम्</text>
</g>
<!-- 4 -->
<g id="node4" class="node">
<title>4</title>
<g id="a_node4"><a xlink:title="इदम्{पुं}{1;एक}">
<ellipse fill="#00bfff" stroke="#00bfff" cx="138.7" cy="-105" rx="46.29" ry="18"/>
<text text-anchor="middle" x="138.7" y="-101.3" font-family="Times,serif" font-size="14.00">अयम् (4)</text>
</a>
</g>
</g>
<!-- 1&#45;&gt;4 -->
<g id="edge5" class="edge">
<title>1&#45;&gt;4</title>
<path fill="none" stroke="black" d="M98.58,-174.21C105.7,-162.1 115.44,-145.53 123.54,-131.76"/>
<polygon fill="black" stroke="black" points="126.79,-133.15 128.84,-122.76 120.75,-129.6 126.79,-133.15"/>
<text text-anchor="middle" x="142.2" y="-144.8" font-family="Times,serif" font-size="14.00">विशेषणम्</text>
</g>
<!-- 3 -->
<g id="node3" class="node">
<title>3</title>
<g id="a_node3"><a xlink:title="एव{अव्य}">
<ellipse fill="#ff00ff" stroke="#ff00ff" cx="37.7" cy="-18" rx="37.89" ry="18"/>
<text text-anchor="middle" x="37.7" y="-14.3" font-family="Times,serif" font-size="14.00">एव (3)</text>
</a>
</g>
</g>
<!-- 2&#45;&gt;3 -->
<g id="edge4" class="edge">
<title>2&#45;&gt;3</title>
<path fill="none" stroke="black" d="M37.7,-86.8C37.7,-75.16 37.7,-59.55 37.7,-46.24"/>
<polygon fill="black" stroke="black" points="41.2,-46.18 37.7,-36.18 34.2,-46.18 41.2,-46.18"/>
<text text-anchor="middle" x="60.7" y="-57.8" font-family="Times,serif" font-size="14.00">सम्बन्धः</text>
</g>
<!-- 5 -->
<g id="node5" class="node">
<title>5</title>
<g id="a_node5"><a xlink:title="भू1{कृत्_प्रत्ययः:क्त्वा;भू;भ्वादिः}">
<ellipse fill="#808080" stroke="#808080" cx="215.7" cy="-192" rx="44.39" ry="18"/>
<text text-anchor="middle" x="215.7" y="-188.3" font-family="Times,serif" font-size="14.00">भूत्वा (5)</text>
</a>
</g>
</g>
<!-- 6 -->
<g id="node6" class="node">
<title>6</title>
<g id="a_node6"><a xlink:title="भू1{कृत्_प्रत्ययः:क्त्वा;भू;भ्वादिः}">
<ellipse fill="#808080" stroke="#808080" cx="175.7" cy="-279" rx="44.39" ry="18"/>
<text text-anchor="middle" x="175.7" y="-275.3" font-family="Times,serif" font-size="14.00">भूत्वा (6)</text>
</a>
</g>
</g>
<!-- 6&#45;&gt;1 -->
<g id="edge2" class="edge">
<title>6&#45;&gt;1</title>
<path fill="none" stroke="black" stroke-dasharray="1,5" d="M159.33,-262.01C146.25,-249.24 127.73,-231.14 112.93,-216.68"/>
<polygon fill="black" stroke="black" points="115.18,-213.98 105.58,-209.5 110.29,-218.99 115.18,-213.98"/>
<text text-anchor="middle" x="150.2" y="-231.8" font-family="Times,serif" font-size="14.00">कर्ता</text>
</g>
<!-- 6&#45;&gt;5 -->
<g id="edge6" class="edge">
<title>6&#45;&gt;5</title>
<path fill="none" stroke="black" d="M183.6,-261.21C189.24,-249.22 196.94,-232.85 203.39,-219.16"/>
<polygon fill="black" stroke="black" points="206.72,-220.3 207.81,-209.76 200.39,-217.32 206.72,-220.3"/>
<text text-anchor="middle" x="215.2" y="-231.8" font-family="Times,serif" font-size="14.00">वीप्सा</text>
</g>
<!-- 7 -->
<g id="node7" class="node">
<title>7</title>
<g id="a_node7"><a xlink:title="प्र_ली1{कर्तरि;लट्;प्र;एक;आत्मनेपदी;प्र_लीङ्;दिवादिः}">
<ellipse fill="#ff6347" stroke="#ff6347" cx="309.7" cy="-366" rx="57.39" ry="18"/>
<text text-anchor="middle" x="309.7" y="-362.3" font-family="Times,serif" font-size="14.00">प्रलीयते (7)</text>
</a>
</g>
</g>
<!-- 7&#45;&gt;1 -->
<g id="edge1" class="edge">
<title>7&#45;&gt;1</title>
<path fill="none" stroke="black" d="M252.75,-363.33C203.55,-358.59 134.7,-343.38 97.7,-297 80.62,-275.6 80.57,-243.24 83.39,-220.3"/>
<polygon fill="black" stroke="black" points="86.88,-220.61 84.89,-210.2 79.96,-219.58 86.88,-220.61"/>
<text text-anchor="middle" x="110.2" y="-275.3" font-family="Times,serif" font-size="14.00">कर्ता</text>
</g>
<!-- 7&#45;&gt;6 -->
<g id="edge7" class="edge">
<title>7&#45;&gt;6</title>
<path fill="none" stroke="black" d="M285.43,-349.61C263.63,-335.78 231.47,-315.38 207.59,-300.23"/>
<polygon fill="black" stroke="black" points="209.21,-297.11 198.89,-294.71 205.46,-303.02 209.21,-297.11"/>
<text text-anchor="middle" x="276.2" y="-318.8" font-family="Times,serif" font-size="14.00">पूर्वकालः</text>
</g>
<!-- 8 -->
<g id="node8" class="node">
<title>8</title>
<g id="a_node8"><a xlink:title="रात्रि&#45;आगम{पुं}{7;एक}">
<ellipse fill="#708090" stroke="#708090" cx="309.7" cy="-279" rx="71.49" ry="18"/>
<text text-anchor="middle" x="309.7" y="-275.3" font-family="Times,serif" font-size="14.00">रात्रि&#45;आगमे (8)</text>
</a>
</g>
</g>
<!-- 7&#45;&gt;8 -->
<g id="edge8" class="edge">
<title>7&#45;&gt;8</title>
<path fill="none" stroke="black" d="M309.7,-347.8C309.7,-336.16 309.7,-320.55 309.7,-307.24"/>
<polygon fill="black" stroke="black" points="313.2,-307.18 309.7,-297.18 306.2,-307.18 313.2,-307.18"/>
<text text-anchor="middle" x="340.2" y="-318.8" font-family="Times,serif" font-size="14.00">अधिकरणम्</text>
</g>
<!-- 9 -->
<g id="node9" class="node">
<title>9</title>
<g id="a_node9"><a xlink:title="न&#45;वश{पुं}{1;एक}">
<ellipse fill="#00bfff" stroke="#00bfff" cx="451.7" cy="-279" rx="52.79" ry="18"/>
<text text-anchor="middle" x="451.7" y="-275.3" font-family="Times,serif" font-size="14.00">अ&#45;वशः (9)</text>
</a>
</g>
</g>
<!-- 7&#45;&gt;9 -->
<g id="edge9" class="edge">
<title>7&#45;&gt;9</title>
<path fill="none" stroke="black" d="M338.13,-350.34C349.61,-344.25 362.9,-336.99 374.7,-330 389.99,-320.94 406.58,-310.28 420.43,-301.13"/>
<polygon fill="black" stroke="black" points="422.7,-303.82 429.09,-295.37 418.83,-297.99 422.7,-303.82"/>
<text text-anchor="middle" x="450.7" y="-318.8" font-family="Times,serif" font-size="14.00">कर्तृसमानाधिकरणम्</text>
</g>
<!-- 10 -->
<g id="node10" class="node">
<title>10</title>
<g id="a_node10"><a xlink:title="पार्थ{पुं}{8;एक}">
<ellipse fill="#7fffd4" stroke="#7fffd4" cx="573.7" cy="-279" rx="46.59" ry="18"/>
<text text-anchor="middle" x="573.7" y="-275.3" font-family="Times,serif" font-size="14.00">पार्थ (10)</text>
</a>
</g>
</g>
<!-- 7&#45;&gt;10 -->
<g id="edge10" class="edge">
<title>7&#45;&gt;10</title>
<path fill="none" stroke="black" d="M365.6,-361.98C406.16,-358.16 461.59,-349.52 506.7,-330 522.06,-323.35 537.19,-312.54 549.17,-302.67"/>
<polygon fill="black" stroke="black" points="551.59,-305.2 556.92,-296.04 547.05,-299.88 551.59,-305.2"/>
<text text-anchor="middle" x="558.2" y="-318.8" font-family="Times,serif" font-size="14.00">सम्बोध्यः</text>
</g>
<!-- 11 -->
<g id="node11" class="node">
<title>11</title>
<g id="a_node11"><a xlink:title="प्र_भू1{कर्तरि;लट्;प्र;एक;परस्मैपदी;प्र_भू;भ्वादिः}">
<ellipse fill="#ff6347" stroke="#ff6347" cx="785.7" cy="-366" rx="61.99" ry="18"/>
<text text-anchor="middle" x="785.7" y="-362.3" font-family="Times,serif" font-size="14.00">प्रभवति (11)</text>
</a>
</g>
</g>
<!-- 12 -->
<g id="node12" class="node">
<title>12</title>
<g id="a_node12"><a xlink:title="अहः&#45;आगम{पुं}{7;एक}">
<ellipse fill="#708090" stroke="#708090" cx="711.7" cy="-279" rx="73.39" ry="18"/>
<text text-anchor="middle" x="711.7" y="-275.3" font-family="Times,serif" font-size="14.00">अहः&#45;आगमे (12)</text>
</a>
</g>
</g>
<!-- 11&#45;&gt;12 -->
<g id="edge11" class="edge">
<title>11&#45;&gt;12</title>
<path fill="none" stroke="black" d="M771.08,-348.21C760.23,-335.75 745.28,-318.57 733.09,-304.57"/>
<polygon fill="black" stroke="black" points="735.49,-302 726.29,-296.76 730.21,-306.6 735.49,-302"/>
<text text-anchor="middle" x="784.2" y="-318.8" font-family="Times,serif" font-size="14.00">अधिकरणम्</text>
</g>
<!-- 12.1 -->
<g id="node13" class="node">
<title>12.1</title>
<g id="a_node13"><a xlink:title="(तद्{पुं}{1;एक})">
<ellipse fill="#00bfff" stroke="#00bfff" cx="860.7" cy="-279" rx="57.69" ry="18"/>
<text text-anchor="middle" x="860.7" y="-275.3" font-family="Times,serif" font-size="14.00">(सः) (12.1)</text>
</a>
</g>
</g>
<!-- 11&#45;&gt;12.1 -->
<g id="edge12" class="edge">
<title>11&#45;&gt;12.1</title>
<path fill="none" stroke="black" d="M801.67,-348.45C807.14,-342.68 813.26,-336.11 818.7,-330 825.93,-321.87 833.65,-312.81 840.47,-304.65"/>
<polygon fill="black" stroke="black" points="843.23,-306.8 846.93,-296.87 837.85,-302.32 843.23,-306.8"/>
<text text-anchor="middle" x="843.2" y="-318.8" font-family="Times,serif" font-size="14.00">कर्ता</text>
</g>
</g>
</svg>
