<?xml version="1.0" encoding="UTF-8" standalone="no"?>
<!DOCTYPE svg PUBLIC "-//W3C//DTD SVG 1.1//EN"
 "http://www.w3.org/Graphics/SVG/1.1/DTD/svg11.dtd">
<!-- Generated by graphviz version 2.43.0 (0)
 -->
<!-- Title: %3 Pages: 1 -->
<svg width="1081pt" height="392pt"
 viewBox="0.00 0.00 1081.44 392.00" xmlns="http://www.w3.org/2000/svg" xmlns:xlink="http://www.w3.org/1999/xlink">
<g id="graph0" class="graph" transform="scale(1 1) rotate(0) translate(4 388)">
<title>%3</title>
<polygon fill="#fffacd" stroke="transparent" points="-4,4 -4,-388 1077.44,-388 1077.44,4 -4,4"/>
<!-- 1 -->
<g id="node1" class="node">
<title>1</title>
<g id="a_node1"><a xlink:title="यद्{नपुं}{2;एक}">
<ellipse fill="#7cfc00" stroke="#7cfc00" cx="652.14" cy="-18" rx="38.19" ry="18"/>
<text text-anchor="middle" x="652.14" y="-14.3" font-family="Times,serif" font-size="14.00">यत् (1)</text>
</a>
</g>
</g>
<!-- 2 -->
<g id="node2" class="node">
<title>2</title>
<g id="a_node2"><a xlink:title="अक्षर{नपुं}{2;एक}">
<ellipse fill="#7cfc00" stroke="#7cfc00" cx="352.14" cy="-105" rx="53.89" ry="18"/>
<text text-anchor="middle" x="352.14" y="-101.3" font-family="Times,serif" font-size="14.00">अ&#45;क्षरम् (2)</text>
</a>
</g>
</g>
<!-- 2&#45;&gt;1 -->
<g id="edge1" class="edge">
<title>2&#45;&gt;1</title>
<path fill="none" stroke="black" d="M391.65,-92.67C399.4,-90.63 407.5,-88.64 415.14,-87 464.44,-76.42 478.55,-82.44 527.14,-69 558.17,-60.42 591.99,-46.6 616.62,-35.66"/>
<polygon fill="black" stroke="black" points="618.23,-38.77 625.91,-31.48 615.36,-32.39 618.23,-38.77"/>
<text text-anchor="middle" x="594.64" y="-57.8" font-family="Times,serif" font-size="14.00">विशेषणम्</text>
</g>
<!-- 3 -->
<g id="node3" class="node">
<title>3</title>
<g id="a_node3"><a xlink:title="वेद&#45;विद्{पुं}{1;बहु}">
<ellipse fill="#00bfff" stroke="#00bfff" cx="222.14" cy="-105" rx="57.69" ry="18"/>
<text text-anchor="middle" x="222.14" y="-101.3" font-family="Times,serif" font-size="14.00">वेद&#45;विदः (3)</text>
</a>
</g>
</g>
<!-- 4 -->
<g id="node4" class="node">
<title>4</title>
<g id="a_node4"><a xlink:title="वद्1{कर्तरि;लट्;प्र;बहु;परस्मैपदी;वदँ;भ्वादिः}">
<ellipse fill="#ff6347" stroke="#ff6347" cx="339.14" cy="-192" rx="49.29" ry="18"/>
<text text-anchor="middle" x="339.14" y="-188.3" font-family="Times,serif" font-size="14.00">वदन्ति (4)</text>
</a>
</g>
</g>
<!-- 4&#45;&gt;2 -->
<g id="edge3" class="edge">
<title>4&#45;&gt;2</title>
<path fill="none" stroke="black" d="M341.77,-173.8C343.55,-162.16 345.94,-146.55 347.98,-133.24"/>
<polygon fill="black" stroke="black" points="351.46,-133.59 349.52,-123.18 344.55,-132.53 351.46,-133.59"/>
<text text-anchor="middle" x="356.14" y="-144.8" font-family="Times,serif" font-size="14.00">कर्म</text>
</g>
<!-- 4&#45;&gt;3 -->
<g id="edge4" class="edge">
<title>4&#45;&gt;3</title>
<path fill="none" stroke="black" d="M317.96,-175.61C299.55,-162.24 272.69,-142.72 252.09,-127.75"/>
<polygon fill="black" stroke="black" points="254.11,-124.9 243.97,-121.85 250,-130.56 254.11,-124.9"/>
<text text-anchor="middle" x="299.64" y="-144.8" font-family="Times,serif" font-size="14.00">कर्ता</text>
</g>
<!-- 5 -->
<g id="node5" class="node">
<title>5</title>
<g id="a_node5"><a xlink:title="विश्1{कर्तरि;लट्;प्र;बहु;परस्मैपदी;विशँ;तुदादिः}">
<ellipse fill="#ff6347" stroke="#ff6347" cx="460.14" cy="-192" rx="53.09" ry="18"/>
<text text-anchor="middle" x="460.14" y="-188.3" font-family="Times,serif" font-size="14.00">विशन्ति (5)</text>
</a>
</g>
</g>
<!-- 6 -->
<g id="node6" class="node">
<title>6</title>
<g id="a_node6"><a xlink:title="यद्{नपुं}{2;एक}">
<ellipse fill="#7cfc00" stroke="#7cfc00" cx="602.14" cy="-105" rx="38.19" ry="18"/>
<text text-anchor="middle" x="602.14" y="-101.3" font-family="Times,serif" font-size="14.00">यत् (6)</text>
</a>
</g>
</g>
<!-- 5&#45;&gt;6 -->
<g id="edge7" class="edge">
<title>5&#45;&gt;6</title>
<path fill="none" stroke="black" d="M485.2,-176C508.99,-161.76 544.84,-140.3 570.57,-124.9"/>
<polygon fill="black" stroke="black" points="572.43,-127.87 579.21,-119.73 568.83,-121.86 572.43,-127.87"/>
<text text-anchor="middle" x="549.14" y="-144.8" font-family="Times,serif" font-size="14.00">कर्म</text>
</g>
<!-- 7 -->
<g id="node7" class="node">
<title>7</title>
<g id="a_node7"><a xlink:title="यति{पुं}{1;बहु}">
<ellipse fill="#00bfff" stroke="#00bfff" cx="472.14" cy="-105" rx="48.19" ry="18"/>
<text text-anchor="middle" x="472.14" y="-101.3" font-family="Times,serif" font-size="14.00">यतयः (7)</text>
</a>
</g>
</g>
<!-- 5&#45;&gt;7 -->
<g id="edge9" class="edge">
<title>5&#45;&gt;7</title>
<path fill="none" stroke="black" d="M462.57,-173.8C464.21,-162.16 466.42,-146.55 468.3,-133.24"/>
<polygon fill="black" stroke="black" points="471.79,-133.57 469.72,-123.18 464.86,-132.59 471.79,-133.57"/>
<text text-anchor="middle" x="478.64" y="-144.8" font-family="Times,serif" font-size="14.00">कर्ता</text>
</g>
<!-- 8 -->
<g id="node8" class="node">
<title>8</title>
<g id="a_node8"><a xlink:title="वीत&#45;राग{पुं}{1;बहु}">
<ellipse fill="#00bfff" stroke="#00bfff" cx="472.14" cy="-18" rx="63.09" ry="18"/>
<text text-anchor="middle" x="472.14" y="-14.3" font-family="Times,serif" font-size="14.00">वीत&#45;रागाः (8)</text>
</a>
</g>
</g>
<!-- 7&#45;&gt;8 -->
<g id="edge10" class="edge">
<title>7&#45;&gt;8</title>
<path fill="none" stroke="black" d="M472.14,-86.8C472.14,-75.16 472.14,-59.55 472.14,-46.24"/>
<polygon fill="black" stroke="black" points="475.64,-46.18 472.14,-36.18 468.64,-46.18 475.64,-46.18"/>
<text text-anchor="middle" x="497.64" y="-57.8" font-family="Times,serif" font-size="14.00">विशेषणम्</text>
</g>
<!-- 9 -->
<g id="node9" class="node">
<title>9</title>
<g id="a_node9"><a xlink:title="यद्{नपुं}{2;एक}">
<ellipse fill="#7cfc00" stroke="#7cfc00" cx="710.14" cy="-105" rx="38.19" ry="18"/>
<text text-anchor="middle" x="710.14" y="-101.3" font-family="Times,serif" font-size="14.00">यत् (9)</text>
</a>
</g>
</g>
<!-- 10 -->
<g id="node10" class="node">
<title>10</title>
<g id="a_node10"><a xlink:title="इष्2{कृत्_प्रत्ययः:शतृ;इषुँ;तुदादिः;पुं}{1;बहु}">
<ellipse fill="#00bfff" stroke="#00bfff" cx="594.14" cy="-192" rx="62.29" ry="18"/>
<text text-anchor="middle" x="594.14" y="-188.3" font-family="Times,serif" font-size="14.00">इच्छन्तः (10)</text>
</a>
</g>
</g>
<!-- 10&#45;&gt;9 -->
<g id="edge11" class="edge">
<title>10&#45;&gt;9</title>
<path fill="none" stroke="black" d="M581.6,-174.32C575.38,-163.89 570.64,-150.64 578.14,-141 598.14,-115.31 617.68,-131.37 649.14,-123 655.35,-121.35 661.9,-119.57 668.31,-117.8"/>
<polygon fill="black" stroke="black" points="669.51,-121.1 678.21,-115.05 667.64,-114.35 669.51,-121.1"/>
<text text-anchor="middle" x="588.14" y="-144.8" font-family="Times,serif" font-size="14.00">कर्म</text>
</g>
<!-- 11 -->
<g id="node11" class="node">
<title>11</title>
<g id="a_node11"><a xlink:title="ब्रह्मचर्य{नपुं}{2;एक}">
<ellipse fill="#7cfc00" stroke="#7cfc00" cx="72.14" cy="-192" rx="72.29" ry="18"/>
<text text-anchor="middle" x="72.14" y="-188.3" font-family="Times,serif" font-size="14.00">ब्रह्म&#45;चर्यम् (11)</text>
</a>
</g>
</g>
<!-- 12 -->
<g id="node12" class="node">
<title>12</title>
<g id="a_node12"><a xlink:title="चर्1{कर्तरि;लट्;प्र;बहु;परस्मैपदी;चरँ;भ्वादिः}">
<ellipse fill="#ff6347" stroke="#ff6347" cx="339.14" cy="-279" rx="54.69" ry="18"/>
<text text-anchor="middle" x="339.14" y="-275.3" font-family="Times,serif" font-size="14.00">चरन्ति (12)</text>
</a>
</g>
</g>
<!-- 12&#45;&gt;4 -->
<g id="edge5" class="edge">
<title>12&#45;&gt;4</title>
<path fill="none" stroke="black" d="M339.14,-260.8C339.14,-249.16 339.14,-233.55 339.14,-220.24"/>
<polygon fill="black" stroke="black" points="342.64,-220.18 339.14,-210.18 335.64,-220.18 342.64,-220.18"/>
<text text-anchor="middle" x="368.64" y="-231.8" font-family="Times,serif" font-size="14.00">समुच्चितम्</text>
</g>
<!-- 12&#45;&gt;5 -->
<g id="edge6" class="edge">
<title>12&#45;&gt;5</title>
<path fill="none" stroke="black" d="M368.11,-263.51C379.07,-257.62 391.47,-250.45 402.14,-243 413.67,-234.96 425.57,-225.03 435.57,-216.14"/>
<polygon fill="black" stroke="black" points="438.07,-218.6 443.13,-209.3 433.37,-213.41 438.07,-218.6"/>
<text text-anchor="middle" x="449.64" y="-231.8" font-family="Times,serif" font-size="14.00">समुच्चितम्</text>
</g>
<!-- 12&#45;&gt;10 -->
<g id="edge13" class="edge">
<title>12&#45;&gt;10</title>
<path fill="none" stroke="black" d="M385.16,-269.08C413.74,-262.99 451.02,-254.03 483.14,-243 507.76,-234.55 534.38,-222.66 555.37,-212.59"/>
<polygon fill="black" stroke="black" points="557.13,-215.63 564.6,-208.12 554.07,-209.33 557.13,-215.63"/>
<text text-anchor="middle" x="570.14" y="-231.8" font-family="Times,serif" font-size="14.00">वर्तमानसमानकालः</text>
</g>
<!-- 12&#45;&gt;11 -->
<g id="edge14" class="edge">
<title>12&#45;&gt;11</title>
<path fill="none" stroke="black" d="M297.45,-267.34C272.55,-260.77 240.39,-251.92 212.14,-243 181.02,-233.17 146.48,-220.85 119.49,-210.9"/>
<polygon fill="black" stroke="black" points="120.51,-207.54 109.91,-207.35 118.08,-214.1 120.51,-207.54"/>
<text text-anchor="middle" x="222.14" y="-231.8" font-family="Times,serif" font-size="14.00">कर्म</text>
</g>
<!-- 12.1 -->
<g id="node13" class="node">
<title>12.1</title>
<g id="a_node13"><a xlink:title="(च{अव्य})">
<ellipse fill="#ff00ff" stroke="#ff00ff" cx="217.14" cy="-192" rx="54.69" ry="18"/>
<text text-anchor="middle" x="217.14" y="-188.3" font-family="Times,serif" font-size="14.00">(च) (12.1)</text>
</a>
</g>
</g>
<!-- 12&#45;&gt;12.1 -->
<g id="edge15" class="edge">
<title>12&#45;&gt;12.1</title>
<path fill="none" stroke="black" d="M296.92,-267.29C281.09,-261.84 263.69,-253.98 250.14,-243 242.19,-236.56 235.48,-227.68 230.22,-219.19"/>
<polygon fill="black" stroke="black" points="233.12,-217.2 225.11,-210.26 227.04,-220.68 233.12,-217.2"/>
<text text-anchor="middle" x="292.64" y="-231.8" font-family="Times,serif" font-size="14.00">समुच्चयद्योतकः</text>
</g>
<!-- 13 -->
<g id="node14" class="node">
<title>13</title>
<g id="a_node14"><a xlink:title="तद्{नपुं}{2;एक}">
<ellipse fill="#7cfc00" stroke="#7cfc00" cx="719.14" cy="-192" rx="44.39" ry="18"/>
<text text-anchor="middle" x="719.14" y="-188.3" font-family="Times,serif" font-size="14.00">तत् (13)</text>
</a>
</g>
</g>
<!-- 13&#45;&gt;1 -->
<g id="edge2" class="edge">
<title>13&#45;&gt;1</title>
<path fill="none" stroke="black" stroke-dasharray="1,5" d="M755.14,-181.38C767.83,-176.07 780.76,-168.02 788.14,-156 791.63,-150.32 789.86,-147.44 788.14,-141 781.01,-114.26 776.18,-107.09 757.14,-87 737.14,-65.9 709.35,-48.27 687.38,-36.25"/>
<polygon fill="black" stroke="black" points="688.83,-33.06 678.36,-31.45 685.54,-39.24 688.83,-33.06"/>
<text text-anchor="middle" x="818.14" y="-101.3" font-family="Times,serif" font-size="14.00">नित्यसम्बन्धः</text>
</g>
<!-- 13&#45;&gt;6 -->
<g id="edge8" class="edge">
<title>13&#45;&gt;6</title>
<path fill="none" stroke="black" stroke-dasharray="1,5" d="M684.09,-180.9C668.6,-175.28 650.85,-167.12 637.14,-156 628.84,-149.26 621.64,-140.06 615.97,-131.39"/>
<polygon fill="black" stroke="black" points="618.84,-129.37 610.63,-122.67 612.87,-133.03 618.84,-129.37"/>
<text text-anchor="middle" x="673.14" y="-144.8" font-family="Times,serif" font-size="14.00">नित्यसम्बन्धः</text>
</g>
<!-- 13&#45;&gt;9 -->
<g id="edge12" class="edge">
<title>13&#45;&gt;9</title>
<path fill="none" stroke="black" stroke-dasharray="1,5" d="M717.32,-173.8C716.09,-162.16 714.44,-146.55 713.03,-133.24"/>
<polygon fill="black" stroke="black" points="716.5,-132.75 711.96,-123.18 709.53,-133.49 716.5,-132.75"/>
<text text-anchor="middle" x="751.14" y="-144.8" font-family="Times,serif" font-size="14.00">नित्यसम्बन्धः</text>
</g>
<!-- 14 -->
<g id="node15" class="node">
<title>14</title>
<g id="a_node15"><a xlink:title="युष्मद्{4;एक}">
<ellipse fill="#87cefa" stroke="#87cefa" cx="614.14" cy="-279" rx="38.19" ry="18"/>
<text text-anchor="middle" x="614.14" y="-275.3" font-family="Times,serif" font-size="14.00">ते (14)</text>
</a>
</g>
</g>
<!-- 15 -->
<g id="node16" class="node">
<title>15</title>
<g id="a_node16"><a xlink:title="पद{नपुं}{2;एक}">
<ellipse fill="#7cfc00" stroke="#7cfc00" cx="719.14" cy="-279" rx="48.99" ry="18"/>
<text text-anchor="middle" x="719.14" y="-275.3" font-family="Times,serif" font-size="14.00">पदम् (15)</text>
</a>
</g>
</g>
<!-- 15&#45;&gt;13 -->
<g id="edge16" class="edge">
<title>15&#45;&gt;13</title>
<path fill="none" stroke="black" d="M719.14,-260.8C719.14,-249.16 719.14,-233.55 719.14,-220.24"/>
<polygon fill="black" stroke="black" points="722.64,-220.18 719.14,-210.18 715.64,-220.18 722.64,-220.18"/>
<text text-anchor="middle" x="744.64" y="-231.8" font-family="Times,serif" font-size="14.00">विशेषणम्</text>
</g>
<!-- 16 -->
<g id="node17" class="node">
<title>16</title>
<g id="a_node17"><a xlink:title="सङ्ग्रह{पुं}{3;एक}">
<ellipse fill="#40e0d0" stroke="#40e0d0" cx="854.14" cy="-279" rx="68.49" ry="18"/>
<text text-anchor="middle" x="854.14" y="-275.3" font-family="Times,serif" font-size="14.00">सङ्ग्रहेण (16)</text>
</a>
</g>
</g>
<!-- 17 -->
<g id="node18" class="node">
<title>17</title>
<g id="a_node18"><a xlink:title="प्र_वच्1{कर्तरि;लृट्;उ;एक;आत्मनेपदी;प्र_वचँ;अदादिः}">
<ellipse fill="#ff6347" stroke="#ff6347" cx="820.14" cy="-366" rx="60.39" ry="18"/>
<text text-anchor="middle" x="820.14" y="-362.3" font-family="Times,serif" font-size="14.00">प्रवक्ष्ये (17)</text>
</a>
</g>
</g>
<!-- 17&#45;&gt;14 -->
<g id="edge17" class="edge">
<title>17&#45;&gt;14</title>
<path fill="none" stroke="black" d="M773.11,-354.52C750.03,-348.63 722.11,-340.36 698.14,-330 679.13,-321.78 659.16,-310.03 643.46,-299.99"/>
<polygon fill="black" stroke="black" points="645.03,-296.84 634.75,-294.31 641.21,-302.71 645.03,-296.84"/>
<text text-anchor="middle" x="728.64" y="-318.8" font-family="Times,serif" font-size="14.00">सम्प्रदानम्</text>
</g>
<!-- 17&#45;&gt;15 -->
<g id="edge18" class="edge">
<title>17&#45;&gt;15</title>
<path fill="none" stroke="black" d="M800.67,-348.61C785.1,-335.51 763.11,-317.01 745.9,-302.51"/>
<polygon fill="black" stroke="black" points="747.78,-299.52 737.87,-295.76 743.27,-304.88 747.78,-299.52"/>
<text text-anchor="middle" x="785.14" y="-318.8" font-family="Times,serif" font-size="14.00">कर्म</text>
</g>
<!-- 17&#45;&gt;16 -->
<g id="edge19" class="edge">
<title>17&#45;&gt;16</title>
<path fill="none" stroke="black" d="M827.02,-347.8C831.72,-336.05 838.05,-320.24 843.41,-306.84"/>
<polygon fill="black" stroke="black" points="846.81,-307.76 847.27,-297.18 840.31,-305.16 846.81,-307.76"/>
<text text-anchor="middle" x="881.64" y="-318.8" font-family="Times,serif" font-size="14.00">क्रियाविशेषणम्</text>
</g>
<!-- 17.1 -->
<g id="node19" class="node">
<title>17.1</title>
<g id="a_node19"><a xlink:title="(अस्मद्{1;एक})">
<ellipse fill="#00bfff" stroke="#00bfff" cx="1007.14" cy="-279" rx="66.09" ry="18"/>
<text text-anchor="middle" x="1007.14" y="-275.3" font-family="Times,serif" font-size="14.00">(अहम्) (17.1)</text>
</a>
</g>
</g>
<!-- 17&#45;&gt;17.1 -->
<g id="edge20" class="edge">
<title>17&#45;&gt;17.1</title>
<path fill="none" stroke="black" d="M863.93,-353.53C883.95,-347.6 907.71,-339.59 928.14,-330 944.94,-322.12 962.48,-311.31 976.76,-301.76"/>
<polygon fill="black" stroke="black" points="978.9,-304.53 985.19,-296.01 974.95,-298.75 978.9,-304.53"/>
<text text-anchor="middle" x="967.64" y="-318.8" font-family="Times,serif" font-size="14.00">कर्ता</text>
</g>
</g>
</svg>
