<?xml version="1.0" encoding="UTF-8" standalone="no"?>
<!DOCTYPE svg PUBLIC "-//W3C//DTD SVG 1.1//EN"
 "http://www.w3.org/Graphics/SVG/1.1/DTD/svg11.dtd">
<!-- Generated by graphviz version 2.43.0 (0)
 -->
<!-- Title: %3 Pages: 1 -->
<svg width="1308pt" height="218pt"
 viewBox="0.00 0.00 1307.60 218.00" xmlns="http://www.w3.org/2000/svg" xmlns:xlink="http://www.w3.org/1999/xlink">
<g id="graph0" class="graph" transform="scale(1 1) rotate(0) translate(4 214)">
<title>%3</title>
<polygon fill="#fffacd" stroke="transparent" points="-4,4 -4,-214 1303.6,-214 1303.6,4 -4,4"/>
<!-- 1 -->
<g id="node1" class="node">
<title>1</title>
<g id="a_node1"><a xlink:title="किम्{नपुं}{1;एक}">
<ellipse fill="#00bfff" stroke="#00bfff" cx="41.6" cy="-105" rx="41.69" ry="18"/>
<text text-anchor="middle" x="41.6" y="-101.3" font-family="Times,serif" font-size="14.00">किम् (1)</text>
</a>
</g>
</g>
<!-- 2 -->
<g id="node2" class="node">
<title>2</title>
<g id="a_node2"><a xlink:title="तद्{नपुं}{1;एक}">
<ellipse fill="#00bfff" stroke="#00bfff" cx="168.6" cy="-18" rx="38.19" ry="18"/>
<text text-anchor="middle" x="168.6" y="-14.3" font-family="Times,serif" font-size="14.00">तत् (2)</text>
</a>
</g>
</g>
<!-- 3 -->
<g id="node3" class="node">
<title>3</title>
<g id="a_node3"><a xlink:title="ब्रह्मन्{नपुं}{1;एक}">
<ellipse fill="#00bfff" stroke="#00bfff" cx="168.6" cy="-105" rx="44.69" ry="18"/>
<text text-anchor="middle" x="168.6" y="-101.3" font-family="Times,serif" font-size="14.00">ब्रह्म (3)</text>
</a>
</g>
</g>
<!-- 3&#45;&gt;2 -->
<g id="edge2" class="edge">
<title>3&#45;&gt;2</title>
<path fill="none" stroke="black" d="M168.6,-86.8C168.6,-75.16 168.6,-59.55 168.6,-46.24"/>
<polygon fill="black" stroke="black" points="172.1,-46.18 168.6,-36.18 165.1,-46.18 172.1,-46.18"/>
<text text-anchor="middle" x="194.1" y="-57.8" font-family="Times,serif" font-size="14.00">विशेषणम्</text>
</g>
<!-- 3.1 -->
<g id="node4" class="node">
<title>3.1</title>
<g id="a_node4"><a xlink:title="(अस्2{कर्तरि;लट्;प्र;एक;परस्मैपदी;असँ;अदादिः})">
<ellipse fill="#ff6347" stroke="#ff6347" cx="131.6" cy="-192" rx="63.09" ry="18"/>
<text text-anchor="middle" x="131.6" y="-188.3" font-family="Times,serif" font-size="14.00">(अस्ति) (3.1)</text>
</a>
</g>
</g>
<!-- 3.1&#45;&gt;1 -->
<g id="edge1" class="edge">
<title>3.1&#45;&gt;1</title>
<path fill="none" stroke="black" d="M78.26,-182.12C63.64,-176.97 49.41,-168.84 40.6,-156 36.08,-149.43 34.94,-141.15 35.32,-133.22"/>
<polygon fill="black" stroke="black" points="38.81,-133.53 36.55,-123.18 31.86,-132.68 38.81,-133.53"/>
<text text-anchor="middle" x="92.6" y="-144.8" font-family="Times,serif" font-size="14.00">कर्तृसमानाधिकरणम्</text>
</g>
<!-- 3.1&#45;&gt;3 -->
<g id="edge3" class="edge">
<title>3.1&#45;&gt;3</title>
<path fill="none" stroke="black" d="M139.08,-173.8C144.28,-161.85 151.31,-145.72 157.2,-132.18"/>
<polygon fill="black" stroke="black" points="160.46,-133.45 161.25,-122.89 154.05,-130.66 160.46,-133.45"/>
<text text-anchor="middle" x="165.1" y="-144.8" font-family="Times,serif" font-size="14.00">कर्ता</text>
</g>
<!-- 4 -->
<g id="node5" class="node">
<title>4</title>
<g id="a_node5"><a xlink:title="किम्{नपुं}{1;एक}">
<ellipse fill="#00bfff" stroke="#00bfff" cx="292.6" cy="-105" rx="41.69" ry="18"/>
<text text-anchor="middle" x="292.6" y="-101.3" font-family="Times,serif" font-size="14.00">किम् (4)</text>
</a>
</g>
</g>
<!-- 5 -->
<g id="node6" class="node">
<title>5</title>
<g id="a_node6"><a xlink:title="अध्यात्म{नपुं}{1;एक}">
<ellipse fill="#00bfff" stroke="#00bfff" cx="423.6" cy="-105" rx="71.49" ry="18"/>
<text text-anchor="middle" x="423.6" y="-101.3" font-family="Times,serif" font-size="14.00">अधि&#45;आत्मम् (5)</text>
</a>
</g>
</g>
<!-- 5.1 -->
<g id="node7" class="node">
<title>5.1</title>
<g id="a_node7"><a xlink:title="(अस्2{कर्तरि;लट्;प्र;एक;परस्मैपदी;असँ;अदादिः})">
<ellipse fill="#ff6347" stroke="#ff6347" cx="328.6" cy="-192" rx="63.09" ry="18"/>
<text text-anchor="middle" x="328.6" y="-188.3" font-family="Times,serif" font-size="14.00">(अस्ति) (5.1)</text>
</a>
</g>
</g>
<!-- 5.1&#45;&gt;4 -->
<g id="edge4" class="edge">
<title>5.1&#45;&gt;4</title>
<path fill="none" stroke="black" d="M310.41,-174.74C305.43,-169.29 300.59,-162.84 297.6,-156 294.56,-149.05 293,-141.04 292.28,-133.51"/>
<polygon fill="black" stroke="black" points="295.77,-133.13 291.74,-123.33 288.77,-133.5 295.77,-133.13"/>
<text text-anchor="middle" x="349.6" y="-144.8" font-family="Times,serif" font-size="14.00">कर्तृसमानाधिकरणम्</text>
</g>
<!-- 5.1&#45;&gt;5 -->
<g id="edge5" class="edge">
<title>5.1&#45;&gt;5</title>
<path fill="none" stroke="black" d="M368.64,-177.92C380.39,-172.58 392.51,-165.39 401.6,-156 407.88,-149.51 412.53,-140.92 415.9,-132.7"/>
<polygon fill="black" stroke="black" points="419.29,-133.62 419.39,-123.02 412.71,-131.24 419.29,-133.62"/>
<text text-anchor="middle" x="425.1" y="-144.8" font-family="Times,serif" font-size="14.00">कर्ता</text>
</g>
<!-- 6 -->
<g id="node8" class="node">
<title>6</title>
<g id="a_node8"><a xlink:title="किम्{नपुं}{1;एक}">
<ellipse fill="#00bfff" stroke="#00bfff" cx="554.6" cy="-105" rx="41.69" ry="18"/>
<text text-anchor="middle" x="554.6" y="-101.3" font-family="Times,serif" font-size="14.00">किम् (6)</text>
</a>
</g>
</g>
<!-- 7 -->
<g id="node9" class="node">
<title>7</title>
<g id="a_node9"><a xlink:title="कर्मन्{नपुं}{1;एक}">
<ellipse fill="#00bfff" stroke="#00bfff" cx="681.6" cy="-105" rx="38.99" ry="18"/>
<text text-anchor="middle" x="681.6" y="-101.3" font-family="Times,serif" font-size="14.00">कर्म (7)</text>
</a>
</g>
</g>
<!-- 8 -->
<g id="node10" class="node">
<title>8</title>
<g id="a_node10"><a xlink:title="पुरुषोत्तम{पुं}{8;एक}">
<ellipse fill="#7fffd4" stroke="#7fffd4" cx="802.6" cy="-105" rx="63.89" ry="18"/>
<text text-anchor="middle" x="802.6" y="-101.3" font-family="Times,serif" font-size="14.00">पुरुष&#45;उत्तम (8)</text>
</a>
</g>
</g>
<!-- 8.1 -->
<g id="node11" class="node">
<title>8.1</title>
<g id="a_node11"><a xlink:title="(अस्2{कर्तरि;लट्;प्र;एक;परस्मैपदी;असँ;अदादिः})">
<ellipse fill="#ff6347" stroke="#ff6347" cx="681.6" cy="-192" rx="63.09" ry="18"/>
<text text-anchor="middle" x="681.6" y="-188.3" font-family="Times,serif" font-size="14.00">(अस्ति) (8.1)</text>
</a>
</g>
</g>
<!-- 8.1&#45;&gt;6 -->
<g id="edge6" class="edge">
<title>8.1&#45;&gt;6</title>
<path fill="none" stroke="black" d="M626.63,-183.14C607.87,-178.06 588.02,-169.72 573.6,-156 567.19,-149.9 562.92,-141.42 560.08,-133.17"/>
<polygon fill="black" stroke="black" points="563.4,-132.05 557.29,-123.4 556.67,-133.98 563.4,-132.05"/>
<text text-anchor="middle" x="625.6" y="-144.8" font-family="Times,serif" font-size="14.00">कर्तृसमानाधिकरणम्</text>
</g>
<!-- 8.1&#45;&gt;7 -->
<g id="edge7" class="edge">
<title>8.1&#45;&gt;7</title>
<path fill="none" stroke="black" d="M681.6,-173.8C681.6,-162.16 681.6,-146.55 681.6,-133.24"/>
<polygon fill="black" stroke="black" points="685.1,-133.18 681.6,-123.18 678.1,-133.18 685.1,-133.18"/>
<text text-anchor="middle" x="694.1" y="-144.8" font-family="Times,serif" font-size="14.00">कर्ता</text>
</g>
<!-- 8.1&#45;&gt;8 -->
<g id="edge8" class="edge">
<title>8.1&#45;&gt;8</title>
<path fill="none" stroke="black" d="M704.36,-175.01C723.37,-161.66 750.66,-142.48 771.66,-127.73"/>
<polygon fill="black" stroke="black" points="773.77,-130.53 779.94,-121.92 769.74,-124.8 773.77,-130.53"/>
<text text-anchor="middle" x="775.1" y="-144.8" font-family="Times,serif" font-size="14.00">सम्बोध्यः</text>
</g>
<!-- 9 -->
<g id="node12" class="node">
<title>9</title>
<g id="a_node12"><a xlink:title="अधि&#45;भूत{नपुं}{1;एक}">
<ellipse fill="#00bfff" stroke="#00bfff" cx="948.6" cy="-105" rx="64.19" ry="18"/>
<text text-anchor="middle" x="948.6" y="-101.3" font-family="Times,serif" font-size="14.00">अधि&#45;भूतम् (9)</text>
</a>
</g>
</g>
<!-- 11 -->
<g id="node14" class="node">
<title>11</title>
<g id="a_node14"><a xlink:title="किम्{नपुं}{1;एक}">
<ellipse fill="#00bfff" stroke="#00bfff" cx="948.6" cy="-18" rx="47.39" ry="18"/>
<text text-anchor="middle" x="948.6" y="-14.3" font-family="Times,serif" font-size="14.00">किम् (11)</text>
</a>
</g>
</g>
<!-- 9&#45;&gt;11 -->
<g id="edge11" class="edge">
<title>9&#45;&gt;11</title>
<path fill="none" stroke="black" d="M948.6,-86.8C948.6,-75.16 948.6,-59.55 948.6,-46.24"/>
<polygon fill="black" stroke="black" points="952.1,-46.18 948.6,-36.18 945.1,-46.18 952.1,-46.18"/>
<text text-anchor="middle" x="1000.6" y="-57.8" font-family="Times,serif" font-size="14.00">कर्मसमानाधिकरणम्</text>
</g>
<!-- 10 -->
<g id="node13" class="node">
<title>10</title>
<g id="a_node13"><a xlink:title="च{अव्य}">
<ellipse fill="#ff00ff" stroke="#ff00ff" cx="1069.6" cy="-105" rx="38.99" ry="18"/>
<text text-anchor="middle" x="1069.6" y="-101.3" font-family="Times,serif" font-size="14.00">च (10)</text>
</a>
</g>
</g>
<!-- 12 -->
<g id="node15" class="node">
<title>12</title>
<g id="a_node15"><a xlink:title="प्र_वच्1{कृत्_प्रत्ययः:क्त;प्र_वचँ;अदादिः;नपुं}{1;एक}">
<ellipse fill="#00bfff" stroke="#00bfff" cx="1024.6" cy="-192" rx="61.99" ry="18"/>
<text text-anchor="middle" x="1024.6" y="-188.3" font-family="Times,serif" font-size="14.00">प्रोक्तम् (12)</text>
</a>
</g>
</g>
<!-- 12&#45;&gt;9 -->
<g id="edge9" class="edge">
<title>12&#45;&gt;9</title>
<path fill="none" stroke="black" d="M1009.58,-174.21C998.44,-161.75 983.09,-144.57 970.57,-130.57"/>
<polygon fill="black" stroke="black" points="972.85,-127.88 963.58,-122.76 967.64,-132.55 972.85,-127.88"/>
<text text-anchor="middle" x="1001.6" y="-144.8" font-family="Times,serif" font-size="14.00">कर्म</text>
</g>
<!-- 12&#45;&gt;10 -->
<g id="edge10" class="edge">
<title>12&#45;&gt;10</title>
<path fill="none" stroke="black" d="M1033.7,-173.8C1040.13,-161.66 1048.85,-145.19 1056.08,-131.52"/>
<polygon fill="black" stroke="black" points="1059.22,-133.07 1060.81,-122.6 1053.04,-129.8 1059.22,-133.07"/>
<text text-anchor="middle" x="1073.6" y="-144.8" font-family="Times,serif" font-size="14.00">सम्बन्धः</text>
</g>
<!-- 13 -->
<g id="node16" class="node">
<title>13</title>
<g id="a_node16"><a xlink:title="अधि&#45;दैव{नपुं}{1;एक}">
<ellipse fill="#00bfff" stroke="#00bfff" cx="1195.6" cy="-105" rx="68.79" ry="18"/>
<text text-anchor="middle" x="1195.6" y="-101.3" font-family="Times,serif" font-size="14.00">अधि&#45;दैवम् (13)</text>
</a>
</g>
</g>
<!-- 14 -->
<g id="node17" class="node">
<title>14</title>
<g id="a_node17"><a xlink:title="किम्{नपुं}{1;एक}">
<ellipse fill="#00bfff" stroke="#00bfff" cx="1195.6" cy="-18" rx="47.39" ry="18"/>
<text text-anchor="middle" x="1195.6" y="-14.3" font-family="Times,serif" font-size="14.00">किम् (14)</text>
</a>
</g>
</g>
<!-- 13&#45;&gt;14 -->
<g id="edge13" class="edge">
<title>13&#45;&gt;14</title>
<path fill="none" stroke="black" d="M1195.6,-86.8C1195.6,-75.16 1195.6,-59.55 1195.6,-46.24"/>
<polygon fill="black" stroke="black" points="1199.1,-46.18 1195.6,-36.18 1192.1,-46.18 1199.1,-46.18"/>
<text text-anchor="middle" x="1247.6" y="-57.8" font-family="Times,serif" font-size="14.00">कर्मसमानाधिकरणम्</text>
</g>
<!-- 15 -->
<g id="node18" class="node">
<title>15</title>
<g id="a_node18"><a xlink:title="वच्1{कर्मणि;लट्;प्र;एक;आत्मनेपदी;वचँ;अदादिः}">
<ellipse fill="#ff6347" stroke="#ff6347" cx="1195.6" cy="-192" rx="53.89" ry="18"/>
<text text-anchor="middle" x="1195.6" y="-188.3" font-family="Times,serif" font-size="14.00">उच्यते (15)</text>
</a>
</g>
</g>
<!-- 15&#45;&gt;13 -->
<g id="edge12" class="edge">
<title>15&#45;&gt;13</title>
<path fill="none" stroke="black" d="M1195.6,-173.8C1195.6,-162.16 1195.6,-146.55 1195.6,-133.24"/>
<polygon fill="black" stroke="black" points="1199.1,-133.18 1195.6,-123.18 1192.1,-133.18 1199.1,-133.18"/>
<text text-anchor="middle" x="1205.6" y="-144.8" font-family="Times,serif" font-size="14.00">कर्म</text>
</g>
</g>
</svg>
