<?xml version="1.0" encoding="UTF-8" standalone="no"?>
<!DOCTYPE svg PUBLIC "-//W3C//DTD SVG 1.1//EN"
 "http://www.w3.org/Graphics/SVG/1.1/DTD/svg11.dtd">
<!-- Generated by graphviz version 2.43.0 (0)
 -->
<!-- Title: %3 Pages: 1 -->
<svg width="922pt" height="305pt"
 viewBox="0.00 0.00 922.34 305.00" xmlns="http://www.w3.org/2000/svg" xmlns:xlink="http://www.w3.org/1999/xlink">
<g id="graph0" class="graph" transform="scale(1 1) rotate(0) translate(4 301)">
<title>%3</title>
<polygon fill="#fffacd" stroke="transparent" points="-4,4 -4,-301 918.34,-301 918.34,4 -4,4"/>
<!-- 1 -->
<g id="node1" class="node">
<title>1</title>
<g id="a_node1"><a xlink:title="पर{पुं}{1;एक}">
<ellipse fill="#00bfff" stroke="#00bfff" cx="39" cy="-105" rx="38.99" ry="18"/>
<text text-anchor="middle" x="39" y="-101.3" font-family="Times,serif" font-size="14.00">परः (1)</text>
</a>
</g>
</g>
<!-- 2 -->
<g id="node2" class="node">
<title>2</title>
<g id="a_node2"><a xlink:title="तद्{पुं}{5;एक}">
<ellipse fill="#90ee90" stroke="#90ee90" cx="621" cy="-105" rx="51.19" ry="18"/>
<text text-anchor="middle" x="621" y="-101.3" font-family="Times,serif" font-size="14.00">तस्मात् (2)</text>
</a>
</g>
</g>
<!-- 3 -->
<g id="node3" class="node">
<title>3</title>
<g id="a_node3"><a xlink:title="तु{अव्य}">
<ellipse fill="#ff00ff" stroke="#ff00ff" cx="621" cy="-18" rx="32.49" ry="18"/>
<text text-anchor="middle" x="621" y="-14.3" font-family="Times,serif" font-size="14.00">तु (3)</text>
</a>
</g>
</g>
<!-- 2&#45;&gt;3 -->
<g id="edge3" class="edge">
<title>2&#45;&gt;3</title>
<path fill="none" stroke="black" d="M621,-86.8C621,-75.16 621,-59.55 621,-46.24"/>
<polygon fill="black" stroke="black" points="624.5,-46.18 621,-36.18 617.5,-46.18 624.5,-46.18"/>
<text text-anchor="middle" x="644" y="-57.8" font-family="Times,serif" font-size="14.00">सम्बन्धः</text>
</g>
<!-- 4 -->
<g id="node4" class="node">
<title>4</title>
<g id="a_node4"><a xlink:title="भाव{पुं}{1;एक}">
<ellipse fill="#00bfff" stroke="#00bfff" cx="299" cy="-192" rx="44.39" ry="18"/>
<text text-anchor="middle" x="299" y="-188.3" font-family="Times,serif" font-size="14.00">भावः (4)</text>
</a>
</g>
</g>
<!-- 4&#45;&gt;1 -->
<g id="edge1" class="edge">
<title>4&#45;&gt;1</title>
<path fill="none" stroke="black" d="M259,-184.14C227.97,-178.26 184.14,-168.72 147,-156 121.4,-147.23 93.73,-134.35 72.81,-123.86"/>
<polygon fill="black" stroke="black" points="74.2,-120.64 63.7,-119.23 71.03,-126.88 74.2,-120.64"/>
<text text-anchor="middle" x="172.5" y="-144.8" font-family="Times,serif" font-size="14.00">विशेषणम्</text>
</g>
<!-- 5 -->
<g id="node5" class="node">
<title>5</title>
<g id="a_node5"><a xlink:title="अन्य{पुं}{1;एक}">
<ellipse fill="#00bfff" stroke="#00bfff" cx="143" cy="-105" rx="47.39" ry="18"/>
<text text-anchor="middle" x="143" y="-101.3" font-family="Times,serif" font-size="14.00">अन्यः (5)</text>
</a>
</g>
</g>
<!-- 4&#45;&gt;5 -->
<g id="edge5" class="edge">
<title>4&#45;&gt;5</title>
<path fill="none" stroke="black" d="M271.11,-177.84C257.92,-171.47 242.03,-163.57 228,-156 210.49,-146.55 191.36,-135.38 175.7,-126"/>
<polygon fill="black" stroke="black" points="177.28,-122.86 166.91,-120.7 173.67,-128.86 177.28,-122.86"/>
<text text-anchor="middle" x="253.5" y="-144.8" font-family="Times,serif" font-size="14.00">विशेषणम्</text>
</g>
<!-- 6 -->
<g id="node6" class="node">
<title>6</title>
<g id="a_node6"><a xlink:title="अव्यक्त{पुं}{1;एक}">
<ellipse fill="#00bfff" stroke="#00bfff" cx="270" cy="-105" rx="61.19" ry="18"/>
<text text-anchor="middle" x="270" y="-101.3" font-family="Times,serif" font-size="14.00">अ&#45;व्यक्तः (6)</text>
</a>
</g>
</g>
<!-- 4&#45;&gt;6 -->
<g id="edge6" class="edge">
<title>4&#45;&gt;6</title>
<path fill="none" stroke="black" d="M293.13,-173.8C289.12,-162.05 283.72,-146.24 279.15,-132.84"/>
<polygon fill="black" stroke="black" points="282.4,-131.51 275.86,-123.18 275.77,-133.77 282.4,-131.51"/>
<text text-anchor="middle" x="312.5" y="-144.8" font-family="Times,serif" font-size="14.00">विशेषणम्</text>
</g>
<!-- 8 -->
<g id="node8" class="node">
<title>8</title>
<g id="a_node8"><a xlink:title="सनातन{पुं}{1;एक}">
<ellipse fill="#00bfff" stroke="#00bfff" cx="405" cy="-105" rx="55.79" ry="18"/>
<text text-anchor="middle" x="405" y="-101.3" font-family="Times,serif" font-size="14.00">सनातनः (8)</text>
</a>
</g>
</g>
<!-- 4&#45;&gt;8 -->
<g id="edge8" class="edge">
<title>4&#45;&gt;8</title>
<path fill="none" stroke="black" d="M318.44,-175.41C334.82,-162.28 358.46,-143.32 376.9,-128.53"/>
<polygon fill="black" stroke="black" points="379.35,-131.06 384.96,-122.07 374.97,-125.59 379.35,-131.06"/>
<text text-anchor="middle" x="384.5" y="-144.8" font-family="Times,serif" font-size="14.00">विशेषणम्</text>
</g>
<!-- 9 -->
<g id="node9" class="node">
<title>9</title>
<g id="a_node9"><a xlink:title="यद्{पुं}{1;एक}">
<ellipse fill="#00bfff" stroke="#00bfff" cx="515" cy="-105" rx="36.29" ry="18"/>
<text text-anchor="middle" x="515" y="-101.3" font-family="Times,serif" font-size="14.00">यः (9)</text>
</a>
</g>
</g>
<!-- 4&#45;&gt;9 -->
<g id="edge9" class="edge">
<title>4&#45;&gt;9</title>
<path fill="none" stroke="black" d="M335.26,-181.61C358.16,-175.28 388.2,-166.23 414,-156 437.44,-146.7 462.88,-134.09 482.37,-123.86"/>
<polygon fill="black" stroke="black" points="484.23,-126.83 491.42,-119.05 480.95,-120.65 484.23,-126.83"/>
<text text-anchor="middle" x="474.5" y="-144.8" font-family="Times,serif" font-size="14.00">विशेषणम्</text>
</g>
<!-- 7 -->
<g id="node7" class="node">
<title>7</title>
<g id="a_node7"><a xlink:title="अव्यक्त{पुं}{5;एक}">
<ellipse fill="#90ee90" stroke="#90ee90" cx="484" cy="-192" rx="66.09" ry="18"/>
<text text-anchor="middle" x="484" y="-188.3" font-family="Times,serif" font-size="14.00">अ&#45;व्यक्तात् (7)</text>
</a>
</g>
</g>
<!-- 7&#45;&gt;2 -->
<g id="edge2" class="edge">
<title>7&#45;&gt;2</title>
<path fill="none" stroke="black" d="M525.43,-177.87C540.13,-172.27 556.39,-164.94 570,-156 581.01,-148.77 591.67,-138.93 600.36,-129.89"/>
<polygon fill="black" stroke="black" points="602.93,-132.27 607.18,-122.56 597.8,-127.5 602.93,-132.27"/>
<text text-anchor="middle" x="614.5" y="-144.8" font-family="Times,serif" font-size="14.00">विशेषणम्</text>
</g>
<!-- 9.1 -->
<g id="node10" class="node">
<title>9.1</title>
<g id="a_node10"><a xlink:title="(अस्2{कर्तरि;लट्;प्र;एक;परस्मैपदी;असँ;अदादिः})">
<ellipse fill="#ff6347" stroke="#ff6347" cx="396" cy="-279" rx="63.09" ry="18"/>
<text text-anchor="middle" x="396" y="-275.3" font-family="Times,serif" font-size="14.00">(अस्ति) (9.1)</text>
</a>
</g>
</g>
<!-- 9.1&#45;&gt;4 -->
<g id="edge4" class="edge">
<title>9.1&#45;&gt;4</title>
<path fill="none" stroke="black" d="M377.29,-261.61C362.34,-248.51 341.23,-230.01 324.69,-215.51"/>
<polygon fill="black" stroke="black" points="326.81,-212.72 316.99,-208.76 322.2,-217.99 326.81,-212.72"/>
<text text-anchor="middle" x="366.5" y="-231.8" font-family="Times,serif" font-size="14.00">कर्ता</text>
</g>
<!-- 9.1&#45;&gt;7 -->
<g id="edge7" class="edge">
<title>9.1&#45;&gt;7</title>
<path fill="none" stroke="black" d="M412.96,-261.61C426.15,-248.88 444.62,-231.03 459.42,-216.74"/>
<polygon fill="black" stroke="black" points="462.02,-219.09 466.78,-209.63 457.16,-214.06 462.02,-219.09"/>
<text text-anchor="middle" x="472.5" y="-231.8" font-family="Times,serif" font-size="14.00">अपादानम्</text>
</g>
<!-- 10 -->
<g id="node11" class="node">
<title>10</title>
<g id="a_node11"><a xlink:title="तद्{पुं}{1;एक}">
<ellipse fill="#00bfff" stroke="#00bfff" cx="640" cy="-192" rx="42.49" ry="18"/>
<text text-anchor="middle" x="640" y="-188.3" font-family="Times,serif" font-size="14.00">सः (10)</text>
</a>
</g>
</g>
<!-- 11 -->
<g id="node12" class="node">
<title>11</title>
<g id="a_node12"><a xlink:title="सर्व{पुं}{7;बहु}">
<ellipse fill="#708090" stroke="#708090" cx="760" cy="-18" rx="50.09" ry="18"/>
<text text-anchor="middle" x="760" y="-14.3" font-family="Times,serif" font-size="14.00">सर्वेषु (11)</text>
</a>
</g>
</g>
<!-- 12 -->
<g id="node13" class="node">
<title>12</title>
<g id="a_node13"><a xlink:title="भूत{पुं}{7;बहु}">
<ellipse fill="#708090" stroke="#708090" cx="760" cy="-105" rx="50.09" ry="18"/>
<text text-anchor="middle" x="760" y="-101.3" font-family="Times,serif" font-size="14.00">भूतेषु (12)</text>
</a>
</g>
</g>
<!-- 12&#45;&gt;11 -->
<g id="edge11" class="edge">
<title>12&#45;&gt;11</title>
<path fill="none" stroke="black" d="M760,-86.8C760,-75.16 760,-59.55 760,-46.24"/>
<polygon fill="black" stroke="black" points="763.5,-46.18 760,-36.18 756.5,-46.18 763.5,-46.18"/>
<text text-anchor="middle" x="785.5" y="-57.8" font-family="Times,serif" font-size="14.00">विशेषणम्</text>
</g>
<!-- 13 -->
<g id="node14" class="node">
<title>13</title>
<g id="a_node14"><a xlink:title="नश्1{कृत्_प्रत्ययः:शतृ;णशँ;दिवादिः;पुं}{7;बहु}">
<ellipse fill="#708090" stroke="#708090" cx="760" cy="-192" rx="59.59" ry="18"/>
<text text-anchor="middle" x="760" y="-188.3" font-family="Times,serif" font-size="14.00">नश्यत्सु (13)</text>
</a>
</g>
</g>
<!-- 13&#45;&gt;12 -->
<g id="edge12" class="edge">
<title>13&#45;&gt;12</title>
<path fill="none" stroke="black" d="M760,-173.8C760,-162.16 760,-146.55 760,-133.24"/>
<polygon fill="black" stroke="black" points="763.5,-133.18 760,-123.18 756.5,-133.18 763.5,-133.18"/>
<text text-anchor="middle" x="770" y="-144.8" font-family="Times,serif" font-size="14.00">कर्म</text>
</g>
<!-- 14 -->
<g id="node15" class="node">
<title>14</title>
<g id="a_node15"><a xlink:title="न{अव्य}">
<ellipse fill="#ff00ff" stroke="#ff00ff" cx="876" cy="-192" rx="38.19" ry="18"/>
<text text-anchor="middle" x="876" y="-188.3" font-family="Times,serif" font-size="14.00">न (14)</text>
</a>
</g>
</g>
<!-- 15 -->
<g id="node16" class="node">
<title>15</title>
<g id="a_node16"><a xlink:title="वि_नश्1{कर्तरि;लट्;प्र;एक;परस्मैपदी;वि_णशँ;दिवादिः}">
<ellipse fill="#ff6347" stroke="#ff6347" cx="760" cy="-279" rx="65.79" ry="18"/>
<text text-anchor="middle" x="760" y="-275.3" font-family="Times,serif" font-size="14.00">विनश्यति (15)</text>
</a>
</g>
</g>
<!-- 15&#45;&gt;10 -->
<g id="edge10" class="edge">
<title>15&#45;&gt;10</title>
<path fill="none" stroke="black" d="M737.43,-262.01C718.09,-248.32 690.13,-228.51 669.11,-213.62"/>
<polygon fill="black" stroke="black" points="671.04,-210.7 660.86,-207.78 667,-216.41 671.04,-210.7"/>
<text text-anchor="middle" x="720.5" y="-231.8" font-family="Times,serif" font-size="14.00">कर्ता</text>
</g>
<!-- 15&#45;&gt;13 -->
<g id="edge13" class="edge">
<title>15&#45;&gt;13</title>
<path fill="none" stroke="black" d="M760,-260.8C760,-249.16 760,-233.55 760,-220.24"/>
<polygon fill="black" stroke="black" points="763.5,-220.18 760,-210.18 756.5,-220.18 763.5,-220.18"/>
<text text-anchor="middle" x="790.5" y="-231.8" font-family="Times,serif" font-size="14.00">समानकालः</text>
</g>
<!-- 15&#45;&gt;14 -->
<g id="edge14" class="edge">
<title>15&#45;&gt;14</title>
<path fill="none" stroke="black" d="M791.82,-263.14C802.74,-257.46 814.78,-250.52 825,-243 835.5,-235.27 845.98,-225.45 854.69,-216.56"/>
<polygon fill="black" stroke="black" points="857.46,-218.72 861.84,-209.07 852.4,-213.89 857.46,-218.72"/>
<text text-anchor="middle" x="868" y="-231.8" font-family="Times,serif" font-size="14.00">प्रतिषेधः</text>
</g>
</g>
</svg>
