<?xml version="1.0" encoding="UTF-8" standalone="no"?>
<!DOCTYPE svg PUBLIC "-//W3C//DTD SVG 1.1//EN"
 "http://www.w3.org/Graphics/SVG/1.1/DTD/svg11.dtd">
<!-- Generated by graphviz version 2.43.0 (0)
 -->
<!-- Title: %3 Pages: 1 -->
<svg width="1360pt" height="305pt"
 viewBox="0.00 0.00 1360.34 305.00" xmlns="http://www.w3.org/2000/svg" xmlns:xlink="http://www.w3.org/1999/xlink">
<g id="graph0" class="graph" transform="scale(1 1) rotate(0) translate(4 301)">
<title>%3</title>
<polygon fill="#fffacd" stroke="transparent" points="-4,4 -4,-301 1356.34,-301 1356.34,4 -4,4"/>
<!-- 1 -->
<g id="node1" class="node">
<title>1</title>
<g id="a_node1"><a xlink:title="सम{पुं}{1;एक}">
<ellipse fill="#00bfff" stroke="#00bfff" cx="42.25" cy="-192" rx="42.49" ry="18"/>
<text text-anchor="middle" x="42.25" y="-188.3" font-family="Times,serif" font-size="14.00">समः (1)</text>
</a>
</g>
</g>
<!-- 2 -->
<g id="node2" class="node">
<title>2</title>
<g id="a_node2"><a xlink:title="अस्मद्{1;एक}">
<ellipse fill="#00bfff" stroke="#00bfff" cx="169.25" cy="-192" rx="44.69" ry="18"/>
<text text-anchor="middle" x="169.25" y="-188.3" font-family="Times,serif" font-size="14.00">अहम् (2)</text>
</a>
</g>
</g>
<!-- 3 -->
<g id="node3" class="node">
<title>3</title>
<g id="a_node3"><a xlink:title="सर्व&#45;भूत{नपुं}{7;बहु}">
<ellipse fill="#708090" stroke="#708090" cx="291.25" cy="-192" rx="59.29" ry="18"/>
<text text-anchor="middle" x="291.25" y="-188.3" font-family="Times,serif" font-size="14.00">सर्व&#45;भूतेषु (3)</text>
</a>
</g>
</g>
<!-- 3.1 -->
<g id="node4" class="node">
<title>3.1</title>
<g id="a_node4"><a xlink:title="(अस्2{कर्तरि;लट्;उ;एक;परस्मैपदी;असँ;अदादिः})">
<ellipse fill="#ff6347" stroke="#ff6347" cx="169.25" cy="-279" rx="63.89" ry="18"/>
<text text-anchor="middle" x="169.25" y="-275.3" font-family="Times,serif" font-size="14.00">(अस्मि) (3.1)</text>
</a>
</g>
</g>
<!-- 3.1&#45;&gt;1 -->
<g id="edge1" class="edge">
<title>3.1&#45;&gt;1</title>
<path fill="none" stroke="black" d="M113.72,-269.98C95.13,-264.9 75.53,-256.59 61.25,-243 54.84,-236.9 50.57,-228.42 47.73,-220.17"/>
<polygon fill="black" stroke="black" points="51.05,-219.05 44.94,-210.4 44.32,-220.98 51.05,-219.05"/>
<text text-anchor="middle" x="113.25" y="-231.8" font-family="Times,serif" font-size="14.00">कर्तृसमानाधिकरणम्</text>
</g>
<!-- 3.1&#45;&gt;2 -->
<g id="edge2" class="edge">
<title>3.1&#45;&gt;2</title>
<path fill="none" stroke="black" d="M169.25,-260.8C169.25,-249.16 169.25,-233.55 169.25,-220.24"/>
<polygon fill="black" stroke="black" points="172.75,-220.18 169.25,-210.18 165.75,-220.18 172.75,-220.18"/>
<text text-anchor="middle" x="181.75" y="-231.8" font-family="Times,serif" font-size="14.00">कर्ता</text>
</g>
<!-- 3.1&#45;&gt;3 -->
<g id="edge3" class="edge">
<title>3.1&#45;&gt;3</title>
<path fill="none" stroke="black" d="M192.19,-262.01C211.36,-248.66 238.88,-229.48 260.05,-214.73"/>
<polygon fill="black" stroke="black" points="262.2,-217.5 268.4,-208.92 258.2,-211.76 262.2,-217.5"/>
<text text-anchor="middle" x="268.75" y="-231.8" font-family="Times,serif" font-size="14.00">अधिकरणम्</text>
</g>
<!-- 4 -->
<g id="node5" class="node">
<title>4</title>
<g id="a_node5"><a xlink:title="न{अव्य}">
<ellipse fill="#ff00ff" stroke="#ff00ff" cx="401.25" cy="-192" rx="32.49" ry="18"/>
<text text-anchor="middle" x="401.25" y="-188.3" font-family="Times,serif" font-size="14.00">न (4)</text>
</a>
</g>
</g>
<!-- 5 -->
<g id="node6" class="node">
<title>5</title>
<g id="a_node6"><a xlink:title="अस्मद्{6;एक}">
<ellipse fill="#87ceeb" stroke="#87ceeb" cx="496.25" cy="-105" rx="32.49" ry="18"/>
<text text-anchor="middle" x="496.25" y="-101.3" font-family="Times,serif" font-size="14.00">मे (5)</text>
</a>
</g>
</g>
<!-- 6 -->
<g id="node7" class="node">
<title>6</title>
<g id="a_node7"><a xlink:title="द्वेष्य{पुं}{1;एक}">
<ellipse fill="#00bfff" stroke="#00bfff" cx="496.25" cy="-192" rx="44.69" ry="18"/>
<text text-anchor="middle" x="496.25" y="-188.3" font-family="Times,serif" font-size="14.00">द्वेष्यः (6)</text>
</a>
</g>
</g>
<!-- 6&#45;&gt;5 -->
<g id="edge5" class="edge">
<title>6&#45;&gt;5</title>
<path fill="none" stroke="black" d="M496.25,-173.8C496.25,-162.16 496.25,-146.55 496.25,-133.24"/>
<polygon fill="black" stroke="black" points="499.75,-133.18 496.25,-123.18 492.75,-133.18 499.75,-133.18"/>
<text text-anchor="middle" x="532.25" y="-144.8" font-family="Times,serif" font-size="14.00">षष्ठीसम्बन्धः</text>
</g>
<!-- 7 -->
<g id="node8" class="node">
<title>7</title>
<g id="a_node8"><a xlink:title="अस्2{कर्तरि;लट्;प्र;एक;परस्मैपदी;असँ;अदादिः}">
<ellipse fill="#ff6347" stroke="#ff6347" cx="432.25" cy="-279" rx="47.39" ry="18"/>
<text text-anchor="middle" x="432.25" y="-275.3" font-family="Times,serif" font-size="14.00">अस्ति (7)</text>
</a>
</g>
</g>
<!-- 7&#45;&gt;4 -->
<g id="edge4" class="edge">
<title>7&#45;&gt;4</title>
<path fill="none" stroke="black" d="M421.41,-261.42C418.08,-255.76 414.66,-249.27 412.25,-243 409.43,-235.7 407.25,-227.51 405.61,-219.91"/>
<polygon fill="black" stroke="black" points="409.03,-219.18 403.68,-210.04 402.16,-220.52 409.03,-219.18"/>
<text text-anchor="middle" x="438.25" y="-231.8" font-family="Times,serif" font-size="14.00">प्रतिषेधः</text>
</g>
<!-- 7&#45;&gt;6 -->
<g id="edge6" class="edge">
<title>7&#45;&gt;6</title>
<path fill="none" stroke="black" d="M448.15,-261.77C453.49,-256.03 459.33,-249.4 464.25,-243 470.18,-235.28 476.09,-226.45 481.18,-218.38"/>
<polygon fill="black" stroke="black" points="484.27,-220.04 486.55,-209.69 478.32,-216.36 484.27,-220.04"/>
<text text-anchor="middle" x="487.75" y="-231.8" font-family="Times,serif" font-size="14.00">कर्ता</text>
</g>
<!-- 8 -->
<g id="node9" class="node">
<title>8</title>
<g id="a_node9"><a xlink:title="न{अव्य}">
<ellipse fill="#ff00ff" stroke="#ff00ff" cx="591.25" cy="-192" rx="32.49" ry="18"/>
<text text-anchor="middle" x="591.25" y="-188.3" font-family="Times,serif" font-size="14.00">न (8)</text>
</a>
</g>
</g>
<!-- 9 -->
<g id="node10" class="node">
<title>9</title>
<g id="a_node10"><a xlink:title="प्रिय{पुं}{1;एक}">
<ellipse fill="#00bfff" stroke="#00bfff" cx="690.25" cy="-192" rx="48.19" ry="18"/>
<text text-anchor="middle" x="690.25" y="-188.3" font-family="Times,serif" font-size="14.00">प्रियः (9)</text>
</a>
</g>
</g>
<!-- 9.1 -->
<g id="node11" class="node">
<title>9.1</title>
<g id="a_node11"><a xlink:title="(अस्2{कर्तरि;लट्;प्र;एक;परस्मैपदी;असँ;अदादिः})">
<ellipse fill="#ff6347" stroke="#ff6347" cx="640.25" cy="-279" rx="63.09" ry="18"/>
<text text-anchor="middle" x="640.25" y="-275.3" font-family="Times,serif" font-size="14.00">(अस्ति) (9.1)</text>
</a>
</g>
</g>
<!-- 9.1&#45;&gt;8 -->
<g id="edge7" class="edge">
<title>9.1&#45;&gt;8</title>
<path fill="none" stroke="black" d="M628.05,-261.22C624.11,-255.54 619.84,-249.09 616.25,-243 611.69,-235.27 607.17,-226.61 603.25,-218.69"/>
<polygon fill="black" stroke="black" points="606.31,-216.99 598.8,-209.51 600.01,-220.04 606.31,-216.99"/>
<text text-anchor="middle" x="642.25" y="-231.8" font-family="Times,serif" font-size="14.00">प्रतिषेधः</text>
</g>
<!-- 9.1&#45;&gt;9 -->
<g id="edge8" class="edge">
<title>9.1&#45;&gt;9</title>
<path fill="none" stroke="black" d="M655.14,-261.21C659.67,-255.64 664.46,-249.26 668.25,-243 672.67,-235.7 676.7,-227.35 680.07,-219.6"/>
<polygon fill="black" stroke="black" points="683.36,-220.79 683.96,-210.21 676.9,-218.11 683.36,-220.79"/>
<text text-anchor="middle" x="688.75" y="-231.8" font-family="Times,serif" font-size="14.00">कर्ता</text>
</g>
<!-- 10 -->
<g id="node12" class="node">
<title>10</title>
<g id="a_node12"><a xlink:title="यद्{पुं}{1;बहु}">
<ellipse fill="#00bfff" stroke="#00bfff" cx="959.25" cy="-105" rx="38.19" ry="18"/>
<text text-anchor="middle" x="959.25" y="-101.3" font-family="Times,serif" font-size="14.00">ये (10)</text>
</a>
</g>
</g>
<!-- 12 -->
<g id="node14" class="node">
<title>12</title>
<g id="a_node14"><a xlink:title="तु{अव्य}">
<ellipse fill="#ff00ff" stroke="#ff00ff" cx="959.25" cy="-18" rx="38.19" ry="18"/>
<text text-anchor="middle" x="959.25" y="-14.3" font-family="Times,serif" font-size="14.00">तु (12)</text>
</a>
</g>
</g>
<!-- 10&#45;&gt;12 -->
<g id="edge11" class="edge">
<title>10&#45;&gt;12</title>
<path fill="none" stroke="black" d="M959.25,-86.8C959.25,-75.16 959.25,-59.55 959.25,-46.24"/>
<polygon fill="black" stroke="black" points="962.75,-46.18 959.25,-36.18 955.75,-46.18 962.75,-46.18"/>
<text text-anchor="middle" x="982.25" y="-57.8" font-family="Times,serif" font-size="14.00">सम्बन्धः</text>
</g>
<!-- 11 -->
<g id="node13" class="node">
<title>11</title>
<g id="a_node13"><a xlink:title="भज्1{कर्तरि;लट्;प्र;बहु;परस्मैपदी;भजँ;भ्वादिः}">
<ellipse fill="#ff6347" stroke="#ff6347" cx="814.25" cy="-192" rx="57.69" ry="18"/>
<text text-anchor="middle" x="814.25" y="-188.3" font-family="Times,serif" font-size="14.00">भजन्ति (11)</text>
</a>
</g>
</g>
<!-- 11&#45;&gt;10 -->
<g id="edge9" class="edge">
<title>11&#45;&gt;10</title>
<path fill="none" stroke="black" d="M840.17,-175.8C864.51,-161.54 900.99,-140.15 927.15,-124.81"/>
<polygon fill="black" stroke="black" points="929.08,-127.74 935.94,-119.66 925.54,-121.7 929.08,-127.74"/>
<text text-anchor="middle" x="908.75" y="-144.8" font-family="Times,serif" font-size="14.00">कर्ता</text>
</g>
<!-- 13 -->
<g id="node15" class="node">
<title>13</title>
<g id="a_node15"><a xlink:title="अस्मद्{2;एक}">
<ellipse fill="#7cfc00" stroke="#7cfc00" cx="706.25" cy="-105" rx="47.39" ry="18"/>
<text text-anchor="middle" x="706.25" y="-101.3" font-family="Times,serif" font-size="14.00">माम् (13)</text>
</a>
</g>
</g>
<!-- 11&#45;&gt;13 -->
<g id="edge12" class="edge">
<title>11&#45;&gt;13</title>
<path fill="none" stroke="black" d="M793.93,-175.01C777.01,-161.69 752.73,-142.58 734.01,-127.85"/>
<polygon fill="black" stroke="black" points="736.13,-125.06 726.1,-121.63 731.8,-130.56 736.13,-125.06"/>
<text text-anchor="middle" x="777.25" y="-144.8" font-family="Times,serif" font-size="14.00">कर्म</text>
</g>
<!-- 14 -->
<g id="node16" class="node">
<title>14</title>
<g id="a_node16"><a xlink:title="भक्ति{स्त्री}{3;एक}">
<ellipse fill="#40e0d0" stroke="#40e0d0" cx="827.25" cy="-105" rx="55.79" ry="18"/>
<text text-anchor="middle" x="827.25" y="-101.3" font-family="Times,serif" font-size="14.00">भक्त्या (14)</text>
</a>
</g>
</g>
<!-- 11&#45;&gt;14 -->
<g id="edge13" class="edge">
<title>11&#45;&gt;14</title>
<path fill="none" stroke="black" d="M816.88,-173.8C818.66,-162.16 821.04,-146.55 823.08,-133.24"/>
<polygon fill="black" stroke="black" points="826.57,-133.59 824.62,-123.18 819.65,-132.53 826.57,-133.59"/>
<text text-anchor="middle" x="840.25" y="-144.8" font-family="Times,serif" font-size="14.00">करणम्</text>
</g>
<!-- 15 -->
<g id="node17" class="node">
<title>15</title>
<g id="a_node17"><a xlink:title="अस्मद्{7;एक}">
<ellipse fill="#708090" stroke="#708090" cx="937.25" cy="-192" rx="46.59" ry="18"/>
<text text-anchor="middle" x="937.25" y="-188.3" font-family="Times,serif" font-size="14.00">मयि (15)</text>
</a>
</g>
</g>
<!-- 16 -->
<g id="node18" class="node">
<title>16</title>
<g id="a_node18"><a xlink:title="तद्{पुं}{1;बहु}">
<ellipse fill="#00bfff" stroke="#00bfff" cx="1040.25" cy="-192" rx="38.19" ry="18"/>
<text text-anchor="middle" x="1040.25" y="-188.3" font-family="Times,serif" font-size="14.00">ते (16)</text>
</a>
</g>
</g>
<!-- 16&#45;&gt;10 -->
<g id="edge10" class="edge">
<title>16&#45;&gt;10</title>
<path fill="none" stroke="black" stroke-dasharray="1,5" d="M1025.01,-175.01C1012.71,-162.11 995.25,-143.78 981.4,-129.25"/>
<polygon fill="black" stroke="black" points="983.57,-126.45 974.14,-121.63 978.5,-131.28 983.57,-126.45"/>
<text text-anchor="middle" x="1038.75" y="-144.8" font-family="Times,serif" font-size="14.00">नित्यसम्बन्ध</text>
</g>
<!-- 16.1 -->
<g id="node19" class="node">
<title>16.1</title>
<g id="a_node19"><a xlink:title="(अस्2{कर्तरि;लट्;प्र;बहु;परस्मैपदी;असँ;अदादिः})">
<ellipse fill="#ff6347" stroke="#ff6347" cx="961.25" cy="-279" rx="66.09" ry="18"/>
<text text-anchor="middle" x="961.25" y="-275.3" font-family="Times,serif" font-size="14.00">(सन्ति) (16.1)</text>
</a>
</g>
</g>
<!-- 16.1&#45;&gt;15 -->
<g id="edge14" class="edge">
<title>16.1&#45;&gt;15</title>
<path fill="none" stroke="black" d="M954.42,-261.07C952.27,-255.38 950,-248.97 948.25,-243 946.1,-235.7 944.16,-227.69 942.52,-220.26"/>
<polygon fill="black" stroke="black" points="945.91,-219.34 940.43,-210.27 939.06,-220.78 945.91,-219.34"/>
<text text-anchor="middle" x="978.75" y="-231.8" font-family="Times,serif" font-size="14.00">अधिकरणम्</text>
</g>
<!-- 16.1&#45;&gt;16 -->
<g id="edge15" class="edge">
<title>16.1&#45;&gt;16</title>
<path fill="none" stroke="black" d="M986.66,-262.23C994.43,-256.71 1002.65,-250.11 1009.25,-243 1015.91,-235.82 1021.93,-227 1026.85,-218.78"/>
<polygon fill="black" stroke="black" points="1030.02,-220.29 1031.93,-209.87 1023.94,-216.83 1030.02,-220.29"/>
<text text-anchor="middle" x="1032.75" y="-231.8" font-family="Times,serif" font-size="14.00">कर्ता</text>
</g>
<!-- 17 -->
<g id="node20" class="node">
<title>17</title>
<g id="a_node20"><a xlink:title="तद्{पुं}{7;बहु}">
<ellipse fill="#708090" stroke="#708090" cx="1140.25" cy="-192" rx="43.59" ry="18"/>
<text text-anchor="middle" x="1140.25" y="-188.3" font-family="Times,serif" font-size="14.00">तेषु (17)</text>
</a>
</g>
</g>
<!-- 18 -->
<g id="node21" class="node">
<title>18</title>
<g id="a_node21"><a xlink:title="च{अव्य}">
<ellipse fill="#ff00ff" stroke="#ff00ff" cx="1199.25" cy="-105" rx="38.99" ry="18"/>
<text text-anchor="middle" x="1199.25" y="-101.3" font-family="Times,serif" font-size="14.00">च (18)</text>
</a>
</g>
</g>
<!-- 19 -->
<g id="node22" class="node">
<title>19</title>
<g id="a_node22"><a xlink:title="अपि{अव्य}">
<ellipse fill="#ff00ff" stroke="#ff00ff" cx="1304.25" cy="-105" rx="48.19" ry="18"/>
<text text-anchor="middle" x="1304.25" y="-101.3" font-family="Times,serif" font-size="14.00">अपि (19)</text>
</a>
</g>
</g>
<!-- 20 -->
<g id="node23" class="node">
<title>20</title>
<g id="a_node23"><a xlink:title="अस्मद्{1;एक}">
<ellipse fill="#00bfff" stroke="#00bfff" cx="1252.25" cy="-192" rx="50.89" ry="18"/>
<text text-anchor="middle" x="1252.25" y="-188.3" font-family="Times,serif" font-size="14.00">अहम् (20)</text>
</a>
</g>
</g>
<!-- 20&#45;&gt;18 -->
<g id="edge17" class="edge">
<title>20&#45;&gt;18</title>
<path fill="none" stroke="black" d="M1237.82,-174.45C1233.22,-168.79 1228.27,-162.29 1224.25,-156 1219.41,-148.44 1214.81,-139.83 1210.9,-131.9"/>
<polygon fill="black" stroke="black" points="1213.97,-130.21 1206.51,-122.69 1207.66,-133.22 1213.97,-130.21"/>
<text text-anchor="middle" x="1247.25" y="-144.8" font-family="Times,serif" font-size="14.00">सम्बन्धः</text>
</g>
<!-- 20&#45;&gt;19 -->
<g id="edge18" class="edge">
<title>20&#45;&gt;19</title>
<path fill="none" stroke="black" d="M1262.52,-174.21C1270,-161.98 1280.26,-145.21 1288.73,-131.36"/>
<polygon fill="black" stroke="black" points="1291.76,-133.12 1293.99,-122.76 1285.79,-129.46 1291.76,-133.12"/>
<text text-anchor="middle" x="1304.25" y="-144.8" font-family="Times,serif" font-size="14.00">सम्बन्धः</text>
</g>
<!-- 20.1 -->
<g id="node24" class="node">
<title>20.1</title>
<g id="a_node24"><a xlink:title="(अस्2{कर्तरि;लट्;उ;एक;परस्मैपदी;असँ;अदादिः})">
<ellipse fill="#ff6347" stroke="#ff6347" cx="1189.25" cy="-279" rx="69.59" ry="18"/>
<text text-anchor="middle" x="1189.25" y="-275.3" font-family="Times,serif" font-size="14.00">(अस्मि) (20.1)</text>
</a>
</g>
</g>
<!-- 20.1&#45;&gt;17 -->
<g id="edge16" class="edge">
<title>20.1&#45;&gt;17</title>
<path fill="none" stroke="black" d="M1170.12,-261.59C1164.7,-256.13 1159.19,-249.72 1155.25,-243 1151.1,-235.94 1148.01,-227.63 1145.75,-219.83"/>
<polygon fill="black" stroke="black" points="1149.11,-218.85 1143.23,-210.03 1142.33,-220.59 1149.11,-218.85"/>
<text text-anchor="middle" x="1185.75" y="-231.8" font-family="Times,serif" font-size="14.00">अधिकरणम्</text>
</g>
<!-- 20.1&#45;&gt;20 -->
<g id="edge19" class="edge">
<title>20.1&#45;&gt;20</title>
<path fill="none" stroke="black" d="M1202.54,-261C1206.95,-255.31 1211.84,-248.91 1216.25,-243 1222.26,-234.94 1228.71,-226.06 1234.46,-218.04"/>
<polygon fill="black" stroke="black" points="1237.41,-219.94 1240.38,-209.77 1231.72,-215.86 1237.41,-219.94"/>
<text text-anchor="middle" x="1239.75" y="-231.8" font-family="Times,serif" font-size="14.00">कर्ता</text>
</g>
</g>
</svg>
