<?xml version="1.0" encoding="UTF-8" standalone="no"?>
<!DOCTYPE svg PUBLIC "-//W3C//DTD SVG 1.1//EN"
 "http://www.w3.org/Graphics/SVG/1.1/DTD/svg11.dtd">
<!-- Generated by graphviz version 2.43.0 (0)
 -->
<!-- Title: %3 Pages: 1 -->
<svg width="694pt" height="218pt"
 viewBox="0.00 0.00 694.14 218.00" xmlns="http://www.w3.org/2000/svg" xmlns:xlink="http://www.w3.org/1999/xlink">
<g id="graph0" class="graph" transform="scale(1 1) rotate(0) translate(4 214)">
<title>%3</title>
<polygon fill="#fffacd" stroke="transparent" points="-4,4 -4,-214 690.14,-214 690.14,4 -4,4"/>
<!-- 1 -->
<g id="node1" class="node">
<title>1</title>
<g id="a_node1"><a xlink:title="ज्ञान&#45;यज्ञ{पुं}{3;एक}">
<ellipse fill="#40e0d0" stroke="#40e0d0" cx="64.15" cy="-18" rx="61.99" ry="18"/>
<text text-anchor="middle" x="64.15" y="-14.3" font-family="Times,serif" font-size="14.00">ज्ञान&#45;यज्ञेन (1)</text>
</a>
</g>
</g>
<!-- 2 -->
<g id="node2" class="node">
<title>2</title>
<g id="a_node2"><a xlink:title="अपि{अव्य}_च{अव्य}">
<ellipse fill="#ff00ff" stroke="#ff00ff" cx="33.15" cy="-105" rx="33.29" ry="18"/>
<text text-anchor="middle" x="33.15" y="-101.3" font-family="Times,serif" font-size="14.00">च (2)</text>
</a>
</g>
</g>
<!-- 2.1 -->
<g id="node3" class="node">
<title>2.1</title>
<g id="a_node3"><a xlink:title="अपि{अव्य}">
<ellipse fill="#ff00ff" stroke="#ff00ff" cx="356.15" cy="-192" rx="50.89" ry="18"/>
<text text-anchor="middle" x="356.15" y="-188.3" font-family="Times,serif" font-size="14.00">अपि (2.1)</text>
</a>
</g>
</g>
<!-- 3 -->
<g id="node4" class="node">
<title>3</title>
<g id="a_node4"><a xlink:title="अन्य{पुं}{1;बहु}">
<ellipse fill="#00bfff" stroke="#00bfff" cx="128.15" cy="-105" rx="44.39" ry="18"/>
<text text-anchor="middle" x="128.15" y="-101.3" font-family="Times,serif" font-size="14.00">अन्ये (3)</text>
</a>
</g>
</g>
<!-- 4 -->
<g id="node5" class="node">
<title>4</title>
<g id="a_node5"><a xlink:title="यज्1{कृत्_प्रत्ययः:शतृ;यजँ;भ्वादिः;पुं}{1;बहु}">
<ellipse fill="#00bfff" stroke="#00bfff" cx="242.15" cy="-105" rx="51.99" ry="18"/>
<text text-anchor="middle" x="242.15" y="-101.3" font-family="Times,serif" font-size="14.00">यजन्तः (4)</text>
</a>
</g>
</g>
<!-- 4&#45;&gt;1 -->
<g id="edge1" class="edge">
<title>4&#45;&gt;1</title>
<path fill="none" stroke="black" d="M212.75,-89.96C183.19,-75.84 137.37,-53.97 104.43,-38.24"/>
<polygon fill="black" stroke="black" points="105.61,-34.92 95.08,-33.77 102.59,-41.24 105.61,-34.92"/>
<text text-anchor="middle" x="182.15" y="-57.8" font-family="Times,serif" font-size="14.00">करणम्</text>
</g>
<!-- 5 -->
<g id="node6" class="node">
<title>5</title>
<g id="a_node6"><a xlink:title="अस्मद्{2;एक}">
<ellipse fill="#7cfc00" stroke="#7cfc00" cx="185.15" cy="-18" rx="41.69" ry="18"/>
<text text-anchor="middle" x="185.15" y="-14.3" font-family="Times,serif" font-size="14.00">माम् (5)</text>
</a>
</g>
</g>
<!-- 4&#45;&gt;5 -->
<g id="edge5" class="edge">
<title>4&#45;&gt;5</title>
<path fill="none" stroke="black" d="M230.89,-87.21C222.64,-74.9 211.3,-58 201.97,-44.09"/>
<polygon fill="black" stroke="black" points="204.67,-41.83 196.19,-35.47 198.85,-45.72 204.67,-41.83"/>
<text text-anchor="middle" x="227.15" y="-57.8" font-family="Times,serif" font-size="14.00">कर्म</text>
</g>
<!-- 7 -->
<g id="node8" class="node">
<title>7</title>
<g id="a_node8"><a xlink:title="एकत्व{नपुं}{3;एक}">
<ellipse fill="#40e0d0" stroke="#40e0d0" cx="299.15" cy="-18" rx="53.89" ry="18"/>
<text text-anchor="middle" x="299.15" y="-14.3" font-family="Times,serif" font-size="14.00">एकत्वेन (7)</text>
</a>
</g>
</g>
<!-- 4&#45;&gt;7 -->
<g id="edge6" class="edge">
<title>4&#45;&gt;7</title>
<path fill="none" stroke="black" d="M253.41,-87.21C261.61,-74.98 272.85,-58.21 282.14,-44.36"/>
<polygon fill="black" stroke="black" points="285.25,-46.01 287.91,-35.76 279.43,-42.11 285.25,-46.01"/>
<text text-anchor="middle" x="316.65" y="-57.8" font-family="Times,serif" font-size="14.00">क्रियाविशेषणम्</text>
</g>
<!-- 8 -->
<g id="node9" class="node">
<title>8</title>
<g id="a_node9"><a xlink:title="पृथक्त्व{नपुं}{3;एक}">
<ellipse fill="#40e0d0" stroke="#40e0d0" cx="429.15" cy="-18" rx="57.69" ry="18"/>
<text text-anchor="middle" x="429.15" y="-14.3" font-family="Times,serif" font-size="14.00">पृथक्त्वेन (8)</text>
</a>
</g>
</g>
<!-- 4&#45;&gt;8 -->
<g id="edge7" class="edge">
<title>4&#45;&gt;8</title>
<path fill="none" stroke="black" d="M281.37,-93.03C315.24,-83.49 359.34,-70.91 363.15,-69 377.52,-61.79 391.93,-51.34 403.61,-41.85"/>
<polygon fill="black" stroke="black" points="406.16,-44.27 411.58,-35.17 401.67,-38.91 406.16,-44.27"/>
<text text-anchor="middle" x="429.65" y="-57.8" font-family="Times,serif" font-size="14.00">क्रियाविशेषणम्</text>
</g>
<!-- 6 -->
<g id="node7" class="node">
<title>6</title>
<g id="a_node7"><a xlink:title="उप_आस्1{कर्तरि;लट्;प्र;बहु;आत्मनेपदी;उप_आसँ;अदादिः}">
<ellipse fill="#ff6347" stroke="#ff6347" cx="235.15" cy="-192" rx="51.99" ry="18"/>
<text text-anchor="middle" x="235.15" y="-188.3" font-family="Times,serif" font-size="14.00">उपासते (6)</text>
</a>
</g>
</g>
<!-- 6&#45;&gt;2 -->
<g id="edge2" class="edge">
<title>6&#45;&gt;2</title>
<path fill="none" stroke="black" d="M195.67,-180.22C174.69,-174.02 148.64,-165.56 126.15,-156 104.45,-146.78 81.09,-134.2 63.21,-123.97"/>
<polygon fill="black" stroke="black" points="64.8,-120.85 54.39,-118.87 61.29,-126.91 64.8,-120.85"/>
<text text-anchor="middle" x="149.15" y="-144.8" font-family="Times,serif" font-size="14.00">सम्बन्धः</text>
</g>
<!-- 6&#45;&gt;3 -->
<g id="edge3" class="edge">
<title>6&#45;&gt;3</title>
<path fill="none" stroke="black" d="M215.27,-175.21C198.43,-161.83 174.1,-142.5 155.43,-127.67"/>
<polygon fill="black" stroke="black" points="157.56,-124.9 147.55,-121.42 153.21,-130.38 157.56,-124.9"/>
<text text-anchor="middle" x="200.65" y="-144.8" font-family="Times,serif" font-size="14.00">कर्ता</text>
</g>
<!-- 6&#45;&gt;4 -->
<g id="edge4" class="edge">
<title>6&#45;&gt;4</title>
<path fill="none" stroke="black" d="M234.86,-173.84C234.85,-164.17 235.11,-151.89 236.15,-141 236.39,-138.42 236.72,-135.75 237.09,-133.08"/>
<polygon fill="black" stroke="black" points="240.58,-133.45 238.7,-123.02 233.67,-132.34 240.58,-133.45"/>
<text text-anchor="middle" x="286.15" y="-144.8" font-family="Times,serif" font-size="14.00">वर्तमानसमानकालः</text>
</g>
<!-- 9 -->
<g id="node10" class="node">
<title>9</title>
<g id="a_node10"><a xlink:title="बहुधा{अव्य}">
<ellipse fill="#ff00ff" stroke="#ff00ff" cx="358.15" cy="-105" rx="46.29" ry="18"/>
<text text-anchor="middle" x="358.15" y="-101.3" font-family="Times,serif" font-size="14.00">बहुधा (9)</text>
</a>
</g>
</g>
<!-- 6&#45;&gt;9 -->
<g id="edge8" class="edge">
<title>6&#45;&gt;9</title>
<path fill="none" stroke="black" d="M272.86,-179.54C299.46,-171.18 331.2,-160.56 336.15,-156 342.86,-149.81 347.64,-141.2 350.98,-132.87"/>
<polygon fill="black" stroke="black" points="354.31,-133.97 354.29,-123.37 347.69,-131.67 354.31,-133.97"/>
<text text-anchor="middle" x="389.65" y="-144.8" font-family="Times,serif" font-size="14.00">क्रियाविशेषणम्</text>
</g>
<!-- 10 -->
<g id="node11" class="node">
<title>10</title>
<g id="a_node11"><a xlink:title="विश्वतः&#45;मुख{पुं}{2;एक}">
<ellipse fill="#7cfc00" stroke="#7cfc00" cx="505.15" cy="-105" rx="83.39" ry="18"/>
<text text-anchor="middle" x="505.15" y="-101.3" font-family="Times,serif" font-size="14.00">विश्वतः&#45;मुखम् (10)</text>
</a>
</g>
</g>
<!-- 6&#45;&gt;10 -->
<g id="edge9" class="edge">
<title>6&#45;&gt;10</title>
<path fill="none" stroke="black" d="M273.01,-179.54C280.63,-177.49 288.6,-175.53 296.15,-174 357.63,-161.55 377.83,-179.12 436.15,-156 451.79,-149.8 467.15,-139.24 479.4,-129.41"/>
<polygon fill="black" stroke="black" points="481.9,-131.88 487.34,-122.79 477.42,-126.51 481.9,-131.88"/>
<text text-anchor="middle" x="504.65" y="-144.8" font-family="Times,serif" font-size="14.00">क्रियाविशेषणम्</text>
</g>
<!-- 11 -->
<g id="node12" class="node">
<title>11</title>
<g id="a_node12"><a xlink:title="(अन्य{पुं}{1;बहु})">
<ellipse fill="#00bfff" stroke="#00bfff" cx="481.15" cy="-192" rx="56.59" ry="18"/>
<text text-anchor="middle" x="481.15" y="-188.3" font-family="Times,serif" font-size="14.00">(अन्ये) (11)</text>
</a>
</g>
</g>
<!-- 12 -->
<g id="node13" class="node">
<title>12</title>
<g id="a_node13"><a xlink:title="(उप_आस्1{कर्तरि;लट्;प्र;बहु;आत्मनेपदी;उप_आसँ;अदादिः})">
<ellipse fill="#ff6347" stroke="#ff6347" cx="621.15" cy="-192" rx="64.99" ry="18"/>
<text text-anchor="middle" x="621.15" y="-188.3" font-family="Times,serif" font-size="14.00">(उपासते) (12)</text>
</a>
</g>
</g>
</g>
</svg>
