<?xml version="1.0" encoding="UTF-8" standalone="no"?>
<!DOCTYPE svg PUBLIC "-//W3C//DTD SVG 1.1//EN"
 "http://www.w3.org/Graphics/SVG/1.1/DTD/svg11.dtd">
<!-- Generated by graphviz version 2.43.0 (0)
 -->
<!-- Title: %3 Pages: 1 -->
<svg width="506pt" height="479pt"
 viewBox="0.00 0.00 506.09 479.00" xmlns="http://www.w3.org/2000/svg" xmlns:xlink="http://www.w3.org/1999/xlink">
<g id="graph0" class="graph" transform="scale(1 1) rotate(0) translate(4 475)">
<title>%3</title>
<polygon fill="#fffacd" stroke="transparent" points="-4,4 -4,-475 502.09,-475 502.09,4 -4,4"/>
<!-- 1 -->
<g id="node1" class="node">
<title>1</title>
<g id="a_node1"><a xlink:title="न&#45;श्रद्दधान{पुं}{1;बहु}">
<ellipse fill="#00bfff" stroke="#00bfff" cx="74.09" cy="-192" rx="74.19" ry="18"/>
<text text-anchor="middle" x="74.09" y="-188.3" font-family="Times,serif" font-size="14.00">अ&#45;श्रद्दधानाः (1)</text>
</a>
</g>
</g>
<!-- 3 -->
<g id="node3" class="node">
<title>3</title>
<g id="a_node3"><a xlink:title="धर्म{पुं}{6;एक}">
<ellipse fill="#87ceeb" stroke="#87ceeb" cx="74.09" cy="-105" rx="49.29" ry="18"/>
<text text-anchor="middle" x="74.09" y="-101.3" font-family="Times,serif" font-size="14.00">धर्मस्य (3)</text>
</a>
</g>
</g>
<!-- 1&#45;&gt;3 -->
<g id="edge4" class="edge">
<title>1&#45;&gt;3</title>
<path fill="none" stroke="black" d="M74.09,-173.8C74.09,-162.16 74.09,-146.55 74.09,-133.24"/>
<polygon fill="black" stroke="black" points="77.59,-133.18 74.09,-123.18 70.59,-133.18 77.59,-133.18"/>
<text text-anchor="middle" x="84.09" y="-144.8" font-family="Times,serif" font-size="14.00">कर्म</text>
</g>
<!-- 2 -->
<g id="node2" class="node">
<title>2</title>
<g id="a_node2"><a xlink:title="पुरुष{पुं}{1;बहु}">
<ellipse fill="#00bfff" stroke="#00bfff" cx="74.09" cy="-279" rx="48.99" ry="18"/>
<text text-anchor="middle" x="74.09" y="-275.3" font-family="Times,serif" font-size="14.00">पुरुषाः (2)</text>
</a>
</g>
</g>
<!-- 2&#45;&gt;1 -->
<g id="edge1" class="edge">
<title>2&#45;&gt;1</title>
<path fill="none" stroke="black" d="M74.09,-260.8C74.09,-249.16 74.09,-233.55 74.09,-220.24"/>
<polygon fill="black" stroke="black" points="77.59,-220.18 74.09,-210.18 70.59,-220.18 77.59,-220.18"/>
<text text-anchor="middle" x="99.59" y="-231.8" font-family="Times,serif" font-size="14.00">विशेषणम्</text>
</g>
<!-- 4 -->
<g id="node4" class="node">
<title>4</title>
<g id="a_node4"><a xlink:title="इदम्{पुं}{6;एक}">
<ellipse fill="#87ceeb" stroke="#87ceeb" cx="74.09" cy="-18" rx="44.69" ry="18"/>
<text text-anchor="middle" x="74.09" y="-14.3" font-family="Times,serif" font-size="14.00">अस्य (4)</text>
</a>
</g>
</g>
<!-- 3&#45;&gt;4 -->
<g id="edge5" class="edge">
<title>3&#45;&gt;4</title>
<path fill="none" stroke="black" d="M74.09,-86.8C74.09,-75.16 74.09,-59.55 74.09,-46.24"/>
<polygon fill="black" stroke="black" points="77.59,-46.18 74.09,-36.18 70.59,-46.18 77.59,-46.18"/>
<text text-anchor="middle" x="99.59" y="-57.8" font-family="Times,serif" font-size="14.00">विशेषणम्</text>
</g>
<!-- 5 -->
<g id="node5" class="node">
<title>5</title>
<g id="a_node5"><a xlink:title="परन्तप{पुं}{8;एक}">
<ellipse fill="#7fffd4" stroke="#7fffd4" cx="110.09" cy="-366" rx="50.09" ry="18"/>
<text text-anchor="middle" x="110.09" y="-362.3" font-family="Times,serif" font-size="14.00">परन्तप (5)</text>
</a>
</g>
</g>
<!-- 6 -->
<g id="node6" class="node">
<title>6</title>
<g id="a_node6"><a xlink:title="न&#45;प्र_आप्1{कृत्_प्रत्ययः:ल्यप्;प्र_आपॢँ;स्वादिः}">
<ellipse fill="#808080" stroke="#808080" cx="238.09" cy="-366" rx="59.59" ry="18"/>
<text text-anchor="middle" x="238.09" y="-362.3" font-family="Times,serif" font-size="14.00">अ&#45;प्राप्य (6)</text>
</a>
</g>
</g>
<!-- 6&#45;&gt;2 -->
<g id="edge3" class="edge">
<title>6&#45;&gt;2</title>
<path fill="none" stroke="black" stroke-dasharray="1,5" d="M209.15,-350C181.6,-335.72 140.05,-314.19 110.32,-298.78"/>
<polygon fill="black" stroke="black" points="111.6,-295.5 101.11,-294 108.38,-301.71 111.6,-295.5"/>
<text text-anchor="middle" x="178.59" y="-318.8" font-family="Times,serif" font-size="14.00">कर्ता</text>
</g>
<!-- 7 -->
<g id="node7" class="node">
<title>7</title>
<g id="a_node7"><a xlink:title="अस्मद्{2;एक}">
<ellipse fill="#7cfc00" stroke="#7cfc00" cx="238.09" cy="-279" rx="41.69" ry="18"/>
<text text-anchor="middle" x="238.09" y="-275.3" font-family="Times,serif" font-size="14.00">माम् (7)</text>
</a>
</g>
</g>
<!-- 6&#45;&gt;7 -->
<g id="edge8" class="edge">
<title>6&#45;&gt;7</title>
<path fill="none" stroke="black" d="M238.09,-347.8C238.09,-336.16 238.09,-320.55 238.09,-307.24"/>
<polygon fill="black" stroke="black" points="241.59,-307.18 238.09,-297.18 234.59,-307.18 241.59,-307.18"/>
<text text-anchor="middle" x="248.09" y="-318.8" font-family="Times,serif" font-size="14.00">कर्म</text>
</g>
<!-- 8 -->
<g id="node8" class="node">
<title>8</title>
<g id="a_node8"><a xlink:title="नि_वृत्1{कर्तरि;लट्;प्र;बहु;आत्मनेपदी;नि_वृतुँ;भ्वादिः}">
<ellipse fill="#ff6347" stroke="#ff6347" cx="174.09" cy="-453" rx="54.69" ry="18"/>
<text text-anchor="middle" x="174.09" y="-449.3" font-family="Times,serif" font-size="14.00">निवर्तन्ते (8)</text>
</a>
</g>
</g>
<!-- 8&#45;&gt;2 -->
<g id="edge2" class="edge">
<title>8&#45;&gt;2</title>
<path fill="none" stroke="black" d="M126.51,-444.03C92.15,-435.51 48.07,-418.28 26.09,-384 9.46,-358.06 30.56,-325.41 49.8,-303.69"/>
<polygon fill="black" stroke="black" points="52.5,-305.92 56.73,-296.21 47.36,-301.16 52.5,-305.92"/>
<text text-anchor="middle" x="38.59" y="-362.3" font-family="Times,serif" font-size="14.00">कर्ता</text>
</g>
<!-- 8&#45;&gt;5 -->
<g id="edge6" class="edge">
<title>8&#45;&gt;5</title>
<path fill="none" stroke="black" d="M155.46,-435.85C149.53,-430.22 143.19,-423.64 138.09,-417 132.43,-409.63 127.17,-400.98 122.78,-392.96"/>
<polygon fill="black" stroke="black" points="125.79,-391.18 118.04,-383.96 119.6,-394.44 125.79,-391.18"/>
<text text-anchor="middle" x="163.59" y="-405.8" font-family="Times,serif" font-size="14.00">सम्बोध्यः</text>
</g>
<!-- 8&#45;&gt;6 -->
<g id="edge7" class="edge">
<title>8&#45;&gt;6</title>
<path fill="none" stroke="black" d="M186.74,-435.21C196.03,-422.87 208.81,-405.89 219.29,-391.97"/>
<polygon fill="black" stroke="black" points="222.26,-393.85 225.48,-383.76 216.66,-389.64 222.26,-393.85"/>
<text text-anchor="middle" x="234.59" y="-405.8" font-family="Times,serif" font-size="14.00">पूर्वकालः</text>
</g>
<!-- 9 -->
<g id="node9" class="node">
<title>9</title>
<g id="a_node9"><a xlink:title="मृत्यु&#45;संसार&#45;वर्त्मन्{नपुं}{7;एक}">
<ellipse fill="#708090" stroke="#708090" cx="407.09" cy="-366" rx="90.98" ry="18"/>
<text text-anchor="middle" x="407.09" y="-362.3" font-family="Times,serif" font-size="14.00">मृत्यु&#45;संसार&#45;वर्त्मनि (9)</text>
</a>
</g>
</g>
<!-- 8&#45;&gt;9 -->
<g id="edge9" class="edge">
<title>8&#45;&gt;9</title>
<path fill="none" stroke="black" d="M209.23,-439.18C248.31,-424.92 311.8,-401.76 356.3,-385.53"/>
<polygon fill="black" stroke="black" points="357.57,-388.79 365.77,-382.08 355.17,-382.22 357.57,-388.79"/>
<text text-anchor="middle" x="334.59" y="-405.8" font-family="Times,serif" font-size="14.00">अधिकरणम्</text>
</g>
</g>
</svg>
