<?xml version="1.0" encoding="UTF-8" standalone="no"?>
<!DOCTYPE svg PUBLIC "-//W3C//DTD SVG 1.1//EN"
 "http://www.w3.org/Graphics/SVG/1.1/DTD/svg11.dtd">
<!-- Generated by graphviz version 2.43.0 (0)
 -->
<!-- Title: %3 Pages: 1 -->
<svg width="578pt" height="305pt"
 viewBox="0.00 0.00 578.29 305.00" xmlns="http://www.w3.org/2000/svg" xmlns:xlink="http://www.w3.org/1999/xlink">
<g id="graph0" class="graph" transform="scale(1 1) rotate(0) translate(4 301)">
<title>%3</title>
<polygon fill="#fffacd" stroke="transparent" points="-4,4 -4,-301 574.29,-301 574.29,4 -4,4"/>
<!-- 1 -->
<g id="node1" class="node">
<title>1</title>
<g id="a_node1"><a xlink:title="न{अव्य}">
<ellipse fill="#ff00ff" stroke="#ff00ff" cx="32.5" cy="-192" rx="32.49" ry="18"/>
<text text-anchor="middle" x="32.5" y="-188.3" font-family="Times,serif" font-size="14.00">न (1)</text>
</a>
</g>
</g>
<!-- 2 -->
<g id="node2" class="node">
<title>2</title>
<g id="a_node2"><a xlink:title="अन्त{पुं}{1;एक}">
<ellipse fill="#00bfff" stroke="#00bfff" cx="129.5" cy="-192" rx="46.59" ry="18"/>
<text text-anchor="middle" x="129.5" y="-188.3" font-family="Times,serif" font-size="14.00">अन्तः (2)</text>
</a>
</g>
</g>
<!-- 6 -->
<g id="node6" class="node">
<title>6</title>
<g id="a_node6"><a xlink:title="विभूति{स्त्री}{6;बहु}">
<ellipse fill="#87ceeb" stroke="#87ceeb" cx="119.5" cy="-105" rx="67.69" ry="18"/>
<text text-anchor="middle" x="119.5" y="-101.3" font-family="Times,serif" font-size="14.00">वि&#45;भूतीनाम् (6)</text>
</a>
</g>
</g>
<!-- 2&#45;&gt;6 -->
<g id="edge5" class="edge">
<title>2&#45;&gt;6</title>
<path fill="none" stroke="black" d="M127.47,-173.8C126.1,-162.16 124.27,-146.55 122.7,-133.24"/>
<polygon fill="black" stroke="black" points="126.16,-132.7 121.52,-123.18 119.21,-133.52 126.16,-132.7"/>
<text text-anchor="middle" x="161.5" y="-144.8" font-family="Times,serif" font-size="14.00">षष्ठीसम्बन्धः</text>
</g>
<!-- 3 -->
<g id="node3" class="node">
<title>3</title>
<g id="a_node3"><a xlink:title="अस्2{कर्तरि;लट्;प्र;एक;परस्मैपदी;असँ;अदादिः}">
<ellipse fill="#ff6347" stroke="#ff6347" cx="215.5" cy="-279" rx="47.39" ry="18"/>
<text text-anchor="middle" x="215.5" y="-275.3" font-family="Times,serif" font-size="14.00">अस्ति (3)</text>
</a>
</g>
</g>
<!-- 3&#45;&gt;1 -->
<g id="edge1" class="edge">
<title>3&#45;&gt;1</title>
<path fill="none" stroke="black" d="M178.07,-267.78C157.89,-261.69 132.82,-253.16 111.5,-243 93.66,-234.5 74.92,-222.78 60.17,-212.82"/>
<polygon fill="black" stroke="black" points="61.77,-209.68 51.55,-206.89 57.81,-215.44 61.77,-209.68"/>
<text text-anchor="middle" x="137.5" y="-231.8" font-family="Times,serif" font-size="14.00">प्रतिषेधः</text>
</g>
<!-- 3&#45;&gt;2 -->
<g id="edge2" class="edge">
<title>3&#45;&gt;2</title>
<path fill="none" stroke="black" d="M199.32,-262.01C186.23,-249.07 167.61,-230.67 152.89,-216.12"/>
<polygon fill="black" stroke="black" points="155.17,-213.46 145.6,-208.92 150.25,-218.44 155.17,-213.46"/>
<text text-anchor="middle" x="191" y="-231.8" font-family="Times,serif" font-size="14.00">कर्ता</text>
</g>
<!-- 7 -->
<g id="node7" class="node">
<title>7</title>
<g id="a_node7"><a xlink:title="परन्तप{पुं}{8;एक}">
<ellipse fill="#7fffd4" stroke="#7fffd4" cx="244.5" cy="-192" rx="50.09" ry="18"/>
<text text-anchor="middle" x="244.5" y="-188.3" font-family="Times,serif" font-size="14.00">परन्तप (7)</text>
</a>
</g>
</g>
<!-- 3&#45;&gt;7 -->
<g id="edge6" class="edge">
<title>3&#45;&gt;7</title>
<path fill="none" stroke="black" d="M221.37,-260.8C225.4,-248.97 230.84,-233.03 235.43,-219.58"/>
<polygon fill="black" stroke="black" points="238.82,-220.48 238.74,-209.89 232.19,-218.22 238.82,-220.48"/>
<text text-anchor="middle" x="258" y="-231.8" font-family="Times,serif" font-size="14.00">सम्बोध्यः</text>
</g>
<!-- 11 -->
<g id="node11" class="node">
<title>11</title>
<g id="a_node11"><a xlink:title="प्र_वच्1{कृत्_प्रत्ययः:क्त;प्र_वचँ;अदादिः;पुं}{1;एक}">
<ellipse fill="#00bfff" stroke="#00bfff" cx="383.5" cy="-192" rx="59.29" ry="18"/>
<text text-anchor="middle" x="383.5" y="-188.3" font-family="Times,serif" font-size="14.00">प्रोक्तः (11)</text>
</a>
</g>
</g>
<!-- 3&#45;&gt;11 -->
<g id="edge10" class="edge">
<title>3&#45;&gt;11</title>
<path fill="none" stroke="black" d="M243.97,-264.38C257.24,-257.98 273.22,-250.19 287.5,-243 307.08,-233.14 328.75,-221.89 346.54,-212.55"/>
<polygon fill="black" stroke="black" points="348.24,-215.62 355.46,-207.86 344.98,-209.42 348.24,-215.62"/>
<text text-anchor="middle" x="369.5" y="-231.8" font-family="Times,serif" font-size="14.00">कर्तृसमानाधिकरणम्</text>
</g>
<!-- 4 -->
<g id="node4" class="node">
<title>4</title>
<g id="a_node4"><a xlink:title="अस्मद्{6;एक}">
<ellipse fill="#87ceeb" stroke="#87ceeb" cx="38.5" cy="-18" rx="38.19" ry="18"/>
<text text-anchor="middle" x="38.5" y="-14.3" font-family="Times,serif" font-size="14.00">मम (4)</text>
</a>
</g>
</g>
<!-- 5 -->
<g id="node5" class="node">
<title>5</title>
<g id="a_node5"><a xlink:title="दिव्य{पुं}{6;बहु}">
<ellipse fill="#87ceeb" stroke="#87ceeb" cx="155.5" cy="-18" rx="60.39" ry="18"/>
<text text-anchor="middle" x="155.5" y="-14.3" font-family="Times,serif" font-size="14.00">दिव्यानाम् (5)</text>
</a>
</g>
</g>
<!-- 6&#45;&gt;4 -->
<g id="edge3" class="edge">
<title>6&#45;&gt;4</title>
<path fill="none" stroke="black" d="M85.56,-89.23C76.2,-83.91 66.66,-77.16 59.5,-69 53.67,-62.36 49.29,-53.87 46.09,-45.77"/>
<polygon fill="black" stroke="black" points="49.36,-44.52 42.74,-36.25 42.75,-46.85 49.36,-44.52"/>
<text text-anchor="middle" x="95.5" y="-57.8" font-family="Times,serif" font-size="14.00">षष्ठीसम्बन्धः</text>
</g>
<!-- 6&#45;&gt;5 -->
<g id="edge4" class="edge">
<title>6&#45;&gt;5</title>
<path fill="none" stroke="black" d="M126.78,-86.8C131.84,-74.85 138.68,-58.72 144.41,-45.18"/>
<polygon fill="black" stroke="black" points="147.67,-46.46 148.35,-35.89 141.22,-43.73 147.67,-46.46"/>
<text text-anchor="middle" x="166" y="-57.8" font-family="Times,serif" font-size="14.00">विशेषणम्</text>
</g>
<!-- 8 -->
<g id="node8" class="node">
<title>8</title>
<g id="a_node8"><a xlink:title="एतद्{पुं}{1;एक}">
<ellipse fill="#00bfff" stroke="#00bfff" cx="309.5" cy="-18" rx="40.09" ry="18"/>
<text text-anchor="middle" x="309.5" y="-14.3" font-family="Times,serif" font-size="14.00">एषः (8)</text>
</a>
</g>
</g>
<!-- 9 -->
<g id="node9" class="node">
<title>9</title>
<g id="a_node9"><a xlink:title="तु{अव्य}">
<ellipse fill="#ff00ff" stroke="#ff00ff" cx="400.5" cy="-18" rx="32.49" ry="18"/>
<text text-anchor="middle" x="400.5" y="-14.3" font-family="Times,serif" font-size="14.00">तु (9)</text>
</a>
</g>
</g>
<!-- 10 -->
<g id="node10" class="node">
<title>10</title>
<g id="a_node10"><a xlink:title="उद्देश{अव्य}">
<ellipse fill="#ff00ff" stroke="#ff00ff" cx="264.5" cy="-105" rx="59.59" ry="18"/>
<text text-anchor="middle" x="264.5" y="-101.3" font-family="Times,serif" font-size="14.00">उद्देशतः (10)</text>
</a>
</g>
</g>
<!-- 11&#45;&gt;10 -->
<g id="edge9" class="edge">
<title>11&#45;&gt;10</title>
<path fill="none" stroke="black" d="M343.77,-178.54C329.86,-173 314.68,-165.54 302.5,-156 293.87,-149.24 286.16,-140.09 279.98,-131.45"/>
<polygon fill="black" stroke="black" points="282.83,-129.42 274.33,-123.11 277.03,-133.35 282.83,-129.42"/>
<text text-anchor="middle" x="345" y="-144.8" font-family="Times,serif" font-size="14.00">क्रियाविशेषणम्</text>
</g>
<!-- 13 -->
<g id="node13" class="node">
<title>13</title>
<g id="a_node13"><a xlink:title="विस्तर{पुं}{1;एक}">
<ellipse fill="#00bfff" stroke="#00bfff" cx="400.5" cy="-105" rx="58.49" ry="18"/>
<text text-anchor="middle" x="400.5" y="-101.3" font-family="Times,serif" font-size="14.00">विस्तरः (13)</text>
</a>
</g>
</g>
<!-- 11&#45;&gt;13 -->
<g id="edge12" class="edge">
<title>11&#45;&gt;13</title>
<path fill="none" stroke="black" d="M386.94,-173.8C389.26,-162.16 392.39,-146.55 395.05,-133.24"/>
<polygon fill="black" stroke="black" points="398.53,-133.67 397.06,-123.18 391.67,-132.29 398.53,-133.67"/>
<text text-anchor="middle" x="403.5" y="-144.8" font-family="Times,serif" font-size="14.00">कर्म</text>
</g>
<!-- 14 -->
<g id="node14" class="node">
<title>14</title>
<g id="a_node14"><a xlink:title="अस्मद्{3;एक}">
<ellipse fill="#40e0d0" stroke="#40e0d0" cx="523.5" cy="-105" rx="46.29" ry="18"/>
<text text-anchor="middle" x="523.5" y="-101.3" font-family="Times,serif" font-size="14.00">मया (14)</text>
</a>
</g>
</g>
<!-- 11&#45;&gt;14 -->
<g id="edge13" class="edge">
<title>11&#45;&gt;14</title>
<path fill="none" stroke="black" d="M408.85,-175.61C431.73,-161.72 465.53,-141.2 490.5,-126.03"/>
<polygon fill="black" stroke="black" points="492.54,-128.89 499.27,-120.71 488.91,-122.91 492.54,-128.89"/>
<text text-anchor="middle" x="475" y="-144.8" font-family="Times,serif" font-size="14.00">कर्ता</text>
</g>
<!-- 12 -->
<g id="node12" class="node">
<title>12</title>
<g id="a_node12"><a xlink:title="विभूति{स्त्री}{6;एक}">
<ellipse fill="#87ceeb" stroke="#87ceeb" cx="510.5" cy="-18" rx="59.59" ry="18"/>
<text text-anchor="middle" x="510.5" y="-14.3" font-family="Times,serif" font-size="14.00">वि&#45;भूतेः (12)</text>
</a>
</g>
</g>
<!-- 13&#45;&gt;8 -->
<g id="edge7" class="edge">
<title>13&#45;&gt;8</title>
<path fill="none" stroke="black" d="M372.44,-88.99C363.31,-83.39 353.48,-76.54 345.5,-69 337.76,-61.7 330.6,-52.52 324.74,-44.03"/>
<polygon fill="black" stroke="black" points="327.56,-41.95 319.13,-35.54 321.72,-45.81 327.56,-41.95"/>
<text text-anchor="middle" x="371" y="-57.8" font-family="Times,serif" font-size="14.00">विशेषणम्</text>
</g>
<!-- 13&#45;&gt;9 -->
<g id="edge8" class="edge">
<title>13&#45;&gt;9</title>
<path fill="none" stroke="black" d="M400.5,-86.8C400.5,-75.16 400.5,-59.55 400.5,-46.24"/>
<polygon fill="black" stroke="black" points="404,-46.18 400.5,-36.18 397,-46.18 404,-46.18"/>
<text text-anchor="middle" x="423.5" y="-57.8" font-family="Times,serif" font-size="14.00">सम्बन्धः</text>
</g>
<!-- 13&#45;&gt;12 -->
<g id="edge11" class="edge">
<title>13&#45;&gt;12</title>
<path fill="none" stroke="black" d="M423.69,-88.37C432.23,-82.45 441.91,-75.56 450.5,-69 461.72,-60.42 473.74,-50.55 484.05,-41.85"/>
<polygon fill="black" stroke="black" points="486.56,-44.32 491.91,-35.18 482.02,-38.98 486.56,-44.32"/>
<text text-anchor="middle" x="505.5" y="-57.8" font-family="Times,serif" font-size="14.00">षष्ठीसम्बन्धः</text>
</g>
</g>
</svg>
