<?xml version="1.0" encoding="UTF-8" standalone="no"?>
<!DOCTYPE svg PUBLIC "-//W3C//DTD SVG 1.1//EN"
 "http://www.w3.org/Graphics/SVG/1.1/DTD/svg11.dtd">
<!-- Generated by graphviz version 2.43.0 (0)
 -->
<!-- Title: %3 Pages: 1 -->
<svg width="1483pt" height="218pt"
 viewBox="0.00 0.00 1482.69 218.00" xmlns="http://www.w3.org/2000/svg" xmlns:xlink="http://www.w3.org/1999/xlink">
<g id="graph0" class="graph" transform="scale(1 1) rotate(0) translate(4 214)">
<title>%3</title>
<polygon fill="#fffacd" stroke="transparent" points="-4,4 -4,-214 1478.69,-214 1478.69,4 -4,4"/>
<!-- 1 -->
<g id="node1" class="node">
<title>1</title>
<g id="a_node1"><a xlink:title="सर्व{नपुं}{2;एक}">
<ellipse fill="#7cfc00" stroke="#7cfc00" cx="483.15" cy="-105" rx="44.69" ry="18"/>
<text text-anchor="middle" x="483.15" y="-101.3" font-family="Times,serif" font-size="14.00">सर्वम् (1)</text>
</a>
</g>
</g>
<!-- 2 -->
<g id="node2" class="node">
<title>2</title>
<g id="a_node2"><a xlink:title="एतद्{नपुं}{2;एक}">
<ellipse fill="#7cfc00" stroke="#7cfc00" cx="531.15" cy="-18" rx="44.39" ry="18"/>
<text text-anchor="middle" x="531.15" y="-14.3" font-family="Times,serif" font-size="14.00">एतत् (2)</text>
</a>
</g>
</g>
<!-- 1&#45;&gt;2 -->
<g id="edge2" class="edge">
<title>1&#45;&gt;2</title>
<path fill="none" stroke="black" d="M496.37,-87.79C500.73,-82.04 505.42,-75.41 509.15,-69 513.44,-61.62 517.43,-53.25 520.8,-45.5"/>
<polygon fill="black" stroke="black" points="524.09,-46.71 524.72,-36.13 517.63,-44 524.09,-46.71"/>
<text text-anchor="middle" x="542.65" y="-57.8" font-family="Times,serif" font-size="14.00">विशेषणम्</text>
</g>
<!-- 5 -->
<g id="node6" class="node">
<title>5</title>
<g id="a_node6"><a xlink:title="यद्{नपुं}{2;एक}">
<ellipse fill="#7cfc00" stroke="#7cfc00" cx="414.15" cy="-18" rx="38.19" ry="18"/>
<text text-anchor="middle" x="414.15" y="-14.3" font-family="Times,serif" font-size="14.00">यत् (5)</text>
</a>
</g>
</g>
<!-- 1&#45;&gt;5 -->
<g id="edge6" class="edge">
<title>1&#45;&gt;5</title>
<path fill="none" stroke="black" stroke-dasharray="1,5" d="M457.33,-90.16C448.71,-84.53 439.66,-77.36 433.15,-69 427.85,-62.2 423.9,-53.76 421.01,-45.76"/>
<polygon fill="black" stroke="black" points="424.28,-44.48 417.9,-36.02 417.61,-46.61 424.28,-44.48"/>
<text text-anchor="middle" x="469.15" y="-57.8" font-family="Times,serif" font-size="14.00">नित्यसम्बन्धः</text>
</g>
<!-- 3 -->
<g id="node3" class="node">
<title>3</title>
<g id="a_node3"><a xlink:title="ऋत{नपुं}{2;एक}">
<ellipse fill="#7cfc00" stroke="#7cfc00" cx="593.15" cy="-105" rx="46.59" ry="18"/>
<text text-anchor="middle" x="593.15" y="-101.3" font-family="Times,serif" font-size="14.00">ऋतम् (3)</text>
</a>
</g>
</g>
<!-- 4 -->
<g id="node4" class="node">
<title>4</title>
<g id="a_node4"><a xlink:title="मन्1{कर्तरि;लट्;उ;एक;आत्मनेपदी;मनँ;दिवादिः}">
<ellipse fill="#ff6347" stroke="#ff6347" cx="593.15" cy="-192" rx="42.49" ry="18"/>
<text text-anchor="middle" x="593.15" y="-188.3" font-family="Times,serif" font-size="14.00">मन्ये (4)</text>
</a>
</g>
</g>
<!-- 4&#45;&gt;1 -->
<g id="edge1" class="edge">
<title>4&#45;&gt;1</title>
<path fill="none" stroke="black" d="M573.73,-176C556.36,-162.57 530.67,-142.72 511.09,-127.59"/>
<polygon fill="black" stroke="black" points="513.16,-124.77 503.11,-121.42 508.88,-130.31 513.16,-124.77"/>
<text text-anchor="middle" x="555.15" y="-144.8" font-family="Times,serif" font-size="14.00">कर्म</text>
</g>
<!-- 4&#45;&gt;3 -->
<g id="edge3" class="edge">
<title>4&#45;&gt;3</title>
<path fill="none" stroke="black" d="M593.15,-173.8C593.15,-162.16 593.15,-146.55 593.15,-133.24"/>
<polygon fill="black" stroke="black" points="596.65,-133.18 593.15,-123.18 589.65,-133.18 596.65,-133.18"/>
<text text-anchor="middle" x="645.15" y="-144.8" font-family="Times,serif" font-size="14.00">कर्मसमानाधिकरणम्</text>
</g>
<!-- 4.1 -->
<g id="node5" class="node">
<title>4.1</title>
<g id="a_node5"><a xlink:title="(अस्मद्{1;एक})">
<ellipse fill="#00bfff" stroke="#00bfff" cx="720.15" cy="-105" rx="60.39" ry="18"/>
<text text-anchor="middle" x="720.15" y="-101.3" font-family="Times,serif" font-size="14.00">(अहम्) (4.1)</text>
</a>
</g>
</g>
<!-- 4&#45;&gt;4.1 -->
<g id="edge4" class="edge">
<title>4&#45;&gt;4.1</title>
<path fill="none" stroke="black" d="M632.78,-185.76C654.33,-181.11 680.18,-172.37 698.15,-156 704.9,-149.85 709.68,-141.25 713.03,-132.91"/>
<polygon fill="black" stroke="black" points="716.35,-134.01 716.32,-123.41 709.74,-131.71 716.35,-134.01"/>
<text text-anchor="middle" x="721.65" y="-144.8" font-family="Times,serif" font-size="14.00">कर्ता</text>
</g>
<!-- 6 -->
<g id="node7" class="node">
<title>6</title>
<g id="a_node7"><a xlink:title="अस्मद्{2;एक}">
<ellipse fill="#7cfc00" stroke="#7cfc00" cx="283.15" cy="-18" rx="41.69" ry="18"/>
<text text-anchor="middle" x="283.15" y="-14.3" font-family="Times,serif" font-size="14.00">माम् (6)</text>
</a>
</g>
</g>
<!-- 7 -->
<g id="node8" class="node">
<title>7</title>
<g id="a_node8"><a xlink:title="वद्1{कर्तरि;लट्;म;एक;परस्मैपदी;वदँ;भ्वादिः}">
<ellipse fill="#ff6347" stroke="#ff6347" cx="241.15" cy="-105" rx="46.29" ry="18"/>
<text text-anchor="middle" x="241.15" y="-101.3" font-family="Times,serif" font-size="14.00">वदसि (7)</text>
</a>
</g>
</g>
<!-- 7&#45;&gt;5 -->
<g id="edge5" class="edge">
<title>7&#45;&gt;5</title>
<path fill="none" stroke="black" d="M284.72,-98.89C311.29,-94.23 345.03,-85.43 371.15,-69 381.38,-62.56 390.5,-52.91 397.67,-43.81"/>
<polygon fill="black" stroke="black" points="400.53,-45.83 403.68,-35.71 394.91,-41.65 400.53,-45.83"/>
<text text-anchor="middle" x="398.15" y="-57.8" font-family="Times,serif" font-size="14.00">कर्म</text>
</g>
<!-- 7&#45;&gt;6 -->
<g id="edge7" class="edge">
<title>7&#45;&gt;6</title>
<path fill="none" stroke="black" d="M249.44,-87.21C255.43,-75.1 263.61,-58.53 270.42,-44.76"/>
<polygon fill="black" stroke="black" points="273.57,-46.27 274.87,-35.76 267.3,-43.17 273.57,-46.27"/>
<text text-anchor="middle" x="317.15" y="-57.8" font-family="Times,serif" font-size="14.00">कर्मसमानाधिकरणम्</text>
</g>
<!-- 8 -->
<g id="node9" class="node">
<title>8</title>
<g id="a_node9"><a xlink:title="केशव{पुं}{8;एक}">
<ellipse fill="#7fffd4" stroke="#7fffd4" cx="46.15" cy="-18" rx="46.29" ry="18"/>
<text text-anchor="middle" x="46.15" y="-14.3" font-family="Times,serif" font-size="14.00">केशव (8)</text>
</a>
</g>
</g>
<!-- 7&#45;&gt;8 -->
<g id="edge8" class="edge">
<title>7&#45;&gt;8</title>
<path fill="none" stroke="black" d="M207,-92.65C188.49,-86.23 165.33,-77.74 145.15,-69 123.38,-59.57 99.64,-47.64 80.86,-37.8"/>
<polygon fill="black" stroke="black" points="82.28,-34.59 71.8,-33.01 79.01,-40.78 82.28,-34.59"/>
<text text-anchor="middle" x="170.65" y="-57.8" font-family="Times,serif" font-size="14.00">सम्बोध्यः</text>
</g>
<!-- 8.1 -->
<g id="node10" class="node">
<title>8.1</title>
<g id="a_node10"><a xlink:title="(युष्मद्{1;एक})">
<ellipse fill="#00bfff" stroke="#00bfff" cx="167.15" cy="-18" rx="56.59" ry="18"/>
<text text-anchor="middle" x="167.15" y="-14.3" font-family="Times,serif" font-size="14.00">(त्वम्) (8.1)</text>
</a>
</g>
</g>
<!-- 7&#45;&gt;8.1 -->
<g id="edge9" class="edge">
<title>7&#45;&gt;8.1</title>
<path fill="none" stroke="black" d="M226.88,-87.61C215.99,-75.11 200.83,-57.69 188.5,-43.53"/>
<polygon fill="black" stroke="black" points="190.83,-40.87 181.62,-35.63 185.55,-45.47 190.83,-40.87"/>
<text text-anchor="middle" x="221.65" y="-57.8" font-family="Times,serif" font-size="14.00">कर्ता</text>
</g>
<!-- 9 -->
<g id="node11" class="node">
<title>9</title>
<g id="a_node11"><a xlink:title="न{अव्य}">
<ellipse fill="#ff00ff" stroke="#ff00ff" cx="831.15" cy="-105" rx="32.49" ry="18"/>
<text text-anchor="middle" x="831.15" y="-101.3" font-family="Times,serif" font-size="14.00">न (9)</text>
</a>
</g>
</g>
<!-- 10 -->
<g id="node12" class="node">
<title>10</title>
<g id="a_node12"><a xlink:title="हि{अव्य}">
<ellipse fill="#ff00ff" stroke="#ff00ff" cx="1199.15" cy="-18" rx="40.09" ry="18"/>
<text text-anchor="middle" x="1199.15" y="-14.3" font-family="Times,serif" font-size="14.00">हि (10)</text>
</a>
</g>
</g>
<!-- 11 -->
<g id="node13" class="node">
<title>11</title>
<g id="a_node13"><a xlink:title="युष्मद्{6;एक}">
<ellipse fill="#87ceeb" stroke="#87ceeb" cx="1071.15" cy="-18" rx="38.19" ry="18"/>
<text text-anchor="middle" x="1071.15" y="-14.3" font-family="Times,serif" font-size="14.00">ते (11)</text>
</a>
</g>
</g>
<!-- 12 -->
<g id="node14" class="node">
<title>12</title>
<g id="a_node14"><a xlink:title="भगवत्{पुं}{8;एक}">
<ellipse fill="#7fffd4" stroke="#7fffd4" cx="937.15" cy="-105" rx="55.49" ry="18"/>
<text text-anchor="middle" x="937.15" y="-101.3" font-family="Times,serif" font-size="14.00">भगवन् (12)</text>
</a>
</g>
</g>
<!-- 13 -->
<g id="node15" class="node">
<title>13</title>
<g id="a_node15"><a xlink:title="व्यक्ति{स्त्री}{2;एक}">
<ellipse fill="#7cfc00" stroke="#7cfc00" cx="1071.15" cy="-105" rx="61.19" ry="18"/>
<text text-anchor="middle" x="1071.15" y="-101.3" font-family="Times,serif" font-size="14.00">व्यक्तिम् (13)</text>
</a>
</g>
</g>
<!-- 13&#45;&gt;11 -->
<g id="edge12" class="edge">
<title>13&#45;&gt;11</title>
<path fill="none" stroke="black" d="M1071.15,-86.8C1071.15,-75.16 1071.15,-59.55 1071.15,-46.24"/>
<polygon fill="black" stroke="black" points="1074.65,-46.18 1071.15,-36.18 1067.65,-46.18 1074.65,-46.18"/>
<text text-anchor="middle" x="1107.15" y="-57.8" font-family="Times,serif" font-size="14.00">षष्ठीसम्बन्धः</text>
</g>
<!-- 14 -->
<g id="node16" class="node">
<title>14</title>
<g id="a_node16"><a xlink:title="विद्1{कर्तरि;लट्;प्र;बहु;परस्मैपदी;विदँ;अदादिः}">
<ellipse fill="#ff6347" stroke="#ff6347" cx="989.15" cy="-192" rx="49.29" ry="18"/>
<text text-anchor="middle" x="989.15" y="-188.3" font-family="Times,serif" font-size="14.00">विदुः (14)</text>
</a>
</g>
</g>
<!-- 14&#45;&gt;9 -->
<g id="edge10" class="edge">
<title>14&#45;&gt;9</title>
<path fill="none" stroke="black" d="M954.89,-178.79C939.08,-172.68 920.29,-164.73 904.15,-156 888.07,-147.31 871.18,-135.9 857.69,-126.18"/>
<polygon fill="black" stroke="black" points="859.5,-123.16 849.37,-120.07 855.36,-128.81 859.5,-123.16"/>
<text text-anchor="middle" x="930.15" y="-144.8" font-family="Times,serif" font-size="14.00">प्रतिषेधः</text>
</g>
<!-- 14&#45;&gt;12 -->
<g id="edge13" class="edge">
<title>14&#45;&gt;12</title>
<path fill="none" stroke="black" d="M978.87,-174.21C971.39,-161.98 961.14,-145.21 952.66,-131.36"/>
<polygon fill="black" stroke="black" points="955.6,-129.46 947.4,-122.76 949.63,-133.12 955.6,-129.46"/>
<text text-anchor="middle" x="992.65" y="-144.8" font-family="Times,serif" font-size="14.00">सम्बोध्यः</text>
</g>
<!-- 14&#45;&gt;13 -->
<g id="edge14" class="edge">
<title>14&#45;&gt;13</title>
<path fill="none" stroke="black" d="M1004.96,-174.61C1017.13,-161.99 1034.14,-144.36 1047.87,-130.13"/>
<polygon fill="black" stroke="black" points="1050.68,-132.26 1055.1,-122.63 1045.64,-127.4 1050.68,-132.26"/>
<text text-anchor="middle" x="1045.15" y="-144.8" font-family="Times,serif" font-size="14.00">कर्म</text>
</g>
<!-- 15 -->
<g id="node17" class="node">
<title>15</title>
<g id="a_node17"><a xlink:title="देव{पुं}{1;बहु}">
<ellipse fill="#00bfff" stroke="#00bfff" cx="1199.15" cy="-105" rx="49.29" ry="18"/>
<text text-anchor="middle" x="1199.15" y="-101.3" font-family="Times,serif" font-size="14.00">देवाः (15)</text>
</a>
</g>
</g>
<!-- 14&#45;&gt;15 -->
<g id="edge15" class="edge">
<title>14&#45;&gt;15</title>
<path fill="none" stroke="black" d="M1021.04,-178.09C1057.61,-163.29 1117.67,-138.98 1157.8,-122.74"/>
<polygon fill="black" stroke="black" points="1159.34,-125.89 1167.3,-118.89 1156.71,-119.4 1159.34,-125.89"/>
<text text-anchor="middle" x="1119.65" y="-144.8" font-family="Times,serif" font-size="14.00">कर्ता</text>
</g>
<!-- 15&#45;&gt;10 -->
<g id="edge11" class="edge">
<title>15&#45;&gt;10</title>
<path fill="none" stroke="black" d="M1199.15,-86.8C1199.15,-75.16 1199.15,-59.55 1199.15,-46.24"/>
<polygon fill="black" stroke="black" points="1202.65,-46.18 1199.15,-36.18 1195.65,-46.18 1202.65,-46.18"/>
<text text-anchor="middle" x="1222.15" y="-57.8" font-family="Times,serif" font-size="14.00">सम्बन्धः</text>
</g>
<!-- 16 -->
<g id="node18" class="node">
<title>16</title>
<g id="a_node18"><a xlink:title="न{अव्य}">
<ellipse fill="#ff00ff" stroke="#ff00ff" cx="1305.15" cy="-105" rx="38.19" ry="18"/>
<text text-anchor="middle" x="1305.15" y="-101.3" font-family="Times,serif" font-size="14.00">न (16)</text>
</a>
</g>
</g>
<!-- 17 -->
<g id="node19" class="node">
<title>17</title>
<g id="a_node19"><a xlink:title="दानव{पुं}{1;बहु}">
<ellipse fill="#00bfff" stroke="#00bfff" cx="1418.15" cy="-105" rx="56.59" ry="18"/>
<text text-anchor="middle" x="1418.15" y="-101.3" font-family="Times,serif" font-size="14.00">दानवाः (17)</text>
</a>
</g>
</g>
<!-- 17.1 -->
<g id="node20" class="node">
<title>17.1</title>
<g id="a_node20"><a xlink:title="विद्1{कर्तरि;लट्;प्र;बहु;परस्मैपदी;विदँ;अदादिः}">
<ellipse fill="#ff6347" stroke="#ff6347" cx="1361.15" cy="-192" rx="64.99" ry="18"/>
<text text-anchor="middle" x="1361.15" y="-188.3" font-family="Times,serif" font-size="14.00">(विदुः) (17.1)</text>
</a>
</g>
</g>
<!-- 17.1&#45;&gt;16 -->
<g id="edge16" class="edge">
<title>17.1&#45;&gt;16</title>
<path fill="none" stroke="black" d="M1350.08,-174.21C1341.98,-161.9 1330.84,-145 1321.68,-131.09"/>
<polygon fill="black" stroke="black" points="1324.42,-128.89 1316,-122.47 1318.58,-132.75 1324.42,-128.89"/>
<text text-anchor="middle" x="1362.15" y="-144.8" font-family="Times,serif" font-size="14.00">प्रतिषेधः</text>
</g>
<!-- 17.1&#45;&gt;17 -->
<g id="edge17" class="edge">
<title>17.1&#45;&gt;17</title>
<path fill="none" stroke="black" d="M1377.48,-174.25C1382.5,-168.68 1387.82,-162.29 1392.15,-156 1397.19,-148.66 1401.93,-140.22 1405.95,-132.39"/>
<polygon fill="black" stroke="black" points="1409.17,-133.78 1410.47,-123.26 1402.9,-130.67 1409.17,-133.78"/>
<text text-anchor="middle" x="1412.65" y="-144.8" font-family="Times,serif" font-size="14.00">कर्ता</text>
</g>
</g>
</svg>
