<?xml version="1.0" encoding="UTF-8" standalone="no"?>
<!DOCTYPE svg PUBLIC "-//W3C//DTD SVG 1.1//EN"
 "http://www.w3.org/Graphics/SVG/1.1/DTD/svg11.dtd">
<!-- Generated by graphviz version 2.43.0 (0)
 -->
<!-- Title: %3 Pages: 1 -->
<svg width="1078pt" height="305pt"
 viewBox="0.00 0.00 1077.54 305.00" xmlns="http://www.w3.org/2000/svg" xmlns:xlink="http://www.w3.org/1999/xlink">
<g id="graph0" class="graph" transform="scale(1 1) rotate(0) translate(4 301)">
<title>%3</title>
<polygon fill="#fffacd" stroke="transparent" points="-4,4 -4,-301 1073.54,-301 1073.54,4 -4,4"/>
<!-- 1 -->
<g id="node1" class="node">
<title>1</title>
<g id="a_node1"><a xlink:title="द्यूत{नपुं}{1;एक}">
<ellipse fill="#00bfff" stroke="#00bfff" cx="62.39" cy="-105" rx="45.49" ry="18"/>
<text text-anchor="middle" x="62.39" y="-101.3" font-family="Times,serif" font-size="14.00">द्यूतम् (1)</text>
</a>
</g>
</g>
<!-- 2 -->
<g id="node2" class="node">
<title>2</title>
<g id="a_node2"><a xlink:title="छल{कृत्_प्रत्ययः:शतृ;छल;;नपुं}{6;बहु}">
<ellipse fill="#87ceeb" stroke="#87ceeb" cx="62.39" cy="-18" rx="62.29" ry="18"/>
<text text-anchor="middle" x="62.39" y="-14.3" font-family="Times,serif" font-size="14.00">छलयताम् (2)</text>
</a>
</g>
</g>
<!-- 1&#45;&gt;2 -->
<g id="edge2" class="edge">
<title>1&#45;&gt;2</title>
<path fill="none" stroke="black" d="M62.39,-86.8C62.39,-75.16 62.39,-59.55 62.39,-46.24"/>
<polygon fill="black" stroke="black" points="65.89,-46.18 62.39,-36.18 58.89,-46.18 65.89,-46.18"/>
<text text-anchor="middle" x="87.39" y="-57.8" font-family="Times,serif" font-size="14.00">निर्धारणम्</text>
</g>
<!-- 3 -->
<g id="node3" class="node">
<title>3</title>
<g id="a_node3"><a xlink:title="अस्2{कर्तरि;लट्;उ;एक;परस्मैपदी;असँ;अदादिः}">
<ellipse fill="#ff6347" stroke="#ff6347" cx="238.39" cy="-279" rx="48.19" ry="18"/>
<text text-anchor="middle" x="238.39" y="-275.3" font-family="Times,serif" font-size="14.00">अस्मि (3)</text>
</a>
</g>
</g>
<!-- 4 -->
<g id="node4" class="node">
<title>4</title>
<g id="a_node4"><a xlink:title="तेजस्{नपुं}{1;एक}">
<ellipse fill="#00bfff" stroke="#00bfff" cx="174.39" cy="-192" rx="42.79" ry="18"/>
<text text-anchor="middle" x="174.39" y="-188.3" font-family="Times,serif" font-size="14.00">तेजः (4)</text>
</a>
</g>
</g>
<!-- 3&#45;&gt;4 -->
<g id="edge3" class="edge">
<title>3&#45;&gt;4</title>
<path fill="none" stroke="black" d="M201.65,-267.35C189.91,-262.02 178.19,-254.22 171.39,-243 167.26,-236.17 166.47,-227.82 167.17,-219.9"/>
<polygon fill="black" stroke="black" points="170.64,-220.35 168.78,-209.92 163.73,-219.23 170.64,-220.35"/>
<text text-anchor="middle" x="223.39" y="-231.8" font-family="Times,serif" font-size="14.00">कर्तृसमानाधिकरणम्</text>
</g>
<!-- 6 -->
<g id="node7" class="node">
<title>6</title>
<g id="a_node7"><a xlink:title="अस्मद्{1;एक}">
<ellipse fill="#00bfff" stroke="#00bfff" cx="301.39" cy="-192" rx="44.69" ry="18"/>
<text text-anchor="middle" x="301.39" y="-188.3" font-family="Times,serif" font-size="14.00">अहम् (6)</text>
</a>
</g>
</g>
<!-- 3&#45;&gt;6 -->
<g id="edge6" class="edge">
<title>3&#45;&gt;6</title>
<path fill="none" stroke="black" d="M260.14,-262.52C266.93,-256.93 274.03,-250.21 279.39,-243 284.62,-235.97 288.95,-227.49 292.33,-219.54"/>
<polygon fill="black" stroke="black" points="295.59,-220.81 296,-210.22 289.08,-218.25 295.59,-220.81"/>
<text text-anchor="middle" x="300.89" y="-231.8" font-family="Times,serif" font-size="14.00">कर्ता</text>
</g>
<!-- 4&#45;&gt;1 -->
<g id="edge1" class="edge">
<title>4&#45;&gt;1</title>
<path fill="none" stroke="black" d="M140.49,-180.84C125.54,-175.19 108.45,-167.05 95.39,-156 87.58,-149.39 80.9,-140.47 75.63,-132"/>
<polygon fill="black" stroke="black" points="78.52,-130.01 70.49,-123.11 72.47,-133.52 78.52,-130.01"/>
<text text-anchor="middle" x="132.89" y="-144.8" font-family="Times,serif" font-size="14.00">सुप्समु्च्चितम्</text>
</g>
<!-- 4.1 -->
<g id="node5" class="node">
<title>4.1</title>
<g id="a_node5"><a xlink:title="(च{अव्य})">
<ellipse fill="#ff00ff" stroke="#ff00ff" cx="174.39" cy="-105" rx="48.99" ry="18"/>
<text text-anchor="middle" x="174.39" y="-101.3" font-family="Times,serif" font-size="14.00">(च) (4.1)</text>
</a>
</g>
</g>
<!-- 4&#45;&gt;4.1 -->
<g id="edge4" class="edge">
<title>4&#45;&gt;4.1</title>
<path fill="none" stroke="black" d="M174.39,-173.8C174.39,-162.16 174.39,-146.55 174.39,-133.24"/>
<polygon fill="black" stroke="black" points="177.89,-133.18 174.39,-123.18 170.89,-133.18 177.89,-133.18"/>
<text text-anchor="middle" x="216.89" y="-144.8" font-family="Times,serif" font-size="14.00">समुच्चयद्योतकः</text>
</g>
<!-- 5 -->
<g id="node6" class="node">
<title>5</title>
<g id="a_node6"><a xlink:title="तेजस्विन्{पुं}{6;बहु}">
<ellipse fill="#87ceeb" stroke="#87ceeb" cx="308.39" cy="-105" rx="66.89" ry="18"/>
<text text-anchor="middle" x="308.39" y="-101.3" font-family="Times,serif" font-size="14.00">तेजस्विनाम् (5)</text>
</a>
</g>
</g>
<!-- 4&#45;&gt;5 -->
<g id="edge5" class="edge">
<title>4&#45;&gt;5</title>
<path fill="none" stroke="black" d="M209.2,-181.47C226.44,-175.75 247.02,-167.35 263.39,-156 273.24,-149.17 282.42,-139.79 289.89,-130.99"/>
<polygon fill="black" stroke="black" points="292.65,-133.14 296.24,-123.17 287.22,-128.73 292.65,-133.14"/>
<text text-anchor="middle" x="305.39" y="-144.8" font-family="Times,serif" font-size="14.00">निर्धारणम्</text>
</g>
<!-- 7 -->
<g id="node8" class="node">
<title>7</title>
<g id="a_node8"><a xlink:title="जय{पुं}{1;एक}">
<ellipse fill="#00bfff" stroke="#00bfff" cx="407.39" cy="-192" rx="42.79" ry="18"/>
<text text-anchor="middle" x="407.39" y="-188.3" font-family="Times,serif" font-size="14.00">जयः (7)</text>
</a>
</g>
</g>
<!-- 8 -->
<g id="node9" class="node">
<title>8</title>
<g id="a_node9"><a xlink:title="अस्2{कर्तरि;लट्;उ;एक;परस्मैपदी;असँ;अदादिः}">
<ellipse fill="#ff6347" stroke="#ff6347" cx="534.39" cy="-279" rx="48.19" ry="18"/>
<text text-anchor="middle" x="534.39" y="-275.3" font-family="Times,serif" font-size="14.00">अस्मि (8)</text>
</a>
</g>
</g>
<!-- 8&#45;&gt;7 -->
<g id="edge7" class="edge">
<title>8&#45;&gt;7</title>
<path fill="none" stroke="black" d="M489.31,-272.55C467.92,-267.87 443.39,-259.17 426.39,-243 419.99,-236.9 415.72,-228.42 412.88,-220.17"/>
<polygon fill="black" stroke="black" points="416.2,-219.05 410.08,-210.4 409.47,-220.98 416.2,-219.05"/>
<text text-anchor="middle" x="478.39" y="-231.8" font-family="Times,serif" font-size="14.00">कर्तृसमानाधिकरणम्</text>
</g>
<!-- 8.1 -->
<g id="node10" class="node">
<title>8.1</title>
<g id="a_node10"><a xlink:title="(अस्मद्{1;एक})">
<ellipse fill="#00bfff" stroke="#00bfff" cx="534.39" cy="-192" rx="60.39" ry="18"/>
<text text-anchor="middle" x="534.39" y="-188.3" font-family="Times,serif" font-size="14.00">(अहम्) (8.1)</text>
</a>
</g>
</g>
<!-- 8&#45;&gt;8.1 -->
<g id="edge8" class="edge">
<title>8&#45;&gt;8.1</title>
<path fill="none" stroke="black" d="M534.39,-260.8C534.39,-249.16 534.39,-233.55 534.39,-220.24"/>
<polygon fill="black" stroke="black" points="537.89,-220.18 534.39,-210.18 530.89,-220.18 537.89,-220.18"/>
<text text-anchor="middle" x="546.89" y="-231.8" font-family="Times,serif" font-size="14.00">कर्ता</text>
</g>
<!-- 13 -->
<g id="node16" class="node">
<title>13</title>
<g id="a_node16"><a xlink:title="अस्मद्{1;एक}">
<ellipse fill="#00bfff" stroke="#00bfff" cx="663.39" cy="-192" rx="50.89" ry="18"/>
<text text-anchor="middle" x="663.39" y="-188.3" font-family="Times,serif" font-size="14.00">अहम् (13)</text>
</a>
</g>
</g>
<!-- 8&#45;&gt;13 -->
<g id="edge13" class="edge">
<title>8&#45;&gt;13</title>
<path fill="none" stroke="black" d="M557.16,-263C577.94,-249.31 608.85,-228.94 631.98,-213.7"/>
<polygon fill="black" stroke="black" points="634,-216.56 640.42,-208.14 630.15,-210.72 634,-216.56"/>
<text text-anchor="middle" x="619.89" y="-231.8" font-family="Times,serif" font-size="14.00">कर्ता</text>
</g>
<!-- 9 -->
<g id="node11" class="node">
<title>9</title>
<g id="a_node11"><a xlink:title="व्यवसाय{पुं}{1;एक}">
<ellipse fill="#00bfff" stroke="#00bfff" cx="791.39" cy="-192" rx="59.29" ry="18"/>
<text text-anchor="middle" x="791.39" y="-188.3" font-family="Times,serif" font-size="14.00">व्यवसायः (9)</text>
</a>
</g>
</g>
<!-- 10 -->
<g id="node12" class="node">
<title>10</title>
<g id="a_node12"><a xlink:title="अस्2{कर्तरि;लट्;उ;एक;परस्मैपदी;असँ;अदादिः}">
<ellipse fill="#ff6347" stroke="#ff6347" cx="856.39" cy="-279" rx="53.89" ry="18"/>
<text text-anchor="middle" x="856.39" y="-275.3" font-family="Times,serif" font-size="14.00">अस्मि (10)</text>
</a>
</g>
</g>
<!-- 10&#45;&gt;9 -->
<g id="edge9" class="edge">
<title>10&#45;&gt;9</title>
<path fill="none" stroke="black" d="M821.09,-265.17C811.19,-259.83 801.47,-252.59 795.39,-243 791.16,-236.32 789.43,-228.1 788.95,-220.26"/>
<polygon fill="black" stroke="black" points="792.46,-220 788.97,-209.99 785.46,-219.99 792.46,-220"/>
<text text-anchor="middle" x="847.39" y="-231.8" font-family="Times,serif" font-size="14.00">कर्तृसमानाधिकरणम्</text>
</g>
<!-- 11 -->
<g id="node13" class="node">
<title>11</title>
<g id="a_node13"><a xlink:title="सत्त्व{नपुं}{1;एक}">
<ellipse fill="#00bfff" stroke="#00bfff" cx="925.39" cy="-192" rx="57.39" ry="18"/>
<text text-anchor="middle" x="925.39" y="-188.3" font-family="Times,serif" font-size="14.00">सत्त्वम् (11)</text>
</a>
</g>
</g>
<!-- 10&#45;&gt;11 -->
<g id="edge10" class="edge">
<title>10&#45;&gt;11</title>
<path fill="none" stroke="black" d="M878.95,-262.47C886.05,-256.88 893.56,-250.16 899.39,-243 905.17,-235.91 910.19,-227.34 914.24,-219.31"/>
<polygon fill="black" stroke="black" points="917.41,-220.78 918.54,-210.25 911.09,-217.78 917.41,-220.78"/>
<text text-anchor="middle" x="960.39" y="-231.8" font-family="Times,serif" font-size="14.00">कर्तृसमानाधिकरणम्</text>
</g>
<!-- 11.1 -->
<g id="node14" class="node">
<title>11.1</title>
<g id="a_node14"><a xlink:title="(च{अव्य})">
<ellipse fill="#ff00ff" stroke="#ff00ff" cx="852.39" cy="-105" rx="54.69" ry="18"/>
<text text-anchor="middle" x="852.39" y="-101.3" font-family="Times,serif" font-size="14.00">(च) (11.1)</text>
</a>
</g>
</g>
<!-- 11&#45;&gt;11.1 -->
<g id="edge11" class="edge">
<title>11&#45;&gt;11.1</title>
<path fill="none" stroke="black" d="M892.95,-177.01C883.58,-171.63 874.1,-164.64 867.39,-156 862.24,-149.35 858.85,-140.95 856.63,-132.95"/>
<polygon fill="black" stroke="black" points="860.03,-132.14 854.38,-123.17 853.21,-133.7 860.03,-132.14"/>
<text text-anchor="middle" x="909.89" y="-144.8" font-family="Times,serif" font-size="14.00">समुच्चयद्योतकः</text>
</g>
<!-- 12 -->
<g id="node15" class="node">
<title>12</title>
<g id="a_node15"><a xlink:title="सत्त्ववत्{पुं}{6;बहु}">
<ellipse fill="#87ceeb" stroke="#87ceeb" cx="997.39" cy="-105" rx="72.29" ry="18"/>
<text text-anchor="middle" x="997.39" y="-101.3" font-family="Times,serif" font-size="14.00">सत्त्ववताम् (12)</text>
</a>
</g>
</g>
<!-- 11&#45;&gt;12 -->
<g id="edge12" class="edge">
<title>11&#45;&gt;12</title>
<path fill="none" stroke="black" d="M939.62,-174.21C950.17,-161.75 964.72,-144.57 976.58,-130.57"/>
<polygon fill="black" stroke="black" points="979.41,-132.65 983.2,-122.76 974.06,-128.13 979.41,-132.65"/>
<text text-anchor="middle" x="990.39" y="-144.8" font-family="Times,serif" font-size="14.00">निर्धारणम्</text>
</g>
</g>
</svg>
