<?xml version="1.0" encoding="UTF-8" standalone="no"?>
<!DOCTYPE svg PUBLIC "-//W3C//DTD SVG 1.1//EN"
 "http://www.w3.org/Graphics/SVG/1.1/DTD/svg11.dtd">
<!-- Generated by graphviz version 2.43.0 (0)
 -->
<!-- Title: %3 Pages: 1 -->
<svg width="1036pt" height="305pt"
 viewBox="0.00 0.00 1036.49 305.00" xmlns="http://www.w3.org/2000/svg" xmlns:xlink="http://www.w3.org/1999/xlink">
<g id="graph0" class="graph" transform="scale(1 1) rotate(0) translate(4 301)">
<title>%3</title>
<polygon fill="#fffacd" stroke="transparent" points="-4,4 -4,-301 1032.49,-301 1032.49,4 -4,4"/>
<!-- 1 -->
<g id="node1" class="node">
<title>1</title>
<g id="a_node1"><a xlink:title="एवम्{अव्य}">
<ellipse fill="#ff00ff" stroke="#ff00ff" cx="44.2" cy="-105" rx="42.79" ry="18"/>
<text text-anchor="middle" x="44.2" y="-101.3" font-family="Times,serif" font-size="14.00">एवम् (1)</text>
</a>
</g>
</g>
<!-- 2 -->
<g id="node2" class="node">
<title>2</title>
<g id="a_node2"><a xlink:title="एतद्{नपुं}{2;एक}">
<ellipse fill="#7cfc00" stroke="#7cfc00" cx="44.2" cy="-192" rx="44.39" ry="18"/>
<text text-anchor="middle" x="44.2" y="-188.3" font-family="Times,serif" font-size="14.00">एतत् (2)</text>
</a>
</g>
</g>
<!-- 2&#45;&gt;1 -->
<g id="edge1" class="edge">
<title>2&#45;&gt;1</title>
<path fill="none" stroke="black" d="M44.2,-173.8C44.2,-162.16 44.2,-146.55 44.2,-133.24"/>
<polygon fill="black" stroke="black" points="47.7,-133.18 44.2,-123.18 40.7,-133.18 47.7,-133.18"/>
<text text-anchor="middle" x="69.7" y="-144.8" font-family="Times,serif" font-size="14.00">विशेषणम्</text>
</g>
<!-- 3 -->
<g id="node3" class="node">
<title>3</title>
<g id="a_node3"><a xlink:title="यथा{अव्य}">
<ellipse fill="#ff00ff" stroke="#ff00ff" cx="171.2" cy="-192" rx="41.69" ry="18"/>
<text text-anchor="middle" x="171.2" y="-188.3" font-family="Times,serif" font-size="14.00">यथा (3)</text>
</a>
</g>
</g>
<!-- 4 -->
<g id="node4" class="node">
<title>4</title>
<g id="a_node4"><a xlink:title="ब्रू1{कर्तरि;लट्;म;एक;परस्मैपदी;ब्रूञ्;अदादिः}">
<ellipse fill="#ff6347" stroke="#ff6347" cx="279.2" cy="-279" rx="46.29" ry="18"/>
<text text-anchor="middle" x="279.2" y="-275.3" font-family="Times,serif" font-size="14.00">आत्थ (4)</text>
</a>
</g>
</g>
<!-- 4&#45;&gt;2 -->
<g id="edge2" class="edge">
<title>4&#45;&gt;2</title>
<path fill="none" stroke="black" d="M234.05,-275.01C180.91,-270.72 96.66,-261.22 71.2,-243 63.07,-237.18 57.14,-228.13 52.95,-219.33"/>
<polygon fill="black" stroke="black" points="56.15,-217.9 49.06,-210.03 49.69,-220.6 56.15,-217.9"/>
<text text-anchor="middle" x="123.2" y="-231.8" font-family="Times,serif" font-size="14.00">कर्मसमानाधिकरणम्</text>
</g>
<!-- 4&#45;&gt;3 -->
<g id="edge3" class="edge">
<title>4&#45;&gt;3</title>
<path fill="none" stroke="black" d="M238.14,-270.35C220.74,-265.22 201.45,-256.79 188.2,-243 182.14,-236.7 178.24,-228.17 175.73,-219.93"/>
<polygon fill="black" stroke="black" points="179.12,-219.06 173.3,-210.21 172.33,-220.76 179.12,-219.06"/>
<text text-anchor="middle" x="230.7" y="-231.8" font-family="Times,serif" font-size="14.00">क्रियाविशेषणम्</text>
</g>
<!-- 5 -->
<g id="node5" class="node">
<title>5</title>
<g id="a_node5"><a xlink:title="युष्मद्{1;एक}">
<ellipse fill="#00bfff" stroke="#00bfff" cx="275.2" cy="-192" rx="40.89" ry="18"/>
<text text-anchor="middle" x="275.2" y="-188.3" font-family="Times,serif" font-size="14.00">त्वम् (5)</text>
</a>
</g>
</g>
<!-- 4&#45;&gt;5 -->
<g id="edge4" class="edge">
<title>4&#45;&gt;5</title>
<path fill="none" stroke="black" d="M278.39,-260.8C277.84,-249.16 277.1,-233.55 276.48,-220.24"/>
<polygon fill="black" stroke="black" points="279.97,-220 276,-210.18 272.98,-220.33 279.97,-220"/>
<text text-anchor="middle" x="290.7" y="-231.8" font-family="Times,serif" font-size="14.00">कर्ता</text>
</g>
<!-- 6 -->
<g id="node6" class="node">
<title>6</title>
<g id="a_node6"><a xlink:title="आत्मन्{पुं}{2;एक}">
<ellipse fill="#7cfc00" stroke="#7cfc00" cx="393.2" cy="-192" rx="59.29" ry="18"/>
<text text-anchor="middle" x="393.2" y="-188.3" font-family="Times,serif" font-size="14.00">आत्मानम् (6)</text>
</a>
</g>
</g>
<!-- 4&#45;&gt;6 -->
<g id="edge5" class="edge">
<title>4&#45;&gt;6</title>
<path fill="none" stroke="black" d="M299.58,-262.8C317.4,-249.52 343.5,-230.06 363.62,-215.05"/>
<polygon fill="black" stroke="black" points="365.91,-217.71 371.83,-208.93 361.72,-212.1 365.91,-217.71"/>
<text text-anchor="middle" x="353.2" y="-231.8" font-family="Times,serif" font-size="14.00">कर्म</text>
</g>
<!-- 7 -->
<g id="node7" class="node">
<title>7</title>
<g id="a_node7"><a xlink:title="परमेश्वर{पुं}{8;एक}">
<ellipse fill="#7fffd4" stroke="#7fffd4" cx="534.2" cy="-192" rx="63.89" ry="18"/>
<text text-anchor="middle" x="534.2" y="-188.3" font-family="Times,serif" font-size="14.00">परम&#45;ईश्वर (7)</text>
</a>
</g>
</g>
<!-- 4&#45;&gt;7 -->
<g id="edge6" class="edge">
<title>4&#45;&gt;7</title>
<path fill="none" stroke="black" d="M313.06,-266.71C357.13,-252.02 434.47,-226.24 485.01,-209.39"/>
<polygon fill="black" stroke="black" points="486.37,-212.63 494.75,-206.15 484.15,-205.99 486.37,-212.63"/>
<text text-anchor="middle" x="447.7" y="-231.8" font-family="Times,serif" font-size="14.00">सम्बोध्यः</text>
</g>
<!-- 8 -->
<g id="node8" class="node">
<title>8</title>
<g id="a_node8"><a xlink:title="दृश्1{अव्य;तुमुन्;दृशिँर्;:भ्वादिः}">
<ellipse fill="#ff00ff" stroke="#ff00ff" cx="668.2" cy="-192" rx="51.99" ry="18"/>
<text text-anchor="middle" x="668.2" y="-188.3" font-family="Times,serif" font-size="14.00">द्रष्टुम् (8)</text>
</a>
</g>
</g>
<!-- 11 -->
<g id="node11" class="node">
<title>11</title>
<g id="a_node11"><a xlink:title="रूप{नपुं}{2;एक}">
<ellipse fill="#7cfc00" stroke="#7cfc00" cx="668.2" cy="-105" rx="50.09" ry="18"/>
<text text-anchor="middle" x="668.2" y="-101.3" font-family="Times,serif" font-size="14.00">रूपम् (11)</text>
</a>
</g>
</g>
<!-- 8&#45;&gt;11 -->
<g id="edge9" class="edge">
<title>8&#45;&gt;11</title>
<path fill="none" stroke="black" d="M668.2,-173.8C668.2,-162.16 668.2,-146.55 668.2,-133.24"/>
<polygon fill="black" stroke="black" points="671.7,-133.18 668.2,-123.18 664.7,-133.18 671.7,-133.18"/>
<text text-anchor="middle" x="678.2" y="-144.8" font-family="Times,serif" font-size="14.00">कर्म</text>
</g>
<!-- 9 -->
<g id="node9" class="node">
<title>9</title>
<g id="a_node9"><a xlink:title="इष्2{कर्तरि;लट्;उ;एक;परस्मैपदी;इषुँ;तुदादिः}">
<ellipse fill="#ff6347" stroke="#ff6347" cx="808.2" cy="-279" rx="55.79" ry="18"/>
<text text-anchor="middle" x="808.2" y="-275.3" font-family="Times,serif" font-size="14.00">इच्छामि (9)</text>
</a>
</g>
</g>
<!-- 9&#45;&gt;8 -->
<g id="edge7" class="edge">
<title>9&#45;&gt;8</title>
<path fill="none" stroke="black" d="M783.17,-262.8C760.47,-249.02 726.84,-228.6 701.81,-213.41"/>
<polygon fill="black" stroke="black" points="703.37,-210.26 693.01,-208.06 699.74,-216.25 703.37,-210.26"/>
<text text-anchor="middle" x="757.2" y="-231.8" font-family="Times,serif" font-size="14.00">कर्म</text>
</g>
<!-- 13 -->
<g id="node13" class="node">
<title>13</title>
<g id="a_node13"><a xlink:title="पुरुषोत्तम{पुं}{8;एक}">
<ellipse fill="#7fffd4" stroke="#7fffd4" cx="808.2" cy="-192" rx="69.59" ry="18"/>
<text text-anchor="middle" x="808.2" y="-188.3" font-family="Times,serif" font-size="14.00">पुरुष&#45;उत्तम (13)</text>
</a>
</g>
</g>
<!-- 9&#45;&gt;13 -->
<g id="edge11" class="edge">
<title>9&#45;&gt;13</title>
<path fill="none" stroke="black" d="M808.2,-260.8C808.2,-249.16 808.2,-233.55 808.2,-220.24"/>
<polygon fill="black" stroke="black" points="811.7,-220.18 808.2,-210.18 804.7,-220.18 811.7,-220.18"/>
<text text-anchor="middle" x="833.7" y="-231.8" font-family="Times,serif" font-size="14.00">सम्बोध्यः</text>
</g>
<!-- 13.1 -->
<g id="node14" class="node">
<title>13.1</title>
<g id="a_node14"><a xlink:title="अष्मद्{1;एक}">
<ellipse fill="#00bfff" stroke="#00bfff" cx="962.2" cy="-192" rx="66.09" ry="18"/>
<text text-anchor="middle" x="962.2" y="-188.3" font-family="Times,serif" font-size="14.00">(अहम्) (13.1)</text>
</a>
</g>
</g>
<!-- 9&#45;&gt;13.1 -->
<g id="edge12" class="edge">
<title>9&#45;&gt;13.1</title>
<path fill="none" stroke="black" d="M835.02,-263.19C860.03,-249.39 897.54,-228.69 925.35,-213.34"/>
<polygon fill="black" stroke="black" points="927.32,-216.25 934.38,-208.35 923.93,-210.12 927.32,-216.25"/>
<text text-anchor="middle" x="906.7" y="-231.8" font-family="Times,serif" font-size="14.00">कर्ता</text>
</g>
<!-- 10 -->
<g id="node10" class="node">
<title>10</title>
<g id="a_node10"><a xlink:title="युष्मद्{6;एक}">
<ellipse fill="#87ceeb" stroke="#87ceeb" cx="611.2" cy="-18" rx="38.19" ry="18"/>
<text text-anchor="middle" x="611.2" y="-14.3" font-family="Times,serif" font-size="14.00">ते (10)</text>
</a>
</g>
</g>
<!-- 11&#45;&gt;10 -->
<g id="edge8" class="edge">
<title>11&#45;&gt;10</title>
<path fill="none" stroke="black" d="M648.49,-88.3C642.36,-82.7 635.97,-76.02 631.2,-69 626.39,-61.93 622.47,-53.54 619.41,-45.66"/>
<polygon fill="black" stroke="black" points="622.66,-44.35 616,-36.11 616.07,-46.7 622.66,-44.35"/>
<text text-anchor="middle" x="667.2" y="-57.8" font-family="Times,serif" font-size="14.00">षष्ठीसम्बन्धः</text>
</g>
<!-- 12 -->
<g id="node12" class="node">
<title>12</title>
<g id="a_node12"><a xlink:title="ऐश्वर{नपुं}{2;एक}">
<ellipse fill="#7cfc00" stroke="#7cfc00" cx="725.2" cy="-18" rx="57.69" ry="18"/>
<text text-anchor="middle" x="725.2" y="-14.3" font-family="Times,serif" font-size="14.00">ऐश्वरम् (12)</text>
</a>
</g>
</g>
<!-- 11&#45;&gt;12 -->
<g id="edge10" class="edge">
<title>11&#45;&gt;12</title>
<path fill="none" stroke="black" d="M686.66,-88.05C692.45,-82.43 698.54,-75.81 703.2,-69 708.09,-61.85 712.29,-53.43 715.68,-45.56"/>
<polygon fill="black" stroke="black" points="719.03,-46.6 719.51,-36.02 712.53,-43.99 719.03,-46.6"/>
<text text-anchor="middle" x="737.7" y="-57.8" font-family="Times,serif" font-size="14.00">विशेषणम्</text>
</g>
</g>
</svg>
