<?xml version="1.0" encoding="UTF-8" standalone="no"?>
<!DOCTYPE svg PUBLIC "-//W3C//DTD SVG 1.1//EN"
 "http://www.w3.org/Graphics/SVG/1.1/DTD/svg11.dtd">
<!-- Generated by graphviz version 2.43.0 (0)
 -->
<!-- Title: %3 Pages: 1 -->
<svg width="885pt" height="305pt"
 viewBox="0.00 0.00 885.14 305.00" xmlns="http://www.w3.org/2000/svg" xmlns:xlink="http://www.w3.org/1999/xlink">
<g id="graph0" class="graph" transform="scale(1 1) rotate(0) translate(4 301)">
<title>%3</title>
<polygon fill="#fffacd" stroke="transparent" points="-4,4 -4,-301 881.14,-301 881.14,4 -4,4"/>
<!-- 1 -->
<g id="node1" class="node">
<title>1</title>
<g id="a_node1"><a xlink:title="भव&#45;अप्यय{पुं}{2;द्वि}">
<ellipse fill="#7cfc00" stroke="#7cfc00" cx="88.45" cy="-192" rx="66.89" ry="18"/>
<text text-anchor="middle" x="88.45" y="-188.3" font-family="Times,serif" font-size="14.00">भव&#45;अप्ययौ (1)</text>
</a>
</g>
</g>
<!-- 2 -->
<g id="node2" class="node">
<title>2</title>
<g id="a_node2"><a xlink:title="हि{अव्य}">
<ellipse fill="#ff00ff" stroke="#ff00ff" cx="34.45" cy="-105" rx="34.39" ry="18"/>
<text text-anchor="middle" x="34.45" y="-101.3" font-family="Times,serif" font-size="14.00">हि (2)</text>
</a>
</g>
</g>
<!-- 1&#45;&gt;2 -->
<g id="edge2" class="edge">
<title>1&#45;&gt;2</title>
<path fill="none" stroke="black" d="M77.78,-174.21C69.91,-161.82 59.08,-144.78 50.22,-130.82"/>
<polygon fill="black" stroke="black" points="53.04,-128.75 44.73,-122.18 47.14,-132.5 53.04,-128.75"/>
<text text-anchor="middle" x="88.45" y="-144.8" font-family="Times,serif" font-size="14.00">सम्बन्धः</text>
</g>
<!-- 3 -->
<g id="node3" class="node">
<title>3</title>
<g id="a_node3"><a xlink:title="भूत{पुं}{6;बहु}">
<ellipse fill="#87ceeb" stroke="#87ceeb" cx="142.45" cy="-105" rx="55.79" ry="18"/>
<text text-anchor="middle" x="142.45" y="-101.3" font-family="Times,serif" font-size="14.00">भूतानाम् (3)</text>
</a>
</g>
</g>
<!-- 1&#45;&gt;3 -->
<g id="edge3" class="edge">
<title>1&#45;&gt;3</title>
<path fill="none" stroke="black" d="M102.2,-174.31C106.63,-168.64 111.43,-162.18 115.45,-156 120.34,-148.47 125.16,-139.98 129.35,-132.16"/>
<polygon fill="black" stroke="black" points="132.58,-133.54 134.11,-123.06 126.37,-130.3 132.58,-133.54"/>
<text text-anchor="middle" x="160.45" y="-144.8" font-family="Times,serif" font-size="14.00">षष्ठीसम्बन्धः</text>
</g>
<!-- 4 -->
<g id="node4" class="node">
<title>4</title>
<g id="a_node4"><a xlink:title="श्रु1{कृत्_प्रत्ययः:क्त;श्रु;भ्वादिः;पुं}{1;द्वि}">
<ellipse fill="#00bfff" stroke="#00bfff" cx="351.45" cy="-279" rx="48.19" ry="18"/>
<text text-anchor="middle" x="351.45" y="-275.3" font-family="Times,serif" font-size="14.00">श्रुतौ (4)</text>
</a>
</g>
</g>
<!-- 4&#45;&gt;1 -->
<g id="edge1" class="edge">
<title>4&#45;&gt;1</title>
<path fill="none" stroke="black" d="M312.93,-268.01C288.1,-261.38 255.2,-252.22 226.45,-243 195.54,-233.09 161.23,-220.67 134.55,-210.68"/>
<polygon fill="black" stroke="black" points="135.68,-207.37 125.09,-207.12 133.22,-213.92 135.68,-207.37"/>
<text text-anchor="middle" x="236.45" y="-231.8" font-family="Times,serif" font-size="14.00">कर्म</text>
</g>
<!-- 5 -->
<g id="node5" class="node">
<title>5</title>
<g id="a_node5"><a xlink:title="विस्तरशः{अव्य}">
<ellipse fill="#ff00ff" stroke="#ff00ff" cx="233.45" cy="-192" rx="59.59" ry="18"/>
<text text-anchor="middle" x="233.45" y="-188.3" font-family="Times,serif" font-size="14.00">विस्तरशः (5)</text>
</a>
</g>
</g>
<!-- 4&#45;&gt;5 -->
<g id="edge4" class="edge">
<title>4&#45;&gt;5</title>
<path fill="none" stroke="black" d="M311.59,-268.6C295.01,-263.19 276.42,-255.01 262.45,-243 255.04,-236.63 249.07,-227.88 244.52,-219.47"/>
<polygon fill="black" stroke="black" points="247.54,-217.69 239.98,-210.27 241.27,-220.79 247.54,-217.69"/>
<text text-anchor="middle" x="304.95" y="-231.8" font-family="Times,serif" font-size="14.00">क्रियाविशेषणम्</text>
</g>
<!-- 6 -->
<g id="node6" class="node">
<title>6</title>
<g id="a_node6"><a xlink:title="अस्मद्{3;एक}">
<ellipse fill="#40e0d0" stroke="#40e0d0" cx="351.45" cy="-192" rx="40.09" ry="18"/>
<text text-anchor="middle" x="351.45" y="-188.3" font-family="Times,serif" font-size="14.00">मया (6)</text>
</a>
</g>
</g>
<!-- 4&#45;&gt;6 -->
<g id="edge5" class="edge">
<title>4&#45;&gt;6</title>
<path fill="none" stroke="black" d="M351.45,-260.8C351.45,-249.16 351.45,-233.55 351.45,-220.24"/>
<polygon fill="black" stroke="black" points="354.95,-220.18 351.45,-210.18 347.95,-220.18 354.95,-220.18"/>
<text text-anchor="middle" x="363.95" y="-231.8" font-family="Times,serif" font-size="14.00">कर्ता</text>
</g>
<!-- 7 -->
<g id="node7" class="node">
<title>7</title>
<g id="a_node7"><a xlink:title="त्वत्तः{अव्य}">
<ellipse fill="#ff00ff" stroke="#ff00ff" cx="455.45" cy="-192" rx="46.29" ry="18"/>
<text text-anchor="middle" x="455.45" y="-188.3" font-family="Times,serif" font-size="14.00">त्वत्तः (7)</text>
</a>
</g>
</g>
<!-- 4&#45;&gt;7 -->
<g id="edge6" class="edge">
<title>4&#45;&gt;7</title>
<path fill="none" stroke="black" d="M370.52,-262.41C386.79,-249.11 410.38,-229.84 428.56,-214.97"/>
<polygon fill="black" stroke="black" points="430.96,-217.53 436.49,-208.49 426.53,-212.11 430.96,-217.53"/>
<text text-anchor="middle" x="436.95" y="-231.8" font-family="Times,serif" font-size="14.00">अपादानम्</text>
</g>
<!-- 8 -->
<g id="node8" class="node">
<title>8</title>
<g id="a_node8"><a xlink:title="कमल&#45;पत्र&#45;अक्ष{पुं}{8;एक}">
<ellipse fill="#7fffd4" stroke="#7fffd4" cx="601.45" cy="-192" rx="81.79" ry="18"/>
<text text-anchor="middle" x="601.45" y="-188.3" font-family="Times,serif" font-size="14.00">कमल&#45;पत्र&#45;अक्ष (8)</text>
</a>
</g>
</g>
<!-- 4&#45;&gt;8 -->
<g id="edge7" class="edge">
<title>4&#45;&gt;8</title>
<path fill="none" stroke="black" d="M388.47,-267.49C411.34,-260.83 441.23,-251.83 467.45,-243 496.34,-233.26 528.35,-221.36 553.84,-211.61"/>
<polygon fill="black" stroke="black" points="555.19,-214.84 563.27,-207.99 552.68,-208.31 555.19,-214.84"/>
<text text-anchor="middle" x="533.95" y="-231.8" font-family="Times,serif" font-size="14.00">सम्बोध्यः</text>
</g>
<!-- 9 -->
<g id="node9" class="node">
<title>9</title>
<g id="a_node9"><a xlink:title="माहात्म्य{नपुं}{2;एक}">
<ellipse fill="#7cfc00" stroke="#7cfc00" cx="763.45" cy="-192" rx="62.29" ry="18"/>
<text text-anchor="middle" x="763.45" y="-188.3" font-family="Times,serif" font-size="14.00">माहात्म्यम् (9)</text>
</a>
</g>
</g>
<!-- 10 -->
<g id="node10" class="node">
<title>10</title>
<g id="a_node10"><a xlink:title="अपि{अव्य}">
<ellipse fill="#ff00ff" stroke="#ff00ff" cx="683.45" cy="-105" rx="48.19" ry="18"/>
<text text-anchor="middle" x="683.45" y="-101.3" font-family="Times,serif" font-size="14.00">अपि (10)</text>
</a>
</g>
</g>
<!-- 9&#45;&gt;10 -->
<g id="edge9" class="edge">
<title>9&#45;&gt;10</title>
<path fill="none" stroke="black" d="M747.64,-174.21C735.65,-161.47 719.02,-143.8 705.69,-129.64"/>
<polygon fill="black" stroke="black" points="708.08,-127.06 698.68,-122.18 702.98,-131.86 708.08,-127.06"/>
<text text-anchor="middle" x="751.45" y="-144.8" font-family="Times,serif" font-size="14.00">सम्बन्धः</text>
</g>
<!-- 12 -->
<g id="node12" class="node">
<title>12</title>
<g id="a_node12"><a xlink:title="अव्यय{पुं}{2;एक}">
<ellipse fill="#7cfc00" stroke="#7cfc00" cx="813.45" cy="-105" rx="63.89" ry="18"/>
<text text-anchor="middle" x="813.45" y="-101.3" font-family="Times,serif" font-size="14.00">अ&#45;व्ययम् (12)</text>
</a>
</g>
</g>
<!-- 9&#45;&gt;12 -->
<g id="edge11" class="edge">
<title>9&#45;&gt;12</title>
<path fill="none" stroke="black" d="M773.33,-174.21C780.4,-162.18 790.07,-145.75 798.14,-132.03"/>
<polygon fill="black" stroke="black" points="801.36,-133.44 803.42,-123.05 795.33,-129.89 801.36,-133.44"/>
<text text-anchor="middle" x="816.95" y="-144.8" font-family="Times,serif" font-size="14.00">विशेषणम्</text>
</g>
<!-- 11 -->
<g id="node11" class="node">
<title>11</title>
<g id="a_node11"><a xlink:title="च{अव्य}">
<ellipse fill="#ff00ff" stroke="#ff00ff" cx="683.45" cy="-18" rx="38.99" ry="18"/>
<text text-anchor="middle" x="683.45" y="-14.3" font-family="Times,serif" font-size="14.00">च (11)</text>
</a>
</g>
</g>
<!-- 10&#45;&gt;11 -->
<g id="edge10" class="edge">
<title>10&#45;&gt;11</title>
<path fill="none" stroke="black" d="M683.45,-86.8C683.45,-75.16 683.45,-59.55 683.45,-46.24"/>
<polygon fill="black" stroke="black" points="686.95,-46.18 683.45,-36.18 679.95,-46.18 686.95,-46.18"/>
<text text-anchor="middle" x="706.45" y="-57.8" font-family="Times,serif" font-size="14.00">सम्बन्धः</text>
</g>
<!-- 12.1 -->
<g id="node13" class="node">
<title>12.1</title>
<g id="a_node13"><a xlink:title="श्रु1{कृत्_प्रत्ययः:क्त;श्रु;भ्वादिः;नपुं}{1;एक}">
<ellipse fill="#00bfff" stroke="#00bfff" cx="763.45" cy="-279" rx="72.29" ry="18"/>
<text text-anchor="middle" x="763.45" y="-275.3" font-family="Times,serif" font-size="14.00">(श्रुतम्) (12.1)</text>
</a>
</g>
</g>
<!-- 12.1&#45;&gt;9 -->
<g id="edge8" class="edge">
<title>12.1&#45;&gt;9</title>
<path fill="none" stroke="black" d="M763.45,-260.8C763.45,-249.16 763.45,-233.55 763.45,-220.24"/>
<polygon fill="black" stroke="black" points="766.95,-220.18 763.45,-210.18 759.95,-220.18 766.95,-220.18"/>
<text text-anchor="middle" x="773.45" y="-231.8" font-family="Times,serif" font-size="14.00">कर्म</text>
</g>
</g>
</svg>
