<?xml version="1.0" encoding="UTF-8" standalone="no"?>
<!DOCTYPE svg PUBLIC "-//W3C//DTD SVG 1.1//EN"
 "http://www.w3.org/Graphics/SVG/1.1/DTD/svg11.dtd">
<!-- Generated by graphviz version 2.43.0 (0)
 -->
<!-- Title: %3 Pages: 1 -->
<svg width="2787pt" height="218pt"
 viewBox="0.00 0.00 2787.29 218.00" xmlns="http://www.w3.org/2000/svg" xmlns:xlink="http://www.w3.org/1999/xlink">
<g id="graph0" class="graph" transform="scale(1 1) rotate(0) translate(4 214)">
<title>%3</title>
<polygon fill="#fffacd" stroke="transparent" points="-4,4 -4,-214 2783.29,-214 2783.29,4 -4,4"/>
<!-- 1 -->
<g id="node1" class="node">
<title>1</title>
<g id="a_node1"><a xlink:title="एवम्{अव्य}">
<ellipse fill="#ff00ff" stroke="#ff00ff" cx="48.1" cy="-18" rx="42.79" ry="18"/>
<text text-anchor="middle" x="48.1" y="-14.3" font-family="Times,serif" font-size="14.00">एवम् (1)</text>
</a>
</g>
</g>
<!-- 2 -->
<g id="node2" class="node">
<title>2</title>
<g id="a_node2"><a xlink:title="वच्1{कृत्_प्रत्ययः:क्त्वा;वचँ;अदादिः}">
<ellipse fill="#808080" stroke="#808080" cx="48.1" cy="-105" rx="48.19" ry="18"/>
<text text-anchor="middle" x="48.1" y="-101.3" font-family="Times,serif" font-size="14.00">उक्त्वा (2)</text>
</a>
</g>
</g>
<!-- 2&#45;&gt;1 -->
<g id="edge1" class="edge">
<title>2&#45;&gt;1</title>
<path fill="none" stroke="black" d="M48.1,-86.8C48.1,-75.16 48.1,-59.55 48.1,-46.24"/>
<polygon fill="black" stroke="black" points="51.6,-46.18 48.1,-36.18 44.6,-46.18 51.6,-46.18"/>
<text text-anchor="middle" x="90.6" y="-57.8" font-family="Times,serif" font-size="14.00">क्रियाविशेषणम्</text>
</g>
<!-- 3 -->
<g id="node3" class="node">
<title>3</title>
<g id="a_node3"><a xlink:title="ततः{अव्य}">
<ellipse fill="#ff00ff" stroke="#ff00ff" cx="156.1" cy="-105" rx="41.69" ry="18"/>
<text text-anchor="middle" x="156.1" y="-101.3" font-family="Times,serif" font-size="14.00">ततः (3)</text>
</a>
</g>
</g>
<!-- 4 -->
<g id="node4" class="node">
<title>4</title>
<g id="a_node4"><a xlink:title="राजन्{पुं}{8;एक}">
<ellipse fill="#7fffd4" stroke="#7fffd4" cx="261.1" cy="-105" rx="45.49" ry="18"/>
<text text-anchor="middle" x="261.1" y="-101.3" font-family="Times,serif" font-size="14.00">राजन् (4)</text>
</a>
</g>
</g>
<!-- 5 -->
<g id="node5" class="node">
<title>5</title>
<g id="a_node5"><a xlink:title="महद्&#45;योगेश्वर{पुं}{1;एक}">
<ellipse fill="#00bfff" stroke="#00bfff" cx="280.1" cy="-18" rx="87.18" ry="18"/>
<text text-anchor="middle" x="280.1" y="-14.3" font-family="Times,serif" font-size="14.00">महत्&#45;योग&#45;ईश्वरः (5)</text>
</a>
</g>
</g>
<!-- 6 -->
<g id="node6" class="node">
<title>6</title>
<g id="a_node6"><a xlink:title="हरि{पुं}{1;एक}">
<ellipse fill="#00bfff" stroke="#00bfff" cx="365.1" cy="-105" rx="40.89" ry="18"/>
<text text-anchor="middle" x="365.1" y="-101.3" font-family="Times,serif" font-size="14.00">हरिः (6)</text>
</a>
</g>
</g>
<!-- 6&#45;&gt;5 -->
<g id="edge5" class="edge">
<title>6&#45;&gt;5</title>
<path fill="none" stroke="black" d="M349.11,-88.01C336.41,-75.32 318.46,-57.37 304.05,-42.96"/>
<polygon fill="black" stroke="black" points="306.43,-40.38 296.88,-35.79 301.48,-45.33 306.43,-40.38"/>
<text text-anchor="middle" x="353.6" y="-57.8" font-family="Times,serif" font-size="14.00">विशेषणम्</text>
</g>
<!-- 7 -->
<g id="node7" class="node">
<title>7</title>
<g id="a_node7"><a xlink:title="दृश्1_णिच्{कर्तरि;लिट्;प्र;एक;परस्मैपदी;दृशिँर्_णिच्;भ्वादिः}">
<ellipse fill="#ff6347" stroke="#ff6347" cx="306.1" cy="-192" rx="62.29" ry="18"/>
<text text-anchor="middle" x="306.1" y="-188.3" font-family="Times,serif" font-size="14.00">दर्शयामास (7)</text>
</a>
</g>
</g>
<!-- 7&#45;&gt;2 -->
<g id="edge2" class="edge">
<title>7&#45;&gt;2</title>
<path fill="none" stroke="black" d="M252.17,-182.76C220.68,-177.08 180.5,-168.31 146.1,-156 123.63,-147.96 99.76,-135.87 81.2,-125.59"/>
<polygon fill="black" stroke="black" points="82.71,-122.42 72.28,-120.56 79.28,-128.52 82.71,-122.42"/>
<text text-anchor="middle" x="170.6" y="-144.8" font-family="Times,serif" font-size="14.00">पूर्वकालः</text>
</g>
<!-- 7&#45;&gt;3 -->
<g id="edge3" class="edge">
<title>7&#45;&gt;3</title>
<path fill="none" stroke="black" d="M267.84,-177.74C252.84,-171.91 235.75,-164.45 221.1,-156 207.3,-148.04 193.15,-137.5 181.59,-128.14"/>
<polygon fill="black" stroke="black" points="183.61,-125.27 173.67,-121.59 179.15,-130.66 183.61,-125.27"/>
<text text-anchor="middle" x="244.1" y="-144.8" font-family="Times,serif" font-size="14.00">सम्बन्धः</text>
</g>
<!-- 7&#45;&gt;4 -->
<g id="edge4" class="edge">
<title>7&#45;&gt;4</title>
<path fill="none" stroke="black" d="M290.23,-174.51C285.51,-168.95 280.66,-162.51 277.1,-156 273.2,-148.88 270.08,-140.67 267.67,-132.99"/>
<polygon fill="black" stroke="black" points="271.02,-131.97 264.89,-123.32 264.29,-133.9 271.02,-131.97"/>
<text text-anchor="middle" x="303.1" y="-144.8" font-family="Times,serif" font-size="14.00">सम्भोध्यः</text>
</g>
<!-- 7&#45;&gt;6 -->
<g id="edge6" class="edge">
<title>7&#45;&gt;6</title>
<path fill="none" stroke="black" d="M317.75,-174.21C326.37,-161.79 338.25,-144.67 347.95,-130.7"/>
<polygon fill="black" stroke="black" points="350.84,-132.68 353.66,-122.47 345.09,-128.69 350.84,-132.68"/>
<text text-anchor="middle" x="375.6" y="-144.8" font-family="Times,serif" font-size="14.00">प्रयोजककर्ता</text>
</g>
<!-- 8 -->
<g id="node8" class="node">
<title>8</title>
<g id="a_node8"><a xlink:title="पार्थ{पुं}{4;एक}">
<ellipse fill="#87cefa" stroke="#87cefa" cx="473.1" cy="-105" rx="49.29" ry="18"/>
<text text-anchor="middle" x="473.1" y="-101.3" font-family="Times,serif" font-size="14.00">पार्थाय (8)</text>
</a>
</g>
</g>
<!-- 7&#45;&gt;8 -->
<g id="edge7" class="edge">
<title>7&#45;&gt;8</title>
<path fill="none" stroke="black" d="M353.68,-180.19C373.43,-174.59 396.11,-166.64 415.1,-156 427.85,-148.85 440.35,-138.62 450.46,-129.27"/>
<polygon fill="black" stroke="black" points="452.88,-131.8 457.69,-122.36 448.04,-126.74 452.88,-131.8"/>
<text text-anchor="middle" x="463.6" y="-144.8" font-family="Times,serif" font-size="14.00">प्रयोजनम्</text>
</g>
<!-- 10 -->
<g id="node10" class="node">
<title>10</title>
<g id="a_node10"><a xlink:title="रूप{नपुं}{2;एक}">
<ellipse fill="#7cfc00" stroke="#7cfc00" cx="1501.1" cy="-105" rx="50.09" ry="18"/>
<text text-anchor="middle" x="1501.1" y="-101.3" font-family="Times,serif" font-size="14.00">रूपम् (10)</text>
</a>
</g>
</g>
<!-- 7&#45;&gt;10 -->
<g id="edge9" class="edge">
<title>7&#45;&gt;10</title>
<path fill="none" stroke="black" d="M366.17,-186.73C570.86,-172.17 1239.52,-124.61 1442.28,-110.18"/>
<polygon fill="black" stroke="black" points="1442.71,-113.66 1452.43,-109.46 1442.21,-106.68 1442.71,-113.66"/>
<text text-anchor="middle" x="986.1" y="-144.8" font-family="Times,serif" font-size="14.00">कर्म</text>
</g>
<!-- 9 -->
<g id="node9" class="node">
<title>9</title>
<g id="a_node9"><a xlink:title="परम{नपुं}{2;एक}">
<ellipse fill="#7cfc00" stroke="#7cfc00" cx="433.1" cy="-18" rx="47.39" ry="18"/>
<text text-anchor="middle" x="433.1" y="-14.3" font-family="Times,serif" font-size="14.00">परमम् (9)</text>
</a>
</g>
</g>
<!-- 10&#45;&gt;9 -->
<g id="edge8" class="edge">
<title>10&#45;&gt;9</title>
<path fill="none" stroke="black" d="M1450.92,-103.97C1323.13,-103.43 975.15,-99.08 687.1,-69 598.36,-59.73 575.96,-56.33 489.1,-36 485.31,-35.11 481.4,-34.11 477.5,-33.05"/>
<polygon fill="black" stroke="black" points="478.43,-29.68 467.86,-30.31 476.52,-36.41 478.43,-29.68"/>
<text text-anchor="middle" x="712.6" y="-57.8" font-family="Times,serif" font-size="14.00">विशेषणम्</text>
</g>
<!-- 11 -->
<g id="node11" class="node">
<title>11</title>
<g id="a_node11"><a xlink:title="ऐश्वर{पुं}{2;एक}">
<ellipse fill="#7cfc00" stroke="#7cfc00" cx="556.1" cy="-18" rx="57.69" ry="18"/>
<text text-anchor="middle" x="556.1" y="-14.3" font-family="Times,serif" font-size="14.00">ऐश्वरम् (11)</text>
</a>
</g>
</g>
<!-- 10&#45;&gt;11 -->
<g id="edge10" class="edge">
<title>10&#45;&gt;11</title>
<path fill="none" stroke="black" d="M1451.18,-103.44C1316.51,-101.24 934.88,-90.27 623.1,-36 618.05,-35.12 612.83,-34.06 607.63,-32.91"/>
<polygon fill="black" stroke="black" points="608.23,-29.46 597.7,-30.6 606.65,-36.28 608.23,-29.46"/>
<text text-anchor="middle" x="888.6" y="-57.8" font-family="Times,serif" font-size="14.00">विशेषणम्</text>
</g>
<!-- 12 -->
<g id="node12" class="node">
<title>12</title>
<g id="a_node12"><a xlink:title="अनेक&#45;वक्त्र&#45;नयन{नपुं}{2;एक}">
<ellipse fill="#7cfc00" stroke="#7cfc00" cx="742.1" cy="-18" rx="110.48" ry="18"/>
<text text-anchor="middle" x="742.1" y="-14.3" font-family="Times,serif" font-size="14.00">अन्&#45;एक&#45;वक्त्र&#45;नयनम् (12)</text>
</a>
</g>
</g>
<!-- 10&#45;&gt;12 -->
<g id="edge11" class="edge">
<title>10&#45;&gt;12</title>
<path fill="none" stroke="black" d="M1453.33,-99.57C1346.97,-89.57 1082.63,-63.91 862.1,-36 852.23,-34.75 841.92,-33.39 831.67,-31.99"/>
<polygon fill="black" stroke="black" points="831.83,-28.48 821.45,-30.58 830.88,-35.41 831.83,-28.48"/>
<text text-anchor="middle" x="1168.6" y="-57.8" font-family="Times,serif" font-size="14.00">विशेषणम्</text>
</g>
<!-- 13 -->
<g id="node13" class="node">
<title>13</title>
<g id="a_node13"><a xlink:title="अनेक&#45;अद्भुत&#45;दर्शन{नपुं}{2;एक}">
<ellipse fill="#7cfc00" stroke="#7cfc00" cx="986.1" cy="-18" rx="115.08" ry="18"/>
<text text-anchor="middle" x="986.1" y="-14.3" font-family="Times,serif" font-size="14.00">अन्&#45;एक&#45;अद्भुत&#45;दर्शनम् (13)</text>
</a>
</g>
</g>
<!-- 10&#45;&gt;13 -->
<g id="edge12" class="edge">
<title>10&#45;&gt;13</title>
<path fill="none" stroke="black" d="M1456.29,-96.61C1370.74,-82.49 1182.81,-51.47 1072.19,-33.21"/>
<polygon fill="black" stroke="black" points="1072.5,-29.71 1062.07,-31.54 1071.36,-36.62 1072.5,-29.71"/>
<text text-anchor="middle" x="1300.6" y="-57.8" font-family="Times,serif" font-size="14.00">विशेषणम्</text>
</g>
<!-- 14 -->
<g id="node14" class="node">
<title>14</title>
<g id="a_node14"><a xlink:title="अनेक&#45;दिव्य&#45;आभरण{नपुं}{2;एक}">
<ellipse fill="#7cfc00" stroke="#7cfc00" cx="1235.1" cy="-18" rx="115.88" ry="18"/>
<text text-anchor="middle" x="1235.1" y="-14.3" font-family="Times,serif" font-size="14.00">अन्&#45;एक&#45;दिव्य&#45;आभरणम् (14)</text>
</a>
</g>
</g>
<!-- 10&#45;&gt;14 -->
<g id="edge13" class="edge">
<title>10&#45;&gt;14</title>
<path fill="none" stroke="black" d="M1464.94,-92.45C1420.77,-78.33 1345.47,-54.27 1293.15,-37.55"/>
<polygon fill="black" stroke="black" points="1293.92,-34.12 1283.33,-34.41 1291.79,-40.79 1293.92,-34.12"/>
<text text-anchor="middle" x="1409.6" y="-57.8" font-family="Times,serif" font-size="14.00">विशेषणम्</text>
</g>
<!-- 15 -->
<g id="node15" class="node">
<title>15</title>
<g id="a_node15"><a xlink:title="दिव्य&#45;अनेक&#45;उद्यत&#45;आयुध{नपुं}{2;एक}">
<ellipse fill="#7cfc00" stroke="#7cfc00" cx="1501.1" cy="-18" rx="132.68" ry="18"/>
<text text-anchor="middle" x="1501.1" y="-14.3" font-family="Times,serif" font-size="14.00">दिव्य&#45;अन्&#45;एक&#45;उद्यत&#45;आयुधम् (15)</text>
</a>
</g>
</g>
<!-- 10&#45;&gt;15 -->
<g id="edge14" class="edge">
<title>10&#45;&gt;15</title>
<path fill="none" stroke="black" d="M1501.1,-86.8C1501.1,-75.16 1501.1,-59.55 1501.1,-46.24"/>
<polygon fill="black" stroke="black" points="1504.6,-46.18 1501.1,-36.18 1497.6,-46.18 1504.6,-46.18"/>
<text text-anchor="middle" x="1526.6" y="-57.8" font-family="Times,serif" font-size="14.00">विशेषणम्</text>
</g>
<!-- 16 -->
<g id="node16" class="node">
<title>16</title>
<g id="a_node16"><a xlink:title="दिव्य&#45;माल्य&#45;अम्बर&#45;धर{नपुं}{2;एक}">
<ellipse fill="#7cfc00" stroke="#7cfc00" cx="1767.1" cy="-18" rx="115.08" ry="18"/>
<text text-anchor="middle" x="1767.1" y="-14.3" font-family="Times,serif" font-size="14.00">दिव्य&#45;माल्य&#45;अम्बर&#45;धरम् (16)</text>
</a>
</g>
</g>
<!-- 10&#45;&gt;16 -->
<g id="edge15" class="edge">
<title>10&#45;&gt;16</title>
<path fill="none" stroke="black" d="M1537.25,-92.45C1581.42,-78.33 1656.72,-54.27 1709.04,-37.55"/>
<polygon fill="black" stroke="black" points="1710.4,-40.79 1718.86,-34.41 1708.27,-34.12 1710.4,-40.79"/>
<text text-anchor="middle" x="1675.6" y="-57.8" font-family="Times,serif" font-size="14.00">विशेषणम्</text>
</g>
<!-- 17 -->
<g id="node17" class="node">
<title>17</title>
<g id="a_node17"><a xlink:title="दिव्य&#45;गन्ध&#45;अनुलेपन{नपुं}{2;एक}">
<ellipse fill="#7cfc00" stroke="#7cfc00" cx="2009.1" cy="-18" rx="108.58" ry="18"/>
<text text-anchor="middle" x="2009.1" y="-14.3" font-family="Times,serif" font-size="14.00">दिव्य&#45;गन्ध&#45;अनुलेपनम् (17)</text>
</a>
</g>
</g>
<!-- 10&#45;&gt;17 -->
<g id="edge16" class="edge">
<title>10&#45;&gt;17</title>
<path fill="none" stroke="black" d="M1545.73,-96.53C1630.72,-82.31 1816.99,-51.14 1925.7,-32.95"/>
<polygon fill="black" stroke="black" points="1926.37,-36.39 1935.65,-31.29 1925.21,-29.49 1926.37,-36.39"/>
<text text-anchor="middle" x="1811.6" y="-57.8" font-family="Times,serif" font-size="14.00">विशेषणम्</text>
</g>
<!-- 18 -->
<g id="node18" class="node">
<title>18</title>
<g id="a_node18"><a xlink:title="सर्व&#45;आश्चर्यमय{नपुं}{2;एक}">
<ellipse fill="#7cfc00" stroke="#7cfc00" cx="2227.1" cy="-18" rx="91.78" ry="18"/>
<text text-anchor="middle" x="2227.1" y="-14.3" font-family="Times,serif" font-size="14.00">सर्व&#45;आश्चर्यमयम् (18)</text>
</a>
</g>
</g>
<!-- 10&#45;&gt;18 -->
<g id="edge17" class="edge">
<title>10&#45;&gt;18</title>
<path fill="none" stroke="black" d="M1549.14,-99.89C1654.22,-90.64 1912.27,-66.63 2127.1,-36 2135.03,-34.87 2143.3,-33.6 2151.54,-32.29"/>
<polygon fill="black" stroke="black" points="2152.24,-35.72 2161.55,-30.66 2151.12,-28.81 2152.24,-35.72"/>
<text text-anchor="middle" x="2016.6" y="-57.8" font-family="Times,serif" font-size="14.00">विशेषणम्</text>
</g>
<!-- 19 -->
<g id="node19" class="node">
<title>19</title>
<g id="a_node19"><a xlink:title="देव{पुं}{2;एक}">
<ellipse fill="#7cfc00" stroke="#7cfc00" cx="2385.1" cy="-18" rx="48.99" ry="18"/>
<text text-anchor="middle" x="2385.1" y="-14.3" font-family="Times,serif" font-size="14.00">देवम् (19)</text>
</a>
</g>
</g>
<!-- 10&#45;&gt;19 -->
<g id="edge18" class="edge">
<title>10&#45;&gt;19</title>
<path fill="none" stroke="black" d="M1550.39,-101.7C1646.07,-97.05 1863.62,-85.52 2046.1,-69 2171.77,-57.62 2204.5,-61.46 2328.1,-36 2331.97,-35.2 2335.96,-34.26 2339.94,-33.24"/>
<polygon fill="black" stroke="black" points="2341.03,-36.57 2349.76,-30.57 2339.19,-29.82 2341.03,-36.57"/>
<text text-anchor="middle" x="2247.6" y="-57.8" font-family="Times,serif" font-size="14.00">विशेषणम्</text>
</g>
<!-- 20 -->
<g id="node20" class="node">
<title>20</title>
<g id="a_node20"><a xlink:title="अनन्त{पुं}{2;एक}">
<ellipse fill="#7cfc00" stroke="#7cfc00" cx="2523.1" cy="-18" rx="71.49" ry="18"/>
<text text-anchor="middle" x="2523.1" y="-14.3" font-family="Times,serif" font-size="14.00">अन्&#45;अन्तम् (20)</text>
</a>
</g>
</g>
<!-- 10&#45;&gt;20 -->
<g id="edge19" class="edge">
<title>10&#45;&gt;20</title>
<path fill="none" stroke="black" d="M1551.24,-104.36C1675,-104.66 2004.65,-102.03 2277.1,-69 2341.86,-61.15 2414.99,-45.38 2464.56,-33.64"/>
<polygon fill="black" stroke="black" points="2465.55,-37.01 2474.46,-31.28 2463.92,-30.2 2465.55,-37.01"/>
<text text-anchor="middle" x="2391.6" y="-57.8" font-family="Times,serif" font-size="14.00">विशेषणम्</text>
</g>
<!-- 21 -->
<g id="node21" class="node">
<title>21</title>
<g id="a_node21"><a xlink:title="विश्वतः&#45;मुख{पुं}{2;एक}">
<ellipse fill="#7cfc00" stroke="#7cfc00" cx="2696.1" cy="-18" rx="83.39" ry="18"/>
<text text-anchor="middle" x="2696.1" y="-14.3" font-family="Times,serif" font-size="14.00">विश्वतः&#45;मुखम् (21)</text>
</a>
</g>
</g>
<!-- 10&#45;&gt;21 -->
<g id="edge20" class="edge">
<title>10&#45;&gt;21</title>
<path fill="none" stroke="black" d="M1551.14,-104.57C1689.81,-105.63 2090.6,-105.07 2421.1,-69 2493.3,-61.12 2575.09,-45.36 2630.56,-33.63"/>
<polygon fill="black" stroke="black" points="2631.56,-37 2640.61,-31.49 2630.1,-30.15 2631.56,-37"/>
<text text-anchor="middle" x="2545.6" y="-57.8" font-family="Times,serif" font-size="14.00">विशेषणम्</text>
</g>
</g>
</svg>
