<?xml version="1.0" encoding="UTF-8" standalone="no"?>
<!DOCTYPE svg PUBLIC "-//W3C//DTD SVG 1.1//EN"
 "http://www.w3.org/Graphics/SVG/1.1/DTD/svg11.dtd">
<!-- Generated by graphviz version 2.43.0 (0)
 -->
<!-- Title: %3 Pages: 1 -->
<svg width="1463pt" height="392pt"
 viewBox="0.00 0.00 1462.54 392.00" xmlns="http://www.w3.org/2000/svg" xmlns:xlink="http://www.w3.org/1999/xlink">
<g id="graph0" class="graph" transform="scale(1 1) rotate(0) translate(4 388)">
<title>%3</title>
<polygon fill="#fffacd" stroke="transparent" points="-4,4 -4,-388 1458.54,-388 1458.54,4 -4,4"/>
<!-- 1 -->
<g id="node1" class="node">
<title>1</title>
<g id="a_node1"><a xlink:title="दंष्ट्रा&#45;कराल{नपुं}{2;बहु}">
<ellipse fill="#7cfc00" stroke="#7cfc00" cx="110.15" cy="-105" rx="82.59" ry="18"/>
<text text-anchor="middle" x="110.15" y="-101.3" font-family="Times,serif" font-size="14.00">दंष्ट्रा&#45;करालानि (1)</text>
</a>
</g>
</g>
<!-- 2 -->
<g id="node2" class="node">
<title>2</title>
<g id="a_node2"><a xlink:title="च{अव्य}">
<ellipse fill="#ff00ff" stroke="#ff00ff" cx="33.15" cy="-18" rx="33.29" ry="18"/>
<text text-anchor="middle" x="33.15" y="-14.3" font-family="Times,serif" font-size="14.00">च (2)</text>
</a>
</g>
</g>
<!-- 1&#45;&gt;2 -->
<g id="edge2" class="edge">
<title>1&#45;&gt;2</title>
<path fill="none" stroke="black" d="M94.93,-87.21C83.25,-74.31 66.98,-56.35 54.07,-42.09"/>
<polygon fill="black" stroke="black" points="56.6,-39.67 47.29,-34.61 51.41,-44.37 56.6,-39.67"/>
<text text-anchor="middle" x="119.65" y="-57.8" font-family="Times,serif" font-size="14.00">समुच्चयद्योतकः</text>
</g>
<!-- 7 -->
<g id="node7" class="node">
<title>7</title>
<g id="a_node7"><a xlink:title="काल&#45;अनल&#45;सन्निभ{नपुं}{2;बहु}">
<ellipse fill="#7cfc00" stroke="#7cfc00" cx="188.15" cy="-18" rx="103.98" ry="18"/>
<text text-anchor="middle" x="188.15" y="-14.3" font-family="Times,serif" font-size="14.00">काल&#45;अनल&#45;सन्निभानि (7)</text>
</a>
</g>
</g>
<!-- 1&#45;&gt;7 -->
<g id="edge7" class="edge">
<title>1&#45;&gt;7</title>
<path fill="none" stroke="black" d="M142.32,-88.42C150.86,-83.15 159.55,-76.63 166.15,-69 171.97,-62.27 176.48,-53.76 179.86,-45.67"/>
<polygon fill="black" stroke="black" points="183.19,-46.76 183.43,-36.17 176.64,-44.3 183.19,-46.76"/>
<text text-anchor="middle" x="218.65" y="-57.8" font-family="Times,serif" font-size="14.00">सुप्_समुच्चितम्</text>
</g>
<!-- 3 -->
<g id="node3" class="node">
<title>3</title>
<g id="a_node3"><a xlink:title="युष्मद्{6;एक}">
<ellipse fill="#87ceeb" stroke="#87ceeb" cx="243.15" cy="-105" rx="32.49" ry="18"/>
<text text-anchor="middle" x="243.15" y="-101.3" font-family="Times,serif" font-size="14.00">ते (3)</text>
</a>
</g>
</g>
<!-- 4 -->
<g id="node4" class="node">
<title>4</title>
<g id="a_node4"><a xlink:title="मुख{नपुं}{2;बहु}">
<ellipse fill="#7cfc00" stroke="#7cfc00" cx="177.15" cy="-192" rx="50.09" ry="18"/>
<text text-anchor="middle" x="177.15" y="-188.3" font-family="Times,serif" font-size="14.00">मुखानि (4)</text>
</a>
</g>
</g>
<!-- 4&#45;&gt;1 -->
<g id="edge1" class="edge">
<title>4&#45;&gt;1</title>
<path fill="none" stroke="black" d="M163.91,-174.21C154.25,-161.95 140.98,-145.11 130.04,-131.24"/>
<polygon fill="black" stroke="black" points="132.53,-128.74 123.59,-123.05 127.03,-133.07 132.53,-128.74"/>
<text text-anchor="middle" x="173.65" y="-144.8" font-family="Times,serif" font-size="14.00">विशेषणम्</text>
</g>
<!-- 4&#45;&gt;3 -->
<g id="edge3" class="edge">
<title>4&#45;&gt;3</title>
<path fill="none" stroke="black" d="M190.19,-174.21C199.96,-161.63 213.46,-144.23 224.39,-130.16"/>
<polygon fill="black" stroke="black" points="227.44,-131.94 230.8,-121.9 221.91,-127.65 227.44,-131.94"/>
<text text-anchor="middle" x="250.15" y="-144.8" font-family="Times,serif" font-size="14.00">षष्ठीसम्बन्धः</text>
</g>
<!-- 5 -->
<g id="node5" class="node">
<title>5</title>
<g id="a_node5"><a xlink:title="दृश्1{अव्य;क्त्वा;दृशिँर्;:भ्वादिः}">
<ellipse fill="#ff00ff" stroke="#ff00ff" cx="256.15" cy="-279" rx="49.29" ry="18"/>
<text text-anchor="middle" x="256.15" y="-275.3" font-family="Times,serif" font-size="14.00">दृष्ट्वा (5)</text>
</a>
</g>
</g>
<!-- 5&#45;&gt;4 -->
<g id="edge4" class="edge">
<title>5&#45;&gt;4</title>
<path fill="none" stroke="black" d="M240.92,-261.61C229.11,-248.91 212.59,-231.13 199.32,-216.86"/>
<polygon fill="black" stroke="black" points="201.7,-214.28 192.33,-209.34 196.58,-219.05 201.7,-214.28"/>
<text text-anchor="middle" x="232.15" y="-231.8" font-family="Times,serif" font-size="14.00">कर्म</text>
</g>
<!-- 6 -->
<g id="node6" class="node">
<title>6</title>
<g id="a_node6"><a xlink:title="एव{अव्य}">
<ellipse fill="#ff00ff" stroke="#ff00ff" cx="283.15" cy="-192" rx="37.89" ry="18"/>
<text text-anchor="middle" x="283.15" y="-188.3" font-family="Times,serif" font-size="14.00">एव (6)</text>
</a>
</g>
</g>
<!-- 5&#45;&gt;6 -->
<g id="edge6" class="edge">
<title>5&#45;&gt;6</title>
<path fill="none" stroke="black" d="M261.61,-260.8C265.37,-248.97 270.43,-233.03 274.7,-219.58"/>
<polygon fill="black" stroke="black" points="278.09,-220.48 277.78,-209.89 271.42,-218.36 278.09,-220.48"/>
<text text-anchor="middle" x="295.15" y="-231.8" font-family="Times,serif" font-size="14.00">सम्बन्धः</text>
</g>
<!-- 10.1 -->
<g id="node11" class="node">
<title>10.1</title>
<g id="a_node11"><a xlink:title="(अस्मद्{1;एक})">
<ellipse fill="#00bfff" stroke="#00bfff" cx="477.15" cy="-192" rx="66.09" ry="18"/>
<text text-anchor="middle" x="477.15" y="-188.3" font-family="Times,serif" font-size="14.00">(अहम्) (10.1)</text>
</a>
</g>
</g>
<!-- 5&#45;&gt;10.1 -->
<g id="edge11" class="edge">
<title>5&#45;&gt;10.1</title>
<path fill="none" stroke="black" stroke-dasharray="1,5" d="M288.76,-265.46C326.3,-251.02 388.24,-227.2 430.78,-210.83"/>
<polygon fill="black" stroke="black" points="432.27,-214.01 440.35,-207.15 429.76,-207.48 432.27,-214.01"/>
<text text-anchor="middle" x="392.65" y="-231.8" font-family="Times,serif" font-size="14.00">कर्ता</text>
</g>
<!-- 8 -->
<g id="node8" class="node">
<title>8</title>
<g id="a_node8"><a xlink:title="दिश्{स्त्री}{2;बहु}">
<ellipse fill="#7cfc00" stroke="#7cfc00" cx="368.15" cy="-279" rx="44.39" ry="18"/>
<text text-anchor="middle" x="368.15" y="-275.3" font-family="Times,serif" font-size="14.00">दिशः (8)</text>
</a>
</g>
</g>
<!-- 9 -->
<g id="node9" class="node">
<title>9</title>
<g id="a_node9"><a xlink:title="न{अव्य}">
<ellipse fill="#ff00ff" stroke="#ff00ff" cx="463.15" cy="-279" rx="32.49" ry="18"/>
<text text-anchor="middle" x="463.15" y="-275.3" font-family="Times,serif" font-size="14.00">न (9)</text>
</a>
</g>
</g>
<!-- 10 -->
<g id="node10" class="node">
<title>10</title>
<g id="a_node10"><a xlink:title="ज्ञा2{कर्तरि;लट्;उ;एक;आत्मनेपदी;ज्ञा;क्र्यादिः}">
<ellipse fill="#ff6347" stroke="#ff6347" cx="416.15" cy="-366" rx="47.39" ry="18"/>
<text text-anchor="middle" x="416.15" y="-362.3" font-family="Times,serif" font-size="14.00">जाने (10)</text>
</a>
</g>
</g>
<!-- 10&#45;&gt;5 -->
<g id="edge5" class="edge">
<title>10&#45;&gt;5</title>
<path fill="none" stroke="black" d="M384.92,-352.33C370.2,-346.06 352.54,-338.11 337.15,-330 320.32,-321.13 302.25,-310.13 287.45,-300.7"/>
<polygon fill="black" stroke="black" points="289.01,-297.54 278.71,-295.07 285.22,-303.43 289.01,-297.54"/>
<text text-anchor="middle" x="361.65" y="-318.8" font-family="Times,serif" font-size="14.00">पूर्वकालः</text>
</g>
<!-- 10&#45;&gt;8 -->
<g id="edge8" class="edge">
<title>10&#45;&gt;8</title>
<path fill="none" stroke="black" d="M406.66,-348.21C399.83,-336.1 390.47,-319.53 382.69,-305.76"/>
<polygon fill="black" stroke="black" points="385.58,-303.74 377.61,-296.76 379.48,-307.19 385.58,-303.74"/>
<text text-anchor="middle" x="405.15" y="-318.8" font-family="Times,serif" font-size="14.00">कर्म</text>
</g>
<!-- 10&#45;&gt;9 -->
<g id="edge9" class="edge">
<title>10&#45;&gt;9</title>
<path fill="none" stroke="black" d="M425.43,-348.21C432.17,-336.02 441.41,-319.32 449.05,-305.49"/>
<polygon fill="black" stroke="black" points="452.26,-306.91 454.04,-296.47 446.14,-303.53 452.26,-306.91"/>
<text text-anchor="middle" x="469.15" y="-318.8" font-family="Times,serif" font-size="14.00">प्रतिषेधः</text>
</g>
<!-- 10&#45;&gt;10.1 -->
<g id="edge10" class="edge">
<title>10&#45;&gt;10.1</title>
<path fill="none" stroke="black" d="M457.33,-356.66C472.69,-351.49 488.87,-343.21 499.15,-330 523.97,-298.09 506.79,-249.13 492.01,-219.2"/>
<polygon fill="black" stroke="black" points="495.06,-217.47 487.35,-210.19 488.84,-220.68 495.06,-217.47"/>
<text text-anchor="middle" x="524.65" y="-275.3" font-family="Times,serif" font-size="14.00">कर्ता</text>
</g>
<!-- 11 -->
<g id="node12" class="node">
<title>11</title>
<g id="a_node12"><a xlink:title="न{अव्य}">
<ellipse fill="#ff00ff" stroke="#ff00ff" cx="612.15" cy="-279" rx="38.19" ry="18"/>
<text text-anchor="middle" x="612.15" y="-275.3" font-family="Times,serif" font-size="14.00">न (11)</text>
</a>
</g>
</g>
<!-- 12 -->
<g id="node13" class="node">
<title>12</title>
<g id="a_node13"><a xlink:title="लभ्1{कर्तरि;लट्;उ;एक;आत्मनेपदी;डुलभँष्;भ्वादिः}">
<ellipse fill="#ff6347" stroke="#ff6347" cx="758.15" cy="-366" rx="46.29" ry="18"/>
<text text-anchor="middle" x="758.15" y="-362.3" font-family="Times,serif" font-size="14.00">लभे (12)</text>
</a>
</g>
</g>
<!-- 12&#45;&gt;11 -->
<g id="edge12" class="edge">
<title>12&#45;&gt;11</title>
<path fill="none" stroke="black" d="M724.39,-353.45C708.62,-347.44 689.9,-339.37 674.15,-330 660.76,-322.03 647.15,-311.4 636.1,-301.98"/>
<polygon fill="black" stroke="black" points="638.39,-299.33 628.55,-295.4 633.79,-304.61 638.39,-299.33"/>
<text text-anchor="middle" x="700.15" y="-318.8" font-family="Times,serif" font-size="14.00">प्रतिषेधः</text>
</g>
<!-- 13 -->
<g id="node14" class="node">
<title>13</title>
<g id="a_node14"><a xlink:title="च{अव्य}">
<ellipse fill="#ff00ff" stroke="#ff00ff" cx="707.15" cy="-279" rx="38.99" ry="18"/>
<text text-anchor="middle" x="707.15" y="-275.3" font-family="Times,serif" font-size="14.00">च (13)</text>
</a>
</g>
</g>
<!-- 12&#45;&gt;13 -->
<g id="edge13" class="edge">
<title>12&#45;&gt;13</title>
<path fill="none" stroke="black" d="M748.07,-348.21C740.69,-335.9 730.54,-319 722.2,-305.09"/>
<polygon fill="black" stroke="black" points="725.17,-303.24 717.03,-296.47 719.17,-306.84 725.17,-303.24"/>
<text text-anchor="middle" x="759.15" y="-318.8" font-family="Times,serif" font-size="14.00">सम्बन्धः</text>
</g>
<!-- 14 -->
<g id="node15" class="node">
<title>14</title>
<g id="a_node15"><a xlink:title="शर्मन्{नपुं}{2;एक}">
<ellipse fill="#7cfc00" stroke="#7cfc00" cx="809.15" cy="-279" rx="45.49" ry="18"/>
<text text-anchor="middle" x="809.15" y="-275.3" font-family="Times,serif" font-size="14.00">शर्म (14)</text>
</a>
</g>
</g>
<!-- 12&#45;&gt;14 -->
<g id="edge14" class="edge">
<title>12&#45;&gt;14</title>
<path fill="none" stroke="black" d="M772.4,-348.88C777.1,-343.14 782.14,-336.49 786.15,-330 790.66,-322.68 794.85,-314.33 798.37,-306.57"/>
<polygon fill="black" stroke="black" points="801.68,-307.76 802.46,-297.19 795.26,-304.96 801.68,-307.76"/>
<text text-anchor="middle" x="805.15" y="-318.8" font-family="Times,serif" font-size="14.00">कर्म</text>
</g>
<!-- 14.1 -->
<g id="node16" class="node">
<title>14.1</title>
<g id="a_node16"><a xlink:title="(अस्मद्{1;एक})">
<ellipse fill="#00bfff" stroke="#00bfff" cx="939.15" cy="-279" rx="66.09" ry="18"/>
<text text-anchor="middle" x="939.15" y="-275.3" font-family="Times,serif" font-size="14.00">(अहम्) (14.1)</text>
</a>
</g>
</g>
<!-- 12&#45;&gt;14.1 -->
<g id="edge15" class="edge">
<title>12&#45;&gt;14.1</title>
<path fill="none" stroke="black" d="M786.43,-351.72C816.42,-337.63 864.08,-315.25 898.18,-299.24"/>
<polygon fill="black" stroke="black" points="899.85,-302.32 907.41,-294.9 896.87,-295.99 899.85,-302.32"/>
<text text-anchor="middle" x="872.65" y="-318.8" font-family="Times,serif" font-size="14.00">कर्ता</text>
</g>
<!-- 15 -->
<g id="node17" class="node">
<title>15</title>
<g id="a_node17"><a xlink:title="प्र_सद्1{कर्तरि;लोट्;म;एक;परस्मैपदी;प्र_षदॢँ;भ्वादिः}">
<ellipse fill="#ff6347" stroke="#ff6347" cx="1235.15" cy="-366" rx="55.79" ry="18"/>
<text text-anchor="middle" x="1235.15" y="-362.3" font-family="Times,serif" font-size="14.00">प्रसीद (15)</text>
</a>
</g>
</g>
<!-- 16 -->
<g id="node18" class="node">
<title>16</title>
<g id="a_node18"><a xlink:title="देवेश{पुं}{8;एक}">
<ellipse fill="#7fffd4" stroke="#7fffd4" cx="1082.15" cy="-279" rx="58.49" ry="18"/>
<text text-anchor="middle" x="1082.15" y="-275.3" font-family="Times,serif" font-size="14.00">देव&#45;ईश (16)</text>
</a>
</g>
</g>
<!-- 15&#45;&gt;16 -->
<g id="edge16" class="edge">
<title>15&#45;&gt;16</title>
<path fill="none" stroke="black" d="M1208.15,-350C1183.1,-336.08 1145.64,-315.27 1118.07,-299.96"/>
<polygon fill="black" stroke="black" points="1119.58,-296.79 1109.14,-294.99 1116.18,-302.91 1119.58,-296.79"/>
<text text-anchor="middle" x="1193.65" y="-318.8" font-family="Times,serif" font-size="14.00">सम्बोध्यः</text>
</g>
<!-- 17 -->
<g id="node19" class="node">
<title>17</title>
<g id="a_node19"><a xlink:title="जगत्&#45;निवास{पुं}{8;एक}">
<ellipse fill="#7fffd4" stroke="#7fffd4" cx="1235.15" cy="-279" rx="76.89" ry="18"/>
<text text-anchor="middle" x="1235.15" y="-275.3" font-family="Times,serif" font-size="14.00">जगत्&#45;निवास (17)</text>
</a>
</g>
</g>
<!-- 15&#45;&gt;17 -->
<g id="edge17" class="edge">
<title>15&#45;&gt;17</title>
<path fill="none" stroke="black" d="M1235.15,-347.8C1235.15,-336.16 1235.15,-320.55 1235.15,-307.24"/>
<polygon fill="black" stroke="black" points="1238.65,-307.18 1235.15,-297.18 1231.65,-307.18 1238.65,-307.18"/>
<text text-anchor="middle" x="1260.65" y="-318.8" font-family="Times,serif" font-size="14.00">सम्बोध्यः</text>
</g>
<!-- 17.1 -->
<g id="node20" class="node">
<title>17.1</title>
<g id="a_node20"><a xlink:title="(युष्मद्{1;एक})">
<ellipse fill="#00bfff" stroke="#00bfff" cx="1392.15" cy="-279" rx="62.29" ry="18"/>
<text text-anchor="middle" x="1392.15" y="-275.3" font-family="Times,serif" font-size="14.00">(त्वम्) (17.1)</text>
</a>
</g>
</g>
<!-- 15&#45;&gt;17.1 -->
<g id="edge18" class="edge">
<title>15&#45;&gt;17.1</title>
<path fill="none" stroke="black" d="M1262.49,-350.19C1288.18,-336.29 1326.81,-315.38 1355.22,-299.99"/>
<polygon fill="black" stroke="black" points="1356.93,-303.05 1364.06,-295.21 1353.6,-296.89 1356.93,-303.05"/>
<text text-anchor="middle" x="1334.65" y="-318.8" font-family="Times,serif" font-size="14.00">कर्ता</text>
</g>
</g>
</svg>
