<?xml version="1.0" encoding="UTF-8" standalone="no"?>
<!DOCTYPE svg PUBLIC "-//W3C//DTD SVG 1.1//EN"
 "http://www.w3.org/Graphics/SVG/1.1/DTD/svg11.dtd">
<!-- Generated by graphviz version 2.43.0 (0)
 -->
<!-- Title: %3 Pages: 1 -->
<svg width="2780pt" height="479pt"
 viewBox="0.00 0.00 2779.94 479.00" xmlns="http://www.w3.org/2000/svg" xmlns:xlink="http://www.w3.org/1999/xlink">
<g id="graph0" class="graph" transform="scale(1 1) rotate(0) translate(4 475)">
<title>%3</title>
<polygon fill="#fffacd" stroke="transparent" points="-4,4 -4,-475 2775.94,-475 2775.94,4 -4,4"/>
<!-- 1 -->
<g id="node1" class="node">
<title>1</title>
<g id="a_node1"><a xlink:title="सखि{पुं}{1;एक}">
<ellipse fill="#00bfff" stroke="#00bfff" cx="42.25" cy="-192" rx="42.49" ry="18"/>
<text text-anchor="middle" x="42.25" y="-188.3" font-family="Times,serif" font-size="14.00">सखा (1)</text>
</a>
</g>
</g>
<!-- 2 -->
<g id="node2" class="node">
<title>2</title>
<g id="a_node2"><a xlink:title="इति{अव्य}">
<ellipse fill="#ff00ff" stroke="#ff00ff" cx="173.25" cy="-192" rx="40.09" ry="18"/>
<text text-anchor="middle" x="173.25" y="-188.3" font-family="Times,serif" font-size="14.00">इति (2)</text>
</a>
</g>
</g>
<!-- 3 -->
<g id="node3" class="node">
<title>3</title>
<g id="a_node3"><a xlink:title="मन्1{अव्य;क्त्वा;मनँ;:दिवादिः}">
<ellipse fill="#ff00ff" stroke="#ff00ff" cx="283.25" cy="-366" rx="44.39" ry="18"/>
<text text-anchor="middle" x="283.25" y="-362.3" font-family="Times,serif" font-size="14.00">मत्वा (3)</text>
</a>
</g>
</g>
<!-- 18 -->
<g id="node18" class="node">
<title>18</title>
<g id="a_node18"><a xlink:title="अस्मद्{3;एक}">
<ellipse fill="#40e0d0" stroke="#40e0d0" cx="349.25" cy="-279" rx="46.29" ry="18"/>
<text text-anchor="middle" x="349.25" y="-275.3" font-family="Times,serif" font-size="14.00">मया (18)</text>
</a>
</g>
</g>
<!-- 3&#45;&gt;18 -->
<g id="edge18" class="edge">
<title>3&#45;&gt;18</title>
<path fill="none" stroke="black" stroke-dasharray="1,5" d="M295.97,-348.61C305.74,-336.03 319.38,-318.46 330.41,-304.25"/>
<polygon fill="black" stroke="black" points="333.19,-306.38 336.56,-296.34 327.66,-302.09 333.19,-306.38"/>
<text text-anchor="middle" x="332.75" y="-318.8" font-family="Times,serif" font-size="14.00">कर्ता</text>
</g>
<!-- 27 -->
<g id="node27" class="node">
<title>27</title>
<g id="a_node27"><a xlink:title="अस्2{कर्तरि;लट्;म;एक;परस्मैपदी;असँ;अदादिः}">
<ellipse fill="#ff6347" stroke="#ff6347" cx="219.25" cy="-279" rx="49.29" ry="18"/>
<text text-anchor="middle" x="219.25" y="-275.3" font-family="Times,serif" font-size="14.00">असि (27)</text>
</a>
</g>
</g>
<!-- 3&#45;&gt;27 -->
<g id="edge27" class="edge">
<title>3&#45;&gt;27</title>
<path fill="none" stroke="black" d="M260.79,-350.09C253.53,-344.45 245.9,-337.55 240.25,-330 235.09,-323.11 230.94,-314.77 227.73,-306.89"/>
<polygon fill="black" stroke="black" points="230.93,-305.45 224.17,-297.29 224.37,-307.89 230.93,-305.45"/>
<text text-anchor="middle" x="264.75" y="-318.8" font-family="Times,serif" font-size="14.00">वाक्यकर्म</text>
</g>
<!-- 4 -->
<g id="node4" class="node">
<title>4</title>
<g id="a_node4"><a xlink:title="प्रसभ{नपुं}{2;एक}">
<ellipse fill="#7cfc00" stroke="#7cfc00" cx="461.25" cy="-366" rx="54.69" ry="18"/>
<text text-anchor="middle" x="461.25" y="-362.3" font-family="Times,serif" font-size="14.00">प्रसभम् (4)</text>
</a>
</g>
</g>
<!-- 17 -->
<g id="node17" class="node">
<title>17</title>
<g id="a_node17"><a xlink:title="इदम्{नपुं}{2;एक}">
<ellipse fill="#7cfc00" stroke="#7cfc00" cx="461.25" cy="-279" rx="48.19" ry="18"/>
<text text-anchor="middle" x="461.25" y="-275.3" font-family="Times,serif" font-size="14.00">इदम् (17)</text>
</a>
</g>
</g>
<!-- 4&#45;&gt;17 -->
<g id="edge16" class="edge">
<title>4&#45;&gt;17</title>
<path fill="none" stroke="black" d="M461.25,-347.8C461.25,-336.16 461.25,-320.55 461.25,-307.24"/>
<polygon fill="black" stroke="black" points="464.75,-307.18 461.25,-297.18 457.75,-307.18 464.75,-307.18"/>
<text text-anchor="middle" x="488.75" y="-318.8" font-family="Times,serif" font-size="14.00">विशेषणम् </text>
</g>
<!-- 5 -->
<g id="node5" class="node">
<title>5</title>
<g id="a_node5"><a xlink:title="यद्{नपुं}{2;एक}">
<ellipse fill="#7cfc00" stroke="#7cfc00" cx="572.25" cy="-366" rx="38.19" ry="18"/>
<text text-anchor="middle" x="572.25" y="-362.3" font-family="Times,serif" font-size="14.00">यत् (5)</text>
</a>
</g>
</g>
<!-- 13 -->
<g id="node13" class="node">
<title>13</title>
<g id="a_node13"><a xlink:title="इति{अव्य}">
<ellipse fill="#ff00ff" stroke="#ff00ff" cx="573.25" cy="-279" rx="46.29" ry="18"/>
<text text-anchor="middle" x="573.25" y="-275.3" font-family="Times,serif" font-size="14.00">इति (13)</text>
</a>
</g>
</g>
<!-- 5&#45;&gt;13 -->
<g id="edge12" class="edge">
<title>5&#45;&gt;13</title>
<path fill="none" stroke="black" d="M572.45,-347.8C572.59,-336.16 572.77,-320.55 572.93,-307.24"/>
<polygon fill="black" stroke="black" points="576.43,-307.22 573.04,-297.18 569.43,-307.13 576.43,-307.22"/>
<text text-anchor="middle" x="596.25" y="-318.8" font-family="Times,serif" font-size="14.00">सम्बन्धः</text>
</g>
<!-- 6 -->
<g id="node6" class="node">
<title>6</title>
<g id="a_node6"><a xlink:title="वच्1{कृत्_प्रत्ययः:क्त;वचँ;अदादिः;नपुं}{1;एक}">
<ellipse fill="#00bfff" stroke="#00bfff" cx="738.25" cy="-453" rx="48.19" ry="18"/>
<text text-anchor="middle" x="738.25" y="-449.3" font-family="Times,serif" font-size="14.00">उक्तम् (6)</text>
</a>
</g>
</g>
<!-- 6&#45;&gt;3 -->
<g id="edge3" class="edge">
<title>6&#45;&gt;3</title>
<path fill="none" stroke="black" d="M690.07,-451.1C582.63,-448.67 330.46,-440.52 300.25,-417 293.07,-411.41 288.9,-402.65 286.49,-394.01"/>
<polygon fill="black" stroke="black" points="289.89,-393.18 284.39,-384.12 283.04,-394.63 289.89,-393.18"/>
<text text-anchor="middle" x="324.75" y="-405.8" font-family="Times,serif" font-size="14.00">पूर्वकालः</text>
</g>
<!-- 6&#45;&gt;4 -->
<g id="edge4" class="edge">
<title>6&#45;&gt;4</title>
<path fill="none" stroke="black" d="M690.69,-450.17C647.38,-447.09 582.42,-438.87 530.25,-417 514.5,-410.4 498.94,-399.6 486.58,-389.71"/>
<polygon fill="black" stroke="black" points="488.52,-386.77 478.58,-383.08 484.05,-392.16 488.52,-386.77"/>
<text text-anchor="middle" x="572.75" y="-405.8" font-family="Times,serif" font-size="14.00">क्रियाविशेषणम्</text>
</g>
<!-- 6&#45;&gt;5 -->
<g id="edge5" class="edge">
<title>6&#45;&gt;5</title>
<path fill="none" stroke="black" d="M701.66,-441.01C683.6,-434.97 661.77,-426.72 643.25,-417 627.7,-408.84 611.6,-397.75 598.67,-388.09"/>
<polygon fill="black" stroke="black" points="600.74,-385.27 590.67,-382 596.5,-390.84 600.74,-385.27"/>
<text text-anchor="middle" x="666.25" y="-405.8" font-family="Times,serif" font-size="14.00">मुख्यकर्म</text>
</g>
<!-- 8 -->
<g id="node8" class="node">
<title>8</title>
<g id="a_node8"><a xlink:title="कृष्ण{पुं}{8;एक}">
<ellipse fill="#7fffd4" stroke="#7fffd4" cx="671.25" cy="-366" rx="42.79" ry="18"/>
<text text-anchor="middle" x="671.25" y="-362.3" font-family="Times,serif" font-size="14.00">कृष्ण (8)</text>
</a>
</g>
</g>
<!-- 6&#45;&gt;8 -->
<g id="edge7" class="edge">
<title>6&#45;&gt;8</title>
<path fill="none" stroke="black" d="M720.74,-435.96C714.89,-430.23 708.52,-423.56 703.25,-417 697.15,-409.41 691.19,-400.62 686.1,-392.54"/>
<polygon fill="black" stroke="black" points="688.98,-390.53 680.77,-383.83 683.01,-394.18 688.98,-390.53"/>
<text text-anchor="middle" x="728.75" y="-405.8" font-family="Times,serif" font-size="14.00">सम्बोध्यः</text>
</g>
<!-- 10 -->
<g id="node10" class="node">
<title>10</title>
<g id="a_node10"><a xlink:title="यादव{पुं}{8;एक}">
<ellipse fill="#7fffd4" stroke="#7fffd4" cx="783.25" cy="-366" rx="51.19" ry="18"/>
<text text-anchor="middle" x="783.25" y="-362.3" font-family="Times,serif" font-size="14.00">यादव (10)</text>
</a>
</g>
</g>
<!-- 6&#45;&gt;10 -->
<g id="edge9" class="edge">
<title>6&#45;&gt;10</title>
<path fill="none" stroke="black" d="M747.14,-435.21C753.55,-423.1 762.32,-406.53 769.61,-392.76"/>
<polygon fill="black" stroke="black" points="772.79,-394.23 774.37,-383.76 766.6,-390.96 772.79,-394.23"/>
<text text-anchor="middle" x="789.75" y="-405.8" font-family="Times,serif" font-size="14.00">सम्बोध्यः</text>
</g>
<!-- 12 -->
<g id="node12" class="node">
<title>12</title>
<g id="a_node12"><a xlink:title="सख{पुं}{8;एक}">
<ellipse fill="#7fffd4" stroke="#7fffd4" cx="898.25" cy="-366" rx="45.49" ry="18"/>
<text text-anchor="middle" x="898.25" y="-362.3" font-family="Times,serif" font-size="14.00">सख (12)</text>
</a>
</g>
</g>
<!-- 6&#45;&gt;12 -->
<g id="edge11" class="edge">
<title>6&#45;&gt;12</title>
<path fill="none" stroke="black" d="M770.33,-439.49C785.43,-433.27 803.53,-425.3 819.25,-417 835.89,-408.21 853.66,-397.13 868.12,-387.63"/>
<polygon fill="black" stroke="black" points="870.27,-390.4 876.66,-381.96 866.39,-384.57 870.27,-390.4"/>
<text text-anchor="middle" x="869.75" y="-405.8" font-family="Times,serif" font-size="14.00">सम्बोध्यः</text>
</g>
<!-- 6&#45;&gt;18 -->
<g id="edge17" class="edge">
<title>6&#45;&gt;18</title>
<path fill="none" stroke="black" d="M690.88,-449.84C602.08,-444.77 415.63,-428.92 372.25,-384 361.81,-373.2 355.36,-334.23 352.04,-307.19"/>
<polygon fill="black" stroke="black" points="355.5,-306.68 350.88,-297.15 348.55,-307.48 355.5,-306.68"/>
<text text-anchor="middle" x="384.75" y="-362.3" font-family="Times,serif" font-size="14.00">कर्ता</text>
</g>
<!-- 19 -->
<g id="node19" class="node">
<title>19</title>
<g id="a_node19"><a xlink:title="प्रमाद{पुं}{5;एक}">
<ellipse fill="#90ee90" stroke="#90ee90" cx="1025.25" cy="-366" rx="63.89" ry="18"/>
<text text-anchor="middle" x="1025.25" y="-362.3" font-family="Times,serif" font-size="14.00">प्रमादात् (19)</text>
</a>
</g>
</g>
<!-- 6&#45;&gt;19 -->
<g id="edge19" class="edge">
<title>6&#45;&gt;19</title>
<path fill="none" stroke="black" d="M781.11,-444.66C813.83,-438.58 859.85,-429.01 899.25,-417 927.96,-408.25 959.35,-395.8 983.61,-385.52"/>
<polygon fill="black" stroke="black" points="985.06,-388.7 992.87,-381.55 982.3,-382.27 985.06,-388.7"/>
<text text-anchor="middle" x="951.25" y="-405.8" font-family="Times,serif" font-size="14.00">हेतु</text>
</g>
<!-- 20 -->
<g id="node20" class="node">
<title>20</title>
<g id="a_node20"><a xlink:title="प्रणय{पुं}{3;एक}">
<ellipse fill="#40e0d0" stroke="#40e0d0" cx="1166.25" cy="-366" rx="59.59" ry="18"/>
<text text-anchor="middle" x="1166.25" y="-362.3" font-family="Times,serif" font-size="14.00">प्रणयेन (20)</text>
</a>
</g>
</g>
<!-- 6&#45;&gt;20 -->
<g id="edge20" class="edge">
<title>6&#45;&gt;20</title>
<path fill="none" stroke="black" d="M783.05,-446.24C828.79,-440.09 901.76,-429.51 964.25,-417 1024.39,-404.96 1038.72,-398.77 1098.25,-384 1102.62,-382.92 1107.14,-381.79 1111.69,-380.66"/>
<polygon fill="black" stroke="black" points="1112.77,-383.99 1121.63,-378.18 1111.08,-377.2 1112.77,-383.99"/>
<text text-anchor="middle" x="1039.25" y="-405.8" font-family="Times,serif" font-size="14.00">हेतु</text>
</g>
<!-- 32 -->
<g id="node32" class="node">
<title>32</title>
<g id="a_node32"><a xlink:title="अच्युत{पुं}{8;एक}">
<ellipse fill="#7fffd4" stroke="#7fffd4" cx="1304.25" cy="-366" rx="59.59" ry="18"/>
<text text-anchor="middle" x="1304.25" y="-362.3" font-family="Times,serif" font-size="14.00">अ&#45;च्युत (32)</text>
</a>
</g>
</g>
<!-- 6&#45;&gt;32 -->
<g id="edge32" class="edge">
<title>6&#45;&gt;32</title>
<path fill="none" stroke="black" d="M784.39,-447.84C845.72,-442.08 957.4,-430.82 1052.25,-417 1134.03,-405.08 1154.42,-401.23 1235.25,-384 1240.17,-382.95 1245.28,-381.8 1250.39,-380.62"/>
<polygon fill="black" stroke="black" points="1251.25,-384.01 1260.17,-378.3 1249.63,-377.2 1251.25,-384.01"/>
<text text-anchor="middle" x="1169.75" y="-405.8" font-family="Times,serif" font-size="14.00">सम्बोध्यः</text>
</g>
<!-- 7 -->
<g id="node7" class="node">
<title>7</title>
<g id="a_node7"><a xlink:title="हे{अव्य}">
<ellipse fill="#ff00ff" stroke="#ff00ff" cx="671.25" cy="-279" rx="31.7" ry="18"/>
<text text-anchor="middle" x="671.25" y="-275.3" font-family="Times,serif" font-size="14.00">हे (7)</text>
</a>
</g>
</g>
<!-- 8&#45;&gt;7 -->
<g id="edge6" class="edge">
<title>8&#45;&gt;7</title>
<path fill="none" stroke="black" d="M671.25,-347.8C671.25,-336.16 671.25,-320.55 671.25,-307.24"/>
<polygon fill="black" stroke="black" points="674.75,-307.18 671.25,-297.18 667.75,-307.18 674.75,-307.18"/>
<text text-anchor="middle" x="714.75" y="-318.8" font-family="Times,serif" font-size="14.00">सम्बोधनसूचकम्</text>
</g>
<!-- 9 -->
<g id="node9" class="node">
<title>9</title>
<g id="a_node9"><a xlink:title="हे{अव्य}">
<ellipse fill="#ff00ff" stroke="#ff00ff" cx="783.25" cy="-279" rx="31.7" ry="18"/>
<text text-anchor="middle" x="783.25" y="-275.3" font-family="Times,serif" font-size="14.00">हे (9)</text>
</a>
</g>
</g>
<!-- 10&#45;&gt;9 -->
<g id="edge8" class="edge">
<title>10&#45;&gt;9</title>
<path fill="none" stroke="black" d="M783.25,-347.8C783.25,-336.16 783.25,-320.55 783.25,-307.24"/>
<polygon fill="black" stroke="black" points="786.75,-307.18 783.25,-297.18 779.75,-307.18 786.75,-307.18"/>
<text text-anchor="middle" x="826.75" y="-318.8" font-family="Times,serif" font-size="14.00">सम्बोधनसूचकम्</text>
</g>
<!-- 11 -->
<g id="node11" class="node">
<title>11</title>
<g id="a_node11"><a xlink:title="हे{अव्य}">
<ellipse fill="#ff00ff" stroke="#ff00ff" cx="898.25" cy="-279" rx="37.89" ry="18"/>
<text text-anchor="middle" x="898.25" y="-275.3" font-family="Times,serif" font-size="14.00">हे (11)</text>
</a>
</g>
</g>
<!-- 12&#45;&gt;11 -->
<g id="edge10" class="edge">
<title>12&#45;&gt;11</title>
<path fill="none" stroke="black" d="M898.25,-347.8C898.25,-336.16 898.25,-320.55 898.25,-307.24"/>
<polygon fill="black" stroke="black" points="901.75,-307.18 898.25,-297.18 894.75,-307.18 901.75,-307.18"/>
<text text-anchor="middle" x="941.75" y="-318.8" font-family="Times,serif" font-size="14.00">सम्बोधनसूचकम्</text>
</g>
<!-- 14 -->
<g id="node14" class="node">
<title>14</title>
<g id="a_node14"><a xlink:title="न&#45;ज्ञा2{कृत्_प्रत्ययः:शतृ;ज्ञा;क्र्यादिः;पुं}{3;एक}">
<ellipse fill="#40e0d0" stroke="#40e0d0" cx="424.25" cy="-192" rx="66.89" ry="18"/>
<text text-anchor="middle" x="424.25" y="-188.3" font-family="Times,serif" font-size="14.00">अ&#45;जानता (14)</text>
</a>
</g>
</g>
<!-- 15 -->
<g id="node15" class="node">
<title>15</title>
<g id="a_node15"><a xlink:title="महिमन्{पुं}{2;एक}">
<ellipse fill="#7cfc00" stroke="#7cfc00" cx="424.25" cy="-105" rx="65.79" ry="18"/>
<text text-anchor="middle" x="424.25" y="-101.3" font-family="Times,serif" font-size="14.00">महिमानम् (15)</text>
</a>
</g>
</g>
<!-- 14&#45;&gt;15 -->
<g id="edge14" class="edge">
<title>14&#45;&gt;15</title>
<path fill="none" stroke="black" d="M424.25,-173.8C424.25,-162.16 424.25,-146.55 424.25,-133.24"/>
<polygon fill="black" stroke="black" points="427.75,-133.18 424.25,-123.18 420.75,-133.18 427.75,-133.18"/>
<text text-anchor="middle" x="434.25" y="-144.8" font-family="Times,serif" font-size="14.00">कर्म</text>
</g>
<!-- 16 -->
<g id="node16" class="node">
<title>16</title>
<g id="a_node16"><a xlink:title="युष्मद्{6;एक}">
<ellipse fill="#87ceeb" stroke="#87ceeb" cx="424.25" cy="-18" rx="43.59" ry="18"/>
<text text-anchor="middle" x="424.25" y="-14.3" font-family="Times,serif" font-size="14.00">तव (16)</text>
</a>
</g>
</g>
<!-- 15&#45;&gt;16 -->
<g id="edge15" class="edge">
<title>15&#45;&gt;16</title>
<path fill="none" stroke="black" d="M424.25,-86.8C424.25,-75.16 424.25,-59.55 424.25,-46.24"/>
<polygon fill="black" stroke="black" points="427.75,-46.18 424.25,-36.18 420.75,-46.18 427.75,-46.18"/>
<text text-anchor="middle" x="460.25" y="-57.8" font-family="Times,serif" font-size="14.00">षष्ठीसम्बन्धः</text>
</g>
<!-- 18&#45;&gt;14 -->
<g id="edge13" class="edge">
<title>18&#45;&gt;14</title>
<path fill="none" stroke="black" d="M363.71,-261.61C374.84,-248.99 390.4,-231.36 402.95,-217.13"/>
<polygon fill="black" stroke="black" points="405.58,-219.44 409.57,-209.63 400.33,-214.81 405.58,-219.44"/>
<text text-anchor="middle" x="418.75" y="-231.8" font-family="Times,serif" font-size="14.00">विशेषणम् </text>
</g>
<!-- 21 -->
<g id="node21" class="node">
<title>21</title>
<g id="a_node21"><a xlink:title="वा{अव्य}">
<ellipse fill="#ff00ff" stroke="#ff00ff" cx="1025.25" cy="-279" rx="40.09" ry="18"/>
<text text-anchor="middle" x="1025.25" y="-275.3" font-family="Times,serif" font-size="14.00">वा (21)</text>
</a>
</g>
</g>
<!-- 19&#45;&gt;21 -->
<g id="edge21" class="edge">
<title>19&#45;&gt;21</title>
<path fill="none" stroke="black" d="M1025.25,-347.8C1025.25,-336.16 1025.25,-320.55 1025.25,-307.24"/>
<polygon fill="black" stroke="black" points="1028.75,-307.18 1025.25,-297.18 1021.75,-307.18 1028.75,-307.18"/>
<text text-anchor="middle" x="1048.25" y="-318.8" font-family="Times,serif" font-size="14.00">सम्बन्धः</text>
</g>
<!-- 22 -->
<g id="node22" class="node">
<title>22</title>
<g id="a_node22"><a xlink:title="अपि{अव्य}">
<ellipse fill="#ff00ff" stroke="#ff00ff" cx="1166.25" cy="-279" rx="48.19" ry="18"/>
<text text-anchor="middle" x="1166.25" y="-275.3" font-family="Times,serif" font-size="14.00">अपि (22)</text>
</a>
</g>
</g>
<!-- 20&#45;&gt;22 -->
<g id="edge22" class="edge">
<title>20&#45;&gt;22</title>
<path fill="none" stroke="black" d="M1166.25,-347.8C1166.25,-336.16 1166.25,-320.55 1166.25,-307.24"/>
<polygon fill="black" stroke="black" points="1169.75,-307.18 1166.25,-297.18 1162.75,-307.18 1169.75,-307.18"/>
<text text-anchor="middle" x="1189.25" y="-318.8" font-family="Times,serif" font-size="14.00">सम्बन्धः</text>
</g>
<!-- 24 -->
<g id="node24" class="node">
<title>24</title>
<g id="a_node24"><a xlink:title="च{अव्य}">
<ellipse fill="#ff00ff" stroke="#ff00ff" cx="1166.25" cy="-192" rx="38.99" ry="18"/>
<text text-anchor="middle" x="1166.25" y="-188.3" font-family="Times,serif" font-size="14.00">च (24)</text>
</a>
</g>
</g>
<!-- 22&#45;&gt;24 -->
<g id="edge24" class="edge">
<title>22&#45;&gt;24</title>
<path fill="none" stroke="black" d="M1166.25,-260.8C1166.25,-249.16 1166.25,-233.55 1166.25,-220.24"/>
<polygon fill="black" stroke="black" points="1169.75,-220.18 1166.25,-210.18 1162.75,-220.18 1169.75,-220.18"/>
<text text-anchor="middle" x="1189.25" y="-231.8" font-family="Times,serif" font-size="14.00">सम्बन्धः</text>
</g>
<!-- 23 -->
<g id="node23" class="node">
<title>23</title>
<g id="a_node23"><a xlink:title="यद्{नपुं}{2;एक}">
<ellipse fill="#7cfc00" stroke="#7cfc00" cx="1623.25" cy="-279" rx="44.39" ry="18"/>
<text text-anchor="middle" x="1623.25" y="-275.3" font-family="Times,serif" font-size="14.00">यत् (23)</text>
</a>
</g>
</g>
<!-- 25 -->
<g id="node25" class="node">
<title>25</title>
<g id="a_node25"><a xlink:title="अवहासार्थ{नपुं}{4;एक}">
<ellipse fill="#87cefa" stroke="#87cefa" cx="1456.25" cy="-366" rx="74.19" ry="18"/>
<text text-anchor="middle" x="1456.25" y="-362.3" font-family="Times,serif" font-size="14.00">अवहासार्थम् (25)</text>
</a>
</g>
</g>
<!-- 26 -->
<g id="node26" class="node">
<title>26</title>
<g id="a_node26"><a xlink:title="असद्&#45;कृत्{पुं}{1;एक}">
<ellipse fill="#00bfff" stroke="#00bfff" cx="1623.25" cy="-366" rx="74.99" ry="18"/>
<text text-anchor="middle" x="1623.25" y="-362.3" font-family="Times,serif" font-size="14.00">अ&#45;सत्&#45;कृतः (26)</text>
</a>
</g>
</g>
<!-- 26&#45;&gt;23 -->
<g id="edge23" class="edge">
<title>26&#45;&gt;23</title>
<path fill="none" stroke="black" d="M1623.25,-347.8C1623.25,-336.16 1623.25,-320.55 1623.25,-307.24"/>
<polygon fill="black" stroke="black" points="1626.75,-307.18 1623.25,-297.18 1619.75,-307.18 1626.75,-307.18"/>
<text text-anchor="middle" x="1650.75" y="-318.8" font-family="Times,serif" font-size="14.00">विशेषणम् </text>
</g>
<!-- 27&#45;&gt;1 -->
<g id="edge1" class="edge">
<title>27&#45;&gt;1</title>
<path fill="none" stroke="black" d="M172.3,-273.02C130.93,-267.72 74.76,-258 58.25,-243 51.72,-237.07 47.85,-228.49 45.55,-220.11"/>
<polygon fill="black" stroke="black" points="48.94,-219.23 43.45,-210.16 42.09,-220.67 48.94,-219.23"/>
<text text-anchor="middle" x="112.25" y="-231.8" font-family="Times,serif" font-size="14.00">कर्तृसमानाधिकरणम् </text>
</g>
<!-- 27&#45;&gt;2 -->
<g id="edge2" class="edge">
<title>27&#45;&gt;2</title>
<path fill="none" stroke="black" d="M193,-263.68C185.59,-258.24 178.42,-251.32 174.25,-243 170.77,-236.06 169.6,-227.88 169.54,-220.16"/>
<polygon fill="black" stroke="black" points="173.04,-220.25 170.06,-210.08 166.05,-219.89 173.04,-220.25"/>
<text text-anchor="middle" x="218.75" y="-231.8" font-family="Times,serif" font-size="14.00">वाक्यकर्मद्योतकः</text>
</g>
<!-- 39 -->
<g id="node39" class="node">
<title>39</title>
<g id="a_node39"><a xlink:title="(युष्मद्{1;एक})">
<ellipse fill="#00bfff" stroke="#00bfff" cx="285.25" cy="-192" rx="53.89" ry="18"/>
<text text-anchor="middle" x="285.25" y="-188.3" font-family="Times,serif" font-size="14.00">(त्वम्) (39)</text>
</a>
</g>
</g>
<!-- 27&#45;&gt;39 -->
<g id="edge38" class="edge">
<title>27&#45;&gt;39</title>
<path fill="none" stroke="black" d="M242.62,-262.77C249.91,-257.2 257.53,-250.42 263.25,-243 268.6,-236.06 272.95,-227.61 276.33,-219.65"/>
<polygon fill="black" stroke="black" points="279.6,-220.91 279.97,-210.32 273.08,-218.36 279.6,-220.91"/>
<text text-anchor="middle" x="284.75" y="-231.8" font-family="Times,serif" font-size="14.00">कर्ता</text>
</g>
<!-- 28 -->
<g id="node28" class="node">
<title>28</title>
<g id="a_node28"><a xlink:title="विहार&#45;शय्या&#45;आसन&#45;भोजन{नपुं}{7;बहु}">
<ellipse fill="#708090" stroke="#708090" cx="1843.25" cy="-366" rx="127.28" ry="18"/>
<text text-anchor="middle" x="1843.25" y="-362.3" font-family="Times,serif" font-size="14.00">विहार&#45;शय्या&#45;आसन&#45;भोजनेषु (28)</text>
</a>
</g>
</g>
<!-- 29 -->
<g id="node29" class="node">
<title>29</title>
<g id="a_node29"><a xlink:title="एक{पुं}{1;एक}">
<ellipse fill="#00bfff" stroke="#00bfff" cx="2370.25" cy="-279" rx="48.19" ry="18"/>
<text text-anchor="middle" x="2370.25" y="-275.3" font-family="Times,serif" font-size="14.00">एकः (29)</text>
</a>
</g>
</g>
<!-- 30 -->
<g id="node30" class="node">
<title>30</title>
<g id="a_node30"><a xlink:title="अथवा{अव्य}">
<ellipse fill="#ff00ff" stroke="#ff00ff" cx="2370.25" cy="-192" rx="54.69" ry="18"/>
<text text-anchor="middle" x="2370.25" y="-188.3" font-family="Times,serif" font-size="14.00">अथवा (30)</text>
</a>
</g>
</g>
<!-- 29&#45;&gt;30 -->
<g id="edge30" class="edge">
<title>29&#45;&gt;30</title>
<path fill="none" stroke="black" d="M2370.25,-260.8C2370.25,-249.16 2370.25,-233.55 2370.25,-220.24"/>
<polygon fill="black" stroke="black" points="2373.75,-220.18 2370.25,-210.18 2366.75,-220.18 2373.75,-220.18"/>
<text text-anchor="middle" x="2393.25" y="-231.8" font-family="Times,serif" font-size="14.00">सम्बन्धः</text>
</g>
<!-- 31 -->
<g id="node31" class="node">
<title>31</title>
<g id="a_node31"><a xlink:title="अपि{अव्य}">
<ellipse fill="#ff00ff" stroke="#ff00ff" cx="2370.25" cy="-105" rx="48.19" ry="18"/>
<text text-anchor="middle" x="2370.25" y="-101.3" font-family="Times,serif" font-size="14.00">अपि (31)</text>
</a>
</g>
</g>
<!-- 30&#45;&gt;31 -->
<g id="edge31" class="edge">
<title>30&#45;&gt;31</title>
<path fill="none" stroke="black" d="M2370.25,-173.8C2370.25,-162.16 2370.25,-146.55 2370.25,-133.24"/>
<polygon fill="black" stroke="black" points="2373.75,-133.18 2370.25,-123.18 2366.75,-133.18 2373.75,-133.18"/>
<text text-anchor="middle" x="2393.25" y="-144.8" font-family="Times,serif" font-size="14.00">सम्बन्धः</text>
</g>
<!-- 33 -->
<g id="node33" class="node">
<title>33</title>
<g id="a_node33"><a xlink:title="तद्&#45;समक्ष{नपुं}{1;एक}">
<ellipse fill="#00bfff" stroke="#00bfff" cx="2061.25" cy="-366" rx="72.59" ry="18"/>
<text text-anchor="middle" x="2061.25" y="-362.3" font-family="Times,serif" font-size="14.00">तत्&#45;समक्षम् (33)</text>
</a>
</g>
</g>
<!-- 34 -->
<g id="node34" class="node">
<title>34</title>
<g id="a_node34"><a xlink:title="तद्{नपुं}{2;एक}">
<ellipse fill="#7cfc00" stroke="#7cfc00" cx="2490.25" cy="-366" rx="44.39" ry="18"/>
<text text-anchor="middle" x="2490.25" y="-362.3" font-family="Times,serif" font-size="14.00">तत् (34)</text>
</a>
</g>
</g>
<!-- 35 -->
<g id="node35" class="node">
<title>35</title>
<g id="a_node35"><a xlink:title="क्षम्1_णिच्{कर्तरि;लट्;उ;एक;आत्मनेपदी;क्षमूँष्_णिच्;भ्वादिः}">
<ellipse fill="#ff6347" stroke="#ff6347" cx="2602.25" cy="-453" rx="53.89" ry="18"/>
<text text-anchor="middle" x="2602.25" y="-449.3" font-family="Times,serif" font-size="14.00">क्षामये (35)</text>
</a>
</g>
</g>
<!-- 35&#45;&gt;34 -->
<g id="edge34" class="edge">
<title>35&#45;&gt;34</title>
<path fill="none" stroke="black" d="M2581.14,-436.39C2573.02,-430.36 2563.68,-423.39 2555.25,-417 2542.91,-407.67 2529.34,-397.25 2517.81,-388.35"/>
<polygon fill="black" stroke="black" points="2519.87,-385.52 2509.81,-382.18 2515.59,-391.06 2519.87,-385.52"/>
<text text-anchor="middle" x="2576.75" y="-405.8" font-family="Times,serif" font-size="14.00">गौणकर्म</text>
</g>
<!-- 36 -->
<g id="node36" class="node">
<title>36</title>
<g id="a_node36"><a xlink:title="युष्मद्{2;एक}">
<ellipse fill="#7cfc00" stroke="#7cfc00" cx="2602.25" cy="-366" rx="50.09" ry="18"/>
<text text-anchor="middle" x="2602.25" y="-362.3" font-family="Times,serif" font-size="14.00">त्वाम् (36)</text>
</a>
</g>
</g>
<!-- 35&#45;&gt;36 -->
<g id="edge35" class="edge">
<title>35&#45;&gt;36</title>
<path fill="none" stroke="black" d="M2602.25,-434.8C2602.25,-423.16 2602.25,-407.55 2602.25,-394.24"/>
<polygon fill="black" stroke="black" points="2605.75,-394.18 2602.25,-384.18 2598.75,-394.18 2605.75,-394.18"/>
<text text-anchor="middle" x="2625.25" y="-405.8" font-family="Times,serif" font-size="14.00">मुख्यकर्म</text>
</g>
<!-- 37 -->
<g id="node37" class="node">
<title>37</title>
<g id="a_node37"><a xlink:title="अस्मद्{1;एक}">
<ellipse fill="#00bfff" stroke="#00bfff" cx="2721.25" cy="-366" rx="50.89" ry="18"/>
<text text-anchor="middle" x="2721.25" y="-362.3" font-family="Times,serif" font-size="14.00">अहम् (37)</text>
</a>
</g>
</g>
<!-- 35&#45;&gt;37 -->
<g id="edge36" class="edge">
<title>35&#45;&gt;37</title>
<path fill="none" stroke="black" d="M2624.7,-436.4C2633.34,-430.37 2643.27,-423.39 2652.25,-417 2665.37,-407.66 2679.81,-397.22 2692.07,-388.3"/>
<polygon fill="black" stroke="black" points="2694.15,-391.12 2700.17,-382.41 2690.03,-385.46 2694.15,-391.12"/>
<text text-anchor="middle" x="2683.75" y="-405.8" font-family="Times,serif" font-size="14.00">कर्ता</text>
</g>
<!-- 38 -->
<g id="node38" class="node">
<title>38</title>
<g id="a_node38"><a xlink:title="न&#45;प्रमेय{पुं}{2;एक}">
<ellipse fill="#7cfc00" stroke="#7cfc00" cx="2223.25" cy="-366" rx="70.69" ry="18"/>
<text text-anchor="middle" x="2223.25" y="-362.3" font-family="Times,serif" font-size="14.00">अ&#45;प्रमेयम् (38)</text>
</a>
</g>
</g>
<!-- 40 -->
<g id="node40" class="node">
<title>40</title>
<g id="a_node40"><a xlink:title="(अस्2{कर्तरि;लट्;उ;एक;परस्मैपदी;असँ;अदादिः})">
<ellipse fill="#ff6347" stroke="#ff6347" cx="1952.25" cy="-453" rx="60.39" ry="18"/>
<text text-anchor="middle" x="1952.25" y="-449.3" font-family="Times,serif" font-size="14.00">(अस्मि) (40)</text>
</a>
</g>
</g>
<!-- 40&#45;&gt;25 -->
<g id="edge25" class="edge">
<title>40&#45;&gt;25</title>
<path fill="none" stroke="black" d="M1895.33,-446.78C1837.99,-441.09 1747.1,-430.91 1669.25,-417 1616.28,-407.54 1556.72,-393.24 1514.08,-382.35"/>
<polygon fill="black" stroke="black" points="1514.71,-378.9 1504.16,-379.8 1512.97,-385.68 1514.71,-378.9"/>
<text text-anchor="middle" x="1696.75" y="-405.8" font-family="Times,serif" font-size="14.00">प्रयोजनम्</text>
</g>
<!-- 40&#45;&gt;26 -->
<g id="edge26" class="edge">
<title>40&#45;&gt;26</title>
<path fill="none" stroke="black" d="M1901.19,-443.2C1866.56,-436.86 1819.87,-427.59 1779.25,-417 1743.36,-407.65 1703.56,-394.85 1673.14,-384.55"/>
<polygon fill="black" stroke="black" points="1674.21,-381.21 1663.62,-381.3 1671.95,-387.84 1674.21,-381.21"/>
<text text-anchor="middle" x="1833.25" y="-405.8" font-family="Times,serif" font-size="14.00">कर्तृसमानाधिकरणम् </text>
</g>
<!-- 40&#45;&gt;28 -->
<g id="edge28" class="edge">
<title>40&#45;&gt;28</title>
<path fill="none" stroke="black" d="M1931.74,-436.01C1915.09,-423.03 1891.39,-404.54 1872.7,-389.97"/>
<polygon fill="black" stroke="black" points="1874.81,-387.18 1864.78,-383.79 1870.51,-392.7 1874.81,-387.18"/>
<text text-anchor="middle" x="1937.75" y="-405.8" font-family="Times,serif" font-size="14.00">अधिकरणम् </text>
</g>
<!-- 40&#45;&gt;33 -->
<g id="edge33" class="edge">
<title>40&#45;&gt;33</title>
<path fill="none" stroke="black" d="M1972.75,-436.01C1989.51,-422.94 2013.41,-404.3 2032.15,-389.69"/>
<polygon fill="black" stroke="black" points="2034.36,-392.41 2040.09,-383.5 2030.05,-386.89 2034.36,-392.41"/>
<text text-anchor="middle" x="2058.25" y="-405.8" font-family="Times,serif" font-size="14.00">क्रियाविशेषणम् </text>
</g>
<!-- 40&#45;&gt;38 -->
<g id="edge37" class="edge">
<title>40&#45;&gt;38</title>
<path fill="none" stroke="black" d="M2002.45,-442.97C2032.86,-436.92 2072.21,-428.04 2106.25,-417 2132.17,-408.59 2160.28,-396.67 2182.45,-386.58"/>
<polygon fill="black" stroke="black" points="2183.94,-389.75 2191.56,-382.39 2181.02,-383.39 2183.94,-389.75"/>
<text text-anchor="middle" x="2171.75" y="-405.8" font-family="Times,serif" font-size="14.00">सम्बोध्यः</text>
</g>
<!-- 41 -->
<g id="node41" class="node">
<title>41</title>
<g id="a_node41"><a xlink:title="(अस्मद्{1;एक})">
<ellipse fill="#00bfff" stroke="#00bfff" cx="2370.25" cy="-366" rx="57.69" ry="18"/>
<text text-anchor="middle" x="2370.25" y="-362.3" font-family="Times,serif" font-size="14.00">(अहम्) (41)</text>
</a>
</g>
</g>
<!-- 40&#45;&gt;41 -->
<g id="edge39" class="edge">
<title>40&#45;&gt;41</title>
<path fill="none" stroke="black" d="M2009.04,-446.44C2059.78,-440.9 2135.97,-431.16 2201.25,-417 2243.02,-407.94 2289.53,-393.87 2323.17,-382.97"/>
<polygon fill="black" stroke="black" points="2324.32,-386.27 2332.74,-379.84 2322.15,-379.62 2324.32,-386.27"/>
<text text-anchor="middle" x="2270.75" y="-405.8" font-family="Times,serif" font-size="14.00">कर्ता</text>
</g>
<!-- 41&#45;&gt;29 -->
<g id="edge29" class="edge">
<title>41&#45;&gt;29</title>
<path fill="none" stroke="black" d="M2370.25,-347.8C2370.25,-336.16 2370.25,-320.55 2370.25,-307.24"/>
<polygon fill="black" stroke="black" points="2373.75,-307.18 2370.25,-297.18 2366.75,-307.18 2373.75,-307.18"/>
<text text-anchor="middle" x="2397.75" y="-318.8" font-family="Times,serif" font-size="14.00">विशेषणम् </text>
</g>
</g>
</svg>
