<?xml version="1.0" encoding="UTF-8" standalone="no"?>
<!DOCTYPE svg PUBLIC "-//W3C//DTD SVG 1.1//EN"
 "http://www.w3.org/Graphics/SVG/1.1/DTD/svg11.dtd">
<!-- Generated by graphviz version 2.43.0 (0)
 -->
<!-- Title: %3 Pages: 1 -->
<svg width="1356pt" height="305pt"
 viewBox="0.00 0.00 1355.84 305.00" xmlns="http://www.w3.org/2000/svg" xmlns:xlink="http://www.w3.org/1999/xlink">
<g id="graph0" class="graph" transform="scale(1 1) rotate(0) translate(4 301)">
<title>%3</title>
<polygon fill="#fffacd" stroke="transparent" points="-4,4 -4,-301 1351.84,-301 1351.84,4 -4,4"/>
<!-- 1 -->
<g id="node1" class="node">
<title>1</title>
<g id="a_node1"><a xlink:title="अस्मद्{3;एक}">
<ellipse fill="#40e0d0" stroke="#40e0d0" cx="202.84" cy="-192" rx="40.09" ry="18"/>
<text text-anchor="middle" x="202.84" y="-188.3" font-family="Times,serif" font-size="14.00">मया (1)</text>
</a>
</g>
</g>
<!-- 2 -->
<g id="node2" class="node">
<title>2</title>
<g id="a_node2"><a xlink:title="प्रसन्न{पुं}{3;एक}">
<ellipse fill="#40e0d0" stroke="#40e0d0" cx="57.84" cy="-105" rx="57.69" ry="18"/>
<text text-anchor="middle" x="57.84" y="-101.3" font-family="Times,serif" font-size="14.00">प्रसन्नेन (2)</text>
</a>
</g>
</g>
<!-- 1&#45;&gt;2 -->
<g id="edge2" class="edge">
<title>1&#45;&gt;2</title>
<path fill="none" stroke="black" d="M175.42,-178.55C162.05,-172.22 145.87,-164.14 131.84,-156 117,-147.38 101.15,-136.86 87.94,-127.7"/>
<polygon fill="black" stroke="black" points="89.88,-124.78 79.68,-121.91 85.86,-130.51 89.88,-124.78"/>
<text text-anchor="middle" x="157.34" y="-144.8" font-family="Times,serif" font-size="14.00">विशेषणम्</text>
</g>
<!-- 3 -->
<g id="node3" class="node">
<title>3</title>
<g id="a_node3"><a xlink:title="युष्मद्{6;एक}">
<ellipse fill="#87ceeb" stroke="#87ceeb" cx="1275.84" cy="-192" rx="37.89" ry="18"/>
<text text-anchor="middle" x="1275.84" y="-188.3" font-family="Times,serif" font-size="14.00">तव (3)</text>
</a>
</g>
</g>
<!-- 4 -->
<g id="node4" class="node">
<title>4</title>
<g id="a_node4"><a xlink:title="अर्जुन{पुं}{8;एक}">
<ellipse fill="#7fffd4" stroke="#7fffd4" cx="451.84" cy="-192" rx="46.59" ry="18"/>
<text text-anchor="middle" x="451.84" y="-188.3" font-family="Times,serif" font-size="14.00">अर्जुन (4)</text>
</a>
</g>
</g>
<!-- 5 -->
<g id="node5" class="node">
<title>5</title>
<g id="a_node5"><a xlink:title="इदम्{नपुं}{2;एक}">
<ellipse fill="#7cfc00" stroke="#7cfc00" cx="560.84" cy="-105" rx="42.49" ry="18"/>
<text text-anchor="middle" x="560.84" y="-101.3" font-family="Times,serif" font-size="14.00">इदम् (5)</text>
</a>
</g>
</g>
<!-- 6 -->
<g id="node6" class="node">
<title>6</title>
<g id="a_node6"><a xlink:title="रूप{नपुं}{2;एक}">
<ellipse fill="#7cfc00" stroke="#7cfc00" cx="560.84" cy="-192" rx="44.39" ry="18"/>
<text text-anchor="middle" x="560.84" y="-188.3" font-family="Times,serif" font-size="14.00">रूपम् (6)</text>
</a>
</g>
</g>
<!-- 6&#45;&gt;5 -->
<g id="edge5" class="edge">
<title>6&#45;&gt;5</title>
<path fill="none" stroke="black" d="M560.84,-173.8C560.84,-162.16 560.84,-146.55 560.84,-133.24"/>
<polygon fill="black" stroke="black" points="564.34,-133.18 560.84,-123.18 557.34,-133.18 564.34,-133.18"/>
<text text-anchor="middle" x="586.34" y="-144.8" font-family="Times,serif" font-size="14.00">विशेषणम्</text>
</g>
<!-- 7 -->
<g id="node7" class="node">
<title>7</title>
<g id="a_node7"><a xlink:title="पर{नपुं}{2;एक}">
<ellipse fill="#7cfc00" stroke="#7cfc00" cx="662.84" cy="-105" rx="41.69" ry="18"/>
<text text-anchor="middle" x="662.84" y="-101.3" font-family="Times,serif" font-size="14.00">परम् (7)</text>
</a>
</g>
</g>
<!-- 6&#45;&gt;7 -->
<g id="edge7" class="edge">
<title>6&#45;&gt;7</title>
<path fill="none" stroke="black" d="M585.57,-177.08C595.38,-171.1 606.52,-163.72 615.84,-156 625.26,-148.21 634.68,-138.63 642.58,-129.95"/>
<polygon fill="black" stroke="black" points="645.35,-132.11 649.37,-122.31 640.11,-127.46 645.35,-132.11"/>
<text text-anchor="middle" x="657.34" y="-144.8" font-family="Times,serif" font-size="14.00">विशेषणम्</text>
</g>
<!-- 10 -->
<g id="node10" class="node">
<title>10</title>
<g id="a_node10"><a xlink:title="तेजोमय{नपुं}{2;एक}">
<ellipse fill="#7cfc00" stroke="#7cfc00" cx="787.84" cy="-105" rx="65.79" ry="18"/>
<text text-anchor="middle" x="787.84" y="-101.3" font-family="Times,serif" font-size="14.00">तेजोमयम् (10)</text>
</a>
</g>
</g>
<!-- 6&#45;&gt;10 -->
<g id="edge9" class="edge">
<title>6&#45;&gt;10</title>
<path fill="none" stroke="black" d="M594.1,-179.95C600.62,-177.89 607.43,-175.82 613.84,-174 646,-164.89 655.46,-167.48 686.84,-156 709.11,-147.85 732.93,-136.22 751.84,-126.22"/>
<polygon fill="black" stroke="black" points="753.54,-129.28 760.7,-121.47 750.23,-123.11 753.54,-129.28"/>
<text text-anchor="middle" x="747.34" y="-144.8" font-family="Times,serif" font-size="14.00">विशेषणम्</text>
</g>
<!-- 11 -->
<g id="node11" class="node">
<title>11</title>
<g id="a_node11"><a xlink:title="विश्व{नपुं}{2;एक}">
<ellipse fill="#7cfc00" stroke="#7cfc00" cx="928.84" cy="-105" rx="57.39" ry="18"/>
<text text-anchor="middle" x="928.84" y="-101.3" font-family="Times,serif" font-size="14.00">विश्वम् (11)</text>
</a>
</g>
</g>
<!-- 6&#45;&gt;11 -->
<g id="edge10" class="edge">
<title>6&#45;&gt;11</title>
<path fill="none" stroke="black" d="M593.08,-179.53C599.87,-177.43 607.04,-175.45 613.84,-174 685.13,-158.79 705.62,-171.47 776.84,-156 814.04,-147.92 854.96,-134.17 884.96,-123.13"/>
<polygon fill="black" stroke="black" points="886.55,-126.27 894.7,-119.5 884.11,-119.71 886.55,-126.27"/>
<text text-anchor="middle" x="858.34" y="-144.8" font-family="Times,serif" font-size="14.00">विशेषणम्</text>
</g>
<!-- 12 -->
<g id="node12" class="node">
<title>12</title>
<g id="a_node12"><a xlink:title="अनन्त{पुं}{2;एक}">
<ellipse fill="#7cfc00" stroke="#7cfc00" cx="204.84" cy="-105" rx="71.49" ry="18"/>
<text text-anchor="middle" x="204.84" y="-101.3" font-family="Times,serif" font-size="14.00">अन्&#45;अन्तम् (12)</text>
</a>
</g>
</g>
<!-- 6&#45;&gt;12 -->
<g id="edge11" class="edge">
<title>6&#45;&gt;12</title>
<path fill="none" stroke="black" d="M528.61,-179.51C521.82,-177.41 514.65,-175.44 507.84,-174 433.94,-158.38 412.36,-173.34 338.84,-156 307.45,-148.6 273.41,-135.83 247.5,-125.05"/>
<polygon fill="black" stroke="black" points="248.56,-121.7 237.99,-121.03 245.84,-128.15 248.56,-121.7"/>
<text text-anchor="middle" x="364.34" y="-144.8" font-family="Times,serif" font-size="14.00">विशेषणम्</text>
</g>
<!-- 13 -->
<g id="node13" class="node">
<title>13</title>
<g id="a_node13"><a xlink:title="आद्य{नपुं}{2;एक}">
<ellipse fill="#7cfc00" stroke="#7cfc00" cx="349.84" cy="-105" rx="55.79" ry="18"/>
<text text-anchor="middle" x="349.84" y="-101.3" font-family="Times,serif" font-size="14.00">आद्यम् (13)</text>
</a>
</g>
</g>
<!-- 6&#45;&gt;13 -->
<g id="edge12" class="edge">
<title>6&#45;&gt;13</title>
<path fill="none" stroke="black" d="M527.93,-179.83C521.32,-177.76 514.39,-175.71 507.84,-174 469.23,-163.89 456.44,-171.95 419.84,-156 404.16,-149.16 388.5,-138.43 375.97,-128.66"/>
<polygon fill="black" stroke="black" points="377.83,-125.66 367.84,-122.11 373.43,-131.11 377.83,-125.66"/>
<text text-anchor="middle" x="445.34" y="-144.8" font-family="Times,serif" font-size="14.00">विशेषणम्</text>
</g>
<!-- 14 -->
<g id="node14" class="node">
<title>14</title>
<g id="a_node14"><a xlink:title="यद्{नपुं}{2;एक}">
<ellipse fill="#7cfc00" stroke="#7cfc00" cx="1047.84" cy="-105" rx="44.39" ry="18"/>
<text text-anchor="middle" x="1047.84" y="-101.3" font-family="Times,serif" font-size="14.00">यत् (14)</text>
</a>
</g>
</g>
<!-- 6&#45;&gt;14 -->
<g id="edge14" class="edge">
<title>6&#45;&gt;14</title>
<path fill="none" stroke="black" stroke-dasharray="1,5" d="M592.75,-179.38C599.63,-177.27 606.92,-175.32 613.84,-174 733.73,-151.19 767.83,-178.13 887.84,-156 929.6,-148.3 975.74,-133.13 1007.69,-121.52"/>
<polygon fill="black" stroke="black" points="1008.96,-124.78 1017.13,-118.04 1006.54,-118.21 1008.96,-124.78"/>
<text text-anchor="middle" x="982.84" y="-144.8" font-family="Times,serif" font-size="14.00">नित्यसम्बन्धः</text>
</g>
<!-- 15 -->
<g id="node15" class="node">
<title>15</title>
<g id="a_node15"><a xlink:title="अस्मद्{6;एक}">
<ellipse fill="#87ceeb" stroke="#87ceeb" cx="461.84" cy="-105" rx="38.19" ry="18"/>
<text text-anchor="middle" x="461.84" y="-101.3" font-family="Times,serif" font-size="14.00">मे (15)</text>
</a>
</g>
</g>
<!-- 6&#45;&gt;15 -->
<g id="edge15" class="edge">
<title>6&#45;&gt;15</title>
<path fill="none" stroke="black" d="M525.9,-180.86C511.76,-175.35 496.14,-167.3 484.84,-156 478.34,-149.49 473.47,-140.8 469.93,-132.5"/>
<polygon fill="black" stroke="black" points="473.18,-131.19 466.37,-123.07 466.63,-133.67 473.18,-131.19"/>
<text text-anchor="middle" x="520.84" y="-144.8" font-family="Times,serif" font-size="14.00">षष्ठीसम्बन्धः</text>
</g>
<!-- 8 -->
<g id="node8" class="node">
<title>8</title>
<g id="a_node8"><a xlink:title="दृश्1_णिच्{कृत्_प्रत्ययः:क्त;दृशिँर्_णिच्;भ्वादिः;नपुं}{1;एक}">
<ellipse fill="#00bfff" stroke="#00bfff" cx="560.84" cy="-279" rx="53.89" ry="18"/>
<text text-anchor="middle" x="560.84" y="-275.3" font-family="Times,serif" font-size="14.00">दर्शितम् (8)</text>
</a>
</g>
</g>
<!-- 8&#45;&gt;1 -->
<g id="edge1" class="edge">
<title>8&#45;&gt;1</title>
<path fill="none" stroke="black" d="M518.02,-267.83C449.74,-251.62 316.85,-220.07 247.46,-203.59"/>
<polygon fill="black" stroke="black" points="248.23,-200.18 237.7,-201.27 246.62,-206.99 248.23,-200.18"/>
<text text-anchor="middle" x="416.34" y="-231.8" font-family="Times,serif" font-size="14.00">कर्ता</text>
</g>
<!-- 8&#45;&gt;4 -->
<g id="edge4" class="edge">
<title>8&#45;&gt;4</title>
<path fill="none" stroke="black" d="M535.28,-263.07C525.78,-257.17 515.08,-250.12 505.84,-243 495.25,-234.83 484.29,-224.98 475.04,-216.19"/>
<polygon fill="black" stroke="black" points="477.34,-213.55 467.71,-209.12 472.47,-218.58 477.34,-213.55"/>
<text text-anchor="middle" x="531.34" y="-231.8" font-family="Times,serif" font-size="14.00">सम्बोध्यः</text>
</g>
<!-- 8&#45;&gt;6 -->
<g id="edge6" class="edge">
<title>8&#45;&gt;6</title>
<path fill="none" stroke="black" d="M560.84,-260.8C560.84,-249.16 560.84,-233.55 560.84,-220.24"/>
<polygon fill="black" stroke="black" points="564.34,-220.18 560.84,-210.18 557.34,-220.18 564.34,-220.18"/>
<text text-anchor="middle" x="570.84" y="-231.8" font-family="Times,serif" font-size="14.00">कर्म</text>
</g>
<!-- 9 -->
<g id="node9" class="node">
<title>9</title>
<g id="a_node9"><a xlink:title="आत्मन्&#45;योग{पुं}{5;एक}">
<ellipse fill="#90ee90" stroke="#90ee90" cx="694.84" cy="-192" rx="72.29" ry="18"/>
<text text-anchor="middle" x="694.84" y="-188.3" font-family="Times,serif" font-size="14.00">आत्म&#45;योगात् (9)</text>
</a>
</g>
</g>
<!-- 8&#45;&gt;9 -->
<g id="edge8" class="edge">
<title>8&#45;&gt;9</title>
<path fill="none" stroke="black" d="M584.8,-262.8C606.03,-249.34 637.25,-229.53 661.02,-214.45"/>
<polygon fill="black" stroke="black" points="663.16,-217.24 669.73,-208.93 659.41,-211.33 663.16,-217.24"/>
<text text-anchor="middle" x="648.34" y="-231.8" font-family="Times,serif" font-size="14.00">हेतुः</text>
</g>
<!-- 15.1 -->
<g id="node16" class="node">
<title>15.1</title>
<g id="a_node16"><a xlink:title="(सम्मुख{पुं}{7;एक})">
<ellipse fill="#708090" stroke="#708090" cx="856.84" cy="-192" rx="72.29" ry="18"/>
<text text-anchor="middle" x="856.84" y="-188.3" font-family="Times,serif" font-size="14.00">(सम्मुखे) (15.1)</text>
</a>
</g>
</g>
<!-- 8&#45;&gt;15.1 -->
<g id="edge16" class="edge">
<title>8&#45;&gt;15.1</title>
<path fill="none" stroke="black" d="M600.46,-266.62C652.13,-251.79 742.83,-225.74 801.34,-208.94"/>
<polygon fill="black" stroke="black" points="802.51,-212.24 811.16,-206.12 800.58,-205.52 802.51,-212.24"/>
<text text-anchor="middle" x="757.34" y="-231.8" font-family="Times,serif" font-size="14.00">अधिकरणम्</text>
</g>
<!-- 16 -->
<g id="node17" class="node">
<title>16</title>
<g id="a_node17"><a xlink:title="त्वद्&#45;अन्य{पुं}{3;एक}">
<ellipse fill="#40e0d0" stroke="#40e0d0" cx="1272.84" cy="-18" rx="73.39" ry="18"/>
<text text-anchor="middle" x="1272.84" y="-14.3" font-family="Times,serif" font-size="14.00">त्वत्&#45;अन्येन (16)</text>
</a>
</g>
</g>
<!-- 17 -->
<g id="node18" class="node">
<title>17</title>
<g id="a_node18"><a xlink:title="न{अव्य}">
<ellipse fill="#ff00ff" stroke="#ff00ff" cx="1148.84" cy="-105" rx="38.19" ry="18"/>
<text text-anchor="middle" x="1148.84" y="-101.3" font-family="Times,serif" font-size="14.00">न (17)</text>
</a>
</g>
</g>
<!-- 18 -->
<g id="node19" class="node">
<title>18</title>
<g id="a_node19"><a xlink:title="दृष्ट&#45;पूर्व{नपुं}{1;एक}">
<ellipse fill="#00bfff" stroke="#00bfff" cx="1272.84" cy="-105" rx="67.69" ry="18"/>
<text text-anchor="middle" x="1272.84" y="-101.3" font-family="Times,serif" font-size="14.00">दृष्ट&#45;पूर्वम् (18)</text>
</a>
</g>
</g>
<!-- 18&#45;&gt;16 -->
<g id="edge17" class="edge">
<title>18&#45;&gt;16</title>
<path fill="none" stroke="black" d="M1272.84,-86.8C1272.84,-75.16 1272.84,-59.55 1272.84,-46.24"/>
<polygon fill="black" stroke="black" points="1276.34,-46.18 1272.84,-36.18 1269.34,-46.18 1276.34,-46.18"/>
<text text-anchor="middle" x="1285.34" y="-57.8" font-family="Times,serif" font-size="14.00">कर्ता</text>
</g>
<!-- 18.1 -->
<g id="node20" class="node">
<title>18.1</title>
<g id="a_node20"><a xlink:title="(आस्1{कर्तरि;विधिलिङ्;प्र;एक;आत्मनेपदी;आसँ;अदादिः})">
<ellipse fill="#ff6347" stroke="#ff6347" cx="1148.84" cy="-192" rx="71.49" ry="18"/>
<text text-anchor="middle" x="1148.84" y="-188.3" font-family="Times,serif" font-size="14.00">(आसीत) (18.1)</text>
</a>
</g>
</g>
<!-- 18.1&#45;&gt;14 -->
<g id="edge13" class="edge">
<title>18.1&#45;&gt;14</title>
<path fill="none" stroke="black" d="M1129.37,-174.61C1113.71,-161.43 1091.54,-142.77 1074.27,-128.24"/>
<polygon fill="black" stroke="black" points="1076.14,-125.24 1066.24,-121.48 1071.64,-130.6 1076.14,-125.24"/>
<text text-anchor="middle" x="1117.34" y="-144.8" font-family="Times,serif" font-size="14.00">कर्ता</text>
</g>
<!-- 18.1&#45;&gt;17 -->
<g id="edge18" class="edge">
<title>18.1&#45;&gt;17</title>
<path fill="none" stroke="black" d="M1148.84,-173.8C1148.84,-162.16 1148.84,-146.55 1148.84,-133.24"/>
<polygon fill="black" stroke="black" points="1152.34,-133.18 1148.84,-123.18 1145.34,-133.18 1152.34,-133.18"/>
<text text-anchor="middle" x="1174.84" y="-144.8" font-family="Times,serif" font-size="14.00">प्रतिषेधः</text>
</g>
<!-- 18.1&#45;&gt;18 -->
<g id="edge19" class="edge">
<title>18.1&#45;&gt;18</title>
<path fill="none" stroke="black" d="M1175.04,-175.2C1184.53,-169.32 1195.26,-162.5 1204.84,-156 1217.72,-147.26 1231.62,-137.16 1243.48,-128.34"/>
<polygon fill="black" stroke="black" points="1245.8,-130.98 1251.7,-122.18 1241.6,-125.37 1245.8,-130.98"/>
<text text-anchor="middle" x="1277.84" y="-144.8" font-family="Times,serif" font-size="14.00">कर्तृसमानाधिकरणम्</text>
</g>
<!-- 13.1 -->
<g id="node21" class="node">
<title>13.1</title>
<ellipse fill="lightgrey" stroke="black" cx="1275.84" cy="-279" rx="31.4" ry="18"/>
<text text-anchor="middle" x="1275.84" y="-275.3" font-family="Times,serif" font-size="14.00">13.1</text>
</g>
<!-- 13.1&#45;&gt;3 -->
<g id="edge3" class="edge">
<title>13.1&#45;&gt;3</title>
<path fill="none" stroke="black" d="M1275.84,-260.8C1275.84,-249.16 1275.84,-233.55 1275.84,-220.24"/>
<polygon fill="black" stroke="black" points="1279.34,-220.18 1275.84,-210.18 1272.34,-220.18 1279.34,-220.18"/>
<text text-anchor="middle" x="1311.84" y="-231.8" font-family="Times,serif" font-size="14.00">षष्ठीसम्बन्धः</text>
</g>
</g>
</svg>
