<?xml version="1.0" encoding="UTF-8" standalone="no"?>
<!DOCTYPE svg PUBLIC "-//W3C//DTD SVG 1.1//EN"
 "http://www.w3.org/Graphics/SVG/1.1/DTD/svg11.dtd">
<!-- Generated by graphviz version 2.43.0 (0)
 -->
<!-- Title: %3 Pages: 1 -->
<svg width="847pt" height="218pt"
 viewBox="0.00 0.00 847.29 218.00" xmlns="http://www.w3.org/2000/svg" xmlns:xlink="http://www.w3.org/1999/xlink">
<g id="graph0" class="graph" transform="scale(1 1) rotate(0) translate(4 214)">
<title>%3</title>
<polygon fill="#fffacd" stroke="transparent" points="-4,4 -4,-214 843.29,-214 843.29,4 -4,4"/>
<!-- 1 -->
<g id="node1" class="node">
<title>1</title>
<g id="a_node1"><a xlink:title="अस्मद्&#45;अनुग्रह{पुं}{4;एक}">
<ellipse fill="#87cefa" stroke="#87cefa" cx="79.29" cy="-105" rx="79.09" ry="18"/>
<text text-anchor="middle" x="79.29" y="-101.3" font-family="Times,serif" font-size="14.00">मत्&#45;अनुग्रहाय (1)</text>
</a>
</g>
</g>
<!-- 2 -->
<g id="node2" class="node">
<title>2</title>
<g id="a_node2"><a xlink:title="परम{नपुं}{2;एक}">
<ellipse fill="#7cfc00" stroke="#7cfc00" cx="127.29" cy="-18" rx="47.39" ry="18"/>
<text text-anchor="middle" x="127.29" y="-14.3" font-family="Times,serif" font-size="14.00">परमम् (2)</text>
</a>
</g>
</g>
<!-- 3 -->
<g id="node3" class="node">
<title>3</title>
<g id="a_node3"><a xlink:title="गुह्य{नपुं}{2;एक}">
<ellipse fill="#7cfc00" stroke="#7cfc00" cx="240.29" cy="-18" rx="47.39" ry="18"/>
<text text-anchor="middle" x="240.29" y="-14.3" font-family="Times,serif" font-size="14.00">गुह्यम् (3)</text>
</a>
</g>
</g>
<!-- 4 -->
<g id="node4" class="node">
<title>4</title>
<g id="a_node4"><a xlink:title="अध्यात्म&#45;सञ्ज्ञित{नपुं}{2;एक}">
<ellipse fill="#7cfc00" stroke="#7cfc00" cx="406.29" cy="-18" rx="100.98" ry="18"/>
<text text-anchor="middle" x="406.29" y="-14.3" font-family="Times,serif" font-size="14.00">अधि&#45;आत्म&#45;सञ्ज्ञितम् (4)</text>
</a>
</g>
</g>
<!-- 5 -->
<g id="node5" class="node">
<title>5</title>
<g id="a_node5"><a xlink:title="यद्{नपुं}{2;एक}">
<ellipse fill="#7cfc00" stroke="#7cfc00" cx="563.29" cy="-18" rx="38.19" ry="18"/>
<text text-anchor="middle" x="563.29" y="-14.3" font-family="Times,serif" font-size="14.00">यत् (5)</text>
</a>
</g>
</g>
<!-- 6 -->
<g id="node6" class="node">
<title>6</title>
<g id="a_node6"><a xlink:title="युष्मद्{3;एक}">
<ellipse fill="#40e0d0" stroke="#40e0d0" cx="220.29" cy="-105" rx="43.59" ry="18"/>
<text text-anchor="middle" x="220.29" y="-101.3" font-family="Times,serif" font-size="14.00">त्वया (6)</text>
</a>
</g>
</g>
<!-- 7 -->
<g id="node7" class="node">
<title>7</title>
<g id="a_node7"><a xlink:title="वच्1{कृत्_प्रत्ययः:क्त;वचँ;अदादिः;नपुं}{1;एक}">
<ellipse fill="#00bfff" stroke="#00bfff" cx="220.29" cy="-192" rx="48.19" ry="18"/>
<text text-anchor="middle" x="220.29" y="-188.3" font-family="Times,serif" font-size="14.00">उक्तम् (7)</text>
</a>
</g>
</g>
<!-- 7&#45;&gt;1 -->
<g id="edge1" class="edge">
<title>7&#45;&gt;1</title>
<path fill="none" stroke="black" d="M195.57,-176.42C184.99,-170.16 172.52,-162.75 161.29,-156 145.79,-146.68 128.7,-136.28 114.16,-127.39"/>
<polygon fill="black" stroke="black" points="115.82,-124.3 105.46,-122.07 112.17,-130.27 115.82,-124.3"/>
<text text-anchor="middle" x="188.79" y="-144.8" font-family="Times,serif" font-size="14.00">प्रयोजनम्</text>
</g>
<!-- 7&#45;&gt;6 -->
<g id="edge6" class="edge">
<title>7&#45;&gt;6</title>
<path fill="none" stroke="black" d="M220.29,-173.8C220.29,-162.16 220.29,-146.55 220.29,-133.24"/>
<polygon fill="black" stroke="black" points="223.79,-133.18 220.29,-123.18 216.79,-133.18 223.79,-133.18"/>
<text text-anchor="middle" x="232.79" y="-144.8" font-family="Times,serif" font-size="14.00">कर्ता</text>
</g>
<!-- 8 -->
<g id="node8" class="node">
<title>8</title>
<g id="a_node8"><a xlink:title="वचस्{नपुं}{2;एक}">
<ellipse fill="#7cfc00" stroke="#7cfc00" cx="323.29" cy="-105" rx="41.69" ry="18"/>
<text text-anchor="middle" x="323.29" y="-101.3" font-family="Times,serif" font-size="14.00">वचः (8)</text>
</a>
</g>
</g>
<!-- 7&#45;&gt;8 -->
<g id="edge7" class="edge">
<title>7&#45;&gt;8</title>
<path fill="none" stroke="black" d="M239.18,-175.41C255.4,-162.03 278.95,-142.6 297,-127.7"/>
<polygon fill="black" stroke="black" points="299.38,-130.27 304.87,-121.21 294.93,-124.87 299.38,-130.27"/>
<text text-anchor="middle" x="288.29" y="-144.8" font-family="Times,serif" font-size="14.00">कर्म</text>
</g>
<!-- 8&#45;&gt;2 -->
<g id="edge2" class="edge">
<title>8&#45;&gt;2</title>
<path fill="none" stroke="black" d="M291.7,-93.18C263.34,-83.45 225.66,-70.46 222.29,-69 201.47,-59.97 178.96,-48.22 161.08,-38.38"/>
<polygon fill="black" stroke="black" points="162.63,-35.23 152.19,-33.43 159.22,-41.35 162.63,-35.23"/>
<text text-anchor="middle" x="247.79" y="-57.8" font-family="Times,serif" font-size="14.00">विशेषणम्</text>
</g>
<!-- 8&#45;&gt;3 -->
<g id="edge3" class="edge">
<title>8&#45;&gt;3</title>
<path fill="none" stroke="black" d="M307.68,-88.01C295.12,-75.15 277.3,-56.9 263.14,-42.4"/>
<polygon fill="black" stroke="black" points="265.61,-39.91 256.12,-35.21 260.6,-44.81 265.61,-39.91"/>
<text text-anchor="middle" x="312.79" y="-57.8" font-family="Times,serif" font-size="14.00">विशेषणम्</text>
</g>
<!-- 8&#45;&gt;4 -->
<g id="edge4" class="edge">
<title>8&#45;&gt;4</title>
<path fill="none" stroke="black" d="M338.9,-88.01C351.3,-75.32 368.83,-57.37 382.9,-42.96"/>
<polygon fill="black" stroke="black" points="385.42,-45.39 389.9,-35.79 380.41,-40.5 385.42,-45.39"/>
<text text-anchor="middle" x="395.79" y="-57.8" font-family="Times,serif" font-size="14.00">विशेषणम्</text>
</g>
<!-- 8&#45;&gt;5 -->
<g id="edge5" class="edge">
<title>8&#45;&gt;5</title>
<path fill="none" stroke="black" d="M355.04,-93.26C375.2,-86.41 401.81,-77.28 425.29,-69 458.79,-57.19 496.72,-43.41 524.33,-33.32"/>
<polygon fill="black" stroke="black" points="525.81,-36.5 534,-29.78 523.41,-29.93 525.81,-36.5"/>
<text text-anchor="middle" x="492.79" y="-57.8" font-family="Times,serif" font-size="14.00">विशेषणम्</text>
</g>
<!-- 9 -->
<g id="node9" class="node">
<title>9</title>
<g id="a_node9"><a xlink:title="तद्{नपुं}{3;एक}">
<ellipse fill="#40e0d0" stroke="#40e0d0" cx="622.29" cy="-105" rx="38.19" ry="18"/>
<text text-anchor="middle" x="622.29" y="-101.3" font-family="Times,serif" font-size="14.00">तेन (9)</text>
</a>
</g>
</g>
<!-- 10 -->
<g id="node10" class="node">
<title>10</title>
<g id="a_node10"><a xlink:title="मोह{पुं}{1;एक}">
<ellipse fill="#00bfff" stroke="#00bfff" cx="728.29" cy="-105" rx="50.09" ry="18"/>
<text text-anchor="middle" x="728.29" y="-101.3" font-family="Times,serif" font-size="14.00">मोहः (10)</text>
</a>
</g>
</g>
<!-- 11 -->
<g id="node11" class="node">
<title>11</title>
<g id="a_node11"><a xlink:title="इदम्{पुं}{1;एक}">
<ellipse fill="#00bfff" stroke="#00bfff" cx="671.29" cy="-18" rx="51.99" ry="18"/>
<text text-anchor="middle" x="671.29" y="-14.3" font-family="Times,serif" font-size="14.00">अयम् (11)</text>
</a>
</g>
</g>
<!-- 10&#45;&gt;11 -->
<g id="edge10" class="edge">
<title>10&#45;&gt;11</title>
<path fill="none" stroke="black" d="M717.03,-87.21C708.83,-74.98 697.59,-58.21 688.3,-44.36"/>
<polygon fill="black" stroke="black" points="691.01,-42.11 682.53,-35.76 685.19,-46.01 691.01,-42.11"/>
<text text-anchor="middle" x="728.79" y="-57.8" font-family="Times,serif" font-size="14.00">विशेषणम्</text>
</g>
<!-- 13 -->
<g id="node13" class="node">
<title>13</title>
<g id="a_node13"><a xlink:title="अस्मद्{6;एक}">
<ellipse fill="#87ceeb" stroke="#87ceeb" cx="785.29" cy="-18" rx="44.39" ry="18"/>
<text text-anchor="middle" x="785.29" y="-14.3" font-family="Times,serif" font-size="14.00">मम (13)</text>
</a>
</g>
</g>
<!-- 10&#45;&gt;13 -->
<g id="edge11" class="edge">
<title>10&#45;&gt;13</title>
<path fill="none" stroke="black" d="M743.7,-87.5C748.64,-81.84 753.94,-75.33 758.29,-69 763.51,-61.4 768.52,-52.69 772.77,-44.69"/>
<polygon fill="black" stroke="black" points="775.92,-46.22 777.39,-35.73 769.69,-43.02 775.92,-46.22"/>
<text text-anchor="middle" x="803.29" y="-57.8" font-family="Times,serif" font-size="14.00">षष्ठीसम्बन्धः</text>
</g>
<!-- 12 -->
<g id="node12" class="node">
<title>12</title>
<g id="a_node12"><a xlink:title="वि_गम्1{कृत्_प्रत्ययः:क्त;वि_गमॢँ;भ्वादिः;पुं}{1;एक}">
<ellipse fill="#00bfff" stroke="#00bfff" cx="658.29" cy="-192" rx="56.59" ry="18"/>
<text text-anchor="middle" x="658.29" y="-188.3" font-family="Times,serif" font-size="14.00">विगतः (12)</text>
</a>
</g>
</g>
<!-- 12&#45;&gt;9 -->
<g id="edge8" class="edge">
<title>12&#45;&gt;9</title>
<path fill="none" stroke="black" d="M651.01,-173.8C645.95,-161.85 639.11,-145.72 633.38,-132.18"/>
<polygon fill="black" stroke="black" points="636.57,-130.73 629.44,-122.89 630.12,-133.46 636.57,-130.73"/>
<text text-anchor="middle" x="652.29" y="-144.8" font-family="Times,serif" font-size="14.00">हेतु</text>
</g>
<!-- 12&#45;&gt;10 -->
<g id="edge9" class="edge">
<title>12&#45;&gt;10</title>
<path fill="none" stroke="black" d="M672.12,-174.21C682.45,-161.67 696.71,-144.35 708.28,-130.3"/>
<polygon fill="black" stroke="black" points="711.07,-132.41 714.73,-122.47 705.67,-127.96 711.07,-132.41"/>
<text text-anchor="middle" x="710.79" y="-144.8" font-family="Times,serif" font-size="14.00">कर्ता</text>
</g>
</g>
</svg>
