<?xml version="1.0" encoding="UTF-8" standalone="no"?>
<!DOCTYPE svg PUBLIC "-//W3C//DTD SVG 1.1//EN"
 "http://www.w3.org/Graphics/SVG/1.1/DTD/svg11.dtd">
<!-- Generated by graphviz version 2.43.0 (0)
 -->
<!-- Title: %3 Pages: 1 -->
<svg width="704pt" height="305pt"
 viewBox="0.00 0.00 704.34 305.00" xmlns="http://www.w3.org/2000/svg" xmlns:xlink="http://www.w3.org/1999/xlink">
<g id="graph0" class="graph" transform="scale(1 1) rotate(0) translate(4 301)">
<title>%3</title>
<polygon fill="#fffacd" stroke="transparent" points="-4,4 -4,-301 700.34,-301 700.34,4 -4,4"/>
<!-- 1 -->
<g id="node1" class="node">
<title>1</title>
<g id="a_node1"><a xlink:title="दृश्1{कर्तरि;लोट्;म;एक;परस्मैपदी;दृशिँर्;भ्वादिः}">
<ellipse fill="#ff6347" stroke="#ff6347" cx="321.95" cy="-279" rx="42.79" ry="18"/>
<text text-anchor="middle" x="321.95" y="-275.3" font-family="Times,serif" font-size="14.00">पश्य (1)</text>
</a>
</g>
</g>
<!-- 3 -->
<g id="node3" class="node">
<title>3</title>
<g id="a_node3"><a xlink:title="पार्थ{पुं}{8;एक}">
<ellipse fill="#7fffd4" stroke="#7fffd4" cx="40.95" cy="-192" rx="40.89" ry="18"/>
<text text-anchor="middle" x="40.95" y="-188.3" font-family="Times,serif" font-size="14.00">पार्थ (3)</text>
</a>
</g>
</g>
<!-- 1&#45;&gt;3 -->
<g id="edge2" class="edge">
<title>1&#45;&gt;3</title>
<path fill="none" stroke="black" d="M282.54,-271.7C249.19,-265.85 200.34,-256.09 158.95,-243 130.73,-234.08 99.98,-220.93 76.95,-210.36"/>
<polygon fill="black" stroke="black" points="78.12,-207.05 67.58,-206 75.17,-213.39 78.12,-207.05"/>
<text text-anchor="middle" x="184.45" y="-231.8" font-family="Times,serif" font-size="14.00">सम्बोध्यः</text>
</g>
<!-- 4 -->
<g id="node4" class="node">
<title>4</title>
<g id="a_node4"><a xlink:title="रूप{नपुं}{2;बहु}">
<ellipse fill="#7cfc00" stroke="#7cfc00" cx="149.95" cy="-192" rx="50.09" ry="18"/>
<text text-anchor="middle" x="149.95" y="-188.3" font-family="Times,serif" font-size="14.00">रूपाणि (4)</text>
</a>
</g>
</g>
<!-- 1&#45;&gt;4 -->
<g id="edge3" class="edge">
<title>1&#45;&gt;4</title>
<path fill="none" stroke="black" d="M292.02,-265.86C276.6,-259.41 257.6,-251.15 240.95,-243 221.82,-233.64 200.97,-222.27 184.06,-212.74"/>
<polygon fill="black" stroke="black" points="185.53,-209.55 175.1,-207.66 182.07,-215.64 185.53,-209.55"/>
<text text-anchor="middle" x="250.95" y="-231.8" font-family="Times,serif" font-size="14.00">कर्म</text>
</g>
<!-- 5 -->
<g id="node5" class="node">
<title>5</title>
<g id="a_node5"><a xlink:title="शतशः{अव्य}">
<ellipse fill="#ff00ff" stroke="#ff00ff" cx="267.95" cy="-192" rx="50.09" ry="18"/>
<text text-anchor="middle" x="267.95" y="-188.3" font-family="Times,serif" font-size="14.00">शतशः (5)</text>
</a>
</g>
</g>
<!-- 1&#45;&gt;5 -->
<g id="edge4" class="edge">
<title>1&#45;&gt;5</title>
<path fill="none" stroke="black" d="M292.82,-265.61C283.52,-260.11 274.27,-252.66 268.95,-243 265.2,-236.2 263.95,-228.06 263.91,-220.33"/>
<polygon fill="black" stroke="black" points="267.41,-220.41 264.48,-210.23 260.42,-220.02 267.41,-220.41"/>
<text text-anchor="middle" x="311.45" y="-231.8" font-family="Times,serif" font-size="14.00">क्रियाविशेषणम्</text>
</g>
<!-- 6 -->
<g id="node6" class="node">
<title>6</title>
<g id="a_node6"><a xlink:title="अथ{अव्य}">
<ellipse fill="#ff00ff" stroke="#ff00ff" cx="375.95" cy="-192" rx="40.09" ry="18"/>
<text text-anchor="middle" x="375.95" y="-188.3" font-family="Times,serif" font-size="14.00">अथ (6)</text>
</a>
</g>
</g>
<!-- 1&#45;&gt;6 -->
<g id="edge5" class="edge">
<title>1&#45;&gt;6</title>
<path fill="none" stroke="black" d="M338.43,-262.19C343.82,-256.47 349.54,-249.76 353.95,-243 358.68,-235.74 362.84,-227.29 366.23,-219.42"/>
<polygon fill="black" stroke="black" points="369.57,-220.49 370.1,-209.91 363.09,-217.85 369.57,-220.49"/>
<text text-anchor="middle" x="385.95" y="-231.8" font-family="Times,serif" font-size="14.00">सम्बन्धः</text>
</g>
<!-- 7 -->
<g id="node7" class="node">
<title>7</title>
<g id="a_node7"><a xlink:title="सहस्रशः{अव्य}">
<ellipse fill="#ff00ff" stroke="#ff00ff" cx="493.95" cy="-192" rx="59.59" ry="18"/>
<text text-anchor="middle" x="493.95" y="-188.3" font-family="Times,serif" font-size="14.00">सहस्रशः (7)</text>
</a>
</g>
</g>
<!-- 1&#45;&gt;7 -->
<g id="edge6" class="edge">
<title>1&#45;&gt;7</title>
<path fill="none" stroke="black" d="M354.58,-267.11C372.2,-260.82 394.14,-252.32 412.95,-243 429.75,-234.67 447.56,-223.91 462.2,-214.5"/>
<polygon fill="black" stroke="black" points="464.4,-217.24 470.86,-208.85 460.57,-211.38 464.4,-217.24"/>
<text text-anchor="middle" x="481.45" y="-231.8" font-family="Times,serif" font-size="14.00">क्रियाविशेषणम्</text>
</g>
<!-- 11.1 -->
<g id="node12" class="node">
<title>11.1</title>
<g id="a_node12"><a xlink:title="युष्मद्{1;एक}">
<ellipse fill="#00bfff" stroke="#00bfff" cx="633.95" cy="-192" rx="62.29" ry="18"/>
<text text-anchor="middle" x="633.95" y="-188.3" font-family="Times,serif" font-size="14.00">(त्वम्) (11.1)</text>
</a>
</g>
</g>
<!-- 1&#45;&gt;11.1 -->
<g id="edge11" class="edge">
<title>1&#45;&gt;11.1</title>
<path fill="none" stroke="black" d="M363.37,-274.31C405.53,-269.78 472.4,-260.46 527.95,-243 552.08,-235.42 577.77,-223.41 597.81,-213.06"/>
<polygon fill="black" stroke="black" points="599.66,-216.04 606.88,-208.29 596.4,-209.85 599.66,-216.04"/>
<text text-anchor="middle" x="576.45" y="-231.8" font-family="Times,serif" font-size="14.00">कर्ता</text>
</g>
<!-- 2 -->
<g id="node2" class="node">
<title>2</title>
<g id="a_node2"><a xlink:title="अस्मद्{6;एक}">
<ellipse fill="#87ceeb" stroke="#87ceeb" cx="88.95" cy="-105" rx="32.49" ry="18"/>
<text text-anchor="middle" x="88.95" y="-101.3" font-family="Times,serif" font-size="14.00">मे (2)</text>
</a>
</g>
</g>
<!-- 4&#45;&gt;2 -->
<g id="edge1" class="edge">
<title>4&#45;&gt;2</title>
<path fill="none" stroke="black" d="M133.29,-175C127.76,-169.27 121.79,-162.6 116.95,-156 111.45,-148.51 106.23,-139.82 101.82,-131.81"/>
<polygon fill="black" stroke="black" points="104.84,-130.03 97.06,-122.84 98.66,-133.31 104.84,-130.03"/>
<text text-anchor="middle" x="152.95" y="-144.8" font-family="Times,serif" font-size="14.00">षष्ठीसम्बन्धः</text>
</g>
<!-- 10 -->
<g id="node10" class="node">
<title>10</title>
<g id="a_node10"><a xlink:title="नाना&#45;वर्ण&#45;आकृति{नपुं}{2;बहु}">
<ellipse fill="#7cfc00" stroke="#7cfc00" cx="238.95" cy="-105" rx="99.38" ry="18"/>
<text text-anchor="middle" x="238.95" y="-101.3" font-family="Times,serif" font-size="14.00">नाना&#45;वर्ण&#45;आकृतीनि (10)</text>
</a>
</g>
</g>
<!-- 4&#45;&gt;10 -->
<g id="edge9" class="edge">
<title>4&#45;&gt;10</title>
<path fill="none" stroke="black" d="M167.99,-175.17C174.65,-169.23 182.21,-162.38 188.95,-156 197.68,-147.73 207.05,-138.46 215.3,-130.17"/>
<polygon fill="black" stroke="black" points="217.95,-132.46 222.5,-122.89 212.98,-127.54 217.95,-132.46"/>
<text text-anchor="middle" x="230.45" y="-144.8" font-family="Times,serif" font-size="14.00">विशेषणम्</text>
</g>
<!-- 8 -->
<g id="node8" class="node">
<title>8</title>
<g id="a_node8"><a xlink:title="नाना&#45;विध{नपुं}{2;बहु}">
<ellipse fill="#7cfc00" stroke="#7cfc00" cx="95.95" cy="-18" rx="71.49" ry="18"/>
<text text-anchor="middle" x="95.95" y="-14.3" font-family="Times,serif" font-size="14.00">नाना&#45;विधानि (8)</text>
</a>
</g>
</g>
<!-- 9 -->
<g id="node9" class="node">
<title>9</title>
<g id="a_node9"><a xlink:title="दिव्य{नपुं}{2;बहु}">
<ellipse fill="#7cfc00" stroke="#7cfc00" cx="238.95" cy="-18" rx="53.89" ry="18"/>
<text text-anchor="middle" x="238.95" y="-14.3" font-family="Times,serif" font-size="14.00">दिव्यानि (9)</text>
</a>
</g>
</g>
<!-- 10&#45;&gt;8 -->
<g id="edge7" class="edge">
<title>10&#45;&gt;8</title>
<path fill="none" stroke="black" d="M191.63,-89.14C177.69,-83.78 162.74,-77.04 149.95,-69 138.62,-61.89 127.53,-52.23 118.37,-43.3"/>
<polygon fill="black" stroke="black" points="120.7,-40.68 111.17,-36.04 115.73,-45.6 120.7,-40.68"/>
<text text-anchor="middle" x="192.45" y="-57.8" font-family="Times,serif" font-size="14.00">सुप्_समुच्चितम्</text>
</g>
<!-- 10&#45;&gt;9 -->
<g id="edge8" class="edge">
<title>10&#45;&gt;9</title>
<path fill="none" stroke="black" d="M238.95,-86.8C238.95,-75.16 238.95,-59.55 238.95,-46.24"/>
<polygon fill="black" stroke="black" points="242.45,-46.18 238.95,-36.18 235.45,-46.18 242.45,-46.18"/>
<text text-anchor="middle" x="281.45" y="-57.8" font-family="Times,serif" font-size="14.00">सुप्_समुच्चितम्</text>
</g>
<!-- 11 -->
<g id="node11" class="node">
<title>11</title>
<g id="a_node11"><a xlink:title="च{अव्य}">
<ellipse fill="#ff00ff" stroke="#ff00ff" cx="349.95" cy="-18" rx="38.99" ry="18"/>
<text text-anchor="middle" x="349.95" y="-14.3" font-family="Times,serif" font-size="14.00">च (11)</text>
</a>
</g>
</g>
<!-- 10&#45;&gt;11 -->
<g id="edge10" class="edge">
<title>10&#45;&gt;11</title>
<path fill="none" stroke="black" d="M294.19,-89.98C306.39,-84.9 318.49,-78.09 327.95,-69 334.53,-62.67 339.28,-54.03 342.63,-45.71"/>
<polygon fill="black" stroke="black" points="345.94,-46.84 345.96,-36.24 339.34,-44.52 345.94,-46.84"/>
<text text-anchor="middle" x="381.45" y="-57.8" font-family="Times,serif" font-size="14.00">समुच्चयद्योतकः</text>
</g>
</g>
</svg>
