<?xml version="1.0" encoding="UTF-8" standalone="no"?>
<!DOCTYPE svg PUBLIC "-//W3C//DTD SVG 1.1//EN"
 "http://www.w3.org/Graphics/SVG/1.1/DTD/svg11.dtd">
<!-- Generated by graphviz version 2.43.0 (0)
 -->
<!-- Title: %3 Pages: 1 -->
<svg width="1390pt" height="392pt"
 viewBox="0.00 0.00 1389.59 392.00" xmlns="http://www.w3.org/2000/svg" xmlns:xlink="http://www.w3.org/1999/xlink">
<g id="graph0" class="graph" transform="scale(1 1) rotate(0) translate(4 388)">
<title>%3</title>
<polygon fill="#fffacd" stroke="transparent" points="-4,4 -4,-388 1385.59,-388 1385.59,4 -4,4"/>
<!-- 1 -->
<g id="node1" class="node">
<title>1</title>
<g id="a_node1"><a xlink:title="पितृ{पुं}{1;एक}">
<ellipse fill="#00bfff" stroke="#00bfff" cx="138.49" cy="-279" rx="42.79" ry="18"/>
<text text-anchor="middle" x="138.49" y="-275.3" font-family="Times,serif" font-size="14.00">पिता (1)</text>
</a>
</g>
</g>
<!-- 8 -->
<g id="node8" class="node">
<title>8</title>
<g id="a_node8"><a xlink:title="च{अव्य}">
<ellipse fill="#ff00ff" stroke="#ff00ff" cx="138.49" cy="-192" rx="33.29" ry="18"/>
<text text-anchor="middle" x="138.49" y="-188.3" font-family="Times,serif" font-size="14.00">च (8)</text>
</a>
</g>
</g>
<!-- 1&#45;&gt;8 -->
<g id="edge7" class="edge">
<title>1&#45;&gt;8</title>
<path fill="none" stroke="black" d="M138.49,-260.8C138.49,-249.16 138.49,-233.55 138.49,-220.24"/>
<polygon fill="black" stroke="black" points="141.99,-220.18 138.49,-210.18 134.99,-220.18 141.99,-220.18"/>
<text text-anchor="middle" x="180.99" y="-231.8" font-family="Times,serif" font-size="14.00">समुच्चयद्योतकः</text>
</g>
<!-- 2 -->
<g id="node2" class="node">
<title>2</title>
<g id="a_node2"><a xlink:title="अस्2{कर्तरि;लट्;म;एक;परस्मैपदी;असँ;अदादिः}">
<ellipse fill="#ff6347" stroke="#ff6347" cx="311.49" cy="-366" rx="43.59" ry="18"/>
<text text-anchor="middle" x="311.49" y="-362.3" font-family="Times,serif" font-size="14.00">असि (2)</text>
</a>
</g>
</g>
<!-- 2&#45;&gt;1 -->
<g id="edge1" class="edge">
<title>2&#45;&gt;1</title>
<path fill="none" stroke="black" d="M268.55,-362.63C238.66,-359.12 199.18,-350.59 170.49,-330 161.92,-323.85 155.08,-314.61 149.97,-305.75"/>
<polygon fill="black" stroke="black" points="153.01,-304.01 145.26,-296.79 146.81,-307.27 153.01,-304.01"/>
<text text-anchor="middle" x="222.49" y="-318.8" font-family="Times,serif" font-size="14.00">कर्तृसमानाधिकरणम्</text>
</g>
<!-- 5 -->
<g id="node5" class="node">
<title>5</title>
<g id="a_node5"><a xlink:title="युष्मद्{1;एक}">
<ellipse fill="#00bfff" stroke="#00bfff" cx="252.49" cy="-279" rx="40.89" ry="18"/>
<text text-anchor="middle" x="252.49" y="-275.3" font-family="Times,serif" font-size="14.00">त्वम् (5)</text>
</a>
</g>
</g>
<!-- 2&#45;&gt;5 -->
<g id="edge4" class="edge">
<title>2&#45;&gt;5</title>
<path fill="none" stroke="black" d="M300.12,-348.61C291.47,-336.15 279.42,-318.79 269.61,-304.65"/>
<polygon fill="black" stroke="black" points="272.41,-302.56 263.83,-296.34 266.66,-306.55 272.41,-302.56"/>
<text text-anchor="middle" x="298.99" y="-318.8" font-family="Times,serif" font-size="14.00">कर्ता</text>
</g>
<!-- 7 -->
<g id="node7" class="node">
<title>7</title>
<g id="a_node7"><a xlink:title="पूज्य{पुं}{1;एक}">
<ellipse fill="#00bfff" stroke="#00bfff" cx="357.49" cy="-279" rx="46.29" ry="18"/>
<text text-anchor="middle" x="357.49" y="-275.3" font-family="Times,serif" font-size="14.00">पूज्यः (7)</text>
</a>
</g>
</g>
<!-- 2&#45;&gt;7 -->
<g id="edge6" class="edge">
<title>2&#45;&gt;7</title>
<path fill="none" stroke="black" d="M320.58,-348.21C327.13,-336.1 336.1,-319.53 343.55,-305.76"/>
<polygon fill="black" stroke="black" points="346.74,-307.22 348.42,-296.76 340.59,-303.89 346.74,-307.22"/>
<text text-anchor="middle" x="374.99" y="-318.8" font-family="Times,serif" font-size="14.00">सुप्समुच्चितम्</text>
</g>
<!-- 9 -->
<g id="node9" class="node">
<title>9</title>
<g id="a_node9"><a xlink:title="गुरु{पुं}{1;एक}">
<ellipse fill="#00bfff" stroke="#00bfff" cx="463.49" cy="-279" rx="41.69" ry="18"/>
<text text-anchor="middle" x="463.49" y="-275.3" font-family="Times,serif" font-size="14.00">गुरुः (9)</text>
</a>
</g>
</g>
<!-- 2&#45;&gt;9 -->
<g id="edge8" class="edge">
<title>2&#45;&gt;9</title>
<path fill="none" stroke="black" d="M349.94,-357.05C370.75,-351.59 396.26,-342.94 416.49,-330 427.21,-323.15 437.16,-313.32 445.12,-304.18"/>
<polygon fill="black" stroke="black" points="447.86,-306.36 451.57,-296.43 442.48,-301.88 447.86,-306.36"/>
<text text-anchor="middle" x="471.99" y="-318.8" font-family="Times,serif" font-size="14.00">सुप्समुच्चितम्</text>
</g>
<!-- 3 -->
<g id="node3" class="node">
<title>3</title>
<g id="a_node3"><a xlink:title="लोक{पुं}{6;एक}">
<ellipse fill="#87ceeb" stroke="#87ceeb" cx="138.49" cy="-105" rx="53.09" ry="18"/>
<text text-anchor="middle" x="138.49" y="-101.3" font-family="Times,serif" font-size="14.00">लोकस्य (3)</text>
</a>
</g>
</g>
<!-- 4 -->
<g id="node4" class="node">
<title>4</title>
<g id="a_node4"><a xlink:title="चराचर{पुं}{6;एक}">
<ellipse fill="#87ceeb" stroke="#87ceeb" cx="71.49" cy="-18" rx="71.49" ry="18"/>
<text text-anchor="middle" x="71.49" y="-14.3" font-family="Times,serif" font-size="14.00">चर&#45;अ&#45;चरस्य (4)</text>
</a>
</g>
</g>
<!-- 3&#45;&gt;4 -->
<g id="edge3" class="edge">
<title>3&#45;&gt;4</title>
<path fill="none" stroke="black" d="M125.26,-87.21C115.53,-74.87 102.15,-57.89 91.17,-43.97"/>
<polygon fill="black" stroke="black" points="93.64,-41.45 84.7,-35.76 88.14,-45.78 93.64,-41.45"/>
<text text-anchor="middle" x="134.99" y="-57.8" font-family="Times,serif" font-size="14.00">विशेषणम्</text>
</g>
<!-- 6 -->
<g id="node6" class="node">
<title>6</title>
<g id="a_node6"><a xlink:title="इदम्{पुं}{6;एक}">
<ellipse fill="#87ceeb" stroke="#87ceeb" cx="205.49" cy="-18" rx="44.69" ry="18"/>
<text text-anchor="middle" x="205.49" y="-14.3" font-family="Times,serif" font-size="14.00">अस्य (6)</text>
</a>
</g>
</g>
<!-- 3&#45;&gt;6 -->
<g id="edge5" class="edge">
<title>3&#45;&gt;6</title>
<path fill="none" stroke="black" d="M151.73,-87.21C161.52,-74.79 175.01,-57.67 186.03,-43.7"/>
<polygon fill="black" stroke="black" points="189.07,-45.49 192.51,-35.47 183.57,-41.16 189.07,-45.49"/>
<text text-anchor="middle" x="201.99" y="-57.8" font-family="Times,serif" font-size="14.00">विशेषणम्</text>
</g>
<!-- 8&#45;&gt;3 -->
<g id="edge2" class="edge">
<title>8&#45;&gt;3</title>
<path fill="none" stroke="black" d="M138.49,-173.8C138.49,-162.16 138.49,-146.55 138.49,-133.24"/>
<polygon fill="black" stroke="black" points="141.99,-133.18 138.49,-123.18 134.99,-133.18 141.99,-133.18"/>
<text text-anchor="middle" x="174.49" y="-144.8" font-family="Times,serif" font-size="14.00">षष्ठीसम्बन्धः</text>
</g>
<!-- 10 -->
<g id="node10" class="node">
<title>10</title>
<g id="a_node10"><a xlink:title="गरीयस्{पुं}{1;एक}">
<ellipse fill="#00bfff" stroke="#00bfff" cx="463.49" cy="-192" rx="57.69" ry="18"/>
<text text-anchor="middle" x="463.49" y="-188.3" font-family="Times,serif" font-size="14.00">गरीयान् (10)</text>
</a>
</g>
</g>
<!-- 9&#45;&gt;10 -->
<g id="edge9" class="edge">
<title>9&#45;&gt;10</title>
<path fill="none" stroke="black" d="M463.49,-260.8C463.49,-249.16 463.49,-233.55 463.49,-220.24"/>
<polygon fill="black" stroke="black" points="466.99,-220.18 463.49,-210.18 459.99,-220.18 466.99,-220.18"/>
<text text-anchor="middle" x="488.99" y="-231.8" font-family="Times,serif" font-size="14.00">विशेषणम्</text>
</g>
<!-- 11 -->
<g id="node11" class="node">
<title>11</title>
<g id="a_node11"><a xlink:title="न{अव्य}">
<ellipse fill="#ff00ff" stroke="#ff00ff" cx="561.49" cy="-279" rx="38.19" ry="18"/>
<text text-anchor="middle" x="561.49" y="-275.3" font-family="Times,serif" font-size="14.00">न (11)</text>
</a>
</g>
</g>
<!-- 12 -->
<g id="node12" class="node">
<title>12</title>
<g id="a_node12"><a xlink:title="त्वद्&#45;सम{पुं}{1;एक}">
<ellipse fill="#00bfff" stroke="#00bfff" cx="684.49" cy="-279" rx="66.09" ry="18"/>
<text text-anchor="middle" x="684.49" y="-275.3" font-family="Times,serif" font-size="14.00">त्वत्&#45;समः (12)</text>
</a>
</g>
</g>
<!-- 13 -->
<g id="node13" class="node">
<title>13</title>
<g id="a_node13"><a xlink:title="अस्2{कर्तरि;लट्;प्र;एक;परस्मैपदी;असँ;अदादिः}">
<ellipse fill="#ff6347" stroke="#ff6347" cx="734.49" cy="-366" rx="53.09" ry="18"/>
<text text-anchor="middle" x="734.49" y="-362.3" font-family="Times,serif" font-size="14.00">अस्ति (13)</text>
</a>
</g>
</g>
<!-- 13&#45;&gt;11 -->
<g id="edge10" class="edge">
<title>13&#45;&gt;11</title>
<path fill="none" stroke="black" d="M701.01,-351.84C685.74,-345.6 667.52,-337.8 651.49,-330 631.83,-320.43 610.41,-308.58 593.4,-298.83"/>
<polygon fill="black" stroke="black" points="594.85,-295.62 584.44,-293.65 591.34,-301.68 594.85,-295.62"/>
<text text-anchor="middle" x="677.49" y="-318.8" font-family="Times,serif" font-size="14.00">प्रतिषेधः</text>
</g>
<!-- 13&#45;&gt;12 -->
<g id="edge11" class="edge">
<title>13&#45;&gt;12</title>
<path fill="none" stroke="black" d="M724.62,-348.21C717.54,-336.18 707.87,-319.75 699.8,-306.03"/>
<polygon fill="black" stroke="black" points="702.61,-303.89 694.52,-297.05 696.58,-307.44 702.61,-303.89"/>
<text text-anchor="middle" x="724.99" y="-318.8" font-family="Times,serif" font-size="14.00">कर्ता</text>
</g>
<!-- 17 -->
<g id="node17" class="node">
<title>17</title>
<g id="a_node17"><a xlink:title="लोक&#45;त्रय{नपुं}{7;एक}">
<ellipse fill="#708090" stroke="#708090" cx="836.49" cy="-279" rx="67.69" ry="18"/>
<text text-anchor="middle" x="836.49" y="-275.3" font-family="Times,serif" font-size="14.00">लोक&#45;त्रये (17)</text>
</a>
</g>
</g>
<!-- 13&#45;&gt;17 -->
<g id="edge15" class="edge">
<title>13&#45;&gt;17</title>
<path fill="none" stroke="black" d="M753.68,-349.01C769.15,-336.12 791.13,-317.8 808.56,-303.28"/>
<polygon fill="black" stroke="black" points="811.26,-305.59 816.7,-296.5 806.78,-300.21 811.26,-305.59"/>
<text text-anchor="middle" x="822.99" y="-318.8" font-family="Times,serif" font-size="14.00">अधिकरणम्</text>
</g>
<!-- 19 -->
<g id="node19" class="node">
<title>19</title>
<g id="a_node19"><a xlink:title="अप्रतिम&#45;प्रभाव{पुं}{8;एक}">
<ellipse fill="#7fffd4" stroke="#7fffd4" cx="1016.49" cy="-279" rx="94.78" ry="18"/>
<text text-anchor="middle" x="1016.49" y="-275.3" font-family="Times,serif" font-size="14.00">अ&#45;प्रतिम&#45;प्रभाव (19)</text>
</a>
</g>
</g>
<!-- 13&#45;&gt;19 -->
<g id="edge17" class="edge">
<title>13&#45;&gt;19</title>
<path fill="none" stroke="black" d="M774.46,-353.93C798.56,-347.18 829.84,-338.28 857.49,-330 892.01,-319.66 930.57,-307.55 961.07,-297.84"/>
<polygon fill="black" stroke="black" points="962.21,-301.15 970.67,-294.77 960.08,-294.48 962.21,-301.15"/>
<text text-anchor="middle" x="930.99" y="-318.8" font-family="Times,serif" font-size="14.00">सम्बोध्यः</text>
</g>
<!-- 14 -->
<g id="node14" class="node">
<title>14</title>
<g id="a_node14"><a xlink:title="अधिक{पुं}{1;एक}">
<ellipse fill="#00bfff" stroke="#00bfff" cx="1198.49" cy="-279" rx="68.79" ry="18"/>
<text text-anchor="middle" x="1198.49" y="-275.3" font-family="Times,serif" font-size="14.00">अभ्यधिकः (14)</text>
</a>
</g>
</g>
<!-- 16 -->
<g id="node16" class="node">
<title>16</title>
<g id="a_node16"><a xlink:title="अन्य{पुं}{1;एक}">
<ellipse fill="#00bfff" stroke="#00bfff" cx="1198.49" cy="-192" rx="53.09" ry="18"/>
<text text-anchor="middle" x="1198.49" y="-188.3" font-family="Times,serif" font-size="14.00">अन्यः (16)</text>
</a>
</g>
</g>
<!-- 14&#45;&gt;16 -->
<g id="edge14" class="edge">
<title>14&#45;&gt;16</title>
<path fill="none" stroke="black" d="M1198.49,-260.8C1198.49,-249.16 1198.49,-233.55 1198.49,-220.24"/>
<polygon fill="black" stroke="black" points="1201.99,-220.18 1198.49,-210.18 1194.99,-220.18 1201.99,-220.18"/>
<text text-anchor="middle" x="1223.99" y="-231.8" font-family="Times,serif" font-size="14.00">विशेषणम्</text>
</g>
<!-- 15 -->
<g id="node15" class="node">
<title>15</title>
<g id="a_node15"><a xlink:title="कुतः{अव्य}">
<ellipse fill="#ff00ff" stroke="#ff00ff" cx="1333.49" cy="-279" rx="48.19" ry="18"/>
<text text-anchor="middle" x="1333.49" y="-275.3" font-family="Times,serif" font-size="14.00">कुतः (15)</text>
</a>
</g>
</g>
<!-- 18 -->
<g id="node18" class="node">
<title>18</title>
<g id="a_node18"><a xlink:title="अपि{अव्य}">
<ellipse fill="#ff00ff" stroke="#ff00ff" cx="836.49" cy="-192" rx="48.19" ry="18"/>
<text text-anchor="middle" x="836.49" y="-188.3" font-family="Times,serif" font-size="14.00">अपि (18)</text>
</a>
</g>
</g>
<!-- 17&#45;&gt;18 -->
<g id="edge16" class="edge">
<title>17&#45;&gt;18</title>
<path fill="none" stroke="black" d="M836.49,-260.8C836.49,-249.16 836.49,-233.55 836.49,-220.24"/>
<polygon fill="black" stroke="black" points="839.99,-220.18 836.49,-210.18 832.99,-220.18 839.99,-220.18"/>
<text text-anchor="middle" x="859.49" y="-231.8" font-family="Times,serif" font-size="14.00">सम्बन्धः</text>
</g>
<!-- 19.1 -->
<g id="node20" class="node">
<title>19.1</title>
<g id="a_node20"><a xlink:title="(सम्_भू1{कर्तरि;लट्;प्र;एक;परस्मैपदी;सम्_भू;भ्वादिः})">
<ellipse fill="#ff6347" stroke="#ff6347" cx="1299.49" cy="-366" rx="78.79" ry="18"/>
<text text-anchor="middle" x="1299.49" y="-362.3" font-family="Times,serif" font-size="14.00">(सम्भवति) (19.1)</text>
</a>
</g>
</g>
<!-- 19.1&#45;&gt;14 -->
<g id="edge12" class="edge">
<title>19.1&#45;&gt;14</title>
<path fill="none" stroke="black" d="M1279.54,-348.21C1264.22,-335.32 1242.9,-317.38 1225.98,-303.13"/>
<polygon fill="black" stroke="black" points="1227.97,-300.23 1218.06,-296.47 1223.46,-305.59 1227.97,-300.23"/>
<text text-anchor="middle" x="1266.99" y="-318.8" font-family="Times,serif" font-size="14.00">कर्ता</text>
</g>
<!-- 19.1&#45;&gt;15 -->
<g id="edge13" class="edge">
<title>19.1&#45;&gt;15</title>
<path fill="none" stroke="black" d="M1306.37,-347.8C1311.15,-335.85 1317.61,-319.72 1323.02,-306.18"/>
<polygon fill="black" stroke="black" points="1326.28,-307.47 1326.74,-296.89 1319.78,-304.87 1326.28,-307.47"/>
<text text-anchor="middle" x="1329.99" y="-318.8" font-family="Times,serif" font-size="14.00">हेतुः</text>
</g>
</g>
</svg>
