<?xml version="1.0" encoding="UTF-8" standalone="no"?>
<!DOCTYPE svg PUBLIC "-//W3C//DTD SVG 1.1//EN"
 "http://www.w3.org/Graphics/SVG/1.1/DTD/svg11.dtd">
<!-- Generated by graphviz version 2.43.0 (0)
 -->
<!-- Title: %3 Pages: 1 -->
<svg width="980pt" height="392pt"
 viewBox="0.00 0.00 980.45 392.00" xmlns="http://www.w3.org/2000/svg" xmlns:xlink="http://www.w3.org/1999/xlink">
<g id="graph0" class="graph" transform="scale(1 1) rotate(0) translate(4 388)">
<title>%3</title>
<polygon fill="#fffacd" stroke="transparent" points="-4,4 -4,-388 976.45,-388 976.45,4 -4,4"/>
<!-- 1 -->
<g id="node1" class="node">
<title>1</title>
<g id="a_node1"><a xlink:title="युष्मद्{1;एक}">
<ellipse fill="#00bfff" stroke="#00bfff" cx="41.45" cy="-279" rx="40.89" ry="18"/>
<text text-anchor="middle" x="41.45" y="-275.3" font-family="Times,serif" font-size="14.00">त्वम् (1)</text>
</a>
</g>
</g>
<!-- 2 -->
<g id="node2" class="node">
<title>2</title>
<g id="a_node2"><a xlink:title="अक्षर{नपुं}{1;एक}">
<ellipse fill="#00bfff" stroke="#00bfff" cx="154.45" cy="-279" rx="53.89" ry="18"/>
<text text-anchor="middle" x="154.45" y="-275.3" font-family="Times,serif" font-size="14.00">अ&#45;क्षरम् (2)</text>
</a>
</g>
</g>
<!-- 3 -->
<g id="node3" class="node">
<title>3</title>
<g id="a_node3"><a xlink:title="परम{नपुं}{1;एक}">
<ellipse fill="#00bfff" stroke="#00bfff" cx="47.45" cy="-192" rx="47.39" ry="18"/>
<text text-anchor="middle" x="47.45" y="-188.3" font-family="Times,serif" font-size="14.00">परमम् (3)</text>
</a>
</g>
</g>
<!-- 2&#45;&gt;3 -->
<g id="edge3" class="edge">
<title>2&#45;&gt;3</title>
<path fill="none" stroke="black" d="M133.25,-262.13C125.41,-256.19 116.48,-249.34 108.45,-243 97.06,-234 84.64,-223.89 74,-215.12"/>
<polygon fill="black" stroke="black" points="76.2,-212.39 66.26,-208.72 71.74,-217.79 76.2,-212.39"/>
<text text-anchor="middle" x="133.95" y="-231.8" font-family="Times,serif" font-size="14.00">विशेषणम्</text>
</g>
<!-- 4 -->
<g id="node4" class="node">
<title>4</title>
<g id="a_node4"><a xlink:title="विद्1{कृत्_प्रत्ययः:तव्यत्;विदँ;अदादिः;नपुं}{1;एक}">
<ellipse fill="#00bfff" stroke="#00bfff" cx="174.45" cy="-192" rx="61.19" ry="18"/>
<text text-anchor="middle" x="174.45" y="-188.3" font-family="Times,serif" font-size="14.00">वेदितव्यम् (4)</text>
</a>
</g>
</g>
<!-- 2&#45;&gt;4 -->
<g id="edge4" class="edge">
<title>2&#45;&gt;4</title>
<path fill="none" stroke="black" d="M158.49,-260.8C161.23,-249.16 164.91,-233.55 168.04,-220.24"/>
<polygon fill="black" stroke="black" points="171.52,-220.71 170.4,-210.18 164.71,-219.11 171.52,-220.71"/>
<text text-anchor="middle" x="191.95" y="-231.8" font-family="Times,serif" font-size="14.00">विशेषणम्</text>
</g>
<!-- 4.1 -->
<g id="node5" class="node">
<title>4.1</title>
<g id="a_node5"><a xlink:title="(अस्2{कर्तरि;लट्;म;एक;परस्मैपदी;असँ;अदादिः})">
<ellipse fill="#ff6347" stroke="#ff6347" cx="116.45" cy="-366" rx="59.29" ry="18"/>
<text text-anchor="middle" x="116.45" y="-362.3" font-family="Times,serif" font-size="14.00">(असि) (4.1)</text>
</a>
</g>
</g>
<!-- 4.1&#45;&gt;1 -->
<g id="edge1" class="edge">
<title>4.1&#45;&gt;1</title>
<path fill="none" stroke="black" d="M101.63,-348.21C90.49,-335.59 75.09,-318.13 62.65,-304.03"/>
<polygon fill="black" stroke="black" points="64.96,-301.36 55.72,-296.18 59.72,-306 64.96,-301.36"/>
<text text-anchor="middle" x="95.95" y="-318.8" font-family="Times,serif" font-size="14.00">कर्ता</text>
</g>
<!-- 4.1&#45;&gt;2 -->
<g id="edge2" class="edge">
<title>4.1&#45;&gt;2</title>
<path fill="none" stroke="black" d="M124.14,-347.8C129.48,-335.85 136.69,-319.72 142.74,-306.18"/>
<polygon fill="black" stroke="black" points="146.01,-307.44 146.9,-296.89 139.62,-304.59 146.01,-307.44"/>
<text text-anchor="middle" x="190.45" y="-318.8" font-family="Times,serif" font-size="14.00">कर्तृसमानाधिकरणम्</text>
</g>
<!-- 5 -->
<g id="node6" class="node">
<title>5</title>
<g id="a_node6"><a xlink:title="युष्मद्{1;एक}">
<ellipse fill="#00bfff" stroke="#00bfff" cx="274.45" cy="-279" rx="40.89" ry="18"/>
<text text-anchor="middle" x="274.45" y="-275.3" font-family="Times,serif" font-size="14.00">त्वम् (5)</text>
</a>
</g>
</g>
<!-- 6 -->
<g id="node7" class="node">
<title>6</title>
<g id="a_node7"><a xlink:title="इदम्{नपुं}{6;एक}">
<ellipse fill="#87ceeb" stroke="#87ceeb" cx="332.45" cy="-105" rx="44.69" ry="18"/>
<text text-anchor="middle" x="332.45" y="-101.3" font-family="Times,serif" font-size="14.00">अस्य (6)</text>
</a>
</g>
</g>
<!-- 7 -->
<g id="node8" class="node">
<title>7</title>
<g id="a_node8"><a xlink:title="विश्व{नपुं}{6;एक}">
<ellipse fill="#87ceeb" stroke="#87ceeb" cx="332.45" cy="-192" rx="56.59" ry="18"/>
<text text-anchor="middle" x="332.45" y="-188.3" font-family="Times,serif" font-size="14.00">विश्वस्य (7)</text>
</a>
</g>
</g>
<!-- 7&#45;&gt;6 -->
<g id="edge6" class="edge">
<title>7&#45;&gt;6</title>
<path fill="none" stroke="black" d="M332.45,-173.8C332.45,-162.16 332.45,-146.55 332.45,-133.24"/>
<polygon fill="black" stroke="black" points="335.95,-133.18 332.45,-123.18 328.95,-133.18 335.95,-133.18"/>
<text text-anchor="middle" x="357.95" y="-144.8" font-family="Times,serif" font-size="14.00">विशेषणम्</text>
</g>
<!-- 8 -->
<g id="node9" class="node">
<title>8</title>
<g id="a_node9"><a xlink:title="पर{नपुं}{1;एक}">
<ellipse fill="#00bfff" stroke="#00bfff" cx="448.45" cy="-192" rx="41.69" ry="18"/>
<text text-anchor="middle" x="448.45" y="-188.3" font-family="Times,serif" font-size="14.00">परम् (8)</text>
</a>
</g>
</g>
<!-- 9 -->
<g id="node10" class="node">
<title>9</title>
<g id="a_node10"><a xlink:title="निधान{नपुं}{1;एक}">
<ellipse fill="#00bfff" stroke="#00bfff" cx="387.45" cy="-279" rx="53.89" ry="18"/>
<text text-anchor="middle" x="387.45" y="-275.3" font-family="Times,serif" font-size="14.00">निधानम् (9)</text>
</a>
</g>
</g>
<!-- 9&#45;&gt;7 -->
<g id="edge7" class="edge">
<title>9&#45;&gt;7</title>
<path fill="none" stroke="black" d="M370.08,-261.91C364.62,-256.28 358.87,-249.68 354.45,-243 349.66,-235.77 345.48,-227.33 342.1,-219.47"/>
<polygon fill="black" stroke="black" points="345.24,-217.9 338.24,-209.95 338.75,-220.53 345.24,-217.9"/>
<text text-anchor="middle" x="390.45" y="-231.8" font-family="Times,serif" font-size="14.00">षष्ठीसम्बन्धः</text>
</g>
<!-- 9&#45;&gt;8 -->
<g id="edge8" class="edge">
<title>9&#45;&gt;8</title>
<path fill="none" stroke="black" d="M408.1,-262.36C414.56,-256.76 421.32,-250.07 426.45,-243 431.59,-235.9 435.88,-227.41 439.28,-219.46"/>
<polygon fill="black" stroke="black" points="442.53,-220.74 442.96,-210.16 436.02,-218.17 442.53,-220.74"/>
<text text-anchor="middle" x="460.95" y="-231.8" font-family="Times,serif" font-size="14.00">विशेषणम्</text>
</g>
<!-- 9.1 -->
<g id="node11" class="node">
<title>9.1</title>
<g id="a_node11"><a xlink:title="(अस्2{कर्तरि;लट्;म;एक;परस्मैपदी;असँ;अदादिः})">
<ellipse fill="#ff6347" stroke="#ff6347" cx="300.45" cy="-366" rx="59.29" ry="18"/>
<text text-anchor="middle" x="300.45" y="-362.3" font-family="Times,serif" font-size="14.00">(असि) (9.1)</text>
</a>
</g>
</g>
<!-- 9.1&#45;&gt;5 -->
<g id="edge5" class="edge">
<title>9.1&#45;&gt;5</title>
<path fill="none" stroke="black" d="M295.18,-347.8C291.57,-335.97 286.69,-320.03 282.58,-306.58"/>
<polygon fill="black" stroke="black" points="285.88,-305.42 279.61,-296.89 279.19,-307.47 285.88,-305.42"/>
<text text-anchor="middle" x="301.95" y="-318.8" font-family="Times,serif" font-size="14.00">कर्ता</text>
</g>
<!-- 9.1&#45;&gt;9 -->
<g id="edge9" class="edge">
<title>9.1&#45;&gt;9</title>
<path fill="none" stroke="black" d="M317.22,-348.61C330.34,-335.79 348.75,-317.8 363.43,-303.46"/>
<polygon fill="black" stroke="black" points="366.02,-305.83 370.72,-296.34 361.12,-300.82 366.02,-305.83"/>
<text text-anchor="middle" x="401.45" y="-318.8" font-family="Times,serif" font-size="14.00">कर्तृसमानाधिकरणम्</text>
</g>
<!-- 10 -->
<g id="node12" class="node">
<title>10</title>
<g id="a_node12"><a xlink:title="युष्मद्{1;एक}">
<ellipse fill="#00bfff" stroke="#00bfff" cx="510.45" cy="-279" rx="46.59" ry="18"/>
<text text-anchor="middle" x="510.45" y="-275.3" font-family="Times,serif" font-size="14.00">त्वम् (10)</text>
</a>
</g>
</g>
<!-- 11 -->
<g id="node13" class="node">
<title>11</title>
<g id="a_node13"><a xlink:title="अव्यय{पुं}{1;एक}">
<ellipse fill="#00bfff" stroke="#00bfff" cx="692.45" cy="-18" rx="61.99" ry="18"/>
<text text-anchor="middle" x="692.45" y="-14.3" font-family="Times,serif" font-size="14.00">अ&#45;व्ययः (11)</text>
</a>
</g>
</g>
<!-- 12 -->
<g id="node14" class="node">
<title>12</title>
<g id="a_node14"><a xlink:title="शाश्वत&#45;धर्मन्&#45;गोप्तृ{पुं}{1;एक}">
<ellipse fill="#00bfff" stroke="#00bfff" cx="672.45" cy="-279" rx="97.48" ry="18"/>
<text text-anchor="middle" x="672.45" y="-275.3" font-family="Times,serif" font-size="14.00">शाश्वत&#45;धर्म&#45;गोप्ता (12)</text>
</a>
</g>
</g>
<!-- 12.1 -->
<g id="node15" class="node">
<title>12.1</title>
<g id="a_node15"><a xlink:title="(अस्2{कर्तरि;लट्;म;एक;परस्मैपदी;असँ;अदादिः})">
<ellipse fill="#ff6347" stroke="#ff6347" cx="591.45" cy="-366" rx="64.99" ry="18"/>
<text text-anchor="middle" x="591.45" y="-362.3" font-family="Times,serif" font-size="14.00">(असि) (12.1)</text>
</a>
</g>
</g>
<!-- 12.1&#45;&gt;10 -->
<g id="edge10" class="edge">
<title>12.1&#45;&gt;10</title>
<path fill="none" stroke="black" d="M575.44,-348.21C563.31,-335.47 546.47,-317.8 532.97,-303.64"/>
<polygon fill="black" stroke="black" points="535.3,-301.01 525.87,-296.18 530.23,-305.84 535.3,-301.01"/>
<text text-anchor="middle" x="568.95" y="-318.8" font-family="Times,serif" font-size="14.00">कर्ता</text>
</g>
<!-- 12.1&#45;&gt;12 -->
<g id="edge12" class="edge">
<title>12.1&#45;&gt;12</title>
<path fill="none" stroke="black" d="M607.45,-348.21C619.43,-335.63 635.99,-318.25 649.4,-304.18"/>
<polygon fill="black" stroke="black" points="652.11,-306.41 656.48,-296.76 647.04,-301.58 652.11,-306.41"/>
<text text-anchor="middle" x="689.45" y="-318.8" font-family="Times,serif" font-size="14.00">कर्तृसमानाधिकरणम्</text>
</g>
<!-- 13 -->
<g id="node16" class="node">
<title>13</title>
<g id="a_node16"><a xlink:title="सनातन{पुं}{1;एक}">
<ellipse fill="#00bfff" stroke="#00bfff" cx="833.45" cy="-18" rx="61.99" ry="18"/>
<text text-anchor="middle" x="833.45" y="-14.3" font-family="Times,serif" font-size="14.00">सनातनः (13)</text>
</a>
</g>
</g>
<!-- 14 -->
<g id="node17" class="node">
<title>14</title>
<g id="a_node17"><a xlink:title="युष्मद्{1;एक}">
<ellipse fill="#00bfff" stroke="#00bfff" cx="646.45" cy="-105" rx="46.59" ry="18"/>
<text text-anchor="middle" x="646.45" y="-101.3" font-family="Times,serif" font-size="14.00">त्वम् (14)</text>
</a>
</g>
</g>
<!-- 15 -->
<g id="node18" class="node">
<title>15</title>
<g id="a_node18"><a xlink:title="पुरुष{पुं}{1;एक}">
<ellipse fill="#00bfff" stroke="#00bfff" cx="763.45" cy="-105" rx="51.99" ry="18"/>
<text text-anchor="middle" x="763.45" y="-101.3" font-family="Times,serif" font-size="14.00">पुरुषः (15)</text>
</a>
</g>
</g>
<!-- 15&#45;&gt;11 -->
<g id="edge11" class="edge">
<title>15&#45;&gt;11</title>
<path fill="none" stroke="black" d="M749.76,-87.61C739.31,-75.11 724.76,-57.69 712.93,-43.53"/>
<polygon fill="black" stroke="black" points="715.43,-41.06 706.34,-35.63 710.06,-45.55 715.43,-41.06"/>
<text text-anchor="middle" x="757.95" y="-57.8" font-family="Times,serif" font-size="14.00">विशेषणम्</text>
</g>
<!-- 15&#45;&gt;13 -->
<g id="edge13" class="edge">
<title>15&#45;&gt;13</title>
<path fill="none" stroke="black" d="M776.94,-87.61C787.24,-75.11 801.59,-57.69 813.25,-43.53"/>
<polygon fill="black" stroke="black" points="816.1,-45.57 819.75,-35.63 810.69,-41.12 816.1,-45.57"/>
<text text-anchor="middle" x="828.95" y="-57.8" font-family="Times,serif" font-size="14.00">विशेषणम्</text>
</g>
<!-- 15.1 -->
<g id="node19" class="node">
<title>15.1</title>
<g id="a_node19"><a xlink:title="(अस्2{कर्तरि;लट्;म;एक;परस्मैपदी;असँ;अदादिः})">
<ellipse fill="#ff6347" stroke="#ff6347" cx="763.45" cy="-192" rx="64.99" ry="18"/>
<text text-anchor="middle" x="763.45" y="-188.3" font-family="Times,serif" font-size="14.00">(असि) (15.1)</text>
</a>
</g>
</g>
<!-- 15.1&#45;&gt;14 -->
<g id="edge14" class="edge">
<title>15.1&#45;&gt;14</title>
<path fill="none" stroke="black" d="M741.44,-175.01C722.9,-161.55 696.23,-142.17 675.87,-127.37"/>
<polygon fill="black" stroke="black" points="677.71,-124.39 667.57,-121.34 673.6,-130.05 677.71,-124.39"/>
<text text-anchor="middle" x="724.95" y="-144.8" font-family="Times,serif" font-size="14.00">कर्ता</text>
</g>
<!-- 15.1&#45;&gt;15 -->
<g id="edge15" class="edge">
<title>15.1&#45;&gt;15</title>
<path fill="none" stroke="black" d="M763.45,-173.8C763.45,-162.16 763.45,-146.55 763.45,-133.24"/>
<polygon fill="black" stroke="black" points="766.95,-133.18 763.45,-123.18 759.95,-133.18 766.95,-133.18"/>
<text text-anchor="middle" x="815.45" y="-144.8" font-family="Times,serif" font-size="14.00">कर्तृसमानाधिकरणम्</text>
</g>
<!-- 15.2 -->
<g id="node20" class="node">
<title>15.2</title>
<g id="a_node20"><a xlink:title="(इति{अव्य})">
<ellipse fill="#ff00ff" stroke="#ff00ff" cx="895.45" cy="-105" rx="61.99" ry="18"/>
<text text-anchor="middle" x="895.45" y="-101.3" font-family="Times,serif" font-size="14.00">(इति) (15.2)</text>
</a>
</g>
</g>
<!-- 15.1&#45;&gt;15.2 -->
<g id="edge17" class="edge">
<title>15.1&#45;&gt;15.2</title>
<path fill="none" stroke="black" d="M810.9,-179.57C835.37,-172.92 862.02,-164.24 871.45,-156 878.53,-149.81 883.71,-141.05 887.39,-132.6"/>
<polygon fill="black" stroke="black" points="890.77,-133.57 891.07,-122.98 884.23,-131.07 890.77,-133.57"/>
<text text-anchor="middle" x="927.95" y="-144.8" font-family="Times,serif" font-size="14.00">वाक्यकर्मद्योतकः</text>
</g>
<!-- 16 -->
<g id="node21" class="node">
<title>16</title>
<g id="a_node21"><a xlink:title="मत{पुं}{1;एक}">
<ellipse fill="#00bfff" stroke="#00bfff" cx="836.45" cy="-279" rx="48.19" ry="18"/>
<text text-anchor="middle" x="836.45" y="-275.3" font-family="Times,serif" font-size="14.00">मतः (16)</text>
</a>
</g>
</g>
<!-- 16&#45;&gt;15.1 -->
<g id="edge16" class="edge">
<title>16&#45;&gt;15.1</title>
<path fill="none" stroke="black" d="M821.85,-261.7C816.64,-255.83 810.75,-249.15 805.45,-243 798.34,-234.76 790.65,-225.67 783.83,-217.52"/>
<polygon fill="black" stroke="black" points="786.44,-215.19 777.34,-209.76 781.07,-219.68 786.44,-215.19"/>
<text text-anchor="middle" x="829.95" y="-231.8" font-family="Times,serif" font-size="14.00">वाक्यकर्म</text>
</g>
<!-- 17 -->
<g id="node22" class="node">
<title>17</title>
<g id="a_node22"><a xlink:title="अस्मद्{6;एक}">
<ellipse fill="#87ceeb" stroke="#87ceeb" cx="884.45" cy="-192" rx="38.19" ry="18"/>
<text text-anchor="middle" x="884.45" y="-188.3" font-family="Times,serif" font-size="14.00">मे (17)</text>
</a>
</g>
</g>
<!-- 16&#45;&gt;17 -->
<g id="edge19" class="edge">
<title>16&#45;&gt;17</title>
<path fill="none" stroke="black" d="M845.93,-261.21C852.81,-249.02 862.24,-232.32 870.05,-218.49"/>
<polygon fill="black" stroke="black" points="873.28,-219.9 875.15,-209.47 867.18,-216.46 873.28,-219.9"/>
<text text-anchor="middle" x="899.45" y="-231.8" font-family="Times,serif" font-size="14.00">षष्ठीसम्बन्धः</text>
</g>
<!-- 17.1 -->
<g id="node23" class="node">
<title>17.1</title>
<g id="a_node23"><a xlink:title="(अस्2{कर्तरि;लट्;प्र;एक;परस्मैपदी;असँ;अदादिः})">
<ellipse fill="#ff6347" stroke="#ff6347" cx="836.45" cy="-366" rx="68.79" ry="18"/>
<text text-anchor="middle" x="836.45" y="-362.3" font-family="Times,serif" font-size="14.00">(अस्ति) (17.1)</text>
</a>
</g>
</g>
<!-- 17.1&#45;&gt;16 -->
<g id="edge18" class="edge">
<title>17.1&#45;&gt;16</title>
<path fill="none" stroke="black" d="M836.45,-347.8C836.45,-336.16 836.45,-320.55 836.45,-307.24"/>
<polygon fill="black" stroke="black" points="839.95,-307.18 836.45,-297.18 832.95,-307.18 839.95,-307.18"/>
<text text-anchor="middle" x="848.95" y="-318.8" font-family="Times,serif" font-size="14.00">कर्ता</text>
</g>
</g>
</svg>
