<?xml version="1.0" encoding="UTF-8" standalone="no"?>
<!DOCTYPE svg PUBLIC "-//W3C//DTD SVG 1.1//EN"
 "http://www.w3.org/Graphics/SVG/1.1/DTD/svg11.dtd">
<!-- Generated by graphviz version 2.43.0 (0)
 -->
<!-- Title: %3 Pages: 1 -->
<svg width="1034pt" height="305pt"
 viewBox="0.00 0.00 1033.69 305.00" xmlns="http://www.w3.org/2000/svg" xmlns:xlink="http://www.w3.org/1999/xlink">
<g id="graph0" class="graph" transform="scale(1 1) rotate(0) translate(4 301)">
<title>%3</title>
<polygon fill="#fffacd" stroke="transparent" points="-4,4 -4,-301 1029.69,-301 1029.69,4 -4,4"/>
<!-- 1 -->
<g id="node1" class="node">
<title>1</title>
<g id="a_node1"><a xlink:title="किरीटिन्{पुं}{2;एक}">
<ellipse fill="#7cfc00" stroke="#7cfc00" cx="61.74" cy="-18" rx="61.99" ry="18"/>
<text text-anchor="middle" x="61.74" y="-14.3" font-family="Times,serif" font-size="14.00">किरीटिनम् (1)</text>
</a>
</g>
</g>
<!-- 2 -->
<g id="node2" class="node">
<title>2</title>
<g id="a_node2"><a xlink:title="गदिन्{पुं}{2;एक}">
<ellipse fill="#7cfc00" stroke="#7cfc00" cx="192.74" cy="-18" rx="51.19" ry="18"/>
<text text-anchor="middle" x="192.74" y="-14.3" font-family="Times,serif" font-size="14.00">गदिनम् (2)</text>
</a>
</g>
</g>
<!-- 3 -->
<g id="node3" class="node">
<title>3</title>
<g id="a_node3"><a xlink:title="चक्र&#45;हस्त{पुं}{2;एक}">
<ellipse fill="#7cfc00" stroke="#7cfc00" cx="192.74" cy="-105" rx="68.49" ry="18"/>
<text text-anchor="middle" x="192.74" y="-101.3" font-family="Times,serif" font-size="14.00">चक्र&#45;हस्तम् (3)</text>
</a>
</g>
</g>
<!-- 3&#45;&gt;1 -->
<g id="edge1" class="edge">
<title>3&#45;&gt;1</title>
<path fill="none" stroke="black" d="M153.96,-90C140.68,-84.39 126.07,-77.28 113.74,-69 102.86,-61.69 92.18,-52 83.36,-43.09"/>
<polygon fill="black" stroke="black" points="85.88,-40.66 76.43,-35.87 80.83,-45.51 85.88,-40.66"/>
<text text-anchor="middle" x="151.24" y="-57.8" font-family="Times,serif" font-size="14.00">सुप्समुच्चितम्</text>
</g>
<!-- 3&#45;&gt;2 -->
<g id="edge2" class="edge">
<title>3&#45;&gt;2</title>
<path fill="none" stroke="black" d="M192.74,-86.8C192.74,-75.16 192.74,-59.55 192.74,-46.24"/>
<polygon fill="black" stroke="black" points="196.24,-46.18 192.74,-36.18 189.24,-46.18 196.24,-46.18"/>
<text text-anchor="middle" x="230.24" y="-57.8" font-family="Times,serif" font-size="14.00">सुप्समुच्चितम्</text>
</g>
<!-- 3.1 -->
<g id="node4" class="node">
<title>3.1</title>
<g id="a_node4"><a xlink:title="(च{अव्य})">
<ellipse fill="#ff00ff" stroke="#ff00ff" cx="310.74" cy="-18" rx="48.99" ry="18"/>
<text text-anchor="middle" x="310.74" y="-14.3" font-family="Times,serif" font-size="14.00">(च) (3.1)</text>
</a>
</g>
</g>
<!-- 3&#45;&gt;3.1 -->
<g id="edge4" class="edge">
<title>3&#45;&gt;3.1</title>
<path fill="none" stroke="black" d="M233.44,-90.46C246.44,-85 260.39,-77.86 271.74,-69 280.47,-62.19 288.35,-53.02 294.71,-44.4"/>
<polygon fill="black" stroke="black" points="297.68,-46.26 300.54,-36.06 291.94,-42.25 297.68,-46.26"/>
<text text-anchor="middle" x="329.24" y="-57.8" font-family="Times,serif" font-size="14.00">समुच्चयद्योतकः</text>
</g>
<!-- 4 -->
<g id="node5" class="node">
<title>4</title>
<g id="a_node5"><a xlink:title="इष्2{कर्तरि;लट्;उ;एक;परस्मैपदी;इषुँ;तुदादिः}">
<ellipse fill="#ff6347" stroke="#ff6347" cx="379.74" cy="-279" rx="55.79" ry="18"/>
<text text-anchor="middle" x="379.74" y="-275.3" font-family="Times,serif" font-size="14.00">इच्छामि (4)</text>
</a>
</g>
</g>
<!-- 6 -->
<g id="node7" class="node">
<title>6</title>
<g id="a_node7"><a xlink:title="दृश्1{कृत्_प्रत्ययः:तुमुन्;दृशिँर्;भ्वादिः}">
<ellipse fill="#808080" stroke="#808080" cx="264.74" cy="-192" rx="51.99" ry="18"/>
<text text-anchor="middle" x="264.74" y="-188.3" font-family="Times,serif" font-size="14.00">द्रष्टुम् (6)</text>
</a>
</g>
</g>
<!-- 4&#45;&gt;6 -->
<g id="edge6" class="edge">
<title>4&#45;&gt;6</title>
<path fill="none" stroke="black" d="M358.38,-262.21C340.31,-248.85 314.22,-229.57 294.17,-214.75"/>
<polygon fill="black" stroke="black" points="296.11,-211.83 285.99,-208.7 291.95,-217.46 296.11,-211.83"/>
<text text-anchor="middle" x="339.74" y="-231.8" font-family="Times,serif" font-size="14.00">कर्म</text>
</g>
<!-- 7 -->
<g id="node8" class="node">
<title>7</title>
<g id="a_node8"><a xlink:title="अस्मद्{1;एक}">
<ellipse fill="#00bfff" stroke="#00bfff" cx="379.74" cy="-192" rx="44.69" ry="18"/>
<text text-anchor="middle" x="379.74" y="-188.3" font-family="Times,serif" font-size="14.00">अहम् (7)</text>
</a>
</g>
</g>
<!-- 4&#45;&gt;7 -->
<g id="edge7" class="edge">
<title>4&#45;&gt;7</title>
<path fill="none" stroke="black" d="M379.74,-260.8C379.74,-249.16 379.74,-233.55 379.74,-220.24"/>
<polygon fill="black" stroke="black" points="383.24,-220.18 379.74,-210.18 376.24,-220.18 383.24,-220.18"/>
<text text-anchor="middle" x="392.24" y="-231.8" font-family="Times,serif" font-size="14.00">कर्ता</text>
</g>
<!-- 8 -->
<g id="node9" class="node">
<title>8</title>
<g id="a_node9"><a xlink:title="तथैव{अव्य}">
<ellipse fill="#ff00ff" stroke="#ff00ff" cx="486.74" cy="-192" rx="44.39" ry="18"/>
<text text-anchor="middle" x="486.74" y="-188.3" font-family="Times,serif" font-size="14.00">तथैव (8)</text>
</a>
</g>
</g>
<!-- 4&#45;&gt;8 -->
<g id="edge8" class="edge">
<title>4&#45;&gt;8</title>
<path fill="none" stroke="black" d="M399.87,-262.01C416.75,-248.61 441,-229.34 459.59,-214.57"/>
<polygon fill="black" stroke="black" points="461.78,-217.3 467.43,-208.34 457.42,-211.82 461.78,-217.3"/>
<text text-anchor="middle" x="482.24" y="-231.8" font-family="Times,serif" font-size="14.00">क्रियाविशेषणम्</text>
</g>
<!-- 5 -->
<g id="node6" class="node">
<title>5</title>
<g id="a_node6"><a xlink:title="युष्मद्{2;एक}">
<ellipse fill="#7cfc00" stroke="#7cfc00" cx="322.74" cy="-105" rx="44.39" ry="18"/>
<text text-anchor="middle" x="322.74" y="-101.3" font-family="Times,serif" font-size="14.00">त्वाम् (5)</text>
</a>
</g>
</g>
<!-- 6&#45;&gt;3 -->
<g id="edge3" class="edge">
<title>6&#45;&gt;3</title>
<path fill="none" stroke="black" d="M224.2,-180.49C211.97,-175.22 199.9,-167.43 192.74,-156 188.52,-149.25 187.32,-140.91 187.53,-132.99"/>
<polygon fill="black" stroke="black" points="191.02,-133.28 188.47,-122.99 184.05,-132.62 191.02,-133.28"/>
<text text-anchor="middle" x="244.74" y="-144.8" font-family="Times,serif" font-size="14.00">कर्मसमानाधिकरणम्</text>
</g>
<!-- 6&#45;&gt;5 -->
<g id="edge5" class="edge">
<title>6&#45;&gt;5</title>
<path fill="none" stroke="black" d="M283.76,-175.13C289.72,-169.51 295.97,-162.87 300.74,-156 305.69,-148.88 309.91,-140.47 313.29,-132.6"/>
<polygon fill="black" stroke="black" points="316.64,-133.64 317.11,-123.05 310.14,-131.03 316.64,-133.64"/>
<text text-anchor="middle" x="319.74" y="-144.8" font-family="Times,serif" font-size="14.00">कर्म</text>
</g>
<!-- 10 -->
<g id="node11" class="node">
<title>10</title>
<g id="a_node11"><a xlink:title="एव{अव्य}">
<ellipse fill="#ff00ff" stroke="#ff00ff" cx="486.74" cy="-105" rx="43.59" ry="18"/>
<text text-anchor="middle" x="486.74" y="-101.3" font-family="Times,serif" font-size="14.00">एव (10)</text>
</a>
</g>
</g>
<!-- 8&#45;&gt;10 -->
<g id="edge10" class="edge">
<title>8&#45;&gt;10</title>
<path fill="none" stroke="black" d="M486.74,-173.8C486.74,-162.16 486.74,-146.55 486.74,-133.24"/>
<polygon fill="black" stroke="black" points="490.24,-133.18 486.74,-123.18 483.24,-133.18 490.24,-133.18"/>
<text text-anchor="middle" x="509.74" y="-144.8" font-family="Times,serif" font-size="14.00">सम्बन्धः</text>
</g>
<!-- 9 -->
<g id="node10" class="node">
<title>9</title>
<g id="a_node10"><a xlink:title="तद्{पुं}{3;एक}">
<ellipse fill="#40e0d0" stroke="#40e0d0" cx="592.74" cy="-105" rx="38.19" ry="18"/>
<text text-anchor="middle" x="592.74" y="-101.3" font-family="Times,serif" font-size="14.00">तेन (9)</text>
</a>
</g>
</g>
<!-- 11 -->
<g id="node12" class="node">
<title>11</title>
<g id="a_node12"><a xlink:title="रूप{नपुं}{3;एक}">
<ellipse fill="#40e0d0" stroke="#40e0d0" cx="659.74" cy="-192" rx="50.09" ry="18"/>
<text text-anchor="middle" x="659.74" y="-188.3" font-family="Times,serif" font-size="14.00">रूपेण (11)</text>
</a>
</g>
</g>
<!-- 11&#45;&gt;9 -->
<g id="edge9" class="edge">
<title>11&#45;&gt;9</title>
<path fill="none" stroke="black" d="M646.31,-174.3C641.68,-168.52 636.47,-161.98 631.74,-156 625.16,-147.67 618,-138.51 611.63,-130.34"/>
<polygon fill="black" stroke="black" points="614.24,-128 605.34,-122.25 608.72,-132.29 614.24,-128"/>
<text text-anchor="middle" x="657.24" y="-144.8" font-family="Times,serif" font-size="14.00">विशेषणम्</text>
</g>
<!-- 12 -->
<g id="node13" class="node">
<title>12</title>
<g id="a_node13"><a xlink:title="चतुर्&#45;भुज{पुं}{3;एक}">
<ellipse fill="#40e0d0" stroke="#40e0d0" cx="720.74" cy="-105" rx="71.49" ry="18"/>
<text text-anchor="middle" x="720.74" y="-101.3" font-family="Times,serif" font-size="14.00">चतुर्&#45;भुजेन (12)</text>
</a>
</g>
</g>
<!-- 11&#45;&gt;12 -->
<g id="edge12" class="edge">
<title>11&#45;&gt;12</title>
<path fill="none" stroke="black" d="M671.8,-174.21C680.65,-161.87 692.83,-144.89 702.83,-130.97"/>
<polygon fill="black" stroke="black" points="705.73,-132.92 708.72,-122.76 700.04,-128.84 705.73,-132.92"/>
<text text-anchor="middle" x="720.24" y="-144.8" font-family="Times,serif" font-size="14.00">विशेषणम्</text>
</g>
<!-- 13 -->
<g id="node14" class="node">
<title>13</title>
<g id="a_node14"><a xlink:title="सहस्र&#45;बाहु{पुं}{8;एक}">
<ellipse fill="#7fffd4" stroke="#7fffd4" cx="800.74" cy="-192" rx="73.39" ry="18"/>
<text text-anchor="middle" x="800.74" y="-188.3" font-family="Times,serif" font-size="14.00">सहस्र&#45;बाहो (13)</text>
</a>
</g>
</g>
<!-- 14 -->
<g id="node15" class="node">
<title>14</title>
<g id="a_node15"><a xlink:title="भू1{कर्तरि;लोट्;म;एक;परस्मैपदी;भू;भ्वादिः}">
<ellipse fill="#ff6347" stroke="#ff6347" cx="800.74" cy="-279" rx="44.39" ry="18"/>
<text text-anchor="middle" x="800.74" y="-275.3" font-family="Times,serif" font-size="14.00">भव (14)</text>
</a>
</g>
</g>
<!-- 14&#45;&gt;11 -->
<g id="edge11" class="edge">
<title>14&#45;&gt;11</title>
<path fill="none" stroke="black" d="M765.85,-267.82C748.78,-261.98 728.38,-253.67 711.74,-243 700.54,-235.82 689.68,-225.98 680.81,-216.94"/>
<polygon fill="black" stroke="black" points="683.28,-214.45 673.86,-209.6 678.19,-219.27 683.28,-214.45"/>
<text text-anchor="middle" x="754.24" y="-231.8" font-family="Times,serif" font-size="14.00">क्रियाविशेषणम्</text>
</g>
<!-- 14&#45;&gt;13 -->
<g id="edge13" class="edge">
<title>14&#45;&gt;13</title>
<path fill="none" stroke="black" d="M800.74,-260.8C800.74,-249.16 800.74,-233.55 800.74,-220.24"/>
<polygon fill="black" stroke="black" points="804.24,-220.18 800.74,-210.18 797.24,-220.18 804.24,-220.18"/>
<text text-anchor="middle" x="826.24" y="-231.8" font-family="Times,serif" font-size="14.00">सम्बोध्यः</text>
</g>
<!-- 15 -->
<g id="node16" class="node">
<title>15</title>
<g id="a_node16"><a xlink:title="विश्व&#45;मूर्ति{पुं}{8;एक}">
<ellipse fill="#7fffd4" stroke="#7fffd4" cx="958.74" cy="-192" rx="66.89" ry="18"/>
<text text-anchor="middle" x="958.74" y="-188.3" font-family="Times,serif" font-size="14.00">विश्व&#45;मूर्ते (15)</text>
</a>
</g>
</g>
<!-- 14&#45;&gt;15 -->
<g id="edge14" class="edge">
<title>14&#45;&gt;15</title>
<path fill="none" stroke="black" d="M826.48,-264.15C852.13,-250.36 891.78,-229.02 920.99,-213.31"/>
<polygon fill="black" stroke="black" points="922.93,-216.24 930.08,-208.42 919.61,-210.08 922.93,-216.24"/>
<text text-anchor="middle" x="914.24" y="-231.8" font-family="Times,serif" font-size="14.00">सम्बोध्यः</text>
</g>
</g>
</svg>
