<?xml version="1.0" encoding="UTF-8" standalone="no"?>
<!DOCTYPE svg PUBLIC "-//W3C//DTD SVG 1.1//EN"
 "http://www.w3.org/Graphics/SVG/1.1/DTD/svg11.dtd">
<!-- Generated by graphviz version 2.43.0 (0)
 -->
<!-- Title: %3 Pages: 1 -->
<svg width="1482pt" height="218pt"
 viewBox="0.00 0.00 1481.54 218.00" xmlns="http://www.w3.org/2000/svg" xmlns:xlink="http://www.w3.org/1999/xlink">
<g id="graph0" class="graph" transform="scale(1 1) rotate(0) translate(4 214)">
<title>%3</title>
<polygon fill="#fffacd" stroke="transparent" points="-4,4 -4,-214 1477.54,-214 1477.54,4 -4,4"/>
<!-- 1 -->
<g id="node1" class="node">
<title>1</title>
<g id="a_node1"><a xlink:title="नमः{अव्य}">
<ellipse fill="#ff00ff" stroke="#ff00ff" cx="41.6" cy="-105" rx="41.69" ry="18"/>
<text text-anchor="middle" x="41.6" y="-101.3" font-family="Times,serif" font-size="14.00">नमः (1)</text>
</a>
</g>
</g>
<!-- 2 -->
<g id="node2" class="node">
<title>2</title>
<g id="a_node2"><a xlink:title="पुरस्तात्{अव्य}">
<ellipse fill="#ff00ff" stroke="#ff00ff" cx="156.6" cy="-105" rx="55.49" ry="18"/>
<text text-anchor="middle" x="156.6" y="-101.3" font-family="Times,serif" font-size="14.00">पुरस्तात् (2)</text>
</a>
</g>
</g>
<!-- 3 -->
<g id="node3" class="node">
<title>3</title>
<g id="a_node3"><a xlink:title="अथ{अव्य}">
<ellipse fill="#ff00ff" stroke="#ff00ff" cx="102.6" cy="-18" rx="40.09" ry="18"/>
<text text-anchor="middle" x="102.6" y="-14.3" font-family="Times,serif" font-size="14.00">अथ (3)</text>
</a>
</g>
</g>
<!-- 2&#45;&gt;3 -->
<g id="edge3" class="edge">
<title>2&#45;&gt;3</title>
<path fill="none" stroke="black" d="M124.96,-90.08C116.54,-84.75 108.44,-77.79 103.6,-69 99.85,-62.2 98.6,-54.06 98.56,-46.33"/>
<polygon fill="black" stroke="black" points="102.06,-46.41 99.13,-36.23 95.07,-46.02 102.06,-46.41"/>
<text text-anchor="middle" x="146.1" y="-57.8" font-family="Times,serif" font-size="14.00">समुच्चयद्योतकः</text>
</g>
<!-- 4 -->
<g id="node4" class="node">
<title>4</title>
<g id="a_node4"><a xlink:title="पृष्ठतः{अव्य}">
<ellipse fill="#ff00ff" stroke="#ff00ff" cx="210.6" cy="-18" rx="50.09" ry="18"/>
<text text-anchor="middle" x="210.6" y="-14.3" font-family="Times,serif" font-size="14.00">पृष्ठतः (4)</text>
</a>
</g>
</g>
<!-- 2&#45;&gt;4 -->
<g id="edge4" class="edge">
<title>2&#45;&gt;4</title>
<path fill="none" stroke="black" d="M173.41,-87.83C178.7,-82.2 184.28,-75.62 188.6,-69 193.33,-61.74 197.49,-53.29 200.88,-45.42"/>
<polygon fill="black" stroke="black" points="204.22,-46.49 204.75,-35.91 197.74,-43.85 204.22,-46.49"/>
<text text-anchor="middle" x="227.1" y="-57.8" font-family="Times,serif" font-size="14.00">समुच्चितम्</text>
</g>
<!-- 5 -->
<g id="node5" class="node">
<title>5</title>
<g id="a_node5"><a xlink:title="युष्मद्{6;एक}">
<ellipse fill="#87ceeb" stroke="#87ceeb" cx="262.6" cy="-105" rx="32.49" ry="18"/>
<text text-anchor="middle" x="262.6" y="-101.3" font-family="Times,serif" font-size="14.00">ते (5)</text>
</a>
</g>
</g>
<!-- 6 -->
<g id="node6" class="node">
<title>6</title>
<g id="a_node6"><a xlink:title="नमः{अव्य}">
<ellipse fill="#ff00ff" stroke="#ff00ff" cx="354.6" cy="-105" rx="41.69" ry="18"/>
<text text-anchor="middle" x="354.6" y="-101.3" font-family="Times,serif" font-size="14.00">नमः (6)</text>
</a>
</g>
</g>
<!-- 7 -->
<g id="node7" class="node">
<title>7</title>
<g id="a_node7"><a xlink:title="अस्2{कर्तरि;लोट्;प्र;एक;परस्मैपदी;असँ;अदादिः}">
<ellipse fill="#ff6347" stroke="#ff6347" cx="545.6" cy="-192" rx="44.39" ry="18"/>
<text text-anchor="middle" x="545.6" y="-188.3" font-family="Times,serif" font-size="14.00">अस्तु (7)</text>
</a>
</g>
</g>
<!-- 7&#45;&gt;6 -->
<g id="edge6" class="edge">
<title>7&#45;&gt;6</title>
<path fill="none" stroke="black" d="M510.9,-180.62C491.14,-174.31 466.11,-165.62 444.6,-156 424.63,-147.08 403.19,-135.26 386.25,-125.36"/>
<polygon fill="black" stroke="black" points="387.73,-122.17 377.34,-120.08 384.16,-128.19 387.73,-122.17"/>
<text text-anchor="middle" x="457.1" y="-144.8" font-family="Times,serif" font-size="14.00">कर्ता</text>
</g>
<!-- 8 -->
<g id="node8" class="node">
<title>8</title>
<g id="a_node8"><a xlink:title="युष्मद्{6;एक}">
<ellipse fill="#87ceeb" stroke="#87ceeb" cx="446.6" cy="-105" rx="32.49" ry="18"/>
<text text-anchor="middle" x="446.6" y="-101.3" font-family="Times,serif" font-size="14.00">ते (8)</text>
</a>
</g>
</g>
<!-- 7&#45;&gt;8 -->
<g id="edge7" class="edge">
<title>7&#45;&gt;8</title>
<path fill="none" stroke="black" d="M518.38,-177.56C507.88,-171.71 496.12,-164.28 486.6,-156 478.04,-148.56 469.95,-139.11 463.32,-130.44"/>
<polygon fill="black" stroke="black" points="465.95,-128.1 457.2,-122.12 460.31,-132.25 465.95,-128.1"/>
<text text-anchor="middle" x="514.1" y="-144.8" font-family="Times,serif" font-size="14.00">प्रयोजनम्</text>
</g>
<!-- 9 -->
<g id="node9" class="node">
<title>9</title>
<g id="a_node9"><a xlink:title="सर्वतः{अव्य}">
<ellipse fill="#ff00ff" stroke="#ff00ff" cx="545.6" cy="-105" rx="48.19" ry="18"/>
<text text-anchor="middle" x="545.6" y="-101.3" font-family="Times,serif" font-size="14.00">सर्वतः (9)</text>
</a>
</g>
</g>
<!-- 7&#45;&gt;9 -->
<g id="edge8" class="edge">
<title>7&#45;&gt;9</title>
<path fill="none" stroke="black" d="M545.6,-173.8C545.6,-162.16 545.6,-146.55 545.6,-133.24"/>
<polygon fill="black" stroke="black" points="549.1,-133.18 545.6,-123.18 542.1,-133.18 549.1,-133.18"/>
<text text-anchor="middle" x="588.1" y="-144.8" font-family="Times,serif" font-size="14.00">क्रियाविशेषणम्</text>
</g>
<!-- 11 -->
<g id="node11" class="node">
<title>11</title>
<g id="a_node11"><a xlink:title="सर्व{पुं}{8;एक}">
<ellipse fill="#7fffd4" stroke="#7fffd4" cx="655.6" cy="-105" rx="44.39" ry="18"/>
<text text-anchor="middle" x="655.6" y="-101.3" font-family="Times,serif" font-size="14.00">सर्व (11)</text>
</a>
</g>
</g>
<!-- 7&#45;&gt;11 -->
<g id="edge10" class="edge">
<title>7&#45;&gt;11</title>
<path fill="none" stroke="black" d="M583.89,-182.79C600.85,-177.52 619.99,-169.13 633.6,-156 640.17,-149.66 644.91,-141.01 648.27,-132.69"/>
<polygon fill="black" stroke="black" points="651.58,-133.83 651.6,-123.23 644.98,-131.5 651.58,-133.83"/>
<text text-anchor="middle" x="670.1" y="-144.8" font-family="Times,serif" font-size="14.00">सम्बोध्यः</text>
</g>
<!-- 12 -->
<g id="node12" class="node">
<title>12</title>
<g id="a_node12"><a xlink:title="अनन्त&#45;वीर्य{पुं}{8;एक}">
<ellipse fill="#7fffd4" stroke="#7fffd4" cx="800.6" cy="-105" rx="82.59" ry="18"/>
<text text-anchor="middle" x="800.6" y="-101.3" font-family="Times,serif" font-size="14.00">अन्&#45;अन्त&#45;वीर्य (12)</text>
</a>
</g>
</g>
<!-- 7&#45;&gt;12 -->
<g id="edge11" class="edge">
<title>7&#45;&gt;12</title>
<path fill="none" stroke="black" d="M585.89,-184.54C617.4,-178.84 662.01,-169.36 699.6,-156 721.62,-148.17 745.08,-136.76 763.84,-126.82"/>
<polygon fill="black" stroke="black" points="765.5,-129.9 772.65,-122.08 762.18,-123.74 765.5,-129.9"/>
<text text-anchor="middle" x="760.1" y="-144.8" font-family="Times,serif" font-size="14.00">सम्बोध्यः</text>
</g>
<!-- 10 -->
<g id="node10" class="node">
<title>10</title>
<g id="a_node10"><a xlink:title="एव{अव्य}">
<ellipse fill="#ff00ff" stroke="#ff00ff" cx="545.6" cy="-18" rx="43.59" ry="18"/>
<text text-anchor="middle" x="545.6" y="-14.3" font-family="Times,serif" font-size="14.00">एव (10)</text>
</a>
</g>
</g>
<!-- 9&#45;&gt;10 -->
<g id="edge9" class="edge">
<title>9&#45;&gt;10</title>
<path fill="none" stroke="black" d="M545.6,-86.8C545.6,-75.16 545.6,-59.55 545.6,-46.24"/>
<polygon fill="black" stroke="black" points="549.1,-46.18 545.6,-36.18 542.1,-46.18 549.1,-46.18"/>
<text text-anchor="middle" x="568.6" y="-57.8" font-family="Times,serif" font-size="14.00">सम्बन्धः</text>
</g>
<!-- 13 -->
<g id="node13" class="node">
<title>13</title>
<g id="a_node13"><a xlink:title="अमित&#45;विक्रम{पुं}{1;एक}">
<ellipse fill="#00bfff" stroke="#00bfff" cx="947.6" cy="-18" rx="89.88" ry="18"/>
<text text-anchor="middle" x="947.6" y="-14.3" font-family="Times,serif" font-size="14.00">अ&#45;मित&#45;विक्रमः (13)</text>
</a>
</g>
</g>
<!-- 14 -->
<g id="node14" class="node">
<title>14</title>
<g id="a_node14"><a xlink:title="युष्मद्{1;एक}">
<ellipse fill="#00bfff" stroke="#00bfff" cx="947.6" cy="-105" rx="46.59" ry="18"/>
<text text-anchor="middle" x="947.6" y="-101.3" font-family="Times,serif" font-size="14.00">त्वम् (14)</text>
</a>
</g>
</g>
<!-- 14&#45;&gt;13 -->
<g id="edge12" class="edge">
<title>14&#45;&gt;13</title>
<path fill="none" stroke="black" d="M947.6,-86.8C947.6,-75.16 947.6,-59.55 947.6,-46.24"/>
<polygon fill="black" stroke="black" points="951.1,-46.18 947.6,-36.18 944.1,-46.18 951.1,-46.18"/>
<text text-anchor="middle" x="973.1" y="-57.8" font-family="Times,serif" font-size="14.00">विशेषणम्</text>
</g>
<!-- 15 -->
<g id="node15" class="node">
<title>15</title>
<g id="a_node15"><a xlink:title="सर्व{पुं}{2;एक}">
<ellipse fill="#7cfc00" stroke="#7cfc00" cx="1062.6" cy="-105" rx="50.89" ry="18"/>
<text text-anchor="middle" x="1062.6" y="-101.3" font-family="Times,serif" font-size="14.00">सर्वम् (15)</text>
</a>
</g>
</g>
<!-- 16 -->
<g id="node16" class="node">
<title>16</title>
<g id="a_node16"><a xlink:title="सम्_आप्1{कर्तरि;लट्;म;एक;परस्मैपदी;सम्_आपॢँ;स्वादिः}">
<ellipse fill="#ff6347" stroke="#ff6347" cx="1033.6" cy="-192" rx="67.69" ry="18"/>
<text text-anchor="middle" x="1033.6" y="-188.3" font-family="Times,serif" font-size="14.00">समाप्नोषि (16)</text>
</a>
</g>
</g>
<!-- 16&#45;&gt;14 -->
<g id="edge13" class="edge">
<title>16&#45;&gt;14</title>
<path fill="none" stroke="black" d="M1016.61,-174.21C1003.6,-161.35 985.51,-143.47 971.11,-129.24"/>
<polygon fill="black" stroke="black" points="973.54,-126.72 963.97,-122.18 968.62,-131.7 973.54,-126.72"/>
<text text-anchor="middle" x="1009.1" y="-144.8" font-family="Times,serif" font-size="14.00">कर्ता</text>
</g>
<!-- 16&#45;&gt;15 -->
<g id="edge14" class="edge">
<title>16&#45;&gt;15</title>
<path fill="none" stroke="black" d="M1039.46,-173.8C1043.5,-161.97 1048.94,-146.03 1053.53,-132.58"/>
<polygon fill="black" stroke="black" points="1056.92,-133.48 1056.84,-122.89 1050.29,-131.22 1056.92,-133.48"/>
<text text-anchor="middle" x="1060.6" y="-144.8" font-family="Times,serif" font-size="14.00">कर्म</text>
</g>
<!-- 17 -->
<g id="node17" class="node">
<title>17</title>
<g id="a_node17"><a xlink:title="ततः{अव्य}">
<ellipse fill="#ff00ff" stroke="#ff00ff" cx="1178.6" cy="-105" rx="47.39" ry="18"/>
<text text-anchor="middle" x="1178.6" y="-101.3" font-family="Times,serif" font-size="14.00">ततः (17)</text>
</a>
</g>
</g>
<!-- 18 -->
<g id="node18" class="node">
<title>18</title>
<g id="a_node18"><a xlink:title="अस्2{कर्तरि;लट्;म;एक;परस्मैपदी;असँ;अदादिः}">
<ellipse fill="#ff6347" stroke="#ff6347" cx="1292.6" cy="-192" rx="49.29" ry="18"/>
<text text-anchor="middle" x="1292.6" y="-188.3" font-family="Times,serif" font-size="14.00">असि (18)</text>
</a>
</g>
</g>
<!-- 18&#45;&gt;17 -->
<g id="edge15" class="edge">
<title>18&#45;&gt;17</title>
<path fill="none" stroke="black" d="M1271.95,-175.61C1253.87,-162.13 1227.42,-142.41 1207.29,-127.39"/>
<polygon fill="black" stroke="black" points="1209.2,-124.45 1199.09,-121.28 1205.01,-130.06 1209.2,-124.45"/>
<text text-anchor="middle" x="1254.1" y="-144.8" font-family="Times,serif" font-size="14.00">हेतुः</text>
</g>
<!-- 19 -->
<g id="node19" class="node">
<title>19</title>
<g id="a_node19"><a xlink:title="सर्व{पुं}{1;एक}">
<ellipse fill="#00bfff" stroke="#00bfff" cx="1292.6" cy="-105" rx="48.19" ry="18"/>
<text text-anchor="middle" x="1292.6" y="-101.3" font-family="Times,serif" font-size="14.00">सर्वः (19)</text>
</a>
</g>
</g>
<!-- 18&#45;&gt;19 -->
<g id="edge16" class="edge">
<title>18&#45;&gt;19</title>
<path fill="none" stroke="black" d="M1292.6,-173.8C1292.6,-162.16 1292.6,-146.55 1292.6,-133.24"/>
<polygon fill="black" stroke="black" points="1296.1,-133.18 1292.6,-123.18 1289.1,-133.18 1296.1,-133.18"/>
<text text-anchor="middle" x="1344.6" y="-144.8" font-family="Times,serif" font-size="14.00">कर्तृसमानाधिकरणम्</text>
</g>
<!-- 20 -->
<g id="node20" class="node">
<title>20</title>
<g id="a_node20"><a xlink:title="(युष्मद्{1;एक})">
<ellipse fill="#00bfff" stroke="#00bfff" cx="1419.6" cy="-105" rx="53.89" ry="18"/>
<text text-anchor="middle" x="1419.6" y="-101.3" font-family="Times,serif" font-size="14.00">(त्वम्) (20)</text>
</a>
</g>
</g>
<!-- 18&#45;&gt;20 -->
<g id="edge17" class="edge">
<title>18&#45;&gt;20</title>
<path fill="none" stroke="black" d="M1337.68,-184.52C1358.02,-179.61 1381.12,-171.01 1397.6,-156 1404.35,-149.85 1409.13,-141.25 1412.48,-132.91"/>
<polygon fill="black" stroke="black" points="1415.8,-134.01 1415.77,-123.41 1409.19,-131.71 1415.8,-134.01"/>
<text text-anchor="middle" x="1420.1" y="-144.8" font-family="Times,serif" font-size="14.00">कर्ता</text>
</g>
<!-- 21 -->
<g id="node21" class="node">
<title>21</title>
<g id="a_node21"><a xlink:title="(अस्2{कर्तरि;लोट्;प्र;एक;परस्मैपदी;असँ;अदादिः})">
<ellipse fill="#ff6347" stroke="#ff6347" cx="156.6" cy="-192" rx="57.39" ry="18"/>
<text text-anchor="middle" x="156.6" y="-188.3" font-family="Times,serif" font-size="14.00">(अस्तु) (21)</text>
</a>
</g>
</g>
<!-- 21&#45;&gt;1 -->
<g id="edge1" class="edge">
<title>21&#45;&gt;1</title>
<path fill="none" stroke="black" d="M135.24,-175.21C116.82,-161.6 90.09,-141.84 69.9,-126.92"/>
<polygon fill="black" stroke="black" points="71.81,-123.98 61.69,-120.85 67.65,-129.61 71.81,-123.98"/>
<text text-anchor="middle" x="119.1" y="-144.8" font-family="Times,serif" font-size="14.00">कर्ता</text>
</g>
<!-- 21&#45;&gt;2 -->
<g id="edge2" class="edge">
<title>21&#45;&gt;2</title>
<path fill="none" stroke="black" d="M156.6,-173.8C156.6,-162.16 156.6,-146.55 156.6,-133.24"/>
<polygon fill="black" stroke="black" points="160.1,-133.18 156.6,-123.18 153.1,-133.18 160.1,-133.18"/>
<text text-anchor="middle" x="187.1" y="-144.8" font-family="Times,serif" font-size="14.00">अधिकरणम्</text>
</g>
<!-- 21&#45;&gt;5 -->
<g id="edge5" class="edge">
<title>21&#45;&gt;5</title>
<path fill="none" stroke="black" d="M188.57,-176.93C199.62,-171.27 211.7,-164.15 221.6,-156 230.53,-148.64 238.91,-139.11 245.74,-130.34"/>
<polygon fill="black" stroke="black" points="248.6,-132.37 251.78,-122.26 242.99,-128.17 248.6,-132.37"/>
<text text-anchor="middle" x="265.1" y="-144.8" font-family="Times,serif" font-size="14.00">प्रयोजनम्</text>
</g>
</g>
</svg>
