<?xml version="1.0" encoding="UTF-8" standalone="no"?>
<!DOCTYPE svg PUBLIC "-//W3C//DTD SVG 1.1//EN"
 "http://www.w3.org/Graphics/SVG/1.1/DTD/svg11.dtd">
<!-- Generated by graphviz version 2.43.0 (0)
 -->
<!-- Title: %3 Pages: 1 -->
<svg width="1128pt" height="305pt"
 viewBox="0.00 0.00 1128.29 305.00" xmlns="http://www.w3.org/2000/svg" xmlns:xlink="http://www.w3.org/1999/xlink">
<g id="graph0" class="graph" transform="scale(1 1) rotate(0) translate(4 301)">
<title>%3</title>
<polygon fill="#fffacd" stroke="transparent" points="-4,4 -4,-301 1124.29,-301 1124.29,4 -4,4"/>
<!-- 1 -->
<g id="node1" class="node">
<title>1</title>
<g id="a_node1"><a xlink:title="काल{पुं}{1;एक}">
<ellipse fill="#00bfff" stroke="#00bfff" cx="52" cy="-192" rx="46.29" ry="18"/>
<text text-anchor="middle" x="52" y="-188.3" font-family="Times,serif" font-size="14.00">कालः (1)</text>
</a>
</g>
</g>
<!-- 4 -->
<g id="node4" class="node">
<title>4</title>
<g id="a_node4"><a xlink:title="प्र_वृध्1{कृत्_प्रत्ययः:क्त;प्र_वृधुँ;भ्वादिः;पुं}{1;एक}">
<ellipse fill="#00bfff" stroke="#00bfff" cx="52" cy="-105" rx="51.99" ry="18"/>
<text text-anchor="middle" x="52" y="-101.3" font-family="Times,serif" font-size="14.00">प्रवृद्धः (4)</text>
</a>
</g>
</g>
<!-- 1&#45;&gt;4 -->
<g id="edge3" class="edge">
<title>1&#45;&gt;4</title>
<path fill="none" stroke="black" d="M52,-173.8C52,-162.16 52,-146.55 52,-133.24"/>
<polygon fill="black" stroke="black" points="55.5,-133.18 52,-123.18 48.5,-133.18 55.5,-133.18"/>
<text text-anchor="middle" x="77.5" y="-144.8" font-family="Times,serif" font-size="14.00">विशेषणम्</text>
</g>
<!-- 2 -->
<g id="node2" class="node">
<title>2</title>
<g id="a_node2"><a xlink:title="अस्2{कर्तरि;लट्;उ;एक;परस्मैपदी;असँ;अदादिः}">
<ellipse fill="#ff6347" stroke="#ff6347" cx="179" cy="-279" rx="48.19" ry="18"/>
<text text-anchor="middle" x="179" y="-275.3" font-family="Times,serif" font-size="14.00">अस्मि (2)</text>
</a>
</g>
</g>
<!-- 2&#45;&gt;1 -->
<g id="edge1" class="edge">
<title>2&#45;&gt;1</title>
<path fill="none" stroke="black" d="M133.91,-272.55C112.52,-267.87 87.99,-259.17 71,-243 64.59,-236.9 60.32,-228.42 57.48,-220.17"/>
<polygon fill="black" stroke="black" points="60.8,-219.05 54.69,-210.4 54.07,-220.98 60.8,-219.05"/>
<text text-anchor="middle" x="123" y="-231.8" font-family="Times,serif" font-size="14.00">कर्तृसमानाधिकरणम्</text>
</g>
<!-- 4.1 -->
<g id="node5" class="node">
<title>4.1</title>
<g id="a_node5"><a xlink:title="(अस्मद्{1;एक})">
<ellipse fill="#00bfff" stroke="#00bfff" cx="179" cy="-192" rx="60.39" ry="18"/>
<text text-anchor="middle" x="179" y="-188.3" font-family="Times,serif" font-size="14.00">(अहम्) (4.1)</text>
</a>
</g>
</g>
<!-- 2&#45;&gt;4.1 -->
<g id="edge4" class="edge">
<title>2&#45;&gt;4.1</title>
<path fill="none" stroke="black" d="M179,-260.8C179,-249.16 179,-233.55 179,-220.24"/>
<polygon fill="black" stroke="black" points="182.5,-220.18 179,-210.18 175.5,-220.18 182.5,-220.18"/>
<text text-anchor="middle" x="191.5" y="-231.8" font-family="Times,serif" font-size="14.00">कर्ता</text>
</g>
<!-- 21 -->
<g id="node10" class="node">
<title>21</title>
<g id="a_node10"><a xlink:title="(अस्मद्{1;एक})">
<ellipse fill="#00bfff" stroke="#00bfff" cx="315" cy="-192" rx="57.69" ry="18"/>
<text text-anchor="middle" x="315" y="-188.3" font-family="Times,serif" font-size="14.00">(अहम्) (21)</text>
</a>
</g>
</g>
<!-- 2&#45;&gt;21 -->
<g id="edge8" class="edge">
<title>2&#45;&gt;21</title>
<path fill="none" stroke="black" d="M202.68,-263.19C224.51,-249.55 257.12,-229.17 281.59,-213.88"/>
<polygon fill="black" stroke="black" points="283.57,-216.77 290.2,-208.5 279.86,-210.83 283.57,-216.77"/>
<text text-anchor="middle" x="268.5" y="-231.8" font-family="Times,serif" font-size="14.00">कर्ता</text>
</g>
<!-- 3 -->
<g id="node3" class="node">
<title>3</title>
<g id="a_node3"><a xlink:title="लोक&#45;क्षय&#45;कृत्{पुं}{1;एक}">
<ellipse fill="#00bfff" stroke="#00bfff" cx="315" cy="-105" rx="74.19" ry="18"/>
<text text-anchor="middle" x="315" y="-101.3" font-family="Times,serif" font-size="14.00">लोक&#45;क्षय&#45;कृत् (3)</text>
</a>
</g>
</g>
<!-- 5 -->
<g id="node6" class="node">
<title>5</title>
<g id="a_node6"><a xlink:title="लोक{पुं}{2;बहु}">
<ellipse fill="#7cfc00" stroke="#7cfc00" cx="457" cy="-105" rx="50.09" ry="18"/>
<text text-anchor="middle" x="457" y="-101.3" font-family="Times,serif" font-size="14.00">लोकान् (5)</text>
</a>
</g>
</g>
<!-- 6 -->
<g id="node7" class="node">
<title>6</title>
<g id="a_node7"><a xlink:title="समा&#45;हृ1{अव्य;तुमुन्;हृञ्;:भ्वादिः}">
<ellipse fill="#ff00ff" stroke="#ff00ff" cx="500" cy="-192" rx="59.29" ry="18"/>
<text text-anchor="middle" x="500" y="-188.3" font-family="Times,serif" font-size="14.00">समाहर्तुम् (6)</text>
</a>
</g>
</g>
<!-- 6&#45;&gt;5 -->
<g id="edge5" class="edge">
<title>6&#45;&gt;5</title>
<path fill="none" stroke="black" d="M491.29,-173.8C485.25,-161.85 477.09,-145.72 470.24,-132.18"/>
<polygon fill="black" stroke="black" points="473.17,-130.23 465.54,-122.89 466.93,-133.39 473.17,-130.23"/>
<text text-anchor="middle" x="492" y="-144.8" font-family="Times,serif" font-size="14.00">कर्म</text>
</g>
<!-- 7 -->
<g id="node8" class="node">
<title>7</title>
<g id="a_node8"><a xlink:title="इह{अव्य}">
<ellipse fill="#ff00ff" stroke="#ff00ff" cx="561" cy="-105" rx="36.29" ry="18"/>
<text text-anchor="middle" x="561" y="-101.3" font-family="Times,serif" font-size="14.00">इह (7)</text>
</a>
</g>
</g>
<!-- 6&#45;&gt;7 -->
<g id="edge7" class="edge">
<title>6&#45;&gt;7</title>
<path fill="none" stroke="black" d="M512.05,-174.21C521.02,-161.71 533.4,-144.45 543.47,-130.43"/>
<polygon fill="black" stroke="black" points="546.4,-132.35 549.38,-122.18 540.71,-128.27 546.4,-132.35"/>
<text text-anchor="middle" x="571.5" y="-144.8" font-family="Times,serif" font-size="14.00">देशाधिकरणम्</text>
</g>
<!-- 8 -->
<g id="node9" class="node">
<title>8</title>
<g id="a_node9"><a xlink:title="प्र_वृत्1{कृत्_प्रत्ययः:क्त;प्र_वृतुँ;भ्वादिः;पुं}{1;एक}">
<ellipse fill="#00bfff" stroke="#00bfff" cx="500" cy="-279" rx="51.99" ry="18"/>
<text text-anchor="middle" x="500" y="-275.3" font-family="Times,serif" font-size="14.00">प्रवृत्तः (8)</text>
</a>
</g>
</g>
<!-- 8&#45;&gt;6 -->
<g id="edge6" class="edge">
<title>8&#45;&gt;6</title>
<path fill="none" stroke="black" d="M500,-260.8C500,-249.16 500,-233.55 500,-220.24"/>
<polygon fill="black" stroke="black" points="503.5,-220.18 500,-210.18 496.5,-220.18 503.5,-220.18"/>
<text text-anchor="middle" x="527.5" y="-231.8" font-family="Times,serif" font-size="14.00">प्रयोजनम्</text>
</g>
<!-- 21&#45;&gt;3 -->
<g id="edge2" class="edge">
<title>21&#45;&gt;3</title>
<path fill="none" stroke="black" d="M315,-173.8C315,-162.16 315,-146.55 315,-133.24"/>
<polygon fill="black" stroke="black" points="318.5,-133.18 315,-123.18 311.5,-133.18 318.5,-133.18"/>
<text text-anchor="middle" x="340.5" y="-144.8" font-family="Times,serif" font-size="14.00">विशेषणम्</text>
</g>
<!-- 9 -->
<g id="node11" class="node">
<title>9</title>
<g id="a_node11"><a xlink:title="ऋते{अव्य}">
<ellipse fill="#ff00ff" stroke="#ff00ff" cx="669" cy="-192" rx="40.89" ry="18"/>
<text text-anchor="middle" x="669" y="-188.3" font-family="Times,serif" font-size="14.00">ऋते (9)</text>
</a>
</g>
</g>
<!-- 10 -->
<g id="node12" class="node">
<title>10</title>
<g id="a_node12"><a xlink:title="अपि{अव्य}">
<ellipse fill="#ff00ff" stroke="#ff00ff" cx="666" cy="-105" rx="48.19" ry="18"/>
<text text-anchor="middle" x="666" y="-101.3" font-family="Times,serif" font-size="14.00">अपि (10)</text>
</a>
</g>
</g>
<!-- 9&#45;&gt;10 -->
<g id="edge10" class="edge">
<title>9&#45;&gt;10</title>
<path fill="none" stroke="black" d="M668.39,-173.8C667.98,-162.16 667.43,-146.55 666.96,-133.24"/>
<polygon fill="black" stroke="black" points="670.45,-133.05 666.6,-123.18 663.46,-133.29 670.45,-133.05"/>
<text text-anchor="middle" x="691" y="-144.8" font-family="Times,serif" font-size="14.00">सम्बन्धः</text>
</g>
<!-- 11 -->
<g id="node13" class="node">
<title>11</title>
<g id="a_node13"><a xlink:title="युष्मद्{2;एक}">
<ellipse fill="#7cfc00" stroke="#7cfc00" cx="782" cy="-105" rx="50.09" ry="18"/>
<text text-anchor="middle" x="782" y="-101.3" font-family="Times,serif" font-size="14.00">त्वाम् (11)</text>
</a>
</g>
</g>
<!-- 9&#45;&gt;11 -->
<g id="edge11" class="edge">
<title>9&#45;&gt;11</title>
<path fill="none" stroke="black" d="M690.12,-176.21C698.82,-170.04 708.95,-162.76 718,-156 729.97,-147.05 742.99,-136.95 754.15,-128.17"/>
<polygon fill="black" stroke="black" points="756.59,-130.71 762.27,-121.76 752.26,-125.21 756.59,-130.71"/>
<text text-anchor="middle" x="748" y="-144.8" font-family="Times,serif" font-size="14.00">कर्म</text>
</g>
<!-- 12 -->
<g id="node14" class="node">
<title>12</title>
<g id="a_node14"><a xlink:title="न{अव्य}">
<ellipse fill="#ff00ff" stroke="#ff00ff" cx="766" cy="-192" rx="38.19" ry="18"/>
<text text-anchor="middle" x="766" y="-188.3" font-family="Times,serif" font-size="14.00">न (12)</text>
</a>
</g>
</g>
<!-- 13 -->
<g id="node15" class="node">
<title>13</title>
<g id="a_node15"><a xlink:title="भू1{कर्तरि;लृट्;प्र;बहु;परस्मैपदी;भू;भ्वादिः}">
<ellipse fill="#ff6347" stroke="#ff6347" cx="766" cy="-279" rx="68.49" ry="18"/>
<text text-anchor="middle" x="766" y="-275.3" font-family="Times,serif" font-size="14.00">भविष्यन्ति (13)</text>
</a>
</g>
</g>
<!-- 13&#45;&gt;9 -->
<g id="edge9" class="edge">
<title>13&#45;&gt;9</title>
<path fill="none" stroke="black" d="M731.13,-263.36C720.7,-257.94 709.74,-251.1 701,-243 693.56,-236.1 687.11,-227.12 681.99,-218.68"/>
<polygon fill="black" stroke="black" points="684.96,-216.81 676.97,-209.85 678.87,-220.27 684.96,-216.81"/>
<text text-anchor="middle" x="731.5" y="-231.8" font-family="Times,serif" font-size="14.00">अधिकरणम्</text>
</g>
<!-- 13&#45;&gt;12 -->
<g id="edge12" class="edge">
<title>13&#45;&gt;12</title>
<path fill="none" stroke="black" d="M766,-260.8C766,-249.16 766,-233.55 766,-220.24"/>
<polygon fill="black" stroke="black" points="769.5,-220.18 766,-210.18 762.5,-220.18 769.5,-220.18"/>
<text text-anchor="middle" x="792" y="-231.8" font-family="Times,serif" font-size="14.00">प्रतिषेधः</text>
</g>
<!-- 14 -->
<g id="node16" class="node">
<title>14</title>
<g id="a_node16"><a xlink:title="सर्व{पुं}{1;बहु}">
<ellipse fill="#00bfff" stroke="#00bfff" cx="867" cy="-192" rx="44.39" ry="18"/>
<text text-anchor="middle" x="867" y="-188.3" font-family="Times,serif" font-size="14.00">सर्वे (14)</text>
</a>
</g>
</g>
<!-- 13&#45;&gt;14 -->
<g id="edge13" class="edge">
<title>13&#45;&gt;14</title>
<path fill="none" stroke="black" d="M794.11,-262.54C803.37,-256.91 813.48,-250.15 822,-243 831.17,-235.3 840.22,-225.74 847.77,-217.05"/>
<polygon fill="black" stroke="black" points="850.46,-219.29 854.24,-209.39 845.12,-214.77 850.46,-219.29"/>
<text text-anchor="middle" x="849.5" y="-231.8" font-family="Times,serif" font-size="14.00">कर्ता</text>
</g>
<!-- 15 -->
<g id="node17" class="node">
<title>15</title>
<g id="a_node17"><a xlink:title="यद्{पुं}{1;बहु}">
<ellipse fill="#00bfff" stroke="#00bfff" cx="1067" cy="-18" rx="38.19" ry="18"/>
<text text-anchor="middle" x="1067" y="-14.3" font-family="Times,serif" font-size="14.00">ये (15)</text>
</a>
</g>
</g>
<!-- 16 -->
<g id="node18" class="node">
<title>16</title>
<g id="a_node18"><a xlink:title="अव_स्था1{कृत्_प्रत्ययः:क्त;अव_ष्ठा;भ्वादिः;पुं}{1;बहु}">
<ellipse fill="#00bfff" stroke="#00bfff" cx="1006" cy="-192" rx="70.69" ry="18"/>
<text text-anchor="middle" x="1006" y="-188.3" font-family="Times,serif" font-size="14.00">अवस्थिताः (16)</text>
</a>
</g>
</g>
<!-- 17 -->
<g id="node19" class="node">
<title>17</title>
<g id="a_node19"><a xlink:title="प्रत्यनीक{नपुं;7;बहु}">
<ellipse fill="#808080" stroke="#808080" cx="924" cy="-105" rx="71.49" ry="18"/>
<text text-anchor="middle" x="924" y="-101.3" font-family="Times,serif" font-size="14.00">प्रत्यनीकेषु (17)</text>
</a>
</g>
</g>
<!-- 16&#45;&gt;17 -->
<g id="edge16" class="edge">
<title>16&#45;&gt;17</title>
<path fill="none" stroke="black" d="M987.07,-174.29C980.86,-168.62 974.01,-162.16 968,-156 960.24,-148.06 952.11,-139.05 944.98,-130.88"/>
<polygon fill="black" stroke="black" points="947.42,-128.35 938.24,-123.06 942.12,-132.92 947.42,-128.35"/>
<text text-anchor="middle" x="998.5" y="-144.8" font-family="Times,serif" font-size="14.00">अधिकरणम्</text>
</g>
<!-- 18 -->
<g id="node20" class="node">
<title>18</title>
<g id="a_node20"><a xlink:title="योध{पुं}{1;बहु}">
<ellipse fill="#00bfff" stroke="#00bfff" cx="1067" cy="-105" rx="53.09" ry="18"/>
<text text-anchor="middle" x="1067" y="-101.3" font-family="Times,serif" font-size="14.00">योधाः (18)</text>
</a>
</g>
</g>
<!-- 16&#45;&gt;18 -->
<g id="edge17" class="edge">
<title>16&#45;&gt;18</title>
<path fill="none" stroke="black" d="M1018.05,-174.21C1026.9,-161.87 1039.08,-144.89 1049.08,-130.97"/>
<polygon fill="black" stroke="black" points="1051.98,-132.92 1054.97,-122.76 1046.29,-128.84 1051.98,-132.92"/>
<text text-anchor="middle" x="1053.5" y="-144.8" font-family="Times,serif" font-size="14.00">कर्ता</text>
</g>
<!-- 18&#45;&gt;15 -->
<g id="edge14" class="edge">
<title>18&#45;&gt;15</title>
<path fill="none" stroke="black" d="M1067,-86.8C1067,-75.16 1067,-59.55 1067,-46.24"/>
<polygon fill="black" stroke="black" points="1070.5,-46.18 1067,-36.18 1063.5,-46.18 1070.5,-46.18"/>
<text text-anchor="middle" x="1092.5" y="-57.8" font-family="Times,serif" font-size="14.00">विशेषणम्</text>
</g>
<!-- 20 -->
<g id="node21" class="node">
<title>20</title>
<ellipse fill="lightgrey" stroke="black" cx="1006" cy="-279" rx="27" ry="18"/>
<text text-anchor="middle" x="1006" y="-275.3" font-family="Times,serif" font-size="14.00">20</text>
</g>
<!-- 20&#45;&gt;16 -->
<g id="edge15" class="edge">
<title>20&#45;&gt;16</title>
<path fill="none" stroke="black" d="M1006,-260.8C1006,-249.16 1006,-233.55 1006,-220.24"/>
<polygon fill="black" stroke="black" points="1009.5,-220.18 1006,-210.18 1002.5,-220.18 1009.5,-220.18"/>
<text text-anchor="middle" x="1018.5" y="-231.8" font-family="Times,serif" font-size="14.00">कर्ता</text>
</g>
</g>
</svg>
