<?xml version="1.0" encoding="UTF-8" standalone="no"?>
<!DOCTYPE svg PUBLIC "-//W3C//DTD SVG 1.1//EN"
 "http://www.w3.org/Graphics/SVG/1.1/DTD/svg11.dtd">
<!-- Generated by graphviz version 2.43.0 (0)
 -->
<!-- Title: %3 Pages: 1 -->
<svg width="2000pt" height="392pt"
 viewBox="0.00 0.00 2000.09 392.00" xmlns="http://www.w3.org/2000/svg" xmlns:xlink="http://www.w3.org/1999/xlink">
<g id="graph0" class="graph" transform="scale(1 1) rotate(0) translate(4 388)">
<title>%3</title>
<polygon fill="#fffacd" stroke="transparent" points="-4,4 -4,-388 1996.09,-388 1996.09,4 -4,4"/>
<!-- 1 -->
<g id="node1" class="node">
<title>1</title>
<g id="a_node1"><a xlink:title="अदस्{पुं}{1;बहु}">
<ellipse fill="#00bfff" stroke="#00bfff" cx="156.1" cy="-105" rx="42.49" ry="18"/>
<text text-anchor="middle" x="156.1" y="-101.3" font-family="Times,serif" font-size="14.00">अमी (1)</text>
</a>
</g>
</g>
<!-- 2 -->
<g id="node2" class="node">
<title>2</title>
<g id="a_node2"><a xlink:title="च{अव्य}">
<ellipse fill="#ff00ff" stroke="#ff00ff" cx="118.1" cy="-192" rx="33.29" ry="18"/>
<text text-anchor="middle" x="118.1" y="-188.3" font-family="Times,serif" font-size="14.00">च (2)</text>
</a>
</g>
</g>
<!-- 17 -->
<g id="node17" class="node">
<title>17</title>
<g id="a_node17"><a xlink:title="अपि{अव्य}">
<ellipse fill="#ff00ff" stroke="#ff00ff" cx="48.1" cy="-105" rx="48.19" ry="18"/>
<text text-anchor="middle" x="48.1" y="-101.3" font-family="Times,serif" font-size="14.00">अपि (17)</text>
</a>
</g>
</g>
<!-- 2&#45;&gt;17 -->
<g id="edge17" class="edge">
<title>2&#45;&gt;17</title>
<path fill="none" stroke="black" d="M104.54,-175.42C99.35,-169.39 93.4,-162.41 88.1,-156 81.36,-147.87 74.11,-138.88 67.67,-130.8"/>
<polygon fill="black" stroke="black" points="70.25,-128.43 61.29,-122.78 64.77,-132.79 70.25,-128.43"/>
<text text-anchor="middle" x="111.1" y="-144.8" font-family="Times,serif" font-size="14.00">सम्बन्धः</text>
</g>
<!-- 3 -->
<g id="node3" class="node">
<title>3</title>
<g id="a_node3"><a xlink:title="युष्मद्{2;एक}">
<ellipse fill="#7cfc00" stroke="#7cfc00" cx="1029.1" cy="-192" rx="44.39" ry="18"/>
<text text-anchor="middle" x="1029.1" y="-188.3" font-family="Times,serif" font-size="14.00">त्वाम् (3)</text>
</a>
</g>
</g>
<!-- 4 -->
<g id="node4" class="node">
<title>4</title>
<g id="a_node4"><a xlink:title="धृतराष्ट्र{पुं}{6;एक}">
<ellipse fill="#87ceeb" stroke="#87ceeb" cx="286.1" cy="-105" rx="69.59" ry="18"/>
<text text-anchor="middle" x="286.1" y="-101.3" font-family="Times,serif" font-size="14.00">धृतराष्ट्रस्य (4)</text>
</a>
</g>
</g>
<!-- 5 -->
<g id="node5" class="node">
<title>5</title>
<g id="a_node5"><a xlink:title="पुत्र{पुं}{1;बहु}">
<ellipse fill="#00bfff" stroke="#00bfff" cx="286.1" cy="-192" rx="48.19" ry="18"/>
<text text-anchor="middle" x="286.1" y="-188.3" font-family="Times,serif" font-size="14.00">पुत्राः (5)</text>
</a>
</g>
</g>
<!-- 5&#45;&gt;1 -->
<g id="edge1" class="edge">
<title>5&#45;&gt;1</title>
<path fill="none" stroke="black" d="M262.47,-176.12C252.73,-169.94 241.34,-162.67 231.1,-156 216.25,-146.33 199.87,-135.44 186.21,-126.29"/>
<polygon fill="black" stroke="black" points="187.93,-123.23 177.68,-120.56 184.03,-129.04 187.93,-123.23"/>
<text text-anchor="middle" x="256.6" y="-144.8" font-family="Times,serif" font-size="14.00">विशेषणम्</text>
</g>
<!-- 5&#45;&gt;4 -->
<g id="edge4" class="edge">
<title>5&#45;&gt;4</title>
<path fill="none" stroke="black" d="M286.1,-173.8C286.1,-162.16 286.1,-146.55 286.1,-133.24"/>
<polygon fill="black" stroke="black" points="289.6,-133.18 286.1,-123.18 282.6,-133.18 289.6,-133.18"/>
<text text-anchor="middle" x="322.1" y="-144.8" font-family="Times,serif" font-size="14.00">षष्ठीसम्बन्धः</text>
</g>
<!-- 6 -->
<g id="node6" class="node">
<title>6</title>
<g id="a_node6"><a xlink:title="सर्व{पुं}{1;बहु}">
<ellipse fill="#00bfff" stroke="#00bfff" cx="363.1" cy="-279" rx="38.19" ry="18"/>
<text text-anchor="middle" x="363.1" y="-275.3" font-family="Times,serif" font-size="14.00">सर्वे (6)</text>
</a>
</g>
</g>
<!-- 6&#45;&gt;2 -->
<g id="edge2" class="edge">
<title>6&#45;&gt;2</title>
<path fill="none" stroke="black" d="M329.01,-270.52C302.09,-264.24 263.75,-254.47 231.1,-243 203.59,-233.34 173.45,-219.84 151.21,-209.31"/>
<polygon fill="black" stroke="black" points="152.43,-206.01 141.9,-204.85 149.41,-212.32 152.43,-206.01"/>
<text text-anchor="middle" x="273.6" y="-231.8" font-family="Times,serif" font-size="14.00">समुच्चयद्योतकः</text>
</g>
<!-- 6&#45;&gt;5 -->
<g id="edge5" class="edge">
<title>6&#45;&gt;5</title>
<path fill="none" stroke="black" d="M348.61,-262.01C337.07,-249.27 320.73,-231.24 307.66,-216.8"/>
<polygon fill="black" stroke="black" points="310.08,-214.27 300.78,-209.21 304.9,-218.97 310.08,-214.27"/>
<text text-anchor="middle" x="348.1" y="-231.8" font-family="Times,serif" font-size="14.00">अभेदः</text>
</g>
<!-- 10 -->
<g id="node10" class="node">
<title>10</title>
<g id="a_node10"><a xlink:title="भीष्म{पुं}{1;एक}">
<ellipse fill="#00bfff" stroke="#00bfff" cx="428.1" cy="-192" rx="53.89" ry="18"/>
<text text-anchor="middle" x="428.1" y="-188.3" font-family="Times,serif" font-size="14.00">भीष्मः (10)</text>
</a>
</g>
</g>
<!-- 6&#45;&gt;10 -->
<g id="edge10" class="edge">
<title>6&#45;&gt;10</title>
<path fill="none" stroke="black" d="M375.63,-261.61C385.1,-249.23 398.26,-232.01 409.04,-217.92"/>
<polygon fill="black" stroke="black" points="412.09,-219.7 415.38,-209.63 406.52,-215.45 412.09,-219.7"/>
<text text-anchor="middle" x="444.1" y="-231.8" font-family="Times,serif" font-size="14.00">सुप्_समुच्चितम् </text>
</g>
<!-- 7 -->
<g id="node7" class="node">
<title>7</title>
<g id="a_node7"><a xlink:title="सह{अव्य}">
<ellipse fill="#ff00ff" stroke="#ff00ff" cx="656.1" cy="-192" rx="38.19" ry="18"/>
<text text-anchor="middle" x="656.1" y="-188.3" font-family="Times,serif" font-size="14.00">सह (7)</text>
</a>
</g>
</g>
<!-- 8 -->
<g id="node8" class="node">
<title>8</title>
<g id="a_node8"><a xlink:title="एव{अव्य}">
<ellipse fill="#ff00ff" stroke="#ff00ff" cx="691.1" cy="-105" rx="37.89" ry="18"/>
<text text-anchor="middle" x="691.1" y="-101.3" font-family="Times,serif" font-size="14.00">एव (8)</text>
</a>
</g>
</g>
<!-- 7&#45;&gt;8 -->
<g id="edge8" class="edge">
<title>7&#45;&gt;8</title>
<path fill="none" stroke="black" d="M663.01,-174.21C667.95,-162.22 674.69,-145.85 680.33,-132.16"/>
<polygon fill="black" stroke="black" points="683.62,-133.34 684.2,-122.76 677.15,-130.67 683.62,-133.34"/>
<text text-anchor="middle" x="699.1" y="-144.8" font-family="Times,serif" font-size="14.00">सम्बन्धः</text>
</g>
<!-- 9 -->
<g id="node9" class="node">
<title>9</title>
<g id="a_node9"><a xlink:title="अवनि&#45;पाल&#45;सङ्घ{पुं}{3;बहु}">
<ellipse fill="#40e0d0" stroke="#40e0d0" cx="803.1" cy="-279" rx="91.78" ry="18"/>
<text text-anchor="middle" x="803.1" y="-275.3" font-family="Times,serif" font-size="14.00">अवनि&#45;पाल&#45;सङ्घैः (9)</text>
</a>
</g>
</g>
<!-- 9&#45;&gt;7 -->
<g id="edge7" class="edge">
<title>9&#45;&gt;7</title>
<path fill="none" stroke="black" d="M734.28,-266.96C716.96,-261.78 699.28,-254.17 685.1,-243 677.22,-236.8 671.08,-227.83 666.51,-219.19"/>
<polygon fill="black" stroke="black" points="669.64,-217.61 662.17,-210.1 663.32,-220.63 669.64,-217.61"/>
<text text-anchor="middle" x="724.6" y="-231.8" font-family="Times,serif" font-size="14.00">सहार्थ_द्योतकः</text>
</g>
<!-- 13 -->
<g id="node13" class="node">
<title>13</title>
<g id="a_node13"><a xlink:title="तथा{अव्य}">
<ellipse fill="#ff00ff" stroke="#ff00ff" cx="759.1" cy="-192" rx="46.59" ry="18"/>
<text text-anchor="middle" x="759.1" y="-188.3" font-family="Times,serif" font-size="14.00">तथा (13)</text>
</a>
</g>
</g>
<!-- 9&#45;&gt;13 -->
<g id="edge13" class="edge">
<title>9&#45;&gt;13</title>
<path fill="none" stroke="black" d="M786.86,-261.19C782.23,-255.72 777.52,-249.4 774.1,-243 770.33,-235.97 767.38,-227.86 765.13,-220.25"/>
<polygon fill="black" stroke="black" points="768.44,-219.09 762.49,-210.33 761.68,-220.89 768.44,-219.09"/>
<text text-anchor="middle" x="816.6" y="-231.8" font-family="Times,serif" font-size="14.00">समुच्चयद्योतकः</text>
</g>
<!-- 18 -->
<g id="node18" class="node">
<title>18</title>
<g id="a_node18"><a xlink:title="योध&#45;मुख्य{पुं}{3;बहु}">
<ellipse fill="#40e0d0" stroke="#40e0d0" cx="895.1" cy="-192" rx="71.49" ry="18"/>
<text text-anchor="middle" x="895.1" y="-188.3" font-family="Times,serif" font-size="14.00">योध&#45;मुख्यैः (18)</text>
</a>
</g>
</g>
<!-- 9&#45;&gt;18 -->
<g id="edge18" class="edge">
<title>9&#45;&gt;18</title>
<path fill="none" stroke="black" d="M833.41,-262.01C842.2,-256.62 851.48,-250.13 859.1,-243 866.74,-235.84 873.81,-226.83 879.62,-218.45"/>
<polygon fill="black" stroke="black" points="882.59,-220.3 885.19,-210.03 876.75,-216.44 882.59,-220.3"/>
<text text-anchor="middle" x="916.1" y="-231.8" font-family="Times,serif" font-size="14.00">सुप्_समुच्चितम् </text>
</g>
<!-- 11 -->
<g id="node11" class="node">
<title>11</title>
<g id="a_node11"><a xlink:title="द्रोण{पुं}{1;एक}">
<ellipse fill="#00bfff" stroke="#00bfff" cx="428.1" cy="-105" rx="54.69" ry="18"/>
<text text-anchor="middle" x="428.1" y="-101.3" font-family="Times,serif" font-size="14.00">द्रोणः (11)</text>
</a>
</g>
</g>
<!-- 10&#45;&gt;11 -->
<g id="edge11" class="edge">
<title>10&#45;&gt;11</title>
<path fill="none" stroke="black" d="M428.1,-173.8C428.1,-162.16 428.1,-146.55 428.1,-133.24"/>
<polygon fill="black" stroke="black" points="431.6,-133.18 428.1,-123.18 424.6,-133.18 431.6,-133.18"/>
<text text-anchor="middle" x="472.1" y="-144.8" font-family="Times,serif" font-size="14.00">सुप्_समुच्चितम् </text>
</g>
<!-- 12 -->
<g id="node12" class="node">
<title>12</title>
<g id="a_node12"><a xlink:title="सूत&#45;पुत्र{पुं}{1;एक}">
<ellipse fill="#00bfff" stroke="#00bfff" cx="568.1" cy="-105" rx="66.89" ry="18"/>
<text text-anchor="middle" x="568.1" y="-101.3" font-family="Times,serif" font-size="14.00">सूत&#45;पुत्रः (12)</text>
</a>
</g>
</g>
<!-- 10&#45;&gt;12 -->
<g id="edge12" class="edge">
<title>10&#45;&gt;12</title>
<path fill="none" stroke="black" d="M468.44,-179.96C485.23,-174.3 504.42,-166.37 520.1,-156 530.65,-149.01 540.64,-139.33 548.74,-130.34"/>
<polygon fill="black" stroke="black" points="551.44,-132.56 555.34,-122.71 546.15,-127.98 551.44,-132.56"/>
<text text-anchor="middle" x="582.1" y="-144.8" font-family="Times,serif" font-size="14.00">सुप्_समुच्चितम् </text>
</g>
<!-- 14 -->
<g id="node14" class="node">
<title>14</title>
<g id="a_node14"><a xlink:title="अदस्{पुं}{1;एक}">
<ellipse fill="#00bfff" stroke="#00bfff" cx="990.1" cy="-18" rx="49.29" ry="18"/>
<text text-anchor="middle" x="990.1" y="-14.3" font-family="Times,serif" font-size="14.00">असौ (14)</text>
</a>
</g>
</g>
<!-- 15 -->
<g id="node15" class="node">
<title>15</title>
<g id="a_node15"><a xlink:title="सह{अव्य}">
<ellipse fill="#ff00ff" stroke="#ff00ff" cx="860.1" cy="-105" rx="44.39" ry="18"/>
<text text-anchor="middle" x="860.1" y="-101.3" font-family="Times,serif" font-size="14.00">सह (15)</text>
</a>
</g>
</g>
<!-- 16 -->
<g id="node16" class="node">
<title>16</title>
<g id="a_node16"><a xlink:title="अस्मदीय{नपुं}{3;बहु}">
<ellipse fill="#40e0d0" stroke="#40e0d0" cx="990.1" cy="-105" rx="67.69" ry="18"/>
<text text-anchor="middle" x="990.1" y="-101.3" font-family="Times,serif" font-size="14.00">अस्मदीयैः (16)</text>
</a>
</g>
</g>
<!-- 16&#45;&gt;14 -->
<g id="edge14" class="edge">
<title>16&#45;&gt;14</title>
<path fill="none" stroke="black" d="M990.1,-86.8C990.1,-75.16 990.1,-59.55 990.1,-46.24"/>
<polygon fill="black" stroke="black" points="993.6,-46.18 990.1,-36.18 986.6,-46.18 993.6,-46.18"/>
<text text-anchor="middle" x="1015.6" y="-57.8" font-family="Times,serif" font-size="14.00">विशेषणम्</text>
</g>
<!-- 18&#45;&gt;15 -->
<g id="edge15" class="edge">
<title>18&#45;&gt;15</title>
<path fill="none" stroke="black" d="M884.32,-173.95C881.08,-168.37 877.69,-162.05 875.1,-156 871.95,-148.67 869.2,-140.47 866.93,-132.87"/>
<polygon fill="black" stroke="black" points="870.24,-131.69 864.17,-123 863.5,-133.58 870.24,-131.69"/>
<text text-anchor="middle" x="914.6" y="-144.8" font-family="Times,serif" font-size="14.00">सहार्थ_द्योतकः</text>
</g>
<!-- 18&#45;&gt;16 -->
<g id="edge16" class="edge">
<title>18&#45;&gt;16</title>
<path fill="none" stroke="black" d="M926.15,-175.77C935.69,-170.28 945.84,-163.56 954.1,-156 961.83,-148.93 968.91,-139.94 974.72,-131.55"/>
<polygon fill="black" stroke="black" points="977.69,-133.4 980.27,-123.12 971.85,-129.54 977.69,-133.4"/>
<text text-anchor="middle" x="986.1" y="-144.8" font-family="Times,serif" font-size="14.00">अभेदः</text>
</g>
<!-- 19 -->
<g id="node19" class="node">
<title>19</title>
<g id="a_node19"><a xlink:title="वक्त्र{नपुं}{2;बहु}">
<ellipse fill="#7cfc00" stroke="#7cfc00" cx="1108.1" cy="-279" rx="65.79" ry="18"/>
<text text-anchor="middle" x="1108.1" y="-275.3" font-family="Times,serif" font-size="14.00">वक्त्राणि (19)</text>
</a>
</g>
</g>
<!-- 19&#45;&gt;3 -->
<g id="edge3" class="edge">
<title>19&#45;&gt;3</title>
<path fill="none" stroke="black" d="M1092.49,-261.21C1080.65,-248.47 1064.23,-230.8 1051.06,-216.64"/>
<polygon fill="black" stroke="black" points="1053.51,-214.12 1044.14,-209.18 1048.38,-218.89 1053.51,-214.12"/>
<text text-anchor="middle" x="1092.1" y="-231.8" font-family="Times,serif" font-size="14.00">अभेदः</text>
</g>
<!-- 20 -->
<g id="node20" class="node">
<title>20</title>
<g id="a_node20"><a xlink:title="युष्मद्{6;एक}">
<ellipse fill="#87ceeb" stroke="#87ceeb" cx="1130.1" cy="-192" rx="38.19" ry="18"/>
<text text-anchor="middle" x="1130.1" y="-188.3" font-family="Times,serif" font-size="14.00">ते (20)</text>
</a>
</g>
</g>
<!-- 19&#45;&gt;20 -->
<g id="edge20" class="edge">
<title>19&#45;&gt;20</title>
<path fill="none" stroke="black" d="M1112.55,-260.8C1115.61,-248.97 1119.73,-233.03 1123.22,-219.58"/>
<polygon fill="black" stroke="black" points="1126.61,-220.44 1125.73,-209.89 1119.83,-218.69 1126.61,-220.44"/>
<text text-anchor="middle" x="1157.1" y="-231.8" font-family="Times,serif" font-size="14.00">षष्ठीसम्बन्धः</text>
</g>
<!-- 23 -->
<g id="node23" class="node">
<title>23</title>
<g id="a_node23"><a xlink:title="दंष्ट्रा&#45;कराल{नपुं}{2;बहु}">
<ellipse fill="#7cfc00" stroke="#7cfc00" cx="1275.1" cy="-192" rx="88.28" ry="18"/>
<text text-anchor="middle" x="1275.1" y="-188.3" font-family="Times,serif" font-size="14.00">दंष्ट्रा&#45;करालानि (23)</text>
</a>
</g>
</g>
<!-- 19&#45;&gt;23 -->
<g id="edge22" class="edge">
<title>19&#45;&gt;23</title>
<path fill="none" stroke="black" d="M1147.37,-264.45C1163.13,-258.52 1181.28,-251.08 1197.1,-243 1212.84,-234.96 1229.45,-224.6 1243.27,-215.4"/>
<polygon fill="black" stroke="black" points="1245.59,-218.06 1251.91,-209.56 1241.67,-212.26 1245.59,-218.06"/>
<text text-anchor="middle" x="1247.6" y="-231.8" font-family="Times,serif" font-size="14.00">विशेषणम्</text>
</g>
<!-- 24 -->
<g id="node24" class="node">
<title>24</title>
<g id="a_node24"><a xlink:title="भयानक{नपुं}{2;बहु}">
<ellipse fill="#7cfc00" stroke="#7cfc00" cx="1449.1" cy="-192" rx="67.69" ry="18"/>
<text text-anchor="middle" x="1449.1" y="-188.3" font-family="Times,serif" font-size="14.00">भयानकानि (24)</text>
</a>
</g>
</g>
<!-- 19&#45;&gt;24 -->
<g id="edge23" class="edge">
<title>19&#45;&gt;24</title>
<path fill="none" stroke="black" d="M1156.2,-266.67C1164.81,-264.72 1173.71,-262.76 1182.1,-261 1224.16,-252.19 1235.3,-253.01 1277.1,-243 1318.11,-233.18 1363.94,-219.73 1397.97,-209.26"/>
<polygon fill="black" stroke="black" points="1399.17,-212.55 1407.69,-206.25 1397.1,-205.86 1399.17,-212.55"/>
<text text-anchor="middle" x="1360.6" y="-231.8" font-family="Times,serif" font-size="14.00">विशेषणम्</text>
</g>
<!-- 21 -->
<g id="node21" class="node">
<title>21</title>
<g id="a_node21"><a xlink:title="त्वर्1{कृत्_प्रत्ययः:क्त;ञित्वराँ;भ्वादिः;पुं}{1;बहु}">
<ellipse fill="#00bfff" stroke="#00bfff" cx="1257.1" cy="-279" rx="65.79" ry="18"/>
<text text-anchor="middle" x="1257.1" y="-275.3" font-family="Times,serif" font-size="14.00">त्वरमाणाः (21)</text>
</a>
</g>
</g>
<!-- 22 -->
<g id="node22" class="node">
<title>22</title>
<g id="a_node22"><a xlink:title="विश्1{कर्तरि;लट्;प्र;बहु;परस्मैपदी;विशँ;तुदादिः}">
<ellipse fill="#ff6347" stroke="#ff6347" cx="930.1" cy="-366" rx="59.29" ry="18"/>
<text text-anchor="middle" x="930.1" y="-362.3" font-family="Times,serif" font-size="14.00">विशन्ति (22)</text>
</a>
</g>
</g>
<!-- 22&#45;&gt;6 -->
<g id="edge6" class="edge">
<title>22&#45;&gt;6</title>
<path fill="none" stroke="black" d="M878.28,-357.23C768.35,-340.75 513.32,-302.52 408.91,-286.87"/>
<polygon fill="black" stroke="black" points="409.4,-283.4 398.99,-285.38 408.37,-290.33 409.4,-283.4"/>
<text text-anchor="middle" x="693.6" y="-318.8" font-family="Times,serif" font-size="14.00">कर्ता</text>
</g>
<!-- 22&#45;&gt;9 -->
<g id="edge9" class="edge">
<title>22&#45;&gt;9</title>
<path fill="none" stroke="black" d="M906.8,-349.41C886.95,-336.12 858.2,-316.88 836,-302.02"/>
<polygon fill="black" stroke="black" points="837.8,-299.01 827.54,-296.36 833.9,-304.83 837.8,-299.01"/>
<text text-anchor="middle" x="893.6" y="-318.8" font-family="Times,serif" font-size="14.00">सहार्थः</text>
</g>
<!-- 22&#45;&gt;19 -->
<g id="edge19" class="edge">
<title>22&#45;&gt;19</title>
<path fill="none" stroke="black" d="M960.7,-350.39C990.19,-336.3 1035,-314.91 1067.47,-299.4"/>
<polygon fill="black" stroke="black" points="1069.18,-302.46 1076.7,-294.99 1066.17,-296.14 1069.18,-302.46"/>
<text text-anchor="middle" x="1040.1" y="-318.8" font-family="Times,serif" font-size="14.00">कर्म</text>
</g>
<!-- 22&#45;&gt;21 -->
<g id="edge21" class="edge">
<title>22&#45;&gt;21</title>
<path fill="none" stroke="black" d="M973.52,-353.71C1032.14,-338.47 1136.67,-311.3 1201.13,-294.55"/>
<polygon fill="black" stroke="black" points="1202.32,-297.85 1211.12,-291.95 1200.56,-291.08 1202.32,-297.85"/>
<text text-anchor="middle" x="1166.1" y="-318.8" font-family="Times,serif" font-size="14.00">कर्तृसमानाधिकरणम्</text>
</g>
<!-- 25 -->
<g id="node25" class="node">
<title>25</title>
<g id="a_node25"><a xlink:title="किञ्चित्{पुं}{1;बहु}">
<ellipse fill="#00bfff" stroke="#00bfff" cx="1588.1" cy="-192" rx="53.09" ry="18"/>
<text text-anchor="middle" x="1588.1" y="-188.3" font-family="Times,serif" font-size="14.00">केचित् (25)</text>
</a>
</g>
</g>
<!-- 26 -->
<g id="node26" class="node">
<title>26</title>
<g id="a_node26"><a xlink:title="वि_लज्2{कृत्_प्रत्ययः:क्त;वि_ओँलजीँ;तुदादिः;पुं}{1;बहु}">
<ellipse fill="#00bfff" stroke="#00bfff" cx="1592.1" cy="-279" rx="67.69" ry="18"/>
<text text-anchor="middle" x="1592.1" y="-275.3" font-family="Times,serif" font-size="14.00">वि&#45;लग्नाः (26)</text>
</a>
</g>
</g>
<!-- 26&#45;&gt;25 -->
<g id="edge24" class="edge">
<title>26&#45;&gt;25</title>
<path fill="none" stroke="black" d="M1591.29,-260.8C1590.74,-249.16 1590,-233.55 1589.38,-220.24"/>
<polygon fill="black" stroke="black" points="1592.87,-220 1588.9,-210.18 1585.88,-220.33 1592.87,-220"/>
<text text-anchor="middle" x="1616.6" y="-231.8" font-family="Times,serif" font-size="14.00">विशेषणम्</text>
</g>
<!-- 27 -->
<g id="node27" class="node">
<title>27</title>
<g id="a_node27"><a xlink:title="दशन&#45;अन्तर{नपुं;7;बहु}">
<ellipse fill="#808080" stroke="#808080" cx="1739.1" cy="-192" rx="79.09" ry="18"/>
<text text-anchor="middle" x="1739.1" y="-188.3" font-family="Times,serif" font-size="14.00">दशन&#45;अन्तरेषु (27)</text>
</a>
</g>
</g>
<!-- 28 -->
<g id="node28" class="node">
<title>28</title>
<g id="a_node28"><a xlink:title="सम्_दृश्1{कर्तरि;लट्;प्र;बहु;आत्मनेपदी;सम्_दृशिँर्;भ्वादिः}">
<ellipse fill="#ff6347" stroke="#ff6347" cx="1665.1" cy="-366" rx="68.49" ry="18"/>
<text text-anchor="middle" x="1665.1" y="-362.3" font-family="Times,serif" font-size="14.00">सन्दृश्यन्ते (28)</text>
</a>
</g>
</g>
<!-- 28&#45;&gt;26 -->
<g id="edge25" class="edge">
<title>28&#45;&gt;26</title>
<path fill="none" stroke="black" d="M1650.67,-348.21C1639.98,-335.75 1625.22,-318.57 1613.2,-304.57"/>
<polygon fill="black" stroke="black" points="1615.66,-302.06 1606.49,-296.76 1610.35,-306.63 1615.66,-302.06"/>
<text text-anchor="middle" x="1643.1" y="-318.8" font-family="Times,serif" font-size="14.00">कर्म</text>
</g>
<!-- 29 -->
<g id="node29" class="node">
<title>29</title>
<g id="a_node29"><a xlink:title="चूर्णित{पुं}{3;बहु}">
<ellipse fill="#40e0d0" stroke="#40e0d0" cx="1739.1" cy="-279" rx="57.39" ry="18"/>
<text text-anchor="middle" x="1739.1" y="-275.3" font-family="Times,serif" font-size="14.00">चूर्णितैः (29)</text>
</a>
</g>
</g>
<!-- 28&#45;&gt;29 -->
<g id="edge27" class="edge">
<title>28&#45;&gt;29</title>
<path fill="none" stroke="black" d="M1679.72,-348.21C1690.63,-335.67 1705.71,-318.35 1717.94,-304.3"/>
<polygon fill="black" stroke="black" points="1720.83,-306.31 1724.76,-296.47 1715.55,-301.71 1720.83,-306.31"/>
<text text-anchor="middle" x="1719.6" y="-318.8" font-family="Times,serif" font-size="14.00">कर्ता</text>
</g>
<!-- 29&#45;&gt;27 -->
<g id="edge26" class="edge">
<title>29&#45;&gt;27</title>
<path fill="none" stroke="black" d="M1739.1,-260.8C1739.1,-249.16 1739.1,-233.55 1739.1,-220.24"/>
<polygon fill="black" stroke="black" points="1742.6,-220.18 1739.1,-210.18 1735.6,-220.18 1742.6,-220.18"/>
<text text-anchor="middle" x="1769.6" y="-231.8" font-family="Times,serif" font-size="14.00">अधिकरणम्</text>
</g>
<!-- 30 -->
<g id="node30" class="node">
<title>30</title>
<g id="a_node30"><a xlink:title="उत्तम&#45;अङ्ग{पुं}{3;बहु}">
<ellipse fill="#40e0d0" stroke="#40e0d0" cx="1914.1" cy="-192" rx="77.99" ry="18"/>
<text text-anchor="middle" x="1914.1" y="-188.3" font-family="Times,serif" font-size="14.00">उत्तम&#45;अङ्गैः (30)</text>
</a>
</g>
</g>
<!-- 29&#45;&gt;30 -->
<g id="edge28" class="edge">
<title>29&#45;&gt;30</title>
<path fill="none" stroke="black" d="M1768.78,-263.58C1797.45,-249.66 1841.1,-228.45 1873.08,-212.92"/>
<polygon fill="black" stroke="black" points="1874.72,-216.02 1882.19,-208.5 1871.66,-209.72 1874.72,-216.02"/>
<text text-anchor="middle" x="1848.6" y="-231.8" font-family="Times,serif" font-size="14.00">कर्ता</text>
</g>
</g>
</svg>
