<?xml version="1.0" encoding="UTF-8" standalone="no"?>
<!DOCTYPE svg PUBLIC "-//W3C//DTD SVG 1.1//EN"
 "http://www.w3.org/Graphics/SVG/1.1/DTD/svg11.dtd">
<!-- Generated by graphviz version 2.43.0 (0)
 -->
<!-- Title: %3 Pages: 1 -->
<svg width="722pt" height="305pt"
 viewBox="0.00 0.00 722.19 305.00" xmlns="http://www.w3.org/2000/svg" xmlns:xlink="http://www.w3.org/1999/xlink">
<g id="graph0" class="graph" transform="scale(1 1) rotate(0) translate(4 301)">
<title>%3</title>
<polygon fill="#fffacd" stroke="transparent" points="-4,4 -4,-301 718.19,-301 718.19,4 -4,4"/>
<!-- 1 -->
<g id="node1" class="node">
<title>1</title>
<g id="a_node1"><a xlink:title="पुरुष{पुं}{1;एक}">
<ellipse fill="#00bfff" stroke="#00bfff" cx="187.59" cy="-192" rx="46.29" ry="18"/>
<text text-anchor="middle" x="187.59" y="-188.3" font-family="Times,serif" font-size="14.00">पुरुषः (1)</text>
</a>
</g>
</g>
<!-- 2 -->
<g id="node2" class="node">
<title>2</title>
<g id="a_node2"><a xlink:title="प्रकृति&#45;स्थ{पुं}{1;एक}">
<ellipse fill="#00bfff" stroke="#00bfff" cx="67.59" cy="-105" rx="67.69" ry="18"/>
<text text-anchor="middle" x="67.59" y="-101.3" font-family="Times,serif" font-size="14.00">प्रकृति&#45;स्थः (2)</text>
</a>
</g>
</g>
<!-- 1&#45;&gt;2 -->
<g id="edge2" class="edge">
<title>1&#45;&gt;2</title>
<path fill="none" stroke="black" d="M163.74,-176.47C153.96,-170.34 142.6,-163.01 132.59,-156 120.33,-147.41 107.17,-137.43 95.92,-128.66"/>
<polygon fill="black" stroke="black" points="97.76,-125.66 87.74,-122.24 93.44,-131.17 97.76,-125.66"/>
<text text-anchor="middle" x="158.09" y="-144.8" font-family="Times,serif" font-size="14.00">विशेषणम्</text>
</g>
<!-- 3 -->
<g id="node3" class="node">
<title>3</title>
<g id="a_node3"><a xlink:title="हि{अव्य}">
<ellipse fill="#ff00ff" stroke="#ff00ff" cx="187.59" cy="-105" rx="34.39" ry="18"/>
<text text-anchor="middle" x="187.59" y="-101.3" font-family="Times,serif" font-size="14.00">हि (3)</text>
</a>
</g>
</g>
<!-- 1&#45;&gt;3 -->
<g id="edge3" class="edge">
<title>1&#45;&gt;3</title>
<path fill="none" stroke="black" d="M187.59,-173.8C187.59,-162.16 187.59,-146.55 187.59,-133.24"/>
<polygon fill="black" stroke="black" points="191.09,-133.18 187.59,-123.18 184.09,-133.18 191.09,-133.18"/>
<text text-anchor="middle" x="210.59" y="-144.8" font-family="Times,serif" font-size="14.00">सम्बन्धः</text>
</g>
<!-- 4 -->
<g id="node4" class="node">
<title>4</title>
<g id="a_node4"><a xlink:title="भुज्2{कर्तरि;लट्;प्र;एक;आत्मनेपदी;भुजँ;रुधादिः}">
<ellipse fill="#ff6347" stroke="#ff6347" cx="243.59" cy="-279" rx="50.09" ry="18"/>
<text text-anchor="middle" x="243.59" y="-275.3" font-family="Times,serif" font-size="14.00">भुङ्क्ते (4)</text>
</a>
</g>
</g>
<!-- 4&#45;&gt;1 -->
<g id="edge1" class="edge">
<title>4&#45;&gt;1</title>
<path fill="none" stroke="black" d="M232.53,-261.21C224.48,-248.98 213.43,-232.21 204.3,-218.36"/>
<polygon fill="black" stroke="black" points="207.06,-216.18 198.63,-209.76 201.21,-220.03 207.06,-216.18"/>
<text text-anchor="middle" x="232.09" y="-231.8" font-family="Times,serif" font-size="14.00">कर्ता</text>
</g>
<!-- 6 -->
<g id="node6" class="node">
<title>6</title>
<g id="a_node6"><a xlink:title="गुण{पुं}{2;बहु}">
<ellipse fill="#7cfc00" stroke="#7cfc00" cx="303.59" cy="-192" rx="46.29" ry="18"/>
<text text-anchor="middle" x="303.59" y="-188.3" font-family="Times,serif" font-size="14.00">गुणान् (6)</text>
</a>
</g>
</g>
<!-- 4&#45;&gt;6 -->
<g id="edge5" class="edge">
<title>4&#45;&gt;6</title>
<path fill="none" stroke="black" d="M255.45,-261.21C264.22,-248.79 276.3,-231.67 286.16,-217.7"/>
<polygon fill="black" stroke="black" points="289.06,-219.66 291.97,-209.47 283.34,-215.62 289.06,-219.66"/>
<text text-anchor="middle" x="287.59" y="-231.8" font-family="Times,serif" font-size="14.00">कर्म</text>
</g>
<!-- 5 -->
<g id="node5" class="node">
<title>5</title>
<g id="a_node5"><a xlink:title="प्रकृति&#45;ज{पुं}{2;बहु}">
<ellipse fill="#7cfc00" stroke="#7cfc00" cx="308.59" cy="-105" rx="68.79" ry="18"/>
<text text-anchor="middle" x="308.59" y="-101.3" font-family="Times,serif" font-size="14.00">प्रकृति&#45;जान् (5)</text>
</a>
</g>
</g>
<!-- 6&#45;&gt;5 -->
<g id="edge4" class="edge">
<title>6&#45;&gt;5</title>
<path fill="none" stroke="black" d="M304.61,-173.8C305.29,-162.16 306.21,-146.55 306.99,-133.24"/>
<polygon fill="black" stroke="black" points="310.49,-133.36 307.58,-123.18 303.5,-132.95 310.49,-133.36"/>
<text text-anchor="middle" x="332.09" y="-144.8" font-family="Times,serif" font-size="14.00">विशेषणम्</text>
</g>
<!-- 7 -->
<g id="node7" class="node">
<title>7</title>
<g id="a_node7"><a xlink:title="कारण{नपुं}{1;एक}">
<ellipse fill="#00bfff" stroke="#00bfff" cx="511.59" cy="-192" rx="51.19" ry="18"/>
<text text-anchor="middle" x="511.59" y="-188.3" font-family="Times,serif" font-size="14.00">कारणम् (7)</text>
</a>
</g>
</g>
<!-- 10 -->
<g id="node10" class="node">
<title>10</title>
<g id="a_node10"><a xlink:title="सद्&#45;असद्&#45;योनि&#45;जन्मन्{नपुं}{7;बहु}">
<ellipse fill="#708090" stroke="#708090" cx="511.59" cy="-105" rx="116.18" ry="18"/>
<text text-anchor="middle" x="511.59" y="-101.3" font-family="Times,serif" font-size="14.00">सत्&#45;अ&#45;सत्&#45;योनि&#45;जन्मसु (10)</text>
</a>
</g>
</g>
<!-- 7&#45;&gt;10 -->
<g id="edge9" class="edge">
<title>7&#45;&gt;10</title>
<path fill="none" stroke="black" d="M511.59,-173.8C511.59,-162.16 511.59,-146.55 511.59,-133.24"/>
<polygon fill="black" stroke="black" points="515.09,-133.18 511.59,-123.18 508.09,-133.18 515.09,-133.18"/>
<text text-anchor="middle" x="542.09" y="-144.8" font-family="Times,serif" font-size="14.00">अधिकरणम्</text>
</g>
<!-- 8 -->
<g id="node8" class="node">
<title>8</title>
<g id="a_node8"><a xlink:title="गुण&#45;सङ्ग{पुं}{1;एक}">
<ellipse fill="#00bfff" stroke="#00bfff" cx="646.59" cy="-192" rx="65.79" ry="18"/>
<text text-anchor="middle" x="646.59" y="-188.3" font-family="Times,serif" font-size="14.00">गुण&#45;सङ्गः (8)</text>
</a>
</g>
</g>
<!-- 9 -->
<g id="node9" class="node">
<title>9</title>
<g id="a_node9"><a xlink:title="इदम्{पुं}{6;एक}">
<ellipse fill="#87ceeb" stroke="#87ceeb" cx="511.59" cy="-18" rx="44.69" ry="18"/>
<text text-anchor="middle" x="511.59" y="-14.3" font-family="Times,serif" font-size="14.00">अस्य (9)</text>
</a>
</g>
</g>
<!-- 10&#45;&gt;9 -->
<g id="edge8" class="edge">
<title>10&#45;&gt;9</title>
<path fill="none" stroke="black" d="M511.59,-86.8C511.59,-75.16 511.59,-59.55 511.59,-46.24"/>
<polygon fill="black" stroke="black" points="515.09,-46.18 511.59,-36.18 508.09,-46.18 515.09,-46.18"/>
<text text-anchor="middle" x="547.59" y="-57.8" font-family="Times,serif" font-size="14.00">षष्ठीसम्बन्धः</text>
</g>
<!-- 10.1 -->
<g id="node11" class="node">
<title>10.1</title>
<g id="a_node11"><a xlink:title="(भू1{कर्तरि;लट्;प्र;एक;परस्मैपदी;भू;भ्वादिः})">
<ellipse fill="#ff6347" stroke="#ff6347" cx="646.59" cy="-279" rx="67.69" ry="18"/>
<text text-anchor="middle" x="646.59" y="-275.3" font-family="Times,serif" font-size="14.00">(भवति) (10.1)</text>
</a>
</g>
</g>
<!-- 10.1&#45;&gt;8 -->
<g id="edge7" class="edge">
<title>10.1&#45;&gt;8</title>
<path fill="none" stroke="black" d="M646.59,-260.8C646.59,-249.16 646.59,-233.55 646.59,-220.24"/>
<polygon fill="black" stroke="black" points="650.09,-220.18 646.59,-210.18 643.09,-220.18 650.09,-220.18"/>
<text text-anchor="middle" x="659.09" y="-231.8" font-family="Times,serif" font-size="14.00">कर्ता</text>
</g>
<!-- 11 -->
<g id="node12" class="node">
<title>11</title>
<ellipse fill="lightgrey" stroke="black" cx="511.59" cy="-279" rx="27" ry="18"/>
<text text-anchor="middle" x="511.59" y="-275.3" font-family="Times,serif" font-size="14.00">11</text>
</g>
<!-- 11&#45;&gt;7 -->
<g id="edge6" class="edge">
<title>11&#45;&gt;7</title>
<path fill="none" stroke="black" d="M511.59,-260.8C511.59,-249.16 511.59,-233.55 511.59,-220.24"/>
<polygon fill="black" stroke="black" points="515.09,-220.18 511.59,-210.18 508.09,-220.18 515.09,-220.18"/>
<text text-anchor="middle" x="563.59" y="-231.8" font-family="Times,serif" font-size="14.00">कर्तृसमानाधिकरणम्</text>
</g>
</g>
</svg>
