<?xml version="1.0" encoding="UTF-8" standalone="no"?>
<!DOCTYPE svg PUBLIC "-//W3C//DTD SVG 1.1//EN"
 "http://www.w3.org/Graphics/SVG/1.1/DTD/svg11.dtd">
<!-- Generated by graphviz version 2.43.0 (0)
 -->
<!-- Title: %3 Pages: 1 -->
<svg width="1087pt" height="218pt"
 viewBox="0.00 0.00 1087.14 218.00" xmlns="http://www.w3.org/2000/svg" xmlns:xlink="http://www.w3.org/1999/xlink">
<g id="graph0" class="graph" transform="scale(1 1) rotate(0) translate(4 214)">
<title>%3</title>
<polygon fill="#fffacd" stroke="transparent" points="-4,4 -4,-214 1083.14,-214 1083.14,4 -4,4"/>
<!-- 1 -->
<g id="node1" class="node">
<title>1</title>
<g id="a_node1"><a xlink:title="क्षेत्र&#45;ज्ञ{पुं}{2;एक}">
<ellipse fill="#7cfc00" stroke="#7cfc00" cx="59.14" cy="-105" rx="59.29" ry="18"/>
<text text-anchor="middle" x="59.14" y="-101.3" font-family="Times,serif" font-size="14.00">क्षेत्र&#45;ज्ञम् (1)</text>
</a>
</g>
</g>
<!-- 2 -->
<g id="node2" class="node">
<title>2</title>
<g id="a_node2"><a xlink:title="अपि{अव्य}">
<ellipse fill="#ff00ff" stroke="#ff00ff" cx="59.14" cy="-18" rx="42.49" ry="18"/>
<text text-anchor="middle" x="59.14" y="-14.3" font-family="Times,serif" font-size="14.00">अपि (2)</text>
</a>
</g>
</g>
<!-- 1&#45;&gt;2 -->
<g id="edge2" class="edge">
<title>1&#45;&gt;2</title>
<path fill="none" stroke="black" d="M59.14,-86.8C59.14,-75.16 59.14,-59.55 59.14,-46.24"/>
<polygon fill="black" stroke="black" points="62.64,-46.18 59.14,-36.18 55.64,-46.18 62.64,-46.18"/>
<text text-anchor="middle" x="82.14" y="-57.8" font-family="Times,serif" font-size="14.00">सम्बन्धः</text>
</g>
<!-- 2.1 -->
<g id="node3" class="node">
<title>2.1</title>
<g id="a_node3"><a xlink:title="च{अव्य}">
<ellipse fill="#ff00ff" stroke="#ff00ff" cx="178.14" cy="-105" rx="42.49" ry="18"/>
<text text-anchor="middle" x="178.14" y="-101.3" font-family="Times,serif" font-size="14.00">च (2.1)</text>
</a>
</g>
</g>
<!-- 3 -->
<g id="node4" class="node">
<title>3</title>
<g id="a_node4"><a xlink:title="अस्मद्{2;एक}">
<ellipse fill="#7cfc00" stroke="#7cfc00" cx="280.14" cy="-105" rx="41.69" ry="18"/>
<text text-anchor="middle" x="280.14" y="-101.3" font-family="Times,serif" font-size="14.00">माम् (3)</text>
</a>
</g>
</g>
<!-- 4 -->
<g id="node5" class="node">
<title>4</title>
<g id="a_node5"><a xlink:title="विद्1{कर्तरि;लोट्;म;एक;परस्मैपदी;विदँ;अदादिः}">
<ellipse fill="#ff6347" stroke="#ff6347" cx="278.14" cy="-192" rx="49.29" ry="18"/>
<text text-anchor="middle" x="278.14" y="-188.3" font-family="Times,serif" font-size="14.00">विद्धि (4)</text>
</a>
</g>
</g>
<!-- 4&#45;&gt;1 -->
<g id="edge1" class="edge">
<title>4&#45;&gt;1</title>
<path fill="none" stroke="black" d="M245.36,-178.27C207.72,-163.67 145.78,-139.63 103.77,-123.32"/>
<polygon fill="black" stroke="black" points="104.92,-120.01 94.33,-119.66 102.39,-126.54 104.92,-120.01"/>
<text text-anchor="middle" x="192.14" y="-144.8" font-family="Times,serif" font-size="14.00">कर्म</text>
</g>
<!-- 4&#45;&gt;2.1 -->
<g id="edge3" class="edge">
<title>4&#45;&gt;2.1</title>
<path fill="none" stroke="black" d="M255.15,-175.68C246.75,-169.8 237.32,-162.85 229.14,-156 219.3,-147.74 209.07,-137.98 200.37,-129.28"/>
<polygon fill="black" stroke="black" points="202.69,-126.64 193.18,-121.97 197.7,-131.55 202.69,-126.64"/>
<text text-anchor="middle" x="252.14" y="-144.8" font-family="Times,serif" font-size="14.00">सम्बन्धः</text>
</g>
<!-- 4&#45;&gt;3 -->
<g id="edge4" class="edge">
<title>4&#45;&gt;3</title>
<path fill="none" stroke="black" d="M278.45,-173.87C278.63,-164.22 278.88,-151.94 279.14,-141 279.21,-138.45 279.28,-135.79 279.35,-133.13"/>
<polygon fill="black" stroke="black" points="282.85,-133.18 279.63,-123.09 275.85,-132.99 282.85,-133.18"/>
<text text-anchor="middle" x="331.14" y="-144.8" font-family="Times,serif" font-size="14.00">कर्मसमानाधिकरणम्</text>
</g>
<!-- 5 -->
<g id="node6" class="node">
<title>5</title>
<g id="a_node6"><a xlink:title="सर्व&#45;क्षेत्र{नपुं}{7;बहु}">
<ellipse fill="#708090" stroke="#708090" cx="405.14" cy="-105" rx="63.89" ry="18"/>
<text text-anchor="middle" x="405.14" y="-101.3" font-family="Times,serif" font-size="14.00">सर्व&#45;क्षेत्रेषु (5)</text>
</a>
</g>
</g>
<!-- 4&#45;&gt;5 -->
<g id="edge5" class="edge">
<title>4&#45;&gt;5</title>
<path fill="none" stroke="black" d="M323.22,-184.52C343.57,-179.61 366.67,-171.01 383.14,-156 389.9,-149.85 394.68,-141.25 398.02,-132.91"/>
<polygon fill="black" stroke="black" points="401.35,-134.01 401.32,-123.41 394.74,-131.71 401.35,-134.01"/>
<text text-anchor="middle" x="424.64" y="-144.8" font-family="Times,serif" font-size="14.00">अधिकरणम्</text>
</g>
<!-- 6 -->
<g id="node7" class="node">
<title>6</title>
<g id="a_node7"><a xlink:title="भारत{पुं}{8;एक}">
<ellipse fill="#7fffd4" stroke="#7fffd4" cx="531.14" cy="-105" rx="44.39" ry="18"/>
<text text-anchor="middle" x="531.14" y="-101.3" font-family="Times,serif" font-size="14.00">भारत (6)</text>
</a>
</g>
</g>
<!-- 4&#45;&gt;6 -->
<g id="edge6" class="edge">
<title>4&#45;&gt;6</title>
<path fill="none" stroke="black" d="M325.83,-187.22C363.27,-182.98 416.09,-174.15 459.14,-156 475.59,-149.06 492.09,-137.99 505.13,-128.02"/>
<polygon fill="black" stroke="black" points="507.48,-130.62 513.17,-121.68 503.15,-125.13 507.48,-130.62"/>
<text text-anchor="middle" x="512.64" y="-144.8" font-family="Times,serif" font-size="14.00">सम्बोध्यः</text>
</g>
<!-- 7 -->
<g id="node8" class="node">
<title>7</title>
<g id="a_node8"><a xlink:title="क्षेत्र&#45;क्षेत्रज्ञ{पुं}{6;एक}">
<ellipse fill="#87ceeb" stroke="#87ceeb" cx="510.14" cy="-18" rx="85.29" ry="18"/>
<text text-anchor="middle" x="510.14" y="-14.3" font-family="Times,serif" font-size="14.00">क्षेत्र&#45;क्षेत्र&#45;ज्ञयोः (7)</text>
</a>
</g>
</g>
<!-- 8 -->
<g id="node9" class="node">
<title>8</title>
<g id="a_node9"><a xlink:title="ज्ञान{नपुं}{2;एक}">
<ellipse fill="#7cfc00" stroke="#7cfc00" cx="639.14" cy="-105" rx="46.29" ry="18"/>
<text text-anchor="middle" x="639.14" y="-101.3" font-family="Times,serif" font-size="14.00">ज्ञानम् (8)</text>
</a>
</g>
</g>
<!-- 8&#45;&gt;7 -->
<g id="edge7" class="edge">
<title>8&#45;&gt;7</title>
<path fill="none" stroke="black" d="M609.33,-91.03C596.56,-84.99 581.73,-77.31 569.14,-69 557.38,-61.24 545.35,-51.44 535.24,-42.57"/>
<polygon fill="black" stroke="black" points="537.38,-39.79 527.6,-35.72 532.71,-45 537.38,-39.79"/>
<text text-anchor="middle" x="605.14" y="-57.8" font-family="Times,serif" font-size="14.00">षष्ठीसम्बन्धः</text>
</g>
<!-- 9 -->
<g id="node10" class="node">
<title>9</title>
<g id="a_node10"><a xlink:title="यद्{नपुं}{1;एक}">
<ellipse fill="#00bfff" stroke="#00bfff" cx="651.14" cy="-18" rx="38.19" ry="18"/>
<text text-anchor="middle" x="651.14" y="-14.3" font-family="Times,serif" font-size="14.00">यत् (9)</text>
</a>
</g>
</g>
<!-- 8&#45;&gt;9 -->
<g id="edge9" class="edge">
<title>8&#45;&gt;9</title>
<path fill="none" stroke="black" d="M641.57,-86.8C643.22,-75.16 645.42,-59.55 647.3,-46.24"/>
<polygon fill="black" stroke="black" points="650.79,-46.57 648.72,-36.18 643.86,-45.59 650.79,-46.57"/>
<text text-anchor="middle" x="671.64" y="-57.8" font-family="Times,serif" font-size="14.00">विशेषणम्</text>
</g>
<!-- 9.1 -->
<g id="node11" class="node">
<title>9.1</title>
<g id="a_node11"><a xlink:title="(अस्2{कर्तरि;लट्;प्र;एक;परस्मैपदी;असँ;अदादिः})">
<ellipse fill="#ff6347" stroke="#ff6347" cx="639.14" cy="-192" rx="63.09" ry="18"/>
<text text-anchor="middle" x="639.14" y="-188.3" font-family="Times,serif" font-size="14.00">(अस्ति) (9.1)</text>
</a>
</g>
</g>
<!-- 9.1&#45;&gt;8 -->
<g id="edge8" class="edge">
<title>9.1&#45;&gt;8</title>
<path fill="none" stroke="black" d="M639.14,-173.8C639.14,-162.16 639.14,-146.55 639.14,-133.24"/>
<polygon fill="black" stroke="black" points="642.64,-133.18 639.14,-123.18 635.64,-133.18 642.64,-133.18"/>
<text text-anchor="middle" x="651.64" y="-144.8" font-family="Times,serif" font-size="14.00">कर्ता</text>
</g>
<!-- 10 -->
<g id="node12" class="node">
<title>10</title>
<g id="a_node12"><a xlink:title="तद्{नपुं}{1;एक}">
<ellipse fill="#00bfff" stroke="#00bfff" cx="765.14" cy="-18" rx="44.39" ry="18"/>
<text text-anchor="middle" x="765.14" y="-14.3" font-family="Times,serif" font-size="14.00">तत् (10)</text>
</a>
</g>
</g>
<!-- 11 -->
<g id="node13" class="node">
<title>11</title>
<g id="a_node13"><a xlink:title="ज्ञान{नपुं}{1;एक}">
<ellipse fill="#00bfff" stroke="#00bfff" cx="879.14" cy="-18" rx="51.99" ry="18"/>
<text text-anchor="middle" x="879.14" y="-14.3" font-family="Times,serif" font-size="14.00">ज्ञानम् (11)</text>
</a>
</g>
</g>
<!-- 11.1 -->
<g id="node14" class="node">
<title>11.1</title>
<g id="a_node14"><a xlink:title="(अस्2{कर्तरि;लट्;प्र;एक;परस्मैपदी;असँ;अदादिः})">
<ellipse fill="#ff6347" stroke="#ff6347" cx="789.14" cy="-192" rx="68.79" ry="18"/>
<text text-anchor="middle" x="789.14" y="-188.3" font-family="Times,serif" font-size="14.00">(अस्ति) (11.1)</text>
</a>
</g>
</g>
<!-- 11.1&#45;&gt;11.1 -->
<g id="edge12" class="edge">
<title>11.1&#45;&gt;11.1</title>
<path fill="none" stroke="black" d="M851.63,-199.68C865.73,-198.99 876.04,-196.43 876.04,-192 876.04,-188.71 870.36,-186.45 861.67,-185.23"/>
<polygon fill="black" stroke="black" points="861.91,-181.73 851.63,-184.32 861.28,-188.7 861.91,-181.73"/>
<text text-anchor="middle" x="886.04" y="-188.3" font-family="Times,serif" font-size="14.00">कर्म</text>
</g>
<!-- 11.2 -->
<g id="node15" class="node">
<title>11.2</title>
<g id="a_node15"><a xlink:title="(इति{अव्य})">
<ellipse fill="#ff00ff" stroke="#ff00ff" cx="789.14" cy="-105" rx="61.99" ry="18"/>
<text text-anchor="middle" x="789.14" y="-101.3" font-family="Times,serif" font-size="14.00">(इति) (11.2)</text>
</a>
</g>
</g>
<!-- 11.1&#45;&gt;11.2 -->
<g id="edge13" class="edge">
<title>11.1&#45;&gt;11.2</title>
<path fill="none" stroke="black" d="M789.14,-173.8C789.14,-162.16 789.14,-146.55 789.14,-133.24"/>
<polygon fill="black" stroke="black" points="792.64,-133.18 789.14,-123.18 785.64,-133.18 792.64,-133.18"/>
<text text-anchor="middle" x="819.14" y="-144.8" font-family="Times,serif" font-size="14.00">कर्मद्योतकः</text>
</g>
<!-- 11.2&#45;&gt;10 -->
<g id="edge10" class="edge">
<title>11.2&#45;&gt;10</title>
<path fill="none" stroke="black" d="M784.29,-86.8C780.97,-75.05 776.51,-59.24 772.72,-45.84"/>
<polygon fill="black" stroke="black" points="776.08,-44.85 769.99,-36.18 769.34,-46.75 776.08,-44.85"/>
<text text-anchor="middle" x="791.64" y="-57.8" font-family="Times,serif" font-size="14.00">कर्ता</text>
</g>
<!-- 11.2&#45;&gt;11 -->
<g id="edge11" class="edge">
<title>11.2&#45;&gt;11</title>
<path fill="none" stroke="black" d="M806.5,-87.61C820.16,-74.71 839.36,-56.57 854.6,-42.18"/>
<polygon fill="black" stroke="black" points="857.28,-44.46 862.15,-35.05 852.48,-39.37 857.28,-44.46"/>
<text text-anchor="middle" x="892.14" y="-57.8" font-family="Times,serif" font-size="14.00">कर्तृसमानाधिकरणम्</text>
</g>
<!-- 12 -->
<g id="node16" class="node">
<title>12</title>
<g id="a_node16"><a xlink:title="मत{नपुं}{1;एक}">
<ellipse fill="#00bfff" stroke="#00bfff" cx="1007.14" cy="-105" rx="50.09" ry="18"/>
<text text-anchor="middle" x="1007.14" y="-101.3" font-family="Times,serif" font-size="14.00">मतम् (12)</text>
</a>
</g>
</g>
<!-- 13 -->
<g id="node17" class="node">
<title>13</title>
<g id="a_node17"><a xlink:title="अस्मद्{6;एक}">
<ellipse fill="#87ceeb" stroke="#87ceeb" cx="1007.14" cy="-18" rx="44.39" ry="18"/>
<text text-anchor="middle" x="1007.14" y="-14.3" font-family="Times,serif" font-size="14.00">मम (13)</text>
</a>
</g>
</g>
<!-- 12&#45;&gt;13 -->
<g id="edge15" class="edge">
<title>12&#45;&gt;13</title>
<path fill="none" stroke="black" d="M1007.14,-86.8C1007.14,-75.16 1007.14,-59.55 1007.14,-46.24"/>
<polygon fill="black" stroke="black" points="1010.64,-46.18 1007.14,-36.18 1003.64,-46.18 1010.64,-46.18"/>
<text text-anchor="middle" x="1043.14" y="-57.8" font-family="Times,serif" font-size="14.00">षष्ठीसम्बन्धः</text>
</g>
<!-- 13.1 -->
<g id="node18" class="node">
<title>13.1</title>
<g id="a_node18"><a xlink:title="(अस्2{कर्तरि;लट्;प्र;एक;परस्मैपदी;असँ;अदादिः})">
<ellipse fill="#ff6347" stroke="#ff6347" cx="1007.14" cy="-192" rx="68.79" ry="18"/>
<text text-anchor="middle" x="1007.14" y="-188.3" font-family="Times,serif" font-size="14.00">(अस्ति) (13.1)</text>
</a>
</g>
</g>
<!-- 13.1&#45;&gt;12 -->
<g id="edge14" class="edge">
<title>13.1&#45;&gt;12</title>
<path fill="none" stroke="black" d="M1007.14,-173.8C1007.14,-162.16 1007.14,-146.55 1007.14,-133.24"/>
<polygon fill="black" stroke="black" points="1010.64,-133.18 1007.14,-123.18 1003.64,-133.18 1010.64,-133.18"/>
<text text-anchor="middle" x="1019.64" y="-144.8" font-family="Times,serif" font-size="14.00">कर्ता</text>
</g>
</g>
</svg>
