<?xml version="1.0" encoding="UTF-8" standalone="no"?>
<!DOCTYPE svg PUBLIC "-//W3C//DTD SVG 1.1//EN"
 "http://www.w3.org/Graphics/SVG/1.1/DTD/svg11.dtd">
<!-- Generated by graphviz version 2.43.0 (0)
 -->
<!-- Title: %3 Pages: 1 -->
<svg width="793pt" height="305pt"
 viewBox="0.00 0.00 792.74 305.00" xmlns="http://www.w3.org/2000/svg" xmlns:xlink="http://www.w3.org/1999/xlink">
<g id="graph0" class="graph" transform="scale(1 1) rotate(0) translate(4 301)">
<title>%3</title>
<polygon fill="#fffacd" stroke="transparent" points="-4,4 -4,-301 788.74,-301 788.74,4 -4,4"/>
<!-- 1 -->
<g id="node1" class="node">
<title>1</title>
<g id="a_node1"><a xlink:title="यदा{अव्य}">
<ellipse fill="#ff00ff" stroke="#ff00ff" cx="40.3" cy="-192" rx="40.09" ry="18"/>
<text text-anchor="middle" x="40.3" y="-188.3" font-family="Times,serif" font-size="14.00">यदा (1)</text>
</a>
</g>
</g>
<!-- 2 -->
<g id="node2" class="node">
<title>2</title>
<g id="a_node2"><a xlink:title="सत्त्व{नपुं}{7;एक}">
<ellipse fill="#708090" stroke="#708090" cx="276.3" cy="-18" rx="46.29" ry="18"/>
<text text-anchor="middle" x="276.3" y="-14.3" font-family="Times,serif" font-size="14.00">सत्त्वे (2)</text>
</a>
</g>
</g>
<!-- 3 -->
<g id="node3" class="node">
<title>3</title>
<g id="a_node3"><a xlink:title="प्र_वृध्1{कृत्_प्रत्ययः:क्त;प्र_वृधुँ;भ्वादिः;पुं}{7;एक}">
<ellipse fill="#708090" stroke="#708090" cx="276.3" cy="-105" rx="48.19" ry="18"/>
<text text-anchor="middle" x="276.3" y="-101.3" font-family="Times,serif" font-size="14.00">प्रवृद्धे (3)</text>
</a>
</g>
</g>
<!-- 3&#45;&gt;2 -->
<g id="edge2" class="edge">
<title>3&#45;&gt;2</title>
<path fill="none" stroke="black" d="M276.3,-86.8C276.3,-75.16 276.3,-59.55 276.3,-46.24"/>
<polygon fill="black" stroke="black" points="279.8,-46.18 276.3,-36.18 272.8,-46.18 279.8,-46.18"/>
<text text-anchor="middle" x="306.8" y="-57.8" font-family="Times,serif" font-size="14.00">अधिकरणम्</text>
</g>
<!-- 4 -->
<g id="node4" class="node">
<title>4</title>
<g id="a_node4"><a xlink:title="तु{अव्य}">
<ellipse fill="#ff00ff" stroke="#ff00ff" cx="443.3" cy="-105" rx="32.49" ry="18"/>
<text text-anchor="middle" x="443.3" y="-101.3" font-family="Times,serif" font-size="14.00">तु (4)</text>
</a>
</g>
</g>
<!-- 5 -->
<g id="node5" class="node">
<title>5</title>
<g id="a_node5"><a xlink:title="प्रलय{पुं}{2;एक}">
<ellipse fill="#7cfc00" stroke="#7cfc00" cx="152.3" cy="-192" rx="53.89" ry="18"/>
<text text-anchor="middle" x="152.3" y="-188.3" font-family="Times,serif" font-size="14.00">प्रलयम् (5)</text>
</a>
</g>
</g>
<!-- 6 -->
<g id="node6" class="node">
<title>6</title>
<g id="a_node6"><a xlink:title="या1{कर्तरि;लट्;प्र;एक;परस्मैपदी;या;अदादिः}">
<ellipse fill="#ff6347" stroke="#ff6347" cx="152.3" cy="-279" rx="44.39" ry="18"/>
<text text-anchor="middle" x="152.3" y="-275.3" font-family="Times,serif" font-size="14.00">याति (6)</text>
</a>
</g>
</g>
<!-- 6&#45;&gt;1 -->
<g id="edge1" class="edge">
<title>6&#45;&gt;1</title>
<path fill="none" stroke="black" d="M116.36,-268.52C100.6,-263.01 82.67,-254.78 69.3,-243 61.97,-236.54 56.02,-227.76 51.46,-219.37"/>
<polygon fill="black" stroke="black" points="54.48,-217.59 46.9,-210.19 48.21,-220.7 54.48,-217.59"/>
<text text-anchor="middle" x="108.8" y="-231.8" font-family="Times,serif" font-size="14.00">कालाधिकरणम्</text>
</g>
<!-- 6&#45;&gt;5 -->
<g id="edge5" class="edge">
<title>6&#45;&gt;5</title>
<path fill="none" stroke="black" d="M152.3,-260.8C152.3,-249.16 152.3,-233.55 152.3,-220.24"/>
<polygon fill="black" stroke="black" points="155.8,-220.18 152.3,-210.18 148.8,-220.18 155.8,-220.18"/>
<text text-anchor="middle" x="162.3" y="-231.8" font-family="Times,serif" font-size="14.00">कर्म</text>
</g>
<!-- 7 -->
<g id="node7" class="node">
<title>7</title>
<g id="a_node7"><a xlink:title="देह&#45;भृत्{पुं}{1;एक}">
<ellipse fill="#00bfff" stroke="#00bfff" cx="276.3" cy="-192" rx="51.99" ry="18"/>
<text text-anchor="middle" x="276.3" y="-188.3" font-family="Times,serif" font-size="14.00">देह&#45;भृत् (7)</text>
</a>
</g>
</g>
<!-- 6&#45;&gt;7 -->
<g id="edge6" class="edge">
<title>6&#45;&gt;7</title>
<path fill="none" stroke="black" d="M173.9,-263.19C193.62,-249.67 223.01,-229.53 245.25,-214.28"/>
<polygon fill="black" stroke="black" points="247.42,-217.04 253.69,-208.5 243.46,-211.26 247.42,-217.04"/>
<text text-anchor="middle" x="234.8" y="-231.8" font-family="Times,serif" font-size="14.00">कर्ता</text>
</g>
<!-- 7&#45;&gt;3 -->
<g id="edge3" class="edge">
<title>7&#45;&gt;3</title>
<path fill="none" stroke="black" d="M276.3,-173.8C276.3,-162.16 276.3,-146.55 276.3,-133.24"/>
<polygon fill="black" stroke="black" points="279.8,-133.18 276.3,-123.18 272.8,-133.18 279.8,-133.18"/>
<text text-anchor="middle" x="348.3" y="-144.8" font-family="Times,serif" font-size="14.00">भावलक्षणसप्तमी_पूर्वकालः</text>
</g>
<!-- 8 -->
<g id="node8" class="node">
<title>8</title>
<g id="a_node8"><a xlink:title="तदा{अव्य}">
<ellipse fill="#ff00ff" stroke="#ff00ff" cx="446.3" cy="-192" rx="40.09" ry="18"/>
<text text-anchor="middle" x="446.3" y="-188.3" font-family="Times,serif" font-size="14.00">तदा (8)</text>
</a>
</g>
</g>
<!-- 8&#45;&gt;4 -->
<g id="edge4" class="edge">
<title>8&#45;&gt;4</title>
<path fill="none" stroke="black" d="M445.69,-173.8C445.28,-162.16 444.73,-146.55 444.26,-133.24"/>
<polygon fill="black" stroke="black" points="447.75,-133.05 443.9,-123.18 440.76,-133.29 447.75,-133.05"/>
<text text-anchor="middle" x="468.3" y="-144.8" font-family="Times,serif" font-size="14.00">सम्बन्धः</text>
</g>
<!-- 9 -->
<g id="node9" class="node">
<title>9</title>
<g id="a_node9"><a xlink:title="उत्तम&#45;विद्{पुं}{6;बहु}">
<ellipse fill="#87ceeb" stroke="#87ceeb" cx="564.3" cy="-105" rx="70.69" ry="18"/>
<text text-anchor="middle" x="564.3" y="-101.3" font-family="Times,serif" font-size="14.00">उत्तम&#45;विदाम् (9)</text>
</a>
</g>
</g>
<!-- 10 -->
<g id="node10" class="node">
<title>10</title>
<g id="a_node10"><a xlink:title="लोक{पुं}{2;बहु}">
<ellipse fill="#7cfc00" stroke="#7cfc00" cx="564.3" cy="-192" rx="55.79" ry="18"/>
<text text-anchor="middle" x="564.3" y="-188.3" font-family="Times,serif" font-size="14.00">लोकान् (10)</text>
</a>
</g>
</g>
<!-- 10&#45;&gt;9 -->
<g id="edge8" class="edge">
<title>10&#45;&gt;9</title>
<path fill="none" stroke="black" d="M564.3,-173.8C564.3,-162.16 564.3,-146.55 564.3,-133.24"/>
<polygon fill="black" stroke="black" points="567.8,-133.18 564.3,-123.18 560.8,-133.18 567.8,-133.18"/>
<text text-anchor="middle" x="589.8" y="-144.8" font-family="Times,serif" font-size="14.00">विशेषणम्</text>
</g>
<!-- 11 -->
<g id="node11" class="node">
<title>11</title>
<g id="a_node11"><a xlink:title="अमल{पुं}{2;बहु}">
<ellipse fill="#7cfc00" stroke="#7cfc00" cx="717.3" cy="-105" rx="63.89" ry="18"/>
<text text-anchor="middle" x="717.3" y="-101.3" font-family="Times,serif" font-size="14.00">अ&#45;मलान् (11)</text>
</a>
</g>
</g>
<!-- 10&#45;&gt;11 -->
<g id="edge10" class="edge">
<title>10&#45;&gt;11</title>
<path fill="none" stroke="black" d="M591.3,-176C616.19,-162.17 653.34,-141.53 680.86,-126.24"/>
<polygon fill="black" stroke="black" points="682.75,-129.2 689.79,-121.28 679.35,-123.08 682.75,-129.2"/>
<text text-anchor="middle" x="675.8" y="-144.8" font-family="Times,serif" font-size="14.00">विशेषणम्</text>
</g>
<!-- 12 -->
<g id="node12" class="node">
<title>12</title>
<g id="a_node12"><a xlink:title="प्रति_पद्1{कर्तरि;लट्;प्र;एक;आत्मनेपदी;प्रति_पदँ;दिवादिः}">
<ellipse fill="#ff6347" stroke="#ff6347" cx="564.3" cy="-279" rx="68.79" ry="18"/>
<text text-anchor="middle" x="564.3" y="-275.3" font-family="Times,serif" font-size="14.00">प्रतिपद्यते (12)</text>
</a>
</g>
</g>
<!-- 12&#45;&gt;8 -->
<g id="edge7" class="edge">
<title>12&#45;&gt;8</title>
<path fill="none" stroke="black" d="M520.82,-264.96C507.26,-259.56 492.85,-252.34 481.3,-243 472.98,-236.28 465.78,-227.08 460.11,-218.41"/>
<polygon fill="black" stroke="black" points="462.97,-216.39 454.77,-209.69 457,-220.05 462.97,-216.39"/>
<text text-anchor="middle" x="520.8" y="-231.8" font-family="Times,serif" font-size="14.00">कालाधिकरणम्</text>
</g>
<!-- 12&#45;&gt;10 -->
<g id="edge9" class="edge">
<title>12&#45;&gt;10</title>
<path fill="none" stroke="black" d="M564.3,-260.8C564.3,-249.16 564.3,-233.55 564.3,-220.24"/>
<polygon fill="black" stroke="black" points="567.8,-220.18 564.3,-210.18 560.8,-220.18 567.8,-220.18"/>
<text text-anchor="middle" x="574.3" y="-231.8" font-family="Times,serif" font-size="14.00">कर्म</text>
</g>
<!-- 12.1 -->
<g id="node13" class="node">
<title>12.1</title>
<g id="a_node13"><a xlink:title="(देह&#45;भृत्{पुं}{1;एक})">
<ellipse fill="#00bfff" stroke="#00bfff" cx="711.3" cy="-192" rx="73.39" ry="18"/>
<text text-anchor="middle" x="711.3" y="-188.3" font-family="Times,serif" font-size="14.00">(देह&#45;भृत्) (12.1)</text>
</a>
</g>
</g>
<!-- 12&#45;&gt;12.1 -->
<g id="edge11" class="edge">
<title>12&#45;&gt;12.1</title>
<path fill="none" stroke="black" d="M591.26,-262.41C614.84,-248.78 649.27,-228.87 675.22,-213.86"/>
<polygon fill="black" stroke="black" points="677.1,-216.82 684.01,-208.78 673.6,-210.76 677.1,-216.82"/>
<text text-anchor="middle" x="659.8" y="-231.8" font-family="Times,serif" font-size="14.00">कर्ता</text>
</g>
</g>
</svg>
