<?xml version="1.0" encoding="UTF-8" standalone="no"?>
<!DOCTYPE svg PUBLIC "-//W3C//DTD SVG 1.1//EN"
 "http://www.w3.org/Graphics/SVG/1.1/DTD/svg11.dtd">
<!-- Generated by graphviz version 2.43.0 (0)
 -->
<!-- Title: %3 Pages: 1 -->
<svg width="763pt" height="305pt"
 viewBox="0.00 0.00 763.14 305.00" xmlns="http://www.w3.org/2000/svg" xmlns:xlink="http://www.w3.org/1999/xlink">
<g id="graph0" class="graph" transform="scale(1 1) rotate(0) translate(4 301)">
<title>%3</title>
<polygon fill="#fffacd" stroke="transparent" points="-4,4 -4,-301 759.14,-301 759.14,4 -4,4"/>
<!-- 1 -->
<g id="node1" class="node">
<title>1</title>
<g id="a_node1"><a xlink:title="गुण{पुं}{2;बहु}">
<ellipse fill="#7cfc00" stroke="#7cfc00" cx="224.15" cy="-105" rx="46.29" ry="18"/>
<text text-anchor="middle" x="224.15" y="-101.3" font-family="Times,serif" font-size="14.00">गुणान् (1)</text>
</a>
</g>
</g>
<!-- 2 -->
<g id="node2" class="node">
<title>2</title>
<g id="a_node2"><a xlink:title="एतद्{पुं}{2;बहु}">
<ellipse fill="#7cfc00" stroke="#7cfc00" cx="46.15" cy="-18" rx="46.29" ry="18"/>
<text text-anchor="middle" x="46.15" y="-14.3" font-family="Times,serif" font-size="14.00">एतान् (2)</text>
</a>
</g>
</g>
<!-- 1&#45;&gt;2 -->
<g id="edge2" class="edge">
<title>1&#45;&gt;2</title>
<path fill="none" stroke="black" d="M189.59,-92.81C171.55,-86.56 149.31,-78.18 130.15,-69 112.1,-60.36 92.87,-49.08 77.36,-39.42"/>
<polygon fill="black" stroke="black" points="79.03,-36.33 68.7,-33.95 75.29,-42.24 79.03,-36.33"/>
<text text-anchor="middle" x="155.65" y="-57.8" font-family="Times,serif" font-size="14.00">विशेषणम्</text>
</g>
<!-- 4 -->
<g id="node4" class="node">
<title>4</title>
<g id="a_node4"><a xlink:title="त्रि{पुं}{2;बहु}">
<ellipse fill="#7cfc00" stroke="#7cfc00" cx="154.15" cy="-18" rx="44.39" ry="18"/>
<text text-anchor="middle" x="154.15" y="-14.3" font-family="Times,serif" font-size="14.00">त्रीन् (4)</text>
</a>
</g>
</g>
<!-- 1&#45;&gt;4 -->
<g id="edge4" class="edge">
<title>1&#45;&gt;4</title>
<path fill="none" stroke="black" d="M210.65,-87.61C200.29,-75.03 185.82,-57.46 174.12,-43.25"/>
<polygon fill="black" stroke="black" points="176.66,-40.83 167.6,-35.34 171.26,-45.28 176.66,-40.83"/>
<text text-anchor="middle" x="219.65" y="-57.8" font-family="Times,serif" font-size="14.00">विशेषणम्</text>
</g>
<!-- 6 -->
<g id="node6" class="node">
<title>6</title>
<g id="a_node6"><a xlink:title="देह&#45;समुद्भव{पुं}{2;बहु}">
<ellipse fill="#7cfc00" stroke="#7cfc00" cx="294.15" cy="-18" rx="77.19" ry="18"/>
<text text-anchor="middle" x="294.15" y="-14.3" font-family="Times,serif" font-size="14.00">देह&#45;समुद्भवान् (6)</text>
</a>
</g>
</g>
<!-- 1&#45;&gt;6 -->
<g id="edge7" class="edge">
<title>1&#45;&gt;6</title>
<path fill="none" stroke="black" d="M237.64,-87.61C247.87,-75.19 262.1,-57.91 273.72,-43.8"/>
<polygon fill="black" stroke="black" points="276.56,-45.86 280.21,-35.92 271.15,-41.41 276.56,-45.86"/>
<text text-anchor="middle" x="289.65" y="-57.8" font-family="Times,serif" font-size="14.00">विशेषणम्</text>
</g>
<!-- 3 -->
<g id="node3" class="node">
<title>3</title>
<g id="a_node3"><a xlink:title="अति_इ1{कृत्_प्रत्ययः:ल्यप्;अति_इ;अदादिः}">
<ellipse fill="#808080" stroke="#808080" cx="299.15" cy="-192" rx="52.79" ry="18"/>
<text text-anchor="middle" x="299.15" y="-188.3" font-family="Times,serif" font-size="14.00">अतीत्य (3)</text>
</a>
</g>
</g>
<!-- 3&#45;&gt;1 -->
<g id="edge1" class="edge">
<title>3&#45;&gt;1</title>
<path fill="none" stroke="black" d="M284.69,-174.61C273.48,-161.91 257.79,-144.13 245.2,-129.86"/>
<polygon fill="black" stroke="black" points="247.8,-127.52 238.56,-122.34 242.55,-132.15 247.8,-127.52"/>
<text text-anchor="middle" x="276.15" y="-144.8" font-family="Times,serif" font-size="14.00">कर्म</text>
</g>
<!-- 5 -->
<g id="node5" class="node">
<title>5</title>
<g id="a_node5"><a xlink:title="देहिन्{पुं}{1;एक}">
<ellipse fill="#00bfff" stroke="#00bfff" cx="388.15" cy="-105" rx="39.79" ry="18"/>
<text text-anchor="middle" x="388.15" y="-101.3" font-family="Times,serif" font-size="14.00">देही (5)</text>
</a>
</g>
</g>
<!-- 3&#45;&gt;5 -->
<g id="edge6" class="edge">
<title>3&#45;&gt;5</title>
<path fill="none" stroke="black" stroke-dasharray="1,5" d="M315.14,-174.56C324.85,-164.7 337.56,-151.98 349.15,-141 353.55,-136.83 358.3,-132.46 362.92,-128.28"/>
<polygon fill="black" stroke="black" points="365.39,-130.77 370.49,-121.48 360.71,-125.56 365.39,-130.77"/>
<text text-anchor="middle" x="361.65" y="-144.8" font-family="Times,serif" font-size="14.00">कर्ता</text>
</g>
<!-- 8 -->
<g id="node8" class="node">
<title>8</title>
<g id="a_node8"><a xlink:title="वि_मुच्1{कृत्_प्रत्ययः:क्त;वि_मुचॢँ;तुदादिः;पुं}{1;एक}">
<ellipse fill="#00bfff" stroke="#00bfff" cx="448.15" cy="-18" rx="58.49" ry="18"/>
<text text-anchor="middle" x="448.15" y="-14.3" font-family="Times,serif" font-size="14.00">वि&#45;मुक्तः (8)</text>
</a>
</g>
</g>
<!-- 5&#45;&gt;8 -->
<g id="edge9" class="edge">
<title>5&#45;&gt;8</title>
<path fill="none" stroke="black" d="M399.71,-87.61C408.4,-75.31 420.45,-58.23 430.36,-44.2"/>
<polygon fill="black" stroke="black" points="433.29,-46.11 436.2,-35.92 427.58,-42.07 433.29,-46.11"/>
<text text-anchor="middle" x="447.65" y="-57.8" font-family="Times,serif" font-size="14.00">विशेषणम्</text>
</g>
<!-- 7 -->
<g id="node7" class="node">
<title>7</title>
<g id="a_node7"><a xlink:title="जन्मन्&#45;मृत्यु&#45;जरा&#45;दुःख{नपुं}{3;बहु}">
<ellipse fill="#40e0d0" stroke="#40e0d0" cx="532.15" cy="-192" rx="101.28" ry="18"/>
<text text-anchor="middle" x="532.15" y="-188.3" font-family="Times,serif" font-size="14.00">जन्म&#45;मृत्यु&#45;जरा&#45;दुःखैः (7)</text>
</a>
</g>
</g>
<!-- 9 -->
<g id="node9" class="node">
<title>9</title>
<g id="a_node9"><a xlink:title="अमृत{नपुं}{2;एक}">
<ellipse fill="#7cfc00" stroke="#7cfc00" cx="703.15" cy="-192" rx="51.99" ry="18"/>
<text text-anchor="middle" x="703.15" y="-188.3" font-family="Times,serif" font-size="14.00">अमृतम् (9)</text>
</a>
</g>
</g>
<!-- 10 -->
<g id="node10" class="node">
<title>10</title>
<g id="a_node10"><a xlink:title="अश्1{कर्तरि;लट्;प्र;एक;आत्मनेपदी;अशूँ;स्वादिः}">
<ellipse fill="#ff6347" stroke="#ff6347" cx="460.15" cy="-279" rx="56.59" ry="18"/>
<text text-anchor="middle" x="460.15" y="-275.3" font-family="Times,serif" font-size="14.00">अश्नुते (10)</text>
</a>
</g>
</g>
<!-- 10&#45;&gt;3 -->
<g id="edge3" class="edge">
<title>10&#45;&gt;3</title>
<path fill="none" stroke="black" d="M405.57,-274.19C378.96,-269.92 347.87,-261.1 325.15,-243 317.58,-236.98 311.98,-228.16 307.96,-219.59"/>
<polygon fill="black" stroke="black" points="311.13,-218.09 304.07,-210.2 304.66,-220.77 311.13,-218.09"/>
<text text-anchor="middle" x="349.65" y="-231.8" font-family="Times,serif" font-size="14.00">पूर्वकालः</text>
</g>
<!-- 10&#45;&gt;5 -->
<g id="edge5" class="edge">
<title>10&#45;&gt;5</title>
<path fill="none" stroke="black" d="M439.3,-261.99C424.77,-249.53 406.4,-230.9 397.15,-210 386.35,-185.62 384.99,-154.91 385.79,-133.2"/>
<polygon fill="black" stroke="black" points="389.29,-133.21 386.34,-123.04 382.3,-132.83 389.29,-133.21"/>
<text text-anchor="middle" x="409.65" y="-188.3" font-family="Times,serif" font-size="14.00">कर्ता</text>
</g>
<!-- 10&#45;&gt;7 -->
<g id="edge8" class="edge">
<title>10&#45;&gt;7</title>
<path fill="none" stroke="black" d="M474.37,-261.21C484.85,-248.83 499.28,-231.8 511.1,-217.85"/>
<polygon fill="black" stroke="black" points="513.91,-219.94 517.7,-210.05 508.57,-215.42 513.91,-219.94"/>
<text text-anchor="middle" x="512.65" y="-231.8" font-family="Times,serif" font-size="14.00">हेतुः</text>
</g>
<!-- 10&#45;&gt;9 -->
<g id="edge10" class="edge">
<title>10&#45;&gt;9</title>
<path fill="none" stroke="black" d="M496.79,-265.18C539.99,-250.07 611.77,-224.96 658.27,-208.7"/>
<polygon fill="black" stroke="black" points="659.5,-211.97 667.79,-205.37 657.19,-205.37 659.5,-211.97"/>
<text text-anchor="middle" x="607.15" y="-231.8" font-family="Times,serif" font-size="14.00">कर्म</text>
</g>
</g>
</svg>
