<?xml version="1.0" encoding="UTF-8" standalone="no"?>
<!DOCTYPE svg PUBLIC "-//W3C//DTD SVG 1.1//EN"
 "http://www.w3.org/Graphics/SVG/1.1/DTD/svg11.dtd">
<!-- Generated by graphviz version 2.43.0 (0)
 -->
<!-- Title: %3 Pages: 1 -->
<svg width="1069pt" height="305pt"
 viewBox="0.00 0.00 1069.14 305.00" xmlns="http://www.w3.org/2000/svg" xmlns:xlink="http://www.w3.org/1999/xlink">
<g id="graph0" class="graph" transform="scale(1 1) rotate(0) translate(4 301)">
<title>%3</title>
<polygon fill="#fffacd" stroke="transparent" points="-4,4 -4,-301 1065.14,-301 1065.14,4 -4,4"/>
<!-- 1 -->
<g id="node1" class="node">
<title>1</title>
<g id="a_node1"><a xlink:title="उदासीनवत्{अव्य}">
<ellipse fill="#ff00ff" stroke="#ff00ff" cx="139.25" cy="-18" rx="64.99" ry="18"/>
<text text-anchor="middle" x="139.25" y="-14.3" font-family="Times,serif" font-size="14.00">उदासीनवत् (1)</text>
</a>
</g>
</g>
<!-- 2 -->
<g id="node2" class="node">
<title>2</title>
<g id="a_node2"><a xlink:title="आस्1{कृत्_प्रत्ययः:शानच्;आसँ;अदादिः;पुं}{1;एक}">
<ellipse fill="#00bfff" stroke="#00bfff" cx="139.25" cy="-105" rx="52.79" ry="18"/>
<text text-anchor="middle" x="139.25" y="-101.3" font-family="Times,serif" font-size="14.00">आसीनः (2)</text>
</a>
</g>
</g>
<!-- 2&#45;&gt;1 -->
<g id="edge1" class="edge">
<title>2&#45;&gt;1</title>
<path fill="none" stroke="black" d="M139.25,-86.8C139.25,-75.16 139.25,-59.55 139.25,-46.24"/>
<polygon fill="black" stroke="black" points="142.75,-46.18 139.25,-36.18 135.75,-46.18 142.75,-46.18"/>
<text text-anchor="middle" x="181.75" y="-57.8" font-family="Times,serif" font-size="14.00">क्रियाविशेषणम्</text>
</g>
<!-- 3 -->
<g id="node3" class="node">
<title>3</title>
<g id="a_node3"><a xlink:title="गुण{पुं}{3;बहु}">
<ellipse fill="#40e0d0" stroke="#40e0d0" cx="42.25" cy="-192" rx="42.49" ry="18"/>
<text text-anchor="middle" x="42.25" y="-188.3" font-family="Times,serif" font-size="14.00">गुणैः (3)</text>
</a>
</g>
</g>
<!-- 4 -->
<g id="node4" class="node">
<title>4</title>
<g id="a_node4"><a xlink:title="यद्{पुं}{1;एक}">
<ellipse fill="#00bfff" stroke="#00bfff" cx="139.25" cy="-192" rx="36.29" ry="18"/>
<text text-anchor="middle" x="139.25" y="-188.3" font-family="Times,serif" font-size="14.00">यः (4)</text>
</a>
</g>
</g>
<!-- 4&#45;&gt;2 -->
<g id="edge2" class="edge">
<title>4&#45;&gt;2</title>
<path fill="none" stroke="black" d="M139.25,-173.8C139.25,-162.16 139.25,-146.55 139.25,-133.24"/>
<polygon fill="black" stroke="black" points="142.75,-133.18 139.25,-123.18 135.75,-133.18 142.75,-133.18"/>
<text text-anchor="middle" x="164.75" y="-144.8" font-family="Times,serif" font-size="14.00">विशेषणम्</text>
</g>
<!-- 5 -->
<g id="node5" class="node">
<title>5</title>
<g id="a_node5"><a xlink:title="न{अव्य}">
<ellipse fill="#ff00ff" stroke="#ff00ff" cx="226.25" cy="-192" rx="32.49" ry="18"/>
<text text-anchor="middle" x="226.25" y="-188.3" font-family="Times,serif" font-size="14.00">न (5)</text>
</a>
</g>
</g>
<!-- 6 -->
<g id="node6" class="node">
<title>6</title>
<g id="a_node6"><a xlink:title="वि_चल्1_णिच्{कर्तरि;लट्;प्र;एक;आत्मनेपदी;वि_चलँ_णिच्;भ्वादिः}">
<ellipse fill="#ff6347" stroke="#ff6347" cx="139.25" cy="-279" rx="60.39" ry="18"/>
<text text-anchor="middle" x="139.25" y="-275.3" font-family="Times,serif" font-size="14.00">विचाल्यते (6)</text>
</a>
</g>
</g>
<!-- 6&#45;&gt;3 -->
<g id="edge3" class="edge">
<title>6&#45;&gt;3</title>
<path fill="none" stroke="black" d="M120.54,-261.61C105.5,-248.43 84.21,-229.77 67.63,-215.24"/>
<polygon fill="black" stroke="black" points="69.74,-212.44 59.91,-208.48 65.12,-217.7 69.74,-212.44"/>
<text text-anchor="middle" x="109.75" y="-231.8" font-family="Times,serif" font-size="14.00">कर्ता</text>
</g>
<!-- 6&#45;&gt;4 -->
<g id="edge4" class="edge">
<title>6&#45;&gt;4</title>
<path fill="none" stroke="black" d="M139.25,-260.8C139.25,-249.16 139.25,-233.55 139.25,-220.24"/>
<polygon fill="black" stroke="black" points="142.75,-220.18 139.25,-210.18 135.75,-220.18 142.75,-220.18"/>
<text text-anchor="middle" x="149.25" y="-231.8" font-family="Times,serif" font-size="14.00">कर्म</text>
</g>
<!-- 6&#45;&gt;5 -->
<g id="edge5" class="edge">
<title>6&#45;&gt;5</title>
<path fill="none" stroke="black" d="M156.02,-261.61C169.56,-248.38 188.74,-229.64 203.63,-215.09"/>
<polygon fill="black" stroke="black" points="206.27,-217.41 210.98,-207.92 201.38,-212.4 206.27,-217.41"/>
<text text-anchor="middle" x="214.25" y="-231.8" font-family="Times,serif" font-size="14.00">प्रतिषेधः</text>
</g>
<!-- 7 -->
<g id="node7" class="node">
<title>7</title>
<g id="a_node7"><a xlink:title="गुण{पुं}{1;बहु}">
<ellipse fill="#00bfff" stroke="#00bfff" cx="321.25" cy="-192" rx="44.69" ry="18"/>
<text text-anchor="middle" x="321.25" y="-188.3" font-family="Times,serif" font-size="14.00">गुणाः (7)</text>
</a>
</g>
</g>
<!-- 8 -->
<g id="node8" class="node">
<title>8</title>
<g id="a_node8"><a xlink:title="वृत्1{कर्तरि;लट्;प्र;बहु;आत्मनेपदी;वृतुँ;भ्वादिः}">
<ellipse fill="#ff6347" stroke="#ff6347" cx="321.25" cy="-279" rx="47.39" ry="18"/>
<text text-anchor="middle" x="321.25" y="-275.3" font-family="Times,serif" font-size="14.00">वर्तन्ते (8)</text>
</a>
</g>
</g>
<!-- 8&#45;&gt;7 -->
<g id="edge6" class="edge">
<title>8&#45;&gt;7</title>
<path fill="none" stroke="black" d="M321.25,-260.8C321.25,-249.16 321.25,-233.55 321.25,-220.24"/>
<polygon fill="black" stroke="black" points="324.75,-220.18 321.25,-210.18 317.75,-220.18 324.75,-220.18"/>
<text text-anchor="middle" x="333.75" y="-231.8" font-family="Times,serif" font-size="14.00">कर्ता</text>
</g>
<!-- 9 -->
<g id="node9" class="node">
<title>9</title>
<g id="a_node9"><a xlink:title="इति{अव्य}">
<ellipse fill="#ff00ff" stroke="#ff00ff" cx="427.25" cy="-279" rx="40.09" ry="18"/>
<text text-anchor="middle" x="427.25" y="-275.3" font-family="Times,serif" font-size="14.00">इति (9)</text>
</a>
</g>
</g>
<!-- 10 -->
<g id="node10" class="node">
<title>10</title>
<g id="a_node10"><a xlink:title="एव{अव्य}">
<ellipse fill="#ff00ff" stroke="#ff00ff" cx="529.25" cy="-279" rx="43.59" ry="18"/>
<text text-anchor="middle" x="529.25" y="-275.3" font-family="Times,serif" font-size="14.00">एव (10)</text>
</a>
</g>
</g>
<!-- 11 -->
<g id="node11" class="node">
<title>11</title>
<g id="a_node11"><a xlink:title="यद्{पुं}{1;एक}">
<ellipse fill="#00bfff" stroke="#00bfff" cx="633.25" cy="-279" rx="42.49" ry="18"/>
<text text-anchor="middle" x="633.25" y="-275.3" font-family="Times,serif" font-size="14.00">यः (11)</text>
</a>
</g>
</g>
<!-- 12 -->
<g id="node12" class="node">
<title>12</title>
<g id="a_node12"><a xlink:title="अव_स्था1{कर्तरि;लट्;प्र;एक;परस्मैपदी;अव_ष्ठा;भ्वादिः}">
<ellipse fill="#ff6347" stroke="#ff6347" cx="765.25" cy="-279" rx="71.49" ry="18"/>
<text text-anchor="middle" x="765.25" y="-275.3" font-family="Times,serif" font-size="14.00">अवतिष्ठति (12)</text>
</a>
</g>
</g>
<!-- 13 -->
<g id="node13" class="node">
<title>13</title>
<g id="a_node13"><a xlink:title="न{अव्य}">
<ellipse fill="#ff00ff" stroke="#ff00ff" cx="893.25" cy="-279" rx="38.19" ry="18"/>
<text text-anchor="middle" x="893.25" y="-275.3" font-family="Times,serif" font-size="14.00">न (13)</text>
</a>
</g>
</g>
<!-- 14 -->
<g id="node14" class="node">
<title>14</title>
<g id="a_node14"><a xlink:title="इङ्ग्1{कर्तरि;लट्;प्र;एक;आत्मनेपदी;इगिँ;भ्वादिः}">
<ellipse fill="#ff6347" stroke="#ff6347" cx="1005.25" cy="-279" rx="55.79" ry="18"/>
<text text-anchor="middle" x="1005.25" y="-275.3" font-family="Times,serif" font-size="14.00">इङ्गते (14)</text>
</a>
</g>
</g>
</g>
</svg>
