<?xml version="1.0" encoding="UTF-8" standalone="no"?>
<!DOCTYPE svg PUBLIC "-//W3C//DTD SVG 1.1//EN"
 "http://www.w3.org/Graphics/SVG/1.1/DTD/svg11.dtd">
<!-- Generated by graphviz version 2.43.0 (0)
 -->
<!-- Title: %3 Pages: 1 -->
<svg width="627pt" height="305pt"
 viewBox="0.00 0.00 627.04 305.00" xmlns="http://www.w3.org/2000/svg" xmlns:xlink="http://www.w3.org/1999/xlink">
<g id="graph0" class="graph" transform="scale(1 1) rotate(0) translate(4 301)">
<title>%3</title>
<polygon fill="#fffacd" stroke="transparent" points="-4,4 -4,-301 623.04,-301 623.04,4 -4,4"/>
<!-- 1 -->
<g id="node1" class="node">
<title>1</title>
<g id="a_node1"><a xlink:title="सत्त्व{नपुं}{1;एक}">
<ellipse fill="#00bfff" stroke="#00bfff" cx="51.35" cy="-279" rx="51.19" ry="18"/>
<text text-anchor="middle" x="51.35" y="-275.3" font-family="Times,serif" font-size="14.00">सत्त्वम् (1)</text>
</a>
</g>
</g>
<!-- 2 -->
<g id="node2" class="node">
<title>2</title>
<g id="a_node2"><a xlink:title="रजस्{नपुं}{1;एक}">
<ellipse fill="#00bfff" stroke="#00bfff" cx="161.35" cy="-279" rx="40.89" ry="18"/>
<text text-anchor="middle" x="161.35" y="-275.3" font-family="Times,serif" font-size="14.00">रजः (2)</text>
</a>
</g>
</g>
<!-- 3 -->
<g id="node3" class="node">
<title>3</title>
<g id="a_node3"><a xlink:title="तमस्{नपुं}{1;एक}">
<ellipse fill="#00bfff" stroke="#00bfff" cx="262.35" cy="-279" rx="41.69" ry="18"/>
<text text-anchor="middle" x="262.35" y="-275.3" font-family="Times,serif" font-size="14.00">तमः (3)</text>
</a>
</g>
</g>
<!-- 4 -->
<g id="node4" class="node">
<title>4</title>
<g id="a_node4"><a xlink:title="इति{अव्य}">
<ellipse fill="#ff00ff" stroke="#ff00ff" cx="197.35" cy="-18" rx="40.09" ry="18"/>
<text text-anchor="middle" x="197.35" y="-14.3" font-family="Times,serif" font-size="14.00">इति (4)</text>
</a>
</g>
</g>
<!-- 5 -->
<g id="node5" class="node">
<title>5</title>
<g id="a_node5"><a xlink:title="गुण{पुं}{1;बहु}">
<ellipse fill="#00bfff" stroke="#00bfff" cx="197.35" cy="-192" rx="44.69" ry="18"/>
<text text-anchor="middle" x="197.35" y="-188.3" font-family="Times,serif" font-size="14.00">गुणाः (5)</text>
</a>
</g>
</g>
<!-- 6 -->
<g id="node6" class="node">
<title>6</title>
<g id="a_node6"><a xlink:title="प्रकृति&#45;सम्भव{पुं}{1;बहु}">
<ellipse fill="#00bfff" stroke="#00bfff" cx="197.35" cy="-105" rx="81.79" ry="18"/>
<text text-anchor="middle" x="197.35" y="-101.3" font-family="Times,serif" font-size="14.00">प्रकृति&#45;सम्भवाः (6)</text>
</a>
</g>
</g>
<!-- 5&#45;&gt;6 -->
<g id="edge3" class="edge">
<title>5&#45;&gt;6</title>
<path fill="none" stroke="black" d="M197.35,-173.8C197.35,-162.16 197.35,-146.55 197.35,-133.24"/>
<polygon fill="black" stroke="black" points="200.85,-133.18 197.35,-123.18 193.85,-133.18 200.85,-133.18"/>
<text text-anchor="middle" x="222.85" y="-144.8" font-family="Times,serif" font-size="14.00">विशेषणम्</text>
</g>
<!-- 6&#45;&gt;4 -->
<g id="edge1" class="edge">
<title>6&#45;&gt;4</title>
<path fill="none" stroke="black" d="M197.35,-86.8C197.35,-75.16 197.35,-59.55 197.35,-46.24"/>
<polygon fill="black" stroke="black" points="200.85,-46.18 197.35,-36.18 193.85,-46.18 200.85,-46.18"/>
<text text-anchor="middle" x="220.35" y="-57.8" font-family="Times,serif" font-size="14.00">सम्बन्धः</text>
</g>
<!-- 7 -->
<g id="node7" class="node">
<title>7</title>
<g id="a_node7"><a xlink:title="नि_बन्ध्1{कर्तरि;लट्;प्र;बहु;परस्मैपदी;नि_बन्धँ;क्र्यादिः}">
<ellipse fill="#ff6347" stroke="#ff6347" cx="383.35" cy="-279" rx="61.99" ry="18"/>
<text text-anchor="middle" x="383.35" y="-275.3" font-family="Times,serif" font-size="14.00">निबध्नन्ति (7)</text>
</a>
</g>
</g>
<!-- 7&#45;&gt;5 -->
<g id="edge2" class="edge">
<title>7&#45;&gt;5</title>
<path fill="none" stroke="black" d="M351.37,-263.39C319.09,-248.64 269.25,-225.86 235.06,-210.23"/>
<polygon fill="black" stroke="black" points="236.41,-207 225.86,-206.03 233.5,-213.37 236.41,-207"/>
<text text-anchor="middle" x="314.85" y="-231.8" font-family="Times,serif" font-size="14.00">कर्ता</text>
</g>
<!-- 8 -->
<g id="node8" class="node">
<title>8</title>
<g id="a_node8"><a xlink:title="महाबाहु{पुं}{8;एक}">
<ellipse fill="#7fffd4" stroke="#7fffd4" cx="324.35" cy="-192" rx="63.89" ry="18"/>
<text text-anchor="middle" x="324.35" y="-188.3" font-family="Times,serif" font-size="14.00">महान्&#45;बाहो (8)</text>
</a>
</g>
</g>
<!-- 7&#45;&gt;8 -->
<g id="edge4" class="edge">
<title>7&#45;&gt;8</title>
<path fill="none" stroke="black" d="M371.69,-261.21C363.2,-248.98 351.56,-232.21 341.95,-218.36"/>
<polygon fill="black" stroke="black" points="344.56,-215.98 335.98,-209.76 338.8,-219.97 344.56,-215.98"/>
<text text-anchor="middle" x="383.85" y="-231.8" font-family="Times,serif" font-size="14.00">सम्बोध्यः</text>
</g>
<!-- 9 -->
<g id="node9" class="node">
<title>9</title>
<g id="a_node9"><a xlink:title="देह{नपुं}{7;एक}">
<ellipse fill="#708090" stroke="#708090" cx="443.35" cy="-192" rx="37.09" ry="18"/>
<text text-anchor="middle" x="443.35" y="-188.3" font-family="Times,serif" font-size="14.00">देहे (9)</text>
</a>
</g>
</g>
<!-- 7&#45;&gt;9 -->
<g id="edge5" class="edge">
<title>7&#45;&gt;9</title>
<path fill="none" stroke="black" d="M398.59,-261.38C403.51,-255.71 408.85,-249.23 413.35,-243 418.94,-235.24 424.49,-226.4 429.26,-218.34"/>
<polygon fill="black" stroke="black" points="432.31,-220.06 434.29,-209.66 426.25,-216.56 432.31,-220.06"/>
<text text-anchor="middle" x="453.85" y="-231.8" font-family="Times,serif" font-size="14.00">अधिकरणम्</text>
</g>
<!-- 10 -->
<g id="node10" class="node">
<title>10</title>
<g id="a_node10"><a xlink:title="देहिन्{पुं}{2;एक}">
<ellipse fill="#7cfc00" stroke="#7cfc00" cx="555.35" cy="-192" rx="57.39" ry="18"/>
<text text-anchor="middle" x="555.35" y="-188.3" font-family="Times,serif" font-size="14.00">देहिनम् (10)</text>
</a>
</g>
</g>
<!-- 7&#45;&gt;10 -->
<g id="edge6" class="edge">
<title>7&#45;&gt;10</title>
<path fill="none" stroke="black" d="M428.05,-266.54C447.19,-260.77 469.44,-252.88 488.35,-243 502.77,-235.46 517.41,-224.94 529.31,-215.49"/>
<polygon fill="black" stroke="black" points="531.53,-218.19 537.08,-209.16 527.11,-212.76 531.53,-218.19"/>
<text text-anchor="middle" x="522.35" y="-231.8" font-family="Times,serif" font-size="14.00">कर्म</text>
</g>
<!-- 11 -->
<g id="node11" class="node">
<title>11</title>
<g id="a_node11"><a xlink:title="अव्यय{पुं}{2;एक}">
<ellipse fill="#7cfc00" stroke="#7cfc00" cx="555.35" cy="-105" rx="63.89" ry="18"/>
<text text-anchor="middle" x="555.35" y="-101.3" font-family="Times,serif" font-size="14.00">अ&#45;व्ययम् (11)</text>
</a>
</g>
</g>
<!-- 10&#45;&gt;11 -->
<g id="edge7" class="edge">
<title>10&#45;&gt;11</title>
<path fill="none" stroke="black" d="M555.35,-173.8C555.35,-162.16 555.35,-146.55 555.35,-133.24"/>
<polygon fill="black" stroke="black" points="558.85,-133.18 555.35,-123.18 551.85,-133.18 558.85,-133.18"/>
<text text-anchor="middle" x="580.85" y="-144.8" font-family="Times,serif" font-size="14.00">विशेषणम्</text>
</g>
</g>
</svg>
