<?xml version="1.0" encoding="UTF-8" standalone="no"?>
<!DOCTYPE svg PUBLIC "-//W3C//DTD SVG 1.1//EN"
 "http://www.w3.org/Graphics/SVG/1.1/DTD/svg11.dtd">
<!-- Generated by graphviz version 2.43.0 (0)
 -->
<!-- Title: %3 Pages: 1 -->
<svg width="1156pt" height="218pt"
 viewBox="0.00 0.00 1156.25 218.00" xmlns="http://www.w3.org/2000/svg" xmlns:xlink="http://www.w3.org/1999/xlink">
<g id="graph0" class="graph" transform="scale(1 1) rotate(0) translate(4 214)">
<title>%3</title>
<polygon fill="#fffacd" stroke="transparent" points="-4,4 -4,-214 1152.25,-214 1152.25,4 -4,4"/>
<!-- 1 -->
<g id="node1" class="node">
<title>1</title>
<g id="a_node1"><a xlink:title="तत्र{अव्य}">
<ellipse fill="#ff00ff" stroke="#ff00ff" cx="42.25" cy="-105" rx="42.49" ry="18"/>
<text text-anchor="middle" x="42.25" y="-101.3" font-family="Times,serif" font-size="14.00">तत्र (1)</text>
</a>
</g>
</g>
<!-- 2 -->
<g id="node2" class="node">
<title>2</title>
<g id="a_node2"><a xlink:title="सत्त्व{नपुं}{1;एक}">
<ellipse fill="#00bfff" stroke="#00bfff" cx="154.25" cy="-105" rx="51.19" ry="18"/>
<text text-anchor="middle" x="154.25" y="-101.3" font-family="Times,serif" font-size="14.00">सत्त्वम् (2)</text>
</a>
</g>
</g>
<!-- 3 -->
<g id="node3" class="node">
<title>3</title>
<g id="a_node3"><a xlink:title="निर्&#45;मलत्व{नपुं}{5;एक}">
<ellipse fill="#90ee90" stroke="#90ee90" cx="295.25" cy="-105" rx="71.49" ry="18"/>
<text text-anchor="middle" x="295.25" y="-101.3" font-family="Times,serif" font-size="14.00">निर्&#45;मलत्वात् (3)</text>
</a>
</g>
</g>
<!-- 4 -->
<g id="node4" class="node">
<title>4</title>
<g id="a_node4"><a xlink:title="प्रकाशक{नपुं}{1;एक}">
<ellipse fill="#00bfff" stroke="#00bfff" cx="693.25" cy="-18" rx="64.19" ry="18"/>
<text text-anchor="middle" x="693.25" y="-14.3" font-family="Times,serif" font-size="14.00">प्रकाशकम् (4)</text>
</a>
</g>
</g>
<!-- 5 -->
<g id="node5" class="node">
<title>5</title>
<g id="a_node5"><a xlink:title="अनामय{नपुं}{1;एक}">
<ellipse fill="#00bfff" stroke="#00bfff" cx="759.25" cy="-105" rx="69.59" ry="18"/>
<text text-anchor="middle" x="759.25" y="-101.3" font-family="Times,serif" font-size="14.00">अन्&#45;आमयम् (5)</text>
</a>
</g>
</g>
<!-- 5&#45;&gt;4 -->
<g id="edge4" class="edge">
<title>5&#45;&gt;4</title>
<path fill="none" stroke="black" d="M730.31,-88.44C722.59,-83.14 714.84,-76.59 709.25,-69 704.23,-62.19 700.75,-53.74 698.35,-45.75"/>
<polygon fill="black" stroke="black" points="701.72,-44.83 695.85,-36.01 694.94,-46.57 701.72,-44.83"/>
<text text-anchor="middle" x="746.75" y="-57.8" font-family="Times,serif" font-size="14.00">सुप्समुच्चितम्</text>
</g>
<!-- 5.1 -->
<g id="node6" class="node">
<title>5.1</title>
<g id="a_node6"><a xlink:title="(च{अव्य})">
<ellipse fill="#ff00ff" stroke="#ff00ff" cx="824.25" cy="-18" rx="48.99" ry="18"/>
<text text-anchor="middle" x="824.25" y="-14.3" font-family="Times,serif" font-size="14.00">(च) (5.1)</text>
</a>
</g>
</g>
<!-- 5&#45;&gt;5.1 -->
<g id="edge6" class="edge">
<title>5&#45;&gt;5.1</title>
<path fill="none" stroke="black" d="M772.09,-87.21C781.59,-74.79 794.67,-57.67 805.36,-43.7"/>
<polygon fill="black" stroke="black" points="808.36,-45.54 811.65,-35.47 802.8,-41.29 808.36,-45.54"/>
<text text-anchor="middle" x="838.75" y="-57.8" font-family="Times,serif" font-size="14.00">समुच्चयद्योतकः</text>
</g>
<!-- 5.2 -->
<g id="node7" class="node">
<title>5.2</title>
<g id="a_node7"><a xlink:title="(अस्2{कर्तरि;लट्;प्र;एक;परस्मैपदी;असँ;अदादिः})">
<ellipse fill="#ff6347" stroke="#ff6347" cx="759.25" cy="-192" rx="63.09" ry="18"/>
<text text-anchor="middle" x="759.25" y="-188.3" font-family="Times,serif" font-size="14.00">(अस्ति) (5.2)</text>
</a>
</g>
</g>
<!-- 5.2&#45;&gt;5 -->
<g id="edge5" class="edge">
<title>5.2&#45;&gt;5</title>
<path fill="none" stroke="black" d="M759.25,-173.8C759.25,-162.16 759.25,-146.55 759.25,-133.24"/>
<polygon fill="black" stroke="black" points="762.75,-133.18 759.25,-123.18 755.75,-133.18 762.75,-133.18"/>
<text text-anchor="middle" x="811.25" y="-144.8" font-family="Times,serif" font-size="14.00">कर्तृसमानाधिकरणम्</text>
</g>
<!-- 6 -->
<g id="node8" class="node">
<title>6</title>
<g id="a_node8"><a xlink:title="सुख&#45;सङ्ग{पुं}{3;एक}">
<ellipse fill="#40e0d0" stroke="#40e0d0" cx="1024.25" cy="-192" rx="69.59" ry="18"/>
<text text-anchor="middle" x="1024.25" y="-188.3" font-family="Times,serif" font-size="14.00">सुख&#45;सङ्गेन (6)</text>
</a>
</g>
</g>
<!-- 8 -->
<g id="node10" class="node">
<title>8</title>
<g id="a_node10"><a xlink:title="ज्ञान&#45;सङ्ग{पुं}{3;एक}">
<ellipse fill="#40e0d0" stroke="#40e0d0" cx="916.25" cy="-105" rx="69.59" ry="18"/>
<text text-anchor="middle" x="916.25" y="-101.3" font-family="Times,serif" font-size="14.00">ज्ञान&#45;सङ्गेन (8)</text>
</a>
</g>
</g>
<!-- 6&#45;&gt;8 -->
<g id="edge8" class="edge">
<title>6&#45;&gt;8</title>
<path fill="none" stroke="black" d="M968.19,-181.21C953.02,-176.03 937.88,-168.11 927.25,-156 921.72,-149.71 918.77,-141.27 917.25,-133.13"/>
<polygon fill="black" stroke="black" points="920.72,-132.63 916.01,-123.15 913.77,-133.5 920.72,-132.63"/>
<text text-anchor="middle" x="969.75" y="-144.8" font-family="Times,serif" font-size="14.00">सुप्_समुच्चितम्</text>
</g>
<!-- 9 -->
<g id="node11" class="node">
<title>9</title>
<g id="a_node11"><a xlink:title="च{अव्य}">
<ellipse fill="#ff00ff" stroke="#ff00ff" cx="1085.25" cy="-105" rx="33.29" ry="18"/>
<text text-anchor="middle" x="1085.25" y="-101.3" font-family="Times,serif" font-size="14.00">च (9)</text>
</a>
</g>
</g>
<!-- 6&#45;&gt;9 -->
<g id="edge9" class="edge">
<title>6&#45;&gt;9</title>
<path fill="none" stroke="black" d="M1018.59,-173.65C1016.34,-163.47 1015.48,-150.72 1021.25,-141 1027.13,-131.08 1036.93,-123.78 1047.12,-118.5"/>
<polygon fill="black" stroke="black" points="1048.85,-121.56 1056.48,-114.21 1045.93,-115.2 1048.85,-121.56"/>
<text text-anchor="middle" x="1063.75" y="-144.8" font-family="Times,serif" font-size="14.00">समुच्चयद्योतकः</text>
</g>
<!-- 7 -->
<g id="node9" class="node">
<title>7</title>
<g id="a_node9"><a xlink:title="बन्ध्1{कर्तरि;लट्;प्र;एक;परस्मैपदी;बन्धँ;क्र्यादिः}">
<ellipse fill="#ff6347" stroke="#ff6347" cx="295.25" cy="-192" rx="53.89" ry="18"/>
<text text-anchor="middle" x="295.25" y="-188.3" font-family="Times,serif" font-size="14.00">बध्नाति (7)</text>
</a>
</g>
</g>
<!-- 7&#45;&gt;1 -->
<g id="edge1" class="edge">
<title>7&#45;&gt;1</title>
<path fill="none" stroke="black" d="M249.86,-182.16C221.43,-176.07 184.25,-167.08 152.25,-156 126.34,-147.03 98.23,-134.19 76.9,-123.77"/>
<polygon fill="black" stroke="black" points="78.43,-120.62 67.91,-119.32 75.32,-126.89 78.43,-120.62"/>
<text text-anchor="middle" x="182.75" y="-144.8" font-family="Times,serif" font-size="14.00">अधिकरणम्</text>
</g>
<!-- 7&#45;&gt;2 -->
<g id="edge2" class="edge">
<title>7&#45;&gt;2</title>
<path fill="none" stroke="black" d="M270.36,-176C247.31,-162.1 212.85,-141.33 187.45,-126.02"/>
<polygon fill="black" stroke="black" points="189.25,-123.02 178.88,-120.85 185.64,-129.01 189.25,-123.02"/>
<text text-anchor="middle" x="245.75" y="-144.8" font-family="Times,serif" font-size="14.00">कर्ता</text>
</g>
<!-- 7&#45;&gt;3 -->
<g id="edge3" class="edge">
<title>7&#45;&gt;3</title>
<path fill="none" stroke="black" d="M295.25,-173.8C295.25,-162.16 295.25,-146.55 295.25,-133.24"/>
<polygon fill="black" stroke="black" points="298.75,-133.18 295.25,-123.18 291.75,-133.18 298.75,-133.18"/>
<text text-anchor="middle" x="306.75" y="-144.8" font-family="Times,serif" font-size="14.00">हेतुः</text>
</g>
<!-- 10 -->
<g id="node12" class="node">
<title>10</title>
<g id="a_node12"><a xlink:title="अनघ{पुं}{8;एक}">
<ellipse fill="#7fffd4" stroke="#7fffd4" cx="446.25" cy="-105" rx="61.99" ry="18"/>
<text text-anchor="middle" x="446.25" y="-101.3" font-family="Times,serif" font-size="14.00">अन्&#45;अघ (10)</text>
</a>
</g>
</g>
<!-- 7&#45;&gt;10 -->
<g id="edge10" class="edge">
<title>7&#45;&gt;10</title>
<path fill="none" stroke="black" d="M321.55,-176.19C346.15,-162.35 383.08,-141.56 410.37,-126.19"/>
<polygon fill="black" stroke="black" points="412.23,-129.16 419.23,-121.21 408.8,-123.06 412.23,-129.16"/>
<text text-anchor="middle" x="405.75" y="-144.8" font-family="Times,serif" font-size="14.00">सम्बोध्यः</text>
</g>
<!-- 10.1 -->
<g id="node13" class="node">
<title>10.1</title>
<g id="a_node13"><a xlink:title="(सत्त्व{नपुं}{1;एक})">
<ellipse fill="#00bfff" stroke="#00bfff" cx="599.25" cy="-105" rx="72.59" ry="18"/>
<text text-anchor="middle" x="599.25" y="-101.3" font-family="Times,serif" font-size="14.00">(सत्त्वम्) (10.1)</text>
</a>
</g>
</g>
<!-- 7&#45;&gt;10.1 -->
<g id="edge11" class="edge">
<title>7&#45;&gt;10.1</title>
<path fill="none" stroke="black" d="M337.98,-180.92C365.78,-174.21 402.77,-165 435.25,-156 472.81,-145.59 514.86,-132.74 546.97,-122.68"/>
<polygon fill="black" stroke="black" points="548.11,-125.99 556.6,-119.65 546.01,-119.31 548.11,-125.99"/>
<text text-anchor="middle" x="497.75" y="-144.8" font-family="Times,serif" font-size="14.00">कर्ता</text>
</g>
<!-- 9&#45;&gt;6 -->
<g id="edge7" class="edge">
<title>9&#45;&gt;6</title>
<path fill="none" stroke="black" d="M1101.05,-120.99C1109.87,-131.23 1117.72,-144.89 1110.25,-156 1104.51,-164.53 1096.3,-170.98 1087.2,-175.86"/>
<polygon fill="black" stroke="black" points="1085.43,-172.82 1077.86,-180.23 1088.4,-179.16 1085.43,-172.82"/>
<text text-anchor="middle" x="1130.25" y="-144.8" font-family="Times,serif" font-size="14.00">करणम्</text>
</g>
</g>
</svg>
