<?xml version="1.0" encoding="UTF-8" standalone="no"?>
<!DOCTYPE svg PUBLIC "-//W3C//DTD SVG 1.1//EN"
 "http://www.w3.org/Graphics/SVG/1.1/DTD/svg11.dtd">
<!-- Generated by graphviz version 2.43.0 (0)
 -->
<!-- Title: %3 Pages: 1 -->
<svg width="746pt" height="305pt"
 viewBox="0.00 0.00 746.34 305.00" xmlns="http://www.w3.org/2000/svg" xmlns:xlink="http://www.w3.org/1999/xlink">
<g id="graph0" class="graph" transform="scale(1 1) rotate(0) translate(4 301)">
<title>%3</title>
<polygon fill="#fffacd" stroke="transparent" points="-4,4 -4,-301 742.34,-301 742.34,4 -4,4"/>
<!-- 1 -->
<g id="node1" class="node">
<title>1</title>
<g id="a_node1"><a xlink:title="यत्1{कृत्_प्रत्ययः:शतृ;यतीँ;भ्वादिः;पुं}{1;बहु}">
<ellipse fill="#00bfff" stroke="#00bfff" cx="53.3" cy="-105" rx="51.19" ry="18"/>
<text text-anchor="middle" x="53.3" y="-101.3" font-family="Times,serif" font-size="14.00">यतन्तः (1)</text>
</a>
</g>
</g>
<!-- 2 -->
<g id="node2" class="node">
<title>2</title>
<g id="a_node2"><a xlink:title="योगिन्{पुं}{1;बहु}">
<ellipse fill="#00bfff" stroke="#00bfff" cx="53.3" cy="-192" rx="53.09" ry="18"/>
<text text-anchor="middle" x="53.3" y="-188.3" font-family="Times,serif" font-size="14.00">योगिनः (2)</text>
</a>
</g>
</g>
<!-- 2&#45;&gt;1 -->
<g id="edge1" class="edge">
<title>2&#45;&gt;1</title>
<path fill="none" stroke="black" d="M53.3,-173.8C53.3,-162.16 53.3,-146.55 53.3,-133.24"/>
<polygon fill="black" stroke="black" points="56.8,-133.18 53.3,-123.18 49.8,-133.18 56.8,-133.18"/>
<text text-anchor="middle" x="78.8" y="-144.8" font-family="Times,serif" font-size="14.00">विशेषणम्</text>
</g>
<!-- 3 -->
<g id="node3" class="node">
<title>3</title>
<g id="a_node3"><a xlink:title="च{अव्य}">
<ellipse fill="#ff00ff" stroke="#ff00ff" cx="157.3" cy="-192" rx="33.29" ry="18"/>
<text text-anchor="middle" x="157.3" y="-188.3" font-family="Times,serif" font-size="14.00">च (3)</text>
</a>
</g>
</g>
<!-- 4 -->
<g id="node4" class="node">
<title>4</title>
<g id="a_node4"><a xlink:title="इदम्{पुं}{2;एक}">
<ellipse fill="#7cfc00" stroke="#7cfc00" cx="252.3" cy="-192" rx="43.59" ry="18"/>
<text text-anchor="middle" x="252.3" y="-188.3" font-family="Times,serif" font-size="14.00">एनम् (4)</text>
</a>
</g>
</g>
<!-- 7 -->
<g id="node7" class="node">
<title>7</title>
<g id="a_node7"><a xlink:title="अव_स्था1{कृत्_प्रत्ययः:क्त;अव_ष्ठा;भ्वादिः;नपुं}{2;एक}">
<ellipse fill="#7cfc00" stroke="#7cfc00" cx="252.3" cy="-105" rx="64.19" ry="18"/>
<text text-anchor="middle" x="252.3" y="-101.3" font-family="Times,serif" font-size="14.00">अवस्थितम् (7)</text>
</a>
</g>
</g>
<!-- 4&#45;&gt;7 -->
<g id="edge6" class="edge">
<title>4&#45;&gt;7</title>
<path fill="none" stroke="black" d="M252.3,-173.8C252.3,-162.16 252.3,-146.55 252.3,-133.24"/>
<polygon fill="black" stroke="black" points="255.8,-133.18 252.3,-123.18 248.8,-133.18 255.8,-133.18"/>
<text text-anchor="middle" x="277.8" y="-144.8" font-family="Times,serif" font-size="14.00">विशेषणम्</text>
</g>
<!-- 5 -->
<g id="node5" class="node">
<title>5</title>
<g id="a_node5"><a xlink:title="दृश्1{कर्तरि;लट्;प्र;बहु;परस्मैपदी;दृशिँर्;भ्वादिः}">
<ellipse fill="#ff6347" stroke="#ff6347" cx="157.3" cy="-279" rx="54.69" ry="18"/>
<text text-anchor="middle" x="157.3" y="-275.3" font-family="Times,serif" font-size="14.00">पश्यन्ति (5)</text>
</a>
</g>
</g>
<!-- 5&#45;&gt;2 -->
<g id="edge2" class="edge">
<title>5&#45;&gt;2</title>
<path fill="none" stroke="black" d="M137.73,-262.01C121.61,-248.83 98.56,-229.99 80.61,-215.33"/>
<polygon fill="black" stroke="black" points="82.73,-212.53 72.77,-208.92 78.3,-217.95 82.73,-212.53"/>
<text text-anchor="middle" x="124.8" y="-231.8" font-family="Times,serif" font-size="14.00">कर्ता</text>
</g>
<!-- 5&#45;&gt;3 -->
<g id="edge3" class="edge">
<title>5&#45;&gt;3</title>
<path fill="none" stroke="black" d="M157.3,-260.8C157.3,-249.16 157.3,-233.55 157.3,-220.24"/>
<polygon fill="black" stroke="black" points="160.8,-220.18 157.3,-210.18 153.8,-220.18 160.8,-220.18"/>
<text text-anchor="middle" x="180.3" y="-231.8" font-family="Times,serif" font-size="14.00">सम्बन्धः</text>
</g>
<!-- 5&#45;&gt;4 -->
<g id="edge4" class="edge">
<title>5&#45;&gt;4</title>
<path fill="none" stroke="black" d="M181.53,-262.67C189.99,-256.9 199.36,-250.02 207.3,-243 216.04,-235.26 224.83,-225.93 232.28,-217.44"/>
<polygon fill="black" stroke="black" points="235.12,-219.51 238.98,-209.64 229.81,-214.95 235.12,-219.51"/>
<text text-anchor="middle" x="232.3" y="-231.8" font-family="Times,serif" font-size="14.00">कर्म</text>
</g>
<!-- 6 -->
<g id="node6" class="node">
<title>6</title>
<g id="a_node6"><a xlink:title="आत्मन्{पुं}{7;एक}">
<ellipse fill="#708090" stroke="#708090" cx="252.3" cy="-18" rx="53.09" ry="18"/>
<text text-anchor="middle" x="252.3" y="-14.3" font-family="Times,serif" font-size="14.00">आत्मनि (6)</text>
</a>
</g>
</g>
<!-- 7&#45;&gt;6 -->
<g id="edge5" class="edge">
<title>7&#45;&gt;6</title>
<path fill="none" stroke="black" d="M252.3,-86.8C252.3,-75.16 252.3,-59.55 252.3,-46.24"/>
<polygon fill="black" stroke="black" points="255.8,-46.18 252.3,-36.18 248.8,-46.18 255.8,-46.18"/>
<text text-anchor="middle" x="282.8" y="-57.8" font-family="Times,serif" font-size="14.00">अधिकरणम्</text>
</g>
<!-- 8 -->
<g id="node8" class="node">
<title>8</title>
<g id="a_node8"><a xlink:title="यत्1{कृत्_प्रत्ययः:शतृ;यतीँ;भ्वादिः;पुं}{1;बहु}">
<ellipse fill="#00bfff" stroke="#00bfff" cx="491.3" cy="-105" rx="51.19" ry="18"/>
<text text-anchor="middle" x="491.3" y="-101.3" font-family="Times,serif" font-size="14.00">यतन्तः (8)</text>
</a>
</g>
</g>
<!-- 9 -->
<g id="node9" class="node">
<title>9</title>
<g id="a_node9"><a xlink:title="अपि{अव्य}">
<ellipse fill="#ff00ff" stroke="#ff00ff" cx="491.3" cy="-18" rx="42.49" ry="18"/>
<text text-anchor="middle" x="491.3" y="-14.3" font-family="Times,serif" font-size="14.00">अपि (9)</text>
</a>
</g>
</g>
<!-- 8&#45;&gt;9 -->
<g id="edge8" class="edge">
<title>8&#45;&gt;9</title>
<path fill="none" stroke="black" d="M491.3,-86.8C491.3,-75.16 491.3,-59.55 491.3,-46.24"/>
<polygon fill="black" stroke="black" points="494.8,-46.18 491.3,-36.18 487.8,-46.18 494.8,-46.18"/>
<text text-anchor="middle" x="514.3" y="-57.8" font-family="Times,serif" font-size="14.00">सम्बन्धः</text>
</g>
<!-- 10 -->
<g id="node10" class="node">
<title>10</title>
<g id="a_node10"><a xlink:title="न&#45;कृत&#45;आत्मन्{पुं}{1;बहु}">
<ellipse fill="#00bfff" stroke="#00bfff" cx="649.3" cy="-105" rx="89.08" ry="18"/>
<text text-anchor="middle" x="649.3" y="-101.3" font-family="Times,serif" font-size="14.00">अ&#45;कृत&#45;आत्मानः (10)</text>
</a>
</g>
</g>
<!-- 11 -->
<g id="node11" class="node">
<title>11</title>
<g id="a_node11"><a xlink:title="न{अव्य}">
<ellipse fill="#ff00ff" stroke="#ff00ff" cx="352.3" cy="-192" rx="38.19" ry="18"/>
<text text-anchor="middle" x="352.3" y="-188.3" font-family="Times,serif" font-size="14.00">न (11)</text>
</a>
</g>
</g>
<!-- 12 -->
<g id="node12" class="node">
<title>12</title>
<g id="a_node12"><a xlink:title="इदम्{पुं}{2;एक}">
<ellipse fill="#7cfc00" stroke="#7cfc00" cx="458.3" cy="-192" rx="49.29" ry="18"/>
<text text-anchor="middle" x="458.3" y="-188.3" font-family="Times,serif" font-size="14.00">एनम् (12)</text>
</a>
</g>
</g>
<!-- 13 -->
<g id="node13" class="node">
<title>13</title>
<g id="a_node13"><a xlink:title="दृश्1{कर्तरि;लट्;प्र;बहु;परस्मैपदी;दृशिँर्;भ्वादिः}">
<ellipse fill="#ff6347" stroke="#ff6347" cx="458.3" cy="-279" rx="60.39" ry="18"/>
<text text-anchor="middle" x="458.3" y="-275.3" font-family="Times,serif" font-size="14.00">पश्यन्ति (13)</text>
</a>
</g>
</g>
<!-- 13&#45;&gt;11 -->
<g id="edge10" class="edge">
<title>13&#45;&gt;11</title>
<path fill="none" stroke="black" d="M431.25,-262.8C421.78,-257.04 411.27,-250.14 402.3,-243 392.19,-234.96 381.95,-225.09 373.39,-216.24"/>
<polygon fill="black" stroke="black" points="375.76,-213.66 366.34,-208.81 370.68,-218.47 375.76,-213.66"/>
<text text-anchor="middle" x="428.3" y="-231.8" font-family="Times,serif" font-size="14.00">प्रतिषेधः</text>
</g>
<!-- 13&#45;&gt;12 -->
<g id="edge11" class="edge">
<title>13&#45;&gt;12</title>
<path fill="none" stroke="black" d="M458.3,-260.8C458.3,-249.16 458.3,-233.55 458.3,-220.24"/>
<polygon fill="black" stroke="black" points="461.8,-220.18 458.3,-210.18 454.8,-220.18 461.8,-220.18"/>
<text text-anchor="middle" x="468.3" y="-231.8" font-family="Times,serif" font-size="14.00">कर्म</text>
</g>
<!-- 14 -->
<g id="node14" class="node">
<title>14</title>
<g id="a_node14"><a xlink:title="न&#45;चेतस्{नपुं}{1;बहु}">
<ellipse fill="#00bfff" stroke="#00bfff" cx="591.3" cy="-192" rx="65.79" ry="18"/>
<text text-anchor="middle" x="591.3" y="-188.3" font-family="Times,serif" font-size="14.00">अ&#45;चेतसः (14)</text>
</a>
</g>
</g>
<!-- 13&#45;&gt;14 -->
<g id="edge12" class="edge">
<title>13&#45;&gt;14</title>
<path fill="none" stroke="black" d="M482.69,-262.41C503.84,-248.9 534.63,-229.21 558.03,-214.26"/>
<polygon fill="black" stroke="black" points="560.06,-217.11 566.61,-208.78 556.29,-211.22 560.06,-217.11"/>
<text text-anchor="middle" x="544.8" y="-231.8" font-family="Times,serif" font-size="14.00">कर्ता</text>
</g>
<!-- 14&#45;&gt;8 -->
<g id="edge7" class="edge">
<title>14&#45;&gt;8</title>
<path fill="none" stroke="black" d="M572.01,-174.61C556.7,-161.59 535.11,-143.24 518.11,-128.79"/>
<polygon fill="black" stroke="black" points="520.06,-125.86 510.18,-122.05 515.53,-131.19 520.06,-125.86"/>
<text text-anchor="middle" x="571.8" y="-144.8" font-family="Times,serif" font-size="14.00">विशेषणम्</text>
</g>
<!-- 14&#45;&gt;10 -->
<g id="edge9" class="edge">
<title>14&#45;&gt;10</title>
<path fill="none" stroke="black" d="M602.75,-174.21C611.04,-162.06 622.39,-145.43 631.8,-131.63"/>
<polygon fill="black" stroke="black" points="634.92,-133.28 637.66,-123.05 629.13,-129.34 634.92,-133.28"/>
<text text-anchor="middle" x="648.8" y="-144.8" font-family="Times,serif" font-size="14.00">विशेषणम्</text>
</g>
</g>
</svg>
