<?xml version="1.0" encoding="UTF-8" standalone="no"?>
<!DOCTYPE svg PUBLIC "-//W3C//DTD SVG 1.1//EN"
 "http://www.w3.org/Graphics/SVG/1.1/DTD/svg11.dtd">
<!-- Generated by graphviz version 2.43.0 (0)
 -->
<!-- Title: %3 Pages: 1 -->
<svg width="810pt" height="305pt"
 viewBox="0.00 0.00 810.50 305.00" xmlns="http://www.w3.org/2000/svg" xmlns:xlink="http://www.w3.org/1999/xlink">
<g id="graph0" class="graph" transform="scale(1 1) rotate(0) translate(4 301)">
<title>%3</title>
<polygon fill="#fffacd" stroke="transparent" points="-4,4 -4,-301 806.5,-301 806.5,4 -4,4"/>
<!-- 1 -->
<g id="node1" class="node">
<title>1</title>
<g id="a_node1"><a xlink:title="न{अव्य}">
<ellipse fill="#ff00ff" stroke="#ff00ff" cx="32.5" cy="-192" rx="32.49" ry="18"/>
<text text-anchor="middle" x="32.5" y="-188.3" font-family="Times,serif" font-size="14.00">न (1)</text>
</a>
</g>
</g>
<!-- 2 -->
<g id="node2" class="node">
<title>2</title>
<g id="a_node2"><a xlink:title="तद्{नपुं}{2;एक}">
<ellipse fill="#7cfc00" stroke="#7cfc00" cx="121.5" cy="-192" rx="38.19" ry="18"/>
<text text-anchor="middle" x="121.5" y="-188.3" font-family="Times,serif" font-size="14.00">तत् (2)</text>
</a>
</g>
</g>
<!-- 3 -->
<g id="node3" class="node">
<title>3</title>
<g id="a_node3"><a xlink:title="भास्1_णिच्{कर्तरि;लट्;प्र;एक;आत्मनेपदी;भासृँ_णिच्;भ्वादिः}">
<ellipse fill="#ff6347" stroke="#ff6347" cx="121.5" cy="-279" rx="52.79" ry="18"/>
<text text-anchor="middle" x="121.5" y="-275.3" font-family="Times,serif" font-size="14.00">भासयते (3)</text>
</a>
</g>
</g>
<!-- 3&#45;&gt;1 -->
<g id="edge1" class="edge">
<title>3&#45;&gt;1</title>
<path fill="none" stroke="black" d="M93.31,-263.6C83.84,-257.96 73.62,-250.93 65.5,-243 58.17,-235.85 51.6,-226.81 46.29,-218.39"/>
<polygon fill="black" stroke="black" points="49.18,-216.4 41.04,-209.61 43.17,-219.99 49.18,-216.4"/>
<text text-anchor="middle" x="91.5" y="-231.8" font-family="Times,serif" font-size="14.00">प्रतिषेधः</text>
</g>
<!-- 3&#45;&gt;2 -->
<g id="edge2" class="edge">
<title>3&#45;&gt;2</title>
<path fill="none" stroke="black" d="M121.5,-260.8C121.5,-249.16 121.5,-233.55 121.5,-220.24"/>
<polygon fill="black" stroke="black" points="125,-220.18 121.5,-210.18 118,-220.18 125,-220.18"/>
<text text-anchor="middle" x="131.5" y="-231.8" font-family="Times,serif" font-size="14.00">कर्म</text>
</g>
<!-- 4 -->
<g id="node4" class="node">
<title>4</title>
<g id="a_node4"><a xlink:title="सूर्य{पुं}{1;एक}">
<ellipse fill="#00bfff" stroke="#00bfff" cx="220.5" cy="-192" rx="42.79" ry="18"/>
<text text-anchor="middle" x="220.5" y="-188.3" font-family="Times,serif" font-size="14.00">सूर्यः (4)</text>
</a>
</g>
</g>
<!-- 3&#45;&gt;4 -->
<g id="edge3" class="edge">
<title>3&#45;&gt;4</title>
<path fill="none" stroke="black" d="M140.12,-262.01C155.43,-248.87 177.29,-230.1 194.35,-215.45"/>
<polygon fill="black" stroke="black" points="196.99,-217.8 202.29,-208.63 192.43,-212.49 196.99,-217.8"/>
<text text-anchor="middle" x="190" y="-231.8" font-family="Times,serif" font-size="14.00">कर्ता</text>
</g>
<!-- 6 -->
<g id="node6" class="node">
<title>6</title>
<g id="a_node6"><a xlink:title="शशाङ्क{पुं}{1;एक}">
<ellipse fill="#00bfff" stroke="#00bfff" cx="162.5" cy="-105" rx="59.59" ry="18"/>
<text text-anchor="middle" x="162.5" y="-101.3" font-family="Times,serif" font-size="14.00">शशाङ्कः (6)</text>
</a>
</g>
</g>
<!-- 4&#45;&gt;6 -->
<g id="edge5" class="edge">
<title>4&#45;&gt;6</title>
<path fill="none" stroke="black" d="M205.45,-174.81C200.44,-169.07 194.99,-162.43 190.5,-156 185.26,-148.5 180.17,-139.93 175.8,-132.03"/>
<polygon fill="black" stroke="black" points="178.85,-130.32 171.03,-123.17 172.68,-133.63 178.85,-130.32"/>
<text text-anchor="middle" x="216" y="-144.8" font-family="Times,serif" font-size="14.00">विशेषणम्</text>
</g>
<!-- 8 -->
<g id="node8" class="node">
<title>8</title>
<g id="a_node8"><a xlink:title="पावक{पुं}{1;एक}">
<ellipse fill="#00bfff" stroke="#00bfff" cx="290.5" cy="-105" rx="50.09" ry="18"/>
<text text-anchor="middle" x="290.5" y="-101.3" font-family="Times,serif" font-size="14.00">पावकः (8)</text>
</a>
</g>
</g>
<!-- 4&#45;&gt;8 -->
<g id="edge7" class="edge">
<title>4&#45;&gt;8</title>
<path fill="none" stroke="black" d="M233.99,-174.61C244.36,-162.03 258.82,-144.46 270.52,-130.25"/>
<polygon fill="black" stroke="black" points="273.39,-132.28 277.04,-122.34 267.98,-127.83 273.39,-132.28"/>
<text text-anchor="middle" x="286" y="-144.8" font-family="Times,serif" font-size="14.00">विशेेषणम्</text>
</g>
<!-- 5 -->
<g id="node5" class="node">
<title>5</title>
<g id="a_node5"><a xlink:title="न{अव्य}">
<ellipse fill="#ff00ff" stroke="#ff00ff" cx="162.5" cy="-18" rx="32.49" ry="18"/>
<text text-anchor="middle" x="162.5" y="-14.3" font-family="Times,serif" font-size="14.00">न (5)</text>
</a>
</g>
</g>
<!-- 6&#45;&gt;5 -->
<g id="edge4" class="edge">
<title>6&#45;&gt;5</title>
<path fill="none" stroke="black" d="M162.5,-86.8C162.5,-75.16 162.5,-59.55 162.5,-46.24"/>
<polygon fill="black" stroke="black" points="166,-46.18 162.5,-36.18 159,-46.18 166,-46.18"/>
<text text-anchor="middle" x="188.5" y="-57.8" font-family="Times,serif" font-size="14.00">प्रतिषेधः</text>
</g>
<!-- 7 -->
<g id="node7" class="node">
<title>7</title>
<g id="a_node7"><a xlink:title="न{अव्य}">
<ellipse fill="#ff00ff" stroke="#ff00ff" cx="290.5" cy="-18" rx="32.49" ry="18"/>
<text text-anchor="middle" x="290.5" y="-14.3" font-family="Times,serif" font-size="14.00">न (7)</text>
</a>
</g>
</g>
<!-- 8&#45;&gt;7 -->
<g id="edge6" class="edge">
<title>8&#45;&gt;7</title>
<path fill="none" stroke="black" d="M290.5,-86.8C290.5,-75.16 290.5,-59.55 290.5,-46.24"/>
<polygon fill="black" stroke="black" points="294,-46.18 290.5,-36.18 287,-46.18 294,-46.18"/>
<text text-anchor="middle" x="316.5" y="-57.8" font-family="Times,serif" font-size="14.00">प्रतिषेधः</text>
</g>
<!-- 9 -->
<g id="node9" class="node">
<title>9</title>
<g id="a_node9"><a xlink:title="यद्{नपुं}{2;एक}">
<ellipse fill="#7cfc00" stroke="#7cfc00" cx="471.5" cy="-18" rx="38.19" ry="18"/>
<text text-anchor="middle" x="471.5" y="-14.3" font-family="Times,serif" font-size="14.00">यत् (9)</text>
</a>
</g>
</g>
<!-- 10 -->
<g id="node10" class="node">
<title>10</title>
<g id="a_node10"><a xlink:title="गम्1{कृत्_प्रत्ययः:क्त्वा;गमॢँ;भ्वादिः}">
<ellipse fill="#808080" stroke="#808080" cx="408.5" cy="-105" rx="50.09" ry="18"/>
<text text-anchor="middle" x="408.5" y="-101.3" font-family="Times,serif" font-size="14.00">गत्वा (10)</text>
</a>
</g>
</g>
<!-- 10&#45;&gt;9 -->
<g id="edge8" class="edge">
<title>10&#45;&gt;9</title>
<path fill="none" stroke="black" d="M420.94,-87.21C430.21,-74.71 443,-57.45 453.39,-43.43"/>
<polygon fill="black" stroke="black" points="456.36,-45.3 459.5,-35.18 450.74,-41.13 456.36,-45.3"/>
<text text-anchor="middle" x="454.5" y="-57.8" font-family="Times,serif" font-size="14.00">कर्म</text>
</g>
<!-- 11 -->
<g id="node11" class="node">
<title>11</title>
<g id="a_node11"><a xlink:title="न{अव्य}">
<ellipse fill="#ff00ff" stroke="#ff00ff" cx="514.5" cy="-105" rx="38.19" ry="18"/>
<text text-anchor="middle" x="514.5" y="-101.3" font-family="Times,serif" font-size="14.00">न (11)</text>
</a>
</g>
</g>
<!-- 12 -->
<g id="node12" class="node">
<title>12</title>
<g id="a_node12"><a xlink:title="नि_वृत्1{कर्तरि;लट्;प्र;बहु;आत्मनेपदी;नि_वृतुँ;भ्वादिः}">
<ellipse fill="#ff6347" stroke="#ff6347" cx="457.5" cy="-192" rx="60.39" ry="18"/>
<text text-anchor="middle" x="457.5" y="-188.3" font-family="Times,serif" font-size="14.00">निवर्तन्ते (12)</text>
</a>
</g>
</g>
<!-- 12&#45;&gt;10 -->
<g id="edge10" class="edge">
<title>12&#45;&gt;10</title>
<path fill="none" stroke="black" d="M447.82,-174.21C440.84,-162.1 431.29,-145.53 423.35,-131.76"/>
<polygon fill="black" stroke="black" points="426.18,-129.67 418.16,-122.76 420.12,-133.17 426.18,-129.67"/>
<text text-anchor="middle" x="461" y="-144.8" font-family="Times,serif" font-size="14.00">पूर्वकालः</text>
</g>
<!-- 12&#45;&gt;11 -->
<g id="edge11" class="edge">
<title>12&#45;&gt;11</title>
<path fill="none" stroke="black" d="M474.46,-174.35C479.63,-168.79 485.11,-162.38 489.5,-156 494.58,-148.61 499.25,-140.04 503.14,-132.1"/>
<polygon fill="black" stroke="black" points="506.4,-133.4 507.48,-122.86 500.06,-130.42 506.4,-133.4"/>
<text text-anchor="middle" x="524.5" y="-144.8" font-family="Times,serif" font-size="14.00">प्रतिषेधः</text>
</g>
<!-- 13 -->
<g id="node13" class="node">
<title>13</title>
<g id="a_node13"><a xlink:title="तद्{नपुं}{2;एक}">
<ellipse fill="#7cfc00" stroke="#7cfc00" cx="615.5" cy="-105" rx="44.39" ry="18"/>
<text text-anchor="middle" x="615.5" y="-101.3" font-family="Times,serif" font-size="14.00">तत् (13)</text>
</a>
</g>
</g>
<!-- 13&#45;&gt;9 -->
<g id="edge9" class="edge">
<title>13&#45;&gt;9</title>
<path fill="none" stroke="black" stroke-dasharray="1,5" d="M591.39,-89.77C567.33,-75.57 530.2,-53.65 503.64,-37.97"/>
<polygon fill="black" stroke="black" points="505.11,-34.78 494.72,-32.71 501.56,-40.81 505.11,-34.78"/>
<text text-anchor="middle" x="588.5" y="-57.8" font-family="Times,serif" font-size="14.00">नित्यसम्बन्धः</text>
</g>
<!-- 14 -->
<g id="node14" class="node">
<title>14</title>
<g id="a_node14"><a xlink:title="धामन्{नपुं}{1;एक}">
<ellipse fill="#00bfff" stroke="#00bfff" cx="672.5" cy="-192" rx="47.39" ry="18"/>
<text text-anchor="middle" x="672.5" y="-188.3" font-family="Times,serif" font-size="14.00">धाम (14)</text>
</a>
</g>
</g>
<!-- 14&#45;&gt;13 -->
<g id="edge12" class="edge">
<title>14&#45;&gt;13</title>
<path fill="none" stroke="black" d="M659.78,-174.47C655.45,-168.7 650.67,-162.14 646.5,-156 641.16,-148.14 635.61,-139.4 630.7,-131.44"/>
<polygon fill="black" stroke="black" points="633.68,-129.61 625.49,-122.89 627.7,-133.25 633.68,-129.61"/>
<text text-anchor="middle" x="672" y="-144.8" font-family="Times,serif" font-size="14.00">विशेषणम्</text>
</g>
<!-- 15 -->
<g id="node15" class="node">
<title>15</title>
<g id="a_node15"><a xlink:title="परम{नपुं}{1;एक}">
<ellipse fill="#00bfff" stroke="#00bfff" cx="730.5" cy="-105" rx="53.09" ry="18"/>
<text text-anchor="middle" x="730.5" y="-101.3" font-family="Times,serif" font-size="14.00">परमम् (15)</text>
</a>
</g>
</g>
<!-- 14&#45;&gt;15 -->
<g id="edge14" class="edge">
<title>14&#45;&gt;15</title>
<path fill="none" stroke="black" d="M684.58,-174.35C688.72,-168.58 693.35,-162.03 697.5,-156 702.97,-148.03 708.83,-139.25 714.06,-131.3"/>
<polygon fill="black" stroke="black" points="717.1,-133.05 719.65,-122.77 711.24,-129.21 717.1,-133.05"/>
<text text-anchor="middle" x="732" y="-144.8" font-family="Times,serif" font-size="14.00">विशेषणम्</text>
</g>
<!-- 16 -->
<g id="node16" class="node">
<title>16</title>
<g id="a_node16"><a xlink:title="अस्मद्{6;एक}">
<ellipse fill="#87ceeb" stroke="#87ceeb" cx="730.5" cy="-18" rx="44.39" ry="18"/>
<text text-anchor="middle" x="730.5" y="-14.3" font-family="Times,serif" font-size="14.00">मम (16)</text>
</a>
</g>
</g>
<!-- 15&#45;&gt;16 -->
<g id="edge15" class="edge">
<title>15&#45;&gt;16</title>
<path fill="none" stroke="black" d="M730.5,-86.8C730.5,-75.16 730.5,-59.55 730.5,-46.24"/>
<polygon fill="black" stroke="black" points="734,-46.18 730.5,-36.18 727,-46.18 734,-46.18"/>
<text text-anchor="middle" x="766.5" y="-57.8" font-family="Times,serif" font-size="14.00">षष्ठीसम्बन्धः</text>
</g>
<!-- 16.1 -->
<g id="node17" class="node">
<title>16.1</title>
<g id="a_node17"><a xlink:title="(अस्2{कर्तरि;लट्;प्र;एक;परस्मैपदी;असँ;अदादिः})">
<ellipse fill="#ff6347" stroke="#ff6347" cx="672.5" cy="-279" rx="68.79" ry="18"/>
<text text-anchor="middle" x="672.5" y="-275.3" font-family="Times,serif" font-size="14.00">(अस्ति) (16.1)</text>
</a>
</g>
</g>
<!-- 16.1&#45;&gt;14 -->
<g id="edge13" class="edge">
<title>16.1&#45;&gt;14</title>
<path fill="none" stroke="black" d="M672.5,-260.8C672.5,-249.16 672.5,-233.55 672.5,-220.24"/>
<polygon fill="black" stroke="black" points="676,-220.18 672.5,-210.18 669,-220.18 676,-220.18"/>
<text text-anchor="middle" x="685" y="-231.8" font-family="Times,serif" font-size="14.00">कर्ता</text>
</g>
</g>
</svg>
