<?xml version="1.0" encoding="UTF-8" standalone="no"?>
<!DOCTYPE svg PUBLIC "-//W3C//DTD SVG 1.1//EN"
 "http://www.w3.org/Graphics/SVG/1.1/DTD/svg11.dtd">
<!-- Generated by graphviz version 2.43.0 (0)
 -->
<!-- Title: %3 Pages: 1 -->
<svg width="658pt" height="305pt"
 viewBox="0.00 0.00 658.34 305.00" xmlns="http://www.w3.org/2000/svg" xmlns:xlink="http://www.w3.org/1999/xlink">
<g id="graph0" class="graph" transform="scale(1 1) rotate(0) translate(4 301)">
<title>%3</title>
<polygon fill="#fffacd" stroke="transparent" points="-4,4 -4,-301 654.34,-301 654.34,4 -4,4"/>
<!-- 1 -->
<g id="node1" class="node">
<title>1</title>
<g id="a_node1"><a xlink:title="उत्_क्रम्1{कृत्_प्रत्ययः:शतृ;उत्_क्रमुँ;भ्वादिः;पुं}{2;एक}">
<ellipse fill="#7cfc00" stroke="#7cfc00" cx="70.84" cy="-105" rx="70.69" ry="18"/>
<text text-anchor="middle" x="70.84" y="-101.3" font-family="Times,serif" font-size="14.00">उत्क्रामन्तम् (1)</text>
</a>
</g>
</g>
<!-- 2 -->
<g id="node2" class="node">
<title>2</title>
<g id="a_node2"><a xlink:title="स्था1{कृत्_प्रत्ययः:क्त;ष्ठा;भ्वादिः;नपुं}{2;एक}">
<ellipse fill="#7cfc00" stroke="#7cfc00" cx="211.84" cy="-105" rx="51.99" ry="18"/>
<text text-anchor="middle" x="211.84" y="-101.3" font-family="Times,serif" font-size="14.00">स्थितम् (2)</text>
</a>
</g>
</g>
<!-- 3 -->
<g id="node3" class="node">
<title>3</title>
<g id="a_node3"><a xlink:title="वा{अव्य}">
<ellipse fill="#ff00ff" stroke="#ff00ff" cx="122.84" cy="-18" rx="34.39" ry="18"/>
<text text-anchor="middle" x="122.84" y="-14.3" font-family="Times,serif" font-size="14.00">वा (3)</text>
</a>
</g>
</g>
<!-- 2&#45;&gt;3 -->
<g id="edge3" class="edge">
<title>2&#45;&gt;3</title>
<path fill="none" stroke="black" d="M170.68,-93.68C157.16,-88.37 143.21,-80.52 133.84,-69 128.7,-62.67 125.83,-54.45 124.26,-46.51"/>
<polygon fill="black" stroke="black" points="127.7,-45.85 122.88,-36.42 120.77,-46.81 127.7,-45.85"/>
<text text-anchor="middle" x="174.84" y="-57.8" font-family="Times,serif" font-size="14.00">अन्यतरद्योतकः</text>
</g>
<!-- 4 -->
<g id="node4" class="node">
<title>4</title>
<g id="a_node4"><a xlink:title="अपि{अव्य}">
<ellipse fill="#ff00ff" stroke="#ff00ff" cx="227.84" cy="-18" rx="42.49" ry="18"/>
<text text-anchor="middle" x="227.84" y="-14.3" font-family="Times,serif" font-size="14.00">अपि (4)</text>
</a>
</g>
</g>
<!-- 2&#45;&gt;4 -->
<g id="edge4" class="edge">
<title>2&#45;&gt;4</title>
<path fill="none" stroke="black" d="M215.08,-86.8C217.27,-75.16 220.21,-59.55 222.72,-46.24"/>
<polygon fill="black" stroke="black" points="226.2,-46.65 224.61,-36.18 219.32,-45.36 226.2,-46.65"/>
<text text-anchor="middle" x="243.84" y="-57.8" font-family="Times,serif" font-size="14.00">सम्बन्धः</text>
</g>
<!-- 5 -->
<g id="node5" class="node">
<title>5</title>
<g id="a_node5"><a xlink:title="भुज्2{कृत्_प्रत्ययः:शतृ;भुजँ;रुधादिः;पुं}{2;एक}">
<ellipse fill="#7cfc00" stroke="#7cfc00" cx="339.84" cy="-105" rx="57.69" ry="18"/>
<text text-anchor="middle" x="339.84" y="-101.3" font-family="Times,serif" font-size="14.00">भुञ्जानम् (5)</text>
</a>
</g>
</g>
<!-- 6 -->
<g id="node6" class="node">
<title>6</title>
<g id="a_node6"><a xlink:title="वा{अव्य}">
<ellipse fill="#ff00ff" stroke="#ff00ff" cx="339.84" cy="-18" rx="34.39" ry="18"/>
<text text-anchor="middle" x="339.84" y="-14.3" font-family="Times,serif" font-size="14.00">वा (6)</text>
</a>
</g>
</g>
<!-- 5&#45;&gt;6 -->
<g id="edge6" class="edge">
<title>5&#45;&gt;6</title>
<path fill="none" stroke="black" d="M339.84,-86.8C339.84,-75.16 339.84,-59.55 339.84,-46.24"/>
<polygon fill="black" stroke="black" points="343.34,-46.18 339.84,-36.18 336.34,-46.18 343.34,-46.18"/>
<text text-anchor="middle" x="380.84" y="-57.8" font-family="Times,serif" font-size="14.00">अन्यतरद्योतकः</text>
</g>
<!-- 7 -->
<g id="node7" class="node">
<title>7</title>
<g id="a_node7"><a xlink:title="गुण&#45;अन्वित{पुं}{2;एक}">
<ellipse fill="#7cfc00" stroke="#7cfc00" cx="211.84" cy="-192" rx="73.39" ry="18"/>
<text text-anchor="middle" x="211.84" y="-188.3" font-family="Times,serif" font-size="14.00">गुण&#45;अन्वितम् (7)</text>
</a>
</g>
</g>
<!-- 7&#45;&gt;1 -->
<g id="edge1" class="edge">
<title>7&#45;&gt;1</title>
<path fill="none" stroke="black" d="M185.32,-175.01C162.87,-161.48 130.51,-141.97 105.92,-127.15"/>
<polygon fill="black" stroke="black" points="107.62,-124.08 97.25,-121.92 104,-130.08 107.62,-124.08"/>
<text text-anchor="middle" x="173.84" y="-144.8" font-family="Times,serif" font-size="14.00">अन्यतरः</text>
</g>
<!-- 7&#45;&gt;2 -->
<g id="edge2" class="edge">
<title>7&#45;&gt;2</title>
<path fill="none" stroke="black" d="M211.84,-173.8C211.84,-162.16 211.84,-146.55 211.84,-133.24"/>
<polygon fill="black" stroke="black" points="215.34,-133.18 211.84,-123.18 208.34,-133.18 215.34,-133.18"/>
<text text-anchor="middle" x="235.84" y="-144.8" font-family="Times,serif" font-size="14.00">अन्यतरः</text>
</g>
<!-- 7&#45;&gt;5 -->
<g id="edge5" class="edge">
<title>7&#45;&gt;5</title>
<path fill="none" stroke="black" d="M236.22,-174.81C256.58,-161.29 285.77,-141.91 307.98,-127.16"/>
<polygon fill="black" stroke="black" points="310.03,-130 316.42,-121.55 306.15,-124.17 310.03,-130"/>
<text text-anchor="middle" x="307.84" y="-144.8" font-family="Times,serif" font-size="14.00">अन्यतरः</text>
</g>
<!-- 8 -->
<g id="node8" class="node">
<title>8</title>
<g id="a_node8"><a xlink:title="विमूढ{पुं}{1;बहु}">
<ellipse fill="#00bfff" stroke="#00bfff" cx="354.84" cy="-192" rx="51.99" ry="18"/>
<text text-anchor="middle" x="354.84" y="-188.3" font-family="Times,serif" font-size="14.00">विमूढाः (8)</text>
</a>
</g>
</g>
<!-- 9 -->
<g id="node9" class="node">
<title>9</title>
<g id="a_node9"><a xlink:title="न{अव्य}">
<ellipse fill="#ff00ff" stroke="#ff00ff" cx="456.84" cy="-192" rx="32.49" ry="18"/>
<text text-anchor="middle" x="456.84" y="-188.3" font-family="Times,serif" font-size="14.00">न (9)</text>
</a>
</g>
</g>
<!-- 10 -->
<g id="node10" class="node">
<title>10</title>
<g id="a_node10"><a xlink:title="अनु_दृश्1{कर्तरि;लट्;प्र;बहु;परस्मैपदी;अनु_दृशिँर्;भ्वादिः}">
<ellipse fill="#ff6347" stroke="#ff6347" cx="354.84" cy="-279" rx="73.39" ry="18"/>
<text text-anchor="middle" x="354.84" y="-275.3" font-family="Times,serif" font-size="14.00">अनुपश्यन्ति (10)</text>
</a>
</g>
</g>
<!-- 10&#45;&gt;7 -->
<g id="edge7" class="edge">
<title>10&#45;&gt;7</title>
<path fill="none" stroke="black" d="M328.28,-262.21C305.55,-248.7 272.63,-229.13 247.58,-214.24"/>
<polygon fill="black" stroke="black" points="249.13,-211.09 238.75,-208.99 245.56,-217.11 249.13,-211.09"/>
<text text-anchor="middle" x="302.84" y="-231.8" font-family="Times,serif" font-size="14.00">कर्म</text>
</g>
<!-- 10&#45;&gt;8 -->
<g id="edge8" class="edge">
<title>10&#45;&gt;8</title>
<path fill="none" stroke="black" d="M354.84,-260.8C354.84,-249.16 354.84,-233.55 354.84,-220.24"/>
<polygon fill="black" stroke="black" points="358.34,-220.18 354.84,-210.18 351.34,-220.18 358.34,-220.18"/>
<text text-anchor="middle" x="367.34" y="-231.8" font-family="Times,serif" font-size="14.00">कर्ता</text>
</g>
<!-- 10&#45;&gt;9 -->
<g id="edge9" class="edge">
<title>10&#45;&gt;9</title>
<path fill="none" stroke="black" d="M374.51,-261.61C390.73,-248.1 413.85,-228.83 431.46,-214.15"/>
<polygon fill="black" stroke="black" points="434.17,-216.45 439.61,-207.36 429.69,-211.07 434.17,-216.45"/>
<text text-anchor="middle" x="438.84" y="-231.8" font-family="Times,serif" font-size="14.00">प्रतिषेधः</text>
</g>
<!-- 11 -->
<g id="node11" class="node">
<title>11</title>
<g id="a_node11"><a xlink:title="दृश्1{कर्तरि;लट्;प्र;बहु;परस्मैपदी;दृशिँर्;भ्वादिः}">
<ellipse fill="#ff6347" stroke="#ff6347" cx="578.84" cy="-279" rx="60.39" ry="18"/>
<text text-anchor="middle" x="578.84" y="-275.3" font-family="Times,serif" font-size="14.00">पश्यन्ति (11)</text>
</a>
</g>
</g>
<!-- 12 -->
<g id="node12" class="node">
<title>12</title>
<g id="a_node12"><a xlink:title="ज्ञान&#45;चक्षुस्{नपुं}{1;एक}">
<ellipse fill="#00bfff" stroke="#00bfff" cx="578.84" cy="-192" rx="71.49" ry="18"/>
<text text-anchor="middle" x="578.84" y="-188.3" font-family="Times,serif" font-size="14.00">ज्ञान&#45;चक्षुषः (12)</text>
</a>
</g>
</g>
<!-- 11&#45;&gt;12 -->
<g id="edge10" class="edge">
<title>11&#45;&gt;12</title>
<path fill="none" stroke="black" d="M578.84,-260.8C578.84,-249.16 578.84,-233.55 578.84,-220.24"/>
<polygon fill="black" stroke="black" points="582.34,-220.18 578.84,-210.18 575.34,-220.18 582.34,-220.18"/>
<text text-anchor="middle" x="591.34" y="-231.8" font-family="Times,serif" font-size="14.00">कर्ता</text>
</g>
</g>
</svg>
