<?xml version="1.0" encoding="UTF-8" standalone="no"?>
<!DOCTYPE svg PUBLIC "-//W3C//DTD SVG 1.1//EN"
 "http://www.w3.org/Graphics/SVG/1.1/DTD/svg11.dtd">
<!-- Generated by graphviz version 2.43.0 (0)
 -->
<!-- Title: %3 Pages: 1 -->
<svg width="897pt" height="218pt"
 viewBox="0.00 0.00 896.54 218.00" xmlns="http://www.w3.org/2000/svg" xmlns:xlink="http://www.w3.org/1999/xlink">
<g id="graph0" class="graph" transform="scale(1 1) rotate(0) translate(4 214)">
<title>%3</title>
<polygon fill="#fffacd" stroke="transparent" points="-4,4 -4,-214 892.54,-214 892.54,4 -4,4"/>
<!-- 1 -->
<g id="node1" class="node">
<title>1</title>
<g id="a_node1"><a xlink:title="असत्य{नपुं}{1;एक}">
<ellipse fill="#00bfff" stroke="#00bfff" cx="59.79" cy="-18" rx="59.59" ry="18"/>
<text text-anchor="middle" x="59.79" y="-14.3" font-family="Times,serif" font-size="14.00">अ&#45;सत्यम् (1)</text>
</a>
</g>
</g>
<!-- 2 -->
<g id="node2" class="node">
<title>2</title>
<g id="a_node2"><a xlink:title="अप्रतिष्ठ{नपुं}{1;एक}">
<ellipse fill="#00bfff" stroke="#00bfff" cx="208.79" cy="-18" rx="70.69" ry="18"/>
<text text-anchor="middle" x="208.79" y="-14.3" font-family="Times,serif" font-size="14.00">अ&#45;प्रतिष्ठम् (2)</text>
</a>
</g>
</g>
<!-- 3 -->
<g id="node3" class="node">
<title>3</title>
<g id="a_node3"><a xlink:title="तद्{पुं}{1;बहु}">
<ellipse fill="#00bfff" stroke="#00bfff" cx="442.79" cy="-105" rx="32.49" ry="18"/>
<text text-anchor="middle" x="442.79" y="-101.3" font-family="Times,serif" font-size="14.00">ते (3)</text>
</a>
</g>
</g>
<!-- 4 -->
<g id="node4" class="node">
<title>4</title>
<g id="a_node4"><a xlink:title="जगत्{नपुं}{1;एक}">
<ellipse fill="#00bfff" stroke="#00bfff" cx="147.79" cy="-105" rx="46.29" ry="18"/>
<text text-anchor="middle" x="147.79" y="-101.3" font-family="Times,serif" font-size="14.00">जगत् (4)</text>
</a>
</g>
</g>
<!-- 5 -->
<g id="node5" class="node">
<title>5</title>
<g id="a_node5"><a xlink:title="ब्रू1{कर्तरि;लट्;प्र;बहु;परस्मैपदी;ब्रूञ्;अदादिः}">
<ellipse fill="#ff6347" stroke="#ff6347" cx="495.79" cy="-192" rx="44.39" ry="18"/>
<text text-anchor="middle" x="495.79" y="-188.3" font-family="Times,serif" font-size="14.00">आहुः (5)</text>
</a>
</g>
</g>
<!-- 5&#45;&gt;3 -->
<g id="edge3" class="edge">
<title>5&#45;&gt;3</title>
<path fill="none" stroke="black" d="M485.32,-174.21C477.6,-161.82 466.97,-144.78 458.27,-130.82"/>
<polygon fill="black" stroke="black" points="461.15,-128.82 452.88,-122.18 455.21,-132.52 461.15,-128.82"/>
<text text-anchor="middle" x="485.29" y="-144.8" font-family="Times,serif" font-size="14.00">कर्ता</text>
</g>
<!-- 7.2 -->
<g id="node9" class="node">
<title>7.2</title>
<g id="a_node9"><a xlink:title="(अस्2{कर्तरि;लट्;प्र;एक;परस्मैपदी;असँ;अदादिः})">
<ellipse fill="#ff6347" stroke="#ff6347" cx="556.79" cy="-105" rx="63.09" ry="18"/>
<text text-anchor="middle" x="556.79" y="-101.3" font-family="Times,serif" font-size="14.00">(अस्ति) (7.2)</text>
</a>
</g>
</g>
<!-- 5&#45;&gt;7.2 -->
<g id="edge8" class="edge">
<title>5&#45;&gt;7.2</title>
<path fill="none" stroke="black" d="M507.56,-174.61C516.39,-162.31 528.64,-145.23 538.71,-131.2"/>
<polygon fill="black" stroke="black" points="541.66,-133.09 544.65,-122.92 535.98,-129 541.66,-133.09"/>
<text text-anchor="middle" x="555.29" y="-144.8" font-family="Times,serif" font-size="14.00">वाक्यकर्म</text>
</g>
<!-- 6 -->
<g id="node6" class="node">
<title>6</title>
<g id="a_node6"><a xlink:title="न&#45;ईश्वर{नपुं}{1;एक}">
<ellipse fill="#00bfff" stroke="#00bfff" cx="364.79" cy="-18" rx="67.69" ry="18"/>
<text text-anchor="middle" x="364.79" y="-14.3" font-family="Times,serif" font-size="14.00">अन्&#45;ईश्वरम् (6)</text>
</a>
</g>
</g>
<!-- 7 -->
<g id="node7" class="node">
<title>7</title>
<g id="a_node7"><a xlink:title="अपरस्पर&#45;सम्भूत{नपुं}{1;एक}">
<ellipse fill="#00bfff" stroke="#00bfff" cx="301.79" cy="-105" rx="90.18" ry="18"/>
<text text-anchor="middle" x="301.79" y="-101.3" font-family="Times,serif" font-size="14.00">अपरः&#45;पर&#45;सम्भूतम् (7)</text>
</a>
</g>
</g>
<!-- 7&#45;&gt;1 -->
<g id="edge1" class="edge">
<title>7&#45;&gt;1</title>
<path fill="none" stroke="black" d="M233.81,-93.02C206.54,-87.47 175.15,-79.61 147.79,-69 128.31,-61.44 107.93,-50.11 91.69,-40.14"/>
<polygon fill="black" stroke="black" points="93.46,-37.12 83.13,-34.78 89.75,-43.05 93.46,-37.12"/>
<text text-anchor="middle" x="188.29" y="-57.8" font-family="Times,serif" font-size="14.00">सुप्_समुच्चितः</text>
</g>
<!-- 7&#45;&gt;2 -->
<g id="edge2" class="edge">
<title>7&#45;&gt;2</title>
<path fill="none" stroke="black" d="M270.63,-87.91C261.77,-82.55 252.45,-76.11 244.79,-69 237.12,-61.87 230.04,-52.87 224.24,-44.48"/>
<polygon fill="black" stroke="black" points="227.11,-42.47 218.67,-36.06 221.27,-46.34 227.11,-42.47"/>
<text text-anchor="middle" x="285.29" y="-57.8" font-family="Times,serif" font-size="14.00">सुप्_समुच्चितः</text>
</g>
<!-- 7&#45;&gt;6 -->
<g id="edge5" class="edge">
<title>7&#45;&gt;6</title>
<path fill="none" stroke="black" d="M314.54,-86.8C323.65,-74.51 336.06,-57.77 346.26,-44.01"/>
<polygon fill="black" stroke="black" points="349.14,-46 352.28,-35.89 343.51,-41.84 349.14,-46"/>
<text text-anchor="middle" x="378.29" y="-57.8" font-family="Times,serif" font-size="14.00">सुप्_समुच्चितः</text>
</g>
<!-- 7.1 -->
<g id="node8" class="node">
<title>7.1</title>
<g id="a_node8"><a xlink:title="(च{अव्य})">
<ellipse fill="#ff00ff" stroke="#ff00ff" cx="498.79" cy="-18" rx="48.99" ry="18"/>
<text text-anchor="middle" x="498.79" y="-14.3" font-family="Times,serif" font-size="14.00">(च) (7.1)</text>
</a>
</g>
</g>
<!-- 7&#45;&gt;7.1 -->
<g id="edge7" class="edge">
<title>7&#45;&gt;7.1</title>
<path fill="none" stroke="black" d="M359.4,-91.13C379.9,-85.57 402.83,-78.2 422.79,-69 439.54,-61.28 456.83,-50.2 470.67,-40.43"/>
<polygon fill="black" stroke="black" points="472.75,-43.25 478.81,-34.56 468.65,-37.57 472.75,-43.25"/>
<text text-anchor="middle" x="492.29" y="-57.8" font-family="Times,serif" font-size="14.00">समुच्चयद्योतकः</text>
</g>
<!-- 8 -->
<g id="node10" class="node">
<title>8</title>
<g id="a_node10"><a xlink:title="किम्{नपुं}{2;एक}">
<ellipse fill="#7cfc00" stroke="#7cfc00" cx="679.79" cy="-105" rx="41.69" ry="18"/>
<text text-anchor="middle" x="679.79" y="-101.3" font-family="Times,serif" font-size="14.00">किम् (8)</text>
</a>
</g>
</g>
<!-- 9 -->
<g id="node11" class="node">
<title>9</title>
<g id="a_node11"><a xlink:title="अन्य{नपुं}{2;एक}">
<ellipse fill="#7cfc00" stroke="#7cfc00" cx="679.79" cy="-18" rx="50.09" ry="18"/>
<text text-anchor="middle" x="679.79" y="-14.3" font-family="Times,serif" font-size="14.00">अन्यत् (9)</text>
</a>
</g>
</g>
<!-- 8&#45;&gt;9 -->
<g id="edge10" class="edge">
<title>8&#45;&gt;9</title>
<path fill="none" stroke="black" d="M679.79,-86.8C679.79,-75.16 679.79,-59.55 679.79,-46.24"/>
<polygon fill="black" stroke="black" points="683.29,-46.18 679.79,-36.18 676.29,-46.18 683.29,-46.18"/>
<text text-anchor="middle" x="705.29" y="-57.8" font-family="Times,serif" font-size="14.00">विशेषणम्</text>
</g>
<!-- 10 -->
<g id="node12" class="node">
<title>10</title>
<g id="a_node12"><a xlink:title="काम&#45;हैतुक{नपुं}{1;एक}">
<ellipse fill="#00bfff" stroke="#00bfff" cx="813.79" cy="-105" rx="74.99" ry="18"/>
<text text-anchor="middle" x="813.79" y="-101.3" font-family="Times,serif" font-size="14.00">काम&#45;हैतुकम् (10)</text>
</a>
</g>
</g>
<!-- 10.1 -->
<g id="node13" class="node">
<title>10.1</title>
<g id="a_node13"><a xlink:title="(अस्2{कर्तरि;लट्;प्र;एक;परस्मैपदी;असँ;अदादिः})">
<ellipse fill="#ff6347" stroke="#ff6347" cx="749.79" cy="-192" rx="68.79" ry="18"/>
<text text-anchor="middle" x="749.79" y="-188.3" font-family="Times,serif" font-size="14.00">(अस्ति) (10.1)</text>
</a>
</g>
</g>
<!-- 10.1&#45;&gt;8 -->
<g id="edge9" class="edge">
<title>10.1&#45;&gt;8</title>
<path fill="none" stroke="black" d="M708.16,-177.55C698.28,-172.37 688.86,-165.36 682.79,-156 678.46,-149.3 676.84,-140.98 676.56,-133.06"/>
<polygon fill="black" stroke="black" points="680.06,-133.14 676.83,-123.05 673.06,-132.95 680.06,-133.14"/>
<text text-anchor="middle" x="734.79" y="-144.8" font-family="Times,serif" font-size="14.00">कर्तृसमानाधिकरणम्</text>
</g>
<!-- 10.1&#45;&gt;10 -->
<g id="edge11" class="edge">
<title>10.1&#45;&gt;10</title>
<path fill="none" stroke="black" d="M772.32,-174.77C778.84,-169.32 785.6,-162.87 790.79,-156 796.12,-148.96 800.6,-140.48 804.15,-132.53"/>
<polygon fill="black" stroke="black" points="807.41,-133.79 808.01,-123.21 800.95,-131.11 807.41,-133.79"/>
<text text-anchor="middle" x="811.29" y="-144.8" font-family="Times,serif" font-size="14.00">कर्ता</text>
</g>
<!-- 6.2 -->
<g id="node14" class="node">
<title>6.2</title>
<ellipse fill="lightgrey" stroke="black" cx="224.79" cy="-192" rx="27" ry="18"/>
<text text-anchor="middle" x="224.79" y="-188.3" font-family="Times,serif" font-size="14.00">6.2</text>
</g>
<!-- 6.2&#45;&gt;4 -->
<g id="edge4" class="edge">
<title>6.2&#45;&gt;4</title>
<path fill="none" stroke="black" d="M211.38,-176.19C199.82,-163.43 182.91,-144.77 169.44,-129.89"/>
<polygon fill="black" stroke="black" points="171.67,-127.14 162.36,-122.08 166.48,-131.84 171.67,-127.14"/>
<text text-anchor="middle" x="204.29" y="-144.8" font-family="Times,serif" font-size="14.00">कर्ता</text>
</g>
<!-- 6.2&#45;&gt;7 -->
<g id="edge6" class="edge">
<title>6.2&#45;&gt;7</title>
<path fill="none" stroke="black" d="M238.21,-176.19C249.55,-163.67 266.04,-145.47 279.38,-130.74"/>
<polygon fill="black" stroke="black" points="282.3,-132.73 286.42,-122.97 277.11,-128.03 282.3,-132.73"/>
<text text-anchor="middle" x="320.79" y="-144.8" font-family="Times,serif" font-size="14.00">कर्तृसमानाधिकरणम्</text>
</g>
</g>
</svg>
