<?xml version="1.0" encoding="UTF-8" standalone="no"?>
<!DOCTYPE svg PUBLIC "-//W3C//DTD SVG 1.1//EN"
 "http://www.w3.org/Graphics/SVG/1.1/DTD/svg11.dtd">
<!-- Generated by graphviz version 2.43.0 (0)
 -->
<!-- Title: %3 Pages: 1 -->
<svg width="1074pt" height="218pt"
 viewBox="0.00 0.00 1074.49 218.00" xmlns="http://www.w3.org/2000/svg" xmlns:xlink="http://www.w3.org/1999/xlink">
<g id="graph0" class="graph" transform="scale(1 1) rotate(0) translate(4 214)">
<title>%3</title>
<polygon fill="#fffacd" stroke="transparent" points="-4,4 -4,-214 1070.49,-214 1070.49,4 -4,4"/>
<!-- 1 -->
<g id="node1" class="node">
<title>1</title>
<g id="a_node1"><a xlink:title="न&#45;देश&#45;काल{पुं}{7;एक}">
<ellipse fill="#708090" stroke="#708090" cx="69.54" cy="-105" rx="69.59" ry="18"/>
<text text-anchor="middle" x="69.54" y="-101.3" font-family="Times,serif" font-size="14.00">अ&#45;देश&#45;काले (1)</text>
</a>
</g>
</g>
<!-- 2 -->
<g id="node2" class="node">
<title>2</title>
<g id="a_node2"><a xlink:title="यद्{नपुं}{2;एक}">
<ellipse fill="#7cfc00" stroke="#7cfc00" cx="202.54" cy="-18" rx="38.19" ry="18"/>
<text text-anchor="middle" x="202.54" y="-14.3" font-family="Times,serif" font-size="14.00">यत् (2)</text>
</a>
</g>
</g>
<!-- 3 -->
<g id="node3" class="node">
<title>3</title>
<g id="a_node3"><a xlink:title="दान{नपुं}{2;एक}">
<ellipse fill="#7cfc00" stroke="#7cfc00" cx="202.54" cy="-105" rx="45.49" ry="18"/>
<text text-anchor="middle" x="202.54" y="-101.3" font-family="Times,serif" font-size="14.00">दानम् (3)</text>
</a>
</g>
</g>
<!-- 3&#45;&gt;2 -->
<g id="edge2" class="edge">
<title>3&#45;&gt;2</title>
<path fill="none" stroke="black" d="M202.54,-86.8C202.54,-75.16 202.54,-59.55 202.54,-46.24"/>
<polygon fill="black" stroke="black" points="206.04,-46.18 202.54,-36.18 199.04,-46.18 206.04,-46.18"/>
<text text-anchor="middle" x="228.04" y="-57.8" font-family="Times,serif" font-size="14.00">विशेषणम्</text>
</g>
<!-- 4 -->
<g id="node4" class="node">
<title>4</title>
<g id="a_node4"><a xlink:title="अपात्र{नपुं}{4;बहु}">
<ellipse fill="#87cefa" stroke="#87cefa" cx="335.54" cy="-105" rx="69.59" ry="18"/>
<text text-anchor="middle" x="335.54" y="-101.3" font-family="Times,serif" font-size="14.00">अ&#45;पात्रेभ्यः (4)</text>
</a>
</g>
</g>
<!-- 5 -->
<g id="node5" class="node">
<title>5</title>
<g id="a_node5"><a xlink:title="च{अव्य}">
<ellipse fill="#ff00ff" stroke="#ff00ff" cx="456.54" cy="-105" rx="33.29" ry="18"/>
<text text-anchor="middle" x="456.54" y="-101.3" font-family="Times,serif" font-size="14.00">च (5)</text>
</a>
</g>
</g>
<!-- 6 -->
<g id="node6" class="node">
<title>6</title>
<g id="a_node6"><a xlink:title="दा3{कर्मणि;लट्;प्र;एक;आत्मनेपदी;डुदाञ्;जुहोत्यादिः}">
<ellipse fill="#ff6347" stroke="#ff6347" cx="396.54" cy="-192" rx="46.29" ry="18"/>
<text text-anchor="middle" x="396.54" y="-188.3" font-family="Times,serif" font-size="14.00">दीयते (6)</text>
</a>
</g>
</g>
<!-- 6&#45;&gt;1 -->
<g id="edge1" class="edge">
<title>6&#45;&gt;1</title>
<path fill="none" stroke="black" d="M354.99,-183.97C319.76,-177.68 268,-167.67 223.54,-156 187.88,-146.64 148.33,-133.74 118.24,-123.39"/>
<polygon fill="black" stroke="black" points="119.02,-119.96 108.42,-119.99 116.72,-126.57 119.02,-119.96"/>
<text text-anchor="middle" x="254.04" y="-144.8" font-family="Times,serif" font-size="14.00">अधिकरणम्</text>
</g>
<!-- 6&#45;&gt;3 -->
<g id="edge3" class="edge">
<title>6&#45;&gt;3</title>
<path fill="none" stroke="black" d="M367.08,-178.09C333.51,-163.38 278.52,-139.29 241.45,-123.05"/>
<polygon fill="black" stroke="black" points="242.53,-119.7 231.97,-118.89 239.72,-126.11 242.53,-119.7"/>
<text text-anchor="middle" x="321.54" y="-144.8" font-family="Times,serif" font-size="14.00">कर्म</text>
</g>
<!-- 6&#45;&gt;4 -->
<g id="edge4" class="edge">
<title>6&#45;&gt;4</title>
<path fill="none" stroke="black" d="M376.89,-175.58C370.49,-169.9 363.71,-163.11 358.54,-156 353.35,-148.86 348.91,-140.36 345.35,-132.41"/>
<polygon fill="black" stroke="black" points="348.55,-130.99 341.46,-123.11 342.1,-133.69 348.55,-130.99"/>
<text text-anchor="middle" x="389.04" y="-144.8" font-family="Times,serif" font-size="14.00">सम्प्रदानम्</text>
</g>
<!-- 6&#45;&gt;5 -->
<g id="edge5" class="edge">
<title>6&#45;&gt;5</title>
<path fill="none" stroke="black" d="M408.4,-174.21C417.22,-161.71 429.4,-144.45 439.3,-130.43"/>
<polygon fill="black" stroke="black" points="442.21,-132.37 445.12,-122.18 436.5,-128.33 442.21,-132.37"/>
<text text-anchor="middle" x="453.54" y="-144.8" font-family="Times,serif" font-size="14.00">सम्बन्धः</text>
</g>
<!-- 7 -->
<g id="node7" class="node">
<title>7</title>
<g id="a_node7"><a xlink:title="न&#45;सत्कृत{नपुं}{2;एक}">
<ellipse fill="#7cfc00" stroke="#7cfc00" cx="573.54" cy="-105" rx="65.79" ry="18"/>
<text text-anchor="middle" x="573.54" y="-101.3" font-family="Times,serif" font-size="14.00">अ&#45;सत्कृतम् (7)</text>
</a>
</g>
</g>
<!-- 6&#45;&gt;7 -->
<g id="edge6" class="edge">
<title>6&#45;&gt;7</title>
<path fill="none" stroke="black" d="M427.98,-178.76C443.9,-172.34 463.42,-164.14 480.54,-156 499.54,-146.96 520.19,-135.98 537.2,-126.61"/>
<polygon fill="black" stroke="black" points="539.19,-129.51 546.24,-121.6 535.8,-123.39 539.19,-129.51"/>
<text text-anchor="middle" x="560.54" y="-144.8" font-family="Times,serif" font-size="14.00">कर्मसमानाधिकरणम्</text>
</g>
<!-- 8 -->
<g id="node8" class="node">
<title>8</title>
<g id="a_node8"><a xlink:title="अव_ज्ञा1{कृत्_प्रत्ययः:क्त;अव_ज्ञा;भ्वादिः;नपुं}{2;एक}">
<ellipse fill="#7cfc00" stroke="#7cfc00" cx="717.54" cy="-105" rx="60.39" ry="18"/>
<text text-anchor="middle" x="717.54" y="-101.3" font-family="Times,serif" font-size="14.00">अवज्ञातम् (8)</text>
</a>
</g>
</g>
<!-- 6&#45;&gt;8 -->
<g id="edge7" class="edge">
<title>6&#45;&gt;8</title>
<path fill="none" stroke="black" d="M441.71,-187.82C486.84,-183.72 557.77,-174.74 616.54,-156 639.61,-148.64 663.98,-136.72 683,-126.35"/>
<polygon fill="black" stroke="black" points="684.84,-129.34 691.88,-121.42 681.44,-123.22 684.84,-129.34"/>
<text text-anchor="middle" x="705.54" y="-144.8" font-family="Times,serif" font-size="14.00">कर्मसमानाधिकरणम्</text>
</g>
<!-- 9 -->
<g id="node9" class="node">
<title>9</title>
<g id="a_node9"><a xlink:title="तद्{नपुं}{2;एक}">
<ellipse fill="#7cfc00" stroke="#7cfc00" cx="999.54" cy="-18" rx="38.19" ry="18"/>
<text text-anchor="middle" x="999.54" y="-14.3" font-family="Times,serif" font-size="14.00">तत् (9)</text>
</a>
</g>
</g>
<!-- 10 -->
<g id="node10" class="node">
<title>10</title>
<g id="a_node10"><a xlink:title="तामस{नपुं}{2;एक}">
<ellipse fill="#7cfc00" stroke="#7cfc00" cx="855.54" cy="-105" rx="59.29" ry="18"/>
<text text-anchor="middle" x="855.54" y="-101.3" font-family="Times,serif" font-size="14.00">तामसम् (10)</text>
</a>
</g>
</g>
<!-- 11 -->
<g id="node11" class="node">
<title>11</title>
<g id="a_node11"><a xlink:title="उत्_आङ्_हृ1{कृत्_प्रत्ययः:क्त;उत्_आङ्_हृञ्;भ्वादिः;नपुं}{1;एक}">
<ellipse fill="#00bfff" stroke="#00bfff" cx="922.54" cy="-192" rx="63.89" ry="18"/>
<text text-anchor="middle" x="922.54" y="-188.3" font-family="Times,serif" font-size="14.00">उदाहृतम् (11)</text>
</a>
</g>
</g>
<!-- 11&#45;&gt;10 -->
<g id="edge9" class="edge">
<title>11&#45;&gt;10</title>
<path fill="none" stroke="black" d="M888.28,-176.76C879.3,-171.48 870.48,-164.62 864.54,-156 859.95,-149.33 857.5,-141.02 856.24,-133.1"/>
<polygon fill="black" stroke="black" points="859.71,-132.66 855.19,-123.08 852.75,-133.39 859.71,-132.66"/>
<text text-anchor="middle" x="916.54" y="-144.8" font-family="Times,serif" font-size="14.00">कर्मसमानाधिकरणम्</text>
</g>
<!-- 11.1 -->
<g id="node12" class="node">
<title>11.1</title>
<g id="a_node12"><a xlink:title="(दा3{कृत्_प्रत्ययः:ल्युट्;डुदाञ्;जुहोत्यादिः;नपुं}{2;एक})">
<ellipse fill="#7cfc00" stroke="#7cfc00" cx="999.54" cy="-105" rx="66.89" ry="18"/>
<text text-anchor="middle" x="999.54" y="-101.3" font-family="Times,serif" font-size="14.00">(दानम्) (11.1)</text>
</a>
</g>
</g>
<!-- 11&#45;&gt;11.1 -->
<g id="edge10" class="edge">
<title>11&#45;&gt;11.1</title>
<path fill="none" stroke="black" d="M946.87,-175.08C954.31,-169.55 962.2,-162.98 968.54,-156 975.03,-148.86 980.95,-140.18 985.84,-132.07"/>
<polygon fill="black" stroke="black" points="988.95,-133.69 990.9,-123.27 982.88,-130.2 988.95,-133.69"/>
<text text-anchor="middle" x="988.54" y="-144.8" font-family="Times,serif" font-size="14.00">कर्म</text>
</g>
<!-- 11.1&#45;&gt;9 -->
<g id="edge8" class="edge">
<title>11.1&#45;&gt;9</title>
<path fill="none" stroke="black" d="M999.54,-86.8C999.54,-75.16 999.54,-59.55 999.54,-46.24"/>
<polygon fill="black" stroke="black" points="1003.04,-46.18 999.54,-36.18 996.04,-46.18 1003.04,-46.18"/>
<text text-anchor="middle" x="1025.04" y="-57.8" font-family="Times,serif" font-size="14.00">विशेषणम्</text>
</g>
</g>
</svg>
