<?xml version="1.0" encoding="UTF-8" standalone="no"?>
<!DOCTYPE svg PUBLIC "-//W3C//DTD SVG 1.1//EN"
 "http://www.w3.org/Graphics/SVG/1.1/DTD/svg11.dtd">
<!-- Generated by graphviz version 2.43.0 (0)
 -->
<!-- Title: %3 Pages: 1 -->
<svg width="656pt" height="392pt"
 viewBox="0.00 0.00 656.14 392.00" xmlns="http://www.w3.org/2000/svg" xmlns:xlink="http://www.w3.org/1999/xlink">
<g id="graph0" class="graph" transform="scale(1 1) rotate(0) translate(4 388)">
<title>%3</title>
<polygon fill="#fffacd" stroke="transparent" points="-4,4 -4,-388 652.14,-388 652.14,4 -4,4"/>
<!-- 1 -->
<g id="node1" class="node">
<title>1</title>
<g id="a_node1"><a xlink:title="तद्{नपुं}{1;एक}">
<ellipse fill="#00bfff" stroke="#00bfff" cx="38.35" cy="-279" rx="38.19" ry="18"/>
<text text-anchor="middle" x="38.35" y="-275.3" font-family="Times,serif" font-size="14.00">तत् (1)</text>
</a>
</g>
</g>
<!-- 2 -->
<g id="node2" class="node">
<title>2</title>
<g id="a_node2"><a xlink:title="इति{अव्य}">
<ellipse fill="#ff00ff" stroke="#ff00ff" cx="135.35" cy="-279" rx="40.09" ry="18"/>
<text text-anchor="middle" x="135.35" y="-275.3" font-family="Times,serif" font-size="14.00">इति (2)</text>
</a>
</g>
</g>
<!-- 3 -->
<g id="node3" class="node">
<title>3</title>
<g id="a_node3"><a xlink:title="न&#45;अभिसन्ध{पुं}{4;एक}">
<ellipse fill="#87cefa" stroke="#87cefa" cx="430.35" cy="-279" rx="83.39" ry="18"/>
<text text-anchor="middle" x="430.35" y="-275.3" font-family="Times,serif" font-size="14.00">अन्&#45;अभिसन्धाय (3)</text>
</a>
</g>
</g>
<!-- 4 -->
<g id="node4" class="node">
<title>4</title>
<g id="a_node4"><a xlink:title="फल{नपुं}{1;एक}">
<ellipse fill="#00bfff" stroke="#00bfff" cx="386.35" cy="-192" rx="46.29" ry="18"/>
<text text-anchor="middle" x="386.35" y="-188.3" font-family="Times,serif" font-size="14.00">फलम् (4)</text>
</a>
</g>
</g>
<!-- 3&#45;&gt;4 -->
<g id="edge4" class="edge">
<title>3&#45;&gt;4</title>
<path fill="none" stroke="black" d="M421.44,-260.8C415.2,-248.74 406.74,-232.4 399.7,-218.79"/>
<polygon fill="black" stroke="black" points="402.79,-217.16 395.09,-209.89 396.58,-220.38 402.79,-217.16"/>
<text text-anchor="middle" x="420.35" y="-231.8" font-family="Times,serif" font-size="14.00">कर्म</text>
</g>
<!-- 10 -->
<g id="node10" class="node">
<title>10</title>
<g id="a_node10"><a xlink:title="मोक्ष&#45;आकाङ्क्षिन्{पुं}{3;बहु}">
<ellipse fill="#40e0d0" stroke="#40e0d0" cx="549.35" cy="-192" rx="98.58" ry="18"/>
<text text-anchor="middle" x="549.35" y="-188.3" font-family="Times,serif" font-size="14.00">मोक्ष&#45;आकाङ्क्षिभिः (10)</text>
</a>
</g>
</g>
<!-- 3&#45;&gt;10 -->
<g id="edge10" class="edge">
<title>3&#45;&gt;10</title>
<path fill="none" stroke="black" stroke-dasharray="1,5" d="M453.29,-261.61C471.61,-248.53 497.48,-230.05 517.76,-215.56"/>
<polygon fill="black" stroke="black" points="519.96,-218.29 526.07,-209.63 515.89,-212.59 519.96,-218.29"/>
<text text-anchor="middle" x="508.85" y="-231.8" font-family="Times,serif" font-size="14.00">कर्ता</text>
</g>
<!-- 5 -->
<g id="node5" class="node">
<title>5</title>
<g id="a_node5"><a xlink:title="यज्ञ&#45;तपस्&#45;क्रिया{स्त्री}{1;बहु}">
<ellipse fill="#00bfff" stroke="#00bfff" cx="261.35" cy="-105" rx="84.49" ry="18"/>
<text text-anchor="middle" x="261.35" y="-101.3" font-family="Times,serif" font-size="14.00">यज्ञ&#45;तपः&#45;क्रियाः (5)</text>
</a>
</g>
</g>
<!-- 8 -->
<g id="node8" class="node">
<title>8</title>
<g id="a_node8"><a xlink:title="विविधा{स्त्री}{1;बहु}">
<ellipse fill="#00bfff" stroke="#00bfff" cx="261.35" cy="-18" rx="55.79" ry="18"/>
<text text-anchor="middle" x="261.35" y="-14.3" font-family="Times,serif" font-size="14.00">विविधाः (8)</text>
</a>
</g>
</g>
<!-- 5&#45;&gt;8 -->
<g id="edge8" class="edge">
<title>5&#45;&gt;8</title>
<path fill="none" stroke="black" d="M261.35,-86.8C261.35,-75.16 261.35,-59.55 261.35,-46.24"/>
<polygon fill="black" stroke="black" points="264.85,-46.18 261.35,-36.18 257.85,-46.18 264.85,-46.18"/>
<text text-anchor="middle" x="286.85" y="-57.8" font-family="Times,serif" font-size="14.00">विशेषणम्</text>
</g>
<!-- 6 -->
<g id="node6" class="node">
<title>6</title>
<g id="a_node6"><a xlink:title="दान&#45;क्रिया{स्त्री}{1;बहु}">
<ellipse fill="#00bfff" stroke="#00bfff" cx="261.35" cy="-279" rx="67.69" ry="18"/>
<text text-anchor="middle" x="261.35" y="-275.3" font-family="Times,serif" font-size="14.00">दान&#45;क्रियाः (6)</text>
</a>
</g>
</g>
<!-- 7 -->
<g id="node7" class="node">
<title>7</title>
<g id="a_node7"><a xlink:title="च{अव्य}">
<ellipse fill="#ff00ff" stroke="#ff00ff" cx="261.35" cy="-192" rx="33.29" ry="18"/>
<text text-anchor="middle" x="261.35" y="-188.3" font-family="Times,serif" font-size="14.00">च (7)</text>
</a>
</g>
</g>
<!-- 6&#45;&gt;7 -->
<g id="edge7" class="edge">
<title>6&#45;&gt;7</title>
<path fill="none" stroke="black" d="M261.35,-260.8C261.35,-249.16 261.35,-233.55 261.35,-220.24"/>
<polygon fill="black" stroke="black" points="264.85,-220.18 261.35,-210.18 257.85,-220.18 264.85,-220.18"/>
<text text-anchor="middle" x="303.85" y="-231.8" font-family="Times,serif" font-size="14.00">समुुच्चयद्योतकः</text>
</g>
<!-- 7&#45;&gt;5 -->
<g id="edge5" class="edge">
<title>7&#45;&gt;5</title>
<path fill="none" stroke="black" d="M261.35,-173.8C261.35,-162.16 261.35,-146.55 261.35,-133.24"/>
<polygon fill="black" stroke="black" points="264.85,-133.18 261.35,-123.18 257.85,-133.18 264.85,-133.18"/>
<text text-anchor="middle" x="303.85" y="-144.8" font-family="Times,serif" font-size="14.00">सुप्_समुच्चितम्</text>
</g>
<!-- 9 -->
<g id="node9" class="node">
<title>9</title>
<g id="a_node9"><a xlink:title="कृ3{कर्मणि;लट्;प्र;बहु;आत्मनेपदी;डुकृञ्;तनादिः}">
<ellipse fill="#ff6347" stroke="#ff6347" cx="430.35" cy="-366" rx="55.49" ry="18"/>
<text text-anchor="middle" x="430.35" y="-362.3" font-family="Times,serif" font-size="14.00">क्रियन्ते (9)</text>
</a>
</g>
</g>
<!-- 9&#45;&gt;3 -->
<g id="edge3" class="edge">
<title>9&#45;&gt;3</title>
<path fill="none" stroke="black" d="M430.35,-347.8C430.35,-336.16 430.35,-320.55 430.35,-307.24"/>
<polygon fill="black" stroke="black" points="433.85,-307.18 430.35,-297.18 426.85,-307.18 433.85,-307.18"/>
<text text-anchor="middle" x="454.85" y="-318.8" font-family="Times,serif" font-size="14.00">पूर्वकालः</text>
</g>
<!-- 9&#45;&gt;6 -->
<g id="edge6" class="edge">
<title>9&#45;&gt;6</title>
<path fill="none" stroke="black" d="M401.68,-350.58C373.94,-336.63 331.68,-315.37 300.78,-299.83"/>
<polygon fill="black" stroke="black" points="302.09,-296.57 291.58,-295.21 298.94,-302.83 302.09,-296.57"/>
<text text-anchor="middle" x="365.35" y="-318.8" font-family="Times,serif" font-size="14.00">कर्म</text>
</g>
<!-- 9&#45;&gt;10 -->
<g id="edge9" class="edge">
<title>9&#45;&gt;10</title>
<path fill="none" stroke="black" d="M459.9,-350.76C480.67,-339.19 507.33,-320.88 522.35,-297 537.11,-273.52 543.83,-242.24 546.87,-220.13"/>
<polygon fill="black" stroke="black" points="550.36,-220.44 548.09,-210.09 543.41,-219.6 550.36,-220.44"/>
<text text-anchor="middle" x="549.85" y="-275.3" font-family="Times,serif" font-size="14.00">कर्ता</text>
</g>
<!--  3 -->
<g id="node11" class="node">
<title> 3</title>
<ellipse fill="lightgrey" stroke="black" cx="87.35" cy="-366" rx="27" ry="18"/>
<text text-anchor="middle" x="87.35" y="-362.3" font-family="Times,serif" font-size="14.00"> 3</text>
</g>
<!--  3&#45;&gt;1 -->
<g id="edge1" class="edge">
<title> 3&#45;&gt;1</title>
<path fill="none" stroke="black" d="M78.13,-349.01C71.03,-336.7 61.09,-319.46 52.92,-305.28"/>
<polygon fill="black" stroke="black" points="55.88,-303.41 47.86,-296.5 49.82,-306.91 55.88,-303.41"/>
<text text-anchor="middle" x="76.35" y="-318.8" font-family="Times,serif" font-size="14.00">कर्म</text>
</g>
<!--  3&#45;&gt;2 -->
<g id="edge2" class="edge">
<title> 3&#45;&gt;2</title>
<path fill="none" stroke="black" d="M96.38,-349.01C103.28,-336.78 112.94,-319.68 120.91,-305.56"/>
<polygon fill="black" stroke="black" points="124,-307.22 125.87,-296.79 117.9,-303.78 124,-307.22"/>
<text text-anchor="middle" x="144.35" y="-318.8" font-family="Times,serif" font-size="14.00">कर्मद्योतकः</text>
</g>
</g>
</svg>
