<?xml version="1.0" encoding="UTF-8" standalone="no"?>
<!DOCTYPE svg PUBLIC "-//W3C//DTD SVG 1.1//EN"
 "http://www.w3.org/Graphics/SVG/1.1/DTD/svg11.dtd">
<!-- Generated by graphviz version 2.43.0 (0)
 -->
<!-- Title: %3 Pages: 1 -->
<svg width="1162pt" height="218pt"
 viewBox="0.00 0.00 1161.54 218.00" xmlns="http://www.w3.org/2000/svg" xmlns:xlink="http://www.w3.org/1999/xlink">
<g id="graph0" class="graph" transform="scale(1 1) rotate(0) translate(4 214)">
<title>%3</title>
<polygon fill="#fffacd" stroke="transparent" points="-4,4 -4,-214 1157.54,-214 1157.54,4 -4,4"/>
<!-- 1 -->
<g id="node1" class="node">
<title>1</title>
<g id="a_node1"><a xlink:title="यज्ञ{पुं}{7;एक}">
<ellipse fill="#708090" stroke="#708090" cx="39" cy="-18" rx="38.99" ry="18"/>
<text text-anchor="middle" x="39" y="-14.3" font-family="Times,serif" font-size="14.00">यज्ञे (1)</text>
</a>
</g>
</g>
<!-- 2 -->
<g id="node2" class="node">
<title>2</title>
<g id="a_node2"><a xlink:title="तपस्{नपुं}{7;एक}">
<ellipse fill="#708090" stroke="#708090" cx="142" cy="-18" rx="46.29" ry="18"/>
<text text-anchor="middle" x="142" y="-14.3" font-family="Times,serif" font-size="14.00">तपसि (2)</text>
</a>
</g>
</g>
<!-- 3 -->
<g id="node3" class="node">
<title>3</title>
<g id="a_node3"><a xlink:title="दान{नपुं}{7;एक}">
<ellipse fill="#708090" stroke="#708090" cx="166" cy="-105" rx="39.79" ry="18"/>
<text text-anchor="middle" x="166" y="-101.3" font-family="Times,serif" font-size="14.00">दाने (3)</text>
</a>
</g>
</g>
<!-- 3&#45;&gt;1 -->
<g id="edge1" class="edge">
<title>3&#45;&gt;1</title>
<path fill="none" stroke="black" d="M128.6,-98.94C106.95,-94.32 80.42,-85.56 62,-69 55.05,-62.76 50.06,-53.99 46.53,-45.54"/>
<polygon fill="black" stroke="black" points="49.75,-44.14 43.05,-35.93 43.17,-46.53 49.75,-44.14"/>
<text text-anchor="middle" x="99.5" y="-57.8" font-family="Times,serif" font-size="14.00">सुप्समुच्चितम्</text>
</g>
<!-- 3&#45;&gt;2 -->
<g id="edge2" class="edge">
<title>3&#45;&gt;2</title>
<path fill="none" stroke="black" d="M152.7,-87.89C148.82,-82.26 145.06,-75.67 143,-69 140.76,-61.79 139.93,-53.7 139.8,-46.17"/>
<polygon fill="black" stroke="black" points="143.31,-46.11 140.03,-36.04 136.31,-45.96 143.31,-46.11"/>
<text text-anchor="middle" x="180.5" y="-57.8" font-family="Times,serif" font-size="14.00">सुप्समुच्चितम्</text>
</g>
<!-- 4 -->
<g id="node4" class="node">
<title>4</title>
<g id="a_node4"><a xlink:title="च{अव्य}">
<ellipse fill="#ff00ff" stroke="#ff00ff" cx="240" cy="-18" rx="33.29" ry="18"/>
<text text-anchor="middle" x="240" y="-14.3" font-family="Times,serif" font-size="14.00">च (4)</text>
</a>
</g>
</g>
<!-- 3&#45;&gt;4 -->
<g id="edge4" class="edge">
<title>3&#45;&gt;4</title>
<path fill="none" stroke="black" d="M191.28,-90.98C200.6,-85.23 210.67,-77.77 218,-69 223.71,-62.17 228.19,-53.63 231.57,-45.55"/>
<polygon fill="black" stroke="black" points="234.89,-46.66 235.16,-36.07 228.35,-44.18 234.89,-46.66"/>
<text text-anchor="middle" x="269.5" y="-57.8" font-family="Times,serif" font-size="14.00">समुच्चयद्योतकः</text>
</g>
<!-- 5 -->
<g id="node5" class="node">
<title>5</title>
<g id="a_node5"><a xlink:title="स्थिति{स्त्री}{1;एक}">
<ellipse fill="#00bfff" stroke="#00bfff" cx="300" cy="-105" rx="51.99" ry="18"/>
<text text-anchor="middle" x="300" y="-101.3" font-family="Times,serif" font-size="14.00">स्थितिः (5)</text>
</a>
</g>
</g>
<!-- 5.1 -->
<g id="node6" class="node">
<title>5.1</title>
<g id="a_node6"><a xlink:title="(यद्{स्त्री}{1;एक})">
<ellipse fill="#00bfff" stroke="#00bfff" cx="348" cy="-18" rx="50.89" ry="18"/>
<text text-anchor="middle" x="348" y="-14.3" font-family="Times,serif" font-size="14.00">(या) (5.1)</text>
</a>
</g>
</g>
<!-- 5&#45;&gt;5.1 -->
<g id="edge6" class="edge">
<title>5&#45;&gt;5.1</title>
<path fill="none" stroke="black" d="M313.49,-87.44C317.77,-81.77 322.34,-75.28 326,-69 330.29,-61.62 334.28,-53.25 337.65,-45.5"/>
<polygon fill="black" stroke="black" points="340.94,-46.71 341.57,-36.13 334.49,-44 340.94,-46.71"/>
<text text-anchor="middle" x="359.5" y="-57.8" font-family="Times,serif" font-size="14.00">विशेषणम्</text>
</g>
<!-- 5.2 -->
<g id="node7" class="node">
<title>5.2</title>
<g id="a_node7"><a xlink:title="(अस्2{कर्तरि;लट्;प्र;एक;परस्मैपदी;असँ;अदादिः})">
<ellipse fill="#ff6347" stroke="#ff6347" cx="236" cy="-192" rx="63.09" ry="18"/>
<text text-anchor="middle" x="236" y="-188.3" font-family="Times,serif" font-size="14.00">(अस्ति) (5.2)</text>
</a>
</g>
</g>
<!-- 5.2&#45;&gt;3 -->
<g id="edge3" class="edge">
<title>5.2&#45;&gt;3</title>
<path fill="none" stroke="black" d="M217.69,-174.59C211.78,-168.93 205.38,-162.41 200,-156 193.55,-148.32 187.19,-139.42 181.74,-131.27"/>
<polygon fill="black" stroke="black" points="184.62,-129.28 176.22,-122.82 178.76,-133.11 184.62,-129.28"/>
<text text-anchor="middle" x="230.5" y="-144.8" font-family="Times,serif" font-size="14.00">अधिकरणम्</text>
</g>
<!-- 5.2&#45;&gt;5 -->
<g id="edge5" class="edge">
<title>5.2&#45;&gt;5</title>
<path fill="none" stroke="black" d="M248.64,-174.21C257.93,-161.87 270.71,-144.89 281.2,-130.97"/>
<polygon fill="black" stroke="black" points="284.16,-132.85 287.38,-122.76 278.57,-128.64 284.16,-132.85"/>
<text text-anchor="middle" x="284.5" y="-144.8" font-family="Times,serif" font-size="14.00">कर्ता</text>
</g>
<!-- 6 -->
<g id="node8" class="node">
<title>6</title>
<g id="a_node8"><a xlink:title="सत्{नपुं}{1;एक}">
<ellipse fill="#00bfff" stroke="#00bfff" cx="457" cy="-105" rx="38.99" ry="18"/>
<text text-anchor="middle" x="457" y="-101.3" font-family="Times,serif" font-size="14.00">सत् (6)</text>
</a>
</g>
</g>
<!-- 7 -->
<g id="node9" class="node">
<title>7</title>
<g id="a_node9"><a xlink:title="इति{अव्य}">
<ellipse fill="#ff00ff" stroke="#ff00ff" cx="457" cy="-18" rx="40.09" ry="18"/>
<text text-anchor="middle" x="457" y="-14.3" font-family="Times,serif" font-size="14.00">इति (7)</text>
</a>
</g>
</g>
<!-- 6&#45;&gt;7 -->
<g id="edge8" class="edge">
<title>6&#45;&gt;7</title>
<path fill="none" stroke="black" d="M457,-86.8C457,-75.16 457,-59.55 457,-46.24"/>
<polygon fill="black" stroke="black" points="460.5,-46.18 457,-36.18 453.5,-46.18 460.5,-46.18"/>
<text text-anchor="middle" x="480" y="-57.8" font-family="Times,serif" font-size="14.00">सम्बन्धः</text>
</g>
<!-- 8 -->
<g id="node10" class="node">
<title>8</title>
<g id="a_node10"><a xlink:title="च{अव्य}">
<ellipse fill="#ff00ff" stroke="#ff00ff" cx="584" cy="-105" rx="33.29" ry="18"/>
<text text-anchor="middle" x="584" y="-101.3" font-family="Times,serif" font-size="14.00">च (8)</text>
</a>
</g>
</g>
<!-- 9 -->
<g id="node11" class="node">
<title>9</title>
<g id="a_node11"><a xlink:title="वच्1{कर्मणि;लट्;प्र;एक;आत्मनेपदी;वचँ;अदादिः}">
<ellipse fill="#ff6347" stroke="#ff6347" cx="584" cy="-192" rx="48.19" ry="18"/>
<text text-anchor="middle" x="584" y="-188.3" font-family="Times,serif" font-size="14.00">उच्यते (9)</text>
</a>
</g>
</g>
<!-- 9&#45;&gt;6 -->
<g id="edge7" class="edge">
<title>9&#45;&gt;6</title>
<path fill="none" stroke="black" d="M538.91,-185.55C517.52,-180.87 492.99,-172.17 476,-156 469.59,-149.9 465.32,-141.42 462.48,-133.17"/>
<polygon fill="black" stroke="black" points="465.8,-132.05 459.69,-123.4 459.07,-133.98 465.8,-132.05"/>
<text text-anchor="middle" x="528" y="-144.8" font-family="Times,serif" font-size="14.00">कर्मसमानाधिकरणम्</text>
</g>
<!-- 9&#45;&gt;8 -->
<g id="edge9" class="edge">
<title>9&#45;&gt;8</title>
<path fill="none" stroke="black" d="M584,-173.8C584,-162.16 584,-146.55 584,-133.24"/>
<polygon fill="black" stroke="black" points="587.5,-133.18 584,-123.18 580.5,-133.18 587.5,-133.18"/>
<text text-anchor="middle" x="607" y="-144.8" font-family="Times,serif" font-size="14.00">सम्बन्धः</text>
</g>
<!-- 9.1 -->
<g id="node12" class="node">
<title>9.1</title>
<g id="a_node12"><a xlink:title="(तद्{स्त्री}{1;एक})">
<ellipse fill="#00bfff" stroke="#00bfff" cx="686" cy="-105" rx="51.19" ry="18"/>
<text text-anchor="middle" x="686" y="-101.3" font-family="Times,serif" font-size="14.00">(सा) (9.1)</text>
</a>
</g>
</g>
<!-- 9&#45;&gt;9.1 -->
<g id="edge10" class="edge">
<title>9&#45;&gt;9.1</title>
<path fill="none" stroke="black" d="M606.94,-176.04C615.64,-170.09 625.49,-163 634,-156 643.87,-147.88 654.14,-138.28 662.92,-129.68"/>
<polygon fill="black" stroke="black" points="665.58,-131.97 670.2,-122.44 660.64,-127.01 665.58,-131.97"/>
<text text-anchor="middle" x="661" y="-144.8" font-family="Times,serif" font-size="14.00">कर्म</text>
</g>
<!-- 10 -->
<g id="node13" class="node">
<title>10</title>
<g id="a_node13"><a xlink:title="कर्मन्{नपुं}{1;एक}">
<ellipse fill="#00bfff" stroke="#00bfff" cx="800" cy="-105" rx="44.69" ry="18"/>
<text text-anchor="middle" x="800" y="-101.3" font-family="Times,serif" font-size="14.00">कर्म (10)</text>
</a>
</g>
</g>
<!-- 12 -->
<g id="node15" class="node">
<title>12</title>
<g id="a_node15"><a xlink:title="एव{अव्य}">
<ellipse fill="#ff00ff" stroke="#ff00ff" cx="695" cy="-18" rx="43.59" ry="18"/>
<text text-anchor="middle" x="695" y="-14.3" font-family="Times,serif" font-size="14.00">एव (12)</text>
</a>
</g>
</g>
<!-- 10&#45;&gt;12 -->
<g id="edge13" class="edge">
<title>10&#45;&gt;12</title>
<path fill="none" stroke="black" d="M780.74,-88.41C764.31,-75.11 740.5,-55.84 722.14,-40.97"/>
<polygon fill="black" stroke="black" points="724.11,-38.06 714.13,-34.49 719.7,-43.5 724.11,-38.06"/>
<text text-anchor="middle" x="777" y="-57.8" font-family="Times,serif" font-size="14.00">सम्बन्धः</text>
</g>
<!-- 13 -->
<g id="node16" class="node">
<title>13</title>
<g id="a_node16"><a xlink:title="तद्&#45;अर्थीय{नपुं}{1;एक}">
<ellipse fill="#00bfff" stroke="#00bfff" cx="832" cy="-18" rx="75.29" ry="18"/>
<text text-anchor="middle" x="832" y="-14.3" font-family="Times,serif" font-size="14.00">तत्&#45;अर्थीयम् (13)</text>
</a>
</g>
</g>
<!-- 10&#45;&gt;13 -->
<g id="edge14" class="edge">
<title>10&#45;&gt;13</title>
<path fill="none" stroke="black" d="M806.47,-86.8C810.9,-75.05 816.85,-59.24 821.89,-45.84"/>
<polygon fill="black" stroke="black" points="825.28,-46.77 825.53,-36.18 818.73,-44.3 825.28,-46.77"/>
<text text-anchor="middle" x="843.5" y="-57.8" font-family="Times,serif" font-size="14.00">विशेषणम्</text>
</g>
<!-- 11 -->
<g id="node14" class="node">
<title>11</title>
<g id="a_node14"><a xlink:title="च{अव्य}">
<ellipse fill="#ff00ff" stroke="#ff00ff" cx="902" cy="-105" rx="38.99" ry="18"/>
<text text-anchor="middle" x="902" y="-101.3" font-family="Times,serif" font-size="14.00">च (11)</text>
</a>
</g>
</g>
<!-- 14 -->
<g id="node17" class="node">
<title>14</title>
<g id="a_node17"><a xlink:title="सत्{नपुं}{1;एक}">
<ellipse fill="#00bfff" stroke="#00bfff" cx="1004" cy="-105" rx="44.69" ry="18"/>
<text text-anchor="middle" x="1004" y="-101.3" font-family="Times,serif" font-size="14.00">सत् (14)</text>
</a>
</g>
</g>
<!-- 15 -->
<g id="node18" class="node">
<title>15</title>
<g id="a_node18"><a xlink:title="इति{अव्य}">
<ellipse fill="#ff00ff" stroke="#ff00ff" cx="1004" cy="-18" rx="46.29" ry="18"/>
<text text-anchor="middle" x="1004" y="-14.3" font-family="Times,serif" font-size="14.00">इति (15)</text>
</a>
</g>
</g>
<!-- 14&#45;&gt;15 -->
<g id="edge16" class="edge">
<title>14&#45;&gt;15</title>
<path fill="none" stroke="black" d="M1004,-86.8C1004,-75.16 1004,-59.55 1004,-46.24"/>
<polygon fill="black" stroke="black" points="1007.5,-46.18 1004,-36.18 1000.5,-46.18 1007.5,-46.18"/>
<text text-anchor="middle" x="1027" y="-57.8" font-family="Times,serif" font-size="14.00">सम्बन्धः</text>
</g>
<!-- 16 -->
<g id="node19" class="node">
<title>16</title>
<g id="a_node19"><a xlink:title="एव{अव्य}">
<ellipse fill="#ff00ff" stroke="#ff00ff" cx="1110" cy="-105" rx="43.59" ry="18"/>
<text text-anchor="middle" x="1110" y="-101.3" font-family="Times,serif" font-size="14.00">एव (16)</text>
</a>
</g>
</g>
<!-- 17 -->
<g id="node20" class="node">
<title>17</title>
<g id="a_node20"><a xlink:title="अभि_धा1{कर्मणि;लट्;प्र;एक;आत्मनेपदी;अभि_डुधाञ्;जुहोत्यादिः}">
<ellipse fill="#ff6347" stroke="#ff6347" cx="939" cy="-192" rx="69.59" ry="18"/>
<text text-anchor="middle" x="939" y="-188.3" font-family="Times,serif" font-size="14.00">अभिधीयते (17)</text>
</a>
</g>
</g>
<!-- 17&#45;&gt;10 -->
<g id="edge11" class="edge">
<title>17&#45;&gt;10</title>
<path fill="none" stroke="black" d="M912.69,-175.2C902.74,-169.21 891.34,-162.31 881,-156 864.88,-146.16 847.01,-135.14 832.16,-125.96"/>
<polygon fill="black" stroke="black" points="833.7,-122.79 823.35,-120.5 830.01,-128.74 833.7,-122.79"/>
<text text-anchor="middle" x="891" y="-144.8" font-family="Times,serif" font-size="14.00">कर्म</text>
</g>
<!-- 17&#45;&gt;11 -->
<g id="edge12" class="edge">
<title>17&#45;&gt;11</title>
<path fill="none" stroke="black" d="M921.25,-174.22C916.55,-168.84 911.96,-162.57 909,-156 905.86,-149.05 904.05,-141.05 903.02,-133.51"/>
<polygon fill="black" stroke="black" points="906.48,-132.95 902.04,-123.33 899.51,-133.62 906.48,-132.95"/>
<text text-anchor="middle" x="932" y="-144.8" font-family="Times,serif" font-size="14.00">सम्बन्धः</text>
</g>
<!-- 17&#45;&gt;14 -->
<g id="edge15" class="edge">
<title>17&#45;&gt;14</title>
<path fill="none" stroke="black" d="M951.84,-174.21C961.34,-161.79 974.42,-144.67 985.11,-130.7"/>
<polygon fill="black" stroke="black" points="988.11,-132.54 991.4,-122.47 982.55,-128.29 988.11,-132.54"/>
<text text-anchor="middle" x="1028" y="-144.8" font-family="Times,serif" font-size="14.00">कर्मसमानाधिकरणम्</text>
</g>
<!-- 17&#45;&gt;16 -->
<g id="edge17" class="edge">
<title>17&#45;&gt;16</title>
<path fill="none" stroke="black" d="M1005.9,-186.78C1032.45,-182.24 1061.87,-173.32 1084,-156 1091.61,-150.04 1097.22,-141.23 1101.24,-132.66"/>
<polygon fill="black" stroke="black" points="1104.54,-133.83 1105.12,-123.25 1098.07,-131.16 1104.54,-133.83"/>
<text text-anchor="middle" x="1119" y="-144.8" font-family="Times,serif" font-size="14.00">सम्बन्धः</text>
</g>
</g>
</svg>
