<?xml version="1.0" encoding="UTF-8" standalone="no"?>
<!DOCTYPE svg PUBLIC "-//W3C//DTD SVG 1.1//EN"
 "http://www.w3.org/Graphics/SVG/1.1/DTD/svg11.dtd">
<!-- Generated by graphviz version 2.43.0 (0)
 -->
<!-- Title: %3 Pages: 1 -->
<svg width="1152pt" height="392pt"
 viewBox="0.00 0.00 1152.14 392.00" xmlns="http://www.w3.org/2000/svg" xmlns:xlink="http://www.w3.org/1999/xlink">
<g id="graph0" class="graph" transform="scale(1 1) rotate(0) translate(4 388)">
<title>%3</title>
<polygon fill="#fffacd" stroke="transparent" points="-4,4 -4,-388 1148.14,-388 1148.14,4 -4,4"/>
<!-- 1 -->
<g id="node1" class="node">
<title>1</title>
<g id="a_node1"><a xlink:title="शौर्य{नपुं}{1;एक}">
<ellipse fill="#00bfff" stroke="#00bfff" cx="49.4" cy="-192" rx="49.29" ry="18"/>
<text text-anchor="middle" x="49.4" y="-188.3" font-family="Times,serif" font-size="14.00">शौर्यम् (1)</text>
</a>
</g>
</g>
<!-- 2 -->
<g id="node2" class="node">
<title>2</title>
<g id="a_node2"><a xlink:title="तेजस्{नपुं}{1;एक}">
<ellipse fill="#00bfff" stroke="#00bfff" cx="159.4" cy="-192" rx="42.79" ry="18"/>
<text text-anchor="middle" x="159.4" y="-188.3" font-family="Times,serif" font-size="14.00">तेजः (2)</text>
</a>
</g>
</g>
<!-- 3 -->
<g id="node3" class="node">
<title>3</title>
<g id="a_node3"><a xlink:title="धृति{स्त्री}{1;एक}">
<ellipse fill="#00bfff" stroke="#00bfff" cx="264.4" cy="-192" rx="44.39" ry="18"/>
<text text-anchor="middle" x="264.4" y="-188.3" font-family="Times,serif" font-size="14.00">धृतिः (3)</text>
</a>
</g>
</g>
<!-- 4 -->
<g id="node4" class="node">
<title>4</title>
<g id="a_node4"><a xlink:title="दाक्ष्य{नपुं}{1;एक}">
<ellipse fill="#00bfff" stroke="#00bfff" cx="380.4" cy="-192" rx="53.89" ry="18"/>
<text text-anchor="middle" x="380.4" y="-188.3" font-family="Times,serif" font-size="14.00">दाक्ष्यम् (4)</text>
</a>
</g>
</g>
<!-- 5 -->
<g id="node5" class="node">
<title>5</title>
<g id="a_node5"><a xlink:title="युद्ध{नपुं}{7;एक}">
<ellipse fill="#708090" stroke="#708090" cx="521.4" cy="-105" rx="39.79" ry="18"/>
<text text-anchor="middle" x="521.4" y="-101.3" font-family="Times,serif" font-size="14.00">युद्धे (5)</text>
</a>
</g>
</g>
<!-- 6 -->
<g id="node6" class="node">
<title>6</title>
<g id="a_node6"><a xlink:title="च{अव्य}">
<ellipse fill="#ff00ff" stroke="#ff00ff" cx="475.4" cy="-18" rx="33.29" ry="18"/>
<text text-anchor="middle" x="475.4" y="-14.3" font-family="Times,serif" font-size="14.00">च (6)</text>
</a>
</g>
</g>
<!-- 5&#45;&gt;6 -->
<g id="edge6" class="edge">
<title>5&#45;&gt;6</title>
<path fill="none" stroke="black" d="M511.09,-87.42C507.6,-81.64 503.74,-75.09 500.4,-69 496.15,-61.26 491.76,-52.7 487.87,-44.89"/>
<polygon fill="black" stroke="black" points="490.97,-43.26 483.41,-35.83 484.69,-46.35 490.97,-43.26"/>
<text text-anchor="middle" x="523.4" y="-57.8" font-family="Times,serif" font-size="14.00">सम्बन्धः</text>
</g>
<!-- 7 -->
<g id="node7" class="node">
<title>7</title>
<g id="a_node7"><a xlink:title="अपि{अव्य}">
<ellipse fill="#ff00ff" stroke="#ff00ff" cx="568.4" cy="-18" rx="42.49" ry="18"/>
<text text-anchor="middle" x="568.4" y="-14.3" font-family="Times,serif" font-size="14.00">अपि (7)</text>
</a>
</g>
</g>
<!-- 5&#45;&gt;7 -->
<g id="edge7" class="edge">
<title>5&#45;&gt;7</title>
<path fill="none" stroke="black" d="M534.07,-87.73C538.26,-81.98 542.78,-75.36 546.4,-69 550.62,-61.58 554.59,-53.2 557.97,-45.45"/>
<polygon fill="black" stroke="black" points="561.25,-46.66 561.9,-36.09 554.8,-43.95 561.25,-46.66"/>
<text text-anchor="middle" x="577.4" y="-57.8" font-family="Times,serif" font-size="14.00">सम्बन्धः</text>
</g>
<!-- 8 -->
<g id="node8" class="node">
<title>8</title>
<g id="a_node8"><a xlink:title="न&#45;पलायन{नपुं}{1;एक}">
<ellipse fill="#00bfff" stroke="#00bfff" cx="521.4" cy="-192" rx="68.79" ry="18"/>
<text text-anchor="middle" x="521.4" y="-188.3" font-family="Times,serif" font-size="14.00">अ&#45;पलायनम् (8)</text>
</a>
</g>
</g>
<!-- 8&#45;&gt;5 -->
<g id="edge5" class="edge">
<title>8&#45;&gt;5</title>
<path fill="none" stroke="black" d="M521.4,-173.8C521.4,-162.16 521.4,-146.55 521.4,-133.24"/>
<polygon fill="black" stroke="black" points="524.9,-133.18 521.4,-123.18 517.9,-133.18 524.9,-133.18"/>
<text text-anchor="middle" x="551.9" y="-144.8" font-family="Times,serif" font-size="14.00">अधिकरणम्</text>
</g>
<!-- 9 -->
<g id="node9" class="node">
<title>9</title>
<g id="a_node9"><a xlink:title="दान{नपुं}{1;एक}">
<ellipse fill="#00bfff" stroke="#00bfff" cx="653.4" cy="-192" rx="45.49" ry="18"/>
<text text-anchor="middle" x="653.4" y="-188.3" font-family="Times,serif" font-size="14.00">दानम् (9)</text>
</a>
</g>
</g>
<!-- 10 -->
<g id="node10" class="node">
<title>10</title>
<g id="a_node10"><a xlink:title="ईश्वर&#45;भाव{पुं}{1;एक}">
<ellipse fill="#00bfff" stroke="#00bfff" cx="380.4" cy="-279" rx="72.29" ry="18"/>
<text text-anchor="middle" x="380.4" y="-275.3" font-family="Times,serif" font-size="14.00">ईश्वर&#45;भावः (10)</text>
</a>
</g>
</g>
<!-- 10&#45;&gt;1 -->
<g id="edge1" class="edge">
<title>10&#45;&gt;1</title>
<path fill="none" stroke="black" d="M309.17,-275.69C235.11,-272.21 124.97,-263.64 88.4,-243 78.22,-237.26 69.79,-227.69 63.39,-218.45"/>
<polygon fill="black" stroke="black" points="66.22,-216.38 57.89,-209.83 60.32,-220.14 66.22,-216.38"/>
<text text-anchor="middle" x="130.9" y="-231.8" font-family="Times,serif" font-size="14.00">सुप्_समुच्चितम्</text>
</g>
<!-- 10&#45;&gt;2 -->
<g id="edge2" class="edge">
<title>10&#45;&gt;2</title>
<path fill="none" stroke="black" d="M314.49,-271.41C268.24,-265.75 211.26,-256.37 191.4,-243 182.64,-237.11 175.77,-227.93 170.67,-219.03"/>
<polygon fill="black" stroke="black" points="173.71,-217.29 166,-210.02 167.49,-220.5 173.71,-217.29"/>
<text text-anchor="middle" x="233.9" y="-231.8" font-family="Times,serif" font-size="14.00">सुप्_समुच्चितम्</text>
</g>
<!-- 10&#45;&gt;3 -->
<g id="edge3" class="edge">
<title>10&#45;&gt;3</title>
<path fill="none" stroke="black" d="M331.23,-265.61C317.22,-260.34 302.7,-253.02 291.4,-243 284.21,-236.63 278.58,-227.87 274.37,-219.47"/>
<polygon fill="black" stroke="black" points="277.52,-217.94 270.21,-210.27 271.14,-220.82 277.52,-217.94"/>
<text text-anchor="middle" x="333.9" y="-231.8" font-family="Times,serif" font-size="14.00">सुप्_समुच्चितम्</text>
</g>
<!-- 10&#45;&gt;4 -->
<g id="edge4" class="edge">
<title>10&#45;&gt;4</title>
<path fill="none" stroke="black" d="M380.4,-260.8C380.4,-249.16 380.4,-233.55 380.4,-220.24"/>
<polygon fill="black" stroke="black" points="383.9,-220.18 380.4,-210.18 376.9,-220.18 383.9,-220.18"/>
<text text-anchor="middle" x="422.9" y="-231.8" font-family="Times,serif" font-size="14.00">सुप्_समुच्चितम्</text>
</g>
<!-- 10&#45;&gt;8 -->
<g id="edge8" class="edge">
<title>10&#45;&gt;8</title>
<path fill="none" stroke="black" d="M424.15,-264.67C439.11,-259.12 455.56,-251.87 469.4,-243 480.43,-235.92 491.14,-226.27 499.94,-217.34"/>
<polygon fill="black" stroke="black" points="502.49,-219.73 506.85,-210.07 497.42,-214.91 502.49,-219.73"/>
<text text-anchor="middle" x="530.9" y="-231.8" font-family="Times,serif" font-size="14.00">सुप्_समुच्चितम्</text>
</g>
<!-- 10&#45;&gt;9 -->
<g id="edge9" class="edge">
<title>10&#45;&gt;9</title>
<path fill="none" stroke="black" d="M448.37,-272.78C487.22,-268.13 536.25,-259.38 577.4,-243 594.89,-236.03 612.58,-224.71 626.48,-214.6"/>
<polygon fill="black" stroke="black" points="628.71,-217.3 634.62,-208.51 624.51,-211.7 628.71,-217.3"/>
<text text-anchor="middle" x="648.9" y="-231.8" font-family="Times,serif" font-size="14.00">सुप्_समुच्चितम्</text>
</g>
<!-- 11 -->
<g id="node11" class="node">
<title>11</title>
<g id="a_node11"><a xlink:title="च{अव्य}">
<ellipse fill="#ff00ff" stroke="#ff00ff" cx="758.4" cy="-192" rx="38.99" ry="18"/>
<text text-anchor="middle" x="758.4" y="-188.3" font-family="Times,serif" font-size="14.00">च (11)</text>
</a>
</g>
</g>
<!-- 10&#45;&gt;11 -->
<g id="edge11" class="edge">
<title>10&#45;&gt;11</title>
<path fill="none" stroke="black" d="M450.62,-274.72C529.63,-270.23 652.53,-260.66 695.4,-243 710.36,-236.84 724.68,-226.01 735.88,-216"/>
<polygon fill="black" stroke="black" points="738.52,-218.32 743.45,-208.94 733.75,-213.2 738.52,-218.32"/>
<text text-anchor="middle" x="762.9" y="-231.8" font-family="Times,serif" font-size="14.00">समुच्चयद्योतकः</text>
</g>
<!-- 12 -->
<g id="node12" class="node">
<title>12</title>
<g id="a_node12"><a xlink:title="क्षात्र{नपुं}{1;एक}">
<ellipse fill="#00bfff" stroke="#00bfff" cx="873.4" cy="-192" rx="57.69" ry="18"/>
<text text-anchor="middle" x="873.4" y="-188.3" font-family="Times,serif" font-size="14.00">क्षात्रम् (12)</text>
</a>
</g>
</g>
<!-- 13 -->
<g id="node13" class="node">
<title>13</title>
<g id="a_node13"><a xlink:title="कर्मन्{नपुं}{1;एक}">
<ellipse fill="#00bfff" stroke="#00bfff" cx="949.4" cy="-279" rx="44.69" ry="18"/>
<text text-anchor="middle" x="949.4" y="-275.3" font-family="Times,serif" font-size="14.00">कर्म (13)</text>
</a>
</g>
</g>
<!-- 13&#45;&gt;12 -->
<g id="edge12" class="edge">
<title>13&#45;&gt;12</title>
<path fill="none" stroke="black" d="M934.74,-261.61C923.46,-248.99 907.69,-231.36 894.97,-217.13"/>
<polygon fill="black" stroke="black" points="897.54,-214.75 888.26,-209.63 892.32,-219.42 897.54,-214.75"/>
<text text-anchor="middle" x="941.9" y="-231.8" font-family="Times,serif" font-size="14.00">विशेषणम्</text>
</g>
<!-- 14 -->
<g id="node14" class="node">
<title>14</title>
<g id="a_node14"><a xlink:title="स्वभाव&#45;ज{नपुं}{1;एक}">
<ellipse fill="#00bfff" stroke="#00bfff" cx="1025.4" cy="-192" rx="76.09" ry="18"/>
<text text-anchor="middle" x="1025.4" y="-188.3" font-family="Times,serif" font-size="14.00">स्व&#45;भाव&#45;जम् (14)</text>
</a>
</g>
</g>
<!-- 13&#45;&gt;14 -->
<g id="edge14" class="edge">
<title>13&#45;&gt;14</title>
<path fill="none" stroke="black" d="M964.05,-261.61C975.26,-249.07 990.89,-231.59 1003.57,-217.41"/>
<polygon fill="black" stroke="black" points="1006.21,-219.71 1010.27,-209.92 1000.99,-215.04 1006.21,-219.71"/>
<text text-anchor="middle" x="1016.9" y="-231.8" font-family="Times,serif" font-size="14.00">विशेषणम्</text>
</g>
<!-- 114.1 -->
<g id="node15" class="node">
<title>114.1</title>
<g id="a_node15"><a xlink:title="(अस्2{कर्तरि;लट्;प्र;एक;परस्मैपदी;असँ;अदादिः})">
<ellipse fill="#ff6347" stroke="#ff6347" cx="1069.4" cy="-366" rx="74.99" ry="18"/>
<text text-anchor="middle" x="1069.4" y="-362.3" font-family="Times,serif" font-size="14.00">(अस्ति) (114.1)</text>
</a>
</g>
</g>
<!-- 14.1 -->
<g id="node16" class="node">
<title>14.1</title>
<ellipse fill="lightgrey" stroke="black" cx="380.4" cy="-366" rx="31.4" ry="18"/>
<text text-anchor="middle" x="380.4" y="-362.3" font-family="Times,serif" font-size="14.00">14.1</text>
</g>
<!-- 14.1&#45;&gt;10 -->
<g id="edge10" class="edge">
<title>14.1&#45;&gt;10</title>
<path fill="none" stroke="black" d="M380.4,-347.8C380.4,-336.16 380.4,-320.55 380.4,-307.24"/>
<polygon fill="black" stroke="black" points="383.9,-307.18 380.4,-297.18 376.9,-307.18 383.9,-307.18"/>
<text text-anchor="middle" x="392.9" y="-318.8" font-family="Times,serif" font-size="14.00">कर्ता</text>
</g>
<!-- 15 -->
<g id="node17" class="node">
<title>15</title>
<ellipse fill="lightgrey" stroke="black" cx="949.4" cy="-366" rx="27" ry="18"/>
<text text-anchor="middle" x="949.4" y="-362.3" font-family="Times,serif" font-size="14.00">15</text>
</g>
<!-- 15&#45;&gt;13 -->
<g id="edge13" class="edge">
<title>15&#45;&gt;13</title>
<path fill="none" stroke="black" d="M949.4,-347.8C949.4,-336.16 949.4,-320.55 949.4,-307.24"/>
<polygon fill="black" stroke="black" points="952.9,-307.18 949.4,-297.18 945.9,-307.18 952.9,-307.18"/>
<text text-anchor="middle" x="1001.4" y="-318.8" font-family="Times,serif" font-size="14.00">कर्तृसमानाधिकरणम्</text>
</g>
</g>
</svg>
