<?xml version="1.0" encoding="UTF-8" standalone="no"?>
<!DOCTYPE svg PUBLIC "-//W3C//DTD SVG 1.1//EN"
 "http://www.w3.org/Graphics/SVG/1.1/DTD/svg11.dtd">
<!-- Generated by graphviz version 2.43.0 (0)
 -->
<!-- Title: %3 Pages: 1 -->
<svg width="891pt" height="479pt"
 viewBox="0.00 0.00 891.14 479.00" xmlns="http://www.w3.org/2000/svg" xmlns:xlink="http://www.w3.org/1999/xlink">
<g id="graph0" class="graph" transform="scale(1 1) rotate(0) translate(4 475)">
<title>%3</title>
<polygon fill="#fffacd" stroke="transparent" points="-4,4 -4,-475 887.14,-475 887.14,4 -4,4"/>
<!-- 1 -->
<g id="node1" class="node">
<title>1</title>
<g id="a_node1"><a xlink:title="स्व{नपुं}{7;एक}">
<ellipse fill="#708090" stroke="#708090" cx="180.74" cy="-18" rx="36.29" ry="18"/>
<text text-anchor="middle" x="180.74" y="-14.3" font-family="Times,serif" font-size="14.00">स्वे (1)</text>
</a>
</g>
</g>
<!-- 2 -->
<g id="node2" class="node">
<title>2</title>
<g id="a_node2"><a xlink:title="स्व{नपुं}{7;एक}">
<ellipse fill="#708090" stroke="#708090" cx="180.74" cy="-105" rx="36.29" ry="18"/>
<text text-anchor="middle" x="180.74" y="-101.3" font-family="Times,serif" font-size="14.00">स्वे (2)</text>
</a>
</g>
</g>
<!-- 2&#45;&gt;1 -->
<g id="edge1" class="edge">
<title>2&#45;&gt;1</title>
<path fill="none" stroke="black" d="M180.74,-86.8C180.74,-75.16 180.74,-59.55 180.74,-46.24"/>
<polygon fill="black" stroke="black" points="184.24,-46.18 180.74,-36.18 177.24,-46.18 184.24,-46.18"/>
<text text-anchor="middle" x="197.24" y="-57.8" font-family="Times,serif" font-size="14.00">वीप्सा</text>
</g>
<!-- 3 -->
<g id="node3" class="node">
<title>3</title>
<g id="a_node3"><a xlink:title="कर्मन्{नपुं}{7;एक}">
<ellipse fill="#708090" stroke="#708090" cx="180.74" cy="-192" rx="48.19" ry="18"/>
<text text-anchor="middle" x="180.74" y="-188.3" font-family="Times,serif" font-size="14.00">कर्मणि (3)</text>
</a>
</g>
</g>
<!-- 3&#45;&gt;2 -->
<g id="edge2" class="edge">
<title>3&#45;&gt;2</title>
<path fill="none" stroke="black" d="M180.74,-173.8C180.74,-162.16 180.74,-146.55 180.74,-133.24"/>
<polygon fill="black" stroke="black" points="184.24,-133.18 180.74,-123.18 177.24,-133.18 184.24,-133.18"/>
<text text-anchor="middle" x="206.24" y="-144.8" font-family="Times,serif" font-size="14.00">विशेषणम्</text>
</g>
<!-- 4 -->
<g id="node4" class="node">
<title>4</title>
<g id="a_node4"><a xlink:title="अभि_रम्1{कृत्_प्रत्ययः:क्त;अभि_रमुँ;भ्वादिः;पुं}{1;एक}">
<ellipse fill="#00bfff" stroke="#00bfff" cx="180.74" cy="-279" rx="55.79" ry="18"/>
<text text-anchor="middle" x="180.74" y="-275.3" font-family="Times,serif" font-size="14.00">अभिरतः (4)</text>
</a>
</g>
</g>
<!-- 4&#45;&gt;3 -->
<g id="edge3" class="edge">
<title>4&#45;&gt;3</title>
<path fill="none" stroke="black" d="M180.74,-260.8C180.74,-249.16 180.74,-233.55 180.74,-220.24"/>
<polygon fill="black" stroke="black" points="184.24,-220.18 180.74,-210.18 177.24,-220.18 184.24,-220.18"/>
<text text-anchor="middle" x="211.24" y="-231.8" font-family="Times,serif" font-size="14.00">अधिकरणम्</text>
</g>
<!-- 5 -->
<g id="node5" class="node">
<title>5</title>
<g id="a_node5"><a xlink:title="संसिद्धि{स्त्री}{2;एक}">
<ellipse fill="#7cfc00" stroke="#7cfc00" cx="61.74" cy="-366" rx="61.99" ry="18"/>
<text text-anchor="middle" x="61.74" y="-362.3" font-family="Times,serif" font-size="14.00">संसिद्धिम् (5)</text>
</a>
</g>
</g>
<!-- 6 -->
<g id="node6" class="node">
<title>6</title>
<g id="a_node6"><a xlink:title="लभ्1{कर्तरि;लट्;प्र;एक;आत्मनेपदी;डुलभँष्;भ्वादिः}">
<ellipse fill="#ff6347" stroke="#ff6347" cx="121.74" cy="-453" rx="46.29" ry="18"/>
<text text-anchor="middle" x="121.74" y="-449.3" font-family="Times,serif" font-size="14.00">लभते (6)</text>
</a>
</g>
</g>
<!-- 6&#45;&gt;5 -->
<g id="edge5" class="edge">
<title>6&#45;&gt;5</title>
<path fill="none" stroke="black" d="M109.89,-435.21C101.18,-422.87 89.2,-405.89 79.37,-391.97"/>
<polygon fill="black" stroke="black" points="82.2,-389.91 73.57,-383.76 76.48,-393.95 82.2,-389.91"/>
<text text-anchor="middle" x="105.74" y="-405.8" font-family="Times,serif" font-size="14.00">कर्म</text>
</g>
<!-- 7 -->
<g id="node7" class="node">
<title>7</title>
<g id="a_node7"><a xlink:title="नर{पुं}{1;एक}">
<ellipse fill="#00bfff" stroke="#00bfff" cx="180.74" cy="-366" rx="39.79" ry="18"/>
<text text-anchor="middle" x="180.74" y="-362.3" font-family="Times,serif" font-size="14.00">नरः (7)</text>
</a>
</g>
</g>
<!-- 6&#45;&gt;7 -->
<g id="edge6" class="edge">
<title>6&#45;&gt;7</title>
<path fill="none" stroke="black" d="M133.4,-435.21C142.02,-422.79 153.9,-405.67 163.6,-391.7"/>
<polygon fill="black" stroke="black" points="166.49,-393.68 169.31,-383.47 160.74,-389.69 166.49,-393.68"/>
<text text-anchor="middle" x="168.24" y="-405.8" font-family="Times,serif" font-size="14.00">कर्ता</text>
</g>
<!-- 7&#45;&gt;4 -->
<g id="edge4" class="edge">
<title>7&#45;&gt;4</title>
<path fill="none" stroke="black" d="M180.74,-347.8C180.74,-336.16 180.74,-320.55 180.74,-307.24"/>
<polygon fill="black" stroke="black" points="184.24,-307.18 180.74,-297.18 177.24,-307.18 184.24,-307.18"/>
<text text-anchor="middle" x="206.24" y="-318.8" font-family="Times,serif" font-size="14.00">विशेषणम्</text>
</g>
<!-- 8 -->
<g id="node8" class="node">
<title>8</title>
<g id="a_node8"><a xlink:title="स्व&#45;कर्मन्&#45;निरत{पुं}{1;एक}">
<ellipse fill="#00bfff" stroke="#00bfff" cx="314.74" cy="-366" rx="76.09" ry="18"/>
<text text-anchor="middle" x="314.74" y="-362.3" font-family="Times,serif" font-size="14.00">स्व&#45;कर्म&#45;निरतः (8)</text>
</a>
</g>
</g>
<!-- 9 -->
<g id="node9" class="node">
<title>9</title>
<g id="a_node9"><a xlink:title="सिद्धि{स्त्री}{2;एक}">
<ellipse fill="#7cfc00" stroke="#7cfc00" cx="464.74" cy="-366" rx="55.79" ry="18"/>
<text text-anchor="middle" x="464.74" y="-362.3" font-family="Times,serif" font-size="14.00">सिद्धिम् (9)</text>
</a>
</g>
</g>
<!-- 10 -->
<g id="node10" class="node">
<title>10</title>
<g id="a_node10"><a xlink:title="यथा{अव्य}">
<ellipse fill="#ff00ff" stroke="#ff00ff" cx="585.74" cy="-366" rx="47.39" ry="18"/>
<text text-anchor="middle" x="585.74" y="-362.3" font-family="Times,serif" font-size="14.00">यथा (10)</text>
</a>
</g>
</g>
<!-- 11 -->
<g id="node11" class="node">
<title>11</title>
<g id="a_node11"><a xlink:title="विद्3{कर्तरि;लट्;प्र;एक;परस्मैपदी;विदॢँ;तुदादिः}">
<ellipse fill="#ff6347" stroke="#ff6347" cx="464.74" cy="-453" rx="58.49" ry="18"/>
<text text-anchor="middle" x="464.74" y="-449.3" font-family="Times,serif" font-size="14.00">विन्दति (11)</text>
</a>
</g>
</g>
<!-- 11&#45;&gt;8 -->
<g id="edge7" class="edge">
<title>11&#45;&gt;8</title>
<path fill="none" stroke="black" d="M437.93,-436.8C413.78,-423.12 378.06,-402.88 351.3,-387.72"/>
<polygon fill="black" stroke="black" points="353.03,-384.67 342.6,-382.78 349.57,-390.76 353.03,-384.67"/>
<text text-anchor="middle" x="411.24" y="-405.8" font-family="Times,serif" font-size="14.00">कर्ता</text>
</g>
<!-- 11&#45;&gt;9 -->
<g id="edge8" class="edge">
<title>11&#45;&gt;9</title>
<path fill="none" stroke="black" d="M464.74,-434.8C464.74,-423.16 464.74,-407.55 464.74,-394.24"/>
<polygon fill="black" stroke="black" points="468.24,-394.18 464.74,-384.18 461.24,-394.18 468.24,-394.18"/>
<text text-anchor="middle" x="474.74" y="-405.8" font-family="Times,serif" font-size="14.00">कर्म</text>
</g>
<!-- 11&#45;&gt;10 -->
<g id="edge9" class="edge">
<title>11&#45;&gt;10</title>
<path fill="none" stroke="black" d="M487.22,-436.21C506.56,-422.62 534.62,-402.91 555.86,-388"/>
<polygon fill="black" stroke="black" points="558.03,-390.75 564.2,-382.13 554.01,-385.02 558.03,-390.75"/>
<text text-anchor="middle" x="575.24" y="-405.8" font-family="Times,serif" font-size="14.00">क्रियाविशेषणम्</text>
</g>
<!-- 12 -->
<g id="node12" class="node">
<title>12</title>
<g id="a_node12"><a xlink:title="तद्{नपुं}{2;एक}">
<ellipse fill="#7cfc00" stroke="#7cfc00" cx="695.74" cy="-366" rx="44.39" ry="18"/>
<text text-anchor="middle" x="695.74" y="-362.3" font-family="Times,serif" font-size="14.00">तत् (12)</text>
</a>
</g>
</g>
<!-- 13 -->
<g id="node13" class="node">
<title>13</title>
<g id="a_node13"><a xlink:title="श्रु1{कर्तरि;लोट्;म;एक;परस्मैपदी;श्रु;भ्वादिः}">
<ellipse fill="#ff6347" stroke="#ff6347" cx="757.74" cy="-453" rx="46.29" ry="18"/>
<text text-anchor="middle" x="757.74" y="-449.3" font-family="Times,serif" font-size="14.00">शृणु (13)</text>
</a>
</g>
</g>
<!-- 13&#45;&gt;12 -->
<g id="edge10" class="edge">
<title>13&#45;&gt;12</title>
<path fill="none" stroke="black" d="M745.79,-435.61C736.7,-423.15 724.04,-405.79 713.73,-391.65"/>
<polygon fill="black" stroke="black" points="716.38,-389.36 707.66,-383.34 710.73,-393.48 716.38,-389.36"/>
<text text-anchor="middle" x="740.74" y="-405.8" font-family="Times,serif" font-size="14.00">कर्म</text>
</g>
<!-- 13.1 -->
<g id="node14" class="node">
<title>13.1</title>
<g id="a_node14"><a xlink:title="(युष्मद्{1;एक})">
<ellipse fill="#00bfff" stroke="#00bfff" cx="820.74" cy="-366" rx="62.29" ry="18"/>
<text text-anchor="middle" x="820.74" y="-362.3" font-family="Times,serif" font-size="14.00">(त्वम्) (13.1)</text>
</a>
</g>
</g>
<!-- 13&#45;&gt;13.1 -->
<g id="edge11" class="edge">
<title>13&#45;&gt;13.1</title>
<path fill="none" stroke="black" d="M769.89,-435.61C779.01,-423.31 791.67,-406.23 802.07,-392.2"/>
<polygon fill="black" stroke="black" points="805.06,-394.04 808.2,-383.92 799.44,-389.87 805.06,-394.04"/>
<text text-anchor="middle" x="805.24" y="-405.8" font-family="Times,serif" font-size="14.00">कर्ता</text>
</g>
</g>
</svg>
