<?xml version="1.0" encoding="UTF-8" standalone="no"?>
<!DOCTYPE svg PUBLIC "-//W3C//DTD SVG 1.1//EN"
 "http://www.w3.org/Graphics/SVG/1.1/DTD/svg11.dtd">
<!-- Generated by graphviz version 2.43.0 (0)
 -->
<!-- Title: %3 Pages: 1 -->
<svg width="958pt" height="218pt"
 viewBox="0.00 0.00 957.79 218.00" xmlns="http://www.w3.org/2000/svg" xmlns:xlink="http://www.w3.org/1999/xlink">
<g id="graph0" class="graph" transform="scale(1 1) rotate(0) translate(4 214)">
<title>%3</title>
<polygon fill="#fffacd" stroke="transparent" points="-4,4 -4,-214 953.79,-214 953.79,4 -4,4"/>
<!-- 1 -->
<g id="node1" class="node">
<title>1</title>
<g id="a_node1"><a xlink:title="चेतस्{नपुं}{3;एक}">
<ellipse fill="#40e0d0" stroke="#40e0d0" cx="48.1" cy="-18" rx="48.19" ry="18"/>
<text text-anchor="middle" x="48.1" y="-14.3" font-family="Times,serif" font-size="14.00">चेतसा (1)</text>
</a>
</g>
</g>
<!-- 2 -->
<g id="node2" class="node">
<title>2</title>
<g id="a_node2"><a xlink:title="सर्व&#45;कर्मन्{नपुं}{2;बहु}">
<ellipse fill="#7cfc00" stroke="#7cfc00" cx="180.1" cy="-18" rx="65.79" ry="18"/>
<text text-anchor="middle" x="180.1" y="-14.3" font-family="Times,serif" font-size="14.00">सर्व&#45;कर्माणि (2)</text>
</a>
</g>
</g>
<!-- 3 -->
<g id="node3" class="node">
<title>3</title>
<g id="a_node3"><a xlink:title="अस्मद्{7;एक}">
<ellipse fill="#708090" stroke="#708090" cx="305.1" cy="-18" rx="40.89" ry="18"/>
<text text-anchor="middle" x="305.1" y="-14.3" font-family="Times,serif" font-size="14.00">मयि (3)</text>
</a>
</g>
</g>
<!-- 4 -->
<g id="node4" class="node">
<title>4</title>
<g id="a_node4"><a xlink:title="सम्_नि_अस्1{कृत्_प्रत्ययः:ल्यप्;सम्_नि_असँ;भ्वादिः}">
<ellipse fill="#808080" stroke="#808080" cx="180.1" cy="-105" rx="57.39" ry="18"/>
<text text-anchor="middle" x="180.1" y="-101.3" font-family="Times,serif" font-size="14.00">सन्न्यस्य (4)</text>
</a>
</g>
</g>
<!-- 4&#45;&gt;1 -->
<g id="edge1" class="edge">
<title>4&#45;&gt;1</title>
<path fill="none" stroke="black" d="M156.19,-88.61C134.85,-74.86 103.42,-54.63 79.95,-39.51"/>
<polygon fill="black" stroke="black" points="81.68,-36.46 71.38,-33.99 77.89,-42.35 81.68,-36.46"/>
<text text-anchor="middle" x="140.1" y="-57.8" font-family="Times,serif" font-size="14.00">करणम्</text>
</g>
<!-- 4&#45;&gt;2 -->
<g id="edge2" class="edge">
<title>4&#45;&gt;2</title>
<path fill="none" stroke="black" d="M180.1,-86.8C180.1,-75.16 180.1,-59.55 180.1,-46.24"/>
<polygon fill="black" stroke="black" points="183.6,-46.18 180.1,-36.18 176.6,-46.18 183.6,-46.18"/>
<text text-anchor="middle" x="190.1" y="-57.8" font-family="Times,serif" font-size="14.00">कर्म</text>
</g>
<!-- 4&#45;&gt;3 -->
<g id="edge3" class="edge">
<title>4&#45;&gt;3</title>
<path fill="none" stroke="black" d="M203.02,-88.41C223.31,-74.62 253.04,-54.4 275.19,-39.34"/>
<polygon fill="black" stroke="black" points="277.27,-42.16 283.57,-33.64 273.33,-36.37 277.27,-42.16"/>
<text text-anchor="middle" x="280.6" y="-57.8" font-family="Times,serif" font-size="14.00">अधिकरणम्</text>
</g>
<!-- 5 -->
<g id="node5" class="node">
<title>5</title>
<g id="a_node5"><a xlink:title="अस्मद्&#45;पर{पुं}{1;एक}">
<ellipse fill="#00bfff" stroke="#00bfff" cx="418.1" cy="-18" rx="53.89" ry="18"/>
<text text-anchor="middle" x="418.1" y="-14.3" font-family="Times,serif" font-size="14.00">मत्&#45;परः (5)</text>
</a>
</g>
</g>
<!-- 6 -->
<g id="node6" class="node">
<title>6</title>
<g id="a_node6"><a xlink:title="बुद्धि&#45;योग{पुं}{2;एक}">
<ellipse fill="#7cfc00" stroke="#7cfc00" cx="677.1" cy="-18" rx="70.69" ry="18"/>
<text text-anchor="middle" x="677.1" y="-14.3" font-family="Times,serif" font-size="14.00">बुद्धि&#45;योगम् (6)</text>
</a>
</g>
</g>
<!-- 7 -->
<g id="node7" class="node">
<title>7</title>
<g id="a_node7"><a xlink:title="उप_आङ्_श्रि1{कृत्_प्रत्ययः:ल्यप्;उप_आङ्_श्रिञ्;भ्वादिः}">
<ellipse fill="#808080" stroke="#808080" cx="705.1" cy="-105" rx="64.19" ry="18"/>
<text text-anchor="middle" x="705.1" y="-101.3" font-family="Times,serif" font-size="14.00">उपाश्रित्य (7)</text>
</a>
</g>
</g>
<!-- 7&#45;&gt;6 -->
<g id="edge6" class="edge">
<title>7&#45;&gt;6</title>
<path fill="none" stroke="black" d="M699.43,-86.8C695.56,-75.05 690.35,-59.24 685.94,-45.84"/>
<polygon fill="black" stroke="black" points="689.21,-44.58 682.75,-36.18 682.56,-46.77 689.21,-44.58"/>
<text text-anchor="middle" x="703.1" y="-57.8" font-family="Times,serif" font-size="14.00">कर्म</text>
</g>
<!-- 10.1 -->
<g id="node12" class="node">
<title>10.1</title>
<g id="a_node12"><a xlink:title="(युष्मद्{1;एक})">
<ellipse fill="#00bfff" stroke="#00bfff" cx="828.1" cy="-18" rx="62.29" ry="18"/>
<text text-anchor="middle" x="828.1" y="-14.3" font-family="Times,serif" font-size="14.00">(त्वम्) (10.1)</text>
</a>
</g>
</g>
<!-- 7&#45;&gt;10.1 -->
<g id="edge12" class="edge">
<title>7&#45;&gt;10.1</title>
<path fill="none" stroke="black" stroke-dasharray="1,5" d="M723.4,-87.59C735.19,-77.38 751.07,-64.29 766.1,-54 773.65,-48.83 782.03,-43.71 790.12,-39.06"/>
<polygon fill="black" stroke="black" points="792.07,-41.98 799.07,-34.03 788.64,-35.88 792.07,-41.98"/>
<text text-anchor="middle" x="778.6" y="-57.8" font-family="Times,serif" font-size="14.00">कर्ता</text>
</g>
<!-- 8 -->
<g id="node8" class="node">
<title>8</title>
<g id="a_node8"><a xlink:title="अस्मद्&#45;चित्त{पुं}{1;एक}">
<ellipse fill="#00bfff" stroke="#00bfff" cx="539.1" cy="-105" rx="60.39" ry="18"/>
<text text-anchor="middle" x="539.1" y="-101.3" font-family="Times,serif" font-size="14.00">मत्&#45;चित्तः (8)</text>
</a>
</g>
</g>
<!-- 8&#45;&gt;5 -->
<g id="edge5" class="edge">
<title>8&#45;&gt;5</title>
<path fill="none" stroke="black" d="M496.82,-91.87C482.33,-86.4 466.62,-78.89 454.1,-69 445.75,-62.4 438.45,-53.39 432.65,-44.83"/>
<polygon fill="black" stroke="black" points="435.48,-42.75 427.17,-36.19 429.58,-46.51 435.48,-42.75"/>
<text text-anchor="middle" x="494.6" y="-57.8" font-family="Times,serif" font-size="14.00">सुप्_समुच्चितः</text>
</g>
<!-- 8.1 -->
<g id="node9" class="node">
<title>8.1</title>
<g id="a_node9"><a xlink:title="(च{अव्य})">
<ellipse fill="#ff00ff" stroke="#ff00ff" cx="539.1" cy="-18" rx="48.99" ry="18"/>
<text text-anchor="middle" x="539.1" y="-14.3" font-family="Times,serif" font-size="14.00">(च) (8.1)</text>
</a>
</g>
</g>
<!-- 8&#45;&gt;8.1 -->
<g id="edge9" class="edge">
<title>8&#45;&gt;8.1</title>
<path fill="none" stroke="black" d="M539.1,-86.8C539.1,-75.16 539.1,-59.55 539.1,-46.24"/>
<polygon fill="black" stroke="black" points="542.6,-46.18 539.1,-36.18 535.6,-46.18 542.6,-46.18"/>
<text text-anchor="middle" x="581.6" y="-57.8" font-family="Times,serif" font-size="14.00">समुच्चयद्योतकः</text>
</g>
<!-- 9 -->
<g id="node10" class="node">
<title>9</title>
<g id="a_node10"><a xlink:title="सततम्{अव्य}">
<ellipse fill="#ff00ff" stroke="#ff00ff" cx="899.1" cy="-105" rx="50.89" ry="18"/>
<text text-anchor="middle" x="899.1" y="-101.3" font-family="Times,serif" font-size="14.00">सततम् (9)</text>
</a>
</g>
</g>
<!-- 10 -->
<g id="node11" class="node">
<title>10</title>
<g id="a_node11"><a xlink:title="भू1{कर्तरि;लोट्;म;एक;परस्मैपदी;भू;भ्वादिः}">
<ellipse fill="#ff6347" stroke="#ff6347" cx="773.1" cy="-192" rx="44.39" ry="18"/>
<text text-anchor="middle" x="773.1" y="-188.3" font-family="Times,serif" font-size="14.00">भव (10)</text>
</a>
</g>
</g>
<!-- 10&#45;&gt;7 -->
<g id="edge7" class="edge">
<title>10&#45;&gt;7</title>
<path fill="none" stroke="black" d="M758.28,-174.88C753.05,-169.03 747.21,-162.31 742.1,-156 735.71,-148.11 729.02,-139.28 723.12,-131.25"/>
<polygon fill="black" stroke="black" points="725.78,-128.97 717.07,-122.95 720.13,-133.09 725.78,-128.97"/>
<text text-anchor="middle" x="766.6" y="-144.8" font-family="Times,serif" font-size="14.00">पूर्वकालः</text>
</g>
<!-- 10&#45;&gt;8 -->
<g id="edge8" class="edge">
<title>10&#45;&gt;8</title>
<path fill="none" stroke="black" d="M732.27,-184.97C701.51,-179.6 658.69,-170.34 623.1,-156 604.54,-148.52 585.27,-137.33 569.87,-127.43"/>
<polygon fill="black" stroke="black" points="571.56,-124.36 561.28,-121.79 567.72,-130.21 571.56,-124.36"/>
<text text-anchor="middle" x="675.1" y="-144.8" font-family="Times,serif" font-size="14.00">कर्तृसमानाधिकरणम्</text>
</g>
<!-- 10&#45;&gt;9 -->
<g id="edge10" class="edge">
<title>10&#45;&gt;9</title>
<path fill="none" stroke="black" d="M795.04,-176.19C815.21,-162.59 845.32,-142.28 867.97,-127"/>
<polygon fill="black" stroke="black" points="870.22,-129.7 876.55,-121.21 866.3,-123.9 870.22,-129.7"/>
<text text-anchor="middle" x="886.6" y="-144.8" font-family="Times,serif" font-size="14.00">क्रियाविशेषणम्</text>
</g>
<!-- 10&#45;&gt;10.1 -->
<g id="edge11" class="edge">
<title>10&#45;&gt;10.1</title>
<path fill="none" stroke="black" d="M782.63,-174.24C785.6,-168.57 788.73,-162.12 791.1,-156 805.45,-118.92 816.41,-74.15 822.55,-46.12"/>
<polygon fill="black" stroke="black" points="825.99,-46.75 824.67,-36.24 819.15,-45.29 825.99,-46.75"/>
<text text-anchor="middle" x="825.6" y="-101.3" font-family="Times,serif" font-size="14.00">कर्ता</text>
</g>
<!-- 11 -->
<g id="node13" class="node">
<title>11</title>
<ellipse fill="lightgrey" stroke="black" cx="180.1" cy="-192" rx="27" ry="18"/>
<text text-anchor="middle" x="180.1" y="-188.3" font-family="Times,serif" font-size="14.00">11</text>
</g>
<!-- 11&#45;&gt;4 -->
<g id="edge4" class="edge">
<title>11&#45;&gt;4</title>
<path fill="none" stroke="black" d="M180.1,-173.8C180.1,-162.16 180.1,-146.55 180.1,-133.24"/>
<polygon fill="black" stroke="black" points="183.6,-133.18 180.1,-123.18 176.6,-133.18 183.6,-133.18"/>
<text text-anchor="middle" x="204.6" y="-144.8" font-family="Times,serif" font-size="14.00">पूर्वकालः</text>
</g>
</g>
</svg>
