<?xml version="1.0" encoding="UTF-8" standalone="no"?>
<!DOCTYPE svg PUBLIC "-//W3C//DTD SVG 1.1//EN"
 "http://www.w3.org/Graphics/SVG/1.1/DTD/svg11.dtd">
<!-- Generated by graphviz version 2.43.0 (0)
 -->
<!-- Title: %3 Pages: 1 -->
<svg width="607pt" height="305pt"
 viewBox="0.00 0.00 606.79 305.00" xmlns="http://www.w3.org/2000/svg" xmlns:xlink="http://www.w3.org/1999/xlink">
<g id="graph0" class="graph" transform="scale(1 1) rotate(0) translate(4 301)">
<title>%3</title>
<polygon fill="#fffacd" stroke="transparent" points="-4,4 -4,-301 602.79,-301 602.79,4 -4,4"/>
<!-- 1 -->
<g id="node1" class="node">
<title>1</title>
<g id="a_node1"><a xlink:title="राजन्{पुं}{8;एक}">
<ellipse fill="#7fffd4" stroke="#7fffd4" cx="45.5" cy="-192" rx="45.49" ry="18"/>
<text text-anchor="middle" x="45.5" y="-188.3" font-family="Times,serif" font-size="14.00">राजन् (1)</text>
</a>
</g>
</g>
<!-- 2 -->
<g id="node2" class="node">
<title>2</title>
<g id="a_node2"><a xlink:title="सम्_स्मृ1{कृत्_प्रत्ययः:ल्यप्;सम्_स्मृ;भ्वादिः}">
<ellipse fill="#808080" stroke="#808080" cx="117.5" cy="-105" rx="53.89" ry="18"/>
<text text-anchor="middle" x="117.5" y="-101.3" font-family="Times,serif" font-size="14.00">संस्मृत्य (2)</text>
</a>
</g>
</g>
<!-- 3 -->
<g id="node3" class="node">
<title>3</title>
<g id="a_node3"><a xlink:title="सम्_स्मृ1{कृत्_प्रत्ययः:ल्यप्;सम्_स्मृ;भ्वादिः}">
<ellipse fill="#808080" stroke="#808080" cx="162.5" cy="-192" rx="53.89" ry="18"/>
<text text-anchor="middle" x="162.5" y="-188.3" font-family="Times,serif" font-size="14.00">संस्मृत्य (3)</text>
</a>
</g>
</g>
<!-- 3&#45;&gt;2 -->
<g id="edge2" class="edge">
<title>3&#45;&gt;2</title>
<path fill="none" stroke="black" d="M153.61,-174.21C147.2,-162.1 138.43,-145.53 131.13,-131.76"/>
<polygon fill="black" stroke="black" points="134.14,-129.96 126.37,-122.76 127.95,-133.23 134.14,-129.96"/>
<text text-anchor="middle" x="160" y="-144.8" font-family="Times,serif" font-size="14.00">वीप्सा</text>
</g>
<!-- 4 -->
<g id="node4" class="node">
<title>4</title>
<g id="a_node4"><a xlink:title="संवाद{पुं}{2;एक}">
<ellipse fill="#7cfc00" stroke="#7cfc00" cx="241.5" cy="-105" rx="51.99" ry="18"/>
<text text-anchor="middle" x="241.5" y="-101.3" font-family="Times,serif" font-size="14.00">संवादम् (4)</text>
</a>
</g>
</g>
<!-- 3&#45;&gt;4 -->
<g id="edge4" class="edge">
<title>3&#45;&gt;4</title>
<path fill="none" stroke="black" d="M177.73,-174.61C189.53,-161.91 206.05,-144.13 219.32,-129.86"/>
<polygon fill="black" stroke="black" points="222.07,-132.05 226.31,-122.34 216.94,-127.28 222.07,-132.05"/>
<text text-anchor="middle" x="217.5" y="-144.8" font-family="Times,serif" font-size="14.00">कर्म</text>
</g>
<!-- 5 -->
<g id="node5" class="node">
<title>5</title>
<g id="a_node5"><a xlink:title="इदम्{पुं}{2;एक}">
<ellipse fill="#7cfc00" stroke="#7cfc00" cx="44.5" cy="-18" rx="43.59" ry="18"/>
<text text-anchor="middle" x="44.5" y="-14.3" font-family="Times,serif" font-size="14.00">इमम् (5)</text>
</a>
</g>
</g>
<!-- 4&#45;&gt;5 -->
<g id="edge5" class="edge">
<title>4&#45;&gt;5</title>
<path fill="none" stroke="black" d="M204.78,-92.1C186.2,-85.77 163.42,-77.55 143.5,-69 121.55,-59.58 97.62,-47.55 78.8,-37.65"/>
<polygon fill="black" stroke="black" points="80.2,-34.43 69.72,-32.84 76.92,-40.62 80.2,-34.43"/>
<text text-anchor="middle" x="169" y="-57.8" font-family="Times,serif" font-size="14.00">विशेषणम्</text>
</g>
<!-- 6 -->
<g id="node6" class="node">
<title>6</title>
<g id="a_node6"><a xlink:title="अद्भुत{पुं}{2;एक}">
<ellipse fill="#7cfc00" stroke="#7cfc00" cx="163.5" cy="-18" rx="57.39" ry="18"/>
<text text-anchor="middle" x="163.5" y="-14.3" font-family="Times,serif" font-size="14.00">अद्भुतम् (6)</text>
</a>
</g>
</g>
<!-- 4&#45;&gt;6 -->
<g id="edge6" class="edge">
<title>4&#45;&gt;6</title>
<path fill="none" stroke="black" d="M226.46,-87.61C214.88,-74.99 198.7,-57.36 185.64,-43.13"/>
<polygon fill="black" stroke="black" points="188.1,-40.63 178.76,-35.63 182.94,-45.36 188.1,-40.63"/>
<text text-anchor="middle" x="233" y="-57.8" font-family="Times,serif" font-size="14.00">विशेषणम्</text>
</g>
<!-- 7 -->
<g id="node7" class="node">
<title>7</title>
<g id="a_node7"><a xlink:title="केशव&#45;अर्जुन{पुं}{6;द्वि}">
<ellipse fill="#87ceeb" stroke="#87ceeb" cx="319.5" cy="-18" rx="81.49" ry="18"/>
<text text-anchor="middle" x="319.5" y="-14.3" font-family="Times,serif" font-size="14.00">केशव&#45;अर्जुनयोः (7)</text>
</a>
</g>
</g>
<!-- 4&#45;&gt;7 -->
<g id="edge7" class="edge">
<title>4&#45;&gt;7</title>
<path fill="none" stroke="black" d="M256.54,-87.61C268.04,-75.07 284.09,-57.59 297.1,-43.41"/>
<polygon fill="black" stroke="black" points="299.79,-45.65 303.97,-35.92 294.63,-40.92 299.79,-45.65"/>
<text text-anchor="middle" x="321.5" y="-57.8" font-family="Times,serif" font-size="14.00">षष्ठीसम्बन्धः</text>
</g>
<!-- 8 -->
<g id="node8" class="node">
<title>8</title>
<g id="a_node8"><a xlink:title="पुण्य{पुं}{2;एक}">
<ellipse fill="#7cfc00" stroke="#7cfc00" cx="466.5" cy="-18" rx="48.19" ry="18"/>
<text text-anchor="middle" x="466.5" y="-14.3" font-family="Times,serif" font-size="14.00">पुण्यम् (8)</text>
</a>
</g>
</g>
<!-- 4&#45;&gt;8 -->
<g id="edge8" class="edge">
<title>4&#45;&gt;8</title>
<path fill="none" stroke="black" d="M282.3,-93.85C305.77,-87.57 335.64,-78.85 361.5,-69 385.11,-60 410.74,-47.85 430.76,-37.78"/>
<polygon fill="black" stroke="black" points="432.5,-40.82 439.82,-33.17 429.32,-34.58 432.5,-40.82"/>
<text text-anchor="middle" x="423" y="-57.8" font-family="Times,serif" font-size="14.00">विशेषणम्</text>
</g>
<!-- 9 -->
<g id="node9" class="node">
<title>9</title>
<g id="a_node9"><a xlink:title="हृष्1{कर्तरि;लट्;उ;एक;परस्मैपदी;हृषँ;दिवादिः}">
<ellipse fill="#ff6347" stroke="#ff6347" cx="228.5" cy="-279" rx="53.89" ry="18"/>
<text text-anchor="middle" x="228.5" y="-275.3" font-family="Times,serif" font-size="14.00">हृष्यामि (9)</text>
</a>
</g>
</g>
<!-- 9&#45;&gt;1 -->
<g id="edge1" class="edge">
<title>9&#45;&gt;1</title>
<path fill="none" stroke="black" d="M190.13,-266.17C171.76,-260.03 149.64,-251.95 130.5,-243 112.09,-234.39 92.47,-223.02 76.73,-213.29"/>
<polygon fill="black" stroke="black" points="78.28,-210.13 67.95,-207.79 74.57,-216.06 78.28,-210.13"/>
<text text-anchor="middle" x="156" y="-231.8" font-family="Times,serif" font-size="14.00">सम्बोध्यः</text>
</g>
<!-- 9&#45;&gt;3 -->
<g id="edge3" class="edge">
<title>9&#45;&gt;3</title>
<path fill="none" stroke="black" d="M212.11,-261.79C206.6,-256.05 200.58,-249.42 195.5,-243 189.4,-235.3 183.31,-226.47 178.05,-218.4"/>
<polygon fill="black" stroke="black" points="180.84,-216.26 172.51,-209.71 174.93,-220.02 180.84,-216.26"/>
<text text-anchor="middle" x="220" y="-231.8" font-family="Times,serif" font-size="14.00">पूर्वकालः</text>
</g>
<!-- 10 -->
<g id="node10" class="node">
<title>10</title>
<g id="a_node10"><a xlink:title="च{अव्य}">
<ellipse fill="#ff00ff" stroke="#ff00ff" cx="273.5" cy="-192" rx="38.99" ry="18"/>
<text text-anchor="middle" x="273.5" y="-188.3" font-family="Times,serif" font-size="14.00">च (10)</text>
</a>
</g>
</g>
<!-- 9&#45;&gt;10 -->
<g id="edge9" class="edge">
<title>9&#45;&gt;10</title>
<path fill="none" stroke="black" d="M237.39,-261.21C243.8,-249.1 252.57,-232.53 259.86,-218.76"/>
<polygon fill="black" stroke="black" points="263.04,-220.23 264.62,-209.76 256.85,-216.96 263.04,-220.23"/>
<text text-anchor="middle" x="277.5" y="-231.8" font-family="Times,serif" font-size="14.00">सम्बन्धः</text>
</g>
<!-- 11 -->
<g id="node11" class="node">
<title>11</title>
<g id="a_node11"><a xlink:title="मुहुः&#45;मुहुः{अव्य}">
<ellipse fill="#ff00ff" stroke="#ff00ff" cx="389.5" cy="-192" rx="59.29" ry="18"/>
<text text-anchor="middle" x="389.5" y="-188.3" font-family="Times,serif" font-size="14.00">मुहुर्मुहुः (11)</text>
</a>
</g>
</g>
<!-- 9&#45;&gt;11 -->
<g id="edge10" class="edge">
<title>9&#45;&gt;11</title>
<path fill="none" stroke="black" d="M260.27,-264.22C274.02,-258.04 290.21,-250.47 304.5,-243 321.75,-233.98 340.44,-223.11 355.89,-213.82"/>
<polygon fill="black" stroke="black" points="357.84,-216.73 364.58,-208.55 354.21,-210.74 357.84,-216.73"/>
<text text-anchor="middle" x="374" y="-231.8" font-family="Times,serif" font-size="14.00">क्रियाविशेषणम्</text>
</g>
<!-- 11.1 -->
<g id="node12" class="node">
<title>11.1</title>
<g id="a_node12"><a xlink:title="(अस्मद्{1;एक})">
<ellipse fill="#00bfff" stroke="#00bfff" cx="532.5" cy="-192" rx="66.09" ry="18"/>
<text text-anchor="middle" x="532.5" y="-188.3" font-family="Times,serif" font-size="14.00">(अहम्) (11.1)</text>
</a>
</g>
</g>
<!-- 12 -->
<g id="node13" class="node">
<title>12</title>
<ellipse fill="lightgrey" stroke="black" cx="532.5" cy="-279" rx="27" ry="18"/>
<text text-anchor="middle" x="532.5" y="-275.3" font-family="Times,serif" font-size="14.00">12</text>
</g>
<!-- 12&#45;&gt;11.1 -->
<g id="edge11" class="edge">
<title>12&#45;&gt;11.1</title>
<path fill="none" stroke="black" d="M532.5,-260.8C532.5,-249.16 532.5,-233.55 532.5,-220.24"/>
<polygon fill="black" stroke="black" points="536,-220.18 532.5,-210.18 529,-220.18 536,-220.18"/>
<text text-anchor="middle" x="545" y="-231.8" font-family="Times,serif" font-size="14.00">कर्ता</text>
</g>
</g>
</svg>
