<?xml version="1.0" encoding="UTF-8" standalone="no"?>
<!DOCTYPE svg PUBLIC "-//W3C//DTD SVG 1.1//EN"
 "http://www.w3.org/Graphics/SVG/1.1/DTD/svg11.dtd">
<!-- Generated by graphviz version 2.43.0 (0)
 -->
<!-- Title: %3 Pages: 1 -->
<svg width="1165pt" height="218pt"
 viewBox="0.00 0.00 1164.79 218.00" xmlns="http://www.w3.org/2000/svg" xmlns:xlink="http://www.w3.org/1999/xlink">
<g id="graph0" class="graph" transform="scale(1 1) rotate(0) translate(4 214)">
<title>%3</title>
<polygon fill="#fffacd" stroke="transparent" points="-4,4 -4,-214 1160.79,-214 1160.79,4 -4,4"/>
<!-- 1 -->
<g id="node1" class="node">
<title>1</title>
<g id="a_node1"><a xlink:title="ज्ञान{नपुं}{1;एक}">
<ellipse fill="#00bfff" stroke="#00bfff" cx="46.15" cy="-192" rx="46.29" ry="18"/>
<text text-anchor="middle" x="46.15" y="-188.3" font-family="Times,serif" font-size="14.00">ज्ञानम् (1)</text>
</a>
</g>
</g>
<!-- 2 -->
<g id="node2" class="node">
<title>2</title>
<g id="a_node2"><a xlink:title="कर्मन्{नपुं}{1;एक}">
<ellipse fill="#00bfff" stroke="#00bfff" cx="149.15" cy="-192" rx="38.99" ry="18"/>
<text text-anchor="middle" x="149.15" y="-188.3" font-family="Times,serif" font-size="14.00">कर्म (2)</text>
</a>
</g>
</g>
<!-- 3 -->
<g id="node3" class="node">
<title>3</title>
<g id="a_node3"><a xlink:title="च{अव्य}">
<ellipse fill="#ff00ff" stroke="#ff00ff" cx="149.15" cy="-105" rx="33.29" ry="18"/>
<text text-anchor="middle" x="149.15" y="-101.3" font-family="Times,serif" font-size="14.00">च (3)</text>
</a>
</g>
</g>
<!-- 2&#45;&gt;3 -->
<g id="edge1" class="edge">
<title>2&#45;&gt;3</title>
<path fill="none" stroke="black" d="M149.15,-173.8C149.15,-162.16 149.15,-146.55 149.15,-133.24"/>
<polygon fill="black" stroke="black" points="152.65,-133.18 149.15,-123.18 145.65,-133.18 152.65,-133.18"/>
<text text-anchor="middle" x="191.65" y="-144.8" font-family="Times,serif" font-size="14.00">समुच्चयद्योतकः</text>
</g>
<!-- 4 -->
<g id="node4" class="node">
<title>4</title>
<g id="a_node4"><a xlink:title="कर्तृ{पुं}{1;एक}">
<ellipse fill="#00bfff" stroke="#00bfff" cx="257.15" cy="-192" rx="42.49" ry="18"/>
<text text-anchor="middle" x="257.15" y="-188.3" font-family="Times,serif" font-size="14.00">कर्ता (4)</text>
</a>
</g>
</g>
<!-- 5 -->
<g id="node5" class="node">
<title>5</title>
<g id="a_node5"><a xlink:title="च{अव्य}">
<ellipse fill="#ff00ff" stroke="#ff00ff" cx="257.15" cy="-105" rx="33.29" ry="18"/>
<text text-anchor="middle" x="257.15" y="-101.3" font-family="Times,serif" font-size="14.00">च (5)</text>
</a>
</g>
</g>
<!-- 4&#45;&gt;5 -->
<g id="edge2" class="edge">
<title>4&#45;&gt;5</title>
<path fill="none" stroke="black" d="M257.15,-173.8C257.15,-162.16 257.15,-146.55 257.15,-133.24"/>
<polygon fill="black" stroke="black" points="260.65,-133.18 257.15,-123.18 253.65,-133.18 260.65,-133.18"/>
<text text-anchor="middle" x="299.65" y="-144.8" font-family="Times,serif" font-size="14.00">समुच्चयद्योतकः</text>
</g>
<!-- 6 -->
<g id="node6" class="node">
<title>6</title>
<g id="a_node6"><a xlink:title="त्रिधा{अव्य}">
<ellipse fill="#ff00ff" stroke="#ff00ff" cx="356.15" cy="-105" rx="48.19" ry="18"/>
<text text-anchor="middle" x="356.15" y="-101.3" font-family="Times,serif" font-size="14.00">त्रिधा (6)</text>
</a>
</g>
</g>
<!-- 7 -->
<g id="node7" class="node">
<title>7</title>
<g id="a_node7"><a xlink:title="एव{अव्य}">
<ellipse fill="#ff00ff" stroke="#ff00ff" cx="356.15" cy="-18" rx="37.89" ry="18"/>
<text text-anchor="middle" x="356.15" y="-14.3" font-family="Times,serif" font-size="14.00">एव (7)</text>
</a>
</g>
</g>
<!-- 6&#45;&gt;7 -->
<g id="edge4" class="edge">
<title>6&#45;&gt;7</title>
<path fill="none" stroke="black" d="M356.15,-86.8C356.15,-75.16 356.15,-59.55 356.15,-46.24"/>
<polygon fill="black" stroke="black" points="359.65,-46.18 356.15,-36.18 352.65,-46.18 359.65,-46.18"/>
<text text-anchor="middle" x="379.15" y="-57.8" font-family="Times,serif" font-size="14.00">सम्बन्धः</text>
</g>
<!-- 8 -->
<g id="node8" class="node">
<title>8</title>
<g id="a_node8"><a xlink:title="गुणभेदतः{अव्य}">
<ellipse fill="#ff00ff" stroke="#ff00ff" cx="485.15" cy="-105" rx="63.09" ry="18"/>
<text text-anchor="middle" x="485.15" y="-101.3" font-family="Times,serif" font-size="14.00">गुण&#45;भेदतः (8)</text>
</a>
</g>
</g>
<!-- 9 -->
<g id="node9" class="node">
<title>9</title>
<g id="a_node9"><a xlink:title="प्र_वच्1{कर्मणि;लट्;प्र;एक;आत्मनेपदी;प्र_वचँ;अदादिः}">
<ellipse fill="#ff6347" stroke="#ff6347" cx="485.15" cy="-192" rx="55.79" ry="18"/>
<text text-anchor="middle" x="485.15" y="-188.3" font-family="Times,serif" font-size="14.00">प्रोच्यते (9)</text>
</a>
</g>
</g>
<!-- 9&#45;&gt;6 -->
<g id="edge3" class="edge">
<title>9&#45;&gt;6</title>
<path fill="none" stroke="black" d="M461.78,-175.61C440.93,-161.86 410.21,-141.63 387.27,-126.51"/>
<polygon fill="black" stroke="black" points="389.18,-123.57 378.9,-120.99 385.32,-129.42 389.18,-123.57"/>
<text text-anchor="middle" x="441.65" y="-144.8" font-family="Times,serif" font-size="14.00">कर्ता</text>
</g>
<!-- 9&#45;&gt;8 -->
<g id="edge5" class="edge">
<title>9&#45;&gt;8</title>
<path fill="none" stroke="black" d="M485.15,-173.8C485.15,-162.16 485.15,-146.55 485.15,-133.24"/>
<polygon fill="black" stroke="black" points="488.65,-133.18 485.15,-123.18 481.65,-133.18 488.65,-133.18"/>
<text text-anchor="middle" x="527.65" y="-144.8" font-family="Times,serif" font-size="14.00">क्रियाविशेषणम्</text>
</g>
<!-- 10 -->
<g id="node10" class="node">
<title>10</title>
<g id="a_node10"><a xlink:title="गुण&#45;सङ्ख्यान{नपुं}{7;एक}">
<ellipse fill="#708090" stroke="#708090" cx="646.15" cy="-105" rx="79.89" ry="18"/>
<text text-anchor="middle" x="646.15" y="-101.3" font-family="Times,serif" font-size="14.00">गुण&#45;सङ्ख्याने (10)</text>
</a>
</g>
</g>
<!-- 9&#45;&gt;10 -->
<g id="edge6" class="edge">
<title>9&#45;&gt;10</title>
<path fill="none" stroke="black" d="M522.38,-178.56C538.66,-172.56 557.75,-164.77 574.15,-156 588.87,-148.13 604.19,-137.83 616.9,-128.62"/>
<polygon fill="black" stroke="black" points="619.27,-131.22 625.24,-122.46 615.12,-125.58 619.27,-131.22"/>
<text text-anchor="middle" x="629.65" y="-144.8" font-family="Times,serif" font-size="14.00">अधिकरणम्</text>
</g>
<!-- 11 -->
<g id="node11" class="node">
<title>11</title>
<g id="a_node11"><a xlink:title="यथावत्{अव्य}">
<ellipse fill="#ff00ff" stroke="#ff00ff" cx="803.15" cy="-105" rx="59.29" ry="18"/>
<text text-anchor="middle" x="803.15" y="-101.3" font-family="Times,serif" font-size="14.00">यथावत् (11)</text>
</a>
</g>
</g>
<!-- 12 -->
<g id="node12" class="node">
<title>12</title>
<g id="a_node12"><a xlink:title="श्रु1{कर्तरि;लोट्;म;एक;परस्मैपदी;श्रु;भ्वादिः}">
<ellipse fill="#ff6347" stroke="#ff6347" cx="861.15" cy="-192" rx="46.29" ry="18"/>
<text text-anchor="middle" x="861.15" y="-188.3" font-family="Times,serif" font-size="14.00">शृणु (12)</text>
</a>
</g>
</g>
<!-- 12&#45;&gt;11 -->
<g id="edge7" class="edge">
<title>12&#45;&gt;11</title>
<path fill="none" stroke="black" d="M834.84,-177.02C826.73,-171.49 818.54,-164.43 813.15,-156 808.88,-149.34 806.38,-141.23 804.92,-133.5"/>
<polygon fill="black" stroke="black" points="808.36,-132.8 803.52,-123.37 801.42,-133.75 808.36,-132.8"/>
<text text-anchor="middle" x="855.65" y="-144.8" font-family="Times,serif" font-size="14.00">क्रियाविशेषणम्</text>
</g>
<!-- 13 -->
<g id="node13" class="node">
<title>13</title>
<g id="a_node13"><a xlink:title="तद्{नपुं}{2;बहु}">
<ellipse fill="#7cfc00" stroke="#7cfc00" cx="929.15" cy="-105" rx="48.99" ry="18"/>
<text text-anchor="middle" x="929.15" y="-101.3" font-family="Times,serif" font-size="14.00">तानि (13)</text>
</a>
</g>
</g>
<!-- 12&#45;&gt;13 -->
<g id="edge8" class="edge">
<title>12&#45;&gt;13</title>
<path fill="none" stroke="black" d="M879.77,-175.13C885.96,-169.42 892.67,-162.72 898.15,-156 904.24,-148.52 910.06,-139.76 914.98,-131.67"/>
<polygon fill="black" stroke="black" points="918.06,-133.33 920.11,-122.94 912.02,-129.79 918.06,-133.33"/>
<text text-anchor="middle" x="919.15" y="-144.8" font-family="Times,serif" font-size="14.00">कर्म</text>
</g>
<!-- 14 -->
<g id="node14" class="node">
<title>14</title>
<g id="a_node14"><a xlink:title="अपि{अव्य}">
<ellipse fill="#ff00ff" stroke="#ff00ff" cx="929.15" cy="-18" rx="48.19" ry="18"/>
<text text-anchor="middle" x="929.15" y="-14.3" font-family="Times,serif" font-size="14.00">अपि (14)</text>
</a>
</g>
</g>
<!-- 13&#45;&gt;14 -->
<g id="edge9" class="edge">
<title>13&#45;&gt;14</title>
<path fill="none" stroke="black" d="M929.15,-86.8C929.15,-75.16 929.15,-59.55 929.15,-46.24"/>
<polygon fill="black" stroke="black" points="932.65,-46.18 929.15,-36.18 925.65,-46.18 932.65,-46.18"/>
<text text-anchor="middle" x="952.15" y="-57.8" font-family="Times,serif" font-size="14.00">सम्बन्धः</text>
</g>
<!-- 15 -->
<g id="node15" class="node">
<title>15</title>
<g id="a_node15"><a xlink:title="(युष्मद्{1;एक})">
<ellipse fill="#00bfff" stroke="#00bfff" cx="979.15" cy="-192" rx="53.89" ry="18"/>
<text text-anchor="middle" x="979.15" y="-188.3" font-family="Times,serif" font-size="14.00">(त्वम्) (15)</text>
</a>
</g>
</g>
<!-- 16 -->
<g id="node16" class="node">
<title>16</title>
<g id="a_node16"><a xlink:title="(इति{अव्य})">
<ellipse fill="#ff00ff" stroke="#ff00ff" cx="1104.15" cy="-192" rx="52.79" ry="18"/>
<text text-anchor="middle" x="1104.15" y="-188.3" font-family="Times,serif" font-size="14.00">(इति) (16)</text>
</a>
</g>
</g>
</g>
</svg>
