<?xml version="1.0" encoding="UTF-8" standalone="no"?>
<!DOCTYPE svg PUBLIC "-//W3C//DTD SVG 1.1//EN"
 "http://www.w3.org/Graphics/SVG/1.1/DTD/svg11.dtd">
<!-- Generated by graphviz version 2.43.0 (0)
 -->
<!-- Title: %3 Pages: 1 -->
<svg width="1410pt" height="305pt"
 viewBox="0.00 0.00 1409.89 305.00" xmlns="http://www.w3.org/2000/svg" xmlns:xlink="http://www.w3.org/1999/xlink">
<g id="graph0" class="graph" transform="scale(1 1) rotate(0) translate(4 301)">
<title>%3</title>
<polygon fill="#fffacd" stroke="transparent" points="-4,4 -4,-301 1405.89,-301 1405.89,4 -4,4"/>
<!-- 1 -->
<g id="node1" class="node">
<title>1</title>
<g id="a_node1"><a xlink:title="दुःख{नपुं}{1;एक}">
<ellipse fill="#00bfff" stroke="#00bfff" cx="48.1" cy="-279" rx="48.19" ry="18"/>
<text text-anchor="middle" x="48.1" y="-275.3" font-family="Times,serif" font-size="14.00">दुःखम् (1)</text>
</a>
</g>
</g>
<!-- 3 -->
<g id="node3" class="node">
<title>3</title>
<g id="a_node3"><a xlink:title="एव{अव्य}">
<ellipse fill="#ff00ff" stroke="#ff00ff" cx="48.1" cy="-192" rx="37.89" ry="18"/>
<text text-anchor="middle" x="48.1" y="-188.3" font-family="Times,serif" font-size="14.00">एव (3)</text>
</a>
</g>
</g>
<!-- 1&#45;&gt;3 -->
<g id="edge1" class="edge">
<title>1&#45;&gt;3</title>
<path fill="none" stroke="black" d="M48.1,-260.8C48.1,-249.16 48.1,-233.55 48.1,-220.24"/>
<polygon fill="black" stroke="black" points="51.6,-220.18 48.1,-210.18 44.6,-220.18 51.6,-220.18"/>
<text text-anchor="middle" x="71.1" y="-231.8" font-family="Times,serif" font-size="14.00">सम्बन्धः</text>
</g>
<!-- 2 -->
<g id="node2" class="node">
<title>2</title>
<g id="a_node2"><a xlink:title="इति{अव्य}">
<ellipse fill="#ff00ff" stroke="#ff00ff" cx="154.1" cy="-279" rx="40.09" ry="18"/>
<text text-anchor="middle" x="154.1" y="-275.3" font-family="Times,serif" font-size="14.00">इति (2)</text>
</a>
</g>
</g>
<!-- 4 -->
<g id="node4" class="node">
<title>4</title>
<g id="a_node4"><a xlink:title="यत्{नपुं}{1;एक}">
<ellipse fill="#00bfff" stroke="#00bfff" cx="251.1" cy="-192" rx="38.19" ry="18"/>
<text text-anchor="middle" x="251.1" y="-188.3" font-family="Times,serif" font-size="14.00">यत् (4)</text>
</a>
</g>
</g>
<!-- 5 -->
<g id="node5" class="node">
<title>5</title>
<g id="a_node5"><a xlink:title="कर्मन्{नपुं}{1;एक}">
<ellipse fill="#00bfff" stroke="#00bfff" cx="251.1" cy="-279" rx="38.99" ry="18"/>
<text text-anchor="middle" x="251.1" y="-275.3" font-family="Times,serif" font-size="14.00">कर्म (5)</text>
</a>
</g>
</g>
<!-- 5&#45;&gt;4 -->
<g id="edge2" class="edge">
<title>5&#45;&gt;4</title>
<path fill="none" stroke="black" d="M251.1,-260.8C251.1,-249.16 251.1,-233.55 251.1,-220.24"/>
<polygon fill="black" stroke="black" points="254.6,-220.18 251.1,-210.18 247.6,-220.18 254.6,-220.18"/>
<text text-anchor="middle" x="276.6" y="-231.8" font-family="Times,serif" font-size="14.00">विशेषणम्</text>
</g>
<!-- 6 -->
<g id="node6" class="node">
<title>6</title>
<g id="a_node6"><a xlink:title="काय&#45;क्लेश&#45;भय{नपुं}{5;एक}">
<ellipse fill="#90ee90" stroke="#90ee90" cx="394.1" cy="-192" rx="87.18" ry="18"/>
<text text-anchor="middle" x="394.1" y="-188.3" font-family="Times,serif" font-size="14.00">काय&#45;क्लेश&#45;भयात् (6)</text>
</a>
</g>
</g>
<!-- 7 -->
<g id="node7" class="node">
<title>7</title>
<g id="a_node7"><a xlink:title="त्यज्1{कर्तरि;विधिलिङ्;प्र;एक;परस्मैपदी;त्यजँ;भ्वादिः}">
<ellipse fill="#ff6347" stroke="#ff6347" cx="394.1" cy="-279" rx="48.99" ry="18"/>
<text text-anchor="middle" x="394.1" y="-275.3" font-family="Times,serif" font-size="14.00">त्यजेत् (7)</text>
</a>
</g>
</g>
<!-- 7&#45;&gt;6 -->
<g id="edge3" class="edge">
<title>7&#45;&gt;6</title>
<path fill="none" stroke="black" d="M394.1,-260.8C394.1,-249.16 394.1,-233.55 394.1,-220.24"/>
<polygon fill="black" stroke="black" points="397.6,-220.18 394.1,-210.18 390.6,-220.18 397.6,-220.18"/>
<text text-anchor="middle" x="405.6" y="-231.8" font-family="Times,serif" font-size="14.00">हेतुः</text>
</g>
<!-- 8 -->
<g id="node8" class="node">
<title>8</title>
<g id="a_node8"><a xlink:title="तद्{पुं}{1;एक}">
<ellipse fill="#00bfff" stroke="#00bfff" cx="517.1" cy="-105" rx="36.29" ry="18"/>
<text text-anchor="middle" x="517.1" y="-101.3" font-family="Times,serif" font-size="14.00">सः (8)</text>
</a>
</g>
</g>
<!-- 9 -->
<g id="node9" class="node">
<title>9</title>
<g id="a_node9"><a xlink:title="कृ3{कृत्_प्रत्ययः:क्त्वा;डुकृञ्;तनादिः}">
<ellipse fill="#808080" stroke="#808080" cx="605.1" cy="-192" rx="44.69" ry="18"/>
<text text-anchor="middle" x="605.1" y="-188.3" font-family="Times,serif" font-size="14.00">कृत्वा (9)</text>
</a>
</g>
</g>
<!-- 9&#45;&gt;8 -->
<g id="edge5" class="edge">
<title>9&#45;&gt;8</title>
<path fill="none" stroke="black" stroke-dasharray="1,5" d="M588.54,-175.01C574.98,-161.91 555.61,-143.2 540.46,-128.57"/>
<polygon fill="black" stroke="black" points="542.61,-125.77 532.98,-121.34 537.74,-130.81 542.61,-125.77"/>
<text text-anchor="middle" x="579.6" y="-144.8" font-family="Times,serif" font-size="14.00">कर्ता</text>
</g>
<!-- 11 -->
<g id="node11" class="node">
<title>11</title>
<g id="a_node11"><a xlink:title="त्याग{पुं}{2;एक}">
<ellipse fill="#7cfc00" stroke="#7cfc00" cx="628.1" cy="-105" rx="56.59" ry="18"/>
<text text-anchor="middle" x="628.1" y="-101.3" font-family="Times,serif" font-size="14.00">त्यागम् (11)</text>
</a>
</g>
</g>
<!-- 9&#45;&gt;11 -->
<g id="edge8" class="edge">
<title>9&#45;&gt;11</title>
<path fill="none" stroke="black" d="M609.75,-173.8C612.93,-162.05 617.21,-146.24 620.83,-132.84"/>
<polygon fill="black" stroke="black" points="624.21,-133.74 623.45,-123.18 617.46,-131.91 624.21,-133.74"/>
<text text-anchor="middle" x="628.1" y="-144.8" font-family="Times,serif" font-size="14.00">कर्म</text>
</g>
<!-- 10 -->
<g id="node10" class="node">
<title>10</title>
<g id="a_node10"><a xlink:title="राजस{पुं}{2;एक}">
<ellipse fill="#7cfc00" stroke="#7cfc00" cx="628.1" cy="-18" rx="57.69" ry="18"/>
<text text-anchor="middle" x="628.1" y="-14.3" font-family="Times,serif" font-size="14.00">राजसम् (10)</text>
</a>
</g>
</g>
<!-- 11&#45;&gt;10 -->
<g id="edge7" class="edge">
<title>11&#45;&gt;10</title>
<path fill="none" stroke="black" d="M628.1,-86.8C628.1,-75.16 628.1,-59.55 628.1,-46.24"/>
<polygon fill="black" stroke="black" points="631.6,-46.18 628.1,-36.18 624.6,-46.18 631.6,-46.18"/>
<text text-anchor="middle" x="653.6" y="-57.8" font-family="Times,serif" font-size="14.00">विशेषणम्</text>
</g>
<!-- 12 -->
<g id="node12" class="node">
<title>12</title>
<g id="a_node12"><a xlink:title="न{अव्य}">
<ellipse fill="#ff00ff" stroke="#ff00ff" cx="706.1" cy="-192" rx="38.19" ry="18"/>
<text text-anchor="middle" x="706.1" y="-188.3" font-family="Times,serif" font-size="14.00">न (12)</text>
</a>
</g>
</g>
<!-- 13 -->
<g id="node13" class="node">
<title>13</title>
<g id="a_node13"><a xlink:title="एव{अव्य}">
<ellipse fill="#ff00ff" stroke="#ff00ff" cx="836.1" cy="-105" rx="43.59" ry="18"/>
<text text-anchor="middle" x="836.1" y="-101.3" font-family="Times,serif" font-size="14.00">एव (13)</text>
</a>
</g>
</g>
<!-- 14 -->
<g id="node14" class="node">
<title>14</title>
<g id="a_node14"><a xlink:title="त्याग&#45;फल{नपुं}{2;एक}">
<ellipse fill="#7cfc00" stroke="#7cfc00" cx="836.1" cy="-192" rx="73.39" ry="18"/>
<text text-anchor="middle" x="836.1" y="-188.3" font-family="Times,serif" font-size="14.00">त्याग&#45;फलम् (14)</text>
</a>
</g>
</g>
<!-- 14&#45;&gt;13 -->
<g id="edge10" class="edge">
<title>14&#45;&gt;13</title>
<path fill="none" stroke="black" d="M836.1,-173.8C836.1,-162.16 836.1,-146.55 836.1,-133.24"/>
<polygon fill="black" stroke="black" points="839.6,-133.18 836.1,-123.18 832.6,-133.18 839.6,-133.18"/>
<text text-anchor="middle" x="859.1" y="-144.8" font-family="Times,serif" font-size="14.00">सम्बन्धः</text>
</g>
<!-- 15 -->
<g id="node15" class="node">
<title>15</title>
<g id="a_node15"><a xlink:title="लभ्1{कर्तरि;विधिलिङ्;प्र;एक;परस्मैपदी;डुलभँष्;भ्वादिः}">
<ellipse fill="#ff6347" stroke="#ff6347" cx="656.1" cy="-279" rx="51.99" ry="18"/>
<text text-anchor="middle" x="656.1" y="-275.3" font-family="Times,serif" font-size="14.00">लभेत् (15)</text>
</a>
</g>
</g>
<!-- 15&#45;&gt;8 -->
<g id="edge4" class="edge">
<title>15&#45;&gt;8</title>
<path fill="none" stroke="black" d="M614.9,-267.87C585.02,-258.23 546.43,-240.53 526.1,-210 511.07,-187.45 510.53,-155.76 512.68,-133.3"/>
<polygon fill="black" stroke="black" points="516.18,-133.44 513.89,-123.1 509.23,-132.61 516.18,-133.44"/>
<text text-anchor="middle" x="538.6" y="-188.3" font-family="Times,serif" font-size="14.00">कर्ता</text>
</g>
<!-- 15&#45;&gt;9 -->
<g id="edge6" class="edge">
<title>15&#45;&gt;9</title>
<path fill="none" stroke="black" d="M640.32,-261.74C635.36,-256.09 630.13,-249.54 626.1,-243 621.64,-235.79 617.73,-227.47 614.52,-219.71"/>
<polygon fill="black" stroke="black" points="617.75,-218.35 610.85,-210.31 611.22,-220.9 617.75,-218.35"/>
<text text-anchor="middle" x="650.6" y="-231.8" font-family="Times,serif" font-size="14.00">पूर्वकालः</text>
</g>
<!-- 15&#45;&gt;12 -->
<g id="edge9" class="edge">
<title>15&#45;&gt;12</title>
<path fill="none" stroke="black" d="M665.97,-261.21C673.21,-248.9 683.16,-232 691.34,-218.09"/>
<polygon fill="black" stroke="black" points="694.35,-219.86 696.41,-209.47 688.32,-216.31 694.35,-219.86"/>
<text text-anchor="middle" x="710.1" y="-231.8" font-family="Times,serif" font-size="14.00">प्रतिषेधः</text>
</g>
<!-- 15&#45;&gt;14 -->
<g id="edge11" class="edge">
<title>15&#45;&gt;14</title>
<path fill="none" stroke="black" d="M689.09,-265.01C704.69,-258.68 723.5,-250.76 740.1,-243 759.66,-233.85 781.02,-222.83 798.61,-213.47"/>
<polygon fill="black" stroke="black" points="800.27,-216.55 807.43,-208.75 796.96,-210.38 800.27,-216.55"/>
<text text-anchor="middle" x="780.1" y="-231.8" font-family="Times,serif" font-size="14.00">कर्म</text>
</g>
<!-- 16 -->
<g id="node16" class="node">
<title>16</title>
<g id="a_node16"><a xlink:title="(ज्ञा1{कृत्_प्रत्ययः:क्त्वा;ज्ञा;भ्वादिः})">
<ellipse fill="#808080" stroke="#808080" cx="786.1" cy="-279" rx="59.59" ry="18"/>
<text text-anchor="middle" x="786.1" y="-275.3" font-family="Times,serif" font-size="14.00">(ज्ञात्वा) (16)</text>
</a>
</g>
</g>
<!-- 17 -->
<g id="node17" class="node">
<title>17</title>
<g id="a_node17"><a xlink:title="(अस्2{कर्तरि;लट्;प्र;एक;परस्मैपदी;असँ;अदादिः})">
<ellipse fill="#ff6347" stroke="#ff6347" cx="924.1" cy="-279" rx="59.59" ry="18"/>
<text text-anchor="middle" x="924.1" y="-275.3" font-family="Times,serif" font-size="14.00">(अस्ति) (17)</text>
</a>
</g>
</g>
<!-- 18 -->
<g id="node18" class="node">
<title>18</title>
<g id="a_node18"><a xlink:title="(कर्मन्{नपुं}{1;एक})">
<ellipse fill="#00bfff" stroke="#00bfff" cx="1054.1" cy="-279" rx="51.99" ry="18"/>
<text text-anchor="middle" x="1054.1" y="-275.3" font-family="Times,serif" font-size="14.00">(कर्म) (18)</text>
</a>
</g>
</g>
<!-- 19 -->
<g id="node19" class="node">
<title>19</title>
<g id="a_node19"><a xlink:title="(तद्{नपुं}{1;एक})">
<ellipse fill="#00bfff" stroke="#00bfff" cx="1194.1" cy="-279" rx="70.39" ry="18"/>
<text text-anchor="middle" x="1194.1" y="-275.3" font-family="Times,serif" font-size="14.00">(तत्)(इ+) (19)</text>
</a>
</g>
</g>
<!-- 20 -->
<g id="node20" class="node">
<title>20</title>
<g id="a_node20"><a xlink:title="(अस्2{कर्तरि;लट्;प्र;एक;परस्मैपदी;असँ;अदादिः})">
<ellipse fill="#ff6347" stroke="#ff6347" cx="1342.1" cy="-279" rx="59.59" ry="18"/>
<text text-anchor="middle" x="1342.1" y="-275.3" font-family="Times,serif" font-size="14.00">(अस्ति) (20)</text>
</a>
</g>
</g>
</g>
</svg>
