<?xml version="1.0" encoding="UTF-8" standalone="no"?>
<!DOCTYPE svg PUBLIC "-//W3C//DTD SVG 1.1//EN"
 "http://www.w3.org/Graphics/SVG/1.1/DTD/svg11.dtd">
<!-- Generated by graphviz version 2.43.0 (0)
 -->
<!-- Title: %3 Pages: 1 -->
<svg width="881pt" height="218pt"
 viewBox="0.00 0.00 880.99 218.00" xmlns="http://www.w3.org/2000/svg" xmlns:xlink="http://www.w3.org/1999/xlink">
<g id="graph0" class="graph" transform="scale(1 1) rotate(0) translate(4 214)">
<title>%3</title>
<polygon fill="#fffacd" stroke="transparent" points="-4,4 -4,-214 876.99,-214 876.99,4 -4,4"/>
<!-- 1 -->
<g id="node1" class="node">
<title>1</title>
<g id="a_node1"><a xlink:title="रागिन्{पुं}{1;एक}">
<ellipse fill="#00bfff" stroke="#00bfff" cx="42.25" cy="-18" rx="42.49" ry="18"/>
<text text-anchor="middle" x="42.25" y="-14.3" font-family="Times,serif" font-size="14.00">रागी (1)</text>
</a>
</g>
</g>
<!-- 2 -->
<g id="node2" class="node">
<title>2</title>
<g id="a_node2"><a xlink:title="कर्मन्&#45;फल&#45;प्रेप्सु{पुं}{1;एक}">
<ellipse fill="#00bfff" stroke="#00bfff" cx="185.25" cy="-18" rx="82.59" ry="18"/>
<text text-anchor="middle" x="185.25" y="-14.3" font-family="Times,serif" font-size="14.00">कर्म&#45;फल&#45;प्रेप्सुः (2)</text>
</a>
</g>
</g>
<!-- 3 -->
<g id="node3" class="node">
<title>3</title>
<g id="a_node3"><a xlink:title="लुब्ध{पुं}{1;एक}">
<ellipse fill="#00bfff" stroke="#00bfff" cx="332.25" cy="-18" rx="46.59" ry="18"/>
<text text-anchor="middle" x="332.25" y="-14.3" font-family="Times,serif" font-size="14.00">लुब्धः (3)</text>
</a>
</g>
</g>
<!-- 4 -->
<g id="node4" class="node">
<title>4</title>
<g id="a_node4"><a xlink:title="हिंसा&#45;आत्मक{पुं}{1;एक}">
<ellipse fill="#00bfff" stroke="#00bfff" cx="473.25" cy="-18" rx="76.09" ry="18"/>
<text text-anchor="middle" x="473.25" y="-14.3" font-family="Times,serif" font-size="14.00">हिंसा&#45;आत्मकः (4)</text>
</a>
</g>
</g>
<!-- 5 -->
<g id="node5" class="node">
<title>5</title>
<g id="a_node5"><a xlink:title="अशुचि{पुं}{1;एक}">
<ellipse fill="#00bfff" stroke="#00bfff" cx="623.25" cy="-18" rx="55.79" ry="18"/>
<text text-anchor="middle" x="623.25" y="-14.3" font-family="Times,serif" font-size="14.00">अ&#45;शुचिः (5)</text>
</a>
</g>
</g>
<!-- 6 -->
<g id="node6" class="node">
<title>6</title>
<g id="a_node6"><a xlink:title="हर्ष&#45;शोक&#45;अन्वित{पुं}{1;एक}">
<ellipse fill="#00bfff" stroke="#00bfff" cx="785.25" cy="-18" rx="87.99" ry="18"/>
<text text-anchor="middle" x="785.25" y="-14.3" font-family="Times,serif" font-size="14.00">हर्ष&#45;शोक&#45;अन्वितः (6)</text>
</a>
</g>
</g>
<!-- 7 -->
<g id="node7" class="node">
<title>7</title>
<g id="a_node7"><a xlink:title="कर्तृ{पुं}{1;एक}">
<ellipse fill="#00bfff" stroke="#00bfff" cx="402.25" cy="-105" rx="42.49" ry="18"/>
<text text-anchor="middle" x="402.25" y="-101.3" font-family="Times,serif" font-size="14.00">कर्ता (7)</text>
</a>
</g>
</g>
<!-- 7&#45;&gt;1 -->
<g id="edge1" class="edge">
<title>7&#45;&gt;1</title>
<path fill="none" stroke="black" d="M363.6,-97.61C325.85,-91.16 266.86,-80.54 216.25,-69 161.06,-56.42 147.45,-52.29 93.25,-36 90.12,-35.06 86.89,-34.06 83.65,-33.03"/>
<polygon fill="black" stroke="black" points="84.58,-29.65 73.98,-29.9 82.42,-36.31 84.58,-29.65"/>
<text text-anchor="middle" x="241.75" y="-57.8" font-family="Times,serif" font-size="14.00">विशेषणम्</text>
</g>
<!-- 7&#45;&gt;2 -->
<g id="edge2" class="edge">
<title>7&#45;&gt;2</title>
<path fill="none" stroke="black" d="M371.25,-92.72C352.88,-85.97 329.18,-77.15 308.25,-69 282.68,-59.05 254.31,-47.54 231.26,-38.08"/>
<polygon fill="black" stroke="black" points="232.31,-34.73 221.73,-34.16 229.65,-41.2 232.31,-34.73"/>
<text text-anchor="middle" x="333.75" y="-57.8" font-family="Times,serif" font-size="14.00">विशेषणम्</text>
</g>
<!-- 7&#45;&gt;3 -->
<g id="edge3" class="edge">
<title>7&#45;&gt;3</title>
<path fill="none" stroke="black" d="M388.75,-87.61C378.39,-75.03 363.92,-57.46 352.22,-43.25"/>
<polygon fill="black" stroke="black" points="354.76,-40.83 345.7,-35.34 349.36,-45.28 354.76,-40.83"/>
<text text-anchor="middle" x="397.75" y="-57.8" font-family="Times,serif" font-size="14.00">विशेषणम्</text>
</g>
<!-- 7&#45;&gt;4 -->
<g id="edge4" class="edge">
<title>7&#45;&gt;4</title>
<path fill="none" stroke="black" d="M415.94,-87.61C426.31,-75.19 440.74,-57.91 452.53,-43.8"/>
<polygon fill="black" stroke="black" points="455.39,-45.84 459.11,-35.92 450.02,-41.35 455.39,-45.84"/>
<text text-anchor="middle" x="467.75" y="-57.8" font-family="Times,serif" font-size="14.00">विशेषणम्</text>
</g>
<!-- 7&#45;&gt;5 -->
<g id="edge5" class="edge">
<title>7&#45;&gt;5</title>
<path fill="none" stroke="black" d="M433.55,-92.69C452.11,-85.93 476.07,-77.1 497.25,-69 525.09,-58.35 556.23,-45.99 580.59,-36.23"/>
<polygon fill="black" stroke="black" points="581.93,-39.46 589.91,-32.49 579.32,-32.97 581.93,-39.46"/>
<text text-anchor="middle" x="560.75" y="-57.8" font-family="Times,serif" font-size="14.00">विशेषणम्</text>
</g>
<!-- 7&#45;&gt;6 -->
<g id="edge6" class="edge">
<title>7&#45;&gt;6</title>
<path fill="none" stroke="black" d="M433.26,-92.61C439.8,-90.51 446.7,-88.51 453.25,-87 513.09,-73.23 529.95,-80.65 590.25,-69 636.71,-60.02 688.57,-46.56 727.13,-35.86"/>
<polygon fill="black" stroke="black" points="728.44,-39.13 737.13,-33.06 726.56,-32.38 728.44,-39.13"/>
<text text-anchor="middle" x="679.75" y="-57.8" font-family="Times,serif" font-size="14.00">विशेषणम्</text>
</g>
<!-- 8 -->
<g id="node8" class="node">
<title>8</title>
<g id="a_node8"><a xlink:title="राजस{पुं}{1;एक}">
<ellipse fill="#00bfff" stroke="#00bfff" cx="512.25" cy="-105" rx="50.09" ry="18"/>
<text text-anchor="middle" x="512.25" y="-101.3" font-family="Times,serif" font-size="14.00">राजसः (8)</text>
</a>
</g>
</g>
<!-- 9 -->
<g id="node9" class="node">
<title>9</title>
<g id="a_node9"><a xlink:title="परि_कॄत्1{कृत्_प्रत्ययः:क्त;परि_कॄतँ;चुरादिः;पुं}{1;एक}">
<ellipse fill="#00bfff" stroke="#00bfff" cx="457.25" cy="-192" rx="64.99" ry="18"/>
<text text-anchor="middle" x="457.25" y="-188.3" font-family="Times,serif" font-size="14.00">परिकीर्तितः (9)</text>
</a>
</g>
</g>
<!-- 9&#45;&gt;7 -->
<g id="edge7" class="edge">
<title>9&#45;&gt;7</title>
<path fill="none" stroke="black" d="M446.38,-174.21C438.42,-161.9 427.48,-145 418.48,-131.09"/>
<polygon fill="black" stroke="black" points="421.27,-128.96 412.9,-122.47 415.4,-132.77 421.27,-128.96"/>
<text text-anchor="middle" x="443.25" y="-144.8" font-family="Times,serif" font-size="14.00">कर्म</text>
</g>
<!-- 9&#45;&gt;8 -->
<g id="edge8" class="edge">
<title>9&#45;&gt;8</title>
<path fill="none" stroke="black" d="M468.11,-174.21C476.02,-161.98 486.87,-145.21 495.84,-131.36"/>
<polygon fill="black" stroke="black" points="498.91,-133.06 501.4,-122.76 493.03,-129.25 498.91,-133.06"/>
<text text-anchor="middle" x="539.25" y="-144.8" font-family="Times,serif" font-size="14.00">कर्मसमानाधिकरणम्</text>
</g>
</g>
</svg>
