<?xml version="1.0" encoding="UTF-8" standalone="no"?>
<!DOCTYPE svg PUBLIC "-//W3C//DTD SVG 1.1//EN"
 "http://www.w3.org/Graphics/SVG/1.1/DTD/svg11.dtd">
<!-- Generated by graphviz version 2.43.0 (0)
 -->
<!-- Title: %3 Pages: 1 -->
<svg width="793pt" height="218pt"
 viewBox="0.00 0.00 793.39 218.00" xmlns="http://www.w3.org/2000/svg" xmlns:xlink="http://www.w3.org/1999/xlink">
<g id="graph0" class="graph" transform="scale(1 1) rotate(0) translate(4 214)">
<title>%3</title>
<polygon fill="#fffacd" stroke="transparent" points="-4,4 -4,-214 789.39,-214 789.39,4 -4,4"/>
<!-- 1 -->
<g id="node1" class="node">
<title>1</title>
<g id="a_node1"><a xlink:title="कृषि&#45;गौ&#45;रक्ष्य&#45;वाणिज्य{नपुं}{1;एक}">
<ellipse fill="#00bfff" stroke="#00bfff" cx="111.14" cy="-105" rx="111.28" ry="18"/>
<text text-anchor="middle" x="111.14" y="-101.3" font-family="Times,serif" font-size="14.00">कृषि&#45;गौ&#45;रक्ष्य&#45;वाणिज्यम् (1)</text>
</a>
</g>
</g>
<!-- 2 -->
<g id="node2" class="node">
<title>2</title>
<g id="a_node2"><a xlink:title="वैश्य&#45;कर्मन्{नपुं}{1;एक}">
<ellipse fill="#00bfff" stroke="#00bfff" cx="299.14" cy="-105" rx="59.29" ry="18"/>
<text text-anchor="middle" x="299.14" y="-101.3" font-family="Times,serif" font-size="14.00">वैश्य&#45;कर्म (2)</text>
</a>
</g>
</g>
<!-- 3 -->
<g id="node3" class="node">
<title>3</title>
<g id="a_node3"><a xlink:title="स्वभाव&#45;ज{नपुं}{1;एक}">
<ellipse fill="#00bfff" stroke="#00bfff" cx="299.14" cy="-18" rx="70.39" ry="18"/>
<text text-anchor="middle" x="299.14" y="-14.3" font-family="Times,serif" font-size="14.00">स्व&#45;भाव&#45;जम् (3)</text>
</a>
</g>
</g>
<!-- 2&#45;&gt;3 -->
<g id="edge3" class="edge">
<title>2&#45;&gt;3</title>
<path fill="none" stroke="black" d="M299.14,-86.8C299.14,-75.16 299.14,-59.55 299.14,-46.24"/>
<polygon fill="black" stroke="black" points="302.64,-46.18 299.14,-36.18 295.64,-46.18 302.64,-46.18"/>
<text text-anchor="middle" x="324.64" y="-57.8" font-family="Times,serif" font-size="14.00">विशेषणम्</text>
</g>
<!-- 3.1 -->
<g id="node4" class="node">
<title>3.1</title>
<g id="a_node4"><a xlink:title="(अस्2{कर्तरि;लट्;प्र;एक;परस्मैपदी;असँ;अदादिः})">
<ellipse fill="#ff6347" stroke="#ff6347" cx="170.14" cy="-192" rx="63.09" ry="18"/>
<text text-anchor="middle" x="170.14" y="-188.3" font-family="Times,serif" font-size="14.00">(अस्ति) (3.1)</text>
</a>
</g>
</g>
<!-- 3.1&#45;&gt;1 -->
<g id="edge1" class="edge">
<title>3.1&#45;&gt;1</title>
<path fill="none" stroke="black" d="M158.48,-174.21C150.05,-162.06 138.51,-145.43 128.93,-131.63"/>
<polygon fill="black" stroke="black" points="131.55,-129.27 122.97,-123.05 125.8,-133.26 131.55,-129.27"/>
<text text-anchor="middle" x="157.64" y="-144.8" font-family="Times,serif" font-size="14.00">कर्ता</text>
</g>
<!-- 3.1&#45;&gt;2 -->
<g id="edge2" class="edge">
<title>3.1&#45;&gt;2</title>
<path fill="none" stroke="black" d="M194.1,-175.21C214.56,-161.73 244.16,-142.23 266.73,-127.36"/>
<polygon fill="black" stroke="black" points="268.88,-130.13 275.31,-121.7 265.03,-124.28 268.88,-130.13"/>
<text text-anchor="middle" x="295.14" y="-144.8" font-family="Times,serif" font-size="14.00">कर्तृसमानाधिकरणम्</text>
</g>
<!-- 4 -->
<g id="node5" class="node">
<title>4</title>
<g id="a_node5"><a xlink:title="परिचर्य&#45;आत्मक{नपुं}{1;एक}">
<ellipse fill="#00bfff" stroke="#00bfff" cx="472.14" cy="-18" rx="84.49" ry="18"/>
<text text-anchor="middle" x="472.14" y="-14.3" font-family="Times,serif" font-size="14.00">परिचर्य&#45;आत्मकम् (4)</text>
</a>
</g>
</g>
<!-- 5 -->
<g id="node6" class="node">
<title>5</title>
<g id="a_node6"><a xlink:title="कर्मन्{नपुं}{1;एक}">
<ellipse fill="#00bfff" stroke="#00bfff" cx="486.14" cy="-105" rx="38.99" ry="18"/>
<text text-anchor="middle" x="486.14" y="-101.3" font-family="Times,serif" font-size="14.00">कर्म (5)</text>
</a>
</g>
</g>
<!-- 5&#45;&gt;4 -->
<g id="edge4" class="edge">
<title>5&#45;&gt;4</title>
<path fill="none" stroke="black" d="M483.31,-86.8C481.39,-75.16 478.82,-59.55 476.63,-46.24"/>
<polygon fill="black" stroke="black" points="480.05,-45.47 474.97,-36.18 473.14,-46.61 480.05,-45.47"/>
<text text-anchor="middle" x="505.64" y="-57.8" font-family="Times,serif" font-size="14.00">विशेषणम्</text>
</g>
<!-- 6 -->
<g id="node7" class="node">
<title>6</title>
<g id="a_node7"><a xlink:title="शूद्र{पुं}{6;एक}">
<ellipse fill="#87ceeb" stroke="#87ceeb" cx="628.14" cy="-18" rx="53.89" ry="18"/>
<text text-anchor="middle" x="628.14" y="-14.3" font-family="Times,serif" font-size="14.00">शूद्रस्य (6)</text>
</a>
</g>
</g>
<!-- 7 -->
<g id="node8" class="node">
<title>7</title>
<g id="a_node8"><a xlink:title="अपि{अव्य}">
<ellipse fill="#ff00ff" stroke="#ff00ff" cx="679.14" cy="-192" rx="42.49" ry="18"/>
<text text-anchor="middle" x="679.14" y="-188.3" font-family="Times,serif" font-size="14.00">अपि (7)</text>
</a>
</g>
</g>
<!-- 7&#45;&gt;7 -->
<g id="edge7" class="edge">
<title>7&#45;&gt;7</title>
<path fill="none" stroke="black" d="M717.38,-199.87C729.66,-199.79 739.39,-197.17 739.39,-192 739.39,-188.37 734.58,-185.99 727.45,-184.87"/>
<polygon fill="black" stroke="black" points="727.61,-181.37 717.38,-184.13 727.1,-188.35 727.61,-181.37"/>
<text text-anchor="middle" x="762.39" y="-188.3" font-family="Times,serif" font-size="14.00">सम्बन्धः</text>
</g>
<!-- 8 -->
<g id="node9" class="node">
<title>8</title>
<g id="a_node9"><a xlink:title="स्वभाव&#45;ज{नपुं}{1;एक}">
<ellipse fill="#00bfff" stroke="#00bfff" cx="621.14" cy="-105" rx="70.39" ry="18"/>
<text text-anchor="middle" x="621.14" y="-101.3" font-family="Times,serif" font-size="14.00">स्व&#45;भाव&#45;जम् (8)</text>
</a>
</g>
</g>
<!-- 8&#45;&gt;6 -->
<g id="edge6" class="edge">
<title>8&#45;&gt;6</title>
<path fill="none" stroke="black" d="M622.56,-86.8C623.51,-75.16 624.8,-59.55 625.9,-46.24"/>
<polygon fill="black" stroke="black" points="629.39,-46.43 626.73,-36.18 622.42,-45.85 629.39,-46.43"/>
<text text-anchor="middle" x="661.14" y="-57.8" font-family="Times,serif" font-size="14.00">षष्ठीसम्बन्धः</text>
</g>
<!-- 8.1 -->
<g id="node10" class="node">
<title>8.1</title>
<g id="a_node10"><a xlink:title="(अस्2{कर्तरि;लट्;प्र;एक;परस्मैपदी;असँ;अदादिः})">
<ellipse fill="#ff6347" stroke="#ff6347" cx="556.14" cy="-192" rx="63.09" ry="18"/>
<text text-anchor="middle" x="556.14" y="-188.3" font-family="Times,serif" font-size="14.00">(अस्ति) (8.1)</text>
</a>
</g>
</g>
<!-- 8.1&#45;&gt;5 -->
<g id="edge5" class="edge">
<title>8.1&#45;&gt;5</title>
<path fill="none" stroke="black" d="M542.31,-174.21C531.92,-161.59 517.54,-144.13 505.93,-130.03"/>
<polygon fill="black" stroke="black" points="508.53,-127.68 499.47,-122.18 503.12,-132.13 508.53,-127.68"/>
<text text-anchor="middle" x="538.64" y="-144.8" font-family="Times,serif" font-size="14.00">कर्ता</text>
</g>
<!-- 8.1&#45;&gt;8 -->
<g id="edge8" class="edge">
<title>8.1&#45;&gt;8</title>
<path fill="none" stroke="black" d="M568.98,-174.21C578.42,-161.87 591.4,-144.89 602.05,-130.97"/>
<polygon fill="black" stroke="black" points="605.03,-132.83 608.32,-122.76 599.47,-128.58 605.03,-132.83"/>
<text text-anchor="middle" x="645.14" y="-144.8" font-family="Times,serif" font-size="14.00">कर्तृसमानाधिकरणम्</text>
</g>
</g>
</svg>
