<?xml version="1.0" encoding="UTF-8" standalone="no"?>
<!DOCTYPE svg PUBLIC "-//W3C//DTD SVG 1.1//EN"
 "http://www.w3.org/Graphics/SVG/1.1/DTD/svg11.dtd">
<!-- Generated by graphviz version 2.43.0 (0)
 -->
<!-- Title: %3 Pages: 1 -->
<svg width="1014pt" height="218pt"
 viewBox="0.00 0.00 1014.49 218.00" xmlns="http://www.w3.org/2000/svg" xmlns:xlink="http://www.w3.org/1999/xlink">
<g id="graph0" class="graph" transform="scale(1 1) rotate(0) translate(4 214)">
<title>%3</title>
<polygon fill="#fffacd" stroke="transparent" points="-4,4 -4,-214 1010.49,-214 1010.49,4 -4,4"/>
<!-- 1 -->
<g id="node1" class="node">
<title>1</title>
<g id="a_node1"><a xlink:title="नश्1{कृत्_प्रत्ययः:क्त;णशँ;दिवादिः;पुं}{1;एक}">
<ellipse fill="#00bfff" stroke="#00bfff" cx="102.2" cy="-192" rx="44.69" ry="18"/>
<text text-anchor="middle" x="102.2" y="-188.3" font-family="Times,serif" font-size="14.00">नष्टः (1)</text>
</a>
</g>
</g>
<!-- 2 -->
<g id="node2" class="node">
<title>2</title>
<g id="a_node2"><a xlink:title="मोह{पुं}{1;एक}">
<ellipse fill="#00bfff" stroke="#00bfff" cx="44.2" cy="-105" rx="44.39" ry="18"/>
<text text-anchor="middle" x="44.2" y="-101.3" font-family="Times,serif" font-size="14.00">मोहः (2)</text>
</a>
</g>
</g>
<!-- 1&#45;&gt;2 -->
<g id="edge1" class="edge">
<title>1&#45;&gt;2</title>
<path fill="none" stroke="black" d="M90.74,-174.21C82.34,-161.9 70.81,-145 61.32,-131.09"/>
<polygon fill="black" stroke="black" points="63.96,-128.76 55.43,-122.47 58.18,-132.7 63.96,-128.76"/>
<text text-anchor="middle" x="89.7" y="-144.8" font-family="Times,serif" font-size="14.00">कर्ता</text>
</g>
<!-- 7 -->
<g id="node7" class="node">
<title>7</title>
<g id="a_node7"><a xlink:title="अच्युत{पुं}{8;एक}">
<ellipse fill="#7fffd4" stroke="#7fffd4" cx="160.2" cy="-105" rx="53.89" ry="18"/>
<text text-anchor="middle" x="160.2" y="-101.3" font-family="Times,serif" font-size="14.00">अ&#45;च्युत (7)</text>
</a>
</g>
</g>
<!-- 1&#45;&gt;7 -->
<g id="edge5" class="edge">
<title>1&#45;&gt;7</title>
<path fill="none" stroke="black" d="M113.66,-174.21C122,-161.98 133.44,-145.21 142.89,-131.36"/>
<polygon fill="black" stroke="black" points="146.02,-132.99 148.76,-122.76 140.23,-129.05 146.02,-132.99"/>
<text text-anchor="middle" x="160.7" y="-144.8" font-family="Times,serif" font-size="14.00">सम्बोध्यः</text>
</g>
<!-- 3 -->
<g id="node3" class="node">
<title>3</title>
<g id="a_node3"><a xlink:title="स्मृति{स्त्री}{1;एक}">
<ellipse fill="#00bfff" stroke="#00bfff" cx="281.2" cy="-105" rx="48.99" ry="18"/>
<text text-anchor="middle" x="281.2" y="-101.3" font-family="Times,serif" font-size="14.00">स्मृतिः (3)</text>
</a>
</g>
</g>
<!-- 4 -->
<g id="node4" class="node">
<title>4</title>
<g id="a_node4"><a xlink:title="लभ्1{कर्मणि;लुट्;प्र;एक;आत्मनेपदी;डुलभँष्;भ्वादिः}">
<ellipse fill="#ff6347" stroke="#ff6347" cx="424.2" cy="-192" rx="46.29" ry="18"/>
<text text-anchor="middle" x="424.2" y="-188.3" font-family="Times,serif" font-size="14.00">लब्धा (4)</text>
</a>
</g>
</g>
<!-- 4&#45;&gt;3 -->
<g id="edge2" class="edge">
<title>4&#45;&gt;3</title>
<path fill="none" stroke="black" d="M399.94,-176.58C376.56,-162.68 340.98,-141.54 314.86,-126.01"/>
<polygon fill="black" stroke="black" points="316.44,-122.88 306.05,-120.78 312.86,-128.89 316.44,-122.88"/>
<text text-anchor="middle" x="372.2" y="-144.8" font-family="Times,serif" font-size="14.00">कर्म</text>
</g>
<!-- 5 -->
<g id="node5" class="node">
<title>5</title>
<g id="a_node5"><a xlink:title="त्वत्&#45;प्रसाद{पुं}{5;एक}">
<ellipse fill="#90ee90" stroke="#90ee90" cx="424.2" cy="-105" rx="76.89" ry="18"/>
<text text-anchor="middle" x="424.2" y="-101.3" font-family="Times,serif" font-size="14.00">त्वत्&#45;प्रसादात् (5)</text>
</a>
</g>
</g>
<!-- 4&#45;&gt;5 -->
<g id="edge3" class="edge">
<title>4&#45;&gt;5</title>
<path fill="none" stroke="black" d="M424.2,-173.8C424.2,-162.16 424.2,-146.55 424.2,-133.24"/>
<polygon fill="black" stroke="black" points="427.7,-133.18 424.2,-123.18 420.7,-133.18 427.7,-133.18"/>
<text text-anchor="middle" x="435.7" y="-144.8" font-family="Times,serif" font-size="14.00">हेतुः</text>
</g>
<!-- 6 -->
<g id="node6" class="node">
<title>6</title>
<g id="a_node6"><a xlink:title="अस्मद्{3;एक}">
<ellipse fill="#40e0d0" stroke="#40e0d0" cx="559.2" cy="-105" rx="40.09" ry="18"/>
<text text-anchor="middle" x="559.2" y="-101.3" font-family="Times,serif" font-size="14.00">मया (6)</text>
</a>
</g>
</g>
<!-- 4&#45;&gt;6 -->
<g id="edge4" class="edge">
<title>4&#45;&gt;6</title>
<path fill="none" stroke="black" d="M447.4,-176.39C469.69,-162.35 503.52,-141.05 528.13,-125.56"/>
<polygon fill="black" stroke="black" points="530.14,-128.43 536.74,-120.14 526.41,-122.51 530.14,-128.43"/>
<text text-anchor="middle" x="512.7" y="-144.8" font-family="Times,serif" font-size="14.00">कर्ता</text>
</g>
<!-- 8 -->
<g id="node8" class="node">
<title>8</title>
<g id="a_node8"><a xlink:title="स्था1{कृत्_प्रत्ययः:क्त;ष्ठा;भ्वादिः;पुं}{1;एक}">
<ellipse fill="#00bfff" stroke="#00bfff" cx="667.2" cy="-105" rx="49.29" ry="18"/>
<text text-anchor="middle" x="667.2" y="-101.3" font-family="Times,serif" font-size="14.00">स्थितः (8)</text>
</a>
</g>
</g>
<!-- 10 -->
<g id="node10" class="node">
<title>10</title>
<g id="a_node10"><a xlink:title="गत&#45;सन्देह{पुं}{1;एक}">
<ellipse fill="#00bfff" stroke="#00bfff" cx="667.2" cy="-18" rx="71.49" ry="18"/>
<text text-anchor="middle" x="667.2" y="-14.3" font-family="Times,serif" font-size="14.00">गत&#45;सन्देहः (10)</text>
</a>
</g>
</g>
<!-- 8&#45;&gt;10 -->
<g id="edge7" class="edge">
<title>8&#45;&gt;10</title>
<path fill="none" stroke="black" d="M667.2,-86.8C667.2,-75.16 667.2,-59.55 667.2,-46.24"/>
<polygon fill="black" stroke="black" points="670.7,-46.18 667.2,-36.18 663.7,-46.18 670.7,-46.18"/>
<text text-anchor="middle" x="719.2" y="-57.8" font-family="Times,serif" font-size="14.00">कर्तृसमानाधिकरणम्</text>
</g>
<!-- 9 -->
<g id="node9" class="node">
<title>9</title>
<g id="a_node9"><a xlink:title="अस्2{कर्तरि;लट्;उ;एक;परस्मैपदी;असँ;अदादिः}">
<ellipse fill="#ff6347" stroke="#ff6347" cx="667.2" cy="-192" rx="48.19" ry="18"/>
<text text-anchor="middle" x="667.2" y="-188.3" font-family="Times,serif" font-size="14.00">अस्मि (9)</text>
</a>
</g>
</g>
<!-- 9&#45;&gt;8 -->
<g id="edge6" class="edge">
<title>9&#45;&gt;8</title>
<path fill="none" stroke="black" d="M667.2,-173.8C667.2,-162.16 667.2,-146.55 667.2,-133.24"/>
<polygon fill="black" stroke="black" points="670.7,-133.18 667.2,-123.18 663.7,-133.18 670.7,-133.18"/>
<text text-anchor="middle" x="679.7" y="-144.8" font-family="Times,serif" font-size="14.00">कर्ता</text>
</g>
<!-- 11 -->
<g id="node11" class="node">
<title>11</title>
<g id="a_node11"><a xlink:title="कृ3{कर्तरि;लृट्;उ;एक;आत्मनेपदी;डुकृञ्;तनादिः}">
<ellipse fill="#ff6347" stroke="#ff6347" cx="905.2" cy="-192" rx="54.69" ry="18"/>
<text text-anchor="middle" x="905.2" y="-188.3" font-family="Times,serif" font-size="14.00">करिष्ये (11)</text>
</a>
</g>
</g>
<!-- 12 -->
<g id="node12" class="node">
<title>12</title>
<g id="a_node12"><a xlink:title="वचन{नपुं}{2;एक}">
<ellipse fill="#7cfc00" stroke="#7cfc00" cx="800.2" cy="-105" rx="55.49" ry="18"/>
<text text-anchor="middle" x="800.2" y="-101.3" font-family="Times,serif" font-size="14.00">वचनम् (12)</text>
</a>
</g>
</g>
<!-- 11&#45;&gt;12 -->
<g id="edge8" class="edge">
<title>11&#45;&gt;12</title>
<path fill="none" stroke="black" d="M885.45,-175.01C869.17,-161.83 845.89,-142.99 827.78,-128.33"/>
<polygon fill="black" stroke="black" points="829.83,-125.49 819.86,-121.92 825.43,-130.93 829.83,-125.49"/>
<text text-anchor="middle" x="869.2" y="-144.8" font-family="Times,serif" font-size="14.00">कर्म</text>
</g>
<!-- 13.1 -->
<g id="node14" class="node">
<title>13.1</title>
<g id="a_node14"><a xlink:title="(अस्मद्{1;एक})">
<ellipse fill="#00bfff" stroke="#00bfff" cx="940.2" cy="-105" rx="66.09" ry="18"/>
<text text-anchor="middle" x="940.2" y="-101.3" font-family="Times,serif" font-size="14.00">(अहम्) (13.1)</text>
</a>
</g>
</g>
<!-- 11&#45;&gt;13.1 -->
<g id="edge10" class="edge">
<title>11&#45;&gt;13.1</title>
<path fill="none" stroke="black" d="M912.28,-173.8C917.17,-161.93 923.76,-145.93 929.31,-132.45"/>
<polygon fill="black" stroke="black" points="932.55,-133.75 933.12,-123.18 926.08,-131.09 932.55,-133.75"/>
<text text-anchor="middle" x="937.7" y="-144.8" font-family="Times,serif" font-size="14.00">कर्ता</text>
</g>
<!-- 13 -->
<g id="node13" class="node">
<title>13</title>
<g id="a_node13"><a xlink:title="युष्मद्{6;एक}">
<ellipse fill="#87ceeb" stroke="#87ceeb" cx="800.2" cy="-18" rx="43.59" ry="18"/>
<text text-anchor="middle" x="800.2" y="-14.3" font-family="Times,serif" font-size="14.00">तव (13)</text>
</a>
</g>
</g>
<!-- 12&#45;&gt;13 -->
<g id="edge9" class="edge">
<title>12&#45;&gt;13</title>
<path fill="none" stroke="black" d="M800.2,-86.8C800.2,-75.16 800.2,-59.55 800.2,-46.24"/>
<polygon fill="black" stroke="black" points="803.7,-46.18 800.2,-36.18 796.7,-46.18 803.7,-46.18"/>
<text text-anchor="middle" x="836.2" y="-57.8" font-family="Times,serif" font-size="14.00">षष्ठीसम्बन्धः</text>
</g>
</g>
</svg>
