<?xml version="1.0" encoding="UTF-8" standalone="no"?>
<!DOCTYPE svg PUBLIC "-//W3C//DTD SVG 1.1//EN"
 "http://www.w3.org/Graphics/SVG/1.1/DTD/svg11.dtd">
<!-- Generated by graphviz version 2.43.0 (0)
 -->
<!-- Title: %3 Pages: 1 -->
<svg width="745pt" height="218pt"
 viewBox="0.00 0.00 745.45 218.00" xmlns="http://www.w3.org/2000/svg" xmlns:xlink="http://www.w3.org/1999/xlink">
<g id="graph0" class="graph" transform="scale(1 1) rotate(0) translate(4 214)">
<title>%3</title>
<polygon fill="#fffacd" stroke="transparent" points="-4,4 -4,-214 741.45,-214 741.45,4 -4,4"/>
<!-- 1 -->
<g id="node1" class="node">
<title>1</title>
<g id="a_node1"><a xlink:title="यद्{नपुं}{2;एक}">
<ellipse fill="#7cfc00" stroke="#7cfc00" cx="520.45" cy="-18" rx="38.19" ry="18"/>
<text text-anchor="middle" x="520.45" y="-14.3" font-family="Times,serif" font-size="14.00">यत् (1)</text>
</a>
</g>
</g>
<!-- 2 -->
<g id="node2" class="node">
<title>2</title>
<g id="a_node2"><a xlink:title="तु{अव्य}">
<ellipse fill="#ff00ff" stroke="#ff00ff" cx="337.45" cy="-105" rx="32.49" ry="18"/>
<text text-anchor="middle" x="337.45" y="-101.3" font-family="Times,serif" font-size="14.00">तु (2)</text>
</a>
</g>
</g>
<!-- 3 -->
<g id="node3" class="node">
<title>3</title>
<g id="a_node3"><a xlink:title="काम&#45;इप्सु{पुं}{3;एक}">
<ellipse fill="#40e0d0" stroke="#40e0d0" cx="155.45" cy="-18" rx="68.79" ry="18"/>
<text text-anchor="middle" x="155.45" y="-14.3" font-family="Times,serif" font-size="14.00">काम&#45;इप्सुना (3)</text>
</a>
</g>
</g>
<!-- 4 -->
<g id="node4" class="node">
<title>4</title>
<g id="a_node4"><a xlink:title="कर्मन्{नपुं}{2;एक}">
<ellipse fill="#7cfc00" stroke="#7cfc00" cx="426.45" cy="-105" rx="38.99" ry="18"/>
<text text-anchor="middle" x="426.45" y="-101.3" font-family="Times,serif" font-size="14.00">कर्म (4)</text>
</a>
</g>
</g>
<!-- 4&#45;&gt;1 -->
<g id="edge1" class="edge">
<title>4&#45;&gt;1</title>
<path fill="none" stroke="black" d="M438.27,-87.68C446.17,-77.38 457.15,-64.16 468.45,-54 474.65,-48.42 481.8,-43.05 488.77,-38.26"/>
<polygon fill="black" stroke="black" points="491.02,-40.96 497.43,-32.52 487.16,-35.13 491.02,-40.96"/>
<text text-anchor="middle" x="493.95" y="-57.8" font-family="Times,serif" font-size="14.00">विशेषणम्</text>
</g>
<!-- 9 -->
<g id="node9" class="node">
<title>9</title>
<g id="a_node9"><a xlink:title="बहुल&#45;आयास{पुं}{2;एक}">
<ellipse fill="#7cfc00" stroke="#7cfc00" cx="379.45" cy="-18" rx="77.19" ry="18"/>
<text text-anchor="middle" x="379.45" y="-14.3" font-family="Times,serif" font-size="14.00">बहुल&#45;आयासम् (9)</text>
</a>
</g>
</g>
<!-- 4&#45;&gt;9 -->
<g id="edge9" class="edge">
<title>4&#45;&gt;9</title>
<path fill="none" stroke="black" d="M401.09,-90.82C393.01,-85.24 384.99,-77.95 380.45,-69 376.93,-62.08 375.75,-53.9 375.7,-46.18"/>
<polygon fill="black" stroke="black" points="379.2,-46.27 376.22,-36.1 372.21,-45.91 379.2,-46.27"/>
<text text-anchor="middle" x="405.95" y="-57.8" font-family="Times,serif" font-size="14.00">विशेषणम्</text>
</g>
<!-- 5 -->
<g id="node5" class="node">
<title>5</title>
<g id="a_node5"><a xlink:title="स&#45;अहङ्कार{पुं}{3;एक}">
<ellipse fill="#40e0d0" stroke="#40e0d0" cx="95.45" cy="-105" rx="74.99" ry="18"/>
<text text-anchor="middle" x="95.45" y="-101.3" font-family="Times,serif" font-size="14.00">स&#45;अहङ्कारेण (5)</text>
</a>
</g>
</g>
<!-- 5&#45;&gt;3 -->
<g id="edge4" class="edge">
<title>5&#45;&gt;3</title>
<path fill="none" stroke="black" d="M107.69,-86.93C111.76,-81.24 116.31,-74.85 120.45,-69 126.05,-61.08 132.12,-52.43 137.61,-44.59"/>
<polygon fill="black" stroke="black" points="140.64,-46.35 143.5,-36.15 134.9,-42.34 140.64,-46.35"/>
<text text-anchor="middle" x="166.95" y="-57.8" font-family="Times,serif" font-size="14.00">सुुप्_अन्यतरः</text>
</g>
<!-- 6 -->
<g id="node6" class="node">
<title>6</title>
<g id="a_node6"><a xlink:title="वा{अव्य}">
<ellipse fill="#ff00ff" stroke="#ff00ff" cx="34.45" cy="-18" rx="34.39" ry="18"/>
<text text-anchor="middle" x="34.45" y="-14.3" font-family="Times,serif" font-size="14.00">वा (6)</text>
</a>
</g>
</g>
<!-- 5&#45;&gt;6 -->
<g id="edge7" class="edge">
<title>5&#45;&gt;6</title>
<path fill="none" stroke="black" d="M56.17,-89.48C47.53,-84.37 39.46,-77.66 34.45,-69 30.56,-62.29 29.39,-54.17 29.51,-46.44"/>
<polygon fill="black" stroke="black" points="33.01,-46.57 30.34,-36.32 26.03,-46 33.01,-46.57"/>
<text text-anchor="middle" x="75.45" y="-57.8" font-family="Times,serif" font-size="14.00">अन्यतरद्योतकः</text>
</g>
<!-- 7 -->
<g id="node7" class="node">
<title>7</title>
<g id="a_node7"><a xlink:title="पुनः{अव्य}">
<ellipse fill="#ff00ff" stroke="#ff00ff" cx="229.45" cy="-105" rx="40.89" ry="18"/>
<text text-anchor="middle" x="229.45" y="-101.3" font-family="Times,serif" font-size="14.00">पुनः (7)</text>
</a>
</g>
</g>
<!-- 8 -->
<g id="node8" class="node">
<title>8</title>
<g id="a_node8"><a xlink:title="कृ3{कर्मणि;लट्;प्र;एक;आत्मनेपदी;डुकृञ्;तनादिः}">
<ellipse fill="#ff6347" stroke="#ff6347" cx="283.45" cy="-192" rx="51.99" ry="18"/>
<text text-anchor="middle" x="283.45" y="-188.3" font-family="Times,serif" font-size="14.00">क्रियते (8)</text>
</a>
</g>
</g>
<!-- 8&#45;&gt;2 -->
<g id="edge3" class="edge">
<title>8&#45;&gt;2</title>
<path fill="none" stroke="black" d="M300.26,-174.83C305.55,-169.2 311.13,-162.62 315.45,-156 320.18,-148.74 324.34,-140.29 327.73,-132.42"/>
<polygon fill="black" stroke="black" points="331.07,-133.49 331.6,-122.91 324.59,-130.85 331.07,-133.49"/>
<text text-anchor="middle" x="347.45" y="-144.8" font-family="Times,serif" font-size="14.00">सम्बन्धः</text>
</g>
<!-- 8&#45;&gt;4 -->
<g id="edge5" class="edge">
<title>8&#45;&gt;4</title>
<path fill="none" stroke="black" d="M322.25,-179.89C339.03,-174.15 358.45,-166.17 374.45,-156 385.84,-148.75 396.86,-138.74 405.8,-129.58"/>
<polygon fill="black" stroke="black" points="408.48,-131.84 412.78,-122.16 403.38,-127.05 408.48,-131.84"/>
<text text-anchor="middle" x="403.45" y="-144.8" font-family="Times,serif" font-size="14.00">कर्म</text>
</g>
<!-- 8&#45;&gt;5 -->
<g id="edge6" class="edge">
<title>8&#45;&gt;5</title>
<path fill="none" stroke="black" d="M249.73,-178.14C233.5,-171.77 213.83,-163.79 196.45,-156 175.82,-146.76 153.25,-135.69 134.69,-126.31"/>
<polygon fill="black" stroke="black" points="136.15,-123.12 125.65,-121.72 132.98,-129.36 136.15,-123.12"/>
<text text-anchor="middle" x="207.95" y="-144.8" font-family="Times,serif" font-size="14.00">हेतुः</text>
</g>
<!-- 8&#45;&gt;7 -->
<g id="edge8" class="edge">
<title>8&#45;&gt;7</title>
<path fill="none" stroke="black" d="M250.26,-178.14C240.88,-172.78 231.78,-165.53 226.45,-156 222.65,-149.22 221.87,-141.08 222.47,-133.35"/>
<polygon fill="black" stroke="black" points="225.96,-133.65 223.97,-123.24 219.04,-132.62 225.96,-133.65"/>
<text text-anchor="middle" x="268.95" y="-144.8" font-family="Times,serif" font-size="14.00">क्रियाविशेषणम्</text>
</g>
<!-- 10 -->
<g id="node10" class="node">
<title>10</title>
<g id="a_node10"><a xlink:title="तद्{नपुं}{2;एक}">
<ellipse fill="#7cfc00" stroke="#7cfc00" cx="527.45" cy="-105" rx="44.39" ry="18"/>
<text text-anchor="middle" x="527.45" y="-101.3" font-family="Times,serif" font-size="14.00">तत् (10)</text>
</a>
</g>
</g>
<!-- 10&#45;&gt;1 -->
<g id="edge2" class="edge">
<title>10&#45;&gt;1</title>
<path fill="none" stroke="black" stroke-dasharray="1,5" d="M526.03,-86.8C525.07,-75.16 523.79,-59.55 522.69,-46.24"/>
<polygon fill="black" stroke="black" points="526.17,-45.85 521.86,-36.18 519.19,-46.43 526.17,-45.85"/>
<text text-anchor="middle" x="559.45" y="-57.8" font-family="Times,serif" font-size="14.00">नित्यसम्बन्धः</text>
</g>
<!-- 11 -->
<g id="node11" class="node">
<title>11</title>
<g id="a_node11"><a xlink:title="राजस{नपुं}{2;एक}">
<ellipse fill="#7cfc00" stroke="#7cfc00" cx="647.45" cy="-105" rx="57.69" ry="18"/>
<text text-anchor="middle" x="647.45" y="-101.3" font-family="Times,serif" font-size="14.00">राजसम् (11)</text>
</a>
</g>
</g>
<!-- 12 -->
<g id="node12" class="node">
<title>12</title>
<g id="a_node12"><a xlink:title="उत्_आङ्_हृ1{कृत्_प्रत्ययः:क्त;उत्_आङ्_हृञ्;भ्वादिः;नपुं}{1;एक}_(अस्2{कर्तरि;लट्;प्र;एक;परस्मैपदी;असँ;अदादिः})">
<ellipse fill="#00bfff" stroke="#00bfff" cx="617.45" cy="-192" rx="63.89" ry="18"/>
<text text-anchor="middle" x="617.45" y="-188.3" font-family="Times,serif" font-size="14.00">उदाहृतम् (12)</text>
</a>
</g>
</g>
<!-- 12&#45;&gt;10 -->
<g id="edge10" class="edge">
<title>12&#45;&gt;10</title>
<path fill="none" stroke="black" d="M600.09,-174.61C586.35,-161.63 566.98,-143.34 551.7,-128.91"/>
<polygon fill="black" stroke="black" points="553.81,-126.09 544.14,-121.76 549,-131.17 553.81,-126.09"/>
<text text-anchor="middle" x="587.45" y="-144.8" font-family="Times,serif" font-size="14.00">कर्म</text>
</g>
<!-- 12&#45;&gt;11 -->
<g id="edge11" class="edge">
<title>12&#45;&gt;11</title>
<path fill="none" stroke="black" d="M623.52,-173.8C627.67,-162.05 633.25,-146.24 637.97,-132.84"/>
<polygon fill="black" stroke="black" points="641.36,-133.77 641.39,-123.18 634.76,-131.44 641.36,-133.77"/>
<text text-anchor="middle" x="685.45" y="-144.8" font-family="Times,serif" font-size="14.00">कर्मसमानाधिकरणम्</text>
</g>
</g>
</svg>
