<?xml version="1.0" encoding="UTF-8" standalone="no"?>
<!DOCTYPE svg PUBLIC "-//W3C//DTD SVG 1.1//EN"
 "http://www.w3.org/Graphics/SVG/1.1/DTD/svg11.dtd">
<!-- Generated by graphviz version 2.43.0 (0)
 -->
<!-- Title: %3 Pages: 1 -->
<svg width="1024pt" height="218pt"
 viewBox="0.00 0.00 1023.54 218.00" xmlns="http://www.w3.org/2000/svg" xmlns:xlink="http://www.w3.org/1999/xlink">
<g id="graph0" class="graph" transform="scale(1 1) rotate(0) translate(4 214)">
<title>%3</title>
<polygon fill="#fffacd" stroke="transparent" points="-4,4 -4,-214 1019.54,-214 1019.54,4 -4,4"/>
<!-- 1 -->
<g id="node1" class="node">
<title>1</title>
<g id="a_node1"><a xlink:title="त्यज्1{कृत्_प्रत्ययः:ण्यत्;त्यजँ;भ्वादिः;पुं}{2;एक}">
<ellipse fill="#7cfc00" stroke="#7cfc00" cx="55.9" cy="-105" rx="55.79" ry="18"/>
<text text-anchor="middle" x="55.9" y="-101.3" font-family="Times,serif" font-size="14.00">त्याज्यम् (1)</text>
</a>
</g>
</g>
<!-- 2 -->
<g id="node2" class="node">
<title>2</title>
<g id="a_node2"><a xlink:title="दोषवत्{नपुं}{1;एक}">
<ellipse fill="#00bfff" stroke="#00bfff" cx="276.9" cy="-18" rx="51.99" ry="18"/>
<text text-anchor="middle" x="276.9" y="-14.3" font-family="Times,serif" font-size="14.00">दोषवत् (2)</text>
</a>
</g>
</g>
<!-- 3 -->
<g id="node3" class="node">
<title>3</title>
<g id="a_node3"><a xlink:title="इति{अव्य}">
<ellipse fill="#ff00ff" stroke="#ff00ff" cx="169.9" cy="-105" rx="40.09" ry="18"/>
<text text-anchor="middle" x="169.9" y="-101.3" font-family="Times,serif" font-size="14.00">इति (3)</text>
</a>
</g>
</g>
<!-- 4 -->
<g id="node4" class="node">
<title>4</title>
<g id="a_node4"><a xlink:title="एक{पुं}{1;बहु}">
<ellipse fill="#00bfff" stroke="#00bfff" cx="392.9" cy="-18" rx="38.19" ry="18"/>
<text text-anchor="middle" x="392.9" y="-14.3" font-family="Times,serif" font-size="14.00">एके (4)</text>
</a>
</g>
</g>
<!-- 5 -->
<g id="node5" class="node">
<title>5</title>
<g id="a_node5"><a xlink:title="कर्मन्{नपुं}{1;एक}">
<ellipse fill="#00bfff" stroke="#00bfff" cx="276.9" cy="-105" rx="38.99" ry="18"/>
<text text-anchor="middle" x="276.9" y="-101.3" font-family="Times,serif" font-size="14.00">कर्म (5)</text>
</a>
</g>
</g>
<!-- 5&#45;&gt;2 -->
<g id="edge2" class="edge">
<title>5&#45;&gt;2</title>
<path fill="none" stroke="black" d="M276.9,-86.8C276.9,-75.16 276.9,-59.55 276.9,-46.24"/>
<polygon fill="black" stroke="black" points="280.4,-46.18 276.9,-36.18 273.4,-46.18 280.4,-46.18"/>
<text text-anchor="middle" x="302.4" y="-57.8" font-family="Times,serif" font-size="14.00">विशेषणम्</text>
</g>
<!-- 6 -->
<g id="node6" class="node">
<title>6</title>
<g id="a_node6"><a xlink:title="प्र_ब्रू1{कर्तरि;लट्;प्र;बहु;परस्मैपदी;प्र_ब्रूञ्;अदादिः}">
<ellipse fill="#ff6347" stroke="#ff6347" cx="392.9" cy="-192" rx="48.19" ry="18"/>
<text text-anchor="middle" x="392.9" y="-188.3" font-family="Times,serif" font-size="14.00">प्राहुः (6)</text>
</a>
</g>
</g>
<!-- 7 -->
<g id="node7" class="node">
<title>7</title>
<g id="a_node7"><a xlink:title="मनीषिन्{पुं}{1;बहु}">
<ellipse fill="#00bfff" stroke="#00bfff" cx="392.9" cy="-105" rx="59.29" ry="18"/>
<text text-anchor="middle" x="392.9" y="-101.3" font-family="Times,serif" font-size="14.00">मनीषिणः (7)</text>
</a>
</g>
</g>
<!-- 6&#45;&gt;7 -->
<g id="edge6" class="edge">
<title>6&#45;&gt;7</title>
<path fill="none" stroke="black" d="M392.9,-173.8C392.9,-162.16 392.9,-146.55 392.9,-133.24"/>
<polygon fill="black" stroke="black" points="396.4,-133.18 392.9,-123.18 389.4,-133.18 396.4,-133.18"/>
<text text-anchor="middle" x="405.4" y="-144.8" font-family="Times,serif" font-size="14.00">कर्ता</text>
</g>
<!-- 7&#45;&gt;4 -->
<g id="edge4" class="edge">
<title>7&#45;&gt;4</title>
<path fill="none" stroke="black" d="M392.9,-86.8C392.9,-75.16 392.9,-59.55 392.9,-46.24"/>
<polygon fill="black" stroke="black" points="396.4,-46.18 392.9,-36.18 389.4,-46.18 396.4,-46.18"/>
<text text-anchor="middle" x="418.4" y="-57.8" font-family="Times,serif" font-size="14.00">विशेषणम्</text>
</g>
<!-- 8 -->
<g id="node8" class="node">
<title>8</title>
<g id="a_node8"><a xlink:title="यज्ञ&#45;दान&#45;तपस्&#45;कर्मन्{नपुं}{2;एक}">
<ellipse fill="#7cfc00" stroke="#7cfc00" cx="536.9" cy="-18" rx="87.99" ry="18"/>
<text text-anchor="middle" x="536.9" y="-14.3" font-family="Times,serif" font-size="14.00">यज्ञ&#45;दान&#45;तपः&#45;कर्म (8)</text>
</a>
</g>
</g>
<!-- 9 -->
<g id="node9" class="node">
<title>9</title>
<g id="a_node9"><a xlink:title="न{अव्य}">
<ellipse fill="#ff00ff" stroke="#ff00ff" cx="674.9" cy="-18" rx="32.49" ry="18"/>
<text text-anchor="middle" x="674.9" y="-14.3" font-family="Times,serif" font-size="14.00">न (9)</text>
</a>
</g>
</g>
<!-- 10 -->
<g id="node10" class="node">
<title>10</title>
<g id="a_node10"><a xlink:title="त्यज्1{कृत्_प्रत्ययः:ण्यत्;त्यजँ;भ्वादिः;पुं}{2;एक}">
<ellipse fill="#7cfc00" stroke="#7cfc00" cx="605.9" cy="-105" rx="61.99" ry="18"/>
<text text-anchor="middle" x="605.9" y="-101.3" font-family="Times,serif" font-size="14.00">त्याज्यम् (10)</text>
</a>
</g>
</g>
<!-- 10&#45;&gt;8 -->
<g id="edge7" class="edge">
<title>10&#45;&gt;8</title>
<path fill="none" stroke="black" d="M592.26,-87.21C582.22,-74.83 568.39,-57.8 557.07,-43.85"/>
<polygon fill="black" stroke="black" points="559.75,-41.61 550.74,-36.05 554.32,-46.02 559.75,-41.61"/>
<text text-anchor="middle" x="585.9" y="-57.8" font-family="Times,serif" font-size="14.00">कर्म</text>
</g>
<!-- 10&#45;&gt;9 -->
<g id="edge8" class="edge">
<title>10&#45;&gt;9</title>
<path fill="none" stroke="black" d="M619.53,-87.21C629.9,-74.43 644.31,-56.68 655.83,-42.49"/>
<polygon fill="black" stroke="black" points="658.64,-44.58 662.22,-34.61 653.2,-40.17 658.64,-44.58"/>
<text text-anchor="middle" x="670.9" y="-57.8" font-family="Times,serif" font-size="14.00">प्रतिषेधः</text>
</g>
<!-- 11 -->
<g id="node11" class="node">
<title>11</title>
<g id="a_node11"><a xlink:title="इति{अव्य}">
<ellipse fill="#ff00ff" stroke="#ff00ff" cx="731.9" cy="-105" rx="46.29" ry="18"/>
<text text-anchor="middle" x="731.9" y="-101.3" font-family="Times,serif" font-size="14.00">इति (11)</text>
</a>
</g>
</g>
<!-- 12 -->
<g id="node12" class="node">
<title>12</title>
<g id="a_node12"><a xlink:title="च{अव्य}">
<ellipse fill="#ff00ff" stroke="#ff00ff" cx="838.9" cy="-105" rx="38.99" ry="18"/>
<text text-anchor="middle" x="838.9" y="-101.3" font-family="Times,serif" font-size="14.00">च (12)</text>
</a>
</g>
</g>
<!-- 13 -->
<g id="node13" class="node">
<title>13</title>
<g id="a_node13"><a xlink:title="अपर{पुं}{1;बहु}">
<ellipse fill="#00bfff" stroke="#00bfff" cx="947.9" cy="-105" rx="51.99" ry="18"/>
<text text-anchor="middle" x="947.9" y="-101.3" font-family="Times,serif" font-size="14.00">अ&#45;परे (13)</text>
</a>
</g>
</g>
<!-- 13.1 -->
<g id="node14" class="node">
<title>13.1</title>
<g id="a_node14"><a xlink:title="(ब्रू1{कर्तरि;लट्;प्र;बहु;परस्मैपदी;ब्रूञ्;अदादिः})">
<ellipse fill="#ff6347" stroke="#ff6347" cx="949.9" cy="-192" rx="65.79" ry="18"/>
<text text-anchor="middle" x="949.9" y="-188.3" font-family="Times,serif" font-size="14.00">(आहुः) (13.1)</text>
</a>
</g>
</g>
<!--  6 -->
<g id="node15" class="node">
<title> 6</title>
<ellipse fill="lightgrey" stroke="black" cx="112.9" cy="-192" rx="27" ry="18"/>
<text text-anchor="middle" x="112.9" y="-188.3" font-family="Times,serif" font-size="14.00"> 6</text>
</g>
<!--  6&#45;&gt;1 -->
<g id="edge1" class="edge">
<title> 6&#45;&gt;1</title>
<path fill="none" stroke="black" d="M102.17,-175.01C93.89,-162.67 82.28,-145.35 72.76,-131.15"/>
<polygon fill="black" stroke="black" points="75.63,-129.14 67.15,-122.79 69.82,-133.04 75.63,-129.14"/>
<text text-anchor="middle" x="112.4" y="-144.8" font-family="Times,serif" font-size="14.00">वाक्यकर्म</text>
</g>
<!--  6&#45;&gt;3 -->
<g id="edge3" class="edge">
<title> 6&#45;&gt;3</title>
<path fill="none" stroke="black" d="M125.67,-176.04C130.64,-169.98 136.24,-162.81 140.9,-156 146.19,-148.26 151.48,-139.51 156.07,-131.52"/>
<polygon fill="black" stroke="black" points="159.24,-133.02 161.09,-122.59 153.14,-129.59 159.24,-133.02"/>
<text text-anchor="middle" x="192.9" y="-144.8" font-family="Times,serif" font-size="14.00">वाक्यद्योतककर्म</text>
</g>
<!--  1 -->
<g id="node16" class="node">
<title> 1</title>
<ellipse fill="lightgrey" stroke="black" cx="276.9" cy="-192" rx="27" ry="18"/>
<text text-anchor="middle" x="276.9" y="-188.3" font-family="Times,serif" font-size="14.00"> 1</text>
</g>
<!--  1&#45;&gt;5 -->
<g id="edge5" class="edge">
<title> 1&#45;&gt;5</title>
<path fill="none" stroke="black" d="M276.9,-173.8C276.9,-162.16 276.9,-146.55 276.9,-133.24"/>
<polygon fill="black" stroke="black" points="280.4,-133.18 276.9,-123.18 273.4,-133.18 280.4,-133.18"/>
<text text-anchor="middle" x="286.9" y="-144.8" font-family="Times,serif" font-size="14.00">कर्म</text>
</g>
<!--  14 -->
<g id="node17" class="node">
<title> 14</title>
<ellipse fill="lightgrey" stroke="black" cx="605.9" cy="-192" rx="27" ry="18"/>
<text text-anchor="middle" x="605.9" y="-188.3" font-family="Times,serif" font-size="14.00"> 14</text>
</g>
<!--  14&#45;&gt;10 -->
<g id="edge9" class="edge">
<title> 14&#45;&gt;10</title>
<path fill="none" stroke="black" d="M605.9,-173.8C605.9,-162.16 605.9,-146.55 605.9,-133.24"/>
<polygon fill="black" stroke="black" points="609.4,-133.18 605.9,-123.18 602.4,-133.18 609.4,-133.18"/>
<text text-anchor="middle" x="630.4" y="-144.8" font-family="Times,serif" font-size="14.00">वाक्यकर्म</text>
</g>
<!-- 14 -->
<g id="node18" class="node">
<title>14</title>
<ellipse fill="lightgrey" stroke="black" cx="838.9" cy="-192" rx="27" ry="18"/>
<text text-anchor="middle" x="838.9" y="-188.3" font-family="Times,serif" font-size="14.00">14</text>
</g>
<!-- 14&#45;&gt;11 -->
<g id="edge10" class="edge">
<title>14&#45;&gt;11</title>
<path fill="none" stroke="black" d="M813.04,-186.55C793.63,-181.96 767.62,-172.99 750.9,-156 744.69,-149.7 740.47,-141.16 737.62,-132.93"/>
<polygon fill="black" stroke="black" points="740.94,-131.82 734.78,-123.2 734.22,-133.78 740.94,-131.82"/>
<text text-anchor="middle" x="792.9" y="-144.8" font-family="Times,serif" font-size="14.00">वाक्यद्योतककर्म</text>
</g>
<!-- 14&#45;&gt;12 -->
<g id="edge11" class="edge">
<title>14&#45;&gt;12</title>
<path fill="none" stroke="black" d="M838.9,-173.8C838.9,-162.16 838.9,-146.55 838.9,-133.24"/>
<polygon fill="black" stroke="black" points="842.4,-133.18 838.9,-123.18 835.4,-133.18 842.4,-133.18"/>
<text text-anchor="middle" x="861.9" y="-144.8" font-family="Times,serif" font-size="14.00">सम्बन्धः</text>
</g>
<!-- 14&#45;&gt;13 -->
<g id="edge12" class="edge">
<title>14&#45;&gt;13</title>
<path fill="none" stroke="black" d="M857.24,-178.76C866.82,-172.21 878.66,-163.89 888.9,-156 900.05,-147.4 911.98,-137.44 922.17,-128.69"/>
<polygon fill="black" stroke="black" points="924.65,-131.18 929.92,-121.98 920.07,-125.88 924.65,-131.18"/>
<text text-anchor="middle" x="919.4" y="-144.8" font-family="Times,serif" font-size="14.00">कर्ता</text>
</g>
</g>
</svg>
