<?xml version="1.0" encoding="UTF-8" standalone="no"?>
<!DOCTYPE svg PUBLIC "-//W3C//DTD SVG 1.1//EN"
 "http://www.w3.org/Graphics/SVG/1.1/DTD/svg11.dtd">
<!-- Generated by graphviz version 2.43.0 (0)
 -->
<!-- Title: %3 Pages: 1 -->
<svg width="710pt" height="305pt"
 viewBox="0.00 0.00 709.84 305.00" xmlns="http://www.w3.org/2000/svg" xmlns:xlink="http://www.w3.org/1999/xlink">
<g id="graph0" class="graph" transform="scale(1 1) rotate(0) translate(4 301)">
<title>%3</title>
<polygon fill="#fffacd" stroke="transparent" points="-4,4 -4,-301 705.84,-301 705.84,4 -4,4"/>
<!-- 1 -->
<g id="node1" class="node">
<title>1</title>
<g id="a_node1"><a xlink:title="मुक्त&#45;सङ्ग{पुं}{1;एक}">
<ellipse fill="#00bfff" stroke="#00bfff" cx="69.54" cy="-105" rx="69.59" ry="18"/>
<text text-anchor="middle" x="69.54" y="-101.3" font-family="Times,serif" font-size="14.00">मुक्त&#45;सङ्गः (1)</text>
</a>
</g>
</g>
<!-- 2 -->
<g id="node2" class="node">
<title>2</title>
<g id="a_node2"><a xlink:title="न&#45;अहंवादिन्{पुं}{1;एक}">
<ellipse fill="#00bfff" stroke="#00bfff" cx="228.54" cy="-105" rx="71.49" ry="18"/>
<text text-anchor="middle" x="228.54" y="-101.3" font-family="Times,serif" font-size="14.00">अन्&#45;अहंवादी (2)</text>
</a>
</g>
</g>
<!-- 3 -->
<g id="node3" class="node">
<title>3</title>
<g id="a_node3"><a xlink:title="धृति&#45;उत्साह&#45;समन्वित{पुं}{1;एक}">
<ellipse fill="#00bfff" stroke="#00bfff" cx="421.54" cy="-105" rx="103.98" ry="18"/>
<text text-anchor="middle" x="421.54" y="-101.3" font-family="Times,serif" font-size="14.00">धृति&#45;उत्साह&#45;समन्वितः (3)</text>
</a>
</g>
</g>
<!-- 4 -->
<g id="node4" class="node">
<title>4</title>
<g id="a_node4"><a xlink:title="सिद्धि&#45;असिद्धि{स्त्री}{7;द्वि}">
<ellipse fill="#708090" stroke="#708090" cx="609.54" cy="-18" rx="92.08" ry="18"/>
<text text-anchor="middle" x="609.54" y="-14.3" font-family="Times,serif" font-size="14.00">सिद्धि&#45;अ&#45;सिद्ध्योः (4)</text>
</a>
</g>
</g>
<!-- 5 -->
<g id="node5" class="node">
<title>5</title>
<g id="a_node5"><a xlink:title="निर्&#45;विकार{पुं}{1;एक}">
<ellipse fill="#00bfff" stroke="#00bfff" cx="609.54" cy="-105" rx="65.79" ry="18"/>
<text text-anchor="middle" x="609.54" y="-101.3" font-family="Times,serif" font-size="14.00">निर्&#45;विकारः (5)</text>
</a>
</g>
</g>
<!-- 5&#45;&gt;4 -->
<g id="edge4" class="edge">
<title>5&#45;&gt;4</title>
<path fill="none" stroke="black" d="M609.54,-86.8C609.54,-75.16 609.54,-59.55 609.54,-46.24"/>
<polygon fill="black" stroke="black" points="613.04,-46.18 609.54,-36.18 606.04,-46.18 613.04,-46.18"/>
<text text-anchor="middle" x="640.04" y="-57.8" font-family="Times,serif" font-size="14.00">अधिकरणम्</text>
</g>
<!-- 6 -->
<g id="node6" class="node">
<title>6</title>
<g id="a_node6"><a xlink:title="कर्तृ{पुं}{1;एक}">
<ellipse fill="#00bfff" stroke="#00bfff" cx="324.54" cy="-192" rx="42.49" ry="18"/>
<text text-anchor="middle" x="324.54" y="-188.3" font-family="Times,serif" font-size="14.00">कर्ता (6)</text>
</a>
</g>
</g>
<!-- 6&#45;&gt;1 -->
<g id="edge1" class="edge">
<title>6&#45;&gt;1</title>
<path fill="none" stroke="black" d="M291.89,-180.55C270.45,-173.66 241.8,-164.39 216.54,-156 184.16,-145.25 147.86,-132.9 119.44,-123.17"/>
<polygon fill="black" stroke="black" points="120.33,-119.78 109.73,-119.85 118.06,-126.4 120.33,-119.78"/>
<text text-anchor="middle" x="242.04" y="-144.8" font-family="Times,serif" font-size="14.00">विशेषणम्</text>
</g>
<!-- 6&#45;&gt;2 -->
<g id="edge2" class="edge">
<title>6&#45;&gt;2</title>
<path fill="none" stroke="black" d="M306.94,-175.41C292.42,-162.56 271.61,-144.13 255.08,-129.49"/>
<polygon fill="black" stroke="black" points="257.16,-126.66 247.35,-122.65 252.52,-131.9 257.16,-126.66"/>
<text text-anchor="middle" x="308.04" y="-144.8" font-family="Times,serif" font-size="14.00">विशेषणम्</text>
</g>
<!-- 6&#45;&gt;3 -->
<g id="edge3" class="edge">
<title>6&#45;&gt;3</title>
<path fill="none" stroke="black" d="M342.34,-175.41C356.91,-162.64 377.76,-144.37 394.41,-129.78"/>
<polygon fill="black" stroke="black" points="396.99,-132.17 402.2,-122.95 392.37,-126.91 396.99,-132.17"/>
<text text-anchor="middle" x="405.04" y="-144.8" font-family="Times,serif" font-size="14.00">विशेषणम्</text>
</g>
<!-- 6&#45;&gt;5 -->
<g id="edge5" class="edge">
<title>6&#45;&gt;5</title>
<path fill="none" stroke="black" d="M356.58,-180.11C362.86,-178.04 369.4,-175.92 375.54,-174 436.82,-154.89 507.64,-134.55 555.19,-121.15"/>
<polygon fill="black" stroke="black" points="556.29,-124.47 564.97,-118.4 554.39,-117.74 556.29,-124.47"/>
<text text-anchor="middle" x="509.04" y="-144.8" font-family="Times,serif" font-size="14.00">विशेषणम्</text>
</g>
<!-- 7 -->
<g id="node7" class="node">
<title>7</title>
<g id="a_node7"><a xlink:title="सात्त्विक{पुं}{1;एक}">
<ellipse fill="#00bfff" stroke="#00bfff" cx="445.54" cy="-192" rx="61.19" ry="18"/>
<text text-anchor="middle" x="445.54" y="-188.3" font-family="Times,serif" font-size="14.00">सात्त्विकः (7)</text>
</a>
</g>
</g>
<!-- 8 -->
<g id="node8" class="node">
<title>8</title>
<g id="a_node8"><a xlink:title="वच्1{कर्मणि;लट्;प्र;एक;आत्मनेपदी;वचँ;अदादिः}">
<ellipse fill="#ff6347" stroke="#ff6347" cx="384.54" cy="-279" rx="48.19" ry="18"/>
<text text-anchor="middle" x="384.54" y="-275.3" font-family="Times,serif" font-size="14.00">उच्यते (8)</text>
</a>
</g>
</g>
<!-- 8&#45;&gt;6 -->
<g id="edge6" class="edge">
<title>8&#45;&gt;6</title>
<path fill="none" stroke="black" d="M372.69,-261.21C363.92,-248.79 351.84,-231.67 341.98,-217.7"/>
<polygon fill="black" stroke="black" points="344.8,-215.62 336.17,-209.47 339.08,-219.66 344.8,-215.62"/>
<text text-anchor="middle" x="368.54" y="-231.8" font-family="Times,serif" font-size="14.00">कर्म</text>
</g>
<!-- 8&#45;&gt;7 -->
<g id="edge7" class="edge">
<title>8&#45;&gt;7</title>
<path fill="none" stroke="black" d="M396.6,-261.21C405.45,-248.87 417.63,-231.89 427.63,-217.97"/>
<polygon fill="black" stroke="black" points="430.53,-219.92 433.52,-209.76 424.84,-215.84 430.53,-219.92"/>
<text text-anchor="middle" x="470.54" y="-231.8" font-family="Times,serif" font-size="14.00">कर्मसमानाधिकरणम्</text>
</g>
</g>
</svg>
