<?xml version="1.0" encoding="UTF-8" standalone="no"?>
<!DOCTYPE svg PUBLIC "-//W3C//DTD SVG 1.1//EN"
 "http://www.w3.org/Graphics/SVG/1.1/DTD/svg11.dtd">
<!-- Generated by graphviz version 2.43.0 (0)
 -->
<!-- Title: %3 Pages: 1 -->
<svg width="1111pt" height="218pt"
 viewBox="0.00 0.00 1111.29 218.00" xmlns="http://www.w3.org/2000/svg" xmlns:xlink="http://www.w3.org/1999/xlink">
<g id="graph0" class="graph" transform="scale(1 1) rotate(0) translate(4 214)">
<title>%3</title>
<polygon fill="#fffacd" stroke="transparent" points="-4,4 -4,-214 1107.29,-214 1107.29,4 -4,4"/>
<!-- 1 -->
<g id="node1" class="node">
<title>1</title>
<g id="a_node1"><a xlink:title="तत्र{अव्य}">
<ellipse fill="#ff00ff" stroke="#ff00ff" cx="42.25" cy="-105" rx="42.49" ry="18"/>
<text text-anchor="middle" x="42.25" y="-101.3" font-family="Times,serif" font-size="14.00">तत्र (1)</text>
</a>
</g>
</g>
<!-- 2 -->
<g id="node2" class="node">
<title>2</title>
<g id="a_node2"><a xlink:title="एवम्{अव्य}">
<ellipse fill="#ff00ff" stroke="#ff00ff" cx="144.25" cy="-18" rx="42.79" ry="18"/>
<text text-anchor="middle" x="144.25" y="-14.3" font-family="Times,serif" font-size="14.00">एवम् (2)</text>
</a>
</g>
</g>
<!-- 3 -->
<g id="node3" class="node">
<title>3</title>
<g id="a_node3"><a xlink:title="सत्{नपुं}{7;एक}">
<ellipse fill="#708090" stroke="#708090" cx="144.25" cy="-105" rx="41.69" ry="18"/>
<text text-anchor="middle" x="144.25" y="-101.3" font-family="Times,serif" font-size="14.00">सति (3)</text>
</a>
</g>
</g>
<!-- 3&#45;&gt;2 -->
<g id="edge2" class="edge">
<title>3&#45;&gt;2</title>
<path fill="none" stroke="black" d="M144.25,-86.8C144.25,-75.16 144.25,-59.55 144.25,-46.24"/>
<polygon fill="black" stroke="black" points="147.75,-46.18 144.25,-36.18 140.75,-46.18 147.75,-46.18"/>
<text text-anchor="middle" x="167.25" y="-57.8" font-family="Times,serif" font-size="14.00">सम्बन्धः</text>
</g>
<!-- 4 -->
<g id="node4" class="node">
<title>4</title>
<g id="a_node4"><a xlink:title="कर्तृ{पुं}{2;एक}">
<ellipse fill="#7cfc00" stroke="#7cfc00" cx="255.25" cy="-105" rx="51.19" ry="18"/>
<text text-anchor="middle" x="255.25" y="-101.3" font-family="Times,serif" font-size="14.00">कर्तारम् (4)</text>
</a>
</g>
</g>
<!-- 5 -->
<g id="node5" class="node">
<title>5</title>
<g id="a_node5"><a xlink:title="आत्मन्{पुं}{2;एक}">
<ellipse fill="#7cfc00" stroke="#7cfc00" cx="383.25" cy="-105" rx="59.29" ry="18"/>
<text text-anchor="middle" x="383.25" y="-101.3" font-family="Times,serif" font-size="14.00">आत्मानम् (5)</text>
</a>
</g>
</g>
<!-- 6 -->
<g id="node6" class="node">
<title>6</title>
<g id="a_node6"><a xlink:title="केवल{नपुं}{2;एक}">
<ellipse fill="#7cfc00" stroke="#7cfc00" cx="511.25" cy="-105" rx="51.19" ry="18"/>
<text text-anchor="middle" x="511.25" y="-101.3" font-family="Times,serif" font-size="14.00">केवलम् (6)</text>
</a>
</g>
</g>
<!-- 7 -->
<g id="node7" class="node">
<title>7</title>
<g id="a_node7"><a xlink:title="तु{अव्य}">
<ellipse fill="#ff00ff" stroke="#ff00ff" cx="617.25" cy="-18" rx="32.49" ry="18"/>
<text text-anchor="middle" x="617.25" y="-14.3" font-family="Times,serif" font-size="14.00">तु (7)</text>
</a>
</g>
</g>
<!-- 8 -->
<g id="node8" class="node">
<title>8</title>
<g id="a_node8"><a xlink:title="यद्{पुं}{1;एक}">
<ellipse fill="#00bfff" stroke="#00bfff" cx="617.25" cy="-105" rx="36.29" ry="18"/>
<text text-anchor="middle" x="617.25" y="-101.3" font-family="Times,serif" font-size="14.00">यः (8)</text>
</a>
</g>
</g>
<!-- 8&#45;&gt;7 -->
<g id="edge7" class="edge">
<title>8&#45;&gt;7</title>
<path fill="none" stroke="black" d="M617.25,-86.8C617.25,-75.16 617.25,-59.55 617.25,-46.24"/>
<polygon fill="black" stroke="black" points="620.75,-46.18 617.25,-36.18 613.75,-46.18 620.75,-46.18"/>
<text text-anchor="middle" x="640.25" y="-57.8" font-family="Times,serif" font-size="14.00">सम्बन्धः</text>
</g>
<!-- 9 -->
<g id="node9" class="node">
<title>9</title>
<g id="a_node9"><a xlink:title="दृश्1{कर्तरि;लट्;प्र;एक;परस्मैपदी;दृशिँर्;भ्वादिः}">
<ellipse fill="#ff6347" stroke="#ff6347" cx="383.25" cy="-192" rx="51.19" ry="18"/>
<text text-anchor="middle" x="383.25" y="-188.3" font-family="Times,serif" font-size="14.00">पश्यति (9)</text>
</a>
</g>
</g>
<!-- 9&#45;&gt;1 -->
<g id="edge1" class="edge">
<title>9&#45;&gt;1</title>
<path fill="none" stroke="black" d="M332.52,-188.72C261.17,-184.86 135.28,-175.48 94.25,-156 81.57,-149.98 70.03,-139.65 61.06,-129.94"/>
<polygon fill="black" stroke="black" points="63.66,-127.6 54.44,-122.38 58.39,-132.21 63.66,-127.6"/>
<text text-anchor="middle" x="124.75" y="-144.8" font-family="Times,serif" font-size="14.00">अधिकरणम्</text>
</g>
<!-- 9&#45;&gt;3 -->
<g id="edge3" class="edge">
<title>9&#45;&gt;3</title>
<path fill="none" stroke="black" d="M333.19,-187.67C279.19,-183.23 197.54,-173.77 172.25,-156 164,-150.2 157.89,-141.16 153.52,-132.35"/>
<polygon fill="black" stroke="black" points="156.67,-130.8 149.45,-123.05 150.25,-133.61 156.67,-130.8"/>
<text text-anchor="middle" x="216.75" y="-144.8" font-family="Times,serif" font-size="14.00">भावलक्षणसप्तमी</text>
</g>
<!-- 9&#45;&gt;4 -->
<g id="edge4" class="edge">
<title>9&#45;&gt;4</title>
<path fill="none" stroke="black" d="M335.84,-184.87C315.07,-180.04 291.73,-171.41 275.25,-156 268.74,-149.92 264.31,-141.44 261.3,-133.19"/>
<polygon fill="black" stroke="black" points="264.59,-131.95 258.31,-123.41 257.89,-134 264.59,-131.95"/>
<text text-anchor="middle" x="327.25" y="-144.8" font-family="Times,serif" font-size="14.00">कर्मसमानाधिकरणम्</text>
</g>
<!-- 9&#45;&gt;5 -->
<g id="edge5" class="edge">
<title>9&#45;&gt;5</title>
<path fill="none" stroke="black" d="M383.25,-173.8C383.25,-162.16 383.25,-146.55 383.25,-133.24"/>
<polygon fill="black" stroke="black" points="386.75,-133.18 383.25,-123.18 379.75,-133.18 386.75,-133.18"/>
<text text-anchor="middle" x="393.25" y="-144.8" font-family="Times,serif" font-size="14.00">कर्म</text>
</g>
<!-- 9&#45;&gt;6 -->
<g id="edge6" class="edge">
<title>9&#45;&gt;6</title>
<path fill="none" stroke="black" d="M406.13,-175.8C426.66,-162.17 456.98,-142.03 479.79,-126.89"/>
<polygon fill="black" stroke="black" points="481.73,-129.8 488.13,-121.35 477.86,-123.97 481.73,-129.8"/>
<text text-anchor="middle" x="497.75" y="-144.8" font-family="Times,serif" font-size="14.00">क्रियाविशेषणम्</text>
</g>
<!-- 9&#45;&gt;8 -->
<g id="edge8" class="edge">
<title>9&#45;&gt;8</title>
<path fill="none" stroke="black" d="M431.23,-185.51C464.05,-180.59 508,-171.64 544.25,-156 561.14,-148.71 578.2,-137.3 591.58,-127.22"/>
<polygon fill="black" stroke="black" points="594.05,-129.74 599.8,-120.84 589.75,-124.2 594.05,-129.74"/>
<text text-anchor="middle" x="582.75" y="-144.8" font-family="Times,serif" font-size="14.00">कर्ता</text>
</g>
<!-- 10 -->
<g id="node10" class="node">
<title>10</title>
<g id="a_node10"><a xlink:title="न&#45;कृत&#45;बुद्धित्व{नपुं}{5;एक}">
<ellipse fill="#90ee90" stroke="#90ee90" cx="768.25" cy="-105" rx="96.68" ry="18"/>
<text text-anchor="middle" x="768.25" y="-101.3" font-family="Times,serif" font-size="14.00">अ&#45;कृत&#45;बुद्धित्वात् (10)</text>
</a>
</g>
</g>
<!-- 9&#45;&gt;10 -->
<g id="edge9" class="edge">
<title>9&#45;&gt;10</title>
<path fill="none" stroke="black" d="M430.77,-185.07C474.76,-179.16 541.84,-169.09 599.25,-156 637.77,-147.22 680.43,-134.57 713.26,-124.2"/>
<polygon fill="black" stroke="black" points="714.65,-127.43 723.11,-121.06 712.52,-120.76 714.65,-127.43"/>
<text text-anchor="middle" x="667.75" y="-144.8" font-family="Times,serif" font-size="14.00">हेतुः</text>
</g>
<!-- 11 -->
<g id="node11" class="node">
<title>11</title>
<g id="a_node11"><a xlink:title="न{अव्य}">
<ellipse fill="#ff00ff" stroke="#ff00ff" cx="921.25" cy="-105" rx="38.19" ry="18"/>
<text text-anchor="middle" x="921.25" y="-101.3" font-family="Times,serif" font-size="14.00">न (11)</text>
</a>
</g>
</g>
<!-- 12 -->
<g id="node12" class="node">
<title>12</title>
<g id="a_node12"><a xlink:title="तद्{पुं}{1;एक}">
<ellipse fill="#00bfff" stroke="#00bfff" cx="1040.25" cy="-18" rx="42.49" ry="18"/>
<text text-anchor="middle" x="1040.25" y="-14.3" font-family="Times,serif" font-size="14.00">सः (12)</text>
</a>
</g>
</g>
<!-- 13 -->
<g id="node13" class="node">
<title>13</title>
<g id="a_node13"><a xlink:title="दृश्1{कर्तरि;लट्;प्र;एक;परस्मैपदी;दृशिँर्;भ्वादिः}">
<ellipse fill="#ff6347" stroke="#ff6347" cx="969.25" cy="-192" rx="57.39" ry="18"/>
<text text-anchor="middle" x="969.25" y="-188.3" font-family="Times,serif" font-size="14.00">पश्यति (13)</text>
</a>
</g>
</g>
<!-- 13&#45;&gt;11 -->
<g id="edge10" class="edge">
<title>13&#45;&gt;11</title>
<path fill="none" stroke="black" d="M956.37,-174.34C952.26,-168.67 947.84,-162.2 944.25,-156 939.93,-148.56 935.81,-140.17 932.27,-132.42"/>
<polygon fill="black" stroke="black" points="935.38,-130.8 928.14,-123.07 928.98,-133.63 935.38,-130.8"/>
<text text-anchor="middle" x="970.25" y="-144.8" font-family="Times,serif" font-size="14.00">प्रतिषेधः</text>
</g>
<!-- 14 -->
<g id="node14" class="node">
<title>14</title>
<g id="a_node14"><a xlink:title="दुर्&#45;मति{पुं}{1;एक}">
<ellipse fill="#00bfff" stroke="#00bfff" cx="1040.25" cy="-105" rx="63.09" ry="18"/>
<text text-anchor="middle" x="1040.25" y="-101.3" font-family="Times,serif" font-size="14.00">दुर्&#45;मतिः (14)</text>
</a>
</g>
</g>
<!-- 13&#45;&gt;14 -->
<g id="edge12" class="edge">
<title>13&#45;&gt;14</title>
<path fill="none" stroke="black" d="M983.27,-174.21C993.68,-161.75 1008.03,-144.57 1019.72,-130.57"/>
<polygon fill="black" stroke="black" points="1022.52,-132.68 1026.25,-122.76 1017.15,-128.19 1022.52,-132.68"/>
<text text-anchor="middle" x="1021.75" y="-144.8" font-family="Times,serif" font-size="14.00">कर्ता</text>
</g>
<!-- 14&#45;&gt;12 -->
<g id="edge11" class="edge">
<title>14&#45;&gt;12</title>
<path fill="none" stroke="black" d="M1040.25,-86.8C1040.25,-75.16 1040.25,-59.55 1040.25,-46.24"/>
<polygon fill="black" stroke="black" points="1043.75,-46.18 1040.25,-36.18 1036.75,-46.18 1043.75,-46.18"/>
<text text-anchor="middle" x="1065.75" y="-57.8" font-family="Times,serif" font-size="14.00">विशेषणम्</text>
</g>
</g>
</svg>
