<?xml version="1.0" encoding="UTF-8" standalone="no"?>
<!DOCTYPE svg PUBLIC "-//W3C//DTD SVG 1.1//EN"
 "http://www.w3.org/Graphics/SVG/1.1/DTD/svg11.dtd">
<!-- Generated by graphviz version 2.43.0 (0)
 -->
<!-- Title: %3 Pages: 1 -->
<svg width="907pt" height="305pt"
 viewBox="0.00 0.00 907.30 305.00" xmlns="http://www.w3.org/2000/svg" xmlns:xlink="http://www.w3.org/1999/xlink">
<g id="graph0" class="graph" transform="scale(1 1) rotate(0) translate(4 301)">
<title>%3</title>
<polygon fill="#fffacd" stroke="transparent" points="-4,4 -4,-301 903.3,-301 903.3,4 -4,4"/>
<!-- 1 -->
<g id="node1" class="node">
<title>1</title>
<g id="a_node1"><a xlink:title="यद्{स्त्री}{3;एक}">
<ellipse fill="#40e0d0" stroke="#40e0d0" cx="40.3" cy="-105" rx="40.09" ry="18"/>
<text text-anchor="middle" x="40.3" y="-101.3" font-family="Times,serif" font-size="14.00">यया (1)</text>
</a>
</g>
</g>
<!-- 1.1 -->
<g id="node2" class="node">
<title>1.1</title>
<g id="a_node2"><a xlink:title="(धृति{स्त्री}{3;एक})">
<ellipse fill="#40e0d0" stroke="#40e0d0" cx="88.3" cy="-192" rx="60.39" ry="18"/>
<text text-anchor="middle" x="88.3" y="-188.3" font-family="Times,serif" font-size="14.00">(धृत्या) (1.1)</text>
</a>
</g>
</g>
<!-- 1.1&#45;&gt;1 -->
<g id="edge1" class="edge">
<title>1.1&#45;&gt;1</title>
<path fill="none" stroke="black" d="M78.81,-174.21C71.98,-162.1 62.62,-145.53 54.84,-131.76"/>
<polygon fill="black" stroke="black" points="57.72,-129.74 49.76,-122.76 51.63,-133.19 57.72,-129.74"/>
<text text-anchor="middle" x="92.8" y="-144.8" font-family="Times,serif" font-size="14.00">विशेषणम्</text>
</g>
<!-- 2 -->
<g id="node3" class="node">
<title>2</title>
<g id="a_node3"><a xlink:title="स्वप्न{नपुं}{2;एक}">
<ellipse fill="#7cfc00" stroke="#7cfc00" cx="150.3" cy="-105" rx="51.99" ry="18"/>
<text text-anchor="middle" x="150.3" y="-101.3" font-family="Times,serif" font-size="14.00">स्वप्नम् (2)</text>
</a>
</g>
</g>
<!-- 3 -->
<g id="node4" class="node">
<title>3</title>
<g id="a_node4"><a xlink:title="भय{नपुं}{2;एक}">
<ellipse fill="#7cfc00" stroke="#7cfc00" cx="237.3" cy="-18" rx="44.39" ry="18"/>
<text text-anchor="middle" x="237.3" y="-14.3" font-family="Times,serif" font-size="14.00">भयम् (3)</text>
</a>
</g>
</g>
<!-- 4 -->
<g id="node5" class="node">
<title>4</title>
<g id="a_node5"><a xlink:title="शोक{पुं}{2;एक}">
<ellipse fill="#7cfc00" stroke="#7cfc00" cx="347.3" cy="-18" rx="48.19" ry="18"/>
<text text-anchor="middle" x="347.3" y="-14.3" font-family="Times,serif" font-size="14.00">शोकम् (4)</text>
</a>
</g>
</g>
<!-- 5 -->
<g id="node6" class="node">
<title>5</title>
<g id="a_node6"><a xlink:title="विषाद{पुं}{2;एक}">
<ellipse fill="#7cfc00" stroke="#7cfc00" cx="467.3" cy="-18" rx="53.89" ry="18"/>
<text text-anchor="middle" x="467.3" y="-14.3" font-family="Times,serif" font-size="14.00">विषादम् (5)</text>
</a>
</g>
</g>
<!-- 6 -->
<g id="node7" class="node">
<title>6</title>
<g id="a_node7"><a xlink:title="मद{पुं}{2;एक}">
<ellipse fill="#7cfc00" stroke="#7cfc00" cx="234.3" cy="-192" rx="43.59" ry="18"/>
<text text-anchor="middle" x="234.3" y="-188.3" font-family="Times,serif" font-size="14.00">मदम् (6)</text>
</a>
</g>
</g>
<!-- 6&#45;&gt;2 -->
<g id="edge3" class="edge">
<title>6&#45;&gt;2</title>
<path fill="none" stroke="black" d="M196.56,-182.67C181.73,-177.46 165.97,-169.15 156.3,-156 151.54,-149.54 149.43,-141.28 148.67,-133.35"/>
<polygon fill="black" stroke="black" points="152.16,-133.17 148.34,-123.29 145.17,-133.39 152.16,-133.17"/>
<text text-anchor="middle" x="198.8" y="-144.8" font-family="Times,serif" font-size="14.00">सुप्_समुच्चितम्</text>
</g>
<!-- 7 -->
<g id="node8" class="node">
<title>7</title>
<g id="a_node8"><a xlink:title="एव{अव्य}">
<ellipse fill="#ff00ff" stroke="#ff00ff" cx="258.3" cy="-105" rx="37.89" ry="18"/>
<text text-anchor="middle" x="258.3" y="-101.3" font-family="Times,serif" font-size="14.00">एव (7)</text>
</a>
</g>
</g>
<!-- 6&#45;&gt;7 -->
<g id="edge8" class="edge">
<title>6&#45;&gt;7</title>
<path fill="none" stroke="black" d="M239.15,-173.8C242.49,-161.97 246.99,-146.03 250.79,-132.58"/>
<polygon fill="black" stroke="black" points="254.18,-133.46 253.53,-122.89 247.44,-131.56 254.18,-133.46"/>
<text text-anchor="middle" x="271.3" y="-144.8" font-family="Times,serif" font-size="14.00">सम्बन्धः</text>
</g>
<!-- 8 -->
<g id="node9" class="node">
<title>8</title>
<g id="a_node9"><a xlink:title="च{अव्य}">
<ellipse fill="#ff00ff" stroke="#ff00ff" cx="347.3" cy="-105" rx="33.29" ry="18"/>
<text text-anchor="middle" x="347.3" y="-101.3" font-family="Times,serif" font-size="14.00">च (8)</text>
</a>
</g>
</g>
<!-- 6&#45;&gt;8 -->
<g id="edge9" class="edge">
<title>6&#45;&gt;8</title>
<path fill="none" stroke="black" d="M262.16,-178.04C273.81,-172.05 287.19,-164.41 298.3,-156 308.64,-148.17 318.88,-138.18 327.3,-129.19"/>
<polygon fill="black" stroke="black" points="330.04,-131.37 334.19,-121.62 324.86,-126.66 330.04,-131.37"/>
<text text-anchor="middle" x="357.8" y="-144.8" font-family="Times,serif" font-size="14.00">समुच्चयद्योतकः</text>
</g>
<!-- 8&#45;&gt;3 -->
<g id="edge4" class="edge">
<title>8&#45;&gt;3</title>
<path fill="none" stroke="black" d="M321.56,-93.49C316.19,-91.33 310.57,-89.08 305.3,-87 284.48,-78.8 274.36,-84.56 258.3,-69 251.85,-62.76 247.3,-54.24 244.12,-46"/>
<polygon fill="black" stroke="black" points="247.36,-44.65 240.88,-36.26 240.71,-46.86 247.36,-44.65"/>
<text text-anchor="middle" x="300.8" y="-57.8" font-family="Times,serif" font-size="14.00">सुप्_समुच्चितम्</text>
</g>
<!-- 8&#45;&gt;4 -->
<g id="edge5" class="edge">
<title>8&#45;&gt;4</title>
<path fill="none" stroke="black" d="M347.3,-86.8C347.3,-75.16 347.3,-59.55 347.3,-46.24"/>
<polygon fill="black" stroke="black" points="350.8,-46.18 347.3,-36.18 343.8,-46.18 350.8,-46.18"/>
<text text-anchor="middle" x="389.8" y="-57.8" font-family="Times,serif" font-size="14.00">सुप्_समुच्चितम्</text>
</g>
<!-- 8&#45;&gt;5 -->
<g id="edge6" class="edge">
<title>8&#45;&gt;5</title>
<path fill="none" stroke="black" d="M377.45,-97.32C395.98,-92.04 419.34,-83.15 436.3,-69 444.01,-62.56 450.38,-53.69 455.29,-45.2"/>
<polygon fill="black" stroke="black" points="458.43,-46.74 460.05,-36.27 452.26,-43.45 458.43,-46.74"/>
<text text-anchor="middle" x="491.8" y="-57.8" font-family="Times,serif" font-size="14.00">सुप्_समुच्चितम्</text>
</g>
<!-- 9 -->
<g id="node10" class="node">
<title>9</title>
<g id="a_node10"><a xlink:title="न{अव्य}">
<ellipse fill="#ff00ff" stroke="#ff00ff" cx="328.3" cy="-192" rx="32.49" ry="18"/>
<text text-anchor="middle" x="328.3" y="-188.3" font-family="Times,serif" font-size="14.00">न (9)</text>
</a>
</g>
</g>
<!-- 10 -->
<g id="node11" class="node">
<title>10</title>
<g id="a_node11"><a xlink:title="वि_मुच्1{कर्तरि;लट्;प्र;एक;परस्मैपदी;वि_मुचॢँ;तुदादिः}">
<ellipse fill="#ff6347" stroke="#ff6347" cx="328.3" cy="-279" rx="65.79" ry="18"/>
<text text-anchor="middle" x="328.3" y="-275.3" font-family="Times,serif" font-size="14.00">विमुञ्चति (10)</text>
</a>
</g>
</g>
<!-- 10&#45;&gt;1.1 -->
<g id="edge2" class="edge">
<title>10&#45;&gt;1.1</title>
<path fill="none" stroke="black" d="M289.74,-264.34C247.64,-249.43 180.23,-225.56 135.13,-209.59"/>
<polygon fill="black" stroke="black" points="136.17,-206.24 125.58,-206.2 133.83,-212.84 136.17,-206.24"/>
<text text-anchor="middle" x="241.3" y="-231.8" font-family="Times,serif" font-size="14.00">करणम्</text>
</g>
<!-- 10&#45;&gt;6 -->
<g id="edge7" class="edge">
<title>10&#45;&gt;6</title>
<path fill="none" stroke="black" d="M310.17,-261.61C295.68,-248.51 275.22,-230.01 259.19,-215.51"/>
<polygon fill="black" stroke="black" points="261.49,-212.87 251.73,-208.76 256.8,-218.07 261.49,-212.87"/>
<text text-anchor="middle" x="297.3" y="-231.8" font-family="Times,serif" font-size="14.00">कर्म</text>
</g>
<!-- 10&#45;&gt;9 -->
<g id="edge10" class="edge">
<title>10&#45;&gt;9</title>
<path fill="none" stroke="black" d="M328.3,-260.8C328.3,-249.16 328.3,-233.55 328.3,-220.24"/>
<polygon fill="black" stroke="black" points="331.8,-220.18 328.3,-210.18 324.8,-220.18 331.8,-220.18"/>
<text text-anchor="middle" x="354.3" y="-231.8" font-family="Times,serif" font-size="14.00">प्रतिषेधः</text>
</g>
<!-- 11 -->
<g id="node12" class="node">
<title>11</title>
<g id="a_node12"><a xlink:title="दुर्&#45;मेधस्{पुं}{1;एक}">
<ellipse fill="#00bfff" stroke="#00bfff" cx="442.3" cy="-192" rx="63.89" ry="18"/>
<text text-anchor="middle" x="442.3" y="-188.3" font-family="Times,serif" font-size="14.00">दुर्&#45;मेधाः (11)</text>
</a>
</g>
</g>
<!-- 10&#45;&gt;11 -->
<g id="edge11" class="edge">
<title>10&#45;&gt;11</title>
<path fill="none" stroke="black" d="M355.06,-262.43C364.5,-256.63 375.07,-249.8 384.3,-243 395.44,-234.79 407.12,-224.98 417.05,-216.24"/>
<polygon fill="black" stroke="black" points="419.47,-218.77 424.6,-209.5 414.81,-213.55 419.47,-218.77"/>
<text text-anchor="middle" x="415.8" y="-231.8" font-family="Times,serif" font-size="14.00">कर्ता</text>
</g>
<!-- 14 -->
<g id="node15" class="node">
<title>14</title>
<g id="a_node15"><a xlink:title="पार्थ{पुं}{8;एक}">
<ellipse fill="#7fffd4" stroke="#7fffd4" cx="570.3" cy="-192" rx="46.59" ry="18"/>
<text text-anchor="middle" x="570.3" y="-188.3" font-family="Times,serif" font-size="14.00">पार्थ (14)</text>
</a>
</g>
</g>
<!-- 10&#45;&gt;14 -->
<g id="edge14" class="edge">
<title>10&#45;&gt;14</title>
<path fill="none" stroke="black" d="M368.87,-264.59C388.12,-258.16 411.43,-250.29 432.3,-243 464.54,-231.73 500.85,-218.56 528.13,-208.56"/>
<polygon fill="black" stroke="black" points="529.57,-211.76 537.75,-205.03 527.16,-205.19 529.57,-211.76"/>
<text text-anchor="middle" x="499.8" y="-231.8" font-family="Times,serif" font-size="14.00">सम्बोध्यः</text>
</g>
<!-- 12 -->
<g id="node13" class="node">
<title>12</title>
<g id="a_node13"><a xlink:title="धृति{स्त्री}{1;एक}">
<ellipse fill="#00bfff" stroke="#00bfff" cx="685.3" cy="-192" rx="50.09" ry="18"/>
<text text-anchor="middle" x="685.3" y="-188.3" font-family="Times,serif" font-size="14.00">धृतिः (12)</text>
</a>
</g>
</g>
<!-- 13 -->
<g id="node14" class="node">
<title>13</title>
<g id="a_node14"><a xlink:title="तद्{स्त्री}{1;एक}">
<ellipse fill="#00bfff" stroke="#00bfff" cx="685.3" cy="-105" rx="41.69" ry="18"/>
<text text-anchor="middle" x="685.3" y="-101.3" font-family="Times,serif" font-size="14.00">सा (13)</text>
</a>
</g>
</g>
<!-- 12&#45;&gt;13 -->
<g id="edge13" class="edge">
<title>12&#45;&gt;13</title>
<path fill="none" stroke="black" d="M685.3,-173.8C685.3,-162.16 685.3,-146.55 685.3,-133.24"/>
<polygon fill="black" stroke="black" points="688.8,-133.18 685.3,-123.18 681.8,-133.18 688.8,-133.18"/>
<text text-anchor="middle" x="710.8" y="-144.8" font-family="Times,serif" font-size="14.00">विशेषणम्</text>
</g>
<!-- 15 -->
<g id="node16" class="node">
<title>15</title>
<g id="a_node16"><a xlink:title="तामसी{स्त्री}{1;एक}">
<ellipse fill="#00bfff" stroke="#00bfff" cx="809.3" cy="-192" rx="55.79" ry="18"/>
<text text-anchor="middle" x="809.3" y="-188.3" font-family="Times,serif" font-size="14.00">तामसी (15)</text>
</a>
</g>
</g>
<!-- 15.1 -->
<g id="node17" class="node">
<title>15.1</title>
<g id="a_node17"><a xlink:title="(अस्2{कर्तरि;लट्;प्र;एक;परस्मैपदी;असँ;अदादिः})">
<ellipse fill="#ff6347" stroke="#ff6347" cx="778.3" cy="-279" rx="68.79" ry="18"/>
<text text-anchor="middle" x="778.3" y="-275.3" font-family="Times,serif" font-size="14.00">(अस्ति) (15.1)</text>
</a>
</g>
</g>
<!-- 15.1&#45;&gt;12 -->
<g id="edge12" class="edge">
<title>15.1&#45;&gt;12</title>
<path fill="none" stroke="black" d="M760.37,-261.61C746.25,-248.71 726.41,-230.57 710.66,-216.18"/>
<polygon fill="black" stroke="black" points="712.6,-213.21 702.86,-209.05 707.88,-218.38 712.6,-213.21"/>
<text text-anchor="middle" x="749.8" y="-231.8" font-family="Times,serif" font-size="14.00">कर्ता</text>
</g>
<!-- 15.1&#45;&gt;15 -->
<g id="edge15" class="edge">
<title>15.1&#45;&gt;15</title>
<path fill="none" stroke="black" d="M784.57,-260.8C788.86,-249.05 794.62,-233.24 799.51,-219.84"/>
<polygon fill="black" stroke="black" points="802.89,-220.77 803.03,-210.18 796.32,-218.37 802.89,-220.77"/>
<text text-anchor="middle" x="847.3" y="-231.8" font-family="Times,serif" font-size="14.00">कर्तृसमानाधिकरणम्</text>
</g>
</g>
</svg>
