<?xml version="1.0" encoding="UTF-8" standalone="no"?>
<!DOCTYPE svg PUBLIC "-//W3C//DTD SVG 1.1//EN"
 "http://www.w3.org/Graphics/SVG/1.1/DTD/svg11.dtd">
<!-- Generated by graphviz version 2.43.0 (0)
 -->
<!-- Title: %3 Pages: 1 -->
<svg width="649pt" height="305pt"
 viewBox="0.00 0.00 648.54 305.00" xmlns="http://www.w3.org/2000/svg" xmlns:xlink="http://www.w3.org/1999/xlink">
<g id="graph0" class="graph" transform="scale(1 1) rotate(0) translate(4 301)">
<title>%3</title>
<polygon fill="#fffacd" stroke="transparent" points="-4,4 -4,-301 644.54,-301 644.54,4 -4,4"/>
<!-- 1 -->
<g id="node1" class="node">
<title>1</title>
<g id="a_node1"><a xlink:title="इति{अव्य}">
<ellipse fill="#ff00ff" stroke="#ff00ff" cx="135.04" cy="-192" rx="40.09" ry="18"/>
<text text-anchor="middle" x="135.04" y="-188.3" font-family="Times,serif" font-size="14.00">इति (1)</text>
</a>
</g>
</g>
<!-- 2 -->
<g id="node2" class="node">
<title>2</title>
<g id="a_node2"><a xlink:title="अस्मद्{1;एक}">
<ellipse fill="#00bfff" stroke="#00bfff" cx="238.04" cy="-192" rx="44.69" ry="18"/>
<text text-anchor="middle" x="238.04" y="-188.3" font-family="Times,serif" font-size="14.00">अहम् (2)</text>
</a>
</g>
</g>
<!-- 3 -->
<g id="node3" class="node">
<title>3</title>
<g id="a_node3"><a xlink:title="वासुदेव{पुं}{6;एक}">
<ellipse fill="#87ceeb" stroke="#87ceeb" cx="63.04" cy="-18" rx="63.09" ry="18"/>
<text text-anchor="middle" x="63.04" y="-14.3" font-family="Times,serif" font-size="14.00">वासुदेवस्य (3)</text>
</a>
</g>
</g>
<!-- 4 -->
<g id="node4" class="node">
<title>4</title>
<g id="a_node4"><a xlink:title="पार्थ{पुं}{6;एक}">
<ellipse fill="#87ceeb" stroke="#87ceeb" cx="177.04" cy="-105" rx="51.99" ry="18"/>
<text text-anchor="middle" x="177.04" y="-101.3" font-family="Times,serif" font-size="14.00">पार्थस्य (4)</text>
</a>
</g>
</g>
<!-- 4&#45;&gt;3 -->
<g id="edge3" class="edge">
<title>4&#45;&gt;3</title>
<path fill="none" stroke="black" d="M134.56,-94.27C118.52,-88.92 101.03,-80.88 88.04,-69 81.15,-62.69 75.9,-54.05 72.04,-45.73"/>
<polygon fill="black" stroke="black" points="75.18,-44.17 68.13,-36.26 68.71,-46.84 75.18,-44.17"/>
<text text-anchor="middle" x="130.54" y="-57.8" font-family="Times,serif" font-size="14.00">सुप्_समुच्चितम्</text>
</g>
<!-- 5 -->
<g id="node5" class="node">
<title>5</title>
<g id="a_node5"><a xlink:title="च{अव्य}">
<ellipse fill="#ff00ff" stroke="#ff00ff" cx="177.04" cy="-18" rx="33.29" ry="18"/>
<text text-anchor="middle" x="177.04" y="-14.3" font-family="Times,serif" font-size="14.00">च (5)</text>
</a>
</g>
</g>
<!-- 4&#45;&gt;5 -->
<g id="edge5" class="edge">
<title>4&#45;&gt;5</title>
<path fill="none" stroke="black" d="M177.04,-86.8C177.04,-75.16 177.04,-59.55 177.04,-46.24"/>
<polygon fill="black" stroke="black" points="180.54,-46.18 177.04,-36.18 173.54,-46.18 180.54,-46.18"/>
<text text-anchor="middle" x="219.54" y="-57.8" font-family="Times,serif" font-size="14.00">समुच्ययद्योतकः</text>
</g>
<!-- 6 -->
<g id="node6" class="node">
<title>6</title>
<g id="a_node6"><a xlink:title="महात्मन्{पुं}{6;एक}">
<ellipse fill="#87ceeb" stroke="#87ceeb" cx="303.04" cy="-18" rx="74.99" ry="18"/>
<text text-anchor="middle" x="303.04" y="-14.3" font-family="Times,serif" font-size="14.00">महत्&#45;आत्मनः (6)</text>
</a>
</g>
</g>
<!-- 4&#45;&gt;6 -->
<g id="edge6" class="edge">
<title>4&#45;&gt;6</title>
<path fill="none" stroke="black" d="M217.17,-93.53C233.42,-87.99 251.68,-80.01 266.04,-69 274.66,-62.4 282.21,-53.27 288.21,-44.62"/>
<polygon fill="black" stroke="black" points="291.14,-46.53 293.67,-36.24 285.28,-42.71 291.14,-46.53"/>
<text text-anchor="middle" x="306.54" y="-57.8" font-family="Times,serif" font-size="14.00">विशेषणम्</text>
</g>
<!-- 7 -->
<g id="node7" class="node">
<title>7</title>
<g id="a_node7"><a xlink:title="संवाद{पुं}{2;एक}">
<ellipse fill="#7cfc00" stroke="#7cfc00" cx="353.04" cy="-192" rx="51.99" ry="18"/>
<text text-anchor="middle" x="353.04" y="-188.3" font-family="Times,serif" font-size="14.00">संवादम् (7)</text>
</a>
</g>
</g>
<!-- 7&#45;&gt;4 -->
<g id="edge4" class="edge">
<title>7&#45;&gt;4</title>
<path fill="none" stroke="black" d="M313.99,-180.09C287.68,-172.46 255.59,-162.5 243.04,-156 228.77,-148.6 214.37,-138.12 202.68,-128.67"/>
<polygon fill="black" stroke="black" points="204.61,-125.72 194.68,-122.02 200.14,-131.11 204.61,-125.72"/>
<text text-anchor="middle" x="279.04" y="-144.8" font-family="Times,serif" font-size="14.00">षष्ठीसम्बन्धः</text>
</g>
<!-- 8 -->
<g id="node8" class="node">
<title>8</title>
<g id="a_node8"><a xlink:title="इदम्{पुं}{2;एक}">
<ellipse fill="#7cfc00" stroke="#7cfc00" cx="291.04" cy="-105" rx="43.59" ry="18"/>
<text text-anchor="middle" x="291.04" y="-101.3" font-family="Times,serif" font-size="14.00">इमम् (8)</text>
</a>
</g>
</g>
<!-- 7&#45;&gt;8 -->
<g id="edge8" class="edge">
<title>7&#45;&gt;8</title>
<path fill="none" stroke="black" d="M340.8,-174.21C331.74,-161.79 319.25,-144.67 309.06,-130.7"/>
<polygon fill="black" stroke="black" points="311.78,-128.49 303.06,-122.47 306.12,-132.61 311.78,-128.49"/>
<text text-anchor="middle" x="351.54" y="-144.8" font-family="Times,serif" font-size="14.00">विशेषणम्</text>
</g>
<!-- 10 -->
<g id="node10" class="node">
<title>10</title>
<g id="a_node10"><a xlink:title="अद्भुत{पुं}{2;एक}">
<ellipse fill="#7cfc00" stroke="#7cfc00" cx="416.04" cy="-105" rx="63.09" ry="18"/>
<text text-anchor="middle" x="416.04" y="-101.3" font-family="Times,serif" font-size="14.00">अद्भुतम् (10)</text>
</a>
</g>
</g>
<!-- 7&#45;&gt;10 -->
<g id="edge9" class="edge">
<title>7&#45;&gt;10</title>
<path fill="none" stroke="black" d="M366.65,-174.44C371.3,-168.66 376.47,-162.1 381.04,-156 387.01,-148.03 393.32,-139.17 398.91,-131.15"/>
<polygon fill="black" stroke="black" points="401.83,-133.07 404.64,-122.86 396.07,-129.09 401.83,-133.07"/>
<text text-anchor="middle" x="417.54" y="-144.8" font-family="Times,serif" font-size="14.00">विशेषणम्</text>
</g>
<!-- 11 -->
<g id="node11" class="node">
<title>11</title>
<g id="a_node11"><a xlink:title="रोम&#45;हर्षण{पुं}{2;एक}">
<ellipse fill="#7cfc00" stroke="#7cfc00" cx="569.04" cy="-105" rx="71.49" ry="18"/>
<text text-anchor="middle" x="569.04" y="-101.3" font-family="Times,serif" font-size="14.00">रोम&#45;हर्षणम् (11)</text>
</a>
</g>
</g>
<!-- 7&#45;&gt;11 -->
<g id="edge10" class="edge">
<title>7&#45;&gt;11</title>
<path fill="none" stroke="black" d="M387.52,-178.47C405.35,-171.91 427.42,-163.67 447.04,-156 472.79,-145.94 501.39,-134.24 524.42,-124.69"/>
<polygon fill="black" stroke="black" points="526.04,-127.81 533.93,-120.74 523.35,-121.35 526.04,-127.81"/>
<text text-anchor="middle" x="510.54" y="-144.8" font-family="Times,serif" font-size="14.00">विशेषणम्</text>
</g>
<!-- 9 -->
<g id="node9" class="node">
<title>9</title>
<g id="a_node9"><a xlink:title="श्रु1{कर्तरि;लुङ्;उ;एक;परस्मैपदी;श्रु;भ्वादिः}">
<ellipse fill="#ff6347" stroke="#ff6347" cx="238.04" cy="-279" rx="59.59" ry="18"/>
<text text-anchor="middle" x="238.04" y="-275.3" font-family="Times,serif" font-size="14.00">अश्रौषम् (9)</text>
</a>
</g>
</g>
<!-- 9&#45;&gt;1 -->
<g id="edge1" class="edge">
<title>9&#45;&gt;1</title>
<path fill="none" stroke="black" d="M214.12,-262.3C205.69,-256.5 196.26,-249.69 188.04,-243 177.78,-234.64 167.04,-224.75 157.94,-215.99"/>
<polygon fill="black" stroke="black" points="160.33,-213.43 150.73,-208.95 155.44,-218.44 160.33,-213.43"/>
<text text-anchor="middle" x="211.04" y="-231.8" font-family="Times,serif" font-size="14.00">सम्बन्धः</text>
</g>
<!-- 9&#45;&gt;2 -->
<g id="edge2" class="edge">
<title>9&#45;&gt;2</title>
<path fill="none" stroke="black" d="M238.04,-260.8C238.04,-249.16 238.04,-233.55 238.04,-220.24"/>
<polygon fill="black" stroke="black" points="241.54,-220.18 238.04,-210.18 234.54,-220.18 241.54,-220.18"/>
<text text-anchor="middle" x="250.54" y="-231.8" font-family="Times,serif" font-size="14.00">कर्ता</text>
</g>
<!-- 9&#45;&gt;7 -->
<g id="edge7" class="edge">
<title>9&#45;&gt;7</title>
<path fill="none" stroke="black" d="M259.68,-262.01C277.78,-248.63 303.78,-229.41 323.75,-214.65"/>
<polygon fill="black" stroke="black" points="325.94,-217.39 331.9,-208.63 321.78,-211.76 325.94,-217.39"/>
<text text-anchor="middle" x="313.04" y="-231.8" font-family="Times,serif" font-size="14.00">कर्म</text>
</g>
</g>
</svg>
