<?xml version="1.0" encoding="UTF-8" standalone="no"?>
<!DOCTYPE svg PUBLIC "-//W3C//DTD SVG 1.1//EN"
 "http://www.w3.org/Graphics/SVG/1.1/DTD/svg11.dtd">
<!-- Generated by graphviz version 2.43.0 (0)
 -->
<!-- Title: %3 Pages: 1 -->
<svg width="850pt" height="218pt"
 viewBox="0.00 0.00 850.30 218.00" xmlns="http://www.w3.org/2000/svg" xmlns:xlink="http://www.w3.org/1999/xlink">
<g id="graph0" class="graph" transform="scale(1 1) rotate(0) translate(4 214)">
<title>%3</title>
<polygon fill="#fffacd" stroke="transparent" points="-4,4 -4,-214 846.3,-214 846.3,4 -4,4"/>
<!-- 1 -->
<g id="node1" class="node">
<title>1</title>
<g id="a_node1"><a xlink:title="इति{अव्य}">
<ellipse fill="#ff00ff" stroke="#ff00ff" cx="40.3" cy="-105" rx="40.09" ry="18"/>
<text text-anchor="middle" x="40.3" y="-101.3" font-family="Times,serif" font-size="14.00">इति (1)</text>
</a>
</g>
</g>
<!-- 2 -->
<g id="node2" class="node">
<title>2</title>
<g id="a_node2"><a xlink:title="युष्मद्{4;एक}">
<ellipse fill="#87cefa" stroke="#87cefa" cx="131.3" cy="-105" rx="32.49" ry="18"/>
<text text-anchor="middle" x="131.3" y="-101.3" font-family="Times,serif" font-size="14.00">ते (2)</text>
</a>
</g>
</g>
<!-- 3 -->
<g id="node3" class="node">
<title>3</title>
<g id="a_node3"><a xlink:title="ज्ञान{नपुं}{2;एक}">
<ellipse fill="#7cfc00" stroke="#7cfc00" cx="228.3" cy="-105" rx="46.29" ry="18"/>
<text text-anchor="middle" x="228.3" y="-101.3" font-family="Times,serif" font-size="14.00">ज्ञानम् (3)</text>
</a>
</g>
</g>
<!-- 5 -->
<g id="node5" class="node">
<title>5</title>
<g id="a_node5"><a xlink:title="गुह्य{नपुं}{5;एक}">
<ellipse fill="#90ee90" stroke="#90ee90" cx="118.3" cy="-18" rx="50.09" ry="18"/>
<text text-anchor="middle" x="118.3" y="-14.3" font-family="Times,serif" font-size="14.00">गुह्यात् (5)</text>
</a>
</g>
</g>
<!-- 3&#45;&gt;5 -->
<g id="edge4" class="edge">
<title>3&#45;&gt;5</title>
<path fill="none" stroke="black" d="M197.12,-91.54C184.65,-85.73 170.61,-78.08 159.3,-69 150.41,-61.86 142.12,-52.52 135.36,-43.84"/>
<polygon fill="black" stroke="black" points="138.15,-41.74 129.37,-35.83 132.55,-45.93 138.15,-41.74"/>
<text text-anchor="middle" x="195.3" y="-57.8" font-family="Times,serif" font-size="14.00">तुलना_बिन्दुः</text>
</g>
<!-- 6 -->
<g id="node6" class="node">
<title>6</title>
<g id="a_node6"><a xlink:title="गुह्यतर{नपुं}{2;एक}">
<ellipse fill="#7cfc00" stroke="#7cfc00" cx="243.3" cy="-18" rx="56.59" ry="18"/>
<text text-anchor="middle" x="243.3" y="-14.3" font-family="Times,serif" font-size="14.00">गुह्यतरम् (6)</text>
</a>
</g>
</g>
<!-- 3&#45;&gt;6 -->
<g id="edge5" class="edge">
<title>3&#45;&gt;6</title>
<path fill="none" stroke="black" d="M231.33,-86.8C233.39,-75.16 236.14,-59.55 238.49,-46.24"/>
<polygon fill="black" stroke="black" points="241.97,-46.63 240.27,-36.18 235.08,-45.41 241.97,-46.63"/>
<text text-anchor="middle" x="262.8" y="-57.8" font-family="Times,serif" font-size="14.00">विशेषणम्</text>
</g>
<!-- 4 -->
<g id="node4" class="node">
<title>4</title>
<g id="a_node4"><a xlink:title="आङ्_ख्या1{कृत्_प्रत्ययः:क्त;आङ्_ख्या;अदादिः;नपुं}{1;एक}">
<ellipse fill="#00bfff" stroke="#00bfff" cx="174.3" cy="-192" rx="61.99" ry="18"/>
<text text-anchor="middle" x="174.3" y="-188.3" font-family="Times,serif" font-size="14.00">आख्यातम् (4)</text>
</a>
</g>
</g>
<!-- 4&#45;&gt;1 -->
<g id="edge1" class="edge">
<title>4&#45;&gt;1</title>
<path fill="none" stroke="black" d="M131.45,-179.04C115.78,-173.49 98.45,-165.89 84.3,-156 74.43,-149.1 65.31,-139.54 57.96,-130.63"/>
<polygon fill="black" stroke="black" points="60.67,-128.42 51.74,-122.72 55.17,-132.74 60.67,-128.42"/>
<text text-anchor="middle" x="107.3" y="-144.8" font-family="Times,serif" font-size="14.00">सम्बन्धः</text>
</g>
<!-- 4&#45;&gt;2 -->
<g id="edge2" class="edge">
<title>4&#45;&gt;2</title>
<path fill="none" stroke="black" d="M154.03,-174.98C148.42,-169.54 142.89,-163.04 139.3,-156 135.72,-149 133.67,-140.8 132.51,-133.08"/>
<polygon fill="black" stroke="black" points="135.98,-132.58 131.43,-123.02 129.02,-133.33 135.98,-132.58"/>
<text text-anchor="middle" x="169.8" y="-144.8" font-family="Times,serif" font-size="14.00">सम्प्रदानम्</text>
</g>
<!-- 4&#45;&gt;3 -->
<g id="edge3" class="edge">
<title>4&#45;&gt;3</title>
<path fill="none" stroke="black" d="M187.44,-174.22C191.7,-168.55 196.35,-162.1 200.3,-156 205.27,-148.32 210.29,-139.7 214.67,-131.81"/>
<polygon fill="black" stroke="black" points="217.77,-133.44 219.49,-122.98 211.63,-130.08 217.77,-133.44"/>
<text text-anchor="middle" x="220.3" y="-144.8" font-family="Times,serif" font-size="14.00">कर्म</text>
</g>
<!-- 7 -->
<g id="node7" class="node">
<title>7</title>
<g id="a_node7"><a xlink:title="अस्मद्{3;एक}">
<ellipse fill="#40e0d0" stroke="#40e0d0" cx="332.3" cy="-105" rx="40.09" ry="18"/>
<text text-anchor="middle" x="332.3" y="-101.3" font-family="Times,serif" font-size="14.00">मया (7)</text>
</a>
</g>
</g>
<!-- 4&#45;&gt;7 -->
<g id="edge6" class="edge">
<title>4&#45;&gt;7</title>
<path fill="none" stroke="black" d="M202.54,-175.8C229.54,-161.28 270.23,-139.39 298.84,-124"/>
<polygon fill="black" stroke="black" points="300.52,-127.07 307.67,-119.25 297.2,-120.91 300.52,-127.07"/>
<text text-anchor="middle" x="275.8" y="-144.8" font-family="Times,serif" font-size="14.00">कर्ता</text>
</g>
<!-- 8 -->
<g id="node8" class="node">
<title>8</title>
<g id="a_node8"><a xlink:title="वि_मृश्1{कृत्_प्रत्ययः:ल्यप्;वि_मृशँ;तुदादिः}">
<ellipse fill="#808080" stroke="#808080" cx="459.3" cy="-105" rx="51.99" ry="18"/>
<text text-anchor="middle" x="459.3" y="-101.3" font-family="Times,serif" font-size="14.00">विमृश्य (8)</text>
</a>
</g>
</g>
<!-- 9 -->
<g id="node9" class="node">
<title>9</title>
<g id="a_node9"><a xlink:title="एतद्{नपुं}{2;एक}">
<ellipse fill="#7cfc00" stroke="#7cfc00" cx="368.3" cy="-18" rx="44.39" ry="18"/>
<text text-anchor="middle" x="368.3" y="-14.3" font-family="Times,serif" font-size="14.00">एतत् (9)</text>
</a>
</g>
</g>
<!-- 8&#45;&gt;9 -->
<g id="edge8" class="edge">
<title>8&#45;&gt;9</title>
<path fill="none" stroke="black" d="M441.75,-87.61C427.85,-74.63 408.27,-56.34 392.82,-41.91"/>
<polygon fill="black" stroke="black" points="394.87,-39.03 385.17,-34.76 390.09,-44.15 394.87,-39.03"/>
<text text-anchor="middle" x="429.3" y="-57.8" font-family="Times,serif" font-size="14.00">कर्म</text>
</g>
<!-- 10 -->
<g id="node10" class="node">
<title>10</title>
<g id="a_node10"><a xlink:title="अशेष{पुं}{3;एक}">
<ellipse fill="#40e0d0" stroke="#40e0d0" cx="492.3" cy="-18" rx="61.99" ry="18"/>
<text text-anchor="middle" x="492.3" y="-14.3" font-family="Times,serif" font-size="14.00">अ&#45;शेषेण (10)</text>
</a>
</g>
</g>
<!-- 8&#45;&gt;10 -->
<g id="edge9" class="edge">
<title>8&#45;&gt;10</title>
<path fill="none" stroke="black" d="M465.97,-86.8C470.54,-75.05 476.67,-59.24 481.88,-45.84"/>
<polygon fill="black" stroke="black" points="485.27,-46.76 485.63,-36.18 478.75,-44.23 485.27,-46.76"/>
<text text-anchor="middle" x="520.8" y="-57.8" font-family="Times,serif" font-size="14.00">क्रियाविशेषणम्</text>
</g>
<!-- 14.1 -->
<g id="node15" class="node">
<title>14.1</title>
<g id="a_node15"><a xlink:title="(युष्मद्{1;एक})">
<ellipse fill="#00bfff" stroke="#00bfff" cx="651.3" cy="-18" rx="62.29" ry="18"/>
<text text-anchor="middle" x="651.3" y="-14.3" font-family="Times,serif" font-size="14.00">(त्वम्) (14.1)</text>
</a>
</g>
</g>
<!-- 8&#45;&gt;14.1 -->
<g id="edge13" class="edge">
<title>8&#45;&gt;14.1</title>
<path fill="none" stroke="black" stroke-dasharray="1,5" d="M499.34,-93.35C520.05,-87.26 545.48,-78.88 567.3,-69 585.13,-60.92 603.95,-49.97 619.24,-40.38"/>
<polygon fill="black" stroke="black" points="621.26,-43.25 627.81,-34.92 617.49,-37.34 621.26,-43.25"/>
<text text-anchor="middle" x="608.8" y="-57.8" font-family="Times,serif" font-size="14.00">कर्ता</text>
</g>
<!-- 11 -->
<g id="node11" class="node">
<title>11</title>
<g id="a_node11"><a xlink:title="यथा{अव्य}">
<ellipse fill="#ff00ff" stroke="#ff00ff" cx="757.3" cy="-105" rx="47.39" ry="18"/>
<text text-anchor="middle" x="757.3" y="-101.3" font-family="Times,serif" font-size="14.00">यथा (11)</text>
</a>
</g>
</g>
<!-- 12 -->
<g id="node12" class="node">
<title>12</title>
<g id="a_node12"><a xlink:title="इष्2{कर्तरि;लट्;म;एक;परस्मैपदी;इषुँ;तुदादिः}">
<ellipse fill="#ff6347" stroke="#ff6347" cx="757.3" cy="-192" rx="59.29" ry="18"/>
<text text-anchor="middle" x="757.3" y="-188.3" font-family="Times,serif" font-size="14.00">इच्छसि (12)</text>
</a>
</g>
</g>
<!-- 12&#45;&gt;11 -->
<g id="edge10" class="edge">
<title>12&#45;&gt;11</title>
<path fill="none" stroke="black" d="M757.3,-173.8C757.3,-162.16 757.3,-146.55 757.3,-133.24"/>
<polygon fill="black" stroke="black" points="760.8,-133.18 757.3,-123.18 753.8,-133.18 760.8,-133.18"/>
<text text-anchor="middle" x="799.8" y="-144.8" font-family="Times,serif" font-size="14.00">क्रियाविशेषणम्</text>
</g>
<!-- 13 -->
<g id="node13" class="node">
<title>13</title>
<g id="a_node13"><a xlink:title="तथा{अव्य}">
<ellipse fill="#ff00ff" stroke="#ff00ff" cx="576.3" cy="-105" rx="46.59" ry="18"/>
<text text-anchor="middle" x="576.3" y="-101.3" font-family="Times,serif" font-size="14.00">तथा (13)</text>
</a>
</g>
</g>
<!-- 14 -->
<g id="node14" class="node">
<title>14</title>
<g id="a_node14"><a xlink:title="कृ3{कर्तरि;लोट्;म;एक;परस्मैपदी;डुकृञ्;तनादिः}">
<ellipse fill="#ff6347" stroke="#ff6347" cx="567.3" cy="-192" rx="44.39" ry="18"/>
<text text-anchor="middle" x="567.3" y="-188.3" font-family="Times,serif" font-size="14.00">कुरु (14)</text>
</a>
</g>
</g>
<!-- 14&#45;&gt;8 -->
<g id="edge7" class="edge">
<title>14&#45;&gt;8</title>
<path fill="none" stroke="black" d="M543.8,-176.59C534.4,-170.54 523.61,-163.24 514.3,-156 503.79,-147.83 492.82,-138.13 483.47,-129.46"/>
<polygon fill="black" stroke="black" points="485.72,-126.77 476.04,-122.47 480.93,-131.87 485.72,-126.77"/>
<text text-anchor="middle" x="538.8" y="-144.8" font-family="Times,serif" font-size="14.00">पूर्वकालः</text>
</g>
<!-- 14&#45;&gt;13 -->
<g id="edge11" class="edge">
<title>14&#45;&gt;13</title>
<path fill="none" stroke="black" d="M566.78,-173.81C566.7,-164.14 566.96,-151.86 568.3,-141 568.63,-138.31 569.08,-135.52 569.59,-132.75"/>
<polygon fill="black" stroke="black" points="573.02,-133.48 571.68,-122.97 566.17,-132.01 573.02,-133.48"/>
<text text-anchor="middle" x="610.8" y="-144.8" font-family="Times,serif" font-size="14.00">क्रियाविशेषणम्</text>
</g>
<!-- 14&#45;&gt;14.1 -->
<g id="edge12" class="edge">
<title>14&#45;&gt;14.1</title>
<path fill="none" stroke="black" d="M607.86,-184.71C624.86,-179.86 643.04,-171.25 653.3,-156 675.27,-123.34 668,-75.65 660.11,-46.02"/>
<polygon fill="black" stroke="black" points="663.46,-44.99 657.34,-36.34 656.73,-46.92 663.46,-44.99"/>
<text text-anchor="middle" x="680.8" y="-101.3" font-family="Times,serif" font-size="14.00">कर्ता</text>
</g>
</g>
</svg>
