<?xml version="1.0" encoding="UTF-8" standalone="no"?>
<!DOCTYPE svg PUBLIC "-//W3C//DTD SVG 1.1//EN"
 "http://www.w3.org/Graphics/SVG/1.1/DTD/svg11.dtd">
<!-- Generated by graphviz version 2.43.0 (0)
 -->
<!-- Title: %3 Pages: 1 -->
<svg width="1455pt" height="305pt"
 viewBox="0.00 0.00 1455.04 305.00" xmlns="http://www.w3.org/2000/svg" xmlns:xlink="http://www.w3.org/1999/xlink">
<g id="graph0" class="graph" transform="scale(1 1) rotate(0) translate(4 301)">
<title>%3</title>
<polygon fill="#fffacd" stroke="transparent" points="-4,4 -4,-301 1451.04,-301 1451.04,4 -4,4"/>
<!-- 1 -->
<g id="node1" class="node">
<title>1</title>
<g id="a_node1"><a xlink:title="न&#45;इष्2{कृत्_प्रत्ययः:क्त;इषुँ;तुदादिः;नपुं}{1;एक}">
<ellipse fill="#00bfff" stroke="#00bfff" cx="62.39" cy="-192" rx="62.29" ry="18"/>
<text text-anchor="middle" x="62.39" y="-188.3" font-family="Times,serif" font-size="14.00">अन्&#45;इष्टम् (1)</text>
</a>
</g>
</g>
<!-- 2 -->
<g id="node2" class="node">
<title>2</title>
<g id="a_node2"><a xlink:title="इष्2{कृत्_प्रत्ययः:क्त;इषुँ;तुदादिः;नपुं}{1;एक}">
<ellipse fill="#00bfff" stroke="#00bfff" cx="189.39" cy="-192" rx="46.29" ry="18"/>
<text text-anchor="middle" x="189.39" y="-188.3" font-family="Times,serif" font-size="14.00">इष्टम् (2)</text>
</a>
</g>
</g>
<!-- 3 -->
<g id="node3" class="node">
<title>3</title>
<g id="a_node3"><a xlink:title="मिश्र{पुं}{1;एक}">
<ellipse fill="#00bfff" stroke="#00bfff" cx="305.39" cy="-192" rx="51.99" ry="18"/>
<text text-anchor="middle" x="305.39" y="-188.3" font-family="Times,serif" font-size="14.00">मिश्रम् (3)</text>
</a>
</g>
</g>
<!-- 4 -->
<g id="node4" class="node">
<title>4</title>
<g id="a_node4"><a xlink:title="च{अव्य}">
<ellipse fill="#ff00ff" stroke="#ff00ff" cx="189.39" cy="-279" rx="33.29" ry="18"/>
<text text-anchor="middle" x="189.39" y="-275.3" font-family="Times,serif" font-size="14.00">च (4)</text>
</a>
</g>
</g>
<!-- 4&#45;&gt;1 -->
<g id="edge1" class="edge">
<title>4&#45;&gt;1</title>
<path fill="none" stroke="black" d="M165.84,-266.04C153.78,-259.64 139.02,-251.36 126.39,-243 113.94,-234.75 100.82,-224.76 89.74,-215.88"/>
<polygon fill="black" stroke="black" points="91.67,-212.94 81.69,-209.36 87.26,-218.38 91.67,-212.94"/>
<text text-anchor="middle" x="155.89" y="-231.8" font-family="Times,serif" font-size="14.00">समुच्चितम्</text>
</g>
<!-- 4&#45;&gt;2 -->
<g id="edge2" class="edge">
<title>4&#45;&gt;2</title>
<path fill="none" stroke="black" d="M189.39,-260.8C189.39,-249.16 189.39,-233.55 189.39,-220.24"/>
<polygon fill="black" stroke="black" points="192.89,-220.18 189.39,-210.18 185.89,-220.18 192.89,-220.18"/>
<text text-anchor="middle" x="218.89" y="-231.8" font-family="Times,serif" font-size="14.00">समुच्चितम्</text>
</g>
<!-- 4&#45;&gt;3 -->
<g id="edge3" class="edge">
<title>4&#45;&gt;3</title>
<path fill="none" stroke="black" d="M213.58,-266.37C225.68,-260.11 240.28,-251.87 252.39,-243 263.08,-235.18 273.89,-225.39 282.94,-216.56"/>
<polygon fill="black" stroke="black" points="285.48,-218.97 290.08,-209.42 280.53,-214.02 285.48,-218.97"/>
<text text-anchor="middle" x="299.89" y="-231.8" font-family="Times,serif" font-size="14.00">समुच्चितम्</text>
</g>
<!-- 5 -->
<g id="node5" class="node">
<title>5</title>
<g id="a_node5"><a xlink:title="त्रिविध{नपुं}{1;एक}">
<ellipse fill="#00bfff" stroke="#00bfff" cx="370.39" cy="-105" rx="63.89" ry="18"/>
<text text-anchor="middle" x="370.39" y="-101.3" font-family="Times,serif" font-size="14.00">त्रि&#45;विधम् (5)</text>
</a>
</g>
</g>
<!-- 6 -->
<g id="node6" class="node">
<title>6</title>
<g id="a_node6"><a xlink:title="कर्मन्{नपुं}{6;एक}">
<ellipse fill="#87ceeb" stroke="#87ceeb" cx="500.39" cy="-105" rx="48.99" ry="18"/>
<text text-anchor="middle" x="500.39" y="-101.3" font-family="Times,serif" font-size="14.00">कर्मणः (6)</text>
</a>
</g>
</g>
<!-- 9 -->
<g id="node9" class="node">
<title>9</title>
<g id="a_node9"><a xlink:title="न&#45;त्यागिन्{पुं}{6;बहु}">
<ellipse fill="#87ceeb" stroke="#87ceeb" cx="500.39" cy="-18" rx="73.39" ry="18"/>
<text text-anchor="middle" x="500.39" y="-14.3" font-family="Times,serif" font-size="14.00">अ&#45;त्यागिनाम् (9)</text>
</a>
</g>
</g>
<!-- 6&#45;&gt;9 -->
<g id="edge7" class="edge">
<title>6&#45;&gt;9</title>
<path fill="none" stroke="black" d="M500.39,-86.8C500.39,-75.16 500.39,-59.55 500.39,-46.24"/>
<polygon fill="black" stroke="black" points="503.89,-46.18 500.39,-36.18 496.89,-46.18 503.89,-46.18"/>
<text text-anchor="middle" x="525.89" y="-57.8" font-family="Times,serif" font-size="14.00">विशेषणम्</text>
</g>
<!-- 7 -->
<g id="node7" class="node">
<title>7</title>
<g id="a_node7"><a xlink:title="फल{नपुं}{1;एक}">
<ellipse fill="#00bfff" stroke="#00bfff" cx="421.39" cy="-192" rx="46.29" ry="18"/>
<text text-anchor="middle" x="421.39" y="-188.3" font-family="Times,serif" font-size="14.00">फलम् (7)</text>
</a>
</g>
</g>
<!-- 7&#45;&gt;5 -->
<g id="edge4" class="edge">
<title>7&#45;&gt;5</title>
<path fill="none" stroke="black" d="M410.75,-174.34C407.11,-168.56 403.03,-162.02 399.39,-156 394.7,-148.22 389.69,-139.69 385.19,-131.91"/>
<polygon fill="black" stroke="black" points="388.2,-130.13 380.18,-123.21 382.14,-133.63 388.2,-130.13"/>
<text text-anchor="middle" x="424.89" y="-144.8" font-family="Times,serif" font-size="14.00">विशेषणम्</text>
</g>
<!-- 7&#45;&gt;6 -->
<g id="edge5" class="edge">
<title>7&#45;&gt;6</title>
<path fill="none" stroke="black" d="M436.63,-174.61C448.43,-161.91 464.95,-144.13 478.22,-129.86"/>
<polygon fill="black" stroke="black" points="480.97,-132.05 485.21,-122.34 475.84,-127.28 480.97,-132.05"/>
<text text-anchor="middle" x="501.39" y="-144.8" font-family="Times,serif" font-size="14.00">षष्ठीसम्बन्धः</text>
</g>
<!-- 8 -->
<g id="node8" class="node">
<title>8</title>
<g id="a_node8"><a xlink:title="भू1{कर्तरि;लट्;प्र;एक;परस्मैपदी;भू;भ्वादिः}">
<ellipse fill="#ff6347" stroke="#ff6347" cx="508.39" cy="-279" rx="46.29" ry="18"/>
<text text-anchor="middle" x="508.39" y="-275.3" font-family="Times,serif" font-size="14.00">भवति (8)</text>
</a>
</g>
</g>
<!-- 8&#45;&gt;7 -->
<g id="edge6" class="edge">
<title>8&#45;&gt;7</title>
<path fill="none" stroke="black" d="M492.03,-262.01C478.79,-249.07 459.95,-230.67 445.06,-216.12"/>
<polygon fill="black" stroke="black" points="447.28,-213.4 437.69,-208.92 442.39,-218.41 447.28,-213.4"/>
<text text-anchor="middle" x="481.89" y="-231.8" font-family="Times,serif" font-size="14.00">कर्ता</text>
</g>
<!-- 10 -->
<g id="node10" class="node">
<title>10</title>
<g id="a_node10"><a xlink:title="प्र_इ1{कृत्_प्रत्ययः:ल्यप्;प्र_इण्;अदादिः}">
<ellipse fill="#808080" stroke="#808080" cx="537.39" cy="-192" rx="51.99" ry="18"/>
<text text-anchor="middle" x="537.39" y="-188.3" font-family="Times,serif" font-size="14.00">प्रेत्य (10)</text>
</a>
</g>
</g>
<!-- 8&#45;&gt;10 -->
<g id="edge8" class="edge">
<title>8&#45;&gt;10</title>
<path fill="none" stroke="black" d="M514.26,-260.8C518.27,-249.05 523.67,-233.24 528.24,-219.84"/>
<polygon fill="black" stroke="black" points="531.62,-220.77 531.53,-210.18 524.99,-218.51 531.62,-220.77"/>
<text text-anchor="middle" x="566.89" y="-231.8" font-family="Times,serif" font-size="14.00">क्रियाविशेषणम्</text>
</g>
<!-- 11 -->
<g id="node11" class="node">
<title>11</title>
<g id="a_node11"><a xlink:title="न{अव्य}">
<ellipse fill="#ff00ff" stroke="#ff00ff" cx="610.39" cy="-279" rx="38.19" ry="18"/>
<text text-anchor="middle" x="610.39" y="-275.3" font-family="Times,serif" font-size="14.00">न (11)</text>
</a>
</g>
</g>
<!-- 12 -->
<g id="node12" class="node">
<title>12</title>
<g id="a_node12"><a xlink:title="तु{अव्य}">
<ellipse fill="#ff00ff" stroke="#ff00ff" cx="705.39" cy="-279" rx="38.19" ry="18"/>
<text text-anchor="middle" x="705.39" y="-275.3" font-family="Times,serif" font-size="14.00">तु (12)</text>
</a>
</g>
</g>
<!-- 13 -->
<g id="node13" class="node">
<title>13</title>
<g id="a_node13"><a xlink:title="सन्न्यासिन्{पुं}{6;बहु}">
<ellipse fill="#87ceeb" stroke="#87ceeb" cx="840.39" cy="-279" rx="78.79" ry="18"/>
<text text-anchor="middle" x="840.39" y="-275.3" font-family="Times,serif" font-size="14.00">सन्न्यासिनाम् (13)</text>
</a>
</g>
</g>
<!-- 14 -->
<g id="node14" class="node">
<title>14</title>
<g id="a_node14"><a xlink:title="क्वचित्{अव्य}">
<ellipse fill="#ff00ff" stroke="#ff00ff" cx="994.39" cy="-279" rx="57.39" ry="18"/>
<text text-anchor="middle" x="994.39" y="-275.3" font-family="Times,serif" font-size="14.00">क्वचित् (14)</text>
</a>
</g>
</g>
<!-- 15 -->
<g id="node15" class="node">
<title>15</title>
<g id="a_node15"><a xlink:title="(भू1{कर्तरि;लट्;प्र;एक;परस्मैपदी;भू;भ्वादिः})">
<ellipse fill="#ff6347" stroke="#ff6347" cx="1128.39" cy="-279" rx="59.29" ry="18"/>
<text text-anchor="middle" x="1128.39" y="-275.3" font-family="Times,serif" font-size="14.00">(भवति) (15)</text>
</a>
</g>
</g>
<!-- 16 -->
<g id="node16" class="node">
<title>16</title>
<g id="a_node16"><a xlink:title="(फल{नपुं}{1;एक})">
<ellipse fill="#00bfff" stroke="#00bfff" cx="1264.39" cy="-279" rx="59.29" ry="18"/>
<text text-anchor="middle" x="1264.39" y="-275.3" font-family="Times,serif" font-size="14.00">(फलम्) (16)</text>
</a>
</g>
</g>
<!-- 17 -->
<g id="node17" class="node">
<title>17</title>
<g id="a_node17"><a xlink:title="(इति{अव्य})">
<ellipse fill="#ff00ff" stroke="#ff00ff" cx="1394.39" cy="-279" rx="52.79" ry="18"/>
<text text-anchor="middle" x="1394.39" y="-275.3" font-family="Times,serif" font-size="14.00">(इति) (17)</text>
</a>
</g>
</g>
</g>
</svg>
